<!-- Generator: Adobe Illustrator 22.1.0, SVG Export Plug-In  -->
<svg version="1.1"
     xmlns="http://www.w3.org/2000/svg" xmlns:xlink="http://www.w3.org/1999/xlink" xmlns:a="http://ns.adobe.com/AdobeSVGViewerExtensions/3.0/"
     x="0px" y="0px" width="53.6px" height="53.6px" viewBox="0 0 53.6 53.6" style="enable-background:new 0 0 53.6 53.6;"
     xml:space="preserve">
<style type="text/css">
    .st0{fill:none;stroke:#000000;stroke-width:0.7;stroke-linecap:round;}
</style>
<defs>
</defs>
<line class="st0" x1="15.5" y1="2" x2="15.5" y2="2"/>
<line class="st0" x1="15.5" y1="5" x2="15.5" y2="5"/>
<line class="st0" x1="15" y1="7.7" x2="15" y2="7.7"/>
<line class="st0" x1="10.7" y1="7.8" x2="10.7" y2="7.8"/>
<line class="st0" x1="17.8" y1="15.5" x2="17.8" y2="15.5"/>
<line class="st0" x1="10" y1="20.2" x2="10" y2="20.2"/>
<line class="st0" x1="17.8" y1="20" x2="17.8" y2="20"/>
<line class="st0" x1="22.1" y1="20" x2="22.1" y2="20"/>
<line class="st0" x1="21.7" y1="13.5" x2="21.7" y2="13.5"/>
<line class="st0" x1="23.9" y1="15" x2="23.9" y2="15"/>
<line class="st0" x1="25.3" y1="11" x2="25.3" y2="11"/>
<line class="st0" x1="23.6" y1="8.6" x2="23.6" y2="8.6"/>
<line class="st0" x1="24" y1="5" x2="24" y2="5"/>
<line class="st0" x1="22.6" y1="2" x2="22.6" y2="2"/>
<line class="st0" x1="25.3" y1="0.7" x2="25.3" y2="0.7"/>
<line class="st0" x1="30.9" y1="5" x2="30.9" y2="5"/>
<line class="st0" x1="33.9" y1="4.8" x2="33.9" y2="4.8"/>
<line class="st0" x1="35.6" y1="14.6" x2="35.6" y2="14.6"/>
<line class="st0" x1="27.9" y1="15" x2="27.9" y2="15"/>
<line class="st0" x1="40.8" y1="8" x2="40.8" y2="8"/>
<line class="st0" x1="42.1" y1="0.3" x2="42.1" y2="0.3"/>
<line class="st0" x1="50.4" y1="1.1" x2="50.4" y2="1.1"/>
<line class="st0" x1="50.4" y1="6.6" x2="50.4" y2="6.6"/>
<line class="st0" x1="48.9" y1="8.3" x2="48.9" y2="8.3"/>
<line class="st0" x1="48.7" y1="11.6" x2="48.7" y2="11.6"/>
<line class="st0" x1="47.6" y1="13.8" x2="47.6" y2="13.8"/>
<line class="st0" x1="5" y1="39" x2="5" y2="39"/>
<line class="st0" x1="5.8" y1="41.3" x2="5.8" y2="41.3"/>
<line class="st0" x1="1.5" y1="40.6" x2="1.5" y2="40.6"/>
<line class="st0" x1="7.1" y1="47.8" x2="7.1" y2="47.8"/>
<line class="st0" x1="8" y1="53" x2="8" y2="53"/>
<path class="st0" d="M13.7,48.9L13.7,48.9"/>
<line class="st0" x1="12" y1="46.5" x2="12" y2="46.5"/>
<line class="st0" x1="9" y1="46.3" x2="9" y2="46.3"/>
<line class="st0" x1="12.5" y1="41.5" x2="12.5" y2="41.5"/>
<line class="st0" x1="14.2" y1="38" x2="14.2" y2="38"/>
<line class="st0" x1="12.1" y1="38.8" x2="12.1" y2="38.8"/>
<line class="st0" x1="12" y1="35.2" x2="12" y2="35.2"/>
<line class="st0" x1="24.1" y1="39" x2="24.1" y2="39"/>
<line class="st0" x1="18.6" y1="41.6" x2="18.6" y2="41.6"/>
<line class="st0" x1="23.8" y1="41.6" x2="23.8" y2="41.6"/>
<line class="st0" x1="19.3" y1="47.6" x2="19.3" y2="47.6"/>
<line class="st0" x1="26.8" y1="42" x2="26.8" y2="42"/>
<line class="st0" x1="30.4" y1="38.5" x2="30.4" y2="38.5"/>
<line class="st0" x1="32.8" y1="32.6" x2="32.8" y2="32.6"/>
<line class="st0" x1="37.5" y1="38.4" x2="37.5" y2="38.4"/>
<line class="st0" x1="37.3" y1="35.1" x2="37.3" y2="35.1"/>
<line class="st0" x1="41" y1="35" x2="41" y2="35"/>
<line class="st0" x1="41" y1="40.5" x2="41" y2="40.5"/>
<line class="st0" x1="38.2" y1="42" x2="38.2" y2="42"/>
<line class="st0" x1="35.7" y1="45.3" x2="35.7" y2="45.3"/>
<line class="st0" x1="43.5" y1="45.9" x2="43.5" y2="45.9"/>
<line class="st0" x1="29" y1="18.3" x2="29" y2="18.3"/>
<line class="st0" x1="35.4" y1="20.2" x2="35.4" y2="20.2"/>
<line class="st0" x1="42.3" y1="21.3" x2="42.3" y2="21.3"/>
<line class="st0" x1="38.2" y1="18.7" x2="38.2" y2="18.7"/>
<line class="st0" x1="38.8" y1="21.9" x2="38.8" y2="21.9"/>
<line class="st0" x1="46.6" y1="26.4" x2="46.6" y2="26.4"/>
<line class="st0" x1="42.3" y1="29" x2="42.3" y2="29"/>
<line class="st0" x1="34.3" y1="27.1" x2="34.3" y2="27.1"/>
<line class="st0" x1="35.8" y1="33" x2="35.8" y2="33"/>
<line class="st0" x1="44" y1="34.5" x2="44" y2="34.5"/>
<line class="st0" x1="51.1" y1="32.6" x2="51.1" y2="32.6"/>
<line class="st0" x1="46.1" y1="29" x2="46.1" y2="29"/>
<line class="st0" x1="24.2" y1="35" x2="24.2" y2="35"/>
<line class="st0" x1="18.8" y1="27.6" x2="18.8" y2="27.6"/>
<line class="st0" x1="22.1" y1="26.4" x2="22.1" y2="26.4"/>
<line class="st0" x1="7.9" y1="21.6" x2="7.9" y2="21.6"/>
<line class="st0" x1="1.7" y1="26.2" x2="1.7" y2="26.2"/>
<line class="st0" x1="9.4" y1="32.1" x2="9.4" y2="32.1"/>
<line class="st0" x1="10.3" y1="25.3" x2="10.3" y2="25.3"/>
<line class="st0" x1="19.6" y1="21.5" x2="19.6" y2="21.5"/>
<line class="st0" x1="27.9" y1="25.5" x2="27.9" y2="25.5"/>
<line class="st0" x1="4.4" y1="14.6" x2="4.4" y2="14.6"/>
<line class="st0" x1="7.1" y1="13.8" x2="7.1" y2="13.8"/>
<line class="st0" x1="8.9" y1="18.2" x2="8.9" y2="18.2"/>
<line class="st0" x1="1.5" y1="18.3" x2="1.5" y2="18.3"/>
<line class="st0" x1="48" y1="21.9" x2="48" y2="21.9"/>
<line class="st0" x1="51.9" y1="22.1" x2="51.9" y2="22.1"/>
<line class="st0" x1="0.9" y1="6.5" x2="0.9" y2="6.5"/>
<line class="st0" x1="13.1" y1="4.8" x2="13.1" y2="4.8"/>
<line class="st0" x1="2.8" y1="5.1" x2="2.8" y2="5.1"/>
<line class="st0" x1="13.7" y1="14.2" x2="13.7" y2="14.2"/>
<line class="st0" x1="15.7" y1="27.5" x2="15.7" y2="27.5"/>
<line class="st0" x1="0.3" y1="33" x2="0.3" y2="33"/>
<line class="st0" x1="51.9" y1="49.1" x2="51.9" y2="49.1"/>
<line class="st0" x1="42.9" y1="51.5" x2="42.9" y2="51.5"/>
<line class="st0" x1="3.3" y1="45.1" x2="3.3" y2="45.1"/>
<line class="st0" x1="19.8" y1="44.8" x2="19.8" y2="44.8"/>
<line class="st0" x1="39" y1="28.3" x2="39" y2="28.3"/>
<line class="st0" x1="48.3" y1="34.1" x2="48.3" y2="34.1"/>
<line class="st0" x1="36.6" y1="49" x2="36.6" y2="49"/>
<line class="st0" x1="29.8" y1="28.1" x2="29.8" y2="28.1"/>
<line class="st0" x1="14.6" y1="19.7" x2="14.6" y2="19.7"/>
<line class="st0" x1="8.6" y1="1.1" x2="8.6" y2="1.1"/>
<line class="st0" x1="35.8" y1="51.5" x2="35.8" y2="51.5"/>
<line class="st0" x1="14.1" y1="11.2" x2="14.1" y2="11.2"/>
<line class="st0" x1="9.4" y1="11.8" x2="9.4" y2="11.8"/>
<line class="st0" x1="4.3" y1="8.6" x2="4.3" y2="8.6"/>
<line class="st0" x1="5" y1="1.8" x2="5" y2="1.8"/>
<line class="st0" x1="9.6" y1="5" x2="9.6" y2="5"/>
<line class="st0" x1="19.1" y1="5" x2="19.1" y2="5"/>
<line class="st0" x1="27.5" y1="5.4" x2="27.5" y2="5.4"/>
<line class="st0" x1="32.4" y1="0.9" x2="32.4" y2="0.9"/>
<line class="st0" x1="38.2" y1="6.5" x2="38.2" y2="6.5"/>
<line class="st0" x1="26.6" y1="8" x2="26.6" y2="8"/>
<line class="st0" x1="29.2" y1="11" x2="29.2" y2="11"/>
<line class="st0" x1="18.9" y1="11.8" x2="18.9" y2="11.8"/>
<line class="st0" x1="5.2" y1="20.6" x2="5.2" y2="20.6"/>
<line class="st0" x1="7.7" y1="24.9" x2="7.7" y2="24.9"/>
<line class="st0" x1="3.8" y1="28.5" x2="3.8" y2="28.5"/>
<line class="st0" x1="2.2" y1="15.2" x2="2.2" y2="15.2"/>
<line class="st0" x1="12.9" y1="26.4" x2="12.9" y2="26.4"/>
<line class="st0" x1="11.8" y1="29" x2="11.8" y2="29"/>
<line class="st0" x1="9.3" y1="34.6" x2="9.3" y2="34.6"/>
<line class="st0" x1="8.6" y1="41.3" x2="8.6" y2="41.3"/>
<line class="st0" x1="4.3" y1="47.4" x2="4.3" y2="47.4"/>
<line class="st0" x1="1.5" y1="46.3" x2="1.5" y2="46.3"/>
<line class="st0" x1="9.9" y1="51.9" x2="9.9" y2="51.9"/>
<line class="st0" x1="16.1" y1="52.8" x2="16.1" y2="52.8"/>
<line class="st0" x1="24.3" y1="48.8" x2="24.3" y2="48.8"/>
<line class="st0" x1="16.6" y1="45.1" x2="16.6" y2="45.1"/>
<line class="st0" x1="19.5" y1="35.6" x2="19.5" y2="35.6"/>
<line class="st0" x1="19.1" y1="32.4" x2="19.1" y2="32.4"/>
<line class="st0" x1="25.5" y1="20" x2="25.5" y2="20"/>
<line class="st0" x1="32.6" y1="18.5" x2="32.6" y2="18.5"/>
<line class="st0" x1="32" y1="15.3" x2="32" y2="15.3"/>
<line class="st0" x1="33.8" y1="12.1" x2="33.8" y2="12.1"/>
<line class="st0" x1="37.6" y1="13.3" x2="37.6" y2="13.3"/>
<line class="st0" x1="44.4" y1="12.7" x2="44.4" y2="12.7"/>
<line class="st0" x1="44.4" y1="7.8" x2="44.4" y2="7.8"/>
<line class="st0" x1="43.8" y1="5.4" x2="43.8" y2="5.4"/>
<line class="st0" x1="50.4" y1="4.3" x2="50.4" y2="4.3"/>
<line class="st0" x1="47.4" y1="6.7" x2="47.4" y2="6.7"/>
<line class="st0" x1="44.1" y1="18.5" x2="44.1" y2="18.5"/>
<line class="st0" x1="41.1" y1="18.6" x2="41.1" y2="18.6"/>
<line class="st0" x1="41.4" y1="13.8" x2="41.4" y2="13.8"/>
<line class="st0" x1="48.9" y1="18.3" x2="48.9" y2="18.3"/>
<line class="st0" x1="38.9" y1="25.3" x2="38.9" y2="25.3"/>
<line class="st0" x1="35.4" y1="25.1" x2="35.4" y2="25.1"/>
<line class="st0" x1="33" y1="29.2" x2="33" y2="29.2"/>
<line class="st0" x1="24.8" y1="32" x2="24.8" y2="32"/>
<line class="st0" x1="30" y1="33.6" x2="30" y2="33.6"/>
<line class="st0" x1="34.1" y1="39" x2="34.1" y2="39"/>
<line class="st0" x1="34.6" y1="42.3" x2="34.6" y2="42.3"/>
<line class="st0" x1="31.4" y1="44.8" x2="31.4" y2="44.8"/>
<line class="st0" x1="29.8" y1="46.8" x2="29.8" y2="46.8"/>
<line class="st0" x1="27.4" y1="48.1" x2="27.4" y2="48.1"/>
<line class="st0" x1="27.2" y1="39.3" x2="27.2" y2="39.3"/>
<line class="st0" x1="22.5" y1="46.5" x2="22.5" y2="46.5"/>
<line class="st0" x1="27.9" y1="52.3" x2="27.9" y2="52.3"/>
<line class="st0" x1="47" y1="42.5" x2="47" y2="42.5"/>
<line class="st0" x1="44.6" y1="39" x2="44.6" y2="39"/>
<line class="st0" x1="40.6" y1="38.5" x2="40.6" y2="38.5"/>
<line class="st0" x1="41.3" y1="32.1" x2="41.3" y2="32.1"/>
<line class="st0" x1="46.6" y1="31.5" x2="46.6" y2="31.5"/>
<line class="st0" x1="51.9" y1="40.5" x2="51.9" y2="40.5"/>
<line class="st0" x1="47.4" y1="46.1" x2="47.4" y2="46.1"/>
<line class="st0" x1="48.3" y1="48.9" x2="48.3" y2="48.9"/>
<line class="st0" x1="46.6" y1="52.5" x2="46.6" y2="52.5"/>
<line class="st0" x1="39.3" y1="52.1" x2="39.3" y2="52.1"/>
<line class="st0" x1="31.7" y1="49.1" x2="31.7" y2="49.1"/>
<line class="st0" x1="21.2" y1="53.2" x2="21.2" y2="53.2"/>
<line class="st0" x1="1.3" y1="21.7" x2="1.3" y2="21.7"/>
<line class="st0" x1="52.5" y1="25.7" x2="52.5" y2="25.7"/>
<line class="st0" x1="2" y1="38" x2="2" y2="38"/>
<line class="st0" x1="51.5" y1="19.7" x2="51.5" y2="19.7"/>
<line class="st0" x1="50.4" y1="46.1" x2="50.4" y2="46.1"/>
<line class="st0" x1="1.8" y1="53.2" x2="1.8" y2="53.2"/>
<line class="st0" x1="0.7" y1="12.3" x2="0.7" y2="12.3"/>
<line class="st0" x1="21.7" y1="7.3" x2="21.7" y2="7.3"/>
<line class="st0" x1="30" y1="7.5" x2="30" y2="7.5"/>
<line class="st0" x1="34.5" y1="7.5" x2="34.5" y2="7.5"/>
<line class="st0" x1="40.8" y1="4.8" x2="40.8" y2="4.8"/>
<line class="st0" x1="47.8" y1="4.7" x2="47.8" y2="4.7"/>
<line class="st0" x1="46.8" y1="1.3" x2="46.8" y2="1.3"/>
<line class="st0" x1="51.9" y1="13.3" x2="51.9" y2="13.3"/>
<line class="st0" x1="5.8" y1="35" x2="5.8" y2="35"/>
<line class="st0" x1="3.5" y1="42.3" x2="3.5" y2="42.3"/>
<line class="st0" x1="2.2" y1="49.1" x2="2.2" y2="49.1"/>
<line class="st0" x1="13.1" y1="52.1" x2="13.1" y2="52.1"/>
<line class="st0" x1="15.5" y1="47" x2="15.5" y2="47"/>
<line class="st0" x1="15.5" y1="33.7" x2="15.5" y2="33.7"/>
<line class="st0" x1="20.1" y1="39" x2="20.1" y2="39"/>
<line class="st0" x1="27.3" y1="45.1" x2="27.3" y2="45.1"/>
<line class="st0" x1="31.1" y1="41" x2="31.1" y2="41"/>
<line class="st0" x1="39.1" y1="45" x2="39.1" y2="45"/>
<line class="st0" x1="36.9" y1="47.2" x2="36.9" y2="47.2"/>
<line class="st0" x1="41" y1="48.7" x2="41" y2="48.7"/>
<line class="st0" x1="18.7" y1="18.2" x2="18.7" y2="18.2"/>
<line class="st0" x1="31.6" y1="21" x2="31.6" y2="21"/>
<line class="st0" x1="38.8" y1="32" x2="38.8" y2="32"/>
<line class="st0" x1="50" y1="38.6" x2="50" y2="38.6"/>
<line class="st0" x1="34.1" y1="35.1" x2="34.1" y2="35.1"/>
<line class="st0" x1="27.5" y1="33.1" x2="27.5" y2="33.1"/>
<line class="st0" x1="12.5" y1="21.2" x2="12.5" y2="21.2"/>
<line class="st0" x1="8.2" y1="27.3" x2="8.2" y2="27.3"/>
<line class="st0" x1="49.3" y1="25" x2="49.3" y2="25"/>
<line class="st0" x1="5.2" y1="11.6" x2="5.2" y2="11.6"/>
<line class="st0" x1="2.4" y1="1.7" x2="2.4" y2="1.7"/>
<line class="st0" x1="49.6" y1="27.7" x2="49.6" y2="27.7"/>
<line class="st0" x1="32.8" y1="47" x2="32.8" y2="47"/>
<line class="st0" x1="19.1" y1="52.3" x2="19.1" y2="52.3"/>
<line class="st0" x1="13.1" y1="32" x2="13.1" y2="32"/>
<line class="st0" x1="30.9" y1="25.7" x2="30.9" y2="25.7"/>
<line class="st0" x1="39.7" y1="11" x2="39.7" y2="11"/>
<line class="st0" x1="28.3" y1="13.1" x2="28.3" y2="13.1"/>
<line class="st0" x1="9.5" y1="14.8" x2="9.5" y2="14.8"/>
<line class="st0" x1="44" y1="15.3" x2="44" y2="15.3"/>
<line class="st0" x1="50.4" y1="42.7" x2="50.4" y2="42.7"/>
<line class="st0" x1="3.7" y1="52.1" x2="3.7" y2="52.1"/>
<line class="st0" x1="12.5" y1="1.8" x2="12.5" y2="1.8"/>
<line class="st0" x1="0.8" y1="3.2" x2="0.8" y2="3.2"/>
<line class="st0" x1="2.9" y1="3.2" x2="2.9" y2="3.2"/>
<line class="st0" x1="4.9" y1="3.2" x2="4.9" y2="3.2"/>
<line class="st0" x1="6.9" y1="3.2" x2="6.9" y2="3.2"/>
<line class="st0" x1="8.9" y1="3.2" x2="8.9" y2="3.2"/>
<line class="st0" x1="10.8" y1="3.2" x2="10.8" y2="3.2"/>
<line class="st0" x1="12.8" y1="3.2" x2="12.8" y2="3.2"/>
<line class="st0" x1="14.8" y1="3.2" x2="14.8" y2="3.2"/>
<line class="st0" x1="16.9" y1="3.2" x2="16.9" y2="3.2"/>
<line class="st0" x1="18.9" y1="3.2" x2="18.9" y2="3.2"/>
<line class="st0" x1="20.9" y1="3.2" x2="20.9" y2="3.2"/>
<line class="st0" x1="22.9" y1="3.2" x2="22.9" y2="3.2"/>
<line class="st0" x1="24.9" y1="3.2" x2="24.9" y2="3.2"/>
<line class="st0" x1="26.9" y1="3.2" x2="26.9" y2="3.2"/>
<line class="st0" x1="28.9" y1="3.2" x2="28.9" y2="3.2"/>
<line class="st0" x1="30.9" y1="3.2" x2="30.9" y2="3.2"/>
<line class="st0" x1="32.9" y1="3.2" x2="32.9" y2="3.2"/>
<line class="st0" x1="34.9" y1="3.2" x2="34.9" y2="3.2"/>
<line class="st0" x1="36.9" y1="3.2" x2="36.9" y2="3.2"/>
<line class="st0" x1="38.9" y1="3.2" x2="38.9" y2="3.2"/>
<line class="st0" x1="40.9" y1="3.2" x2="40.9" y2="3.2"/>
<line class="st0" x1="42.9" y1="3.2" x2="42.9" y2="3.2"/>
<line class="st0" x1="44.9" y1="3.2" x2="44.9" y2="3.2"/>
<line class="st0" x1="46.9" y1="3.2" x2="46.9" y2="3.2"/>
<line class="st0" x1="48.9" y1="3.2" x2="48.9" y2="3.2"/>
<line class="st0" x1="50.9" y1="3.2" x2="50.9" y2="3.2"/>
<line class="st0" x1="52.9" y1="3.2" x2="52.9" y2="3.2"/>
<line class="st0" x1="0.8" y1="9.9" x2="0.8" y2="9.9"/>
<line class="st0" x1="2.8" y1="9.9" x2="2.8" y2="9.9"/>
<line class="st0" x1="4.8" y1="9.9" x2="4.8" y2="9.9"/>
<line class="st0" x1="6.8" y1="9.9" x2="6.8" y2="9.9"/>
<line class="st0" x1="8.8" y1="9.9" x2="8.8" y2="9.9"/>
<line class="st0" x1="10.8" y1="9.9" x2="10.8" y2="9.9"/>
<line class="st0" x1="12.8" y1="9.9" x2="12.8" y2="9.9"/>
<line class="st0" x1="14.8" y1="9.9" x2="14.8" y2="9.9"/>
<line class="st0" x1="16.8" y1="9.9" x2="16.8" y2="9.9"/>
<line class="st0" x1="18.8" y1="9.9" x2="18.8" y2="9.9"/>
<line class="st0" x1="20.8" y1="9.9" x2="20.8" y2="9.9"/>
<line class="st0" x1="22.8" y1="9.9" x2="22.8" y2="9.9"/>
<line class="st0" x1="24.8" y1="9.9" x2="24.8" y2="9.9"/>
<line class="st0" x1="26.8" y1="9.9" x2="26.8" y2="9.9"/>
<line class="st0" x1="28.8" y1="9.9" x2="28.8" y2="9.9"/>
<line class="st0" x1="30.8" y1="9.9" x2="30.8" y2="9.9"/>
<line class="st0" x1="32.8" y1="9.9" x2="32.8" y2="9.9"/>
<line class="st0" x1="34.8" y1="9.9" x2="34.8" y2="9.9"/>
<line class="st0" x1="36.8" y1="9.9" x2="36.8" y2="9.9"/>
<line class="st0" x1="38.8" y1="9.9" x2="38.8" y2="9.9"/>
<line class="st0" x1="40.8" y1="9.9" x2="40.8" y2="9.9"/>
<line class="st0" x1="42.8" y1="9.9" x2="42.8" y2="9.9"/>
<line class="st0" x1="44.8" y1="9.9" x2="44.8" y2="9.9"/>
<line class="st0" x1="46.8" y1="9.9" x2="46.8" y2="9.9"/>
<line class="st0" x1="48.8" y1="9.9" x2="48.8" y2="9.9"/>
<line class="st0" x1="50.8" y1="9.9" x2="50.8" y2="9.9"/>
<line class="st0" x1="52.8" y1="9.9" x2="52.8" y2="9.9"/>
<line class="st0" x1="0.8" y1="16.7" x2="0.8" y2="16.7"/>
<line class="st0" x1="2.8" y1="16.7" x2="2.8" y2="16.7"/>
<line class="st0" x1="4.8" y1="16.7" x2="4.8" y2="16.7"/>
<line class="st0" x1="6.8" y1="16.7" x2="6.8" y2="16.7"/>
<line class="st0" x1="8.8" y1="16.7" x2="8.8" y2="16.7"/>
<line class="st0" x1="10.8" y1="16.7" x2="10.8" y2="16.7"/>
<line class="st0" x1="12.8" y1="16.7" x2="12.8" y2="16.7"/>
<line class="st0" x1="14.8" y1="16.7" x2="14.8" y2="16.7"/>
<line class="st0" x1="16.8" y1="16.7" x2="16.8" y2="16.7"/>
<line class="st0" x1="18.8" y1="16.7" x2="18.8" y2="16.7"/>
<line class="st0" x1="20.8" y1="16.7" x2="20.8" y2="16.7"/>
<line class="st0" x1="22.8" y1="16.7" x2="22.8" y2="16.7"/>
<line class="st0" x1="24.8" y1="16.7" x2="24.8" y2="16.7"/>
<line class="st0" x1="26.8" y1="16.7" x2="26.8" y2="16.7"/>
<line class="st0" x1="28.8" y1="16.7" x2="28.8" y2="16.7"/>
<line class="st0" x1="30.8" y1="16.7" x2="30.8" y2="16.7"/>
<line class="st0" x1="32.8" y1="16.7" x2="32.8" y2="16.7"/>
<line class="st0" x1="34.8" y1="16.7" x2="34.8" y2="16.7"/>
<line class="st0" x1="36.8" y1="16.7" x2="36.8" y2="16.7"/>
<line class="st0" x1="38.8" y1="16.7" x2="38.8" y2="16.7"/>
<line class="st0" x1="40.8" y1="16.7" x2="40.8" y2="16.7"/>
<line class="st0" x1="42.8" y1="16.7" x2="42.8" y2="16.7"/>
<line class="st0" x1="44.8" y1="16.7" x2="44.8" y2="16.7"/>
<line class="st0" x1="46.8" y1="16.7" x2="46.8" y2="16.7"/>
<line class="st0" x1="48.8" y1="16.7" x2="48.8" y2="16.7"/>
<line class="st0" x1="50.8" y1="16.7" x2="50.8" y2="16.7"/>
<line class="st0" x1="52.8" y1="16.7" x2="52.8" y2="16.7"/>
<line class="st0" x1="0.7" y1="23.4" x2="0.7" y2="23.4"/>
<line class="st0" x1="2.7" y1="23.4" x2="2.7" y2="23.4"/>
<line class="st0" x1="4.7" y1="23.4" x2="4.7" y2="23.4"/>
<line class="st0" x1="6.7" y1="23.4" x2="6.7" y2="23.4"/>
<line class="st0" x1="8.7" y1="23.4" x2="8.7" y2="23.4"/>
<line class="st0" x1="10.7" y1="23.4" x2="10.7" y2="23.4"/>
<line class="st0" x1="12.7" y1="23.4" x2="12.7" y2="23.4"/>
<line class="st0" x1="14.7" y1="23.4" x2="14.7" y2="23.4"/>
<line class="st0" x1="16.7" y1="23.4" x2="16.7" y2="23.4"/>
<line class="st0" x1="18.7" y1="23.4" x2="18.7" y2="23.4"/>
<line class="st0" x1="20.7" y1="23.4" x2="20.7" y2="23.4"/>
<line class="st0" x1="22.7" y1="23.4" x2="22.7" y2="23.4"/>
<line class="st0" x1="24.7" y1="23.4" x2="24.7" y2="23.4"/>
<line class="st0" x1="26.7" y1="23.4" x2="26.7" y2="23.4"/>
<line class="st0" x1="28.7" y1="23.4" x2="28.7" y2="23.4"/>
<line class="st0" x1="30.7" y1="23.4" x2="30.7" y2="23.4"/>
<line class="st0" x1="32.7" y1="23.4" x2="32.7" y2="23.4"/>
<line class="st0" x1="34.7" y1="23.4" x2="34.7" y2="23.4"/>
<line class="st0" x1="36.7" y1="23.4" x2="36.7" y2="23.4"/>
<line class="st0" x1="38.7" y1="23.4" x2="38.7" y2="23.4"/>
<line class="st0" x1="40.7" y1="23.4" x2="40.7" y2="23.4"/>
<line class="st0" x1="42.7" y1="23.4" x2="42.7" y2="23.4"/>
<line class="st0" x1="44.8" y1="23.4" x2="44.8" y2="23.4"/>
<line class="st0" x1="46.8" y1="23.4" x2="46.8" y2="23.4"/>
<line class="st0" x1="48.8" y1="23.4" x2="48.8" y2="23.4"/>
<line class="st0" x1="50.8" y1="23.4" x2="50.8" y2="23.4"/>
<line class="st0" x1="52.7" y1="23.4" x2="52.7" y2="23.4"/>
<line class="st0" x1="0.7" y1="30.2" x2="0.7" y2="30.2"/>
<line class="st0" x1="2.7" y1="30.2" x2="2.7" y2="30.2"/>
<line class="st0" x1="4.7" y1="30.2" x2="4.7" y2="30.2"/>
<line class="st0" x1="6.7" y1="30.2" x2="6.7" y2="30.2"/>
<line class="st0" x1="8.7" y1="30.2" x2="8.7" y2="30.2"/>
<line class="st0" x1="10.7" y1="30.2" x2="10.7" y2="30.2"/>
<line class="st0" x1="12.7" y1="30.2" x2="12.7" y2="30.2"/>
<line class="st0" x1="14.7" y1="30.2" x2="14.7" y2="30.2"/>
<line class="st0" x1="16.7" y1="30.2" x2="16.7" y2="30.2"/>
<line class="st0" x1="18.7" y1="30.2" x2="18.7" y2="30.2"/>
<line class="st0" x1="20.7" y1="30.2" x2="20.7" y2="30.2"/>
<line class="st0" x1="22.7" y1="30.2" x2="22.7" y2="30.2"/>
<line class="st0" x1="24.7" y1="30.2" x2="24.7" y2="30.2"/>
<line class="st0" x1="26.7" y1="30.2" x2="26.7" y2="30.2"/>
<line class="st0" x1="28.7" y1="30.2" x2="28.7" y2="30.2"/>
<line class="st0" x1="30.7" y1="30.2" x2="30.7" y2="30.2"/>
<line class="st0" x1="32.7" y1="30.2" x2="32.7" y2="30.2"/>
<line class="st0" x1="34.7" y1="30.2" x2="34.7" y2="30.2"/>
<line class="st0" x1="36.7" y1="30.2" x2="36.7" y2="30.2"/>
<line class="st0" x1="38.7" y1="30.2" x2="38.7" y2="30.2"/>
<line class="st0" x1="40.7" y1="30.2" x2="40.7" y2="30.2"/>
<line class="st0" x1="42.7" y1="30.2" x2="42.7" y2="30.2"/>
<line class="st0" x1="44.7" y1="30.2" x2="44.7" y2="30.2"/>
<line class="st0" x1="46.7" y1="30.2" x2="46.7" y2="30.2"/>
<line class="st0" x1="48.7" y1="30.2" x2="48.7" y2="30.2"/>
<line class="st0" x1="50.7" y1="30.2" x2="50.7" y2="30.2"/>
<line class="st0" x1="52.7" y1="30.2" x2="52.7" y2="30.2"/>
<line class="st0" x1="0.6" y1="36.9" x2="0.6" y2="36.9"/>
<line class="st0" x1="2.6" y1="36.9" x2="2.6" y2="36.9"/>
<line class="st0" x1="4.6" y1="36.9" x2="4.6" y2="36.9"/>
<line class="st0" x1="6.6" y1="36.9" x2="6.6" y2="36.9"/>
<line class="st0" x1="8.6" y1="36.9" x2="8.6" y2="36.9"/>
<line class="st0" x1="10.6" y1="36.9" x2="10.6" y2="36.9"/>
<line class="st0" x1="12.6" y1="36.9" x2="12.6" y2="36.9"/>
<line class="st0" x1="14.6" y1="36.9" x2="14.6" y2="36.9"/>
<line class="st0" x1="16.6" y1="36.9" x2="16.6" y2="36.9"/>
<line class="st0" x1="18.6" y1="36.9" x2="18.6" y2="36.9"/>
<line class="st0" x1="20.6" y1="36.9" x2="20.6" y2="36.9"/>
<line class="st0" x1="22.6" y1="36.9" x2="22.6" y2="36.9"/>
<line class="st0" x1="24.6" y1="36.9" x2="24.6" y2="36.9"/>
<line class="st0" x1="26.6" y1="36.9" x2="26.6" y2="36.9"/>
<line class="st0" x1="28.6" y1="36.9" x2="28.6" y2="36.9"/>
<line class="st0" x1="30.6" y1="36.9" x2="30.6" y2="36.9"/>
<line class="st0" x1="32.6" y1="36.9" x2="32.6" y2="36.9"/>
<line class="st0" x1="34.6" y1="36.9" x2="34.6" y2="36.9"/>
<line class="st0" x1="36.6" y1="36.9" x2="36.6" y2="36.9"/>
<line class="st0" x1="38.6" y1="36.9" x2="38.6" y2="36.9"/>
<line class="st0" x1="40.6" y1="36.9" x2="40.6" y2="36.9"/>
<line class="st0" x1="42.6" y1="36.9" x2="42.6" y2="36.9"/>
<line class="st0" x1="44.6" y1="36.9" x2="44.6" y2="36.9"/>
<line class="st0" x1="46.6" y1="36.9" x2="46.6" y2="36.9"/>
<line class="st0" x1="48.6" y1="36.9" x2="48.6" y2="36.9"/>
<line class="st0" x1="50.6" y1="36.9" x2="50.6" y2="36.9"/>
<line class="st0" x1="52.6" y1="36.9" x2="52.6" y2="36.9"/>
<line class="st0" x1="0.6" y1="43.7" x2="0.6" y2="43.7"/>
<line class="st0" x1="2.6" y1="43.7" x2="2.6" y2="43.7"/>
<line class="st0" x1="4.6" y1="43.7" x2="4.6" y2="43.7"/>
<line class="st0" x1="6.6" y1="43.7" x2="6.6" y2="43.7"/>
<line class="st0" x1="8.6" y1="43.7" x2="8.6" y2="43.7"/>
<line class="st0" x1="10.6" y1="43.7" x2="10.6" y2="43.7"/>
<line class="st0" x1="12.6" y1="43.7" x2="12.6" y2="43.7"/>
<line class="st0" x1="14.6" y1="43.7" x2="14.6" y2="43.7"/>
<line class="st0" x1="16.6" y1="43.7" x2="16.6" y2="43.7"/>
<line class="st0" x1="18.6" y1="43.7" x2="18.6" y2="43.7"/>
<line class="st0" x1="20.6" y1="43.7" x2="20.6" y2="43.7"/>
<line class="st0" x1="22.6" y1="43.7" x2="22.6" y2="43.7"/>
<line class="st0" x1="24.6" y1="43.7" x2="24.6" y2="43.7"/>
<line class="st0" x1="26.6" y1="43.7" x2="26.6" y2="43.7"/>
<line class="st0" x1="28.6" y1="43.7" x2="28.6" y2="43.7"/>
<line class="st0" x1="30.6" y1="43.7" x2="30.6" y2="43.7"/>
<line class="st0" x1="32.6" y1="43.7" x2="32.6" y2="43.7"/>
<line class="st0" x1="34.6" y1="43.7" x2="34.6" y2="43.7"/>
<line class="st0" x1="36.6" y1="43.7" x2="36.6" y2="43.7"/>
<line class="st0" x1="38.6" y1="43.7" x2="38.6" y2="43.7"/>
<line class="st0" x1="40.6" y1="43.7" x2="40.6" y2="43.7"/>
<line class="st0" x1="42.6" y1="43.7" x2="42.6" y2="43.7"/>
<line class="st0" x1="44.6" y1="43.7" x2="44.6" y2="43.7"/>
<line class="st0" x1="46.6" y1="43.7" x2="46.6" y2="43.7"/>
<line class="st0" x1="48.6" y1="43.7" x2="48.6" y2="43.7"/>
<line class="st0" x1="50.6" y1="43.7" x2="50.6" y2="43.7"/>
<line class="st0" x1="52.6" y1="43.7" x2="52.6" y2="43.7"/>
<line class="st0" x1="0.6" y1="50.4" x2="0.6" y2="50.4"/>
<line class="st0" x1="2.6" y1="50.4" x2="2.6" y2="50.4"/>
<line class="st0" x1="4.6" y1="50.4" x2="4.6" y2="50.4"/>
<line class="st0" x1="6.6" y1="50.4" x2="6.6" y2="50.4"/>
<line class="st0" x1="8.6" y1="50.4" x2="8.6" y2="50.4"/>
<line class="st0" x1="10.6" y1="50.4" x2="10.6" y2="50.4"/>
<line class="st0" x1="12.6" y1="50.4" x2="12.6" y2="50.4"/>
<line class="st0" x1="14.6" y1="50.4" x2="14.6" y2="50.4"/>
<line class="st0" x1="16.6" y1="50.4" x2="16.6" y2="50.4"/>
<line class="st0" x1="18.6" y1="50.4" x2="18.6" y2="50.4"/>
<line class="st0" x1="20.6" y1="50.4" x2="20.6" y2="50.4"/>
<line class="st0" x1="22.6" y1="50.4" x2="22.6" y2="50.4"/>
<line class="st0" x1="24.6" y1="50.4" x2="24.6" y2="50.4"/>
<line class="st0" x1="26.6" y1="50.4" x2="26.6" y2="50.4"/>
<line class="st0" x1="28.6" y1="50.4" x2="28.6" y2="50.4"/>
<line class="st0" x1="30.6" y1="50.4" x2="30.6" y2="50.4"/>
<line class="st0" x1="32.6" y1="50.4" x2="32.6" y2="50.4"/>
<line class="st0" x1="34.6" y1="50.4" x2="34.6" y2="50.4"/>
<line class="st0" x1="36.6" y1="50.4" x2="36.6" y2="50.4"/>
<line class="st0" x1="38.6" y1="50.4" x2="38.6" y2="50.4"/>
<line class="st0" x1="40.6" y1="50.4" x2="40.6" y2="50.4"/>
<line class="st0" x1="42.6" y1="50.4" x2="42.6" y2="50.4"/>
<line class="st0" x1="44.6" y1="50.4" x2="44.6" y2="50.4"/>
<line class="st0" x1="46.6" y1="50.4" x2="46.6" y2="50.4"/>
<line class="st0" x1="48.6" y1="50.4" x2="48.6" y2="50.4"/>
<line class="st0" x1="50.6" y1="50.4" x2="50.6" y2="50.4"/>
<line class="st0" x1="52.6" y1="50.4" x2="52.6" y2="50.4"/>
<line class="st0" x1="5.4" y1="18.5" x2="5.4" y2="18.5"/>
<line class="st0" x1="2.2" y1="35.2" x2="2.2" y2="35.2"/>
<line class="st0" x1="7.4" y1="45" x2="7.4" y2="45"/>
<line class="st0" x1="9.9" y1="49.1" x2="9.9" y2="49.1"/>
<line class="st0" x1="16.3" y1="39.7" x2="16.3" y2="39.7"/>
<line class="st0" x1="25.3" y1="25.3" x2="25.3" y2="25.3"/>
<line class="st0" x1="19.3" y1="25.3" x2="19.3" y2="25.3"/>
<line class="st0" x1="27.7" y1="21.2" x2="27.7" y2="21.2"/>
<line class="st0" x1="45.7" y1="20" x2="45.7" y2="20"/>
<line class="st0" x1="43.8" y1="42.5" x2="43.8" y2="42.5"/>
<line class="st0" x1="43.8" y1="31.6" x2="43.8" y2="31.6"/>
<line class="st0" x1="41.6" y1="26.4" x2="41.6" y2="26.4"/>
<line class="st0" x1="51.7" y1="52.6" x2="51.7" y2="52.6"/>
<line class="st0" x1="45.3" y1="49.1" x2="45.3" y2="49.1"/>
<line class="st0" x1="33.1" y1="53.2" x2="33.1" y2="53.2"/>
<line class="st0" x1="18.2" y1="0.5" x2="18.2" y2="0.5"/>
<line class="st0" x1="25.8" y1="27.7" x2="25.8" y2="27.7"/>
<line class="st0" x1="44" y1="24.9" x2="44" y2="24.9"/>
<line class="st0" x1="5.2" y1="32" x2="5.2" y2="32"/>
<line class="st0" x1="7.5" y1="6.7" x2="7.5" y2="6.7"/>
<line class="st0" x1="18" y1="7.7" x2="18" y2="7.7"/>
<line class="st0" x1="4.8" y1="6.2" x2="4.8" y2="6.2"/>
<line class="st0" x1="4.7" y1="25.3" x2="4.7" y2="25.3"/>
<line class="st0" x1="16.3" y1="24.9" x2="16.3" y2="24.9"/>
<line class="st0" x1="22.1" y1="33" x2="22.1" y2="33"/>
<line class="st0" x1="47.2" y1="40.1" x2="47.2" y2="40.1"/>
<line class="st0" x1="37.1" y1="0.7" x2="37.1" y2="0.7"/>
<line class="st0" x1="53.2" y1="47" x2="53.2" y2="47"/>
<line class="st0" x1="53.1" y1="38.5" x2="53.1" y2="38.5"/>
<line class="st0" x1="52.6" y1="8" x2="52.6" y2="8"/>
<line class="st0" x1="53" y1="28.5" x2="53" y2="28.5"/>
<line class="st0" x1="29.6" y1="1.1" x2="29.6" y2="1.1"/>
<line class="st0" x1="15.5" y1="2" x2="15.5" y2="2"/>
<line class="st0" x1="23.6" y1="8.6" x2="23.6" y2="8.6"/>
<line class="st0" x1="50.1" y1="15" x2="50.1" y2="15"/>
<line class="st0" x1="31" y1="35.5" x2="31" y2="35.5"/>
<line class="st0" x1="41" y1="40.5" x2="41" y2="40.5"/>
<line class="st0" x1="16.9" y1="13.5" x2="16.9" y2="13.5"/>
<line class="st0" x1="25.5" y1="20" x2="25.5" y2="20"/>
<line class="st0" x1="37.6" y1="13.3" x2="37.6" y2="13.3"/>
<line class="st0" x1="36.3" y1="28.3" x2="36.3" y2="28.3"/>
<line class="st0" x1="9.1" y1="38.7" x2="9.1" y2="38.7"/>
<line class="st0" x1="9.9" y1="49.1" x2="9.9" y2="49.1"/>
<line class="st0" x1="33.1" y1="53.2" x2="33.1" y2="53.2"/>
<line class="st0" x1="44" y1="24.9" x2="44" y2="24.9"/>
<line class="st0" x1="53.2" y1="47" x2="53.2" y2="47"/>
</svg>
