<!-- Generator: Adobe Illustrator 22.1.0, SVG Export Plug-In  -->
<svg version="1.1"
     xmlns="http://www.w3.org/2000/svg" xmlns:xlink="http://www.w3.org/1999/xlink" xmlns:a="http://ns.adobe.com/AdobeSVGViewerExtensions/3.0/"
     x="0px" y="0px" width="54.1px" height="58px" viewBox="0 0 54.1 58" style="enable-background:new 0 0 54.1 58;"
     xml:space="preserve">
<style type="text/css">
    .st0{fill:none;stroke:#000000;stroke-width:4;}
    .st1{fill:none;stroke:#000000;stroke-width:4.5;}
    .st2{fill:none;stroke:#000000;stroke-width:2;}
    .st3{fill:none;stroke:#000000;stroke-width:0.8;}
    .st4{fill:none;stroke:#000000;stroke-width:0.7;}
    .st5{fill:none;stroke:#000000;stroke-width:0.4;}
    .st6{fill:none;stroke:#000000;stroke-width:0.3;}
</style>
<defs>
</defs>
<line class="st0" x1="0" y1="13.4" x2="54.1" y2="13.4"/>
<line class="st0" x1="54.1" y1="56" x2="0" y2="56"/>
<line class="st0" x1="0" y1="2" x2="54.1" y2="2"/>
<line class="st1" x1="54.1" y1="46.3" x2="0" y2="46.3"/>
<line class="st2" x1="54.1" y1="38.8" x2="0" y2="38.8"/>
<line class="st2" x1="54.1" y1="31.9" x2="0" y2="31.9"/>
<line class="st3" x1="54.1" y1="26.9" x2="0" y2="26.9"/>
<line class="st4" x1="54.1" y1="22.4" x2="0" y2="22.4"/>
<line class="st4" x1="0" y1="6.8" x2="54.1" y2="6.8"/>
<line class="st4" x1="54.1" y1="19.4" x2="0" y2="19.4"/>
<line class="st4" x1="54.1" y1="35.6" x2="0" y2="35.6"/>
<line class="st5" x1="54.1" y1="51" x2="0" y2="51"/>
<line class="st5" x1="54.1" y1="41.2" x2="0" y2="41.2"/>
<line class="st5" x1="0" y1="42.2" x2="54.1" y2="42.2"/>
<line class="st5" x1="54.1" y1="34.4" x2="0" y2="34.4"/>
<line class="st5" x1="54.1" y1="29.2" x2="0" y2="29.2"/>
<line class="st5" x1="54.1" y1="21.5" x2="0" y2="21.5"/>
<line class="st6" x1="0" y1="17.2" x2="54.1" y2="17.2"/>
<line class="st6" x1="0" y1="18.2" x2="54.1" y2="18.2"/>
<line class="st6" x1="0" y1="4.9" x2="54.1" y2="4.9"/>
<line class="st6" x1="54.1" y1="24.6" x2="0" y2="24.6"/>
<line class="st6" x1="54.1" y1="25.7" x2="0" y2="25.7"/>
<line class="st6" x1="54.1" y1="51.9" x2="0" y2="51.9"/>
<line class="st6" x1="54.1" y1="28" x2="0" y2="28"/>
<line class="st6" x1="54.1" y1="36.9" x2="0" y2="36.9"/>
<line class="st6" x1="54.1" y1="43.2" x2="0" y2="43.2"/>
<line class="st6" x1="54.1" y1="49.4" x2="0" y2="49.4"/>
<line class="st6" x1="54.1" y1="33.6" x2="0" y2="33.6"/>
<line class="st4" x1="0" y1="10.3" x2="54.1" y2="10.3"/>
<line class="st5" x1="0" y1="9" x2="54.1" y2="9"/>
<line class="st6" x1="0" y1="7.9" x2="54.1" y2="7.9"/>
</svg>
