<!-- Generator: Adobe Illustrator 22.1.0, SVG Export Plug-In  -->
<svg version="1.1"
     xmlns="http://www.w3.org/2000/svg" xmlns:xlink="http://www.w3.org/1999/xlink" xmlns:a="http://ns.adobe.com/AdobeSVGViewerExtensions/3.0/"
     x="0px" y="0px" width="85.3px" height="85.3px" viewBox="0 0 85.3 85.3" style="enable-background:new 0 0 85.3 85.3;"
     xml:space="preserve">
<style type="text/css">
    .st0{clip-path:url(#SVGID_2_);fill:none;stroke:#000000;stroke-width:0.3;}
    .st1{clip-path:url(#SVGID_4_);fill:none;stroke:#000000;stroke-width:0.3;}
</style>
<defs>
</defs>
<g>
    <defs>
        <rect id="SVGID_1_" x="0.2" y="0.2" width="85" height="85"/>
    </defs>
    <clipPath id="SVGID_2_">
        <use xlink:href="#SVGID_1_"  style="overflow:visible;"/>
    </clipPath>
    <line class="st0" x1="4" y1="2.4" x2="3.7" y2="0.2"/>
    <line class="st0" x1="13.1" y1="0.2" x2="13.2" y2="0.8"/>
    <line class="st0" x1="8.2" y1="1.8" x2="8.2" y2="1.8"/>
    <line class="st0" x1="8.2" y1="1.8" x2="8.7" y2="4.3"/>
    <line class="st0" x1="19.5" y1="1.7" x2="18.9" y2="0.2"/>
    <line class="st0" x1="3.7" y1="10.6" x2="3.1" y2="5.3"/>
    <line class="st0" x1="12.5" y1="3.6" x2="13.8" y2="8.4"/>
    <line class="st0" x1="22.7" y1="0.8" x2="24.4" y2="3.8"/>
    <line class="st0" x1="77.5" y1="0.2" x2="77.2" y2="2.9"/>
    <line class="st0" x1="64.6" y1="0.2" x2="62.9" y2="4.5"/>
    <line class="st0" x1="79.9" y1="5.9" x2="79.9" y2="6"/>
    <line class="st0" x1="79.9" y1="5.9" x2="79.9" y2="3.1"/>
    <path class="st0" d="M42.7,42.5c-0.4,0-0.9,0-1.4,0"/>
    <path class="st0" d="M24.9,40.5c3.1,0.6,6.1,1,8.9,1.3"/>
    <path class="st0" d="M41.3,42.5c-2.1-0.1-4.7-0.3-7.6-0.6"/>
    <path class="st0" d="M11.5,37.3C6.8,35.8,2.8,34,0.2,32"/>
    <path class="st0" d="M24.9,40.5c-4.5-0.8-9.2-1.9-13.4-3.3"/>
    <path class="st0" d="M81.5,34.3c1.4-0.7,2.6-1.5,3.7-2.2"/>
    <path class="st0" d="M69.4,38.5c4.5-1.2,8.8-2.6,12.1-4.3"/>
    <path class="st0" d="M60.7,40.5c-2.7,0.5-5.5,0.9-8,1.3"/>
    <path class="st0" d="M69.4,38.5c-2.8,0.7-5.8,1.4-8.7,1.9"/>
    <path class="st0" d="M52.7,41.7c-3.9,0.5-7.4,0.8-10,0.8"/>
    <path class="st0" d="M17.9,60.1c-7.2-1.8-14-4.1-17.7-7"/>
    <path class="st0" d="M29.3,62.4c5.2,0.8,10,1.2,13.3,1.2"/>
    <path class="st0" d="M17.9,60.1c3.8,0.9,7.8,1.7,11.5,2.2"/>
    <path class="st0" d="M79.6,56.3c2.2-1,4.2-2,5.6-3.2"/>
    <path class="st0" d="M79.6,56.3c-1.7,0.7-3.5,1.4-5.4,2"/>
    <path class="st0" d="M74.1,58.3c-0.8,0.3-1.7,0.5-2.6,0.8"/>
    <path class="st0" d="M71.5,59.1c-2.3,0.7-4.8,1.3-7.3,1.8"/>
    <path class="st0" d="M42.7,63.6c1.7,0,3.7-0.1,6-0.3"/>
    <path class="st0" d="M48.7,63.3c4.6-0.4,10.1-1.2,15.6-2.4"/>
    <path class="st0" d="M6.5,14.3c-2.5-1-4.6-2.2-6.3-3.4"/>
    <path class="st0" d="M15.3,17.2c-3.2-0.8-6.2-1.8-8.8-2.9"/>
    <path class="st0" d="M0.2,10.8C0.2,10.8,0.2,10.9,0.2,10.8"/>
    <path class="st0" d="M24.6,19.3c2.1,0.4,4.2,0.7,6.2,1"/>
    <path class="st0" d="M30.8,20.3c4.7,0.7,8.9,1,11.9,1"/>
    <path class="st0" d="M24.6,19.3c-3.1-0.6-6.3-1.3-9.3-2.1"/>
    <path class="st0" d="M55.9,20.1c-5.2,0.8-10,1.2-13.2,1.2"/>
    <path class="st0" d="M85.2,10.8C85.2,10.8,85.1,10.9,85.2,10.8"/>
    <path class="st0" d="M55.9,20.1c10.7-1.6,23.4-4.8,29.2-9.2"/>
    <path class="st0" d="M57.7,47.9c-2.2-1-4.2-2.2-6-3.5"/>
    <path class="st0" d="M77.2,52.7c2.8,0.3,5.5,0.4,8,0.4"/>
    <path class="st0" d="M51.7,44.4C51.7,44.4,51.7,44.4,51.7,44.4"/>
    <path class="st0" d="M77.2,52.7c-6.5-0.6-13.6-2.1-19.5-4.8"/>
    <path class="st0" d="M43.8,69.1c0.3,0.3,0.7,0.5,1.1,0.8"/>
    <path class="st0" d="M62.2,74c8.5,0.6,17.5,0.2,22.9,0.2"/>
    <path class="st0" d="M56.6,73.4c-4.6-0.6-8.8-1.7-11.7-3.5"/>
    <path class="st0" d="M62.2,74c-1.9-0.1-3.8-0.3-5.6-0.6"/>
    <path class="st0" d="M70.5,31.4c2.8,0.2,5.5,0.3,7.8,0.4"/>
    <path class="st0" d="M78.4,31.8c2.8,0.1,5.2,0.1,6.8,0.1"/>
    <path class="st0" d="M64,30.9c2.2,0.2,4.4,0.4,6.5,0.5"/>
    <path class="st0" d="M37.5,25.2c1.3,0.6,2.6,1.1,4.1,1.6"/>
    <path class="st0" d="M41.6,26.7c6.5,2.1,14.7,3.4,22.5,4.1"/>
    <path class="st0" d="M36.4,24.7c-2.5-1.2-4.5-2.7-5.7-4.4"/>
    <path class="st0" d="M37.5,25.2c-0.4-0.2-0.7-0.3-1-0.5"/>
    <path class="st0" d="M30.7,20.2c0,0,0.1,0.1,0.1,0.1"/>
    <path class="st0" d="M74.5,79.4c-0.8,0.3-1.7,0.5-2.5,0.8"/>
    <path class="st0" d="M82.4,76.1c1-0.6,1.9-1.1,2.7-1.8"/>
    <path class="st0" d="M63.4,82.3c2.9-0.6,5.9-1.3,8.6-2.1"/>
    <path class="st0" d="M82.4,76.1c-2.2,1.2-4.9,2.3-7.9,3.3"/>
    <path class="st0" d="M44.6,84.8c1.9-0.1,4.2-0.3,6.6-0.5"/>
    <path class="st0" d="M42.6,84.9c0.6,0,1.3,0,2,0"/>
    <path class="st0" d="M63.4,82.3c-4.2,0.9-8.4,1.5-12.2,2"/>
    <path class="st0" d="M42.6,84.9C42.6,84.9,42.6,84.9,42.6,84.9"/>
    <path class="st0" d="M31.5,84c0.4,0,0.7,0.1,1.1,0.1"/>
    <path class="st0" d="M40.2,84.8c-2.2-0.1-4.8-0.3-7.6-0.7"/>
    <path class="st0" d="M1.8,75.5c-0.6-0.4-1.1-0.7-1.6-1.1"/>
    <path class="st0" d="M42.6,84.9c-0.7,0-1.6,0-2.4-0.1"/>
    <path class="st0" d="M31.5,84c-1.2-0.2-2.4-0.3-3.6-0.5"/>
    <path class="st0" d="M23.5,82.6c1.5,0.3,3,0.6,4.4,0.8"/>
    <path class="st0" d="M42.6,84.9C42.6,84.9,42.7,84.9,42.6,84.9"/>
    <path class="st0" d="M8.1,78.5c-0.5-0.2-0.9-0.4-1.4-0.5"/>
    <path class="st0" d="M12.7,80c-1.6-0.5-3.1-1-4.6-1.5"/>
    <path class="st0" d="M16.5,81.1c1,0.2,2,0.5,2.9,0.7"/>
    <path class="st0" d="M23.5,82.6c-1.4-0.3-2.7-0.5-4.1-0.9"/>
    <path class="st0" d="M6.8,77.9c-1.9-0.8-3.6-1.6-5-2.4"/>
    <path class="st0" d="M12.7,80c1.2,0.4,2.5,0.7,3.8,1"/>
    <path class="st0" d="M85.1,10.9C85.1,10.9,85.2,10.9,85.1,10.9"/>
    <path class="st0" d="M45.6,8.6c3.1,0.7,6.1,1.3,9,1.7"/>
    <path class="st0" d="M54.6,10.3c13,1.7,24.4,0.6,30.5,0.6"/>
    <path class="st0" d="M27.7,1.9c-0.1,0-0.1-0.1-0.2-0.1"/>
    <path class="st0" d="M33.7,4.8c-2-0.9-4.1-1.8-6.1-2.9"/>
    <path class="st0" d="M33.7,4.8c3.9,1.6,7.9,2.9,11.8,3.8"/>
    <path class="st0" d="M47.8,45.5c1.4-0.4,2.7-0.8,3.9-1.1"/>
    <path class="st0" d="M38.3,47.8c-2.9,0.6-5.9,1.2-8.9,1.7"/>
    <path class="st0" d="M47.8,45.5c-2.9,0.8-6.1,1.5-9.5,2.2"/>
    <path class="st0" d="M29.5,49.5c-7.6,1.3-15.2,2.4-21,3"/>
    <path class="st0" d="M60.7,40.5C60.7,40.5,60.7,40.5,60.7,40.5"/>
    <path class="st0" d="M8.5,52.5c-3.5,0.4-6.4,0.6-8.3,0.6"/>
    <path class="st0" d="M60.7,40.5c-1.8,1.3-4.9,2.7-9,3.9"/>
    <path class="st0" d="M34.4,71c1.6-0.3,3.3-0.6,4.9-1"/>
    <path class="st0" d="M53.3,66.7c-4.4,1.3-9.2,2.4-14,3.4"/>
    <path class="st0" d="M27.8,72.2c1.6-0.2,3.2-0.5,4.9-0.8"/>
    <path class="st0" d="M62.5,63.6c3.6-1.4,6.7-2.9,9-4.5"/>
    <path class="st0" d="M27.8,72.2c-11.3,1.7-21.7,2.5-27.6,2"/>
    <path class="st0" d="M71.9,58.8c-0.1,0.1-0.2,0.2-0.4,0.3"/>
    <path class="st0" d="M32.7,71.4c0.6-0.1,1.2-0.2,1.7-0.3"/>
    <path class="st0" d="M62.5,63.6c-1.4,0.5-2.8,1.1-4.3,1.6"/>
    <path class="st0" d="M53.3,66.7c1.7-0.5,3.3-1,4.9-1.5"/>
    <path class="st0" d="M28.3,29.1c1.5-0.6,3.1-1.4,4.7-2.3"/>
    <path class="st0" d="M36.5,24.7C36.5,24.7,36.5,24.7,36.5,24.7"/>
    <path class="st0" d="M36.4,24.7c-1.2,0.8-2.3,1.4-3.4,2.1"/>
    <path class="st0" d="M28.3,29.1c-11.4,4.8-19.9,2.9-28.1,2.8"/>
    <path class="st0" d="M27.7,1.9c0.9-0.6,1.7-1.1,2.5-1.7"/>
    <path class="st0" d="M10.2,9.5c-1.8,0.5-3.6,0.8-5.3,1"/>
    <path class="st0" d="M23,4.6c1.6-0.8,3.1-1.7,4.6-2.7"/>
    <path class="st0" d="M23,4.6c-1.6,0.8-3.3,1.6-5,2.3"/>
    <path class="st0" d="M10.2,9.5c2.6-0.7,5.2-1.5,7.8-2.6"/>
    <path class="st0" d="M4.9,10.5c-1.6,0.2-3.2,0.3-4.7,0.4"/>
    <path class="st0" d="M0.2,10.9C0.2,10.9,0.2,10.9,0.2,10.9"/>
    <path class="st0" d="M24.1,0.2C17.9,2.6,9.2,4.8,0.2,5.5"/>
    <path class="st0" d="M0.2,0.2c0,0,0.1,0,0.1,0"/>
    <path class="st0" d="M4.5,29.1C3,29,1.6,28.9,0.2,28.8"/>
    <path class="st0" d="M34.6,23.7c-7.3,4.8-18.5,6-30.1,5.4"/>
    <path class="st0" d="M0.2,26.4c0.5,0,1.1,0.1,1.6,0.1"/>
    <path class="st0" d="M27.4,24.1c1.8-0.5,3.5-1.1,5.2-1.8"/>
    <path class="st0" d="M13.9,26.4c-4,0.3-8.1,0.3-12.1,0.1"/>
    <path class="st0" d="M27.4,24.1c-4.2,1.2-8.8,2-13.5,2.4"/>
    <path class="st0" d="M6.5,14.3C6.5,14.3,6.5,14.3,6.5,14.3"/>
    <path class="st0" d="M2.5,14.7c-0.8,0-1.6,0-2.3-0.2"/>
    <path class="st0" d="M6.5,14.3c-1.6,0.2-2.9,0.4-4,0.4"/>
    <path class="st0" d="M15.3,17.2C15.3,17.2,15.3,17.2,15.3,17.2"/>
    <path class="st0" d="M12.2,18.4c1-0.3,2.1-0.7,3.1-1.2"/>
    <path class="st0" d="M12.2,18.4c-4,1.3-8.1,1.7-12,1.5"/>
    <path class="st0" d="M24.6,19.3c-1.8,0.7-3.5,1.3-5.2,1.9"/>
    <path class="st0" d="M7.7,23.4c3.8-0.3,7.7-1,11.7-2.3"/>
    <path class="st0" d="M7.7,23.4c-2.6,0.2-5.1,0.2-7.5,0"/>
    <path class="st0" d="M24.6,19.3c0,0,0.1,0,0.1,0"/>
    <path class="st0" d="M3.7,85c-1.2,0.1-2.4,0.1-3.6,0.1"/>
    <line class="st0" x1="19.4" y1="81.8" x2="19.4" y2="81.8"/>
    <path class="st0" d="M3.7,85c4.9-0.4,10.2-1.5,14.9-3l0.7-0.3"/>
    <line class="st0" x1="12.7" y1="80" x2="12.8" y2="80"/>
    <path class="st0" d="M12.7,80l-0.8,0.3C7.7,81.7,3.6,82,0.2,81.7"/>
    <path class="st0" d="M85.2,85.2c-2.8,0-5.4-0.3-7.6-1"/>
    <path class="st0" d="M77.6,84.2c-2.4-0.7-4.2-1.9-5.4-3.6L72,80.2"/>
    <line class="st0" x1="72" y1="80.2" x2="72" y2="80.1"/>
    <path class="st0" d="M75.5,79.1l0.5,0.2c0.6,0.5,2.2,1.2,4.5,1.7"/>
    <path class="st0" d="M85.2,81.7c-1.7-0.1-3.3-0.4-4.6-0.7"/>
    <path class="st0" d="M79.9,5.9c1.8,0,3.5-0.2,5.2-0.3c0,0,0,0,0,0"/>
    <path class="st0" d="M79.9,5.9c-2.1,0.1-4.2,0-6.3-0.1"/>
    <path class="st0" d="M52.2,0.2c2,1.4,4.3,2.5,7,3.3"/>
    <path class="st0" d="M73.6,5.9c-5.1-0.2-10.1-1-14.5-2.4"/>
    <path class="st0" d="M6.7,17c-2.6,0.5-4.7,0.5-6.5,0.2"/>
    <path class="st0" d="M6.7,17c1.3-0.2,2.7-0.6,4.2-1.1"/>
    <path class="st0" d="M60.1,24.8c-6-1.4-10.8-2.7-13.5-3.6"/>
    <path class="st0" d="M74.7,27.5c3.4,0.5,6.9,1,10.4,1.3c0,0,0,0,0.1,0"/>
    <path class="st0" d="M68.2,26.4c-2.8-0.5-5.5-1.1-8-1.7"/>
    <path class="st0" d="M74.7,27.5c-2.2-0.3-4.5-0.7-6.6-1.1"/>
    <path class="st0" d="M55.9,20.1c0.2,0.1,0.4,0.2,0.5,0.3"/>
    <path class="st0" d="M81.2,26.1c-8.9-0.9-19-2.7-24.8-5.7"/>
    <path class="st0" d="M81.2,26.1c1.3,0.1,2.6,0.2,3.9,0.3c0,0,0,0,0.1,0"/>
    <path class="st0" d="M55.9,20.1C55.9,20.1,55.9,20.1,55.9,20.1"/>
    <path class="st0" d="M80.5,13.6c1.7,0.6,3.4,0.7,4.7,0.9c0,0,0,0,0.1,0"/>
    <path class="st0" d="M71.2,17.3c3.7,1.5,9.2,2.3,14,2.6"/>
    <path class="st0" d="M71.2,17.3c-0.2-0.1-0.4-0.2-0.6-0.3"/>
    <path class="st0" d="M64.9,18.9c-0.2-0.1-0.4-0.2-0.6-0.3"/>
    <path class="st0" d="M83.1,23.2c-2.2-0.2-4.6-0.5-7-0.9"/>
    <path class="st0" d="M64.9,18.9c3,1.6,7,2.6,11.1,3.3"/>
    <path class="st0" d="M83.1,23.2c0.7,0.1,1.4,0.1,2.1,0.2c0,0,0,0,0.1,0"/>
    <path class="st0" d="M76.6,15.2c1.2,1,5,1.5,8.5,2.1c0,0,0,0,0.1,0"/>
    <path class="st0" d="M83.4,10.8c-14.3-1.1-23.2-2.5-30.8-6"/>
    <path class="st0" d="M44.8,0.2c2.5,1.9,5,3.4,7.7,4.6"/>
    <path class="st0" d="M43.8,3.3c-1.3-1.2-2.5-2.2-3.3-3.1"/>
    <path class="st0" d="M43.8,3.3C47,6,51.4,9.1,57.1,10.4"/>
    <path class="st0" d="M45.6,8.6c0.1,0,0.2,0.1,0.3,0.1"/>
    <path class="st0" d="M45.6,8.6c-3.3-1.5-8.5-5.4-12-8.5"/>
    <path class="st0" d="M85.2,0.2c-0.4,0-0.7,0-1.1,0"/>
    <path class="st0" d="M36.5,21c0.6,0.5,1.1,0.9,1.7,1.3"/>
    <path class="st0" d="M55.5,29.8c-7.7-1.6-12.9-4.3-17.2-7.5"/>
    <path class="st0" d="M81.8,31.8C68.3,31.5,48.3,25,42.5,21.3"/>
    <path class="st0" d="M33.7,4.8c0,0,0.1,0,0.1,0"/>
    <path class="st0" d="M28.6,4c-1.1-0.2-2.1-0.5-2.9-0.9"/>
    <path class="st0" d="M33.7,4.8c-1.6-0.2-3.5-0.4-5.1-0.8"/>
    <path class="st0" d="M39,6.8c-7.1,1.5-9.7-0.3-16-2.2"/>
    <path class="st0" d="M23,4.6c0,0-0.1,0-0.1,0"/>
    <path class="st0" d="M18,6.9C18,6.9,17.9,6.9,18,6.9"/>
    <path class="st0" d="M47.3,9.1C45.8,9.6,44,10,42,10.2"/>
    <path class="st0" d="M27.9,9.9c4.7,0.7,9.9,0.8,14.1,0.3"/>
    <path class="st0" d="M27.9,9.9c-3.9-0.6-7.4-1.6-9.9-3"/>
    <path class="st0" d="M14.6,8.2C15.2,8.7,16,9.3,17,9.8"/>
    <path class="st0" d="M54.6,10.3C54.6,10.2,54.6,10.2,54.6,10.3"/>
    <path class="st0" d="M54.6,10.3c-16.3,6.1-31,3.1-37.6-0.4"/>
    <path class="st0" d="M11,10.4c2.4,2.2,6.8,3.9,12.2,4.9"/>
    <path class="st0" d="M23.2,15.3c5.2,1,11.4,1.5,17.5,1.3"/>
    <path class="st0" d="M10.2,9.5c0,0-0.1-0.1-0.1-0.1"/>
    <path class="st0" d="M40.7,16.7c6.5-0.2,12.9-1,17.9-2.5"/>
    <path class="st0" d="M10.2,9.5c0.2,0.3,0.5,0.6,0.8,0.9"/>
    <path class="st0" d="M65,11.2c-1.6,1.2-3.8,2.2-6.4,3"/>
    <path class="st0" d="M30,18.5c-9.4-0.9-18.2-3.3-24.6-7.6"/>
    <path class="st0" d="M4.9,10.5C4.9,10.5,4.9,10.5,4.9,10.5"/>
    <path class="st0" d="M30,18.5c6,0.6,12.2,0.6,18.1,0.1"/>
    <path class="st0" d="M76.8,11.2c-2.6,1.6-6,3-9.9,4.1"/>
    <path class="st0" d="M4.9,10.5c0.2,0.1,0.4,0.2,0.5,0.4"/>
    <path class="st0" d="M66.9,15.3c-5.5,1.6-12,2.8-18.8,3.3"/>
    <path class="st0" d="M33,26.8C33,26.8,32.9,26.7,33,26.8"/>
    <path class="st0" d="M41.6,26.7c-1.5,0.4-5.7,1.2-8.6,0"/>
    <path class="st0" d="M41.6,26.7C41.6,26.7,41.6,26.7,41.6,26.7"/>
    <path class="st0" d="M28.3,29.1c0.1,0,0.2,0,0.3,0.1"/>
    <path class="st0" d="M28.2,29.1C28.2,29.1,28.2,29.1,28.2,29.1"/>
    <path class="st0" d="M49.7,28.9c-8.6,2.2-14.1,1.9-21.2,0.3"/>
    <path class="st0" d="M43.2,33.4c-9,0.9-16.9-0.1-20-2.6"/>
    <path class="st0" d="M58,30.2c-4.9,1.7-10,2.7-14.9,3.2"/>
    <path class="st0" d="M59.2,34c1.7-0.8,3.4-1.9,4.8-3.1"/>
    <path class="st0" d="M30.1,36.4c-6.6-1-12.2-2.7-15.5-4.2"/>
    <path class="st0" d="M46.9,37.1c4.4-0.4,8.7-1.4,12.3-3.2"/>
    <path class="st0" d="M46.9,37.1c-5.6,0.5-11.5,0.2-16.8-0.7"/>
    <line class="st0" x1="64" y1="30.9" x2="64" y2="30.9"/>
    <path class="st0" d="M56.6,39c3.7-0.6,7.3-1.6,10.9-2.9"/>
    <path class="st0" d="M17,36.2c-4.7-1.4-8.2-2.9-9.8-3.9"/>
    <path class="st0" d="M56.6,39c-8.6,1.5-17.5,1.2-25.3,0.2"/>
    <path class="st0" d="M31.4,39.2c-5.4-0.7-10.4-1.8-14.4-3"/>
    <path class="st0" d="M76.4,31.7c-2.8,1.8-5.8,3.2-8.9,4.4"/>
    <path class="st0" d="M47.7,45.5C47.8,45.5,47.8,45.5,47.7,45.5"/>
    <path class="st0" d="M47.8,45.5c1.2,1,2.2,1.5,3.6,1.8"/>
    <path class="st0" d="M57.9,47.9c0,0-0.1,0-0.1,0"/>
    <path class="st0" d="M57.7,47.9c-3-0.1-4.9-0.2-6.4-0.5"/>
    <path class="st0" d="M38.3,47.8c2,0.6,3.7,1.1,5.1,1.5"/>
    <path class="st0" d="M38.2,47.7c0.1,0,0.1,0,0.2,0"/>
    <path class="st0" d="M58.6,49.7c0.7-0.1,1.5-0.3,2.3-0.5"/>
    <path class="st0" d="M58.6,49.7c-7.2,1.4-10.1,1-15.1-0.4"/>
    <path class="st0" d="M29.5,49.5c-0.1,0-0.2,0-0.3-0.1"/>
    <path class="st0" d="M65,50.5c-6.2,1.6-11.2,2.1-16.3,1.9"/>
    <path class="st0" d="M48.7,52.5c-5.6-0.2-11.4-1.4-19.2-3"/>
    <path class="st0" d="M39.7,54.6c-6-0.7-11.6-2.2-17.4-3.9"/>
    <path class="st0" d="M39.7,54.6c5.6,0.7,11.6,0.8,18.4-0.1"/>
    <path class="st0" d="M71.2,52c-4.7,1.2-9,2-13.1,2.5"/>
    <path class="st0" d="M77.2,52.7c-8.5,1.7-15.8,3.2-22.6,4.1"/>
    <path class="st0" d="M77.2,52.7c0.1,0,0.2,0,0.3-0.1"/>
    <path class="st0" d="M27.6,55.6c-3.9-0.9-7.9-2.2-12.3-4"/>
    <path class="st0" d="M40.7,57.5c-4.3-0.2-8.6-0.7-13.1-1.8"/>
    <path class="st0" d="M54.7,56.8c-4.8,0.6-9.3,0.9-13.9,0.7"/>
    <path class="st0" d="M76.6,54.9c1.4-0.5,2.9-1.1,4.3-1.7"/>
    <path class="st0" d="M76.6,54.9c-4.2,1.6-8.5,2.9-12.7,3.8"/>
    <path class="st0" d="M8.4,52.4c0,0,0.1,0,0.1,0.1"/>
    <path class="st0" d="M63.9,58.7c-20.2,4.5-39.8,1.8-55.5-6.2"/>
    <path class="st0" d="M48.9,71.7c-3.5-0.1-5-0.1-6.1-0.4"/>
    <path class="st0" d="M39.3,70.1c1.7,0.7,2.4,1,3.4,1.2"/>
    <path class="st0" d="M39.2,70c0,0,0.1,0,0.1,0"/>
    <path class="st0" d="M34.4,71c-0.1,0-0.1,0-0.2-0.1"/>
    <path class="st0" d="M56.6,73.4c-0.3,0-0.5,0.1-0.8,0.1"/>
    <path class="st0" d="M56.6,73.4C56.6,73.4,56.6,73.4,56.6,73.4"/>
    <path class="st0" d="M47.3,74.1c-5,0-7.7-0.9-10.4-2"/>
    <path class="st0" d="M34.4,71c0.9,0.4,1.7,0.7,2.5,1"/>
    <path class="st0" d="M55.9,73.5c-3.5,0.4-6.3,0.6-8.6,0.6"/>
    <path class="st0" d="M49.5,75.4c-4,0.3-7.1,0.3-9.8,0"/>
    <path class="st0" d="M27.8,72.2c4.5,1.8,7.8,2.9,11.9,3.3"/>
    <path class="st0" d="M62.2,74c-1,0.1-2,0.3-3,0.4"/>
    <path class="st0" d="M62.2,74c0,0,0.1,0,0.1,0"/>
    <path class="st0" d="M59.2,74.4c-3.8,0.5-7,0.8-9.7,1"/>
    <path class="st0" d="M27.8,72.2c0,0-0.1,0-0.1,0"/>
    <path class="st0" d="M46.4,78.8c-2.4,0.1-4.7,0-6.8-0.3"/>
    <path class="st0" d="M20,73.2c1.4,0.5,2.7,1,4.1,1.5"/>
    <path class="st0" d="M65.9,75.2c0.8-0.2,1.5-0.5,2.3-0.8"/>
    <path class="st0" d="M65.9,75.2c-7.5,2.4-13.9,3.5-19.6,3.6"/>
    <path class="st0" d="M39.5,78.5c-5.8-0.6-10.8-2.1-15.4-3.8"/>
    <path class="st0" d="M58.7,79.5c-3.5,0.9-6.9,1.4-10.2,1.6"/>
    <path class="st0" d="M29.2,79.5c5.8,1.3,12.2,2.1,19.3,1.6"/>
    <path class="st0" d="M20.4,76.9c-2.9-1-5.5-2-7.9-2.9"/>
    <path class="st0" d="M68.4,76.3c-3.3,1.4-6.6,2.4-9.7,3.2"/>
    <path class="st0" d="M20.4,76.9c2.7,0.9,5.7,1.8,8.8,2.6"/>
    <path class="st0" d="M68.4,76.3c1.5-0.6,3-1.3,4.5-2"/>
    <path class="st0" d="M15.5,78.8c-3.2-1.2-6.4-2.6-9.6-4.4"/>
    <path class="st0" d="M29.5,82.4c2.7,0.4,5.3,0.7,7.9,0.8"/>
    <path class="st0" d="M15.5,78.8c2.3,0.9,4.7,1.6,7,2.2"/>
    <path class="st0" d="M37.4,83.2c1,0,2.1,0.1,3.1,0.1"/>
    <path class="st0" d="M73.6,77c2.3-0.9,4.3-1.7,6-2.5"/>
    <path class="st0" d="M22.5,81c2.3,0.6,4.6,1.1,6.9,1.4"/>
    <path class="st0" d="M43.6,83.2c-1,0-2,0-3.1,0"/>
    <path class="st0" d="M43.6,83.2c11.9-0.4,22.4-3.3,30-6.2"/>
    <path class="st0" d="M5.1,57.2c0.5-0.1,1-0.2,1.5-0.3"/>
    <path class="st0" d="M5.1,57.2c-2,0.4-3.6,0.5-5,0.4"/>
    <path class="st0" d="M2.5,60.4c2.8-0.5,5.9-1,9.6-1.6"/>
    <path class="st0" d="M2.5,60.4c-0.8,0.1-1.6,0.3-2.3,0.4"/>
    <path class="st0" d="M15.2,61.1c1-0.3,1.9-0.6,2.6-0.9"/>
    <path class="st0" d="M17.9,60.1C17.9,60.1,17.9,60.1,17.9,60.1"/>
    <path class="st0" d="M15.2,61.1c-3.9,1.2-9.5,2.2-15.1,2.6"/>
    <path class="st0" d="M20.7,62.3c1.1-0.3,2.1-0.6,3-0.9"/>
    <path class="st0" d="M11.2,64.4c-1.4,0.2-2.8,0.5-4.3,0.7"/>
    <path class="st0" d="M11.2,64.4c3.5-0.6,6.8-1.3,9.6-2.1"/>
    <path class="st0" d="M0.2,65.8c2.3-0.2,4.5-0.4,6.8-0.8"/>
    <path class="st0" d="M20.6,64.9c2.9-0.8,5.8-1.6,8.8-2.5"/>
    <path class="st0" d="M20.6,64.9c-2.6,0.7-5.2,1.4-7.8,1.9"/>
    <path class="st0" d="M29.3,62.4C29.3,62.4,29.4,62.4,29.3,62.4"/>
    <path class="st0" d="M12.8,66.8c-4.4,1-8.6,1.7-12.7,2.2"/>
    <path class="st0" d="M12.5,68.9c-3.1,0.5-6.2,0.9-9.3,1.1"/>
    <path class="st0" d="M21.2,67.4c-2.8,0.6-5.8,1.1-8.8,1.5"/>
    <path class="st0" d="M21.2,67.4c6.4-1.3,12-2.7,16.3-4"/>
    <path class="st0" d="M0.2,70.3c1-0.1,2-0.2,3-0.2"/>
    <path class="st0" d="M49.9,64.3c3.1,0.4,3.9-0.1,11-0.2"/>
    <path class="st0" d="M49.9,64.3c-1.1-0.1-2.5-0.4-4.6-0.8"/>
    <path class="st0" d="M51.7,67c-12.9,0.8-11.9,0.7-25.6-0.7"/>
    <path class="st0" d="M14.3,68.6c2.6,0.5,4.8,0.9,6.6,1.2"/>
    <path class="st0" d="M32.7,71.4C32.7,71.4,32.7,71.4,32.7,71.4"/>
    <path class="st0" d="M20.9,69.8c5.2,0.9,7.9,1.4,11.7,1.5"/>
    <path class="st0" d="M3.1,70.1C3.1,70.1,3.1,70,3.1,70.1"/>
    <path class="st0" d="M15.9,72.5c-4.3-0.3-7.8-0.9-12.8-2.4"/>
    <path class="st0" d="M23.2,72.7c-2.8,0-5.1,0-7.2-0.2"/>
    <path class="st0" d="M4.8,74.2c-1.7-0.3-3.2-0.5-4.6-0.6"/>
    <path class="st0" d="M81.8,57.1c1,0.3,2.1,0.5,3.4,0.6"/>
    <path class="st0" d="M79.6,56.3C79.5,56.3,79.5,56.2,79.6,56.3"/>
    <path class="st0" d="M81.8,57.1c-0.8-0.2-1.5-0.5-2.3-0.8"/>
    <path class="st0" d="M75.4,61.4c2.9,0.3,6,0,9.8-0.6"/>
    <path class="st0" d="M75.4,61.4c-1.8-0.2-3.4-0.7-5.2-1.4"/>
    <path class="st0" d="M79.6,63.9c-3.4,0-6.7-0.3-9.4-0.9"/>
    <path class="st0" d="M70.2,62.9c-1.3-0.3-2.4-0.7-3.4-1.2"/>
    <path class="st0" d="M79.6,63.9c1.8,0,3.7-0.1,5.5-0.2"/>
    <path class="st0" d="M62.5,63.6C62.5,63.5,62.5,63.5,62.5,63.6"/>
    <path class="st0" d="M73.9,66c3.6,0.2,7.4,0.1,11.3-0.2"/>
    <path class="st0" d="M62.5,63.6c0.8,0.4,1.6,0.7,2.5,1"/>
    <path class="st0" d="M73.9,66c-3.2-0.2-6.3-0.7-8.8-1.5"/>
    <path class="st0" d="M58.2,65.1C58.2,65.1,58.1,65.1,58.2,65.1"/>
    <path class="st0" d="M75.8,69.3c3.1,0.1,6.2,0,9.4-0.3"/>
    <path class="st0" d="M75.8,69.3c-0.6,0-1.3-0.1-1.9-0.1"/>
    <path class="st0" d="M73.8,69.2c-5.4-0.4-10.5-1.7-15.6-4"/>
    <path class="st0" d="M53.3,66.7c2.2,1.1,4.7,1.9,7.4,2.5"/>
    <path class="st0" d="M60.7,69.1c7.2,1.6,15.8,1.8,24.5,1.2"/>
    <path class="st0" d="M53.3,66.7C53.3,66.6,53.3,66.6,53.3,66.7"/>
    <path class="st0" d="M69.6,70.4c2.9,1.3,5.5,1.8,8.4,2.2"/>
    <path class="st0" d="M78,72.7c2.1,0.3,4.4,0.5,7.2,0.9"/>
    <line class="st0" x1="31.5" y1="84" x2="31.5" y2="83.9"/>
    <path class="st0" d="M31.5,84l-0.2,0.4c-0.4,0.3-0.7,0.6-1.1,0.8"/>
    <line class="st0" x1="27.9" y1="83.4" x2="28" y2="83.4"/>
    <path class="st0" d="M24.1,85.2c1.2-0.5,2.3-0.9,3.2-1.4l0.6-0.4"/>
    <line class="st0" x1="23.5" y1="82.6" x2="23.6" y2="82.6"/>
    <path class="st0" d="M23.5,82.6L22.7,83c-2.2,0.8-4.6,1.5-7.1,2.2"/>
    <path class="st0" d="M66.3,85.2c-1.1-0.7-2-1.5-2.7-2.5l-0.2-0.4"/>
    <line class="st0" x1="63.3" y1="82.2" x2="63.4" y2="82.3"/>
    <path class="st0" d="M85.2,2.8c-7.6,0.6-14.7,0-19-2.7"/>
    <path class="st0" d="M8.2,1.8c-2.7,0.5-5.4,0.8-8,1"/>
    <path class="st0" d="M8.2,1.8c2.6-0.5,5.1-1,7.5-1.6"/>
    <line class="st0" x1="51.2" y1="84.3" x2="51.2" y2="84.3"/>
    <path class="st0" d="M52.3,85.2c-0.2-0.2-0.5-0.3-0.7-0.5l-0.4-0.4"/>
    <line class="st0" x1="44.6" y1="84.8" x2="44.9" y2="85.2"/>
    <line class="st0" x1="44.6" y1="84.8" x2="44.5" y2="84.8"/>
    <line class="st0" x1="40.1" y1="84.7" x2="40.2" y2="84.8"/>
    <path class="st0" d="M40.5,85.2C40.5,85.2,40.5,85.1,40.5,85.2l-0.4-0.4"/>
    <line class="st0" x1="32.6" y1="84.1" x2="32.6" y2="84.1"/>
    <path class="st0" d="M32.6,84.1l0.5,0.7c0.2,0.1,0.3,0.3,0.5,0.4"/>
    <path class="st0" d="M6.8,77.9C6.8,77.9,6.8,77.9,6.8,77.9"/>
    <path class="st0" d="M6.8,77.9c-2.5-0.1-5.1-0.6-6.6-1"/>
    <path class="st0" d="M82.4,76.1c0,0-0.1,0-0.1,0"/>
    <path class="st0" d="M82.4,76.1c0.9,0.3,2.1,0.6,2.7,0.8c0,0,0,0,0,0"/>
    <path class="st0" d="M6.4,37.5c3.6,0.9,7.6,1.5,11.7,1.6"/>
    <path class="st0" d="M6.4,37.5C4.1,37,2,36.3,0.2,35.7"/>
    <line class="st0" x1="24.9" y1="40.5" x2="24.9" y2="40.5"/>
    <path class="st0" d="M20.2,40.7c2,0.1,3.6,0,4.6-0.2"/>
    <path class="st0" d="M10.1,39.8c-3.4-0.5-6.8-1.1-9.9-1.8"/>
    <path class="st0" d="M20.2,40.7c-2.9-0.1-6.5-0.4-10.2-1"/>
    <path class="st0" d="M33.7,41.9c0,0,0.1,0,0.1,0"/>
    <path class="st0" d="M33.7,41.9c-3.6,0.9-10.6,1.2-18.3,0.9"/>
    <path class="st0" d="M5.8,42.3c1.4,0.1,2.8,0.2,4.2,0.3"/>
    <path class="st0" d="M10.1,42.6c1.8,0.1,3.6,0.2,5.3,0.2"/>
    <path class="st0" d="M5.8,42.3c-1.9-0.2-3.8-0.3-5.7-0.6"/>
    <path class="st0" d="M41.5,42.4c-0.1,0-0.1,0-0.2,0.1"/>
    <path class="st0" d="M11.9,45.5c-3.9,0-7.9,0-11.8-0.2"/>
    <path class="st0" d="M41,42.6c-4.6,1.7-16.6,2.8-29.1,2.9"/>
    <path class="st0" d="M41,42.6c0.1,0,0.2-0.1,0.3-0.1"/>
    <path class="st0" d="M6.3,49.3c-2,0-4.1,0-6.2-0.1"/>
    <path class="st0" d="M26.7,47.9c-3.2,0.4-6.5,0.8-10,1"/>
    <path class="st0" d="M36.9,46.3c-3.1,0.6-6.5,1.2-10.2,1.6"/>
    <path class="st0" d="M52.8,41.6C52.8,41.7,52.7,41.7,52.8,41.6"/>
    <path class="st0" d="M52.7,41.7c-1.1,1-7.1,2.9-15.8,4.6"/>
    <path class="st0" d="M6.3,49.3c3.5,0,7-0.2,10.3-0.4"/>
    <path class="st0" d="M84,35.3c0.4,0.1,0.8,0.3,1.2,0.4"/>
    <path class="st0" d="M81.5,34.3C81.5,34.2,81.5,34.2,81.5,34.3"/>
    <path class="st0" d="M81.5,34.3c0.7,0.3,1.6,0.7,2.5,1"/>
    <path class="st0" d="M78.4,36.2c-0.2-0.1-0.5-0.2-0.7-0.3"/>
    <path class="st0" d="M85.2,38.1c-2.6-0.6-5-1.2-6.8-1.9"/>
    <path class="st0" d="M71.7,39.3c-0.8-0.2-1.6-0.5-2.3-0.8"/>
    <path class="st0" d="M71.7,39.3c3.5,1,8.2,1.8,13.5,2.4"/>
    <path class="st0" d="M69.4,38.5c0,0-0.1,0-0.1,0"/>
    <path class="st0" d="M66.1,43.3c4.7,1.1,11.6,1.8,19.1,2.1"/>
    <path class="st0" d="M60.3,40.8c0.9,1,2.9,1.8,5.8,2.5"/>
    <path class="st0" d="M54.6,43.5c4.5,1.8,9.4,3.1,14.4,4"/>
    <path class="st0" d="M79.5,48.9c1.9,0.2,3.8,0.3,5.7,0.3"/>
    <path class="st0" d="M69,47.5c3.5,0.6,7,1.1,10.5,1.4"/>
    <line class="st0" x1="3.7" y1="85" x2="3.7" y2="85.2"/>
    <line class="st0" x1="3.7" y1="85" x2="3.7" y2="85"/>
    <line class="st0" x1="12.8" y1="83.7" x2="13.1" y2="85.2"/>
    <line class="st0" x1="18.6" y1="84.4" x2="18.9" y2="85.2"/>
    <line class="st0" x1="77.6" y1="84.2" x2="77.6" y2="84.2"/>
    <line class="st0" x1="77.6" y1="84.2" x2="77.5" y2="85.2"/>
    <line class="st0" x1="64.7" y1="85.2" x2="65" y2="84.3"/>
    <line class="st0" x1="79.8" y1="84.6" x2="80.5" y2="81"/>
    <line class="st0" x1="80.5" y1="81" x2="80.5" y2="81"/>
    <line class="st0" x1="7.3" y1="81.5" x2="7.9" y2="84.5"/>
    <line class="st0" x1="16.5" y1="81.1" x2="16.4" y2="81"/>
    <line class="st0" x1="17" y1="82.5" x2="16.5" y2="81.1"/>
    <line class="st0" x1="3.3" y1="77.6" x2="3.6" y2="81.7"/>
    <line class="st0" x1="1.8" y1="75.5" x2="1.8" y2="75.5"/>
    <line class="st0" x1="1.8" y1="75.5" x2="1.5" y2="77.2"/>
    <line class="st0" x1="20.9" y1="72.6" x2="20.9" y2="69.8"/>
    <line class="st0" x1="20.9" y1="69.8" x2="20.9" y2="69.8"/>
    <line class="st0" x1="12.5" y1="68.9" x2="12.5" y2="68.8"/>
    <line class="st0" x1="11.9" y1="72.1" x2="12.5" y2="68.9"/>
    <line class="st0" x1="15.9" y1="72.5" x2="15.9" y2="72.4"/>
    <line class="st0" x1="15.9" y1="72.5" x2="15.9" y2="73.6"/>
    <line class="st0" x1="7.2" y1="74.1" x2="7.4" y2="71.3"/>
    <line class="st0" x1="9.1" y1="76" x2="8.1" y2="78.5"/>
    <line class="st0" x1="8.1" y1="78.5" x2="8.1" y2="78.5"/>
    <line class="st0" x1="15.5" y1="78.8" x2="15.5" y2="78.8"/>
    <line class="st0" x1="15.5" y1="78.8" x2="15.2" y2="80.6"/>
    <line class="st0" x1="12.7" y1="77.6" x2="13.8" y2="74.5"/>
    <line class="st0" x1="22.5" y1="81" x2="22.5" y2="81"/>
    <line class="st0" x1="22.5" y1="81" x2="22.3" y2="82.3"/>
    <line class="st0" x1="20.4" y1="76.9" x2="20.4" y2="76.9"/>
    <line class="st0" x1="20.4" y1="76.9" x2="19.5" y2="80.1"/>
    <line class="st0" x1="29.5" y1="82.4" x2="29.5" y2="82.3"/>
    <line class="st0" x1="29.5" y1="82.4" x2="29.4" y2="83.6"/>
    <line class="st0" x1="37.4" y1="83.2" x2="37.4" y2="84.5"/>
    <line class="st0" x1="37.4" y1="83.2" x2="37.4" y2="83.1"/>
    <line class="st0" x1="43.6" y1="83.2" x2="43.7" y2="84.7"/>
    <line class="st0" x1="43.6" y1="83.2" x2="43.6" y2="83.2"/>
    <line class="st0" x1="54" y1="82.3" x2="54.3" y2="83.8"/>
    <line class="st0" x1="64.5" y1="80" x2="64.9" y2="82"/>
    <line class="st0" x1="73.6" y1="77" x2="74.5" y2="79.4"/>
    <line class="st0" x1="74.5" y1="79.4" x2="74.5" y2="79.4"/>
    <line class="st0" x1="73.6" y1="77" x2="73.6" y2="77"/>
    <line class="st0" x1="82.3" y1="74.3" x2="83" y2="75.7"/>
    <line class="st0" x1="68.4" y1="76.3" x2="68.4" y2="76.3"/>
    <line class="st0" x1="68.4" y1="76.3" x2="69.2" y2="78.5"/>
    <line class="st0" x1="58.7" y1="79.5" x2="59.1" y2="81.2"/>
    <line class="st0" x1="58.7" y1="79.5" x2="58.7" y2="79.5"/>
    <line class="st0" x1="48.5" y1="81.1" x2="48.5" y2="81.1"/>
    <line class="st0" x1="48.5" y1="81.1" x2="48.6" y2="82.8"/>
    <line class="st0" x1="40.4" y1="81.1" x2="40.5" y2="83.2"/>
    <line class="st0" x1="40.5" y1="83.2" x2="40.5" y2="83.3"/>
    <line class="st0" x1="29.2" y1="79.5" x2="29.2" y2="79.5"/>
    <line class="st0" x1="29.2" y1="79.5" x2="28.7" y2="82.2"/>
    <line class="st0" x1="24.1" y1="74.8" x2="24.1" y2="74.8"/>
    <line class="st0" x1="23.1" y1="77.7" x2="24.1" y2="74.8"/>
    <line class="st0" x1="35" y1="77.9" x2="34.7" y2="80.5"/>
    <line class="st0" x1="46.4" y1="78.8" x2="46.5" y2="81.1"/>
    <line class="st0" x1="46.4" y1="78.8" x2="46.4" y2="78.8"/>
    <line class="st0" x1="57.4" y1="79.7" x2="56.9" y2="77.6"/>
    <line class="st0" x1="65.9" y1="75.2" x2="65.9" y2="75.1"/>
    <line class="st0" x1="65.9" y1="75.2" x2="66.6" y2="76.9"/>
    <line class="st0" x1="59.2" y1="74.4" x2="59.9" y2="76.8"/>
    <line class="st0" x1="59.2" y1="74.3" x2="59.2" y2="74.4"/>
    <line class="st0" x1="49.5" y1="75.4" x2="49.5" y2="75.4"/>
    <line class="st0" x1="49.5" y1="75.4" x2="49.9" y2="78.6"/>
    <line class="st0" x1="39.5" y1="78.5" x2="39.5" y2="78.6"/>
    <line class="st0" x1="39.7" y1="75.5" x2="39.5" y2="78.5"/>
    <line class="st0" x1="39.7" y1="75.5" x2="39.7" y2="75.5"/>
    <line class="st0" x1="30.5" y1="73.2" x2="29.2" y2="76.5"/>
    <line class="st0" x1="36.4" y1="74.9" x2="36.9" y2="72.1"/>
    <line class="st0" x1="36.9" y1="72.1" x2="36.9" y2="72.1"/>
    <line class="st0" x1="47.3" y1="74.1" x2="47.4" y2="75.5"/>
    <line class="st0" x1="47.3" y1="74" x2="47.3" y2="74.1"/>
    <line class="st0" x1="55.9" y1="73.5" x2="55.9" y2="73.5"/>
    <line class="st0" x1="55.9" y1="73.5" x2="56.1" y2="74.8"/>
    <line class="st0" x1="42.3" y1="73.7" x2="42.7" y2="71.3"/>
    <line class="st0" x1="42.7" y1="71.3" x2="42.7" y2="71.3"/>
    <line class="st0" x1="52" y1="73.9" x2="51.9" y2="72.6"/>
    <line class="st0" x1="44.7" y1="71.5" x2="44.9" y2="69.9"/>
    <line class="st0" x1="44.9" y1="69.9" x2="44.9" y2="69.8"/>
    <line class="st0" x1="25.7" y1="70.6" x2="26.8" y2="66.6"/>
    <line class="st0" x1="37.9" y1="63.4" x2="37.5" y2="67.4"/>
    <line class="st0" x1="49.9" y1="64.3" x2="49.9" y2="67.1"/>
    <line class="st0" x1="49.9" y1="64.3" x2="49.9" y2="64.3"/>
    <line class="st0" x1="20.6" y1="64.9" x2="20.5" y2="64.8"/>
    <line class="st0" x1="20.6" y1="64.9" x2="21.2" y2="67.4"/>
    <line class="st0" x1="21.2" y1="67.4" x2="21.2" y2="67.4"/>
    <line class="st0" x1="29" y1="62.5" x2="30.1" y2="65.3"/>
    <line class="st0" x1="12.8" y1="66.8" x2="12.8" y2="66.8"/>
    <line class="st0" x1="12.8" y1="66.8" x2="13.2" y2="68.7"/>
    <line class="st0" x1="5.5" y1="68.3" x2="5.7" y2="69.8"/>
    <line class="st0" x1="55.9" y1="67.8" x2="53.9" y2="72.8"/>
    <line class="st0" x1="64.9" y1="69.9" x2="64.5" y2="74.1"/>
    <line class="st0" x1="73.7" y1="74.3" x2="73.6" y2="71.8"/>
    <line class="st0" x1="78" y1="72.7" x2="78.2" y2="70.7"/>
    <line class="st0" x1="78" y1="72.7" x2="78" y2="72.7"/>
    <line class="st0" x1="60.6" y1="69.2" x2="60.7" y2="69.1"/>
    <line class="st0" x1="60.7" y1="69.1" x2="61.2" y2="66.4"/>
    <line class="st0" x1="68.4" y1="68.4" x2="68.3" y2="70.3"/>
    <line class="st0" x1="75.8" y1="69.3" x2="75.7" y2="69.2"/>
    <line class="st0" x1="76" y1="70.6" x2="75.8" y2="69.3"/>
    <line class="st0" x1="83" y1="70.3" x2="82.9" y2="69.3"/>
    <line class="st0" x1="73.9" y1="66" x2="73.9" y2="65.9"/>
    <line class="st0" x1="73.8" y1="69.2" x2="73.8" y2="69.2"/>
    <line class="st0" x1="73.9" y1="66" x2="73.8" y2="69.2"/>
    <line class="st0" x1="64.2" y1="67.3" x2="65.1" y2="64.5"/>
    <line class="st0" x1="65.1" y1="64.5" x2="65.1" y2="64.5"/>
    <line class="st0" x1="69.8" y1="65.4" x2="70.2" y2="62.9"/>
    <line class="st0" x1="70.2" y1="62.9" x2="70.2" y2="62.8"/>
    <line class="st0" x1="79.6" y1="63.9" x2="79.6" y2="66.1"/>
    <line class="st0" x1="79.6" y1="63.9" x2="79.6" y2="63.8"/>
    <line class="st0" x1="75.4" y1="61.4" x2="75.4" y2="61.3"/>
    <line class="st0" x1="75.2" y1="63.7" x2="75.4" y2="61.4"/>
    <line class="st0" x1="81.8" y1="57.1" x2="81.8" y2="57"/>
    <line class="st0" x1="82.3" y1="61.1" x2="81.8" y2="57.1"/>
    <line class="st0" x1="74.1" y1="58.3" x2="74.1" y2="58.3"/>
    <line class="st0" x1="74.1" y1="58.3" x2="74.1" y2="61.1"/>
    <line class="st0" x1="83.7" y1="57.4" x2="84.1" y2="53.9"/>
    <line class="st0" x1="2.4" y1="65.6" x2="2.7" y2="68.6"/>
    <line class="st0" x1="11.2" y1="64.3" x2="11.2" y2="64.4"/>
    <line class="st0" x1="11.2" y1="64.4" x2="11.7" y2="67"/>
    <line class="st0" x1="21.4" y1="64.6" x2="20.7" y2="62.3"/>
    <line class="st0" x1="20.7" y1="62.3" x2="20.7" y2="62.3"/>
    <line class="st0" x1="15.2" y1="61" x2="15.2" y2="61.1"/>
    <line class="st0" x1="15.2" y1="61.1" x2="15.8" y2="63.4"/>
    <line class="st0" x1="6.9" y1="65.1" x2="6.9" y2="65.1"/>
    <line class="st0" x1="6.9" y1="65.1" x2="6.7" y2="63"/>
    <line class="st0" x1="2.5" y1="60.4" x2="2.8" y2="63.3"/>
    <line class="st0" x1="2.5" y1="60.3" x2="2.5" y2="60.4"/>
    <line class="st0" x1="11.2" y1="62" x2="10.6" y2="59.1"/>
    <line class="st0" x1="5.1" y1="57.2" x2="5.9" y2="59.8"/>
    <line class="st0" x1="5.1" y1="57.2" x2="5.1" y2="57.2"/>
    <line class="st0" x1="11" y1="53.8" x2="9.2" y2="57.6"/>
    <line class="st0" x1="22" y1="61" x2="22.7" y2="58"/>
    <line class="st0" x1="35.3" y1="63.1" x2="35.4" y2="60.5"/>
    <line class="st0" x1="48.7" y1="63.3" x2="48.4" y2="60.8"/>
    <line class="st0" x1="48.7" y1="63.3" x2="48.7" y2="63.3"/>
    <line class="st0" x1="63.9" y1="58.7" x2="63.9" y2="58.6"/>
    <line class="st0" x1="64.3" y1="60.9" x2="64.3" y2="60.9"/>
    <line class="st0" x1="63.9" y1="58.7" x2="64.3" y2="60.9"/>
    <line class="st0" x1="76.6" y1="54.9" x2="77.6" y2="57"/>
    <line class="st0" x1="76.6" y1="54.8" x2="76.6" y2="54.9"/>
    <line class="st0" x1="69.7" y1="57.1" x2="68.9" y2="54.4"/>
    <line class="st0" x1="54.7" y1="56.7" x2="54.7" y2="56.8"/>
    <line class="st0" x1="54.7" y1="56.8" x2="55.2" y2="60.2"/>
    <line class="st0" x1="40.7" y1="57.5" x2="40.7" y2="60.8"/>
    <line class="st0" x1="40.7" y1="57.4" x2="40.7" y2="57.5"/>
    <line class="st0" x1="27.6" y1="55.6" x2="26.9" y2="59"/>
    <line class="st0" x1="27.6" y1="55.6" x2="27.6" y2="55.6"/>
    <line class="st0" x1="23.6" y1="51.1" x2="22.5" y2="54.2"/>
    <line class="st0" x1="39.7" y1="54.6" x2="39.5" y2="57.4"/>
    <line class="st0" x1="39.7" y1="54.6" x2="39.7" y2="54.6"/>
    <line class="st0" x1="58.1" y1="54.6" x2="58.1" y2="54.5"/>
    <line class="st0" x1="58.1" y1="54.6" x2="58.4" y2="56.2"/>
    <line class="st0" x1="48.7" y1="52.5" x2="48.7" y2="52.4"/>
    <line class="st0" x1="48.7" y1="52.5" x2="48.7" y2="55.1"/>
    <line class="st0" x1="33.5" y1="50.3" x2="32.7" y2="53.5"/>
    <line class="st0" x1="65.4" y1="53.3" x2="64.5" y2="50.7"/>
    <line class="st0" x1="58.6" y1="49.7" x2="59" y2="51.7"/>
    <line class="st0" x1="58.6" y1="49.7" x2="58.5" y2="49.6"/>
    <line class="st0" x1="43.5" y1="49.3" x2="43.5" y2="49.3"/>
    <line class="st0" x1="43" y1="51.9" x2="43.5" y2="49.3"/>
    <line class="st0" x1="51.4" y1="47.4" x2="51.4" y2="47.3"/>
    <line class="st0" x1="51.4" y1="50.5" x2="51.4" y2="47.4"/>
    <line class="st0" x1="54" y1="46" x2="53.8" y2="47.6"/>
    <line class="st0" x1="2.4" y1="33.5" x2="1.8" y2="36.2"/>
    <line class="st0" x1="11.5" y1="37.3" x2="11.3" y2="38.5"/>
    <line class="st0" x1="11.5" y1="37.3" x2="11.5" y2="37.2"/>
    <line class="st0" x1="6.4" y1="37.5" x2="6.4" y2="37.5"/>
    <line class="st0" x1="6.4" y1="37.5" x2="6.2" y2="39.1"/>
    <line class="st0" x1="16.8" y1="39.1" x2="16.9" y2="40.5"/>
    <line class="st0" x1="10.1" y1="39.8" x2="10.1" y2="39.8"/>
    <line class="st0" x1="10.1" y1="39.8" x2="10.1" y2="42.6"/>
    <line class="st0" x1="10.1" y1="42.6" x2="10.1" y2="42.6"/>
    <line class="st0" x1="20.2" y1="40.7" x2="20.2" y2="42.8"/>
    <line class="st0" x1="20.2" y1="40.7" x2="20.2" y2="40.6"/>
    <line class="st0" x1="28.2" y1="42.6" x2="28" y2="41.1"/>
    <line class="st0" x1="2.9" y1="38.7" x2="2.8" y2="41.9"/>
    <line class="st0" x1="5.8" y1="42.3" x2="6" y2="45.3"/>
    <line class="st0" x1="5.8" y1="42.2" x2="5.8" y2="42.3"/>
    <line class="st0" x1="15.4" y1="45.3" x2="15.4" y2="42.8"/>
    <line class="st0" x1="15.4" y1="42.8" x2="15.4" y2="42.8"/>
    <line class="st0" x1="25.6" y1="42.8" x2="25.8" y2="44.8"/>
    <line class="st0" x1="35.9" y1="43.7" x2="35.5" y2="42.1"/>
    <line class="st0" x1="2.4" y1="49.2" x2="2.3" y2="45.4"/>
    <line class="st0" x1="11.9" y1="45.5" x2="12.2" y2="49.2"/>
    <line class="st0" x1="11.9" y1="45.5" x2="11.9" y2="45.4"/>
    <line class="st0" x1="21.4" y1="48.5" x2="21" y2="45.3"/>
    <line class="st0" x1="32.1" y1="47.1" x2="31.6" y2="44.4"/>
    <line class="st0" x1="41" y1="42.6" x2="41" y2="42.5"/>
    <line class="st0" x1="41" y1="42.6" x2="42.1" y2="45.1"/>
    <line class="st0" x1="6.3" y1="49.3" x2="6.3" y2="49.3"/>
    <line class="st0" x1="6.3" y1="49.3" x2="6.5" y2="52.6"/>
    <line class="st0" x1="16.6" y1="48.8" x2="16.7" y2="48.9"/>
    <line class="st0" x1="16.7" y1="48.9" x2="17.1" y2="51.3"/>
    <line class="st0" x1="26.7" y1="47.9" x2="27.1" y2="49.8"/>
    <line class="st0" x1="26.7" y1="47.9" x2="26.7" y2="47.8"/>
    <line class="st0" x1="36.9" y1="46.3" x2="36.9" y2="46.3"/>
    <line class="st0" x1="36.9" y1="46.3" x2="37.2" y2="48"/>
    <line class="st0" x1="46" y1="44.3" x2="46.6" y2="45.8"/>
    <line class="st0" x1="56.1" y1="42.8" x2="55.3" y2="41.5"/>
    <line class="st0" x1="59.9" y1="45.4" x2="59" y2="48.4"/>
    <line class="st0" x1="69" y1="47.5" x2="69" y2="47.5"/>
    <line class="st0" x1="69" y1="47.5" x2="68.4" y2="51.3"/>
    <line class="st0" x1="79.2" y1="52.8" x2="79.5" y2="48.9"/>
    <line class="st0" x1="79.5" y1="48.9" x2="79.5" y2="48.9"/>
    <line class="st0" x1="76.4" y1="44.9" x2="76.2" y2="48.5"/>
    <line class="st0" x1="66.1" y1="43.3" x2="65.5" y2="46.8"/>
    <line class="st0" x1="66.1" y1="43.3" x2="66.1" y2="43.3"/>
    <line class="st0" x1="71.7" y1="39.3" x2="70.9" y2="44.1"/>
    <line class="st0" x1="71.7" y1="39.3" x2="71.7" y2="39.3"/>
    <line class="st0" x1="81.5" y1="41.3" x2="81.2" y2="45.1"/>
    <line class="st0" x1="77.4" y1="40.5" x2="78.4" y2="36.2"/>
    <line class="st0" x1="78.4" y1="36.1" x2="78.4" y2="36.2"/>
    <line class="st0" x1="84" y1="35.3" x2="84" y2="35.2"/>
    <line class="st0" x1="83.4" y1="37.6" x2="84" y2="35.3"/>
    <line class="st0" x1="79.9" y1="35" x2="78.4" y2="31.8"/>
    <line class="st0" x1="78.4" y1="31.8" x2="78.4" y2="31.8"/>
    <line class="st0" x1="68.2" y1="38.7" x2="67.5" y2="36.1"/>
    <line class="st0" x1="67.5" y1="36.1" x2="67.5" y2="36.1"/>
    <line class="st0" x1="56.6" y1="39" x2="56.6" y2="39"/>
    <line class="st0" x1="56.6" y1="39" x2="57" y2="41.1"/>
    <line class="st0" x1="44" y1="40" x2="44.1" y2="42.4"/>
    <line class="st0" x1="31.4" y1="39.2" x2="31.2" y2="41.5"/>
    <line class="st0" x1="31.4" y1="39.2" x2="31.4" y2="39.1"/>
    <line class="st0" x1="19.9" y1="37" x2="19.4" y2="39.3"/>
    <line class="st0" x1="9.4" y1="33.5" x2="8.3" y2="36.1"/>
    <line class="st0" x1="17" y1="36.2" x2="17" y2="36.2"/>
    <line class="st0" x1="17" y1="36.2" x2="17.9" y2="33.6"/>
    <line class="st0" x1="34.1" y1="39.5" x2="34.3" y2="37"/>
    <line class="st0" x1="46.9" y1="37.1" x2="46.9" y2="37.1"/>
    <line class="st0" x1="46.9" y1="37.1" x2="47.2" y2="39.9"/>
    <line class="st0" x1="60.8" y1="38" x2="59.2" y2="34"/>
    <line class="st0" x1="59.2" y1="34" x2="59.2" y2="34"/>
    <line class="st0" x1="71.9" y1="34.1" x2="70.5" y2="31.4"/>
    <line class="st0" x1="70.5" y1="31.4" x2="70.5" y2="31.3"/>
    <line class="st0" x1="53.9" y1="35.8" x2="53" y2="31.7"/>
    <line class="st0" x1="43.2" y1="33.4" x2="43.5" y2="37.3"/>
    <line class="st0" x1="43.2" y1="33.4" x2="43.2" y2="33.4"/>
    <line class="st0" x1="30.1" y1="36.4" x2="30.5" y2="33.4"/>
    <line class="st0" x1="30.1" y1="36.4" x2="30.1" y2="36.5"/>
    <line class="st0" x1="28.5" y1="29.1" x2="28.5" y2="29.1"/>
    <line class="st0" x1="27.4" y1="32.7" x2="28.5" y2="29.1"/>
    <line class="st0" x1="39.8" y1="33.6" x2="39.9" y2="30.5"/>
    <line class="st0" x1="54" y1="31.3" x2="53.3" y2="29.5"/>
    <line class="st0" x1="40.8" y1="27" x2="41.4" y2="30.3"/>
    <line class="st0" x1="33.7" y1="30" x2="34.2" y2="27.1"/>
    <line class="st0" x1="37.5" y1="25.2" x2="37.5" y2="27.3"/>
    <line class="st0" x1="37.5" y1="25.2" x2="37.5" y2="25.1"/>
    <line class="st0" x1="4.5" y1="29" x2="4.5" y2="29.1"/>
    <line class="st0" x1="4.5" y1="29.1" x2="4.5" y2="32"/>
    <line class="st0" x1="19.5" y1="28.7" x2="20.2" y2="31.5"/>
    <line class="st0" x1="27.4" y1="24" x2="27.4" y2="24.1"/>
    <line class="st0" x1="27.4" y1="24.1" x2="28.2" y2="26.6"/>
    <line class="st0" x1="13.9" y1="26.4" x2="14.2" y2="29.1"/>
    <line class="st0" x1="13.9" y1="26.4" x2="13.9" y2="26.4"/>
    <line class="st0" x1="1.7" y1="26.5" x2="1.8" y2="28.9"/>
    <line class="st0" x1="1.7" y1="26.5" x2="1.7" y2="26.5"/>
    <line class="st0" x1="7.7" y1="23.4" x2="7.7" y2="23.4"/>
    <line class="st0" x1="7.7" y1="23.4" x2="7.8" y2="26.6"/>
    <line class="st0" x1="19.4" y1="21.1" x2="20.5" y2="25.5"/>
    <line class="st0" x1="19.4" y1="21.1" x2="19.4" y2="21.1"/>
    <line class="st0" x1="12.2" y1="18.4" x2="12.2" y2="18.4"/>
    <line class="st0" x1="12.2" y1="18.4" x2="13.2" y2="22.6"/>
    <line class="st0" x1="2.7" y1="23.4" x2="2.4" y2="20"/>
    <line class="st0" x1="6.7" y1="17" x2="6.7" y2="17"/>
    <line class="st0" x1="6.7" y1="17" x2="7.1" y2="19.5"/>
    <line class="st0" x1="2.5" y1="14.6" x2="2.5" y2="14.7"/>
    <line class="st0" x1="2.5" y1="14.7" x2="2.8" y2="17.3"/>
    <line class="st0" x1="1.1" y1="11.5" x2="1.1" y2="14.6"/>
    <line class="st0" x1="28.6" y1="4" x2="28.6" y2="4"/>
    <line class="st0" x1="28.1" y1="6.1" x2="28.6" y2="4"/>
    <line class="st0" x1="33.8" y1="10.4" x2="33.9" y2="7.3"/>
    <line class="st0" x1="22.4" y1="8.6" x2="23.8" y2="4.9"/>
    <line class="st0" x1="27.9" y1="9.9" x2="27.9" y2="9.8"/>
    <line class="st0" x1="27.9" y1="9.9" x2="27.4" y2="13.1"/>
    <line class="st0" x1="17" y1="9.8" x2="15.7" y2="13.1"/>
    <line class="st0" x1="17" y1="9.8" x2="17" y2="9.8"/>
    <line class="st0" x1="32.7" y1="16.5" x2="32.7" y2="13.7"/>
    <line class="st0" x1="22.9" y1="17.4" x2="23.2" y2="15.3"/>
    <line class="st0" x1="23.2" y1="15.3" x2="23.2" y2="15.3"/>
    <line class="st0" x1="11" y1="10.4" x2="11" y2="10.4"/>
    <line class="st0" x1="9.5" y1="13.1" x2="11" y2="10.4"/>
    <line class="st0" x1="16.2" y1="17.3" x2="16.5" y2="15.9"/>
    <line class="st0" x1="4.2" y1="13.1" x2="5.5" y2="10.9"/>
    <line class="st0" x1="5.5" y1="10.9" x2="5.5" y2="10.9"/>
    <line class="st0" x1="30" y1="18.5" x2="29.9" y2="20.1"/>
    <line class="st0" x1="30" y1="18.5" x2="30" y2="18.5"/>
    <line class="st0" x1="42" y1="10.2" x2="42" y2="10.2"/>
    <line class="st0" x1="42.5" y1="13.2" x2="42" y2="10.2"/>
    <line class="st0" x1="48.4" y1="12.2" x2="49.1" y2="16"/>
    <line class="st0" x1="40.7" y1="18.9" x2="40.7" y2="16.7"/>
    <line class="st0" x1="40.7" y1="16.7" x2="40.7" y2="16.6"/>
    <line class="st0" x1="48.2" y1="18.6" x2="48.4" y2="20.9"/>
    <line class="st0" x1="48.2" y1="18.6" x2="48.2" y2="18.6"/>
    <line class="st0" x1="58.6" y1="14.1" x2="59.3" y2="17"/>
    <line class="st0" x1="58.6" y1="14.1" x2="58.5" y2="14"/>
    <line class="st0" x1="66.9" y1="15.3" x2="67.5" y2="17.7"/>
    <line class="st0" x1="66.9" y1="15.3" x2="66.9" y2="15.3"/>
    <line class="st0" x1="81.5" y1="12.9" x2="80" y2="11.1"/>
    <line class="st0" x1="82.6" y1="14.2" x2="82.1" y2="16.7"/>
    <line class="st0" x1="77.6" y1="15.8" x2="76.6" y2="18.8"/>
    <line class="st0" x1="83.1" y1="23.2" x2="83.2" y2="19.8"/>
    <line class="st0" x1="83.1" y1="23.2" x2="83.1" y2="23.2"/>
    <line class="st0" x1="71.2" y1="17.3" x2="69.6" y2="20.7"/>
    <line class="st0" x1="71.2" y1="17.3" x2="71.2" y2="17.3"/>
    <line class="st0" x1="75.5" y1="25.3" x2="76.1" y2="22.2"/>
    <line class="st0" x1="76.1" y1="22.2" x2="76.1" y2="22.2"/>
    <line class="st0" x1="64.9" y1="18.9" x2="65" y2="18.8"/>
    <line class="st0" x1="62.9" y1="22.8" x2="64.9" y2="18.9"/>
    <line class="st0" x1="68.6" y1="24.3" x2="68.2" y2="26.4"/>
    <line class="st0" x1="68.2" y1="26.4" x2="68.1" y2="26.4"/>
    <line class="st0" x1="81.2" y1="26.1" x2="81.2" y2="26"/>
    <line class="st0" x1="81.2" y1="26.1" x2="81.1" y2="28.3"/>
    <line class="st0" x1="74.7" y1="27.5" x2="74.3" y2="31"/>
    <line class="st0" x1="74.7" y1="27.5" x2="74.7" y2="27.5"/>
    <line class="st0" x1="60.1" y1="24.8" x2="60.1" y2="24.8"/>
    <line class="st0" x1="60.1" y1="24.8" x2="59.3" y2="27.8"/>
    <line class="st0" x1="55.3" y1="23.5" x2="56.5" y2="20.4"/>
    <line class="st0" x1="56.5" y1="20.3" x2="56.5" y2="20.4"/>
    <line class="st0" x1="47.9" y1="27.4" x2="49.1" y2="24.4"/>
    <line class="st0" x1="61.9" y1="30.6" x2="62.3" y2="28.7"/>
    <line class="st0" x1="37" y1="24.8" x2="38.3" y2="22.3"/>
    <line class="st0" x1="38.3" y1="22.3" x2="38.3" y2="22.3"/>
    <line class="st0" x1="34.7" y1="5.1" x2="35.9" y2="2.3"/>
    <line class="st0" x1="43.8" y1="3.3" x2="43.8" y2="3.3"/>
    <line class="st0" x1="43.8" y1="3.3" x2="41.6" y2="6.2"/>
    <line class="st0" x1="52.6" y1="4.8" x2="50.9" y2="8.1"/>
    <line class="st0" x1="52.6" y1="4.8" x2="52.6" y2="4.8"/>
    <line class="st0" x1="66.1" y1="11" x2="66.2" y2="8.8"/>
    <line class="st0" x1="59.1" y1="3.4" x2="59.1" y2="3.5"/>
    <line class="st0" x1="58.2" y1="6.8" x2="59.1" y2="3.5"/>
    <line class="st0" x1="73.4" y1="9.8" x2="73.6" y2="5.9"/>
    <line class="st0" x1="73.6" y1="5.8" x2="73.6" y2="5.9"/>
    <path class="st0" d="M11.2,6.3c-0.3-1.1-5,0.1-4.8,1.4C6.9,9.3,11.7,7.8,11.2,6.3z"/>
    <path class="st0" d="M22.5,22.5c0.4,1.7,5.2,0.1,4.8-1.4C26.9,20.1,22.3,21.3,22.5,22.5z"/>
    <path class="st0" d="M68.5,12.6c-0.4-1.1-5,0.1-4.8,1.4C64.1,15.6,69,14.1,68.5,12.6z"/>
    <path class="st0" d="M44.6,65.3c-0.1-1.1-4.9-1.2-4.9,0.1C39.6,67.1,44.7,66.9,44.6,65.3z"/>
    <path class="st0" d="M44.7,47.2c-0.6,1.6,4.3,3,4.7,1.4C49.7,47.6,45.2,46,44.7,47.2z"/>
    <path class="st0" d="M12.9,30.5c-0.1-0.9-3.9-0.9-4,0.2C9,32,13,31.7,12.9,30.5z"/>
    <path class="st0" d="M8.1,21.2c-0.1-0.9-3.9-0.9-4,0.2C4.1,22.8,8.2,22.5,8.1,21.2z"/>
    <path class="st0" d="M49.9,34.5c-0.1-0.9-3.9-0.9-4,0.2C46,36.1,50,35.8,49.9,34.5z"/>
    <path class="st0" d="M18.4,46.7c-0.1-0.9-3.9-0.9-4,0.2C14.5,48.2,18.5,47.9,18.4,46.7z"/>
    <path class="st0" d="M42.9,77.3c0,1.4,4.1,1.1,4-0.2C46.7,76.3,42.9,76.3,42.9,77.3z"/>
    <path class="st0" d="M66.7,72.4c0,1.4,4.1,1.1,4-0.2C70.6,71.4,66.7,71.4,66.7,72.4z"/>
    <path class="st0" d="M33.9,58.3c0-0.9-3.8-1.4-3.9-0.4C29.7,59.3,33.8,59.6,33.9,58.3z"/>
    <path class="st0" d="M59.7,57.7c0.1,1.4,4.2,0.6,3.9-0.6C63.5,56.2,59.6,56.7,59.7,57.7z"/>
    <path class="st0" d="M1.1,58.9c0,1.1,3.2,0.9,3.2-0.1C4.2,58.1,1.1,58.1,1.1,58.9z"/>
    <path class="st0" d="M69.7,82.6c-0.5,1,2.6,2.2,2.9,1.2C72.9,83.2,70.1,81.9,69.7,82.6z"/>
    <path class="st0" d="M58.7,26.1c0.2-0.7-2.8-1.6-3.1-0.8C55.3,26.3,58.5,27,58.7,26.1z"/>
    <path class="st0" d="M72.2,22.9c0.2-0.7-2.8-1.6-3.1-0.8C68.8,23.1,72,23.9,72.2,22.9z"/>
    <path class="st0" d="M71.9,36c0.3,1.1,3.4-0.2,3-1.1C74.6,34.2,71.7,35.2,71.9,36z"/>
    <path class="st0" d="M72.2,49.8c-0.4,1,2.8,1.9,3,0.9C75.4,50,72.5,49,72.2,49.8z"/>
    <path class="st0" d="M22.4,79c-0.4,1,2.8,1.8,3.1,0.8C25.6,79.2,22.7,78.2,22.4,79z"/>
    <path class="st0" d="M4.5,79.7c0,1.1,3.2,0.9,3.2-0.1C7.7,78.9,4.6,78.9,4.5,79.7z"/>
    <path class="st0" d="M1.2,43.6c0,1.1,3.2,0.9,3.2-0.1C4.3,42.8,1.2,42.8,1.2,43.6z"/>
    <path class="st0" d="M26.6,33.9c0-0.7-3-1.1-3.2-0.3C23.2,34.7,26.5,34.9,26.6,33.9z"/>
    <path class="st0" d="M36.5,8.7c0,1.4,4.1,1.1,4-0.2C40.4,7.7,36.5,7.7,36.5,8.7z"/>
    <path class="st0" d="M54.3,3.2c0.3-0.8-3.2-2.4-3.7-1.5C50,2.9,53.8,4.3,54.3,3.2z"/>
    <line class="st0" x1="0.2" y1="0.2" x2="0.3" y2="0.2"/>
    <line class="st0" x1="0.2" y1="10.9" x2="0.2" y2="10.8"/>
    <line class="st0" x1="0.2" y1="53.1" x2="0.2" y2="53.1"/>
    <line class="st0" x1="0.2" y1="32" x2="0.2" y2="31.9"/>
    <line class="st0" x1="85.2" y1="31.9" x2="85.2" y2="32"/>
    <line class="st0" x1="85.2" y1="53.1" x2="85.2" y2="53.1"/>
    <line class="st0" x1="0.2" y1="74.4" x2="0.2" y2="74.2"/>
    <line class="st0" x1="85.2" y1="10.8" x2="85.2" y2="10.9"/>
</g>
</svg>
