<!-- Generator: Adobe Illustrator 22.1.0, SVG Export Plug-In  -->
<svg version="1.1"
     xmlns="http://www.w3.org/2000/svg" xmlns:xlink="http://www.w3.org/1999/xlink" xmlns:a="http://ns.adobe.com/AdobeSVGViewerExtensions/3.0/"
     x="0px" y="0px" width="54.2px" height="54.1px" viewBox="0 0 54.2 54.1" style="enable-background:new 0 0 54.2 54.1;"
     xml:space="preserve">
<style type="text/css">
    .st0{clip-path:url(#SVGID_2_);fill:none;stroke:#000000;stroke-width:0.3;}
    .st1{clip-path:url(#SVGID_4_);fill:none;stroke:#000000;stroke-width:0.3;}
</style>
<defs>
</defs>
<g>
    <defs>
        <rect id="SVGID_1_" x="0" width="54.1" height="54.1"/>
    </defs>
    <clipPath id="SVGID_2_">
        <use xlink:href="#SVGID_1_"  style="overflow:visible;"/>
    </clipPath>
    <line class="st0" x1="32.2" y1="3.8" x2="41.1" y2="3.8"/>
    <line class="st0" x1="32.2" y1="3.8" x2="27.5" y2="3.8"/>
    <line class="st0" x1="46.6" y1="3.8" x2="41.1" y2="3.8"/>
    <line class="st0" x1="54" y1="3.8" x2="46.6" y2="3.8"/>
    <line class="st0" x1="54" y1="3.8" x2="54.2" y2="3.8"/>
    <line class="st0" x1="12.6" y1="3.8" x2="6" y2="3.8"/>
    <line class="st0" x1="12.6" y1="3.8" x2="18.7" y2="3.8"/>
    <line class="st0" x1="27.5" y1="3.8" x2="18.7" y2="3.8"/>
    <line class="st0" x1="0" y1="3.8" x2="6" y2="3.8"/>
    <line class="st0" x1="54.2" y1="7.9" x2="0" y2="7.9"/>
    <line class="st0" x1="12" y1="12.1" x2="26.8" y2="12.1"/>
    <line class="st0" x1="53.5" y1="12.1" x2="54.2" y2="12.1"/>
    <line class="st0" x1="53.5" y1="12.1" x2="40.2" y2="12.1"/>
    <line class="st0" x1="12" y1="12.1" x2="0" y2="12.1"/>
    <line class="st0" x1="26.8" y1="12.1" x2="40.2" y2="12.1"/>
    <line class="st0" x1="48.7" y1="41.7" x2="54.2" y2="41.7"/>
    <line class="st0" x1="20.2" y1="41.7" x2="33.8" y2="41.7"/>
    <line class="st0" x1="20.2" y1="41.7" x2="6.9" y2="41.7"/>
    <line class="st0" x1="48.7" y1="41.7" x2="33.8" y2="41.7"/>
    <line class="st0" x1="6.9" y1="41.7" x2="0" y2="41.7"/>
    <line class="st0" x1="53.8" y1="45.5" x2="54.2" y2="45.5"/>
    <line class="st0" x1="26.5" y1="45.5" x2="40.3" y2="45.5"/>
    <line class="st0" x1="0" y1="45.5" x2="11.9" y2="45.5"/>
    <line class="st0" x1="26.5" y1="45.5" x2="11.9" y2="45.5"/>
    <line class="st0" x1="53.8" y1="45.5" x2="40.3" y2="45.5"/>
    <line class="st0" x1="32" y1="16.1" x2="18.7" y2="16.1"/>
    <line class="st0" x1="46.6" y1="16.1" x2="54.2" y2="16.1"/>
    <line class="st0" x1="32" y1="16.1" x2="46.6" y2="16.1"/>
    <line class="st0" x1="18.7" y1="16.1" x2="6" y2="16.1"/>
    <line class="st0" x1="0" y1="16.1" x2="6" y2="16.1"/>
    <line class="st0" x1="54" y1="19.4" x2="54.2" y2="19.4"/>
    <line class="st0" x1="54" y1="19.4" x2="41.3" y2="19.4"/>
    <line class="st0" x1="12.5" y1="19.4" x2="0" y2="19.4"/>
    <line class="st0" x1="27.5" y1="19.4" x2="41.3" y2="19.4"/>
    <line class="st0" x1="12.5" y1="19.4" x2="27.5" y2="19.4"/>
    <line class="st0" x1="48.7" y1="22.8" x2="54.2" y2="22.8"/>
    <line class="st0" x1="20.2" y1="22.8" x2="6.7" y2="22.8"/>
    <line class="st0" x1="6.7" y1="22.8" x2="0" y2="22.8"/>
    <line class="st0" x1="33.8" y1="22.8" x2="20.2" y2="22.8"/>
    <line class="st0" x1="48.7" y1="22.8" x2="33.8" y2="22.8"/>
    <line class="st0" x1="0" y1="26.9" x2="54.2" y2="26.9"/>
    <line class="st0" x1="0" y1="30.7" x2="54.2" y2="30.7"/>
    <line class="st0" x1="0" y1="34.9" x2="54.2" y2="34.9"/>
    <line class="st0" x1="0" y1="38.1" x2="54.2" y2="38.1"/>
    <line class="st0" x1="18.7" y1="53.3" x2="10.3" y2="53.3"/>
    <line class="st0" x1="32.2" y1="53.3" x2="38.4" y2="53.3"/>
    <line class="st0" x1="18.7" y1="53.3" x2="24.8" y2="53.3"/>
    <line class="st0" x1="6" y1="53.3" x2="10.3" y2="53.3"/>
    <line class="st0" x1="0" y1="53.3" x2="6" y2="53.3"/>
    <line class="st0" x1="46.6" y1="53.3" x2="38.4" y2="53.3"/>
    <line class="st0" x1="24.8" y1="53.3" x2="32.2" y2="53.3"/>
    <line class="st0" x1="51.8" y1="53.3" x2="46.6" y2="53.3"/>
    <line class="st0" x1="51.8" y1="53.3" x2="54.2" y2="53.3"/>
    <line class="st0" x1="6" y1="0" x2="6" y2="3.8"/>
    <line class="st0" x1="18.7" y1="0" x2="18.7" y2="3.8"/>
    <line class="st0" x1="32.2" y1="3.8" x2="32.2" y2="0"/>
    <line class="st0" x1="46.6" y1="0" x2="46.6" y2="3.8"/>
    <line class="st0" x1="6" y1="54.1" x2="6" y2="53.3"/>
    <line class="st0" x1="6" y1="53.3" x2="6" y2="53.3"/>
    <line class="st0" x1="18.7" y1="53.3" x2="18.7" y2="53.3"/>
    <line class="st0" x1="18.7" y1="53.3" x2="18.7" y2="54.1"/>
    <line class="st0" x1="32.2" y1="53.3" x2="32.2" y2="53.3"/>
    <line class="st0" x1="32.2" y1="54.1" x2="32.2" y2="53.3"/>
    <line class="st0" x1="46.6" y1="54.1" x2="46.6" y2="53.3"/>
    <line class="st0" x1="46.6" y1="53.3" x2="46.6" y2="53.3"/>
    <line class="st0" x1="12.6" y1="3.8" x2="12.6" y2="3.7"/>
    <line class="st0" x1="12.6" y1="3.8" x2="12.6" y2="7.9"/>
    <line class="st0" x1="27.5" y1="3.8" x2="27.5" y2="7.9"/>
    <line class="st0" x1="27.5" y1="3.7" x2="27.5" y2="3.8"/>
    <line class="st0" x1="41.1" y1="3.7" x2="41.1" y2="3.8"/>
    <line class="st0" x1="41.1" y1="7.9" x2="41.1" y2="3.8"/>
    <line class="st0" x1="54" y1="3.8" x2="54" y2="7.9"/>
    <line class="st0" x1="54" y1="3.8" x2="54" y2="3.7"/>
    <line class="st0" x1="7.1" y1="12.1" x2="7.1" y2="8"/>
    <line class="st0" x1="20.3" y1="12.1" x2="20.3" y2="8"/>
    <line class="st0" x1="33.9" y1="12.1" x2="33.9" y2="8"/>
    <line class="st0" x1="48.8" y1="12.1" x2="48.8" y2="8"/>
    <line class="st0" x1="40.2" y1="16.1" x2="40.2" y2="12.1"/>
    <line class="st0" x1="40.2" y1="12.1" x2="40.2" y2="12.1"/>
    <line class="st0" x1="26.8" y1="12.1" x2="26.8" y2="12.1"/>
    <line class="st0" x1="26.8" y1="16.1" x2="26.8" y2="12.1"/>
    <line class="st0" x1="12" y1="12.1" x2="12" y2="16.1"/>
    <line class="st0" x1="12" y1="12.1" x2="12" y2="12.1"/>
    <line class="st0" x1="53.5" y1="12.1" x2="53.5" y2="16.1"/>
    <line class="st0" x1="53.5" y1="12.1" x2="53.5" y2="12.1"/>
    <line class="st0" x1="46.6" y1="16.1" x2="46.6" y2="16.1"/>
    <line class="st0" x1="46.6" y1="16.1" x2="46.6" y2="19.4"/>
    <line class="st0" x1="32" y1="16.1" x2="32" y2="16.1"/>
    <line class="st0" x1="32" y1="16.1" x2="32" y2="19.4"/>
    <line class="st0" x1="18.7" y1="16.1" x2="18.7" y2="16.1"/>
    <line class="st0" x1="18.7" y1="16.1" x2="18.7" y2="19.4"/>
    <line class="st0" x1="6" y1="16.1" x2="6" y2="16.1"/>
    <line class="st0" x1="6" y1="19.4" x2="6" y2="16.1"/>
    <line class="st0" x1="12.5" y1="19.4" x2="12.5" y2="19.4"/>
    <line class="st0" x1="12.5" y1="19.4" x2="12.5" y2="22.8"/>
    <line class="st0" x1="27.5" y1="19.4" x2="27.5" y2="19.4"/>
    <line class="st0" x1="27.5" y1="19.4" x2="27.5" y2="22.8"/>
    <line class="st0" x1="41.3" y1="19.4" x2="41.3" y2="19.4"/>
    <line class="st0" x1="41.3" y1="19.4" x2="41.3" y2="22.8"/>
    <line class="st0" x1="54" y1="19.4" x2="54" y2="19.4"/>
    <line class="st0" x1="54" y1="19.4" x2="54" y2="22.8"/>
    <line class="st0" x1="6.7" y1="22.8" x2="6.7" y2="26.9"/>
    <line class="st0" x1="6.7" y1="22.8" x2="6.7" y2="22.8"/>
    <line class="st0" x1="20.2" y1="22.8" x2="20.2" y2="26.9"/>
    <line class="st0" x1="20.2" y1="22.8" x2="20.2" y2="22.8"/>
    <line class="st0" x1="33.8" y1="22.8" x2="33.8" y2="26.9"/>
    <line class="st0" x1="33.8" y1="22.8" x2="33.8" y2="22.8"/>
    <line class="st0" x1="48.7" y1="22.8" x2="48.7" y2="22.8"/>
    <line class="st0" x1="48.7" y1="22.8" x2="48.7" y2="26.9"/>
    <line class="st0" x1="40.1" y1="26.9" x2="40.1" y2="30.7"/>
    <line class="st0" x1="26.8" y1="26.9" x2="26.8" y2="30.7"/>
    <line class="st0" x1="11.8" y1="26.9" x2="11.8" y2="30.7"/>
    <line class="st0" x1="53.3" y1="30.7" x2="53.3" y2="26.9"/>
    <line class="st0" x1="5.6" y1="30.7" x2="5.6" y2="34.9"/>
    <line class="st0" x1="18.6" y1="30.7" x2="18.6" y2="34.9"/>
    <line class="st0" x1="32.2" y1="30.7" x2="32.2" y2="34.9"/>
    <line class="st0" x1="46.4" y1="30.7" x2="46.4" y2="34.9"/>
    <line class="st0" x1="42.2" y1="38.1" x2="42.2" y2="34.9"/>
    <line class="st0" x1="28.1" y1="34.9" x2="28.1" y2="38.1"/>
    <line class="st0" x1="13" y1="34.9" x2="13" y2="38.1"/>
    <line class="st0" x1="0.6" y1="34.9" x2="0.6" y2="38.1"/>
    <line class="st0" x1="6.9" y1="38.2" x2="6.9" y2="41.7"/>
    <line class="st0" x1="20.2" y1="41.7" x2="20.2" y2="38.2"/>
    <line class="st0" x1="33.8" y1="38.2" x2="33.8" y2="41.7"/>
    <line class="st0" x1="48.7" y1="41.7" x2="48.7" y2="38.2"/>
    <line class="st0" x1="40.3" y1="45.5" x2="40.3" y2="45.5"/>
    <line class="st0" x1="40.3" y1="41.8" x2="40.3" y2="45.5"/>
    <line class="st0" x1="26.5" y1="41.8" x2="26.5" y2="45.5"/>
    <line class="st0" x1="26.5" y1="45.5" x2="26.5" y2="45.5"/>
    <line class="st0" x1="11.9" y1="45.5" x2="11.9" y2="45.5"/>
    <line class="st0" x1="11.9" y1="45.5" x2="11.9" y2="41.8"/>
    <line class="st0" x1="53.8" y1="45.5" x2="53.8" y2="41.8"/>
    <line class="st0" x1="53.8" y1="45.5" x2="53.8" y2="45.5"/>
    <line class="st0" x1="24.8" y1="49.9" x2="38.4" y2="49.9"/>
    <line class="st0" x1="24.8" y1="49.9" x2="10.3" y2="49.9"/>
    <line class="st0" x1="51.8" y1="49.9" x2="38.4" y2="49.9"/>
    <line class="st0" x1="51.8" y1="49.9" x2="54.2" y2="49.9"/>
    <line class="st0" x1="0" y1="49.9" x2="10.3" y2="49.9"/>
    <line class="st0" x1="10.3" y1="49.9" x2="10.3" y2="53.3"/>
    <line class="st0" x1="10.3" y1="49.9" x2="10.3" y2="49.9"/>
    <line class="st0" x1="10.3" y1="53.3" x2="10.3" y2="53.3"/>
    <line class="st0" x1="24.8" y1="49.9" x2="24.8" y2="49.9"/>
    <line class="st0" x1="24.8" y1="53.3" x2="24.8" y2="53.3"/>
    <line class="st0" x1="24.8" y1="49.9" x2="24.8" y2="53.3"/>
    <line class="st0" x1="38.4" y1="49.9" x2="38.4" y2="49.9"/>
    <line class="st0" x1="38.4" y1="49.9" x2="38.4" y2="53.3"/>
    <line class="st0" x1="38.4" y1="53.3" x2="38.4" y2="53.3"/>
    <line class="st0" x1="51.8" y1="49.9" x2="51.8" y2="53.3"/>
    <line class="st0" x1="51.8" y1="49.9" x2="51.8" y2="49.9"/>
    <line class="st0" x1="51.8" y1="53.3" x2="51.8" y2="53.3"/>
    <line class="st0" x1="4.6" y1="45.5" x2="4.6" y2="49.9"/>
    <line class="st0" x1="17.6" y1="45.5" x2="17.6" y2="49.9"/>
    <line class="st0" x1="31.6" y1="45.5" x2="31.6" y2="49.9"/>
    <line class="st0" x1="46.2" y1="45.5" x2="46.2" y2="49.9"/>
    <path class="st0" d="M0,10.8c0.3,0,0.7,0.1,1,0.1c1.3,0,2.4-0.4,2.4-0.8c0-0.4-1.1-0.8-2.4-0.8c-0.4,0-0.7,0-1,0.1"/>
    <path class="st0" d="M18.4,6c0,0.4,1.1,0.8,2.4,0.8c1.3,0,2.4-0.4,2.4-0.8c0-0.4-1.1-0.8-2.4-0.8C19.4,5.2,18.4,5.5,18.4,6z"/>
    <path class="st0" d="M42.1,2c0-0.4-1.1-0.8-2.4-0.8c-1.3,0-2.4,0.4-2.4,0.8c0,0.4,1.1,0.8,2.4,0.8C41.1,2.8,42.1,2.4,42.1,2z"/>
    <path class="st0" d="M20.9,14.2c0-0.4-1.1-0.8-2.4-0.8c-1.3,0-2.4,0.4-2.4,0.8c0,0.4,1.1,0.8,2.4,0.8C19.8,15,20.9,14.7,20.9,14.2z
        "/>
    <path class="st0" d="M41.6,17.9c0-0.4-1.1-0.8-2.4-0.8c-1.3,0-2.4,0.4-2.4,0.8c0,0.4,1.1,0.8,2.4,0.8
        C40.5,18.7,41.6,18.3,41.6,17.9z"/>
    <path class="st0" d="M3.3,21.1c0,0.4,1.1,0.8,2.4,0.8c1.3,0,2.4-0.4,2.4-0.8c0-0.4-1.1-0.8-2.4-0.8C4.4,20.3,3.3,20.7,3.3,21.1z"/>
    <path class="st0" d="M24.4,25c0,0.4,1.1,0.8,2.4,0.8c1.3,0,2.4-0.4,2.4-0.8c0-0.4-1.1-0.8-2.4-0.8C25.5,24.2,24.4,24.6,24.4,25z"/>
    <path class="st0" d="M43.9,28.9c0,0.4,1.1,0.8,2.4,0.8c1.3,0,2.4-0.4,2.4-0.8c0-0.4-1.1-0.8-2.4-0.8C45,28.1,43.9,28.4,43.9,28.9z"
        />
    <path class="st0" d="M9.6,33c0,0.4,1.1,0.8,2.4,0.8c1.3,0,2.4-0.4,2.4-0.8c0-0.4-1.1-0.8-2.4-0.8C10.6,32.2,9.6,32.6,9.6,33z"/>
    <path class="st0" d="M32.3,36.5c0,0.4,1.1,0.8,2.4,0.8c1.3,0,2.4-0.4,2.4-0.8c0-0.4-1.1-0.8-2.4-0.8C33.4,35.7,32.3,36.1,32.3,36.5
        z"/>
    <path class="st0" d="M19.6,43c-1.3,0-2.4,0.4-2.4,0.8c0,0.4,1.1,0.8,2.4,0.8c1.3,0,2.4-0.4,2.4-0.8C22,43.3,20.9,43,19.6,43z"/>
    <path class="st0" d="M0,40.6c0.4-0.1,0.7-0.3,0.7-0.5c0-0.2-0.3-0.4-0.7-0.5"/>
    <path class="st0" d="M38.8,48.7c1.3,0,2.4-0.4,2.4-0.8c0-0.4-1.1-0.8-2.4-0.8c-1.3,0-2.4,0.4-2.4,0.8
        C36.4,48.3,37.5,48.7,38.8,48.7z"/>
    <path class="st0" d="M14.4,51.5c0,0.4,1.1,0.8,2.4,0.8c1.3,0,2.4-0.4,2.4-0.8c0-0.4-1.1-0.8-2.4-0.8C15.4,50.7,14.4,51,14.4,51.5z"
        />
    <path class="st0" d="M54.2,9.4c-0.8,0.1-1.4,0.4-1.4,0.7c0,0.3,0.6,0.6,1.4,0.7"/>
    <path class="st0" d="M54.2,39.5c-0.4-0.2-1-0.2-1.7-0.2c-1.3,0-2.4,0.4-2.4,0.8s1.1,0.8,2.4,0.8c0.7,0,1.3-0.1,1.7-0.2"/>
</g>
</svg>
