<!-- Generator: Adobe Illustrator 22.1.0, SVG Export Plug-In  -->
<svg version="1.1"
     xmlns="http://www.w3.org/2000/svg" xmlns:xlink="http://www.w3.org/1999/xlink" xmlns:a="http://ns.adobe.com/AdobeSVGViewerExtensions/3.0/"
     x="0px" y="0px" width="54.4px" height="54.6px" viewBox="0 0 54.4 54.6" style="enable-background:new 0 0 54.4 54.6;"
     xml:space="preserve">
<style type="text/css">
    .st0{clip-path:url(#SVGID_2_);fill:none;stroke:#000000;stroke-width:0.3;}
    .st1{clip-path:url(#SVGID_4_);fill:none;stroke:#000000;stroke-width:0.3;}
</style>
<defs>
</defs>
<g>
    <defs>
        <rect id="SVGID_1_" x="0.2" y="0.2" width="54.1" height="54.1"/>
    </defs>
    <clipPath id="SVGID_2_">
        <use xlink:href="#SVGID_1_"  style="overflow:visible;"/>
    </clipPath>
    <path class="st0" d="M51.5,0.2c-0.4,0-0.7,0-1.1,0c-1.1,0-2.1-0.1-3.2,0"/>
    <path class="st0" d="M45.8,4c0.8,0.3,1.6,0.3,2.5,0.3"/>
    <path class="st0" d="M47.2,0.2c-0.6,0.1-1.2,0.2-1.9,0.4c-0.9,0.3-1.5,1.1-1.1,2.1c0.2,0.6,0.9,1,1.4,1.3c0.1,0,0.1,0,0.2,0.1"/>
    <path class="st0" d="M48.3,4.4c1,0,1.9-0.1,2.9,0c1,0.1,2.1,0.1,3.1-0.1"/>
    <path class="st0" d="M51.5,0.2c0.9,0.1,1.8,0.2,2.8,0.3"/>
    <path class="st0" d="M41.9,3.9c-0.9,0.2-1.8,0.3-2.6,0.4"/>
    <path class="st0" d="M34.9,4.5c1.5,0,2.9-0.1,4.3-0.2"/>
    <path class="st0" d="M34.9,4.5c-1,0-1.9,0-2.9-0.1c-0.3,0-0.7-0.1-1-0.2"/>
    <path class="st0" d="M31,4.3c-0.8-0.3-1.5-1-1.6-1.8c-0.1-0.9,0.5-1.5,1.1-1.7c1.9-0.7,4.1-0.3,6.3-0.3c2.8,0,5.7-0.9,7.2,1.7
        c0.4,0.6-0.5,1.5-1.2,1.6c-0.3,0.1-0.7,0.1-1,0.2"/>
    <path class="st0" d="M25.8,4.1c-0.5,0.1-1,0.2-1.4,0.3"/>
    <path class="st0" d="M17.9,4.4c-1.2-0.3-2.3-0.9-2.2-1.9c0.7-1.8,2.2-2.2,3.8-2.3"/>
    <path class="st0" d="M20,4.7c-0.2,0-0.5,0-0.7,0c-0.4-0.1-0.9-0.1-1.4-0.3"/>
    <path class="st0" d="M19.5,0.2c0.4,0,0.8,0,1.3,0"/>
    <path class="st0" d="M25.9,0.2c-0.6,0-1.3,0-1.9,0"/>
    <path class="st0" d="M20.8,0.2c0.7,0,1.3,0.1,1.9,0c0.4,0,0.8,0,1.3,0"/>
    <path class="st0" d="M20,4.7c1.5,0.1,2.9,0,4.4-0.3"/>
    <path class="st0" d="M25.8,4.1c0.8-0.2,1.6-0.4,2.4-0.6c0.6-0.1,1.3-0.8,1-1.3c-0.6-1.5-1.9-1.9-3.4-2"/>
    <path class="st0" d="M9.7,0.2C9.7,0.2,9.8,0.2,9.7,0.2c0.5,0,1,0,1.5,0"/>
    <path class="st0" d="M9.4,0.2c0.1,0,0.2,0,0.3,0"/>
    <path class="st0" d="M8.7,0.2c0.1,0,0.3,0,0.4,0c0.1,0,0.2,0,0.3,0"/>
    <path class="st0" d="M4.1,0.2c0.7-0.2,1.7-0.1,2.7,0"/>
    <path class="st0" d="M6.8,0.2c0.6,0,1.2,0.1,1.8,0"/>
    <path class="st0" d="M4.1,0.2C3.2,0.4,2.7,1,2.6,2.4C2.6,3,3.4,3.8,4.2,4c3.3,1.1,6.7,0.2,10.3-0.2c0.7,0,1-0.7,1.1-1.6
        c0-1.5-2.2-1.9-4.3-2"/>
    <path class="st0" d="M51.9,8.2c-1.1-0.3-1.9-0.9-2-1.9c-0.1-0.5,0.7-1.7,2.2-1.7c1,0,1.6-0.1,2.2-0.2"/>
    <path class="st0" d="M53.2,8.4c0.3,0,0.7,0,1.1,0"/>
    <path class="st0" d="M53.2,8.4c-0.5,0-0.9-0.1-1.3-0.2"/>
    <path class="st0" d="M41.9,3.9c0.8,0,1.6,0,2.4,0C44.7,4,45.3,4,45.8,4"/>
    <path class="st0" d="M48.3,4.4c-0.7-0.2-1.6-0.3-2.5-0.3"/>
    <path class="st0" d="M46.3,8.1C46.9,8,47.5,8,48,7.9c0.5,0,1.6-1.2,1.8-1.7c0.4-1-0.3-1.6-1.5-1.9"/>
    <path class="st0" d="M39.2,4.3c-1.1,0.4-2,1.1-2.3,2.4c0.2,2,3.8,1.9,7.3,1.6"/>
    <path class="st0" d="M46.3,8.1c-0.7,0.1-1.4,0.1-2.1,0.2"/>
    <path class="st0" d="M41.9,3.9C40.9,4,40,4,39.2,4.3"/>
    <path class="st0" d="M30.2,8.2c-3.5,0.3-6.8,0-7.3-1.9"/>
    <path class="st0" d="M25.8,4.1c-0.4,0-0.9,0.1-1.4,0.3"/>
    <path class="st0" d="M22.8,6.1c0-0.4,0.1-0.8,0.7-1.3c0.2-0.1,0.5-0.2,0.9-0.4"/>
    <path class="st0" d="M34.9,4.5c-1.2-0.1-2.6-0.2-3.9-0.3"/>
    <path class="st0" d="M30.2,8.2c0.8-0.1,1.7-0.2,2.5-0.3"/>
    <path class="st0" d="M22.8,6.1c0,0.1,0,0.1,0,0.2c0,0,0,0.1,0,0.1"/>
    <path class="st0" d="M31,4.3c-0.3,0-0.7,0-1,0c-1.6-0.1-2.5,0.1-3.9,0c-0.1,0-0.1,0-0.2,0"/>
    <path class="st0" d="M34.9,4.5c0.2,0,0.3,0,0.5,0c0.7,0.2,1.5,0.8,1.5,1.4c0.3,0.8-0.9,1.4-1.5,1.5c-0.8,0.2-1.7,0.3-2.7,0.5"/>
    <path class="st0" d="M22.8,6.1c0,0.1,0.1,0.2,0.1,0.3"/>
    <path class="st0" d="M20,4.7c0.4,0,0.8,0.1,1.3,0.1c0.8,0.1,1.1,0.5,1.5,1.2c0,0,0,0,0,0"/>
    <path class="st0" d="M18.7,8.1c1-0.1,1.9-0.3,2.7-0.4C22,7.6,22.9,7,22.9,6.3"/>
    <path class="st0" d="M11.9,8.4c1.2,0.1,2.6,0.1,4,0"/>
    <path class="st0" d="M10.2,8c-1-0.3-1.8-0.8-2-1.6c-0.1-1.8,4.6-2.5,7-2.3h0.3c0.9,0,1.6,0.2,2.4,0.3"/>
    <path class="st0" d="M18.7,8.1c-0.9,0.1-1.9,0.2-2.8,0.3"/>
    <path class="st0" d="M20,4.7c-0.8-0.1-1.5-0.2-2.1-0.3"/>
    <path class="st0" d="M11.9,8.4c-0.6-0.1-1.2-0.2-1.7-0.3"/>
    <path class="st0" d="M45.7,12.4c1.1,0.1,2.1,0.1,3.1-0.1"/>
    <path class="st0" d="M50.2,12.1c-0.5,0.1-1,0.2-1.5,0.2"/>
    <path class="st0" d="M53.2,8.4c0.4,0.1,0.8,0.3,1.1,0.5"/>
    <path class="st0" d="M46.3,8.1c0.6,0,1.2,0,1.9,0c1.2,0,2.5,0,3.7,0.1"/>
    <path class="st0" d="M42.1,10.2c0.3,0.9,1.1,1.5,2.1,1.9"/>
    <path class="st0" d="M44.2,12.1c0.3,0.1,0.6,0.2,1,0.2c0.2,0,0.3,0,0.5,0.1"/>
    <path class="st0" d="M50.2,12.1c1-0.2,2-0.4,3.1-0.6c0.3-0.1,0.7-0.2,0.9-0.5"/>
    <path class="st0" d="M46.3,8.1c-0.7,0-1.4,0-2.1,0.2"/>
    <path class="st0" d="M42.1,10.1c-0.2-0.7,0.8-1.3,1.5-1.7c0.2-0.1,0.4-0.1,0.6-0.2"/>
    <path class="st0" d="M53.2,8.4c-0.4-0.1-0.8-0.2-1.3-0.2"/>
    <path class="st0" d="M42.1,10.2c0,0,0-0.1,0-0.1"/>
    <path class="st0" d="M29.7,12c0.7,0.2,1.4,0.2,2,0.3c0.1,0,0.1,0,0.2,0"/>
    <path class="st0" d="M30.2,8.2c-1.1,0.3-2.1,1-2.5,2.2c0,0.9,0.9,1.3,2,1.6"/>
    <path class="st0" d="M42.1,10.1c-1-2.2-4-1.9-6.3-2c-0.9-0.1-2-0.2-3.1-0.2"/>
    <path class="st0" d="M40.1,11.9c-1.2,0.1-2.2,0.2-3.3,0.2"/>
    <path class="st0" d="M30.2,8.2C31,8,31.9,7.9,32.7,7.9"/>
    <path class="st0" d="M36.8,12.1c-1.6,0-3.2,0-4.9,0.1"/>
    <path class="st0" d="M42.1,10.2c0,0,0-0.1,0-0.1"/>
    <path class="st0" d="M42.1,10.2c0.1,0.5-0.5,1.4-1.4,1.6c-0.2,0-0.5,0.1-0.7,0.1"/>
    <path class="st0" d="M14.1,10.4c0.2-1.1,0.9-1.7,1.8-2"/>
    <path class="st0" d="M22.9,12.2c0.8,0,1.5-0.1,2.3-0.2"/>
    <path class="st0" d="M14.1,10.6c0.1,0.6,0.9,1.1,1.6,1.3"/>
    <path class="st0" d="M18.7,8.1c-1,0-2,0-2.8,0.3"/>
    <path class="st0" d="M18.6,12.1C17.7,12,16.9,12,16,12c-0.1,0-0.2,0-0.3-0.1"/>
    <path class="st0" d="M14.1,10.6C14.1,10.6,14.1,10.6,14.1,10.6c0-0.1,0-0.2,0-0.2"/>
    <path class="st0" d="M22.9,12.2c-1.4,0-2.9-0.1-4.4-0.1"/>
    <path class="st0" d="M25.2,12c0.4-0.1,0.8-0.2,1.2-0.3c0.7-0.2,1.5-0.8,1.3-1.6c-0.6-2.1-3.1-2.2-6.5-2.1c-0.7,0-1.6,0-2.4,0"/>
    <path class="st0" d="M10.2,8C9.4,8,8.5,8,7.6,8c-1,0-2.1-0.1-3.1,0"/>
    <path class="st0" d="M2.3,12c0.1,0,0.2,0,0.3,0.1c0.2,0,0.3,0,0.5,0"/>
    <path class="st0" d="M2.5,8.3c-1,0.3-1.6,1-1.7,2.3c0,0.5,0.7,1.2,1.4,1.4"/>
    <path class="st0" d="M10.2,11.8c-0.8,0-1.6,0.1-2.4,0.1"/>
    <path class="st0" d="M4.5,8c-0.7,0-1.4,0.1-2,0.3"/>
    <path class="st0" d="M14.1,10.6c-0.1,0.5-0.7,0.9-1.2,0.9c-0.9,0.1-1.8,0.2-2.7,0.2"/>
    <path class="st0" d="M11.9,8.4c0.9,0.3,1.6,0.8,2.1,1.8c0.1,0.1,0.1,0.2,0.1,0.3"/>
    <path class="st0" d="M14.1,10.6c0-0.1,0-0.1,0-0.2"/>
    <path class="st0" d="M11.9,8.4c-0.5-0.2-1.1-0.3-1.7-0.3"/>
    <path class="st0" d="M7.8,11.9C6.2,12,4.6,12,3,12.1"/>
    <path class="st0" d="M48.9,15.7c0.2,0,0.3,0.1,0.5,0.1c0.5,0,1,0.1,1.5,0.1"/>
    <path class="st0" d="M50.2,12.1c1.4-0.1,2.7-0.2,4.1-0.1"/>
    <path class="st0" d="M50.2,12.1c-0.3,0-0.6,0.1-0.9,0.1c-0.2,0-0.4,0.1-0.6,0.1"/>
    <path class="st0" d="M48.8,12.3c-0.8,0.3-1.5,1.1-1.5,1.9c0,0.9,0.8,1.3,1.6,1.5"/>
    <path class="st0" d="M50.8,15.9c1.2,0.1,2.3,0.1,3.5,0.1"/>
    <path class="st0" d="M40.1,11.9c0.1,0,0.2,0,0.4,0h0.4c1.1,0.2,2.3,0.1,3.3,0.2"/>
    <path class="st0" d="M38.7,15.8c2.5-0.5,4.7,0.4,7-0.2c0.8-0.1,1.6-1.2,1.4-1.8c-0.3-0.7-0.8-1.1-1.4-1.4"/>
    <path class="st0" d="M45.7,12.4c-0.4-0.2-0.9-0.2-1.4-0.3"/>
    <path class="st0" d="M37.1,15.9c0.5,0,1.1,0,1.7-0.1"/>
    <path class="st0" d="M40.1,11.9c-1.2-0.1-2.1,0-3.3,0.2"/>
    <path class="st0" d="M37.1,15.9c-0.5,0-1-0.1-1.5-0.3c-0.6-0.2-1.2-0.6-1.5-1.2c-0.4-0.8,0.5-1.9,1.3-2c0.5-0.1,0.9-0.2,1.4-0.2"/>
    <path class="st0" d="M31.2,15.7c0.6,0,1.1-0.1,1.7-0.2c1.1-0.2,1.1-1.5,1-1.5c0.2-1.1-0.8-1.5-1.6-1.6c-0.1,0-0.2-0.1-0.4-0.1"/>
    <path class="st0" d="M27.5,11.9C28.4,12,29,12,29.7,12"/>
    <path class="st0" d="M25.2,12c0.3,0,0.6-0.1,1-0.1c0.3,0,0.8,0.1,1.3,0"/>
    <path class="st0" d="M22.9,12.2c-0.1,0-0.3,0-0.5,0.1c-0.8,0.1-1.8,0.7-2,1.5"/>
    <path class="st0" d="M25.2,12c-0.9,0.1-1.5,0.1-2.3,0.2"/>
    <path class="st0" d="M27.8,11.8c-0.1,0-0.2,0.1-0.3,0.1"/>
    <path class="st0" d="M31.2,15.7c-0.5,0-1.1,0.1-1.6,0.1"/>
    <path class="st0" d="M29.6,15.8c-2,0-3.9-0.2-6-0.1c-1.2,0-2.8-0.3-3.1-1.3c0-0.1,0-0.1,0-0.2"/>
    <path class="st0" d="M29.7,12c0.3,0,0.6,0,1,0.1c0.2,0,0.8,0.1,1.2,0.2"/>
    <path class="st0" d="M27.5,11.9C27.5,11.9,27.4,11.9,27.5,11.9"/>
    <path class="st0" d="M20.5,13.8c0,0.1-0.1,0.3,0,0.4"/>
    <path class="st0" d="M5.7,13.4c-0.1,0.1-0.1,0.3-0.2,0.5c-0.1,0.3-0.1,0.6,0,0.8"/>
    <path class="st0" d="M5.7,13.4c0.4-0.9,1-1.2,2-1.5c0.1,0,0.1,0,0.2-0.1"/>
    <path class="st0" d="M10.2,11.8c-0.1,0-0.2,0-0.3,0c-0.6,0.1-1.5,0-2.1,0.1"/>
    <path class="st0" d="M20.5,13.8C20.5,13.8,20.5,13.8,20.5,13.8c-0.2-1-0.9-1.5-1.9-1.7"/>
    <path class="st0" d="M7,15.6c-0.3,0-0.5-0.1-0.8-0.2C6,15.2,5.8,15,5.6,14.7"/>
    <path class="st0" d="M10.2,11.8c1,0.1,1.8-0.1,2.8,0c0.8,0.1,1.7,0.1,2.6,0.1"/>
    <path class="st0" d="M18.6,12.1c-0.8-0.2-1.8-0.2-2.8-0.2"/>
    <path class="st0" d="M20.4,14.2c-0.2,0.6-0.9,1.1-1.6,1.2c-3.4,0.5-5.9,0.1-9.3,0.1c-0.4,0-0.8,0-1.2,0.1"/>
    <path class="st0" d="M7,15.6c0.4,0.1,0.9,0,1.3,0"/>
    <path class="st0" d="M20.4,14.2c0-0.1,0.1-0.3,0-0.4"/>
    <path class="st0" d="M50.8,15.9c0.4,0.1,0.9,0.1,1.3,0.3c1,0.3,2,0.4,2.1,1.4c0.1,1.3-0.9,1.9-2.2,2.1"/>
    <path class="st0" d="M48.9,15.7c0.7,0,1.3,0.1,2,0.2"/>
    <path class="st0" d="M52,19.6c-0.5,0.1-1,0.1-1.4,0.1"/>
    <path class="st0" d="M48.9,15.7c-0.4,0-0.9,0-1.4,0c-2.2,0.1-5.6,0-5.8,2.5c0.4,1.1,2,1.5,3.3,1.6c1.5,0.1,2.9-0.2,4.5-0.2
        c0.3,0,0.7,0.1,1,0.1"/>
    <path class="st0" d="M28.9,19.7c3.2-0.3,6-0.1,9.2,0"/>
    <path class="st0" d="M37.1,15.9c0.5,0,1.1-0.1,1.7-0.1"/>
    <path class="st0" d="M28.5,19.6c0.1,0,0.3,0.1,0.4,0"/>
    <path class="st0" d="M37.1,15.9c-1,0-1.9,0-2.8-0.1c-0.4-0.1-1.3-0.1-1.7-0.1c-0.5,0-0.9,0-1.4,0"/>
    <path class="st0" d="M29.6,15.8c-0.3,0-0.6,0.1-0.9,0.2c-0.9,0.3-2,1-1.7,2c0.1,0.5,0.8,1.4,1.5,1.6"/>
    <path class="st0" d="M38.1,19.6c0.4,0,0.7,0,1.1,0c0.2,0,0.4,0,0.6-0.1"/>
    <path class="st0" d="M31.2,15.7c-0.5,0-1.1,0-1.6,0.1"/>
    <path class="st0" d="M38.7,15.8c0.4,0.1,0.9,0.2,1.4,0.2c0.8,0.2,1.5,0.8,1.7,1.4c0.3,1.2-0.9,2-2,2.2"/>
    <path class="st0" d="M14.6,19.7c-1.2-0.2-2.4-0.8-2.4-1.9c0,0,0,0,0-0.1"/>
    <path class="st0" d="M25.3,19.5c1-0.4,1.7-1,1.6-2.2c-0.6-2.2-5.1-1.5-7.8-1.5c-1.8,0-3.5-0.4-5.1,0.3c-0.7,0.3-1.4,0.6-1.7,1.2"/>
    <path class="st0" d="M15.2,19.8c-0.1,0-0.2,0-0.3,0"/>
    <path class="st0" d="M19.2,19.9c-0.9,0-1.8,0-2.8,0"/>
    <path class="st0" d="M15.2,19.8c0.4,0,0.8,0.1,1.2,0"/>
    <path class="st0" d="M19.2,19.9c1.5,0,3,0,4.6-0.1c0.1,0,0.2,0,0.3,0"/>
    <path class="st0" d="M25.3,19.5c-0.4,0.1-0.8,0.2-1.3,0.3"/>
    <path class="st0" d="M12.3,17.2c-0.1,0.2-0.1,0.3-0.1,0.5"/>
    <path class="st0" d="M14.6,19.7c0.1,0,0.2,0,0.3,0"/>
    <path class="st0" d="M2.9,19.7c0.9,0.1,1.7,0.1,2.6,0.1"/>
    <path class="st0" d="M3.2,15.7C3.2,15.7,3.2,15.7,3.2,15.7c-0.4,0-0.9,0-1.2,0.2"/>
    <path class="st0" d="M2.9,19.7c-0.5-0.1-1-0.2-1.6-0.3c-0.6-0.2-1.1-0.7-1.2-1.2c0,0,0-0.1,0-0.1"/>
    <path class="st0" d="M10.9,19.5c0,0,0.1,0,0.1-0.1c0.7-0.4,1-0.9,1.2-1.6"/>
    <path class="st0" d="M2,15.9c-0.1,0-0.3,0.1-0.4,0.2c-0.7,0.5-1.4,1-1.5,1.8"/>
    <path class="st0" d="M8.3,15.6c1.8,0,3.7,0.4,4,1.7"/>
    <path class="st0" d="M9.5,19.9c-1.1,0.1-2.2-0.1-3.4-0.1c-0.2,0-0.4,0-0.6,0"/>
    <path class="st0" d="M0.2,17.8c0,0.1,0,0.2,0,0.3"/>
    <path class="st0" d="M7,15.6c-0.2,0-0.5,0-0.7,0.1c-1,0.1-2,0.2-3.1,0.1"/>
    <path class="st0" d="M8.3,15.6c-0.4,0-0.9,0-1.3,0"/>
    <path class="st0" d="M12.2,17.8c0-0.1,0.1-0.3,0.1-0.4c0,0,0-0.1,0-0.1"/>
    <path class="st0" d="M10.9,19.5c-0.5,0.2-1,0.4-1.5,0.4"/>
    <path class="st0" d="M50.6,19.7c-0.1,0-0.3,0.1-0.4,0.1c-0.8,0.4-1.9,1.2-1.6,2.1c0.2,0.5,0.8,1,1.4,1.3"/>
    <path class="st0" d="M52,19.6c0.5,0,1,0.1,1.5,0.1c0.2,0,0.5,0,0.7,0"/>
    <path class="st0" d="M53.1,23.7c0.4,0,0.8,0,1.2,0"/>
    <path class="st0" d="M52,19.6c-0.5,0-1,0-1.4,0.1"/>
    <path class="st0" d="M53.1,23.7c-0.8,0-1.6-0.1-2.5-0.3c-0.2,0-0.4-0.1-0.6-0.2"/>
    <path class="st0" d="M38.2,23.5c-1.1-0.1-2-0.8-2.4-1.7c-0.3-0.8,0.5-1.6,1.2-1.9c0.3-0.1,0.7-0.2,1.1-0.3"/>
    <path class="st0" d="M46.4,23.6c-0.4,0.1-0.8,0.2-1.2,0.2c-0.3,0-0.5,0-0.8,0"/>
    <path class="st0" d="M38.2,23.5c0.1,0,0.2,0,0.3,0c0.6,0,1.2,0,1.8,0.1"/>
    <path class="st0" d="M44.4,23.8c-1.4,0-2.7-0.1-4.1-0.2"/>
    <path class="st0" d="M46.4,23.6c1.1-0.3,2-0.9,2.2-2.1c-0.1-1-0.6-1.6-2.5-1.6c-2.6,0-4.6-0.2-4.6-0.2c-0.6,0-1.2-0.1-1.7-0.1"/>
    <path class="st0" d="M38.1,19.6c0.5-0.1,1.1-0.1,1.6,0"/>
    <path class="st0" d="M28.9,19.7c-0.1,0-0.3,0-0.4,0"/>
    <path class="st0" d="M25.3,19.5c1-0.1,2.1,0,3.2,0.2"/>
    <path class="st0" d="M24,19.7c-0.2,0.1-0.3,0.1-0.4,0.2c-0.8,0.4-1.7,1.4-1.4,2.2c0.5,1.4,2.5,1.1,3.9,1.1c3-0.1,6,0.8,9-0.3
        c0.7-0.2,0.6-1.2,0.5-2.1c-0.3-2.3-4.4-1.1-6.7-1.3"/>
    <path class="st0" d="M25.3,19.5c-0.4,0-0.9,0.1-1.3,0.3"/>
    <path class="st0" d="M15.9,23.7c-1.7,0.1-3.4,0.1-5-0.1"/>
    <path class="st0" d="M15.2,19.8c-0.1,0-0.1,0-0.2,0c0,0-0.1,0-0.1,0"/>
    <path class="st0" d="M14.9,19.7c-0.1,0-0.2,0-0.3,0"/>
    <path class="st0" d="M10.9,19.5c1.2-0.2,2.5,0,3.7,0.2"/>
    <path class="st0" d="M10.8,23.6c-0.4,0-0.7-0.1-1-0.2"/>
    <path class="st0" d="M10.9,19.5c-0.4,0.1-0.8,0.2-1.2,0.3c-0.1,0-0.2,0.1-0.3,0.1"/>
    <path class="st0" d="M9.5,19.9c-0.9,0.4-1.8,1.3-1.4,2.4c0.2,0.4,0.5,0.9,1,1c0.2,0.1,0.5,0.1,0.7,0.2"/>
    <path class="st0" d="M15.2,19.8c0.4,0,0.8-0.1,1.2,0"/>
    <path class="st0" d="M15.9,23.7c1.1,0,2.1-0.1,3.2-0.1c0.3,0,0.7,0,1-0.1"/>
    <path class="st0" d="M20.1,23.5c1.1-0.3,2.1-1,2-2.1c-0.1-0.8-1-1.4-1.9-1.5c-0.3,0-0.6-0.1-0.9-0.1"/>
    <path class="st0" d="M19.2,19.9c-0.9-0.1-1.8-0.2-2.8,0"/>
    <path class="st0" d="M46.4,23.6c-0.7,0-1.4,0.1-2,0.2"/>
    <path class="st0" d="M53.3,27.3c-0.3,0.1-0.5,0.1-0.8,0.1c-0.9,0.1-1.7,0.1-2.5,0.1"/>
    <path class="st0" d="M46.4,23.6c0.7,0,1.4-0.1,2-0.2c0.6-0.1,1.1-0.2,1.7-0.1"/>
    <path class="st0" d="M53.1,23.7c-0.9-0.3-1.8-0.3-2.7-0.4c-0.1,0-0.2,0-0.4,0"/>
    <path class="st0" d="M53.4,27.3c0.3-0.1,0.6-0.2,0.8-0.3"/>
    <path class="st0" d="M53.1,23.7c0.2,0.1,0.4,0.2,0.7,0.3c0.2,0.1,0.3,0.2,0.5,0.2"/>
    <path class="st0" d="M44.4,23.8c-1.1,0.2-2,0.8-1.8,2.3c0.1,0.4,0.6,0.8,1.1,1c2.1,0.3,4.2,0.5,6.3,0.5"/>
    <path class="st0" d="M53.4,27.3c0,0-0.1,0-0.1,0"/>
    <path class="st0" d="M31.7,27.4c1.8,0,3.5-0.2,5.2,0"/>
    <path class="st0" d="M39.1,27.4c0.3,0,0.6-0.1,0.9-0.2c1.1-0.3,2.4-0.9,2.6-2.1c-0.1-0.9-1.1-1.3-2.3-1.5"/>
    <path class="st0" d="M38.2,23.5c-1.2,0-2.5,0.1-3.5,0.1c-1.9,0.1-3.8-0.3-5.7,0.1c-1,0.2-1.7,1.4-1.5,1.9c0.2,0.8,1,1.4,2,1.6"/>
    <path class="st0" d="M31.7,27.4c-0.5,0-1,0-1.5,0c-0.2,0-0.5,0-0.7-0.1"/>
    <path class="st0" d="M36.9,27.4c0.2,0,0.3,0,0.5,0.1c0.6,0,1.1,0,1.7-0.1"/>
    <path class="st0" d="M38.2,23.5c0.7,0,1.5,0,2.1,0.1"/>
    <path class="st0" d="M15.9,23.7c0.4-0.1,0.8-0.2,1.2-0.2c1.1,0,2,0.1,3,0"/>
    <path class="st0" d="M24.5,27.4c-0.8,0.2-1.7,0.3-2.5,0.3"/>
    <path class="st0" d="M22,27.7c-1.9,0.1-3.8-0.1-5.7-0.4c-0.9-0.1-2.1-0.5-2.2-1.4c-0.3-1.1,0.7-1.9,1.8-2.2"/>
    <path class="st0" d="M20.9,23.4c2.7-0.5,5.8,0.1,6.4,1.5c0.3,0.8-0.1,1.7-1.3,2.1c-0.5,0.2-1,0.3-1.5,0.4"/>
    <path class="st0" d="M21.3,23.4c-0.4,0.1-0.8,0.1-1.2,0.1"/>
    <path class="st0" d="M8.2,27.3c1,0.1,2.1,0.2,3.1,0.1c0.1,0,0.1,0,0.2,0"/>
    <path class="st0" d="M9.8,23.4c-0.7-0.1-1.4-0.2-2.2-0.1c-0.6,0-1.2,0-1.9,0.1"/>
    <path class="st0" d="M11.5,27.4c1.3-0.1,2.8-0.6,2.4-2.6c-0.1-0.3-0.6-0.8-1.1-0.9c-0.7-0.1-1.4-0.2-2-0.4"/>
    <path class="st0" d="M8.2,27.3c-0.5,0-0.9-0.1-1.4-0.1c-2,0.1-5.3,0.2-5.8-1.2"/>
    <path class="st0" d="M1.1,25.2c0.3-0.8,0.9-1.2,1.7-1.5"/>
    <path class="st0" d="M10.8,23.6c-0.3-0.1-0.7-0.1-1-0.2"/>
    <path class="st0" d="M1,26.1C1,26,1,25.9,0.9,25.8c0-0.2,0.1-0.4,0.2-0.6"/>
    <path class="st0" d="M5.7,23.4c-1,0-2,0.1-2.9,0.4"/>
    <path class="st0" d="M51.3,31.2c-0.3,0-0.5,0-0.8,0"/>
    <path class="st0" d="M53.3,27.3c-1,0-2.3,0-3.3,0.2"/>
    <path class="st0" d="M53.4,27.3c-0.1,0-0.2,0-0.3,0"/>
    <path class="st0" d="M47.7,29.1c0.1-0.6,0.6-0.9,1.2-1.2c0.3-0.1,0.7-0.3,1.1-0.3"/>
    <path class="st0" d="M53.5,27.3c0,0-0.1,0-0.1,0"/>
    <path class="st0" d="M47.7,29.6c0.3,1.1,1.6,1.6,2.8,1.6"/>
    <path class="st0" d="M53.4,27.3c0.3,0,0.5,0,0.8,0"/>
    <path class="st0" d="M47.7,29.1c0,0.2,0,0.3,0.1,0.5"/>
    <path class="st0" d="M51.3,31.2c1,0,2,0.1,3,0.1"/>
    <path class="st0" d="M33.9,29.3c0-0.1,0-0.1,0-0.2"/>
    <path class="st0" d="M34,29.1c0.2-0.6,0.8-1.1,1.4-1.4c0.5-0.2,1-0.3,1.6-0.4"/>
    <path class="st0" d="M37.7,31.3c0.6,0.1,1.3,0.1,1.9,0.1"/>
    <path class="st0" d="M39.1,27.4c-0.7,0-1.5,0-2.2,0"/>
    <path class="st0" d="M39.1,27.4c0.6,0,1.3,0,1.9-0.1c2-0.3,4.8,0,5.7,0.8c0.4,0.4,0.8,0.6,1,1"/>
    <path class="st0" d="M47.7,29.6c0-0.2,0-0.4-0.1-0.5"/>
    <path class="st0" d="M33.9,29.3c0,0.1,0,0.2,0,0.3c0.1,0.8,1.1,1.2,2,1.4c0.6,0.1,1.1,0.2,1.7,0.2"/>
    <path class="st0" d="M47.7,29.6c-0.2,0.5-0.7,0.9-1.2,1.1c-2.4,0.5-4.7,0.8-7,0.7"/>
    <path class="st0" d="M24.5,27.4c-0.9,0-1.8,0.1-2.5,0.3"/>
    <path class="st0" d="M28.4,31.3c0.8,0,1.7,0,2.5-0.2"/>
    <path class="st0" d="M22,27.7c-0.8,0.3-1.3,0.7-1.4,1.6"/>
    <path class="st0" d="M20.6,29.5c0,0.5,0.3,0.9,0.7,1c2.2,0.8,4.5,0.7,7,0.8"/>
    <path class="st0" d="M20.6,29.3c0,0.1,0,0.1,0,0.2c0,0,0,0,0,0"/>
    <path class="st0" d="M24.5,27.4c0.9,0,1.8,0,2.5-0.1c0.9-0.1,1.7-0.1,2.4,0"/>
    <path class="st0" d="M33.9,29.3C33.9,29.3,33.9,29.3,33.9,29.3c-0.2,0.6-0.2,0.9-0.9,1.2c-0.7,0.3-1.4,0.5-2.2,0.7"/>
    <path class="st0" d="M34,29.1c0.1-1-1.3-1.6-2.3-1.7"/>
    <path class="st0" d="M31.7,27.4c-0.1,0-0.1,0-0.2,0c-0.7,0-1.4-0.1-2-0.1"/>
    <path class="st0" d="M33.9,29.3c0-0.1,0-0.1,0-0.2"/>
    <path class="st0" d="M15,31.4c-1.5,0-3.1-0.1-4.7-0.1"/>
    <path class="st0" d="M10.3,31.3c-0.2,0-0.3,0-0.5,0c-0.4,0-0.9,0-1.3-0.1"/>
    <path class="st0" d="M20.6,29.5c-0.2,0.8-1.5,1.5-2.5,1.6c-0.2,0-0.5,0.1-0.7,0.1"/>
    <path class="st0" d="M20.6,29.5c0-0.1,0-0.2,0-0.2"/>
    <path class="st0" d="M15,31.4c0.8,0,1.6,0,2.4-0.1"/>
    <path class="st0" d="M8.2,27.3c0.3-0.1,0.6-0.1,0.8-0.1c1,0,1.7,0.1,2.5,0.2"/>
    <path class="st0" d="M5.9,28.8c-0.1,0.2-0.2,0.4-0.2,0.5c0,0.1,0.1,0.3,0.1,0.4"/>
    <path class="st0" d="M20.6,29.3c0-0.2-0.1-0.3-0.2-0.5c-1.8-2-4.6-1.1-7.2-1.4l-0.5,0c-0.4,0.1-0.8,0.1-1.2,0"/>
    <path class="st0" d="M5.9,28.8c0.4-0.7,1.4-1.3,2.4-1.5"/>
    <path class="st0" d="M8.5,31.2c-1.1-0.2-2.3-0.7-2.7-1.5"/>
    <path class="st0" d="M41.8,33.2c0.1,0.8,1.1,1.4,1.8,1.7c0.4,0.1,0.8,0.2,1.2,0.3"/>
    <path class="st0" d="M46.2,35.2C46.2,35.2,46.2,35.2,46.2,35.2c2.5-0.2,4.9-0.1,7.1-0.8c0.5-0.1,1.1-0.6,0.9-1.2
        c-0.5-1.2-1.6-1.8-2.8-2"/>
    <path class="st0" d="M41.9,32.7c-0.1,0.2-0.1,0.3-0.1,0.5"/>
    <path class="st0" d="M41.9,32.7c1.1-2.5,4-1.2,6.2-1.5c0.8-0.1,1.7,0.2,2.4,0"/>
    <path class="st0" d="M51.3,31.2c-0.3,0-0.5,0-0.8,0"/>
    <path class="st0" d="M46.2,35.2c-0.4,0-0.9,0-1.3,0"/>
    <path class="st0" d="M26.8,33.2C26.8,33.2,26.8,33.2,26.8,33.2c0-0.2-0.1-0.3,0-0.4"/>
    <path class="st0" d="M30.8,31.2c1.3,0,2.5,0,3.8,0"/>
    <path class="st0" d="M29.5,34.9c0,0,0.1,0,0.1,0c1.4,0.3,2.7,0.4,4,0.5"/>
    <path class="st0" d="M41.8,33.2c-0.3,1.2-1.6,1.6-2.7,1.9"/>
    <path class="st0" d="M37.7,31.3c-1.1,0-2.3,0.2-3.4,0"/>
    <path class="st0" d="M41.9,32.7c-0.3-0.7-1.3-1.2-2.3-1.4"/>
    <path class="st0" d="M37.3,35.4c0.5-0.1,1-0.1,1.6-0.2c0.1,0,0.1,0,0.2,0"/>
    <path class="st0" d="M41.9,32.7c0,0.2,0,0.3-0.1,0.5"/>
    <path class="st0" d="M39.6,31.4c-0.3-0.1-0.5-0.1-0.8-0.1c-0.4,0-0.8,0-1.1,0"/>
    <path class="st0" d="M26.8,32.8c0.1-0.7,0.9-1.3,1.6-1.5"/>
    <path class="st0" d="M37.3,35.4c-1.3,0.1-2.5,0.2-3.7,0.1"/>
    <path class="st0" d="M30.8,31.2c-0.8,0-1.6,0.1-2.5,0.2"/>
    <path class="st0" d="M26.8,33.2c0.4,1.1,1.5,1.4,2.7,1.7"/>
    <path class="st0" d="M15,31.4c0.7-0.2,1.6-0.2,2.4-0.1"/>
    <path class="st0" d="M26.8,33.2C26.8,34,26,34.7,25.2,35"/>
    <path class="st0" d="M20.4,35.5c1.1,0.1,2.1,0.1,3.2-0.1"/>
    <path class="st0" d="M17.5,31.2c0.9,0.1,1.8,0.2,2.6,0.2c1.6,0,2.9-0.5,4.8-0.1c0.8,0.2,1.7,0.6,1.9,1.4c0,0,0,0.1,0,0.1"/>
    <path class="st0" d="M20.4,35.5c-1.5-0.1-3.1-0.4-4.6-0.4"/>
    <path class="st0" d="M25.2,35c0,0-0.1,0-0.1,0c-0.5,0.2-1,0.3-1.5,0.4"/>
    <path class="st0" d="M26.8,33.2c0-0.1,0-0.3,0-0.4"/>
    <path class="st0" d="M15,31.4c-0.2,0-0.4,0.1-0.6,0.2c-0.4,0.2-1.5,0.8-1.5,2c-0.1,0.9,1.2,1.4,2.2,1.5"/>
    <path class="st0" d="M15.2,35c0,0-0.1,0-0.1,0"/>
    <path class="st0" d="M15.8,35c-0.2,0-0.3,0-0.5,0c0,0-0.1,0-0.1,0"/>
    <path class="st0" d="M10.3,31.3c-0.6-0.1-1.2-0.1-1.8-0.1"/>
    <path class="st0" d="M7,31.2c-0.2,0-0.4,0-0.6,0"/>
    <path class="st0" d="M11.2,35c0.7-0.3,1-0.9,1.8-1.9c0.3-0.5-0.1-1.1-0.6-1.3c-0.7-0.3-1.4-0.5-2.1-0.6"/>
    <path class="st0" d="M7,31.2c-1.9-0.2-3.9-0.3-5.8,0.2c-0.6,0.2-1.3,0.9-0.9,1.8c0.4,1.1,0.8,1.2,1.5,1.4c0.4,0.1,0.9,0.3,1.3,0.4"
        />
    <path class="st0" d="M9.8,35.3c-1.6,0.2-3.1,0.2-4.7,0"/>
    <path class="st0" d="M8.5,31.2c-0.5,0-1,0-1.5,0"/>
    <path class="st0" d="M7,31.2c0.1,0,0.3,0,0.4,0"/>
    <path class="st0" d="M3.1,35c0.7,0.2,1.3,0.3,2,0.3"/>
    <path class="st0" d="M11.2,35c-0.2,0.1-0.5,0.2-0.8,0.2c-0.2,0-0.4,0-0.6,0.1"/>
    <path class="st0" d="M48.5,36.6c0.2-0.7,0.9-1.2,1.5-1.4c1.4-0.5,2.9-0.4,4.4-0.3"/>
    <path class="st0" d="M48.4,37.1c0,0.1,0,0.2,0,0.3c0.4,1,1.4,1.5,2.5,1.6"/>
    <path class="st0" d="M53,39.1c0.4,0,0.9,0,1.3,0"/>
    <path class="st0" d="M51,39c0.2,0,0.3,0,0.5,0.1c0.5,0,1,0,1.5,0"/>
    <path class="st0" d="M48.5,36.6c0,0.2-0.1,0.3-0.1,0.5"/>
    <path class="st0" d="M45.6,39c0.2-0.1,0.5-0.2,0.7-0.2c0.8-0.4,1.8-0.9,2.1-1.7"/>
    <path class="st0" d="M43.8,39.4c0.6-0.1,1.2-0.2,1.8-0.4"/>
    <path class="st0" d="M46.2,35.2c0.3,0,0.6,0,0.9,0.1c0.6,0,1.3,0.7,1.4,1.2c0,0.1,0,0.1,0,0.2"/>
    <path class="st0" d="M48.4,37.1c0-0.2,0.1-0.3,0.1-0.5"/>
    <path class="st0" d="M44.8,35.2c-1.4,0-2.7,0-4.2,0c-0.5,0-1-0.1-1.6,0"/>
    <path class="st0" d="M39.4,39.2c-0.8-0.1-1.5-0.3-2.3-0.5c-0.6-0.1-1.2-0.6-1.4-1.1c-0.4-1,0.7-1.9,1.5-2.2"/>
    <path class="st0" d="M46.2,35.2c-0.4,0-0.9,0-1.3,0"/>
    <path class="st0" d="M37.3,35.4c0,0,0.1,0,0.1,0c0.5-0.2,1.1-0.2,1.7-0.2"/>
    <path class="st0" d="M43.8,39.4c-1,0.1-2,0.1-3,0"/>
    <path class="st0" d="M40.8,39.4c-0.5-0.1-0.9-0.1-1.4-0.2"/>
    <path class="st0" d="M23.6,35.4c-0.8,0.4-1.6,1.2-1.3,2.2c0.2,0.5,0.7,0.9,1.3,1.1c0,0,0,0,0,0"/>
    <path class="st0" d="M29.5,34.9c1.3,0,2.5,0.2,3.9,0.4c0.1,0,0.2,0,0.3,0.1"/>
    <path class="st0" d="M30.8,39.2c0.7,0.1,1.3-0.1,1.9-0.2"/>
    <path class="st0" d="M32.7,39c0.4-0.1,0.8-0.2,1.3-0.2c1.9-0.1,1.6-1.1,1.6-1.9c-0.1-0.9-1.1-1.2-2-1.5"/>
    <path class="st0" d="M26,39c-0.8,0-1.5-0.1-2.3-0.3"/>
    <path class="st0" d="M26,39c1.5,0.1,3.1-0.1,4.7,0.3c0,0,0,0,0.1,0"/>
    <path class="st0" d="M25.2,35c-0.5,0-1,0.1-1.5,0.3c0,0-0.1,0-0.1,0.1"/>
    <path class="st0" d="M25.2,35c0.9-0.1,1.9,0.1,2.9,0c0.5,0,0.9,0,1.4,0"/>
    <path class="st0" d="M9.8,35.3c-0.2,0.1-0.3,0.1-0.5,0.2c-0.8,0.3-1.8,1-1.5,2.1c0.2,0.5,0.7,1.2,1.4,1.2c0.1,0,0.2,0,0.3,0.1"/>
    <path class="st0" d="M11.2,35c-0.5,0.1-0.9,0.2-1.4,0.3"/>
    <path class="st0" d="M15.2,35c0.2,0,0.4,0,0.6,0"/>
    <path class="st0" d="M16.1,39c0.7,0,1.4-0.1,2.1-0.1"/>
    <path class="st0" d="M20.4,35.5c-1.8-0.3-2.1-0.4-4-0.4c0,0-0.3,0-0.7,0"/>
    <path class="st0" d="M9.5,38.9c0.8,0.1,1.6,0.2,2.4,0.2"/>
    <path class="st0" d="M20.4,35.5c0.1,0,0.2,0,0.3,0c0.7,0.1,1.2,0.2,1.4,0.9c0.4,1.1-0.8,2.3-1.8,2.4c-0.8,0-1.5,0.1-2.2,0.1"/>
    <path class="st0" d="M15.1,35c-0.2,0-0.3,0-0.5,0c-1.1-0.1-2.3-0.2-3.4,0"/>
    <path class="st0" d="M16.1,39c-1.4,0.1-2.7,0.1-4.1,0.1"/>
    <path class="st0" d="M15.2,35c0,0-0.1,0-0.1,0"/>
    <path class="st0" d="M45.6,39c-0.7,0-1.3,0.2-1.8,0.4"/>
    <path class="st0" d="M43.8,39.4c-0.8,0.3-1.4,0.9-1.4,1.9c1,1.5,3.1,1.4,4.4,1.5c0.9,0.1,1.7,0.1,2.6,0.1"/>
    <path class="st0" d="M45.6,39c1-0.1,1.9,0,2.7,0.1c0.9,0.1,1.8,0,2.7-0.1"/>
    <path class="st0" d="M51.8,42.8c0.7-0.1,1.3-0.3,2-0.5c0.2-0.1,0.4-0.2,0.5-0.3"/>
    <path class="st0" d="M53,39.1c0.5,0.1,0.9,0.4,1.3,0.8"/>
    <path class="st0" d="M51,39c0.7,0,1.4-0.1,2,0.1"/>
    <path class="st0" d="M51.8,42.8C51,43,50.2,43,49.3,43"/>
    <path class="st0" d="M29.2,42.6c0.2,0.1,0.4,0.1,0.5,0.1c0.6,0.1,1.3,0.1,1.9,0.1"/>
    <path class="st0" d="M30.8,39.2c-0.6,0.1-1.3,0.2-2,0.2c-0.7,0.1-1.6,0.8-1.4,1.7c0.2,0.7,0.9,1.2,1.7,1.4"/>
    <path class="st0" d="M36.2,42.9c1.2,0,2.5-0.2,3.7-0.3"/>
    <path class="st0" d="M30.8,39.2c0.7-0.1,1.3-0.2,1.9-0.2"/>
    <path class="st0" d="M40.8,39.4c0,0-0.1,0-0.1,0c-0.3-0.1-0.7-0.1-1.2-0.2"/>
    <path class="st0" d="M39.4,39.2c-1.7-0.2-4.3-0.4-4.9-0.3h0.1c-0.7,0-1.3,0-2,0.1"/>
    <path class="st0" d="M40.8,39.4c0.7,0.1,1.3,0.5,1.5,1.2c0.3,0.9-0.6,1.7-1.2,1.8c-0.4,0.1-0.8,0.1-1.1,0.2"/>
    <path class="st0" d="M36.2,42.9c-1.5,0.1-3.1,0-4.6-0.1"/>
    <path class="st0" d="M16.1,42.6c0.6,0.1,1.3,0.2,1.9,0.2c0,0,0,0,0,0"/>
    <path class="st0" d="M18.1,38.9c-0.7,0-1.4,0-2.1,0.1"/>
    <path class="st0" d="M21.3,38.6c-1,0.3-2.1,0.3-3.1,0.3"/>
    <path class="st0" d="M21.9,42.8c-1.2,0.1-2.5,0.1-3.9,0"/>
    <path class="st0" d="M16.1,42.6c-0.9-0.2-1.7-0.5-2.1-1.3c0,0,0-0.1-0.1-0.1"/>
    <path class="st0" d="M21.9,42.8c0.8,0,1.5-0.1,2.3-0.2"/>
    <path class="st0" d="M26,39c0.8,0.3,1.2,0.8,1.1,1.5c-0.1,0.9-0.4,1.9-1.3,2c-0.5,0.1-1.1,0.1-1.6,0.2"/>
    <path class="st0" d="M20.9,38.7c1-0.1,1.9-0.1,2.8-0.1"/>
    <path class="st0" d="M26,39c-0.6-0.2-1.4-0.3-2.3-0.3"/>
    <path class="st0" d="M13.9,40.8c0,0.1,0,0.3,0.1,0.4"/>
    <path class="st0" d="M16.1,39c-0.3,0.1-0.6,0.1-0.9,0.2c-0.5,0.2-1.3,0.8-1.4,1.5"/>
    <path class="st0" d="M2.6,39.1c0.7-0.2,1.5-0.3,2.3-0.3"/>
    <path class="st0" d="M7.1,42.9c1.3,0,2.6-0.1,3.8-0.2"/>
    <path class="st0" d="M2.4,42.7c0.2,0.1,0.5,0.2,0.7,0.2c0.3,0,0.7,0,1,0"/>
    <path class="st0" d="M13.9,41.2c0,0.6-0.6,1.3-1.2,1.4c-0.6,0-1.2,0.1-1.8,0.1"/>
    <path class="st0" d="M7.1,42.9c-1,0-2,0-2.9,0"/>
    <path class="st0" d="M2.6,39.1C2.6,39.1,2.5,39.1,2.6,39.1c-0.6,0.2-1,0.7-1.3,1.2c-0.5,0.9,0.2,1.9,1.1,2.3"/>
    <path class="st0" d="M9.5,38.9c-0.8,0-1.7,0.1-2.5,0c-0.7-0.1-1.5-0.1-2.2-0.1"/>
    <path class="st0" d="M13.9,41.2c0-0.1,0-0.3-0.1-0.4"/>
    <path class="st0" d="M13.9,40.8C13.8,40.8,13.8,40.7,13.9,40.8c-0.4-1-1.1-1.5-1.9-1.7"/>
    <path class="st0" d="M12,39.1c-0.7-0.2-1.6-0.2-2.4-0.2"/>
    <path class="st0" d="M51.2,46.8c1,0.1,2.1,0.1,3.1,0.1"/>
    <path class="st0" d="M51.8,42.8c0.4,0,0.7,0,1.1,0.1c0.5,0,0.9,0,1.4,0"/>
    <path class="st0" d="M47.1,45.2c0.6,0.8,1.4,1.3,2.3,1.5"/>
    <path class="st0" d="M51.8,42.8c-0.8,0-1.7,0-2.5,0.2"/>
    <path class="st0" d="M47.2,44.8c0,0.1-0.1,0.2-0.1,0.3c0,0,0,0,0,0.1"/>
    <path class="st0" d="M47.2,44.8c0.4-1,1.2-1.5,2.1-1.8"/>
    <path class="st0" d="M51.2,46.8c-0.3,0-0.6,0-0.9-0.1c-0.3,0-0.6-0.1-0.8-0.1"/>
    <path class="st0" d="M36.3,46.7c0.3,0,0.7,0,1,0c0.8,0,1.6,0,2.3,0"/>
    <path class="st0" d="M47.2,44.8c0,0.1,0,0.3-0.1,0.4"/>
    <path class="st0" d="M39.9,42.6c-1.2,0.1-2.5,0.1-3.7,0.3"/>
    <path class="st0" d="M36.2,42.9c-0.3,0.1-0.7,0.2-1,0.3c-0.6,0.3-1.7,1.1-1.4,1.9c0.3,1.1,1.4,1.5,2.5,1.5"/>
    <path class="st0" d="M47.2,44.8c0-0.1,0-0.2-0.1-0.3c-0.3-0.6-1-1.2-1.9-1.5c-1.7-0.5-3.4-0.5-5.2-0.4c0,0-0.1,0-0.1,0"/>
    <path class="st0" d="M47.1,45.2c-0.2,0.5-0.8,0.9-1.2,1.1c-2.1,0.6-4.2,0.5-6.3,0.4"/>
    <path class="st0" d="M20.2,44.5c0,0.1,0,0.2,0,0.4"/>
    <path class="st0" d="M20.3,44.9c0,0,0,0.1,0.1,0.1c0.5,1.1,1.7,1.3,2.7,1.3"/>
    <path class="st0" d="M20.2,44.5c0-0.6,0.7-1.2,1.3-1.5c0.1-0.1,0.3-0.1,0.4-0.2"/>
    <path class="st0" d="M21.9,42.8c0.7-0.2,1.5-0.2,2.3-0.2"/>
    <path class="st0" d="M23,46.3c4.7-0.1,4.7,0.8,8.1,0c0.6-0.1,2.4-0.4,2.5-1.2c0.1-1.2-0.8-1.9-2-2.2"/>
    <path class="st0" d="M31.6,42.8c-0.7-0.2-1.6-0.3-2.4-0.3"/>
    <path class="st0" d="M24.2,42.6c0.9,0,1.8,0.1,2.7,0c0.7-0.1,1.5-0.1,2.3-0.1"/>
    <path class="st0" d="M10.9,42.7c-2.8-0.1-3.2,0-3.8,0.2"/>
    <path class="st0" d="M9.3,46.6c0.5,0,0.9,0.1,1.4,0.1"/>
    <path class="st0" d="M5.5,44.1c0,0.2,0,0.4,0,0.6c0,0.1,0,0.1,0.1,0.2"/>
    <path class="st0" d="M9.3,46.6c-0.3,0-0.6-0.1-0.9-0.1C7.3,46.4,6,46,5.6,44.9"/>
    <path class="st0" d="M5.5,44.1c0.1-0.5,0.6-1,1.2-1.1c0.1,0,0.3-0.1,0.4-0.1"/>
    <path class="st0" d="M16.1,42.6c-0.8,0-1.6,0-2.5,0c-0.4,0.1-2.1,0.1-2.2,0.1c-0.2,0-0.3,0-0.5,0"/>
    <path class="st0" d="M14.7,46.9c-1.3,0.1-2.7,0-4.1-0.1"/>
    <path class="st0" d="M20.2,44.5C20.2,44.5,20.2,44.5,20.2,44.5c-0.7-1-1.4-1.4-2.2-1.7"/>
    <path class="st0" d="M20.3,44.9c-0.1,0.5-0.8,1.1-1.2,1.2c-0.8,0.3-1.6,0.5-2.4,0.6"/>
    <path class="st0" d="M16.1,42.6c0.7,0,1.3,0.1,2,0.2"/>
    <path class="st0" d="M16.7,46.7c-0.6,0.1-1.3,0.2-1.9,0.2"/>
    <path class="st0" d="M20.3,44.9c0-0.1,0-0.2,0-0.4"/>
    <path class="st0" d="M41.7,48.3c0,0.1,0,0.3,0,0.5c0,0,0,0,0,0.1"/>
    <path class="st0" d="M51.3,50.5c0.4-0.1,0.8-0.2,1.2-0.3c1-0.3,1.7-1,1.6-1.8c-0.1-0.7-1.4-1.2-3-1.4"/>
    <path class="st0" d="M51.2,46.8c-0.6-0.1-1.2-0.2-1.7-0.2"/>
    <path class="st0" d="M45.9,50.7c-0.7,0-1.5-0.1-2.2-0.3"/>
    <path class="st0" d="M45.9,50.7c1.5,0,2.9-0.2,4.4-0.1"/>
    <path class="st0" d="M50.3,50.6c0,0,0.1,0,0.1,0c0.3,0,0.6-0.1,0.9-0.1"/>
    <path class="st0" d="M41.7,48.9c0.1,0.6,0.9,1.2,1.6,1.5c0.1,0,0.2,0.1,0.3,0.1"/>
    <path class="st0" d="M41.7,48.3c0.2-2.2,3.5-1.8,5.5-1.7l-0.1,0.1c0.6-0.1,1.5-0.1,2.3-0.1"/>
    <path class="st0" d="M26.9,48.3c0.1-0.6,1-1,1.5-1.3c1.3-0.8,7-0.2,7-0.2c0.4,0,0.7,0,0.9-0.1"/>
    <path class="st0" d="M37.6,50.7c-1.2,0.1-2.4,0.1-3.6,0"/>
    <path class="st0" d="M36.3,46.7c1.2-0.1,1.7-0.2,3.2,0c0,0,0.1,0,0.1,0"/>
    <path class="st0" d="M26.9,48.3c0,0.1,0,0.3,0,0.4c0,0,0,0.1,0,0.1"/>
    <path class="st0" d="M41.7,48.9c0-0.2,0-0.4,0-0.5"/>
    <path class="st0" d="M37.6,50.7c0.7-0.1,1.3-0.2,2-0.3"/>
    <path class="st0" d="M31.1,50.5c-0.5,0-0.9-0.1-1.4-0.1c-1.1-0.1-2.2-0.6-2.7-1.6"/>
    <path class="st0" d="M41.7,48.3c0-0.1,0-0.1-0.1-0.2c-0.4-0.7-1.1-1.4-2-1.5"/>
    <path class="st0" d="M31.1,50.5c1,0.1,2,0.2,3,0.2"/>
    <path class="st0" d="M41.7,48.9c-0.2,0.6-0.8,1.2-1.4,1.3c-0.3,0.1-0.5,0.2-0.8,0.2"/>
    <path class="st0" d="M23,46.3c-1.2,0.1-2.4,0.1-3.5,0.4c-0.9,0.2-1.9,0.1-2.8,0.1"/>
    <path class="st0" d="M26.9,48.3C26.9,48.3,26.9,48.3,26.9,48.3c0.1,0.2,0.1,0.4,0.1,0.5"/>
    <path class="st0" d="M13.1,48.3c-0.1,0.2-0.1,0.4,0,0.6"/>
    <path class="st0" d="M13.1,48.9c0.5,1,1.5,1.4,2.6,1.6"/>
    <path class="st0" d="M13.1,48.3c0.2-0.5,0.8-1,1.3-1.3c0.1,0,0.2-0.1,0.3-0.1"/>
    <path class="st0" d="M16.7,46.7c-0.7,0-1.3,0-1.9,0.2"/>
    <path class="st0" d="M23,46.3c1.5,0.2,3.1,0.6,3.8,2"/>
    <path class="st0" d="M15.8,50.5c0.4,0.1,0.9,0.1,1.3,0.1c0,0,0.1,0,0.1,0"/>
    <path class="st0" d="M17.2,50.6c2,0,3.5,0.2,5.6,0c0.9-0.1,2.1,0,2.8-0.4c0.6-0.3,1.2-0.8,1.3-1.4"/>
    <path class="st0" d="M13.1,48.9c0-0.2,0-0.4,0-0.6"/>
    <path class="st0" d="M3.7,46.5c-0.7,0-1.3,0-1.9,0.4"/>
    <path class="st0" d="M2.7,50.4c0.9,0.2,1.7,0.2,2.6,0.3"/>
    <path class="st0" d="M1.7,46.9C1.7,46.9,1.7,46.9,1.7,46.9c-0.7,0.5-1.7,1-1.5,2c0.2,0.6,0.6,1.1,1.1,1.2c0.4,0.1,0.9,0.2,1.3,0.3"
        />
    <path class="st0" d="M9.7,50.4c-1.5,0.1-3,0.2-4.5,0.2"/>
    <path class="st0" d="M9.7,50.4c0,0,0.1,0,0.1,0c0.8-0.1,1.1-0.1,2.1-0.3c0,0,0,0,0,0"/>
    <path class="st0" d="M13.1,48.9c-0.2,0.6-0.6,1.1-1.2,1.2"/>
    <path class="st0" d="M13.1,48.3c-0.2-0.8-1.2-1.3-2-1.4c-0.1,0-0.3-0.1-0.4-0.1"/>
    <path class="st0" d="M9.3,46.6c-0.9,0-1.7,0.1-2.7,0.1c-1.2,0-2.1-0.1-2.9-0.2"/>
    <path class="st0" d="M9.3,46.6c0.5,0,0.9,0,1.4,0.1"/>
    <path class="st0" d="M50.3,50.6c-0.9,0.2-1.6,0.7-2,1.8"/>
    <path class="st0" d="M53.1,54.4c-0.3,0-0.6,0-0.9,0c-1.4,0-3-0.3-3.9-1.5"/>
    <path class="st0" d="M48.4,52.4c0,0.1-0.1,0.3-0.1,0.4c0,0,0,0,0,0.1"/>
    <path class="st0" d="M50.3,50.6c0.3-0.1,0.7-0.1,1-0.1"/>
    <path class="st0" d="M51.3,50.5c1,0,2,0.1,2.9,0.1"/>
    <path class="st0" d="M45.9,50.7c0.9,0.2,1.6,0.7,2.3,1.4c0.1,0.1,0.1,0.2,0.1,0.3"/>
    <path class="st0" d="M45.9,50.7c-0.7-0.2-1.4-0.3-2.2-0.3"/>
    <path class="st0" d="M35.6,52.2c0,0.2,0,0.3,0,0.5"/>
    <path class="st0" d="M43.6,50.4c-0.6,0-1.1,0-1.7,0l-0.8-0.1c-0.5,0-1,0-1.5,0.1"/>
    <path class="st0" d="M37.6,50.7c0.7-0.2,1.3-0.3,2-0.3"/>
    <path class="st0" d="M37.6,50.7c-0.2,0.1-0.5,0.2-0.7,0.3c-0.6,0.3-1.2,0.7-1.3,1.2"/>
    <path class="st0" d="M48.3,52.8c-0.2,0.5-0.9,1-1.4,1.1c-3.8,0.5-6.6,0.6-10.3-0.1c-0.5-0.1-0.9-0.6-1.1-1.1"/>
    <path class="st0" d="M48.3,52.8c0.1-0.2,0.1-0.3,0-0.4"/>
    <path class="st0" d="M33.6,54.4c-0.8,0.1-1.8,0.1-2.5,0"/>
    <path class="st0" d="M25.2,54.4c0.7,0.1,1.3,0,2,0"/>
    <path class="st0" d="M35.6,52.7c-0.2,0.7-0.3,0.9-1,1.3c-0.3,0.2-0.7,0.3-1.1,0.3"/>
    <path class="st0" d="M31.1,50.5c0.9-0.1,1.8-0.1,2.7,0.1c0.1,0,0.2,0,0.2,0.1"/>
    <path class="st0" d="M31,54.4c-0.1,0-0.2,0-0.3,0c-1.2-0.1-2.3,0-3.5,0"/>
    <path class="st0" d="M35.6,52.7c0-0.2,0-0.4,0-0.5"/>
    <path class="st0" d="M22.2,52.4c-0.1,0.9,1,1.5,1.7,1.8c0.4,0.1,0.9,0.2,1.3,0.2"/>
    <path class="st0" d="M34,50.7c0.7,0.3,1.4,0.8,1.6,1.4"/>
    <path class="st0" d="M22.2,52.4c0-0.1,0-0.1,0-0.2"/>
    <path class="st0" d="M22.2,52.2c0.6-2.7,3.8-1.1,5.9-1.3c1-0.1,1.9-0.3,2.9-0.4"/>
    <path class="st0" d="M15.8,50.5c-0.6,0-1.1-0.1-1.5-0.2c-0.8-0.1-1.6-0.2-2.3-0.2"/>
    <path class="st0" d="M9.7,50.4c0.7-0.2,1.4-0.3,2.2-0.3"/>
    <path class="st0" d="M15.8,50.5c0.5,0,0.9,0.1,1.4,0.1"/>
    <path class="st0" d="M22.2,52.4c-0.3,1.4-1.6,1.8-3,1.8c-3.6,0-6.5,0.2-10-0.1c-0.8-0.1-1.4-0.7-1.7-1.4c-0.4-0.9,0.6-1.8,1.4-2
        c0.3-0.1,0.5-0.2,0.8-0.2"/>
    <path class="st0" d="M17.2,50.6c2.5,0.1,5,0.3,5,1.6"/>
    <path class="st0" d="M22.2,52.4c0-0.1,0-0.1,0-0.2"/>
    <path class="st0" d="M0.2,4.2C0.4,4.1,0.7,4.1,1,4c0.6-0.3,1.8-1.2,1.4-2.1c-0.3-0.8-1-1.2-1.8-1.4c-0.1,0-0.3,0-0.4,0"/>
    <path class="st0" d="M4.5,8C5.3,7.8,6,7.7,6.7,7.6c0.5-0.1,1.4-0.9,1.4-1.4C7.9,5.3,6.7,4.7,5.7,4.5C4.4,4.5,3.3,4.1,2,4.1
        c-0.8,0-1.3,0.1-1.8,0.2"/>
    <path class="st0" d="M4.5,8c-0.7,0.1-1.3,0.2-2,0.3"/>
    <path class="st0" d="M0.2,8.4c0.8,0,1.5-0.1,2.3-0.2"/>
    <path class="st0" d="M0.2,11c0.3-0.3,0.5-0.6,0.5-1.1c0-0.4-0.2-0.8-0.5-1"/>
    <path class="st0" d="M0.2,12c0.1,0,0.2,0,0.3,0"/>
    <path class="st0" d="M5.6,14.7C5.9,14.4,6,14,5.8,13.6c0-0.1-0.1-0.1-0.1-0.2"/>
    <path class="st0" d="M3.2,15.7c-0.4,0.1-0.8,0.1-1.2,0.2"/>
    <path class="st0" d="M3,12.1c1.1,0.1,2.1,0.4,2.7,1.4"/>
    <path class="st0" d="M0.2,16c0.6,0,1.2,0,1.9-0.1"/>
    <path class="st0" d="M0.2,12C0.8,12,1.5,12,2.3,12"/>
    <path class="st0" d="M3.2,15.7c0.5-0.1,1-0.2,1.5-0.4C5,15.2,5.4,15,5.6,14.7"/>
    <path class="st0" d="M3,12.1c-0.2,0-0.5,0-0.7,0"/>
    <path class="st0" d="M0.2,23.8c0.9,0,1.8,0,2.7-0.1"/>
    <path class="st0" d="M2.8,23.7c0.6,0,1.2,0,1.8-0.1c0.4,0,0.7-0.1,1.1-0.3"/>
    <path class="st0" d="M2.9,19.7c0.5,0,1.1,0,1.6-0.1c0.3,0,0.7,0,1,0.1"/>
    <path class="st0" d="M5.7,23.4c0.9-0.4,1.6-1.3,1.4-2.1c-0.2-0.7-0.8-1.2-1.5-1.5"/>
    <path class="st0" d="M2.9,19.7c-0.9,0-1.8,0-2.8,0"/>
    <path class="st0" d="M1,26.1c0.1-0.3,0.2-0.6,0.1-0.9"/>
    <path class="st0" d="M0.2,27c0.4-0.2,0.7-0.5,0.9-0.9"/>
    <path class="st0" d="M0.2,24.2c0.5,0.3,0.9,0.6,1,1c0,0,0,0,0,0"/>
    <path class="st0" d="M5.9,28.8C5.9,28.9,5.9,28.9,5.9,28.8c0.2,0.3,0.1,0.6,0,0.9"/>
    <path class="st0" d="M5.8,29.8c-0.3,0.5-0.9,0.9-1.4,1.1c-1.4,0.3-2.9,0.4-4.3,0.4"/>
    <path class="st0" d="M5.9,28.8c-1.1-1.9-3.5-1.5-5.7-1.5"/>
    <path class="st0" d="M3.1,35c0.7,0,1.4,0.1,2,0.3"/>
    <path class="st0" d="M4.8,38.8c0.2,0,0.4-0.1,0.5-0.1c0.8-0.2,1.7-1.1,1.3-1.9c-0.3-0.7-0.9-1.2-1.5-1.4"/>
    <path class="st0" d="M0.2,39.2c0.8,0,1.6,0,2.4-0.1"/>
    <path class="st0" d="M0.2,34.9c0.3,0,0.5,0,0.8,0.1c0.7,0,1.4,0,2.2,0.1"/>
    <path class="st0" d="M2.6,39.1c0.8-0.1,1.5-0.2,2.3-0.3"/>
    <path class="st0" d="M0.2,42.1c0.4-0.4,0.7-1,0.5-1.4c-0.1-0.3-0.3-0.5-0.5-0.7"/>
    <path class="st0" d="M5.5,44.1C5.5,44.1,5.5,44.1,5.5,44.1c0.2,0.3,0.2,0.5,0.1,0.8"/>
    <path class="st0" d="M5.6,44.9c-0.2,0.6-0.9,1.3-1.5,1.5c-0.1,0-0.3,0.1-0.4,0.1"/>
    <path class="st0" d="M2.4,42.7c0.6,0,1.2,0,1.7,0.2"/>
    <path class="st0" d="M5.5,44.1c-0.4-0.6-0.8-1-1.4-1.2"/>
    <path class="st0" d="M0.2,47c0.5,0,1.1,0,1.6-0.1"/>
    <path class="st0" d="M1.7,46.9c0.7-0.1,1.3-0.2,1.9-0.4"/>
    <path class="st0" d="M2.4,42.7c-0.7,0-1.5,0.1-2.3,0.2"/>
    <path class="st0" d="M2.7,50.4c0.9,0,1.8,0,2.6,0.3"/>
    <path class="st0" d="M0.2,50.5c0.1,0,0.3,0,0.4,0c0.7,0,1.4-0.1,2.1-0.1"/>
    <path class="st0" d="M0.2,54.4c2.3,0,4.1-0.2,5-0.6c0.8-0.4,2-1,1.5-1.9c-0.4-0.6-0.9-1-1.4-1.2"/>
    <line class="st0" x1="54.3" y1="4.2" x2="54.3" y2="4.3"/>
    <line class="st0" x1="0.2" y1="12" x2="0.2" y2="12"/>
    <line class="st0" x1="0.2" y1="4.3" x2="0.2" y2="4.2"/>
    <line class="st0" x1="0.2" y1="18.1" x2="0.2" y2="17.8"/>
</g>
</svg>
