<!-- Generator: Adobe Illustrator 22.1.0, SVG Export Plug-In  -->
<svg version="1.1"
     xmlns="http://www.w3.org/2000/svg" xmlns:xlink="http://www.w3.org/1999/xlink" xmlns:a="http://ns.adobe.com/AdobeSVGViewerExtensions/3.0/"
     x="0px" y="0px" width="54.4px" height="54.6px" viewBox="0 0 54.4 54.6" style="enable-background:new 0 0 54.4 54.6;"
     xml:space="preserve">
<style type="text/css">
    .st0{clip-path:url(#SVGID_2_);fill:none;stroke:#000000;stroke-width:0.3;}
    .st1{clip-path:url(#SVGID_4_);fill:none;stroke:#000000;stroke-width:0.3;}
</style>
<defs>
</defs>
<g>
    <defs>
        <rect id="SVGID_1_" x="0.2" y="0.2" width="54.1" height="54.1"/>
    </defs>
    <clipPath id="SVGID_2_">
        <use xlink:href="#SVGID_1_"  style="overflow:visible;"/>
    </clipPath>
    <path class="st0" d="M45.8,4c-0.1,0-0.1,0-0.2-0.1c-0.5-0.3-1.2-0.7-1.4-1.3c-0.4-0.9,0.2-1.8,1.1-2.1c0.7-0.2,1.3-0.3,1.9-0.4"/>
    <path class="st0" d="M45.8,4c0.8,0.3,1.6,0.3,2.5,0.3"/>
    <path class="st0" d="M47.2,0.2c1.1-0.1,2.1,0,3.2,0c0.4,0,0.7,0,1.1,0"/>
    <path class="st0" d="M54.3,0.5c-1-0.1-1.9-0.2-2.8-0.3"/>
    <path class="st0" d="M54.3,4.2c-1,0.2-2.1,0.2-3.1,0.1c-1-0.1-2,0-2.9,0"/>
    <path class="st0" d="M31,4.3c0.3,0.1,0.7,0.2,1,0.2c1,0,1.9,0.1,2.9,0.1"/>
    <path class="st0" d="M39.2,4.3c0.9-0.1,1.7-0.2,2.6-0.4"/>
    <path class="st0" d="M39.2,4.3c-1.4,0.2-2.9,0.2-4.3,0.2"/>
    <path class="st0" d="M41.9,3.9c0.3-0.1,0.7-0.1,1-0.2c0.7-0.1,1.5-1.1,1.2-1.6c-1.5-2.5-4.4-1.7-7.2-1.7c-2.1,0-4.4-0.4-6.3,0.3
        c-0.6,0.2-1.2,0.8-1.1,1.7C29.5,3.3,30.2,4,31,4.3"/>
    <path class="st0" d="M20,4.7c-0.2,0-0.5,0-0.7,0c-0.4-0.1-0.9-0.1-1.4-0.3"/>
    <path class="st0" d="M17.9,4.4c-1.2-0.3-2.3-0.9-2.2-1.9c0.7-1.8,2.2-2.2,3.8-2.3"/>
    <path class="st0" d="M25.8,4.1c0.8-0.2,1.6-0.4,2.4-0.6c0.6-0.1,1.3-0.8,1-1.3c-0.6-1.5-1.9-1.9-3.4-2"/>
    <path class="st0" d="M24,0.2c0.6,0,1.3,0,1.9,0"/>
    <path class="st0" d="M20.8,0.2c0.7,0,1.3,0.1,1.9,0c0.4,0,0.8,0,1.3,0"/>
    <path class="st0" d="M19.5,0.2c0.4,0,0.8,0,1.3,0"/>
    <path class="st0" d="M20,4.7c1.5,0.1,2.9,0,4.4-0.3"/>
    <path class="st0" d="M25.8,4.1c-0.5,0.1-1,0.2-1.4,0.3"/>
    <path class="st0" d="M9.7,0.2C9.7,0.2,9.8,0.2,9.7,0.2c0.5,0,1,0,1.5,0"/>
    <path class="st0" d="M9.4,0.2c0.1,0,0.2,0,0.3,0"/>
    <path class="st0" d="M6.8,0.2c0.6,0,1.2,0.1,1.8,0"/>
    <path class="st0" d="M4.1,0.2C3.2,0.4,2.7,1,2.6,2.4C2.6,3,3.4,3.8,4.2,4c3.3,1.1,6.7,0.2,10.3-0.2c0.7,0,1-0.7,1.1-1.6
        c0-1.5-2.2-1.9-4.3-2"/>
    <path class="st0" d="M8.7,0.2c0.1,0,0.3,0,0.4,0c0.1,0,0.2,0,0.3,0"/>
    <path class="st0" d="M4.1,0.2c0.7-0.2,1.7-0.1,2.7,0"/>
    <path class="st0" d="M51.9,8.2c-1.1-0.3-1.9-0.9-2-1.9c-0.1-0.5,0.7-1.7,2.2-1.7c1,0,1.6-0.1,2.2-0.2"/>
    <path class="st0" d="M53.2,8.4c0.3,0,0.7,0,1.1,0"/>
    <path class="st0" d="M53.2,8.4c-0.5,0-0.9-0.1-1.3-0.2"/>
    <path class="st0" d="M46.3,8.1C46.9,8,47.5,8,48,7.9c0.5,0,1.6-1.2,1.8-1.7c0.4-1-0.3-1.6-1.5-1.9"/>
    <path class="st0" d="M45.8,4c0.9,0.1,1.7,0.2,2.5,0.3"/>
    <path class="st0" d="M45.8,4c-0.5,0-1.1-0.1-1.6-0.1c-0.7,0-1.6,0-2.4,0"/>
    <path class="st0" d="M44.2,8.3c-3.5,0.3-7.1,0.4-7.3-1.6c0.4-1.3,1.2-2,2.3-2.4"/>
    <path class="st0" d="M44.2,8.3c0.7-0.1,1.5-0.1,2.1-0.2"/>
    <path class="st0" d="M41.9,3.9C40.9,4,40,4,39.2,4.3"/>
    <path class="st0" d="M30.2,8.2c0.8-0.1,1.7-0.2,2.5-0.3"/>
    <path class="st0" d="M31,4.3c1.4,0.1,2.7,0.2,3.9,0.3"/>
    <path class="st0" d="M31,4.3c-0.3,0-0.7,0-1,0c-1.6-0.1-2.5,0.1-3.9,0c-0.1,0-0.1,0-0.2,0"/>
    <path class="st0" d="M30.2,8.2c-3.5,0.3-6.8,0-7.3-1.9"/>
    <path class="st0" d="M32.7,7.9c0.9-0.1,1.8-0.3,2.7-0.5c0.7-0.1,1.8-0.8,1.5-1.5c-0.1-0.6-0.8-1.2-1.5-1.4c-0.2,0-0.3,0-0.5,0"/>
    <path class="st0" d="M22.8,6.1c0-0.4,0.1-0.8,0.7-1.3c0.2-0.1,0.5-0.2,0.9-0.4"/>
    <path class="st0" d="M25.8,4.1c-0.4,0-0.9,0.1-1.4,0.3"/>
    <path class="st0" d="M22.8,6.1c0,0.1,0,0.1,0,0.2c0,0,0,0.1,0,0.1"/>
    <path class="st0" d="M22.9,6.3c0,0.6-0.9,1.2-1.4,1.3c-0.8,0.2-1.7,0.3-2.7,0.4"/>
    <path class="st0" d="M20,4.7c-0.8-0.1-1.5-0.2-2.1-0.3"/>
    <path class="st0" d="M15.9,8.4c0.9-0.1,1.9-0.2,2.8-0.3"/>
    <path class="st0" d="M10.2,8c0.5,0.2,1.1,0.3,1.7,0.3"/>
    <path class="st0" d="M10.2,8c-1-0.3-1.8-0.8-2-1.6c-0.1-1.8,4.6-2.5,7-2.3h0.3c0.9,0,1.6,0.2,2.4,0.3"/>
    <path class="st0" d="M22.8,6.1C22.8,6.1,22.8,6,22.8,6.1c-0.3-0.7-0.7-1.1-1.5-1.2c-0.5,0-0.9-0.1-1.3-0.1"/>
    <path class="st0" d="M22.8,6.1c0,0.1,0.1,0.2,0.1,0.3"/>
    <path class="st0" d="M11.9,8.4c1.2,0.1,2.6,0.1,4,0"/>
    <path class="st0" d="M46.3,8.1c-0.7,0-1.4,0-2.1,0.2"/>
    <path class="st0" d="M42.1,10.2c0.3,0.9,1.1,1.5,2.1,1.9"/>
    <path class="st0" d="M42.1,10.1c0,0,0,0.1,0,0.1"/>
    <path class="st0" d="M42.1,10.1c-0.2-0.7,0.8-1.3,1.5-1.7c0.2-0.1,0.4-0.1,0.6-0.2"/>
    <path class="st0" d="M44.2,12.1c0.3,0.1,0.6,0.2,1,0.2c0.2,0,0.3,0,0.5,0.1"/>
    <path class="st0" d="M45.7,12.4c1.1,0.1,2.1,0.1,3.1-0.1"/>
    <path class="st0" d="M46.3,8.1c0.6,0,1.2,0,1.9,0c1.2,0,2.5,0,3.7,0.1"/>
    <path class="st0" d="M50.2,12.1c-0.5,0.1-1,0.2-1.5,0.2"/>
    <path class="st0" d="M53.2,8.4c-0.4-0.1-0.8-0.2-1.3-0.2"/>
    <path class="st0" d="M53.2,8.4c0.4,0.1,0.8,0.3,1.1,0.5"/>
    <path class="st0" d="M50.2,12.1c1-0.2,2-0.4,3.1-0.6c0.3-0.1,0.7-0.2,0.9-0.5"/>
    <path class="st0" d="M36.8,12.1c1.1,0,2.2-0.1,3.3-0.2"/>
    <path class="st0" d="M31.9,12.2c-0.1,0-0.1,0-0.2,0c-0.6,0-1.3-0.1-2-0.3"/>
    <path class="st0" d="M42.1,10.2c0.1,0.5-0.5,1.4-1.4,1.6c-0.2,0-0.5,0.1-0.7,0.1"/>
    <path class="st0" d="M42.1,10.1c0,0,0,0.1,0,0.1"/>
    <path class="st0" d="M30.2,8.2c-1.1,0.3-2.1,1-2.5,2.2c0,0.9,0.9,1.3,2,1.6"/>
    <path class="st0" d="M32.7,7.9c-0.9,0-1.8,0.1-2.5,0.3"/>
    <path class="st0" d="M32.7,7.9c1.1,0,2.2,0.1,3.1,0.2c2.3,0.1,5.2-0.1,6.3,2"/>
    <path class="st0" d="M31.9,12.2c1.7-0.1,3.3-0.1,4.9-0.1"/>
    <path class="st0" d="M14.1,10.6c0.1,0.6,0.9,1.1,1.6,1.3"/>
    <path class="st0" d="M14.1,10.4c0.2-1.1,0.9-1.7,1.8-2"/>
    <path class="st0" d="M15.7,11.9c0.1,0,0.2,0.1,0.3,0.1c0.8,0,1.7,0,2.5,0.1"/>
    <path class="st0" d="M22.9,12.2c-1.4,0-2.9-0.1-4.4-0.1"/>
    <path class="st0" d="M25.2,12c0.4-0.1,0.8-0.2,1.2-0.3c0.7-0.2,1.5-0.8,1.3-1.6c-0.6-2.1-3.1-2.2-6.5-2.1c-0.7,0-1.6,0-2.4,0"/>
    <path class="st0" d="M18.7,8.1c-1,0-2,0-2.8,0.3"/>
    <path class="st0" d="M22.9,12.2c0.8,0,1.5-0.1,2.3-0.2"/>
    <path class="st0" d="M14.1,10.6C14.1,10.6,14.1,10.6,14.1,10.6c0-0.1,0-0.2,0-0.2"/>
    <path class="st0" d="M2.3,12c0.1,0,0.2,0,0.3,0.1c0.2,0,0.3,0,0.5,0"/>
    <path class="st0" d="M2.5,8.3c-1,0.3-1.6,1-1.7,2.3c0,0.5,0.7,1.2,1.4,1.4"/>
    <path class="st0" d="M7.8,11.9C6.2,12,4.6,12,3,12.1"/>
    <path class="st0" d="M14.1,10.6c-0.1,0.5-0.7,0.9-1.2,0.9c-0.9,0.1-1.8,0.2-2.7,0.2"/>
    <path class="st0" d="M11.9,8.4c0.9,0.3,1.6,0.8,2.1,1.8c0.1,0.1,0.1,0.2,0.1,0.3"/>
    <path class="st0" d="M4.5,8c-0.7,0-1.4,0.1-2,0.3"/>
    <path class="st0" d="M10.2,8c0.6,0,1.2,0.1,1.7,0.3"/>
    <path class="st0" d="M14.1,10.6c0-0.1,0-0.1,0-0.2"/>
    <path class="st0" d="M7.8,11.9c0.8,0,1.6-0.1,2.4-0.1"/>
    <path class="st0" d="M4.5,8c1.1,0,2.2,0.1,3.1,0c0.8,0,1.7,0,2.6,0"/>
    <path class="st0" d="M54,11.9c0.1,0,0.2,0,0.3,0"/>
    <path class="st0" d="M50.2,12.1c1.4-0.1,2.7-0.2,4.1-0.1"/>
    <path class="st0" d="M48.8,12.3c-0.8,0.3-1.5,1.1-1.5,1.9c0,0.9,0.8,1.3,1.6,1.5"/>
    <path class="st0" d="M48.9,15.7c0.2,0,0.3,0.1,0.5,0.1c0.5,0,1,0.1,1.5,0.1"/>
    <path class="st0" d="M50.8,15.9c1.2,0.1,2.3,0.1,3.5,0.1"/>
    <path class="st0" d="M50.2,12.1c-0.3,0-0.6,0.1-0.9,0.1c-0.2,0-0.4,0.1-0.6,0.1"/>
    <path class="st0" d="M44.2,12.1c0.5,0,1,0.1,1.4,0.3"/>
    <path class="st0" d="M44.2,12.1c-1.1-0.1-2.3,0-3.3-0.2h-0.4c-0.1,0-0.3,0-0.4,0"/>
    <path class="st0" d="M40.1,11.9c-1.2-0.1-2.1,0-3.3,0.2"/>
    <path class="st0" d="M37.1,15.9c0.5,0,1.1,0,1.7-0.1"/>
    <path class="st0" d="M36.8,12.1c-0.4,0.1-0.9,0.2-1.4,0.2c-0.8,0.1-1.6,1.2-1.3,2c0.2,0.6,0.8,1.1,1.5,1.2c0.5,0.1,1,0.2,1.5,0.3"
        />
    <path class="st0" d="M45.7,12.4c0.6,0.2,1.1,0.6,1.4,1.4c0.3,0.6-0.5,1.7-1.4,1.8c-2.4,0.6-4.5-0.3-7,0.2"/>
    <path class="st0" d="M31.9,12.2c-0.4-0.1-1-0.2-1.2-0.2C30.3,12,30,12,29.7,12"/>
    <path class="st0" d="M31.9,12.2c0.1,0,0.3,0.1,0.4,0.1c0.8,0.1,1.8,0.4,1.6,1.6c0.1,0,0.1,1.3-1,1.5c-0.6,0.1-1.2,0.2-1.7,0.2"/>
    <path class="st0" d="M25.2,12c-0.9,0.1-1.5,0.1-2.3,0.2"/>
    <path class="st0" d="M20.4,14.2c0,0.1,0,0.1,0,0.2c0.4,1.1,2,1.3,3.1,1.3c2.1,0,4,0.2,6,0.1"/>
    <path class="st0" d="M20.5,13.8c0,0.1-0.1,0.3,0,0.4"/>
    <path class="st0" d="M31.2,15.7c-0.5,0-1.1,0.1-1.6,0.1"/>
    <path class="st0" d="M25.2,12c0.3,0,0.6-0.1,1-0.1c0.3,0,0.8,0.1,1.3,0"/>
    <path class="st0" d="M29.7,12c-0.7,0-1.3,0-2.2-0.1"/>
    <path class="st0" d="M20.5,13.8c0.2-0.8,1.2-1.4,2-1.5c0.2,0,0.3-0.1,0.5-0.1"/>
    <path class="st0" d="M27.8,11.8c-0.1,0-0.2,0.1-0.3,0.1"/>
    <path class="st0" d="M27.4,11.9C27.4,11.9,27.5,11.9,27.4,11.9"/>
    <path class="st0" d="M7.8,11.9c0.6-0.2,1.5-0.1,2.1-0.1c0.1,0,0.2,0,0.3,0"/>
    <path class="st0" d="M7,15.6c-0.3,0-0.5-0.1-0.8-0.2C6,15.2,5.8,15,5.6,14.7"/>
    <path class="st0" d="M20.4,14.2c-0.2,0.6-0.9,1.1-1.6,1.2c-3.4,0.5-5.9,0.1-9.3,0.1c-0.4,0-0.8,0-1.2,0.1"/>
    <path class="st0" d="M5.7,13.4c-0.1,0.1-0.1,0.3-0.2,0.5c-0.1,0.3-0.1,0.6,0,0.8"/>
    <path class="st0" d="M5.7,13.4c0.4-0.9,1-1.2,2-1.5c0.1,0,0.1,0,0.2-0.1"/>
    <path class="st0" d="M10.2,11.8c1,0.1,1.8-0.1,2.8,0c0.8,0.1,1.7,0.1,2.6,0.1"/>
    <path class="st0" d="M20.5,13.8C20.5,13.8,20.5,13.8,20.5,13.8c-0.2-1-0.9-1.5-1.9-1.7"/>
    <path class="st0" d="M15.7,11.9c1,0,2,0,2.8,0.2"/>
    <path class="st0" d="M7,15.6c0.4,0.1,0.9,0,1.3,0"/>
    <path class="st0" d="M20.4,14.2c0-0.1,0.1-0.3,0-0.4"/>
    <path class="st0" d="M52,19.6c1.2-0.2,2.3-0.8,2.2-2.1c-0.1-0.9-1.1-1.1-2.1-1.4c-0.4-0.1-0.9-0.2-1.3-0.3"/>
    <path class="st0" d="M52,19.6c-0.5,0.1-1,0.1-1.4,0.1"/>
    <path class="st0" d="M48.9,15.7c-0.4,0-0.9,0-1.4,0c-2.2,0.1-5.6,0-5.8,2.5c0.4,1.1,2,1.5,3.3,1.6c1.5,0.1,2.9-0.2,4.5-0.2
        c0.3,0,0.7,0.1,1,0.1"/>
    <path class="st0" d="M48.9,15.7c0.7,0,1.3,0.1,2,0.2"/>
    <path class="st0" d="M28.5,19.6c0.1,0,0.3,0.1,0.4,0"/>
    <path class="st0" d="M39.8,19.6c1.1-0.2,2.2-1.1,2-2.2c-0.2-0.6-0.9-1.2-1.7-1.4c-0.5,0-0.9-0.1-1.4-0.2"/>
    <path class="st0" d="M28.9,19.7c3.2-0.3,6-0.1,9.2,0"/>
    <path class="st0" d="M31.2,15.7c-0.5,0-1.1,0-1.6,0.1"/>
    <path class="st0" d="M28.5,19.6c-0.7-0.2-1.3-1-1.5-1.6c-0.3-1,0.8-1.7,1.7-2c0.3-0.1,0.6-0.2,0.9-0.2"/>
    <path class="st0" d="M38.7,15.8c-0.6,0-1.1,0.1-1.7,0.1"/>
    <path class="st0" d="M38.1,19.6c0.4,0,0.7,0,1.1,0c0.2,0,0.4,0,0.6-0.1"/>
    <path class="st0" d="M31.2,15.7c0.5,0,0.9,0,1.4,0c0.4,0,1.3,0,1.7,0.1c0.9,0.1,1.9,0.1,2.8,0.1"/>
    <path class="st0" d="M25.3,19.5c-0.4,0.1-0.8,0.2-1.3,0.3"/>
    <path class="st0" d="M14.6,19.7c0.1,0,0.2,0,0.3,0"/>
    <path class="st0" d="M12.3,17.2c-0.1,0.2-0.1,0.3-0.1,0.5"/>
    <path class="st0" d="M14.6,19.7c-1.2-0.2-2.4-0.8-2.4-1.9c0,0,0,0,0-0.1"/>
    <path class="st0" d="M25.3,19.5c1-0.4,1.7-1,1.6-2.2c-0.6-2.2-5.1-1.5-7.8-1.5c-1.8,0-3.5-0.4-5.1,0.3c-0.7,0.3-1.4,0.6-1.7,1.2"/>
    <path class="st0" d="M19.2,19.9c-0.9,0-1.8,0-2.8,0"/>
    <path class="st0" d="M19.2,19.9c1.5,0,3,0,4.6-0.1c0.1,0,0.2,0,0.3,0"/>
    <path class="st0" d="M15.2,19.8c0.4,0,0.8,0.1,1.2,0"/>
    <path class="st0" d="M15.2,19.8c-0.1,0-0.2,0-0.3,0"/>
    <path class="st0" d="M10.9,19.5c0,0,0.1,0,0.1-0.1c0.7-0.4,1-0.9,1.2-1.6"/>
    <path class="st0" d="M10.9,19.5c-0.5,0.2-1,0.4-1.5,0.4"/>
    <path class="st0" d="M8.3,15.6c1.8,0,3.7,0.4,4,1.7"/>
    <path class="st0" d="M5.5,19.8c-0.9,0-1.7,0-2.6-0.1"/>
    <path class="st0" d="M7,15.6c-0.2,0-0.5,0-0.7,0.1c-1,0.1-2,0.2-3.1,0.1"/>
    <path class="st0" d="M12.2,17.8c0-0.1,0.1-0.3,0.1-0.4c0,0,0-0.1,0-0.1"/>
    <path class="st0" d="M7,15.6c0.4,0,0.9,0,1.3,0"/>
    <path class="st0" d="M2.9,19.7c-0.5-0.1-1-0.2-1.6-0.3c-0.6-0.2-1.1-0.7-1.2-1.2c0,0,0-0.1,0-0.1"/>
    <path class="st0" d="M9.5,19.9c-1.1,0.1-2.2-0.1-3.4-0.1c-0.2,0-0.4,0-0.6,0"/>
    <path class="st0" d="M3.2,15.7C3.2,15.7,3.2,15.7,3.2,15.7c-0.4,0-0.9,0-1.2,0.2"/>
    <path class="st0" d="M0.2,17.8c0,0.1,0,0.2,0,0.3"/>
    <path class="st0" d="M2,15.9c-0.1,0-0.3,0.1-0.4,0.2c-0.7,0.5-1.4,1-1.5,1.8"/>
    <path class="st0" d="M52,19.6c0.5,0,1,0.1,1.5,0.1c0.2,0,0.5,0,0.7,0"/>
    <path class="st0" d="M54.3,23.8c-0.4,0-0.8,0-1.2,0"/>
    <path class="st0" d="M50,23.3c0.2,0.1,0.4,0.1,0.6,0.2c0.9,0.2,1.7,0.3,2.5,0.3"/>
    <path class="st0" d="M52,19.6c-0.5,0-1,0-1.4,0.1"/>
    <path class="st0" d="M50.6,19.7c-0.1,0-0.3,0.1-0.4,0.1c-0.8,0.4-1.9,1.2-1.6,2.1c0.2,0.5,0.8,1,1.4,1.3"/>
    <path class="st0" d="M44.4,23.8c-1.4,0-2.7-0.1-4.1-0.2"/>
    <path class="st0" d="M46.4,23.6c-0.4,0.1-0.8,0.2-1.2,0.2c-0.3,0-0.5,0-0.8,0"/>
    <path class="st0" d="M38.2,23.5c0.1,0,0.2,0,0.3,0c0.6,0,1.2,0,1.8,0.1"/>
    <path class="st0" d="M46.4,23.6c1.1-0.3,2-0.9,2.2-2.1c-0.1-1-0.6-1.6-2.5-1.6c-2.6,0-4.6-0.2-4.6-0.2c-0.6,0-1.2-0.1-1.7-0.1"/>
    <path class="st0" d="M38.1,19.6c0.5-0.1,1.1-0.1,1.6,0"/>
    <path class="st0" d="M38.1,19.6c-0.4,0-0.7,0.1-1.1,0.3c-0.7,0.4-1.5,1.2-1.2,1.9c0.3,0.9,1.2,1.5,2.4,1.7"/>
    <path class="st0" d="M25.3,19.5c1-0.1,2.1,0,3.2,0.2"/>
    <path class="st0" d="M25.3,19.5c-0.4,0-0.9,0.1-1.3,0.3"/>
    <path class="st0" d="M28.5,19.6c0.1,0,0.3,0,0.4,0"/>
    <path class="st0" d="M24,19.7c-0.2,0.1-0.3,0.1-0.4,0.2c-0.8,0.4-1.7,1.4-1.4,2.2c0.5,1.4,2.5,1.1,3.9,1.1c3-0.1,6,0.8,9-0.3
        c0.7-0.2,0.6-1.2,0.5-2.1c-0.3-2.3-4.4-1.1-6.7-1.3"/>
    <path class="st0" d="M19.2,19.9c-0.9-0.1-1.8-0.2-2.8,0"/>
    <path class="st0" d="M15.9,23.7c-1.7,0.1-3.4,0.1-5-0.1"/>
    <path class="st0" d="M20.1,23.5c1.1-0.3,2.1-1,2-2.1c-0.1-0.8-1-1.4-1.9-1.5c-0.3,0-0.6-0.1-0.9-0.1"/>
    <path class="st0" d="M15.2,19.8c0.4,0,0.8-0.1,1.2,0"/>
    <path class="st0" d="M10.9,19.5c-0.4,0.1-0.8,0.2-1.2,0.3c-0.1,0-0.2,0.1-0.3,0.1"/>
    <path class="st0" d="M14.9,19.7c-0.1,0-0.2,0-0.3,0"/>
    <path class="st0" d="M15.2,19.8c-0.1,0-0.1,0-0.2,0c0,0-0.1,0-0.1,0"/>
    <path class="st0" d="M9.5,19.9c-0.9,0.4-1.8,1.3-1.4,2.4c0.2,0.4,0.5,0.9,1,1c0.2,0.1,0.5,0.1,0.7,0.2"/>
    <path class="st0" d="M20.1,23.5c-0.3,0.1-0.7,0.1-1,0.1c-1.1,0-2.1,0-3.2,0.1"/>
    <path class="st0" d="M10.9,19.5c1.2-0.2,2.5,0,3.7,0.2"/>
    <path class="st0" d="M9.8,23.4c0.3,0.1,0.7,0.1,1,0.2"/>
    <path class="st0" d="M50,23.3c0.1,0,0.2,0,0.4,0c0.9,0.1,1.8,0.2,2.7,0.4"/>
    <path class="st0" d="M54.3,24.3c-0.2-0.1-0.3-0.2-0.5-0.2c-0.2-0.1-0.4-0.2-0.7-0.3"/>
    <path class="st0" d="M46.4,23.6c-0.7,0-1.4,0.1-2,0.2"/>
    <path class="st0" d="M50,23.3c-0.6-0.1-1.1,0-1.7,0.1c-0.6,0.1-1.3,0.2-2,0.2"/>
    <path class="st0" d="M50,27.6c0.8,0,1.7,0,2.5-0.1c0.3,0,0.5-0.1,0.8-0.1"/>
    <path class="st0" d="M44.4,23.8c-1.1,0.2-2,0.8-1.8,2.3c0.1,0.4,0.6,0.8,1.1,1c2.1,0.3,4.2,0.5,6.3,0.5"/>
    <path class="st0" d="M53.4,27.3c0.3-0.1,0.6-0.2,0.8-0.3"/>
    <path class="st0" d="M53.3,27.3c0,0,0.1,0,0.1,0"/>
    <path class="st0" d="M39.1,27.4c-0.6,0.1-1.1,0.1-1.7,0.1c-0.2,0-0.3,0-0.5-0.1"/>
    <path class="st0" d="M29.5,27.3c-0.9-0.2-1.7-0.8-2-1.6c-0.2-0.5,0.4-1.7,1.5-1.9c1.9-0.4,3.8,0,5.7-0.1c1,0,2.2-0.1,3.5-0.1"/>
    <path class="st0" d="M36.9,27.4c-1.8-0.2-3.5,0-5.2,0"/>
    <path class="st0" d="M38.2,23.5c0.7,0,1.5,0,2.1,0.1"/>
    <path class="st0" d="M29.5,27.3c0.2,0.1,0.5,0.1,0.7,0.1c0.5,0,1,0,1.5,0"/>
    <path class="st0" d="M39.1,27.4c0.3,0,0.6-0.1,0.9-0.2c1.1-0.3,2.4-0.9,2.6-2.1c-0.1-0.9-1.1-1.3-2.3-1.5"/>
    <path class="st0" d="M21.3,23.4c-0.4,0.1-0.8,0.1-1.2,0.1"/>
    <path class="st0" d="M22,27.7c0.9,0,1.7-0.1,2.5-0.3"/>
    <path class="st0" d="M22,27.7c-1.9,0.1-3.8-0.1-5.7-0.4c-0.9-0.1-2.1-0.5-2.2-1.4c-0.3-1.1,0.7-1.9,1.8-2.2"/>
    <path class="st0" d="M20.9,23.4c2.7-0.5,5.8,0.1,6.4,1.5c0.3,0.8-0.1,1.7-1.3,2.1c-0.5,0.2-1,0.3-1.5,0.4"/>
    <path class="st0" d="M20.1,23.5c-1,0.1-2,0.1-3,0c-0.4,0-0.8,0.1-1.2,0.2"/>
    <path class="st0" d="M8.2,27.3c-0.5,0-0.9-0.1-1.4-0.1c-2,0.1-5.3,0.2-5.8-1.2"/>
    <path class="st0" d="M5.7,23.4c-1,0-2,0.1-2.9,0.4"/>
    <path class="st0" d="M1.1,25.2c0.3-0.8,0.9-1.2,1.7-1.5"/>
    <path class="st0" d="M10.8,23.6c-0.3-0.1-0.7-0.1-1-0.2"/>
    <path class="st0" d="M1.1,25.2C1,25.4,1,25.6,0.9,25.8C1,25.9,1,26,1,26.1"/>
    <path class="st0" d="M9.8,23.4c-0.7-0.1-1.4-0.2-2.2-0.1c-0.6,0-1.2,0-1.9,0.1"/>
    <path class="st0" d="M11.5,27.4c-0.1,0-0.1,0-0.2,0c-1.1,0.1-2.1,0-3.1-0.1"/>
    <path class="st0" d="M11.5,27.4c1.3-0.1,2.8-0.6,2.4-2.6c-0.1-0.3-0.6-0.8-1.1-0.9c-0.7-0.1-1.4-0.2-2-0.4"/>
    <path class="st0" d="M53.5,27.3c0,0-0.1,0-0.1,0"/>
    <path class="st0" d="M53.3,27.3c-1,0-2.3,0-3.3,0.2"/>
    <path class="st0" d="M53.4,27.3c0.3,0,0.5,0,0.8,0"/>
    <path class="st0" d="M47.7,29.1c0.1-0.6,0.6-0.9,1.2-1.2c0.3-0.1,0.7-0.3,1.1-0.3"/>
    <path class="st0" d="M47.7,29.6c0.3,1.1,1.6,1.6,2.8,1.6"/>
    <path class="st0" d="M47.7,29.1c0,0.2,0,0.3,0.1,0.5"/>
    <path class="st0" d="M53.4,27.3c-0.1,0-0.2,0-0.3,0"/>
    <path class="st0" d="M51.3,31.2c-0.3,0-0.5,0-0.8,0"/>
    <path class="st0" d="M51.3,31.2c1,0,2,0.1,3,0.1"/>
    <path class="st0" d="M34,29.1c0.2-0.6,0.8-1.1,1.4-1.4c0.5-0.2,1-0.3,1.6-0.4"/>
    <path class="st0" d="M33.9,29.3c0,0.1,0,0.2,0,0.3c0.1,0.8,1.1,1.2,2,1.4c0.6,0.1,1.1,0.2,1.7,0.2"/>
    <path class="st0" d="M47.7,29.6c0-0.2,0-0.4-0.1-0.5"/>
    <path class="st0" d="M39.1,27.4c-0.7,0-1.5,0-2.2,0"/>
    <path class="st0" d="M39.6,31.4c2.3,0.1,4.6-0.2,7-0.7c0.5-0.1,0.9-0.6,1.2-1.1"/>
    <path class="st0" d="M39.1,27.4c0.6,0,1.3,0,1.9-0.1c2-0.3,4.8,0,5.7,0.8c0.4,0.4,0.8,0.6,1,1"/>
    <path class="st0" d="M39.6,31.4c-0.6,0-1.3-0.1-1.9-0.1"/>
    <path class="st0" d="M34,29.1c0,0.1,0,0.1,0,0.2"/>
    <path class="st0" d="M29.5,27.3c0.7,0,1.3,0.1,2,0.1c0.1,0,0.1,0,0.2,0"/>
    <path class="st0" d="M24.5,27.4c-0.9,0-1.8,0.1-2.5,0.3"/>
    <path class="st0" d="M20.6,29.3c0,0.1,0,0.1,0,0.2c0,0,0,0,0,0"/>
    <path class="st0" d="M20.6,29.5c0,0.5,0.3,0.9,0.7,1c2.2,0.8,4.5,0.7,7,0.8"/>
    <path class="st0" d="M33.9,29.3c0-0.1,0-0.1,0-0.2"/>
    <path class="st0" d="M29.5,27.3c-0.8,0-1.5-0.1-2.4,0c-0.7,0.1-1.6,0.1-2.5,0.1"/>
    <path class="st0" d="M28.4,31.3c0.8,0,1.7,0,2.5-0.2"/>
    <path class="st0" d="M22,27.7c-0.8,0.3-1.3,0.7-1.4,1.6"/>
    <path class="st0" d="M34,29.1c0.1-1-1.3-1.6-2.3-1.7"/>
    <path class="st0" d="M33.9,29.3C33.9,29.3,33.9,29.3,33.9,29.3c-0.2,0.6-0.2,0.9-0.9,1.2c-0.7,0.3-1.4,0.5-2.2,0.7"/>
    <path class="st0" d="M5.9,28.8c-0.1,0.2-0.2,0.4-0.2,0.5c0,0.1,0.1,0.3,0.1,0.4"/>
    <path class="st0" d="M20.6,29.3c0-0.2-0.1-0.3-0.2-0.5c-1.8-2-4.6-1.1-7.2-1.4l-0.5,0c-0.4,0.1-0.8,0.1-1.2,0"/>
    <path class="st0" d="M15,31.4c-1.5,0-3.1-0.1-4.7-0.1"/>
    <path class="st0" d="M11.5,27.4c-0.8,0-1.5-0.2-2.5-0.2c-0.3,0-0.6,0-0.8,0.1"/>
    <path class="st0" d="M5.8,29.8c0.4,0.8,1.6,1.3,2.7,1.5"/>
    <path class="st0" d="M15,31.4c0.8,0,1.6,0,2.4-0.1"/>
    <path class="st0" d="M20.6,29.5c0-0.1,0-0.2,0-0.2"/>
    <path class="st0" d="M10.3,31.3c-0.2,0-0.3,0-0.5,0c-0.4,0-0.9,0-1.3-0.1"/>
    <path class="st0" d="M5.9,28.8c0.4-0.7,1.4-1.3,2.4-1.5"/>
    <path class="st0" d="M17.5,31.2c0.2,0,0.5-0.1,0.7-0.1c1-0.1,2.3-0.8,2.5-1.6"/>
    <path class="st0" d="M46.2,35.2C46.2,35.2,46.2,35.2,46.2,35.2c2.5-0.2,4.9-0.1,7.1-0.8c0.5-0.1,1.1-0.6,0.9-1.2
        c-0.5-1.2-1.6-1.8-2.8-2"/>
    <path class="st0" d="M41.9,32.7c-0.1,0.2-0.1,0.3-0.1,0.5"/>
    <path class="st0" d="M44.8,35.2c0.4,0,0.9,0.1,1.3,0"/>
    <path class="st0" d="M44.8,35.2c-0.4,0-0.8-0.1-1.2-0.3c-0.7-0.3-1.7-0.9-1.8-1.7"/>
    <path class="st0" d="M51.3,31.2c-0.3,0-0.5,0-0.8,0"/>
    <path class="st0" d="M41.9,32.7c1.1-2.5,4-1.2,6.2-1.5c0.8-0.1,1.7,0.2,2.4,0"/>
    <path class="st0" d="M26.8,33.2c0.4,1.1,1.5,1.4,2.7,1.7"/>
    <path class="st0" d="M26.8,33.2C26.8,33.2,26.8,33.2,26.8,33.2c0-0.2-0.1-0.3,0-0.4"/>
    <path class="st0" d="M26.8,32.8c0.1-0.7,0.9-1.3,1.6-1.5"/>
    <path class="st0" d="M30.8,31.2c-0.8,0-1.6,0.1-2.5,0.2"/>
    <path class="st0" d="M39.1,35.1c-0.1,0-0.1,0-0.2,0c-0.5,0.1-1.1,0.2-1.6,0.2"/>
    <path class="st0" d="M30.8,31.2c1.3,0,2.5,0,3.8,0"/>
    <path class="st0" d="M29.5,34.9c0,0,0.1,0,0.1,0c1.4,0.3,2.7,0.4,4,0.5"/>
    <path class="st0" d="M37.3,35.4c-1.3,0.1-2.5,0.2-3.7,0.1"/>
    <path class="st0" d="M37.7,31.3c-1.1,0-2.3,0.2-3.4,0"/>
    <path class="st0" d="M41.9,32.7c-0.3-0.7-1.3-1.2-2.3-1.4"/>
    <path class="st0" d="M39.6,31.4c-0.3-0.1-0.5-0.1-0.8-0.1c-0.4,0-0.8,0-1.1,0"/>
    <path class="st0" d="M41.8,33.2c-0.3,1.2-1.6,1.6-2.7,1.9"/>
    <path class="st0" d="M41.9,32.7c0,0.2,0,0.3-0.1,0.5"/>
    <path class="st0" d="M20.4,35.5c1.1,0.1,2.1,0.1,3.2-0.1"/>
    <path class="st0" d="M26.8,33.2c0-0.1,0-0.3,0-0.4"/>
    <path class="st0" d="M26.8,33.2C26.8,34,26,34.7,25.2,35"/>
    <path class="st0" d="M17.5,31.2c0.9,0.1,1.8,0.2,2.6,0.2c1.6,0,2.9-0.5,4.8-0.1c0.8,0.2,1.7,0.6,1.9,1.4c0,0,0,0.1,0,0.1"/>
    <path class="st0" d="M25.2,35c0,0-0.1,0-0.1,0c-0.5,0.2-1,0.3-1.5,0.4"/>
    <path class="st0" d="M15.1,35c0,0,0.1,0,0.1,0"/>
    <path class="st0" d="M15.8,35c-0.2,0-0.3,0-0.5,0c0,0-0.1,0-0.1,0"/>
    <path class="st0" d="M20.4,35.5c-1.5-0.1-3.1-0.4-4.6-0.4"/>
    <path class="st0" d="M15,31.4c0.7-0.2,1.6-0.2,2.4-0.1"/>
    <path class="st0" d="M15,31.4c-0.2,0-0.4,0.1-0.6,0.2c-0.4,0.2-1.5,0.8-1.5,2c-0.1,0.9,1.2,1.4,2.2,1.5"/>
    <path class="st0" d="M7,31.2c0.1,0,0.3,0,0.4,0"/>
    <path class="st0" d="M7,31.2c0.5,0,1,0,1.5,0"/>
    <path class="st0" d="M7,31.2c-0.2,0-0.4,0-0.6,0"/>
    <path class="st0" d="M9.8,35.3c-1.6,0.2-3.1,0.2-4.7,0"/>
    <path class="st0" d="M10.3,31.3c-0.6-0.1-1.2-0.1-1.8-0.1"/>
    <path class="st0" d="M9.8,35.3c0.2,0,0.4,0,0.6-0.1c0.3-0.1,0.6-0.1,0.8-0.2"/>
    <path class="st0" d="M11.2,35c0.7-0.3,1-0.9,1.8-1.9c0.3-0.5-0.1-1.1-0.6-1.3c-0.7-0.3-1.4-0.5-2.1-0.6"/>
    <path class="st0" d="M3.1,35c0.7,0.2,1.3,0.3,2,0.3"/>
    <path class="st0" d="M7,31.2c-1.9-0.2-3.9-0.3-5.8,0.2c-0.6,0.2-1.3,0.9-0.9,1.8c0.4,1.1,0.8,1.2,1.5,1.4c0.4,0.1,0.9,0.3,1.3,0.4"
        />
    <path class="st0" d="M48.4,37.1c0,0.1,0,0.2,0,0.3c0.4,1,1.4,1.5,2.5,1.6"/>
    <path class="st0" d="M48.5,36.6c0,0.2-0.1,0.3-0.1,0.5"/>
    <path class="st0" d="M51,39c0.2,0,0.3,0,0.5,0.1c0.5,0,1,0,1.5,0"/>
    <path class="st0" d="M53,39.1c0.4,0,0.9,0,1.3,0"/>
    <path class="st0" d="M48.5,36.6c0.2-0.7,0.9-1.2,1.5-1.4c1.4-0.5,2.9-0.4,4.4-0.3"/>
    <path class="st0" d="M39.1,35.1c0.5,0,1,0,1.6,0c1.4,0.1,2.8,0,4.2,0"/>
    <path class="st0" d="M48.4,37.1c-0.3,0.8-1.2,1.3-2.1,1.7c-0.2,0.1-0.5,0.2-0.7,0.2"/>
    <path class="st0" d="M39.4,39.2c-0.8-0.1-1.5-0.3-2.3-0.5c-0.6-0.1-1.2-0.6-1.4-1.1c-0.4-1,0.7-1.9,1.5-2.2"/>
    <path class="st0" d="M48.5,36.6c0-0.1,0-0.1,0-0.2c-0.1-0.5-0.8-1.2-1.4-1.2c-0.3,0-0.6,0-0.9-0.1"/>
    <path class="st0" d="M39.1,35.1c-0.6,0-1.1,0.1-1.7,0.2c0,0-0.1,0-0.1,0"/>
    <path class="st0" d="M44.8,35.2c0.4,0,0.9,0,1.3,0"/>
    <path class="st0" d="M43.8,39.4c-1,0.1-2,0.1-3,0"/>
    <path class="st0" d="M43.8,39.4c0.6-0.1,1.2-0.2,1.8-0.4"/>
    <path class="st0" d="M48.4,37.1c0-0.2,0.1-0.3,0.1-0.5"/>
    <path class="st0" d="M40.8,39.4c-0.5-0.1-0.9-0.1-1.4-0.2"/>
    <path class="st0" d="M30.8,39.2c0.7,0.1,1.3-0.1,1.9-0.2"/>
    <path class="st0" d="M25.2,35c-0.5,0-1,0.1-1.5,0.3c0,0-0.1,0-0.1,0.1"/>
    <path class="st0" d="M26,39c-0.8,0-1.5-0.1-2.3-0.3"/>
    <path class="st0" d="M25.2,35c0.9-0.1,1.9,0.1,2.9,0c0.5,0,0.9,0,1.4,0"/>
    <path class="st0" d="M23.6,35.4c-0.8,0.4-1.6,1.2-1.3,2.2c0.2,0.5,0.7,0.9,1.3,1.1c0,0,0,0,0,0"/>
    <path class="st0" d="M32.7,39c0.4-0.1,0.8-0.2,1.3-0.2c1.9-0.1,1.6-1.1,1.6-1.9c-0.1-0.9-1.1-1.2-2-1.5"/>
    <path class="st0" d="M26,39c1.5,0.1,3.1-0.1,4.7,0.3c0,0,0,0,0.1,0"/>
    <path class="st0" d="M29.5,34.9c1.3,0,2.5,0.2,3.9,0.4c0.1,0,0.2,0,0.3,0.1"/>
    <path class="st0" d="M16.1,39c0.7,0,1.4-0.1,2.1-0.1"/>
    <path class="st0" d="M15.1,35c-0.2,0-0.3,0-0.5,0c-1.1-0.1-2.3-0.2-3.4,0"/>
    <path class="st0" d="M20.4,35.5c-1.8-0.3-2.1-0.4-4-0.4c0,0-0.3,0-0.7,0"/>
    <path class="st0" d="M9.5,38.9c0.8,0.1,1.6,0.2,2.4,0.2"/>
    <path class="st0" d="M16.1,39c-1.4,0.1-2.7,0.1-4.1,0.1"/>
    <path class="st0" d="M9.8,35.3c0.4-0.1,0.9-0.2,1.4-0.3"/>
    <path class="st0" d="M20.4,35.5c0.1,0,0.2,0,0.3,0c0.7,0.1,1.2,0.2,1.4,0.9c0.4,1.1-0.8,2.3-1.8,2.4c-0.8,0-1.5,0.1-2.2,0.1"/>
    <path class="st0" d="M9.8,35.3c-0.2,0.1-0.3,0.1-0.5,0.2c-0.8,0.3-1.8,1-1.5,2.1c0.2,0.5,0.7,1.2,1.4,1.2c0.1,0,0.2,0,0.3,0.1"/>
    <path class="st0" d="M15.1,35c0,0,0.1,0,0.1,0"/>
    <path class="st0" d="M15.8,35c-0.2,0-0.4,0-0.6,0"/>
    <path class="st0" d="M51,39c0.7,0,1.4-0.1,2,0.1"/>
    <path class="st0" d="M43.8,39.4c-0.8,0.3-1.4,0.9-1.4,1.9c1,1.5,3.1,1.4,4.4,1.5c0.9,0.1,1.7,0.1,2.6,0.1"/>
    <path class="st0" d="M51.8,42.8c0.7-0.1,1.3-0.3,2-0.5c0.2-0.1,0.4-0.2,0.5-0.3"/>
    <path class="st0" d="M53,39.1c0.5,0.1,0.9,0.4,1.3,0.8"/>
    <path class="st0" d="M45.6,39c-0.7,0-1.3,0.2-1.8,0.4"/>
    <path class="st0" d="M45.6,39c1-0.1,1.9,0,2.7,0.1c0.9,0.1,1.8,0,2.7-0.1"/>
    <path class="st0" d="M51.8,42.8C51,43,50.2,43,49.3,43"/>
    <path class="st0" d="M39.4,39.2c-1.7-0.2-4.3-0.4-4.9-0.3h0.1c-0.7,0-1.3,0-2,0.1"/>
    <path class="st0" d="M30.8,39.2c0.7-0.1,1.3-0.2,1.9-0.2"/>
    <path class="st0" d="M30.8,39.2c-0.6,0.1-1.3,0.2-2,0.2c-0.7,0.1-1.6,0.8-1.4,1.7c0.2,0.7,0.9,1.2,1.7,1.4"/>
    <path class="st0" d="M36.2,42.9c1.2,0,2.5-0.2,3.7-0.3"/>
    <path class="st0" d="M36.2,42.9c-1.5,0.1-3.1,0-4.6-0.1"/>
    <path class="st0" d="M40.8,39.4c0.7,0.1,1.3,0.5,1.5,1.2c0.3,0.9-0.6,1.7-1.2,1.8c-0.4,0.1-0.8,0.1-1.1,0.2"/>
    <path class="st0" d="M29.2,42.6c0.2,0.1,0.4,0.1,0.5,0.1c0.6,0.1,1.3,0.1,1.9,0.1"/>
    <path class="st0" d="M40.8,39.4c0,0-0.1,0-0.1,0c-0.3-0.1-0.7-0.1-1.2-0.2"/>
    <path class="st0" d="M13.9,40.8c0,0.1,0,0.3,0.1,0.4"/>
    <path class="st0" d="M16.1,42.6c-0.9-0.2-1.7-0.5-2.1-1.3c0,0,0-0.1-0.1-0.1"/>
    <path class="st0" d="M16.1,39c-0.3,0.1-0.6,0.1-0.9,0.2c-0.5,0.2-1.3,0.8-1.4,1.5"/>
    <path class="st0" d="M21.9,42.8c0.8,0,1.5-0.1,2.3-0.2"/>
    <path class="st0" d="M16.1,42.6c0.6,0.1,1.3,0.2,1.9,0.2c0,0,0,0,0,0"/>
    <path class="st0" d="M20.9,38.7c1-0.1,1.9-0.1,2.8-0.1"/>
    <path class="st0" d="M26,39c0.8,0.3,1.2,0.8,1.1,1.5c-0.1,0.9-0.4,1.9-1.3,2c-0.5,0.1-1.1,0.1-1.6,0.2"/>
    <path class="st0" d="M26,39c-0.6-0.2-1.4-0.3-2.3-0.3"/>
    <path class="st0" d="M21.9,42.8c-1.2,0.1-2.5,0.1-3.9,0"/>
    <path class="st0" d="M18.1,38.9c-0.7,0-1.4,0-2.1,0.1"/>
    <path class="st0" d="M21.3,38.6c-1,0.3-2.1,0.3-3.1,0.3"/>
    <path class="st0" d="M13.9,41.2c0,0.6-0.6,1.3-1.2,1.4c-0.6,0-1.2,0.1-1.8,0.1"/>
    <path class="st0" d="M7.1,42.9c-1,0-2,0-2.9,0"/>
    <path class="st0" d="M2.6,39.1C2.6,39.1,2.5,39.1,2.6,39.1c-0.6,0.2-1,0.7-1.3,1.2c-0.5,0.9,0.2,1.9,1.1,2.3"/>
    <path class="st0" d="M7.1,42.9c1.3,0,2.6-0.1,3.8-0.2"/>
    <path class="st0" d="M9.5,38.9c-0.8,0-1.7,0.1-2.5,0c-0.7-0.1-1.5-0.1-2.2-0.1"/>
    <path class="st0" d="M2.6,39.1c0.7-0.2,1.5-0.3,2.3-0.3"/>
    <path class="st0" d="M4.1,42.9c-0.3,0-0.7,0-1,0c-0.2,0-0.5-0.1-0.7-0.2"/>
    <path class="st0" d="M13.9,41.2c0-0.1,0-0.3-0.1-0.4"/>
    <path class="st0" d="M13.9,40.8C13.8,40.8,13.8,40.7,13.9,40.8c-0.4-1-1.1-1.5-1.9-1.7"/>
    <path class="st0" d="M9.5,38.9c0.9,0,1.7,0,2.4,0.2"/>
    <path class="st0" d="M51.8,42.8c0.4,0,0.7,0,1.1,0.1c0.5,0,0.9,0,1.4,0"/>
    <path class="st0" d="M51.2,46.8c1,0.1,2.1,0.1,3.1,0.1"/>
    <path class="st0" d="M51.8,42.8c-0.8,0-1.7,0-2.5,0.2"/>
    <path class="st0" d="M49.4,46.6c0.3,0.1,0.5,0.1,0.8,0.1c0.3,0,0.6,0.1,0.9,0.1"/>
    <path class="st0" d="M47.1,45.2c0.6,0.8,1.4,1.3,2.3,1.5"/>
    <path class="st0" d="M47.2,44.8c0.4-1,1.2-1.5,2.1-1.8"/>
    <path class="st0" d="M47.2,44.8c0,0.1-0.1,0.2-0.1,0.3c0,0,0,0,0,0.1"/>
    <path class="st0" d="M39.9,42.6c-1.2,0.1-2.5,0.1-3.7,0.3"/>
    <path class="st0" d="M47.2,44.8c0-0.1,0-0.2-0.1-0.3c-0.3-0.6-1-1.2-1.9-1.5c-1.7-0.5-3.4-0.5-5.2-0.4c0,0-0.1,0-0.1,0"/>
    <path class="st0" d="M39.7,46.7c-0.8,0-1.6,0-2.3,0c-0.3,0-0.7,0-1,0"/>
    <path class="st0" d="M36.2,42.9c-0.3,0.1-0.7,0.2-1,0.3c-0.6,0.3-1.7,1.1-1.4,1.9c0.3,1.1,1.4,1.5,2.5,1.5"/>
    <path class="st0" d="M47.2,44.8c0,0.1,0,0.3-0.1,0.4"/>
    <path class="st0" d="M39.7,46.7c2.1,0.1,4.2,0.2,6.3-0.4c0.4-0.2,1-0.6,1.2-1.1"/>
    <path class="st0" d="M31.6,42.8c-0.7-0.2-1.6-0.3-2.4-0.3"/>
    <path class="st0" d="M20.3,44.9c0,0,0,0.1,0.1,0.1c0.5,1.1,1.7,1.3,2.7,1.3"/>
    <path class="st0" d="M20.2,44.5c0-0.6,0.7-1.2,1.3-1.5c0.1-0.1,0.3-0.1,0.4-0.2"/>
    <path class="st0" d="M21.9,42.8c0.7-0.2,1.5-0.2,2.3-0.2"/>
    <path class="st0" d="M24.2,42.6c0.9,0,1.8,0.1,2.7,0c0.7-0.1,1.5-0.1,2.3-0.1"/>
    <path class="st0" d="M23,46.3c4.7-0.1,4.7,0.8,8.1,0c0.6-0.1,2.4-0.4,2.5-1.2c0.1-1.2-0.8-1.9-2-2.2"/>
    <path class="st0" d="M20.2,44.5c0,0.1,0,0.2,0,0.4"/>
    <path class="st0" d="M14.7,46.9c-1.3,0.1-2.7,0-4.1-0.1"/>
    <path class="st0" d="M5.5,44.1c0,0.2,0,0.4,0,0.6c0,0.1,0,0.1,0.1,0.2"/>
    <path class="st0" d="M20.3,44.9c0-0.1,0-0.2,0-0.4"/>
    <path class="st0" d="M16.1,42.6c0.7,0,1.3,0.1,2,0.2"/>
    <path class="st0" d="M16.7,46.7c-0.6,0.1-1.3,0.2-1.9,0.2"/>
    <path class="st0" d="M16.1,42.6c-0.8,0-1.6,0-2.5,0c-0.4,0.1-2.1,0.1-2.2,0.1c-0.2,0-0.3,0-0.5,0"/>
    <path class="st0" d="M20.2,44.5C20.2,44.5,20.2,44.5,20.2,44.5c-0.7-1-1.4-1.4-2.2-1.7"/>
    <path class="st0" d="M20.3,44.9c-0.1,0.5-0.8,1.1-1.2,1.2c-0.8,0.3-1.6,0.5-2.4,0.6"/>
    <path class="st0" d="M5.5,44.1c0.1-0.5,0.6-1,1.2-1.1c0.1,0,0.3-0.1,0.4-0.1"/>
    <path class="st0" d="M9.3,46.6c-0.3,0-0.6-0.1-0.9-0.1C7.3,46.4,6,46,5.6,44.9"/>
    <path class="st0" d="M10.9,42.7c-2.8-0.1-3.2,0-3.8,0.2"/>
    <path class="st0" d="M9.3,46.6c0.5,0,0.9,0.1,1.4,0.1"/>
    <path class="st0" d="M41.7,48.9c0.1,0.6,0.9,1.2,1.6,1.5c0.1,0,0.2,0.1,0.3,0.1"/>
    <path class="st0" d="M41.7,48.3c0.2-2.2,3.5-1.8,5.5-1.7l-0.1,0.1c0.6-0.1,1.5-0.1,2.3-0.1"/>
    <path class="st0" d="M49.4,46.6c0.6,0,1.2,0.1,1.7,0.2"/>
    <path class="st0" d="M43.6,50.4c0.7,0.2,1.5,0.3,2.2,0.3"/>
    <path class="st0" d="M50.3,50.6c0,0,0.1,0,0.1,0c0.3,0,0.6-0.1,0.9-0.1"/>
    <path class="st0" d="M45.9,50.7c1.5,0,2.9-0.2,4.4-0.1"/>
    <path class="st0" d="M41.7,48.3c0,0.1,0,0.3,0,0.5c0,0,0,0,0,0.1"/>
    <path class="st0" d="M51.3,50.5c0.4-0.1,0.8-0.2,1.2-0.3c1-0.3,1.7-1,1.6-1.8c-0.1-0.7-1.4-1.2-3-1.4"/>
    <path class="st0" d="M41.7,48.3c0-0.1,0-0.1-0.1-0.2c-0.4-0.7-1.1-1.4-2-1.5"/>
    <path class="st0" d="M41.7,48.9c0-0.2,0-0.4,0-0.5"/>
    <path class="st0" d="M39.7,46.7c0,0-0.1,0-0.1,0c-1.5-0.2-2.1-0.1-3.2,0"/>
    <path class="st0" d="M31.1,50.5c1,0.1,2,0.2,3,0.2"/>
    <path class="st0" d="M37.6,50.7c-1.2,0.1-2.4,0.1-3.6,0"/>
    <path class="st0" d="M26.9,48.3c0,0.1,0,0.3,0,0.4c0,0,0,0.1,0,0.1"/>
    <path class="st0" d="M41.7,48.9c-0.2,0.6-0.8,1.2-1.4,1.3c-0.3,0.1-0.5,0.2-0.8,0.2"/>
    <path class="st0" d="M31.1,50.5c-0.5,0-0.9-0.1-1.4-0.1c-1.1-0.1-2.2-0.6-2.7-1.6"/>
    <path class="st0" d="M37.6,50.7c0.7-0.1,1.3-0.2,2-0.3"/>
    <path class="st0" d="M26.9,48.3c0.1-0.6,1-1,1.5-1.3c1.3-0.8,7-0.2,7-0.2c0.4,0,0.7,0,0.9-0.1"/>
    <path class="st0" d="M16.7,46.7c-0.7,0-1.3,0-1.9,0.2"/>
    <path class="st0" d="M26.9,48.3C26.9,48.3,26.9,48.3,26.9,48.3c0.1,0.2,0.1,0.4,0.1,0.5"/>
    <path class="st0" d="M13.1,48.9c0.5,1,1.5,1.4,2.6,1.6"/>
    <path class="st0" d="M15.8,50.5c0.4,0.1,0.9,0.1,1.3,0.1c0,0,0.1,0,0.1,0"/>
    <path class="st0" d="M17.2,50.6c2,0,3.5,0.2,5.6,0c0.9-0.1,2.1,0,2.8-0.4c0.6-0.3,1.2-0.8,1.3-1.4"/>
    <path class="st0" d="M13.1,48.3c-0.1,0.2-0.1,0.4,0,0.6"/>
    <path class="st0" d="M23,46.3c1.5,0.2,3.1,0.6,3.8,2"/>
    <path class="st0" d="M23,46.3c-1.2,0.1-2.4,0.1-3.5,0.4c-0.9,0.2-1.9,0.1-2.8,0.1"/>
    <path class="st0" d="M13.1,48.3c0.2-0.5,0.8-1,1.3-1.3c0.1,0,0.2-0.1,0.3-0.1"/>
    <path class="st0" d="M9.3,46.6c0.5,0,0.9,0,1.4,0.1"/>
    <path class="st0" d="M13.1,48.3c-0.2-0.8-1.2-1.3-2-1.4c-0.1,0-0.3-0.1-0.4-0.1"/>
    <path class="st0" d="M3.7,46.5c-0.7,0-1.3,0-1.9,0.4"/>
    <path class="st0" d="M13.1,48.9c-0.2,0.6-0.6,1.1-1.2,1.2"/>
    <path class="st0" d="M9.3,46.6c-0.9,0-1.7,0.1-2.7,0.1c-1.2,0-2.1-0.1-2.9-0.2"/>
    <path class="st0" d="M2.7,50.4c0.9,0.2,1.7,0.2,2.6,0.3"/>
    <path class="st0" d="M9.7,50.4c-1.5,0.1-3,0.2-4.5,0.2"/>
    <path class="st0" d="M9.7,50.4c0,0,0.1,0,0.1,0c0.8-0.1,1.1-0.1,2.1-0.3c0,0,0,0,0,0"/>
    <path class="st0" d="M1.7,46.9C1.7,46.9,1.7,46.9,1.7,46.9c-0.7,0.5-1.7,1-1.5,2c0.2,0.6,0.6,1.1,1.1,1.2c0.4,0.1,0.9,0.2,1.3,0.3"
        />
    <path class="st0" d="M13.1,48.9c0-0.2,0-0.4,0-0.6"/>
    <path class="st0" d="M53.1,54.4c-0.3,0-0.6,0-0.9,0c-1.4,0-3-0.3-3.9-1.5"/>
    <path class="st0" d="M48.4,52.4c0,0.1-0.1,0.3-0.1,0.4c0,0,0,0,0,0.1"/>
    <path class="st0" d="M51.3,50.5c1,0,2,0.1,2.9,0.1"/>
    <path class="st0" d="M50.3,50.6c-0.9,0.2-1.6,0.7-2,1.8"/>
    <path class="st0" d="M50.3,50.6c0.3-0.1,0.7-0.1,1-0.1"/>
    <path class="st0" d="M43.6,50.4c-0.6,0-1.1,0-1.7,0l-0.8-0.1c-0.5,0-1,0-1.5,0.1"/>
    <path class="st0" d="M45.9,50.7c-0.7-0.2-1.4-0.3-2.2-0.3"/>
    <path class="st0" d="M39.6,50.4c-0.7,0-1.3,0.1-2,0.3"/>
    <path class="st0" d="M35.6,52.2c0,0.2,0,0.3,0,0.5"/>
    <path class="st0" d="M48.3,52.8c0.1-0.2,0.1-0.3,0-0.4"/>
    <path class="st0" d="M37.6,50.7c-0.2,0.1-0.5,0.2-0.7,0.3c-0.6,0.3-1.2,0.7-1.3,1.2"/>
    <path class="st0" d="M48.3,52.8c-0.2,0.5-0.9,1-1.4,1.1c-3.8,0.5-6.6,0.6-10.3-0.1c-0.5-0.1-0.9-0.6-1.1-1.1"/>
    <path class="st0" d="M45.9,50.7c0.9,0.2,1.6,0.7,2.3,1.4c0.1,0.1,0.1,0.2,0.1,0.3"/>
    <path class="st0" d="M31,54.4c-0.1,0-0.2,0-0.3,0c-1.2-0.1-2.3,0-3.5,0"/>
    <path class="st0" d="M22.2,52.2c0.6-2.7,3.8-1.1,5.9-1.3c1-0.1,1.9-0.3,2.9-0.4"/>
    <path class="st0" d="M22.2,52.4c-0.1,0.9,1,1.5,1.7,1.8c0.4,0.1,0.9,0.2,1.3,0.2"/>
    <path class="st0" d="M22.2,52.4c0-0.1,0-0.1,0-0.2"/>
    <path class="st0" d="M35.6,52.7c0-0.2,0-0.4,0-0.5"/>
    <path class="st0" d="M34,50.7c0.7,0.3,1.4,0.8,1.6,1.4"/>
    <path class="st0" d="M35.6,52.7c-0.2,0.7-0.3,0.9-1,1.3c-0.3,0.2-0.7,0.3-1.1,0.3"/>
    <path class="st0" d="M33.6,54.4c-0.8,0.1-1.8,0.1-2.5,0"/>
    <path class="st0" d="M25.2,54.4c0.7,0.1,1.3,0,2,0"/>
    <path class="st0" d="M31.1,50.5c0.9-0.1,1.8-0.1,2.7,0.1c0.1,0,0.2,0,0.2,0.1"/>
    <path class="st0" d="M22.2,52.4c0-0.1,0-0.1,0-0.2"/>
    <path class="st0" d="M22.2,52.4c-0.3,1.4-1.6,1.8-3,1.8c-3.6,0-6.5,0.2-10-0.1c-0.8-0.1-1.4-0.7-1.7-1.4c-0.4-0.9,0.6-1.8,1.4-2
        c0.3-0.1,0.5-0.2,0.8-0.2"/>
    <path class="st0" d="M9.7,50.4c0.7-0.2,1.4-0.3,2.2-0.3"/>
    <path class="st0" d="M17.2,50.6c2.5,0.1,5,0.3,5,1.6"/>
    <path class="st0" d="M15.8,50.5c-0.6,0-1.1-0.1-1.5-0.2c-0.8-0.1-1.6-0.2-2.3-0.2"/>
    <path class="st0" d="M15.8,50.5c0.5,0,0.9,0.1,1.4,0.1"/>
    <path class="st0" d="M0.2,4.2C0.4,4.1,0.7,4.1,1,4c0.6-0.3,1.8-1.2,1.4-2.1c-0.3-0.8-1-1.2-1.8-1.4c-0.1,0-0.3,0-0.4,0"/>
    <path class="st0" d="M0.2,8.4c0.8,0,1.5-0.1,2.3-0.2"/>
    <path class="st0" d="M4.5,8C5.3,7.8,6,7.7,6.7,7.6c0.5-0.1,1.4-0.9,1.4-1.4C7.9,5.3,6.7,4.7,5.7,4.5C4.4,4.5,3.3,4.1,2,4.1
        c-0.8,0-1.3,0.1-1.8,0.2"/>
    <path class="st0" d="M4.5,8c-0.7,0.1-1.3,0.2-2,0.3"/>
    <path class="st0" d="M0.2,11c0.3-0.3,0.5-0.6,0.5-1.1c0-0.4-0.2-0.8-0.5-1"/>
    <path class="st0" d="M0.2,12C0.8,12,1.5,12,2.3,12"/>
    <path class="st0" d="M3,12.1c-0.2,0-0.5,0-0.7,0"/>
    <path class="st0" d="M2,15.9C1.4,15.9,0.8,16,0.2,16"/>
    <path class="st0" d="M0.2,12c0.1,0,0.2,0,0.3,0"/>
    <path class="st0" d="M5.6,14.7C5.4,15,5,15.2,4.7,15.4c-0.5,0.2-1,0.3-1.5,0.4"/>
    <path class="st0" d="M5.6,14.7C5.9,14.4,6,14,5.8,13.6c0-0.1-0.1-0.1-0.1-0.2"/>
    <path class="st0" d="M5.7,13.4c-0.6-1-1.6-1.3-2.7-1.4"/>
    <path class="st0" d="M2,15.9c0.4,0,0.8-0.1,1.2-0.2"/>
    <path class="st0" d="M2.8,23.7c-0.9,0-1.8,0.1-2.7,0.1"/>
    <path class="st0" d="M5.7,23.4c0.9-0.4,1.6-1.3,1.4-2.1c-0.2-0.7-0.8-1.2-1.5-1.5"/>
    <path class="st0" d="M5.7,23.4c-0.3,0.2-0.7,0.3-1.1,0.3c-0.6,0-1.2,0-1.8,0.1"/>
    <path class="st0" d="M2.9,19.7c-0.9,0-1.8,0-2.8,0"/>
    <path class="st0" d="M5.5,19.8c-0.3-0.1-0.7-0.2-1-0.1c-0.5,0-1.1,0.1-1.6,0.1"/>
    <path class="st0" d="M1.1,25.2C1.1,25.2,1.1,25.2,1.1,25.2c-0.1-0.4-0.5-0.7-1-1"/>
    <path class="st0" d="M1,26.1c-0.2,0.4-0.5,0.6-0.9,0.9"/>
    <path class="st0" d="M1.1,25.2c0.1,0.3,0,0.6-0.1,0.9"/>
    <path class="st0" d="M5.8,29.8C6,29.5,6,29.2,5.9,28.9c0,0,0,0,0-0.1"/>
    <path class="st0" d="M5.9,28.8c-1.1-1.9-3.5-1.5-5.7-1.5"/>
    <path class="st0" d="M5.8,29.8c-0.3,0.5-0.9,0.9-1.4,1.1c-1.4,0.3-2.9,0.4-4.3,0.4"/>
    <path class="st0" d="M2.6,39.1c0.8-0.1,1.5-0.2,2.3-0.3"/>
    <path class="st0" d="M5.1,35.3c-0.6-0.2-1.3-0.3-2-0.3"/>
    <path class="st0" d="M2.6,39.1c-0.8,0.1-1.6,0.1-2.4,0.1"/>
    <path class="st0" d="M4.8,38.8c0.2,0,0.4-0.1,0.5-0.1c0.8-0.2,1.7-1.1,1.3-1.9c-0.3-0.7-0.9-1.2-1.5-1.4"/>
    <path class="st0" d="M3.1,35c-0.7,0-1.5,0-2.2-0.1c-0.3,0-0.5,0-0.8-0.1"/>
    <path class="st0" d="M0.2,42.1c0.4-0.4,0.7-1,0.5-1.4c-0.1-0.3-0.3-0.5-0.5-0.7"/>
    <path class="st0" d="M1.7,46.9c0.7-0.1,1.3-0.2,1.9-0.4"/>
    <path class="st0" d="M5.6,44.9c-0.2,0.6-0.9,1.3-1.5,1.5c-0.1,0-0.3,0.1-0.4,0.1"/>
    <path class="st0" d="M4.1,42.9c-0.5-0.2-1.1-0.2-1.7-0.2"/>
    <path class="st0" d="M5.5,44.1c-0.4-0.6-0.8-1-1.4-1.2"/>
    <path class="st0" d="M0.2,47c0.5,0,1.1,0,1.6-0.1"/>
    <path class="st0" d="M5.5,44.1C5.5,44.1,5.5,44.1,5.5,44.1c0.2,0.3,0.2,0.5,0.1,0.8"/>
    <path class="st0" d="M2.4,42.7c-0.7,0-1.5,0.1-2.3,0.2"/>
    <path class="st0" d="M0.2,50.5c0.1,0,0.3,0,0.4,0c0.7,0,1.4-0.1,2.1-0.1"/>
    <path class="st0" d="M2.7,50.4c0.9,0,1.8,0,2.6,0.3"/>
    <path class="st0" d="M0.2,54.3c2.5,0,4-0.2,4.9-0.6c0.8-0.4,2-1,1.5-1.9c-0.4-0.6-0.9-1-1.4-1.2"/>
    <path class="st0" d="M0.2,53.3c1,0.1,2-0.6,2.5-2c-1.1,0.5-1.8,0.8-2.5,0.8"/>
    <path class="st0" d="M26.8,52c1.1,2.5,3.8,2.2,4.7-0.2C29.5,52.8,28.8,52.8,26.8,52z"/>
    <path class="st0" d="M17.5,47.9c1.1,2.5,3.8,2.2,4.7-0.2C20.2,48.7,19.6,48.7,17.5,47.9z"/>
    <path class="st0" d="M45.1,48.2c1.1,2.5,3.8,2.2,4.7-0.2C47.8,49,47.1,49,45.1,48.2z"/>
    <path class="st0" d="M24.5,43.8c1.1,2.5,3.8,2.2,4.7-0.2C27.2,44.5,26.5,44.5,24.5,43.8z"/>
    <path class="st0" d="M0.2,45.9c0.8-0.2,1.6-0.8,2-1.9c-0.8,0.4-1.4,0.6-2,0.7"/>
    <path class="st0" d="M5,40.3c1.1,2.5,3.8,2.2,4.7-0.2C7.7,41,7,41,5,40.3z"/>
    <path class="st0" d="M32.8,40.3c1.1,2.5,3.8,2.2,4.7-0.2C35.5,41.1,34.8,41.1,32.8,40.3z"/>
    <path class="st0" d="M31.2,36.1c-2,1-2.7,1-4.7,0.2C27.6,38.8,30.3,38.6,31.2,36.1z"/>
    <path class="st0" d="M0.2,38.2c1,0.1,2.1-0.6,2.6-2C1.6,36.8,0.9,37,0.2,37"/>
    <path class="st0" d="M22.2,32.5c-2,1-2.7,1-4.7,0.2C18.6,35.2,21.3,35,22.2,32.5z"/>
    <path class="st0" d="M50,32.6c-2,1-2.7,1-4.7,0.2C46.4,35.3,49.1,35,50,32.6z"/>
    <path class="st0" d="M29.4,28.4c-2,1-2.7,1-4.7,0.2C25.8,31.1,28.5,30.9,29.4,28.4z"/>
    <path class="st0" d="M0.2,30.3c0.8-0.2,1.5-0.9,1.9-1.9c-0.8,0.4-1.3,0.6-1.9,0.7"/>
    <path class="st0" d="M5,24.8c1.1,2.5,3.8,2.2,4.7-0.2C7.7,25.6,7,25.6,5,24.8z"/>
    <path class="st0" d="M32.4,24.7c1.1,2.5,3.8,2.2,4.7-0.2C35.1,25.5,34.4,25.5,32.4,24.7z"/>
    <path class="st0" d="M26.5,20.8c1.1,2.5,3.8,2.2,4.7-0.2C29.2,21.6,28.5,21.6,26.5,20.8z"/>
    <path class="st0" d="M0.2,21.6c1,0.2,1.7,0,3.1-0.7c-0.6,1.6-1.9,2.3-3.1,1.8"/>
    <path class="st0" d="M3.8,16.9c1.1,2.5,3.8,2.2,4.7-0.2C6.5,17.7,5.8,17.7,3.8,16.9z"/>
    <path class="st0" d="M36.8,16.7c-2,1-2.7,1-4.7,0.2C33.2,19.4,35.9,19.2,36.8,16.7z"/>
    <path class="st0" d="M29.1,13c-2,1-2.7,1-4.7,0.2C25.5,15.7,28.2,15.4,29.1,13z"/>
    <path class="st0" d="M0.2,15.1c0.8-0.2,1.5-0.8,1.9-1.9c-0.8,0.4-1.4,0.6-1.9,0.7"/>
    <path class="st0" d="M9.5,9.2c-2,1-2.7,1-4.7,0.2C5.9,11.9,8.6,11.6,9.5,9.2z"/>
    <path class="st0" d="M37.2,9.2c-2,1-2.7,1-4.7,0.2C33.6,11.9,36.3,11.7,37.2,9.2z"/>
    <path class="st0" d="M0.2,7.2C1.4,7.9,3,7.3,3.6,5.5c-1.5,0.8-2.3,1-3.5,0.7"/>
    <path class="st0" d="M31.6,5.5c-2,1-2.7,1-4.7,0.2C28,8.2,30.7,8,31.6,5.5z"/>
    <path class="st0" d="M24.5,1.6c-2,1-2.7,1-4.7,0.2C20.9,4.3,23.6,4.1,24.5,1.6z"/>
    <path class="st0" d="M52.7,1.3c-2,1-2.7,1-4.7,0.2C49.1,4,51.8,3.8,52.7,1.3z"/>
    <path class="st0" d="M39.4,53c2-0.8,2.7-0.8,4.7,0.2C43.2,50.8,40.5,50.6,39.4,53z"/>
    <path class="st0" d="M12.4,53.1c2-0.8,2.7-0.8,4.7,0.2C16.3,50.9,13.6,50.7,12.4,53.1z"/>
    <path class="st0" d="M4.5,49.6c2-0.8,2.7-0.8,4.7,0.2C8.3,47.3,5.6,47.1,4.5,49.6z"/>
    <path class="st0" d="M32.5,49.6c2-0.8,2.7-0.8,4.7,0.2C36.3,47.4,33.6,47.2,32.5,49.6z"/>
    <path class="st0" d="M10.9,45.6c2-0.8,2.7-0.8,4.7,0.2C14.7,43.4,12,43.1,10.9,45.6z"/>
    <path class="st0" d="M38.3,45.6c2-0.8,2.7-0.8,4.7,0.2C42.1,43.4,39.4,43.1,38.3,45.6z"/>
    <path class="st0" d="M51.4,42c-0.9-2.5-3.6-2.7-4.7-0.2C48.7,41,49.3,41,51.4,42z"/>
    <path class="st0" d="M39.8,38c2-0.8,2.7-0.8,4.7,0.2C43.7,35.7,41,35.5,39.8,38z"/>
    <path class="st0" d="M18.4,41.6c2-0.8,2.7-0.8,4.7,0.2C22.2,39.4,19.5,39.2,18.4,41.6z"/>
    <path class="st0" d="M12.8,37.9c2-0.8,2.7-0.8,4.7,0.2C16.6,35.7,13.9,35.5,12.8,37.9z"/>
    <path class="st0" d="M4.8,34.1c2-0.8,2.7-0.8,4.7,0.2C8.6,31.9,5.9,31.6,4.8,34.1z"/>
    <path class="st0" d="M31.8,34.1c2-0.8,2.7-0.8,4.7,0.2C35.7,31.8,33,31.6,31.8,34.1z"/>
    <path class="st0" d="M43.3,30.3c-0.9-2.5-3.6-2.7-4.7-0.2C40.6,29.2,41.3,29.2,43.3,30.3z"/>
    <path class="st0" d="M10.5,30.2c2-0.8,2.7-0.8,4.7,0.2C14.4,27.9,11.7,27.7,10.5,30.2z"/>
    <path class="st0" d="M51,26.4c-0.9-2.5-3.6-2.7-4.7-0.2C48.3,25.4,48.9,25.4,51,26.4z"/>
    <path class="st0" d="M18.8,26.5c2-0.8,2.7-0.8,4.7,0.2C22.6,24.2,19.9,24,18.8,26.5z"/>
    <path class="st0" d="M12.7,22.6c2-0.8,2.7-0.8,4.7,0.2C16.5,20.3,13.8,20.1,12.7,22.6z"/>
    <path class="st0" d="M21.9,18.7c-0.9-2.5-3.6-2.7-4.7-0.2C19.2,17.7,19.9,17.7,21.9,18.7z"/>
    <path class="st0" d="M50.1,18.8c-0.9-2.5-3.6-2.7-4.7-0.2C47.4,17.8,48.1,17.8,50.1,18.8z"/>
    <path class="st0" d="M38.3,14.6c2-0.8,2.7-0.8,4.7,0.2C42.1,12.4,39.4,12.2,38.3,14.6z"/>
    <path class="st0" d="M10.5,14.4c2-0.8,2.7-0.8,4.7,0.2C14.3,12.2,11.6,12,10.5,14.4z"/>
    <path class="st0" d="M18.8,11c2-0.8,2.7-0.8,4.7,0.2C22.6,8.7,19.9,8.5,18.8,11z"/>
    <path class="st0" d="M50.5,11.1c-0.9-2.5-3.6-2.7-4.7-0.2C47.8,10.1,48.4,10.1,50.5,11.1z"/>
    <path class="st0" d="M45.8,7.2c-0.9-2.5-3.6-2.7-4.7-0.2C43.1,6.1,43.8,6.1,45.8,7.2z"/>
    <path class="st0" d="M34.5,3.1c2-0.8,2.7-0.8,4.7,0.2C38.3,0.8,35.6,0.6,34.5,3.1z"/>
    <path class="st0" d="M17.4,7.2c-0.9-2.5-3.6-2.7-4.7-0.2C14.7,6.2,15.4,6.2,17.4,7.2z"/>
    <path class="st0" d="M6.2,2.9c2-0.8,2.7-0.8,4.7,0.2C10.1,0.7,7.4,0.5,6.2,2.9z"/>
    <path class="st0" d="M39.7,22.3c2-0.8,2.7-0.8,4.7,0.2C43.5,20.1,40.8,19.8,39.7,22.3z"/>
    <path class="st0" d="M54.3,52.2c-0.6,0-1.3-0.2-2.2-0.6c0.5,1.1,1.3,1.7,2.2,1.7"/>
    <path class="st0" d="M54.3,44.7c-0.8,0.1-1.5-0.1-2.7-0.5c0.6,1.4,1.7,1.9,2.7,1.7"/>
    <path class="st0" d="M54.3,37c-0.6,0-1.2-0.2-2.1-0.6c0.5,1.1,1.3,1.7,2.1,1.7"/>
    <path class="st0" d="M54.3,29.1c-0.9,0.2-1.6,0-2.9-0.5c0.6,1.4,1.8,2,2.9,1.7"/>
    <path class="st0" d="M54.3,21.6c-0.5-0.1-1-0.3-1.6-0.5c0.4,0.9,1,1.4,1.6,1.6"/>
    <path class="st0" d="M54.3,13.9c-0.8,0.1-1.6,0-2.8-0.5c0.6,1.4,1.7,1.9,2.8,1.7"/>
    <path class="st0" d="M54.3,6.2c-0.4-0.1-0.8-0.2-1.2-0.4c0.3,0.7,0.8,1.2,1.2,1.5"/>
    <line class="st0" x1="54.3" y1="4.3" x2="54.3" y2="4.2"/>
    <line class="st0" x1="0.2" y1="12" x2="0.2" y2="12"/>
    <line class="st0" x1="54.3" y1="12" x2="54.3" y2="12"/>
</g>
</svg>
