<!-- Generator: Adobe Illustrator 22.1.0, SVG Export Plug-In  -->
<svg version="1.1"
     xmlns="http://www.w3.org/2000/svg" xmlns:xlink="http://www.w3.org/1999/xlink" xmlns:a="http://ns.adobe.com/AdobeSVGViewerExtensions/3.0/"
     x="0px" y="0px" width="54.2px" height="54.1px" viewBox="0 0 54.2 54.1" style="enable-background:new 0 0 54.2 54.1;"
     xml:space="preserve">
<style type="text/css">
    .st0{clip-path:url(#SVGID_2_);fill:none;stroke:#000000;stroke-width:0.5;}
    .st1{clip-path:url(#SVGID_2_);fill:none;stroke:#000000;stroke-width:0.3;}
    .st2{clip-path:url(#SVGID_4_);fill:none;stroke:#000000;stroke-width:0.5;}
    .st3{clip-path:url(#SVGID_4_);fill:none;stroke:#000000;stroke-width:0.3;}
</style>
<defs>
</defs>
<g>
    <defs>
        <rect id="SVGID_1_" x="0" width="54.1" height="54.1"/>
    </defs>
    <clipPath id="SVGID_2_">
        <use xlink:href="#SVGID_1_"  style="overflow:visible;"/>
    </clipPath>
    <line class="st0" x1="2.3" y1="14" x2="10.1" y2="14"/>
    <line class="st0" x1="13.5" y1="14" x2="21.3" y2="14"/>
    <line class="st0" x1="24.6" y1="14" x2="32.5" y2="14"/>
    <line class="st0" x1="35.6" y1="14" x2="43.5" y2="14"/>
    <line class="st0" x1="46.4" y1="14" x2="54.1" y2="14"/>
    <line class="st0" x1="0" y1="29.5" x2="5.3" y2="29.5"/>
    <line class="st0" x1="8.7" y1="29.5" x2="16.5" y2="29.5"/>
    <line class="st0" x1="19.8" y1="29.5" x2="27.7" y2="29.5"/>
    <line class="st0" x1="30.8" y1="29.5" x2="38.7" y2="29.5"/>
    <line class="st0" x1="41.6" y1="29.5" x2="49.5" y2="29.5"/>
    <line class="st0" x1="0" y1="42.7" x2="1.2" y2="42.7"/>
    <line class="st0" x1="4.6" y1="42.7" x2="12.4" y2="42.7"/>
    <line class="st0" x1="15.7" y1="42.7" x2="23.6" y2="42.7"/>
    <line class="st0" x1="26.7" y1="42.7" x2="34.5" y2="42.7"/>
    <line class="st0" x1="37.5" y1="42.7" x2="45.4" y2="42.7"/>
    <line class="st0" x1="52.4" y1="29.5" x2="54.2" y2="29.5"/>
    <line class="st0" x1="48.3" y1="42.7" x2="54.2" y2="42.7"/>
    <path class="st1" d="M52.7,15.2c0.2,1,0.3,2.9,0.1,4.6"/>
    <path class="st1" d="M52.6,21.9c-0.3,1.6-0.2,4.7,0.1,5.6"/>
    <path class="st1" d="M50.5,16.6c0.2,1.9,0.2,2.5-0.2,4.5c-0.4,2-0.4,2.9,0,4.3"/>
    <path class="st1" d="M47.6,15.2c0.4,1.5,0.7,2.3,0.2,4.4"/>
    <path class="st1" d="M47.8,21.9c-0.1,1.2-0.2,0.7-0.3,2c-0.1,1.3-0.3,2.9,0.5,4.2"/>
    <path class="st1" d="M44.6,16c0.4,1.8,0.3,3.1-0.2,5.2c-0.5,2.1-0.7,4.5,0.2,5.9"/>
    <path class="st1" d="M40.9,14.4c0.6,1.5,0.9,3.4,0.8,4.5"/>
    <path class="st1" d="M41.6,20.8c-0.3,2.3-1.5,5.4,0.1,7.3"/>
    <path class="st1" d="M38.3,14.8c0.2,1.2,0.3,1.7,0.3,2.1"/>
    <path class="st1" d="M38.7,19.5c0.1,1.6,0,2.5-0.3,3.9c-0.3,1.4-0.7,4-0.1,5.1"/>
    <path class="st1" d="M35.9,14.8c0.3,2.1,0.4,4.3,0,6.7"/>
    <path class="st1" d="M35.4,23.6c-0.3,1.3-0.3,3.9,0.2,4.7"/>
    <path class="st1" d="M33.4,18c0.2,1.9,0.1,3.3-0.5,5.1c-0.6,1.8-0.7,4.1-0.2,5.4"/>
    <path class="st1" d="M30.3,15.1c0.3,1.6,0.5,4.1,0,6.1"/>
    <path class="st1" d="M29.7,23.7c-0.3,1.5-0.2,4.1,0.3,4.8"/>
    <path class="st1" d="M27.7,17.1c0.2,2.4,0.3,3.3-0.2,5.3s-0.6,3.5-0.4,4.4"/>
    <path class="st1" d="M25,15.2c0.4,1.7,0.5,3.2,0.3,4.5"/>
    <path class="st1" d="M25,21.8c-0.1,1-0.1,0.6-0.3,1.9c-0.2,1.3-0.3,3.6,0.3,4.7"/>
    <path class="st1" d="M22.6,17.4c0.3,2.6,0,4-0.2,5.9c-0.2,1.9-0.2,4.1,0.2,5"/>
    <path class="st1" d="M19.5,15c0.6,1.9,0.9,3.1,0.8,4.6"/>
    <path class="st1" d="M19.7,22.3c-0.3,1.5-0.5,4.5,0.4,6.1"/>
    <path class="st1" d="M16.9,15.5c0.6,2.7,0.9,3.9,0.6,5.8C17,23.3,17,23.1,17,23.7"/>
    <path class="st1" d="M16.7,25.8c0.2,0.8,0.8,2.1,0.8,2.7"/>
    <path class="st1" d="M14.6,16.5c0.4,2.3,0.6,3.6,0.1,5.6c-0.4,2-0.4,4.3,0.3,6.1"/>
    <path class="st1" d="M11.8,15.2c0.5,1.6,0.7,2.7,0.6,3.8"/>
    <path class="st1" d="M12,22.4c-0.5,1.9-1.3,4.1,0,6.1"/>
    <path class="st1" d="M9.4,15.8c0.3,2.3,0.5,3.4,0.1,5c-0.4,1.7-0.3,1.6-0.3,2.2"/>
    <path class="st1" d="M6.5,15.1C6.9,16.4,7,17,7,17"/>
    <path class="st1" d="M7.3,19.6c-0.3,1.8-0.5,2.6-0.8,3.8c-0.3,1.2-0.8,3.6,0,5"/>
    <path class="st1" d="M4.4,15.8c0.3,1.8,0.5,3,0.2,4.6c-0.3,1.6-0.2,2-0.3,2.4"/>
    <path class="st1" d="M4,24.6c-0.3,1-0.4,2.3-0.1,3C4.2,28.4,4.3,29,4.3,29"/>
    <path class="st1" d="M1.9,17.2c0.4,1.5,0.8,4.2,0.3,6C1.6,25,1.3,27.3,2,28.7"/>
    <path class="st1" d="M8.8,25.5c0.1,1.1,0.4,2.4,0.9,3.1"/>
    <path class="st1" d="M1.4,32.1C1.9,34.3,2,35,1.5,36.9s-0.8,3.3-0.3,4.8"/>
    <path class="st1" d="M3.5,30.5c0.4,1.2,0.9,2.6,0.8,3.7c-0.1,1.1-0.4,1.7-0.3,1.9"/>
    <path class="st1" d="M3.6,37.5c-0.4,1.3-0.5,3,0.1,4.2"/>
    <path class="st1" d="M6.2,31.8c0.3,1.4,0.5,2.1-0.1,4.1c-0.7,2-0.5,3.6-0.2,4.7"/>
    <path class="st1" d="M8.9,30.9c0.3,1.4,0.6,2.9,0.3,4.3"/>
    <path class="st1" d="M8.9,36.6c-0.5,1.4-0.7,3.6-0.3,4.7"/>
    <path class="st1" d="M11.5,33.7c0.1,1.2,0.1,1.3-0.3,3.1c-0.4,1.8-0.6,3.9,0.1,5"/>
    <path class="st1" d="M14.1,31.4c0.3,1.5,0.6,2.8,0.1,4.6c-0.5,1.8-1,3.4,0.1,5.3"/>
    <path class="st1" d="M16.8,30.3c0.4,1.6,0.6,2.3,0.3,3.5c-0.3,1.2-0.6,1.8-0.7,2.4"/>
    <path class="st1" d="M16.1,38c0,1.2,0.1,3,0.4,3.7"/>
    <path class="st1" d="M18.9,31.3c0.5,2.1,1,3,0.3,4.8c-0.7,1.8-1.2,3.1-0.9,4.3"/>
    <path class="st1" d="M21,30.2c0.6,1.3,0.9,3.4,0.8,4.2"/>
    <path class="st1" d="M21.5,36.9c-0.4,1.3-0.7,4-0.4,4.7"/>
    <path class="st1" d="M23.1,31.3c0.6,2,0.9,2.8,0.5,4.6c-0.4,1.8-0.9,3.7-0.6,4.8"/>
    <path class="st1" d="M25.4,30.5c0.2,1.1,0.3,2.4,0.3,3.1"/>
    <path class="st1" d="M25.7,36c-0.1,1.2-0.1,1-0.3,2c-0.3,1-0.2,2.8,0.1,3.5"/>
    <path class="st1" d="M27.7,31.8c0.6,2.5,1,3.8,0.7,5.2c-0.4,1.4-0.5,3.1-0.3,3.9"/>
    <path class="st1" d="M30.2,32c-0.1,1.1,0.1,1.7,0.3,2.6c0.2,0.9,0.4,1.7,0,3.3c-0.4,1.6-0.3,2.6-0.2,3.2"/>
    <path class="st1" d="M32.9,30.5c0,1,0.2,2.9,0.4,3.6"/>
    <path class="st1" d="M33.4,35.7c-0.1,1.3-0.1,1.4-0.3,2.8c-0.2,1.4-0.1,2.6,0.1,3.2"/>
    <path class="st1" d="M37.7,30.1c0.5,1.7,0.5,2.5,0.4,4.1"/>
    <path class="st1" d="M37.8,36.2c-0.2,1.7-0.5,3.2-0.3,4.3c0.2,1,0.4,1.5,0.4,1.5"/>
    <path class="st1" d="M40.4,31.5c0.2,2.3,0.2,2.3-0.2,4c-0.4,1.7-0.7,3-0.2,4.3"/>
    <path class="st1" d="M42,37.8c-0.1,1.5,0.2,3,0.5,3.7"/>
    <path class="st1" d="M43,30.4c0.2,1.2,0.3,1.8,0.1,3c-0.2,1.2-0.5,1.8-0.5,2.3"/>
    <path class="st1" d="M45,30.9c0.4,1.7,0.6,2.8,0.1,5c-0.4,2.1-0.2,3.8,0.3,5.3"/>
    <path class="st1" d="M47.6,30.5c0.3,1.4,0.5,2.3,0.4,3.6"/>
    <path class="st1" d="M47.5,37.3c-0.2,1.4-0.2,2.5,0.1,3.5"/>
    <path class="st1" d="M49.9,31.4c0.5,2.1,0.8,2.9,0.5,4.7c-0.3,1.9-0.4,3.5-0.2,4.2"/>
    <path class="st1" d="M52.6,30.5c0.3,1.5,0.3,1.8,0.3,2.7"/>
    <path class="st1" d="M52.9,35.8c-0.2,1.3-1.3,3.5-0.3,5.6"/>
    <line class="st0" x1="0" y1="0.6" x2="2.9" y2="0.6"/>
    <line class="st0" x1="6.2" y1="0.6" x2="14.1" y2="0.6"/>
    <line class="st0" x1="17.4" y1="0.6" x2="25.2" y2="0.6"/>
    <line class="st0" x1="28.4" y1="0.6" x2="36.2" y2="0.6"/>
    <line class="st0" x1="39.2" y1="0.6" x2="47" y2="0.6"/>
    <line class="st0" x1="50" y1="0.6" x2="54.1" y2="0.6"/>
    <path class="st1" d="M1,1.6c0.4,1.2,0.9,2.6,0.8,3.7C1.7,6.5,1.4,7.1,1.5,7.2"/>
    <path class="st1" d="M1.1,8.7c-0.4,1.3-0.5,3,0.1,4.2"/>
    <path class="st1" d="M3.8,3C4,4.4,4.3,5.1,3.7,7.1c-0.7,2-0.5,3.6-0.2,4.7"/>
    <path class="st1" d="M6.5,2.1C6.8,3.5,7.1,5,6.8,6.4"/>
    <path class="st1" d="M6.4,7.8c-0.5,1.4-0.7,3.6-0.3,4.7"/>
    <path class="st1" d="M9,4.9C9.1,6,9.2,6.2,8.7,8c-0.4,1.8-0.5,3.9,0.1,5"/>
    <path class="st1" d="M11.6,2.6c0.3,1.5,0.6,2.8,0.1,4.6c-0.6,1.8-1,3.4,0.1,5.3"/>
    <path class="st1" d="M14.4,1.5C14.8,3.1,15,3.8,14.7,5s-0.6,1.8-0.7,2.4"/>
    <path class="st1" d="M13.7,9.2c0,1.2,0.1,3,0.4,3.7"/>
    <path class="st1" d="M16.5,2.5c0.5,2.1,1,3,0.3,4.8c-0.7,1.8-1.2,3.1-0.9,4.3"/>
    <path class="st1" d="M18.6,1.4c0.6,1.3,0.9,3.4,0.8,4.2"/>
    <path class="st1" d="M19,8.1c-0.4,1.3-0.7,4-0.4,4.7"/>
    <path class="st1" d="M20.6,2.5c0.6,2,0.9,2.8,0.5,4.6c-0.4,1.8-0.9,3.7-0.6,4.8"/>
    <path class="st1" d="M22.9,1.7c0.2,1.1,0.3,2.4,0.3,3.1"/>
    <path class="st1" d="M23.2,7.1c-0.1,1.2-0.1,1-0.3,2s-0.2,2.8,0.1,3.5"/>
    <path class="st1" d="M25.3,3c0.6,2.5,1,3.8,0.7,5.2c-0.4,1.4-0.5,3.1-0.3,3.9"/>
    <path class="st1" d="M27.7,3.2c-0.1,1.1,0.1,1.7,0.3,2.6c0.2,0.9,0.4,1.7,0,3.3c-0.4,1.6-0.3,2.6-0.2,3.2"/>
    <path class="st1" d="M29.8,1.6c0,1,0.2,2.9,0.4,3.6"/>
    <path class="st1" d="M30.3,6.9c-0.1,1.3-0.1,1.4-0.3,2.8c-0.2,1.4-0.1,2.6,0.1,3.2"/>
    <path class="st1" d="M31.7,4c0.6,2,0.7,3.7,0.5,5.6"/>
    <path class="st1" d="M34.4,1.3C34.9,3,35,3.8,34.8,5.4"/>
    <path class="st1" d="M34.5,7.4c-0.2,1.7-0.5,3.2-0.3,4.3c0.2,1,0.4,1.5,0.4,1.5"/>
    <path class="st1" d="M37.6,2.7c0.2,2.3,0.2,2.3-0.2,4c-0.4,1.7-0.7,3-0.2,4.3"/>
    <path class="st1" d="M39.4,9c-0.1,1.5,0.2,3,0.5,3.7"/>
    <path class="st1" d="M40.4,1.6c0.2,1.2,0.3,1.8,0.1,3c-0.2,1.2-0.5,1.8-0.5,2.3"/>
    <path class="st1" d="M42.5,2.1c0.4,1.7,0.5,2.8,0.1,5c-0.4,2.1-0.2,3.8,0.3,5.3"/>
    <path class="st1" d="M45.2,1.6c0.3,1.4,0.5,2.3,0.4,3.6"/>
    <path class="st1" d="M45,8.5c-0.2,1.4-0.2,2.5,0.1,3.5"/>
    <path class="st1" d="M47.6,2.6c0.5,2.1,0.8,2.9,0.5,4.7c-0.3,1.9-0.4,3.5-0.2,4.2"/>
    <path class="st1" d="M50.4,1.6c0.3,1.5,0.3,1.8,0.3,2.7"/>
    <path class="st1" d="M50.7,7c-0.2,1.3-1.3,3.5-0.3,5.6"/>
    <path class="st1" d="M52.7,2.7c0.3,1.8,0.2,2.8,0,4.3c-0.2,1.5-0.4,3.3,0.2,4.8"/>
    <path class="st1" d="M2.1,43.7c0.4,1.7,0.5,2.8,0.3,3.9"/>
    <path class="st1" d="M2.3,49.1c-0.4,1.4-0.8,3.9-0.4,4.8"/>
    <path class="st1" d="M4.7,45c0.2,1.6-0.2,2.6-0.4,4s-0.4,3.1-0.1,4.2"/>
    <path class="st1" d="M7.2,44c0.2,1.2,0.1,2.3-0.4,4"/>
    <path class="st1" d="M6.3,49.8C6.2,51,6.1,52.1,6.4,53"/>
    <path class="st1" d="M9.3,45.9c0.1,1.5-0.1,1.2-0.4,2.5c-0.3,1.3-0.3,3.9,0.1,4.8"/>
    <path class="st1" d="M11.7,43.6c0.3,1.2,0.7,1.9,0.3,3.6"/>
    <path class="st1" d="M11.5,48.8c-0.2,0.9-0.6,2.9-0.5,3.9"/>
    <path class="st1" d="M14.5,45c0.1,1.9,0.3,2.4-0.3,4.1c-0.7,1.7-0.8,3.1-0.5,4.2"/>
    <path class="st1" d="M16.4,44.3c0.3,1,0.6,1.6,0.5,2.6"/>
    <path class="st1" d="M16.7,48.4c-0.4,1-1.2,2.8-1.1,4.4"/>
    <path class="st1" d="M19,44.8c0.5,2,0.5,2.9,0,4.3c-0.5,1.5-0.7,2.9-0.3,4.3"/>
    <path class="st1" d="M20.8,43.9c0.4,1.5,0.7,2.5,0.6,3.2"/>
    <path class="st1" d="M21.2,49.5c-0.2,1.4-0.3,2.8-0.5,3.2"/>
    <path class="st1" d="M23.5,44.4c0.5,2,0.7,3,0.2,4.3c-0.5,1.3-0.7,3.1-0.4,4.3"/>
    <path class="st1" d="M25.5,44.1c0.4,1.2,0.4,2.4,0.3,3.3"/>
    <path class="st1" d="M25.3,50c-0.1,0.9-0.3,1.9-0.1,2.6"/>
    <path class="st1" d="M28.1,43.6c0.5,1.8,0.2,2.8-0.2,4.2c-0.4,1.4-0.6,4.6-0.2,5.7"/>
    <path class="st1" d="M30.2,44.1c0.3,0.7,0.4,2,0.3,2.9"/>
    <path class="st1" d="M29.7,50c-0.3,0.9-0.5,2.3-0.3,3.1"/>
    <path class="st1" d="M32.1,44.6c0.5,1.6,0.5,2.5,0.1,4.2c-0.4,1.6-0.7,3.5-0.4,4.6"/>
    <path class="st1" d="M34.1,44.4c0.2,1,0.4,1.9,0.4,2.6"/>
    <path class="st1" d="M34.1,49.2c-0.4,1.1-0.4,3.4-0.2,4.1"/>
    <path class="st1" d="M36.6,44.7c0.4,2.4,0.5,3.4-0.2,4.8c-0.7,1.4-0.9,3.2-0.5,4.3"/>
    <path class="st1" d="M38.8,44.1c0.7,1.3,0.7,1.9,0.5,2.6"/>
    <path class="st1" d="M38.6,49.4c-0.3,0.9-0.4,2.2-0.3,3"/>
    <path class="st1" d="M41.3,44.4c0.8,2,0.7,2.6,0,4.6c-0.7,2-1.2,3.6-0.9,4.7"/>
    <path class="st1" d="M43.6,44c0.2,0.8,0.5,2,0.4,2.5"/>
    <path class="st1" d="M43.5,49c0,1.4-0.5,3.2-0.8,4.3"/>
    <path class="st1" d="M45.6,44c0.2,1,0.2,0.7,0.6,2.4c0.4,1.6,0.1,2.4-0.3,3.5c-0.4,1.2-0.4,1.9-0.4,2.6"/>
    <path class="st1" d="M48.6,44.7c0.3,1.1,0.6,2.6,0.3,3.9c-0.3,1.3-0.9,3.6-0.7,4.8"/>
    <path class="st1" d="M51.3,43.9c0.2,0.7,0.4,1.7,0.4,2.3"/>
    <path class="st1" d="M51.5,47.8c-0.2,1-0.4,1-0.5,2.1c-0.1,1.1-0.1,2.8,0.1,3.3"/>
    <path class="st1" d="M53.6,44.4c0.1,1.3,0.2,1.6-0.2,2.9c-0.3,1.3-0.5,4.6-0.1,5.8"/>
    <path class="st1" d="M35.2,31.5c0.2,2,0.7,2.3,0.3,4.8c-0.3,2.5-0.7,3.7-0.3,4.7"/>
</g>
</svg>
