<!-- Generator: Adobe Illustrator 22.1.0, SVG Export Plug-In  -->
<svg version="1.1"
     xmlns="http://www.w3.org/2000/svg" xmlns:xlink="http://www.w3.org/1999/xlink" xmlns:a="http://ns.adobe.com/AdobeSVGViewerExtensions/3.0/"
     x="0px" y="0px" width="69px" height="66.5px" viewBox="0 0 69 66.5" style="enable-background:new 0 0 69 66.5;"
     xml:space="preserve">
<style type="text/css">
    .st0{fill:none;stroke:#000000;stroke-width:0.3;}
</style>
<defs>
</defs>
<line class="st0" x1="15.1" y1="24.5" x2="10.4" y2="24.5"/>
<line class="st0" x1="5.8" y1="24.5" x2="10.4" y2="24.5"/>
<line class="st0" x1="10.4" y1="26.1" x2="10.4" y2="24.5"/>
<line class="st0" x1="10.4" y1="24.5" x2="10.4" y2="23"/>
<line class="st0" x1="23" y1="24.5" x2="27.6" y2="24.5"/>
<line class="st0" x1="32.3" y1="24.5" x2="27.6" y2="24.5"/>
<line class="st0" x1="27.6" y1="24.5" x2="27.6" y2="23"/>
<line class="st0" x1="27.6" y1="26.1" x2="27.6" y2="24.5"/>
<line class="st0" x1="0" y1="18.7" x2="1.7" y2="18.7"/>
<line class="st0" x1="6.4" y1="18.7" x2="1.7" y2="18.7"/>
<line class="st0" x1="1.7" y1="18.7" x2="1.7" y2="17.2"/>
<line class="st0" x1="1.7" y1="20.4" x2="1.7" y2="18.7"/>
<line class="st0" x1="23.7" y1="18.7" x2="19" y2="18.7"/>
<line class="st0" x1="14.4" y1="18.7" x2="19" y2="18.7"/>
<line class="st0" x1="19" y1="18.7" x2="19" y2="17.2"/>
<line class="st0" x1="19" y1="18.7" x2="19" y2="20.4"/>
<line class="st0" x1="15.1" y1="13" x2="10.4" y2="13"/>
<line class="st0" x1="5.8" y1="13" x2="10.4" y2="13"/>
<line class="st0" x1="10.4" y1="13" x2="10.4" y2="11.5"/>
<line class="st0" x1="10.4" y1="14.7" x2="10.4" y2="13"/>
<line class="st0" x1="23" y1="13" x2="27.6" y2="13"/>
<line class="st0" x1="32.3" y1="13" x2="27.6" y2="13"/>
<line class="st0" x1="27.6" y1="13" x2="27.6" y2="11.5"/>
<line class="st0" x1="27.6" y1="13" x2="27.6" y2="14.7"/>
<line class="st0" x1="0" y1="7.2" x2="1.7" y2="7.2"/>
<line class="st0" x1="6.4" y1="7.2" x2="1.7" y2="7.2"/>
<line class="st0" x1="1.7" y1="5.7" x2="1.7" y2="7.2"/>
<line class="st0" x1="1.7" y1="8.9" x2="1.7" y2="7.2"/>
<line class="st0" x1="23.7" y1="7.2" x2="19" y2="7.2"/>
<line class="st0" x1="14.4" y1="7.2" x2="19" y2="7.2"/>
<line class="st0" x1="19" y1="7.2" x2="19" y2="5.7"/>
<line class="st0" x1="19" y1="8.9" x2="19" y2="7.2"/>
<line class="st0" x1="6.4" y1="30.2" x2="1.7" y2="30.2"/>
<line class="st0" x1="1.7" y1="30.2" x2="0" y2="30.2"/>
<line class="st0" x1="1.7" y1="30.2" x2="1.7" y2="28.8"/>
<line class="st0" x1="1.7" y1="30.2" x2="1.7" y2="31.9"/>
<line class="st0" x1="14.4" y1="30.2" x2="19" y2="30.2"/>
<line class="st0" x1="23.7" y1="30.2" x2="19" y2="30.2"/>
<line class="st0" x1="19" y1="31.9" x2="19" y2="30.2"/>
<line class="st0" x1="19" y1="30.2" x2="19" y2="28.8"/>
<line class="st0" x1="10.4" y1="1.5" x2="15.1" y2="1.5"/>
<line class="st0" x1="5.8" y1="1.5" x2="10.4" y2="1.5"/>
<line class="st0" x1="10.4" y1="3.2" x2="10.4" y2="1.5"/>
<line class="st0" x1="10.4" y1="1.5" x2="10.4" y2="0"/>
<line class="st0" x1="27.6" y1="1.5" x2="32.3" y2="1.5"/>
<line class="st0" x1="23" y1="1.5" x2="27.6" y2="1.5"/>
<line class="st0" x1="27.6" y1="3.2" x2="27.6" y2="1.5"/>
<line class="st0" x1="27.6" y1="1.5" x2="27.6" y2="0"/>
<line class="st0" x1="5.8" y1="59" x2="10.4" y2="59"/>
<line class="st0" x1="15.1" y1="59" x2="10.4" y2="59"/>
<line class="st0" x1="10.4" y1="59" x2="10.4" y2="57.5"/>
<line class="st0" x1="10.4" y1="60.7" x2="10.4" y2="59"/>
<line class="st0" x1="32.3" y1="59" x2="27.6" y2="59"/>
<line class="st0" x1="23" y1="59" x2="27.6" y2="59"/>
<line class="st0" x1="27.6" y1="59" x2="27.6" y2="60.7"/>
<line class="st0" x1="27.6" y1="57.5" x2="27.6" y2="59"/>
<line class="st0" x1="1.7" y1="53.2" x2="0" y2="53.2"/>
<line class="st0" x1="6.4" y1="53.2" x2="1.7" y2="53.2"/>
<line class="st0" x1="1.7" y1="53.2" x2="1.7" y2="54.9"/>
<line class="st0" x1="1.7" y1="53.2" x2="1.7" y2="51.8"/>
<line class="st0" x1="14.4" y1="53.2" x2="19" y2="53.2"/>
<line class="st0" x1="23.7" y1="53.2" x2="19" y2="53.2"/>
<line class="st0" x1="19" y1="53.2" x2="19" y2="54.9"/>
<line class="st0" x1="19" y1="53.2" x2="19" y2="51.8"/>
<line class="st0" x1="15.1" y1="47.5" x2="10.4" y2="47.5"/>
<line class="st0" x1="5.8" y1="47.5" x2="10.4" y2="47.5"/>
<line class="st0" x1="10.4" y1="49.2" x2="10.4" y2="47.5"/>
<line class="st0" x1="10.4" y1="47.5" x2="10.4" y2="46"/>
<line class="st0" x1="32.3" y1="47.5" x2="27.6" y2="47.5"/>
<line class="st0" x1="23" y1="47.5" x2="27.6" y2="47.5"/>
<line class="st0" x1="27.6" y1="47.5" x2="27.6" y2="49.2"/>
<line class="st0" x1="27.6" y1="47.5" x2="27.6" y2="46"/>
<line class="st0" x1="0" y1="41.8" x2="1.7" y2="41.8"/>
<line class="st0" x1="6.4" y1="41.8" x2="1.7" y2="41.8"/>
<line class="st0" x1="1.7" y1="43.5" x2="1.7" y2="41.8"/>
<line class="st0" x1="1.7" y1="40.3" x2="1.7" y2="41.8"/>
<line class="st0" x1="14.4" y1="41.8" x2="19" y2="41.8"/>
<line class="st0" x1="23.7" y1="41.8" x2="19" y2="41.8"/>
<line class="st0" x1="19" y1="43.5" x2="19" y2="41.8"/>
<line class="st0" x1="19" y1="41.8" x2="19" y2="40.3"/>
<line class="st0" x1="1.7" y1="64.8" x2="0" y2="64.8"/>
<line class="st0" x1="6.4" y1="64.8" x2="1.7" y2="64.8"/>
<line class="st0" x1="1.7" y1="66.5" x2="1.7" y2="64.8"/>
<line class="st0" x1="1.7" y1="63.3" x2="1.7" y2="64.8"/>
<line class="st0" x1="23.7" y1="64.8" x2="19" y2="64.8"/>
<line class="st0" x1="19" y1="64.8" x2="14.4" y2="64.8"/>
<line class="st0" x1="19" y1="63.3" x2="19" y2="64.8"/>
<line class="st0" x1="19" y1="64.8" x2="19" y2="66.5"/>
<line class="st0" x1="5.8" y1="36" x2="10.4" y2="36"/>
<line class="st0" x1="15.1" y1="36" x2="10.4" y2="36"/>
<line class="st0" x1="10.4" y1="36" x2="10.4" y2="34.5"/>
<line class="st0" x1="10.4" y1="37.7" x2="10.4" y2="36"/>
<line class="st0" x1="23" y1="36" x2="27.6" y2="36"/>
<line class="st0" x1="32.3" y1="36" x2="27.6" y2="36"/>
<line class="st0" x1="27.6" y1="36" x2="27.6" y2="34.5"/>
<line class="st0" x1="27.6" y1="36" x2="27.6" y2="37.7"/>
<line class="st0" x1="40.2" y1="24.5" x2="44.9" y2="24.5"/>
<line class="st0" x1="49.6" y1="24.5" x2="44.9" y2="24.5"/>
<line class="st0" x1="44.9" y1="24.5" x2="44.9" y2="23"/>
<line class="st0" x1="44.9" y1="26.1" x2="44.9" y2="24.5"/>
<line class="st0" x1="62.1" y1="24.5" x2="66.8" y2="24.5"/>
<line class="st0" x1="57.5" y1="24.5" x2="62.1" y2="24.5"/>
<line class="st0" x1="62.1" y1="24.5" x2="62.1" y2="23"/>
<line class="st0" x1="62.1" y1="24.5" x2="62.1" y2="26.1"/>
<line class="st0" x1="40.9" y1="18.7" x2="36.2" y2="18.7"/>
<line class="st0" x1="31.6" y1="18.7" x2="36.2" y2="18.7"/>
<line class="st0" x1="36.2" y1="18.7" x2="36.2" y2="20.4"/>
<line class="st0" x1="36.2" y1="18.7" x2="36.2" y2="17.2"/>
<line class="st0" x1="58.2" y1="18.7" x2="53.5" y2="18.7"/>
<line class="st0" x1="48.9" y1="18.7" x2="53.5" y2="18.7"/>
<line class="st0" x1="53.5" y1="18.7" x2="53.5" y2="20.4"/>
<line class="st0" x1="53.5" y1="18.7" x2="53.5" y2="17.2"/>
<line class="st0" x1="69" y1="18.7" x2="66.1" y2="18.7"/>
<line class="st0" x1="40.2" y1="13" x2="44.9" y2="13"/>
<line class="st0" x1="49.6" y1="13" x2="44.9" y2="13"/>
<line class="st0" x1="44.9" y1="13" x2="44.9" y2="11.5"/>
<line class="st0" x1="44.9" y1="13" x2="44.9" y2="14.7"/>
<line class="st0" x1="57.5" y1="13" x2="62.1" y2="13"/>
<line class="st0" x1="62.1" y1="13" x2="66.8" y2="13"/>
<line class="st0" x1="62.1" y1="13" x2="62.1" y2="14.7"/>
<line class="st0" x1="62.1" y1="13" x2="62.1" y2="11.5"/>
<line class="st0" x1="40.9" y1="7.2" x2="36.2" y2="7.2"/>
<line class="st0" x1="31.6" y1="7.2" x2="36.2" y2="7.2"/>
<line class="st0" x1="36.2" y1="8.9" x2="36.2" y2="7.2"/>
<line class="st0" x1="36.2" y1="7.2" x2="36.2" y2="5.7"/>
<line class="st0" x1="48.9" y1="7.2" x2="53.5" y2="7.2"/>
<line class="st0" x1="58.2" y1="7.2" x2="53.5" y2="7.2"/>
<line class="st0" x1="53.5" y1="8.9" x2="53.5" y2="7.2"/>
<line class="st0" x1="53.5" y1="7.2" x2="53.5" y2="5.7"/>
<line class="st0" x1="66.1" y1="7.2" x2="69" y2="7.2"/>
<line class="st0" x1="40.9" y1="30.2" x2="36.2" y2="30.2"/>
<line class="st0" x1="31.6" y1="30.2" x2="36.2" y2="30.2"/>
<line class="st0" x1="36.2" y1="30.2" x2="36.2" y2="31.9"/>
<line class="st0" x1="36.2" y1="30.2" x2="36.2" y2="28.8"/>
<line class="st0" x1="48.9" y1="30.2" x2="53.5" y2="30.2"/>
<line class="st0" x1="58.2" y1="30.2" x2="53.5" y2="30.2"/>
<line class="st0" x1="53.5" y1="30.2" x2="53.5" y2="31.9"/>
<line class="st0" x1="53.5" y1="30.2" x2="53.5" y2="28.8"/>
<line class="st0" x1="66.1" y1="30.2" x2="69" y2="30.2"/>
<line class="st0" x1="44.9" y1="1.5" x2="49.6" y2="1.5"/>
<line class="st0" x1="40.2" y1="1.5" x2="44.9" y2="1.5"/>
<line class="st0" x1="44.9" y1="1.5" x2="44.9" y2="0"/>
<line class="st0" x1="44.9" y1="3.2" x2="44.9" y2="1.5"/>
<line class="st0" x1="57.5" y1="1.5" x2="62.1" y2="1.5"/>
<line class="st0" x1="62.1" y1="1.5" x2="66.8" y2="1.5"/>
<line class="st0" x1="62.1" y1="1.5" x2="62.1" y2="0"/>
<line class="st0" x1="62.1" y1="3.2" x2="62.1" y2="1.5"/>
<line class="st0" x1="49.6" y1="59" x2="44.9" y2="59"/>
<line class="st0" x1="40.2" y1="59" x2="44.9" y2="59"/>
<line class="st0" x1="44.9" y1="57.5" x2="44.9" y2="59"/>
<line class="st0" x1="44.9" y1="59" x2="44.9" y2="60.7"/>
<line class="st0" x1="62.1" y1="59" x2="66.8" y2="59"/>
<line class="st0" x1="57.5" y1="59" x2="62.1" y2="59"/>
<line class="st0" x1="62.1" y1="59" x2="62.1" y2="60.7"/>
<line class="st0" x1="62.1" y1="59" x2="62.1" y2="57.5"/>
<line class="st0" x1="31.6" y1="53.2" x2="36.2" y2="53.2"/>
<line class="st0" x1="40.9" y1="53.2" x2="36.2" y2="53.2"/>
<line class="st0" x1="36.2" y1="53.2" x2="36.2" y2="54.9"/>
<line class="st0" x1="36.2" y1="53.2" x2="36.2" y2="51.8"/>
<line class="st0" x1="53.5" y1="53.2" x2="58.2" y2="53.2"/>
<line class="st0" x1="48.9" y1="53.2" x2="53.5" y2="53.2"/>
<line class="st0" x1="53.5" y1="53.2" x2="53.5" y2="54.9"/>
<line class="st0" x1="53.5" y1="53.2" x2="53.5" y2="51.8"/>
<line class="st0" x1="66.1" y1="53.2" x2="69" y2="53.2"/>
<line class="st0" x1="49.6" y1="47.5" x2="44.9" y2="47.5"/>
<line class="st0" x1="40.2" y1="47.5" x2="44.9" y2="47.5"/>
<line class="st0" x1="44.9" y1="47.5" x2="44.9" y2="49.2"/>
<line class="st0" x1="44.9" y1="47.5" x2="44.9" y2="46"/>
<line class="st0" x1="62.1" y1="47.5" x2="66.8" y2="47.5"/>
<line class="st0" x1="62.1" y1="47.5" x2="57.5" y2="47.5"/>
<line class="st0" x1="62.1" y1="47.5" x2="62.1" y2="46"/>
<line class="st0" x1="62.1" y1="47.5" x2="62.1" y2="49.2"/>
<line class="st0" x1="40.9" y1="41.8" x2="36.2" y2="41.8"/>
<line class="st0" x1="31.6" y1="41.8" x2="36.2" y2="41.8"/>
<line class="st0" x1="36.2" y1="40.3" x2="36.2" y2="41.8"/>
<line class="st0" x1="36.2" y1="41.8" x2="36.2" y2="43.5"/>
<line class="st0" x1="53.5" y1="41.8" x2="58.2" y2="41.8"/>
<line class="st0" x1="48.9" y1="41.8" x2="53.5" y2="41.8"/>
<line class="st0" x1="53.5" y1="41.8" x2="53.5" y2="40.3"/>
<line class="st0" x1="53.5" y1="41.8" x2="53.5" y2="43.5"/>
<line class="st0" x1="66.1" y1="41.8" x2="69" y2="41.8"/>
<line class="st0" x1="40.9" y1="64.8" x2="36.2" y2="64.8"/>
<line class="st0" x1="36.2" y1="64.8" x2="31.6" y2="64.8"/>
<line class="st0" x1="36.2" y1="63.3" x2="36.2" y2="64.8"/>
<line class="st0" x1="36.2" y1="64.8" x2="36.2" y2="66.5"/>
<line class="st0" x1="58.2" y1="64.8" x2="53.5" y2="64.8"/>
<line class="st0" x1="53.5" y1="64.8" x2="48.9" y2="64.8"/>
<line class="st0" x1="53.5" y1="63.3" x2="53.5" y2="64.8"/>
<line class="st0" x1="53.5" y1="64.8" x2="53.5" y2="66.5"/>
<line class="st0" x1="66.1" y1="64.8" x2="69" y2="64.8"/>
<line class="st0" x1="40.2" y1="36" x2="44.9" y2="36"/>
<line class="st0" x1="49.6" y1="36" x2="44.9" y2="36"/>
<line class="st0" x1="44.9" y1="36" x2="44.9" y2="34.5"/>
<line class="st0" x1="44.9" y1="36" x2="44.9" y2="37.7"/>
<line class="st0" x1="57.5" y1="36" x2="62.1" y2="36"/>
<line class="st0" x1="66.8" y1="36" x2="62.1" y2="36"/>
<line class="st0" x1="62.1" y1="36" x2="62.1" y2="37.7"/>
<line class="st0" x1="62.1" y1="34.5" x2="62.1" y2="36"/>
</svg>
