<!-- Generator: Adobe Illustrator 22.1.0, SVG Export Plug-In  -->
<svg version="1.1"
     xmlns="http://www.w3.org/2000/svg" xmlns:xlink="http://www.w3.org/1999/xlink" xmlns:a="http://ns.adobe.com/AdobeSVGViewerExtensions/3.0/"
     x="0px" y="0px" width="79.4px" height="79.6px" viewBox="0 0 79.4 79.6" style="enable-background:new 0 0 79.4 79.6;"
     xml:space="preserve">
<style type="text/css">
    .st0{fill:none;stroke:#000000;stroke-width:0.3;}
</style>
<defs>
</defs>
<polyline class="st0" points="37.1,15.7 37.3,17.7 35.4,17 "/>
<polyline class="st0" points="22.9,14.7 24,16.5 21.9,16.6 "/>
<polyline class="st0" points="56.9,22.4 57.9,24.1 55.9,24.2 "/>
<polyline class="st0" points="14.9,74.4 15.9,76.1 13.9,76.3 "/>
<polyline class="st0" points="68.4,34.9 69.4,36.7 67.4,36.8 "/>
<polyline class="st0" points="42.6,61.8 43.6,63.6 41.6,63.7 "/>
<polyline class="st0" points="20.6,3.3 20,1.4 22,1.7 "/>
<polyline class="st0" points="28.8,8.7 30.6,9.7 28.9,10.8 "/>
<polyline class="st0" points="54.2,9 56,10 54.3,11.1 "/>
<polyline class="st0" points="16.4,36.2 16.6,38.2 14.7,37.6 "/>
<polyline class="st0" points="70.3,22.2 70.5,24.2 68.6,23.6 "/>
<polyline class="st0" points="41.9,73.7 42.1,75.7 40.2,75 "/>
<polyline class="st0" points="62.1,39.3 62.3,41.3 60.4,40.6 "/>
<polyline class="st0" points="62.9,28.2 63.1,30.2 61.2,29.5 "/>
<polyline class="st0" points="48.1,28.6 48.3,30.6 46.4,29.9 "/>
<polyline class="st0" points="3.1,39.1 1.2,38.2 2.8,37 "/>
<polyline class="st0" points="14.9,8.9 13.7,10.6 12.8,8.8 "/>
<polyline class="st0" points="30.7,23.4 28.8,23 30,21.4 "/>
<polyline class="st0" points="35.5,30.6 36.6,28.9 37.7,30.7 "/>
<polyline class="st0" points="29,46.8 29.1,48.8 27.2,48 "/>
<polyline class="st0" points="49.8,0.9 49.9,2.9 48.1,2.1 "/>
<polyline class="st0" points="68.6,75.2 68.6,77.2 66.8,76.3 "/>
<polyline class="st0" points="15.8,23.9 17.5,22.7 17.8,24.7 "/>
<polyline class="st0" points="8.5,28.8 10.1,29.9 8.4,31 "/>
<polyline class="st0" points="29.6,61.2 31.3,62.3 29.6,63.4 "/>
<polyline class="st0" points="23.9,29.5 22.3,30.7 21.9,28.8 "/>
<polyline class="st0" points="76.1,15.7 74.6,16.9 74.2,14.9 "/>
<polyline class="st0" points="50.4,42.4 48.8,43.6 48.4,41.6 "/>
<polyline class="st0" points="43.8,9.8 42.2,11.1 41.8,9.1 "/>
<polyline class="st0" points="1.9,47.5 1.8,49.6 0.1,48.6 "/>
<polyline class="st0" points="48.7,54.1 48.6,56.1 46.8,55.1 "/>
<polyline class="st0" points="10,56.2 8.1,55.7 9.4,54.2 "/>
<polyline class="st0" points="57.1,76.8 55.1,76.3 56.4,74.8 "/>
<polyline class="st0" points="16.7,63 15,61.9 16.7,60.8 "/>
<polyline class="st0" points="75.3,68.6 73.6,67.6 75.3,66.5 "/>
<polyline class="st0" points="56.6,50.7 54.9,49.7 56.6,48.6 "/>
<polyline class="st0" points="21.1,56.2 23.1,55.9 22.6,57.8 "/>
<polyline class="st0" points="78.6,32.7 77.4,31.1 79.4,30.7 "/>
<polyline class="st0" points="3.6,61.8 4.6,63.6 2.6,63.7 "/>
<polyline class="st0" points="77.9,56.1 75.9,56.4 76.5,54.5 "/>
<polyline class="st0" points="35.5,43.2 37.1,41.9 37.6,43.8 "/>
<polyline class="st0" points="67,62.9 68.5,61.6 69,63.6 "/>
<polyline class="st0" points="54.4,35.6 56,34.3 56.5,36.2 "/>
<polyline class="st0" points="41.9,23.9 43.4,22.6 43.9,24.6 "/>
<polyline class="st0" points="34.6,3.8 36.1,2.4 36.6,4.4 "/>
<polyline class="st0" points="20.5,43.9 21.1,42 22.6,43.3 "/>
<polyline class="st0" points="60.6,17.7 61.1,15.7 62.6,17.1 "/>
<polyline class="st0" points="33.5,70.4 34.1,68.5 35.6,69.8 "/>
<polyline class="st0" points="41.1,37.4 42.5,35.9 43.1,37.8 "/>
<polyline class="st0" points="8.2,42.3 10.1,42.9 8.8,44.4 "/>
<polyline class="st0" points="60.7,1.3 62.6,1.9 61.3,3.4 "/>
<polyline class="st0" points="76,6.2 74.2,6.9 74.3,4.9 "/>
<polyline class="st0" points="47.7,68.8 49.6,69.4 48.3,70.9 "/>
<polyline class="st0" points="22.7,68.6 24.6,69.2 23.2,70.7 "/>
<polyline class="st0" points="77.1,77.4 79,78 77.6,79.5 "/>
<polyline class="st0" points="2.6,8.6 3.4,10.4 1.4,10.3 "/>
<polyline class="st0" points="7.9,16.2 9.9,16.2 9,18 "/>
<polyline class="st0" points="0.9,22.2 2.9,22.2 2,24 "/>
<polyline class="st0" points="16.4,49.3 17.1,51.2 15.1,51 "/>
<polyline class="st0" points="67.7,48.3 68.4,50.2 66.4,49.9 "/>
<polyline class="st0" points="63,55 63.6,56.9 61.6,56.7 "/>
<polyline class="st0" points="35.8,55.1 33.8,54.9 34.8,53.2 "/>
<polyline class="st0" points="29.3,77.4 27.2,77.3 28.3,75.6 "/>
<polyline class="st0" points="56.7,63.1 54.6,62.9 55.7,61.2 "/>
<polyline class="st0" points="5,73.2 3,73.1 4,71.3 "/>
<polyline class="st0" points="30.3,36.8 28.3,37 29,35.1 "/>
<polyline class="st0" points="68.3,10.4 66.3,10.6 67,8.7 "/>
<polyline class="st0" points="49.3,19.1 47.3,19.2 48.1,17.4 "/>
<polyline class="st0" points="12.7,68.9 10.7,69.1 11.4,67.2 "/>
<polyline class="st0" points="76.4,43.7 74.4,43.8 75.1,42 "/>
<polyline class="st0" points="64.6,70.2 62.6,70.4 63.3,68.5 "/>
<polyline class="st0" points="42.1,49.1 44.1,49.6 42.8,51.1 "/>
<polyline class="st0" points="9.1,2.1 9.9,0.3 11.2,1.8 "/>
</svg>
