<!-- Generator: Adobe Illustrator 22.1.0, SVG Export Plug-In  -->
<svg version="1.1"
     xmlns="http://www.w3.org/2000/svg" xmlns:xlink="http://www.w3.org/1999/xlink" xmlns:a="http://ns.adobe.com/AdobeSVGViewerExtensions/3.0/"
     x="0px" y="0px" width="79.6px" height="79.8px" viewBox="0 0 79.6 79.8" style="enable-background:new 0 0 79.6 79.8;"
     xml:space="preserve">
<style type="text/css">
    .st0{fill:none;stroke:#000000;stroke-width:0.6;stroke-linecap:round;}
    .st1{fill:none;stroke:#000000;stroke-width:0.3;}
</style>
<defs>
</defs>
<line class="st0" x1="6.8" y1="9.7" x2="6.8" y2="9.7"/>
<line class="st0" x1="6.8" y1="13" x2="6.8" y2="13"/>
<line class="st0" x1="2.2" y1="13.1" x2="2.2" y2="13.1"/>
<line class="st0" x1="10.8" y1="12.6" x2="10.8" y2="12.6"/>
<line class="st0" x1="13.5" y1="14.5" x2="13.5" y2="14.5"/>
<line class="st0" x1="16.9" y1="15.1" x2="16.9" y2="15.1"/>
<line class="st0" x1="23.4" y1="6.6" x2="23.4" y2="6.6"/>
<line class="st0" x1="20.4" y1="12.4" x2="20.4" y2="12.4"/>
<line class="st0" x1="13.9" y1="17.8" x2="13.9" y2="17.8"/>
<line class="st0" x1="16" y1="11.8" x2="16" y2="11.8"/>
<line class="st0" x1="16.5" y1="6" x2="16.5" y2="6"/>
<line class="st0" x1="20" y1="8.4" x2="20" y2="8.4"/>
<line class="st0" x1="23.7" y1="9.8" x2="23.7" y2="9.8"/>
<line class="st0" x1="19.7" y1="3.4" x2="19.7" y2="3.4"/>
<line class="st0" x1="11.4" y1="8.6" x2="11.4" y2="8.6"/>
<line class="st0" x1="4.7" y1="6.8" x2="4.7" y2="6.8"/>
<line class="st0" x1="6" y1="2.1" x2="6" y2="2.1"/>
<line class="st0" x1="12.6" y1="0.4" x2="12.6" y2="0.4"/>
<line class="st0" x1="15.9" y1="2.3" x2="15.9" y2="2.3"/>
<line class="st0" x1="2.1" y1="3" x2="2.1" y2="3"/>
<line class="st0" x1="0.6" y1="7.2" x2="0.6" y2="7.2"/>
<line class="st0" x1="13.4" y1="4.7" x2="13.4" y2="4.7"/>
<line class="st0" x1="8.2" y1="6.2" x2="8.2" y2="6.2"/>
<line class="st0" x1="6.8" y1="27.4" x2="6.8" y2="27.4"/>
<line class="st0" x1="3" y1="27.6" x2="3" y2="27.6"/>
<line class="st0" x1="6.8" y1="30.7" x2="6.8" y2="30.7"/>
<line class="st0" x1="2.2" y1="30.8" x2="2.2" y2="30.8"/>
<line class="st0" x1="12.2" y1="29.8" x2="12.2" y2="29.8"/>
<line class="st0" x1="14.2" y1="32.4" x2="14.2" y2="32.4"/>
<line class="st0" x1="9.4" y1="33.5" x2="9.4" y2="33.5"/>
<line class="st0" x1="4.4" y1="33.8" x2="4.4" y2="33.8"/>
<line class="st0" x1="6.7" y1="36.5" x2="6.7" y2="36.5"/>
<line class="st0" x1="10.5" y1="37.9" x2="10.5" y2="37.9"/>
<line class="st0" x1="17.2" y1="32.8" x2="17.2" y2="32.8"/>
<line class="st0" x1="12.2" y1="35.6" x2="12.2" y2="35.6"/>
<line class="st0" x1="16" y1="28.7" x2="16" y2="28.7"/>
<line class="st0" x1="15.8" y1="26.1" x2="15.8" y2="26.1"/>
<line class="st0" x1="20" y1="26.1" x2="20" y2="26.1"/>
<line class="st0" x1="19.7" y1="21.1" x2="19.7" y2="21.1"/>
<line class="st0" x1="19.3" y1="16.7" x2="19.3" y2="16.7"/>
<line class="st0" x1="11.4" y1="26.3" x2="11.4" y2="26.3"/>
<line class="st0" x1="4.7" y1="24.5" x2="4.7" y2="24.5"/>
<line class="st0" x1="4" y1="16.2" x2="4" y2="16.2"/>
<line class="st0" x1="6" y1="19.8" x2="6" y2="19.8"/>
<line class="st0" x1="10" y1="20.1" x2="10" y2="20.1"/>
<line class="st0" x1="15.9" y1="20" x2="15.9" y2="20"/>
<line class="st0" x1="2.4" y1="19.7" x2="2.4" y2="19.7"/>
<line class="st0" x1="0.6" y1="24.9" x2="0.6" y2="24.9"/>
<line class="st0" x1="13.4" y1="22.4" x2="13.4" y2="22.4"/>
<line class="st0" x1="8.2" y1="23.9" x2="8.2" y2="23.9"/>
<line class="st0" x1="33.6" y1="9.7" x2="33.6" y2="9.7"/>
<line class="st0" x1="33.5" y1="13" x2="33.5" y2="13"/>
<line class="st0" x1="28.9" y1="13.1" x2="28.9" y2="13.1"/>
<line class="st0" x1="25.4" y1="12.9" x2="25.4" y2="12.9"/>
<line class="st0" x1="27" y1="16.3" x2="27" y2="16.3"/>
<line class="st0" x1="22.7" y1="19.5" x2="22.7" y2="19.5"/>
<line class="st0" x1="22.5" y1="22.9" x2="22.5" y2="22.9"/>
<line class="st0" x1="23.9" y1="26.3" x2="23.9" y2="26.3"/>
<line class="st0" x1="25.7" y1="21.3" x2="25.7" y2="21.3"/>
<line class="st0" x1="37.6" y1="12.6" x2="37.6" y2="12.6"/>
<line class="st0" x1="40.3" y1="14.5" x2="40.3" y2="14.5"/>
<line class="st0" x1="44.1" y1="15" x2="44.1" y2="15"/>
<line class="st0" x1="40.7" y1="17.8" x2="40.7" y2="17.8"/>
<line class="st0" x1="42.8" y1="11.8" x2="42.8" y2="11.8"/>
<line class="st0" x1="42.4" y1="6" x2="42.4" y2="6"/>
<line class="st0" x1="46.7" y1="10" x2="46.7" y2="10"/>
<line class="st0" x1="46.1" y1="6.6" x2="46.1" y2="6.6"/>
<line class="st0" x1="46.4" y1="3.4" x2="46.4" y2="3.4"/>
<line class="st0" x1="38.2" y1="8.6" x2="38.2" y2="8.6"/>
<line class="st0" x1="31.4" y1="6.8" x2="31.4" y2="6.8"/>
<line class="st0" x1="32.8" y1="2.1" x2="32.8" y2="2.1"/>
<line class="st0" x1="39.3" y1="0.4" x2="39.3" y2="0.4"/>
<line class="st0" x1="42.7" y1="2.3" x2="42.7" y2="2.3"/>
<line class="st0" x1="49.9" y1="79" x2="49.9" y2="79"/>
<line class="st0" x1="28.8" y1="3" x2="28.8" y2="3"/>
<line class="st0" x1="25.5" y1="4" x2="25.5" y2="4"/>
<line class="st0" x1="24.7" y1="0.4" x2="24.7" y2="0.4"/>
<line class="st0" x1="27.3" y1="7.2" x2="27.3" y2="7.2"/>
<line class="st0" x1="38.7" y1="3.6" x2="38.7" y2="3.6"/>
<line class="st0" x1="34.9" y1="6.2" x2="34.9" y2="6.2"/>
<line class="st0" x1="33.6" y1="27.4" x2="33.6" y2="27.4"/>
<line class="st0" x1="29.7" y1="26.8" x2="29.7" y2="26.8"/>
<line class="st0" x1="26" y1="27.9" x2="26" y2="27.9"/>
<line class="st0" x1="19.2" y1="30.5" x2="19.2" y2="30.5"/>
<line class="st0" x1="33.5" y1="30.7" x2="33.5" y2="30.7"/>
<line class="st0" x1="25.5" y1="31.8" x2="25.5" y2="31.8"/>
<line class="st0" x1="24.7" y1="35.1" x2="24.7" y2="35.1"/>
<line class="st0" x1="19.7" y1="36" x2="19.7" y2="36"/>
<line class="st0" x1="21.4" y1="38.6" x2="21.4" y2="38.6"/>
<line class="st0" x1="55.4" y1="33.3" x2="55.4" y2="33.3"/>
<line class="st0" x1="51.9" y1="35.6" x2="51.9" y2="35.6"/>
<line class="st0" x1="60.2" y1="35.5" x2="60.2" y2="35.5"/>
<line class="st0" x1="77.8" y1="37.2" x2="77.8" y2="37.2"/>
<line class="st0" x1="21.3" y1="32.9" x2="21.3" y2="32.9"/>
<line class="st0" x1="29.5" y1="30.2" x2="29.5" y2="30.2"/>
<line class="st0" x1="40.2" y1="28.9" x2="40.2" y2="28.9"/>
<line class="st0" x1="40.3" y1="32.2" x2="40.3" y2="32.2"/>
<line class="st0" x1="36.2" y1="33.5" x2="36.2" y2="33.5"/>
<line class="st0" x1="30.7" y1="33.7" x2="30.7" y2="33.7"/>
<line class="st0" x1="33.4" y1="36.5" x2="33.4" y2="36.5"/>
<line class="st0" x1="37.3" y1="37.9" x2="37.3" y2="37.9"/>
<line class="st0" x1="44.2" y1="34.3" x2="44.2" y2="34.3"/>
<line class="st0" x1="39.2" y1="35.6" x2="39.2" y2="35.6"/>
<line class="st0" x1="43.4" y1="30.4" x2="43.4" y2="30.4"/>
<line class="st0" x1="42.5" y1="26.1" x2="42.5" y2="26.1"/>
<line class="st0" x1="45.5" y1="28.8" x2="45.5" y2="28.8"/>
<line class="st0" x1="48.5" y1="26.3" x2="48.5" y2="26.3"/>
<line class="st0" x1="51.3" y1="23.8" x2="51.3" y2="23.8"/>
<line class="st0" x1="51.8" y1="27.3" x2="51.8" y2="27.3"/>
<line class="st0" x1="54.5" y1="25.7" x2="54.5" y2="25.7"/>
<line class="st0" x1="55.2" y1="29.4" x2="55.2" y2="29.4"/>
<line class="st0" x1="58" y1="30.2" x2="58" y2="30.2"/>
<line class="st0" x1="52.4" y1="30.9" x2="52.4" y2="30.9"/>
<line class="st0" x1="49" y1="33.5" x2="49" y2="33.5"/>
<line class="st0" x1="53.7" y1="20.9" x2="53.7" y2="20.9"/>
<line class="st0" x1="46.2" y1="20.1" x2="46.2" y2="20.1"/>
<line class="st0" x1="46" y1="16.7" x2="46" y2="16.7"/>
<line class="st0" x1="38.2" y1="26.3" x2="38.2" y2="26.3"/>
<line class="st0" x1="32.2" y1="24.6" x2="32.2" y2="24.6"/>
<line class="st0" x1="46.4" y1="36.3" x2="46.4" y2="36.3"/>
<line class="st0" x1="31.3" y1="16.3" x2="31.3" y2="16.3"/>
<line class="st0" x1="32.8" y1="19.8" x2="32.8" y2="19.8"/>
<line class="st0" x1="36.8" y1="20.1" x2="36.8" y2="20.1"/>
<line class="st0" x1="42.7" y1="20" x2="42.7" y2="20"/>
<line class="st0" x1="28.6" y1="19.8" x2="28.6" y2="19.8"/>
<line class="st0" x1="26.2" y1="24.8" x2="26.2" y2="24.8"/>
<line class="st0" x1="40.2" y1="22.4" x2="40.2" y2="22.4"/>
<line class="st0" x1="35.7" y1="23.6" x2="35.7" y2="23.6"/>
<line class="st0" x1="79.3" y1="11.1" x2="79.3" y2="11.1"/>
<line class="st0" x1="79.3" y1="28.8" x2="79.3" y2="28.8"/>
<line class="st0" x1="79" y1="17.6" x2="79" y2="17.6"/>
<line class="st0" x1="71.5" y1="9.1" x2="71.5" y2="9.1"/>
<line class="st0" x1="71.5" y1="12.4" x2="71.5" y2="12.4"/>
<line class="st0" x1="75" y1="9.8" x2="75" y2="9.8"/>
<line class="st0" x1="76.2" y1="12.5" x2="76.2" y2="12.5"/>
<line class="st0" x1="67.5" y1="12.1" x2="67.5" y2="12.1"/>
<line class="st0" x1="64.8" y1="13.9" x2="64.8" y2="13.9"/>
<line class="st0" x1="59.4" y1="12.6" x2="59.4" y2="12.6"/>
<line class="st0" x1="63.4" y1="8" x2="63.4" y2="8"/>
<line class="st0" x1="62.3" y1="11.2" x2="62.3" y2="11.2"/>
<line class="st0" x1="61.8" y1="5.4" x2="61.8" y2="5.4"/>
<line class="st0" x1="58.1" y1="6.6" x2="58.1" y2="6.6"/>
<line class="st0" x1="58.7" y1="2.8" x2="58.7" y2="2.8"/>
<line class="st0" x1="54.9" y1="1" x2="54.9" y2="1"/>
<line class="st0" x1="52.3" y1="3" x2="52.3" y2="3"/>
<line class="st0" x1="55.4" y1="3.9" x2="55.4" y2="3.9"/>
<line class="st0" x1="53.2" y1="6.1" x2="53.2" y2="6.1"/>
<line class="st0" x1="50.2" y1="7.5" x2="50.2" y2="7.5"/>
<line class="st0" x1="51.7" y1="10.6" x2="51.7" y2="10.6"/>
<line class="st0" x1="65.2" y1="18.4" x2="65.2" y2="18.4"/>
<line class="st0" x1="47.7" y1="13.1" x2="47.7" y2="13.1"/>
<line class="st0" x1="52.2" y1="14.1" x2="52.2" y2="14.1"/>
<line class="st0" x1="58.7" y1="9" x2="58.7" y2="9"/>
<line class="st0" x1="56.3" y1="13.6" x2="56.3" y2="13.6"/>
<line class="st0" x1="55.3" y1="17" x2="55.3" y2="17"/>
<line class="st0" x1="51.5" y1="18.1" x2="51.5" y2="18.1"/>
<line class="st0" x1="49.7" y1="21" x2="49.7" y2="21"/>
<line class="st0" x1="46.4" y1="24.3" x2="46.4" y2="24.3"/>
<line class="st0" x1="66.9" y1="8" x2="66.9" y2="8"/>
<line class="st0" x1="77.5" y1="1.2" x2="77.5" y2="1.2"/>
<line class="st0" x1="72.3" y1="1.6" x2="72.3" y2="1.6"/>
<line class="st0" x1="65.7" y1="0.4" x2="65.7" y2="0.4"/>
<line class="st0" x1="68" y1="2.6" x2="68" y2="2.6"/>
<line class="st0" x1="77" y1="6.7" x2="77" y2="6.7"/>
<line class="st0" x1="75.2" y1="3.5" x2="75.2" y2="3.5"/>
<line class="st0" x1="64.9" y1="4.1" x2="64.9" y2="4.1"/>
<line class="st0" x1="21.4" y1="78.1" x2="21.4" y2="78.1"/>
<line class="st0" x1="8.9" y1="79.5" x2="8.9" y2="79.5"/>
<line class="st0" x1="0.6" y1="79.1" x2="0.6" y2="79.1"/>
<line class="st0" x1="16.7" y1="78.8" x2="16.7" y2="78.8"/>
<line class="st0" x1="29.2" y1="56.6" x2="29.2" y2="56.6"/>
<line class="st0" x1="42.9" y1="78.3" x2="42.9" y2="78.3"/>
<line class="st0" x1="28.6" y1="79" x2="28.6" y2="79"/>
<line class="st0" x1="45.9" y1="68.2" x2="45.9" y2="68.2"/>
<line class="st0" x1="56.6" y1="78.8" x2="56.6" y2="78.8"/>
<line class="st0" x1="45.9" y1="79.5" x2="45.9" y2="79.5"/>
<line class="st0" x1="69.6" y1="79.3" x2="69.6" y2="79.3"/>
<line class="st0" x1="61.6" y1="79.1" x2="61.6" y2="79.1"/>
<line class="st0" x1="70.2" y1="5.6" x2="70.2" y2="5.6"/>
<line class="st0" x1="71.5" y1="26.8" x2="71.5" y2="26.8"/>
<line class="st0" x1="75.3" y1="27.1" x2="75.3" y2="27.1"/>
<line class="st0" x1="71.9" y1="31.8" x2="71.9" y2="31.8"/>
<line class="st0" x1="77.4" y1="32.9" x2="77.4" y2="32.9"/>
<line class="st0" x1="65.8" y1="28.9" x2="65.8" y2="28.9"/>
<line class="st0" x1="64.8" y1="31.7" x2="64.8" y2="31.7"/>
<line class="st0" x1="68.9" y1="32.9" x2="68.9" y2="32.9"/>
<line class="st0" x1="75" y1="34.2" x2="75" y2="34.2"/>
<line class="st0" x1="72.9" y1="36.2" x2="72.9" y2="36.2"/>
<line class="st0" x1="66.5" y1="38.4" x2="66.5" y2="38.4"/>
<line class="st0" x1="60" y1="32.2" x2="60" y2="32.2"/>
<line class="st0" x1="64.4" y1="34.9" x2="64.4" y2="34.9"/>
<line class="st0" x1="67.4" y1="15.9" x2="67.4" y2="15.9"/>
<line class="st0" x1="62.5" y1="25.6" x2="62.5" y2="25.6"/>
<line class="st0" x1="61.1" y1="22.5" x2="61.1" y2="22.5"/>
<line class="st0" x1="58.3" y1="25.5" x2="58.3" y2="25.5"/>
<line class="st0" x1="58.7" y1="20.5" x2="58.7" y2="20.5"/>
<line class="st0" x1="59" y1="16.2" x2="59" y2="16.2"/>
<line class="st0" x1="66.9" y1="25.7" x2="66.9" y2="25.7"/>
<line class="st0" x1="73.7" y1="23.9" x2="73.7" y2="23.9"/>
<line class="st0" x1="68.9" y1="29" x2="68.9" y2="29"/>
<line class="st0" x1="72.3" y1="19.3" x2="72.3" y2="19.3"/>
<line class="st0" x1="68.3" y1="19.6" x2="68.3" y2="19.6"/>
<line class="st0" x1="62.4" y1="19.5" x2="62.4" y2="19.5"/>
<line class="st0" x1="76.2" y1="20.2" x2="76.2" y2="20.2"/>
<line class="st0" x1="77.7" y1="24.3" x2="77.7" y2="24.3"/>
<line class="st0" x1="64.9" y1="21.8" x2="64.9" y2="21.8"/>
<line class="st0" x1="70.8" y1="15.8" x2="70.8" y2="15.8"/>
<line class="st0" x1="6.8" y1="70.2" x2="6.8" y2="70.2"/>
<line class="st0" x1="6.8" y1="66.8" x2="6.8" y2="66.8"/>
<line class="st0" x1="2.2" y1="66.8" x2="2.2" y2="66.8"/>
<line class="st0" x1="13.5" y1="65.3" x2="13.5" y2="65.3"/>
<line class="st0" x1="17.4" y1="56.4" x2="17.4" y2="56.4"/>
<line class="st0" x1="22.7" y1="64.1" x2="22.7" y2="64.1"/>
<line class="st0" x1="22.3" y1="73" x2="22.3" y2="73"/>
<line class="st0" x1="24.5" y1="75.2" x2="24.5" y2="75.2"/>
<line class="st0" x1="20.4" y1="67.5" x2="20.4" y2="67.5"/>
<line class="st0" x1="12.6" y1="62.3" x2="12.6" y2="62.3"/>
<line class="st0" x1="16.9" y1="66.5" x2="16.9" y2="66.5"/>
<line class="st0" x1="16.4" y1="71.5" x2="16.4" y2="71.5"/>
<line class="st0" x1="20" y1="71.5" x2="20" y2="71.5"/>
<line class="st0" x1="28.4" y1="42.8" x2="28.4" y2="42.8"/>
<line class="st0" x1="19.6" y1="75.3" x2="19.6" y2="75.3"/>
<line class="st0" x1="9.2" y1="72" x2="9.2" y2="72"/>
<line class="st0" x1="5.6" y1="78.5" x2="5.6" y2="78.5"/>
<line class="st0" x1="13.9" y1="69.5" x2="13.9" y2="69.5"/>
<line class="st0" x1="2.7" y1="69.8" x2="2.7" y2="69.8"/>
<line class="st0" x1="0.6" y1="72.7" x2="0.6" y2="72.7"/>
<line class="st0" x1="13.1" y1="73.6" x2="13.1" y2="73.6"/>
<line class="st0" x1="11.9" y1="76.8" x2="11.9" y2="76.8"/>
<line class="st0" x1="6.8" y1="52.5" x2="6.8" y2="52.5"/>
<line class="st0" x1="3" y1="52.2" x2="3" y2="52.2"/>
<line class="st0" x1="6.8" y1="49.1" x2="6.8" y2="49.1"/>
<line class="st0" x1="17.6" y1="39.8" x2="17.6" y2="39.8"/>
<line class="st0" x1="12.5" y1="50.3" x2="12.5" y2="50.3"/>
<line class="st0" x1="13.5" y1="47.6" x2="13.5" y2="47.6"/>
<line class="st0" x1="9.4" y1="46.3" x2="9.4" y2="46.3"/>
<line class="st0" x1="4.4" y1="46.1" x2="4.4" y2="46.1"/>
<line class="st0" x1="6.7" y1="43.3" x2="6.7" y2="43.3"/>
<line class="st0" x1="12.6" y1="41" x2="12.6" y2="41"/>
<line class="st0" x1="17.2" y1="47.1" x2="17.2" y2="47.1"/>
<line class="st0" x1="12.2" y1="44.2" x2="12.2" y2="44.2"/>
<line class="st0" x1="15.7" y1="43.6" x2="15.7" y2="43.6"/>
<line class="st0" x1="15.8" y1="53.7" x2="15.8" y2="53.7"/>
<line class="st0" x1="20" y1="53.8" x2="20" y2="53.8"/>
<line class="st0" x1="19.7" y1="58.8" x2="19.7" y2="58.8"/>
<line class="st0" x1="19.3" y1="63.1" x2="19.3" y2="63.1"/>
<line class="st0" x1="11.4" y1="53.6" x2="11.4" y2="53.6"/>
<line class="st0" x1="4.7" y1="55.4" x2="4.7" y2="55.4"/>
<line class="st0" x1="0.9" y1="44.1" x2="0.9" y2="44.1"/>
<line class="st0" x1="6" y1="60" x2="6" y2="60"/>
<line class="st0" x1="10" y1="59.7" x2="10" y2="59.7"/>
<line class="st0" x1="15.9" y1="59.8" x2="15.9" y2="59.8"/>
<line class="st0" x1="2.1" y1="59.1" x2="2.1" y2="59.1"/>
<line class="st0" x1="0.6" y1="55" x2="0.6" y2="55"/>
<line class="st0" x1="13.4" y1="57.5" x2="13.4" y2="57.5"/>
<line class="st0" x1="8.6" y1="63.6" x2="8.6" y2="63.6"/>
<line class="st0" x1="33.7" y1="66.7" x2="33.7" y2="66.7"/>
<line class="st0" x1="33.7" y1="63.2" x2="33.7" y2="63.2"/>
<line class="st0" x1="28.9" y1="66.8" x2="28.9" y2="66.8"/>
<line class="st0" x1="25.4" y1="67" x2="25.4" y2="67"/>
<line class="st0" x1="26.4" y1="63.6" x2="26.4" y2="63.6"/>
<line class="st0" x1="22.7" y1="60.4" x2="22.7" y2="60.4"/>
<line class="st0" x1="22.6" y1="50" x2="22.6" y2="50"/>
<line class="st0" x1="25.7" y1="58.6" x2="25.7" y2="58.6"/>
<line class="st0" x1="37.6" y1="67.2" x2="37.6" y2="67.2"/>
<line class="st0" x1="44" y1="71.4" x2="44" y2="71.4"/>
<line class="st0" x1="40.3" y1="65.3" x2="40.3" y2="65.3"/>
<line class="st0" x1="44.9" y1="65.3" x2="44.9" y2="65.3"/>
<line class="st0" x1="40.7" y1="62.1" x2="40.7" y2="62.1"/>
<line class="st0" x1="41.1" y1="67.6" x2="41.1" y2="67.6"/>
<line class="st0" x1="43.3" y1="73.8" x2="43.3" y2="73.8"/>
<line class="st0" x1="46.1" y1="73.2" x2="46.1" y2="73.2"/>
<line class="st0" x1="48.1" y1="76" x2="48.1" y2="76"/>
<line class="st0" x1="39.8" y1="70.9" x2="39.8" y2="70.9"/>
<line class="st0" x1="31.4" y1="73.1" x2="31.4" y2="73.1"/>
<line class="st0" x1="32.8" y1="77.7" x2="32.8" y2="77.7"/>
<line class="st0" x1="37.4" y1="78.1" x2="37.4" y2="78.1"/>
<line class="st0" x1="31.9" y1="70" x2="31.9" y2="70"/>
<line class="st0" x1="25.2" y1="78" x2="25.2" y2="78"/>
<line class="st0" x1="27.3" y1="72.7" x2="27.3" y2="72.7"/>
<line class="st0" x1="38.4" y1="75" x2="38.4" y2="75"/>
<line class="st0" x1="34.4" y1="74.6" x2="34.4" y2="74.6"/>
<line class="st0" x1="33.6" y1="52.5" x2="33.6" y2="52.5"/>
<line class="st0" x1="29.8" y1="52.2" x2="29.8" y2="52.2"/>
<line class="st0" x1="26.4" y1="51.5" x2="26.4" y2="51.5"/>
<line class="st0" x1="19.3" y1="50.3" x2="19.3" y2="50.3"/>
<line class="st0" x1="33.5" y1="49.1" x2="33.5" y2="49.1"/>
<line class="st0" x1="25.5" y1="48.1" x2="25.5" y2="48.1"/>
<line class="st0" x1="24.7" y1="44.7" x2="24.7" y2="44.7"/>
<line class="st0" x1="25.1" y1="39.5" x2="25.1" y2="39.5"/>
<line class="st0" x1="55.4" y1="46.6" x2="55.4" y2="46.6"/>
<line class="st0" x1="51.3" y1="44.2" x2="51.3" y2="44.2"/>
<line class="st0" x1="60.2" y1="44.4" x2="60.2" y2="44.4"/>
<line class="st0" x1="74.6" y1="39.1" x2="74.6" y2="39.1"/>
<line class="st0" x1="70.7" y1="40.3" x2="70.7" y2="40.3"/>
<line class="st0" x1="54.7" y1="38.8" x2="54.7" y2="38.8"/>
<line class="st0" x1="49.3" y1="37.8" x2="49.3" y2="37.8"/>
<line class="st0" x1="32.9" y1="39.8" x2="32.9" y2="39.8"/>
<line class="st0" x1="29.1" y1="39.3" x2="29.1" y2="39.3"/>
<line class="st0" x1="6.9" y1="39.6" x2="6.9" y2="39.6"/>
<line class="st0" x1="3.7" y1="41.6" x2="3.7" y2="41.6"/>
<line class="st0" x1="0.5" y1="34.7" x2="0.5" y2="34.7"/>
<line class="st0" x1="78.7" y1="41.4" x2="78.7" y2="41.4"/>
<line class="st0" x1="21.3" y1="47" x2="21.3" y2="47"/>
<line class="st0" x1="28.9" y1="49.1" x2="28.9" y2="49.1"/>
<line class="st0" x1="39.3" y1="50.3" x2="39.3" y2="50.3"/>
<line class="st0" x1="40.3" y1="47.6" x2="40.3" y2="47.6"/>
<line class="st0" x1="36.2" y1="46.3" x2="36.2" y2="46.3"/>
<line class="st0" x1="31.2" y1="46.1" x2="31.2" y2="46.1"/>
<line class="st0" x1="32" y1="42.5" x2="32" y2="42.5"/>
<line class="st0" x1="39.1" y1="41" x2="39.1" y2="41"/>
<line class="st0" x1="45" y1="47.1" x2="45" y2="47.1"/>
<line class="st0" x1="40.3" y1="44.7" x2="40.3" y2="44.7"/>
<line class="st0" x1="42.7" y1="43.3" x2="42.7" y2="43.3"/>
<line class="st0" x1="42.5" y1="53.7" x2="42.5" y2="53.7"/>
<line class="st0" x1="47.4" y1="50" x2="47.4" y2="50"/>
<line class="st0" x1="46.7" y1="52.6" x2="46.7" y2="52.6"/>
<line class="st0" x1="51.3" y1="56.1" x2="51.3" y2="56.1"/>
<line class="st0" x1="51.8" y1="52.6" x2="51.8" y2="52.6"/>
<line class="st0" x1="55.2" y1="53.5" x2="55.2" y2="53.5"/>
<line class="st0" x1="54.4" y1="42.3" x2="54.4" y2="42.3"/>
<line class="st0" x1="57.9" y1="41.9" x2="57.9" y2="41.9"/>
<line class="st0" x1="58.7" y1="51.1" x2="58.7" y2="51.1"/>
<line class="st0" x1="52.4" y1="49" x2="52.4" y2="49"/>
<line class="st0" x1="48.8" y1="46.9" x2="48.8" y2="46.9"/>
<line class="st0" x1="53.7" y1="59" x2="53.7" y2="59"/>
<line class="st0" x1="46.2" y1="59.7" x2="46.2" y2="59.7"/>
<line class="st0" x1="47.7" y1="63" x2="47.7" y2="63"/>
<line class="st0" x1="38.2" y1="53.6" x2="38.2" y2="53.6"/>
<line class="st0" x1="32.2" y1="55.2" x2="32.2" y2="55.2"/>
<line class="st0" x1="46.4" y1="43.6" x2="46.4" y2="43.6"/>
<line class="st0" x1="37.4" y1="63.3" x2="37.4" y2="63.3"/>
<line class="st0" x1="32.8" y1="60" x2="32.8" y2="60"/>
<line class="st0" x1="36.8" y1="59.7" x2="36.8" y2="59.7"/>
<line class="st0" x1="42.7" y1="59.8" x2="42.7" y2="59.8"/>
<line class="st0" x1="28.6" y1="60.1" x2="28.6" y2="60.1"/>
<line class="st0" x1="26.2" y1="55.1" x2="26.2" y2="55.1"/>
<line class="st0" x1="40.2" y1="57.5" x2="40.2" y2="57.5"/>
<line class="st0" x1="36.1" y1="50.8" x2="36.1" y2="50.8"/>
<line class="st0" x1="79.3" y1="68.8" x2="79.3" y2="68.8"/>
<line class="st0" x1="79.3" y1="51.1" x2="79.3" y2="51.1"/>
<line class="st0" x1="79" y1="62.2" x2="79" y2="62.2"/>
<line class="st0" x1="71.5" y1="70.7" x2="71.5" y2="70.7"/>
<line class="st0" x1="71.5" y1="67.4" x2="71.5" y2="67.4"/>
<line class="st0" x1="76.7" y1="66.4" x2="76.7" y2="66.4"/>
<line class="st0" x1="67.5" y1="67.8" x2="67.5" y2="67.8"/>
<line class="st0" x1="64.8" y1="65.9" x2="64.8" y2="65.9"/>
<line class="st0" x1="59.4" y1="67.2" x2="59.4" y2="67.2"/>
<line class="st0" x1="8.2" y1="76" x2="8.2" y2="76"/>
<line class="st0" x1="62.6" y1="74.6" x2="62.6" y2="74.6"/>
<line class="st0" x1="58.3" y1="72" x2="58.3" y2="72"/>
<line class="st0" x1="59.2" y1="76.1" x2="59.2" y2="76.1"/>
<line class="st0" x1="52.3" y1="76.8" x2="52.3" y2="76.8"/>
<line class="st0" x1="56.4" y1="70" x2="56.4" y2="70"/>
<line class="st0" x1="51.5" y1="73.9" x2="51.5" y2="73.9"/>
<line class="st0" x1="44.1" y1="39.5" x2="44.1" y2="39.5"/>
<line class="st0" x1="65.2" y1="61.5" x2="65.2" y2="61.5"/>
<line class="st0" x1="52.1" y1="67.3" x2="52.1" y2="67.3"/>
<line class="st0" x1="48.7" y1="65.6" x2="48.7" y2="65.6"/>
<line class="st0" x1="52.9" y1="70.2" x2="52.9" y2="70.2"/>
<line class="st0" x1="56.3" y1="66.2" x2="56.3" y2="66.2"/>
<line class="st0" x1="61.2" y1="39" x2="61.2" y2="39"/>
<line class="st0" x1="51.7" y1="63" x2="51.7" y2="63"/>
<line class="st0" x1="49.7" y1="58.8" x2="49.7" y2="58.8"/>
<line class="st0" x1="44.4" y1="56.3" x2="44.4" y2="56.3"/>
<line class="st0" x1="66.9" y1="71.8" x2="66.9" y2="71.8"/>
<line class="st0" x1="73.7" y1="73.7" x2="73.7" y2="73.7"/>
<line class="st0" x1="78.2" y1="76" x2="78.2" y2="76"/>
<line class="st0" x1="72.6" y1="77" x2="72.6" y2="77"/>
<line class="st0" x1="75.2" y1="64" x2="75.2" y2="64"/>
<line class="st0" x1="67.7" y1="43.6" x2="67.7" y2="43.6"/>
<line class="st0" x1="77.7" y1="73.2" x2="77.7" y2="73.2"/>
<line class="st0" x1="65.2" y1="77.1" x2="65.2" y2="77.1"/>
<line class="st0" x1="69.4" y1="73.3" x2="69.4" y2="73.3"/>
<line class="st0" x1="71.5" y1="53" x2="71.5" y2="53"/>
<line class="st0" x1="75.3" y1="52.8" x2="75.3" y2="52.8"/>
<line class="st0" x1="71.5" y1="49.7" x2="71.5" y2="49.7"/>
<line class="st0" x1="77.4" y1="47" x2="77.4" y2="47"/>
<line class="st0" x1="65.8" y1="50.9" x2="65.8" y2="50.9"/>
<line class="st0" x1="63.7" y1="48" x2="63.7" y2="48"/>
<line class="st0" x1="68.9" y1="46.9" x2="68.9" y2="46.9"/>
<line class="st0" x1="73.9" y1="46.7" x2="73.9" y2="46.7"/>
<line class="st0" x1="71.7" y1="43.9" x2="71.7" y2="43.9"/>
<line class="st0" x1="66.5" y1="41.5" x2="66.5" y2="41.5"/>
<line class="st0" x1="60" y1="47.7" x2="60" y2="47.7"/>
<line class="st0" x1="64.4" y1="45" x2="64.4" y2="45"/>
<line class="st0" x1="62.7" y1="63.6" x2="62.7" y2="63.6"/>
<line class="st0" x1="62.4" y1="52" x2="62.4" y2="52"/>
<line class="st0" x1="56.6" y1="56.6" x2="56.6" y2="56.6"/>
<line class="st0" x1="59.5" y1="54.7" x2="59.5" y2="54.7"/>
<line class="st0" x1="58.7" y1="59.3" x2="58.7" y2="59.3"/>
<line class="st0" x1="59" y1="63.7" x2="59" y2="63.7"/>
<line class="st0" x1="66.9" y1="54.1" x2="66.9" y2="54.1"/>
<line class="st0" x1="75.1" y1="49.3" x2="75.1" y2="49.3"/>
<line class="st0" x1="70.7" y1="56.7" x2="70.7" y2="56.7"/>
<line class="st0" x1="72.3" y1="60.6" x2="72.3" y2="60.6"/>
<line class="st0" x1="71" y1="64" x2="71" y2="64"/>
<line class="st0" x1="69.3" y1="59.8" x2="69.3" y2="59.8"/>
<line class="st0" x1="62.4" y1="60.4" x2="62.4" y2="60.4"/>
<line class="st0" x1="76.2" y1="59.7" x2="76.2" y2="59.7"/>
<line class="st0" x1="77.7" y1="55.5" x2="77.7" y2="55.5"/>
<line class="st0" x1="66.3" y1="58.5" x2="66.3" y2="58.5"/>
<line class="st0" x1="9.7" y1="49.5" x2="9.7" y2="49.5"/>
<line class="st1" x1="9" y1="1.7" x2="9.5" y2="4.9"/>
<line class="st1" x1="10.4" y1="1.4" x2="11" y2="4.9"/>
<line class="st1" x1="13.1" y1="9.3" x2="16.5" y2="10"/>
<line class="st1" x1="13.2" y1="7.9" x2="16.7" y2="8.5"/>
<line class="st1" x1="15.2" y1="23.8" x2="18.6" y2="24.5"/>
<line class="st1" x1="15.3" y1="22.4" x2="18.8" y2="23"/>
<line class="st1" x1="8.5" y1="14.2" x2="7.4" y2="17.5"/>
<line class="st1" x1="9.9" y1="14.6" x2="8.8" y2="18"/>
<line class="st1" x1="22.4" y1="28" x2="21.3" y2="31.3"/>
<line class="st1" x1="23.8" y1="28.4" x2="22.7" y2="31.8"/>
<line class="st1" x1="4.1" y1="20.5" x2="1.2" y2="22.3"/>
<line class="st1" x1="4.9" y1="21.7" x2="1.9" y2="23.7"/>
<line class="st1" x1="21.8" y1="14.3" x2="22.7" y2="17.7"/>
<line class="st1" x1="23.1" y1="13.9" x2="24.2" y2="17.3"/>
<line class="st1" x1="30.3" y1="21.5" x2="27.8" y2="23.7"/>
<line class="st1" x1="31.3" y1="22.5" x2="28.7" y2="24.9"/>
<line class="st1" x1="41.9" y1="8.1" x2="39.4" y2="10.4"/>
<line class="st1" x1="43" y1="9.1" x2="40.4" y2="11.5"/>
<line class="st1" x1="73.6" y1="4.5" x2="71.9" y2="7.5"/>
<line class="st1" x1="74.9" y1="5.2" x2="73.2" y2="8.3"/>
<line class="st1" x1="74.5" y1="14.3" x2="73.9" y2="17.7"/>
<line class="st1" x1="75.9" y1="14.5" x2="75.4" y2="18"/>
<line class="st1" x1="67.9" y1="23" x2="69.9" y2="25.9"/>
<line class="st1" x1="69.1" y1="22.2" x2="71.1" y2="25.1"/>
<line class="st1" x1="76.5" y1="28.6" x2="73.8" y2="30.7"/>
<line class="st1" x1="77.4" y1="29.7" x2="74.7" y2="32"/>
<line class="st1" x1="38" y1="3.4" x2="35" y2="1.8"/>
<line class="st1" x1="37.4" y1="4.7" x2="34.2" y2="3.1"/>
<line class="st1" x1="30.6" y1="9" x2="27.2" y2="9.1"/>
<line class="st1" x1="30.7" y1="10.5" x2="27.2" y2="10.6"/>
<line class="st1" x1="37.8" y1="15.6" x2="34.3" y2="15.7"/>
<line class="st1" x1="37.9" y1="17" x2="34.3" y2="17.2"/>
<line class="st1" x1="23.7" y1="2" x2="21.1" y2="4.2"/>
<line class="st1" x1="24.7" y1="3" x2="22.1" y2="5.4"/>
<line class="st1" x1="4.9" y1="8.8" x2="1.5" y2="9.4"/>
<line class="st1" x1="5.3" y1="10.2" x2="1.8" y2="11"/>
<line class="st1" x1="51.4" y1="2.6" x2="48.9" y2="0.1"/>
<line class="st1" x1="50.4" y1="3.6" x2="47.8" y2="1.1"/>
<line class="st1" x1="57.3" y1="8.9" x2="53.9" y2="9.3"/>
<line class="st1" x1="57.5" y1="10.3" x2="54" y2="10.8"/>
<line class="st1" x1="60.7" y1="15" x2="61" y2="18.4"/>
<line class="st1" x1="62.1" y1="14.7" x2="62.6" y2="18.2"/>
<line class="st1" x1="47.7" y1="15.8" x2="48.1" y2="19.2"/>
<line class="st1" x1="49.1" y1="15.6" x2="49.6" y2="19.1"/>
<line class="st1" x1="54.3" y1="23.8" x2="57.6" y2="24.6"/>
<line class="st1" x1="54.6" y1="22.4" x2="58" y2="23.2"/>
<line class="st1" x1="43.1" y1="21.2" x2="42.1" y2="24.5"/>
<line class="st1" x1="44.5" y1="21.6" x2="43.5" y2="25"/>
<line class="st1" x1="47.7" y1="30.8" x2="50.2" y2="33.1"/>
<line class="st1" x1="48.6" y1="29.7" x2="51.2" y2="32"/>
<line class="st1" x1="36.3" y1="27.6" x2="36" y2="31.1"/>
<line class="st1" x1="37.7" y1="27.7" x2="37.5" y2="31.2"/>
<line class="st1" x1="55.5" y1="38.4" x2="57.2" y2="35.4"/>
<line class="st1" x1="54.2" y1="37.7" x2="55.9" y2="34.6"/>
<line class="st1" x1="42" y1="39.6" x2="43.3" y2="36.4"/>
<line class="st1" x1="40.6" y1="39.1" x2="41.9" y2="35.8"/>
<line class="st1" x1="27.9" y1="37.4" x2="30.8" y2="35.7"/>
<line class="st1" x1="27.1" y1="36.2" x2="30.1" y2="34.3"/>
<line class="st1" x1="7.5" y1="29.6" x2="10.9" y2="30.5"/>
<line class="st1" x1="7.8" y1="28.2" x2="11.3" y2="29"/>
<line class="st1" x1="1.8" y1="40.3" x2="3.9" y2="37.6"/>
<line class="st1" x1="0.6" y1="39.5" x2="2.8" y2="36.6"/>
<line class="st1" x1="10.9" y1="45" x2="10.6" y2="41.6"/>
<line class="st1" x1="9.4" y1="45.2" x2="9" y2="41.6"/>
<line class="st1" x1="21.2" y1="41.8" x2="18.6" y2="44.1"/>
<line class="st1" x1="22.2" y1="42.8" x2="19.7" y2="45.3"/>
<line class="st1" x1="0" y1="48.9" x2="3.4" y2="49.7"/>
<line class="st1" x1="0.3" y1="47.5" x2="3.8" y2="48.2"/>
<line class="st1" x1="14.4" y1="51.1" x2="17.8" y2="52"/>
<line class="st1" x1="14.7" y1="49.7" x2="18.2" y2="50.5"/>
<line class="st1" x1="26.5" y1="44.8" x2="28.3" y2="47.7"/>
<line class="st1" x1="27.7" y1="44" x2="29.7" y2="46.9"/>
<line class="st1" x1="33.8" y1="57.1" x2="37.2" y2="57.6"/>
<line class="st1" x1="33.9" y1="55.7" x2="37.5" y2="56.1"/>
<line class="st1" x1="29.3" y1="61.7" x2="30" y2="65.1"/>
<line class="st1" x1="30.7" y1="61.3" x2="31.5" y2="64.8"/>
<line class="st1" x1="22.4" y1="68.6" x2="25.4" y2="70.3"/>
<line class="st1" x1="23.1" y1="67.3" x2="26.2" y2="69"/>
<line class="st1" x1="14.1" y1="63.5" x2="17.5" y2="64"/>
<line class="st1" x1="14.2" y1="62.1" x2="17.8" y2="62.5"/>
<line class="st1" x1="3.2" y1="64.6" x2="6.7" y2="64.1"/>
<line class="st1" x1="3" y1="63.1" x2="6.5" y2="62.6"/>
<line class="st1" x1="10.2" y1="66.9" x2="10.1" y2="70.3"/>
<line class="st1" x1="11.6" y1="66.8" x2="11.7" y2="70.4"/>
<line class="st1" x1="14.3" y1="76.5" x2="17.7" y2="77"/>
<line class="st1" x1="14.4" y1="75.1" x2="18" y2="75.5"/>
<line class="st1" x1="2.4" y1="76.7" x2="5.5" y2="75.3"/>
<line class="st1" x1="1.7" y1="75.4" x2="5" y2="73.9"/>
<line class="st1" x1="29.3" y1="73.8" x2="27.5" y2="76.7"/>
<line class="st1" x1="30.5" y1="74.4" x2="28.8" y2="77.5"/>
<line class="st1" x1="34.6" y1="71.7" x2="38" y2="71.1"/>
<line class="st1" x1="34.3" y1="70.3" x2="37.8" y2="69.6"/>
<line class="st1" x1="40.1" y1="74.5" x2="40.9" y2="77.9"/>
<line class="st1" x1="41.5" y1="74.1" x2="42.4" y2="77.6"/>
<line class="st1" x1="47.3" y1="71.1" x2="50.7" y2="71.5"/>
<line class="st1" x1="47.3" y1="69.7" x2="50.9" y2="69.9"/>
<line class="st1" x1="55.1" y1="60.7" x2="56.1" y2="64"/>
<line class="st1" x1="56.5" y1="60.2" x2="57.6" y2="63.6"/>
<line class="st1" x1="62.4" y1="57.9" x2="64.9" y2="55.6"/>
<line class="st1" x1="61.4" y1="56.9" x2="63.9" y2="54.4"/>
<line class="st1" x1="73.2" y1="56.2" x2="74.3" y2="59.5"/>
<line class="st1" x1="74.5" y1="55.7" x2="75.8" y2="59"/>
<line class="st1" x1="69.1" y1="66.1" x2="68.4" y2="62.8"/>
<line class="st1" x1="67.7" y1="66.5" x2="66.9" y2="63"/>
<line class="st1" x1="72.8" y1="69.9" x2="76.2" y2="70.3"/>
<line class="st1" x1="72.9" y1="68.4" x2="76.5" y2="68.8"/>
<line class="st1" x1="74" y1="78.7" x2="77.4" y2="79.2"/>
<line class="st1" x1="74.1" y1="77.3" x2="77.6" y2="77.6"/>
<line class="st1" x1="68" y1="73.3" x2="66" y2="76.1"/>
<line class="st1" x1="69.2" y1="74.1" x2="67.3" y2="77.1"/>
<line class="st1" x1="62.5" y1="71.9" x2="63.1" y2="68.5"/>
<line class="st1" x1="61.1" y1="71.7" x2="61.6" y2="68.2"/>
<line class="st1" x1="54.8" y1="74" x2="54.5" y2="77.4"/>
<line class="st1" x1="56.3" y1="74" x2="56" y2="77.6"/>
<line class="st1" x1="46.6" y1="55.7" x2="50" y2="56.2"/>
<line class="st1" x1="46.7" y1="54.3" x2="50.3" y2="54.6"/>
<line class="st1" x1="43.1" y1="61.4" x2="44.9" y2="64.3"/>
<line class="st1" x1="44.3" y1="60.6" x2="46.3" y2="63.5"/>
<line class="st1" x1="34.5" y1="43.7" x2="37.9" y2="43.9"/>
<line class="st1" x1="34.5" y1="42.3" x2="38" y2="42.4"/>
<line class="st1" x1="46.5" y1="42.1" x2="49.8" y2="42.8"/>
<line class="st1" x1="46.7" y1="40.7" x2="50.2" y2="41.3"/>
<line class="st1" x1="60.9" y1="41.4" x2="62.9" y2="44.2"/>
<line class="st1" x1="62.1" y1="40.5" x2="64.2" y2="43.4"/>
<line class="st1" x1="74.4" y1="45.1" x2="77" y2="42.8"/>
<line class="st1" x1="73.4" y1="44" x2="76" y2="41.6"/>
<line class="st1" x1="66.3" y1="49.7" x2="69" y2="51.8"/>
<line class="st1" x1="67.1" y1="48.5" x2="70" y2="50.6"/>
<line class="st1" x1="54.3" y1="50.7" x2="57.5" y2="49.4"/>
<line class="st1" x1="53.7" y1="49.4" x2="56.9" y2="47.9"/>
<line class="st1" x1="43.6" y1="52.2" x2="43.5" y2="48.8"/>
<line class="st1" x1="42.1" y1="52.3" x2="41.9" y2="48.8"/>
<line class="st1" x1="22" y1="57" x2="24.8" y2="54.9"/>
<line class="st1" x1="21.1" y1="55.9" x2="23.9" y2="53.7"/>
<line class="st1" x1="10.1" y1="57.5" x2="9.7" y2="54.1"/>
<line class="st1" x1="8.7" y1="57.8" x2="8.2" y2="54.3"/>
<line class="st1" x1="14.6" y1="36" x2="16.9" y2="38.5"/>
<line class="st1" x1="15.6" y1="34.9" x2="18.1" y2="37.5"/>
<line class="st1" x1="60.9" y1="28.3" x2="62" y2="31.6"/>
<line class="st1" x1="62.3" y1="27.8" x2="63.4" y2="31.2"/>
<line class="st1" x1="67" y1="35.5" x2="69.3" y2="38"/>
<line class="st1" x1="68" y1="34.5" x2="70.5" y2="37"/>
<line class="st1" x1="66.3" y1="8.7" x2="63.9" y2="11.2"/>
<line class="st1" x1="67.4" y1="9.7" x2="64.9" y2="12.3"/>
<line class="st1" x1="63.1" y1="0.7" x2="60.1" y2="2.3"/>
<line class="st1" x1="63.8" y1="1.9" x2="60.7" y2="3.7"/>
</svg>
