<!-- Generator: Adobe Illustrator 22.1.0, SVG Export Plug-In  -->
<svg version="1.1"
     xmlns="http://www.w3.org/2000/svg" xmlns:xlink="http://www.w3.org/1999/xlink" xmlns:a="http://ns.adobe.com/AdobeSVGViewerExtensions/3.0/"
     x="0px" y="0px" width="43.6px" height="43.3px" viewBox="0 0 43.6 43.3" style="enable-background:new 0 0 43.6 43.3;"
     xml:space="preserve">
<style type="text/css">
    .st0{clip-path:url(#SVGID_2_);fill:none;stroke:#000000;stroke-width:0.3;stroke-linecap:round;stroke-linejoin:round;}
    .st1{clip-path:url(#SVGID_4_);fill:none;stroke:#000000;stroke-width:0.3;stroke-linecap:round;stroke-linejoin:round;}
</style>
<defs>
</defs>
<g>
    <defs>
        <rect id="SVGID_1_" x="0.2" width="43.3" height="43.3"/>
    </defs>
    <clipPath id="SVGID_2_">
        <use xlink:href="#SVGID_1_"  style="overflow:visible;"/>
    </clipPath>
    <polyline class="st0" points="39.4,2.6 40.4,5.6 41.5,2.6    "/>
    <polyline class="st0" points="33.2,2.6 34.2,5.6 35.3,2.6    "/>
    <polyline class="st0" points="27,2.6 28,5.6 29.1,2.6    "/>
    <polyline class="st0" points="20.8,2.6 21.8,5.6 22.9,2.6    "/>
    <polyline class="st0" points="14.6,2.6 15.6,5.6 16.7,2.6    "/>
    <polyline class="st0" points="8.4,2.6 9.4,5.6 10.5,2.6  "/>
    <polyline class="st0" points="2.2,2.6 3.2,5.6 4.3,2.6   "/>
    <line class="st0" x1="0.2" y1="12.8" x2="1.2" y2="9.9"/>
    <polyline class="st0" points="2.2,17.1 3.2,20.1 4.3,17.1    "/>
    <line class="st0" x1="0.2" y1="27.3" x2="1.2" y2="24.3"/>
    <polyline class="st0" points="2.2,31.6 3.2,34.5 4.3,31.6    "/>
    <line class="st0" x1="0.2" y1="41.8" x2="1.2" y2="38.8"/>
    <line class="st0" x1="42.4" y1="9.9" x2="43.5" y2="12.8"/>
    <polyline class="st0" points="36.3,9.8 37.3,12.8 38.4,9.8   "/>
    <polyline class="st0" points="30.1,9.8 31.1,12.8 32.2,9.8   "/>
    <polyline class="st0" points="23.9,9.8 24.9,12.8 26,9.8     "/>
    <polyline class="st0" points="17.7,9.8 18.7,12.8 19.8,9.8   "/>
    <polyline class="st0" points="11.5,9.8 12.5,12.8 13.6,9.8   "/>
    <polyline class="st0" points="5.3,9.8 6.3,12.8 7.4,9.8  "/>
    <polyline class="st0" points="39.4,17 40.4,20 41.5,17   "/>
    <polyline class="st0" points="33.2,17 34.2,20 35.3,17   "/>
    <polyline class="st0" points="27,17 28,20 29.1,17   "/>
    <polyline class="st0" points="20.8,17 21.8,20 22.9,17   "/>
    <polyline class="st0" points="14.6,17 15.6,20 16.7,17   "/>
    <polyline class="st0" points="8.4,17 9.4,20 10.5,17     "/>
    <line class="st0" x1="42.4" y1="24.3" x2="43.5" y2="27.3"/>
    <polyline class="st0" points="36.3,24.3 37.3,27.2 38.4,24.3     "/>
    <polyline class="st0" points="30.1,24.3 31.1,27.2 32.2,24.3     "/>
    <polyline class="st0" points="23.9,24.3 24.9,27.2 26,24.3   "/>
    <polyline class="st0" points="17.7,24.3 18.7,27.2 19.8,24.3     "/>
    <polyline class="st0" points="11.5,24.3 12.5,27.2 13.6,24.3     "/>
    <polyline class="st0" points="5.3,24.3 6.3,27.2 7.4,24.3    "/>
    <polyline class="st0" points="39.4,31.5 40.4,34.5 41.5,31.5     "/>
    <polyline class="st0" points="33.2,31.5 34.2,34.5 35.3,31.5     "/>
    <polyline class="st0" points="27,31.5 28,34.5 29.1,31.5     "/>
    <polyline class="st0" points="20.8,31.5 21.8,34.5 22.9,31.5     "/>
    <polyline class="st0" points="14.6,31.5 15.6,34.5 16.7,31.5     "/>
    <polyline class="st0" points="8.4,31.5 9.4,34.5 10.5,31.5   "/>
    <line class="st0" x1="42.4" y1="38.8" x2="43.5" y2="41.8"/>
    <polyline class="st0" points="36.3,38.7 37.3,41.7 38.4,38.7     "/>
    <polyline class="st0" points="30.1,38.7 31.1,41.7 32.2,38.7     "/>
    <polyline class="st0" points="23.9,38.7 24.9,41.7 26,38.7   "/>
    <polyline class="st0" points="17.7,38.7 18.7,41.7 19.8,38.7     "/>
    <polyline class="st0" points="11.5,38.7 12.5,41.7 13.6,38.7     "/>
    <polyline class="st0" points="5.3,38.7 6.3,41.7 7.4,38.7    "/>
</g>
</svg>
