<!-- Generator: Adobe Illustrator 22.1.0, SVG Export Plug-In  -->
<svg version="1.1"
       xmlns="http://www.w3.org/2000/svg" xmlns:xlink="http://www.w3.org/1999/xlink" xmlns:a="http://ns.adobe.com/AdobeSVGViewerExtensions/3.0/"
       x="0px" y="0px" width="53.2px" height="53.4px" viewBox="0 0 53.2 53.4" style="enable-background:new 0 0 53.2 53.4;"
       xml:space="preserve">
<style type="text/css">
      .st0{fill:none;stroke:#000000;stroke-width:0.7;stroke-linecap:round;}
      .st1{fill:none;stroke:#000000;stroke-width:0.3;}
</style>
<defs>
</defs>
<line class="st0" x1="25.1" y1="26.2" x2="25.1" y2="26.2"/>
<line class="st0" x1="0.7" y1="12.2" x2="0.7" y2="12.2"/>
<line class="st0" x1="3.2" y1="13.6" x2="3.2" y2="13.6"/>
<line class="st0" x1="5.9" y1="11.8" x2="5.9" y2="11.8"/>
<line class="st0" x1="5.9" y1="14.9" x2="5.9" y2="14.9"/>
<line class="st0" x1="9.2" y1="12.8" x2="9.2" y2="12.8"/>
<line class="st0" x1="12.2" y1="11.8" x2="12.2" y2="11.8"/>
<line class="st0" x1="9.3" y1="16.3" x2="9.3" y2="16.3"/>
<line class="st0" x1="12.7" y1="18.4" x2="12.7" y2="18.4"/>
<line class="st0" x1="12.5" y1="15.2" x2="12.5" y2="15.2"/>
<line class="st0" x1="15.1" y1="13" x2="15.1" y2="13"/>
<line class="st0" x1="18.2" y1="11" x2="18.2" y2="11"/>
<line class="st0" x1="4" y1="17" x2="4" y2="17"/>
<line class="st0" x1="1" y1="16.5" x2="1" y2="16.5"/>
<line class="st0" x1="2.5" y1="19.5" x2="2.5" y2="19.5"/>
<line class="st0" x1="5.6" y1="20.1" x2="5.6" y2="20.1"/>
<line class="st0" x1="8.9" y1="20" x2="8.9" y2="20"/>
<line class="st0" x1="16.1" y1="17.9" x2="16.1" y2="17.9"/>
<line class="st0" x1="14.7" y1="20.9" x2="14.7" y2="20.9"/>
<line class="st0" x1="11.9" y1="22.2" x2="11.9" y2="22.2"/>
<line class="st0" x1="17.6" y1="21" x2="17.6" y2="21"/>
<line class="st0" x1="19.5" y1="18.1" x2="19.5" y2="18.1"/>
<line class="st0" x1="18.4" y1="13.8" x2="18.4" y2="13.8"/>
<line class="st0" x1="9.2" y1="9.3" x2="9.2" y2="9.3"/>
<line class="st0" x1="22.8" y1="12.2" x2="22.8" y2="12.2"/>
<line class="st0" x1="21.4" y1="15" x2="21.4" y2="15"/>
<line class="st0" x1="22.4" y1="18.1" x2="22.4" y2="18.1"/>
<line class="st0" x1="20.9" y1="21.1" x2="20.9" y2="21.1"/>
<line class="st0" x1="24.8" y1="15.4" x2="24.8" y2="15.4"/>
<line class="st0" x1="26.8" y1="12.8" x2="26.8" y2="12.8"/>
<line class="st0" x1="26" y1="18" x2="26" y2="18"/>
<line class="st0" x1="24.2" y1="21.2" x2="24.2" y2="21.2"/>
<line class="st0" x1="28.5" y1="16.3" x2="28.5" y2="16.3"/>
<line class="st0" x1="0.9" y1="22.3" x2="0.9" y2="22.3"/>
<line class="st0" x1="4.1" y1="22.8" x2="4.1" y2="22.8"/>
<line class="st0" x1="7.3" y1="23" x2="7.3" y2="23"/>
<line class="st0" x1="30.4" y1="13.4" x2="30.4" y2="13.4"/>
<line class="st0" x1="30.1" y1="18.5" x2="30.1" y2="18.5"/>
<line class="st0" x1="32.8" y1="17" x2="32.8" y2="17"/>
<line class="st0" x1="31.4" y1="21.7" x2="31.4" y2="21.7"/>
<line class="st0" x1="34.7" y1="20.8" x2="34.7" y2="20.8"/>
<line class="st0" x1="36.1" y1="17.4" x2="36.1" y2="17.4"/>
<line class="st0" x1="36" y1="12.9" x2="36" y2="12.9"/>
<line class="st0" x1="39.1" y1="15.8" x2="39.1" y2="15.8"/>
<line class="st0" x1="41.1" y1="12.8" x2="41.1" y2="12.8"/>
<line class="st0" x1="43.2" y1="15.9" x2="43.2" y2="15.9"/>
<line class="st0" x1="40.4" y1="19.2" x2="40.4" y2="19.2"/>
<line class="st0" x1="38" y1="22" x2="38" y2="22"/>
<line class="st0" x1="44.7" y1="13" x2="44.7" y2="13"/>
<line class="st0" x1="48.6" y1="9" x2="48.6" y2="9"/>
<line class="st0" x1="51.8" y1="6.3" x2="51.8" y2="6.3"/>
<line class="st0" x1="52.3" y1="10.3" x2="52.3" y2="10.3"/>
<line class="st0" x1="49.5" y1="4.8" x2="49.5" y2="4.8"/>
<line class="st0" x1="46.3" y1="7.3" x2="46.3" y2="7.3"/>
<line class="st0" x1="42.8" y1="5.6" x2="42.8" y2="5.6"/>
<line class="st0" x1="45.5" y1="4.4" x2="45.5" y2="4.4"/>
<line class="st0" x1="52.3" y1="1.8" x2="52.3" y2="1.8"/>
<line class="st0" x1="47" y1="1.1" x2="47" y2="1.1"/>
<line class="st0" x1="43.2" y1="1.6" x2="43.2" y2="1.6"/>
<line class="st0" x1="43" y1="9.8" x2="43" y2="9.8"/>
<line class="st0" x1="40.2" y1="3.5" x2="40.2" y2="3.5"/>
<line class="st0" x1="37.1" y1="2" x2="37.1" y2="2"/>
<line class="st0" x1="34.2" y1="0.7" x2="34.2" y2="0.7"/>
<line class="st0" x1="36.8" y1="5" x2="36.8" y2="5"/>
<line class="st0" x1="35.1" y1="7.7" x2="35.1" y2="7.7"/>
<line class="st0" x1="32.9" y1="11.1" x2="32.9" y2="11.1"/>
<line class="st0" x1="31.7" y1="7.3" x2="31.7" y2="7.3"/>
<line class="st0" x1="31.4" y1="3.6" x2="31.4" y2="3.6"/>
<line class="st0" x1="27.6" y1="6.1" x2="27.6" y2="6.1"/>
<line class="st0" x1="29.2" y1="10" x2="29.2" y2="10"/>
<line class="st0" x1="29.4" y1="1" x2="29.4" y2="1"/>
<line class="st0" x1="28.1" y1="4" x2="28.1" y2="4"/>
<line class="st0" x1="25.9" y1="1.3" x2="25.9" y2="1.3"/>
<line class="st0" x1="22.5" y1="0.7" x2="22.5" y2="0.7"/>
<line class="st0" x1="24.2" y1="6.8" x2="24.2" y2="6.8"/>
<line class="st0" x1="22.3" y1="9.2" x2="22.3" y2="9.2"/>
<line class="st0" x1="20.8" y1="6.9" x2="20.8" y2="6.9"/>
<line class="st0" x1="22.7" y1="3.7" x2="22.7" y2="3.7"/>
<line class="st0" x1="18.8" y1="3.7" x2="18.8" y2="3.7"/>
<line class="st0" x1="5.8" y1="9" x2="5.8" y2="9"/>
<line class="st0" x1="2.8" y1="10" x2="2.8" y2="10"/>
<line class="st0" x1="0.3" y1="7.9" x2="0.3" y2="7.9"/>
<line class="st0" x1="8.2" y1="6.5" x2="8.2" y2="6.5"/>
<line class="st0" x1="10.7" y1="4.4" x2="10.7" y2="4.4"/>
<line class="st0" x1="9.1" y1="0.7" x2="9.1" y2="0.7"/>
<line class="st0" x1="7.6" y1="3.3" x2="7.6" y2="3.3"/>
<line class="st0" x1="5.5" y1="0.3" x2="5.5" y2="0.3"/>
<line class="st0" x1="3.7" y1="5.4" x2="3.7" y2="5.4"/>
<line class="st0" x1="4.3" y1="3" x2="4.3" y2="3"/>
<line class="st0" x1="1.4" y1="0.5" x2="1.4" y2="0.5"/>
<line class="st0" x1="0.3" y1="4.1" x2="0.3" y2="4.1"/>
<line class="st0" x1="17.9" y1="5.9" x2="17.9" y2="5.9"/>
<line class="st0" x1="17.8" y1="8.2" x2="17.8" y2="8.2"/>
<line class="st0" x1="13.8" y1="9.6" x2="13.8" y2="9.6"/>
<line class="st0" x1="14.5" y1="5.5" x2="14.5" y2="5.5"/>
<line class="st0" x1="16.2" y1="1.5" x2="16.2" y2="1.5"/>
<line class="st0" x1="13.9" y1="3" x2="13.9" y2="3"/>
<line class="st0" x1="12.4" y1="0.5" x2="12.4" y2="0.5"/>
<line class="st0" x1="39.5" y1="6.9" x2="39.5" y2="6.9"/>
<line class="st0" x1="37.8" y1="10.3" x2="37.8" y2="10.3"/>
<line class="st0" x1="47.5" y1="15.1" x2="47.5" y2="15.1"/>
<line class="st0" x1="48.1" y1="11.5" x2="48.1" y2="11.5"/>
<line class="st0" x1="51.8" y1="28.8" x2="51.8" y2="28.8"/>
<line class="st0" x1="52.8" y1="31.5" x2="52.8" y2="31.5"/>
<line class="st0" x1="52.6" y1="25.3" x2="52.6" y2="25.3"/>
<line class="st0" x1="46.8" y1="18.4" x2="46.8" y2="18.4"/>
<line class="st0" x1="50.6" y1="16.8" x2="50.6" y2="16.8"/>
<line class="st0" x1="50.3" y1="22.5" x2="50.3" y2="22.5"/>
<line class="st0" x1="49.8" y1="50.3" x2="49.8" y2="50.3"/>
<line class="st0" x1="47.7" y1="21.7" x2="47.7" y2="21.7"/>
<line class="st0" x1="52.3" y1="20.3" x2="52.3" y2="20.3"/>
<line class="st0" x1="47.2" y1="27.7" x2="47.2" y2="27.7"/>
<line class="st0" x1="45.8" y1="24.1" x2="45.8" y2="24.1"/>
<line class="st0" x1="42" y1="23.3" x2="42" y2="23.3"/>
<line class="st0" x1="39.8" y1="26.2" x2="39.8" y2="26.2"/>
<line class="st0" x1="43.2" y1="26.8" x2="43.2" y2="26.8"/>
<line class="st0" x1="33" y1="24.9" x2="33" y2="24.9"/>
<line class="st0" x1="30" y1="24.7" x2="30" y2="24.7"/>
<line class="st0" x1="26.5" y1="24.3" x2="26.5" y2="24.3"/>
<line class="st0" x1="22.7" y1="24.2" x2="22.7" y2="24.2"/>
<line class="st0" x1="19.8" y1="23.6" x2="19.8" y2="23.6"/>
<line class="st0" x1="15.8" y1="23.7" x2="15.8" y2="23.7"/>
<line class="st0" x1="11.5" y1="24.8" x2="11.5" y2="24.8"/>
<line class="st0" x1="2.4" y1="25.1" x2="2.4" y2="25.1"/>
<line class="st0" x1="5.4" y1="26.3" x2="5.4" y2="26.3"/>
<line class="st0" x1="4.3" y1="29" x2="4.3" y2="29"/>
<line class="st0" x1="1.4" y1="27.8" x2="1.4" y2="27.8"/>
<line class="st0" x1="2.3" y1="30.8" x2="2.3" y2="30.8"/>
<line class="st0" x1="5.9" y1="32.1" x2="5.9" y2="32.1"/>
<line class="st0" x1="7.7" y1="29.1" x2="7.7" y2="29.1"/>
<line class="st0" x1="9.2" y1="31.8" x2="9.2" y2="31.8"/>
<line class="st0" x1="10.8" y1="28.3" x2="10.8" y2="28.3"/>
<line class="st0" x1="12.1" y1="31.1" x2="12.1" y2="31.1"/>
<line class="st0" x1="14.4" y1="30.1" x2="14.4" y2="30.1"/>
<line class="st0" x1="13.5" y1="27.4" x2="13.5" y2="27.4"/>
<line class="st0" x1="16.5" y1="27.9" x2="16.5" y2="27.9"/>
<line class="st0" x1="19.5" y1="29" x2="19.5" y2="29"/>
<line class="st0" x1="21" y1="26.8" x2="21" y2="26.8"/>
<line class="st0" x1="17.9" y1="31.3" x2="17.9" y2="31.3"/>
<line class="st0" x1="15.4" y1="32.6" x2="15.4" y2="32.6"/>
<line class="st0" x1="12.7" y1="33.8" x2="12.7" y2="33.8"/>
<line class="st0" x1="10.2" y1="34" x2="10.2" y2="34"/>
<line class="st0" x1="7" y1="34.5" x2="7" y2="34.5"/>
<line class="st0" x1="4.4" y1="35.1" x2="4.4" y2="35.1"/>
<line class="st0" x1="1.5" y1="36.5" x2="1.5" y2="36.5"/>
<line class="st0" x1="0.8" y1="39.8" x2="0.8" y2="39.8"/>
<line class="st0" x1="3.5" y1="38.4" x2="3.5" y2="38.4"/>
<line class="st0" x1="6.5" y1="37.5" x2="6.5" y2="37.5"/>
<line class="st0" x1="6.3" y1="40.1" x2="6.3" y2="40.1"/>
<line class="st0" x1="3.8" y1="41.8" x2="3.8" y2="41.8"/>
<line class="st0" x1="1" y1="43.5" x2="1" y2="43.5"/>
<line class="st0" x1="3.8" y1="44.6" x2="3.8" y2="44.6"/>
<line class="st0" x1="7.1" y1="43" x2="7.1" y2="43"/>
<line class="st0" x1="9.2" y1="41.2" x2="9.2" y2="41.2"/>
<line class="st0" x1="10.5" y1="44.1" x2="10.5" y2="44.1"/>
<line class="st0" x1="13" y1="42.5" x2="13" y2="42.5"/>
<line class="st0" x1="15" y1="44.3" x2="15" y2="44.3"/>
<line class="st0" x1="17.3" y1="42.1" x2="17.3" y2="42.1"/>
<line class="st0" x1="14.4" y1="40" x2="14.4" y2="40"/>
<line class="st0" x1="11.6" y1="39.4" x2="11.6" y2="39.4"/>
<line class="st0" x1="11.5" y1="36.5" x2="11.5" y2="36.5"/>
<line class="st0" x1="14.4" y1="36.9" x2="14.4" y2="36.9"/>
<line class="st0" x1="16.9" y1="35.5" x2="16.9" y2="35.5"/>
<line class="st0" x1="17.4" y1="39" x2="17.4" y2="39"/>
<line class="st0" x1="20.6" y1="38.7" x2="20.6" y2="38.7"/>
<line class="st0" x1="20.1" y1="41.3" x2="20.1" y2="41.3"/>
<line class="st0" x1="21" y1="44" x2="21" y2="44"/>
<line class="st0" x1="23.2" y1="42.8" x2="23.2" y2="42.8"/>
<line class="st0" x1="26.2" y1="42.2" x2="26.2" y2="42.2"/>
<line class="st0" x1="25.4" y1="45.2" x2="25.4" y2="45.2"/>
<line class="st0" x1="23.5" y1="40" x2="23.5" y2="40"/>
<line class="st0" x1="24.2" y1="37.4" x2="24.2" y2="37.4"/>
<line class="st0" x1="26.6" y1="34.3" x2="26.6" y2="34.3"/>
<line class="st0" x1="22.6" y1="35" x2="22.6" y2="35"/>
<line class="st0" x1="20.6" y1="33.3" x2="20.6" y2="33.3"/>
<line class="st0" x1="21.4" y1="30.9" x2="21.4" y2="30.9"/>
<line class="st0" x1="24.3" y1="32.4" x2="24.3" y2="32.4"/>
<line class="st0" x1="26.4" y1="30.4" x2="26.4" y2="30.4"/>
<line class="st0" x1="23.9" y1="28.8" x2="23.9" y2="28.8"/>
<line class="st0" x1="28.6" y1="27.6" x2="28.6" y2="27.6"/>
<line class="st0" x1="31.5" y1="27.4" x2="31.5" y2="27.4"/>
<line class="st0" x1="32.9" y1="30.9" x2="32.9" y2="30.9"/>
<line class="st0" x1="30.9" y1="33.1" x2="30.9" y2="33.1"/>
<line class="st0" x1="32.1" y1="35.9" x2="32.1" y2="35.9"/>
<line class="st0" x1="34.6" y1="34.7" x2="34.6" y2="34.7"/>
<line class="st0" x1="36.6" y1="31.8" x2="36.6" y2="31.8"/>
<line class="st0" x1="35.5" y1="28" x2="35.5" y2="28"/>
<line class="st0" x1="39.1" y1="29" x2="39.1" y2="29"/>
<line class="st0" x1="43.3" y1="29.8" x2="43.3" y2="29.8"/>
<line class="st0" x1="40" y1="32.5" x2="40" y2="32.5"/>
<line class="st0" x1="38.1" y1="35.1" x2="38.1" y2="35.1"/>
<line class="st0" x1="41.7" y1="35.6" x2="41.7" y2="35.6"/>
<line class="st0" x1="45.1" y1="36.3" x2="45.1" y2="36.3"/>
<line class="st0" x1="47.9" y1="34.2" x2="47.9" y2="34.2"/>
<line class="st0" x1="52.1" y1="34.7" x2="52.1" y2="34.7"/>
<line class="st0" x1="49.8" y1="31.6" x2="49.8" y2="31.6"/>
<line class="st0" x1="46.6" y1="30.9" x2="46.6" y2="30.9"/>
<line class="st0" x1="47" y1="39.3" x2="47" y2="39.3"/>
<line class="st0" x1="49.2" y1="36.5" x2="49.2" y2="36.5"/>
<line class="st0" x1="49.6" y1="42.2" x2="49.6" y2="42.2"/>
<line class="st0" x1="51.7" y1="45.2" x2="51.7" y2="45.2"/>
<line class="st0" x1="47.1" y1="43.7" x2="47.1" y2="43.7"/>
<line class="st0" x1="44" y1="41.2" x2="44" y2="41.2"/>
<line class="st0" x1="42.7" y1="38.5" x2="42.7" y2="38.5"/>
<line class="st0" x1="39.2" y1="38.8" x2="39.2" y2="38.8"/>
<line class="st0" x1="40.7" y1="41.7" x2="40.7" y2="41.7"/>
<line class="st0" x1="41.4" y1="44.5" x2="41.4" y2="44.5"/>
<line class="st0" x1="38.1" y1="44" x2="38.1" y2="44"/>
<line class="st0" x1="36.4" y1="41.4" x2="36.4" y2="41.4"/>
<line class="st0" x1="33.6" y1="39.6" x2="33.6" y2="39.6"/>
<line class="st0" x1="34.7" y1="43.3" x2="34.7" y2="43.3"/>
<line class="st0" x1="30.9" y1="41.5" x2="30.9" y2="41.5"/>
<line class="st0" x1="27.1" y1="38.8" x2="27.1" y2="38.8"/>
<line class="st0" x1="29.3" y1="44.6" x2="29.3" y2="44.6"/>
<line class="st0" x1="32.4" y1="45.4" x2="32.4" y2="45.4"/>
<line class="st0" x1="52.4" y1="49.5" x2="52.4" y2="49.5"/>
<line class="st0" x1="52.4" y1="53" x2="52.4" y2="53"/>
<line class="st0" x1="48.8" y1="47.2" x2="48.8" y2="47.2"/>
<line class="st0" x1="45.6" y1="49.3" x2="45.6" y2="49.3"/>
<line class="st0" x1="47.3" y1="52.1" x2="47.3" y2="52.1"/>
<line class="st0" x1="44.1" y1="46" x2="44.1" y2="46"/>
<line class="st0" x1="40.8" y1="47.9" x2="40.8" y2="47.9"/>
<line class="st0" x1="42.2" y1="50.8" x2="42.2" y2="50.8"/>
<line class="st0" x1="44.5" y1="52.3" x2="44.5" y2="52.3"/>
<line class="st0" x1="39.8" y1="53" x2="39.8" y2="53"/>
<line class="st0" x1="37.2" y1="52.7" x2="37.2" y2="52.7"/>
<line class="st0" x1="37.8" y1="50.7" x2="37.8" y2="50.7"/>
<line class="st0" x1="34.8" y1="51" x2="34.8" y2="51"/>
<line class="st0" x1="29.1" y1="36" x2="29.1" y2="36"/>
<line class="st0" x1="30.9" y1="38.5" x2="30.9" y2="38.5"/>
<line class="st0" x1="31.4" y1="52.3" x2="31.4" y2="52.3"/>
<line class="st0" x1="32.9" y1="48.9" x2="32.9" y2="48.9"/>
<line class="st0" x1="36.2" y1="46.4" x2="36.2" y2="46.4"/>
<line class="st0" x1="30.1" y1="47.6" x2="30.1" y2="47.6"/>
<line class="st0" x1="26.6" y1="47.8" x2="26.6" y2="47.8"/>
<line class="st0" x1="24" y1="49.3" x2="24" y2="49.3"/>
<line class="st0" x1="25.7" y1="52.6" x2="25.7" y2="52.6"/>
<line class="st0" x1="22.4" y1="46.9" x2="22.4" y2="46.9"/>
<line class="st0" x1="20.1" y1="48.4" x2="20.1" y2="48.4"/>
<line class="st0" x1="21.8" y1="51.2" x2="21.8" y2="51.2"/>
<line class="st0" x1="19.9" y1="52.7" x2="19.9" y2="52.7"/>
<line class="st0" x1="16.8" y1="47.3" x2="16.8" y2="47.3"/>
<line class="st0" x1="18.2" y1="50.2" x2="18.2" y2="50.2"/>
<line class="st0" x1="16.7" y1="52.7" x2="16.7" y2="52.7"/>
<line class="st0" x1="14.7" y1="49.6" x2="14.7" y2="49.6"/>
<line class="st0" x1="13.1" y1="46.5" x2="13.1" y2="46.5"/>
<line class="st0" x1="9.7" y1="46.5" x2="9.7" y2="46.5"/>
<line class="st0" x1="6.6" y1="45.8" x2="6.6" y2="45.8"/>
<line class="st0" x1="0.7" y1="46.9" x2="0.7" y2="46.9"/>
<line class="st0" x1="5.1" y1="49.1" x2="5.1" y2="49.1"/>
<line class="st0" x1="8.3" y1="49.2" x2="8.3" y2="49.2"/>
<line class="st0" x1="7.6" y1="52.5" x2="7.6" y2="52.5"/>
<line class="st0" x1="12.2" y1="52.6" x2="12.2" y2="52.6"/>
<line class="st0" x1="4.4" y1="51.7" x2="4.4" y2="51.7"/>
<line class="st0" x1="1.1" y1="50.2" x2="1.1" y2="50.2"/>
<line class="st0" x1="1.7" y1="52.7" x2="1.7" y2="52.7"/>
<path class="st1" d="M20.1,0.8c1.3,0,1.6,1.6,0.2,1.6S19,0.8,20.1,0.8z"/>
<path class="st1" d="M33.6,2.6c1.3-0.1,1.4,1.6,0.1,1.6S32.5,2.7,33.6,2.6z"/>
<path class="st1" d="M41.7,7.5C43,7.4,43.3,9,42,9.1S40.7,7.5,41.7,7.5z"/>
<path class="st1" d="M26.2,9.4c1-0.1,1.4,1.4,0.2,1.5S25,9.5,26.2,9.4z"/>
<path class="st1" d="M33.9,13.5c0.8-0.1,1.6,1.4,0.1,1.6S32.8,13.6,33.9,13.5z"/>
<path class="st1" d="M12,6.1c1.2,0.1,1.2,1.5,0.1,1.6S10.8,6.2,12,6.1z"/>
<path class="st1" d="M2.5,7.2c1,0.1,1.5,1.2,0.2,1.4S1.2,7.3,2.5,7.2z"/>
<path class="st1" d="M16.8,14.7c1.1-0.1,1.3,1.5,0.1,1.6S15.9,14.8,16.8,14.7z"/>
<path class="st1" d="M7,15.6c1.3,0,1.6,1.4,0.1,1.6S5.6,15.7,7,15.6z"/>
<path class="st1" d="M28,20.3c0,1.3-1.8,1.2-1.9,0.1S27.9,19.1,28,20.3z"/>
<path class="st1" d="M36,23.8c1.2,0,1.3,1.5,0.1,1.6S34.7,23.9,36,23.8z"/>
<path class="st1" d="M45.2,20c0,1.2-1.8,1.4-1.9,0.1S45.1,18.7,45.2,20z"/>
<path class="st1" d="M50.8,12.8c1.1-0.1,1.6,1.5,0.2,1.5S49.8,12.9,50.8,12.8z"/>
<path class="st1" d="M49.2,2.5C48,2.6,48,1.1,48.8,1S51,2.2,49.2,2.5z"/>
<path class="st1" d="M49.8,25.3c1.2-0.1,1.3,1.4,0.2,1.5S48.6,25.5,49.8,25.3z"/>
<path class="st1" d="M44.8,33c0,1.1-1.9,1.1-1.9,0.1S44.8,31.6,44.8,33z"/>
<path class="st1" d="M36.5,37c1.3-0.1,1.2,1.4,0.2,1.5S35.1,37.1,36.5,37z"/>
<path class="st1" d="M52.7,39.9c0,1.3-1.9,1.2-1.9,0.1S52.5,38.6,52.7,39.9z"/>
<path class="st1" d="M29,29.6c1.2,0,1.6,1.5,0.2,1.6S27.9,29.6,29,29.6z"/>
<path class="st1" d="M19,25.3c0,1.3-1.8,1.4-1.8,0.1S19,23.8,19,25.3z"/>
<path class="st1" d="M28.7,40.2c0.9,0,1.6,1.8,0.1,1.8S27.2,40.1,28.7,40.2z"/>
<path class="st1" d="M19.6,34.4c1.1,0.1,1.4,1.7,0.1,1.8S18.5,34.5,19.6,34.4z"/>
<path class="st1" d="M10,37.8C10,39,8.1,39.5,8,38C8,36.5,9.9,36.5,10,37.8z"/>
<path class="st1" d="M9.5,26.2c0.1,1.7-1.8,1.6-1.8,0.3S9.2,25.2,9.5,26.2z"/>
<path class="st1" d="M1.9,32.1c1.1,0,1.4,2,0.1,2S0.3,32.3,1.9,32.1z"/>
<path class="st1" d="M4,47.3c0.1,1.1-2.1,1.4-2.2,0.1S3.8,45.8,4,47.3z"/>
<path class="st1" d="M12.2,49.4c1.1,0,1.5,1.7,0.1,1.8S10.5,49.5,12.2,49.4z"/>
<path class="st1" d="M19.3,44.1c1.2-0.1,1.2,1.6,0.1,1.6S17.6,44.3,19.3,44.1z"/>
<path class="st1" d="M29.7,50.1c0,1.2-1.9,1.3-1.9,0.1S29.6,48.9,29.7,50.1z"/>
<path class="st1" d="M38.5,47.8c0,1.2-1.8,1.2-1.9,0.1S38.3,46.4,38.5,47.8z"/>
<path class="st1" d="M47.1,45.1c1.2-0.1,1.4,1.6,0.2,1.8S45.7,45.2,47.1,45.1z"/>
</svg>
