<svg id="Layer_1" data-name="Layer 1" xmlns="http://www.w3.org/2000/svg" width="54.13" height="54.13" viewBox="0 0 54.13 54.13"><defs><style>.cls-1,.cls-2,.cls-3{fill:none;}.cls-2,.cls-3{stroke:#000;}.cls-2{stroke-linecap:round;stroke-width:0.7px;}.cls-3{stroke-width:0.3px;}</style></defs><title>601</title><rect class="cls-1" x="9.64" y="-53.86" width="54.13" height="54.13"/><rect class="cls-1" x="9.64" y="0.26" width="54.13" height="54.13"/><line class="cls-2" x1="34.86" y1="26.61" x2="34.86" y2="26.61"/><line class="cls-2" x1="10.47" y1="12.53" x2="10.47" y2="12.53"/><line class="cls-2" x1="13" y1="13.96" x2="13" y2="13.96"/><line class="cls-2" x1="15.7" y1="12.2" x2="15.7" y2="12.2"/><line class="cls-2" x1="15.7" y1="15.28" x2="15.7" y2="15.28"/><line class="cls-2" x1="19.05" y1="13.19" x2="19.05" y2="13.19"/><line class="cls-2" x1="22.02" y1="12.14" x2="22.02" y2="12.14"/><line class="cls-2" x1="19.11" y1="16.71" x2="19.11" y2="16.71"/><line class="cls-2" x1="22.49" y1="18.72" x2="22.49" y2="18.72"/><line class="cls-2" x1="22.32" y1="15.55" x2="22.32" y2="15.55"/><line class="cls-2" x1="24.88" y1="13.41" x2="24.88" y2="13.41"/><line class="cls-2" x1="27.97" y1="11.38" x2="27.97" y2="11.38"/><line class="cls-2" x1="13.83" y1="17.37" x2="13.83" y2="17.37"/><line class="cls-2" x1="10.8" y1="16.87" x2="10.8" y2="16.87"/><line class="cls-2" x1="12.29" y1="19.84" x2="12.29" y2="19.84"/><line class="cls-2" x1="15.42" y1="20.5" x2="15.42" y2="20.5"/><line class="cls-2" x1="18.67" y1="20.39" x2="18.67" y2="20.39"/><line class="cls-2" x1="25.87" y1="18.25" x2="25.87" y2="18.25"/><line class="cls-2" x1="24.49" y1="21.22" x2="24.49" y2="21.22"/><line class="cls-2" x1="21.75" y1="22.54" x2="21.75" y2="22.54"/><line class="cls-2" x1="27.41" y1="21.33" x2="27.41" y2="21.33"/><line class="cls-2" x1="29.28" y1="18.47" x2="29.28" y2="18.47"/><line class="cls-2" x1="28.24" y1="14.12" x2="28.24" y2="14.12"/><line class="cls-2" x1="19.03" y1="9.7" x2="19.03" y2="9.7"/><line class="cls-2" x1="32.58" y1="12.58" x2="32.58" y2="12.58"/><line class="cls-2" x1="31.21" y1="15.33" x2="31.21" y2="15.33"/><line class="cls-2" x1="32.25" y1="18.47" x2="32.25" y2="18.47"/><line class="cls-2" x1="30.71" y1="21.44" x2="30.71" y2="21.44"/><line class="cls-2" x1="34.62" y1="15.72" x2="34.62" y2="15.72"/><line class="cls-2" x1="36.6" y1="13.13" x2="36.6" y2="13.13"/><line class="cls-2" x1="35.77" y1="18.41" x2="35.77" y2="18.41"/><line class="cls-2" x1="33.96" y1="21.6" x2="33.96" y2="21.6"/><line class="cls-2" x1="38.3" y1="16.65" x2="38.3" y2="16.65"/><line class="cls-2" x1="10.69" y1="22.65" x2="10.69" y2="22.65"/><line class="cls-2" x1="13.88" y1="23.14" x2="13.88" y2="23.14"/><line class="cls-2" x1="17.13" y1="23.36" x2="17.13" y2="23.36"/><line class="cls-2" x1="40.17" y1="13.74" x2="40.17" y2="13.74"/><line class="cls-2" x1="39.9" y1="18.88" x2="39.9" y2="18.88"/><line class="cls-2" x1="42.65" y1="17.38" x2="42.65" y2="17.38"/><line class="cls-2" x1="41.16" y1="22.1" x2="41.16" y2="22.1"/><line class="cls-2" x1="44.52" y1="21.16" x2="44.52" y2="21.16"/><line class="cls-2" x1="45.95" y1="17.81" x2="45.95" y2="17.81"/><line class="cls-2" x1="45.84" y1="13.3" x2="45.84" y2="13.3"/><line class="cls-2" x1="48.92" y1="16.16" x2="48.92" y2="16.16"/><line class="cls-2" x1="50.9" y1="13.13" x2="50.9" y2="13.13"/><line class="cls-2" x1="52.99" y1="16.27" x2="52.99" y2="16.27"/><line class="cls-2" x1="50.18" y1="19.57" x2="50.18" y2="19.57"/><line class="cls-2" x1="47.82" y1="22.32" x2="47.82" y2="22.32"/><line class="cls-2" x1="54.47" y1="13.41" x2="54.47" y2="13.41"/><line class="cls-2" x1="52.65" y1="6.01" x2="52.65" y2="6.01"/><line class="cls-2" x1="52.97" y1="1.95" x2="52.97" y2="1.95"/><line class="cls-2" x1="52.84" y1="10.2" x2="52.84" y2="10.2"/><line class="cls-2" x1="49.97" y1="3.88" x2="49.97" y2="3.88"/><line class="cls-2" x1="46.9" y1="2.38" x2="46.9" y2="2.38"/><line class="cls-2" x1="43.99" y1="1.11" x2="43.99" y2="1.11"/><line class="cls-2" x1="46.59" y1="5.32" x2="46.59" y2="5.32"/><line class="cls-2" x1="44.9" y1="8.07" x2="44.9" y2="8.07"/><line class="cls-2" x1="42.72" y1="11.45" x2="42.72" y2="11.45"/><line class="cls-2" x1="41.53" y1="7.63" x2="41.53" y2="7.63"/><line class="cls-2" x1="41.22" y1="4.01" x2="41.22" y2="4.01"/><line class="cls-2" x1="37.4" y1="6.51" x2="37.4" y2="6.51"/><line class="cls-2" x1="39.03" y1="10.38" x2="39.03" y2="10.38"/><line class="cls-2" x1="39.15" y1="1.38" x2="39.15" y2="1.38"/><line class="cls-2" x1="37.9" y1="4.38" x2="37.9" y2="4.38"/><line class="cls-2" x1="35.65" y1="1.63" x2="35.65" y2="1.63"/><line class="cls-2" x1="32.34" y1="1.07" x2="32.34" y2="1.07"/><line class="cls-2" x1="33.97" y1="7.13" x2="33.97" y2="7.13"/><line class="cls-2" x1="32.09" y1="9.57" x2="32.09" y2="9.57"/><line class="cls-2" x1="30.59" y1="7.26" x2="30.59" y2="7.26"/><line class="cls-2" x1="32.47" y1="4.07" x2="32.47" y2="4.07"/><line class="cls-2" x1="28.59" y1="4.07" x2="28.59" y2="4.07"/><line class="cls-2" x1="15.65" y1="9.32" x2="15.65" y2="9.32"/><line class="cls-2" x1="12.65" y1="10.32" x2="12.65" y2="10.32"/><line class="cls-2" x1="10.15" y1="8.26" x2="10.15" y2="8.26"/><line class="cls-2" x1="17.97" y1="6.88" x2="17.97" y2="6.88"/><line class="cls-2" x1="20.47" y1="4.76" x2="20.47" y2="4.76"/><line class="cls-2" x1="18.9" y1="1.07" x2="18.9" y2="1.07"/><line class="cls-2" x1="17.4" y1="3.63" x2="17.4" y2="3.63"/><line class="cls-2" x1="15.32" y1="0.72" x2="15.32" y2="0.72"/><line class="cls-2" x1="13.47" y1="5.76" x2="13.47" y2="5.76"/><line class="cls-2" x1="14.15" y1="3.38" x2="14.15" y2="3.38"/><line class="cls-2" x1="11.15" y1="0.88" x2="11.15" y2="0.88"/><line class="cls-2" x1="10.15" y1="4.51" x2="10.15" y2="4.51"/><line class="cls-2" x1="27.72" y1="6.26" x2="27.72" y2="6.26"/><line class="cls-2" x1="27.59" y1="8.57" x2="27.59" y2="8.57"/><line class="cls-2" x1="23.59" y1="9.95" x2="23.59" y2="9.95"/><line class="cls-2" x1="24.28" y1="5.88" x2="24.28" y2="5.88"/><line class="cls-2" x1="25.97" y1="1.88" x2="25.97" y2="1.88"/><line class="cls-2" x1="23.65" y1="3.38" x2="23.65" y2="3.38"/><line class="cls-2" x1="22.15" y1="0.88" x2="22.15" y2="0.88"/><line class="cls-2" x1="49.28" y1="7.26" x2="49.28" y2="7.26"/><line class="cls-2" x1="47.65" y1="10.63" x2="47.65" y2="10.63"/><line class="cls-2" x1="51.81" y1="23.64" x2="51.81" y2="23.64"/><line class="cls-2" x1="49.58" y1="26.61" x2="49.58" y2="26.61"/><line class="cls-2" x1="53.04" y1="27.19" x2="53.04" y2="27.19"/><line class="cls-2" x1="42.81" y1="25.29" x2="42.81" y2="25.29"/><line class="cls-2" x1="39.76" y1="25.04" x2="39.76" y2="25.04"/><line class="cls-2" x1="36.3" y1="24.71" x2="36.3" y2="24.71"/><line class="cls-2" x1="32.5" y1="24.55" x2="32.5" y2="24.55"/><line class="cls-2" x1="29.61" y1="23.97" x2="29.61" y2="23.97"/><line class="cls-2" x1="25.57" y1="24.05" x2="25.57" y2="24.05"/><line class="cls-2" x1="21.28" y1="25.21" x2="21.28" y2="25.21"/><line class="cls-2" x1="12.21" y1="25.45" x2="12.21" y2="25.45"/><line class="cls-2" x1="15.18" y1="26.69" x2="15.18" y2="26.69"/><line class="cls-2" x1="14.1" y1="29.33" x2="14.1" y2="29.33"/><line class="cls-2" x1="11.22" y1="28.18" x2="11.22" y2="28.18"/><line class="cls-2" x1="12.12" y1="31.15" x2="12.12" y2="31.15"/><line class="cls-2" x1="15.75" y1="32.47" x2="15.75" y2="32.47"/><line class="cls-2" x1="17.49" y1="29.5" x2="17.49" y2="29.5"/><line class="cls-2" x1="19.05" y1="32.14" x2="19.05" y2="32.14"/><line class="cls-2" x1="20.62" y1="28.67" x2="20.62" y2="28.67"/><line class="cls-2" x1="21.94" y1="31.48" x2="21.94" y2="31.48"/><line class="cls-2" x1="24.17" y1="30.49" x2="24.17" y2="30.49"/><line class="cls-2" x1="23.26" y1="27.76" x2="23.26" y2="27.76"/><line class="cls-2" x1="26.31" y1="28.26" x2="26.31" y2="28.26"/><line class="cls-2" x1="29.28" y1="29.41" x2="29.28" y2="29.41"/><line class="cls-2" x1="30.85" y1="27.19" x2="30.85" y2="27.19"/><line class="cls-2" x1="27.72" y1="31.64" x2="27.72" y2="31.64"/><line class="cls-2" x1="25.24" y1="32.96" x2="25.24" y2="32.96"/><line class="cls-2" x1="22.52" y1="34.2" x2="22.52" y2="34.2"/><line class="cls-2" x1="19.96" y1="34.36" x2="19.96" y2="34.36"/><line class="cls-2" x1="16.83" y1="34.86" x2="16.83" y2="34.86"/><line class="cls-2" x1="14.19" y1="35.44" x2="14.19" y2="35.44"/><line class="cls-2" x1="11.3" y1="36.84" x2="11.3" y2="36.84"/><line class="cls-2" x1="10.56" y1="40.14" x2="10.56" y2="40.14"/><line class="cls-2" x1="13.28" y1="38.74" x2="13.28" y2="38.74"/><line class="cls-2" x1="16.33" y1="37.83" x2="16.33" y2="37.83"/><line class="cls-2" x1="16.08" y1="40.47" x2="16.08" y2="40.47"/><line class="cls-2" x1="13.61" y1="42.12" x2="13.61" y2="42.12"/><line class="cls-2" x1="10.8" y1="43.85" x2="10.8" y2="43.85"/><line class="cls-2" x1="13.61" y1="44.92" x2="13.61" y2="44.92"/><line class="cls-2" x1="16.91" y1="43.36" x2="16.91" y2="43.36"/><line class="cls-2" x1="19.05" y1="41.54" x2="19.05" y2="41.54"/><line class="cls-2" x1="20.29" y1="44.43" x2="20.29" y2="44.43"/><line class="cls-2" x1="22.85" y1="42.86" x2="22.85" y2="42.86"/><line class="cls-2" x1="24.83" y1="44.68" x2="24.83" y2="44.68"/><line class="cls-2" x1="27.06" y1="42.45" x2="27.06" y2="42.45"/><line class="cls-2" x1="24.17" y1="40.39" x2="24.17" y2="40.39"/><line class="cls-2" x1="21.45" y1="39.81" x2="21.45" y2="39.81"/><line class="cls-2" x1="21.28" y1="36.84" x2="21.28" y2="36.84"/><line class="cls-2" x1="24.25" y1="37.25" x2="24.25" y2="37.25"/><line class="cls-2" x1="26.73" y1="35.85" x2="26.73" y2="35.85"/><line class="cls-2" x1="27.22" y1="39.4" x2="27.22" y2="39.4"/><line class="cls-2" x1="30.44" y1="39.07" x2="30.44" y2="39.07"/><line class="cls-2" x1="29.86" y1="41.71" x2="29.86" y2="41.71"/><line class="cls-2" x1="30.77" y1="44.35" x2="30.77" y2="44.35"/><line class="cls-2" x1="33" y1="43.19" x2="33" y2="43.19"/><line class="cls-2" x1="36.05" y1="42.61" x2="36.05" y2="42.61"/><line class="cls-2" x1="35.22" y1="45.58" x2="35.22" y2="45.58"/><line class="cls-2" x1="33.33" y1="40.39" x2="33.33" y2="40.39"/><line class="cls-2" x1="33.99" y1="37.75" x2="33.99" y2="37.75"/><line class="cls-2" x1="36.38" y1="34.69" x2="36.38" y2="34.69"/><line class="cls-2" x1="32.42" y1="35.35" x2="32.42" y2="35.35"/><line class="cls-2" x1="30.36" y1="33.7" x2="30.36" y2="33.7"/><line class="cls-2" x1="31.18" y1="31.23" x2="31.18" y2="31.23"/><line class="cls-2" x1="34.15" y1="32.8" x2="34.15" y2="32.8"/><line class="cls-2" x1="36.21" y1="30.82" x2="36.21" y2="30.82"/><line class="cls-2" x1="33.66" y1="29.17" x2="33.66" y2="29.17"/><line class="cls-2" x1="38.36" y1="28.01" x2="38.36" y2="28.01"/><line class="cls-2" x1="41.33" y1="27.76" x2="41.33" y2="27.76"/><line class="cls-2" x1="42.73" y1="31.31" x2="42.73" y2="31.31"/><line class="cls-2" x1="40.67" y1="33.46" x2="40.67" y2="33.46"/><line class="cls-2" x1="41.91" y1="36.26" x2="41.91" y2="36.26"/><line class="cls-2" x1="44.38" y1="35.11" x2="44.38" y2="35.11"/><line class="cls-2" x1="46.44" y1="32.14" x2="46.44" y2="32.14"/><line class="cls-2" x1="45.29" y1="28.34" x2="45.29" y2="28.34"/><line class="cls-2" x1="48.92" y1="29.33" x2="48.92" y2="29.33"/><line class="cls-2" x1="53.13" y1="30.16" x2="53.13" y2="30.16"/><line class="cls-2" x1="49.83" y1="32.88" x2="49.83" y2="32.88"/><line class="cls-2" x1="47.93" y1="35.44" x2="47.93" y2="35.44"/><line class="cls-2" x1="51.48" y1="36.01" x2="51.48" y2="36.01"/><line class="cls-2" x1="53.79" y1="41.54" x2="53.79" y2="41.54"/><line class="cls-2" x1="52.55" y1="38.9" x2="52.55" y2="38.9"/><line class="cls-2" x1="49" y1="39.15" x2="49" y2="39.15"/><line class="cls-2" x1="50.49" y1="42.04" x2="50.49" y2="42.04"/><line class="cls-2" x1="51.23" y1="44.84" x2="51.23" y2="44.84"/><line class="cls-2" x1="47.93" y1="44.35" x2="47.93" y2="44.35"/><line class="cls-2" x1="46.2" y1="41.79" x2="46.2" y2="41.79"/><line class="cls-2" x1="43.39" y1="39.97" x2="43.39" y2="39.97"/><line class="cls-2" x1="44.46" y1="43.69" x2="44.46" y2="43.69"/><line class="cls-2" x1="40.75" y1="41.87" x2="40.75" y2="41.87"/><line class="cls-2" x1="36.9" y1="39.13" x2="36.9" y2="39.13"/><line class="cls-2" x1="39.1" y1="45.01" x2="39.1" y2="45.01"/><line class="cls-2" x1="42.24" y1="45.75" x2="42.24" y2="45.75"/><line class="cls-2" x1="53.95" y1="46.41" x2="53.95" y2="46.41"/><line class="cls-2" x1="50.57" y1="48.31" x2="50.57" y2="48.31"/><line class="cls-2" x1="51.97" y1="51.19" x2="51.97" y2="51.19"/><line class="cls-2" x1="54.32" y1="52.72" x2="54.32" y2="52.72"/><line class="cls-2" x1="49.65" y1="53.38" x2="49.65" y2="53.38"/><line class="cls-2" x1="46.99" y1="53.05" x2="46.99" y2="53.05"/><line class="cls-2" x1="47.65" y1="51.05" x2="47.65" y2="51.05"/><line class="cls-2" x1="44.65" y1="51.38" x2="44.65" y2="51.38"/><line class="cls-2" x1="38.9" y1="36.38" x2="38.9" y2="36.38"/><line class="cls-2" x1="40.65" y1="38.88" x2="40.65" y2="38.88"/><line class="cls-2" x1="41.16" y1="52.68" x2="41.16" y2="52.68"/><line class="cls-2" x1="42.73" y1="49.3" x2="42.73" y2="49.3"/><line class="cls-2" x1="46.03" y1="46.74" x2="46.03" y2="46.74"/><line class="cls-2" x1="39.93" y1="47.98" x2="39.93" y2="47.98"/><line class="cls-2" x1="36.38" y1="48.14" x2="36.38" y2="48.14"/><line class="cls-2" x1="33.82" y1="49.71" x2="33.82" y2="49.71"/><line class="cls-2" x1="35.55" y1="52.93" x2="35.55" y2="52.93"/><line class="cls-2" x1="32.17" y1="47.23" x2="32.17" y2="47.23"/><line class="cls-2" x1="29.94" y1="48.72" x2="29.94" y2="48.72"/><line class="cls-2" x1="31.59" y1="51.61" x2="31.59" y2="51.61"/><line class="cls-2" x1="29.65" y1="53.05" x2="29.65" y2="53.05"/><line class="cls-2" x1="26.56" y1="47.65" x2="26.56" y2="47.65"/><line class="cls-2" x1="27.96" y1="50.62" x2="27.96" y2="50.62"/><line class="cls-2" x1="26.48" y1="53.09" x2="26.48" y2="53.09"/><line class="cls-2" x1="24.5" y1="49.96" x2="24.5" y2="49.96"/><line class="cls-2" x1="22.93" y1="46.82" x2="22.93" y2="46.82"/><line class="cls-2" x1="19.55" y1="46.9" x2="19.55" y2="46.9"/><line class="cls-2" x1="16.41" y1="46.16" x2="16.41" y2="46.16"/><line class="cls-2" x1="10.47" y1="47.32" x2="10.47" y2="47.32"/><line class="cls-2" x1="14.93" y1="49.46" x2="14.93" y2="49.46"/><line class="cls-2" x1="18.06" y1="49.54" x2="18.06" y2="49.54"/><line class="cls-2" x1="17.4" y1="52.84" x2="17.4" y2="52.84"/><line class="cls-2" x1="22.02" y1="52.93" x2="22.02" y2="52.93"/><line class="cls-2" x1="14.19" y1="52.02" x2="14.19" y2="52.02"/><line class="cls-2" x1="10.89" y1="50.62" x2="10.89" y2="50.62"/><line class="cls-2" x1="11.46" y1="53.09" x2="11.46" y2="53.09"/><path class="cls-3" d="M29.9,1.13c1.32,0,1.57,1.57.19,1.63A.83.83,0,1,1,29.9,1.13Z"/><path class="cls-3" d="M43.4,3c1.32-.07,1.38,1.62.13,1.62A.82.82,0,1,1,43.4,3Z"/><path class="cls-3" d="M51.47,7.82c1.31-.06,1.62,1.56.31,1.63S50.47,7.88,51.47,7.82Z"/><path class="cls-3" d="M36,9.76c1-.06,1.44,1.37.19,1.5S34.84,9.88,36,9.76Z"/><path class="cls-3" d="M43.72,13.82c.81-.06,1.56,1.44.12,1.56S42.59,14,43.72,13.82Z"/><path class="cls-3" d="M21.78,6.51C23,6.57,23,8,21.9,8.07A.79.79,0,1,1,21.78,6.51Z"/><path class="cls-3" d="M12.34,7.57c1,.06,1.5,1.19.19,1.44S11,7.7,12.34,7.57Z"/><path class="cls-3" d="M26.59,15.07a.78.78,0,1,1,.06,1.56C25.4,16.7,25.72,15.13,26.59,15.07Z"/><path class="cls-3" d="M16.78,16c1.25,0,1.62,1.37.12,1.56S15.4,16.07,16.78,16Z"/><path class="cls-3" d="M37.78,20.7a1,1,0,0,1-1.94.06C35.72,19.57,37.65,19.45,37.78,20.7Z"/><path class="cls-3" d="M45.84,24.2A.82.82,0,1,1,46,25.82.82.82,0,1,1,45.84,24.2Z"/><path class="cls-3" d="M55,20.38a.94.94,0,0,1-1.88.13A.94.94,0,1,1,55,20.38Z"/><path class="cls-3" d="M54.65,33.38c0,1.13-1.93,1.13-1.93.07S54.59,32,54.65,33.38Z"/><path class="cls-3" d="M46.28,37.38c1.31-.06,1.25,1.44.19,1.5S44.9,37.51,46.28,37.38Z"/><path class="cls-3" d="M38.78,30c1.19,0,1.56,1.5.19,1.62A.82.82,0,1,1,38.78,30Z"/><path class="cls-3" d="M28.84,25.63A.91.91,0,1,1,27,25.7C27,24.38,28.78,24.2,28.84,25.63Z"/><path class="cls-3" d="M38.47,40.57c.87,0,1.62,1.81.06,1.75S37,40.51,38.47,40.57Z"/><path class="cls-3" d="M29.4,34.76c1.07.06,1.38,1.69.07,1.75S28.34,34.82,29.4,34.76Z"/><path class="cls-3" d="M19.78,38.2c0,1.12-1.88,1.62-1.94.12A1,1,0,1,1,19.78,38.2Z"/><path class="cls-3" d="M19.28,26.57c.06,1.69-1.75,1.63-1.81.31A.92.92,0,0,1,19.28,26.57Z"/><path class="cls-3" d="M11.72,32.51c1.12,0,1.37,2,.06,2A1,1,0,1,1,11.72,32.51Z"/><path class="cls-3" d="M13.78,47.7c.06,1.12-2.13,1.43-2.19.12A1.1,1.1,0,0,1,13.78,47.7Z"/><path class="cls-3" d="M22,49.76c1.12,0,1.5,1.69.12,1.81S20.34,49.88,22,49.76Z"/><path class="cls-3" d="M29.09,44.51a.81.81,0,1,1,.13,1.62C28.09,46.2,27.41,44.67,29.09,44.51Z"/><path class="cls-3" d="M39.47,50.45c0,1.18-1.88,1.31-1.88.12A.94.94,0,0,1,39.47,50.45Z"/><path class="cls-3" d="M48.28,48.2a.94.94,0,0,1-1.88.12A.94.94,0,1,1,48.28,48.2Z"/><rect class="cls-1" x="-44.48" y="-53.86" width="54.13" height="54.13"/><rect class="cls-1" x="-44.48" y="0.26" width="54.13" height="54.13"/><line class="cls-2" x1="0.35" y1="13.41" x2="0.35" y2="13.41"/><line class="cls-2" x1="4.28" y1="9.38" x2="4.28" y2="9.38"/><line class="cls-2" x1="7.53" y1="6.63" x2="7.53" y2="6.63"/><line class="cls-2" x1="8.03" y1="10.63" x2="8.03" y2="10.63"/><line class="cls-2" x1="5.15" y1="5.13" x2="5.15" y2="5.13"/><line class="cls-2" x1="2.03" y1="7.63" x2="2.03" y2="7.63"/><line class="cls-2" x1="1.22" y1="4.76" x2="1.22" y2="4.76"/><line class="cls-2" x1="7.97" y1="2.2" x2="7.97" y2="2.2"/><line class="cls-2" x1="2.65" y1="1.51" x2="2.65" y2="1.51"/><line class="cls-2" x1="3.21" y1="15.44" x2="3.21" y2="15.44"/><line class="cls-2" x1="3.78" y1="11.88" x2="3.78" y2="11.88"/><line class="cls-2" x1="7.53" y1="29.13" x2="7.53" y2="29.13"/><line class="cls-2" x1="8.53" y1="31.88" x2="8.53" y2="31.88"/><line class="cls-2" x1="8.28" y1="25.63" x2="8.28" y2="25.63"/><line class="cls-2" x1="2.44" y1="18.8" x2="2.44" y2="18.8"/><line class="cls-2" x1="6.28" y1="17.13" x2="6.28" y2="17.13"/><line class="cls-2" x1="6.03" y1="22.88" x2="6.03" y2="22.88"/><line class="cls-2" x1="5.53" y1="50.63" x2="5.53" y2="50.63"/><line class="cls-2" x1="3.37" y1="22.04" x2="3.37" y2="22.04"/><line class="cls-2" x1="8.03" y1="20.63" x2="8.03" y2="20.63"/><line class="cls-2" x1="2.88" y1="28.09" x2="2.88" y2="28.09"/><line class="cls-2" x1="1.48" y1="24.46" x2="1.48" y2="24.46"/><line class="cls-2" x1="0.82" y1="36.67" x2="0.82" y2="36.67"/><line class="cls-2" x1="3.62" y1="34.61" x2="3.62" y2="34.61"/><line class="cls-2" x1="7.75" y1="35.11" x2="7.75" y2="35.11"/><line class="cls-2" x1="5.44" y1="31.97" x2="5.44" y2="31.97"/><line class="cls-2" x1="2.3" y1="31.31" x2="2.3" y2="31.31"/><line class="cls-2" x1="2.71" y1="39.64" x2="2.71" y2="39.64"/><line class="cls-2" x1="4.86" y1="36.88" x2="4.86" y2="36.88"/><line class="cls-2" x1="5.27" y1="42.53" x2="5.27" y2="42.53"/><line class="cls-2" x1="7.42" y1="45.58" x2="7.42" y2="45.58"/><line class="cls-2" x1="2.8" y1="44.1" x2="2.8" y2="44.1"/><line class="cls-2" x1="-0.34" y1="41.54" x2="-0.34" y2="41.54"/><line class="cls-2" x1="8.08" y1="49.87" x2="8.08" y2="49.87"/><line class="cls-2" x1="8.08" y1="53.34" x2="8.08" y2="53.34"/><line class="cls-2" x1="4.45" y1="47.56" x2="4.45" y2="47.56"/><line class="cls-2" x1="1.31" y1="49.71" x2="1.31" y2="49.71"/><line class="cls-2" x1="2.96" y1="52.51" x2="2.96" y2="52.51"/><line class="cls-2" x1="-0.17" y1="46.41" x2="-0.17" y2="46.41"/><line class="cls-2" x1="0.2" y1="52.72" x2="0.2" y2="52.72"/><path class="cls-3" d="M.9,20.38A.94.94,0,1,1-1,20.51.94.94,0,1,1,.9,20.38Z"/><path class="cls-3" d="M6.53,13.13c1.12-.06,1.62,1.5.19,1.5S5.47,13.26,6.53,13.13Z"/><path class="cls-3" d="M4.84,2.82a.77.77,0,0,1-.31-1.5C5.4,1.2,6.65,2.57,4.84,2.82Z"/><path class="cls-3" d="M5.53,25.63c1.19-.06,1.31,1.44.19,1.5S4.28,25.88,5.53,25.63Z"/><path class="cls-3" d="M.53,33.38c0,1.13-1.94,1.13-1.94.07S.47,32,.53,33.38Z"/><path class="cls-3" d="M8.4,40.26a1,1,0,0,1-1.93.12A1,1,0,0,1,8.4,40.26Z"/><path class="cls-3" d="M2.78,45.45A.88.88,0,1,1,3,47.2C1.84,47.32,1.34,45.57,2.78,45.45Z"/><rect class="cls-1" width="54.13" height="54.13"/></svg>