<svg id="Layer_1" data-name="Layer 1" xmlns="http://www.w3.org/2000/svg" width="54.15" height="54.21" viewBox="0 0 54.15 54.21"><defs><style>.cls-1,.cls-2,.cls-3{fill:none;}.cls-1,.cls-2{stroke:#000;stroke-linecap:round;}.cls-1{stroke-width:0.7px;}.cls-2{stroke-width:0.3px;}</style></defs><title>602</title><line class="cls-1" x1="26.25" y1="0.63" x2="26.25" y2="0.63"/><line class="cls-1" x1="37.39" y1="0.22" x2="37.39" y2="0.22"/><line class="cls-1" x1="34.58" y1="1.04" x2="34.58" y2="1.04"/><line class="cls-1" x1="32.27" y1="2.36" x2="32.27" y2="2.36"/><line class="cls-1" x1="29.8" y1="1.04" x2="29.8" y2="1.04"/><line class="cls-1" x1="29.88" y1="3.68" x2="29.88" y2="3.68"/><line class="cls-1" x1="31.12" y1="5.66" x2="31.12" y2="5.66"/><line class="cls-1" x1="33.68" y1="4.18" x2="33.68" y2="4.18"/><line class="cls-1" x1="36.81" y1="2.61" x2="36.81" y2="2.61"/><line class="cls-1" x1="36.07" y1="4.84" x2="36.07" y2="4.84"/><line class="cls-1" x1="32.19" y1="8.8" x2="32.19" y2="8.8"/><line class="cls-1" x1="29.96" y1="9.87" x2="29.96" y2="9.87"/><line class="cls-1" x1="29.47" y1="7.64" x2="29.47" y2="7.64"/><line class="cls-1" x1="28.59" y1="5.71" x2="28.59" y2="5.71"/><line class="cls-1" x1="25.92" y1="5.21" x2="25.92" y2="5.21"/><line class="cls-1" x1="26.5" y1="7.73" x2="26.5" y2="7.73"/><line class="cls-1" x1="25.1" y1="9.71" x2="25.1" y2="9.71"/><line class="cls-1" x1="25.43" y1="11.93" x2="25.43" y2="11.93"/><line class="cls-1" x1="26.33" y1="14.16" x2="26.33" y2="14.16"/><line class="cls-1" x1="28.89" y1="13.91" x2="28.89" y2="13.91"/><line class="cls-1" x1="31.12" y1="12.43" x2="31.12" y2="12.43"/><line class="cls-1" x1="33.18" y1="10.94" x2="33.18" y2="10.94"/><line class="cls-1" x1="35.66" y1="9.95" x2="35.66" y2="9.95"/><line class="cls-1" x1="36.07" y1="7.56" x2="36.07" y2="7.56"/><line class="cls-1" x1="38.21" y1="6.49" x2="38.21" y2="6.49"/><line class="cls-1" x1="38.38" y1="8.96" x2="38.38" y2="8.96"/><line class="cls-1" x1="41.02" y1="8.47" x2="41.02" y2="8.47"/><line class="cls-1" x1="40.77" y1="6.08" x2="40.77" y2="6.08"/><line class="cls-1" x1="42.26" y1="4.18" x2="42.26" y2="4.18"/><line class="cls-1" x1="43" y1="1.87" x2="43" y2="1.87"/><line class="cls-1" x1="40.36" y1="1.13" x2="40.36" y2="1.13"/><line class="cls-1" x1="45.14" y1="3.02" x2="45.14" y2="3.02"/><line class="cls-1" x1="44.32" y1="5.42" x2="44.32" y2="5.42"/><line class="cls-1" x1="43.08" y1="7.31" x2="43.08" y2="7.31"/><line class="cls-1" x1="43" y1="9.54" x2="43" y2="9.54"/><line class="cls-1" x1="43.25" y1="11.6" x2="43.25" y2="11.6"/><line class="cls-1" x1="45.23" y1="10.2" x2="45.23" y2="10.2"/><line class="cls-1" x1="41.43" y1="12.92" x2="41.43" y2="12.92"/><line class="cls-1" x1="37.22" y1="11.77" x2="37.22" y2="11.77"/><line class="cls-1" x1="39.29" y1="13.42" x2="39.29" y2="13.42"/><line class="cls-1" x1="36.98" y1="14.49" x2="36.98" y2="14.49"/><line class="cls-1" x1="36.73" y1="16.64" x2="36.73" y2="16.64"/><line class="cls-1" x1="33.84" y1="16.97" x2="33.84" y2="16.97"/><line class="cls-1" x1="31.7" y1="14.74" x2="31.7" y2="14.74"/><line class="cls-1" x1="31.28" y1="17.05" x2="31.28" y2="17.05"/><line class="cls-1" x1="29.06" y1="16.22" x2="29.06" y2="16.22"/><line class="cls-1" x1="26.42" y1="16.55" x2="26.42" y2="16.55"/><line class="cls-1" x1="25.38" y1="17.92" x2="25.38" y2="17.92"/><line class="cls-1" x1="26.42" y1="19.77" x2="26.42" y2="19.77"/><line class="cls-1" x1="30.21" y1="19.28" x2="30.21" y2="19.28"/><line class="cls-1" x1="32.44" y1="19.85" x2="32.44" y2="19.85"/><line class="cls-1" x1="35.57" y1="18.53" x2="35.57" y2="18.53"/><line class="cls-1" x1="38.3" y1="18.53" x2="38.3" y2="18.53"/><line class="cls-1" x1="39.53" y1="15.81" x2="39.53" y2="15.81"/><line class="cls-1" x1="42.09" y1="15.15" x2="42.09" y2="15.15"/><line class="cls-1" x1="44.32" y1="13.25" x2="44.32" y2="13.25"/><line class="cls-1" x1="44.4" y1="15.73" x2="44.4" y2="15.73"/><line class="cls-1" x1="43.16" y1="17.63" x2="43.16" y2="17.63"/><line class="cls-1" x1="46.96" y1="12.02" x2="46.96" y2="12.02"/><line class="cls-1" x1="47.95" y1="9.79" x2="47.95" y2="9.79"/><line class="cls-1" x1="48.36" y1="7.64" x2="48.36" y2="7.64"/><line class="cls-1" x1="46.88" y1="5.25" x2="46.88" y2="5.25"/><line class="cls-1" x1="47.7" y1="3.11" x2="47.7" y2="3.11"/><line class="cls-1" x1="48.86" y1="5.42" x2="48.86" y2="5.42"/><line class="cls-1" x1="50.67" y1="6.74" x2="50.67" y2="6.74"/><line class="cls-1" x1="52.57" y1="5.91" x2="52.57" y2="5.91"/><line class="cls-1" x1="52.16" y1="7.97" x2="52.16" y2="7.97"/><line class="cls-1" x1="50.26" y1="8.88" x2="50.26" y2="8.88"/><line class="cls-1" x1="53.72" y1="8.88" x2="53.72" y2="8.88"/><line class="cls-1" x1="54.05" y1="13.09" x2="54.05" y2="13.09"/><line class="cls-1" x1="52.9" y1="15.81" x2="52.9" y2="15.81"/><line class="cls-1" x1="51.83" y1="13.91" x2="51.83" y2="13.91"/><line class="cls-1" x1="49.6" y1="14.9" x2="49.6" y2="14.9"/><line class="cls-1" x1="49.6" y1="12.02" x2="49.6" y2="12.02"/><line class="cls-1" x1="50.18" y1="17.71" x2="50.18" y2="17.71"/><line class="cls-1" x1="47.78" y1="16.55" x2="47.78" y2="16.55"/><line class="cls-1" x1="53.64" y1="20.51" x2="53.64" y2="20.51"/><line class="cls-1" x1="51.17" y1="19.85" x2="51.17" y2="19.85"/><line class="cls-1" x1="52.65" y1="22.25" x2="52.65" y2="22.25"/><line class="cls-1" x1="53.97" y1="28.19" x2="53.97" y2="28.19"/><line class="cls-1" x1="52.65" y1="29.59" x2="52.65" y2="29.59"/><line class="cls-1" x1="51.08" y1="27.69" x2="51.08" y2="27.69"/><line class="cls-1" x1="50.18" y1="25.38" x2="50.18" y2="25.38"/><line class="cls-1" x1="51.58" y1="24.23" x2="51.58" y2="24.23"/><line class="cls-1" x1="49.6" y1="22.66" x2="49.6" y2="22.66"/><line class="cls-1" x1="47.87" y1="24.89" x2="47.87" y2="24.89"/><line class="cls-1" x1="49.19" y1="27.28" x2="49.19" y2="27.28"/><line class="cls-1" x1="50.09" y1="29.59" x2="50.09" y2="29.59"/><line class="cls-1" x1="46.46" y1="26.78" x2="46.46" y2="26.78"/><line class="cls-1" x1="44.73" y1="24.14" x2="44.73" y2="24.14"/><line class="cls-1" x1="44.15" y1="26.54" x2="44.15" y2="26.54"/><line class="cls-1" x1="43.76" y1="28.67" x2="43.76" y2="28.67"/><line class="cls-1" x1="46.13" y1="30" x2="46.13" y2="30"/><line class="cls-1" x1="42.17" y1="27.03" x2="42.17" y2="27.03"/><line class="cls-1" x1="42.5" y1="24.89" x2="42.5" y2="24.89"/><line class="cls-1" x1="41.51" y1="22.66" x2="41.51" y2="22.66"/><line class="cls-1" x1="43.66" y1="21.5" x2="43.66" y2="21.5"/><line class="cls-1" x1="42.17" y1="19.94" x2="42.17" y2="19.94"/><line class="cls-1" x1="45.47" y1="20.1" x2="45.47" y2="20.1"/><line class="cls-1" x1="45.47" y1="18.04" x2="45.47" y2="18.04"/><line class="cls-1" x1="48.28" y1="19.69" x2="48.28" y2="19.69"/><line class="cls-1" x1="40.03" y1="27.53" x2="40.03" y2="27.53"/><line class="cls-1" x1="38.21" y1="29.01" x2="38.21" y2="29.01"/><line class="cls-1" x1="37.88" y1="26.7" x2="37.88" y2="26.7"/><line class="cls-1" x1="35.49" y1="26.78" x2="35.49" y2="26.78"/><line class="cls-1" x1="36.26" y1="29.05" x2="36.26" y2="29.05"/><line class="cls-1" x1="33.43" y1="29.59" x2="33.43" y2="29.59"/><line class="cls-1" x1="34.42" y1="24.72" x2="34.42" y2="24.72"/><line class="cls-1" x1="37.06" y1="25.05" x2="37.06" y2="25.05"/><line class="cls-1" x1="35.99" y1="22.91" x2="35.99" y2="22.91"/><line class="cls-1" x1="38.46" y1="22.74" x2="38.46" y2="22.74"/><line class="cls-1" x1="40.19" y1="20.93" x2="40.19" y2="20.93"/><line class="cls-1" x1="37.47" y1="20.84" x2="37.47" y2="20.84"/><line class="cls-1" x1="33.43" y1="22.49" x2="33.43" y2="22.49"/><line class="cls-1" x1="31.86" y1="24.31" x2="31.86" y2="24.31"/><line class="cls-1" x1="31.28" y1="26.29" x2="31.28" y2="26.29"/><line class="cls-1" x1="29.09" y1="23.05" x2="29.09" y2="23.05"/><line class="cls-1" x1="31.04" y1="21.83" x2="31.04" y2="21.83"/><line class="cls-1" x1="28.48" y1="20.93" x2="28.48" y2="20.93"/><line class="cls-1" x1="26.59" y1="23.05" x2="26.59" y2="23.05"/><line class="cls-1" x1="25.42" y1="21.55" x2="25.42" y2="21.55"/><line class="cls-1" x1="25.43" y1="26.29" x2="25.43" y2="26.29"/><line class="cls-1" x1="25.1" y1="29.34" x2="25.1" y2="29.34"/><line class="cls-1" x1="26.92" y1="28.05" x2="26.92" y2="28.05"/><line class="cls-1" x1="28.15" y1="29.42" x2="28.15" y2="29.42"/><line class="cls-1" x1="31.09" y1="29.21" x2="31.09" y2="29.21"/><line class="cls-1" x1="29.72" y1="28.02" x2="29.72" y2="28.02"/><line class="cls-1" x1="29.59" y1="25.38" x2="29.59" y2="25.38"/><line class="cls-1" x1="49.76" y1="2.36" x2="49.76" y2="2.36"/><line class="cls-1" x1="48.2" y1="0.22" x2="48.2" y2="0.22"/><line class="cls-1" x1="51" y1="0.38" x2="51" y2="0.38"/><line class="cls-1" x1="53.31" y1="0.88" x2="53.31" y2="0.88"/><line class="cls-1" x1="52.49" y1="2.86" x2="52.49" y2="2.86"/><line class="cls-1" x1="50.67" y1="4.18" x2="50.67" y2="4.18"/><ellipse class="cls-2" cx="53.28" cy="25.71" rx="0.78" ry="0.86"/><ellipse class="cls-2" cx="47.67" cy="28.63" rx="0.93" ry="0.86"/><circle class="cls-2" cx="46.68" cy="22.52" r="0.86"/><path class="cls-2" d="M53.12,19.22a.94.94,0,1,0-.94-.93A.93.93,0,0,0,53.12,19.22Z"/><ellipse class="cls-2" cx="39.75" cy="24.67" rx="0.78" ry="0.86"/><ellipse class="cls-2" cx="33.32" cy="26.65" rx="0.86" ry="0.93"/><ellipse class="cls-2" cx="34.75" cy="20.49" rx="0.86" ry="0.78"/><path class="cls-2" d="M41,17.91a.78.78,0,0,0,0-1.56.78.78,0,0,0,0,1.56Z"/><path class="cls-2" d="M46.41,14.87a.93.93,0,1,0-.94-.93A.93.93,0,0,0,46.41,14.87Z"/><ellipse class="cls-2" cx="52.13" cy="10.59" rx="0.93" ry="0.86"/><circle class="cls-2" cx="39.92" cy="10.7" r="0.78"/><path class="cls-2" d="M46,8.25a.86.86,0,1,0-.85-.85A.85.85,0,0,0,46,8.25Z"/><ellipse class="cls-2" cx="53.78" cy="4.21" rx="0.93" ry="0.86"/><path class="cls-2" d="M46.13,1.44A.79.79,0,0,0,47,.74a.87.87,0,0,0-1.71,0A.78.78,0,0,0,46.13,1.44Z"/><ellipse class="cls-2" cx="38.93" cy="3.55" rx="0.86" ry="0.93"/><path class="cls-2" d="M31.78,0a.86.86,0,0,0,.85-.86.85.85,0,0,0-.85-.85.86.86,0,0,0-.86.85A.87.87,0,0,0,31.78,0Z"/><path class="cls-2" d="M26.88,3.9a1,1,0,0,0,.94-1,.94.94,0,1,0-1.87,0A1,1,0,0,0,26.88,3.9Z"/><ellipse class="cls-2" cx="33.37" cy="6.46" rx="0.93" ry="0.86"/><path class="cls-2" d="M40.92,30.34a.71.71,0,1,0,0-1.4.71.71,0,1,0,0,1.4Z"/><path class="cls-2" d="M27.65,11.64a.92.92,0,0,0,1-.78,1,1,0,0,0-2,0A.92.92,0,0,0,27.65,11.64Z"/><path class="cls-2" d="M34.2,13.88a.93.93,0,1,0-1-.93A1,1,0,0,0,34.2,13.88Z"/><path class="cls-2" d="M28.53,18.92a.86.86,0,1,0-.93-.85A.9.9,0,0,0,28.53,18.92Z"/><ellipse class="cls-2" cx="27.09" cy="25.43" rx="0.86" ry="0.78"/><rect class="cls-3" x="24.69" y="-23.49" width="54.13" height="54.13"/><rect class="cls-3" x="24.66" y="-23.58" width="54.15" height="54.21"/><line class="cls-1" x1="25.89" y1="42.8" x2="25.89" y2="42.8"/><line class="cls-1" x1="27.9" y1="42.63" x2="27.9" y2="42.63"/><line class="cls-1" x1="30.29" y1="43.46" x2="30.29" y2="43.46"/><line class="cls-1" x1="31.78" y1="42.47" x2="31.78" y2="42.47"/><line class="cls-1" x1="33.35" y1="43.87" x2="33.35" y2="43.87"/><line class="cls-1" x1="28.31" y1="44.61" x2="28.31" y2="44.61"/><line class="cls-1" x1="26.25" y1="45.77" x2="26.25" y2="45.77"/><line class="cls-1" x1="27.9" y1="47.58" x2="27.9" y2="47.58"/><line class="cls-1" x1="29.63" y1="46.84" x2="29.63" y2="46.84"/><line class="cls-1" x1="30.87" y1="49.23" x2="30.87" y2="49.23"/><line class="cls-1" x1="28.64" y1="49.56" x2="28.64" y2="49.56"/><line class="cls-1" x1="25.34" y1="52.2" x2="25.34" y2="52.2"/><line class="cls-1" x1="27.82" y1="53.27" x2="27.82" y2="53.27"/><line class="cls-1" x1="29.3" y1="51.87" x2="29.3" y2="51.87"/><line class="cls-1" x1="31.94" y1="51.13" x2="31.94" y2="51.13"/><line class="cls-1" x1="32.69" y1="48.41" x2="32.69" y2="48.41"/><line class="cls-1" x1="34.25" y1="50.55" x2="34.25" y2="50.55"/><line class="cls-1" x1="35.41" y1="48.57" x2="35.41" y2="48.57"/><line class="cls-1" x1="37.64" y1="48.49" x2="37.64" y2="48.49"/><line class="cls-1" x1="35.57" y1="46.18" x2="35.57" y2="46.18"/><line class="cls-1" x1="35.82" y1="43.54" x2="35.82" y2="43.54"/><line class="cls-1" x1="38.05" y1="45.11" x2="38.05" y2="45.11"/><line class="cls-1" x1="37.76" y1="42.42" x2="37.76" y2="42.42"/><line class="cls-1" x1="39.37" y1="46.92" x2="39.37" y2="46.92"/><line class="cls-1" x1="41.18" y1="45.44" x2="41.18" y2="45.44"/><line class="cls-1" x1="41.27" y1="48.08" x2="41.27" y2="48.08"/><line class="cls-1" x1="42.83" y1="46.67" x2="42.83" y2="46.67"/><line class="cls-1" x1="43.49" y1="49.07" x2="43.49" y2="49.07"/><line class="cls-1" x1="42.09" y1="50.88" x2="42.09" y2="50.88"/><line class="cls-1" x1="44.07" y1="51.38" x2="44.07" y2="51.38"/><line class="cls-1" x1="44.32" y1="53.69" x2="44.32" y2="53.69"/><line class="cls-1" x1="42.09" y1="53.69" x2="42.09" y2="53.69"/><line class="cls-1" x1="39.78" y1="52.94" x2="39.78" y2="52.94"/><line class="cls-1" x1="37.14" y1="51.54" x2="37.14" y2="51.54"/><line class="cls-1" x1="37.39" y1="54.43" x2="37.39" y2="54.43"/><line class="cls-1" x1="34.91" y1="52.61" x2="34.91" y2="52.61"/><line class="cls-1" x1="37.59" y1="30.98" x2="37.59" y2="30.98"/><line class="cls-1" x1="48.2" y1="54.43" x2="48.2" y2="54.43"/><line class="cls-1" x1="46.46" y1="51.95" x2="46.46" y2="51.95"/><line class="cls-1" x1="48.2" y1="50.14" x2="48.2" y2="50.14"/><line class="cls-1" x1="49.27" y1="52.61" x2="49.27" y2="52.61"/><line class="cls-1" x1="51.17" y1="50.63" x2="51.17" y2="50.63"/><line class="cls-1" x1="50.42" y1="48.74" x2="50.42" y2="48.74"/><line class="cls-1" x1="49.52" y1="46.18" x2="49.52" y2="46.18"/><line class="cls-1" x1="45.89" y1="46.34" x2="45.89" y2="46.34"/><line class="cls-1" x1="44.15" y1="44.86" x2="44.15" y2="44.86"/><line class="cls-1" x1="44.81" y1="42.71" x2="44.81" y2="42.71"/><line class="cls-1" x1="46.55" y1="44.61" x2="46.55" y2="44.61"/><line class="cls-1" x1="48.69" y1="44.61" x2="48.69" y2="44.61"/><line class="cls-1" x1="47.62" y1="42.8" x2="47.62" y2="42.8"/><line class="cls-1" x1="50.34" y1="43.13" x2="50.34" y2="43.13"/><line class="cls-1" x1="53.06" y1="42.71" x2="53.06" y2="42.71"/><line class="cls-1" x1="54.22" y1="45.19" x2="54.22" y2="45.19"/><line class="cls-1" x1="53.15" y1="47.42" x2="53.15" y2="47.42"/><line class="cls-1" x1="53.64" y1="49.73" x2="53.64" y2="49.73"/><path class="cls-2" d="M52.4,53.25c.56,0,1-.34,1-.77a1,1,0,0,0-2,0C51.39,52.91,51.84,53.25,52.4,53.25Z"/><ellipse class="cls-2" cx="51.96" cy="44.89" rx="0.86" ry="0.78"/><path class="cls-2" d="M46.13,55.65a.71.71,0,1,0-.85-.7A.79.79,0,0,0,46.13,55.65Z"/><path class="cls-2" d="M25.76,32.51a.71.71,0,1,0-.86-.7A.8.8,0,0,0,25.76,32.51Z"/><path class="cls-2" d="M46.46,49a.86.86,0,1,0-.77-.85A.82.82,0,0,0,46.46,49Z"/><ellipse class="cls-2" cx="42.28" cy="43.35" rx="0.93" ry="0.86"/><ellipse class="cls-2" cx="39.31" cy="50.17" rx="0.86" ry="0.93"/><ellipse class="cls-2" cx="32.16" cy="45.6" rx="0.86" ry="0.78"/><path class="cls-2" d="M31.78,54.16a.86.86,0,0,0,.85-.86.85.85,0,0,0-.85-.85.86.86,0,1,0,0,1.71Z"/><circle class="cls-2" cx="26" cy="48.96" r="0.86"/><line class="cls-1" x1="35.24" y1="32.06" x2="35.24" y2="32.06"/><line class="cls-1" x1="33.01" y1="32.06" x2="33.01" y2="32.06"/><line class="cls-1" x1="30.7" y1="31.32" x2="30.7" y2="31.32"/><line class="cls-1" x1="28.31" y1="32.8" x2="28.31" y2="32.8"/><line class="cls-1" x1="25.51" y1="33.63" x2="25.51" y2="33.63"/><line class="cls-1" x1="27.73" y1="35.19" x2="27.73" y2="35.19"/><line class="cls-1" x1="26.99" y1="37.42" x2="26.99" y2="37.42"/><line class="cls-1" x1="26.99" y1="40.14" x2="26.99" y2="40.14"/><line class="cls-1" x1="29.14" y1="39.07" x2="29.14" y2="39.07"/><line class="cls-1" x1="30.09" y1="40.92" x2="30.09" y2="40.92"/><line class="cls-1" x1="34.42" y1="41.76" x2="34.42" y2="41.76"/><line class="cls-1" x1="40.09" y1="42.09" x2="40.09" y2="42.09"/><line class="cls-1" x1="31.69" y1="38.66" x2="31.69" y2="38.66"/><line class="cls-1" x1="33.18" y1="36.76" x2="33.18" y2="36.76"/><line class="cls-1" x1="33.92" y1="34.45" x2="33.92" y2="34.45"/><line class="cls-1" x1="31.28" y1="33.71" x2="31.28" y2="33.71"/><line class="cls-1" x1="36.07" y1="35.61" x2="36.07" y2="35.61"/><line class="cls-1" x1="35.24" y1="38" x2="35.24" y2="38"/><line class="cls-1" x1="34" y1="39.9" x2="34" y2="39.9"/><line class="cls-1" x1="39.28" y1="40.23" x2="39.28" y2="40.23"/><line class="cls-1" x1="37.8" y1="37.83" x2="37.8" y2="37.83"/><line class="cls-1" x1="38.62" y1="35.69" x2="38.62" y2="35.69"/><line class="cls-1" x1="39.78" y1="38" x2="39.78" y2="38"/><line class="cls-1" x1="41.59" y1="39.32" x2="41.59" y2="39.32"/><line class="cls-1" x1="43.49" y1="38.49" x2="43.49" y2="38.49"/><line class="cls-1" x1="43.08" y1="40.56" x2="43.08" y2="40.56"/><line class="cls-1" x1="45.42" y1="40.76" x2="45.42" y2="40.76"/><line class="cls-1" x1="47.62" y1="41.13" x2="47.62" y2="41.13"/><line class="cls-1" x1="40.69" y1="34.95" x2="40.69" y2="34.95"/><line class="cls-1" x1="39.12" y1="32.8" x2="39.12" y2="32.8"/><line class="cls-1" x1="43.42" y1="31.42" x2="43.42" y2="31.42"/><line class="cls-1" x1="41.92" y1="32.97" x2="41.92" y2="32.97"/><line class="cls-1" x1="46.3" y1="32.31" x2="46.3" y2="32.31"/><line class="cls-1" x1="44.23" y1="33.46" x2="44.23" y2="33.46"/><line class="cls-1" x1="43.41" y1="35.44" x2="43.41" y2="35.44"/><line class="cls-1" x1="46.05" y1="34.95" x2="46.05" y2="34.95"/><line class="cls-1" x1="48.69" y1="31.48" x2="48.69" y2="31.48"/><line class="cls-1" x1="52.76" y1="32.09" x2="52.76" y2="32.09"/><line class="cls-1" x1="53.06" y1="34.12" x2="53.06" y2="34.12"/><line class="cls-1" x1="53.97" y1="36.35" x2="53.97" y2="36.35"/><line class="cls-1" x1="51.58" y1="35.28" x2="51.58" y2="35.28"/><line class="cls-1" x1="51.49" y1="36.93" x2="51.49" y2="36.93"/><line class="cls-1" x1="49.1" y1="35.61" x2="49.1" y2="35.61"/><line class="cls-1" x1="47.29" y1="37.09" x2="47.29" y2="37.09"/><line class="cls-1" x1="46.3" y1="39.07" x2="46.3" y2="39.07"/><line class="cls-1" x1="48.94" y1="38.49" x2="48.94" y2="38.49"/><line class="cls-1" x1="51.66" y1="38.74" x2="51.66" y2="38.74"/><line class="cls-1" x1="54.22" y1="38.58" x2="54.22" y2="38.58"/><line class="cls-1" x1="52.4" y1="40.39" x2="52.4" y2="40.39"/><line class="cls-1" x1="25.01" y1="36.13" x2="25.01" y2="36.13"/><line class="cls-1" x1="41.59" y1="36.76" x2="41.59" y2="36.76"/><ellipse class="cls-2" cx="50.09" cy="40.14" rx="0.86" ry="0.78"/><path class="cls-2" d="M37,40.84a.86.86,0,1,0-.86-.86A.86.86,0,0,0,37,40.84Z"/><ellipse class="cls-2" cx="44.7" cy="36.79" rx="0.93" ry="0.86"/><path class="cls-2" d="M50.48,34.27a.79.79,0,1,0-.94-.78A.87.87,0,0,0,50.48,34.27Z"/><path class="cls-2" d="M37.26,34.21a.71.71,0,1,0,0-1.4.71.71,0,1,0,0,1.4Z"/><path class="cls-2" d="M30.51,37.26a.94.94,0,1,0-.86-.94A.9.9,0,0,0,30.51,37.26Z"/><rect class="cls-3" x="24.69" y="30.72" width="54.13" height="54.13"/><rect class="cls-3" x="24.66" y="30.63" width="54.15" height="54.21"/><line class="cls-1" x1="2.54" y1="8.55" x2="2.54" y2="8.55"/><line class="cls-1" x1="0.81" y1="10.53" x2="0.81" y2="10.53"/><line class="cls-1" x1="3.04" y1="11.11" x2="3.04" y2="11.11"/><line class="cls-1" x1="4.93" y1="9.87" x2="4.93" y2="9.87"/><line class="cls-1" x1="7.57" y1="11.19" x2="7.57" y2="11.19"/><line class="cls-1" x1="6.09" y1="12.92" x2="6.09" y2="12.92"/><line class="cls-1" x1="8.32" y1="13.58" x2="8.32" y2="13.58"/><line class="cls-1" x1="6.01" y1="15.15" x2="6.01" y2="15.15"/><line class="cls-1" x1="8.07" y1="16.22" x2="8.07" y2="16.22"/><line class="cls-1" x1="8.48" y1="18.37" x2="8.48" y2="18.37"/><line class="cls-1" x1="5.59" y1="17.38" x2="5.59" y2="17.38"/><line class="cls-1" x1="3.04" y1="16.39" x2="3.04" y2="16.39"/><line class="cls-1" x1="1.96" y1="13.09" x2="1.96" y2="13.09"/><line class="cls-1" x1="0.89" y1="15.32" x2="0.89" y2="15.32"/><line class="cls-1" x1="-0.1" y1="13.09" x2="-0.1" y2="13.09"/><line class="cls-1" x1="1.06" y1="17.96" x2="1.06" y2="17.96"/><line class="cls-1" x1="3.86" y1="18.7" x2="3.86" y2="18.7"/><line class="cls-1" x1="6.25" y1="19.44" x2="6.25" y2="19.44"/><line class="cls-1" x1="12.44" y1="11.52" x2="12.44" y2="11.52"/><line class="cls-1" x1="14.17" y1="9.79" x2="14.17" y2="9.79"/><line class="cls-1" x1="14.5" y1="12.35" x2="14.5" y2="12.35"/><line class="cls-1" x1="13.84" y1="14.9" x2="13.84" y2="14.9"/><line class="cls-1" x1="11.78" y1="13.5" x2="11.78" y2="13.5"/><line class="cls-1" x1="14.92" y1="16.72" x2="14.92" y2="16.72"/><line class="cls-1" x1="16.4" y1="15.23" x2="16.4" y2="15.23"/><line class="cls-1" x1="17.97" y1="12.92" x2="17.97" y2="12.92"/><line class="cls-1" x1="19.21" y1="10.53" x2="19.21" y2="10.53"/><line class="cls-1" x1="21.52" y1="12.68" x2="21.52" y2="12.68"/><line class="cls-1" x1="23.5" y1="13.25" x2="23.5" y2="13.25"/><line class="cls-1" x1="22.59" y1="15.89" x2="22.59" y2="15.89"/><line class="cls-1" x1="19.95" y1="14.66" x2="19.95" y2="14.66"/><line class="cls-1" x1="20.61" y1="17.46" x2="20.61" y2="17.46"/><line class="cls-1" x1="23" y1="19.03" x2="23" y2="19.03"/><line class="cls-1" x1="21.27" y1="20.35" x2="21.27" y2="20.35"/><line class="cls-1" x1="18.71" y1="19.94" x2="18.71" y2="19.94"/><line class="cls-1" x1="20.94" y1="22.74" x2="20.94" y2="22.74"/><line class="cls-1" x1="23.08" y1="24.06" x2="23.08" y2="24.06"/><line class="cls-1" x1="20.53" y1="25.05" x2="20.53" y2="25.05"/><line class="cls-1" x1="23.74" y1="27.44" x2="23.74" y2="27.44"/><line class="cls-1" x1="21.68" y1="27.2" x2="21.68" y2="27.2"/><line class="cls-1" x1="22.36" y1="29.05" x2="22.36" y2="29.05"/><line class="cls-1" x1="19.12" y1="26.62" x2="19.12" y2="26.62"/><line class="cls-1" x1="16.24" y1="26.21" x2="16.24" y2="26.21"/><line class="cls-1" x1="16.73" y1="28.11" x2="16.73" y2="28.11"/><line class="cls-1" x1="17.36" y1="30.05" x2="17.36" y2="30.05"/><line class="cls-1" x1="14.83" y1="29.26" x2="14.83" y2="29.26"/><line class="cls-1" x1="13.02" y1="27.2" x2="13.02" y2="27.2"/><line class="cls-1" x1="14.75" y1="24.31" x2="14.75" y2="24.31"/><line class="cls-1" x1="16.32" y1="22.33" x2="16.32" y2="22.33"/><line class="cls-1" x1="16.15" y1="19.44" x2="16.15" y2="19.44"/><line class="cls-1" x1="13.76" y1="20.35" x2="13.76" y2="20.35"/><line class="cls-1" x1="11.86" y1="22.41" x2="11.86" y2="22.41"/><line class="cls-1" x1="10.38" y1="20.51" x2="10.38" y2="20.51"/><line class="cls-1" x1="12.85" y1="17.79" x2="12.85" y2="17.79"/><line class="cls-1" x1="11.29" y1="16.22" x2="11.29" y2="16.22"/><line class="cls-1" x1="10.46" y1="26.62" x2="10.46" y2="26.62"/><line class="cls-1" x1="11.11" y1="28.3" x2="11.11" y2="28.3"/><line class="cls-1" x1="9.61" y1="29.19" x2="9.61" y2="29.19"/><line class="cls-1" x1="12.19" y1="30" x2="12.19" y2="30"/><line class="cls-1" x1="8.89" y1="24.8" x2="8.89" y2="24.8"/><line class="cls-1" x1="9.47" y1="23.24" x2="9.47" y2="23.24"/><line class="cls-1" x1="7.9" y1="21.42" x2="7.9" y2="21.42"/><line class="cls-1" x1="6.25" y1="24.06" x2="6.25" y2="24.06"/><line class="cls-1" x1="6.58" y1="26.21" x2="6.58" y2="26.21"/><line class="cls-1" x1="8.23" y1="27.69" x2="8.23" y2="27.69"/><line class="cls-1" x1="7" y1="29.84" x2="7" y2="29.84"/><line class="cls-1" x1="3.78" y1="26.45" x2="3.78" y2="26.45"/><line class="cls-1" x1="4.11" y1="24.14" x2="4.11" y2="24.14"/><line class="cls-1" x1="2.38" y1="22.74" x2="2.38" y2="22.74"/><line class="cls-1" x1="3.61" y1="20.84" x2="3.61" y2="20.84"/><line class="cls-1" x1="1.8" y1="20.1" x2="1.8" y2="20.1"/><line class="cls-1" x1="0.64" y1="24.64" x2="0.64" y2="24.64"/><line class="cls-1" x1="1.39" y1="26.78" x2="1.39" y2="26.78"/><line class="cls-1" x1="-0.18" y1="28.19" x2="-0.18" y2="28.19"/><line class="cls-1" x1="0.86" y1="30.05" x2="0.86" y2="30.05"/><line class="cls-1" x1="2.61" y1="28.21" x2="2.61" y2="28.21"/><line class="cls-1" x1="3.94" y1="29.99" x2="3.94" y2="29.99"/><line class="cls-1" x1="1.22" y1="-0.28" x2="1.22" y2="-0.28"/><line class="cls-1" x1="0.97" y1="2.36" x2="0.97" y2="2.36"/><line class="cls-1" x1="11.62" y1="0.63" x2="11.62" y2="0.63"/><line class="cls-1" x1="9.64" y1="0.05" x2="9.64" y2="0.05"/><line class="cls-1" x1="7.99" y1="1.54" x2="7.99" y2="1.54"/><line class="cls-1" x1="8.89" y1="3.77" x2="8.89" y2="3.77"/><line class="cls-1" x1="6.5" y1="2.69" x2="6.5" y2="2.69"/><line class="cls-1" x1="6.42" y1="4.34" x2="6.42" y2="4.34"/><line class="cls-1" x1="4.03" y1="3.02" x2="4.03" y2="3.02"/><line class="cls-1" x1="2.21" y1="4.51" x2="2.21" y2="4.51"/><line class="cls-1" x1="1.22" y1="6.49" x2="1.22" y2="6.49"/><line class="cls-1" x1="3.86" y1="5.91" x2="3.86" y2="5.91"/><line class="cls-1" x1="6.58" y1="6.16" x2="6.58" y2="6.16"/><line class="cls-1" x1="9.14" y1="5.99" x2="9.14" y2="5.99"/><line class="cls-1" x1="7.33" y1="7.81" x2="7.33" y2="7.81"/><line class="cls-1" x1="8.98" y1="9.46" x2="8.98" y2="9.46"/><line class="cls-1" x1="10.46" y1="7.31" x2="10.46" y2="7.31"/><line class="cls-1" x1="11.37" y1="9.62" x2="11.37" y2="9.62"/><line class="cls-1" x1="13.02" y1="7.81" x2="13.02" y2="7.81"/><line class="cls-1" x1="10.79" y1="2.53" x2="10.79" y2="2.53"/><line class="cls-1" x1="13.51" y1="3.6" x2="13.51" y2="3.6"/><line class="cls-1" x1="14.17" y1="5.83" x2="14.17" y2="5.83"/><line class="cls-1" x1="15" y1="1.79" x2="15" y2="1.79"/><line class="cls-1" x1="18.38" y1="-0.03" x2="18.38" y2="-0.03"/><line class="cls-1" x1="17.97" y1="2.03" x2="17.97" y2="2.03"/><line class="cls-1" x1="15.91" y1="7.56" x2="15.91" y2="7.56"/><line class="cls-1" x1="19.12" y1="8.55" x2="19.12" y2="8.55"/><line class="cls-1" x1="18.46" y1="6.24" x2="18.46" y2="6.24"/><line class="cls-1" x1="21.27" y1="6.82" x2="21.27" y2="6.82"/><line class="cls-1" x1="23.58" y1="8.47" x2="23.58" y2="8.47"/><line class="cls-1" x1="23.58" y1="5.99" x2="23.58" y2="5.99"/><line class="cls-1" x1="22.84" y1="3.68" x2="22.84" y2="3.68"/><line class="cls-1" x1="20.28" y1="4.43" x2="20.28" y2="4.43"/><line class="cls-1" x1="20.94" y1="2.03" x2="20.94" y2="2.03"/><circle class="cls-2" cx="18.13" cy="23.9" r="0.93"/><path class="cls-2" d="M18.05,18.23a.94.94,0,1,0-.93-.93A.93.93,0,0,0,18.05,18.23Z"/><circle class="cls-2" cx="23.5" cy="21.59" r="0.82"/><path class="cls-2" d="M20.05,29.75a.71.71,0,1,0-.82-.7A.77.77,0,0,0,20.05,29.75Z"/><path class="cls-2" d="M11.86,25.57a.93.93,0,1,0-.93-.93A.94.94,0,0,0,11.86,25.57Z"/><path class="cls-2" d="M10.71,18.89A.94.94,0,1,0,9.77,18,.93.93,0,0,0,10.71,18.89Z"/><ellipse class="cls-2" cx="5.07" cy="27.86" rx="0.86" ry="0.78"/><circle class="cls-2" cx="5.68" cy="21.53" r="0.86"/><ellipse class="cls-2" cx="-0.87" cy="25.71" rx="0.78" ry="0.86"/><path class="cls-2" d="M-1,19.22a.93.93,0,0,0,.93-.93A.94.94,0,0,0-1,17.35a.94.94,0,0,0-.94.94A.94.94,0,0,0-1,19.22Z"/><ellipse class="cls-2" cx="3.86" cy="13.72" rx="0.78" ry="0.86"/><path class="cls-2" d="M10,12.76a.86.86,0,1,0-.85-.85A.85.85,0,0,0,10,12.76Z"/><ellipse class="cls-2" cx="5.02" cy="7.56" rx="0.86" ry="0.78"/><ellipse class="cls-2" cx="16.4" cy="11.19" rx="0.78" ry="0.86"/><ellipse class="cls-2" cx="-0.37" cy="4.21" rx="0.93" ry="0.86"/><path class="cls-2" d="M11.23,5.94a.89.89,0,0,0,.93-.85.93.93,0,0,0-1.86,0A.89.89,0,0,0,11.23,5.94Z"/><path class="cls-2" d="M16.57,4.69c.51,0,.93-.32.93-.7s-.42-.7-.93-.7-.94.31-.94.7S16.05,4.69,16.57,4.69Z"/><path class="cls-2" d="M22.17,10.94A.86.86,0,1,0,21.3,10,.89.89,0,0,0,22.17,10.94Z"/><circle class="cls-2" cx="22.67" cy="0.91" r="0.86"/><path class="cls-2" d="M5.4,1.68A.85.85,0,0,0,6.33.91.86.86,0,0,0,5.4.13a.87.87,0,0,0-.93.78A.86.86,0,0,0,5.4,1.68Z"/><rect class="cls-3" x="-29.47" y="-23.49" width="54.13" height="54.13"/><rect class="cls-3" x="-29.49" y="-23.58" width="54.15" height="54.21"/><line class="cls-1" x1="2.36" y1="31.26" x2="2.36" y2="31.26"/><line class="cls-1" x1="0.07" y1="45.19" x2="0.07" y2="45.19"/><line class="cls-1" x1="1.39" y1="48.65" x2="1.39" y2="48.65"/><line class="cls-1" x1="2.13" y1="46.43" x2="2.13" y2="46.43"/><line class="cls-1" x1="1.63" y1="43.87" x2="1.63" y2="43.87"/><line class="cls-1" x1="1.47" y1="51.21" x2="1.47" y2="51.21"/><line class="cls-1" x1="1.22" y1="53.93" x2="1.22" y2="53.93"/><line class="cls-1" x1="3.61" y1="53.11" x2="3.61" y2="53.11"/><line class="cls-1" x1="4.03" y1="50.55" x2="4.03" y2="50.55"/><line class="cls-1" x1="6.01" y1="52.94" x2="6.01" y2="52.94"/><line class="cls-1" x1="8.4" y1="52.28" x2="8.4" y2="52.28"/><line class="cls-1" x1="7.41" y1="50.47" x2="7.41" y2="50.47"/><line class="cls-1" x1="6.91" y1="47.91" x2="6.91" y2="47.91"/><line class="cls-1" x1="6.34" y1="46.1" x2="6.34" y2="46.1"/><line class="cls-1" x1="4.03" y1="45.11" x2="4.03" y2="45.11"/><line class="cls-1" x1="5.61" y1="43.76" x2="5.61" y2="43.76"/><line class="cls-1" x1="8.07" y1="42.88" x2="8.07" y2="42.88"/><line class="cls-1" x1="10.46" y1="44.12" x2="10.46" y2="44.12"/><line class="cls-1" x1="11.04" y1="46.67" x2="11.04" y2="46.67"/><line class="cls-1" x1="9.64" y1="48.57" x2="9.64" y2="48.57"/><line class="cls-1" x1="11.53" y1="50.3" x2="11.53" y2="50.3"/><line class="cls-1" x1="13.6" y1="48.9" x2="13.6" y2="48.9"/><line class="cls-1" x1="12.69" y1="43.04" x2="12.69" y2="43.04"/><line class="cls-1" x1="15.25" y1="42.38" x2="15.25" y2="42.38"/><line class="cls-1" x1="16.07" y1="44.78" x2="16.07" y2="44.78"/><line class="cls-1" x1="15.99" y1="47.99" x2="15.99" y2="47.99"/><line class="cls-1" x1="15.41" y1="49.97" x2="15.41" y2="49.97"/><line class="cls-1" x1="14.01" y1="51.79" x2="14.01" y2="51.79"/><line class="cls-1" x1="13.43" y1="53.85" x2="13.43" y2="53.85"/><line class="cls-1" x1="9.64" y1="54.26" x2="9.64" y2="54.26"/><line class="cls-1" x1="16.4" y1="53.6" x2="16.4" y2="53.6"/><line class="cls-1" x1="18.38" y1="54.18" x2="18.38" y2="54.18"/><line class="cls-1" x1="20.53" y1="53.27" x2="20.53" y2="53.27"/><line class="cls-1" x1="23.41" y1="53.03" x2="23.41" y2="53.03"/><line class="cls-1" x1="22.34" y1="51.13" x2="22.34" y2="51.13"/><line class="cls-1" x1="20.03" y1="51.05" x2="20.03" y2="51.05"/><line class="cls-1" x1="18.71" y1="49.64" x2="18.71" y2="49.64"/><line class="cls-1" x1="20.86" y1="48.57" x2="20.86" y2="48.57"/><line class="cls-1" x1="23.25" y1="49.07" x2="23.25" y2="49.07"/><line class="cls-1" x1="18.46" y1="46.92" x2="18.46" y2="46.92"/><circle class="cls-2" cx="22.67" cy="55.12" r="0.86"/><path class="cls-2" d="M17.23,52.1a.79.79,0,1,0-.94-.78A.87.87,0,0,0,17.23,52.1Z"/><path class="cls-2" d="M10.68,52.74a.84.84,0,0,0,.93-.7c0-.39-.41-.7-.93-.7s-.93.31-.93.7S10.17,52.74,10.68,52.74Z"/><path class="cls-2" d="M5.4,55.89a.79.79,0,1,0,0-1.55.79.79,0,1,0,0,1.55Z"/><ellipse class="cls-2" cx="4.25" cy="48.24" rx="0.78" ry="0.86"/><ellipse class="cls-2" cx="20.91" cy="45.71" rx="0.93" ry="0.86"/><ellipse class="cls-2" cx="13.98" cy="45.33" rx="0.86" ry="0.78"/><circle class="cls-2" cx="8.48" cy="45.11" r="0.86"/><path class="cls-2" d="M6.61,32.88a.71.71,0,1,0,0-1.4.71.71,0,1,0,0,1.4Z"/><line class="cls-1" x1="16.86" y1="33.51" x2="16.86" y2="33.51"/><line class="cls-1" x1="18.11" y1="42.13" x2="18.11" y2="42.13"/><line class="cls-1" x1="18.67" y1="32.32" x2="18.67" y2="32.32"/><line class="cls-1" x1="17.86" y1="38.63" x2="17.86" y2="38.63"/><line class="cls-1" x1="16.23" y1="36.88" x2="16.23" y2="36.88"/><line class="cls-1" x1="5.11" y1="41.76" x2="5.11" y2="41.76"/><line class="cls-1" x1="20.23" y1="34.13" x2="20.23" y2="34.13"/><line class="cls-1" x1="21.11" y1="32.42" x2="21.11" y2="32.42"/><line class="cls-1" x1="23.23" y1="34.01" x2="23.23" y2="34.01"/><line class="cls-1" x1="21.98" y1="36.13" x2="21.98" y2="36.13"/><line class="cls-1" x1="20.98" y1="38.38" x2="20.98" y2="38.38"/><line class="cls-1" x1="23.61" y1="37.88" x2="23.61" y2="37.88"/><line class="cls-1" x1="20.23" y1="43.76" x2="20.23" y2="43.76"/><line class="cls-1" x1="19.27" y1="39.92" x2="19.27" y2="39.92"/><line class="cls-1" x1="23.36" y1="43.38" x2="23.36" y2="43.38"/><line class="cls-1" x1="23.23" y1="46.13" x2="23.23" y2="46.13"/><line class="cls-1" x1="4.94" y1="32.59" x2="4.94" y2="32.59"/><line class="cls-1" x1="2.54" y1="33.21" x2="2.54" y2="33.21"/><line class="cls-1" x1="0.56" y1="32.64" x2="0.56" y2="32.64"/><line class="cls-1" x1="-0.18" y1="36.35" x2="-0.18" y2="36.35"/><line class="cls-1" x1="0.06" y1="38.58" x2="0.06" y2="38.58"/><line class="cls-1" x1="2.44" y1="42.09" x2="2.44" y2="42.09"/><line class="cls-1" x1="1.44" y1="39.76" x2="1.44" y2="39.76"/><line class="cls-1" x1="3.94" y1="40.39" x2="3.94" y2="40.39"/><line class="cls-1" x1="1.71" y1="35.11" x2="1.71" y2="35.11"/><line class="cls-1" x1="4.44" y1="36.18" x2="4.44" y2="36.18"/><line class="cls-1" x1="5.1" y1="38.41" x2="5.1" y2="38.41"/><line class="cls-1" x1="5.92" y1="34.37" x2="5.92" y2="34.37"/><line class="cls-1" x1="9.36" y1="31.13" x2="9.36" y2="31.13"/><line class="cls-1" x1="8.89" y1="34.62" x2="8.89" y2="34.62"/><line class="cls-1" x1="6.83" y1="40.14" x2="6.83" y2="40.14"/><line class="cls-1" x1="8.44" y1="41.09" x2="8.44" y2="41.09"/><line class="cls-1" x1="10.77" y1="41.42" x2="10.77" y2="41.42"/><line class="cls-1" x1="18.11" y1="44.09" x2="18.11" y2="44.09"/><line class="cls-1" x1="21.11" y1="41.42" x2="21.11" y2="41.42"/><line class="cls-1" x1="9.39" y1="38.82" x2="9.39" y2="38.82"/><line class="cls-1" x1="12.19" y1="39.4" x2="12.19" y2="39.4"/><line class="cls-1" x1="13.23" y1="41.26" x2="13.23" y2="41.26"/><line class="cls-1" x1="14.5" y1="38.58" x2="14.5" y2="38.58"/><line class="cls-1" x1="13.76" y1="36.27" x2="13.76" y2="36.27"/><line class="cls-1" x1="11.36" y1="36.26" x2="11.36" y2="36.26"/><line class="cls-1" x1="11.11" y1="33.63" x2="11.11" y2="33.63"/><line class="cls-1" x1="11.94" y1="32.09" x2="11.94" y2="32.09"/><line class="cls-1" x1="15.27" y1="31.46" x2="15.27" y2="31.46"/><path class="cls-2" d="M2.15,38.53a.86.86,0,1,0,0-1.72.86.86,0,1,0,0,1.72Z"/><path class="cls-2" d="M8.61,38.21c.51,0,.93-.31.93-.7s-.42-.7-.93-.7-.94.32-.94.7S8.09,38.21,8.61,38.21Z"/><circle class="cls-2" cx="13.59" cy="33.49" r="0.86"/><path class="cls-2" d="M18.92,36.91a.79.79,0,1,0-.93-.78A.87.87,0,0,0,18.92,36.91Z"/><path class="cls-2" d="M15.23,41.38a.92.92,0,0,0,1-.78c0-.43-.45-.77-1-.77s-1,.34-1,.77A.92.92,0,0,0,15.23,41.38Z"/><ellipse class="cls-2" cx="23.48" cy="40.32" rx="0.86" ry="0.93"/><line class="cls-1" x1="23.17" y1="31.33" x2="23.17" y2="31.33"/><rect class="cls-3" x="-29.47" y="30.72" width="54.13" height="54.13"/><rect class="cls-3" x="-29.49" y="30.63" width="54.15" height="54.21"/><rect class="cls-3" width="54.15" height="54.15"/></svg>