<svg id="Layer_1" data-name="Layer 1" xmlns="http://www.w3.org/2000/svg" width="85.04" height="85.04" viewBox="0 0 85.04 85.04"><defs><style>.cls-1,.cls-2,.cls-3{fill:none;}.cls-2,.cls-3{stroke:#000;stroke-linecap:round;}.cls-2{stroke-width:0.3px;}.cls-3{stroke-width:0.7px;}</style></defs><title>603</title><rect class="cls-1" x="48.5" y="-52.76" width="85.04" height="85.04"/><path class="cls-2" d="M57.29,1c.67-.78,2,.75,1.25,1C57.51,2.33,56.67,1.7,57.29,1Z"/><path class="cls-2" d="M63.29,3.43c.67-.78,2,.75,1.25,1C63.51,4.77,62.67,4.14,63.29,3.43Z"/><path class="cls-2" d="M71.79,5.74c.67-.78,2,.75,1.25,1C72,7.08,71.17,6.45,71.79,5.74Z"/><path class="cls-2" d="M79.79,6.87c.67-.78,2,.75,1.25,1C80,8.21,79.17,7.58,79.79,6.87Z"/><path class="cls-2" d="M77.12-.93c.67-.77,2,.75,1.25,1C77.34.41,76.5-.21,77.12-.93Z"/><path class="cls-2" d="M83,.41c.67-.78,2,.75,1.25,1C83.26,1.75,82.42,1.12,83,.41Z"/><path class="cls-2" d="M78,19.74c.67-.78,2,.75,1.25,1C78.26,21.08,77.42,20.45,78,19.74Z"/><path class="cls-2" d="M84.37,21.41c.67-.78,2,.75,1.25,1C84.59,22.75,83.75,22.12,84.37,21.41Z"/><path class="cls-2" d="M79.46,12.3c.75-.7,1.91,1,1.14,1.13C79.54,13.66,78.77,13,79.46,12.3Z"/><path class="cls-2" d="M73.49,13.39c.68-.78,2,.75,1.25,1C73.72,14.73,72.87,14.1,73.49,13.39Z"/><path class="cls-2" d="M67.2,14.57c.68-.77,2,.75,1.25,1C67.43,15.91,66.58,15.29,67.2,14.57Z"/><path class="cls-2" d="M61.37,15.74c.67-.78,2,.75,1.25,1C61.59,17.08,60.75,16.45,61.37,15.74Z"/><path class="cls-2" d="M55.37,16.57c.67-.77,2,.75,1.25,1C55.59,17.91,54.75,17.29,55.37,16.57Z"/><path class="cls-2" d="M59.87,23.24c.67-.78,2,.75,1.25,1C60.09,24.58,59.25,24,59.87,23.24Z"/><path class="cls-2" d="M65.37,25.24c.67-.78,2,.75,1.25,1C65.59,26.58,64.75,26,65.37,25.24Z"/><path class="cls-2" d="M71,26.74c.67-.78,2,.75,1.25,1C71.26,28.08,70.42,27.45,71,26.74Z"/><path class="cls-2" d="M77,28.07c.67-.77,2,.75,1.25,1C77.26,29.41,76.42,28.79,77,28.07Z"/><path class="cls-2" d="M83,28.74c.67-.78,2,.75,1.25,1C83.26,30.08,82.42,29.45,83,28.74Z"/><path class="cls-2" d="M49.37,17.41c.67-.78,2,.75,1.25,1C49.59,18.75,48.75,18.12,49.37,17.41Z"/><path class="cls-2" d="M52.71,9.86c.25-1,2.12-.25,1.57.32C53.53,11,52.49,10.78,52.71,9.86Z"/><path class="cls-2" d="M58.42,8.75c.22-1,2.11-.3,1.57.28C59.26,9.82,58.21,9.67,58.42,8.75Z"/><path class="cls-2" d="M65.32,30.49c0-1,2-.69,1.6,0C66.35,31.38,65.3,31.43,65.32,30.49Z"/><line class="cls-3" x1="52.16" y1="-0.2" x2="52.16" y2="-0.2"/><line class="cls-3" x1="50.47" y1="-0.07" x2="50.47" y2="-0.07"/><line class="cls-3" x1="52.1" y1="2.05" x2="52.1" y2="2.05"/><line class="cls-3" x1="50.47" y1="1.24" x2="50.47" y2="1.24"/><line class="cls-3" x1="52.66" y1="4.3" x2="52.66" y2="4.3"/><line class="cls-3" x1="49.85" y1="4.55" x2="49.85" y2="4.55"/><line class="cls-3" x1="50.41" y1="7.24" x2="50.41" y2="7.24"/><line class="cls-3" x1="50.47" y1="10.3" x2="50.47" y2="10.3"/><line class="cls-3" x1="56.41" y1="9.49" x2="56.41" y2="9.49"/><line class="cls-3" x1="62.16" y1="8.12" x2="62.16" y2="8.12"/><line class="cls-3" x1="68.22" y1="9.55" x2="68.22" y2="9.55"/><line class="cls-3" x1="65.22" y1="10.12" x2="65.22" y2="10.12"/><line class="cls-3" x1="62.35" y1="10.68" x2="62.35" y2="10.68"/><line class="cls-3" x1="59.35" y1="11.3" x2="59.35" y2="11.3"/><line class="cls-3" x1="56.41" y1="11.8" x2="56.41" y2="11.8"/><line class="cls-3" x1="53.47" y1="12.18" x2="53.47" y2="12.18"/><line class="cls-3" x1="50.47" y1="12.55" x2="50.47" y2="12.55"/><line class="cls-3" x1="49.91" y1="15.62" x2="49.91" y2="15.62"/><line class="cls-3" x1="53.04" y1="17.49" x2="53.04" y2="17.49"/><line class="cls-3" x1="55.16" y1="20.87" x2="55.16" y2="20.87"/><line class="cls-3" x1="53.16" y1="20.99" x2="53.16" y2="20.99"/><line class="cls-3" x1="51.32" y1="20.99" x2="51.32" y2="20.99"/><line class="cls-3" x1="49.29" y1="21.12" x2="49.29" y2="21.12"/><line class="cls-3" x1="51.41" y1="22.93" x2="51.41" y2="22.93"/><line class="cls-3" x1="50.47" y1="25.43" x2="50.47" y2="25.43"/><line class="cls-3" x1="49.79" y1="31.49" x2="49.79" y2="31.49"/><line class="cls-3" x1="52.79" y1="31.24" x2="52.79" y2="31.24"/><line class="cls-3" x1="55.79" y1="30.93" x2="55.79" y2="30.93"/><line class="cls-3" x1="58.66" y1="30.43" x2="58.66" y2="30.43"/><line class="cls-3" x1="61.6" y1="29.8" x2="61.6" y2="29.8"/><line class="cls-3" x1="62.85" y1="31.8" x2="62.85" y2="31.8"/><line class="cls-3" x1="64.22" y1="29.18" x2="64.22" y2="29.18"/><line class="cls-3" x1="68.04" y1="31.87" x2="68.04" y2="31.87"/><line class="cls-3" x1="70.35" y1="30.87" x2="70.35" y2="30.87"/><line class="cls-3" x1="75.22" y1="31.62" x2="75.22" y2="31.62"/><line class="cls-3" x1="52.72" y1="28.49" x2="52.72" y2="28.49"/><line class="cls-3" x1="49.47" y1="28.62" x2="49.47" y2="28.62"/><line class="cls-3" x1="58.6" y1="27.62" x2="58.6" y2="27.62"/><line class="cls-3" x1="55.79" y1="27.99" x2="55.79" y2="27.99"/><line class="cls-3" x1="53.29" y1="23.74" x2="53.29" y2="23.74"/><line class="cls-3" x1="55.1" y1="24.55" x2="55.1" y2="24.55"/><line class="cls-3" x1="57.04" y1="25.3" x2="57.04" y2="25.3"/><line class="cls-3" x1="58.91" y1="25.87" x2="58.91" y2="25.87"/><line class="cls-3" x1="60.79" y1="26.55" x2="60.79" y2="26.55"/><line class="cls-3" x1="62.66" y1="27.18" x2="62.66" y2="27.18"/><line class="cls-3" x1="64.6" y1="27.74" x2="64.6" y2="27.74"/><line class="cls-3" x1="66.54" y1="28.24" x2="66.54" y2="28.24"/><line class="cls-3" x1="68.6" y1="28.68" x2="68.6" y2="28.68"/><line class="cls-3" x1="70.35" y1="29.05" x2="70.35" y2="29.05"/><line class="cls-3" x1="72.29" y1="29.43" x2="72.29" y2="29.43"/><line class="cls-3" x1="74.41" y1="29.87" x2="74.41" y2="29.87"/><line class="cls-3" x1="76.35" y1="30.24" x2="76.35" y2="30.24"/><line class="cls-3" x1="78.29" y1="30.55" x2="78.29" y2="30.55"/><line class="cls-3" x1="80.29" y1="30.93" x2="80.29" y2="30.93"/><line class="cls-3" x1="82.29" y1="31.18" x2="82.29" y2="31.18"/><line class="cls-3" x1="84.29" y1="31.37" x2="84.29" y2="31.37"/><line class="cls-3" x1="82.72" y1="19.05" x2="82.72" y2="19.05"/><line class="cls-3" x1="82.16" y1="21.12" x2="82.16" y2="21.12"/><line class="cls-3" x1="83.85" y1="24.62" x2="83.85" y2="24.62"/><line class="cls-3" x1="85.04" y1="27.43" x2="85.04" y2="27.43"/><line class="cls-3" x1="82.1" y1="26.99" x2="82.1" y2="26.99"/><line class="cls-3" x1="80.6" y1="28.93" x2="80.6" y2="28.93"/><line class="cls-3" x1="80.97" y1="23.99" x2="80.97" y2="23.99"/><line class="cls-3" x1="79.1" y1="26.49" x2="79.1" y2="26.49"/><line class="cls-3" x1="74.72" y1="27.93" x2="74.72" y2="27.93"/><line class="cls-3" x1="76.22" y1="25.87" x2="76.22" y2="25.87"/><line class="cls-3" x1="78.1" y1="23.37" x2="78.1" y2="23.37"/><line class="cls-3" x1="75.16" y1="22.43" x2="75.16" y2="22.43"/><line class="cls-3" x1="72.35" y1="21.49" x2="72.35" y2="21.49"/><line class="cls-3" x1="70.47" y1="24.05" x2="70.47" y2="24.05"/><line class="cls-3" x1="73.29" y1="25.12" x2="73.29" y2="25.12"/><line class="cls-3" x1="68.97" y1="26.49" x2="68.97" y2="26.49"/><line class="cls-3" x1="67.6" y1="23.18" x2="67.6" y2="23.18"/><line class="cls-3" x1="64.85" y1="22.18" x2="64.85" y2="22.18"/><line class="cls-3" x1="63.22" y1="24.74" x2="63.22" y2="24.74"/><line class="cls-3" x1="57.66" y1="22.55" x2="57.66" y2="22.55"/><line class="cls-3" x1="57.16" y1="20.68" x2="57.16" y2="20.68"/><line class="cls-3" x1="59.16" y1="20.55" x2="59.16" y2="20.55"/><line class="cls-3" x1="61.04" y1="20.3" x2="61.04" y2="20.3"/><line class="cls-3" x1="63.1" y1="20.18" x2="63.1" y2="20.18"/><line class="cls-3" x1="65.1" y1="19.93" x2="65.1" y2="19.93"/><line class="cls-3" x1="67.1" y1="19.8" x2="67.1" y2="19.8"/><line class="cls-3" x1="69.1" y1="19.49" x2="69.1" y2="19.49"/><line class="cls-3" x1="70.97" y1="19.24" x2="70.97" y2="19.24"/><line class="cls-3" x1="72.91" y1="18.99" x2="72.91" y2="18.99"/><line class="cls-3" x1="74.91" y1="18.68" x2="74.91" y2="18.68"/><line class="cls-3" x1="76.79" y1="18.37" x2="76.79" y2="18.37"/><line class="cls-3" x1="78.85" y1="17.99" x2="78.85" y2="17.99"/><line class="cls-3" x1="80.85" y1="17.74" x2="80.85" y2="17.74"/><line class="cls-3" x1="82.66" y1="17.3" x2="82.66" y2="17.3"/><line class="cls-3" x1="84.72" y1="16.99" x2="84.72" y2="16.99"/><line class="cls-3" x1="56.66" y1="19.12" x2="56.66" y2="19.12"/><line class="cls-3" x1="58.97" y1="16.68" x2="58.97" y2="16.68"/><line class="cls-3" x1="59.66" y1="18.8" x2="59.66" y2="18.8"/><line class="cls-3" x1="62.66" y1="18.55" x2="62.66" y2="18.55"/><line class="cls-3" x1="64.79" y1="15.55" x2="64.79" y2="15.55"/><line class="cls-3" x1="65.47" y1="18.24" x2="65.47" y2="18.24"/><line class="cls-3" x1="68.6" y1="17.8" x2="68.6" y2="17.8"/><line class="cls-3" x1="70.97" y1="14.49" x2="70.97" y2="14.49"/><line class="cls-3" x1="71.54" y1="17.24" x2="71.54" y2="17.24"/><line class="cls-3" x1="74.41" y1="16.87" x2="74.41" y2="16.87"/><line class="cls-3" x1="77.2" y1="13.43" x2="77.2" y2="13.43"/><line class="cls-3" x1="77.35" y1="16.3" x2="77.35" y2="16.3"/><line class="cls-3" x1="80.29" y1="15.62" x2="80.29" y2="15.62"/><line class="cls-3" x1="83.1" y1="12.29" x2="83.1" y2="12.29"/><line class="cls-3" x1="83.22" y1="14.93" x2="83.22" y2="14.93"/><line class="cls-3" x1="52.85" y1="15.18" x2="52.85" y2="15.18"/><line class="cls-3" x1="55.91" y1="14.74" x2="55.91" y2="14.74"/><line class="cls-3" x1="58.85" y1="14.12" x2="58.85" y2="14.12"/><line class="cls-3" x1="61.72" y1="13.55" x2="61.72" y2="13.55"/><line class="cls-3" x1="64.72" y1="12.8" x2="64.72" y2="12.8"/><line class="cls-3" x1="67.54" y1="12.12" x2="67.54" y2="12.12"/><line class="cls-3" x1="70.29" y1="11.49" x2="70.29" y2="11.49"/><line class="cls-3" x1="72.79" y1="10.93" x2="72.79" y2="10.93"/><line class="cls-3" x1="75.22" y1="10.37" x2="75.22" y2="10.37"/><line class="cls-3" x1="53.35" y1="6.87" x2="53.35" y2="6.87"/><line class="cls-3" x1="56.22" y1="6.3" x2="56.22" y2="6.3"/><line class="cls-3" x1="53.91" y1="2.99" x2="53.91" y2="2.99"/><line class="cls-3" x1="55.72" y1="3.74" x2="55.72" y2="3.74"/><line class="cls-3" x1="57.66" y1="4.43" x2="57.66" y2="4.43"/><line class="cls-3" x1="59.66" y1="5.05" x2="59.66" y2="5.05"/><line class="cls-3" x1="61.54" y1="5.68" x2="61.54" y2="5.68"/><line class="cls-3" x1="63.29" y1="6.18" x2="63.29" y2="6.18"/><line class="cls-3" x1="65.35" y1="6.68" x2="65.35" y2="6.68"/><line class="cls-3" x1="67.22" y1="7.18" x2="67.22" y2="7.18"/><line class="cls-3" x1="69.16" y1="7.68" x2="69.16" y2="7.68"/><line class="cls-3" x1="71.1" y1="8.05" x2="71.1" y2="8.05"/><line class="cls-3" x1="73.1" y1="8.37" x2="73.1" y2="8.37"/><line class="cls-3" x1="74.97" y1="8.68" x2="74.97" y2="8.68"/><line class="cls-3" x1="76.91" y1="8.99" x2="76.91" y2="8.99"/><line class="cls-3" x1="78.95" y1="9.16" x2="78.95" y2="9.16"/><line class="cls-3" x1="80.95" y1="9.32" x2="80.95" y2="9.32"/><line class="cls-3" x1="83.2" y1="9.49" x2="83.2" y2="9.49"/><line class="cls-3" x1="60.29" y1="2.62" x2="60.29" y2="2.62"/><line class="cls-3" x1="66.16" y1="4.74" x2="66.16" y2="4.74"/><line class="cls-3" x1="65.45" y1="0.41" x2="65.45" y2="0.41"/><line class="cls-3" x1="69.04" y1="5.62" x2="69.04" y2="5.62"/><line class="cls-3" x1="75.25" y1="6.58" x2="75.25" y2="6.58"/><line class="cls-3" x1="69.29" y1="1.41" x2="69.29" y2="1.41"/><line class="cls-3" x1="80.72" y1="0.3" x2="80.72" y2="0.3"/><line class="cls-3" x1="72.29" y1="2.24" x2="72.29" y2="2.24"/><line class="cls-3" x1="75.79" y1="3.07" x2="75.79" y2="3.07"/><line class="cls-3" x1="79.29" y1="3.57" x2="79.29" y2="3.57"/><line class="cls-3" x1="83.12" y1="4.07" x2="83.12" y2="4.07"/><line class="cls-3" x1="78.04" y1="6.99" x2="78.04" y2="6.99"/><line class="cls-3" x1="83.29" y1="7.74" x2="83.29" y2="7.74"/><line class="cls-3" x1="48.85" y1="-0.01" x2="48.85" y2="-0.01"/><rect class="cls-1" x="48.5" y="32.28" width="85.04" height="85.04"/><path class="cls-2" d="M56.79,44.15c.67-.77,2,.75,1.25,1C57,45.5,56.17,44.87,56.79,44.15Z"/><path class="cls-2" d="M56.79,65.28c.67-.78,2,.75,1.25,1C57,66.62,56.17,66,56.79,65.28Z"/><path class="cls-2" d="M51.7,60.28c.68-.78,2,.75,1.25,1C51.93,61.62,51.08,61,51.7,60.28Z"/><path class="cls-2" d="M57.7,60.61c.68-.78,2,.75,1.25,1C57.93,62,57.08,61.33,57.7,60.61Z"/><path class="cls-2" d="M63.54,60.28c.67-.78,2,.75,1.25,1C63.76,61.62,62.92,61,63.54,60.28Z"/><path class="cls-2" d="M69.57,60c.2-1,2.11-.35,1.58.24C70.44,61,69.39,60.89,69.57,60Z"/><path class="cls-2" d="M75.23,58.58c0-1,2-.78,1.6-.09C76.29,59.43,75.25,59.53,75.23,58.58Z"/><path class="cls-2" d="M75.81,64.21c.65-.79,2,.69,1.28,1C76.08,65.55,75.21,65,75.81,64.21Z"/><path class="cls-2" d="M82.87,65.21c.65-.79,2,.69,1.28,1C83.14,66.55,82.27,66,82.87,65.21Z"/><path class="cls-2" d="M80.41,56.27c-.2-1,1.82-1.12,1.55-.37C81.6,56.91,80.59,57.19,80.41,56.27Z"/><path class="cls-2" d="M49,51.53c.68-.78,2,.75,1.25,1C49.2,52.87,48.35,52.24,49,51.53Z"/><path class="cls-2" d="M56.1,51.11c.33-1,2.14-.06,1.54.45C56.82,52.27,55.8,52,56.1,51.11Z"/><path class="cls-2" d="M52.29,80.78c.67-.78,2,.75,1.25,1C52.51,82.12,51.67,81.49,52.29,80.78Z"/><path class="cls-2" d="M58.29,80.59c.67-.78,2,.75,1.25,1C58.51,81.93,57.67,81.31,58.29,80.59Z"/><path class="cls-2" d="M64.29,80.34c.67-.78,2,.75,1.25,1C64.51,81.68,63.67,81.06,64.29,80.34Z"/><path class="cls-2" d="M70,79.78c.67-.78,2,.75,1.25,1C70.26,81.12,69.42,80.49,70,79.78Z"/><path class="cls-2" d="M76,79.09c.67-.78,2,.75,1.25,1C76.26,80.43,75.42,79.81,76,79.09Z"/><path class="cls-2" d="M82,78.09c.67-.78,2,.75,1.25,1C82.26,79.43,81.42,78.81,82,78.09Z"/><path class="cls-2" d="M51.91,73.53c.68-.78,2,.75,1.25,1C52.14,74.87,51.29,74.24,51.91,73.53Z"/><path class="cls-2" d="M57.91,73.9c.68-.77,2,.75,1.25,1C58.14,75.25,57.29,74.62,57.91,73.9Z"/><path class="cls-2" d="M63.91,74.15c.68-.77,2,.75,1.25,1C64.14,75.5,63.29,74.87,63.91,74.15Z"/><path class="cls-2" d="M69.91,74.28c.68-.78,2,.75,1.25,1C70.14,75.62,69.29,75,69.91,74.28Z"/><path class="cls-2" d="M77.12,84.11c.67-.78,2,.75,1.25,1C77.34,85.45,76.5,84.83,77.12,84.11Z"/><path class="cls-2" d="M62.79,66.9c.67-.77,2,.75,1.25,1C63,68.25,62.17,67.62,62.79,66.9Z"/><path class="cls-2" d="M68.66,68.9c.68-.77,2,.75,1.25,1C68.89,70.25,68,69.62,68.66,68.9Z"/><path class="cls-2" d="M74.66,70.28c.68-.78,2,.75,1.25,1C74.89,71.62,74,71,74.66,70.28Z"/><path class="cls-2" d="M80.66,71.15c.68-.77,2,.75,1.25,1C80.89,72.5,80,71.87,80.66,71.15Z"/><path class="cls-2" d="M62.2,46.53c.68-.78,2,.75,1.25,1C62.43,47.87,61.58,47.24,62.2,46.53Z"/><path class="cls-2" d="M67.79,48.11c.67-.78,2,.75,1.25,1C68,49.45,67.17,48.83,67.79,48.11Z"/><path class="cls-2" d="M73.7,49.28c.68-.78,2,.75,1.25,1C73.93,50.62,73.08,50,73.7,49.28Z"/><path class="cls-2" d="M73.54,40.61c.67-.78,2,.75,1.25,1C73.76,42,72.92,41.33,73.54,40.61Z"/><path class="cls-2" d="M81.54,41.86c.67-.78,2,.75,1.25,1C81.76,43.2,80.92,42.58,81.54,41.86Z"/><path class="cls-2" d="M79.7,50c.68-.78,2,.75,1.25,1C79.93,51.29,79.08,50.66,79.7,50Z"/><path class="cls-2" d="M52.63,34.13c.25-1,2.12-.23,1.57.33C53.44,35.23,52.4,35.05,52.63,34.13Z"/><path class="cls-2" d="M59.14,33.23c0-1,2-.68,1.6,0C60.16,34.13,59.11,34.18,59.14,33.23Z"/><path class="cls-2" d="M52.16,39.53c.68-.78,2,.75,1.25,1C52.39,40.87,51.54,40.24,52.16,39.53Z"/><path class="cls-2" d="M57.91,38c.68-.78,2,.75,1.25,1C58.14,39.37,57.29,38.74,57.91,38Z"/><path class="cls-2" d="M63.29,36.28c.67-.78,2,.75,1.25,1C63.51,37.62,62.67,37,63.29,36.28Z"/><path class="cls-2" d="M69.29,34.28c.67-.78,2,.75,1.25,1C69.51,35.62,68.67,35,69.29,34.28Z"/><line class="cls-3" x1="50.29" y1="34.61" x2="50.29" y2="34.61"/><line class="cls-3" x1="56.85" y1="33.72" x2="56.85" y2="33.72"/><line class="cls-3" x1="50.66" y1="37.28" x2="50.66" y2="37.28"/><line class="cls-3" x1="53.54" y1="36.84" x2="53.54" y2="36.84"/><line class="cls-3" x1="56.54" y1="36.34" x2="56.54" y2="36.34"/><line class="cls-3" x1="59.29" y1="35.47" x2="59.29" y2="35.47"/><line class="cls-3" x1="61.41" y1="34.72" x2="61.41" y2="34.72"/><line class="cls-3" x1="63.85" y1="33.9" x2="63.85" y2="33.9"/><line class="cls-3" x1="65.91" y1="32.97" x2="65.91" y2="32.97"/><line class="cls-3" x1="50.16" y1="40.4" x2="50.16" y2="40.4"/><line class="cls-3" x1="55.54" y1="39.47" x2="55.54" y2="39.47"/><line class="cls-3" x1="61.35" y1="37.78" x2="61.35" y2="37.78"/><line class="cls-3" x1="67.04" y1="35.9" x2="67.04" y2="35.9"/><line class="cls-3" x1="72.6" y1="33.72" x2="72.6" y2="33.72"/><line class="cls-3" x1="77.1" y1="33.22" x2="77.1" y2="33.22"/><line class="cls-3" x1="75.41" y1="34.28" x2="75.41" y2="34.28"/><line class="cls-3" x1="73.72" y1="35.34" x2="73.72" y2="35.34"/><line class="cls-3" x1="71.97" y1="36.22" x2="71.97" y2="36.22"/><line class="cls-3" x1="70.22" y1="37.22" x2="70.22" y2="37.22"/><line class="cls-3" x1="68.41" y1="37.97" x2="68.41" y2="37.97"/><line class="cls-3" x1="66.54" y1="38.84" x2="66.54" y2="38.84"/><line class="cls-3" x1="64.66" y1="39.53" x2="64.66" y2="39.53"/><line class="cls-3" x1="62.79" y1="40.28" x2="62.79" y2="40.28"/><line class="cls-3" x1="60.91" y1="40.84" x2="60.91" y2="40.84"/><line class="cls-3" x1="59.1" y1="41.34" x2="59.1" y2="41.34"/><line class="cls-3" x1="57.1" y1="41.9" x2="57.1" y2="41.9"/><line class="cls-3" x1="55.16" y1="42.15" x2="55.16" y2="42.15"/><line class="cls-3" x1="53.16" y1="42.53" x2="53.16" y2="42.53"/><line class="cls-3" x1="51.16" y1="42.65" x2="51.16" y2="42.65"/><line class="cls-3" x1="49.22" y1="42.72" x2="49.22" y2="42.72"/><line class="cls-3" x1="50.47" y1="43.97" x2="50.47" y2="43.97"/><line class="cls-3" x1="49.72" y1="46.59" x2="49.72" y2="46.59"/><line class="cls-3" x1="52.41" y1="46.53" x2="52.41" y2="46.53"/><line class="cls-3" x1="56.6" y1="48.53" x2="56.6" y2="48.53"/><line class="cls-3" x1="54.35" y1="48.9" x2="54.35" y2="48.9"/><line class="cls-3" x1="52.04" y1="49.15" x2="52.04" y2="49.15"/><line class="cls-3" x1="49.79" y1="49.28" x2="49.79" y2="49.28"/><line class="cls-3" x1="53.47" y1="51.65" x2="53.47" y2="51.65"/><line class="cls-3" x1="59.72" y1="50.84" x2="59.72" y2="50.84"/><line class="cls-3" x1="62.16" y1="50.4" x2="62.16" y2="50.4"/><line class="cls-3" x1="68.35" y1="52.97" x2="68.35" y2="52.97"/><line class="cls-3" x1="70.41" y1="52.4" x2="70.41" y2="52.4"/><line class="cls-3" x1="66.29" y1="53.47" x2="66.29" y2="53.47"/><line class="cls-3" x1="64.04" y1="53.97" x2="64.04" y2="53.97"/><line class="cls-3" x1="61.35" y1="54.4" x2="61.35" y2="54.4"/><line class="cls-3" x1="58.47" y1="54.84" x2="58.47" y2="54.84"/><line class="cls-3" x1="52.35" y1="55.4" x2="52.35" y2="55.4"/><line class="cls-3" x1="55.47" y1="55.22" x2="55.47" y2="55.22"/><line class="cls-3" x1="49.79" y1="55.34" x2="49.79" y2="55.34"/><line class="cls-3" x1="49.72" y1="58.34" x2="49.72" y2="58.34"/><line class="cls-3" x1="49.22" y1="60.65" x2="49.22" y2="60.65"/><line class="cls-3" x1="55.29" y1="61.09" x2="55.29" y2="61.09"/><line class="cls-3" x1="57.85" y1="64.03" x2="57.85" y2="64.03"/><line class="cls-3" x1="55.66" y1="63.95" x2="55.66" y2="63.95"/><line class="cls-3" x1="52.95" y1="63.86" x2="52.95" y2="63.86"/><line class="cls-3" x1="59.85" y1="64.09" x2="59.85" y2="64.09"/><line class="cls-3" x1="61.79" y1="64.03" x2="61.79" y2="64.03"/><line class="cls-3" x1="63.72" y1="63.97" x2="63.72" y2="63.97"/><line class="cls-3" x1="65.79" y1="63.78" x2="65.79" y2="63.78"/><line class="cls-3" x1="67.79" y1="63.47" x2="67.79" y2="63.47"/><line class="cls-3" x1="69.66" y1="62.97" x2="69.66" y2="62.97"/><line class="cls-3" x1="71.54" y1="62.53" x2="71.54" y2="62.53"/><line class="cls-3" x1="73.54" y1="61.97" x2="73.54" y2="61.97"/><line class="cls-3" x1="75.41" y1="61.22" x2="75.41" y2="61.22"/><line class="cls-3" x1="77.16" y1="60.47" x2="77.16" y2="60.47"/><line class="cls-3" x1="79.04" y1="59.65" x2="79.04" y2="59.65"/><line class="cls-3" x1="80.79" y1="58.59" x2="80.79" y2="58.59"/><line class="cls-3" x1="82.6" y1="60.22" x2="82.6" y2="60.22"/><line class="cls-3" x1="81.97" y1="63.15" x2="81.97" y2="63.15"/><line class="cls-3" x1="78.1" y1="62.53" x2="78.1" y2="62.53"/><line class="cls-3" x1="61.29" y1="61.15" x2="61.29" y2="61.15"/><line class="cls-3" x1="67.16" y1="60.47" x2="67.16" y2="60.47"/><line class="cls-3" x1="73.1" y1="59.59" x2="73.1" y2="59.59"/><line class="cls-3" x1="78.66" y1="57.59" x2="78.66" y2="57.59"/><line class="cls-3" x1="52.79" y1="58.53" x2="52.79" y2="58.53"/><line class="cls-3" x1="56.16" y1="58.59" x2="56.16" y2="58.59"/><line class="cls-3" x1="59.41" y1="58.59" x2="59.41" y2="58.59"/><line class="cls-3" x1="63.29" y1="58.28" x2="63.29" y2="58.28"/><line class="cls-3" x1="66.91" y1="57.59" x2="66.91" y2="57.59"/><line class="cls-3" x1="69.79" y1="57.03" x2="69.79" y2="57.03"/><line class="cls-3" x1="72.54" y1="56.4" x2="72.54" y2="56.4"/><line class="cls-3" x1="75.1" y1="55.72" x2="75.1" y2="55.72"/><line class="cls-3" x1="77.35" y1="54.97" x2="77.35" y2="54.97"/><line class="cls-3" x1="79.35" y1="54.28" x2="79.35" y2="54.28"/><line class="cls-3" x1="82.54" y1="57.65" x2="82.54" y2="57.65"/><line class="cls-3" x1="84.04" y1="55.47" x2="84.04" y2="55.47"/><line class="cls-3" x1="52.16" y1="44.84" x2="52.16" y2="44.84"/><line class="cls-3" x1="53.91" y1="45.78" x2="53.91" y2="45.78"/><line class="cls-3" x1="55.72" y1="46.59" x2="55.72" y2="46.59"/><line class="cls-3" x1="57.6" y1="47.28" x2="57.6" y2="47.28"/><line class="cls-3" x1="59.47" y1="47.9" x2="59.47" y2="47.9"/><line class="cls-3" x1="61.47" y1="48.53" x2="61.47" y2="48.53"/><line class="cls-3" x1="63.41" y1="49.03" x2="63.41" y2="49.03"/><line class="cls-3" x1="65.35" y1="49.47" x2="65.35" y2="49.47"/><line class="cls-3" x1="67.29" y1="49.97" x2="67.29" y2="49.97"/><line class="cls-3" x1="69.16" y1="50.47" x2="69.16" y2="50.47"/><line class="cls-3" x1="71.1" y1="50.84" x2="71.1" y2="50.84"/><line class="cls-3" x1="72.97" y1="51.28" x2="72.97" y2="51.28"/><line class="cls-3" x1="74.97" y1="51.65" x2="74.97" y2="51.65"/><line class="cls-3" x1="79.04" y1="52.45" x2="79.04" y2="52.45"/><line class="cls-3" x1="81.2" y1="52.7" x2="81.2" y2="52.7"/><line class="cls-3" x1="83.37" y1="52.86" x2="83.37" y2="52.86"/><line class="cls-3" x1="77.04" y1="52.11" x2="77.04" y2="52.11"/><line class="cls-3" x1="71.41" y1="49.34" x2="71.41" y2="49.34"/><line class="cls-3" x1="77.35" y1="50.22" x2="77.35" y2="50.22"/><line class="cls-3" x1="83.29" y1="50.65" x2="83.29" y2="50.65"/><line class="cls-3" x1="83.6" y1="80.34" x2="83.6" y2="80.34"/><line class="cls-3" x1="81.79" y1="80.84" x2="81.79" y2="80.84"/><line class="cls-3" x1="79.72" y1="81.22" x2="79.72" y2="81.22"/><line class="cls-3" x1="77.79" y1="81.53" x2="77.79" y2="81.53"/><line class="cls-3" x1="75.85" y1="81.84" x2="75.85" y2="81.84"/><line class="cls-3" x1="73.91" y1="82.15" x2="73.91" y2="82.15"/><line class="cls-3" x1="71.91" y1="82.47" x2="71.91" y2="82.47"/><line class="cls-3" x1="69.91" y1="82.72" x2="69.91" y2="82.72"/><line class="cls-3" x1="67.97" y1="83.03" x2="67.97" y2="83.03"/><line class="cls-3" x1="66.04" y1="83.28" x2="66.04" y2="83.28"/><line class="cls-3" x1="64.1" y1="83.47" x2="64.1" y2="83.47"/><line class="cls-3" x1="62.1" y1="83.78" x2="62.1" y2="83.78"/><line class="cls-3" x1="60.22" y1="84.03" x2="60.22" y2="84.03"/><line class="cls-3" x1="58.1" y1="84.34" x2="58.1" y2="84.34"/><line class="cls-3" x1="56.16" y1="84.4" x2="56.16" y2="84.4"/><line class="cls-3" x1="54.22" y1="84.59" x2="54.22" y2="84.59"/><line class="cls-3" x1="52.16" y1="84.84" x2="52.16" y2="84.84"/><line class="cls-3" x1="50.47" y1="84.97" x2="50.47" y2="84.97"/><line class="cls-3" x1="74.91" y1="83.97" x2="74.91" y2="83.97"/><line class="cls-3" x1="80.72" y1="85.34" x2="80.72" y2="85.34"/><line class="cls-3" x1="82.66" y1="82.53" x2="82.66" y2="82.53"/><line class="cls-3" x1="48.85" y1="85.03" x2="48.85" y2="85.03"/><line class="cls-3" x1="79.6" y1="79.15" x2="79.6" y2="79.15"/><line class="cls-3" x1="73.66" y1="80.09" x2="73.66" y2="80.09"/><line class="cls-3" x1="67.72" y1="80.72" x2="67.72" y2="80.72"/><line class="cls-3" x1="61.85" y1="81.03" x2="61.85" y2="81.03"/><line class="cls-3" x1="55.79" y1="81.28" x2="55.79" y2="81.28"/><line class="cls-3" x1="49.79" y1="81.28" x2="49.79" y2="81.28"/><line class="cls-3" x1="82.66" y1="75.9" x2="82.66" y2="75.9"/><line class="cls-3" x1="70.79" y1="77.03" x2="70.79" y2="77.03"/><line class="cls-3" x1="73.29" y1="76.78" x2="73.29" y2="76.78"/><line class="cls-3" x1="75.79" y1="76.61" x2="75.79" y2="76.61"/><line class="cls-3" x1="78.04" y1="76.36" x2="78.04" y2="76.36"/><line class="cls-3" x1="80.62" y1="76.11" x2="80.62" y2="76.11"/><line class="cls-3" x1="67.79" y1="77.15" x2="67.79" y2="77.15"/><line class="cls-3" x1="64.85" y1="77.28" x2="64.85" y2="77.28"/><line class="cls-3" x1="61.85" y1="77.34" x2="61.85" y2="77.34"/><line class="cls-3" x1="58.79" y1="77.34" x2="58.79" y2="77.34"/><line class="cls-3" x1="55.85" y1="77.4" x2="55.85" y2="77.4"/><line class="cls-3" x1="52.91" y1="77.28" x2="52.91" y2="77.28"/><line class="cls-3" x1="49.85" y1="77.22" x2="49.85" y2="77.22"/><line class="cls-3" x1="67.6" y1="74.78" x2="67.6" y2="74.78"/><line class="cls-3" x1="61.54" y1="74.59" x2="61.54" y2="74.59"/><line class="cls-3" x1="55.6" y1="74.34" x2="55.6" y2="74.34"/><line class="cls-3" x1="49.72" y1="73.78" x2="49.72" y2="73.78"/><line class="cls-3" x1="73.47" y1="74.78" x2="73.47" y2="74.78"/><line class="cls-3" x1="84.22" y1="73.97" x2="84.22" y2="73.97"/><line class="cls-3" x1="82.29" y1="73.84" x2="82.29" y2="73.84"/><line class="cls-3" x1="80.22" y1="73.53" x2="80.22" y2="73.53"/><line class="cls-3" x1="78.29" y1="73.22" x2="78.29" y2="73.22"/><line class="cls-3" x1="76.35" y1="72.9" x2="76.35" y2="72.9"/><line class="cls-3" x1="74.35" y1="72.59" x2="74.35" y2="72.59"/><line class="cls-3" x1="72.47" y1="72.34" x2="72.47" y2="72.34"/><line class="cls-3" x1="70.66" y1="71.9" x2="70.66" y2="71.9"/><line class="cls-3" x1="68.6" y1="71.53" x2="68.6" y2="71.53"/><line class="cls-3" x1="66.54" y1="70.97" x2="66.54" y2="70.97"/><line class="cls-3" x1="67.35" y1="72.65" x2="67.35" y2="72.65"/><line class="cls-3" x1="64.35" y1="72.34" x2="64.35" y2="72.34"/><line class="cls-3" x1="61.41" y1="72.09" x2="61.41" y2="72.09"/><line class="cls-3" x1="58.41" y1="71.65" x2="58.41" y2="71.65"/><line class="cls-3" x1="55.47" y1="71.15" x2="55.47" y2="71.15"/><line class="cls-3" x1="52.54" y1="70.59" x2="52.54" y2="70.59"/><line class="cls-3" x1="49.6" y1="70.09" x2="49.6" y2="70.09"/><line class="cls-3" x1="61.29" y1="70.65" x2="61.29" y2="70.65"/><line class="cls-3" x1="58.29" y1="70.22" x2="58.29" y2="70.22"/><line class="cls-3" x1="55.47" y1="69.59" x2="55.47" y2="69.59"/><line class="cls-3" x1="52.54" y1="68.65" x2="52.54" y2="68.65"/><line class="cls-3" x1="49.66" y1="67.78" x2="49.66" y2="67.78"/><line class="cls-3" x1="64.66" y1="70.47" x2="64.66" y2="70.47"/><line class="cls-3" x1="62.79" y1="69.9" x2="62.79" y2="69.9"/><line class="cls-3" x1="60.91" y1="69.34" x2="60.91" y2="69.34"/><line class="cls-3" x1="58.91" y1="68.65" x2="58.91" y2="68.65"/><line class="cls-3" x1="56.97" y1="68.03" x2="56.97" y2="68.03"/><line class="cls-3" x1="55.22" y1="67.4" x2="55.22" y2="67.4"/><line class="cls-3" x1="53.47" y1="66.65" x2="53.47" y2="66.65"/><line class="cls-3" x1="51.6" y1="65.72" x2="51.6" y2="65.72"/><line class="cls-3" x1="49.91" y1="64.78" x2="49.91" y2="64.78"/><line class="cls-3" x1="84.1" y1="71.53" x2="84.1" y2="71.53"/><line class="cls-3" x1="78.29" y1="70.84" x2="78.29" y2="70.84"/><line class="cls-3" x1="77.04" y1="68.34" x2="77.04" y2="68.34"/><line class="cls-3" x1="73.66" y1="67.47" x2="73.66" y2="67.47"/><line class="cls-3" x1="72.29" y1="69.84" x2="72.29" y2="69.84"/><line class="cls-3" x1="66.47" y1="68.28" x2="66.47" y2="68.28"/><line class="cls-3" x1="60.16" y1="66.78" x2="60.16" y2="66.78"/><line class="cls-3" x1="70.32" y1="66.53" x2="70.32" y2="66.53"/><line class="cls-3" x1="66.91" y1="65.34" x2="66.91" y2="65.34"/><line class="cls-3" x1="83.72" y1="69.22" x2="83.72" y2="69.22"/><line class="cls-3" x1="79.79" y1="65.22" x2="79.79" y2="65.22"/><line class="cls-3" x1="73.91" y1="63.84" x2="73.91" y2="63.84"/><line class="cls-3" x1="80.54" y1="68.97" x2="80.54" y2="68.97"/><line class="cls-3" x1="65.6" y1="48.03" x2="65.6" y2="48.03"/><line class="cls-3" x1="60.04" y1="45.97" x2="60.04" y2="45.97"/><line class="cls-3" x1="55.35" y1="43.78" x2="55.35" y2="43.78"/><line class="cls-3" x1="60.54" y1="43.15" x2="60.54" y2="43.15"/><line class="cls-3" x1="63.1" y1="44.65" x2="63.1" y2="44.65"/><line class="cls-3" x1="65.91" y1="45.65" x2="65.91" y2="45.65"/><line class="cls-3" x1="68.72" y1="46.65" x2="68.72" y2="46.65"/><line class="cls-3" x1="71.72" y1="47.22" x2="71.72" y2="47.22"/><line class="cls-3" x1="74.6" y1="47.72" x2="74.6" y2="47.72"/><line class="cls-3" x1="77.54" y1="48.09" x2="77.54" y2="48.09"/><line class="cls-3" x1="80.6" y1="48.4" x2="80.6" y2="48.4"/><line class="cls-3" x1="83.79" y1="48.65" x2="83.79" y2="48.65"/><line class="cls-3" x1="64.6" y1="41.34" x2="64.6" y2="41.34"/><line class="cls-3" x1="67.29" y1="42.72" x2="67.29" y2="42.72"/><line class="cls-3" x1="69.97" y1="43.65" x2="69.97" y2="43.65"/><line class="cls-3" x1="72.79" y1="44.34" x2="72.79" y2="44.34"/><line class="cls-3" x1="76.16" y1="44.97" x2="76.16" y2="44.97"/><line class="cls-3" x1="79.35" y1="45.28" x2="79.35" y2="45.28"/><line class="cls-3" x1="82.79" y1="45.47" x2="82.79" y2="45.47"/><line class="cls-3" x1="71.35" y1="40.53" x2="71.35" y2="40.53"/><line class="cls-3" x1="68.85" y1="39.84" x2="68.85" y2="39.84"/><line class="cls-3" x1="76.85" y1="41.72" x2="76.85" y2="41.72"/><line class="cls-3" x1="80.54" y1="39.03" x2="80.54" y2="39.03"/><line class="cls-3" x1="77.91" y1="38.47" x2="77.91" y2="38.47"/><line class="cls-3" x1="74.91" y1="37.65" x2="74.91" y2="37.65"/><line class="cls-3" x1="83.22" y1="39.53" x2="83.22" y2="39.53"/><line class="cls-3" x1="78.66" y1="34.78" x2="78.66" y2="34.78"/><line class="cls-3" x1="80.54" y1="35.72" x2="80.54" y2="35.72"/><line class="cls-3" x1="82.22" y1="36.34" x2="82.22" y2="36.34"/><line class="cls-3" x1="84.04" y1="37.22" x2="84.04" y2="37.22"/><line class="cls-3" x1="83.16" y1="33.28" x2="83.16" y2="33.28"/><line class="cls-3" x1="84.72" y1="42.22" x2="84.72" y2="42.22"/><line class="cls-3" x1="79.54" y1="42.09" x2="79.54" y2="42.09"/><rect class="cls-1" x="-36.54" y="-52.76" width="85.04" height="85.04"/><path class="cls-2" d="M-.67,21.41c.67-.78,2,.75,1.25,1C-.44,22.75-1.29,22.12-.67,21.41Z"/><path class="cls-2" d="M5.33,22.24c.67-.78,2,.75,1.25,1C5.56,23.58,4.71,23,5.33,22.24Z"/><path class="cls-2" d="M10.66,22.41c.68-.78,2,.75,1.25,1C10.89,23.75,10,23.12,10.66,22.41Z"/><path class="cls-2" d="M15.66,21.91c.68-.78,2,.75,1.25,1C15.89,23.25,15,22.62,15.66,21.91Z"/><path class="cls-2" d="M3.91,1.16c.68-.78,2,.75,1.25,1C4.14,2.5,3.29,1.87,3.91,1.16Z"/><path class="cls-2" d="M9.83,1.41c.67-.78,2,.75,1.25,1C10.06,2.75,9.21,2.12,9.83,1.41Z"/><path class="cls-2" d="M15.75,1.32c.67-.77,2,.75,1.25,1C16,2.66,15.13,2,15.75,1.32Z"/><path class="cls-2" d="M21.75.74c.67-.78,2,.75,1.25,1C22,2.08,21.13,1.45,21.75.74Z"/><path class="cls-2" d="M26.41-.51c.68-.78,2,.75,1.25,1C26.64.83,25.79.2,26.41-.51Z"/><path class="cls-2" d="M.62,7.37c.68-.78,2,.75,1.25,1C.85,8.71,0,8.08.62,7.37Z"/><path class="cls-2" d="M3.83,28.91c.67-.78,2,.75,1.25,1C4.06,30.25,3.21,29.62,3.83,28.91Z"/><path class="cls-2" d="M10,28.91c.67-.78,2,.75,1.25,1C10.22,30.25,9.38,29.62,10,28.91Z"/><path class="cls-2" d="M16,28.41c.67-.78,2,.75,1.25,1C16.22,29.75,15.38,29.12,16,28.41Z"/><path class="cls-2" d="M21.66,27.24c.68-.78,2,.75,1.25,1C21.89,28.58,21,28,21.66,27.24Z"/><path class="cls-2" d="M27.5,25.91c.67-.78,2,.75,1.25,1C27.72,27.25,26.88,26.62,27.5,25.91Z"/><path class="cls-2" d="M28.75,31c.67-.78,2,.75,1.25,1C29,32.31,28.13,31.68,28.75,31Z"/><path class="cls-2" d="M33.16,24.24c.68-.78,2,.75,1.25,1C33.39,25.58,32.54,25,33.16,24.24Z"/><path class="cls-2" d="M38.83,22.24c.67-.78,2,.75,1.25,1C39.06,23.58,38.21,23,38.83,22.24Z"/><path class="cls-2" d="M43.48,17.84c.67-.77,2,.75,1.25,1C43.7,19.19,42.86,18.56,43.48,17.84Z"/><path class="cls-2" d="M37.68,17.76c.68-.78,2,.75,1.25,1C37.91,19.1,37.06,18.48,37.68,17.76Z"/><path class="cls-2" d="M31.5,17.57c.67-.77,2,.75,1.25,1C31.72,18.91,30.88,18.29,31.5,17.57Z"/><path class="cls-2" d="M25.66,16.74c.68-.78,2,.75,1.25,1C25.89,18.08,25,17.45,25.66,16.74Z"/><path class="cls-2" d="M46.5,10.07c.67-.77,2,.75,1.25,1C46.72,11.41,45.88,10.79,46.5,10.07Z"/><path class="cls-2" d="M40.66,10.24c.68-.78,2,.75,1.25,1C40.89,11.58,40,11,40.66,10.24Z"/><path class="cls-2" d="M34.66,9.74c.68-.78,2,.75,1.25,1C34.89,11.08,34,10.45,34.66,9.74Z"/><path class="cls-2" d="M20,15.74c.67-.78,2,.75,1.25,1C20.22,17.08,19.38,16.45,20,15.74Z"/><path class="cls-2" d="M6,7.62c.67-.78,2,.75,1.25,1C6.22,9,5.38,8.33,6,7.62Z"/><path class="cls-2" d="M12,7.24c.67-.78,2,.75,1.25,1C12.22,8.58,11.38,8,12,7.24Z"/><path class="cls-2" d="M18.12,6.62c.68-.78,2,.75,1.25,1C18.35,8,17.5,7.33,18.12,6.62Z"/><path class="cls-2" d="M23.75,5.55c.67-.78,2,.75,1.25,1C24,6.89,23.13,6.27,23.75,5.55Z"/><path class="cls-2" d="M29.5,4.24c.67-.78,2,.75,1.25,1C29.72,5.58,28.88,5,29.5,4.24Z"/><path class="cls-2" d="M35.44,3c.28-1,2.13-.17,1.56.37C36.22,4.16,35.19,4,35.44,3Z"/><line class="cls-3" x1="47.37" y1="-0.07" x2="47.37" y2="-0.07"/><line class="cls-3" x1="45.37" y1="-0.13" x2="45.37" y2="-0.13"/><line class="cls-3" x1="43.37" y1="-0.2" x2="43.37" y2="-0.2"/><line class="cls-3" x1="1.18" y1="31.43" x2="1.18" y2="31.43"/><line class="cls-3" x1="3.18" y1="31.49" x2="3.18" y2="31.49"/><line class="cls-3" x1="5.06" y1="31.68" x2="5.06" y2="31.68"/><line class="cls-3" x1="7.31" y1="31.62" x2="7.31" y2="31.62"/><line class="cls-3" x1="9.25" y1="31.62" x2="9.25" y2="31.62"/><line class="cls-3" x1="11.31" y1="31.49" x2="11.31" y2="31.49"/><line class="cls-3" x1="13.25" y1="31.24" x2="13.25" y2="31.24"/><line class="cls-3" x1="15.25" y1="30.93" x2="15.25" y2="30.93"/><line class="cls-3" x1="17.25" y1="30.74" x2="17.25" y2="30.74"/><line class="cls-3" x1="19.25" y1="30.43" x2="19.25" y2="30.43"/><line class="cls-3" x1="21.06" y1="30.12" x2="21.06" y2="30.12"/><line class="cls-3" x1="22.93" y1="29.74" x2="22.93" y2="29.74"/><line class="cls-3" x1="25" y1="29.16" x2="25" y2="29.16"/><line class="cls-3" x1="27.16" y1="28.57" x2="27.16" y2="28.57"/><line class="cls-3" x1="29.58" y1="28.11" x2="29.58" y2="28.11"/><line class="cls-3" x1="32.08" y1="27.41" x2="32.08" y2="27.41"/><line class="cls-3" x1="34.5" y1="26.66" x2="34.5" y2="26.66"/><line class="cls-3" x1="36.58" y1="26.16" x2="36.58" y2="26.16"/><line class="cls-3" x1="27.18" y1="30.62" x2="27.18" y2="30.62"/><line class="cls-3" x1="7.56" y1="29.55" x2="7.56" y2="29.55"/><line class="cls-3" x1="13.56" y1="29.18" x2="13.56" y2="29.18"/><line class="cls-3" x1="19.43" y1="28.49" x2="19.43" y2="28.49"/><line class="cls-3" x1="25.31" y1="27.18" x2="25.31" y2="27.18"/><line class="cls-3" x1="1.62" y1="29.43" x2="1.62" y2="29.43"/><line class="cls-3" x1="3" y1="27.8" x2="3" y2="27.8"/><line class="cls-3" x1="5.87" y1="27.99" x2="5.87" y2="27.99"/><line class="cls-3" x1="8.87" y1="27.99" x2="8.87" y2="27.99"/><line class="cls-3" x1="11.93" y1="27.87" x2="11.93" y2="27.87"/><line class="cls-3" x1="14.81" y1="27.49" x2="14.81" y2="27.49"/><line class="cls-3" x1="17.87" y1="27.18" x2="17.87" y2="27.18"/><line class="cls-3" x1="20.81" y1="26.55" x2="20.81" y2="26.55"/><line class="cls-3" x1="23.75" y1="25.8" x2="23.75" y2="25.8"/><line class="cls-3" x1="26.5" y1="25.05" x2="26.5" y2="25.05"/><line class="cls-3" x1="29.5" y1="24.05" x2="29.5" y2="24.05"/><line class="cls-3" x1="31.06" y1="25.74" x2="31.06" y2="25.74"/><line class="cls-3" x1="36.75" y1="23.8" x2="36.75" y2="23.8"/><line class="cls-3" x1="38.56" y1="25.68" x2="38.56" y2="25.68"/><line class="cls-3" x1="40.37" y1="25.05" x2="40.37" y2="25.05"/><line class="cls-3" x1="42.25" y1="24.3" x2="42.25" y2="24.3"/><line class="cls-3" x1="44.06" y1="23.43" x2="44.06" y2="23.43"/><line class="cls-3" x1="45.87" y1="22.55" x2="45.87" y2="22.55"/><line class="cls-3" x1="47.06" y1="24.93" x2="47.06" y2="24.93"/><line class="cls-3" x1="41.56" y1="27.24" x2="41.56" y2="27.24"/><line class="cls-3" x1="44.43" y1="27.93" x2="44.43" y2="27.93"/><line class="cls-3" x1="47.5" y1="28.49" x2="47.5" y2="28.49"/><line class="cls-3" x1="47.25" y1="31.55" x2="47.25" y2="31.55"/><line class="cls-3" x1="44.75" y1="31.41" x2="44.75" y2="31.41"/><line class="cls-3" x1="42.33" y1="31.16" x2="42.33" y2="31.16"/><line class="cls-3" x1="39.53" y1="30.57" x2="39.53" y2="30.57"/><line class="cls-3" x1="36.66" y1="29.82" x2="36.66" y2="29.82"/><line class="cls-3" x1="34.08" y1="28.74" x2="34.08" y2="28.74"/><line class="cls-3" x1="32.18" y1="22.99" x2="32.18" y2="22.99"/><line class="cls-3" x1="4.75" y1="25.49" x2="4.75" y2="25.49"/><line class="cls-3" x1="7.75" y1="25.55" x2="7.75" y2="25.55"/><line class="cls-3" x1="10.75" y1="25.62" x2="10.75" y2="25.62"/><line class="cls-3" x1="13.68" y1="25.3" x2="13.68" y2="25.3"/><line class="cls-3" x1="16.75" y1="24.99" x2="16.75" y2="24.99"/><line class="cls-3" x1="19.5" y1="24.43" x2="19.5" y2="24.43"/><line class="cls-3" x1="21.93" y1="23.87" x2="21.93" y2="23.87"/><line class="cls-3" x1="24.18" y1="23.24" x2="24.18" y2="23.24"/><line class="cls-3" x1="26.18" y1="22.62" x2="26.18" y2="22.62"/><line class="cls-3" x1="1.75" y1="25.05" x2="1.75" y2="25.05"/><line class="cls-3" x1="3" y1="22.37" x2="3" y2="22.37"/><line class="cls-3" x1="8.75" y1="22.87" x2="8.75" y2="22.87"/><line class="cls-3" x1="13.93" y1="22.62" x2="13.93" y2="22.62"/><line class="cls-3" x1="18.12" y1="22.05" x2="18.12" y2="22.05"/><line class="cls-3" x1="20" y1="21.62" x2="20" y2="21.62"/><line class="cls-3" x1="12.81" y1="19.74" x2="12.81" y2="19.74"/><line class="cls-3" x1="10.25" y1="20.05" x2="10.25" y2="20.05"/><line class="cls-3" x1="7.43" y1="20.12" x2="7.43" y2="20.12"/><line class="cls-3" x1="4.43" y1="19.93" x2="4.43" y2="19.93"/><line class="cls-3" x1="1.25" y1="20.12" x2="1.25" y2="20.12"/><line class="cls-3" x1="9.93" y1="17.24" x2="9.93" y2="17.24"/><line class="cls-3" x1="11.75" y1="18.05" x2="11.75" y2="18.05"/><line class="cls-3" x1="13.62" y1="18.68" x2="13.62" y2="18.68"/><line class="cls-3" x1="15.56" y1="19.18" x2="15.56" y2="19.18"/><line class="cls-3" x1="17.43" y1="19.68" x2="17.43" y2="19.68"/><line class="cls-3" x1="19.37" y1="20.05" x2="19.37" y2="20.05"/><line class="cls-3" x1="21.31" y1="20.37" x2="21.31" y2="20.37"/><line class="cls-3" x1="23.31" y1="20.55" x2="23.31" y2="20.55"/><line class="cls-3" x1="25.31" y1="20.74" x2="25.31" y2="20.74"/><line class="cls-3" x1="27.31" y1="20.8" x2="27.31" y2="20.8"/><line class="cls-3" x1="29.25" y1="20.99" x2="29.25" y2="20.99"/><line class="cls-3" x1="31.31" y1="20.99" x2="31.31" y2="20.99"/><line class="cls-3" x1="33.25" y1="20.99" x2="33.25" y2="20.99"/><line class="cls-3" x1="35.25" y1="20.99" x2="35.25" y2="20.99"/><line class="cls-3" x1="37.37" y1="20.99" x2="37.37" y2="20.99"/><line class="cls-3" x1="39.37" y1="21.05" x2="39.37" y2="21.05"/><line class="cls-3" x1="41.31" y1="21.05" x2="41.31" y2="21.05"/><line class="cls-3" x1="43.37" y1="21.12" x2="43.37" y2="21.12"/><line class="cls-3" x1="45.5" y1="20.99" x2="45.5" y2="20.99"/><line class="cls-3" x1="47.25" y1="21.12" x2="47.25" y2="21.12"/><line class="cls-3" x1="17.43" y1="15.24" x2="17.43" y2="15.24"/><line class="cls-3" x1="23.4" y1="16.89" x2="23.4" y2="16.89"/><line class="cls-3" x1="29.29" y1="17.79" x2="29.29" y2="17.79"/><line class="cls-3" x1="35.25" y1="18.05" x2="35.25" y2="18.05"/><line class="cls-3" x1="41.18" y1="18.3" x2="41.18" y2="18.3"/><line class="cls-3" x1="47.12" y1="18.18" x2="47.12" y2="18.18"/><line class="cls-3" x1="23.87" y1="13.18" x2="23.87" y2="13.18"/><line class="cls-3" x1="26.87" y1="13.93" x2="26.87" y2="13.93"/><line class="cls-3" x1="29.75" y1="14.62" x2="29.75" y2="14.62"/><line class="cls-3" x1="32.62" y1="15.05" x2="32.62" y2="15.05"/><line class="cls-3" x1="35.75" y1="15.3" x2="35.75" y2="15.3"/><line class="cls-3" x1="38.62" y1="15.43" x2="38.62" y2="15.43"/><line class="cls-3" x1="41.62" y1="15.43" x2="41.62" y2="15.43"/><line class="cls-3" x1="44.62" y1="15.24" x2="44.62" y2="15.24"/><line class="cls-3" x1="47.62" y1="15.12" x2="47.62" y2="15.12"/><line class="cls-3" x1="29.5" y1="11.68" x2="29.5" y2="11.68"/><line class="cls-3" x1="32.37" y1="12.37" x2="32.37" y2="12.37"/><line class="cls-3" x1="35.31" y1="12.8" x2="35.31" y2="12.8"/><line class="cls-3" x1="38.37" y1="12.99" x2="38.37" y2="12.99"/><line class="cls-3" x1="41.37" y1="12.99" x2="41.37" y2="12.99"/><line class="cls-3" x1="44.37" y1="12.93" x2="44.37" y2="12.93"/><line class="cls-3" x1="47.43" y1="12.8" x2="47.43" y2="12.8"/><line class="cls-3" y1="27.43" y2="27.43"/><line class="cls-3" x1="-0.32" y1="16.99" x2="-0.32" y2="16.99"/><line class="cls-3" x1="1.62" y1="16.49" x2="1.62" y2="16.49"/><line class="cls-3" x1="3.62" y1="16.18" x2="3.62" y2="16.18"/><line class="cls-3" x1="5.5" y1="15.8" x2="5.5" y2="15.8"/><line class="cls-3" x1="7.43" y1="15.43" x2="7.43" y2="15.43"/><line class="cls-3" x1="9.31" y1="14.87" x2="9.31" y2="14.87"/><line class="cls-3" x1="11.25" y1="14.43" x2="11.25" y2="14.43"/><line class="cls-3" x1="13.25" y1="13.99" x2="13.25" y2="13.99"/><line class="cls-3" x1="15.12" y1="13.49" x2="15.12" y2="13.49"/><line class="cls-3" x1="17.06" y1="12.87" x2="17.06" y2="12.87"/><line class="cls-3" x1="19" y1="12.37" x2="19" y2="12.37"/><line class="cls-3" x1="20.87" y1="11.74" x2="20.87" y2="11.74"/><line class="cls-3" x1="22.81" y1="11.05" x2="22.81" y2="11.05"/><line class="cls-3" x1="24.68" y1="10.37" x2="24.68" y2="10.37"/><line class="cls-3" x1="26.43" y1="9.62" x2="26.43" y2="9.62"/><line class="cls-3" x1="28.37" y1="8.87" x2="28.37" y2="8.87"/><line class="cls-3" x1="0.93" y1="14.24" x2="0.93" y2="14.24"/><line class="cls-3" x1="3.81" y1="13.55" x2="3.81" y2="13.55"/><line class="cls-3" x1="6.25" y1="12.74" x2="6.25" y2="12.74"/><line class="cls-3" x1="8.5" y1="11.87" x2="8.5" y2="11.87"/><line class="cls-3" x1="0.66" y1="9.82" x2="0.66" y2="9.82"/><line class="cls-3" x1="3" y1="10.07" x2="3" y2="10.07"/><line class="cls-3" x1="5.5" y1="10.24" x2="5.5" y2="10.24"/><line class="cls-3" x1="1.56" y1="1.3" x2="1.56" y2="1.3"/><line class="cls-3" x1="7.43" y1="1.87" x2="7.43" y2="1.87"/><line class="cls-3" x1="13.37" y1="2.18" x2="13.37" y2="2.18"/><line class="cls-3" x1="19.43" y1="1.68" x2="19.43" y2="1.68"/><line class="cls-3" x1="24.75" y1="0.87" x2="24.75" y2="0.87"/><line class="cls-3" x1="1.37" y1="4.18" x2="1.37" y2="4.18"/><line class="cls-3" x1="4.37" y1="4.37" x2="4.37" y2="4.37"/><line class="cls-3" x1="7.25" y1="4.37" x2="7.25" y2="4.37"/><line class="cls-3" x1="10.31" y1="4.3" x2="10.31" y2="4.3"/><line class="cls-3" x1="13.68" y1="4.18" x2="13.68" y2="4.18"/><line class="cls-3" x1="17" y1="3.99" x2="17" y2="3.99"/><line class="cls-3" x1="20" y1="3.62" x2="20" y2="3.62"/><line class="cls-3" x1="22.75" y1="3.24" x2="22.75" y2="3.24"/><line class="cls-3" x1="25.75" y1="2.68" x2="25.75" y2="2.68"/><line class="cls-3" x1="28.68" y1="2.12" x2="28.68" y2="2.12"/><line class="cls-3" x1="31.43" y1="1.55" x2="31.43" y2="1.55"/><line class="cls-3" x1="34.06" y1="0.99" x2="34.06" y2="0.99"/><line class="cls-3" x1="36.81" y1="0.37" x2="36.81" y2="0.37"/><line class="cls-3" x1="4" y1="8.12" x2="4" y2="8.12"/><line class="cls-3" x1="7.75" y1="10.32" x2="7.75" y2="10.32"/><line class="cls-3" x1="10.12" y1="10.24" x2="10.12" y2="10.24"/><line class="cls-3" x1="12.18" y1="10.12" x2="12.18" y2="10.12"/><line class="cls-3" x1="14.12" y1="9.87" x2="14.12" y2="9.87"/><line class="cls-3" x1="16.06" y1="9.62" x2="16.06" y2="9.62"/><line class="cls-3" x1="18" y1="9.37" x2="18" y2="9.37"/><line class="cls-3" x1="20.06" y1="9.18" x2="20.06" y2="9.18"/><line class="cls-3" x1="22" y1="8.8" x2="22" y2="8.8"/><line class="cls-3" x1="24" y1="8.43" x2="24" y2="8.43"/><line class="cls-3" x1="25.93" y1="7.99" x2="25.93" y2="7.99"/><line class="cls-3" x1="9.68" y1="7.74" x2="9.68" y2="7.74"/><line class="cls-3" x1="15.62" y1="7.3" x2="15.62" y2="7.3"/><line class="cls-3" x1="21.5" y1="6.74" x2="21.5" y2="6.74"/><line class="cls-3" x1="27.25" y1="5.55" x2="27.25" y2="5.55"/><line class="cls-3" x1="33.12" y1="4.05" x2="33.12" y2="4.05"/><line class="cls-3" x1="38.87" y1="2.3" x2="38.87" y2="2.3"/><line class="cls-3" x1="41.68" y1="1.18" x2="41.68" y2="1.18"/><line class="cls-3" x1="46.62" y1="1.24" x2="46.62" y2="1.24"/><line class="cls-3" x1="44.87" y1="2.3" x2="44.87" y2="2.3"/><line class="cls-3" x1="43.06" y1="2.99" x2="43.06" y2="2.99"/><line class="cls-3" x1="41.25" y1="3.8" x2="41.25" y2="3.8"/><line class="cls-3" x1="39.31" y1="4.49" x2="39.31" y2="4.49"/><line class="cls-3" x1="37.43" y1="5.12" x2="37.43" y2="5.12"/><line class="cls-3" x1="35.5" y1="5.68" x2="35.5" y2="5.68"/><line class="cls-3" x1="35.87" y1="7.68" x2="35.87" y2="7.68"/><line class="cls-3" x1="32.43" y1="9.62" x2="32.43" y2="9.62"/><line class="cls-3" x1="38.37" y1="10.55" x2="38.37" y2="10.55"/><line class="cls-3" x1="44.37" y1="10.8" x2="44.37" y2="10.8"/><line class="cls-3" x1="38.81" y1="8.24" x2="38.81" y2="8.24"/><line class="cls-3" x1="41.87" y1="8.37" x2="41.87" y2="8.37"/><line class="cls-3" x1="44.75" y1="8.24" x2="44.75" y2="8.24"/><line class="cls-3" x1="47.68" y1="7.93" x2="47.68" y2="7.93"/><line class="cls-3" x1="33.62" y1="6.24" x2="33.62" y2="6.24"/><line class="cls-3" x1="31.62" y1="6.8" x2="31.62" y2="6.8"/><line class="cls-3" x1="29.75" y1="7.24" x2="29.75" y2="7.24"/><line class="cls-3" x1="27.68" y1="7.74" x2="27.68" y2="7.74"/><line class="cls-3" x1="46.18" y1="4.43" x2="46.18" y2="4.43"/><rect class="cls-1" x="-36.54" y="32.28" width="85.04" height="85.04"/><path class="cls-2" d="M46,60.26c.67-.78,2,.75,1.25,1C46.24,61.6,45.4,61,46,60.26Z"/><path class="cls-2" d="M4.24,65.77c.14-1,2.08-.47,1.59.15C5.16,66.77,4.11,66.71,4.24,65.77Z"/><path class="cls-2" d="M11.2,65.2c-.06-1,2-.87,1.59-.17C12.3,66,11.26,66.14,11.2,65.2Z"/><path class="cls-2" d="M17.63,64.09c0-1,2-.76,1.6-.07C18.69,65,17.64,65,17.63,64.09Z"/><path class="cls-2" d="M40.16,59.36c.68-.78,2,.75,1.25,1C40.39,60.7,39.54,60.08,40.16,59.36Z"/><path class="cls-2" d="M43.16,51c.68-.78,2,.75,1.25,1C43.39,52.33,42.54,51.7,43.16,51Z"/><path class="cls-2" d="M37.06,49.72c.67-.78,2,.75,1.25,1C37.28,51.06,36.44,50.43,37.06,49.72Z"/><path class="cls-2" d="M34.2,58.3c.68-.78,2,.75,1.25,1C34.43,59.64,33.58,59,34.2,58.3Z"/><path class="cls-2" d="M28.25,57.28c.67-.78,2,.75,1.25,1C28.47,58.62,27.63,58,28.25,57.28Z"/><path class="cls-2" d="M22.35,56.09c.68-.78,2,.75,1.25,1C22.58,57.43,21.73,56.81,22.35,56.09Z"/><path class="cls-2" d="M16.72,54.47c.68-.78,2,.75,1.25,1C17,55.81,16.11,55.18,16.72,54.47Z"/><path class="cls-2" d="M2.62,76.9c.68-.77,2,.75,1.25,1C2.85,78.25,2,77.62,2.62,76.9Z"/><path class="cls-2" d="M46.87,80.72c.68-.78,2,.75,1.25,1C47.1,82.06,46.25,81.43,46.87,80.72Z"/><path class="cls-2" d="M45.87,73.09c.68-.78,2,.75,1.25,1C46.1,74.43,45.25,73.81,45.87,73.09Z"/><path class="cls-2" d="M39.75,71.9c.67-.77,2,.75,1.25,1C40,73.25,39.13,72.62,39.75,71.9Z"/><path class="cls-2" d="M40.75,80.34c.67-.78,2,.75,1.25,1C41,81.68,40.13,81.06,40.75,80.34Z"/><path class="cls-2" d="M34.87,79.59c.68-.78,2,.75,1.25,1C35.1,80.93,34.25,80.31,34.87,79.59Z"/><path class="cls-2" d="M28.87,78.53c.68-.78,2,.75,1.25,1C29.1,79.87,28.25,79.24,28.87,78.53Z"/><path class="cls-2" d="M23.06,76.9c.67-.77,2,.75,1.25,1C23.28,78.25,22.44,77.62,23.06,76.9Z"/><path class="cls-2" d="M8.87,75.53c.68-.78,2,.75,1.25,1C9.1,76.87,8.25,76.24,8.87,75.53Z"/><path class="cls-2" d="M26.41,84.53c.68-.78,2,.75,1.25,1C26.64,85.87,25.79,85.24,26.41,84.53Z"/><path class="cls-2" d="M1.37,71.53c.68-.78,2,.75,1.25,1C1.6,72.87.75,72.24,1.37,71.53Z"/><path class="cls-2" d="M7.5,71.65c.67-.77,2,.75,1.25,1C7.72,73,6.88,72.37,7.5,71.65Z"/><path class="cls-2" d="M13.5,71.28c.67-.78,2,.75,1.25,1C13.72,72.62,12.88,72,13.5,71.28Z"/><path class="cls-2" d="M19.31,70.47c.67-.78,2,.75,1.25,1C19.53,71.81,18.69,71.18,19.31,70.47Z"/><path class="cls-2" d="M25.12,69.15c.68-.77,2,.75,1.25,1C25.35,70.5,24.5,69.87,25.12,69.15Z"/><path class="cls-2" d="M30.62,67.15c.68-.77,2,.75,1.25,1C30.85,68.5,30,67.87,30.62,67.15Z"/><path class="cls-2" d="M36.75,65c.67-.78,2,.75,1.25,1C37,66.37,36.13,65.74,36.75,65Z"/><path class="cls-2" d="M3.91,41.61c.68-.78,2,.75,1.25,1C4.14,43,3.29,42.33,3.91,41.61Z"/><path class="cls-2" d="M.75,50.36c.67-.78,2,.75,1.25,1C1,51.7.13,51.08.75,50.36Z"/><path class="cls-2" d="M6.5,50.28c.67-.78,2,.75,1.25,1C6.72,51.62,5.88,51,6.5,50.28Z"/><path class="cls-2" d="M12.58,49.82c.67-.78,2,.75,1.25,1C12.81,51.16,12,50.54,12.58,49.82Z"/><path class="cls-2" d="M18.5,49.11c.67-.78,2,.75,1.25,1C18.72,50.45,17.88,49.83,18.5,49.11Z"/><path class="cls-2" d="M24.27,48c.67-.78,2,.75,1.25,1C24.49,49.37,23.65,48.74,24.27,48Z"/><path class="cls-2" d="M30.12,46.65c.68-.77,2,.75,1.25,1C30.35,48,29.5,47.37,30.12,46.65Z"/><path class="cls-2" d="M35.72,44.45c.68-.78,2,.75,1.25,1C36,45.79,35.11,45.16,35.72,44.45Z"/><path class="cls-2" d="M39.25,40.53c.67-.78,2,.75,1.25,1C39.47,41.87,38.63,41.24,39.25,40.53Z"/><path class="cls-2" d="M46.37,40.15c.68-.77,2,.75,1.25,1C46.6,41.5,45.75,40.87,46.37,40.15Z"/><path class="cls-2" d="M35.33,33c.67-.78,2,.75,1.25,1C35.56,34.29,34.71,33.66,35.33,33Z"/><path class="cls-2" d="M41.33,33.78c.67-.78,2,.75,1.25,1C41.56,35.12,40.71,34.49,41.33,33.78Z"/><path class="cls-2" d="M46.66,34c.68-.78,2,.75,1.25,1C46.89,35.29,46,34.66,46.66,34Z"/><path class="cls-2" d="M32.25,40.4c.67-.77,2,.75,1.25,1C32.47,41.75,31.63,41.12,32.25,40.4Z"/><path class="cls-2" d="M25.12,39.53c.68-.78,2,.75,1.25,1C25.35,40.87,24.5,40.24,25.12,39.53Z"/><path class="cls-2" d="M19.37,38c.68-.78,2,.75,1.25,1C19.6,39.37,18.75,38.74,19.37,38Z"/><path class="cls-2" d="M14,35.65c.67-.77,2,.75,1.25,1C14.22,37,13.38,36.37,14,35.65Z"/><path class="cls-2" d="M9.43,33.15c.68-.77,2,.75,1.25,1C9.66,34.5,8.81,33.87,9.43,33.15Z"/><line class="cls-3" x1="0.93" y1="60.47" x2="0.93" y2="60.47"/><line class="cls-3" x1="3.93" y1="60.53" x2="3.93" y2="60.53"/><line class="cls-3" x1="6.62" y1="60.4" x2="6.62" y2="60.4"/><line class="cls-3" x1="0.62" y1="63.4" x2="0.62" y2="63.4"/><line class="cls-3" x1="3.87" y1="63.4" x2="3.87" y2="63.4"/><line class="cls-3" x1="7.25" y1="63.15" x2="7.25" y2="63.15"/><line class="cls-3" x1="9.68" y1="62.78" x2="9.68" y2="62.78"/><line class="cls-3" x1="12.18" y1="62.47" x2="12.18" y2="62.47"/><line class="cls-3" x1="14.56" y1="62.15" x2="14.56" y2="62.15"/><line class="cls-3" x1="0.68" y1="56.47" x2="0.68" y2="56.47"/><line class="cls-3" x1="4.31" y1="56.15" x2="4.31" y2="56.15"/><line class="cls-3" x1="2.43" y1="57.28" x2="2.43" y2="57.28"/><line class="cls-3" x1="4.31" y1="58.09" x2="4.31" y2="58.09"/><line class="cls-3" x1="6.18" y1="58.78" x2="6.18" y2="58.78"/><line class="cls-3" x1="8.12" y1="59.34" x2="8.12" y2="59.34"/><line class="cls-3" x1="10.06" y1="60.03" x2="10.06" y2="60.03"/><line class="cls-3" x1="12.06" y1="60.4" x2="12.06" y2="60.4"/><line class="cls-3" x1="6.87" y1="57.47" x2="6.87" y2="57.47"/><line class="cls-3" x1="1.87" y1="54.53" x2="1.87" y2="54.53"/><line class="cls-3" x1="0.58" y1="52.86" x2="0.58" y2="52.86"/><line class="cls-3" x1="3.25" y1="52.95" x2="3.25" y2="52.95"/><line class="cls-3" x1="4.18" y1="50.84" x2="4.18" y2="50.84"/><line class="cls-3" x1="5.65" y1="53.09" x2="5.65" y2="53.09"/><line class="cls-3" x1="7.93" y1="53.09" x2="7.93" y2="53.09"/><line class="cls-3" x1="9.81" y1="53.03" x2="9.81" y2="53.03"/><line class="cls-3" x1="10.06" y1="55.34" x2="10.06" y2="55.34"/><line class="cls-3" x1="12.93" y1="56.47" x2="12.93" y2="56.47"/><line class="cls-3" x1="15.81" y1="57.59" x2="15.81" y2="57.59"/><line class="cls-3" x1="20.12" y1="55.72" x2="20.12" y2="55.72"/><line class="cls-3" x1="23.25" y1="53.78" x2="23.25" y2="53.78"/><line class="cls-3" x1="26.12" y1="54.72" x2="26.12" y2="54.72"/><line class="cls-3" x1="28.87" y1="55.4" x2="28.87" y2="55.4"/><line class="cls-3" x1="31.81" y1="56.09" x2="31.81" y2="56.09"/><line class="cls-3" x1="34.93" y1="56.72" x2="34.93" y2="56.72"/><line class="cls-3" x1="38.06" y1="57.28" x2="38.06" y2="57.28"/><line class="cls-3" x1="40.93" y1="57.65" x2="40.93" y2="57.65"/><line class="cls-3" x1="43.62" y1="57.9" x2="43.62" y2="57.9"/><line class="cls-3" x1="46.62" y1="58.22" x2="46.62" y2="58.22"/><line class="cls-3" x1="43.68" y1="60.28" x2="43.68" y2="60.28"/><line class="cls-3" x1="37.75" y1="59.34" x2="37.75" y2="59.34"/><line class="cls-3" x1="31.81" y1="58.28" x2="31.81" y2="58.28"/><line class="cls-3" x1="26.06" y1="57.09" x2="26.06" y2="57.09"/><line class="cls-3" x1="18.56" y1="58.47" x2="18.56" y2="58.47"/><line class="cls-3" x1="21.37" y1="59.34" x2="21.37" y2="59.34"/><line class="cls-3" x1="24.31" y1="60.22" x2="24.31" y2="60.22"/><line class="cls-3" x1="27.12" y1="60.97" x2="27.12" y2="60.97"/><line class="cls-3" x1="30.18" y1="61.65" x2="30.18" y2="61.65"/><line class="cls-3" x1="33.06" y1="62.28" x2="33.06" y2="62.28"/><line class="cls-3" x1="47.62" y1="64.03" x2="47.62" y2="64.03"/><line class="cls-3" x1="46.56" y1="65.15" x2="46.56" y2="65.15"/><line class="cls-3" x1="46.87" y1="67.22" x2="46.87" y2="67.22"/><line class="cls-3" x1="46.81" y1="69.72" x2="46.81" y2="69.72"/><line class="cls-3" x1="47.31" y1="77.22" x2="47.31" y2="77.22"/><line class="cls-3" x1="44.31" y1="77.15" x2="44.31" y2="77.15"/><line class="cls-3" x1="41.37" y1="76.97" x2="41.37" y2="76.97"/><line class="cls-3" x1="38.37" y1="76.59" x2="38.37" y2="76.59"/><line class="cls-3" x1="35.25" y1="76.28" x2="35.25" y2="76.28"/><line class="cls-3" x1="32.43" y1="75.78" x2="32.43" y2="75.78"/><line class="cls-3" x1="29.5" y1="75.22" x2="29.5" y2="75.22"/><line class="cls-3" x1="26.5" y1="74.28" x2="26.5" y2="74.28"/><line class="cls-3" x1="44.31" y1="81.09" x2="44.31" y2="81.09"/><line class="cls-3" x1="47.37" y1="84.97" x2="47.37" y2="84.97"/><line class="cls-3" x1="45.37" y1="84.9" x2="45.37" y2="84.9"/><line class="cls-3" x1="43.37" y1="84.84" x2="43.37" y2="84.84"/><line class="cls-3" x1="41.25" y1="84.65" x2="41.25" y2="84.65"/><line class="cls-3" x1="39.12" y1="84.53" x2="39.12" y2="84.53"/><line class="cls-3" x1="37.12" y1="84.22" x2="37.12" y2="84.22"/><line class="cls-3" x1="35.12" y1="83.9" x2="35.12" y2="83.9"/><line class="cls-3" x1="32.91" y1="83.53" x2="32.91" y2="83.53"/><line class="cls-3" x1="24" y1="81.28" x2="24" y2="81.28"/><line class="cls-3" x1="26.08" y1="81.95" x2="26.08" y2="81.95"/><line class="cls-3" x1="28.16" y1="82.61" x2="28.16" y2="82.61"/><line class="cls-3" x1="30.75" y1="83.11" x2="30.75" y2="83.11"/><line class="cls-3" x1="21.93" y1="80.4" x2="21.93" y2="80.4"/><line class="cls-3" x1="20.12" y1="79.59" x2="20.12" y2="79.59"/><line class="cls-3" x1="18.37" y1="78.65" x2="18.37" y2="78.65"/><line class="cls-3" x1="16.62" y1="77.65" x2="16.62" y2="77.65"/><line class="cls-3" x1="19.81" y1="74.65" x2="19.81" y2="74.65"/><line class="cls-3" x1="17.93" y1="75.34" x2="17.93" y2="75.34"/><line class="cls-3" x1="15.93" y1="76.03" x2="15.93" y2="76.03"/><line class="cls-3" x1="14.06" y1="76.72" x2="14.06" y2="76.72"/><line class="cls-3" x1="12.06" y1="77.28" x2="12.06" y2="77.28"/><line class="cls-3" x1="10.18" y1="77.72" x2="10.18" y2="77.72"/><line class="cls-3" x1="8.25" y1="78.15" x2="8.25" y2="78.15"/><line class="cls-3" x1="6.31" y1="78.65" x2="6.31" y2="78.65"/><line class="cls-3" x1="4.43" y1="79.09" x2="4.43" y2="79.09"/><line class="cls-3" x1="2.5" y1="79.59" x2="2.5" y2="79.59"/><line class="cls-3" x1="0.5" y1="80.03" x2="0.5" y2="80.03"/><line class="cls-3" x1="29" y1="84.15" x2="29" y2="84.15"/><line class="cls-3" x1="0.75" y1="83.28" x2="0.75" y2="83.28"/><line class="cls-3" x1="3.56" y1="83.78" x2="3.56" y2="83.78"/><line class="cls-3" x1="6.5" y1="84.15" x2="6.5" y2="84.15"/><line class="cls-3" x1="9.43" y1="84.47" x2="9.43" y2="84.47"/><line class="cls-3" x1="12.31" y1="84.47" x2="12.31" y2="84.47"/><line class="cls-3" x1="15.12" y1="84.65" x2="15.12" y2="84.65"/><line class="cls-3" x1="17.56" y1="84.59" x2="17.56" y2="84.59"/><line class="cls-3" x1="19.56" y1="84.34" x2="19.56" y2="84.34"/><line class="cls-3" x1="21.43" y1="84.09" x2="21.43" y2="84.09"/><line class="cls-3" x1="23.37" y1="83.78" x2="23.37" y2="83.78"/><line class="cls-3" x1="25.25" y1="83.28" x2="25.25" y2="83.28"/><line class="cls-3" x1="21.12" y1="81.84" x2="21.12" y2="81.84"/><line class="cls-3" x1="19.06" y1="82.34" x2="19.06" y2="82.34"/><line class="cls-3" x1="15.87" y1="80.28" x2="15.87" y2="80.28"/><line class="cls-3" x1="18.12" y1="80.15" x2="18.12" y2="80.15"/><line class="cls-3" x1="14.43" y1="82.47" x2="14.43" y2="82.47"/><line class="cls-3" x1="16.93" y1="82.47" x2="16.93" y2="82.47"/><line class="cls-3" x1="13.12" y1="80.03" x2="13.12" y2="80.03"/><line class="cls-3" x1="11.25" y1="82.22" x2="11.25" y2="82.22"/><line class="cls-3" x1="10.5" y1="79.65" x2="10.5" y2="79.65"/><line class="cls-3" x1="7.87" y1="81.53" x2="7.87" y2="81.53"/><line class="cls-3" x1="4.81" y1="80.72" x2="4.81" y2="80.72"/><line class="cls-3" x1="6.25" y1="76.9" x2="6.25" y2="76.9"/><line class="cls-3" x1="0.43" y1="78.28" x2="0.43" y2="78.28"/><line class="cls-3" x1="0.56" y1="75.59" x2="0.56" y2="75.59"/><line class="cls-3" x1="38.37" y1="80.4" x2="38.37" y2="80.4"/><line class="cls-3" x1="32.5" y1="79.59" x2="32.5" y2="79.59"/><line class="cls-3" x1="26.68" y1="78.28" x2="26.68" y2="78.28"/><line class="cls-3" x1="20.58" y1="76.28" x2="20.58" y2="76.28"/><line class="cls-3" x1="43.31" y1="73.09" x2="43.31" y2="73.09"/><line class="cls-3" x1="37.37" y1="71.78" x2="37.37" y2="71.78"/><line class="cls-3" x1="44" y1="68.9" x2="44" y2="68.9"/><line class="cls-3" x1="44.93" y1="66.03" x2="44.93" y2="66.03"/><line class="cls-3" x1="43.12" y1="66.9" x2="43.12" y2="66.9"/><line class="cls-3" x1="41.25" y1="67.72" x2="41.25" y2="67.72"/><line class="cls-3" x1="39.37" y1="68.4" x2="39.37" y2="68.4"/><line class="cls-3" x1="37.5" y1="69.09" x2="37.5" y2="69.09"/><line class="cls-3" x1="34.25" y1="66.53" x2="34.25" y2="66.53"/><line class="cls-3" x1="35.56" y1="69.72" x2="35.56" y2="69.72"/><line class="cls-3" x1="33.62" y1="70.22" x2="33.62" y2="70.22"/><line class="cls-3" x1="31.62" y1="70.65" x2="31.62" y2="70.65"/><line class="cls-3" x1="29.75" y1="71.28" x2="29.75" y2="71.28"/><line class="cls-3" x1="27.87" y1="71.72" x2="27.87" y2="71.72"/><line class="cls-3" x1="25.87" y1="72.03" x2="25.87" y2="72.03"/><line class="cls-3" x1="23.87" y1="72.4" x2="23.87" y2="72.4"/><line class="cls-3" x1="22" y1="72.78" x2="22" y2="72.78"/><line class="cls-3" x1="20" y1="73.15" x2="20" y2="73.15"/><line class="cls-3" x1="18.06" y1="73.4" x2="18.06" y2="73.4"/><line class="cls-3" x1="16" y1="73.72" x2="16" y2="73.72"/><line class="cls-3" x1="14.12" y1="73.97" x2="14.12" y2="73.97"/><line class="cls-3" x1="12.18" y1="74.09" x2="12.18" y2="74.09"/><line class="cls-3" x1="10.12" y1="74.34" x2="10.12" y2="74.34"/><line class="cls-3" x1="7.93" y1="74.47" x2="7.93" y2="74.47"/><line class="cls-3" x1="5.18" y1="74.47" x2="5.18" y2="74.47"/><line class="cls-3" x1="3.12" y1="74.34" x2="3.12" y2="74.34"/><line class="cls-3" x1="1.12" y1="74.22" x2="1.12" y2="74.22"/><line class="cls-3" x1="28.62" y1="68.84" x2="28.62" y2="68.84"/><line class="cls-3" x1="22.81" y1="70.22" x2="22.81" y2="70.22"/><line class="cls-3" x1="17" y1="71.28" x2="17" y2="71.28"/><line class="cls-3" x1="10.93" y1="71.84" x2="10.93" y2="71.84"/><line class="cls-3" x1="5" y1="71.9" x2="5" y2="71.9"/><line class="cls-3" x1="1.87" y1="65.97" x2="1.87" y2="65.97"/><line class="cls-3" x1="1.62" y1="69.4" x2="1.62" y2="69.4"/><line class="cls-3" x1="7.62" y1="65.53" x2="7.62" y2="65.53"/><line class="cls-3" x1="9.93" y1="65.34" x2="9.93" y2="65.34"/><line class="cls-3" x1="4.43" y1="69.47" x2="4.43" y2="69.47"/><line class="cls-3" x1="18.56" y1="67.78" x2="18.56" y2="67.78"/><line class="cls-3" x1="21.18" y1="67.09" x2="21.18" y2="67.09"/><line class="cls-3" x1="23.56" y1="66.4" x2="23.56" y2="66.4"/><line class="cls-3" x1="25.93" y1="65.65" x2="25.93" y2="65.65"/><line class="cls-3" x1="28.37" y1="64.78" x2="28.37" y2="64.78"/><line class="cls-3" x1="15.68" y1="68.47" x2="15.68" y2="68.47"/><line class="cls-3" x1="20.68" y1="63.47" x2="20.68" y2="63.47"/><line class="cls-3" x1="16.37" y1="64.34" x2="16.37" y2="64.34"/><line class="cls-3" x1="14.25" y1="64.78" x2="14.25" y2="64.78"/><line class="cls-3" x1="12.81" y1="68.97" x2="12.81" y2="68.97"/><line class="cls-3" x1="10.18" y1="69.22" x2="10.18" y2="69.22"/><line class="cls-3" x1="7.43" y1="69.35" x2="7.43" y2="69.35"/><line class="cls-3" x1="45.62" y1="63.9" x2="45.62" y2="63.9"/><line class="cls-3" x1="43.62" y1="63.9" x2="43.62" y2="63.9"/><line class="cls-3" x1="41.62" y1="63.84" x2="41.62" y2="63.84"/><line class="cls-3" x1="39.62" y1="63.72" x2="39.62" y2="63.72"/><line class="cls-3" x1="37.56" y1="63.65" x2="37.56" y2="63.65"/><line class="cls-3" x1="35.56" y1="63.53" x2="35.56" y2="63.53"/><line class="cls-3" x1="33.56" y1="63.47" x2="33.56" y2="63.47"/><line class="cls-3" x1="31.62" y1="63.28" x2="31.62" y2="63.28"/><line class="cls-3" x1="29.68" y1="63.09" x2="29.68" y2="63.09"/><line class="cls-3" x1="27.56" y1="62.84" x2="27.56" y2="62.84"/><line class="cls-3" x1="25.62" y1="62.65" x2="25.62" y2="62.65"/><line class="cls-3" x1="23.62" y1="62.4" x2="23.62" y2="62.4"/><line class="cls-3" x1="21.75" y1="62.15" x2="21.75" y2="62.15"/><line class="cls-3" x1="19.81" y1="61.78" x2="19.81" y2="61.78"/><line class="cls-3" x1="17.75" y1="61.47" x2="17.75" y2="61.47"/><line class="cls-3" x1="15.81" y1="61.09" x2="15.81" y2="61.09"/><line class="cls-3" x1="13.93" y1="60.72" x2="13.93" y2="60.72"/><line class="cls-3" x1="12" y1="52.9" x2="12" y2="52.9"/><line class="cls-3" x1="13.87" y1="52.65" x2="13.87" y2="52.65"/><line class="cls-3" x1="15.87" y1="52.47" x2="15.87" y2="52.47"/><line class="cls-3" x1="17.87" y1="52.15" x2="17.87" y2="52.15"/><line class="cls-3" x1="19.87" y1="51.84" x2="19.87" y2="51.84"/><line class="cls-3" x1="21.81" y1="51.59" x2="21.81" y2="51.59"/><line class="cls-3" x1="23.81" y1="51.22" x2="23.81" y2="51.22"/><line class="cls-3" x1="25.81" y1="50.78" x2="25.81" y2="50.78"/><line class="cls-3" x1="27.75" y1="50.4" x2="27.75" y2="50.4"/><line class="cls-3" x1="29.62" y1="49.97" x2="29.62" y2="49.97"/><line class="cls-3" x1="31.5" y1="49.53" x2="31.5" y2="49.53"/><line class="cls-3" x1="33.43" y1="49.03" x2="33.43" y2="49.03"/><line class="cls-3" x1="35.37" y1="48.53" x2="35.37" y2="48.53"/><line class="cls-3" x1="37.31" y1="47.9" x2="37.31" y2="47.9"/><line class="cls-3" x1="39.18" y1="47.34" x2="39.18" y2="47.34"/><line class="cls-3" x1="41.12" y1="46.65" x2="41.12" y2="46.65"/><line class="cls-3" x1="42.93" y1="45.84" x2="42.93" y2="45.84"/><line class="cls-3" x1="44.75" y1="45.03" x2="44.75" y2="45.03"/><line class="cls-3" x1="46.62" y1="44.15" x2="46.62" y2="44.15"/><line class="cls-3" x1="46.37" y1="46.34" x2="46.37" y2="46.34"/><line class="cls-3" x1="46.87" y1="49.22" x2="46.87" y2="49.22"/><line class="cls-3" x1="43.75" y1="48.47" x2="43.75" y2="48.47"/><line class="cls-3" x1="40.68" y1="51.03" x2="40.68" y2="51.03"/><line class="cls-3" x1="46.62" y1="51.78" x2="46.62" y2="51.78"/><line class="cls-3" x1="47.06" y1="55.34" x2="47.06" y2="55.34"/><line class="cls-3" x1="44.18" y1="54.9" x2="44.18" y2="54.9"/><line class="cls-3" x1="41.18" y1="54.59" x2="41.18" y2="54.59"/><line class="cls-3" x1="38.31" y1="53.9" x2="38.31" y2="53.9"/><line class="cls-3" x1="35.31" y1="53.22" x2="35.31" y2="53.22"/><line class="cls-3" x1="32.5" y1="52.22" x2="32.5" y2="52.22"/><line class="cls-3" x1="10.12" y1="50.65" x2="10.12" y2="50.65"/><line class="cls-3" x1="16.06" y1="50.03" x2="16.06" y2="50.03"/><line class="cls-3" x1="22.06" y1="49.15" x2="22.06" y2="49.15"/><line class="cls-3" x1="27.81" y1="47.97" x2="27.81" y2="47.97"/><line class="cls-3" x1="33.56" y1="46.15" x2="33.56" y2="46.15"/><line class="cls-3" x1="1.75" y1="48.72" x2="1.75" y2="48.72"/><line class="cls-3" x1="4.5" y1="48.59" x2="4.5" y2="48.59"/><line class="cls-3" x1="7.37" y1="48.53" x2="7.37" y2="48.53"/><line class="cls-3" x1="10.37" y1="48.15" x2="10.37" y2="48.15"/><line class="cls-3" x1="12.68" y1="47.72" x2="12.68" y2="47.72"/><line class="cls-3" x1="15.18" y1="47.15" x2="15.18" y2="47.15"/><line class="cls-3" x1="17.62" y1="46.65" x2="17.62" y2="46.65"/><line class="cls-3" x1="20.12" y1="45.97" x2="20.12" y2="45.97"/><line class="cls-3" x1="22.56" y1="45.15" x2="22.56" y2="45.15"/><line class="cls-3" x1="24.93" y1="44.34" x2="24.93" y2="44.34"/><line class="cls-3" x1="1.37" y1="45.28" x2="1.37" y2="45.28"/><line class="cls-3" x1="4.62" y1="44.9" x2="4.62" y2="44.9"/><line class="cls-3" x1="7.81" y1="44.47" x2="7.81" y2="44.47"/><line class="cls-3" x1="10.43" y1="44.03" x2="10.43" y2="44.03"/><line class="cls-3" x1="12.87" y1="43.59" x2="12.87" y2="43.59"/><line class="cls-3" x1="15.12" y1="43.09" x2="15.12" y2="43.09"/><line class="cls-3" x1="0.75" y1="39.84" x2="0.75" y2="39.84"/><line class="cls-3" x1="3.37" y1="40.03" x2="3.37" y2="40.03"/><line class="cls-3" x1="0.93" y1="37.97" x2="0.93" y2="37.97"/><line class="cls-3" x1="2.87" y1="38.59" x2="2.87" y2="38.59"/><line class="cls-3" x1="2.81" y1="36.97" x2="2.81" y2="36.97"/><line class="cls-3" x1="0.43" y1="35.09" x2="0.43" y2="35.09"/><line class="cls-3" x1="4.75" y1="39.22" x2="4.75" y2="39.22"/><line class="cls-3" x1="6.62" y1="39.78" x2="6.62" y2="39.78"/><line class="cls-3" x1="8.62" y1="40.28" x2="8.62" y2="40.28"/><line class="cls-3" x1="10.5" y1="40.72" x2="10.5" y2="40.72"/><line class="cls-3" x1="12.5" y1="41.15" x2="12.5" y2="41.15"/><line class="cls-3" x1="14.37" y1="41.47" x2="14.37" y2="41.47"/><line class="cls-3" x1="14.37" y1="40.28" x2="14.37" y2="40.28"/><line class="cls-3" x1="11.75" y1="38.78" x2="11.75" y2="38.78"/><line class="cls-3" x1="9.43" y1="37.09" x2="9.43" y2="37.09"/><line class="cls-3" x1="6.93" y1="35.22" x2="6.93" y2="35.22"/><line class="cls-3" x1="4.87" y1="33.15" x2="4.87" y2="33.15"/><line class="cls-3" x1="12.25" y1="35.09" x2="12.25" y2="35.09"/><line class="cls-3" x1="17.31" y1="37.53" x2="17.31" y2="37.53"/><line class="cls-3" x1="22.93" y1="39.53" x2="22.93" y2="39.53"/><line class="cls-3" x1="29.25" y1="40.65" x2="29.25" y2="40.65"/><line class="cls-3" x1="36.25" y1="41.28" x2="36.25" y2="41.28"/><line class="cls-3" x1="43.75" y1="40.9" x2="43.75" y2="40.9"/><line class="cls-3" x1="16.31" y1="41.84" x2="16.31" y2="41.84"/><line class="cls-3" x1="18.31" y1="42.15" x2="18.31" y2="42.15"/><line class="cls-3" x1="20.31" y1="42.28" x2="20.31" y2="42.28"/><line class="cls-3" x1="22.31" y1="42.47" x2="22.31" y2="42.47"/><line class="cls-3" x1="24.25" y1="42.72" x2="24.25" y2="42.72"/><line class="cls-3" x1="26.18" y1="42.84" x2="26.18" y2="42.84"/><line class="cls-3" x1="28.18" y1="43.03" x2="28.18" y2="43.03"/><line class="cls-3" x1="30.25" y1="43.09" x2="30.25" y2="43.09"/><line class="cls-3" x1="32.25" y1="43.15" x2="32.25" y2="43.15"/><line class="cls-3" x1="34.18" y1="43.09" x2="34.18" y2="43.09"/><line class="cls-3" x1="36.18" y1="43.15" x2="36.18" y2="43.15"/><line class="cls-3" x1="38.31" y1="43.15" x2="38.31" y2="43.15"/><line class="cls-3" x1="40.5" y1="43.03" x2="40.5" y2="43.03"/><line class="cls-3" x1="42.62" y1="43.03" x2="42.62" y2="43.03"/><line class="cls-3" x1="44.87" y1="42.78" x2="44.87" y2="42.78"/><line class="cls-3" x1="47.12" y1="42.78" x2="47.12" y2="42.78"/><line class="cls-3" x1="-0.32" y1="42.22" x2="-0.32" y2="42.22"/><line class="cls-3" x1="2.18" y1="42.22" x2="2.18" y2="42.22"/><line class="cls-3" x1="7" y1="41.84" x2="7" y2="41.84"/><line class="cls-3" x1="27.06" y1="35.9" x2="27.06" y2="35.9"/><line class="cls-3" x1="24" y1="35.22" x2="24" y2="35.22"/><line class="cls-3" x1="21.12" y1="34.22" x2="21.12" y2="34.22"/><line class="cls-3" x1="18.18" y1="32.97" x2="18.18" y2="32.97"/><line class="cls-3" x1="30" y1="36.47" x2="30" y2="36.47"/><line class="cls-3" x1="32.81" y1="36.84" x2="32.81" y2="36.84"/><line class="cls-3" x1="35.75" y1="37.09" x2="35.75" y2="37.09"/><line class="cls-3" x1="32.75" y1="32.72" x2="32.75" y2="32.72"/><line class="cls-3" x1="39.06" y1="33.9" x2="39.06" y2="33.9"/><line class="cls-3" x1="44.81" y1="34.53" x2="44.81" y2="34.53"/><line class="cls-3" x1="47.58" y1="37.45" x2="47.58" y2="37.45"/><line class="cls-3" x1="44.68" y1="37.47" x2="44.68" y2="37.47"/><line class="cls-3" x1="41.93" y1="37.4" x2="41.93" y2="37.4"/><line class="cls-3" x1="38.68" y1="37.28" x2="38.68" y2="37.28"/><rect class="cls-1" width="85.04" height="85.04"/></svg>