<!-- Generator: Adobe Illustrator 22.1.0, SVG Export Plug-In  -->
<svg version="1.1"
     xmlns="http://www.w3.org/2000/svg" xmlns:xlink="http://www.w3.org/1999/xlink" xmlns:a="http://ns.adobe.com/AdobeSVGViewerExtensions/3.0/"
     x="0px" y="0px" width="53.4px" height="53.2px" viewBox="0 0 53.4 53.2" style="enable-background:new 0 0 53.4 53.2;"
     xml:space="preserve">
<style type="text/css">
    .st0{fill:none;stroke:#000000;stroke-width:0.7;stroke-linecap:round;}
    .st1{fill:none;stroke:#000000;stroke-width:0.3;}
</style>
<defs>
</defs>
<line class="st0" x1="28.4" y1="9.6" x2="28.4" y2="9.6"/>
<line class="st0" x1="23.3" y1="7" x2="23.3" y2="7"/>
<line class="st0" x1="22.2" y1="11.4" x2="22.2" y2="11.4"/>
<line class="st0" x1="18.5" y1="7" x2="18.5" y2="7"/>
<line class="st0" x1="21.1" y1="2.8" x2="21.1" y2="2.8"/>
<line class="st0" x1="15.7" y1="3.8" x2="15.7" y2="3.8"/>
<line class="st0" x1="13.1" y1="7.6" x2="13.1" y2="7.6"/>
<line class="st0" x1="11" y1="2" x2="11" y2="2"/>
<line class="st0" x1="17.2" y1="0.3" x2="17.2" y2="0.3"/>
<line class="st0" x1="5.7" y1="0.7" x2="5.7" y2="0.7"/>
<line class="st0" x1="1.2" y1="1" x2="1.2" y2="1"/>
<line class="st0" x1="2.6" y1="6.6" x2="2.6" y2="6.6"/>
<line class="st0" x1="8.1" y1="8.6" x2="8.1" y2="8.6"/>
<line class="st0" x1="9.5" y1="14" x2="9.5" y2="14"/>
<line class="st0" x1="5.6" y1="12" x2="5.6" y2="12"/>
<line class="st0" x1="7.6" y1="24.6" x2="7.6" y2="24.6"/>
<line class="st0" x1="12.8" y1="24.9" x2="12.8" y2="24.9"/>
<line class="st0" x1="9.5" y1="28.7" x2="9.5" y2="28.7"/>
<line class="st0" x1="4.5" y1="28.2" x2="4.5" y2="28.2"/>
<line class="st0" x1="0.8" y1="25.5" x2="0.8" y2="25.5"/>
<line class="st0" x1="1.3" y1="31.7" x2="1.3" y2="31.7"/>
<line class="st0" x1="6.8" y1="33.1" x2="6.8" y2="33.1"/>
<line class="st0" x1="11" y1="35.8" x2="11" y2="35.8"/>
<line class="st0" x1="6.8" y1="38.3" x2="6.8" y2="38.3"/>
<line class="st0" x1="2" y1="38.5" x2="2" y2="38.5"/>
<line class="st0" x1="4.6" y1="42.6" x2="4.6" y2="42.6"/>
<line class="st0" x1="2.1" y1="46.8" x2="2.1" y2="46.8"/>
<line class="st0" x1="8.1" y1="46.1" x2="8.1" y2="46.1"/>
<line class="st0" x1="9.2" y1="50.6" x2="9.2" y2="50.6"/>
<line class="st0" x1="13" y1="47" x2="13" y2="47"/>
<line class="st0" x1="13.7" y1="41.5" x2="13.7" y2="41.5"/>
<line class="st0" x1="15.5" y1="35.1" x2="15.5" y2="35.1"/>
<line class="st0" x1="16.2" y1="28.7" x2="16.2" y2="28.7"/>
<line class="st0" x1="18.1" y1="23.6" x2="18.1" y2="23.6"/>
<line class="st0" x1="22.5" y1="20.4" x2="22.5" y2="20.4"/>
<line class="st0" x1="21.3" y1="27.7" x2="21.3" y2="27.7"/>
<line class="st0" x1="20.5" y1="32.5" x2="20.5" y2="32.5"/>
<line class="st0" x1="23.7" y1="36.3" x2="23.7" y2="36.3"/>
<line class="st0" x1="21.1" y1="41.5" x2="21.1" y2="41.5"/>
<line class="st0" x1="17.1" y1="44.5" x2="17.1" y2="44.5"/>
<line class="st0" x1="22.1" y1="46.1" x2="22.1" y2="46.1"/>
<line class="st0" x1="18.8" y1="51" x2="18.8" y2="51"/>
<line class="st0" x1="25.3" y1="51.2" x2="25.3" y2="51.2"/>
<line class="st0" x1="27.5" y1="45.7" x2="27.5" y2="45.7"/>
<line class="st0" x1="30.3" y1="41.2" x2="30.3" y2="41.2"/>
<line class="st0" x1="28.7" y1="37.7" x2="28.7" y2="37.7"/>
<line class="st0" x1="33.5" y1="38.5" x2="33.5" y2="38.5"/>
<line class="st0" x1="31.7" y1="34.1" x2="31.7" y2="34.1"/>
<line class="st0" x1="37.3" y1="36.2" x2="37.3" y2="36.2"/>
<line class="st0" x1="40.2" y1="40.3" x2="40.2" y2="40.3"/>
<line class="st0" x1="39.6" y1="45.5" x2="39.6" y2="45.5"/>
<line class="st0" x1="33.6" y1="46.5" x2="33.6" y2="46.5"/>
<line class="st0" x1="32.8" y1="50.5" x2="32.8" y2="50.5"/>
<line class="st0" x1="36.5" y1="52.2" x2="36.5" y2="52.2"/>
<line class="st0" x1="44.2" y1="43.3" x2="44.2" y2="43.3"/>
<line class="st0" x1="45.7" y1="47.2" x2="45.7" y2="47.2"/>
<line class="st0" x1="44.6" y1="51.8" x2="44.6" y2="51.8"/>
<line class="st0" x1="48.8" y1="49.3" x2="48.8" y2="49.3"/>
<line class="st0" x1="52.7" y1="47.5" x2="52.7" y2="47.5"/>
<line class="st0" x1="51.8" y1="40.6" x2="51.8" y2="40.6"/>
<line class="st0" x1="47.7" y1="39" x2="47.7" y2="39"/>
<line class="st0" x1="52.8" y1="35.5" x2="52.8" y2="35.5"/>
<line class="st0" x1="47.7" y1="34.2" x2="47.7" y2="34.2"/>
<line class="st0" x1="42.7" y1="34" x2="42.7" y2="34"/>
<line class="st0" x1="42.8" y1="29.2" x2="42.8" y2="29.2"/>
<line class="st0" x1="37.7" y1="28.6" x2="37.7" y2="28.6"/>
<line class="st0" x1="31.5" y1="29" x2="31.5" y2="29"/>
<line class="st0" x1="25.2" y1="28.7" x2="25.2" y2="28.7"/>
<line class="st0" x1="29.5" y1="25" x2="29.5" y2="25"/>
<line class="st0" x1="34" y1="25" x2="34" y2="25"/>
<line class="st0" x1="31.5" y1="20.4" x2="31.5" y2="20.4"/>
<line class="st0" x1="26.8" y1="20.6" x2="26.8" y2="20.6"/>
<line class="st0" x1="29.6" y1="16.2" x2="29.6" y2="16.2"/>
<line class="st0" x1="34.8" y1="14.1" x2="34.8" y2="14.1"/>
<line class="st0" x1="35.5" y1="17.9" x2="35.5" y2="17.9"/>
<line class="st0" x1="40.6" y1="19.6" x2="40.6" y2="19.6"/>
<line class="st0" x1="40.5" y1="24.7" x2="40.5" y2="24.7"/>
<line class="st0" x1="46.1" y1="24.1" x2="46.1" y2="24.1"/>
<line class="st0" x1="50.8" y1="26.4" x2="50.8" y2="26.4"/>
<line class="st0" x1="52.3" y1="20.9" x2="52.3" y2="20.9"/>
<line class="st0" x1="46.2" y1="18.2" x2="46.2" y2="18.2"/>
<line class="st0" x1="50.7" y1="16.1" x2="50.7" y2="16.1"/>
<line class="st0" x1="47.2" y1="12.1" x2="47.2" y2="12.1"/>
<line class="st0" x1="42.1" y1="10.7" x2="42.1" y2="10.7"/>
<line class="st0" x1="39.8" y1="14.6" x2="39.8" y2="14.6"/>
<line class="st0" x1="38.2" y1="7.2" x2="38.2" y2="7.2"/>
<line class="st0" x1="49.3" y1="8" x2="49.3" y2="8"/>
<line class="st0" x1="53.1" y1="11.9" x2="53.1" y2="11.9"/>
<line class="st0" x1="52.6" y1="4.2" x2="52.6" y2="4.2"/>
<line class="st0" x1="48.1" y1="0.7" x2="48.1" y2="0.7"/>
<line class="st0" x1="42.1" y1="0.5" x2="42.1" y2="0.5"/>
<line class="st0" x1="40.8" y1="4.2" x2="40.8" y2="4.2"/>
<line class="st0" x1="37.2" y1="1.1" x2="37.2" y2="1.1"/>
<line class="st0" x1="35.1" y1="4.1" x2="35.1" y2="4.1"/>
<line class="st0" x1="29.5" y1="5.2" x2="29.5" y2="5.2"/>
<line class="st0" x1="30.7" y1="1.4" x2="30.7" y2="1.4"/>
<line class="st0" x1="24.8" y1="0.5" x2="24.8" y2="0.5"/>
<line class="st0" x1="33.5" y1="8.1" x2="33.5" y2="8.1"/>
<line class="st0" x1="2.8" y1="16.7" x2="2.8" y2="16.7"/>
<line class="st0" x1="7.7" y1="18.4" x2="7.7" y2="18.4"/>
<line class="st0" x1="1.2" y1="20.6" x2="1.2" y2="20.6"/>
<line class="st0" x1="11.1" y1="20.9" x2="11.1" y2="20.9"/>
<line class="st0" x1="13.3" y1="15.6" x2="13.3" y2="15.6"/>
<line class="st0" x1="18.6" y1="14.4" x2="18.6" y2="14.4"/>
<line class="st0" x1="22.1" y1="16.5" x2="22.1" y2="16.5"/>
<path class="st1" d="M4.7,47.2l-2.5,2l4,1.8c0,0,0.8-2,0-2.5S4.7,47.2,4.7,47.2z"/>
<path class="st1" d="M49.1,42.7c1,0.5,2.8,0.8,2.2,2s-2.5,1-2.5,1L49.1,42.7z"/>
<path class="st1" d="M37.5,47.1l5.2,1.6l-0.8,3l-2.4-1.6C39.5,50.1,37.9,49.3,37.5,47.1z"/>
<polygon class="st1" points="49.6,19 49.6,21.5 47.3,21.5 "/>
<polygon class="st1" points="2.2,10.1 3.7,14.3 0.2,14.6 "/>
<polygon class="st1" points="44.7,27.4 46.7,31.1 49.9,29.6 47.7,27.6 "/>
<polygon class="st1" points="43.4,13.7 42.5,15.9 43.9,16.4 45.5,15.4 44.8,14.1 "/>
<polygon class="st1" points="23.6,22.8 25.4,22.8 25.4,26.1 21.8,24.8 22.2,23.2 "/>
<polygon class="st1" points="17.1,37.2 18.4,39.5 20.5,36.8 "/>
<polygon class="st1" points="34.6,30.3 37.8,32.1 36.4,33.2 34.8,31.9 "/>
<polygon class="st1" points="35.9,20.6 38.4,22.2 35.7,24 33.9,21.7 34.8,20.2 "/>
<polygon class="st1" points="3.1,33.4 5.4,34.9 4,36 1.3,36 "/>
<polygon class="st1" points="3,20.4 5.1,20.8 5.1,23.7 3.9,25.1 3.5,22.2 "/>
<polygon class="st1" points="44.5,35.9 41.6,38.1 44.1,40.1 45.4,37.7 "/>
<polygon class="st1" points="27.4,29.6 29.3,31.8 28.5,35.3 25.3,33.7 26.9,32.3 "/>
<polygon class="st1" points="26.3,44 27.4,41.5 25.2,40.6 23.8,42.7 24.5,44 "/>
<polygon class="st1" points="33.5,9.4 35.5,8.9 35.3,11.8 33.3,12.7 32.6,10.9 "/>
<polygon class="st1" points="12.8,29.4 13.9,31.6 12.3,33 11.9,30.7 "/>
<polygon class="st1" points="16.2,48.2 16.8,52.7 14.6,50.1 "/>
<polygon class="st1" points="44.6,3.3 43,5.6 44.1,6.5 49.8,5.8 48.6,4.2 46.4,4.2 "/>
<polygon class="st1" points="8.1,41.8 8.4,43.6 11.5,43.6 10.8,41.6 "/>
<polygon class="st1" points="14.1,19.1 15.5,21.4 18,19.1 15.9,18.2 "/>
<polygon class="st1" points="6.8,3.3 8.9,4.9 5.9,6 3.7,3.5 "/>
<polygon class="st1" points="33.5,41.7 34.6,43.9 37.6,42.6 37.3,41 "/>
<polygon class="st1" points="16.3,7.5 16.9,11.6 12.2,12.3 12,9.6 14.5,9.1 "/>
<polygon class="st1" points="26.3,13.4 26.3,15.7 24.3,15.7 "/>
<polygon class="st1" points="51.4,50.6 51.4,52.9 49.4,52.9 "/>
<polygon class="st1" points="26.7,2.3 25.3,4.5 27.1,4.7 27.8,4.2 27.6,2.8 "/>
<polygon class="st1" points="26.6,49.5 28,51.7 30.5,49.5 28.4,48.6 "/>
</svg>
