<svg id="Layer_1" data-name="Layer 1" xmlns="http://www.w3.org/2000/svg" width="54.13" height="54.13" viewBox="0 0 54.13 54.13"><defs><style>.cls-1,.cls-2,.cls-3{fill:none;}.cls-2,.cls-3{stroke:#000;}.cls-2{stroke-linecap:round;stroke-width:0.7px;}.cls-3{stroke-width:0.3px;}</style></defs><title>605</title><rect class="cls-1" x="8.34" y="-19.63" width="54.13" height="54.13"/><line class="cls-2" x1="15.96" y1="5.87" x2="15.96" y2="5.87"/><line class="cls-2" x1="21.21" y1="6.12" x2="21.21" y2="6.12"/><line class="cls-2" x1="17.84" y1="10" x2="17.84" y2="10"/><line class="cls-2" x1="12.84" y1="9.5" x2="12.84" y2="9.5"/><line class="cls-2" x1="9.21" y1="6.75" x2="9.21" y2="6.75"/><line class="cls-2" x1="9.71" y1="13" x2="9.71" y2="13"/><line class="cls-2" x1="15.21" y1="14.37" x2="15.21" y2="14.37"/><line class="cls-2" x1="19.34" y1="17.12" x2="19.34" y2="17.12"/><line class="cls-2" x1="15.21" y1="19.62" x2="15.21" y2="19.62"/><line class="cls-2" x1="10.34" y1="19.75" x2="10.34" y2="19.75"/><line class="cls-2" x1="12.96" y1="23.87" x2="12.96" y2="23.87"/><line class="cls-2" x1="10.46" y1="28.12" x2="10.46" y2="28.12"/><line class="cls-2" x1="16.46" y1="27.37" x2="16.46" y2="27.37"/><line class="cls-2" x1="17.59" y1="31.87" x2="17.59" y2="31.87"/><line class="cls-2" x1="21.34" y1="28.25" x2="21.34" y2="28.25"/><line class="cls-2" x1="22.09" y1="22.75" x2="22.09" y2="22.75"/><line class="cls-2" x1="23.84" y1="16.37" x2="23.84" y2="16.37"/><line class="cls-2" x1="24.59" y1="10" x2="24.59" y2="10"/><line class="cls-2" x1="26.46" y1="4.87" x2="26.46" y2="4.87"/><line class="cls-2" x1="30.84" y1="1.62" x2="30.84" y2="1.62"/><line class="cls-2" x1="29.71" y1="9" x2="29.71" y2="9"/><line class="cls-2" x1="28.84" y1="13.75" x2="28.84" y2="13.75"/><line class="cls-2" x1="32.09" y1="17.62" x2="32.09" y2="17.62"/><line class="cls-2" x1="29.46" y1="22.75" x2="29.46" y2="22.75"/><line class="cls-2" x1="25.46" y1="25.75" x2="25.46" y2="25.75"/><line class="cls-2" x1="30.46" y1="27.37" x2="30.46" y2="27.37"/><line class="cls-2" x1="27.21" y1="32.25" x2="27.21" y2="32.25"/><line class="cls-2" x1="33.71" y1="32.5" x2="33.71" y2="32.5"/><line class="cls-2" x1="35.84" y1="27" x2="35.84" y2="27"/><line class="cls-2" x1="38.71" y1="22.5" x2="38.71" y2="22.5"/><line class="cls-2" x1="37.09" y1="19" x2="37.09" y2="19"/><line class="cls-2" x1="41.84" y1="19.75" x2="41.84" y2="19.75"/><line class="cls-2" x1="40.09" y1="15.37" x2="40.09" y2="15.37"/><line class="cls-2" x1="45.71" y1="17.5" x2="45.71" y2="17.5"/><line class="cls-2" x1="48.59" y1="21.62" x2="48.59" y2="21.62"/><line class="cls-2" x1="47.96" y1="26.75" x2="47.96" y2="26.75"/><line class="cls-2" x1="41.96" y1="27.75" x2="41.96" y2="27.75"/><line class="cls-2" x1="41.21" y1="31.75" x2="41.21" y2="31.75"/><line class="cls-2" x1="44.84" y1="33.5" x2="44.84" y2="33.5"/><line class="cls-2" x1="52.59" y1="24.62" x2="52.59" y2="24.62"/><line class="cls-2" x1="54.09" y1="28.5" x2="54.09" y2="28.5"/><line class="cls-2" x1="52.96" y1="33.12" x2="52.96" y2="33.12"/><line class="cls-2" x1="51.09" y1="15.25" x2="51.09" y2="15.25"/><line class="cls-2" x1="51.21" y1="10.5" x2="51.21" y2="10.5"/><line class="cls-2" x1="46.09" y1="9.87" x2="46.09" y2="9.87"/><line class="cls-2" x1="39.84" y1="10.25" x2="39.84" y2="10.25"/><line class="cls-2" x1="33.59" y1="10" x2="33.59" y2="10"/><line class="cls-2" x1="37.84" y1="6.25" x2="37.84" y2="6.25"/><line class="cls-2" x1="42.34" y1="6.25" x2="42.34" y2="6.25"/><line class="cls-2" x1="39.84" y1="1.62" x2="39.84" y2="1.62"/><line class="cls-2" x1="35.21" y1="1.87" x2="35.21" y2="1.87"/><line class="cls-2" x1="48.96" y1="0.87" x2="48.96" y2="0.87"/><line class="cls-2" x1="48.84" y1="6" x2="48.84" y2="6"/><line class="cls-2" x1="54.46" y1="5.37" x2="54.46" y2="5.37"/><line class="cls-2" x1="9.59" y1="1.87" x2="9.59" y2="1.87"/><line class="cls-2" x1="19.46" y1="2.12" x2="19.46" y2="2.12"/><path class="cls-3" d="M13.11,28.52l-2.5,2,4,1.75s.75-2,0-2.5A11.69,11.69,0,0,1,13.11,28.52Z"/><path class="cls-3" d="M45.84,28.39,51,30l-.8,3-2.4-1.6A4.23,4.23,0,0,1,45.84,28.39Z"/><polygon class="cls-3" points="53.05 8.64 55.05 12.39 58.3 10.89 56.05 8.89 53.05 8.64"/><polygon class="cls-3" points="31.97 4.05 33.77 4.05 33.77 7.42 30.17 6.07 30.62 4.5 31.97 4.05"/><polygon class="cls-3" points="25.42 18.47 26.77 20.79 28.87 18.09 25.42 18.47"/><polygon class="cls-3" points="42.97 11.57 46.12 13.37 44.77 14.49 43.2 13.14 42.97 11.57"/><polygon class="cls-3" points="44.28 1.85 46.8 3.47 44.1 5.27 42.3 2.93 43.2 1.49 44.28 1.85"/><polygon class="cls-3" points="11.48 14.71 13.82 16.15 12.38 17.23 9.68 17.23 11.48 14.71"/><polygon class="cls-3" points="11.34 1.69 13.5 2.05 13.5 4.93 12.24 6.37 11.88 3.49 11.34 1.69"/><polygon class="cls-3" points="52.87 17.19 49.99 19.35 52.51 21.33 53.77 18.99 52.87 17.19"/><polygon class="cls-3" points="35.79 10.89 37.68 13.05 36.87 16.56 33.63 14.94 35.25 13.59 35.79 10.89"/><polygon class="cls-3" points="34.65 25.29 35.77 22.82 33.52 21.91 32.17 23.94 32.85 25.29 34.65 25.29"/><polygon class="cls-3" points="21.15 10.67 22.27 12.92 20.7 14.27 20.25 12.02 21.15 10.67"/><polygon class="cls-3" points="24.57 29.43 25.22 33.97 22.95 31.38 24.57 29.43"/><polygon class="cls-3" points="16.51 23.06 16.73 24.86 19.88 24.86 19.21 22.83 16.51 23.06"/><polygon class="cls-3" points="22.51 0.39 23.86 2.64 26.33 0.39 24.31 -0.51 22.51 0.39"/><polygon class="cls-3" points="41.85 22.99 42.93 25.15 45.99 23.89 45.63 22.27 41.85 22.99"/><polygon class="cls-3" points="35.02 30.73 36.37 32.98 38.84 30.73 36.81 29.83 35.02 30.73"/><rect class="cls-1" x="8.34" y="34.5" width="54.13" height="54.13"/><line class="cls-2" x1="36.8" y1="44.96" x2="36.8" y2="44.96"/><line class="cls-2" x1="31.71" y1="42.37" x2="31.71" y2="42.37"/><line class="cls-2" x1="30.59" y1="46.75" x2="30.59" y2="46.75"/><line class="cls-2" x1="26.84" y1="42.37" x2="26.84" y2="42.37"/><line class="cls-2" x1="29.46" y1="38.25" x2="29.46" y2="38.25"/><line class="cls-2" x1="24.09" y1="39.25" x2="24.09" y2="39.25"/><line class="cls-2" x1="21.46" y1="43" x2="21.46" y2="43"/><line class="cls-2" x1="19.34" y1="37.37" x2="19.34" y2="37.37"/><line class="cls-2" x1="25.59" y1="35.75" x2="25.59" y2="35.75"/><line class="cls-2" x1="14.09" y1="36.12" x2="14.09" y2="36.12"/><line class="cls-2" x1="9.59" y1="36.37" x2="9.59" y2="36.37"/><line class="cls-2" x1="10.96" y1="42" x2="10.96" y2="42"/><line class="cls-2" x1="16.46" y1="44" x2="16.46" y2="44"/><line class="cls-2" x1="17.84" y1="49.37" x2="17.84" y2="49.37"/><line class="cls-2" x1="13.96" y1="47.37" x2="13.96" y2="47.37"/><line class="cls-2" x1="37.96" y1="51.62" x2="37.96" y2="51.62"/><line class="cls-2" x1="43.21" y1="49.5" x2="43.21" y2="49.5"/><line class="cls-2" x1="43.84" y1="53.25" x2="43.84" y2="53.25"/><line class="cls-2" x1="50.46" y1="46.12" x2="50.46" y2="46.12"/><line class="cls-2" x1="48.21" y1="50" x2="48.21" y2="50"/><line class="cls-2" x1="46.59" y1="42.62" x2="46.59" y2="42.62"/><line class="cls-2" x1="50.46" y1="35.87" x2="50.46" y2="35.87"/><line class="cls-2" x1="49.21" y1="39.62" x2="49.21" y2="39.62"/><line class="cls-2" x1="45.59" y1="36.5" x2="45.59" y2="36.5"/><line class="cls-2" x1="43.46" y1="39.5" x2="43.46" y2="39.5"/><line class="cls-2" x1="37.84" y1="40.62" x2="37.84" y2="40.62"/><line class="cls-2" x1="39.09" y1="36.75" x2="39.09" y2="36.75"/><line class="cls-2" x1="33.21" y1="35.87" x2="33.21" y2="35.87"/><line class="cls-2" x1="41.84" y1="43.5" x2="41.84" y2="43.5"/><line class="cls-2" x1="11.21" y1="52.12" x2="11.21" y2="52.12"/><line class="cls-2" x1="16.09" y1="53.75" x2="16.09" y2="53.75"/><line class="cls-2" x1="21.71" y1="51" x2="21.71" y2="51"/><line class="cls-2" x1="26.96" y1="49.75" x2="26.96" y2="49.75"/><line class="cls-2" x1="30.46" y1="51.87" x2="30.46" y2="51.87"/><polygon class="cls-3" points="10.61 45.45 12.11 49.7 8.61 49.95 10.61 45.45"/><polygon class="cls-3" points="51.75 49.13 50.85 51.29 52.29 51.83 53.91 50.75 53.19 49.49 51.75 49.13"/><polygon class="cls-3" points="41.85 44.77 43.87 44.32 43.65 47.24 41.62 48.14 40.95 46.34 41.85 44.77"/><polygon class="cls-3" points="52.96 38.7 51.38 40.95 52.51 41.85 58.13 41.18 57.01 39.6 54.76 39.6 52.96 38.7"/><polygon class="cls-3" points="22.51 54.52 23.86 56.77 26.33 54.52 24.31 53.62 22.51 54.52"/><polygon class="cls-3" points="15.21 38.71 17.23 40.29 14.31 41.41 12.06 38.94 15.21 38.71"/><polygon class="cls-3" points="24.64 42.94 25.32 46.99 20.59 47.67 20.36 44.97 22.84 44.52 24.64 42.94"/><polygon class="cls-3" points="34.65 48.82 34.65 51.07 32.62 51.07 34.65 48.82"/><polygon class="cls-3" points="35.11 37.69 33.63 39.85 35.52 40.12 36.19 39.58 35.92 38.23 35.11 37.69"/><rect class="cls-1" x="-45.79" y="-19.63" width="54.13" height="54.13"/><line class="cls-2" x1="-0.04" y1="28.5" x2="-0.04" y2="28.5"/><line class="cls-2" x1="3.09" y1="30.62" x2="3.09" y2="30.62"/><line class="cls-2" x1="6.96" y1="28.75" x2="6.96" y2="28.75"/><line class="cls-2" x1="6.09" y1="21.87" x2="6.09" y2="21.87"/><line class="cls-2" x1="1.96" y1="20.25" x2="1.96" y2="20.25"/><line class="cls-2" x1="7.09" y1="16.75" x2="7.09" y2="16.75"/><line class="cls-2" x1="1.96" y1="15.5" x2="1.96" y2="15.5"/><line class="cls-2" x1="0.34" y1="5.37" x2="0.34" y2="5.37"/><line class="cls-2" x1="5.09" y1="7.62" x2="5.09" y2="7.62"/><line class="cls-2" x1="6.59" y1="2.12" x2="6.59" y2="2.12"/><path class="cls-3" d="M3.3,23.93c1,.5,2.75.75,2.25,2s-2.5,1-2.5,1Z"/><polygon class="cls-3" points="3.84 0.23 3.84 2.73 1.59 2.73 3.84 0.23"/><polygon class="cls-3" points="-1.08 8.64 0.92 12.39 4.17 10.89 1.92 8.89 -1.08 8.64"/><polygon class="cls-3" points="5.67 31.91 5.67 34.16 3.65 34.16 5.67 31.91"/><rect class="cls-1" x="-45.79" y="34.5" width="54.13" height="54.13"/><line class="cls-2" x1="0.46" y1="53.62" x2="0.46" y2="53.62"/><line class="cls-2" x1="4.96" y1="51.5" x2="4.96" y2="51.5"/><line class="cls-2" x1="1.46" y1="47.5" x2="1.46" y2="47.5"/><line class="cls-2" x1="3.59" y1="43.37" x2="3.59" y2="43.37"/><line class="cls-2" x1="7.34" y1="47.25" x2="7.34" y2="47.25"/><line class="cls-2" x1="6.84" y1="39.62" x2="6.84" y2="39.62"/><line class="cls-2" x1="2.34" y1="36.12" x2="2.34" y2="36.12"/><polygon class="cls-3" points="3.84 54.35 3.84 56.85 1.59 56.85 3.84 54.35"/><polygon class="cls-3" points="-1.17 38.7 -2.74 40.95 -1.62 41.85 4.01 41.18 2.88 39.6 0.63 39.6 -1.17 38.7"/><rect class="cls-1" width="54.12" height="54.13"/></svg>