<!-- Generator: Adobe Illustrator 22.1.0, SVG Export Plug-In  -->
<svg version="1.1"
     xmlns="http://www.w3.org/2000/svg" xmlns:xlink="http://www.w3.org/1999/xlink" xmlns:a="http://ns.adobe.com/AdobeSVGViewerExtensions/3.0/"
     x="0px" y="0px" width="54.3px" height="54.4px" viewBox="0 0 54.3 54.4" style="enable-background:new 0 0 54.3 54.4;"
     xml:space="preserve">
<style type="text/css">
    .st0{fill:none;stroke:#000000;stroke-width:0.3;}
    .st1{fill:none;stroke:#000000;stroke-width:0.7;stroke-linecap:round;}
</style>
<defs>
</defs>
<g>
    <path class="st0" d="M20.7,27.6l-2,2l-2,0.5V32c0,0,0.5,0.9,1.2,1c0.7,0.2,3.1,0.3,3.9-0.5c0.9-0.8,0.9-3.4,0.9-3.4L20.7,27.6z"/>
    <polygon class="st0" points="20,26.2 19.2,24.8 17.6,24.4 16.6,26.8 18.2,27.4    "/>
    <polygon class="st0" points="21.6,15.9 17,17.1 16.4,21.1 19.4,21.9 20.8,19.3 23,18.3    "/>
    <polygon class="st0" points="30.1,5.1 28.6,2.5 25.6,3.3 26.2,7.4 30.9,8.6 32.3,6.1  "/>
    <path class="st0" d="M23.4,32.1l4,1.8c0,0,0.8-2,0-2.5s-1.5-1.2-1.5-1.2L23.4,32.1z"/>
    <polygon class="st0" points="21.9,4.5 19.9,4.5 18.4,5 17.9,6.8 21.9,8.3     "/>
    <polygon class="st0" points="27.9,27.6 29.4,30.2 31.8,27.2  "/>
    <path class="st0" d="M18.8,37c0.5-1.2-1.2-1.5-2.2-2l-0.2,3C16.3,38,18.3,38.3,18.8,37z"/>
    <polygon class="st0" points="40.4,24.9 41.9,23.6 38.4,21.6 38.7,23.4    "/>
    <polygon class="st0" points="35.9,29.1 39.1,31.1 39.5,26.3 35.3,25.1 33.7,26.1  "/>
    <polygon class="st0" points="32.9,34.6 35.9,32.6 33.1,30.8 31.9,30.4 30.9,32    "/>
    <path class="st0" d="M9.4,19.9c0.4,2.2,2,3,2,3l2.4,1.6l0.8-3L9.4,19.9z"/>
    <path class="st0" d="M2.4,17.6l-2,1.2l2.2,1.8l0.8,2.5c0,0,2.5,0.2,2.8-1.2S4.4,17.9,2.4,17.6z"/>
    <polygon class="st0" points="41.2,32.9 44.2,32.9 45.8,31.7 43.2,30.1    "/>
    <path class="st0" d="M36.7,37.6c0,0,1.2,2.2,2,2.2c0.8,0,2.6-1,3-2.4c0.4-1.4-1-2.6-1-2.6l-4-0.6l-2,2.6L36.7,37.6z"/>
    <path class="st0" d="M27.4,39.3l1.2,2.4c0,0,2.8,1.4,3.2-0.4c0.4-1.8-0.4-3.2-0.4-3.2L27,36.3l-1.4,2.6L27.4,39.3z"/>
    <path class="st0" d="M8.7,36.3c1,1.2,4.2,1,4.2,1l-0.8-2.4l-2.4-3.4C8.3,32.7,7.7,35.1,8.7,36.3z"/>
    <polygon class="st0" points="21,35.3 21.6,37.3 22,40.5 23.4,38.9 23.4,35.7  "/>
    <polygon class="st0" points="25.3,8.3 23.1,12.3 27.3,14.1 27.8,15.2 29.2,13.2 27.9,10.3     "/>
    <path class="st0" d="M17.1,15.1l3.4-2.2l0.2-3.1l-6.2-2.4v2.4c0,0,1,1.9,1.7,2.2C16.9,12.3,17.1,15.1,17.1,15.1z"/>
    <polygon class="st0" points="12.5,12.7 11.3,15.9 12.7,18.5 14.7,18.3 15.3,14.9  "/>
    <polygon class="st0" points="36.9,22 35.5,20.6 33.9,20.6 32.5,19.4 30.9,22.4 32.9,24.8  "/>
    <polygon class="st0" points="2.7,45.1 5.6,46.2 7.7,41.7 5.8,41.2 4.4,42 2.6,41.7    "/>
    <polygon class="st0" points="36.2,9.2 34,7.6 32.8,11.4 34.5,13.8 36.2,12.4  "/>
    <polygon class="st0" points="17.2,44.8 19.2,46.6 22.8,46.8 26,45.4 23.6,42.8 20.8,42.2 17.8,42.4    "/>
    <polygon class="st0" points="31.9,43.1 34.7,45.3 36.1,42.7 35.1,40.7    "/>
    <polygon class="st0" points="42.6,41.3 40.4,40.1 39.4,43.1 41.2,44.9 45.2,45.1 44.4,41.9    "/>
    <polygon class="st0" points="50.9,31.8 48.8,29.4 48.2,32.4 46.4,33.9 50,35.7    "/>
    <polygon class="st0" points="12.7,9.1 10.5,7.5 7.3,8.5 8.7,10.3 8.7,12.3    "/>
    <polygon class="st0" points="7.7,28.3 10.7,29.9 13.9,28.7 11.5,25.3 7.5,24.1 6.5,25.9   "/>
    <polygon class="st0" points="6.2,13.4 4.7,15.6 5.4,17.1 7.4,17.1 8.7,14.4   "/>
    <polyline class="st0" points="0.1,8.8 1.4,8.6 1.9,10.9 4.9,10.6 6.2,3.6 1.9,2.6 0.1,3.6     "/>
    <polyline class="st0" points="9.7,0.2 8.4,1.9 9.2,4.6 11.2,3.9 13.4,6.4 14.2,3.1 11.4,0.2   "/>
    <polyline class="st0" points="6.9,0.2 6.9,1.4 4.7,1.4 5.7,0.2   "/>
    <polyline class="st0" points="0.1,28.4 1.7,28.4 4.4,25.9 0.1,22.4   "/>
    <polyline class="st0" points="0.1,16.7 1.6,16.4 1.6,13.1 0.1,12.3   "/>
    <polygon class="st0" points="2.6,31 3.3,33 5.6,32 5.8,28.8 3.6,29.3     "/>
    <polyline class="st0" points="0.1,33.9 2.2,35.4 1.7,38.9 0.1,38.2   "/>
    <polygon class="st0" points="3.7,38.9 7.2,38.6 5.7,34.4     "/>
    <polygon class="st0" points="22.8,20 21.6,23 24.3,23.5 25.6,26 30.1,23.3 26.8,19.3  "/>
    <polygon class="st0" points="50.7,3.9 47.2,1.6 42.9,1.3 41.7,4.3 45.7,5.1 46.9,7.4  "/>
    <polyline class="st0" points="14.8,0.2 14.9,0.9 20.9,2.9 21.4,0.6 21.1,0.2  "/>
    <polygon class="st0" points="47.4,48.4 46.2,45.9 45.2,47.4 45.7,49.9    "/>
    <polyline class="st0" points="0.1,1.3 3.2,0.9 3.1,0.2   "/>
    <polyline class="st0" points="27.6,0.2 26.4,1.1 22.9,0.6 23.2,0.2   "/>
    <polyline class="st0" points="34.6,0.2 34.7,1.9 34.2,4.9 37.7,6.1 39.9,3.1 38.1,0.2     "/>
    <polygon class="st0" points="32.4,3.9 31.9,0.4 30.7,1.9     "/>
    <polygon class="st0" points="43.9,7.4 40.6,6.2 38.6,7.4 37.9,9.4 38.9,12.4 42.6,11.7    "/>
    <polygon class="st0" points="36.4,17.6 35.2,15.9 32.7,15.9 30.7,14.9 28.9,17.4 30.2,18.4    "/>
    <polygon class="st0" points="44.9,20.6 44.9,17.9 43.2,16.4 44.4,13.6 38.2,15.1 38.4,18.1 40.9,20.4  "/>
    <polygon class="st0" points="4.6,49.2 5.3,51.2 9.1,51.5 12.3,50.7 11.8,47.7 9.1,46  "/>
    <polygon class="st0" points="12.7,45 12.9,47 16.4,47 15.7,44.7  "/>
    <polygon class="st0" points="20.4,49.4 21.9,51.9 24.6,49.4 22.4,48.4    "/>
    <polygon class="st0" points="29.7,52.6 32.9,51.9 34.2,48.1 31.9,45.1 27.9,43.9 26.7,47.9    "/>
    <polygon class="st0" points="36.2,45.9 38.2,49.6 41.4,48.1 39.2,46.1    "/>
    <polygon class="st0" points="49.9,44.9 52.2,39.4 48.7,37.4 44.9,38.4 46.7,42.1  "/>
    <polygon class="st0" points="50.9,11.4 48.7,9.6 45.2,9.9 47.7,12.6  "/>
    <polygon class="st0" points="9.9,40.4 11.4,43.4 15.7,41.6 15.2,39.4     "/>
    <polygon class="st0" points="49.9,23.1 52.7,19.9 50.7,17.6 49.7,14.9 46.2,16.1 47.2,21.4    "/>
    <polygon class="st0" points="50.2,26.9 47.7,24.4 44.4,23.1 42.9,25.6 46.7,28.4  "/>
    <polyline class="st0" points="0.1,49.2 1.2,48.4 1.4,45.9 0.1,46     "/>
    <polygon class="st0" points="42.7,50.4 40.4,52.4 44.2,53.4 48.7,51.9    "/>
    <polyline class="st0" points="54.2,3.6 52.1,4.9 52.8,9.1 54.2,8.8   "/>
    <polyline class="st0" points="54.2,22.4 53.8,22.1 52.6,25.1 51.8,28.4 54.2,28.4     "/>
    <polyline class="st0" points="54.2,12.3 52.7,11.4 51.7,14.1 52.4,17.1 54.2,16.7     "/>
    <polyline class="st0" points="54.2,33.9 52.8,32.9 53.3,37.9 54.2,38.2   "/>
    <polyline class="st0" points="54.2,1.3 52.1,1.6 51.9,0.2    "/>
    <polyline class="st0" points="9.7,54.3 10.4,53.2 11.4,54.3  "/>
    <polyline class="st0" points="5.7,54.3 6.9,53 6.9,54.3  "/>
    <polyline class="st0" points="21.1,54.3 18.4,50.2 13.9,50.5 14.8,54.3   "/>
    <polyline class="st0" points="0.1,52.3 0.4,52.2 2.4,50.5 3.1,54.3   "/>
    <polyline class="st0" points="23.2,54.3 25.7,50.7 27.2,51.7 27.7,54.2 27.6,54.3     "/>
    <polyline class="st0" points="34.6,54.3 34.4,52.5 36.2,51.2 38.1,54.3   "/>
    <polyline class="st0" points="54.2,52.3 51.8,52.7 51.9,54.3     "/>
    <polyline class="st0" points="54.2,46 51.8,46.4 49.1,49.4 52.3,50.6 54.2,49.2   "/>
    <line class="st0" x1="6.9" y1="0.2" x2="5.7" y2="0.2"/>
    <line class="st1" x1="7.4" y1="5.5" x2="7.4" y2="5.5"/>
    <line class="st1" x1="7.2" y1="2.7" x2="7.2" y2="2.7"/>
    <line class="st1" x1="10.7" y1="6" x2="10.7" y2="6"/>
    <line class="st1" x1="2.9" y1="1.7" x2="2.9" y2="1.7"/>
    <line class="st1" x1="13.1" y1="8" x2="13.1" y2="8"/>
    <line class="st1" x1="15.9" y1="5.7" x2="15.9" y2="5.7"/>
    <line class="st1" x1="15.4" y1="2.5" x2="15.4" y2="2.5"/>
    <line class="st1" x1="18.4" y1="3.5" x2="18.4" y2="3.5"/>
    <line class="st1" x1="6.6" y1="10.4" x2="6.6" y2="10.4"/>
    <line class="st1" x1="2.2" y1="12.2" x2="2.2" y2="12.2"/>
    <line class="st1" x1="4.3" y1="13.7" x2="4.3" y2="13.7"/>
    <line class="st1" x1="2.9" y1="16.1" x2="2.9" y2="16.1"/>
    <line class="st1" x1="5.9" y1="18.6" x2="5.9" y2="18.6"/>
    <line class="st1" x1="12.8" y1="11.4" x2="12.8" y2="11.4"/>
    <line class="st1" x1="10.3" y1="13.4" x2="10.3" y2="13.4"/>
    <line class="st1" x1="9.6" y1="17.2" x2="9.6" y2="17.2"/>
    <line class="st1" x1="11.2" y1="19" x2="11.2" y2="19"/>
    <line class="st1" x1="7.8" y1="21.1" x2="7.8" y2="21.1"/>
    <line class="st1" x1="9.8" y1="23.4" x2="9.8" y2="23.4"/>
    <line class="st1" x1="5.3" y1="24.6" x2="5.3" y2="24.6"/>
    <line class="st1" x1="1.7" y1="22.1" x2="1.7" y2="22.1"/>
    <line class="st1" x1="14.4" y1="26.6" x2="14.4" y2="26.6"/>
    <line class="st1" x1="16.2" y1="23.1" x2="16.2" y2="23.1"/>
    <line class="st1" x1="15.1" y1="20" x2="15.1" y2="20"/>
    <line class="st1" x1="22.4" y1="1.5" x2="22.4" y2="1.5"/>
    <line class="st1" x1="23.7" y1="4.4" x2="23.7" y2="4.4"/>
    <line class="st1" x1="24.2" y1="7.5" x2="24.2" y2="7.5"/>
    <line class="st1" x1="22.7" y1="10" x2="22.7" y2="10"/>
    <line class="st1" x1="21.7" y1="13.6" x2="21.7" y2="13.6"/>
    <line class="st1" x1="19.1" y1="15.5" x2="19.1" y2="15.5"/>
    <line class="st1" x1="25.3" y1="14.7" x2="25.3" y2="14.7"/>
    <line class="st1" x1="25.8" y1="18.1" x2="25.8" y2="18.1"/>
    <line class="st1" x1="28.8" y1="19.2" x2="28.8" y2="19.2"/>
    <line class="st1" x1="30.1" y1="21.2" x2="30.1" y2="21.2"/>
    <line class="st1" x1="29.2" y1="15.2" x2="29.2" y2="15.2"/>
    <line class="st1" x1="30.9" y1="12.7" x2="30.9" y2="12.7"/>
    <line class="st1" x1="29.2" y1="9.7" x2="29.2" y2="9.7"/>
    <line class="st1" x1="31.4" y1="9.9" x2="31.4" y2="9.9"/>
    <line class="st1" x1="33.3" y1="6.6" x2="33.3" y2="6.6"/>
    <line class="st1" x1="33.4" y1="1.9" x2="33.4" y2="1.9"/>
    <line class="st1" x1="36.5" y1="6.7" x2="36.5" y2="6.7"/>
    <line class="st1" x1="37.1" y1="8.7" x2="37.1" y2="8.7"/>
    <line class="st1" x1="33.1" y1="14.6" x2="33.1" y2="14.6"/>
    <line class="st1" x1="37.7" y1="12.4" x2="37.7" y2="12.4"/>
    <line class="st1" x1="35.9" y1="14.4" x2="35.9" y2="14.4"/>
    <line class="st1" x1="37.1" y1="16.4" x2="37.1" y2="16.4"/>
    <line class="st1" x1="39.5" y1="13.7" x2="39.5" y2="13.7"/>
    <line class="st1" x1="43.3" y1="12.7" x2="43.3" y2="12.7"/>
    <line class="st1" x1="46" y1="12.7" x2="46" y2="12.7"/>
    <line class="st1" x1="45.3" y1="15.1" x2="45.3" y2="15.1"/>
    <line class="st1" x1="34.3" y1="19.3" x2="34.3" y2="19.3"/>
    <line class="st1" x1="37.2" y1="19.4" x2="37.2" y2="19.4"/>
    <line class="st1" x1="39.5" y1="20.9" x2="39.5" y2="20.9"/>
    <line class="st1" x1="42.3" y1="22" x2="42.3" y2="22"/>
    <line class="st1" x1="36.4" y1="24" x2="36.4" y2="24"/>
    <line class="st1" x1="38.7" y1="24.9" x2="38.7" y2="24.9"/>
    <line class="st1" x1="40.9" y1="26" x2="40.9" y2="26"/>
    <line class="st1" x1="40.8" y1="28.7" x2="40.8" y2="28.7"/>
    <line class="st1" x1="43.9" y1="28.5" x2="43.9" y2="28.5"/>
    <line class="st1" x1="46.5" y1="30.3" x2="46.5" y2="30.3"/>
    <line class="st1" x1="50.1" y1="28.5" x2="50.1" y2="28.5"/>
    <line class="st1" x1="52.6" y1="30.9" x2="52.6" y2="30.9"/>
    <line class="st1" x1="48.5" y1="23.7" x2="48.5" y2="23.7"/>
    <line class="st1" x1="50.8" y1="25.2" x2="50.8" y2="25.2"/>
    <line class="st1" x1="48.3" y1="13.9" x2="48.3" y2="13.9"/>
    <line class="st1" x1="50.8" y1="12.7" x2="50.8" y2="12.7"/>
    <line class="st1" x1="51.1" y1="15.6" x2="51.1" y2="15.6"/>
    <line class="st1" x1="53" y1="18.4" x2="53" y2="18.4"/>
    <line class="st1" x1="52.6" y1="22.1" x2="52.6" y2="22.1"/>
    <line class="st1" x1="51.5" y1="34.3" x2="51.5" y2="34.3"/>
    <line class="st1" x1="51.5" y1="37.2" x2="51.5" y2="37.2"/>
    <line class="st1" x1="47.8" y1="36.2" x2="47.8" y2="36.2"/>
    <line class="st1" x1="45.3" y1="33.5" x2="45.3" y2="33.5"/>
    <line class="st1" x1="45.3" y1="36" x2="45.3" y2="36"/>
    <line class="st1" x1="42.6" y1="34.5" x2="42.6" y2="34.5"/>
    <line class="st1" x1="40.8" y1="30.9" x2="40.8" y2="30.9"/>
    <line class="st1" x1="37.9" y1="32.5" x2="37.9" y2="32.5"/>
    <line class="st1" x1="40" y1="33.8" x2="40" y2="33.8"/>
    <line class="st1" x1="35.3" y1="34.3" x2="35.3" y2="34.3"/>
    <line class="st1" x1="43.1" y1="37.1" x2="43.1" y2="37.1"/>
    <line class="st1" x1="41.4" y1="39.2" x2="41.4" y2="39.2"/>
    <line class="st1" x1="44" y1="39.7" x2="44" y2="39.7"/>
    <line class="st1" x1="45.5" y1="41.7" x2="45.5" y2="41.7"/>
    <line class="st1" x1="46.8" y1="44.4" x2="46.8" y2="44.4"/>
    <line class="st1" x1="52.7" y1="42.2" x2="52.7" y2="42.2"/>
    <line class="st1" x1="52.3" y1="44.7" x2="52.3" y2="44.7"/>
    <line class="st1" x1="49.3" y1="46.5" x2="49.3" y2="46.5"/>
    <line class="st1" x1="44.1" y1="46.4" x2="44.1" y2="46.4"/>
    <line class="st1" x1="41.3" y1="46.4" x2="41.3" y2="46.4"/>
    <line class="st1" x1="39.1" y1="44.5" x2="39.1" y2="44.5"/>
    <line class="st1" x1="36.4" y1="44.8" x2="36.4" y2="44.8"/>
    <line class="st1" x1="37.9" y1="41.7" x2="37.9" y2="41.7"/>
    <line class="st1" x1="36.4" y1="39.4" x2="36.4" y2="39.4"/>
    <line class="st1" x1="33.7" y1="40.2" x2="33.7" y2="40.2"/>
    <line class="st1" x1="33.5" y1="37.3" x2="33.5" y2="37.3"/>
    <line class="st1" x1="32.1" y1="35.7" x2="32.1" y2="35.7"/>
    <line class="st1" x1="30.3" y1="36.5" x2="30.3" y2="36.5"/>
    <line class="st1" x1="43" y1="48.5" x2="43" y2="48.5"/>
    <line class="st1" x1="48.1" y1="50.2" x2="48.1" y2="50.2"/>
    <line class="st1" x1="52.7" y1="51.6" x2="52.7" y2="51.6"/>
    <line class="st1" x1="49.1" y1="53.1" x2="49.1" y2="53.1"/>
    <line class="st1" x1="40.9" y1="50.1" x2="40.9" y2="50.1"/>
    <line class="st1" x1="37.4" y1="50.5" x2="37.4" y2="50.5"/>
    <line class="st1" x1="34.8" y1="47.4" x2="34.8" y2="47.4"/>
    <line class="st1" x1="34.8" y1="50.7" x2="34.8" y2="50.7"/>
    <line class="st1" x1="33" y1="44.9" x2="33" y2="44.9"/>
    <line class="st1" x1="29.7" y1="43.4" x2="29.7" y2="43.4"/>
    <line class="st1" x1="32.9" y1="53.3" x2="32.9" y2="53.3"/>
    <line class="st1" x1="28.3" y1="52" x2="28.3" y2="52"/>
    <line class="st1" x1="26.3" y1="49.7" x2="26.3" y2="49.7"/>
    <line class="st1" x1="25" y1="47.5" x2="25" y2="47.5"/>
    <line class="st1" x1="26.4" y1="43.4" x2="26.4" y2="43.4"/>
    <line class="st1" x1="26.5" y1="40.7" x2="26.5" y2="40.7"/>
    <line class="st1" x1="24.6" y1="38.9" x2="24.6" y2="38.9"/>
    <line class="st1" x1="24.1" y1="41.9" x2="24.1" y2="41.9"/>
    <line class="st1" x1="16.8" y1="42.2" x2="16.8" y2="42.2"/>
    <line class="st1" x1="13.8" y1="43.8" x2="13.8" y2="43.8"/>
    <line class="st1" x1="17.6" y1="46.8" x2="17.6" y2="46.8"/>
    <line class="st1" x1="21.3" y1="48" x2="21.3" y2="48"/>
    <line class="st1" x1="19.3" y1="49.5" x2="19.3" y2="49.5"/>
    <line class="st1" x1="23.8" y1="51.7" x2="23.8" y2="51.7"/>
    <line class="st1" x1="21.5" y1="53.4" x2="21.5" y2="53.4"/>
    <line class="st1" x1="15.3" y1="48" x2="15.3" y2="48"/>
    <line class="st1" x1="13.4" y1="49.7" x2="13.4" y2="49.7"/>
    <line class="st1" x1="11.5" y1="46.3" x2="11.5" y2="46.3"/>
    <line class="st1" x1="12.6" y1="52.9" x2="12.6" y2="52.9"/>
    <line class="st1" x1="9.4" y1="52.4" x2="9.4" y2="52.4"/>
    <line class="st1" x1="4.6" y1="52" x2="4.6" y2="52"/>
    <line class="st1" x1="1.4" y1="50" x2="1.4" y2="50"/>
    <line class="st1" x1="3.1" y1="47.4" x2="3.1" y2="47.4"/>
    <line class="st1" x1="6.7" y1="46.7" x2="6.7" y2="46.7"/>
    <line class="st1" x1="38.9" y1="53" x2="38.9" y2="53"/>
    <line class="st1" x1="45.6" y1="0.4" x2="45.6" y2="0.4"/>
    <line class="st1" x1="50.2" y1="1.7" x2="50.2" y2="1.7"/>
    <line class="st1" x1="53.6" y1="2.9" x2="53.6" y2="2.9"/>
    <line class="st1" x1="45.8" y1="22.2" x2="45.8" y2="22.2"/>
    <line class="st1" x1="39.8" y1="5.4" x2="39.8" y2="5.4"/>
    <line class="st1" x1="40.3" y1="1.4" x2="40.3" y2="1.4"/>
    <line class="st1" x1="43.5" y1="5.9" x2="43.5" y2="5.9"/>
    <line class="st1" x1="45.7" y1="8" x2="45.7" y2="8"/>
    <line class="st1" x1="50.3" y1="8.5" x2="50.3" y2="8.5"/>
    <line class="st1" x1="50.4" y1="6.4" x2="50.4" y2="6.4"/>
    <line class="st1" x1="52.9" y1="10.2" x2="52.9" y2="10.2"/>
    <line class="st1" x1="30.9" y1="4" x2="30.9" y2="4"/>
    <line class="st1" x1="28.8" y1="1" x2="28.8" y2="1"/>
    <line class="st1" x1="21.4" y1="20.4" x2="21.4" y2="20.4"/>
    <line class="st1" x1="20.1" y1="23.2" x2="20.1" y2="23.2"/>
    <line class="st1" x1="23.2" y1="24.9" x2="23.2" y2="24.9"/>
    <line class="st1" x1="21.2" y1="26.6" x2="21.2" y2="26.6"/>
    <line class="st1" x1="23.9" y1="28.1" x2="23.9" y2="28.1"/>
    <line class="st1" x1="16.8" y1="28.9" x2="16.8" y2="28.9"/>
    <line class="st1" x1="14.1" y1="30.2" x2="14.1" y2="30.2"/>
    <line class="st1" x1="5.2" y1="27.7" x2="5.2" y2="27.7"/>
    <line class="st1" x1="1.7" y1="30" x2="1.7" y2="30"/>
    <line class="st1" x1="1.8" y1="33.4" x2="1.8" y2="33.4"/>
    <line class="st1" x1="3.8" y1="35.1" x2="3.8" y2="35.1"/>
    <line class="st1" x1="7.1" y1="33.9" x2="7.1" y2="33.9"/>
    <line class="st1" x1="7.6" y1="30.7" x2="7.6" y2="30.7"/>
    <line class="st1" x1="11.9" y1="32.5" x2="11.9" y2="32.5"/>
    <line class="st1" x1="15.4" y1="32.7" x2="15.4" y2="32.7"/>
    <line class="st1" x1="14.1" y1="35" x2="14.1" y2="35"/>
    <line class="st1" x1="14.6" y1="38" x2="14.6" y2="38"/>
    <line class="st1" x1="7.9" y1="37.1" x2="7.9" y2="37.1"/>
    <line class="st1" x1="10.4" y1="39.2" x2="10.4" y2="39.2"/>
    <line class="st1" x1="7.4" y1="40.4" x2="7.4" y2="40.4"/>
    <line class="st1" x1="3.6" y1="40.6" x2="3.6" y2="40.6"/>
    <line class="st1" x1="0.8" y1="40.1" x2="0.8" y2="40.1"/>
    <line class="st1" x1="1.1" y1="44.1" x2="1.1" y2="44.1"/>
    <line class="st1" x1="9.1" y1="44.1" x2="9.1" y2="44.1"/>
    <line class="st1" x1="18.6" y1="34.5" x2="18.6" y2="34.5"/>
    <line class="st1" x1="22.6" y1="34.1" x2="22.6" y2="34.1"/>
    <line class="st1" x1="20.1" y1="37.1" x2="20.1" y2="37.1"/>
    <line class="st1" x1="20.2" y1="41" x2="20.2" y2="41"/>
    <line class="st1" x1="17.4" y1="39.6" x2="17.4" y2="39.6"/>
    <line class="st1" x1="26.9" y1="28.6" x2="26.9" y2="28.6"/>
    <line class="st1" x1="28.8" y1="25.9" x2="28.8" y2="25.9"/>
    <line class="st1" x1="28.8" y1="31.4" x2="28.8" y2="31.4"/>
    <line class="st1" x1="33.2" y1="29.2" x2="33.2" y2="29.2"/>
    <line class="st1" x1="35.6" y1="30.7" x2="35.6" y2="30.7"/>
    <line class="st1" x1="30.6" y1="34.4" x2="30.6" y2="34.4"/>
    <line class="st1" x1="27.7" y1="35.2" x2="27.7" y2="35.2"/>
    <line class="st1" x1="25.2" y1="35.7" x2="25.2" y2="35.7"/>
    <line class="st1" x1="31.9" y1="25.7" x2="31.9" y2="25.7"/>
    <line class="st1" x1="23.6" y1="16.6" x2="23.6" y2="16.6"/>
</g>
</svg>
