<svg id="Layer_1" data-name="Layer 1" xmlns="http://www.w3.org/2000/svg" width="54.31" height="54.41" viewBox="0 0 54.31 54.41"><defs><style>.cls-1,.cls-2,.cls-3{fill:none;}.cls-1,.cls-2{stroke:#000;}.cls-1{stroke-width:0.3px;}.cls-2{stroke-linecap:round;stroke-width:0.7px;}</style></defs><title>606</title><path class="cls-1" d="M48,1.11,46,2.36,48.2,4.11,49,6.61s2.5.25,2.75-1.25S50,1.36,48,1.11Z"/><path class="cls-1" d="M54.18,19.81c1,1.21,4.2,1,4.2,1l-.8-2.39L55.18,15C53.78,16.21,53.18,18.61,54.18,19.81Z"/><polygon class="cls-1" points="48.2 28.6 51.13 29.68 53.2 25.25 51.28 24.74 49.9 25.54 48.09 25.2 48.2 28.6"/><polygon class="cls-1" points="53.2 11.77 56.2 13.37 59.4 12.16 57 8.77 53 7.57 52 9.37 53.2 11.77"/><polygon class="cls-1" points="51.7 -3.13 50.2 -0.89 50.95 0.61 52.95 0.61 54.2 -2.13 51.7 -3.13"/><polyline class="cls-1" points="45.61 11.87 47.2 11.87 49.95 9.37 45.61 5.94"/><polyline class="cls-1" points="45.61 0.2 47.08 -0.14 47.08 -3.38 45.61 -4.24"/><polygon class="cls-1" points="48.07 14.55 48.82 16.55 51.07 15.55 51.32 12.3 49.07 12.8 48.07 14.55"/><polyline class="cls-1" points="45.61 17.38 47.7 18.86 47.2 22.36 45.61 21.73"/><polygon class="cls-1" points="49.2 22.36 52.7 22.11 51.2 17.86 49.2 22.36"/><polygon class="cls-1" points="50.07 32.74 50.82 34.74 54.57 34.99 57.82 34.24 57.32 31.24 54.57 29.49 50.07 32.74"/><polyline class="cls-1" points="45.61 32.68 46.7 31.86 46.95 29.36 45.61 29.54"/><polyline class="cls-1" points="51.27 37.8 52.45 36.49 52.45 37.8"/><polyline class="cls-1" points="45.61 35.8 45.95 35.74 47.95 33.99 48.58 37.8"/><line class="cls-2" x1="51.45" y1="2.11" x2="51.45" y2="2.11"/><line class="cls-2" x1="53.32" y1="4.61" x2="53.32" y2="4.61"/><line class="cls-2" x1="50.82" y1="8.11" x2="50.82" y2="8.11"/><line class="cls-2" x1="47.2" y1="5.61" x2="47.2" y2="5.61"/><line class="cls-2" x1="50.07" y1="35.49" x2="50.07" y2="35.49"/><line class="cls-2" x1="46.95" y1="33.53" x2="46.95" y2="33.53"/><line class="cls-2" x1="48.61" y1="30.95" x2="48.61" y2="30.95"/><line class="cls-2" x1="52.2" y1="30.2" x2="52.2" y2="30.2"/><line class="cls-2" x1="50.7" y1="11.24" x2="50.7" y2="11.24"/><line class="cls-2" x1="47.2" y1="13.49" x2="47.2" y2="13.49"/><line class="cls-2" x1="47.32" y1="16.86" x2="47.32" y2="16.86"/><line class="cls-2" x1="49.32" y1="18.61" x2="49.32" y2="18.61"/><line class="cls-2" x1="52.57" y1="17.36" x2="52.57" y2="17.36"/><line class="cls-2" x1="53.07" y1="14.24" x2="53.07" y2="14.24"/><line class="cls-2" x1="53.45" y1="20.61" x2="53.45" y2="20.61"/><line class="cls-2" x1="52.95" y1="23.86" x2="52.95" y2="23.86"/><line class="cls-2" x1="49.07" y1="24.11" x2="49.07" y2="24.11"/><line class="cls-2" x1="46.32" y1="23.61" x2="46.32" y2="23.61"/><line class="cls-2" x1="46.57" y1="27.61" x2="46.57" y2="27.61"/><line class="cls-2" x1="54.57" y1="27.61" x2="54.57" y2="27.61"/><rect class="cls-3" x="45.61" y="-16.32" width="54.13" height="54.13"/><polygon class="cls-1" points="58.17 46.72 55.97 45.12 52.77 46.12 54.17 47.91 54.17 49.91 58.17 46.72"/><polygon class="cls-1" points="51.7 50.99 50.2 53.24 50.95 54.74 52.95 54.74 54.2 51.99 51.7 50.99"/><polyline class="cls-1" points="45.61 46.48 46.95 46.24 47.45 48.49 50.45 48.24 51.7 41.24 47.45 40.24 45.61 41.27"/><polyline class="cls-1" points="55.17 37.8 53.95 39.49 54.7 42.24 56.7 41.49 58.95 43.99 59.7 40.74 56.94 37.8"/><polyline class="cls-1" points="52.45 37.8 52.45 38.99 50.2 38.99 51.27 37.8"/><polyline class="cls-1" points="45.61 54.33 47.08 53.99 47.08 50.74 45.61 49.89"/><polyline class="cls-1" points="45.61 38.93 48.7 38.49 48.58 37.8"/><line class="cls-1" x1="52.45" y1="37.8" x2="51.27" y2="37.8"/><line class="cls-2" x1="52.95" y1="43.16" x2="52.95" y2="43.16"/><line class="cls-2" x1="52.7" y1="40.36" x2="52.7" y2="40.36"/><line class="cls-2" x1="48.45" y1="39.36" x2="48.45" y2="39.36"/><line class="cls-2" x1="52.07" y1="47.99" x2="52.07" y2="47.99"/><line class="cls-2" x1="47.7" y1="49.86" x2="47.7" y2="49.86"/><line class="cls-2" x1="49.82" y1="51.36" x2="49.82" y2="51.36"/><line class="cls-2" x1="48.45" y1="53.74" x2="48.45" y2="53.74"/><rect class="cls-3" x="45.61" y="37.8" width="54.13" height="54.13"/><path class="cls-1" d="M12.14,11.1l-2,2-2,.51v1.87a2.45,2.45,0,0,0,1.19,1c.68.17,3.06.34,3.91-.51s.85-3.4.85-3.4Z"/><polygon class="cls-1" points="11.37 9.66 10.57 8.27 8.97 7.87 7.97 10.27 9.57 10.87 11.37 9.66"/><polygon class="cls-1" points="13.02 -0.64 8.42 0.56 7.82 4.57 10.82 5.37 12.22 2.77 14.42 1.76 13.02 -0.64"/><path class="cls-1" d="M14.82,15.61l4,1.75s.75-2,0-2.5a11.69,11.69,0,0,1-1.5-1.25Z"/><polygon class="cls-1" points="19.32 11.12 20.82 13.7 23.15 10.7 19.32 11.12"/><path class="cls-1" d="M10.15,20.53c.5-1.25-1.25-1.5-2.25-2l-.25,3S9.65,21.78,10.15,20.53Z"/><polygon class="cls-1" points="31.82 8.37 33.32 7.12 29.82 5.12 30.07 6.87 31.82 8.37"/><polygon class="cls-1" points="27.32 12.62 30.52 14.62 30.92 9.81 26.72 8.62 25.12 9.62 27.32 12.62"/><polygon class="cls-1" points="24.32 18.11 27.32 16.11 24.52 14.31 23.32 13.91 22.32 15.52 24.32 18.11"/><path class="cls-1" d="M.82,3.36a4.23,4.23,0,0,0,2,3L5.22,8,6,5Z"/><polygon class="cls-1" points="32.57 16.36 35.57 16.36 37.17 15.16 34.57 13.56 32.57 16.36"/><path class="cls-1" d="M28.07,21.11s1.2,2.2,2,2.2a3.88,3.88,0,0,0,3-2.39,2.87,2.87,0,0,0-1-2.61l-4-.6-2,2.6Z"/><path class="cls-1" d="M18.82,22.78l1.2,2.4s2.8,1.4,3.2-.4a4.84,4.84,0,0,0-.4-3.2l-4.4-1.8L17,22.38Z"/><path class="cls-1" d="M.06,19.81c1,1.21,4.2,1,4.2,1l-.8-2.39L1.06,15C-.34,16.21-.94,18.61.06,19.81Z"/><polygon class="cls-1" points="12.42 18.77 13.02 20.77 13.42 23.96 14.82 22.36 14.82 19.16 12.42 18.77"/><polygon class="cls-1" points="3.92 -3.79 2.72 -0.58 4.12 2.02 6.12 1.81 6.72 -1.58 3.92 -3.79"/><polygon class="cls-1" points="28.32 5.5 26.92 4.1 25.32 4.1 23.92 2.9 22.32 5.9 24.32 8.3 28.32 5.5"/><polygon class="cls-1" points="8.57 28.32 10.57 30.11 14.17 30.32 17.37 28.91 14.97 26.32 12.17 25.71 9.17 25.91 8.57 28.32"/><polygon class="cls-1" points="23.32 26.61 26.12 28.82 27.52 26.21 26.52 24.21 23.32 26.61"/><polygon class="cls-1" points="34.02 24.77 31.82 23.57 30.82 26.57 32.62 28.36 36.62 28.57 35.82 25.36 34.02 24.77"/><polygon class="cls-1" points="42.27 15.27 40.17 12.87 39.57 15.87 37.77 17.36 41.37 19.16 42.27 15.27"/><polygon class="cls-1" points="-0.93 11.77 2.07 13.37 5.27 12.16 2.87 8.77 -1.13 7.57 -2.13 9.37 -0.93 11.77"/><polygon class="cls-1" points="-2.43 -3.13 -3.93 -0.89 -3.18 0.61 -1.18 0.61 0.07 -2.13 -2.43 -3.13"/><polygon class="cls-1" points="14.2 3.55 12.95 6.55 15.7 7.05 16.95 9.55 21.45 6.8 18.2 2.8 14.2 3.55"/><polygon class="cls-1" points="38.82 31.86 37.57 29.36 36.57 30.86 37.07 33.37 38.82 31.86"/><polygon class="cls-1" points="27.82 1.11 26.57 -0.64 24.07 -0.64 22.07 -1.64 20.32 0.86 21.57 1.86 27.82 1.11"/><polygon class="cls-1" points="36.32 4.12 36.32 1.36 34.57 -0.14 35.82 -2.88 29.57 -1.39 29.82 1.61 32.32 3.87 36.32 4.12"/><polygon class="cls-1" points="-4.05 32.74 -3.3 34.74 0.45 34.99 3.7 34.24 3.2 31.24 0.45 29.49 -4.05 32.74"/><polygon class="cls-1" points="4.07 28.49 4.32 30.49 7.82 30.49 7.07 28.24 4.07 28.49"/><polygon class="cls-1" points="11.76 32.95 13.26 35.45 16.01 32.95 13.76 31.95 11.76 32.95"/><polygon class="cls-1" points="21.07 36.12 24.32 35.37 25.57 31.61 23.32 28.61 19.32 27.36 18.07 31.36 21.07 36.12"/><polygon class="cls-1" points="27.57 29.36 29.57 33.12 32.82 31.61 30.57 29.61 27.57 29.36"/><polygon class="cls-1" points="41.32 28.36 43.57 22.86 40.07 20.86 36.32 21.86 38.07 25.61 41.32 28.36"/><polygon class="cls-1" points="1.32 23.86 2.82 26.86 7.07 25.11 6.57 22.86 1.32 23.86"/><polygon class="cls-1" points="41.32 6.62 44.07 3.37 42.07 1.11 41.07 -1.64 37.57 -0.39 38.57 4.87 41.32 6.62"/><polygon class="cls-1" points="41.57 10.37 39.07 7.87 35.82 6.62 34.32 9.12 38.07 11.87 41.57 10.37"/><polygon class="cls-1" points="34.07 33.87 31.82 35.87 35.57 36.87 40.07 35.37 34.07 33.87"/><polyline class="cls-1" points="45.61 5.94 45.2 5.62 43.95 8.62 43.2 11.87 45.61 11.87"/><polyline class="cls-1" points="45.61 -4.24 44.08 -5.13 43.08 -2.38 43.83 0.61 45.61 0.2"/><polyline class="cls-1" points="45.61 17.38 44.2 16.36 44.7 21.36 45.61 21.73"/><polyline class="cls-1" points="1.05 37.8 1.82 36.74 2.82 37.8"/><polyline class="cls-1" points="12.53 37.8 9.82 33.74 5.32 33.99 6.17 37.8"/><polyline class="cls-1" points="14.62 37.8 17.07 34.24 18.57 35.24 19.07 37.74 18.99 37.8"/><polyline class="cls-1" points="25.95 37.8 25.82 35.99 27.57 34.74 29.48 37.8"/><polyline class="cls-1" points="45.61 35.8 43.2 36.24 43.33 37.8"/><polyline class="cls-1" points="45.61 29.54 43.2 29.86 40.45 32.87 43.7 34.12 45.61 32.68"/><line class="cls-2" x1="0.95" y1="0.74" x2="0.95" y2="0.74"/><line class="cls-2" x1="2.57" y1="2.49" x2="2.57" y2="2.49"/><line class="cls-2" x1="1.2" y1="6.86" x2="1.2" y2="6.86"/><line class="cls-2" x1="5.82" y1="10.11" x2="5.82" y2="10.11"/><line class="cls-2" x1="7.57" y1="6.61" x2="7.57" y2="6.61"/><line class="cls-2" x1="6.45" y1="3.49" x2="6.45" y2="3.49"/><line class="cls-2" x1="17.2" y1="1.61" x2="17.2" y2="1.61"/><line class="cls-2" x1="20.2" y1="2.74" x2="20.2" y2="2.74"/><line class="cls-2" x1="21.45" y1="4.74" x2="21.45" y2="4.74"/><line class="cls-2" x1="28.49" y1="-0.05" x2="28.49" y2="-0.05"/><line class="cls-2" x1="25.74" y1="2.78" x2="25.74" y2="2.78"/><line class="cls-2" x1="28.57" y1="2.86" x2="28.57" y2="2.86"/><line class="cls-2" x1="30.9" y1="4.36" x2="30.9" y2="4.36"/><line class="cls-2" x1="33.74" y1="5.53" x2="33.74" y2="5.53"/><line class="cls-2" x1="27.82" y1="7.53" x2="27.82" y2="7.53"/><line class="cls-2" x1="30.07" y1="8.36" x2="30.07" y2="8.36"/><line class="cls-2" x1="32.32" y1="9.53" x2="32.32" y2="9.53"/><line class="cls-2" x1="32.24" y1="12.2" x2="32.24" y2="12.2"/><line class="cls-2" x1="35.32" y1="12.03" x2="35.32" y2="12.03"/><line class="cls-2" x1="37.9" y1="13.78" x2="37.9" y2="13.78"/><line class="cls-2" x1="41.49" y1="12.03" x2="41.49" y2="12.03"/><line class="cls-2" x1="43.95" y1="14.36" x2="43.95" y2="14.36"/><line class="cls-2" x1="39.9" y1="7.2" x2="39.9" y2="7.2"/><line class="cls-2" x1="42.24" y1="8.7" x2="42.24" y2="8.7"/><line class="cls-2" x1="44.4" y1="1.95" x2="44.4" y2="1.95"/><line class="cls-2" x1="43.99" y1="5.61" x2="43.99" y2="5.61"/><line class="cls-2" x1="42.9" y1="17.78" x2="42.9" y2="17.78"/><line class="cls-2" x1="42.9" y1="20.7" x2="42.9" y2="20.7"/><line class="cls-2" x1="39.15" y1="19.7" x2="39.15" y2="19.7"/><line class="cls-2" x1="36.74" y1="17.03" x2="36.74" y2="17.03"/><line class="cls-2" x1="36.65" y1="19.53" x2="36.65" y2="19.53"/><line class="cls-2" x1="33.99" y1="18.03" x2="33.99" y2="18.03"/><line class="cls-2" x1="32.15" y1="14.45" x2="32.15" y2="14.45"/><line class="cls-2" x1="29.32" y1="16.03" x2="29.32" y2="16.03"/><line class="cls-2" x1="31.4" y1="17.28" x2="31.4" y2="17.28"/><line class="cls-2" x1="26.74" y1="17.78" x2="26.74" y2="17.78"/><line class="cls-2" x1="34.49" y1="20.61" x2="34.49" y2="20.61"/><line class="cls-2" x1="32.82" y1="22.7" x2="32.82" y2="22.7"/><line class="cls-2" x1="35.4" y1="23.2" x2="35.4" y2="23.2"/><line class="cls-2" x1="36.9" y1="25.2" x2="36.9" y2="25.2"/><line class="cls-2" x1="38.15" y1="27.86" x2="38.15" y2="27.86"/><line class="cls-2" x1="44.07" y1="25.7" x2="44.07" y2="25.7"/><line class="cls-2" x1="43.65" y1="28.2" x2="43.65" y2="28.2"/><line class="cls-2" x1="40.74" y1="30.03" x2="40.74" y2="30.03"/><line class="cls-2" x1="35.49" y1="29.86" x2="35.49" y2="29.86"/><line class="cls-2" x1="32.65" y1="29.86" x2="32.65" y2="29.86"/><line class="cls-2" x1="30.49" y1="28.03" x2="30.49" y2="28.03"/><line class="cls-2" x1="27.82" y1="28.28" x2="27.82" y2="28.28"/><line class="cls-2" x1="29.32" y1="25.2" x2="29.32" y2="25.2"/><line class="cls-2" x1="27.82" y1="22.95" x2="27.82" y2="22.95"/><line class="cls-2" x1="25.07" y1="23.7" x2="25.07" y2="23.7"/><line class="cls-2" x1="24.9" y1="20.78" x2="24.9" y2="20.78"/><line class="cls-2" x1="23.49" y1="19.2" x2="23.49" y2="19.2"/><line class="cls-2" x1="21.65" y1="20.03" x2="21.65" y2="20.03"/><line class="cls-2" x1="34.4" y1="32.03" x2="34.4" y2="32.03"/><line class="cls-2" x1="39.45" y1="33.74" x2="39.45" y2="33.74"/><line class="cls-2" x1="44.07" y1="35.11" x2="44.07" y2="35.11"/><line class="cls-2" x1="40.45" y1="36.61" x2="40.45" y2="36.61"/><line class="cls-2" x1="32.32" y1="33.61" x2="32.32" y2="33.61"/><line class="cls-2" x1="28.82" y1="33.99" x2="28.82" y2="33.99"/><line class="cls-2" x1="26.24" y1="30.86" x2="26.24" y2="30.86"/><line class="cls-2" x1="26.24" y1="34.2" x2="26.24" y2="34.2"/><line class="cls-2" x1="24.4" y1="28.45" x2="24.4" y2="28.45"/><line class="cls-2" x1="21.07" y1="26.86" x2="21.07" y2="26.86"/><line class="cls-2" x1="24.32" y1="36.78" x2="24.32" y2="36.78"/><line class="cls-2" x1="19.65" y1="35.53" x2="19.65" y2="35.53"/><line class="cls-2" x1="17.74" y1="33.2" x2="17.74" y2="33.2"/><line class="cls-2" x1="16.4" y1="31.03" x2="16.4" y2="31.03"/><line class="cls-2" x1="17.82" y1="26.95" x2="17.82" y2="26.95"/><line class="cls-2" x1="17.9" y1="24.2" x2="17.9" y2="24.2"/><line class="cls-2" x1="15.99" y1="22.36" x2="15.99" y2="22.36"/><line class="cls-2" x1="15.49" y1="25.36" x2="15.49" y2="25.36"/><line class="cls-2" x1="8.24" y1="25.7" x2="8.24" y2="25.7"/><line class="cls-2" x1="5.24" y1="27.28" x2="5.24" y2="27.28"/><line class="cls-2" x1="8.99" y1="30.28" x2="8.99" y2="30.28"/><line class="cls-2" x1="12.74" y1="31.53" x2="12.74" y2="31.53"/><line class="cls-2" x1="10.65" y1="33.03" x2="10.65" y2="33.03"/><line class="cls-2" x1="15.15" y1="35.2" x2="15.15" y2="35.2"/><line class="cls-2" x1="12.9" y1="36.95" x2="12.9" y2="36.95"/><line class="cls-2" x1="6.74" y1="31.53" x2="6.74" y2="31.53"/><line class="cls-2" x1="4.82" y1="33.2" x2="4.82" y2="33.2"/><line class="cls-2" x1="2.9" y1="29.78" x2="2.9" y2="29.78"/><line class="cls-2" x1="3.99" y1="36.45" x2="3.99" y2="36.45"/><line class="cls-2" x1="0.82" y1="35.86" x2="0.82" y2="35.86"/><line class="cls-2" x1="30.32" y1="36.49" x2="30.32" y2="36.49"/><line class="cls-2" x1="37.15" y1="5.7" x2="37.15" y2="5.7"/><line class="cls-2" x1="12.82" y1="3.86" x2="12.82" y2="3.86"/><line class="cls-2" x1="11.45" y1="6.74" x2="11.45" y2="6.74"/><line class="cls-2" x1="14.57" y1="8.36" x2="14.57" y2="8.36"/><line class="cls-2" x1="12.57" y1="10.11" x2="12.57" y2="10.11"/><line class="cls-2" x1="15.32" y1="11.61" x2="15.32" y2="11.61"/><line class="cls-2" x1="8.2" y1="12.36" x2="8.2" y2="12.36"/><line class="cls-2" x1="5.45" y1="13.74" x2="5.45" y2="13.74"/><line class="cls-2" x1="3.32" y1="15.99" x2="3.32" y2="15.99"/><line class="cls-2" x1="6.82" y1="16.24" x2="6.82" y2="16.24"/><line class="cls-2" x1="5.45" y1="18.49" x2="5.45" y2="18.49"/><line class="cls-2" x1="5.95" y1="21.49" x2="5.95" y2="21.49"/><line class="cls-2" x1="1.82" y1="22.74" x2="1.82" y2="22.74"/><line class="cls-2" x1="0.45" y1="27.61" x2="0.45" y2="27.61"/><line class="cls-2" x1="9.95" y1="17.99" x2="9.95" y2="17.99"/><line class="cls-2" x1="13.95" y1="17.61" x2="13.95" y2="17.61"/><line class="cls-2" x1="11.45" y1="20.61" x2="11.45" y2="20.61"/><line class="cls-2" x1="11.57" y1="24.49" x2="11.57" y2="24.49"/><line class="cls-2" x1="8.82" y1="23.11" x2="8.82" y2="23.11"/><line class="cls-2" x1="18.32" y1="12.11" x2="18.32" y2="12.11"/><line class="cls-2" x1="20.2" y1="9.36" x2="20.2" y2="9.36"/><line class="cls-2" x1="20.2" y1="14.86" x2="20.2" y2="14.86"/><line class="cls-2" x1="24.57" y1="12.74" x2="24.57" y2="12.74"/><line class="cls-2" x1="26.95" y1="14.24" x2="26.95" y2="14.24"/><line class="cls-2" x1="21.95" y1="17.86" x2="21.95" y2="17.86"/><line class="cls-2" x1="19.07" y1="18.74" x2="19.07" y2="18.74"/><line class="cls-2" x1="16.57" y1="19.24" x2="16.57" y2="19.24"/><line class="cls-2" x1="23.32" y1="9.24" x2="23.32" y2="9.24"/><line class="cls-2" x1="14.95" y1="0.11" x2="14.95" y2="0.11"/><rect class="cls-3" x="-8.51" y="-16.32" width="54.13" height="54.13"/><polygon class="cls-1" points="13.02 53.49 8.42 54.69 7.82 58.69 10.82 59.49 12.22 56.89 14.42 55.89 13.02 53.49"/><polygon class="cls-1" points="21.45 42.75 20.02 40.09 16.96 40.91 17.57 44.99 22.26 46.21 23.69 43.77 21.45 42.75"/><polygon class="cls-1" points="13.32 42.18 11.32 42.18 9.82 42.68 9.32 44.43 13.32 45.93 13.32 42.18"/><polygon class="cls-1" points="16.72 45.91 14.52 49.91 18.72 51.72 19.2 52.87 20.6 50.87 19.32 47.91 16.72 45.91"/><path class="cls-1" d="M8.52,52.78l3.36-2.16.24-3.12L5.88,45.1v2.4s1,1.92,1.68,2.16S8.52,52.78,8.52,52.78Z"/><polygon class="cls-1" points="3.92 50.34 2.72 53.54 4.12 56.14 6.12 55.94 6.72 52.54 3.92 50.34"/><polygon class="cls-1" points="27.57 46.87 25.41 45.19 24.21 49.03 25.89 51.43 27.57 49.99 27.57 46.87"/><polygon class="cls-1" points="4.05 46.72 1.85 45.12 -1.35 46.12 0.05 47.91 0.05 49.91 4.05 46.72"/><polygon class="cls-1" points="-2.43 50.99 -3.93 53.24 -3.18 54.74 -1.18 54.74 0.07 51.99 -2.43 50.99"/><polyline class="cls-1" points="1.05 37.8 -0.18 39.49 0.57 42.24 2.57 41.49 4.82 43.99 5.57 40.74 2.82 37.8"/><polygon class="cls-1" points="42.07 41.49 38.57 39.24 34.32 38.93 33.07 41.93 37.07 42.74 38.32 44.99 42.07 41.49"/><polyline class="cls-1" points="6.17 37.8 6.32 38.49 12.32 40.49 12.82 38.24 12.53 37.8"/><polyline class="cls-1" points="18.99 37.8 17.82 38.74 14.32 38.24 14.62 37.8"/><polyline class="cls-1" points="25.95 37.8 26.07 39.49 25.57 42.49 29.07 43.74 31.32 40.74 29.48 37.8"/><polygon class="cls-1" points="23.82 41.49 23.32 37.99 22.07 39.49 23.82 41.49"/><polygon class="cls-1" points="35.26 45.05 32.01 43.8 30.01 45.05 29.26 47.05 30.26 50.05 34.01 49.3 35.26 45.05"/><polygon class="cls-1" points="27.82 55.24 26.57 53.49 24.07 53.49 22.07 52.49 20.32 54.99 21.57 55.99 27.82 55.24"/><polygon class="cls-1" points="36.32 58.24 36.32 55.49 34.57 53.99 35.82 51.24 29.57 52.74 29.82 55.74 32.32 57.99 36.32 58.24"/><polygon class="cls-1" points="42.32 48.99 40.07 47.24 36.57 47.49 39.07 50.24 42.32 48.99"/><polygon class="cls-1" points="41.32 60.74 44.07 57.49 42.07 55.24 41.07 52.49 37.57 53.74 38.57 58.99 41.32 60.74"/><polyline class="cls-1" points="45.61 41.27 43.45 42.49 44.2 46.74 45.61 46.48"/><polyline class="cls-1" points="45.61 49.89 44.08 48.99 43.08 51.74 43.83 54.74 45.61 54.33"/><polyline class="cls-1" points="45.61 38.93 43.45 39.24 43.33 37.8"/><line class="cls-2" x1="2.07" y1="43.61" x2="2.07" y2="43.61"/><line class="cls-2" x1="4.45" y1="45.61" x2="4.45" y2="45.61"/><line class="cls-2" x1="7.32" y1="43.36" x2="7.32" y2="43.36"/><line class="cls-2" x1="6.82" y1="40.11" x2="6.82" y2="40.11"/><line class="cls-2" x1="9.82" y1="41.11" x2="9.82" y2="41.11"/><line class="cls-2" x1="4.2" y1="48.99" x2="4.2" y2="48.99"/><line class="cls-2" x1="1.7" y1="50.99" x2="1.7" y2="50.99"/><line class="cls-2" x1="13.82" y1="39.11" x2="13.82" y2="39.11"/><line class="cls-2" x1="15.07" y1="41.99" x2="15.07" y2="41.99"/><line class="cls-2" x1="15.57" y1="45.11" x2="15.57" y2="45.11"/><line class="cls-2" x1="14.07" y1="47.61" x2="14.07" y2="47.61"/><line class="cls-2" x1="13.07" y1="51.24" x2="13.07" y2="51.24"/><line class="cls-2" x1="10.45" y1="53.11" x2="10.45" y2="53.11"/><line class="cls-2" x1="16.7" y1="52.36" x2="16.7" y2="52.36"/><line class="cls-2" x1="20.57" y1="52.86" x2="20.57" y2="52.86"/><line class="cls-2" x1="22.32" y1="50.36" x2="22.32" y2="50.36"/><line class="cls-2" x1="20.57" y1="47.36" x2="20.57" y2="47.36"/><line class="cls-2" x1="22.82" y1="47.49" x2="22.82" y2="47.49"/><line class="cls-2" x1="24.7" y1="44.24" x2="24.7" y2="44.24"/><line class="cls-2" x1="24.82" y1="39.57" x2="24.82" y2="39.57"/><line class="cls-2" x1="27.9" y1="44.32" x2="27.9" y2="44.32"/><line class="cls-2" x1="28.49" y1="46.32" x2="28.49" y2="46.32"/><line class="cls-2" x1="24.49" y1="52.24" x2="24.49" y2="52.24"/><line class="cls-2" x1="29.07" y1="49.99" x2="29.07" y2="49.99"/><line class="cls-2" x1="27.32" y1="51.99" x2="27.32" y2="51.99"/><line class="cls-2" x1="28.49" y1="54.07" x2="28.49" y2="54.07"/><line class="cls-2" x1="30.9" y1="51.32" x2="30.9" y2="51.32"/><line class="cls-2" x1="34.74" y1="50.32" x2="34.74" y2="50.32"/><line class="cls-2" x1="37.4" y1="50.32" x2="37.4" y2="50.32"/><line class="cls-2" x1="36.74" y1="52.74" x2="36.74" y2="52.74"/><line class="cls-2" x1="39.65" y1="51.57" x2="39.65" y2="51.57"/><line class="cls-2" x1="42.24" y1="50.32" x2="42.24" y2="50.32"/><line class="cls-2" x1="42.49" y1="53.24" x2="42.49" y2="53.24"/><line class="cls-2" x1="36.95" y1="37.99" x2="36.95" y2="37.99"/><line class="cls-2" x1="41.57" y1="39.36" x2="41.57" y2="39.36"/><line class="cls-2" x1="44.95" y1="40.49" x2="44.95" y2="40.49"/><line class="cls-2" x1="31.24" y1="43.07" x2="31.24" y2="43.07"/><line class="cls-2" x1="31.74" y1="38.99" x2="31.74" y2="38.99"/><line class="cls-2" x1="34.9" y1="43.49" x2="34.9" y2="43.49"/><line class="cls-2" x1="37.07" y1="45.66" x2="37.07" y2="45.66"/><line class="cls-2" x1="41.7" y1="46.11" x2="41.7" y2="46.11"/><line class="cls-2" x1="41.82" y1="44.07" x2="41.82" y2="44.07"/><line class="cls-2" x1="44.32" y1="47.86" x2="44.32" y2="47.86"/><line class="cls-2" x1="22.32" y1="41.61" x2="22.32" y2="41.61"/><line class="cls-2" x1="20.2" y1="38.61" x2="20.2" y2="38.61"/><line class="cls-2" x1="14.95" y1="54.24" x2="14.95" y2="54.24"/><rect class="cls-3" x="-8.51" y="37.8" width="54.13" height="54.13"/><rect class="cls-3" width="54.31" height="54.31"/></svg>