<svg id="Layer_1" data-name="Layer 1" xmlns="http://www.w3.org/2000/svg" width="49.68" height="49.68" viewBox="0 0 49.68 49.68"><defs><style>.cls-1,.cls-2{fill:none;}.cls-1{stroke:#000;stroke-linecap:round;stroke-width:0.7px;}</style></defs><title>607</title><line class="cls-1" x1="44.42" y1="1.19" x2="44.42" y2="1.19"/><line class="cls-1" x1="37" y1="4.81" x2="37" y2="4.81"/><line class="cls-1" x1="44.42" y1="5.33" x2="44.42" y2="5.33"/><line class="cls-1" x1="48.39" y1="5.33" x2="48.39" y2="5.33"/><line class="cls-1" x1="49.42" y1="2.74" x2="49.42" y2="2.74"/><line class="cls-1" x1="32.69" y1="22.75" x2="32.69" y2="22.75"/><line class="cls-1" x1="32.86" y1="24.3" x2="32.86" y2="24.3"/><line class="cls-1" x1="29.41" y1="24.3" x2="29.41" y2="24.3"/><line class="cls-1" x1="34.59" y1="30.86" x2="34.59" y2="30.86"/><line class="cls-1" x1="28.55" y1="33.62" x2="28.55" y2="33.62"/><line class="cls-1" x1="35.45" y1="35.69" x2="35.45" y2="35.69"/><path class="cls-1" d="M40.63,31.89h0"/><line class="cls-1" x1="39.07" y1="29.65" x2="39.07" y2="29.65"/><line class="cls-1" x1="41.32" y1="26.55" x2="41.32" y2="26.55"/><line class="cls-1" x1="36.31" y1="29.48" x2="36.31" y2="29.48"/><line class="cls-1" x1="39.07" y1="24.48" x2="39.07" y2="24.48"/><line class="cls-1" x1="41.14" y1="21.89" x2="41.14" y2="21.89"/><line class="cls-1" x1="38.04" y1="21.89" x2="38.04" y2="21.89"/><line class="cls-1" x1="39.07" y1="19.3" x2="39.07" y2="19.3"/><line class="cls-1" x1="46.66" y1="24.13" x2="46.66" y2="24.13"/><line class="cls-1" x1="49.94" y1="25.17" x2="49.94" y2="25.17"/><line class="cls-1" x1="49.25" y1="27.41" x2="49.25" y2="27.41"/><line class="cls-1" x1="45.8" y1="30.69" x2="45.8" y2="30.69"/><line class="cls-1" x1="42.01" y1="2.22" x2="42.01" y2="2.22"/><line class="cls-1" x1="46.55" y1="14.76" x2="46.55" y2="14.76"/><line class="cls-1" x1="48.39" y1="11.19" x2="48.39" y2="11.19"/><line class="cls-1" x1="35.05" y1="5.7" x2="35.05" y2="5.7"/><line class="cls-1" x1="32" y1="8.43" x2="32" y2="8.43"/><line class="cls-1" x1="29.59" y1="11.02" x2="29.59" y2="11.02"/><line class="cls-1" x1="39.59" y1="15.68" x2="39.59" y2="15.68"/><line class="cls-1" x1="37.52" y1="10.16" x2="37.52" y2="10.16"/><line class="cls-1" x1="46.15" y1="7.57" x2="46.15" y2="7.57"/><line class="cls-1" x1="48.91" y1="14.13" x2="48.91" y2="14.13"/><line class="cls-1" x1="32.35" y1="0.84" x2="32.35" y2="0.84"/><line class="cls-1" x1="35.97" y1="2.91" x2="35.97" y2="2.91"/><line class="cls-1" x1="29.93" y1="4.47" x2="29.93" y2="4.47"/><line class="cls-1" x1="40.63" y1="-0.02" x2="40.63" y2="-0.02"/><line class="cls-1" x1="42.52" y1="12.23" x2="42.52" y2="12.23"/><line class="cls-1" x1="28.38" y1="17.23" x2="28.38" y2="17.23"/><line class="cls-1" x1="30.97" y1="28.1" x2="30.97" y2="28.1"/><line class="cls-1" x1="46.15" y1="27.75" x2="46.15" y2="27.75"/><line class="cls-1" x1="33.9" y1="14.47" x2="33.9" y2="14.47"/><line class="cls-1" x1="41.49" y1="4.98" x2="41.49" y2="4.98"/><line class="cls-1" x1="30.45" y1="14.82" x2="30.45" y2="14.82"/><line class="cls-1" x1="32.86" y1="5.85" x2="32.86" y2="5.85"/><line class="cls-1" x1="38.9" y1="8.61" x2="38.9" y2="8.61"/><line class="cls-1" x1="35.11" y1="9.81" x2="35.11" y2="9.81"/><line class="cls-1" x1="31.48" y1="12.23" x2="31.48" y2="12.23"/><line class="cls-1" x1="30.1" y1="0.84" x2="30.1" y2="0.84"/><line class="cls-1" x1="42.01" y1="7.92" x2="42.01" y2="7.92"/><line class="cls-1" x1="39.94" y1="11.19" x2="39.94" y2="11.19"/><line class="cls-1" x1="38.9" y1="13.61" x2="38.9" y2="13.61"/><line class="cls-1" x1="36.66" y1="15.16" x2="36.66" y2="15.16"/><line class="cls-1" x1="36.66" y1="18.78" x2="36.66" y2="18.78"/><line class="cls-1" x1="43.73" y1="20.51" x2="43.73" y2="20.51"/><line class="cls-1" x1="35.45" y1="24.3" x2="35.45" y2="24.3"/><line class="cls-1" x1="38.56" y1="27.06" x2="38.56" y2="27.06"/><line class="cls-1" x1="32" y1="30.51" x2="32" y2="30.51"/><line class="cls-1" x1="29.41" y1="29.48" x2="29.41" y2="29.48"/><line class="cls-1" x1="34.07" y1="33.62" x2="34.07" y2="33.62"/><line class="cls-1" x1="37.18" y1="34.65" x2="37.18" y2="34.65"/><line class="cls-1" x1="42.87" y1="35.52" x2="42.87" y2="35.52"/><line class="cls-1" x1="43.73" y1="32.07" x2="43.73" y2="32.07"/><line class="cls-1" x1="43.21" y1="28.1" x2="43.21" y2="28.1"/><line class="cls-1" x1="44.59" y1="26.37" x2="44.59" y2="26.37"/><line class="cls-1" x1="45.97" y1="19.65" x2="45.97" y2="19.65"/><line class="cls-1" x1="45.63" y1="16.71" x2="45.63" y2="16.71"/><line class="cls-1" x1="47.01" y1="2.05" x2="47.01" y2="2.05"/><line class="cls-1" x1="48.73" y1="29.65" x2="48.73" y2="29.65"/><line class="cls-1" x1="49.6" y1="33.96" x2="49.6" y2="33.96"/><line class="cls-1" x1="47.53" y1="35.86" x2="47.53" y2="35.86"/><line class="cls-1" x1="29.24" y1="6.88" x2="29.24" y2="6.88"/><line class="cls-1" x1="29.93" y1="21.89" x2="29.93" y2="21.89"/><line class="cls-1" x1="28.21" y1="26.55" x2="28.21" y2="26.55"/><line class="cls-1" x1="29.76" y1="35.86" x2="29.76" y2="35.86"/><line class="cls-1" x1="33.38" y1="19.13" x2="33.38" y2="19.13"/><line class="cls-1" x1="31.31" y1="25.86" x2="31.31" y2="25.86"/><line class="cls-1" x1="30.1" y1="32.07" x2="30.1" y2="32.07"/><line class="cls-1" x1="40.11" y1="34.83" x2="40.11" y2="34.83"/><line class="cls-1" x1="42.35" y1="30.17" x2="42.35" y2="30.17"/><line class="cls-1" x1="42.35" y1="17.92" x2="42.35" y2="17.92"/><line class="cls-1" x1="47.53" y1="21.89" x2="47.53" y2="21.89"/><line class="cls-1" x1="45.28" y1="3.6" x2="45.28" y2="3.6"/><line class="cls-1" x1="39.59" y1="6.36" x2="39.59" y2="6.36"/><line class="cls-1" x1="35.62" y1="12.06" x2="35.62" y2="12.06"/><line class="cls-1" x1="45.63" y1="35" x2="45.63" y2="35"/><line class="cls-1" x1="43.04" y1="15.51" x2="43.04" y2="15.51"/><line class="cls-1" x1="36.83" y1="0.5" x2="36.83" y2="0.5"/><line class="cls-1" x1="31.48" y1="34.83" x2="31.48" y2="34.83"/><line class="cls-1" x1="29.76" y1="8.78" x2="29.76" y2="8.78"/><line class="cls-1" x1="33.04" y1="3.95" x2="33.04" y2="3.95"/><line class="cls-1" x1="30.1" y1="19.3" x2="30.1" y2="19.3"/><line class="cls-1" x1="36.34" y1="22.66" x2="36.34" y2="22.66"/><line class="cls-1" x1="34.76" y1="27.93" x2="34.76" y2="27.93"/><line class="cls-1" x1="37.18" y1="32.07" x2="37.18" y2="32.07"/><line class="cls-1" x1="43.04" y1="23.44" x2="43.04" y2="23.44"/><line class="cls-1" x1="45.8" y1="10.16" x2="45.8" y2="10.16"/><line class="cls-1" x1="47.35" y1="32.97" x2="47.35" y2="32.97"/><line class="cls-1" x1="32.86" y1="16.37" x2="32.86" y2="16.37"/><line class="cls-1" x1="39.07" y1="2.22" x2="39.07" y2="2.22"/><line class="cls-1" x1="32.35" y1="10.16" x2="32.35" y2="10.16"/><line class="cls-1" x1="43.04" y1="9.81" x2="43.04" y2="9.81"/><line class="cls-1" x1="48.39" y1="17.23" x2="48.39" y2="17.23"/><line class="cls-1" x1="42.7" y1="33.62" x2="42.7" y2="33.62"/><line class="cls-1" x1="49.25" y1="27.41" x2="49.25" y2="27.41"/><line class="cls-1" x1="36.49" y1="8.15" x2="36.49" y2="8.15"/><line class="cls-1" x1="42.81" y1="-0.34" x2="42.81" y2="-0.34"/><line class="cls-1" x1="35.19" y1="20.8" x2="35.19" y2="20.8"/><line class="cls-1" x1="37.18" y1="32.07" x2="37.18" y2="32.07"/><line class="cls-1" x1="45.11" y1="12.46" x2="45.11" y2="12.46"/><rect class="cls-2" x="27.86" y="-13.13" width="49.68" height="49.68"/><line class="cls-1" x1="42.35" y1="38.45" x2="42.35" y2="38.45"/><line class="cls-1" x1="42.35" y1="41.21" x2="42.35" y2="41.21"/><line class="cls-1" x1="41.83" y1="43.62" x2="41.83" y2="43.62"/><line class="cls-1" x1="37.87" y1="43.8" x2="37.87" y2="43.8"/><line class="cls-1" x1="48.04" y1="48.97" x2="48.04" y2="48.97"/><line class="cls-1" x1="49.77" y1="44.49" x2="49.77" y2="44.49"/><line class="cls-1" x1="49.25" y1="38.79" x2="49.25" y2="38.79"/><line class="cls-1" x1="34.59" y1="49.32" x2="34.59" y2="49.32"/><line class="cls-1" x1="28.9" y1="42.59" x2="28.9" y2="42.59"/><line class="cls-1" x1="40.11" y1="41.04" x2="40.11" y2="41.04"/><line class="cls-1" x1="30.45" y1="40.52" x2="30.45" y2="40.52"/><line class="cls-1" x1="36.66" y1="46.21" x2="36.66" y2="46.21"/><line class="cls-1" x1="40.63" y1="49.66" x2="40.63" y2="49.66"/><line class="cls-1" x1="46.84" y1="45.69" x2="46.84" y2="45.69"/><line class="cls-1" x1="35.97" y1="37.59" x2="35.97" y2="37.59"/><line class="cls-1" x1="43.9" y1="46.04" x2="43.9" y2="46.04"/><line class="cls-1" x1="40.8" y1="47.25" x2="40.8" y2="47.25"/><line class="cls-1" x1="38.04" y1="48.28" x2="38.04" y2="48.28"/><line class="cls-1" x1="31.31" y1="44.17" x2="31.31" y2="44.17"/><line class="cls-1" x1="32.69" y1="38.28" x2="32.69" y2="38.28"/><line class="cls-1" x1="37.69" y1="42.07" x2="37.69" y2="42.07"/><line class="cls-1" x1="45.63" y1="41.21" x2="45.63" y2="41.21"/><line class="cls-1" x1="44.94" y1="48.8" x2="44.94" y2="48.8"/><line class="cls-1" x1="37" y1="39.83" x2="37" y2="39.83"/><line class="cls-1" x1="28.72" y1="47.94" x2="28.72" y2="47.94"/><line class="cls-1" x1="40.28" y1="45.18" x2="40.28" y2="45.18"/><line class="cls-1" x1="48.04" y1="43.28" x2="48.04" y2="43.28"/><line class="cls-1" x1="46.32" y1="38.97" x2="46.32" y2="38.97"/><line class="cls-1" x1="32.86" y1="47.25" x2="32.86" y2="47.25"/><line class="cls-1" x1="33.73" y1="40" x2="33.73" y2="40"/><line class="cls-1" x1="30.28" y1="38.1" x2="30.28" y2="38.1"/><line class="cls-1" x1="29.76" y1="45.52" x2="29.76" y2="45.52"/><line class="cls-1" x1="39.59" y1="38.28" x2="39.59" y2="38.28"/><line class="cls-1" x1="44.77" y1="37.07" x2="44.77" y2="37.07"/><line class="cls-1" x1="34.93" y1="42.76" x2="34.93" y2="42.76"/><line class="cls-1" x1="44.59" y1="43.62" x2="44.59" y2="43.62"/><line class="cls-1" x1="32.52" y1="42.24" x2="32.52" y2="42.24"/><line class="cls-1" x1="42.35" y1="38.45" x2="42.35" y2="38.45"/><line class="cls-1" x1="49.77" y1="44.49" x2="49.77" y2="44.49"/><line class="cls-1" x1="34.47" y1="45.75" x2="34.47" y2="45.75"/><line class="cls-1" x1="42.81" y1="49.34" x2="42.81" y2="49.34"/><rect class="cls-2" x="27.86" y="36.55" width="49.68" height="49.68"/><line class="cls-1" x1="-0.26" y1="2.74" x2="-0.26" y2="2.74"/><line class="cls-1" x1="1.64" y1="0.33" x2="1.64" y2="0.33"/><line class="cls-1" x1="10.61" y1="-0.02" x2="10.61" y2="-0.02"/><line class="cls-1" x1="5.09" y1="1.02" x2="5.09" y2="1.02"/><line class="cls-1" x1="22.34" y1="0.33" x2="22.34" y2="0.33"/><line class="cls-1" x1="22.51" y1="2.22" x2="22.51" y2="2.22"/><line class="cls-1" x1="25.1" y1="1.36" x2="25.1" y2="1.36"/><line class="cls-1" x1="0.61" y1="21.72" x2="0.61" y2="21.72"/><line class="cls-1" x1="0.26" y1="25.17" x2="0.26" y2="25.17"/><line class="cls-1" x1="3.02" y1="25.51" x2="3.02" y2="25.51"/><line class="cls-1" x1="6.99" y1="21.72" x2="6.99" y2="21.72"/><line class="cls-1" x1="8.2" y1="17.58" x2="8.2" y2="17.58"/><line class="cls-1" x1="12.85" y1="22.23" x2="12.85" y2="22.23"/><line class="cls-1" x1="13.72" y1="19.65" x2="13.72" y2="19.65"/><line class="cls-1" x1="16.13" y1="19.13" x2="16.13" y2="19.13"/><line class="cls-1" x1="16.13" y1="24.13" x2="16.13" y2="24.13"/><line class="cls-1" x1="13.54" y1="25.51" x2="13.54" y2="25.51"/><line class="cls-1" x1="11.13" y1="28.27" x2="11.13" y2="28.27"/><line class="cls-1" x1="16.3" y1="26.89" x2="16.3" y2="26.89"/><line class="cls-1" x1="18.37" y1="29.13" x2="18.37" y2="29.13"/><line class="cls-1" x1="5.09" y1="3.78" x2="5.09" y2="3.78"/><line class="cls-1" x1="10.96" y1="5.5" x2="10.96" y2="5.5"/><line class="cls-1" x1="16.3" y1="6.02" x2="16.3" y2="6.02"/><line class="cls-1" x1="13.54" y1="4.12" x2="13.54" y2="4.12"/><line class="cls-1" x1="14.06" y1="7.05" x2="14.06" y2="7.05"/><line class="cls-1" x1="21.31" y1="11.19" x2="21.31" y2="11.19"/><line class="cls-1" x1="17.34" y1="13.61" x2="17.34" y2="13.61"/><line class="cls-1" x1="11.47" y1="12.4" x2="11.47" y2="12.4"/><line class="cls-1" x1="11.3" y1="15.16" x2="11.3" y2="15.16"/><line class="cls-1" x1="11.3" y1="17.23" x2="11.3" y2="17.23"/><line class="cls-1" x1="18.89" y1="18.61" x2="18.89" y2="18.61"/><line class="cls-1" x1="21.65" y1="20.51" x2="21.65" y2="20.51"/><line class="cls-1" x1="25.45" y1="16.89" x2="25.45" y2="16.89"/><line class="cls-1" x1="20.79" y1="13.61" x2="20.79" y2="13.61"/><line class="cls-1" x1="0.61" y1="19.13" x2="0.61" y2="19.13"/><line class="cls-1" x1="6.82" y1="8.43" x2="6.82" y2="8.43"/><line class="cls-1" x1="3.88" y1="8.43" x2="3.88" y2="8.43"/><line class="cls-1" x1="22.51" y1="7.05" x2="22.51" y2="7.05"/><line class="cls-1" x1="26.14" y1="7.23" x2="26.14" y2="7.23"/><line class="cls-1" x1="26.14" y1="32.07" x2="26.14" y2="32.07"/><line class="cls-1" x1="17.86" y1="34.31" x2="17.86" y2="34.31"/><line class="cls-1" x1="6.13" y1="33.62" x2="6.13" y2="33.62"/><line class="cls-1" x1="3.88" y1="20.16" x2="3.88" y2="20.16"/><line class="cls-1" x1="14.23" y1="12.92" x2="14.23" y2="12.92"/><line class="cls-1" x1="22.86" y1="18.27" x2="22.86" y2="18.27"/><line class="cls-1" x1="13.54" y1="32.41" x2="13.54" y2="32.41"/><line class="cls-1" x1="5.78" y1="12.75" x2="5.78" y2="12.75"/><line class="cls-1" x1="11.3" y1="34.31" x2="11.3" y2="34.31"/><line class="cls-1" x1="0.43" y1="8.09" x2="0.43" y2="8.09"/><line class="cls-1" x1="1.81" y1="5.33" x2="1.81" y2="5.33"/><line class="cls-1" x1="8.37" y1="3.95" x2="8.37" y2="3.95"/><line class="cls-1" x1="7.85" y1="1.02" x2="7.85" y2="1.02"/><line class="cls-1" x1="14.06" y1="1.88" x2="14.06" y2="1.88"/><line class="cls-1" x1="19.75" y1="3.09" x2="19.75" y2="3.09"/><line class="cls-1" x1="16.48" y1="3.09" x2="16.48" y2="3.09"/><line class="cls-1" x1="23.03" y1="4.47" x2="23.03" y2="4.47"/><line class="cls-1" x1="19.24" y1="7.92" x2="19.24" y2="7.92"/><line class="cls-1" x1="14.58" y1="9.3" x2="14.58" y2="9.3"/><line class="cls-1" x1="10.96" y1="9.99" x2="10.96" y2="9.99"/><line class="cls-1" x1="8.71" y1="13.78" x2="8.71" y2="13.78"/><line class="cls-1" x1="1.64" y1="15.33" x2="1.64" y2="15.33"/><line class="cls-1" x1="5.81" y1="18.44" x2="5.81" y2="18.44"/><line class="cls-1" x1="9.75" y1="22.75" x2="9.75" y2="22.75"/><line class="cls-1" x1="10.27" y1="25.86" x2="10.27" y2="25.86"/><line class="cls-1" x1="7.16" y1="27.75" x2="7.16" y2="27.75"/><line class="cls-1" x1="5.78" y1="30" x2="5.78" y2="30"/><line class="cls-1" x1="3.02" y1="30" x2="3.02" y2="30"/><line class="cls-1" x1="3.37" y1="23.1" x2="3.37" y2="23.1"/><line class="cls-1" x1="-0.08" y1="33.96" x2="-0.08" y2="33.96"/><line class="cls-1" x1="4.06" y1="35" x2="4.06" y2="35"/><line class="cls-1" x1="21.65" y1="26.03" x2="21.65" y2="26.03"/><line class="cls-1" x1="19.58" y1="21.72" x2="19.58" y2="21.72"/><line class="cls-1" x1="15.79" y1="21.54" x2="15.79" y2="21.54"/><line class="cls-1" x1="15.96" y1="15.51" x2="15.96" y2="15.51"/><line class="cls-1" x1="21.31" y1="15.85" x2="21.31" y2="15.85"/><line class="cls-1" x1="25.96" y1="20.16" x2="25.96" y2="20.16"/><line class="cls-1" x1="26.14" y1="24.13" x2="26.14" y2="24.13"/><line class="cls-1" x1="22" y1="29.31" x2="22" y2="29.31"/><line class="cls-1" x1="26.65" y1="27.58" x2="26.65" y2="27.58"/><line class="cls-1" x1="22.86" y1="31.89" x2="22.86" y2="31.89"/><line class="cls-1" x1="23.55" y1="33.79" x2="23.55" y2="33.79"/><line class="cls-1" x1="21.31" y1="35.17" x2="21.31" y2="35.17"/><line class="cls-1" x1="14.58" y1="34.83" x2="14.58" y2="34.83"/><line class="cls-1" x1="9.06" y1="32.58" x2="9.06" y2="32.58"/><line class="cls-1" x1="26.65" y1="10.5" x2="26.65" y2="10.5"/><line class="cls-1" x1="27.34" y1="15.16" x2="27.34" y2="15.16"/><line class="cls-1" x1="25.79" y1="4.98" x2="25.79" y2="4.98"/><line class="cls-1" x1="24.76" y1="29.31" x2="24.76" y2="29.31"/><line class="cls-1" x1="27.23" y1="2.83" x2="27.23" y2="2.83"/><line class="cls-1" x1="10.78" y1="2.4" x2="10.78" y2="2.4"/><line class="cls-1" x1="3.37" y1="28.1" x2="3.37" y2="28.1"/><line class="cls-1" x1="1.81" y1="32.76" x2="1.81" y2="32.76"/><line class="cls-1" x1="6.99" y1="24.65" x2="6.99" y2="24.65"/><line class="cls-1" x1="14.23" y1="27.93" x2="14.23" y2="27.93"/><line class="cls-1" x1="12.34" y1="30.34" x2="12.34" y2="30.34"/><line class="cls-1" x1="16.13" y1="31.72" x2="16.13" y2="31.72"/><line class="cls-1" x1="2.5" y1="2.74" x2="2.5" y2="2.74"/><line class="cls-1" x1="7.51" y1="6.19" x2="7.51" y2="6.19"/><line class="cls-1" x1="14.06" y1="16.37" x2="14.06" y2="16.37"/><line class="cls-1" x1="24.41" y1="22.41" x2="24.41" y2="22.41"/><line class="cls-1" x1="10.78" y1="19.65" x2="10.78" y2="19.65"/><line class="cls-1" x1="3.71" y1="17.4" x2="3.71" y2="17.4"/><line class="cls-1" x1="23.72" y1="9.12" x2="23.72" y2="9.12"/><line class="cls-1" x1="24.07" y1="12.4" x2="24.07" y2="12.4"/><line class="cls-1" x1="8.54" y1="30.17" x2="8.54" y2="30.17"/><line class="cls-1" x1="6.82" y1="10.5" x2="6.82" y2="10.5"/><line class="cls-1" x1="23.89" y1="14.64" x2="23.89" y2="14.64"/><line class="cls-1" x1="18.89" y1="1.02" x2="18.89" y2="1.02"/><line class="cls-1" x1="24.76" y1="26.2" x2="24.76" y2="26.2"/><line class="cls-1" x1="1.64" y1="10.16" x2="1.64" y2="10.16"/><line class="cls-1" x1="3.88" y1="6.36" x2="3.88" y2="6.36"/><line class="cls-1" x1="20.44" y1="5.33" x2="20.44" y2="5.33"/><line class="cls-1" x1="18.72" y1="26.03" x2="18.72" y2="26.03"/><line class="cls-1" x1="18.72" y1="16.02" x2="18.72" y2="16.02"/><line class="cls-1" x1="16.65" y1="11.19" x2="16.65" y2="11.19"/><line class="cls-1" x1="25.96" y1="35.34" x2="25.96" y2="35.34"/><line class="cls-1" x1="20.1" y1="32.07" x2="20.1" y2="32.07"/><line class="cls-1" x1="8.89" y1="35.86" x2="8.89" y2="35.86"/><line class="cls-1" x1="2.16" y1="12.4" x2="2.16" y2="12.4"/><line class="cls-1" x1="5.44" y1="14.99" x2="5.44" y2="14.99"/><line class="cls-1" x1="18.89" y1="9.81" x2="18.89" y2="9.81"/><line class="cls-1" x1="10.09" y1="7.83" x2="10.09" y2="7.83"/><line class="cls-1" x1="21.82" y1="23.79" x2="21.82" y2="23.79"/><line class="cls-1" x1="27.34" y1="30.17" x2="27.34" y2="30.17"/><line class="cls-1" x1="27.52" y1="21.54" x2="27.52" y2="21.54"/><line class="cls-1" x1="27.17" y1="13.09" x2="27.17" y2="13.09"/><line class="cls-1" x1="25.1" y1="1.36" x2="25.1" y2="1.36"/><line class="cls-1" x1="7.65" y1="19.93" x2="7.65" y2="19.93"/><line class="cls-1" x1="16.13" y1="24.13" x2="16.13" y2="24.13"/><line class="cls-1" x1="1.81" y1="5.33" x2="1.81" y2="5.33"/><line class="cls-1" x1="9.38" y1="11.45" x2="9.38" y2="11.45"/><line class="cls-1" x1="27.34" y1="15.16" x2="27.34" y2="15.16"/><line class="cls-1" x1="8.89" y1="35.86" x2="8.89" y2="35.86"/><line class="cls-1" x1="18.89" y1="9.81" x2="18.89" y2="9.81"/><line class="cls-1" x1="27.34" y1="30.17" x2="27.34" y2="30.17"/><rect class="cls-2" x="-21.82" y="-13.13" width="49.68" height="49.68"/><line class="cls-1" x1="1.64" y1="50.01" x2="1.64" y2="50.01"/><line class="cls-1" x1="1.64" y1="46.73" x2="1.64" y2="46.73"/><line class="cls-1" x1="0.09" y1="44.49" x2="0.09" y2="44.49"/><line class="cls-1" x1="0.43" y1="41.21" x2="0.43" y2="41.21"/><line class="cls-1" x1="1.64" y1="37.24" x2="1.64" y2="37.24"/><line class="cls-1" x1="6.82" y1="41.21" x2="6.82" y2="41.21"/><line class="cls-1" x1="9.58" y1="41.04" x2="9.58" y2="41.04"/><line class="cls-1" x1="7.51" y1="45.69" x2="7.51" y2="45.69"/><line class="cls-1" x1="10.61" y1="46.21" x2="10.61" y2="46.21"/><line class="cls-1" x1="10.61" y1="49.66" x2="10.61" y2="49.66"/><line class="cls-1" x1="12.85" y1="45.69" x2="12.85" y2="45.69"/><line class="cls-1" x1="15.96" y1="43.97" x2="15.96" y2="43.97"/><line class="cls-1" x1="17.17" y1="36.9" x2="17.17" y2="36.9"/><line class="cls-1" x1="24.76" y1="37.59" x2="24.76" y2="37.59"/><line class="cls-1" x1="25.1" y1="43.45" x2="25.1" y2="43.45"/><line class="cls-1" x1="22.51" y1="44.83" x2="22.51" y2="44.83"/><line class="cls-1" x1="23.2" y1="47.25" x2="23.2" y2="47.25"/><line class="cls-1" x1="22.34" y1="50.01" x2="22.34" y2="50.01"/><line class="cls-1" x1="16.3" y1="38.97" x2="16.3" y2="38.97"/><line class="cls-1" x1="25.62" y1="45.52" x2="25.62" y2="45.52"/><line class="cls-1" x1="3.71" y1="41.55" x2="3.71" y2="41.55"/><line class="cls-1" x1="4.06" y1="39.31" x2="4.06" y2="39.31"/><line class="cls-1" x1="8.2" y1="37.41" x2="8.2" y2="37.41"/><line class="cls-1" x1="13.54" y1="42.59" x2="13.54" y2="42.59"/><line class="cls-1" x1="2.85" y1="43.97" x2="2.85" y2="43.97"/><line class="cls-1" x1="5.26" y1="46.73" x2="5.26" y2="46.73"/><line class="cls-1" x1="8.02" y1="48.63" x2="8.02" y2="48.63"/><line class="cls-1" x1="13.03" y1="48.8" x2="13.03" y2="48.8"/><line class="cls-1" x1="19.24" y1="48.28" x2="19.24" y2="48.28"/><line class="cls-1" x1="18.37" y1="46.04" x2="18.37" y2="46.04"/><line class="cls-1" x1="19.24" y1="43.8" x2="19.24" y2="43.8"/><line class="cls-1" x1="18.72" y1="41.55" x2="18.72" y2="41.55"/><line class="cls-1" x1="19.58" y1="39.66" x2="19.58" y2="39.66"/><line class="cls-1" x1="24.76" y1="40.52" x2="24.76" y2="40.52"/><line class="cls-1" x1="22" y1="42.76" x2="22" y2="42.76"/><line class="cls-1" x1="16.48" y1="49.32" x2="16.48" y2="49.32"/><line class="cls-1" x1="5.95" y1="43.45" x2="5.95" y2="43.45"/><line class="cls-1" x1="10.09" y1="43.45" x2="10.09" y2="43.45"/><line class="cls-1" x1="15.96" y1="41.04" x2="15.96" y2="41.04"/><line class="cls-1" x1="22.34" y1="40.86" x2="22.34" y2="40.86"/><line class="cls-1" x1="21.48" y1="37.76" x2="21.48" y2="37.76"/><line class="cls-1" x1="26.14" y1="48.8" x2="26.14" y2="48.8"/><line class="cls-1" x1="14.92" y1="46.73" x2="14.92" y2="46.73"/><line class="cls-1" x1="4.4" y1="48.63" x2="4.4" y2="48.63"/><line class="cls-1" x1="12.34" y1="39.48" x2="12.34" y2="39.48"/><line class="cls-1" x1="7.51" y1="39.48" x2="7.51" y2="39.48"/><line class="cls-1" x1="12.51" y1="37.24" x2="12.51" y2="37.24"/><line class="cls-1" x1="26.83" y1="39.14" x2="26.83" y2="39.14"/><line class="cls-1" x1="26.83" y1="43.97" x2="26.83" y2="43.97"/><line class="cls-1" x1="5.61" y1="37.59" x2="5.61" y2="37.59"/><line class="cls-1" x1="0.09" y1="44.49" x2="0.09" y2="44.49"/><line class="cls-1" x1="13.03" y1="48.8" x2="13.03" y2="48.8"/><line class="cls-1" x1="19.58" y1="39.66" x2="19.58" y2="39.66"/><rect class="cls-2" x="-21.82" y="36.55" width="49.68" height="49.68"/><rect class="cls-2" width="49.68" height="49.68"/></svg>