<svg id="Layer_1" data-name="Layer 1" xmlns="http://www.w3.org/2000/svg" width="53.98" height="53.98" viewBox="0 0 53.98 53.98"><defs><style>.cls-1,.cls-2{fill:none;}.cls-2{stroke:#000;stroke-linecap:round;stroke-width:0.7px;}</style></defs><title>608</title><rect class="cls-1" x="26.83" y="-14.5" width="53.98" height="53.98"/><line class="cls-2" x1="44.82" y1="1.06" x2="44.82" y2="1.06"/><line class="cls-2" x1="37.06" y1="5.77" x2="37.06" y2="5.77"/><line class="cls-2" x1="44.82" y1="5.55" x2="44.82" y2="5.55"/><line class="cls-2" x1="49.13" y1="5.55" x2="49.13" y2="5.55"/><line class="cls-2" x1="50.97" y1="0.48" x2="50.97" y2="0.48"/><line class="cls-2" x1="32.07" y1="24.48" x2="32.07" y2="24.48"/><line class="cls-2" x1="32.81" y1="26.83" x2="32.81" y2="26.83"/><line class="cls-2" x1="28.51" y1="26.17" x2="28.51" y2="26.17"/><line class="cls-2" x1="34.14" y1="33.29" x2="34.14" y2="33.29"/><line class="cls-2" x1="35.07" y1="38.54" x2="35.07" y2="38.54"/><path class="cls-2" d="M40.7,34.42h0"/><line class="cls-2" x1="39.01" y1="31.98" x2="39.01" y2="31.98"/><line class="cls-2" x1="36.01" y1="31.79" x2="36.01" y2="31.79"/><line class="cls-2" x1="39.56" y1="27.02" x2="39.56" y2="27.02"/><line class="cls-2" x1="41.26" y1="23.55" x2="41.26" y2="23.55"/><line class="cls-2" x1="39.14" y1="24.31" x2="39.14" y2="24.31"/><line class="cls-2" x1="39.01" y1="20.73" x2="39.01" y2="20.73"/><line class="cls-2" x1="51.14" y1="24.48" x2="51.14" y2="24.48"/><line class="cls-2" x1="45.64" y1="27.14" x2="45.64" y2="27.14"/><line class="cls-2" x1="50.82" y1="27.11" x2="50.82" y2="27.11"/><line class="cls-2" x1="46.32" y1="33.1" x2="46.32" y2="33.1"/><line class="cls-2" x1="53.82" y1="27.48" x2="53.82" y2="27.48"/><line class="cls-2" x1="51.19" y1="20.55" x2="51.19" y2="20.55"/><line class="cls-2" x1="45.79" y1="13.12" x2="45.79" y2="13.12"/><line class="cls-2" x1="49.13" y1="11.93" x2="49.13" y2="11.93"/><line class="cls-2" x1="34.97" y1="7.14" x2="34.97" y2="7.14"/><line class="cls-2" x1="28.7" y1="11.74" x2="28.7" y2="11.74"/><line class="cls-2" x1="36.39" y1="17.66" x2="36.39" y2="17.66"/><line class="cls-2" x1="37.32" y1="10.8" x2="37.32" y2="10.8"/><line class="cls-2" x1="46.64" y1="6.98" x2="46.64" y2="6.98"/><line class="cls-2" x1="31.47" y1="0.14" x2="31.47" y2="0.14"/><line class="cls-2" x1="35.94" y1="3.71" x2="35.94" y2="3.71"/><line class="cls-2" x1="28.5" y1="3.78" x2="28.5" y2="3.78"/><line class="cls-2" x1="40.7" y1="-0.26" x2="40.7" y2="-0.26"/><line class="cls-2" x1="42.76" y1="13.05" x2="42.76" y2="13.05"/><line class="cls-2" x1="27.39" y1="18.49" x2="27.39" y2="18.49"/><line class="cls-2" x1="30.34" y1="30.66" x2="30.34" y2="30.66"/><line class="cls-2" x1="46.83" y1="30.29" x2="46.83" y2="30.29"/><line class="cls-2" x1="41.63" y1="5.18" x2="41.63" y2="5.18"/><line class="cls-2" x1="32.26" y1="6.12" x2="32.26" y2="6.12"/><line class="cls-2" x1="34.7" y1="10.43" x2="34.7" y2="10.43"/><line class="cls-2" x1="30.8" y1="13.98" x2="30.8" y2="13.98"/><line class="cls-2" x1="29.26" y1="0.68" x2="29.26" y2="0.68"/><line class="cls-2" x1="39.95" y1="11.93" x2="39.95" y2="11.93"/><line class="cls-2" x1="38.82" y1="14.55" x2="38.82" y2="14.55"/><line class="cls-2" x1="36.39" y1="20.17" x2="36.39" y2="20.17"/><line class="cls-2" x1="35.62" y1="26.83" x2="35.62" y2="26.83"/><line class="cls-2" x1="31.32" y1="32.92" x2="31.32" y2="32.92"/><line class="cls-2" x1="28.51" y1="31.79" x2="28.51" y2="31.79"/><line class="cls-2" x1="36.95" y1="37.42" x2="36.95" y2="37.42"/><line class="cls-2" x1="43.13" y1="38.35" x2="43.13" y2="38.35"/><line class="cls-2" x1="51.3" y1="34.31" x2="51.3" y2="34.31"/><line class="cls-2" x1="43.65" y1="30.66" x2="43.65" y2="30.66"/><line class="cls-2" x1="46.51" y1="21.11" x2="46.51" y2="21.11"/><line class="cls-2" x1="46.13" y1="17.92" x2="46.13" y2="17.92"/><line class="cls-2" x1="52.5" y1="5.55" x2="52.5" y2="5.55"/><line class="cls-2" x1="51.8" y1="17.48" x2="51.8" y2="17.48"/><line class="cls-2" x1="54.19" y1="24.86" x2="54.19" y2="24.86"/><line class="cls-2" x1="49.5" y1="31.98" x2="49.5" y2="31.98"/><line class="cls-2" x1="48.19" y1="38.73" x2="48.19" y2="38.73"/><line class="cls-2" x1="28.33" y1="7.24" x2="28.33" y2="7.24"/><line class="cls-2" x1="29.08" y1="23.55" x2="29.08" y2="23.55"/><line class="cls-2" x1="28.89" y1="38.73" x2="28.89" y2="38.73"/><line class="cls-2" x1="32.82" y1="20.55" x2="32.82" y2="20.55"/><line class="cls-2" x1="30.58" y1="27.86" x2="30.58" y2="27.86"/><line class="cls-2" x1="29.26" y1="34.6" x2="29.26" y2="34.6"/><line class="cls-2" x1="40.13" y1="37.6" x2="40.13" y2="37.6"/><line class="cls-2" x1="42.57" y1="32.54" x2="42.57" y2="32.54"/><line class="cls-2" x1="42.57" y1="19.24" x2="42.57" y2="19.24"/><line class="cls-2" x1="47.14" y1="24.48" x2="47.14" y2="24.48"/><line class="cls-2" x1="45.76" y1="3.68" x2="45.76" y2="3.68"/><line class="cls-2" x1="39.57" y1="6.68" x2="39.57" y2="6.68"/><line class="cls-2" x1="35.26" y1="12.86" x2="35.26" y2="12.86"/><line class="cls-2" x1="46.13" y1="37.79" x2="46.13" y2="37.79"/><line class="cls-2" x1="40.14" y1="17.48" x2="40.14" y2="17.48"/><line class="cls-2" x1="36.57" y1="0.31" x2="36.57" y2="0.31"/><line class="cls-2" x1="30.76" y1="37.6" x2="30.76" y2="37.6"/><line class="cls-2" x1="27.83" y1="2.24" x2="27.83" y2="2.24"/><line class="cls-2" x1="29.84" y1="2.24" x2="29.84" y2="2.24"/><line class="cls-2" x1="31.84" y1="2.24" x2="31.84" y2="2.24"/><line class="cls-2" x1="33.84" y1="2.24" x2="33.84" y2="2.24"/><line class="cls-2" x1="35.84" y1="2.24" x2="35.84" y2="2.24"/><line class="cls-2" x1="37.83" y1="2.24" x2="37.83" y2="2.24"/><line class="cls-2" x1="39.83" y1="2.24" x2="39.83" y2="2.24"/><line class="cls-2" x1="41.83" y1="2.24" x2="41.83" y2="2.24"/><line class="cls-2" x1="43.84" y1="2.24" x2="43.84" y2="2.24"/><line class="cls-2" x1="45.84" y1="2.24" x2="45.84" y2="2.24"/><line class="cls-2" x1="47.84" y1="2.24" x2="47.84" y2="2.24"/><line class="cls-2" x1="49.84" y1="2.24" x2="49.84" y2="2.24"/><line class="cls-2" x1="51.84" y1="2.24" x2="51.84" y2="2.24"/><line class="cls-2" x1="53.84" y1="2.24" x2="53.84" y2="2.24"/><line class="cls-2" x1="27.77" y1="8.95" x2="27.77" y2="8.95"/><line class="cls-2" x1="29.78" y1="8.95" x2="29.78" y2="8.95"/><line class="cls-2" x1="31.78" y1="8.95" x2="31.78" y2="8.95"/><line class="cls-2" x1="33.78" y1="8.95" x2="33.78" y2="8.95"/><line class="cls-2" x1="35.78" y1="8.95" x2="35.78" y2="8.95"/><line class="cls-2" x1="37.77" y1="8.95" x2="37.77" y2="8.95"/><line class="cls-2" x1="39.77" y1="8.95" x2="39.77" y2="8.95"/><line class="cls-2" x1="41.77" y1="8.95" x2="41.77" y2="8.95"/><line class="cls-2" x1="43.78" y1="8.95" x2="43.78" y2="8.95"/><line class="cls-2" x1="45.78" y1="8.95" x2="45.78" y2="8.95"/><line class="cls-2" x1="47.78" y1="8.95" x2="47.78" y2="8.95"/><line class="cls-2" x1="49.78" y1="8.95" x2="49.78" y2="8.95"/><line class="cls-2" x1="51.79" y1="8.95" x2="51.79" y2="8.95"/><line class="cls-2" x1="53.79" y1="8.95" x2="53.79" y2="8.95"/><line class="cls-2" x1="27.72" y1="15.7" x2="27.72" y2="15.7"/><line class="cls-2" x1="29.72" y1="15.7" x2="29.72" y2="15.7"/><line class="cls-2" x1="31.72" y1="15.7" x2="31.72" y2="15.7"/><line class="cls-2" x1="33.72" y1="15.7" x2="33.72" y2="15.7"/><line class="cls-2" x1="35.72" y1="15.7" x2="35.72" y2="15.7"/><line class="cls-2" x1="37.72" y1="15.7" x2="37.72" y2="15.7"/><line class="cls-2" x1="39.72" y1="15.7" x2="39.72" y2="15.7"/><line class="cls-2" x1="41.72" y1="15.7" x2="41.72" y2="15.7"/><line class="cls-2" x1="43.72" y1="15.7" x2="43.72" y2="15.7"/><line class="cls-2" x1="45.72" y1="15.7" x2="45.72" y2="15.7"/><line class="cls-2" x1="47.72" y1="15.7" x2="47.72" y2="15.7"/><line class="cls-2" x1="49.72" y1="15.7" x2="49.72" y2="15.7"/><line class="cls-2" x1="51.73" y1="15.7" x2="51.73" y2="15.7"/><line class="cls-2" x1="53.73" y1="15.7" x2="53.73" y2="15.7"/><line class="cls-2" x1="27.66" y1="22.45" x2="27.66" y2="22.45"/><line class="cls-2" x1="29.67" y1="22.45" x2="29.67" y2="22.45"/><line class="cls-2" x1="31.67" y1="22.45" x2="31.67" y2="22.45"/><line class="cls-2" x1="33.67" y1="22.45" x2="33.67" y2="22.45"/><line class="cls-2" x1="35.67" y1="22.45" x2="35.67" y2="22.45"/><line class="cls-2" x1="37.66" y1="22.45" x2="37.66" y2="22.45"/><line class="cls-2" x1="39.66" y1="22.45" x2="39.66" y2="22.45"/><line class="cls-2" x1="41.66" y1="22.45" x2="41.66" y2="22.45"/><line class="cls-2" x1="43.67" y1="22.45" x2="43.67" y2="22.45"/><line class="cls-2" x1="45.67" y1="22.45" x2="45.67" y2="22.45"/><line class="cls-2" x1="47.67" y1="22.45" x2="47.67" y2="22.45"/><line class="cls-2" x1="49.67" y1="22.45" x2="49.67" y2="22.45"/><line class="cls-2" x1="51.67" y1="22.45" x2="51.67" y2="22.45"/><line class="cls-2" x1="53.67" y1="22.45" x2="53.67" y2="22.45"/><line class="cls-2" x1="27.6" y1="29.19" x2="27.6" y2="29.19"/><line class="cls-2" x1="29.61" y1="29.19" x2="29.61" y2="29.19"/><line class="cls-2" x1="31.61" y1="29.19" x2="31.61" y2="29.19"/><line class="cls-2" x1="33.61" y1="29.19" x2="33.61" y2="29.19"/><line class="cls-2" x1="35.61" y1="29.19" x2="35.61" y2="29.19"/><line class="cls-2" x1="37.6" y1="29.19" x2="37.6" y2="29.19"/><line class="cls-2" x1="39.6" y1="29.19" x2="39.6" y2="29.19"/><line class="cls-2" x1="41.6" y1="29.19" x2="41.6" y2="29.19"/><line class="cls-2" x1="43.61" y1="29.19" x2="43.61" y2="29.19"/><line class="cls-2" x1="45.61" y1="29.19" x2="45.61" y2="29.19"/><line class="cls-2" x1="47.61" y1="29.19" x2="47.61" y2="29.19"/><line class="cls-2" x1="49.61" y1="29.19" x2="49.61" y2="29.19"/><line class="cls-2" x1="51.62" y1="29.19" x2="51.62" y2="29.19"/><line class="cls-2" x1="53.62" y1="29.19" x2="53.62" y2="29.19"/><line class="cls-2" x1="27.6" y1="35.94" x2="27.6" y2="35.94"/><line class="cls-2" x1="29.61" y1="35.94" x2="29.61" y2="35.94"/><line class="cls-2" x1="31.61" y1="35.94" x2="31.61" y2="35.94"/><line class="cls-2" x1="33.61" y1="35.94" x2="33.61" y2="35.94"/><line class="cls-2" x1="35.61" y1="35.94" x2="35.61" y2="35.94"/><line class="cls-2" x1="37.6" y1="35.94" x2="37.6" y2="35.94"/><line class="cls-2" x1="39.6" y1="35.94" x2="39.6" y2="35.94"/><line class="cls-2" x1="41.6" y1="35.94" x2="41.6" y2="35.94"/><line class="cls-2" x1="43.61" y1="35.94" x2="43.61" y2="35.94"/><line class="cls-2" x1="45.61" y1="35.94" x2="45.61" y2="35.94"/><line class="cls-2" x1="47.61" y1="35.94" x2="47.61" y2="35.94"/><line class="cls-2" x1="49.61" y1="35.94" x2="49.61" y2="35.94"/><line class="cls-2" x1="51.62" y1="35.94" x2="51.62" y2="35.94"/><line class="cls-2" x1="53.62" y1="35.94" x2="53.62" y2="35.94"/><line class="cls-2" x1="32.45" y1="4.05" x2="32.45" y2="4.05"/><line class="cls-2" x1="29.26" y1="20.73" x2="29.26" y2="20.73"/><line class="cls-2" x1="34.46" y1="30.48" x2="34.46" y2="30.48"/><line class="cls-2" x1="36.95" y1="34.6" x2="36.95" y2="34.6"/><line class="cls-2" x1="43.32" y1="25.23" x2="43.32" y2="25.23"/><line class="cls-2" x1="52.32" y1="10.8" x2="52.32" y2="10.8"/><line class="cls-2" x1="46.32" y1="10.8" x2="46.32" y2="10.8"/><line class="cls-2" x1="52.88" y1="13.24" x2="52.88" y2="13.24"/><line class="cls-2" x1="32.26" y1="17.55" x2="32.26" y2="17.55"/><line class="cls-2" x1="31.7" y1="10.8" x2="31.7" y2="10.8"/><line class="cls-2" x1="43.32" y1="10.43" x2="43.32" y2="10.43"/><line class="cls-2" x1="49.13" y1="18.49" x2="49.13" y2="18.49"/><line class="cls-2" x1="52.5" y1="5.55" x2="52.5" y2="5.55"/><line class="cls-2" x1="36.17" y1="24.24" x2="36.17" y2="24.24"/><line class="cls-2" x1="36.95" y1="34.6" x2="36.95" y2="34.6"/><rect class="cls-1" x="26.83" y="39.48" width="53.98" height="53.98"/><line class="cls-2" x1="42.57" y1="41.54" x2="42.57" y2="41.54"/><line class="cls-2" x1="42.57" y1="44.54" x2="42.57" y2="44.54"/><line class="cls-2" x1="42.01" y1="47.16" x2="42.01" y2="47.16"/><line class="cls-2" x1="37.7" y1="47.35" x2="37.7" y2="47.35"/><line class="cls-2" x1="48.76" y1="52.97" x2="48.76" y2="52.97"/><line class="cls-2" x1="52.32" y1="50.53" x2="52.32" y2="50.53"/><line class="cls-2" x1="50.63" y1="48.1" x2="50.63" y2="48.1"/><line class="cls-2" x1="51" y1="44.54" x2="51" y2="44.54"/><line class="cls-2" x1="49.64" y1="41.45" x2="49.64" y2="41.45"/><line class="cls-2" x1="52.32" y1="40.23" x2="52.32" y2="40.23"/><line class="cls-2" x1="31.47" y1="54.12" x2="31.47" y2="54.12"/><line class="cls-2" x1="34.14" y1="53.35" x2="34.14" y2="53.35"/><line class="cls-2" x1="27.95" y1="46.04" x2="27.95" y2="46.04"/><line class="cls-2" x1="40.13" y1="44.35" x2="40.13" y2="44.35"/><line class="cls-2" x1="29.8" y1="44.62" x2="29.8" y2="44.62"/><line class="cls-2" x1="40.7" y1="53.72" x2="40.7" y2="53.72"/><line class="cls-2" x1="35.64" y1="40.6" x2="35.64" y2="40.6"/><line class="cls-2" x1="41.17" y1="50.72" x2="41.17" y2="50.72"/><line class="cls-2" x1="36.47" y1="51.29" x2="36.47" y2="51.29"/><line class="cls-2" x1="31.32" y1="48.1" x2="31.32" y2="48.1"/><line class="cls-2" x1="32.07" y1="41.35" x2="32.07" y2="41.35"/><line class="cls-2" x1="36.64" y1="44.45" x2="36.64" y2="44.45"/><line class="cls-2" x1="46.13" y1="44.54" x2="46.13" y2="44.54"/><line class="cls-2" x1="53.63" y1="47.54" x2="53.63" y2="47.54"/><line class="cls-2" x1="45.97" y1="51.29" x2="45.97" y2="51.29"/><line class="cls-2" x1="27.76" y1="51.85" x2="27.76" y2="51.85"/><line class="cls-2" x1="48.76" y1="46.79" x2="48.76" y2="46.79"/><line class="cls-2" x1="32.26" y1="51.1" x2="32.26" y2="51.1"/><line class="cls-2" x1="29.45" y1="41.16" x2="29.45" y2="41.16"/><line class="cls-2" x1="36.57" y1="54.28" x2="36.57" y2="54.28"/><line class="cls-2" x1="39.57" y1="41.35" x2="39.57" y2="41.35"/><line class="cls-2" x1="27.89" y1="42.67" x2="27.89" y2="42.67"/><line class="cls-2" x1="29.89" y1="42.67" x2="29.89" y2="42.67"/><line class="cls-2" x1="31.89" y1="42.67" x2="31.89" y2="42.67"/><line class="cls-2" x1="33.89" y1="42.67" x2="33.89" y2="42.67"/><line class="cls-2" x1="35.89" y1="42.67" x2="35.89" y2="42.67"/><line class="cls-2" x1="37.89" y1="42.67" x2="37.89" y2="42.67"/><line class="cls-2" x1="39.89" y1="42.67" x2="39.89" y2="42.67"/><line class="cls-2" x1="41.89" y1="42.67" x2="41.89" y2="42.67"/><line class="cls-2" x1="43.89" y1="42.67" x2="43.89" y2="42.67"/><line class="cls-2" x1="45.89" y1="42.67" x2="45.89" y2="42.67"/><line class="cls-2" x1="47.89" y1="42.67" x2="47.89" y2="42.67"/><line class="cls-2" x1="49.89" y1="42.67" x2="49.89" y2="42.67"/><line class="cls-2" x1="51.9" y1="42.67" x2="51.9" y2="42.67"/><line class="cls-2" x1="53.9" y1="42.67" x2="53.9" y2="42.67"/><line class="cls-2" x1="27.83" y1="49.42" x2="27.83" y2="49.42"/><line class="cls-2" x1="29.84" y1="49.42" x2="29.84" y2="49.42"/><line class="cls-2" x1="31.84" y1="49.42" x2="31.84" y2="49.42"/><line class="cls-2" x1="33.84" y1="49.42" x2="33.84" y2="49.42"/><line class="cls-2" x1="35.84" y1="49.42" x2="35.84" y2="49.42"/><line class="cls-2" x1="37.83" y1="49.42" x2="37.83" y2="49.42"/><line class="cls-2" x1="39.83" y1="49.42" x2="39.83" y2="49.42"/><line class="cls-2" x1="41.83" y1="49.42" x2="41.83" y2="49.42"/><line class="cls-2" x1="43.84" y1="49.42" x2="43.84" y2="49.42"/><line class="cls-2" x1="45.84" y1="49.42" x2="45.84" y2="49.42"/><line class="cls-2" x1="47.84" y1="49.42" x2="47.84" y2="49.42"/><line class="cls-2" x1="49.84" y1="49.42" x2="49.84" y2="49.42"/><line class="cls-2" x1="51.84" y1="49.42" x2="51.84" y2="49.42"/><line class="cls-2" x1="53.84" y1="49.42" x2="53.84" y2="49.42"/><line class="cls-2" x1="45.19" y1="40.04" x2="45.19" y2="40.04"/><line class="cls-2" x1="34.51" y1="46.22" x2="34.51" y2="46.22"/><line class="cls-2" x1="45.01" y1="47.16" x2="45.01" y2="47.16"/><line class="cls-2" x1="31.89" y1="45.66" x2="31.89" y2="45.66"/><line class="cls-2" x1="42.57" y1="41.54" x2="42.57" y2="41.54"/><line class="cls-2" x1="50.63" y1="48.1" x2="50.63" y2="48.1"/><line class="cls-2" x1="43.97" y1="52.95" x2="43.97" y2="52.95"/><rect class="cls-1" x="-27.15" y="-14.5" width="53.98" height="53.98"/><line class="cls-2" x1="8.66" y1="0.14" x2="8.66" y2="0.14"/><line class="cls-2" x1="0.99" y1="0.48" x2="0.99" y2="0.48"/><line class="cls-2" x1="-0.16" y1="27.48" x2="-0.16" y2="27.48"/><line class="cls-2" x1="3.44" y1="23.99" x2="3.44" y2="23.99"/><line class="cls-2" x1="5.82" y1="18.12" x2="5.82" y2="18.12"/><line class="cls-2" x1="10.52" y1="23.92" x2="10.52" y2="23.92"/><line class="cls-2" x1="10.33" y1="20.64" x2="10.33" y2="20.64"/><line class="cls-2" x1="14.08" y1="20.55" x2="14.08" y2="20.55"/><line class="cls-2" x1="14.08" y1="25.98" x2="14.08" y2="25.98"/><line class="cls-2" x1="11.27" y1="27.48" x2="11.27" y2="27.48"/><line class="cls-2" x1="8.79" y1="30.85" x2="8.79" y2="30.85"/><line class="cls-2" x1="16.52" y1="31.42" x2="16.52" y2="31.42"/><line class="cls-2" x1="2.09" y1="3.87" x2="2.09" y2="3.87"/><line class="cls-2" x1="8.46" y1="5.74" x2="8.46" y2="5.74"/><line class="cls-2" x1="15.33" y1="6.81" x2="15.33" y2="6.81"/><line class="cls-2" x1="11.27" y1="4.24" x2="11.27" y2="4.24"/><line class="cls-2" x1="11.83" y1="7.43" x2="11.83" y2="7.43"/><line class="cls-2" x1="19.7" y1="11.93" x2="19.7" y2="11.93"/><line class="cls-2" x1="15.39" y1="14.55" x2="15.39" y2="14.55"/><line class="cls-2" x1="7.32" y1="12.62" x2="7.32" y2="12.62"/><line class="cls-2" x1="8.83" y1="18.49" x2="8.83" y2="18.49"/><line class="cls-2" x1="17.08" y1="19.99" x2="17.08" y2="19.99"/><line class="cls-2" x1="24.2" y1="18.11" x2="24.2" y2="18.11"/><line class="cls-2" x1="19.14" y1="14.55" x2="19.14" y2="14.55"/><line class="cls-2" x1="0.99" y1="10.98" x2="0.99" y2="10.98"/><line class="cls-2" x1="21.02" y1="7.43" x2="21.02" y2="7.43"/><line class="cls-2" x1="24.95" y1="7.62" x2="24.95" y2="7.62"/><line class="cls-2" x1="24.95" y1="34.6" x2="24.95" y2="34.6"/><line class="cls-2" x1="15.96" y1="37.04" x2="15.96" y2="37.04"/><line class="cls-2" x1="12.02" y1="13.8" x2="12.02" y2="13.8"/><line class="cls-2" x1="21.39" y1="19.61" x2="21.39" y2="19.61"/><line class="cls-2" x1="9.66" y1="34.48" x2="9.66" y2="34.48"/><line class="cls-2" x1="2.84" y1="13.61" x2="2.84" y2="13.61"/><line class="cls-2" x1="8.83" y1="37.04" x2="8.83" y2="37.04"/><line class="cls-2" x1="5.65" y1="4.05" x2="5.65" y2="4.05"/><line class="cls-2" x1="5.09" y1="0.87" x2="5.09" y2="0.87"/><line class="cls-2" x1="17.16" y1="3.98" x2="17.16" y2="3.98"/><line class="cls-2" x1="14.16" y1="4.14" x2="14.16" y2="4.14"/><line class="cls-2" x1="21.99" y1="3.81" x2="21.99" y2="3.81"/><line class="cls-2" x1="11.99" y1="10.81" x2="11.99" y2="10.81"/><line class="cls-2" x1="8.46" y1="10.61" x2="8.46" y2="10.61"/><line class="cls-2" x1="6.02" y1="14.74" x2="6.02" y2="14.74"/><line class="cls-2" x1="3.07" y1="19.12" x2="3.07" y2="19.12"/><line class="cls-2" x1="7.15" y1="24.48" x2="7.15" y2="24.48"/><line class="cls-2" x1="7.71" y1="27.86" x2="7.71" y2="27.86"/><line class="cls-2" x1="4.48" y1="30.29" x2="4.48" y2="30.29"/><line class="cls-2" x1="2.84" y1="32.35" x2="2.84" y2="32.35"/><line class="cls-2" x1="0.49" y1="33.64" x2="0.49" y2="33.64"/><line class="cls-2" x1="0.21" y1="24.86" x2="0.21" y2="24.86"/><line class="cls-2" x1="0.96" y1="37.79" x2="0.96" y2="37.79"/><line class="cls-2" x1="20.08" y1="28.04" x2="20.08" y2="28.04"/><line class="cls-2" x1="17.66" y1="24.48" x2="17.66" y2="24.48"/><line class="cls-2" x1="13.66" y1="23.98" x2="13.66" y2="23.98"/><line class="cls-2" x1="14.33" y1="17.64" x2="14.33" y2="17.64"/><line class="cls-2" x1="19.7" y1="16.99" x2="19.7" y2="16.99"/><line class="cls-2" x1="24.95" y1="25.98" x2="24.95" y2="25.98"/><line class="cls-2" x1="20.45" y1="31.61" x2="20.45" y2="31.61"/><line class="cls-2" x1="21.39" y1="34.42" x2="21.39" y2="34.42"/><line class="cls-2" x1="19.7" y1="37.98" x2="19.7" y2="37.98"/><line class="cls-2" x1="12.4" y1="37.6" x2="12.4" y2="37.6"/><line class="cls-2" x1="4.79" y1="34.66" x2="4.79" y2="34.66"/><line class="cls-2" x1="25.51" y1="11.18" x2="25.51" y2="11.18"/><line class="cls-2" x1="24.58" y1="5.18" x2="24.58" y2="5.18"/><line class="cls-2" x1="23.45" y1="31.61" x2="23.45" y2="31.61"/><line class="cls-2" x1="0.35" y1="30.66" x2="0.35" y2="30.66"/><line class="cls-2" x1="4.15" y1="26.54" x2="4.15" y2="26.54"/><line class="cls-2" x1="12.16" y1="30.48" x2="12.16" y2="30.48"/><line class="cls-2" x1="9.96" y1="32.73" x2="9.96" y2="32.73"/><line class="cls-2" x1="14.08" y1="34.23" x2="14.08" y2="34.23"/><line class="cls-2" x1="4.71" y1="6.49" x2="4.71" y2="6.49"/><line class="cls-2" x1="11.83" y1="17.55" x2="11.83" y2="17.55"/><line class="cls-2" x1="23.08" y1="24.11" x2="23.08" y2="24.11"/><line class="cls-2" x1="7.14" y1="20.64" x2="7.14" y2="20.64"/><line class="cls-2" x1="0.59" y1="18.67" x2="0.59" y2="18.67"/><line class="cls-2" x1="22.33" y1="10.48" x2="22.33" y2="10.48"/><line class="cls-2" x1="22.7" y1="13.24" x2="22.7" y2="13.24"/><line class="cls-2" x1="5.84" y1="32.54" x2="5.84" y2="32.54"/><line class="cls-2" x1="3.96" y1="11.18" x2="3.96" y2="11.18"/><line class="cls-2" x1="17.08" y1="0.87" x2="17.08" y2="0.87"/><line class="cls-2" x1="23.45" y1="28.23" x2="23.45" y2="28.23"/><line class="cls-2" x1="-0.13" y1="2.24" x2="-0.13" y2="2.24"/><line class="cls-2" x1="1.87" y1="2.24" x2="1.87" y2="2.24"/><line class="cls-2" x1="3.87" y1="2.24" x2="3.87" y2="2.24"/><line class="cls-2" x1="5.86" y1="2.24" x2="5.86" y2="2.24"/><line class="cls-2" x1="7.86" y1="2.24" x2="7.86" y2="2.24"/><line class="cls-2" x1="9.86" y1="2.24" x2="9.86" y2="2.24"/><line class="cls-2" x1="11.87" y1="2.24" x2="11.87" y2="2.24"/><line class="cls-2" x1="13.87" y1="2.24" x2="13.87" y2="2.24"/><line class="cls-2" x1="15.87" y1="2.24" x2="15.87" y2="2.24"/><line class="cls-2" x1="17.87" y1="2.24" x2="17.87" y2="2.24"/><line class="cls-2" x1="19.88" y1="2.24" x2="19.88" y2="2.24"/><line class="cls-2" x1="21.88" y1="2.24" x2="21.88" y2="2.24"/><line class="cls-2" x1="23.88" y1="2.24" x2="23.88" y2="2.24"/><line class="cls-2" x1="25.86" y1="2.24" x2="25.86" y2="2.24"/><line class="cls-2" x1="-0.19" y1="8.95" x2="-0.19" y2="8.95"/><line class="cls-2" x1="1.81" y1="8.95" x2="1.81" y2="8.95"/><line class="cls-2" x1="3.81" y1="8.95" x2="3.81" y2="8.95"/><line class="cls-2" x1="5.8" y1="8.95" x2="5.8" y2="8.95"/><line class="cls-2" x1="7.8" y1="8.95" x2="7.8" y2="8.95"/><line class="cls-2" x1="9.8" y1="8.95" x2="9.8" y2="8.95"/><line class="cls-2" x1="11.81" y1="8.95" x2="11.81" y2="8.95"/><line class="cls-2" x1="13.81" y1="8.95" x2="13.81" y2="8.95"/><line class="cls-2" x1="15.81" y1="8.95" x2="15.81" y2="8.95"/><line class="cls-2" x1="17.81" y1="8.95" x2="17.81" y2="8.95"/><line class="cls-2" x1="19.82" y1="8.95" x2="19.82" y2="8.95"/><line class="cls-2" x1="21.82" y1="8.95" x2="21.82" y2="8.95"/><line class="cls-2" x1="23.82" y1="8.95" x2="23.82" y2="8.95"/><line class="cls-2" x1="25.8" y1="8.95" x2="25.8" y2="8.95"/><line class="cls-2" x1="-0.25" y1="15.7" x2="-0.25" y2="15.7"/><line class="cls-2" x1="1.75" y1="15.7" x2="1.75" y2="15.7"/><line class="cls-2" x1="3.75" y1="15.7" x2="3.75" y2="15.7"/><line class="cls-2" x1="5.75" y1="15.7" x2="5.75" y2="15.7"/><line class="cls-2" x1="7.75" y1="15.7" x2="7.75" y2="15.7"/><line class="cls-2" x1="9.75" y1="15.7" x2="9.75" y2="15.7"/><line class="cls-2" x1="11.75" y1="15.7" x2="11.75" y2="15.7"/><line class="cls-2" x1="13.75" y1="15.7" x2="13.75" y2="15.7"/><line class="cls-2" x1="15.75" y1="15.7" x2="15.75" y2="15.7"/><line class="cls-2" x1="17.76" y1="15.7" x2="17.76" y2="15.7"/><line class="cls-2" x1="19.76" y1="15.7" x2="19.76" y2="15.7"/><line class="cls-2" x1="21.76" y1="15.7" x2="21.76" y2="15.7"/><line class="cls-2" x1="23.76" y1="15.7" x2="23.76" y2="15.7"/><line class="cls-2" x1="25.75" y1="15.7" x2="25.75" y2="15.7"/><line class="cls-2" x1="-0.31" y1="22.45" x2="-0.31" y2="22.45"/><line class="cls-2" x1="1.69" y1="22.45" x2="1.69" y2="22.45"/><line class="cls-2" x1="3.69" y1="22.45" x2="3.69" y2="22.45"/><line class="cls-2" x1="5.69" y1="22.45" x2="5.69" y2="22.45"/><line class="cls-2" x1="7.69" y1="22.45" x2="7.69" y2="22.45"/><line class="cls-2" x1="9.69" y1="22.45" x2="9.69" y2="22.45"/><line class="cls-2" x1="11.69" y1="22.45" x2="11.69" y2="22.45"/><line class="cls-2" x1="13.69" y1="22.45" x2="13.69" y2="22.45"/><line class="cls-2" x1="15.69" y1="22.45" x2="15.69" y2="22.45"/><line class="cls-2" x1="17.7" y1="22.45" x2="17.7" y2="22.45"/><line class="cls-2" x1="19.71" y1="22.45" x2="19.71" y2="22.45"/><line class="cls-2" x1="21.71" y1="22.45" x2="21.71" y2="22.45"/><line class="cls-2" x1="23.71" y1="22.45" x2="23.71" y2="22.45"/><line class="cls-2" x1="25.69" y1="22.45" x2="25.69" y2="22.45"/><line class="cls-2" x1="1.64" y1="29.19" x2="1.64" y2="29.19"/><line class="cls-2" x1="3.64" y1="29.19" x2="3.64" y2="29.19"/><line class="cls-2" x1="5.63" y1="29.19" x2="5.63" y2="29.19"/><line class="cls-2" x1="7.63" y1="29.19" x2="7.63" y2="29.19"/><line class="cls-2" x1="9.63" y1="29.19" x2="9.63" y2="29.19"/><line class="cls-2" x1="11.64" y1="29.19" x2="11.64" y2="29.19"/><line class="cls-2" x1="13.64" y1="29.19" x2="13.64" y2="29.19"/><line class="cls-2" x1="15.64" y1="29.19" x2="15.64" y2="29.19"/><line class="cls-2" x1="17.64" y1="29.19" x2="17.64" y2="29.19"/><line class="cls-2" x1="19.65" y1="29.19" x2="19.65" y2="29.19"/><line class="cls-2" x1="21.65" y1="29.19" x2="21.65" y2="29.19"/><line class="cls-2" x1="23.65" y1="29.19" x2="23.65" y2="29.19"/><line class="cls-2" x1="25.63" y1="29.19" x2="25.63" y2="29.19"/><line class="cls-2" x1="1.64" y1="35.94" x2="1.64" y2="35.94"/><line class="cls-2" x1="3.64" y1="35.94" x2="3.64" y2="35.94"/><line class="cls-2" x1="5.63" y1="35.94" x2="5.63" y2="35.94"/><line class="cls-2" x1="7.63" y1="35.94" x2="7.63" y2="35.94"/><line class="cls-2" x1="9.63" y1="35.94" x2="9.63" y2="35.94"/><line class="cls-2" x1="11.64" y1="35.94" x2="11.64" y2="35.94"/><line class="cls-2" x1="13.64" y1="35.94" x2="13.64" y2="35.94"/><line class="cls-2" x1="15.64" y1="35.94" x2="15.64" y2="35.94"/><line class="cls-2" x1="17.64" y1="35.94" x2="17.64" y2="35.94"/><line class="cls-2" x1="19.65" y1="35.94" x2="19.65" y2="35.94"/><line class="cls-2" x1="21.65" y1="35.94" x2="21.65" y2="35.94"/><line class="cls-2" x1="23.65" y1="35.94" x2="23.65" y2="35.94"/><line class="cls-2" x1="25.63" y1="35.94" x2="25.63" y2="35.94"/><line class="cls-2" x1="0.78" y1="6.68" x2="0.78" y2="6.68"/><line class="cls-2" x1="18.77" y1="5.55" x2="18.77" y2="5.55"/><line class="cls-2" x1="16.89" y1="28.04" x2="16.89" y2="28.04"/><line class="cls-2" x1="16.89" y1="17.17" x2="16.89" y2="17.17"/><line class="cls-2" x1="14.64" y1="11.93" x2="14.64" y2="11.93"/><line class="cls-2" x1="24.77" y1="38.17" x2="24.77" y2="38.17"/><line class="cls-2" x1="18.39" y1="34.6" x2="18.39" y2="34.6"/><line class="cls-2" x1="6.21" y1="38.73" x2="6.21" y2="38.73"/><line class="cls-2" x1="17.08" y1="10.43" x2="17.08" y2="10.43"/><line class="cls-2" x1="20.27" y1="25.61" x2="20.27" y2="25.61"/><line class="cls-2" x1="26.26" y1="32.54" x2="26.26" y2="32.54"/><line class="cls-2" x1="26.16" y1="23.98" x2="26.16" y2="23.98"/><line class="cls-2" x1="26.08" y1="13.99" x2="26.08" y2="13.99"/><line class="cls-2" x1="23.16" y1="0.48" x2="23.16" y2="0.48"/><line class="cls-2" x1="4.06" y1="21.03" x2="4.06" y2="21.03"/><line class="cls-2" x1="14.08" y1="25.98" x2="14.08" y2="25.98"/><line class="cls-2" x1="9.32" y1="13.87" x2="9.32" y2="13.87"/><line class="cls-2" x1="6.21" y1="38.73" x2="6.21" y2="38.73"/><line class="cls-2" x1="17.08" y1="10.43" x2="17.08" y2="10.43"/><line class="cls-2" x1="26.26" y1="32.54" x2="26.26" y2="32.54"/><rect class="cls-1" x="-27.15" y="39.48" width="53.98" height="53.98"/><line class="cls-2" x1="3.96" y1="44.54" x2="3.96" y2="44.54"/><line class="cls-2" x1="6.96" y1="44.35" x2="6.96" y2="44.35"/><line class="cls-2" x1="8.66" y1="54.12" x2="8.66" y2="54.12"/><line class="cls-2" x1="13.89" y1="47.54" x2="13.89" y2="47.54"/><line class="cls-2" x1="15.21" y1="39.85" x2="15.21" y2="39.85"/><line class="cls-2" x1="23.45" y1="40.6" x2="23.45" y2="40.6"/><line class="cls-2" x1="23.44" y1="46.09" x2="23.44" y2="46.09"/><line class="cls-2" x1="21.99" y1="47.79" x2="21.99" y2="47.79"/><line class="cls-2" x1="21.77" y1="51.1" x2="21.77" y2="51.1"/><line class="cls-2" x1="20.69" y1="53.34" x2="20.69" y2="53.34"/><line class="cls-2" x1="0.59" y1="44.91" x2="0.59" y2="44.91"/><line class="cls-2" x1="5.46" y1="40.41" x2="5.46" y2="40.41"/><line class="cls-2" x1="11.27" y1="46.04" x2="11.27" y2="46.04"/><line class="cls-2" x1="-0.35" y1="47.54" x2="-0.35" y2="47.54"/><line class="cls-2" x1="2.27" y1="50.53" x2="2.27" y2="50.53"/><line class="cls-2" x1="6.83" y1="51.62" x2="6.83" y2="51.62"/><line class="cls-2" x1="10.71" y1="52.78" x2="10.71" y2="52.78"/><line class="cls-2" x1="17.46" y1="52.22" x2="17.46" y2="52.22"/><line class="cls-2" x1="17.46" y1="47.35" x2="17.46" y2="47.35"/><line class="cls-2" x1="16.89" y1="44.91" x2="16.89" y2="44.91"/><line class="cls-2" x1="23.45" y1="43.79" x2="23.45" y2="43.79"/><line class="cls-2" x1="20.45" y1="46.22" x2="20.45" y2="46.22"/><line class="cls-2" x1="14.46" y1="53.35" x2="14.46" y2="53.35"/><line class="cls-2" x1="3.02" y1="46.97" x2="3.02" y2="46.97"/><line class="cls-2" x1="7.52" y1="46.97" x2="7.52" y2="46.97"/><line class="cls-2" x1="13.89" y1="44.35" x2="13.89" y2="44.35"/><line class="cls-2" x1="20.83" y1="44.16" x2="20.83" y2="44.16"/><line class="cls-2" x1="19.89" y1="40.79" x2="19.89" y2="40.79"/><line class="cls-2" x1="24.95" y1="52.78" x2="24.95" y2="52.78"/><line class="cls-2" x1="12.77" y1="50.53" x2="12.77" y2="50.53"/><line class="cls-2" x1="1.34" y1="52.6" x2="1.34" y2="52.6"/><line class="cls-2" x1="-0.08" y1="42.67" x2="-0.08" y2="42.67"/><line class="cls-2" x1="1.92" y1="42.67" x2="1.92" y2="42.67"/><line class="cls-2" x1="3.92" y1="42.67" x2="3.92" y2="42.67"/><line class="cls-2" x1="5.92" y1="42.67" x2="5.92" y2="42.67"/><line class="cls-2" x1="7.92" y1="42.67" x2="7.92" y2="42.67"/><line class="cls-2" x1="9.92" y1="42.67" x2="9.92" y2="42.67"/><line class="cls-2" x1="11.92" y1="42.67" x2="11.92" y2="42.67"/><line class="cls-2" x1="13.92" y1="42.67" x2="13.92" y2="42.67"/><line class="cls-2" x1="15.92" y1="42.67" x2="15.92" y2="42.67"/><line class="cls-2" x1="17.93" y1="42.67" x2="17.93" y2="42.67"/><line class="cls-2" x1="19.93" y1="42.67" x2="19.93" y2="42.67"/><line class="cls-2" x1="21.93" y1="42.67" x2="21.93" y2="42.67"/><line class="cls-2" x1="23.93" y1="42.67" x2="23.93" y2="42.67"/><line class="cls-2" x1="25.92" y1="42.67" x2="25.92" y2="42.67"/><line class="cls-2" x1="-0.13" y1="49.42" x2="-0.13" y2="49.42"/><line class="cls-2" x1="1.87" y1="49.42" x2="1.87" y2="49.42"/><line class="cls-2" x1="3.87" y1="49.42" x2="3.87" y2="49.42"/><line class="cls-2" x1="5.86" y1="49.42" x2="5.86" y2="49.42"/><line class="cls-2" x1="7.86" y1="49.42" x2="7.86" y2="49.42"/><line class="cls-2" x1="9.86" y1="49.42" x2="9.86" y2="49.42"/><line class="cls-2" x1="11.87" y1="49.42" x2="11.87" y2="49.42"/><line class="cls-2" x1="13.87" y1="49.42" x2="13.87" y2="49.42"/><line class="cls-2" x1="15.87" y1="49.42" x2="15.87" y2="49.42"/><line class="cls-2" x1="17.87" y1="49.42" x2="17.87" y2="49.42"/><line class="cls-2" x1="19.88" y1="49.42" x2="19.88" y2="49.42"/><line class="cls-2" x1="21.88" y1="49.42" x2="21.88" y2="49.42"/><line class="cls-2" x1="23.88" y1="49.42" x2="23.88" y2="49.42"/><line class="cls-2" x1="25.86" y1="49.42" x2="25.86" y2="49.42"/><line class="cls-2" x1="10.15" y1="40.23" x2="10.15" y2="40.23"/><line class="cls-2" x1="25.7" y1="47.54" x2="25.7" y2="47.54"/><line class="cls-2" x1="2.65" y1="40.6" x2="2.65" y2="40.6"/><line class="cls-2" x1="10.71" y1="52.78" x2="10.71" y2="52.78"/><rect class="cls-1" width="53.98" height="53.98"/></svg>