<svg id="Layer_1" data-name="Layer 1" xmlns="http://www.w3.org/2000/svg" width="54" height="54" viewBox="0 0 54 54"><defs><style>.cls-1,.cls-2{fill:none;}.cls-1{stroke:#000;stroke-linecap:round;stroke-width:0.7px;}</style></defs><title>610</title><line class="cls-1" x1="26.96" y1="14.78" x2="26.96" y2="14.78"/><line class="cls-1" x1="28.87" y1="15.56" x2="28.87" y2="15.56"/><line class="cls-1" x1="28.87" y1="15.56" x2="28.87" y2="15.56"/><line class="cls-1" x1="25.05" y1="14" x2="25.05" y2="14"/><line class="cls-1" x1="23.03" y1="13.29" x2="23.03" y2="13.29"/><line class="cls-1" x1="26.96" y1="14.78" x2="26.96" y2="14.78"/><line class="cls-1" x1="30.71" y1="16.23" x2="30.71" y2="16.23"/><line class="cls-1" x1="32.62" y1="16.82" x2="32.62" y2="16.82"/><line class="cls-1" x1="34.49" y1="17.38" x2="34.49" y2="17.38"/><line class="cls-1" x1="36.4" y1="18.04" x2="36.4" y2="18.04"/><line class="cls-1" x1="38.32" y1="18.6" x2="38.32" y2="18.6"/><line class="cls-1" x1="40.15" y1="19.16" x2="40.15" y2="19.16"/><line class="cls-1" x1="42.18" y1="19.77" x2="42.18" y2="19.77"/><line class="cls-1" x1="44.03" y1="20.29" x2="44.03" y2="20.29"/><line class="cls-1" x1="47.96" y1="21.39" x2="47.96" y2="21.39"/><line class="cls-1" x1="45.95" y1="20.83" x2="45.95" y2="20.83"/><line class="cls-1" x1="49.86" y1="21.89" x2="49.86" y2="21.89"/><line class="cls-1" x1="51.81" y1="22.42" x2="51.81" y2="22.42"/><line class="cls-1" x1="53.73" y1="22.86" x2="53.73" y2="22.86"/><line class="cls-1" x1="18.96" y1="12.36" x2="18.96" y2="12.36"/><line class="cls-1" x1="21.02" y1="12.24" x2="21.02" y2="12.24"/><line class="cls-1" x1="21.02" y1="12.24" x2="21.02" y2="12.24"/><line class="cls-1" x1="18.96" y1="12.36" x2="18.96" y2="12.36"/><line class="cls-1" x1="22.95" y1="11.93" x2="22.95" y2="11.93"/><line class="cls-1" x1="24.95" y1="11.75" x2="24.95" y2="11.75"/><line class="cls-1" x1="26.88" y1="11.44" x2="26.88" y2="11.44"/><line class="cls-1" x1="28.94" y1="11.25" x2="28.94" y2="11.25"/><line class="cls-1" x1="30.86" y1="10.88" x2="30.86" y2="10.88"/><line class="cls-1" x1="32.85" y1="10.51" x2="32.85" y2="10.51"/><line class="cls-1" x1="34.85" y1="10.26" x2="34.85" y2="10.26"/><line class="cls-1" x1="36.83" y1="9.83" x2="36.83" y2="9.83"/><line class="cls-1" x1="40.75" y1="9.21" x2="40.75" y2="9.21"/><line class="cls-1" x1="38.7" y1="9.58" x2="38.7" y2="9.58"/><line class="cls-1" x1="42.68" y1="8.84" x2="42.68" y2="8.84"/><line class="cls-1" x1="44.67" y1="8.47" x2="44.67" y2="8.47"/><line class="cls-1" x1="46.6" y1="8.04" x2="46.6" y2="8.04"/><line class="cls-1" x1="48.65" y1="7.66" x2="48.65" y2="7.66"/><line class="cls-1" x1="50.51" y1="7.17" x2="50.51" y2="7.17"/><line class="cls-1" x1="52.44" y1="6.74" x2="52.44" y2="6.74"/><line class="cls-1" x1="19.43" y1="7.48" x2="19.43" y2="7.48"/><line class="cls-1" x1="21.43" y1="7.44" x2="21.43" y2="7.44"/><line class="cls-1" x1="23.38" y1="7.26" x2="23.38" y2="7.26"/><line class="cls-1" x1="25.44" y1="7.22" x2="25.44" y2="7.22"/><line class="cls-1" x1="27.39" y1="6.98" x2="27.39" y2="6.98"/><line class="cls-1" x1="29.4" y1="6.75" x2="29.4" y2="6.75"/><line class="cls-1" x1="31.41" y1="6.64" x2="31.41" y2="6.64"/><line class="cls-1" x1="33.42" y1="6.34" x2="33.42" y2="6.34"/><line class="cls-1" x1="37.38" y1="6" x2="37.38" y2="6"/><line class="cls-1" x1="35.3" y1="6.23" x2="35.3" y2="6.23"/><line class="cls-1" x1="39.32" y1="5.76" x2="39.32" y2="5.76"/><line class="cls-1" x1="41.33" y1="5.53" x2="41.33" y2="5.53"/><line class="cls-1" x1="43.29" y1="5.23" x2="43.29" y2="5.23"/><line class="cls-1" x1="45.36" y1="5" x2="45.36" y2="5"/><line class="cls-1" x1="47.25" y1="4.63" x2="47.25" y2="4.63"/><line class="cls-1" x1="49.2" y1="4.33" x2="49.2" y2="4.33"/><line class="cls-1" x1="51.21" y1="4.1" x2="51.21" y2="4.1"/><line class="cls-1" x1="53.17" y1="3.68" x2="53.17" y2="3.68"/><line class="cls-1" x1="19.11" y1="3.77" x2="19.11" y2="3.77"/><line class="cls-1" x1="21.07" y1="3.66" x2="21.07" y2="3.66"/><line class="cls-1" x1="23.09" y1="3.56" x2="23.09" y2="3.56"/><line class="cls-1" x1="25.1" y1="3.58" x2="25.1" y2="3.58"/><line class="cls-1" x1="27.13" y1="3.42" x2="27.13" y2="3.42"/><line class="cls-1" x1="31.1" y1="3.33" x2="31.1" y2="3.33"/><line class="cls-1" x1="29.02" y1="3.42" x2="29.02" y2="3.42"/><line class="cls-1" x1="33.06" y1="3.22" x2="33.06" y2="3.22"/><line class="cls-1" x1="35.08" y1="3.12" x2="35.08" y2="3.12"/><line class="cls-1" x1="37.05" y1="2.94" x2="37.05" y2="2.94"/><line class="cls-1" x1="39.13" y1="2.85" x2="39.13" y2="2.85"/><line class="cls-1" x1="41.04" y1="2.61" x2="41.04" y2="2.61"/><line class="cls-1" x1="43.01" y1="2.43" x2="43.01" y2="2.43"/><line class="cls-1" x1="45.03" y1="2.33" x2="45.03" y2="2.33"/><line class="cls-1" x1="49.04" y1="1.87" x2="49.04" y2="1.87"/><line class="cls-1" x1="47.01" y1="2.03" x2="47.01" y2="2.03"/><line class="cls-1" x1="51.01" y1="1.57" x2="51.01" y2="1.57"/><line class="cls-1" x1="52.99" y1="1.34" x2="52.99" y2="1.34"/><line class="cls-1" x1="19.15" y1="52.79" x2="19.15" y2="52.79"/><line class="cls-1" x1="20.96" y1="52.91" x2="20.96" y2="52.91"/><line class="cls-1" x1="22.96" y1="53.04" x2="22.96" y2="53.04"/><line class="cls-1" x1="25.03" y1="53.1" x2="25.03" y2="53.1"/><line class="cls-1" x1="27.21" y1="53.1" x2="27.21" y2="53.1"/><line class="cls-1" x1="31.32" y1="53.21" x2="31.32" y2="53.21"/><line class="cls-1" x1="29.23" y1="53.17" x2="29.23" y2="53.17"/><line class="cls-1" x1="33.28" y1="53.23" x2="33.28" y2="53.23"/><line class="cls-1" x1="35.3" y1="53.25" x2="35.3" y2="53.25"/><line class="cls-1" x1="37.28" y1="53.23" x2="37.28" y2="53.23"/><line class="cls-1" x1="39.34" y1="53.16" x2="39.34" y2="53.16"/><line class="cls-1" x1="41.12" y1="53.04" x2="41.12" y2="53.04"/><line class="cls-1" x1="43.15" y1="52.91" x2="43.15" y2="52.91"/><line class="cls-1" x1="45.15" y1="52.85" x2="45.15" y2="52.85"/><line class="cls-1" x1="49.21" y1="52.54" x2="49.21" y2="52.54"/><line class="cls-1" x1="47.09" y1="52.73" x2="47.09" y2="52.73"/><line class="cls-1" x1="51.21" y1="52.35" x2="51.21" y2="52.35"/><line class="cls-1" x1="53.09" y1="52.1" x2="53.09" y2="52.1"/><line class="cls-1" x1="19.09" y1="39.4" x2="19.09" y2="39.4"/><line class="cls-1" x1="21.15" y1="39.28" x2="21.15" y2="39.28"/><line class="cls-1" x1="21.15" y1="39.28" x2="21.15" y2="39.28"/><line class="cls-1" x1="19.09" y1="39.4" x2="19.09" y2="39.4"/><line class="cls-1" x1="23.21" y1="39.1" x2="23.21" y2="39.1"/><line class="cls-1" x1="25.07" y1="38.79" x2="25.07" y2="38.79"/><line class="cls-1" x1="27" y1="38.48" x2="27" y2="38.48"/><line class="cls-1" x1="29.06" y1="38.29" x2="29.06" y2="38.29"/><line class="cls-1" x1="30.99" y1="37.92" x2="30.99" y2="37.92"/><line class="cls-1" x1="32.98" y1="37.55" x2="32.98" y2="37.55"/><line class="cls-1" x1="34.97" y1="37.3" x2="34.97" y2="37.3"/><line class="cls-1" x1="36.96" y1="36.87" x2="36.96" y2="36.87"/><line class="cls-1" x1="40.88" y1="36.25" x2="40.88" y2="36.25"/><line class="cls-1" x1="38.83" y1="36.63" x2="38.83" y2="36.63"/><line class="cls-1" x1="42.81" y1="35.88" x2="42.81" y2="35.88"/><line class="cls-1" x1="44.8" y1="35.51" x2="44.8" y2="35.51"/><line class="cls-1" x1="46.72" y1="35.08" x2="46.72" y2="35.08"/><line class="cls-1" x1="48.77" y1="34.7" x2="48.77" y2="34.7"/><line class="cls-1" x1="50.64" y1="34.21" x2="50.64" y2="34.21"/><line class="cls-1" x1="52.56" y1="33.78" x2="52.56" y2="33.78"/><line class="cls-1" x1="19.34" y1="27.61" x2="19.34" y2="27.61"/><line class="cls-1" x1="19.4" y1="35.04" x2="19.4" y2="35.04"/><line class="cls-1" x1="21.46" y1="35.04" x2="21.46" y2="35.04"/><line class="cls-1" x1="23.53" y1="34.91" x2="23.53" y2="34.91"/><line class="cls-1" x1="25.65" y1="34.79" x2="25.65" y2="34.79"/><line class="cls-1" x1="27.59" y1="34.6" x2="27.59" y2="34.6"/><line class="cls-1" x1="29.59" y1="34.35" x2="29.59" y2="34.35"/><line class="cls-1" x1="31.71" y1="34.16" x2="31.71" y2="34.16"/><line class="cls-1" x1="33.59" y1="33.85" x2="33.59" y2="33.85"/><line class="cls-1" x1="37.59" y1="33.23" x2="37.59" y2="33.23"/><line class="cls-1" x1="35.59" y1="33.6" x2="35.59" y2="33.6"/><line class="cls-1" x1="39.46" y1="32.91" x2="39.46" y2="32.91"/><line class="cls-1" x1="41.46" y1="32.57" x2="41.46" y2="32.57"/><line class="cls-1" x1="43.41" y1="32.27" x2="43.41" y2="32.27"/><line class="cls-1" x1="45.48" y1="32.04" x2="45.48" y2="32.04"/><line class="cls-1" x1="47.37" y1="31.67" x2="47.37" y2="31.67"/><line class="cls-1" x1="49.33" y1="31.37" x2="49.33" y2="31.37"/><line class="cls-1" x1="51.34" y1="31.14" x2="51.34" y2="31.14"/><line class="cls-1" x1="53.29" y1="30.72" x2="53.29" y2="30.72"/><line class="cls-1" x1="19.24" y1="30.82" x2="19.24" y2="30.82"/><line class="cls-1" x1="21.2" y1="30.71" x2="21.2" y2="30.71"/><line class="cls-1" x1="23.22" y1="30.6" x2="23.22" y2="30.6"/><line class="cls-1" x1="25.23" y1="30.62" x2="25.23" y2="30.62"/><line class="cls-1" x1="27.26" y1="30.46" x2="27.26" y2="30.46"/><line class="cls-1" x1="31.22" y1="30.37" x2="31.22" y2="30.37"/><line class="cls-1" x1="29.14" y1="30.47" x2="29.14" y2="30.47"/><line class="cls-1" x1="33.18" y1="30.26" x2="33.18" y2="30.26"/><line class="cls-1" x1="35.21" y1="30.16" x2="35.21" y2="30.16"/><line class="cls-1" x1="37.17" y1="29.98" x2="37.17" y2="29.98"/><line class="cls-1" x1="39.26" y1="29.89" x2="39.26" y2="29.89"/><line class="cls-1" x1="41.17" y1="29.65" x2="41.17" y2="29.65"/><line class="cls-1" x1="43.13" y1="29.48" x2="43.13" y2="29.48"/><line class="cls-1" x1="45.15" y1="29.37" x2="45.15" y2="29.37"/><line class="cls-1" x1="49.16" y1="28.91" x2="49.16" y2="28.91"/><line class="cls-1" x1="47.13" y1="29.08" x2="47.13" y2="29.08"/><line class="cls-1" x1="51.14" y1="28.61" x2="51.14" y2="28.61"/><line class="cls-1" x1="53.11" y1="28.38" x2="53.11" y2="28.38"/><line class="cls-1" x1="19.37" y1="25.88" x2="19.37" y2="25.88"/><line class="cls-1" x1="21.33" y1="25.9" x2="21.33" y2="25.9"/><line class="cls-1" x1="23.35" y1="25.93" x2="23.35" y2="25.93"/><line class="cls-1" x1="25.36" y1="26.08" x2="25.36" y2="26.08"/><line class="cls-1" x1="27.39" y1="26.04" x2="27.39" y2="26.04"/><line class="cls-1" x1="31.36" y1="26.21" x2="31.36" y2="26.21"/><line class="cls-1" x1="29.27" y1="26.17" x2="29.27" y2="26.17"/><line class="cls-1" x1="33.32" y1="26.23" x2="33.32" y2="26.23"/><line class="cls-1" x1="35.34" y1="26.25" x2="35.34" y2="26.25"/><line class="cls-1" x1="37.32" y1="26.21" x2="37.32" y2="26.21"/><line class="cls-1" x1="39.4" y1="26.25" x2="39.4" y2="26.25"/><line class="cls-1" x1="41.32" y1="26.13" x2="41.32" y2="26.13"/><line class="cls-1" x1="43.3" y1="26.08" x2="43.3" y2="26.08"/><line class="cls-1" x1="45.32" y1="26.11" x2="45.32" y2="26.11"/><line class="cls-1" x1="49.35" y1="25.91" x2="49.35" y2="25.91"/><line class="cls-1" x1="47.31" y1="25.94" x2="47.31" y2="25.94"/><line class="cls-1" x1="51.34" y1="25.74" x2="51.34" y2="25.74"/><line class="cls-1" x1="53.33" y1="25.63" x2="53.33" y2="25.63"/><line class="cls-1" x1="52.9" y1="8.07" x2="52.9" y2="8.07"/><line class="cls-1" x1="49.35" y1="18.13" x2="49.35" y2="18.13"/><line class="cls-1" x1="51.32" y1="18.72" x2="51.32" y2="18.72"/><line class="cls-1" x1="51.32" y1="18.72" x2="51.32" y2="18.72"/><line class="cls-1" x1="47.37" y1="17.54" x2="47.37" y2="17.54"/><line class="cls-1" x1="49.35" y1="18.13" x2="49.35" y2="18.13"/><line class="cls-1" x1="53.24" y1="19.1" x2="53.24" y2="19.1"/><line class="cls-1" x1="32.29" y1="12.12" x2="32.29" y2="12.12"/><line class="cls-1" x1="34.18" y1="12.95" x2="34.18" y2="12.95"/><line class="cls-1" x1="34.18" y1="12.95" x2="34.18" y2="12.95"/><line class="cls-1" x1="32.29" y1="12.12" x2="32.29" y2="12.12"/><line class="cls-1" x1="36.04" y1="13.56" x2="36.04" y2="13.56"/><line class="cls-1" x1="37.89" y1="14.31" x2="37.89" y2="14.31"/><line class="cls-1" x1="39.75" y1="14.93" x2="39.75" y2="14.93"/><line class="cls-1" x1="41.66" y1="15.7" x2="41.66" y2="15.7"/><line class="cls-1" x1="43.55" y1="16.26" x2="43.55" y2="16.26"/><line class="cls-1" x1="45.49" y1="16.84" x2="45.49" y2="16.84"/><line class="cls-1" x1="47.37" y1="17.54" x2="47.37" y2="17.54"/><line class="cls-1" x1="40.8" y1="11.33" x2="40.8" y2="11.33"/><line class="cls-1" x1="42.71" y1="12.11" x2="42.71" y2="12.11"/><line class="cls-1" x1="42.71" y1="12.11" x2="42.71" y2="12.11"/><line class="cls-1" x1="40.8" y1="11.33" x2="40.8" y2="11.33"/><line class="cls-1" x1="44.58" y1="12.66" x2="44.58" y2="12.66"/><line class="cls-1" x1="46.46" y1="13.36" x2="46.46" y2="13.36"/><line class="cls-1" x1="48.33" y1="13.91" x2="48.33" y2="13.91"/><line class="cls-1" x1="50.27" y1="14.63" x2="50.27" y2="14.63"/><line class="cls-1" x1="52.17" y1="15.13" x2="52.17" y2="15.13"/><line class="cls-1" x1="54.13" y1="15.65" x2="54.13" y2="15.65"/><line class="cls-1" x1="46.71" y1="9.32" x2="46.71" y2="9.32"/><line class="cls-1" x1="48.55" y1="10.11" x2="48.55" y2="10.11"/><line class="cls-1" x1="50.39" y1="10.76" x2="50.39" y2="10.76"/><line class="cls-1" x1="52.29" y1="11.58" x2="52.29" y2="11.58"/><line class="cls-1" x1="54.16" y1="12.18" x2="54.16" y2="12.18"/><line class="cls-1" x1="49.35" y1="45.13" x2="49.35" y2="45.13"/><line class="cls-1" x1="51.32" y1="45.72" x2="51.32" y2="45.72"/><line class="cls-1" x1="51.32" y1="45.72" x2="51.32" y2="45.72"/><line class="cls-1" x1="47.37" y1="44.54" x2="47.37" y2="44.54"/><line class="cls-1" x1="49.35" y1="45.13" x2="49.35" y2="45.13"/><line class="cls-1" x1="53.24" y1="46.1" x2="53.24" y2="46.1"/><line class="cls-1" x1="32.29" y1="39.12" x2="32.29" y2="39.12"/><line class="cls-1" x1="34.18" y1="39.95" x2="34.18" y2="39.95"/><line class="cls-1" x1="34.18" y1="39.95" x2="34.18" y2="39.95"/><line class="cls-1" x1="32.29" y1="39.12" x2="32.29" y2="39.12"/><line class="cls-1" x1="36.04" y1="40.56" x2="36.04" y2="40.56"/><line class="cls-1" x1="37.89" y1="41.31" x2="37.89" y2="41.31"/><line class="cls-1" x1="39.75" y1="41.93" x2="39.75" y2="41.93"/><line class="cls-1" x1="41.66" y1="42.7" x2="41.66" y2="42.7"/><line class="cls-1" x1="43.55" y1="43.26" x2="43.55" y2="43.26"/><line class="cls-1" x1="45.49" y1="43.84" x2="45.49" y2="43.84"/><line class="cls-1" x1="47.37" y1="44.54" x2="47.37" y2="44.54"/><line class="cls-1" x1="40.8" y1="38.33" x2="40.8" y2="38.33"/><line class="cls-1" x1="42.71" y1="39.11" x2="42.71" y2="39.11"/><line class="cls-1" x1="42.71" y1="39.11" x2="42.71" y2="39.11"/><line class="cls-1" x1="40.8" y1="38.33" x2="40.8" y2="38.33"/><line class="cls-1" x1="44.58" y1="39.66" x2="44.58" y2="39.66"/><line class="cls-1" x1="46.46" y1="40.36" x2="46.46" y2="40.36"/><line class="cls-1" x1="48.33" y1="40.91" x2="48.33" y2="40.91"/><line class="cls-1" x1="50.27" y1="41.63" x2="50.27" y2="41.63"/><line class="cls-1" x1="52.17" y1="42.13" x2="52.17" y2="42.13"/><line class="cls-1" x1="54.13" y1="42.65" x2="54.13" y2="42.65"/><line class="cls-1" x1="46.71" y1="36.32" x2="46.71" y2="36.32"/><line class="cls-1" x1="48.55" y1="37.11" x2="48.55" y2="37.11"/><line class="cls-1" x1="50.39" y1="37.76" x2="50.39" y2="37.76"/><line class="cls-1" x1="52.29" y1="38.58" x2="52.29" y2="38.58"/><line class="cls-1" x1="54.16" y1="39.18" x2="54.16" y2="39.18"/><line class="cls-1" x1="19.76" y1="46.83" x2="19.76" y2="46.83"/><line class="cls-1" x1="21.79" y1="46.99" x2="21.79" y2="46.99"/><line class="cls-1" x1="25.59" y1="47.41" x2="25.59" y2="47.41"/><line class="cls-1" x1="23.65" y1="47.23" x2="23.65" y2="47.23"/><line class="cls-1" x1="19.52" y1="44.51" x2="19.52" y2="44.51"/><line class="cls-1" x1="21.46" y1="44.79" x2="21.46" y2="44.79"/><line class="cls-1" x1="29.71" y1="47.79" x2="29.71" y2="47.79"/><line class="cls-1" x1="27.71" y1="47.6" x2="27.71" y2="47.6"/><line class="cls-1" x1="31.78" y1="47.98" x2="31.78" y2="47.98"/><line class="cls-1" x1="33.78" y1="48.04" x2="33.78" y2="48.04"/><line class="cls-1" x1="35.96" y1="48.16" x2="35.96" y2="48.16"/><line class="cls-1" x1="38.65" y1="48.29" x2="38.65" y2="48.29"/><line class="cls-1" x1="41.15" y1="48.41" x2="41.15" y2="48.41"/><line class="cls-1" x1="43.65" y1="48.48" x2="43.65" y2="48.48"/><line class="cls-1" x1="32.03" y1="46.24" x2="32.03" y2="46.24"/><line class="cls-1" x1="34.28" y1="46.48" x2="34.28" y2="46.48"/><line class="cls-1" x1="38.34" y1="46.6" x2="38.34" y2="46.6"/><line class="cls-1" x1="36.4" y1="46.54" x2="36.4" y2="46.54"/><line class="cls-1" x1="29.78" y1="46.04" x2="29.78" y2="46.04"/><line class="cls-1" x1="23.46" y1="45.16" x2="23.46" y2="45.16"/><line class="cls-1" x1="27.59" y1="45.73" x2="27.59" y2="45.73"/><line class="cls-1" x1="25.53" y1="45.48" x2="25.53" y2="45.48"/><line class="cls-1" x1="18.93" y1="41.21" x2="18.93" y2="41.21"/><line class="cls-1" x1="20.84" y1="41.98" x2="20.84" y2="41.98"/><line class="cls-1" x1="22.78" y1="42.54" x2="22.78" y2="42.54"/><line class="cls-1" x1="24.59" y1="43.04" x2="24.59" y2="43.04"/><line class="cls-1" x1="26.46" y1="43.54" x2="26.46" y2="43.54"/><line class="cls-1" x1="30.5" y1="44.38" x2="30.5" y2="44.38"/><line class="cls-1" x1="28.4" y1="43.98" x2="28.4" y2="43.98"/><line class="cls-1" x1="19.22" y1="49.61" x2="19.22" y2="49.61"/><line class="cls-1" x1="21.4" y1="49.73" x2="21.4" y2="49.73"/><line class="cls-1" x1="23.4" y1="49.86" x2="23.4" y2="49.86"/><line class="cls-1" x1="25.47" y1="49.92" x2="25.47" y2="49.92"/><line class="cls-1" x1="27.34" y1="50.16" x2="27.34" y2="50.16"/><line class="cls-1" x1="29.34" y1="50.29" x2="29.34" y2="50.29"/><line class="cls-1" x1="31.28" y1="50.41" x2="31.28" y2="50.41"/><line class="cls-1" x1="35.28" y1="50.54" x2="35.28" y2="50.54"/><line class="cls-1" x1="33.21" y1="50.48" x2="33.21" y2="50.48"/><line class="cls-1" x1="37.28" y1="50.66" x2="37.28" y2="50.66"/><line class="cls-1" x1="39.32" y1="50.66" x2="39.32" y2="50.66"/><line class="cls-1" x1="41.32" y1="50.74" x2="41.32" y2="50.74"/><line class="cls-1" x1="43.34" y1="50.76" x2="43.34" y2="50.76"/><line class="cls-1" x1="47.34" y1="50.66" x2="47.34" y2="50.66"/><line class="cls-1" x1="45.3" y1="50.76" x2="45.3" y2="50.76"/><line class="cls-1" x1="49.28" y1="50.54" x2="49.28" y2="50.54"/><line class="cls-1" x1="51.28" y1="50.35" x2="51.28" y2="50.35"/><line class="cls-1" x1="19.76" y1="19.83" x2="19.76" y2="19.83"/><line class="cls-1" x1="21.79" y1="19.99" x2="21.79" y2="19.99"/><line class="cls-1" x1="25.72" y1="20.52" x2="25.72" y2="20.52"/><line class="cls-1" x1="23.65" y1="20.29" x2="23.65" y2="20.29"/><line class="cls-1" x1="19.52" y1="17.51" x2="19.52" y2="17.51"/><line class="cls-1" x1="21.47" y1="18" x2="21.47" y2="18"/><line class="cls-1" x1="29.76" y1="20.88" x2="29.76" y2="20.88"/><line class="cls-1" x1="27.76" y1="20.8" x2="27.76" y2="20.8"/><line class="cls-1" x1="31.84" y1="20.99" x2="31.84" y2="20.99"/><line class="cls-1" x1="34.03" y1="21.11" x2="34.03" y2="21.11"/><line class="cls-1" x1="36.28" y1="21.17" x2="36.28" y2="21.17"/><line class="cls-1" x1="38.72" y1="21.05" x2="38.72" y2="21.05"/><line class="cls-1" x1="40.84" y1="20.92" x2="40.84" y2="20.92"/><line class="cls-1" x1="32.03" y1="19.24" x2="32.03" y2="19.24"/><line class="cls-1" x1="34.15" y1="19.3" x2="34.15" y2="19.3"/><line class="cls-1" x1="36.47" y1="19.36" x2="36.47" y2="19.36"/><line class="cls-1" x1="29.65" y1="19.3" x2="29.65" y2="19.3"/><line class="cls-1" x1="23.49" y1="18.27" x2="23.49" y2="18.27"/><line class="cls-1" x1="27.47" y1="18.99" x2="27.47" y2="18.99"/><line class="cls-1" x1="25.33" y1="18.67" x2="25.33" y2="18.67"/><line class="cls-1" x1="19.22" y1="22.61" x2="19.22" y2="22.61"/><line class="cls-1" x1="21.34" y1="22.67" x2="21.34" y2="22.67"/><line class="cls-1" x1="23.4" y1="22.86" x2="23.4" y2="22.86"/><line class="cls-1" x1="25.47" y1="22.92" x2="25.47" y2="22.92"/><line class="cls-1" x1="27.59" y1="22.99" x2="27.59" y2="22.99"/><line class="cls-1" x1="29.53" y1="23.05" x2="29.53" y2="23.05"/><line class="cls-1" x1="31.32" y1="23.14" x2="31.32" y2="23.14"/><line class="cls-1" x1="35.34" y1="23.44" x2="35.34" y2="23.44"/><line class="cls-1" x1="33.32" y1="23.22" x2="33.32" y2="23.22"/><line class="cls-1" x1="37.34" y1="23.52" x2="37.34" y2="23.52"/><line class="cls-1" x1="39.32" y1="23.66" x2="39.32" y2="23.66"/><line class="cls-1" x1="41.32" y1="23.74" x2="41.32" y2="23.74"/><line class="cls-1" x1="43.34" y1="23.76" x2="43.34" y2="23.76"/><line class="cls-1" x1="47.29" y1="23.85" x2="47.29" y2="23.85"/><line class="cls-1" x1="45.3" y1="23.76" x2="45.3" y2="23.76"/><line class="cls-1" x1="49.35" y1="23.75" x2="49.35" y2="23.75"/><line class="cls-1" x1="51.34" y1="23.63" x2="51.34" y2="23.63"/><line class="cls-1" x1="20.71" y1="14.85" x2="20.71" y2="14.85"/><line class="cls-1" x1="22.71" y1="15.54" x2="22.71" y2="15.54"/><line class="cls-1" x1="24.71" y1="15.98" x2="24.71" y2="15.98"/><line class="cls-1" x1="26.71" y1="16.41" x2="26.71" y2="16.41"/><line class="cls-1" x1="28.71" y1="16.73" x2="28.71" y2="16.73"/><line class="cls-1" x1="18.81" y1="13.98" x2="18.81" y2="13.98"/><line class="cls-1" x1="52.71" y1="35.29" x2="52.71" y2="35.29"/><line class="cls-1" x1="29.17" y1="41.85" x2="29.17" y2="41.85"/><line class="cls-1" x1="31.11" y1="42.66" x2="31.11" y2="42.66"/><line class="cls-1" x1="32.98" y1="43.48" x2="32.98" y2="43.48"/><line class="cls-1" x1="34.73" y1="44.16" x2="34.73" y2="44.16"/><line class="cls-1" x1="36.48" y1="44.79" x2="36.48" y2="44.79"/><line class="cls-1" x1="38.48" y1="45.54" x2="38.48" y2="45.54"/><line class="cls-1" x1="40.54" y1="46.23" x2="40.54" y2="46.23"/><line class="cls-1" x1="42.48" y1="46.85" x2="42.48" y2="46.85"/><line class="cls-1" x1="44.29" y1="47.41" x2="44.29" y2="47.41"/><line class="cls-1" x1="48.23" y1="48.54" x2="48.23" y2="48.54"/><line class="cls-1" x1="46.29" y1="47.98" x2="46.29" y2="47.98"/><line class="cls-1" x1="50.17" y1="48.98" x2="50.17" y2="48.98"/><line class="cls-1" x1="51.98" y1="49.41" x2="51.98" y2="49.41"/><line class="cls-1" x1="53.75" y1="49.9" x2="53.75" y2="49.9"/><line class="cls-1" x1="27.23" y1="41.04" x2="27.23" y2="41.04"/><line class="cls-1" x1="25.23" y1="40.1" x2="25.23" y2="40.1"/><rect class="cls-2" x="18.34" y="-0.2" width="54" height="54"/><rect class="cls-2" x="18.34" y="53.8" width="54" height="54"/><line class="cls-1" x1="-0.27" y1="22.86" x2="-0.27" y2="22.86"/><line class="cls-1" x1="1.75" y1="23.41" x2="1.75" y2="23.41"/><line class="cls-1" x1="3.64" y1="23.78" x2="3.64" y2="23.78"/><line class="cls-1" x1="5.56" y1="24.22" x2="5.56" y2="24.22"/><line class="cls-1" x1="7.4" y1="24.54" x2="7.4" y2="24.54"/><line class="cls-1" x1="11.53" y1="25.23" x2="11.53" y2="25.23"/><line class="cls-1" x1="9.46" y1="24.91" x2="9.46" y2="24.91"/><line class="cls-1" x1="13.4" y1="25.48" x2="13.4" y2="25.48"/><line class="cls-1" x1="15.4" y1="25.67" x2="15.4" y2="25.67"/><line class="cls-1" x1="17.34" y1="25.8" x2="17.34" y2="25.8"/><line class="cls-1" x1="0.43" y1="6.37" x2="0.43" y2="6.37"/><line class="cls-1" x1="4.34" y1="5.37" x2="4.34" y2="5.37"/><line class="cls-1" x1="2.35" y1="5.81" x2="2.35" y2="5.81"/><line class="cls-1" x1="6.26" y1="4.82" x2="6.26" y2="4.82"/><line class="cls-1" x1="8.18" y1="4.32" x2="8.18" y2="4.32"/><line class="cls-1" x1="10.1" y1="3.76" x2="10.1" y2="3.76"/><line class="cls-1" x1="12.02" y1="3.14" x2="12.02" y2="3.14"/><line class="cls-1" x1="15.8" y1="1.97" x2="15.8" y2="1.97"/><line class="cls-1" x1="13.88" y1="2.53" x2="13.88" y2="2.53"/><line class="cls-1" x1="17.72" y1="1.22" x2="17.72" y2="1.22"/><line class="cls-1" x1="1.18" y1="3.38" x2="1.18" y2="3.38"/><line class="cls-1" x1="3.14" y1="2.96" x2="3.14" y2="2.96"/><line class="cls-1" x1="5.09" y1="2.59" x2="5.09" y2="2.59"/><line class="cls-1" x1="7.04" y1="2.17" x2="7.04" y2="2.17"/><line class="cls-1" x1="9" y1="1.68" x2="9" y2="1.68"/><line class="cls-1" x1="12.85" y1="0.77" x2="12.85" y2="0.77"/><line class="cls-1" x1="10.9" y1="1.2" x2="10.9" y2="1.2"/><line class="cls-1" x1="14.84" y1="0.24" x2="14.84" y2="0.24"/><line class="cls-1" x1="0.97" y1="1.04" x2="0.97" y2="1.04"/><line class="cls-1" x1="2.9" y1="0.54" x2="2.9" y2="0.54"/><line class="cls-1" x1="4.78" y1="0.16" x2="4.78" y2="0.16"/><line class="cls-1" x1="16.91" y1="12.35" x2="16.91" y2="12.35"/><line class="cls-1" x1="15.46" y1="7.55" x2="15.46" y2="7.55"/><line class="cls-1" x1="17.52" y1="7.66" x2="17.52" y2="7.66"/><line class="cls-1" x1="17.52" y1="7.66" x2="17.52" y2="7.66"/><line class="cls-1" x1="13.4" y1="7.45" x2="13.4" y2="7.45"/><line class="cls-1" x1="14.72" y1="12.37" x2="14.72" y2="12.37"/><line class="cls-1" x1="7.77" y1="11.32" x2="7.77" y2="11.32"/><line class="cls-1" x1="15.46" y1="7.55" x2="15.46" y2="7.55"/><line class="cls-1" x1="15.14" y1="3.73" x2="15.14" y2="3.73"/><line class="cls-1" x1="17.09" y1="3.68" x2="17.09" y2="3.68"/><line class="cls-1" x1="6.65" y1="53.48" x2="6.65" y2="53.48"/><line class="cls-1" x1="8.34" y1="52.85" x2="8.34" y2="52.85"/><line class="cls-1" x1="0.96" y1="51.91" x2="0.96" y2="51.91"/><line class="cls-1" x1="2.71" y1="51.73" x2="2.71" y2="51.73"/><line class="cls-1" x1="0.55" y1="33.41" x2="0.55" y2="33.41"/><line class="cls-1" x1="4.46" y1="32.42" x2="4.46" y2="32.42"/><line class="cls-1" x1="2.47" y1="32.85" x2="2.47" y2="32.85"/><line class="cls-1" x1="6.38" y1="31.86" x2="6.38" y2="31.86"/><line class="cls-1" x1="8.31" y1="31.36" x2="8.31" y2="31.36"/><line class="cls-1" x1="10.23" y1="30.81" x2="10.23" y2="30.81"/><line class="cls-1" x1="12.15" y1="30.19" x2="12.15" y2="30.19"/><line class="cls-1" x1="15.93" y1="29.01" x2="15.93" y2="29.01"/><line class="cls-1" x1="14.01" y1="29.57" x2="14.01" y2="29.57"/><line class="cls-1" x1="17.47" y1="28.42" x2="17.47" y2="28.42"/><line class="cls-1" x1="1.3" y1="30.42" x2="1.3" y2="30.42"/><line class="cls-1" x1="3.26" y1="30" x2="3.26" y2="30"/><line class="cls-1" x1="5.21" y1="29.64" x2="5.21" y2="29.64"/><line class="cls-1" x1="7.17" y1="29.21" x2="7.17" y2="29.21"/><line class="cls-1" x1="9.13" y1="28.73" x2="9.13" y2="28.73"/><line class="cls-1" x1="12.98" y1="27.81" x2="12.98" y2="27.81"/><line class="cls-1" x1="11.02" y1="28.24" x2="11.02" y2="28.24"/><line class="cls-1" x1="14.97" y1="27.28" x2="14.97" y2="27.28"/><line class="cls-1" x1="1.09" y1="28.08" x2="1.09" y2="28.08"/><line class="cls-1" x1="3.08" y1="27.73" x2="3.08" y2="27.73"/><line class="cls-1" x1="6.9" y1="26.84" x2="6.9" y2="26.84"/><line class="cls-1" x1="5" y1="27.36" x2="5" y2="27.36"/><line class="cls-1" x1="8.9" y1="26.36" x2="8.9" y2="26.36"/><line class="cls-1" x1="1.32" y1="25.47" x2="1.32" y2="25.47"/><line class="cls-1" x1="3.33" y1="25.24" x2="3.33" y2="25.24"/><line class="cls-1" x1="15.46" y1="7.55" x2="15.46" y2="7.55"/><line class="cls-1" x1="17.52" y1="7.66" x2="17.52" y2="7.66"/><line class="cls-1" x1="13.4" y1="7.45" x2="13.4" y2="7.45"/><line class="cls-1" x1="11.39" y1="7.19" x2="11.39" y2="7.19"/><line class="cls-1" x1="8.91" y1="6.77" x2="8.91" y2="6.77"/><line class="cls-1" x1="14.72" y1="12.37" x2="14.72" y2="12.37"/><line class="cls-1" x1="12.7" y1="12.17" x2="12.7" y2="12.17"/><line class="cls-1" x1="10.21" y1="11.84" x2="10.21" y2="11.84"/><line class="cls-1" x1="7.77" y1="11.32" x2="7.77" y2="11.32"/><line class="cls-1" x1="7.77" y1="11.32" x2="7.77" y2="11.32"/><line class="cls-1" x1="5.8" y1="10.85" x2="5.8" y2="10.85"/><line class="cls-1" x1="3.38" y1="10.17" x2="3.38" y2="10.17"/><line class="cls-1" x1="1.04" y1="9.31" x2="1.04" y2="9.31"/><line class="cls-1" x1="15.04" y1="30.71" x2="15.04" y2="30.71"/><line class="cls-1" x1="16.99" y1="30.66" x2="16.99" y2="30.66"/><line class="cls-1" x1="1.18" y1="19.61" x2="1.18" y2="19.61"/><line class="cls-1" x1="3.09" y1="19.99" x2="3.09" y2="19.99"/><line class="cls-1" x1="5.09" y1="20.52" x2="5.09" y2="20.52"/><line class="cls-1" x1="7.03" y1="20.84" x2="7.03" y2="20.84"/><line class="cls-1" x1="9.02" y1="21.18" x2="9.02" y2="21.18"/><line class="cls-1" x1="10.98" y1="21.63" x2="10.98" y2="21.63"/><line class="cls-1" x1="13" y1="21.85" x2="13" y2="21.85"/><line class="cls-1" x1="16.92" y1="22.51" x2="16.92" y2="22.51"/><line class="cls-1" x1="14.85" y1="22.21" x2="14.85" y2="22.21"/><line class="cls-1" x1="4.03" y1="16.81" x2="4.03" y2="16.81"/><line class="cls-1" x1="6.02" y1="17.35" x2="6.02" y2="17.35"/><line class="cls-1" x1="6.02" y1="17.35" x2="6.02" y2="17.35"/><line class="cls-1" x1="2.03" y1="16.28" x2="2.03" y2="16.28"/><line class="cls-1" x1="4.03" y1="16.81" x2="4.03" y2="16.81"/><line class="cls-1" x1="7.95" y1="17.66" x2="7.95" y2="17.66"/><line class="cls-1" x1="9.9" y1="18.12" x2="9.9" y2="18.12"/><line class="cls-1" x1="11.83" y1="18.43" x2="11.83" y2="18.43"/><line class="cls-1" x1="13.84" y1="18.91" x2="13.84" y2="18.91"/><line class="cls-1" x1="15.78" y1="19.16" x2="15.78" y2="19.16"/><line class="cls-1" x1="17.68" y1="19.46" x2="17.68" y2="19.46"/><line class="cls-1" x1="0.13" y1="15.65" x2="0.13" y2="15.65"/><line class="cls-1" x1="2.03" y1="16.28" x2="2.03" y2="16.28"/><line class="cls-1" x1="5.91" y1="14.17" x2="5.91" y2="14.17"/><line class="cls-1" x1="7.88" y1="14.8" x2="7.88" y2="14.8"/><line class="cls-1" x1="7.88" y1="14.8" x2="7.88" y2="14.8"/><line class="cls-1" x1="3.95" y1="13.53" x2="3.95" y2="13.53"/><line class="cls-1" x1="5.91" y1="14.17" x2="5.91" y2="14.17"/><line class="cls-1" x1="9.79" y1="15.22" x2="9.79" y2="15.22"/><line class="cls-1" x1="11.71" y1="15.78" x2="11.71" y2="15.78"/><line class="cls-1" x1="13.62" y1="16.19" x2="13.62" y2="16.19"/><line class="cls-1" x1="15.6" y1="16.77" x2="15.6" y2="16.77"/><line class="cls-1" x1="17.53" y1="17.13" x2="17.53" y2="17.13"/><line class="cls-1" x1="0.16" y1="12.18" x2="0.16" y2="12.18"/><line class="cls-1" x1="2.08" y1="12.8" x2="2.08" y2="12.8"/><line class="cls-1" x1="3.95" y1="13.53" x2="3.95" y2="13.53"/><line class="cls-1" x1="1.18" y1="46.61" x2="1.18" y2="46.61"/><line class="cls-1" x1="3.09" y1="46.99" x2="3.09" y2="46.99"/><line class="cls-1" x1="5.09" y1="47.52" x2="5.09" y2="47.52"/><line class="cls-1" x1="7.03" y1="47.84" x2="7.03" y2="47.84"/><line class="cls-1" x1="9.02" y1="48.18" x2="9.02" y2="48.18"/><line class="cls-1" x1="10.98" y1="48.63" x2="10.98" y2="48.63"/><line class="cls-1" x1="13" y1="48.85" x2="13" y2="48.85"/><line class="cls-1" x1="16.92" y1="49.51" x2="16.92" y2="49.51"/><line class="cls-1" x1="14.85" y1="49.21" x2="14.85" y2="49.21"/><line class="cls-1" x1="4.03" y1="43.81" x2="4.03" y2="43.81"/><line class="cls-1" x1="6.02" y1="44.35" x2="6.02" y2="44.35"/><line class="cls-1" x1="6.02" y1="44.35" x2="6.02" y2="44.35"/><line class="cls-1" x1="2.03" y1="43.28" x2="2.03" y2="43.28"/><line class="cls-1" x1="4.03" y1="43.81" x2="4.03" y2="43.81"/><line class="cls-1" x1="7.95" y1="44.66" x2="7.95" y2="44.66"/><line class="cls-1" x1="9.9" y1="45.12" x2="9.9" y2="45.12"/><line class="cls-1" x1="11.83" y1="45.43" x2="11.83" y2="45.43"/><line class="cls-1" x1="13.84" y1="45.91" x2="13.84" y2="45.91"/><line class="cls-1" x1="15.78" y1="46.16" x2="15.78" y2="46.16"/><line class="cls-1" x1="17.68" y1="46.46" x2="17.68" y2="46.46"/><line class="cls-1" x1="0.13" y1="42.65" x2="0.13" y2="42.65"/><line class="cls-1" x1="2.03" y1="43.28" x2="2.03" y2="43.28"/><line class="cls-1" x1="5.91" y1="41.17" x2="5.91" y2="41.17"/><line class="cls-1" x1="7.88" y1="41.8" x2="7.88" y2="41.8"/><line class="cls-1" x1="7.88" y1="41.8" x2="7.88" y2="41.8"/><line class="cls-1" x1="3.95" y1="40.53" x2="3.95" y2="40.53"/><line class="cls-1" x1="5.91" y1="41.17" x2="5.91" y2="41.17"/><line class="cls-1" x1="9.79" y1="42.22" x2="9.79" y2="42.22"/><line class="cls-1" x1="11.71" y1="42.78" x2="11.71" y2="42.78"/><line class="cls-1" x1="13.62" y1="43.19" x2="13.62" y2="43.19"/><line class="cls-1" x1="15.6" y1="43.77" x2="15.6" y2="43.77"/><line class="cls-1" x1="17.53" y1="44.13" x2="17.53" y2="44.13"/><line class="cls-1" x1="0.16" y1="39.18" x2="0.16" y2="39.18"/><line class="cls-1" x1="2.08" y1="39.8" x2="2.08" y2="39.8"/><line class="cls-1" x1="3.95" y1="40.53" x2="3.95" y2="40.53"/><line class="cls-1" x1="14.84" y1="39.35" x2="14.84" y2="39.35"/><line class="cls-1" x1="16.96" y1="39.41" x2="16.96" y2="39.41"/><line class="cls-1" x1="15.03" y1="34.91" x2="15.03" y2="34.91"/><line class="cls-1" x1="17.21" y1="35.04" x2="17.21" y2="35.04"/><line class="cls-1" x1="13.03" y1="34.66" x2="13.03" y2="34.66"/><line class="cls-1" x1="10.9" y1="34.29" x2="10.9" y2="34.29"/><line class="cls-1" x1="8.78" y1="33.85" x2="8.78" y2="33.85"/><line class="cls-1" x1="6.53" y1="33.29" x2="6.53" y2="33.29"/><line class="cls-1" x1="12.59" y1="39.16" x2="12.59" y2="39.16"/><line class="cls-1" x1="10.09" y1="38.85" x2="10.09" y2="38.85"/><line class="cls-1" x1="7.9" y1="38.41" x2="7.9" y2="38.41"/><line class="cls-1" x1="5.53" y1="37.73" x2="5.53" y2="37.73"/><line class="cls-1" x1="3.15" y1="37.1" x2="3.15" y2="37.1"/><line class="cls-1" x1="0.9" y1="36.23" x2="0.9" y2="36.23"/><line class="cls-1" x1="17.23" y1="52.6" x2="17.23" y2="52.6"/><line class="cls-1" x1="11.92" y1="51.98" x2="11.92" y2="51.98"/><line class="cls-1" x1="13.73" y1="52.23" x2="13.73" y2="52.23"/><line class="cls-1" x1="15.61" y1="52.41" x2="15.61" y2="52.41"/><line class="cls-1" x1="-0.25" y1="49.9" x2="-0.25" y2="49.9"/><line class="cls-1" x1="1.79" y1="50.29" x2="1.79" y2="50.29"/><line class="cls-1" x1="3.67" y1="50.66" x2="3.67" y2="50.66"/><line class="cls-1" x1="5.67" y1="50.98" x2="5.67" y2="50.98"/><line class="cls-1" x1="7.79" y1="51.41" x2="7.79" y2="51.41"/><line class="cls-1" x1="9.86" y1="51.73" x2="9.86" y2="51.73"/><rect class="cls-2" x="-35.66" y="-0.2" width="54" height="54"/><line class="cls-1" x1="14.84" y1="54.24" x2="14.84" y2="54.24"/><line class="cls-1" x1="4.78" y1="54.16" x2="4.78" y2="54.16"/><rect class="cls-2" x="-35.66" y="53.8" width="54" height="54"/><rect class="cls-2" width="54" height="54"/></svg>