<svg id="Layer_1" data-name="Layer 1" xmlns="http://www.w3.org/2000/svg" width="54.13" height="54.13" viewBox="0 0 54.13 54.13"><defs><style>.cls-1,.cls-2{fill:none;}.cls-1{stroke:#000;stroke-linecap:round;stroke-width:0.7px;}</style></defs><title>Artboard 28</title><line class="cls-1" x1="46.4" y1="2.31" x2="46.4" y2="2.31"/><line class="cls-1" x1="48.22" y1="1.69" x2="48.22" y2="1.69"/><line class="cls-1" x1="50.14" y1="1.57" x2="50.14" y2="1.57"/><line class="cls-1" x1="52.09" y1="1.69" x2="52.09" y2="1.69"/><line class="cls-1" x1="54.03" y1="2.14" x2="54.03" y2="2.14"/><line class="cls-1" x1="52" y1="4.07" x2="52" y2="4.07"/><rect class="cls-2" x="45.8" y="-49.57" width="54.13" height="54.13"/><line class="cls-1" x1="46.25" y1="7.43" x2="46.25" y2="7.43"/><line class="cls-1" x1="48.25" y1="7.11" x2="48.25" y2="7.11"/><line class="cls-1" x1="50.07" y1="6.5" x2="50.07" y2="6.5"/><line class="cls-1" x1="52" y1="6.37" x2="52" y2="6.37"/><line class="cls-1" x1="53.95" y1="6.5" x2="53.95" y2="6.5"/><line class="cls-1" x1="46.62" y1="12" x2="46.62" y2="12"/><line class="cls-1" x1="48.44" y1="11.39" x2="48.44" y2="11.39"/><line class="cls-1" x1="50.36" y1="11.26" x2="50.36" y2="11.26"/><line class="cls-1" x1="52.31" y1="11.39" x2="52.31" y2="11.39"/><line class="cls-1" x1="54.25" y1="11.83" x2="54.25" y2="11.83"/><line class="cls-1" x1="46.27" y1="16.39" x2="46.27" y2="16.39"/><line class="cls-1" x1="48.2" y1="16.26" x2="48.2" y2="16.26"/><line class="cls-1" x1="50.15" y1="16.39" x2="50.15" y2="16.39"/><line class="cls-1" x1="52.08" y1="16.83" x2="52.08" y2="16.83"/><line class="cls-1" x1="53.93" y1="17.2" x2="53.93" y2="17.2"/><line class="cls-1" x1="46.44" y1="21.22" x2="46.44" y2="21.22"/><line class="cls-1" x1="48.36" y1="21.09" x2="48.36" y2="21.09"/><line class="cls-1" x1="50.31" y1="21.22" x2="50.31" y2="21.22"/><line class="cls-1" x1="52.25" y1="21.66" x2="52.25" y2="21.66"/><line class="cls-1" x1="54.1" y1="22.03" x2="54.1" y2="22.03"/><line class="cls-1" x1="46.95" y1="27" x2="46.95" y2="27"/><line class="cls-1" x1="48.77" y1="26.39" x2="48.77" y2="26.39"/><line class="cls-1" x1="50.7" y1="26.26" x2="50.7" y2="26.26"/><line class="cls-1" x1="52.65" y1="26.39" x2="52.65" y2="26.39"/><line class="cls-1" x1="46.79" y1="31.67" x2="46.79" y2="31.67"/><line class="cls-1" x1="48.6" y1="31.05" x2="48.6" y2="31.05"/><line class="cls-1" x1="50.53" y1="30.93" x2="50.53" y2="30.93"/><line class="cls-1" x1="52.48" y1="31.05" x2="52.48" y2="31.05"/><line class="cls-1" x1="54.42" y1="31.5" x2="54.42" y2="31.5"/><line class="cls-1" x1="46.27" y1="36.99" x2="46.27" y2="36.99"/><line class="cls-1" x1="48.12" y1="36.67" x2="48.12" y2="36.67"/><line class="cls-1" x1="49.94" y1="36.05" x2="49.94" y2="36.05"/><line class="cls-1" x1="51.86" y1="35.93" x2="51.86" y2="35.93"/><line class="cls-1" x1="53.81" y1="36.05" x2="53.81" y2="36.05"/><line class="cls-1" x1="47.12" y1="41.99" x2="47.12" y2="41.99"/><line class="cls-1" x1="49.12" y1="41.67" x2="49.12" y2="41.67"/><line class="cls-1" x1="50.94" y1="41.05" x2="50.94" y2="41.05"/><line class="cls-1" x1="52.86" y1="40.93" x2="52.86" y2="40.93"/><line class="cls-1" x1="46.95" y1="46.82" x2="46.95" y2="46.82"/><line class="cls-1" x1="48.95" y1="46.5" x2="48.95" y2="46.5"/><line class="cls-1" x1="50.77" y1="45.89" x2="50.77" y2="45.89"/><line class="cls-1" x1="52.7" y1="45.76" x2="52.7" y2="45.76"/><line class="cls-1" x1="47.67" y1="51.55" x2="47.67" y2="51.55"/><line class="cls-1" x1="49.49" y1="50.93" x2="49.49" y2="50.93"/><line class="cls-1" x1="51.41" y1="50.8" x2="51.41" y2="50.8"/><line class="cls-1" x1="53.36" y1="50.93" x2="53.36" y2="50.93"/><line class="cls-1" x1="48.63" y1="9.25" x2="48.63" y2="9.25"/><line class="cls-1" x1="54.25" y1="9" x2="54.25" y2="9"/><line class="cls-1" x1="47.32" y1="29.25" x2="47.32" y2="29.25"/><line class="cls-1" x1="52.94" y1="29" x2="52.94" y2="29"/><line class="cls-1" x1="48.94" y1="34" x2="48.94" y2="34"/><line class="cls-1" x1="47.07" y1="39.5" x2="47.07" y2="39.5"/><line class="cls-1" x1="52.32" y1="38.37" x2="52.32" y2="38.37"/><line class="cls-1" x1="50.69" y1="43.62" x2="50.69" y2="43.62"/><line class="cls-1" x1="47.57" y1="49.25" x2="47.57" y2="49.25"/><line class="cls-1" x1="52.82" y1="48.12" x2="52.82" y2="48.12"/><line class="cls-1" x1="50.82" y1="53.12" x2="50.82" y2="53.12"/><line class="cls-1" x1="49.25" y1="18.75" x2="49.25" y2="18.75"/><line class="cls-1" x1="51.63" y1="13.93" x2="51.63" y2="13.93"/><line class="cls-1" x1="53.94" y1="19.75" x2="53.94" y2="19.75"/><line class="cls-1" x1="51.57" y1="23.87" x2="51.57" y2="23.87"/><rect class="cls-2" x="45.8" y="4.56" width="54.13" height="54.13"/><line class="cls-1" x1="-0.09" y1="2.14" x2="-0.09" y2="2.14"/><line class="cls-1" x1="1.75" y1="2.5" x2="1.75" y2="2.5"/><line class="cls-1" x1="3.78" y1="2.63" x2="3.78" y2="2.63"/><line class="cls-1" x1="5.84" y1="2.31" x2="5.84" y2="2.31"/><line class="cls-1" x1="7.66" y1="1.69" x2="7.66" y2="1.69"/><line class="cls-1" x1="9.58" y1="1.57" x2="9.58" y2="1.57"/><line class="cls-1" x1="11.53" y1="1.69" x2="11.53" y2="1.69"/><line class="cls-1" x1="13.47" y1="2.14" x2="13.47" y2="2.14"/><line class="cls-1" x1="15.2" y1="2.5" x2="15.2" y2="2.5"/><line class="cls-1" x1="17.21" y1="2.57" x2="17.21" y2="2.57"/><line class="cls-1" x1="19.26" y1="2.25" x2="19.26" y2="2.25"/><line class="cls-1" x1="21.08" y1="1.64" x2="21.08" y2="1.64"/><line class="cls-1" x1="23.01" y1="1.51" x2="23.01" y2="1.51"/><line class="cls-1" x1="24.96" y1="1.64" x2="24.96" y2="1.64"/><line class="cls-1" x1="26.89" y1="2.08" x2="26.89" y2="2.08"/><line class="cls-1" x1="28.8" y1="2.45" x2="28.8" y2="2.45"/><line class="cls-1" x1="30.77" y1="2.57" x2="30.77" y2="2.57"/><line class="cls-1" x1="32.83" y1="2.25" x2="32.83" y2="2.25"/><line class="cls-1" x1="34.65" y1="1.64" x2="34.65" y2="1.64"/><line class="cls-1" x1="36.58" y1="1.51" x2="36.58" y2="1.51"/><line class="cls-1" x1="38.52" y1="1.64" x2="38.52" y2="1.64"/><line class="cls-1" x1="40.46" y1="2.08" x2="40.46" y2="2.08"/><line class="cls-1" x1="42.19" y1="2.45" x2="42.19" y2="2.45"/><line class="cls-1" x1="44.18" y1="2.52" x2="44.18" y2="2.52"/><line class="cls-1" x1="11.25" y1="3.75" x2="11.25" y2="3.75"/><line class="cls-1" x1="24.88" y1="3.87" x2="24.88" y2="3.87"/><line class="cls-1" x1="2.07" y1="-0.07" x2="2.07" y2="-0.07"/><line class="cls-1" x1="7.07" y1="-0.32" x2="7.07" y2="-0.32"/><line class="cls-1" x1="18.13" y1="0.25" x2="18.13" y2="0.25"/><line class="cls-1" x1="28.82" x2="28.82"/><line class="cls-1" x1="38.63" y1="3.87" x2="38.63" y2="3.87"/><line class="cls-1" x1="45" x2="45"/><rect class="cls-2" x="-8.33" y="-49.57" width="54.13" height="54.13"/><line class="cls-1" x1="-0.18" y1="6.5" x2="-0.18" y2="6.5"/><line class="cls-1" x1="1.76" y1="6.94" x2="1.76" y2="6.94"/><line class="cls-1" x1="3.61" y1="7.31" x2="3.61" y2="7.31"/><line class="cls-1" x1="5.63" y1="7.43" x2="5.63" y2="7.43"/><line class="cls-1" x1="7.69" y1="7.11" x2="7.69" y2="7.11"/><line class="cls-1" x1="9.51" y1="6.5" x2="9.51" y2="6.5"/><line class="cls-1" x1="11.44" y1="6.37" x2="11.44" y2="6.37"/><line class="cls-1" x1="13.38" y1="6.5" x2="13.38" y2="6.5"/><line class="cls-1" x1="15.32" y1="6.94" x2="15.32" y2="6.94"/><line class="cls-1" x1="17.05" y1="7.31" x2="17.05" y2="7.31"/><line class="cls-1" x1="19.06" y1="7.38" x2="19.06" y2="7.38"/><line class="cls-1" x1="21.12" y1="7.06" x2="21.12" y2="7.06"/><line class="cls-1" x1="22.94" y1="6.44" x2="22.94" y2="6.44"/><line class="cls-1" x1="24.86" y1="6.31" x2="24.86" y2="6.31"/><line class="cls-1" x1="26.81" y1="6.44" x2="26.81" y2="6.44"/><line class="cls-1" x1="28.75" y1="6.88" x2="28.75" y2="6.88"/><line class="cls-1" x1="30.65" y1="7.25" x2="30.65" y2="7.25"/><line class="cls-1" x1="32.63" y1="7.38" x2="32.63" y2="7.38"/><line class="cls-1" x1="34.69" y1="7.06" x2="34.69" y2="7.06"/><line class="cls-1" x1="36.5" y1="6.44" x2="36.5" y2="6.44"/><line class="cls-1" x1="38.43" y1="6.31" x2="38.43" y2="6.31"/><line class="cls-1" x1="40.38" y1="6.44" x2="40.38" y2="6.44"/><line class="cls-1" x1="42.32" y1="6.88" x2="42.32" y2="6.88"/><line class="cls-1" x1="44.05" y1="7.25" x2="44.05" y2="7.25"/><line class="cls-1" x1="0.13" y1="11.83" x2="0.13" y2="11.83"/><line class="cls-1" x1="1.97" y1="12.2" x2="1.97" y2="12.2"/><line class="cls-1" x1="4" y1="12.32" x2="4" y2="12.32"/><line class="cls-1" x1="6.06" y1="12" x2="6.06" y2="12"/><line class="cls-1" x1="7.88" y1="11.39" x2="7.88" y2="11.39"/><line class="cls-1" x1="9.8" y1="11.26" x2="9.8" y2="11.26"/><line class="cls-1" x1="11.75" y1="11.39" x2="11.75" y2="11.39"/><line class="cls-1" x1="13.69" y1="11.83" x2="13.69" y2="11.83"/><line class="cls-1" x1="15.42" y1="12.2" x2="15.42" y2="12.2"/><line class="cls-1" x1="17.43" y1="12.27" x2="17.43" y2="12.27"/><line class="cls-1" x1="19.48" y1="11.95" x2="19.48" y2="11.95"/><line class="cls-1" x1="21.3" y1="11.33" x2="21.3" y2="11.33"/><line class="cls-1" x1="23.23" y1="11.2" x2="23.23" y2="11.2"/><line class="cls-1" x1="25.18" y1="11.33" x2="25.18" y2="11.33"/><line class="cls-1" x1="27.11" y1="11.77" x2="27.11" y2="11.77"/><line class="cls-1" x1="29.02" y1="12.14" x2="29.02" y2="12.14"/><line class="cls-1" x1="30.99" y1="12.27" x2="30.99" y2="12.27"/><line class="cls-1" x1="33.05" y1="11.95" x2="33.05" y2="11.95"/><line class="cls-1" x1="34.87" y1="11.33" x2="34.87" y2="11.33"/><line class="cls-1" x1="36.8" y1="11.2" x2="36.8" y2="11.2"/><line class="cls-1" x1="38.74" y1="11.33" x2="38.74" y2="11.33"/><line class="cls-1" x1="40.68" y1="11.77" x2="40.68" y2="11.77"/><line class="cls-1" x1="42.41" y1="12.14" x2="42.41" y2="12.14"/><line class="cls-1" x1="44.4" y1="12.21" x2="44.4" y2="12.21"/><line class="cls-1" x1="-0.2" y1="17.2" x2="-0.2" y2="17.2"/><line class="cls-1" x1="1.83" y1="17.32" x2="1.83" y2="17.32"/><line class="cls-1" x1="3.89" y1="17" x2="3.89" y2="17"/><line class="cls-1" x1="5.71" y1="16.39" x2="5.71" y2="16.39"/><line class="cls-1" x1="7.63" y1="16.26" x2="7.63" y2="16.26"/><line class="cls-1" x1="9.58" y1="16.39" x2="9.58" y2="16.39"/><line class="cls-1" x1="11.52" y1="16.83" x2="11.52" y2="16.83"/><line class="cls-1" x1="13.25" y1="17.2" x2="13.25" y2="17.2"/><line class="cls-1" x1="15.26" y1="17.27" x2="15.26" y2="17.27"/><line class="cls-1" x1="17.32" y1="16.95" x2="17.32" y2="16.95"/><line class="cls-1" x1="19.13" y1="16.33" x2="19.13" y2="16.33"/><line class="cls-1" x1="21.06" y1="16.2" x2="21.06" y2="16.2"/><line class="cls-1" x1="23.01" y1="16.33" x2="23.01" y2="16.33"/><line class="cls-1" x1="24.95" y1="16.77" x2="24.95" y2="16.77"/><line class="cls-1" x1="26.85" y1="17.14" x2="26.85" y2="17.14"/><line class="cls-1" x1="28.83" y1="17.27" x2="28.83" y2="17.27"/><line class="cls-1" x1="30.88" y1="16.95" x2="30.88" y2="16.95"/><line class="cls-1" x1="32.7" y1="16.33" x2="32.7" y2="16.33"/><line class="cls-1" x1="34.63" y1="16.2" x2="34.63" y2="16.2"/><line class="cls-1" x1="36.58" y1="16.33" x2="36.58" y2="16.33"/><line class="cls-1" x1="38.52" y1="16.77" x2="38.52" y2="16.77"/><line class="cls-1" x1="40.25" y1="17.14" x2="40.25" y2="17.14"/><line class="cls-1" x1="42.24" y1="17.21" x2="42.24" y2="17.21"/><line class="cls-1" x1="44.29" y1="16.89" x2="44.29" y2="16.89"/><line class="cls-1" x1="-0.03" y1="22.03" x2="-0.03" y2="22.03"/><line class="cls-1" x1="2" y1="22.16" x2="2" y2="22.16"/><line class="cls-1" x1="4.06" y1="21.84" x2="4.06" y2="21.84"/><line class="cls-1" x1="5.88" y1="21.22" x2="5.88" y2="21.22"/><line class="cls-1" x1="7.8" y1="21.09" x2="7.8" y2="21.09"/><line class="cls-1" x1="9.75" y1="21.22" x2="9.75" y2="21.22"/><line class="cls-1" x1="11.69" y1="21.66" x2="11.69" y2="21.66"/><line class="cls-1" x1="13.42" y1="22.03" x2="13.42" y2="22.03"/><line class="cls-1" x1="15.43" y1="22.1" x2="15.43" y2="22.1"/><line class="cls-1" x1="17.48" y1="21.78" x2="17.48" y2="21.78"/><line class="cls-1" x1="19.3" y1="21.16" x2="19.3" y2="21.16"/><line class="cls-1" x1="21.23" y1="21.04" x2="21.23" y2="21.04"/><line class="cls-1" x1="23.18" y1="21.16" x2="23.18" y2="21.16"/><line class="cls-1" x1="25.11" y1="21.61" x2="25.11" y2="21.61"/><line class="cls-1" x1="27.02" y1="21.97" x2="27.02" y2="21.97"/><line class="cls-1" x1="28.99" y1="22.1" x2="28.99" y2="22.1"/><line class="cls-1" x1="31.05" y1="21.78" x2="31.05" y2="21.78"/><line class="cls-1" x1="32.87" y1="21.16" x2="32.87" y2="21.16"/><line class="cls-1" x1="34.8" y1="21.04" x2="34.8" y2="21.04"/><line class="cls-1" x1="36.74" y1="21.16" x2="36.74" y2="21.16"/><line class="cls-1" x1="38.68" y1="21.61" x2="38.68" y2="21.61"/><line class="cls-1" x1="40.41" y1="21.97" x2="40.41" y2="21.97"/><line class="cls-1" x1="42.4" y1="22.04" x2="42.4" y2="22.04"/><line class="cls-1" x1="44.46" y1="21.72" x2="44.46" y2="21.72"/><line class="cls-1" x1="0.46" y1="26.83" x2="0.46" y2="26.83"/><line class="cls-1" x1="2.3" y1="27.2" x2="2.3" y2="27.2"/><line class="cls-1" x1="4.33" y1="27.32" x2="4.33" y2="27.32"/><line class="cls-1" x1="6.39" y1="27" x2="6.39" y2="27"/><line class="cls-1" x1="8.21" y1="26.39" x2="8.21" y2="26.39"/><line class="cls-1" x1="10.13" y1="26.26" x2="10.13" y2="26.26"/><line class="cls-1" x1="12.08" y1="26.39" x2="12.08" y2="26.39"/><line class="cls-1" x1="14.02" y1="26.83" x2="14.02" y2="26.83"/><line class="cls-1" x1="15.75" y1="27.2" x2="15.75" y2="27.2"/><line class="cls-1" x1="17.76" y1="27.27" x2="17.76" y2="27.27"/><line class="cls-1" x1="19.82" y1="26.95" x2="19.82" y2="26.95"/><line class="cls-1" x1="21.63" y1="26.33" x2="21.63" y2="26.33"/><line class="cls-1" x1="23.56" y1="26.2" x2="23.56" y2="26.2"/><line class="cls-1" x1="25.51" y1="26.33" x2="25.51" y2="26.33"/><line class="cls-1" x1="27.45" y1="26.77" x2="27.45" y2="26.77"/><line class="cls-1" x1="29.35" y1="27.14" x2="29.35" y2="27.14"/><line class="cls-1" x1="31.33" y1="27.27" x2="31.33" y2="27.27"/><line class="cls-1" x1="33.38" y1="26.95" x2="33.38" y2="26.95"/><line class="cls-1" x1="35.2" y1="26.33" x2="35.2" y2="26.33"/><line class="cls-1" x1="37.13" y1="26.2" x2="37.13" y2="26.2"/><line class="cls-1" x1="39.08" y1="26.33" x2="39.08" y2="26.33"/><line class="cls-1" x1="41.02" y1="26.77" x2="41.02" y2="26.77"/><line class="cls-1" x1="42.75" y1="27.14" x2="42.75" y2="27.14"/><line class="cls-1" x1="44.74" y1="27.21" x2="44.74" y2="27.21"/><line class="cls-1" x1="0.29" y1="31.5" x2="0.29" y2="31.5"/><line class="cls-1" x1="2.14" y1="31.86" x2="2.14" y2="31.86"/><line class="cls-1" x1="4.17" y1="31.99" x2="4.17" y2="31.99"/><line class="cls-1" x1="6.22" y1="31.67" x2="6.22" y2="31.67"/><line class="cls-1" x1="8.04" y1="31.05" x2="8.04" y2="31.05"/><line class="cls-1" x1="9.97" y1="30.93" x2="9.97" y2="30.93"/><line class="cls-1" x1="11.92" y1="31.05" x2="11.92" y2="31.05"/><line class="cls-1" x1="13.85" y1="31.5" x2="13.85" y2="31.5"/><line class="cls-1" x1="15.59" y1="31.86" x2="15.59" y2="31.86"/><line class="cls-1" x1="17.59" y1="31.93" x2="17.59" y2="31.93"/><line class="cls-1" x1="19.65" y1="31.61" x2="19.65" y2="31.61"/><line class="cls-1" x1="21.47" y1="31" x2="21.47" y2="31"/><line class="cls-1" x1="23.39" y1="30.87" x2="23.39" y2="30.87"/><line class="cls-1" x1="25.34" y1="31" x2="25.34" y2="31"/><line class="cls-1" x1="27.28" y1="31.44" x2="27.28" y2="31.44"/><line class="cls-1" x1="29.18" y1="31.81" x2="29.18" y2="31.81"/><line class="cls-1" x1="31.16" y1="31.93" x2="31.16" y2="31.93"/><line class="cls-1" x1="33.22" y1="31.61" x2="33.22" y2="31.61"/><line class="cls-1" x1="35.04" y1="31" x2="35.04" y2="31"/><line class="cls-1" x1="36.96" y1="30.87" x2="36.96" y2="30.87"/><line class="cls-1" x1="38.91" y1="31" x2="38.91" y2="31"/><line class="cls-1" x1="40.85" y1="31.44" x2="40.85" y2="31.44"/><line class="cls-1" x1="42.58" y1="31.81" x2="42.58" y2="31.81"/><line class="cls-1" x1="44.57" y1="31.88" x2="44.57" y2="31.88"/><line class="cls-1" x1="-0.31" y1="36.05" x2="-0.31" y2="36.05"/><line class="cls-1" x1="1.63" y1="36.5" x2="1.63" y2="36.5"/><line class="cls-1" x1="3.47" y1="36.86" x2="3.47" y2="36.86"/><line class="cls-1" x1="5.5" y1="36.99" x2="5.5" y2="36.99"/><line class="cls-1" x1="7.56" y1="36.67" x2="7.56" y2="36.67"/><line class="cls-1" x1="9.38" y1="36.05" x2="9.38" y2="36.05"/><line class="cls-1" x1="11.3" y1="35.93" x2="11.3" y2="35.93"/><line class="cls-1" x1="13.25" y1="36.05" x2="13.25" y2="36.05"/><line class="cls-1" x1="15.19" y1="36.5" x2="15.19" y2="36.5"/><line class="cls-1" x1="16.92" y1="36.86" x2="16.92" y2="36.86"/><line class="cls-1" x1="18.93" y1="36.93" x2="18.93" y2="36.93"/><line class="cls-1" x1="20.98" y1="36.61" x2="20.98" y2="36.61"/><line class="cls-1" x1="22.8" y1="36" x2="22.8" y2="36"/><line class="cls-1" x1="24.73" y1="35.87" x2="24.73" y2="35.87"/><line class="cls-1" x1="26.68" y1="36" x2="26.68" y2="36"/><line class="cls-1" x1="28.61" y1="36.44" x2="28.61" y2="36.44"/><line class="cls-1" x1="30.52" y1="36.81" x2="30.52" y2="36.81"/><line class="cls-1" x1="32.49" y1="36.93" x2="32.49" y2="36.93"/><line class="cls-1" x1="34.55" y1="36.61" x2="34.55" y2="36.61"/><line class="cls-1" x1="36.37" y1="36" x2="36.37" y2="36"/><line class="cls-1" x1="38.3" y1="35.87" x2="38.3" y2="35.87"/><line class="cls-1" x1="40.24" y1="36" x2="40.24" y2="36"/><line class="cls-1" x1="42.18" y1="36.44" x2="42.18" y2="36.44"/><line class="cls-1" x1="43.91" y1="36.81" x2="43.91" y2="36.81"/><line class="cls-1" x1="0.69" y1="41.05" x2="0.69" y2="41.05"/><line class="cls-1" x1="2.63" y1="41.5" x2="2.63" y2="41.5"/><line class="cls-1" x1="4.47" y1="41.86" x2="4.47" y2="41.86"/><line class="cls-1" x1="6.5" y1="41.99" x2="6.5" y2="41.99"/><line class="cls-1" x1="8.56" y1="41.67" x2="8.56" y2="41.67"/><line class="cls-1" x1="10.38" y1="41.05" x2="10.38" y2="41.05"/><line class="cls-1" x1="12.3" y1="40.93" x2="12.3" y2="40.93"/><line class="cls-1" x1="14.25" y1="41.05" x2="14.25" y2="41.05"/><line class="cls-1" x1="16.19" y1="41.5" x2="16.19" y2="41.5"/><line class="cls-1" x1="17.92" y1="41.86" x2="17.92" y2="41.86"/><line class="cls-1" x1="19.93" y1="41.93" x2="19.93" y2="41.93"/><line class="cls-1" x1="21.98" y1="41.61" x2="21.98" y2="41.61"/><line class="cls-1" x1="23.8" y1="41" x2="23.8" y2="41"/><line class="cls-1" x1="25.73" y1="40.87" x2="25.73" y2="40.87"/><line class="cls-1" x1="27.68" y1="41" x2="27.68" y2="41"/><line class="cls-1" x1="29.61" y1="41.44" x2="29.61" y2="41.44"/><line class="cls-1" x1="31.52" y1="41.81" x2="31.52" y2="41.81"/><line class="cls-1" x1="33.49" y1="41.93" x2="33.49" y2="41.93"/><line class="cls-1" x1="35.55" y1="41.61" x2="35.55" y2="41.61"/><line class="cls-1" x1="37.37" y1="41" x2="37.37" y2="41"/><line class="cls-1" x1="39.3" y1="40.87" x2="39.3" y2="40.87"/><line class="cls-1" x1="41.24" y1="41" x2="41.24" y2="41"/><line class="cls-1" x1="43.18" y1="41.44" x2="43.18" y2="41.44"/><line class="cls-1" x1="44.91" y1="41.81" x2="44.91" y2="41.81"/><line class="cls-1" x1="0.52" y1="45.89" x2="0.52" y2="45.89"/><line class="cls-1" x1="2.46" y1="46.33" x2="2.46" y2="46.33"/><line class="cls-1" x1="4.3" y1="46.7" x2="4.3" y2="46.7"/><line class="cls-1" x1="6.33" y1="46.82" x2="6.33" y2="46.82"/><line class="cls-1" x1="8.39" y1="46.5" x2="8.39" y2="46.5"/><line class="cls-1" x1="10.21" y1="45.89" x2="10.21" y2="45.89"/><line class="cls-1" x1="12.13" y1="45.76" x2="12.13" y2="45.76"/><line class="cls-1" x1="14.08" y1="45.89" x2="14.08" y2="45.89"/><line class="cls-1" x1="16.02" y1="46.33" x2="16.02" y2="46.33"/><line class="cls-1" x1="17.75" y1="46.7" x2="17.75" y2="46.7"/><line class="cls-1" x1="19.76" y1="46.77" x2="19.76" y2="46.77"/><line class="cls-1" x1="21.82" y1="46.45" x2="21.82" y2="46.45"/><line class="cls-1" x1="23.63" y1="45.83" x2="23.63" y2="45.83"/><line class="cls-1" x1="25.56" y1="45.7" x2="25.56" y2="45.7"/><line class="cls-1" x1="27.51" y1="45.83" x2="27.51" y2="45.83"/><line class="cls-1" x1="29.45" y1="46.27" x2="29.45" y2="46.27"/><line class="cls-1" x1="31.35" y1="46.64" x2="31.35" y2="46.64"/><line class="cls-1" x1="33.33" y1="46.77" x2="33.33" y2="46.77"/><line class="cls-1" x1="35.38" y1="46.45" x2="35.38" y2="46.45"/><line class="cls-1" x1="37.2" y1="45.83" x2="37.2" y2="45.83"/><line class="cls-1" x1="39.13" y1="45.7" x2="39.13" y2="45.7"/><line class="cls-1" x1="41.08" y1="45.83" x2="41.08" y2="45.83"/><line class="cls-1" x1="43.02" y1="46.27" x2="43.02" y2="46.27"/><line class="cls-1" x1="44.75" y1="46.64" x2="44.75" y2="46.64"/><line class="cls-1" x1="1.18" y1="51.37" x2="1.18" y2="51.37"/><line class="cls-1" x1="3.02" y1="51.74" x2="3.02" y2="51.74"/><line class="cls-1" x1="5.05" y1="51.86" x2="5.05" y2="51.86"/><line class="cls-1" x1="7.11" y1="51.55" x2="7.11" y2="51.55"/><line class="cls-1" x1="8.93" y1="50.93" x2="8.93" y2="50.93"/><line class="cls-1" x1="10.85" y1="50.8" x2="10.85" y2="50.8"/><line class="cls-1" x1="12.8" y1="50.93" x2="12.8" y2="50.93"/><line class="cls-1" x1="14.74" y1="51.37" x2="14.74" y2="51.37"/><line class="cls-1" x1="16.47" y1="51.74" x2="16.47" y2="51.74"/><line class="cls-1" x1="18.48" y1="51.81" x2="18.48" y2="51.81"/><line class="cls-1" x1="20.53" y1="51.49" x2="20.53" y2="51.49"/><line class="cls-1" x1="22.35" y1="50.87" x2="22.35" y2="50.87"/><line class="cls-1" x1="24.28" y1="50.75" x2="24.28" y2="50.75"/><line class="cls-1" x1="26.23" y1="50.87" x2="26.23" y2="50.87"/><line class="cls-1" x1="28.16" y1="51.31" x2="28.16" y2="51.31"/><line class="cls-1" x1="30.07" y1="51.68" x2="30.07" y2="51.68"/><line class="cls-1" x1="32.05" y1="51.81" x2="32.05" y2="51.81"/><line class="cls-1" x1="34.1" y1="51.49" x2="34.1" y2="51.49"/><line class="cls-1" x1="35.92" y1="50.87" x2="35.92" y2="50.87"/><line class="cls-1" x1="37.85" y1="50.75" x2="37.85" y2="50.75"/><line class="cls-1" x1="39.8" y1="50.87" x2="39.8" y2="50.87"/><line class="cls-1" x1="41.73" y1="51.31" x2="41.73" y2="51.31"/><line class="cls-1" x1="43.47" y1="51.68" x2="43.47" y2="51.68"/><line class="cls-1" x1="45.45" y1="51.75" x2="45.45" y2="51.75"/><line class="cls-1" x1="0.13" y1="9" x2="0.13" y2="9"/><line class="cls-1" x1="5.25" y1="9.87" x2="5.25" y2="9.87"/><line class="cls-1" x1="10.5" y1="8.75" x2="10.5" y2="8.75"/><line class="cls-1" x1="15.88" y1="9.68" x2="15.88" y2="9.68"/><line class="cls-1" x1="20.88" y1="9.43" x2="20.88" y2="9.43"/><line class="cls-1" x1="26.38" y1="8.93" x2="26.38" y2="8.93"/><line class="cls-1" x1="31.94" y1="10" x2="31.94" y2="10"/><line class="cls-1" x1="37.13" y1="8.75" x2="37.13" y2="8.75"/><line class="cls-1" x1="42.63" y1="9.75" x2="42.63" y2="9.75"/><line class="cls-1" x1="3.94" y1="29.87" x2="3.94" y2="29.87"/><line class="cls-1" x1="9.19" y1="28.75" x2="9.19" y2="28.75"/><line class="cls-1" x1="14.57" y1="29.68" x2="14.57" y2="29.68"/><line class="cls-1" x1="19.57" y1="29.43" x2="19.57" y2="29.43"/><line class="cls-1" x1="25.07" y1="28.93" x2="25.07" y2="28.93"/><line class="cls-1" x1="30.63" y1="30" x2="30.63" y2="30"/><line class="cls-1" x1="35.82" y1="28.75" x2="35.82" y2="28.75"/><line class="cls-1" x1="41.32" y1="29.75" x2="41.32" y2="29.75"/><line class="cls-1" x1="0.44" y1="33.75" x2="0.44" y2="33.75"/><line class="cls-1" x1="5.57" y1="34.62" x2="5.57" y2="34.62"/><line class="cls-1" x1="10.82" y1="33.5" x2="10.82" y2="33.5"/><line class="cls-1" x1="16.19" y1="34.43" x2="16.19" y2="34.43"/><line class="cls-1" x1="21.19" y1="34.18" x2="21.19" y2="34.18"/><line class="cls-1" x1="26.69" y1="33.68" x2="26.69" y2="33.68"/><line class="cls-1" x1="32.25" y1="34.75" x2="32.25" y2="34.75"/><line class="cls-1" x1="37.44" y1="33.5" x2="37.44" y2="33.5"/><line class="cls-1" x1="42.94" y1="34.5" x2="42.94" y2="34.5"/><line class="cls-1" x1="3.57" y1="39.31" x2="3.57" y2="39.31"/><line class="cls-1" x1="8.57" y1="39.06" x2="8.57" y2="39.06"/><line class="cls-1" x1="14.07" y1="38.56" x2="14.07" y2="38.56"/><line class="cls-1" x1="19.63" y1="39.62" x2="19.63" y2="39.62"/><line class="cls-1" x1="24.82" y1="38.37" x2="24.82" y2="38.37"/><line class="cls-1" x1="30.32" y1="39.37" x2="30.32" y2="39.37"/><line class="cls-1" x1="35.69" y1="38.87" x2="35.69" y2="38.87"/><line class="cls-1" x1="2.19" y1="43.37" x2="2.19" y2="43.37"/><line class="cls-1" x1="7.32" y1="44.25" x2="7.32" y2="44.25"/><line class="cls-1" x1="12.57" y1="43.12" x2="12.57" y2="43.12"/><line class="cls-1" x1="17.94" y1="44.06" x2="17.94" y2="44.06"/><line class="cls-1" x1="22.94" y1="43.81" x2="22.94" y2="43.81"/><line class="cls-1" x1="28.44" y1="43.31" x2="28.44" y2="43.31"/><line class="cls-1" x1="34" y1="44.37" x2="34" y2="44.37"/><line class="cls-1" x1="39.19" y1="43.12" x2="39.19" y2="43.12"/><line class="cls-1" x1="44.69" y1="44.12" x2="44.69" y2="44.12"/><line class="cls-1" x1="4.07" y1="49.06" x2="4.07" y2="49.06"/><line class="cls-1" x1="9.07" y1="48.81" x2="9.07" y2="48.81"/><line class="cls-1" x1="14.57" y1="48.31" x2="14.57" y2="48.31"/><line class="cls-1" x1="20.13" y1="49.37" x2="20.13" y2="49.37"/><line class="cls-1" x1="25.32" y1="48.12" x2="25.32" y2="48.12"/><line class="cls-1" x1="30.82" y1="49.12" x2="30.82" y2="49.12"/><line class="cls-1" x1="36.19" y1="48.62" x2="36.19" y2="48.62"/><line class="cls-1" x1="2.07" y1="54.06" x2="2.07" y2="54.06"/><line class="cls-1" x1="7.07" y1="53.81" x2="7.07" y2="53.81"/><line class="cls-1" x1="12.57" y1="53.31" x2="12.57" y2="53.31"/><line class="cls-1" x1="18.13" y1="54.37" x2="18.13" y2="54.37"/><line class="cls-1" x1="23.32" y1="53.12" x2="23.32" y2="53.12"/><line class="cls-1" x1="28.82" y1="54.12" x2="28.82" y2="54.12"/><line class="cls-1" x1="34.19" y1="53.62" x2="34.19" y2="53.62"/><line class="cls-1" x1="32.63" y1="14.25" x2="32.63" y2="14.25"/><line class="cls-1" x1="39.13" y1="14.12" x2="39.13" y2="14.12"/><line class="cls-1" x1="32.25" y1="18.87" x2="32.25" y2="18.87"/><line class="cls-1" x1="42.63" y1="19.62" x2="42.63" y2="19.62"/><line class="cls-1" x1="37.63" y1="18.87" x2="37.63" y2="18.87"/><line class="cls-1" x1="29.63" y1="25" x2="29.63" y2="25"/><line class="cls-1" x1="34.5" y1="23.5" x2="34.5" y2="23.5"/><line class="cls-1" x1="40.13" y1="24.25" x2="40.13" y2="24.25"/><line class="cls-1" x1="41.63" y1="38.75" x2="41.63" y2="38.75"/><line class="cls-1" x1="41.75" y1="48.62" x2="41.75" y2="48.62"/><line class="cls-1" x1="44.75" y1="5.25" x2="44.75" y2="5.25"/><line class="cls-1" x1="32.13" y1="5.12" x2="32.13" y2="5.12"/><line class="cls-1" x1="18.25" y1="5.12" x2="18.25" y2="5.12"/><line class="cls-1" x1="4.88" y1="5.12" x2="4.88" y2="5.12"/><line class="cls-1" x1="39.75" y1="53" x2="39.75" y2="53"/><line class="cls-1" x1="45" y1="54.12" x2="45" y2="54.12"/><line class="cls-1" x1="45.13" y1="24.25" x2="45.13" y2="24.25"/><line class="cls-1" x1="44.88" y1="14.75" x2="44.88" y2="14.75"/><line class="cls-1" x1="28" y1="15.37" x2="28" y2="15.37"/><line class="cls-1" x1="23.44" y1="13.75" x2="23.44" y2="13.75"/><line class="cls-1" x1="17.75" y1="14.68" x2="17.75" y2="14.68"/><line class="cls-1" x1="12.94" y1="14.81" x2="12.94" y2="14.81"/><line class="cls-1" x1="8.57" y1="13.75" x2="8.57" y2="13.75"/><line class="cls-1" x1="2.63" y1="15.06" x2="2.63" y2="15.06"/><line class="cls-1" x1="-0.18" y1="19.75" x2="-0.18" y2="19.75"/><line class="cls-1" x1="5.82" y1="18.93" x2="5.82" y2="18.93"/><line class="cls-1" x1="10.88" y1="19.12" x2="10.88" y2="19.12"/><line class="cls-1" x1="16.38" y1="19.75" x2="16.38" y2="19.75"/><line class="cls-1" x1="21.57" y1="18.37" x2="21.57" y2="18.37"/><line class="cls-1" x1="27" y1="19.56" x2="27" y2="19.56"/><line class="cls-1" x1="24.19" y1="24.06" x2="24.19" y2="24.06"/><line class="cls-1" x1="18.32" y1="24.75" x2="18.32" y2="24.75"/><line class="cls-1" x1="13.07" y1="24.43" x2="13.07" y2="24.43"/><line class="cls-1" x1="7.75" y1="23.68" x2="7.75" y2="23.68"/><line class="cls-1" x1="2.57" y1="25" x2="2.57" y2="25"/><rect class="cls-2" x="-8.33" y="4.56" width="54.13" height="54.13"/><rect class="cls-2" width="54.12" height="54.13"/></svg>