<svg id="Layer_1" data-name="Layer 1" xmlns="http://www.w3.org/2000/svg" width="54.13" height="54.12" viewBox="0 0 54.13 54.12"><defs><style>.cls-1,.cls-2,.cls-3{fill:none;}.cls-2,.cls-3{stroke:#000;}.cls-2{stroke-width:0.3px;}.cls-3{stroke-linecap:round;stroke-width:0.7px;}</style></defs><title>612</title><rect class="cls-1" x="29.59" y="-46.4" width="54.13" height="54.12"/><line class="cls-2" x1="62.17" y1="4.4" x2="44.79" y2="4.4"/><line class="cls-2" x1="29.59" y1="0.66" x2="36.87" y2="0.66"/><line class="cls-3" x1="54.47" y1="-0.22" x2="54.47" y2="-0.22"/><line class="cls-3" x1="51.72" y1="1.98" x2="51.72" y2="1.98"/><line class="cls-3" x1="46.99" y1="3.19" x2="46.99" y2="3.19"/><line class="cls-3" x1="44.79" y1="0.11" x2="44.79" y2="0.11"/><line class="cls-3" x1="48.75" y1="5.72" x2="48.75" y2="5.72"/><line class="cls-3" x1="53.26" y1="6.71" x2="53.26" y2="6.71"/><line class="cls-3" x1="43.8" y1="6.6" x2="43.8" y2="6.6"/><line class="cls-3" x1="42.59" y1="2.97" x2="42.59" y2="2.97"/><line class="cls-3" x1="38.85" y1="1.98" x2="38.85" y2="1.98"/><line class="cls-3" x1="38.96" y1="6.6" x2="38.96" y2="6.6"/><line class="cls-3" x1="36.21" y1="4.07" x2="36.21" y2="4.07"/><line class="cls-3" x1="31.81" y1="2.42" x2="31.81" y2="2.42"/><line class="cls-3" x1="32.36" y1="6.06" x2="32.36" y2="6.06"/><rect class="cls-1" x="29.59" y="-46.4" width="54.13" height="54.12"/><rect class="cls-1" x="29.59" y="7.72" width="54.13" height="54.12"/><line class="cls-2" x1="52.94" y1="50.85" x2="72.08" y2="50.85"/><line class="cls-2" x1="53.15" y1="45.09" x2="38.41" y2="45.09"/><line class="cls-2" x1="52.93" y1="38.07" x2="70.31" y2="38.07"/><line class="cls-2" x1="71.37" y1="15.15" x2="53.99" y2="15.15"/><line class="cls-2" x1="36.51" y1="11.8" x2="29.59" y2="11.8"/><line class="cls-2" x1="44.57" y1="36.53" x2="30.05" y2="36.53"/><line class="cls-2" x1="41.05" y1="28.17" x2="56.23" y2="28.17"/><line class="cls-2" x1="43.84" y1="22.19" x2="29.76" y2="22.19"/><line class="cls-3" x1="53.7" y1="21.79" x2="53.7" y2="21.79"/><line class="cls-3" x1="51.28" y1="26.08" x2="51.28" y2="26.08"/><line class="cls-3" x1="50.07" y1="22.67" x2="50.07" y2="22.67"/><line class="cls-3" x1="47.43" y1="25.42" x2="47.43" y2="25.42"/><line class="cls-3" x1="45.34" y1="21.57" x2="45.34" y2="21.57"/><line class="cls-3" x1="41.37" y1="24.29" x2="41.37" y2="24.29"/><line class="cls-3" x1="38.08" y1="20.91" x2="38.08" y2="20.91"/><line class="cls-3" x1="35.04" y1="19.79" x2="35.04" y2="19.79"/><line class="cls-3" x1="31.54" y1="18.12" x2="31.54" y2="18.12"/><line class="cls-3" x1="31.04" y1="25.86" x2="31.04" y2="25.86"/><line class="cls-3" x1="34.87" y1="24.29" x2="34.87" y2="24.29"/><line class="cls-3" x1="38.63" y1="25.64" x2="38.63" y2="25.64"/><line class="cls-3" x1="42.92" y1="26.3" x2="42.92" y2="26.3"/><line class="cls-3" x1="37.2" y1="29.27" x2="37.2" y2="29.27"/><line class="cls-3" x1="32.91" y1="29.27" x2="32.91" y2="29.27"/><line class="cls-3" x1="42.54" y1="18.29" x2="42.54" y2="18.29"/><line class="cls-3" x1="30.6" y1="32.35" x2="30.6" y2="32.35"/><line class="cls-3" x1="30.82" y1="35.21" x2="30.82" y2="35.21"/><line class="cls-3" x1="35.99" y1="35.43" x2="35.99" y2="35.43"/><line class="cls-3" x1="35" y1="32.46" x2="35" y2="32.46"/><line class="cls-3" x1="38.96" y1="32.9" x2="38.96" y2="32.9"/><line class="cls-3" x1="42.26" y1="30.81" x2="42.26" y2="30.81"/><line class="cls-3" x1="42.59" y1="34.33" x2="42.59" y2="34.33"/><line class="cls-3" x1="45.78" y1="31.69" x2="45.78" y2="31.69"/><line class="cls-3" x1="46.55" y1="35.54" x2="46.55" y2="35.54"/><line class="cls-3" x1="49.37" y1="30.96" x2="49.37" y2="30.96"/><line class="cls-3" x1="49.52" y1="36.42" x2="49.52" y2="36.42"/><line class="cls-3" x1="52.82" y1="33.34" x2="52.82" y2="33.34"/><line class="cls-3" x1="53.81" y1="30.04" x2="53.81" y2="30.04"/><line class="cls-3" x1="53.92" y1="36.42" x2="53.92" y2="36.42"/><line class="cls-3" x1="45.89" y1="38.95" x2="45.89" y2="38.95"/><line class="cls-3" x1="44.02" y1="41.92" x2="44.02" y2="41.92"/><line class="cls-3" x1="41.82" y1="38.95" x2="41.82" y2="38.95"/><line class="cls-3" x1="40.5" y1="43.13" x2="40.5" y2="43.13"/><line class="cls-3" x1="38.19" y1="40.71" x2="38.19" y2="40.71"/><line class="cls-3" x1="36.32" y1="38.07" x2="36.32" y2="38.07"/><line class="cls-3" x1="36.21" y1="43.46" x2="36.21" y2="43.46"/><line class="cls-3" x1="33.9" y1="40.71" x2="33.9" y2="40.71"/><line class="cls-3" x1="30.71" y1="38.84" x2="30.71" y2="38.84"/><line class="cls-3" x1="48.21" y1="18.96" x2="48.21" y2="18.96"/><line class="cls-3" x1="31.87" y1="42.79" x2="31.87" y2="42.79"/><line class="cls-3" x1="34.54" y1="47.29" x2="34.54" y2="47.29"/><line class="cls-3" x1="35.04" y1="16.12" x2="35.04" y2="16.12"/><line class="cls-3" x1="33.02" y1="52.48" x2="33.02" y2="52.48"/><line class="cls-3" x1="35.99" y1="49.73" x2="35.99" y2="49.73"/><line class="cls-3" x1="37.97" y1="52.26" x2="37.97" y2="52.26"/><line class="cls-3" x1="40.17" y1="48.41" x2="40.17" y2="48.41"/><line class="cls-3" x1="44.57" y1="46.87" x2="44.57" y2="46.87"/><line class="cls-3" x1="41.71" y1="52.7" x2="41.71" y2="52.7"/><line class="cls-3" x1="44.68" y1="50.28" x2="44.68" y2="50.28"/><line class="cls-3" x1="48.2" y1="50.39" x2="48.2" y2="50.39"/><line class="cls-3" x1="49.19" y1="46.87" x2="49.19" y2="46.87"/><line class="cls-3" x1="53.15" y1="47.42" x2="53.15" y2="47.42"/><line class="cls-3" x1="51.72" y1="50.06" x2="51.72" y2="50.06"/><line class="cls-3" x1="30.54" y1="46.12" x2="30.54" y2="46.12"/><line class="cls-3" x1="30.71" y1="50.29" x2="30.71" y2="50.29"/><line class="cls-3" x1="52.04" y1="17.12" x2="52.04" y2="17.12"/><line class="cls-3" x1="39.87" y1="13.12" x2="39.87" y2="13.12"/><line class="cls-3" x1="38.71" y1="16.96" x2="38.71" y2="16.96"/><line class="cls-3" x1="49.37" y1="8.79" x2="49.37" y2="8.79"/><line class="cls-3" x1="45.71" y1="15.12" x2="45.71" y2="15.12"/><line class="cls-3" x1="49.54" y1="13.96" x2="49.54" y2="13.96"/><line class="cls-3" x1="52.37" y1="10.96" x2="52.37" y2="10.96"/><line class="cls-3" x1="47.04" y1="10.62" x2="47.04" y2="10.62"/><line class="cls-3" x1="43.37" y1="11.62" x2="43.37" y2="11.62"/><line class="cls-3" x1="39.87" y1="9.46" x2="39.87" y2="9.46"/><line class="cls-3" x1="36.37" y1="13.62" x2="36.37" y2="13.62"/><line class="cls-3" x1="31.71" y1="14.12" x2="31.71" y2="14.12"/><line class="cls-3" x1="31.71" y1="9.46" x2="31.71" y2="9.46"/><line class="cls-3" x1="35.04" y1="8.46" x2="35.04" y2="8.46"/><line class="cls-3" x1="54.47" y1="53.91" x2="54.47" y2="53.91"/><line class="cls-3" x1="48.42" y1="53.69" x2="48.42" y2="53.69"/><line class="cls-3" x1="44.79" y1="54.24" x2="44.79" y2="54.24"/><line class="cls-3" x1="52.38" y1="40.93" x2="52.38" y2="40.93"/><line class="cls-3" x1="50.18" y1="44.12" x2="50.18" y2="44.12"/><line class="cls-3" x1="46.66" y1="43.35" x2="46.66" y2="43.35"/><line class="cls-3" x1="48.75" y1="40.16" x2="48.75" y2="40.16"/><rect class="cls-1" x="29.59" y="7.72" width="54.13" height="54.12"/><rect class="cls-1" x="-24.53" y="-46.4" width="54.13" height="54.12"/><line class="cls-2" x1="8.04" y1="4.4" x2="-9.34" y2="4.4"/><line class="cls-2" x1="19.79" y1="0.66" x2="29.59" y2="0.66"/><line class="cls-3" x1="27.18" y1="1.54" x2="27.18" y2="1.54"/><line class="cls-3" x1="28.25" y1="4.33" x2="28.25" y2="4.33"/><line class="cls-3" x1="25.91" y1="6.33" x2="25.91" y2="6.33"/><line class="cls-3" x1="23.99" y1="4.29" x2="23.99" y2="4.29"/><line class="cls-3" x1="21.02" y1="6.49" x2="21.02" y2="6.49"/><line class="cls-3" x1="21.02" y1="2.75" x2="21.02" y2="2.75"/><line class="cls-3" x1="17.5" y1="0.33" x2="17.5" y2="0.33"/><line class="cls-3" x1="16.18" y1="6.16" x2="16.18" y2="6.16"/><line class="cls-3" x1="14.58" y1="2.83" x2="14.58" y2="2.83"/><line class="cls-3" x1="12.75" y1="5" x2="12.75" y2="5"/><line class="cls-3" x1="10.9" y1="0.22" x2="10.9" y2="0.22"/><line class="cls-3" x1="8.26" y1="2.2" x2="8.26" y2="2.2"/><line class="cls-3" x1="9.8" y1="6.49" x2="9.8" y2="6.49"/><line class="cls-3" x1="5.07" y1="0.77" x2="5.07" y2="0.77"/><line class="cls-3" x1="0.34" y1="-0.22" x2="0.34" y2="-0.22"/><line class="cls-3" x1="2.1" y1="3.19" x2="2.1" y2="3.19"/><line class="cls-3" x1="5.07" y1="5.72" x2="5.07" y2="5.72"/><rect class="cls-1" x="-24.53" y="-46.4" width="54.13" height="54.12"/><rect class="cls-1" x="-24.53" y="7.72" width="54.13" height="54.12"/><line class="cls-2" x1="-1.19" y1="50.85" x2="17.95" y2="50.85"/><line class="cls-2" x1="16.84" y1="44.65" x2="29.38" y2="44.65"/><line class="cls-2" x1="-1.2" y1="38.07" x2="16.18" y2="38.07"/><line class="cls-2" x1="17.24" y1="15.15" x2="-0.14" y2="15.15"/><line class="cls-2" x1="15.08" y1="31.91" x2="29.38" y2="31.91"/><line class="cls-2" x1="-13.08" y1="28.17" x2="2.1" y2="28.17"/><line class="cls-2" x1="7.76" y1="21.97" x2="23.6" y2="21.97"/><line class="cls-2" x1="23.46" y1="11.8" x2="29.59" y2="11.8"/><line class="cls-3" x1="25.75" y1="20.41" x2="25.75" y2="20.41"/><line class="cls-3" x1="21.46" y1="20.74" x2="21.46" y2="20.74"/><line class="cls-3" x1="26.85" y1="24.32" x2="26.85" y2="24.32"/><line class="cls-3" x1="22.78" y1="24.65" x2="22.78" y2="24.65"/><line class="cls-3" x1="24.32" y1="27.62" x2="24.32" y2="27.62"/><line class="cls-3" x1="27.95" y1="28.06" x2="27.95" y2="28.06"/><line class="cls-3" x1="14.91" y1="19.46" x2="14.91" y2="19.46"/><line class="cls-3" x1="19.41" y1="23.62" x2="19.41" y2="23.62"/><line class="cls-3" x1="9.75" y1="20.29" x2="9.75" y2="20.29"/><line class="cls-3" x1="10.91" y1="23.79" x2="10.91" y2="23.79"/><line class="cls-3" x1="3.97" y1="22.34" x2="3.97" y2="22.34"/><line class="cls-3" x1="8.04" y1="25.31" x2="8.04" y2="25.31"/><line class="cls-3" x1="5.62" y1="31.25" x2="5.62" y2="31.25"/><line class="cls-3" x1="3.42" y1="28.94" x2="3.42" y2="28.94"/><line class="cls-3" x1="1.99" y1="25.09" x2="1.99" y2="25.09"/><line class="cls-3" x1="-0.32" y1="30.04" x2="-0.32" y2="30.04"/><line class="cls-3" x1="2.54" y1="32.68" x2="2.54" y2="32.68"/><line class="cls-3" x1="-0.21" y1="36.42" x2="-0.21" y2="36.42"/><line class="cls-3" x1="4.19" y1="36.42" x2="4.19" y2="36.42"/><line class="cls-3" x1="7.71" y1="34.33" x2="7.71" y2="34.33"/><line class="cls-3" x1="9.91" y1="36.64" x2="9.91" y2="36.64"/><line class="cls-3" x1="28.58" y1="21.62" x2="28.58" y2="21.62"/><line class="cls-3" x1="3.41" y1="48.62" x2="3.41" y2="48.62"/><line class="cls-3" x1="9.75" y1="49.46" x2="9.75" y2="49.46"/><line class="cls-3" x1="1.25" y1="18.62" x2="1.25" y2="18.62"/><line class="cls-3" x1="14.41" y1="48.46" x2="14.41" y2="48.46"/><line class="cls-3" x1="18.93" y1="46.65" x2="18.93" y2="46.65"/><line class="cls-3" x1="20.36" y1="49.51" x2="20.36" y2="49.51"/><line class="cls-3" x1="23.44" y1="47.42" x2="23.44" y2="47.42"/><line class="cls-3" x1="27.07" y1="45.44" x2="27.07" y2="45.44"/><line class="cls-3" x1="27.84" y1="48.3" x2="27.84" y2="48.3"/><line class="cls-3" x1="27.41" y1="52.46" x2="27.41" y2="52.46"/><line class="cls-3" x1="24.43" y1="50.72" x2="24.43" y2="50.72"/><line class="cls-3" x1="21.35" y1="53.47" x2="21.35" y2="53.47"/><line class="cls-3" x1="5.41" y1="18.79" x2="5.41" y2="18.79"/><line class="cls-3" x1="17.5" y1="54.46" x2="17.5" y2="54.46"/><line class="cls-3" x1="14.86" y1="52.92" x2="14.86" y2="52.92"/><line class="cls-3" x1="2.91" y1="11.12" x2="2.91" y2="11.12"/><line class="cls-3" x1="7.75" y1="13.62" x2="7.75" y2="13.62"/><line class="cls-3" x1="7.58" y1="9.79" x2="7.58" y2="9.79"/><line class="cls-3" x1="1.08" y1="8.46" x2="1.08" y2="8.46"/><line class="cls-3" x1="11.75" y1="11.46" x2="11.75" y2="11.46"/><line class="cls-3" x1="13.25" y1="16.12" x2="13.25" y2="16.12"/><line class="cls-3" x1="16.25" y1="12.62" x2="16.25" y2="12.62"/><line class="cls-3" x1="17.58" y1="16.96" x2="17.58" y2="16.96"/><line class="cls-3" x1="20.58" y1="14.12" x2="20.58" y2="14.12"/><line class="cls-3" x1="18.58" y1="9.12" x2="18.58" y2="9.12"/><line class="cls-3" x1="13.75" y1="8.62" x2="13.75" y2="8.62"/><line class="cls-3" x1="23.08" y1="10.79" x2="23.08" y2="10.79"/><line class="cls-3" x1="22.75" y1="17.46" x2="22.75" y2="17.46"/><line class="cls-3" x1="25.25" y1="13.79" x2="25.25" y2="13.79"/><line class="cls-3" x1="27.58" y1="17.62" x2="27.58" y2="17.62"/><line class="cls-3" x1="28.25" y1="10.29" x2="28.25" y2="10.29"/><line class="cls-3" x1="25.25" y1="8.79" x2="25.25" y2="8.79"/><line class="cls-3" x1="10.9" y1="54.35" x2="10.9" y2="54.35"/><line class="cls-3" x1="8.04" y1="52.48" x2="8.04" y2="52.48"/><line class="cls-3" x1="3.53" y1="51.82" x2="3.53" y2="51.82"/><line class="cls-3" x1="0.34" y1="53.91" x2="0.34" y2="53.91"/><line class="cls-3" x1="14.58" y1="27.12" x2="14.58" y2="27.12"/><line class="cls-3" x1="15.91" y1="24.29" x2="15.91" y2="24.29"/><line class="cls-3" x1="19.92" y1="26.96" x2="19.92" y2="26.96"/><line class="cls-3" x1="26.63" y1="30.7" x2="26.63" y2="30.7"/><line class="cls-3" x1="21.9" y1="30.26" x2="21.9" y2="30.26"/><line class="cls-3" x1="17.5" y1="29.71" x2="17.5" y2="29.71"/><line class="cls-3" x1="13.54" y1="29.82" x2="13.54" y2="29.82"/><line class="cls-3" x1="9.58" y1="31.03" x2="9.58" y2="31.03"/><line class="cls-3" x1="8.15" y1="28.5" x2="8.15" y2="28.5"/><line class="cls-3" x1="12.22" y1="33.56" x2="12.22" y2="33.56"/><line class="cls-3" x1="14.86" y1="36.09" x2="14.86" y2="36.09"/><line class="cls-3" x1="18.27" y1="34.44" x2="18.27" y2="34.44"/><line class="cls-3" x1="18.27" y1="37.85" x2="18.27" y2="37.85"/><line class="cls-3" x1="21.68" y1="37.3" x2="21.68" y2="37.3"/><line class="cls-3" x1="22.45" y1="34.11" x2="22.45" y2="34.11"/><line class="cls-3" x1="24.98" y1="35.98" x2="24.98" y2="35.98"/><line class="cls-3" x1="27.84" y1="33.89" x2="27.84" y2="33.89"/><line class="cls-3" x1="27.29" y1="37.63" x2="27.29" y2="37.63"/><line class="cls-3" x1="27.84" y1="41.37" x2="27.84" y2="41.37"/><line class="cls-3" x1="25.31" y1="42.58" x2="25.31" y2="42.58"/><line class="cls-3" x1="0.91" y1="13.62" x2="0.91" y2="13.62"/><line class="cls-3" x1="23.75" y1="39.79" x2="23.75" y2="39.79"/><line class="cls-3" x1="21.08" y1="42.12" x2="21.08" y2="42.12"/><line class="cls-3" x1="9.58" y1="17.12" x2="9.58" y2="17.12"/><line class="cls-3" x1="16.84" y1="41.37" x2="16.84" y2="41.37"/><line class="cls-3" x1="13.76" y1="40.27" x2="13.76" y2="40.27"/><line class="cls-3" x1="14.42" y1="43.79" x2="14.42" y2="43.79"/><line class="cls-3" x1="10.79" y1="44.56" x2="10.79" y2="44.56"/><line class="cls-3" x1="10.13" y1="41.37" x2="10.13" y2="41.37"/><line class="cls-3" x1="6.39" y1="41.37" x2="6.39" y2="41.37"/><line class="cls-3" x1="6.91" y1="46.62" x2="6.91" y2="46.62"/><line class="cls-3" x1="2.65" y1="40.6" x2="2.65" y2="40.6"/><line class="cls-3" x1="3.53" y1="44.78" x2="3.53" y2="44.78"/><line class="cls-3" x1="0.45" y1="43.68" x2="0.45" y2="43.68"/><rect class="cls-1" x="-24.53" y="7.72" width="54.13" height="54.12"/><rect class="cls-1" width="54.12" height="54.12"/></svg>