<svg id="Layer_1" data-name="Layer 1" xmlns="http://www.w3.org/2000/svg" width="54.15" height="54.12" viewBox="0 0 54.15 54.12"><defs><style>.cls-1,.cls-2,.cls-3{fill:none;}.cls-1,.cls-2{stroke:#000;}.cls-1{stroke-linecap:round;stroke-width:0.7px;}.cls-2{stroke-width:0.3px;}</style></defs><title>613</title><line class="cls-1" x1="37.83" y1="1.63" x2="37.83" y2="1.63"/><line class="cls-1" x1="6.82" y1="1.91" x2="6.82" y2="1.91"/><line class="cls-1" x1="5.29" y1="7.1" x2="5.29" y2="7.1"/><line class="cls-1" x1="8.26" y1="4.35" x2="8.26" y2="4.35"/><line class="cls-1" x1="10.24" y1="6.88" x2="10.24" y2="6.88"/><line class="cls-1" x1="12.44" y1="3.03" x2="12.44" y2="3.03"/><line class="cls-1" x1="16.84" y1="1.49" x2="16.84" y2="1.49"/><line class="cls-1" x1="13.98" y1="7.32" x2="13.98" y2="7.32"/><line class="cls-1" x1="16.95" y1="4.9" x2="16.95" y2="4.9"/><line class="cls-1" x1="20.47" y1="5.01" x2="20.47" y2="5.01"/><line class="cls-1" x1="21.46" y1="1.49" x2="21.46" y2="1.49"/><line class="cls-1" x1="25.42" y1="2.04" x2="25.42" y2="2.04"/><line class="cls-1" x1="23.99" y1="4.68" x2="23.99" y2="4.68"/><line class="cls-1" x1="30.99" y1="3.8" x2="30.99" y2="3.8"/><line class="cls-1" x1="2.82" y1="0.74" x2="2.82" y2="0.74"/><line class="cls-1" x1="2.98" y1="4.91" x2="2.98" y2="4.91"/><line class="cls-1" x1="36.15" y1="4.08" x2="36.15" y2="4.08"/><line class="cls-1" x1="40.82" y1="3.08" x2="40.82" y2="3.08"/><line class="cls-1" x1="45.33" y1="1.27" x2="45.33" y2="1.27"/><line class="cls-1" x1="46.76" y1="4.13" x2="46.76" y2="4.13"/><line class="cls-1" x1="49.84" y1="2.04" x2="49.84" y2="2.04"/><line class="cls-1" x1="53.47" y1="0.06" x2="53.47" y2="0.06"/><line class="cls-1" x1="54.24" y1="2.92" x2="54.24" y2="2.92"/><line class="cls-1" x1="53.82" y1="7.08" x2="53.82" y2="7.08"/><line class="cls-1" x1="50.83" y1="5.34" x2="50.83" y2="5.34"/><line class="cls-1" x1="47.75" y1="8.09" x2="47.75" y2="8.09"/><line class="cls-1" x1="53.58" y1="10.29" x2="53.58" y2="10.29"/><line class="cls-1" x1="52.32" y1="15.08" x2="52.32" y2="15.08"/><line class="cls-1" x1="50.39" y1="13.04" x2="50.39" y2="13.04"/><line class="cls-1" x1="47.42" y1="15.24" x2="47.42" y2="15.24"/><line class="cls-1" x1="47.42" y1="11.5" x2="47.42" y2="11.5"/><line class="cls-1" x1="43.9" y1="9.08" x2="43.9" y2="9.08"/><line class="cls-1" x1="42.58" y1="14.91" x2="42.58" y2="14.91"/><line class="cls-1" x1="41.26" y1="7.54" x2="41.26" y2="7.54"/><line class="cls-1" x1="40.98" y1="11.58" x2="40.98" y2="11.58"/><line class="cls-1" x1="39.15" y1="13.74" x2="39.15" y2="13.74"/><line class="cls-1" x1="37.3" y1="8.97" x2="37.3" y2="8.97"/><line class="cls-1" x1="34.44" y1="7.1" x2="34.44" y2="7.1"/><line class="cls-1" x1="34.66" y1="10.95" x2="34.66" y2="10.95"/><line class="cls-1" x1="36.2" y1="15.24" x2="36.2" y2="15.24"/><line class="cls-1" x1="31.47" y1="9.52" x2="31.47" y2="9.52"/><line class="cls-1" x1="29.93" y1="6.44" x2="29.93" y2="6.44"/><line class="cls-1" x1="26.74" y1="8.53" x2="26.74" y2="8.53"/><line class="cls-1" x1="28.5" y1="11.94" x2="28.5" y2="11.94"/><line class="cls-1" x1="23.99" y1="10.73" x2="23.99" y2="10.73"/><line class="cls-1" x1="20.69" y1="8.31" x2="20.69" y2="8.31"/><line class="cls-1" x1="17.06" y1="8.86" x2="17.06" y2="8.86"/><line class="cls-1" x1="21.02" y1="14.47" x2="21.02" y2="14.47"/><line class="cls-1" x1="25.53" y1="15.46" x2="25.53" y2="15.46"/><line class="cls-1" x1="31.47" y1="14.47" x2="31.47" y2="14.47"/><line class="cls-1" x1="16.07" y1="15.35" x2="16.07" y2="15.35"/><line class="cls-1" x1="14.86" y1="11.72" x2="14.86" y2="11.72"/><line class="cls-1" x1="11.12" y1="10.73" x2="11.12" y2="10.73"/><line class="cls-1" x1="11.23" y1="15.35" x2="11.23" y2="15.35"/><line class="cls-1" x1="8.48" y1="12.82" x2="8.48" y2="12.82"/><line class="cls-1" x1="4.08" y1="11.17" x2="4.08" y2="11.17"/><line class="cls-1" x1="4.63" y1="14.8" x2="4.63" y2="14.8"/><line class="cls-1" x1="33.32" y1="1.24" x2="33.32" y2="1.24"/><line class="cls-2" x1="17.06" y1="13.15" x2="34.44" y2="13.15"/><line class="cls-2" x1="13.65" y1="8.97" x2="1.86" y2="8.97"/><line class="cls-2" x1="44.36" y1="5.47" x2="25.22" y2="5.47"/><line class="cls-2" x1="55.98" y1="8.97" x2="50.7" y2="8.97"/><line class="cls-2" x1="28.7" y1="5.35" x2="28.7" y2="3.02"/><line class="cls-2" x1="54.23" y1="9.12" x2="54.23" y2="6.78"/><line class="cls-2" x1="20.2" y1="13.1" x2="20.2" y2="10.77"/><rect class="cls-3" x="1.87" y="-37.66" width="54.13" height="54.12"/><line class="cls-1" x1="52.15" y1="29.16" x2="52.15" y2="29.16"/><line class="cls-1" x1="47.86" y1="29.49" x2="47.86" y2="29.49"/><line class="cls-1" x1="53.25" y1="33.06" x2="53.25" y2="33.06"/><line class="cls-1" x1="49.18" y1="33.39" x2="49.18" y2="33.39"/><line class="cls-1" x1="50.72" y1="36.36" x2="50.72" y2="36.36"/><line class="cls-1" x1="54.35" y1="36.8" x2="54.35" y2="36.8"/><line class="cls-1" x1="41.32" y1="28.2" x2="41.32" y2="28.2"/><line class="cls-1" x1="45.82" y1="32.37" x2="45.82" y2="32.37"/><line class="cls-1" x1="36.15" y1="29.03" x2="36.15" y2="29.03"/><line class="cls-1" x1="37.32" y1="32.53" x2="37.32" y2="32.53"/><line class="cls-1" x1="30.37" y1="31.08" x2="30.37" y2="31.08"/><line class="cls-1" x1="34.44" y1="34.05" x2="34.44" y2="34.05"/><line class="cls-1" x1="32.02" y1="39.99" x2="32.02" y2="39.99"/><line class="cls-1" x1="12.83" y1="37.26" x2="12.83" y2="37.26"/><line class="cls-1" x1="28.83" y1="34.59" x2="28.83" y2="34.59"/><line class="cls-1" x1="25.97" y1="30.53" x2="25.97" y2="30.53"/><line class="cls-1" x1="23.55" y1="34.82" x2="23.55" y2="34.82"/><line class="cls-1" x1="22.34" y1="31.41" x2="22.34" y2="31.41"/><line class="cls-1" x1="17.66" y1="34.42" x2="17.66" y2="34.42"/><line class="cls-1" x1="17.61" y1="30.31" x2="17.61" y2="30.31"/><line class="cls-1" x1="13.65" y1="33.03" x2="13.65" y2="33.03"/><line class="cls-1" x1="10.35" y1="29.65" x2="10.35" y2="29.65"/><line class="cls-1" x1="7.32" y1="28.53" x2="7.32" y2="28.53"/><line class="cls-1" x1="3.82" y1="26.87" x2="3.82" y2="26.87"/><line class="cls-1" x1="3.31" y1="34.6" x2="3.31" y2="34.6"/><line class="cls-1" x1="7.15" y1="33.03" x2="7.15" y2="33.03"/><line class="cls-1" x1="10.9" y1="34.38" x2="10.9" y2="34.38"/><line class="cls-1" x1="9.47" y1="38.01" x2="9.47" y2="38.01"/><line class="cls-1" x1="5.18" y1="38.01" x2="5.18" y2="38.01"/><line class="cls-1" x1="14.82" y1="27.03" x2="14.82" y2="27.03"/><line class="cls-1" x1="2.87" y1="41.09" x2="2.87" y2="41.09"/><line class="cls-1" x1="3.09" y1="43.95" x2="3.09" y2="43.95"/><line class="cls-1" x1="8.26" y1="44.17" x2="8.26" y2="44.17"/><line class="cls-1" x1="7.27" y1="41.2" x2="7.27" y2="41.2"/><line class="cls-1" x1="11.23" y1="41.64" x2="11.23" y2="41.64"/><line class="cls-1" x1="14.53" y1="39.55" x2="14.53" y2="39.55"/><line class="cls-1" x1="14.86" y1="43.07" x2="14.86" y2="43.07"/><line class="cls-1" x1="18.05" y1="40.43" x2="18.05" y2="40.43"/><line class="cls-1" x1="18.82" y1="44.28" x2="18.82" y2="44.28"/><line class="cls-1" x1="21.65" y1="39.7" x2="21.65" y2="39.7"/><line class="cls-1" x1="21.79" y1="45.16" x2="21.79" y2="45.16"/><line class="cls-1" x1="25.09" y1="42.08" x2="25.09" y2="42.08"/><line class="cls-1" x1="27.33" y1="38.59" x2="27.33" y2="38.59"/><line class="cls-1" x1="28.94" y1="41.42" x2="28.94" y2="41.42"/><line class="cls-1" x1="26.19" y1="45.16" x2="26.19" y2="45.16"/><line class="cls-1" x1="30.59" y1="45.16" x2="30.59" y2="45.16"/><line class="cls-1" x1="34.11" y1="43.07" x2="34.11" y2="43.07"/><line class="cls-1" x1="36.31" y1="45.38" x2="36.31" y2="45.38"/><line class="cls-1" x1="18.16" y1="47.69" x2="18.16" y2="47.69"/><line class="cls-1" x1="16.29" y1="50.66" x2="16.29" y2="50.66"/><line class="cls-1" x1="14.09" y1="47.69" x2="14.09" y2="47.69"/><line class="cls-1" x1="10.46" y1="49.45" x2="10.46" y2="49.45"/><line class="cls-1" x1="8.59" y1="46.81" x2="8.59" y2="46.81"/><line class="cls-1" x1="8.48" y1="52.2" x2="8.48" y2="52.2"/><line class="cls-1" x1="6.17" y1="49.45" x2="6.17" y2="49.45"/><line class="cls-1" x1="2.98" y1="47.58" x2="2.98" y2="47.58"/><line class="cls-1" x1="20.48" y1="27.7" x2="20.48" y2="27.7"/><line class="cls-1" x1="4.15" y1="51.53" x2="4.15" y2="51.53"/><line class="cls-1" x1="7.32" y1="24.87" x2="7.32" y2="24.87"/><line class="cls-1" x1="27.65" y1="27.37" x2="27.65" y2="27.37"/><line class="cls-1" x1="24.32" y1="25.87" x2="24.32" y2="25.87"/><line class="cls-1" x1="53.47" y1="54.18" x2="53.47" y2="54.18"/><line class="cls-1" x1="31.82" y1="27.53" x2="31.82" y2="27.53"/><line class="cls-1" x1="12.15" y1="21.87" x2="12.15" y2="21.87"/><line class="cls-1" x1="10.98" y1="25.7" x2="10.98" y2="25.7"/><line class="cls-1" x1="21.65" y1="17.53" x2="21.65" y2="17.53"/><line class="cls-1" x1="17.98" y1="23.87" x2="17.98" y2="23.87"/><line class="cls-1" x1="21.82" y1="22.7" x2="21.82" y2="22.7"/><line class="cls-1" x1="24.65" y1="19.7" x2="24.65" y2="19.7"/><line class="cls-1" x1="19.32" y1="19.37" x2="19.32" y2="19.37"/><line class="cls-1" x1="15.65" y1="20.37" x2="15.65" y2="20.37"/><line class="cls-1" x1="12.15" y1="18.2" x2="12.15" y2="18.2"/><line class="cls-1" x1="8.65" y1="22.37" x2="8.65" y2="22.37"/><line class="cls-1" x1="3.98" y1="22.87" x2="3.98" y2="22.87"/><line class="cls-1" x1="3.98" y1="18.2" x2="3.98" y2="18.2"/><line class="cls-1" x1="7.32" y1="17.2" x2="7.32" y2="17.2"/><line class="cls-1" x1="31.66" y1="20.59" x2="31.66" y2="20.59"/><line class="cls-1" x1="34.15" y1="22.37" x2="34.15" y2="22.37"/><line class="cls-1" x1="33.98" y1="18.53" x2="33.98" y2="18.53"/><line class="cls-1" x1="27.48" y1="17.2" x2="27.48" y2="17.2"/><line class="cls-1" x1="38.15" y1="20.2" x2="38.15" y2="20.2"/><line class="cls-1" x1="39.65" y1="24.87" x2="39.65" y2="24.87"/><line class="cls-1" x1="42.65" y1="21.37" x2="42.65" y2="21.37"/><line class="cls-1" x1="43.98" y1="25.7" x2="43.98" y2="25.7"/><line class="cls-1" x1="46.98" y1="22.87" x2="46.98" y2="22.87"/><line class="cls-1" x1="44.98" y1="17.87" x2="44.98" y2="17.87"/><line class="cls-1" x1="40.15" y1="17.37" x2="40.15" y2="17.37"/><line class="cls-1" x1="47.66" y1="19.76" x2="47.66" y2="19.76"/><line class="cls-1" x1="49.15" y1="26.2" x2="49.15" y2="26.2"/><line class="cls-1" x1="51.65" y1="22.53" x2="51.65" y2="22.53"/><line class="cls-1" x1="53.98" y1="26.37" x2="53.98" y2="26.37"/><line class="cls-1" x1="48.49" y1="17.59" x2="48.49" y2="17.59"/><line class="cls-1" x1="40.98" y1="35.87" x2="40.98" y2="35.87"/><line class="cls-1" x1="42.32" y1="33.03" x2="42.32" y2="33.03"/><line class="cls-1" x1="46.32" y1="35.7" x2="46.32" y2="35.7"/><line class="cls-1" x1="53.03" y1="39.44" x2="53.03" y2="39.44"/><line class="cls-1" x1="48.3" y1="39" x2="48.3" y2="39"/><line class="cls-1" x1="39.94" y1="38.56" x2="39.94" y2="38.56"/><line class="cls-1" x1="35.98" y1="39.77" x2="35.98" y2="39.77"/><line class="cls-1" x1="34.55" y1="37.24" x2="34.55" y2="37.24"/><line class="cls-1" x1="38.62" y1="42.3" x2="38.62" y2="42.3"/><line class="cls-1" x1="41.26" y1="44.83" x2="41.26" y2="44.83"/><line class="cls-1" x1="44.67" y1="43.18" x2="44.67" y2="43.18"/><line class="cls-1" x1="44.67" y1="46.59" x2="44.67" y2="46.59"/><line class="cls-1" x1="48.08" y1="46.04" x2="48.08" y2="46.04"/><line class="cls-1" x1="48.85" y1="42.85" x2="48.85" y2="42.85"/><line class="cls-1" x1="51.38" y1="44.72" x2="51.38" y2="44.72"/><line class="cls-1" x1="54.24" y1="42.63" x2="54.24" y2="42.63"/><line class="cls-1" x1="53.69" y1="46.37" x2="53.69" y2="46.37"/><line class="cls-1" x1="54.24" y1="50.11" x2="54.24" y2="50.11"/><line class="cls-1" x1="49.99" y1="51.59" x2="49.99" y2="51.59"/><line class="cls-1" x1="27.32" y1="22.37" x2="27.32" y2="22.37"/><line class="cls-1" x1="50.15" y1="48.53" x2="50.15" y2="48.53"/><line class="cls-1" x1="35.98" y1="25.87" x2="35.98" y2="25.87"/><line class="cls-1" x1="43.24" y1="50.11" x2="43.24" y2="50.11"/><line class="cls-1" x1="40.16" y1="49.01" x2="40.16" y2="49.01"/><line class="cls-1" x1="40.82" y1="52.53" x2="40.82" y2="52.53"/><line class="cls-1" x1="37.19" y1="53.3" x2="37.19" y2="53.3"/><line class="cls-1" x1="36.53" y1="50.11" x2="36.53" y2="50.11"/><line class="cls-1" x1="32.79" y1="50.11" x2="32.79" y2="50.11"/><line class="cls-1" x1="29.05" y1="49.34" x2="29.05" y2="49.34"/><line class="cls-1" x1="29.93" y1="53.52" x2="29.93" y2="53.52"/><line class="cls-1" x1="26.85" y1="52.42" x2="26.85" y2="52.42"/><line class="cls-1" x1="24.65" y1="49.67" x2="24.65" y2="49.67"/><line class="cls-1" x1="22.45" y1="52.86" x2="22.45" y2="52.86"/><line class="cls-1" x1="18.93" y1="52.09" x2="18.93" y2="52.09"/><line class="cls-1" x1="21.02" y1="48.9" x2="21.02" y2="48.9"/><line class="cls-2" x1="43.24" y1="53.4" x2="55.78" y2="53.4"/><line class="cls-2" x1="25.42" y1="53.83" x2="10.68" y2="53.83"/><line class="cls-2" x1="25.2" y1="46.81" x2="42.58" y2="46.81"/><line class="cls-2" x1="21.06" y1="23.99" x2="38.44" y2="23.99"/><line class="cls-2" x1="1.84" y1="20.54" x2="8.79" y2="20.54"/><line class="cls-2" x1="16.84" y1="45.27" x2="2.32" y2="45.27"/><line class="cls-2" x1="41.48" y1="40.65" x2="55.78" y2="40.65"/><line class="cls-2" x1="32.54" y1="36.77" x2="17.37" y2="36.77"/><line class="cls-2" x1="16.12" y1="30.94" x2="2.04" y2="30.94"/><line class="cls-2" x1="34.16" y1="30.72" x2="50" y2="30.72"/><line class="cls-2" x1="49.86" y1="20.54" x2="55.98" y2="20.54"/><line class="cls-2" x1="52.22" y1="20.67" x2="52.22" y2="18.34"/><line class="cls-2" x1="37.72" y1="30.72" x2="37.72" y2="28.38"/><line class="cls-2" x1="4.7" y1="30.93" x2="4.7" y2="28.59"/><line class="cls-2" x1="20.39" y1="36.71" x2="20.39" y2="34.38"/><line class="cls-2" x1="44.54" y1="40.57" x2="44.54" y2="38.23"/><line class="cls-2" x1="28.35" y1="46.78" x2="28.35" y2="44.45"/><line class="cls-2" x1="5.22" y1="45.33" x2="5.22" y2="42.99"/><line class="cls-2" x1="46.87" y1="53.49" x2="46.87" y2="51.15"/><line class="cls-2" x1="13.89" y1="53.71" x2="13.89" y2="51.37"/><line class="cls-2" x1="23.99" y1="24.1" x2="23.99" y2="21.76"/><rect class="cls-3" x="1.87" y="16.47" width="54.13" height="54.12"/><line class="cls-1" x1="0.12" y1="2.92" x2="0.12" y2="2.92"/><line class="cls-1" x1="-0.31" y1="7.08" x2="-0.31" y2="7.08"/><line class="cls-1" x1="0.52" y1="13.08" x2="0.52" y2="13.08"/><line class="cls-2" x1="1.86" y1="8.97" x2="-3.42" y2="8.97"/><line class="cls-2" x1="0.11" y1="9.12" x2="0.11" y2="6.78"/><rect class="cls-3" x="-52.26" y="-37.66" width="54.13" height="54.12"/><line class="cls-1" x1="0.23" y1="36.8" x2="0.23" y2="36.8"/><line class="cls-1" x1="0.86" y1="30.37" x2="0.86" y2="30.37"/><line class="cls-1" x1="-0.14" y1="26.37" x2="-0.14" y2="26.37"/><line class="cls-1" x1="0.52" y1="19.03" x2="0.52" y2="19.03"/><line class="cls-1" x1="0.12" y1="42.63" x2="0.12" y2="42.63"/><line class="cls-1" x1="0.12" y1="50.11" x2="0.12" y2="50.11"/><line class="cls-2" x1="-10.88" y1="53.4" x2="1.66" y2="53.4"/><line class="cls-2" x1="-12.64" y1="40.65" x2="1.66" y2="40.65"/><line class="cls-2" x1="-4.27" y1="20.54" x2="1.86" y2="20.54"/><rect class="cls-3" x="-52.26" y="16.47" width="54.13" height="54.12"/><rect class="cls-3" width="54.15" height="54.15"/></svg>