<svg id="Layer_1" data-name="Layer 1" xmlns="http://www.w3.org/2000/svg" width="54.16" height="54.13" viewBox="0 0 54.16 54.13"><defs><style>.cls-1,.cls-2,.cls-3{fill:none;}.cls-1,.cls-2{stroke:#000;}.cls-1{stroke-linecap:round;stroke-width:0.7px;}.cls-2{stroke-width:0.3px;}</style></defs><title>614</title><line class="cls-1" x1="40.09" y1="0.79" x2="40.09" y2="0.79"/><line class="cls-1" x1="38.57" y1="5.98" x2="38.57" y2="5.98"/><line class="cls-1" x1="41.54" y1="3.23" x2="41.54" y2="3.23"/><line class="cls-1" x1="43.52" y1="5.76" x2="43.52" y2="5.76"/><line class="cls-1" x1="45.72" y1="1.91" x2="45.72" y2="1.91"/><line class="cls-1" x1="50.12" y1="0.37" x2="50.12" y2="0.37"/><line class="cls-1" x1="47.26" y1="6.2" x2="47.26" y2="6.2"/><line class="cls-1" x1="50.23" y1="3.78" x2="50.23" y2="3.78"/><line class="cls-1" x1="53.75" y1="3.89" x2="53.75" y2="3.89"/><line class="cls-1" x1="36.26" y1="3.79" x2="36.26" y2="3.79"/><line class="cls-1" x1="53.97" y1="7.19" x2="53.97" y2="7.19"/><line class="cls-1" x1="50.34" y1="7.74" x2="50.34" y2="7.74"/><line class="cls-1" x1="54.3" y1="13.35" x2="54.3" y2="13.35"/><line class="cls-1" x1="49.35" y1="14.23" x2="49.35" y2="14.23"/><line class="cls-1" x1="48.14" y1="10.6" x2="48.14" y2="10.6"/><line class="cls-1" x1="44.4" y1="9.61" x2="44.4" y2="9.61"/><line class="cls-1" x1="44.51" y1="14.23" x2="44.51" y2="14.23"/><line class="cls-1" x1="41.76" y1="11.7" x2="41.76" y2="11.7"/><line class="cls-1" x1="37.36" y1="10.05" x2="37.36" y2="10.05"/><line class="cls-1" x1="37.91" y1="13.68" x2="37.91" y2="13.68"/><line class="cls-2" x1="50.34" y1="12.03" x2="67.72" y2="12.03"/><line class="cls-2" x1="45.68" y1="7.85" x2="35.14" y2="7.85"/><line class="cls-2" x1="53.48" y1="11.99" x2="55.15" y2="9.52"/><rect class="cls-3" x="35.14" y="-38.78" width="54.13" height="54.13"/><line class="cls-1" x1="46.1" y1="36.14" x2="46.1" y2="36.14"/><line class="cls-1" x1="50.94" y1="33.31" x2="50.94" y2="33.31"/><line class="cls-1" x1="50.89" y1="29.2" x2="50.89" y2="29.2"/><line class="cls-1" x1="46.93" y1="31.92" x2="46.93" y2="31.92"/><line class="cls-1" x1="43.63" y1="28.54" x2="43.63" y2="28.54"/><line class="cls-1" x1="47.81" y1="27.47" x2="47.81" y2="27.47"/><line class="cls-1" x1="36.64" y1="27.14" x2="36.64" y2="27.14"/><line class="cls-1" x1="36.59" y1="33.49" x2="36.59" y2="33.49"/><line class="cls-1" x1="40.43" y1="31.92" x2="40.43" y2="31.92"/><line class="cls-1" x1="44.18" y1="33.27" x2="44.18" y2="33.27"/><line class="cls-1" x1="42.75" y1="36.9" x2="42.75" y2="36.9"/><line class="cls-1" x1="38.46" y1="36.9" x2="38.46" y2="36.9"/><line class="cls-1" x1="48.14" y1="23.81" x2="48.14" y2="23.81"/><line class="cls-1" x1="36.15" y1="39.98" x2="36.15" y2="39.98"/><line class="cls-1" x1="36.37" y1="42.84" x2="36.37" y2="42.84"/><line class="cls-1" x1="41.54" y1="43.06" x2="41.54" y2="43.06"/><line class="cls-1" x1="40.55" y1="40.09" x2="40.55" y2="40.09"/><line class="cls-1" x1="44.51" y1="40.53" x2="44.51" y2="40.53"/><line class="cls-1" x1="47.81" y1="38.44" x2="47.81" y2="38.44"/><line class="cls-1" x1="48.14" y1="41.96" x2="48.14" y2="41.96"/><line class="cls-1" x1="51.33" y1="39.32" x2="51.33" y2="39.32"/><line class="cls-1" x1="52.1" y1="43.17" x2="52.1" y2="43.17"/><line class="cls-1" x1="51.44" y1="46.58" x2="51.44" y2="46.58"/><line class="cls-1" x1="49.57" y1="49.55" x2="49.57" y2="49.55"/><line class="cls-1" x1="47.37" y1="46.58" x2="47.37" y2="46.58"/><line class="cls-1" x1="43.74" y1="48.34" x2="43.74" y2="48.34"/><line class="cls-1" x1="41.87" y1="45.7" x2="41.87" y2="45.7"/><line class="cls-1" x1="41.76" y1="51.09" x2="41.76" y2="51.09"/><line class="cls-1" x1="39.45" y1="48.34" x2="39.45" y2="48.34"/><line class="cls-1" x1="36.26" y1="46.47" x2="36.26" y2="46.47"/><line class="cls-1" x1="53.76" y1="26.58" x2="53.76" y2="26.58"/><line class="cls-1" x1="37.43" y1="50.42" x2="37.43" y2="50.42"/><line class="cls-1" x1="40.59" y1="23.75" x2="40.59" y2="23.75"/><line class="cls-1" x1="36.09" y1="53.75" x2="36.09" y2="53.75"/><line class="cls-1" x1="45.43" y1="20.75" x2="45.43" y2="20.75"/><line class="cls-1" x1="44.26" y1="24.58" x2="44.26" y2="24.58"/><line class="cls-1" x1="51.26" y1="22.75" x2="51.26" y2="22.75"/><line class="cls-1" x1="52.59" y1="18.25" x2="52.59" y2="18.25"/><line class="cls-1" x1="48.93" y1="19.25" x2="48.93" y2="19.25"/><line class="cls-1" x1="45.43" y1="17.08" x2="45.43" y2="17.08"/><line class="cls-1" x1="41.93" y1="21.25" x2="41.93" y2="21.25"/><line class="cls-1" x1="37.26" y1="21.75" x2="37.26" y2="21.75"/><line class="cls-1" x1="37.26" y1="17.08" x2="37.26" y2="17.08"/><line class="cls-1" x1="40.59" y1="16.08" x2="40.59" y2="16.08"/><line class="cls-1" x1="52.21" y1="50.98" x2="52.21" y2="50.98"/><line class="cls-1" x1="54.3" y1="47.79" x2="54.3" y2="47.79"/><line class="cls-2" x1="58.7" y1="52.72" x2="43.96" y2="52.72"/><line class="cls-2" x1="35.12" y1="19.43" x2="42.07" y2="19.43"/><line class="cls-2" x1="50.12" y1="44.16" x2="35.6" y2="44.16"/><line class="cls-2" x1="65.82" y1="35.65" x2="50.64" y2="35.65"/><line class="cls-2" x1="49.4" y1="29.82" x2="35.32" y2="29.82"/><line class="cls-2" x1="37.98" y1="29.81" x2="39.65" y2="27.34"/><line class="cls-2" x1="53.66" y1="35.6" x2="55.33" y2="33.13"/><line class="cls-2" x1="38.5" y1="44.21" x2="40.17" y2="41.74"/><line class="cls-2" x1="47.16" y1="52.59" x2="48.83" y2="50.12"/><rect class="cls-3" x="35.14" y="15.35" width="54.13" height="54.13"/><line class="cls-1" x1="16.98" y1="0.52" x2="16.98" y2="0.52"/><line class="cls-1" x1="0.61" y1="0.37" x2="0.61" y2="0.37"/><line class="cls-1" x1="4.57" y1="0.92" x2="4.57" y2="0.92"/><line class="cls-1" x1="3.14" y1="3.56" x2="3.14" y2="3.56"/><line class="cls-1" x1="10.14" y1="2.68" x2="10.14" y2="2.68"/><line class="cls-1" x1="15.3" y1="2.96" x2="15.3" y2="2.96"/><line class="cls-1" x1="19.97" y1="1.96" x2="19.97" y2="1.96"/><line class="cls-1" x1="24.48" y1="0.15" x2="24.48" y2="0.15"/><line class="cls-1" x1="25.91" y1="3.01" x2="25.91" y2="3.01"/><line class="cls-1" x1="28.99" y1="0.92" x2="28.99" y2="0.92"/><line class="cls-1" x1="33.39" y1="1.8" x2="33.39" y2="1.8"/><line class="cls-1" x1="31.35" y1="6.02" x2="31.35" y2="6.02"/><line class="cls-1" x1="29.98" y1="4.22" x2="29.98" y2="4.22"/><line class="cls-1" x1="26.9" y1="6.97" x2="26.9" y2="6.97"/><line class="cls-1" x1="32.73" y1="9.17" x2="32.73" y2="9.17"/><line class="cls-1" x1="33.8" y1="11.96" x2="33.8" y2="11.96"/><line class="cls-1" x1="31.47" y1="13.96" x2="31.47" y2="13.96"/><line class="cls-1" x1="29.54" y1="11.92" x2="29.54" y2="11.92"/><line class="cls-1" x1="26.57" y1="14.12" x2="26.57" y2="14.12"/><line class="cls-1" x1="26.57" y1="10.38" x2="26.57" y2="10.38"/><line class="cls-1" x1="23.05" y1="7.96" x2="23.05" y2="7.96"/><line class="cls-1" x1="21.73" y1="13.79" x2="21.73" y2="13.79"/><line class="cls-1" x1="20.41" y1="6.42" x2="20.41" y2="6.42"/><line class="cls-1" x1="20.13" y1="10.46" x2="20.13" y2="10.46"/><line class="cls-1" x1="18.3" y1="12.63" x2="18.3" y2="12.63"/><line class="cls-1" x1="16.45" y1="7.85" x2="16.45" y2="7.85"/><line class="cls-1" x1="13.59" y1="5.98" x2="13.59" y2="5.98"/><line class="cls-1" x1="13.81" y1="9.83" x2="13.81" y2="9.83"/><line class="cls-1" x1="15.35" y1="14.12" x2="15.35" y2="14.12"/><line class="cls-1" x1="10.62" y1="8.4" x2="10.62" y2="8.4"/><line class="cls-1" x1="9.08" y1="5.32" x2="9.08" y2="5.32"/><line class="cls-1" x1="5.89" y1="7.41" x2="5.89" y2="7.41"/><line class="cls-1" x1="7.65" y1="10.82" x2="7.65" y2="10.82"/><line class="cls-1" x1="3.14" y1="9.61" x2="3.14" y2="9.61"/><line class="cls-1" x1="-0.16" y1="7.19" x2="-0.16" y2="7.19"/><line class="cls-1" x1="0.17" y1="13.35" x2="0.17" y2="13.35"/><line class="cls-1" x1="4.68" y1="14.34" x2="4.68" y2="14.34"/><line class="cls-1" x1="10.62" y1="13.35" x2="10.62" y2="13.35"/><line class="cls-1" x1="12.47" y1="0.13" x2="12.47" y2="0.13"/><line class="cls-2" x1="-3.79" y1="12.03" x2="13.59" y2="12.03"/><line class="cls-2" x1="23.51" y1="4.35" x2="4.37" y2="4.35"/><line class="cls-2" x1="35.14" y1="7.85" x2="28.61" y2="7.85"/><line class="cls-2" x1="7.85" y1="4.24" x2="9.52" y2="1.77"/><line class="cls-2" x1="32.14" y1="8" x2="33.8" y2="5.53"/><line class="cls-2" x1="-0.65" y1="11.99" x2="1.02" y2="9.52"/><rect class="cls-3" x="-18.98" y="-38.78" width="54.13" height="54.13"/><line class="cls-1" x1="31.3" y1="28.04" x2="31.3" y2="28.04"/><line class="cls-1" x1="27.01" y1="28.37" x2="27.01" y2="28.37"/><line class="cls-1" x1="32.4" y1="31.95" x2="32.4" y2="31.95"/><line class="cls-1" x1="28.33" y1="32.28" x2="28.33" y2="32.28"/><line class="cls-1" x1="29.87" y1="35.25" x2="29.87" y2="35.25"/><line class="cls-1" x1="33.5" y1="35.69" x2="33.5" y2="35.69"/><line class="cls-1" x1="20.47" y1="27.08" x2="20.47" y2="27.08"/><line class="cls-1" x1="24.97" y1="31.25" x2="24.97" y2="31.25"/><line class="cls-1" x1="15.3" y1="27.92" x2="15.3" y2="27.92"/><line class="cls-1" x1="16.47" y1="31.42" x2="16.47" y2="31.42"/><line class="cls-1" x1="9.52" y1="29.97" x2="9.52" y2="29.97"/><line class="cls-1" x1="13.59" y1="32.94" x2="13.59" y2="32.94"/><line class="cls-1" x1="11.17" y1="38.88" x2="11.17" y2="38.88"/><line class="cls-1" x1="7.98" y1="33.47" x2="7.98" y2="33.47"/><line class="cls-1" x1="5.12" y1="29.42" x2="5.12" y2="29.42"/><line class="cls-1" x1="2.7" y1="33.71" x2="2.7" y2="33.71"/><line class="cls-1" x1="1.49" y1="30.3" x2="1.49" y2="30.3"/><line class="cls-1" x1="0.8" y1="38.58" x2="0.8" y2="38.58"/><line class="cls-1" x1="0.94" y1="44.05" x2="0.94" y2="44.05"/><line class="cls-1" x1="4.24" y1="40.97" x2="4.24" y2="40.97"/><line class="cls-1" x1="6.48" y1="37.47" x2="6.48" y2="37.47"/><line class="cls-1" x1="8.09" y1="40.31" x2="8.09" y2="40.31"/><line class="cls-1" x1="5.34" y1="44.05" x2="5.34" y2="44.05"/><line class="cls-1" x1="9.74" y1="44.05" x2="9.74" y2="44.05"/><line class="cls-1" x1="13.26" y1="41.96" x2="13.26" y2="41.96"/><line class="cls-1" x1="15.46" y1="44.27" x2="15.46" y2="44.27"/><line class="cls-1" x1="34.13" y1="29.25" x2="34.13" y2="29.25"/><line class="cls-1" x1="6.8" y1="26.25" x2="6.8" y2="26.25"/><line class="cls-1" x1="3.47" y1="24.75" x2="3.47" y2="24.75"/><line class="cls-1" x1="24.48" y1="54.28" x2="24.48" y2="54.28"/><line class="cls-1" x1="32.62" y1="53.07" x2="32.62" y2="53.07"/><line class="cls-1" x1="10.97" y1="26.42" x2="10.97" y2="26.42"/><line class="cls-1" x1="0.8" y1="16.42" x2="0.8" y2="16.42"/><line class="cls-1" x1="0.97" y1="21.58" x2="0.97" y2="21.58"/><line class="cls-1" x1="3.8" y1="18.58" x2="3.8" y2="18.58"/><line class="cls-1" x1="10.81" y1="19.47" x2="10.81" y2="19.47"/><line class="cls-1" x1="13.3" y1="21.25" x2="13.3" y2="21.25"/><line class="cls-1" x1="13.13" y1="17.42" x2="13.13" y2="17.42"/><line class="cls-1" x1="6.63" y1="16.08" x2="6.63" y2="16.08"/><line class="cls-1" x1="17.3" y1="19.08" x2="17.3" y2="19.08"/><line class="cls-1" x1="18.8" y1="23.75" x2="18.8" y2="23.75"/><line class="cls-1" x1="21.8" y1="20.25" x2="21.8" y2="20.25"/><line class="cls-1" x1="23.13" y1="24.58" x2="23.13" y2="24.58"/><line class="cls-1" x1="26.13" y1="21.75" x2="26.13" y2="21.75"/><line class="cls-1" x1="24.13" y1="16.75" x2="24.13" y2="16.75"/><line class="cls-1" x1="19.3" y1="16.25" x2="19.3" y2="16.25"/><line class="cls-1" x1="26.81" y1="18.64" x2="26.81" y2="18.64"/><line class="cls-1" x1="28.3" y1="25.08" x2="28.3" y2="25.08"/><line class="cls-1" x1="30.8" y1="21.42" x2="30.8" y2="21.42"/><line class="cls-1" x1="33.13" y1="25.25" x2="33.13" y2="25.25"/><line class="cls-1" x1="33.8" y1="17.92" x2="33.8" y2="17.92"/><line class="cls-1" x1="27.64" y1="16.47" x2="27.64" y2="16.47"/><line class="cls-1" x1="20.13" y1="34.75" x2="20.13" y2="34.75"/><line class="cls-1" x1="21.47" y1="31.92" x2="21.47" y2="31.92"/><line class="cls-1" x1="25.47" y1="34.59" x2="25.47" y2="34.59"/><line class="cls-1" x1="32.18" y1="38.33" x2="32.18" y2="38.33"/><line class="cls-1" x1="27.45" y1="37.89" x2="27.45" y2="37.89"/><line class="cls-1" x1="19.09" y1="37.45" x2="19.09" y2="37.45"/><line class="cls-1" x1="15.13" y1="38.66" x2="15.13" y2="38.66"/><line class="cls-1" x1="13.7" y1="36.13" x2="13.7" y2="36.13"/><line class="cls-1" x1="17.77" y1="41.19" x2="17.77" y2="41.19"/><line class="cls-1" x1="20.41" y1="43.72" x2="20.41" y2="43.72"/><line class="cls-1" x1="23.82" y1="42.07" x2="23.82" y2="42.07"/><line class="cls-1" x1="23.82" y1="45.48" x2="23.82" y2="45.48"/><line class="cls-1" x1="27.23" y1="44.93" x2="27.23" y2="44.93"/><line class="cls-1" x1="28" y1="41.74" x2="28" y2="41.74"/><line class="cls-1" x1="30.53" y1="43.61" x2="30.53" y2="43.61"/><line class="cls-1" x1="33.39" y1="41.52" x2="33.39" y2="41.52"/><line class="cls-1" x1="32.84" y1="45.26" x2="32.84" y2="45.26"/><line class="cls-1" x1="33.39" y1="49" x2="33.39" y2="49"/><line class="cls-1" x1="29.14" y1="50.47" x2="29.14" y2="50.47"/><line class="cls-1" x1="6.47" y1="21.25" x2="6.47" y2="21.25"/><line class="cls-1" x1="29.3" y1="47.42" x2="29.3" y2="47.42"/><line class="cls-1" x1="15.13" y1="24.75" x2="15.13" y2="24.75"/><line class="cls-1" x1="22.39" y1="49" x2="22.39" y2="49"/><line class="cls-1" x1="19.31" y1="47.9" x2="19.31" y2="47.9"/><line class="cls-1" x1="19.97" y1="51.42" x2="19.97" y2="51.42"/><line class="cls-1" x1="16.34" y1="52.19" x2="16.34" y2="52.19"/><line class="cls-1" x1="15.68" y1="49" x2="15.68" y2="49"/><line class="cls-1" x1="11.94" y1="49" x2="11.94" y2="49"/><line class="cls-1" x1="12.47" y1="54.25" x2="12.47" y2="54.25"/><line class="cls-1" x1="8.2" y1="48.23" x2="8.2" y2="48.23"/><line class="cls-1" x1="9.08" y1="52.41" x2="9.08" y2="52.41"/><line class="cls-1" x1="6" y1="51.31" x2="6" y2="51.31"/><line class="cls-1" x1="3.8" y1="48.56" x2="3.8" y2="48.56"/><line class="cls-1" x1="1.6" y1="51.75" x2="1.6" y2="51.75"/><line class="cls-1" x1="0.17" y1="47.79" x2="0.17" y2="47.79"/><line class="cls-2" x1="22.39" y1="52.28" x2="34.93" y2="52.28"/><line class="cls-2" x1="4.57" y1="52.72" x2="-10.17" y2="52.72"/><line class="cls-2" x1="4.35" y1="45.7" x2="21.73" y2="45.7"/><line class="cls-2" x1="0.21" y1="22.87" x2="17.6" y2="22.87"/><line class="cls-2" x1="20.63" y1="39.54" x2="34.93" y2="39.54"/><line class="cls-2" x1="11.7" y1="35.65" x2="-3.48" y2="35.65"/><line class="cls-2" x1="13.31" y1="29.6" x2="29.15" y2="29.6"/><line class="cls-2" x1="29.01" y1="19.43" x2="35.15" y2="19.43"/><line class="cls-2" x1="31.37" y1="19.56" x2="33.04" y2="17.09"/><line class="cls-2" x1="16.87" y1="29.6" x2="18.54" y2="27.13"/><line class="cls-2" x1="-0.46" y1="35.6" x2="1.21" y2="33.13"/><line class="cls-2" x1="23.69" y1="39.45" x2="25.35" y2="36.98"/><line class="cls-2" x1="7.5" y1="45.67" x2="9.17" y2="43.2"/><line class="cls-2" x1="26.02" y1="52.37" x2="27.69" y2="49.9"/><line class="cls-2" x1="3.14" y1="22.98" x2="4.81" y2="20.52"/><rect class="cls-3" x="-18.98" y="15.35" width="54.13" height="54.13"/><rect class="cls-3" width="54.12" height="54.13"/></svg>