<svg id="Layer_1" data-name="Layer 1" xmlns="http://www.w3.org/2000/svg" width="54.13" height="54.13" viewBox="0 0 54.13 54.13"><defs><style>.cls-1,.cls-2,.cls-3{fill:none;}.cls-2,.cls-3{stroke:#000;}.cls-2{stroke-width:0.3px;}.cls-3{stroke-linecap:round;stroke-width:0.7px;}</style></defs><title>615</title><rect class="cls-1" x="12.97" y="-29.66" width="54.13" height="54.13"/><line class="cls-2" x1="50.6" y1="1.88" x2="59.68" y2="1.88"/><line class="cls-2" x1="32.6" y1="1.88" x2="41.68" y2="1.88"/><line class="cls-2" x1="23.81" y1="1.88" x2="14.72" y2="1.88"/><line class="cls-2" x1="15.56" y1="5.01" x2="12.97" y2="5.01"/><line class="cls-2" x1="33.56" y1="5.01" x2="24.47" y2="5.01"/><line class="cls-2" x1="42.47" y1="5.01" x2="51.56" y2="5.01"/><line class="cls-2" x1="52.72" y1="8.01" x2="61.81" y2="8.01"/><line class="cls-2" x1="34.72" y1="8.01" x2="43.81" y2="8.01"/><line class="cls-2" x1="25.81" y1="8.01" x2="16.72" y2="8.01"/><line class="cls-2" x1="18.06" y1="11.01" x2="12.97" y2="11.01"/><line class="cls-2" x1="26.85" y1="11.01" x2="35.93" y2="11.01"/><line class="cls-2" x1="44.72" y1="11.01" x2="53.81" y2="11.01"/><line class="cls-2" x1="45.93" y1="13.88" x2="36.85" y2="13.88"/><line class="cls-2" x1="27.93" y1="13.88" x2="18.85" y2="13.88"/><line class="cls-2" x1="19.43" y1="17.13" x2="12.97" y2="17.13"/><line class="cls-2" x1="28.47" y1="17.13" x2="37.56" y2="17.13"/><line class="cls-2" x1="46.6" y1="17.13" x2="55.68" y2="17.13"/><line class="cls-2" x1="45.93" y1="20.01" x2="36.85" y2="20.01"/><line class="cls-2" x1="27.81" y1="20.01" x2="18.72" y2="20.01"/><line class="cls-2" x1="12.97" y1="23.13" x2="18.06" y2="23.13"/><line class="cls-2" x1="35.81" y1="23.13" x2="26.72" y2="23.13"/><line class="cls-2" x1="53.68" y1="23.13" x2="44.6" y2="23.13"/><line class="cls-3" x1="27.91" y1="1.9" x2="27.91" y2="1.9"/><line class="cls-3" x1="30.19" y1="1.9" x2="30.19" y2="1.9"/><line class="cls-3" x1="25.53" y1="1.9" x2="25.53" y2="1.9"/><line class="cls-3" x1="46.16" y1="1.9" x2="46.16" y2="1.9"/><line class="cls-3" x1="48.44" y1="1.9" x2="48.44" y2="1.9"/><line class="cls-3" x1="43.78" y1="1.9" x2="43.78" y2="1.9"/><line class="cls-3" x1="37.91" y1="5.03" x2="37.91" y2="5.03"/><line class="cls-3" x1="40.19" y1="5.03" x2="40.19" y2="5.03"/><line class="cls-3" x1="35.53" y1="5.03" x2="35.53" y2="5.03"/><line class="cls-3" x1="20.04" y1="5.03" x2="20.04" y2="5.03"/><line class="cls-3" x1="22.32" y1="5.03" x2="22.32" y2="5.03"/><line class="cls-3" x1="17.65" y1="5.03" x2="17.65" y2="5.03"/><line class="cls-3" x1="53.78" y1="5.03" x2="53.78" y2="5.03"/><line class="cls-3" x1="30.1" y1="8.03" x2="30.1" y2="8.03"/><line class="cls-3" x1="32.38" y1="8.03" x2="32.38" y2="8.03"/><line class="cls-3" x1="27.71" y1="8.03" x2="27.71" y2="8.03"/><line class="cls-3" x1="14.5" y1="8.03" x2="14.5" y2="8.03"/><line class="cls-3" x1="48.35" y1="8.03" x2="48.35" y2="8.03"/><line class="cls-3" x1="50.63" y1="8.03" x2="50.63" y2="8.03"/><line class="cls-3" x1="45.96" y1="8.03" x2="45.96" y2="8.03"/><line class="cls-3" x1="40.29" y1="11.03" x2="40.29" y2="11.03"/><line class="cls-3" x1="42.57" y1="11.03" x2="42.57" y2="11.03"/><line class="cls-3" x1="37.9" y1="11.03" x2="37.9" y2="11.03"/><line class="cls-3" x1="22.41" y1="11.03" x2="22.41" y2="11.03"/><line class="cls-3" x1="24.69" y1="11.03" x2="24.69" y2="11.03"/><line class="cls-3" x1="20.02" y1="11.03" x2="20.02" y2="11.03"/><line class="cls-3" x1="32.1" y1="13.84" x2="32.1" y2="13.84"/><line class="cls-3" x1="34.38" y1="13.84" x2="34.38" y2="13.84"/><line class="cls-3" x1="29.71" y1="13.84" x2="29.71" y2="13.84"/><line class="cls-3" x1="14.22" y1="13.84" x2="14.22" y2="13.84"/><line class="cls-3" x1="16.5" y1="13.84" x2="16.5" y2="13.84"/><line class="cls-3" x1="50.35" y1="13.84" x2="50.35" y2="13.84"/><line class="cls-3" x1="52.63" y1="13.84" x2="52.63" y2="13.84"/><line class="cls-3" x1="47.96" y1="13.84" x2="47.96" y2="13.84"/><line class="cls-3" x1="41.97" y1="17.15" x2="41.97" y2="17.15"/><line class="cls-3" x1="44.26" y1="17.15" x2="44.26" y2="17.15"/><line class="cls-3" x1="39.59" y1="17.15" x2="39.59" y2="17.15"/><line class="cls-3" x1="24.1" y1="17.15" x2="24.1" y2="17.15"/><line class="cls-3" x1="26.38" y1="17.15" x2="26.38" y2="17.15"/><line class="cls-3" x1="21.71" y1="17.15" x2="21.71" y2="17.15"/><line class="cls-3" x1="32.16" y1="20.03" x2="32.16" y2="20.03"/><line class="cls-3" x1="34.44" y1="20.03" x2="34.44" y2="20.03"/><line class="cls-3" x1="29.78" y1="20.03" x2="29.78" y2="20.03"/><line class="cls-3" x1="14.29" y1="20.03" x2="14.29" y2="20.03"/><line class="cls-3" x1="16.57" y1="20.03" x2="16.57" y2="20.03"/><line class="cls-3" x1="50.41" y1="20.03" x2="50.41" y2="20.03"/><line class="cls-3" x1="52.69" y1="20.03" x2="52.69" y2="20.03"/><line class="cls-3" x1="48.03" y1="20.03" x2="48.03" y2="20.03"/><line class="cls-3" x1="40.35" y1="23.15" x2="40.35" y2="23.15"/><line class="cls-3" x1="42.63" y1="23.15" x2="42.63" y2="23.15"/><line class="cls-3" x1="37.96" y1="23.15" x2="37.96" y2="23.15"/><line class="cls-3" x1="22.47" y1="23.15" x2="22.47" y2="23.15"/><line class="cls-3" x1="24.75" y1="23.15" x2="24.75" y2="23.15"/><line class="cls-3" x1="20.09" y1="23.15" x2="20.09" y2="23.15"/><rect class="cls-1" x="12.97" y="24.46" width="54.13" height="54.13"/><line class="cls-2" x1="18.6" y1="25.82" x2="27.68" y2="25.82"/><line class="cls-2" x1="36.72" y1="25.82" x2="45.81" y2="25.82"/><line class="cls-2" x1="19.81" y1="29.01" x2="12.97" y2="29.01"/><line class="cls-2" x1="37.68" y1="29.01" x2="28.6" y2="29.01"/><line class="cls-2" x1="46.72" y1="29.01" x2="55.81" y2="29.01"/><line class="cls-2" x1="29.93" y1="32.01" x2="20.85" y2="32.01"/><line class="cls-2" x1="47.93" y1="32.01" x2="38.85" y2="32.01"/><line class="cls-2" x1="19.81" y1="34.88" x2="12.97" y2="34.88"/><line class="cls-2" x1="37.68" y1="34.88" x2="28.6" y2="34.88"/><line class="cls-2" x1="46.6" y1="34.88" x2="55.68" y2="34.88"/><line class="cls-2" x1="45.68" y1="37.88" x2="36.6" y2="37.88"/><line class="cls-2" x1="27.56" y1="37.88" x2="18.47" y2="37.88"/><line class="cls-2" x1="12.97" y1="41.01" x2="18.06" y2="41.01"/><line class="cls-2" x1="36.06" y1="41.01" x2="26.97" y2="41.01"/><line class="cls-2" x1="44.85" y1="41.01" x2="53.93" y2="41.01"/><line class="cls-2" x1="36.72" y1="43.88" x2="45.81" y2="43.88"/><line class="cls-2" x1="18.85" y1="43.88" x2="27.93" y2="43.88"/><line class="cls-2" x1="17.93" y1="47.01" x2="12.97" y2="47.01"/><line class="cls-2" x1="26.72" y1="47.01" x2="35.81" y2="47.01"/><line class="cls-2" x1="44.72" y1="47.01" x2="53.81" y2="47.01"/><line class="cls-2" x1="52.72" y1="50.01" x2="61.81" y2="50.01"/><line class="cls-2" x1="43.81" y1="50.01" x2="34.72" y2="50.01"/><line class="cls-2" x1="25.56" y1="50.01" x2="16.47" y2="50.01"/><line class="cls-2" x1="12.97" y1="53.13" x2="15.93" y2="53.13"/><line class="cls-2" x1="33.81" y1="53.13" x2="24.72" y2="53.13"/><line class="cls-2" x1="42.85" y1="53.13" x2="51.93" y2="53.13"/><line class="cls-3" x1="24.26" y1="29.01" x2="24.26" y2="29.01"/><line class="cls-3" x1="26.54" y1="29.01" x2="26.54" y2="29.01"/><line class="cls-3" x1="21.88" y1="29.01" x2="21.88" y2="29.01"/><line class="cls-3" x1="42.27" y1="29.01" x2="42.27" y2="29.01"/><line class="cls-3" x1="44.55" y1="29.01" x2="44.55" y2="29.01"/><line class="cls-3" x1="39.88" y1="29.01" x2="39.88" y2="29.01"/><line class="cls-3" x1="52.43" y1="32.01" x2="52.43" y2="32.01"/><line class="cls-3" x1="50.05" y1="32.01" x2="50.05" y2="32.01"/><line class="cls-3" x1="34.43" y1="32.01" x2="34.43" y2="32.01"/><line class="cls-3" x1="36.71" y1="32.01" x2="36.71" y2="32.01"/><line class="cls-3" x1="32.05" y1="32.01" x2="32.05" y2="32.01"/><line class="cls-3" x1="16.47" y1="32.01" x2="16.47" y2="32.01"/><line class="cls-3" x1="18.75" y1="32.01" x2="18.75" y2="32.01"/><line class="cls-3" x1="14.09" y1="32.01" x2="14.09" y2="32.01"/><line class="cls-3" x1="32.1" y1="25.88" x2="32.1" y2="25.88"/><line class="cls-3" x1="34.38" y1="25.88" x2="34.38" y2="25.88"/><line class="cls-3" x1="29.71" y1="25.88" x2="29.71" y2="25.88"/><line class="cls-3" x1="14.22" y1="25.88" x2="14.22" y2="25.88"/><line class="cls-3" x1="16.5" y1="25.88" x2="16.5" y2="25.88"/><line class="cls-3" x1="50.35" y1="25.88" x2="50.35" y2="25.88"/><line class="cls-3" x1="52.63" y1="25.88" x2="52.63" y2="25.88"/><line class="cls-3" x1="47.96" y1="25.88" x2="47.96" y2="25.88"/><line class="cls-3" x1="42.13" y1="34.91" x2="42.13" y2="34.91"/><line class="cls-3" x1="44.41" y1="34.91" x2="44.41" y2="34.91"/><line class="cls-3" x1="39.74" y1="34.91" x2="39.74" y2="34.91"/><line class="cls-3" x1="24.25" y1="34.91" x2="24.25" y2="34.91"/><line class="cls-3" x1="26.53" y1="34.91" x2="26.53" y2="34.91"/><line class="cls-3" x1="21.86" y1="34.91" x2="21.86" y2="34.91"/><line class="cls-3" x1="31.97" y1="37.9" x2="31.97" y2="37.9"/><line class="cls-3" x1="34.26" y1="37.9" x2="34.26" y2="37.9"/><line class="cls-3" x1="29.59" y1="37.9" x2="29.59" y2="37.9"/><line class="cls-3" x1="14.1" y1="37.9" x2="14.1" y2="37.9"/><line class="cls-3" x1="16.38" y1="37.9" x2="16.38" y2="37.9"/><line class="cls-3" x1="50.22" y1="37.9" x2="50.22" y2="37.9"/><line class="cls-3" x1="52.51" y1="37.9" x2="52.51" y2="37.9"/><line class="cls-3" x1="47.84" y1="37.9" x2="47.84" y2="37.9"/><line class="cls-3" x1="40.41" y1="41.03" x2="40.41" y2="41.03"/><line class="cls-3" x1="42.69" y1="41.03" x2="42.69" y2="41.03"/><line class="cls-3" x1="38.03" y1="41.03" x2="38.03" y2="41.03"/><line class="cls-3" x1="22.54" y1="41.03" x2="22.54" y2="41.03"/><line class="cls-3" x1="24.82" y1="41.03" x2="24.82" y2="41.03"/><line class="cls-3" x1="20.15" y1="41.03" x2="20.15" y2="41.03"/><line class="cls-3" x1="31.85" y1="43.9" x2="31.85" y2="43.9"/><line class="cls-3" x1="34.13" y1="43.9" x2="34.13" y2="43.9"/><line class="cls-3" x1="29.46" y1="43.9" x2="29.46" y2="43.9"/><line class="cls-3" x1="13.97" y1="43.9" x2="13.97" y2="43.9"/><line class="cls-3" x1="16.25" y1="43.9" x2="16.25" y2="43.9"/><line class="cls-3" x1="50.1" y1="43.9" x2="50.1" y2="43.9"/><line class="cls-3" x1="52.38" y1="43.9" x2="52.38" y2="43.9"/><line class="cls-3" x1="47.71" y1="43.9" x2="47.71" y2="43.9"/><line class="cls-3" x1="40.29" y1="46.96" x2="40.29" y2="46.96"/><line class="cls-3" x1="42.57" y1="46.96" x2="42.57" y2="46.96"/><line class="cls-3" x1="37.9" y1="46.96" x2="37.9" y2="46.96"/><line class="cls-3" x1="22.41" y1="46.96" x2="22.41" y2="46.96"/><line class="cls-3" x1="24.69" y1="46.96" x2="24.69" y2="46.96"/><line class="cls-3" x1="20.02" y1="46.96" x2="20.02" y2="46.96"/><line class="cls-3" x1="30.04" y1="49.96" x2="30.04" y2="49.96"/><line class="cls-3" x1="32.32" y1="49.96" x2="32.32" y2="49.96"/><line class="cls-3" x1="27.65" y1="49.96" x2="27.65" y2="49.96"/><line class="cls-3" x1="14.44" y1="49.96" x2="14.44" y2="49.96"/><line class="cls-3" x1="48.29" y1="49.96" x2="48.29" y2="49.96"/><line class="cls-3" x1="50.57" y1="49.96" x2="50.57" y2="49.96"/><line class="cls-3" x1="45.9" y1="49.96" x2="45.9" y2="49.96"/><line class="cls-3" x1="38.22" y1="53.09" x2="38.22" y2="53.09"/><line class="cls-3" x1="40.51" y1="53.09" x2="40.51" y2="53.09"/><line class="cls-3" x1="35.84" y1="53.09" x2="35.84" y2="53.09"/><line class="cls-3" x1="20.35" y1="53.09" x2="20.35" y2="53.09"/><line class="cls-3" x1="22.63" y1="53.09" x2="22.63" y2="53.09"/><line class="cls-3" x1="17.96" y1="53.09" x2="17.96" y2="53.09"/><line class="cls-3" x1="54.09" y1="53.09" x2="54.09" y2="53.09"/><rect class="cls-1" x="-41.15" y="-29.66" width="54.13" height="54.13"/><line class="cls-2" x1="-3.53" y1="1.88" x2="5.56" y2="1.88"/><line class="cls-2" x1="-1.4" y1="8.01" x2="7.68" y2="8.01"/><line class="cls-2" x1="0.47" y1="13.88" x2="9.56" y2="13.88"/><line class="cls-2" x1="-7.53" y1="17.13" x2="1.56" y2="17.13"/><line class="cls-2" x1="9.56" y1="20.01" x2="0.47" y2="20.01"/><line class="cls-2" x1="6.52" y1="5.01" x2="12.97" y2="5.01"/><line class="cls-2" x1="9.02" y1="11.01" x2="12.97" y2="11.01"/><line class="cls-2" x1="10.39" y1="17.13" x2="12.97" y2="17.13"/><line class="cls-2" x1="9.02" y1="23.13" x2="12.97" y2="23.13"/><line class="cls-3" x1="9.83" y1="1.9" x2="9.83" y2="1.9"/><line class="cls-3" x1="12.11" y1="1.9" x2="12.11" y2="1.9"/><line class="cls-3" x1="7.44" y1="1.9" x2="7.44" y2="1.9"/><line class="cls-3" x1="2.04" y1="5.03" x2="2.04" y2="5.03"/><line class="cls-3" x1="4.32" y1="5.03" x2="4.32" y2="5.03"/><line class="cls-3" x1="-0.35" y1="5.03" x2="-0.35" y2="5.03"/><line class="cls-3" x1="12.01" y1="8.03" x2="12.01" y2="8.03"/><line class="cls-3" x1="9.63" y1="8.03" x2="9.63" y2="8.03"/><line class="cls-3" x1="4.41" y1="11.03" x2="4.41" y2="11.03"/><line class="cls-3" x1="6.69" y1="11.03" x2="6.69" y2="11.03"/><line class="cls-3" x1="2.03" y1="11.03" x2="2.03" y2="11.03"/><line class="cls-3" x1="11.63" y1="13.84" x2="11.63" y2="13.84"/><line class="cls-3" x1="6.1" y1="17.15" x2="6.1" y2="17.15"/><line class="cls-3" x1="8.38" y1="17.15" x2="8.38" y2="17.15"/><line class="cls-3" x1="3.71" y1="17.15" x2="3.71" y2="17.15"/><line class="cls-3" x1="11.69" y1="20.03" x2="11.69" y2="20.03"/><line class="cls-3" x1="4.47" y1="23.15" x2="4.47" y2="23.15"/><line class="cls-3" x1="6.76" y1="23.15" x2="6.76" y2="23.15"/><line class="cls-3" x1="2.09" y1="23.15" x2="2.09" y2="23.15"/><rect class="cls-1" x="-41.15" y="24.46" width="54.13" height="54.13"/><line class="cls-2" x1="9.81" y1="25.82" x2="0.72" y2="25.82"/><line class="cls-2" x1="-7.4" y1="29.01" x2="1.68" y2="29.01"/><line class="cls-2" x1="2.6" y1="32.01" x2="11.68" y2="32.01"/><line class="cls-2" x1="-7.53" y1="34.88" x2="1.56" y2="34.88"/><line class="cls-2" x1="9.56" y1="37.88" x2="0.47" y2="37.88"/><line class="cls-2" x1="0.47" y1="43.88" x2="9.56" y2="43.88"/><line class="cls-2" x1="-1.4" y1="50.01" x2="7.68" y2="50.01"/><line class="cls-2" x1="10.77" y1="29.01" x2="12.97" y2="29.01"/><line class="cls-2" x1="10.77" y1="34.88" x2="12.97" y2="34.88"/><line class="cls-2" x1="9.02" y1="41.01" x2="12.97" y2="41.01"/><line class="cls-2" x1="12.97" y1="47.01" x2="8.89" y2="47.01"/><line class="cls-2" x1="6.89" y1="53.13" x2="12.97" y2="53.13"/><line class="cls-3" x1="6.22" y1="29.01" x2="6.22" y2="29.01"/><line class="cls-3" x1="8.51" y1="29.01" x2="8.51" y2="29.01"/><line class="cls-3" x1="3.84" y1="29.01" x2="3.84" y2="29.01"/><line class="cls-3" x1="0.59" y1="32.01" x2="0.59" y2="32.01"/><line class="cls-3" x1="11.63" y1="25.88" x2="11.63" y2="25.88"/><line class="cls-3" x1="6.25" y1="34.91" x2="6.25" y2="34.91"/><line class="cls-3" x1="8.53" y1="34.91" x2="8.53" y2="34.91"/><line class="cls-3" x1="3.87" y1="34.91" x2="3.87" y2="34.91"/><line class="cls-3" x1="11.5" y1="37.9" x2="11.5" y2="37.9"/><line class="cls-3" x1="4.54" y1="41.03" x2="4.54" y2="41.03"/><line class="cls-3" x1="6.82" y1="41.03" x2="6.82" y2="41.03"/><line class="cls-3" x1="2.15" y1="41.03" x2="2.15" y2="41.03"/><line class="cls-3" x1="11.38" y1="43.9" x2="11.38" y2="43.9"/><line class="cls-3" x1="4.41" y1="46.96" x2="4.41" y2="46.96"/><line class="cls-3" x1="6.69" y1="46.96" x2="6.69" y2="46.96"/><line class="cls-3" x1="2.03" y1="46.96" x2="2.03" y2="46.96"/><line class="cls-3" x1="11.95" y1="49.96" x2="11.95" y2="49.96"/><line class="cls-3" x1="9.57" y1="49.96" x2="9.57" y2="49.96"/><line class="cls-3" x1="2.35" y1="53.09" x2="2.35" y2="53.09"/><line class="cls-3" x1="4.63" y1="53.09" x2="4.63" y2="53.09"/><line class="cls-3" x1="-0.04" y1="53.09" x2="-0.04" y2="53.09"/><rect class="cls-1" width="54.13" height="54.13"/></svg>