<svg id="Layer_1" data-name="Layer 1" xmlns="http://www.w3.org/2000/svg" width="54.13" height="54.13" viewBox="0 0 54.13 54.13"><defs><style>.cls-1,.cls-2,.cls-3{fill:none;}.cls-2,.cls-3{stroke:#000;}.cls-2{stroke-width:0.3px;}.cls-3{stroke-linecap:round;stroke-width:0.7px;}</style></defs><title>618</title><rect class="cls-1" x="8.49" y="-22.3" width="54.13" height="54.13"/><line class="cls-2" x1="13.49" y1="0.24" x2="8.49" y2="0.24"/><line class="cls-2" x1="22.28" y1="0.24" x2="31.36" y2="0.24"/><line class="cls-2" x1="23.41" y1="0.18" x2="24.22" y2="-0.96"/><line class="cls-2" x1="40.28" y1="0.24" x2="49.36" y2="0.24"/><line class="cls-2" x1="42.22" y1="-0.96" x2="41.41" y2="0.18"/><line class="cls-2" x1="48.28" y1="3.24" x2="57.36" y2="3.24"/><line class="cls-2" x1="50.22" y1="2.04" x2="49.41" y2="3.18"/><line class="cls-2" x1="39.36" y1="3.24" x2="30.28" y2="3.24"/><line class="cls-2" x1="32.22" y1="2.04" x2="31.41" y2="3.18"/><line class="cls-2" x1="21.11" y1="3.24" x2="12.03" y2="3.24"/><line class="cls-2" x1="13.16" y1="3.18" x2="13.97" y2="2.04"/><line class="cls-2" x1="8.49" y1="6.36" x2="11.49" y2="6.36"/><line class="cls-2" x1="29.36" y1="6.36" x2="20.28" y2="6.36"/><line class="cls-2" x1="22.22" y1="5.16" x2="21.41" y2="6.3"/><line class="cls-2" x1="38.41" y1="6.36" x2="47.49" y2="6.36"/><line class="cls-2" x1="40.34" y1="5.16" x2="39.53" y2="6.3"/><line class="cls-2" x1="55.24" y1="9.24" x2="46.16" y2="9.24"/><line class="cls-2" x1="48.09" y1="8.04" x2="47.28" y2="9.18"/><line class="cls-2" x1="28.16" y1="9.24" x2="37.24" y2="9.24"/><line class="cls-2" x1="29.28" y1="9.18" x2="30.09" y2="8.04"/><line class="cls-2" x1="19.36" y1="9.24" x2="10.28" y2="9.24"/><line class="cls-2" x1="12.22" y1="8.04" x2="11.41" y2="9.18"/><line class="cls-2" x1="11.11" y1="12.36" x2="8.49" y2="12.36"/><line class="cls-2" x1="29.11" y1="12.36" x2="20.03" y2="12.36"/><line class="cls-2" x1="21.16" y1="12.3" x2="21.97" y2="11.16"/><line class="cls-2" x1="38.03" y1="12.36" x2="47.11" y2="12.36"/><line class="cls-2" x1="39.97" y1="11.16" x2="39.16" y2="12.3"/><line class="cls-2" x1="48.28" y1="15.36" x2="57.36" y2="15.36"/><line class="cls-2" x1="50.22" y1="14.16" x2="49.41" y2="15.3"/><line class="cls-2" x1="30.28" y1="15.36" x2="39.36" y2="15.36"/><line class="cls-2" x1="32.22" y1="14.16" x2="31.41" y2="15.3"/><line class="cls-2" x1="21.36" y1="15.36" x2="12.28" y2="15.36"/><line class="cls-2" x1="13.41" y1="15.3" x2="14.22" y2="14.16"/><line class="cls-2" x1="13.61" y1="18.36" x2="8.49" y2="18.36"/><line class="cls-2" x1="22.41" y1="18.36" x2="31.49" y2="18.36"/><line class="cls-2" x1="23.53" y1="18.3" x2="24.34" y2="17.16"/><line class="cls-2" x1="40.28" y1="18.36" x2="49.36" y2="18.36"/><line class="cls-2" x1="42.22" y1="17.16" x2="41.41" y2="18.3"/><line class="cls-2" x1="50.16" y1="21.24" x2="59.24" y2="21.24"/><line class="cls-2" x1="52.09" y1="20.04" x2="51.28" y2="21.18"/><line class="cls-2" x1="41.49" y1="21.24" x2="32.41" y2="21.24"/><line class="cls-2" x1="33.53" y1="21.18" x2="34.34" y2="20.04"/><line class="cls-2" x1="23.49" y1="21.24" x2="14.41" y2="21.24"/><line class="cls-2" x1="15.53" y1="21.18" x2="16.34" y2="20.04"/><line class="cls-2" x1="14.99" y1="24.49" x2="8.49" y2="24.49"/><line class="cls-2" x1="24.03" y1="24.49" x2="33.11" y2="24.49"/><line class="cls-2" x1="25.97" y1="23.29" x2="25.16" y2="24.43"/><line class="cls-2" x1="42.16" y1="24.49" x2="51.24" y2="24.49"/><line class="cls-2" x1="44.09" y1="23.29" x2="43.28" y2="24.43"/><line class="cls-2" x1="59.24" y1="27.36" x2="50.16" y2="27.36"/><line class="cls-2" x1="52.09" y1="26.16" x2="51.28" y2="27.3"/><line class="cls-2" x1="41.49" y1="27.36" x2="32.41" y2="27.36"/><line class="cls-2" x1="34.34" y1="26.16" x2="33.53" y2="27.3"/><line class="cls-2" x1="23.36" y1="27.36" x2="14.28" y2="27.36"/><line class="cls-2" x1="16.22" y1="26.16" x2="15.41" y2="27.3"/><line class="cls-2" x1="8.49" y1="30.49" x2="13.61" y2="30.49"/><line class="cls-2" x1="31.36" y1="30.49" x2="22.28" y2="30.49"/><line class="cls-2" x1="24.22" y1="29.29" x2="23.41" y2="30.43"/><line class="cls-2" x1="49.24" y1="30.49" x2="40.16" y2="30.49"/><line class="cls-2" x1="41.28" y1="30.43" x2="42.09" y2="29.29"/><line class="cls-3" x1="35.85" y1="0.21" x2="35.85" y2="0.21"/><line class="cls-3" x1="38.13" y1="0.21" x2="38.13" y2="0.21"/><line class="cls-3" x1="33.46" y1="0.21" x2="33.46" y2="0.21"/><line class="cls-3" x1="17.97" y1="0.21" x2="17.97" y2="0.21"/><line class="cls-3" x1="20.25" y1="0.21" x2="20.25" y2="0.21"/><line class="cls-3" x1="15.59" y1="0.21" x2="15.59" y2="0.21"/><line class="cls-3" x1="54.1" y1="0.21" x2="54.1" y2="0.21"/><line class="cls-3" x1="51.71" y1="0.21" x2="51.71" y2="0.21"/><line class="cls-3" x1="25.6" y1="3.21" x2="25.6" y2="3.21"/><line class="cls-3" x1="27.88" y1="3.21" x2="27.88" y2="3.21"/><line class="cls-3" x1="23.21" y1="3.21" x2="23.21" y2="3.21"/><line class="cls-3" x1="10" y1="3.21" x2="10" y2="3.21"/><line class="cls-3" x1="43.85" y1="3.21" x2="43.85" y2="3.21"/><line class="cls-3" x1="46.13" y1="3.21" x2="46.13" y2="3.21"/><line class="cls-3" x1="41.46" y1="3.21" x2="41.46" y2="3.21"/><line class="cls-3" x1="33.79" y1="6.34" x2="33.79" y2="6.34"/><line class="cls-3" x1="36.07" y1="6.34" x2="36.07" y2="6.34"/><line class="cls-3" x1="31.4" y1="6.34" x2="31.4" y2="6.34"/><line class="cls-3" x1="15.91" y1="6.34" x2="15.91" y2="6.34"/><line class="cls-3" x1="18.19" y1="6.34" x2="18.19" y2="6.34"/><line class="cls-3" x1="13.53" y1="6.34" x2="13.53" y2="6.34"/><line class="cls-3" x1="52.04" y1="6.34" x2="52.04" y2="6.34"/><line class="cls-3" x1="54.32" y1="6.34" x2="54.32" y2="6.34"/><line class="cls-3" x1="49.65" y1="6.34" x2="49.65" y2="6.34"/><line class="cls-3" x1="23.48" y1="9.28" x2="23.48" y2="9.28"/><line class="cls-3" x1="25.76" y1="9.28" x2="25.76" y2="9.28"/><line class="cls-3" x1="21.09" y1="9.28" x2="21.09" y2="9.28"/><line class="cls-3" x1="41.73" y1="9.28" x2="41.73" y2="9.28"/><line class="cls-3" x1="44.01" y1="9.28" x2="44.01" y2="9.28"/><line class="cls-3" x1="39.34" y1="9.28" x2="39.34" y2="9.28"/><line class="cls-3" x1="33.48" y1="12.4" x2="33.48" y2="12.4"/><line class="cls-3" x1="35.76" y1="12.4" x2="35.76" y2="12.4"/><line class="cls-3" x1="31.09" y1="12.4" x2="31.09" y2="12.4"/><line class="cls-3" x1="15.6" y1="12.4" x2="15.6" y2="12.4"/><line class="cls-3" x1="17.88" y1="12.4" x2="17.88" y2="12.4"/><line class="cls-3" x1="13.21" y1="12.4" x2="13.21" y2="12.4"/><line class="cls-3" x1="51.73" y1="12.4" x2="51.73" y2="12.4"/><line class="cls-3" x1="54.01" y1="12.4" x2="54.01" y2="12.4"/><line class="cls-3" x1="49.34" y1="12.4" x2="49.34" y2="12.4"/><line class="cls-3" x1="25.66" y1="15.4" x2="25.66" y2="15.4"/><line class="cls-3" x1="27.94" y1="15.4" x2="27.94" y2="15.4"/><line class="cls-3" x1="23.28" y1="15.4" x2="23.28" y2="15.4"/><line class="cls-3" x1="10.07" y1="15.4" x2="10.07" y2="15.4"/><line class="cls-3" x1="43.91" y1="15.4" x2="43.91" y2="15.4"/><line class="cls-3" x1="46.19" y1="15.4" x2="46.19" y2="15.4"/><line class="cls-3" x1="41.53" y1="15.4" x2="41.53" y2="15.4"/><line class="cls-3" x1="35.85" y1="18.4" x2="35.85" y2="18.4"/><line class="cls-3" x1="38.13" y1="18.4" x2="38.13" y2="18.4"/><line class="cls-3" x1="33.46" y1="18.4" x2="33.46" y2="18.4"/><line class="cls-3" x1="17.97" y1="18.4" x2="17.97" y2="18.4"/><line class="cls-3" x1="20.25" y1="18.4" x2="20.25" y2="18.4"/><line class="cls-3" x1="15.59" y1="18.4" x2="15.59" y2="18.4"/><line class="cls-3" x1="54.1" y1="18.4" x2="54.1" y2="18.4"/><line class="cls-3" x1="51.71" y1="18.4" x2="51.71" y2="18.4"/><line class="cls-3" x1="27.66" y1="21.21" x2="27.66" y2="21.21"/><line class="cls-3" x1="29.94" y1="21.21" x2="29.94" y2="21.21"/><line class="cls-3" x1="25.28" y1="21.21" x2="25.28" y2="21.21"/><line class="cls-3" x1="9.79" y1="21.21" x2="9.79" y2="21.21"/><line class="cls-3" x1="12.07" y1="21.21" x2="12.07" y2="21.21"/><line class="cls-3" x1="45.91" y1="21.21" x2="45.91" y2="21.21"/><line class="cls-3" x1="48.19" y1="21.21" x2="48.19" y2="21.21"/><line class="cls-3" x1="43.53" y1="21.21" x2="43.53" y2="21.21"/><line class="cls-3" x1="37.54" y1="24.53" x2="37.54" y2="24.53"/><line class="cls-3" x1="39.82" y1="24.53" x2="39.82" y2="24.53"/><line class="cls-3" x1="35.15" y1="24.53" x2="35.15" y2="24.53"/><line class="cls-3" x1="19.66" y1="24.53" x2="19.66" y2="24.53"/><line class="cls-3" x1="21.94" y1="24.53" x2="21.94" y2="24.53"/><line class="cls-3" x1="17.28" y1="24.53" x2="17.28" y2="24.53"/><line class="cls-3" x1="53.4" y1="24.53" x2="53.4" y2="24.53"/><line class="cls-3" x1="27.73" y1="27.4" x2="27.73" y2="27.4"/><line class="cls-3" x1="30.01" y1="27.4" x2="30.01" y2="27.4"/><line class="cls-3" x1="25.34" y1="27.4" x2="25.34" y2="27.4"/><line class="cls-3" x1="9.85" y1="27.4" x2="9.85" y2="27.4"/><line class="cls-3" x1="12.13" y1="27.4" x2="12.13" y2="27.4"/><line class="cls-3" x1="45.98" y1="27.4" x2="45.98" y2="27.4"/><line class="cls-3" x1="48.26" y1="27.4" x2="48.26" y2="27.4"/><line class="cls-3" x1="43.59" y1="27.4" x2="43.59" y2="27.4"/><line class="cls-3" x1="35.91" y1="30.53" x2="35.91" y2="30.53"/><line class="cls-3" x1="38.19" y1="30.53" x2="38.19" y2="30.53"/><line class="cls-3" x1="33.53" y1="30.53" x2="33.53" y2="30.53"/><line class="cls-3" x1="18.04" y1="30.53" x2="18.04" y2="30.53"/><line class="cls-3" x1="20.32" y1="30.53" x2="20.32" y2="30.53"/><line class="cls-3" x1="15.65" y1="30.53" x2="15.65" y2="30.53"/><line class="cls-3" x1="54.16" y1="30.53" x2="54.16" y2="30.53"/><line class="cls-3" x1="51.78" y1="30.53" x2="51.78" y2="30.53"/><rect class="cls-1" x="8.49" y="31.82" width="54.13" height="54.13"/><line class="cls-2" x1="14.16" y1="33.18" x2="23.24" y2="33.18"/><line class="cls-2" x1="15.28" y1="33.11" x2="16.09" y2="31.98"/><line class="cls-2" x1="32.28" y1="33.18" x2="41.36" y2="33.18"/><line class="cls-2" x1="33.41" y1="33.11" x2="34.22" y2="31.98"/><line class="cls-2" x1="50.41" y1="33.18" x2="59.49" y2="33.18"/><line class="cls-2" x1="51.53" y1="33.11" x2="52.34" y2="31.98"/><line class="cls-2" x1="15.36" y1="36.36" x2="8.49" y2="36.36"/><line class="cls-2" x1="33.24" y1="36.36" x2="24.16" y2="36.36"/><line class="cls-2" x1="25.28" y1="36.3" x2="26.09" y2="35.16"/><line class="cls-2" x1="51.36" y1="36.36" x2="42.28" y2="36.36"/><line class="cls-2" x1="43.41" y1="36.3" x2="44.22" y2="35.16"/><line class="cls-2" x1="25.49" y1="39.36" x2="16.41" y2="39.36"/><line class="cls-2" x1="18.34" y1="38.16" x2="17.53" y2="39.3"/><line class="cls-2" x1="43.49" y1="39.36" x2="34.41" y2="39.36"/><line class="cls-2" x1="36.34" y1="38.16" x2="35.53" y2="39.3"/><line class="cls-2" x1="52.28" y1="39.36" x2="61.36" y2="39.36"/><line class="cls-2" x1="54.22" y1="38.16" x2="53.41" y2="39.3"/><line class="cls-2" x1="15.36" y1="42.24" x2="8.49" y2="42.24"/><line class="cls-2" x1="24.16" y1="42.24" x2="33.24" y2="42.24"/><line class="cls-2" x1="25.28" y1="42.18" x2="26.09" y2="41.04"/><line class="cls-2" x1="42.16" y1="42.24" x2="51.24" y2="42.24"/><line class="cls-2" x1="43.28" y1="42.18" x2="44.09" y2="41.04"/><line class="cls-2" x1="50.16" y1="45.24" x2="59.24" y2="45.24"/><line class="cls-2" x1="51.28" y1="45.18" x2="52.09" y2="44.04"/><line class="cls-2" x1="32.16" y1="45.24" x2="41.24" y2="45.24"/><line class="cls-2" x1="33.28" y1="45.18" x2="34.09" y2="44.04"/><line class="cls-2" x1="23.11" y1="45.24" x2="14.03" y2="45.24"/><line class="cls-2" x1="15.97" y1="44.04" x2="15.16" y2="45.18"/><line class="cls-2" x1="8.49" y1="48.36" x2="13.61" y2="48.36"/><line class="cls-2" x1="31.61" y1="48.36" x2="22.53" y2="48.36"/><line class="cls-2" x1="24.47" y1="47.16" x2="23.66" y2="48.3"/><line class="cls-2" x1="40.41" y1="48.36" x2="49.49" y2="48.36"/><line class="cls-2" x1="42.34" y1="47.16" x2="41.53" y2="48.3"/><line class="cls-2" x1="50.16" y1="51.24" x2="59.24" y2="51.24"/><line class="cls-2" x1="51.28" y1="51.18" x2="52.09" y2="50.04"/><line class="cls-2" x1="41.36" y1="51.24" x2="32.28" y2="51.24"/><line class="cls-2" x1="33.41" y1="51.18" x2="34.22" y2="50.04"/><line class="cls-2" x1="14.41" y1="51.24" x2="23.49" y2="51.24"/><line class="cls-2" x1="15.53" y1="51.18" x2="16.34" y2="50.04"/><line class="cls-2" x1="23.41" y1="54.3" x2="24.22" y2="53.16"/><line class="cls-2" x1="42.22" y1="53.16" x2="41.41" y2="54.3"/><line class="cls-3" x1="19.83" y1="36.38" x2="19.83" y2="36.38"/><line class="cls-3" x1="22.11" y1="36.38" x2="22.11" y2="36.38"/><line class="cls-3" x1="17.44" y1="36.38" x2="17.44" y2="36.38"/><line class="cls-3" x1="37.83" y1="36.38" x2="37.83" y2="36.38"/><line class="cls-3" x1="40.11" y1="36.38" x2="40.11" y2="36.38"/><line class="cls-3" x1="35.44" y1="36.38" x2="35.44" y2="36.38"/><line class="cls-3" x1="53.53" y1="36.38" x2="53.53" y2="36.38"/><line class="cls-3" x1="48" y1="39.38" x2="48" y2="39.38"/><line class="cls-3" x1="50.28" y1="39.38" x2="50.28" y2="39.38"/><line class="cls-3" x1="45.61" y1="39.38" x2="45.61" y2="39.38"/><line class="cls-3" x1="30" y1="39.38" x2="30" y2="39.38"/><line class="cls-3" x1="32.28" y1="39.38" x2="32.28" y2="39.38"/><line class="cls-3" x1="27.61" y1="39.38" x2="27.61" y2="39.38"/><line class="cls-3" x1="12.04" y1="39.38" x2="12.04" y2="39.38"/><line class="cls-3" x1="14.32" y1="39.38" x2="14.32" y2="39.38"/><line class="cls-3" x1="9.65" y1="39.38" x2="9.65" y2="39.38"/><line class="cls-3" x1="27.66" y1="33.26" x2="27.66" y2="33.26"/><line class="cls-3" x1="29.94" y1="33.26" x2="29.94" y2="33.26"/><line class="cls-3" x1="25.28" y1="33.26" x2="25.28" y2="33.26"/><line class="cls-3" x1="9.79" y1="33.26" x2="9.79" y2="33.26"/><line class="cls-3" x1="12.07" y1="33.26" x2="12.07" y2="33.26"/><line class="cls-3" x1="45.91" y1="33.26" x2="45.91" y2="33.26"/><line class="cls-3" x1="48.19" y1="33.26" x2="48.19" y2="33.26"/><line class="cls-3" x1="43.53" y1="33.26" x2="43.53" y2="33.26"/><line class="cls-3" x1="37.69" y1="42.28" x2="37.69" y2="42.28"/><line class="cls-3" x1="39.97" y1="42.28" x2="39.97" y2="42.28"/><line class="cls-3" x1="35.3" y1="42.28" x2="35.3" y2="42.28"/><line class="cls-3" x1="19.81" y1="42.28" x2="19.81" y2="42.28"/><line class="cls-3" x1="22.09" y1="42.28" x2="22.09" y2="42.28"/><line class="cls-3" x1="17.43" y1="42.28" x2="17.43" y2="42.28"/><line class="cls-3" x1="53.55" y1="42.28" x2="53.55" y2="42.28"/><line class="cls-3" x1="27.54" y1="45.28" x2="27.54" y2="45.28"/><line class="cls-3" x1="29.82" y1="45.28" x2="29.82" y2="45.28"/><line class="cls-3" x1="25.15" y1="45.28" x2="25.15" y2="45.28"/><line class="cls-3" x1="9.66" y1="45.28" x2="9.66" y2="45.28"/><line class="cls-3" x1="11.94" y1="45.28" x2="11.94" y2="45.28"/><line class="cls-3" x1="45.79" y1="45.28" x2="45.79" y2="45.28"/><line class="cls-3" x1="48.07" y1="45.28" x2="48.07" y2="45.28"/><line class="cls-3" x1="43.4" y1="45.28" x2="43.4" y2="45.28"/><line class="cls-3" x1="35.98" y1="48.4" x2="35.98" y2="48.4"/><line class="cls-3" x1="38.26" y1="48.4" x2="38.26" y2="48.4"/><line class="cls-3" x1="33.59" y1="48.4" x2="33.59" y2="48.4"/><line class="cls-3" x1="18.1" y1="48.4" x2="18.1" y2="48.4"/><line class="cls-3" x1="20.38" y1="48.4" x2="20.38" y2="48.4"/><line class="cls-3" x1="15.71" y1="48.4" x2="15.71" y2="48.4"/><line class="cls-3" x1="54.23" y1="48.4" x2="54.23" y2="48.4"/><line class="cls-3" x1="51.84" y1="48.4" x2="51.84" y2="48.4"/><line class="cls-3" x1="27.41" y1="51.28" x2="27.41" y2="51.28"/><line class="cls-3" x1="29.69" y1="51.28" x2="29.69" y2="51.28"/><line class="cls-3" x1="25.03" y1="51.28" x2="25.03" y2="51.28"/><line class="cls-3" x1="9.54" y1="51.28" x2="9.54" y2="51.28"/><line class="cls-3" x1="11.82" y1="51.28" x2="11.82" y2="51.28"/><line class="cls-3" x1="45.66" y1="51.28" x2="45.66" y2="51.28"/><line class="cls-3" x1="47.94" y1="51.28" x2="47.94" y2="51.28"/><line class="cls-3" x1="43.28" y1="51.28" x2="43.28" y2="51.28"/><line class="cls-3" x1="35.85" y1="54.34" x2="35.85" y2="54.34"/><line class="cls-3" x1="38.13" y1="54.34" x2="38.13" y2="54.34"/><line class="cls-3" x1="33.46" y1="54.34" x2="33.46" y2="54.34"/><line class="cls-3" x1="17.97" y1="54.34" x2="17.97" y2="54.34"/><line class="cls-3" x1="20.25" y1="54.34" x2="20.25" y2="54.34"/><line class="cls-3" x1="15.59" y1="54.34" x2="15.59" y2="54.34"/><line class="cls-3" x1="54.1" y1="54.34" x2="54.1" y2="54.34"/><line class="cls-3" x1="51.71" y1="54.34" x2="51.71" y2="54.34"/><rect class="cls-1" x="-45.64" y="-22.3" width="54.13" height="54.13"/><line class="cls-2" x1="-5.84" y1="3.24" x2="3.24" y2="3.24"/><line class="cls-2" x1="1.11" y1="9.24" x2="-7.97" y2="9.24"/><line class="cls-2" x1="-5.84" y1="15.36" x2="3.24" y2="15.36"/><line class="cls-2" x1="-3.97" y1="21.24" x2="5.11" y2="21.24"/><line class="cls-2" x1="5.11" y1="27.36" x2="-3.97" y2="27.36"/><line class="cls-2" x1="8.49" y1="0.24" x2="4.45" y2="0.24"/><line class="cls-2" x1="5.57" y1="0.18" x2="6.38" y2="-0.96"/><line class="cls-2" x1="8.49" y1="6.36" x2="2.45" y2="6.36"/><line class="cls-2" x1="4.38" y1="5.16" x2="3.57" y2="6.3"/><line class="cls-2" x1="8.49" y1="12.36" x2="2.07" y2="12.36"/><line class="cls-2" x1="4.01" y1="11.16" x2="3.2" y2="12.3"/><line class="cls-2" x1="4.57" y1="18.36" x2="8.49" y2="18.36"/><line class="cls-2" x1="6.51" y1="17.16" x2="5.7" y2="18.3"/><line class="cls-2" x1="8.49" y1="24.49" x2="5.95" y2="24.49"/><line class="cls-2" x1="7.88" y1="23.29" x2="7.07" y2="24.43"/><line class="cls-2" x1="4.57" y1="30.49" x2="8.49" y2="30.49"/><line class="cls-2" x1="5.7" y1="30.43" x2="6.51" y2="29.29"/><line class="cls-3" x1="-0.02" y1="0.21" x2="-0.02" y2="0.21"/><line class="cls-3" x1="2.26" y1="0.21" x2="2.26" y2="0.21"/><line class="cls-3" x1="7.52" y1="3.21" x2="7.52" y2="3.21"/><line class="cls-3" x1="5.13" y1="3.21" x2="5.13" y2="3.21"/><line class="cls-3" x1="0.19" y1="6.34" x2="0.19" y2="6.34"/><line class="cls-3" x1="5.39" y1="9.28" x2="5.39" y2="9.28"/><line class="cls-3" x1="7.67" y1="9.28" x2="7.67" y2="9.28"/><line class="cls-3" x1="3" y1="9.28" x2="3" y2="9.28"/><line class="cls-3" x1="-0.12" y1="12.4" x2="-0.12" y2="12.4"/><line class="cls-3" x1="7.58" y1="15.4" x2="7.58" y2="15.4"/><line class="cls-3" x1="5.19" y1="15.4" x2="5.19" y2="15.4"/><line class="cls-3" x1="-0.02" y1="18.4" x2="-0.02" y2="18.4"/><line class="cls-3" x1="2.26" y1="18.4" x2="2.26" y2="18.4"/><line class="cls-3" x1="7.19" y1="21.21" x2="7.19" y2="21.21"/><line class="cls-3" x1="1.66" y1="24.53" x2="1.66" y2="24.53"/><line class="cls-3" x1="3.94" y1="24.53" x2="3.94" y2="24.53"/><line class="cls-3" x1="7.25" y1="27.4" x2="7.25" y2="27.4"/><line class="cls-3" x1="0.04" y1="30.53" x2="0.04" y2="30.53"/><line class="cls-3" x1="2.32" y1="30.53" x2="2.32" y2="30.53"/><rect class="cls-1" x="-45.64" y="31.82" width="54.13" height="54.13"/><line class="cls-2" x1="-3.72" y1="33.18" x2="5.36" y2="33.18"/><line class="cls-2" x1="-1.84" y1="39.36" x2="7.24" y2="39.36"/><line class="cls-2" x1="0.09" y1="38.16" x2="-0.72" y2="39.3"/><line class="cls-2" x1="-3.97" y1="45.24" x2="5.11" y2="45.24"/><line class="cls-2" x1="-3.97" y1="51.24" x2="5.11" y2="51.24"/><line class="cls-2" x1="6.32" y1="36.36" x2="8.49" y2="36.36"/><line class="cls-2" x1="7.45" y1="36.3" x2="8.26" y2="35.16"/><line class="cls-2" x1="8.49" y1="42.24" x2="6.32" y2="42.24"/><line class="cls-2" x1="8.26" y1="41.04" x2="7.45" y2="42.18"/><line class="cls-2" x1="4.57" y1="48.36" x2="8.49" y2="48.36"/><line class="cls-2" x1="5.7" y1="48.3" x2="6.51" y2="47.16"/><line class="cls-2" x1="5.57" y1="54.3" x2="6.38" y2="53.16"/><line class="cls-3" x1="1.79" y1="36.38" x2="1.79" y2="36.38"/><line class="cls-3" x1="4.07" y1="36.38" x2="4.07" y2="36.38"/><line class="cls-3" x1="7.19" y1="33.26" x2="7.19" y2="33.26"/><line class="cls-3" x1="1.82" y1="42.28" x2="1.82" y2="42.28"/><line class="cls-3" x1="4.1" y1="42.28" x2="4.1" y2="42.28"/><line class="cls-3" x1="7.07" y1="45.28" x2="7.07" y2="45.28"/><line class="cls-3" x1="0.1" y1="48.4" x2="0.1" y2="48.4"/><line class="cls-3" x1="2.38" y1="48.4" x2="2.38" y2="48.4"/><line class="cls-3" x1="6.94" y1="51.28" x2="6.94" y2="51.28"/><line class="cls-3" x1="-0.02" y1="54.34" x2="-0.02" y2="54.34"/><line class="cls-3" x1="2.26" y1="54.34" x2="2.26" y2="54.34"/><rect class="cls-1" width="54.12" height="54.13"/></svg>