<svg id="Layer_1" data-name="Layer 1" xmlns="http://www.w3.org/2000/svg" width="53.75" height="53.58" viewBox="0 0 53.75 53.58"><defs><style>.cls-1,.cls-2,.cls-3{fill:none;}.cls-1,.cls-2{stroke:#000;}.cls-1{stroke-width:0.3px;}.cls-2{stroke-linecap:round;stroke-width:0.7px;}</style></defs><title>619</title><line class="cls-1" x1="28.33" y1="0.37" x2="22.59" y2="0.37"/><line class="cls-1" x1="37.25" y1="0.37" x2="31.51" y2="0.37"/><line class="cls-1" x1="46.17" y1="0.37" x2="40.42" y2="0.37"/><line class="cls-1" x1="55.08" y1="0.37" x2="49.34" y2="0.37"/><line class="cls-1" x1="19.73" y1="3.34" x2="24.8" y2="3.34"/><line class="cls-1" x1="28" y1="3.34" x2="33.75" y2="3.34"/><line class="cls-1" x1="36.92" y1="3.34" x2="42.66" y2="3.34"/><line class="cls-1" x1="45.84" y1="3.34" x2="51.58" y2="3.34"/><line class="cls-1" x1="28.65" y1="6.31" x2="22.91" y2="6.31"/><line class="cls-1" x1="37.57" y1="6.31" x2="31.82" y2="6.31"/><line class="cls-1" x1="46.49" y1="6.31" x2="40.74" y2="6.31"/><line class="cls-1" x1="55.4" y1="6.31" x2="49.66" y2="6.31"/><line class="cls-2" x1="20.95" y1="0.41" x2="20.95" y2="0.41"/><line class="cls-2" x1="29.93" y1="0.41" x2="29.93" y2="0.41"/><line class="cls-2" x1="38.85" y1="0.41" x2="38.85" y2="0.41"/><line class="cls-2" x1="47.79" y1="0.41" x2="47.79" y2="0.41"/><line class="cls-2" x1="26.37" y1="3.38" x2="26.37" y2="3.38"/><line class="cls-2" x1="35.35" y1="3.38" x2="35.35" y2="3.38"/><line class="cls-2" x1="44.26" y1="3.38" x2="44.26" y2="3.38"/><line class="cls-2" x1="53.21" y1="3.38" x2="53.21" y2="3.38"/><line class="cls-2" x1="21.2" y1="6.38" x2="21.2" y2="6.38"/><line class="cls-2" x1="30.18" y1="6.38" x2="30.18" y2="6.38"/><line class="cls-2" x1="39.1" y1="6.38" x2="39.1" y2="6.38"/><line class="cls-2" x1="48.04" y1="6.38" x2="48.04" y2="6.38"/><rect class="cls-3" x="19.73" y="-46.34" width="53.58" height="53.58"/><line class="cls-1" x1="23.84" y1="9.08" x2="19.73" y2="9.08"/><line class="cls-1" x1="27.05" y1="9.08" x2="32.79" y2="9.08"/><line class="cls-1" x1="35.96" y1="9.08" x2="41.71" y2="9.08"/><line class="cls-1" x1="44.88" y1="9.08" x2="50.63" y2="9.08"/><line class="cls-1" x1="28.18" y1="12.21" x2="22.43" y2="12.21"/><line class="cls-1" x1="37.09" y1="12.21" x2="31.35" y2="12.21"/><line class="cls-1" x1="46.01" y1="12.21" x2="40.26" y2="12.21"/><line class="cls-1" x1="54.92" y1="12.21" x2="49.18" y2="12.21"/><line class="cls-1" x1="22.09" y1="15.18" x2="19.73" y2="15.18"/><line class="cls-1" x1="31.04" y1="15.18" x2="25.3" y2="15.18"/><line class="cls-1" x1="34.21" y1="15.18" x2="39.96" y2="15.18"/><line class="cls-1" x1="43.13" y1="15.18" x2="48.87" y2="15.18"/><line class="cls-1" x1="52.05" y1="15.18" x2="57.79" y2="15.18"/><line class="cls-1" x1="27.38" y1="17.99" x2="21.63" y2="17.99"/><line class="cls-1" x1="36.3" y1="17.99" x2="30.55" y2="17.99"/><line class="cls-1" x1="45.21" y1="17.99" x2="39.47" y2="17.99"/><line class="cls-1" x1="54.13" y1="17.99" x2="48.38" y2="17.99"/><line class="cls-1" x1="21.77" y1="20.96" x2="19.73" y2="20.96"/><line class="cls-1" x1="24.98" y1="20.96" x2="30.72" y2="20.96"/><line class="cls-1" x1="39.64" y1="20.96" x2="33.89" y2="20.96"/><line class="cls-1" x1="42.81" y1="20.96" x2="48.56" y2="20.96"/><line class="cls-1" x1="51.73" y1="20.96" x2="57.47" y2="20.96"/><line class="cls-1" x1="19.73" y1="23.96" x2="19.56" y2="23.96"/><line class="cls-1" x1="25.31" y1="23.96" x2="19.73" y2="23.96"/><line class="cls-1" x1="34.23" y1="23.96" x2="28.48" y2="23.96"/><line class="cls-1" x1="43.14" y1="23.96" x2="37.4" y2="23.96"/><line class="cls-1" x1="46.31" y1="23.96" x2="52.06" y2="23.96"/><line class="cls-1" x1="22.25" y1="26.84" x2="19.73" y2="26.84"/><line class="cls-1" x1="31.2" y1="26.84" x2="25.45" y2="26.84"/><line class="cls-1" x1="40.12" y1="26.84" x2="34.37" y2="26.84"/><line class="cls-1" x1="43.29" y1="26.84" x2="49.03" y2="26.84"/><line class="cls-1" x1="52.2" y1="26.84" x2="57.95" y2="26.84"/><line class="cls-1" x1="26.74" y1="30.04" x2="21" y2="30.04"/><line class="cls-1" x1="35.66" y1="30.04" x2="29.91" y2="30.04"/><line class="cls-1" x1="44.57" y1="30.04" x2="38.83" y2="30.04"/><line class="cls-1" x1="47.75" y1="30.04" x2="53.49" y2="30.04"/><line class="cls-1" x1="23.53" y1="33.01" x2="19.73" y2="33.01"/><line class="cls-1" x1="32.47" y1="33.01" x2="26.73" y2="33.01"/><line class="cls-1" x1="35.65" y1="33.01" x2="41.39" y2="33.01"/><line class="cls-1" x1="44.56" y1="33.01" x2="50.31" y2="33.01"/><line class="cls-1" x1="59.22" y1="33.01" x2="53.48" y2="33.01"/><line class="cls-1" x1="22.27" y1="36.15" x2="28.02" y2="36.15"/><line class="cls-1" x1="36.93" y1="36.15" x2="31.19" y2="36.15"/><line class="cls-1" x1="45.85" y1="36.15" x2="40.1" y2="36.15"/><line class="cls-1" x1="49.02" y1="36.15" x2="54.77" y2="36.15"/><line class="cls-1" x1="23.05" y1="38.95" x2="19.73" y2="38.95"/><line class="cls-1" x1="32" y1="38.95" x2="26.25" y2="38.95"/><line class="cls-1" x1="40.91" y1="38.95" x2="35.17" y2="38.95"/><line class="cls-1" x1="44.08" y1="38.95" x2="49.83" y2="38.95"/><line class="cls-1" x1="53" y1="38.95" x2="58.75" y2="38.95"/><line class="cls-1" x1="26.9" y1="42.08" x2="21.16" y2="42.08"/><line class="cls-1" x1="35.82" y1="42.08" x2="30.07" y2="42.08"/><line class="cls-1" x1="44.73" y1="42.08" x2="38.99" y2="42.08"/><line class="cls-1" x1="47.91" y1="42.08" x2="53.65" y2="42.08"/><line class="cls-1" x1="22.25" y1="45.05" x2="19.73" y2="45.05"/><line class="cls-1" x1="25.45" y1="45.05" x2="31.2" y2="45.05"/><line class="cls-1" x1="34.37" y1="45.05" x2="40.12" y2="45.05"/><line class="cls-1" x1="43.29" y1="45.05" x2="49.03" y2="45.05"/><line class="cls-1" x1="52.2" y1="45.05" x2="57.95" y2="45.05"/><line class="cls-1" x1="26.11" y1="48.02" x2="20.36" y2="48.02"/><line class="cls-1" x1="35.02" y1="48.02" x2="29.28" y2="48.02"/><line class="cls-1" x1="43.94" y1="48.02" x2="38.19" y2="48.02"/><line class="cls-1" x1="52.86" y1="48.02" x2="47.11" y2="48.02"/><line class="cls-1" x1="23.21" y1="50.82" x2="19.73" y2="50.82"/><line class="cls-1" x1="32.16" y1="50.82" x2="26.41" y2="50.82"/><line class="cls-1" x1="35.33" y1="50.82" x2="41.07" y2="50.82"/><line class="cls-1" x1="44.24" y1="50.82" x2="49.99" y2="50.82"/><line class="cls-1" x1="53.16" y1="50.82" x2="58.91" y2="50.82"/><line class="cls-2" x1="25.48" y1="9.14" x2="25.48" y2="9.14"/><line class="cls-2" x1="34.46" y1="9.14" x2="34.46" y2="9.14"/><line class="cls-2" x1="43.38" y1="9.14" x2="43.38" y2="9.14"/><line class="cls-2" x1="52.32" y1="9.14" x2="52.32" y2="9.14"/><line class="cls-2" x1="20.79" y1="12.22" x2="20.79" y2="12.22"/><line class="cls-2" x1="29.76" y1="12.22" x2="29.76" y2="12.22"/><line class="cls-2" x1="38.68" y1="12.22" x2="38.68" y2="12.22"/><line class="cls-2" x1="47.62" y1="12.22" x2="47.62" y2="12.22"/><line class="cls-2" x1="23.76" y1="15.22" x2="23.76" y2="15.22"/><line class="cls-2" x1="32.74" y1="15.22" x2="32.74" y2="15.22"/><line class="cls-2" x1="41.65" y1="15.22" x2="41.65" y2="15.22"/><line class="cls-2" x1="50.6" y1="15.22" x2="50.6" y2="15.22"/><line class="cls-2" x1="20.12" y1="18.05" x2="20.12" y2="18.05"/><line class="cls-2" x1="29.1" y1="18.05" x2="29.1" y2="18.05"/><line class="cls-2" x1="38.01" y1="18.05" x2="38.01" y2="18.05"/><line class="cls-2" x1="46.96" y1="18.05" x2="46.96" y2="18.05"/><line class="cls-2" x1="23.34" y1="20.97" x2="23.34" y2="20.97"/><line class="cls-2" x1="32.32" y1="20.97" x2="32.32" y2="20.97"/><line class="cls-2" x1="41.24" y1="20.97" x2="41.24" y2="20.97"/><line class="cls-2" x1="50.18" y1="20.97" x2="50.18" y2="20.97"/><line class="cls-2" x1="26.9" y1="23.97" x2="26.9" y2="23.97"/><line class="cls-2" x1="35.87" y1="23.97" x2="35.87" y2="23.97"/><line class="cls-2" x1="44.79" y1="23.97" x2="44.79" y2="23.97"/><line class="cls-2" x1="53.73" y1="23.97" x2="53.73" y2="23.97"/><line class="cls-2" x1="23.79" y1="26.8" x2="23.79" y2="26.8"/><line class="cls-2" x1="32.76" y1="26.8" x2="32.76" y2="26.8"/><line class="cls-2" x1="41.68" y1="26.8" x2="41.68" y2="26.8"/><line class="cls-2" x1="50.62" y1="26.8" x2="50.62" y2="26.8"/><line class="cls-2" x1="28.37" y1="29.97" x2="28.37" y2="29.97"/><line class="cls-2" x1="37.35" y1="29.97" x2="37.35" y2="29.97"/><line class="cls-2" x1="46.27" y1="29.97" x2="46.27" y2="29.97"/><line class="cls-2" x1="25.07" y1="33.05" x2="25.07" y2="33.05"/><line class="cls-2" x1="34.04" y1="33.05" x2="34.04" y2="33.05"/><line class="cls-2" x1="42.96" y1="33.05" x2="42.96" y2="33.05"/><line class="cls-2" x1="51.9" y1="33.05" x2="51.9" y2="33.05"/><line class="cls-2" x1="29.48" y1="36.19" x2="29.48" y2="36.19"/><line class="cls-2" x1="20.73" y1="36.19" x2="20.73" y2="36.19"/><line class="cls-2" x1="38.46" y1="36.19" x2="38.46" y2="36.19"/><line class="cls-2" x1="47.38" y1="36.19" x2="47.38" y2="36.19"/><line class="cls-2" x1="24.68" y1="38.94" x2="24.68" y2="38.94"/><line class="cls-2" x1="33.66" y1="38.94" x2="33.66" y2="38.94"/><line class="cls-2" x1="42.58" y1="38.94" x2="42.58" y2="38.94"/><line class="cls-2" x1="51.52" y1="38.94" x2="51.52" y2="38.94"/><line class="cls-2" x1="28.29" y1="42.14" x2="28.29" y2="42.14"/><line class="cls-2" x1="37.26" y1="42.14" x2="37.26" y2="42.14"/><line class="cls-2" x1="46.18" y1="42.14" x2="46.18" y2="42.14"/><line class="cls-2" x1="23.87" y1="45.14" x2="23.87" y2="45.14"/><line class="cls-2" x1="32.85" y1="45.14" x2="32.85" y2="45.14"/><line class="cls-2" x1="41.76" y1="45.14" x2="41.76" y2="45.14"/><line class="cls-2" x1="50.71" y1="45.14" x2="50.71" y2="45.14"/><line class="cls-2" x1="27.62" y1="48.05" x2="27.62" y2="48.05"/><line class="cls-2" x1="36.6" y1="48.05" x2="36.6" y2="48.05"/><line class="cls-2" x1="45.51" y1="48.05" x2="45.51" y2="48.05"/><line class="cls-2" x1="24.79" y1="50.89" x2="24.79" y2="50.89"/><line class="cls-2" x1="33.76" y1="50.89" x2="33.76" y2="50.89"/><line class="cls-2" x1="42.68" y1="50.89" x2="42.68" y2="50.89"/><line class="cls-2" x1="51.62" y1="50.89" x2="51.62" y2="50.89"/><rect class="cls-3" x="19.73" y="7.25" width="53.58" height="53.58"/><line class="cls-1" x1="1.5" y1="0.37" x2="-4.25" y2="0.37"/><line class="cls-1" x1="4.67" y1="0.37" x2="10.42" y2="0.37"/><line class="cls-1" x1="13.59" y1="0.37" x2="19.33" y2="0.37"/><line class="cls-1" x1="1.17" y1="3.34" x2="6.91" y2="3.34"/><line class="cls-1" x1="10.09" y1="3.34" x2="15.83" y2="3.34"/><line class="cls-1" x1="19" y1="3.34" x2="19.73" y2="3.34"/><line class="cls-1" x1="1.82" y1="6.31" x2="-3.93" y2="6.31"/><line class="cls-1" x1="10.74" y1="6.31" x2="4.99" y2="6.31"/><line class="cls-1" x1="19.65" y1="6.31" x2="13.91" y2="6.31"/><line class="cls-2" x1="3.09" y1="0.41" x2="3.09" y2="0.41"/><line class="cls-2" x1="12.04" y1="0.41" x2="12.04" y2="0.41"/><line class="cls-2" x1="8.51" y1="3.38" x2="8.51" y2="3.38"/><line class="cls-2" x1="17.46" y1="3.38" x2="17.46" y2="3.38"/><line class="cls-2" x1="3.34" y1="6.38" x2="3.34" y2="6.38"/><line class="cls-2" x1="12.29" y1="6.38" x2="12.29" y2="6.38"/><rect class="cls-3" x="-33.86" y="-46.34" width="53.58" height="53.58"/><line class="cls-1" x1="0.21" y1="9.08" x2="5.96" y2="9.08"/><line class="cls-1" x1="9.13" y1="9.08" x2="14.87" y2="9.08"/><line class="cls-1" x1="18.05" y1="9.08" x2="19.73" y2="9.08"/><line class="cls-1" x1="1.34" y1="12.21" x2="-4.4" y2="12.21"/><line class="cls-1" x1="10.26" y1="12.21" x2="4.51" y2="12.21"/><line class="cls-1" x1="13.43" y1="12.21" x2="19.17" y2="12.21"/><line class="cls-1" x1="-1.54" y1="15.18" x2="4.21" y2="15.18"/><line class="cls-1" x1="7.38" y1="15.18" x2="13.12" y2="15.18"/><line class="cls-1" x1="16.29" y1="15.18" x2="19.73" y2="15.18"/><line class="cls-1" x1="0.54" y1="17.99" x2="-5.2" y2="17.99"/><line class="cls-1" x1="9.46" y1="17.99" x2="3.72" y2="17.99"/><line class="cls-1" x1="18.38" y1="17.99" x2="12.63" y2="17.99"/><line class="cls-1" x1="-1.86" y1="20.96" x2="3.89" y2="20.96"/><line class="cls-1" x1="7.06" y1="20.96" x2="12.81" y2="20.96"/><line class="cls-1" x1="15.98" y1="20.96" x2="19.73" y2="20.96"/><line class="cls-1" x1="1.65" y1="23.96" x2="7.39" y2="23.96"/><line class="cls-1" x1="10.56" y1="23.96" x2="16.31" y2="23.96"/><line class="cls-1" x1="19.48" y1="23.96" x2="19.73" y2="23.96"/><line class="cls-1" x1="-1.38" y1="26.84" x2="4.37" y2="26.84"/><line class="cls-1" x1="7.54" y1="26.84" x2="13.28" y2="26.84"/><line class="cls-1" x1="16.45" y1="26.84" x2="19.73" y2="26.84"/><line class="cls-1" x1="3.08" y1="30.04" x2="8.82" y2="30.04"/><line class="cls-1" x1="12" y1="30.04" x2="17.74" y2="30.04"/><line class="cls-1" x1="5.64" y1="33.01" x2="-0.1" y2="33.01"/><line class="cls-1" x1="14.56" y1="33.01" x2="8.81" y2="33.01"/><line class="cls-1" x1="17.73" y1="33.01" x2="19.73" y2="33.01"/><line class="cls-1" x1="-4.56" y1="36.15" x2="1.18" y2="36.15"/><line class="cls-1" x1="4.35" y1="36.15" x2="10.1" y2="36.15"/><line class="cls-1" x1="13.27" y1="36.15" x2="19.02" y2="36.15"/><line class="cls-1" x1="-0.58" y1="38.95" x2="5.16" y2="38.95"/><line class="cls-1" x1="8.33" y1="38.95" x2="14.08" y2="38.95"/><line class="cls-1" x1="17.25" y1="38.95" x2="19.73" y2="38.95"/><line class="cls-1" x1="-5.68" y1="42.08" x2="0.07" y2="42.08"/><line class="cls-1" x1="8.98" y1="42.08" x2="3.24" y2="42.08"/><line class="cls-1" x1="12.15" y1="42.08" x2="17.9" y2="42.08"/><line class="cls-1" x1="-1.38" y1="45.05" x2="4.37" y2="45.05"/><line class="cls-1" x1="7.54" y1="45.05" x2="13.28" y2="45.05"/><line class="cls-1" x1="16.45" y1="45.05" x2="19.73" y2="45.05"/><line class="cls-1" x1="2.44" y1="48.02" x2="8.19" y2="48.02"/><line class="cls-1" x1="17.1" y1="48.02" x2="11.36" y2="48.02"/><line class="cls-1" x1="-0.42" y1="50.82" x2="5.32" y2="50.82"/><line class="cls-1" x1="8.49" y1="50.82" x2="14.24" y2="50.82"/><line class="cls-1" x1="17.41" y1="50.82" x2="19.73" y2="50.82"/><line class="cls-2" x1="7.62" y1="9.14" x2="7.62" y2="9.14"/><line class="cls-2" x1="16.57" y1="9.14" x2="16.57" y2="9.14"/><line class="cls-2" x1="2.93" y1="12.22" x2="2.93" y2="12.22"/><line class="cls-2" x1="11.87" y1="12.22" x2="11.87" y2="12.22"/><line class="cls-2" x1="5.9" y1="15.22" x2="5.9" y2="15.22"/><line class="cls-2" x1="14.85" y1="15.22" x2="14.85" y2="15.22"/><line class="cls-2" x1="2.26" y1="18.05" x2="2.26" y2="18.05"/><line class="cls-2" x1="11.21" y1="18.05" x2="11.21" y2="18.05"/><line class="cls-2" x1="5.48" y1="20.97" x2="5.48" y2="20.97"/><line class="cls-2" x1="14.43" y1="20.97" x2="14.43" y2="20.97"/><line class="cls-2" x1="0.15" y1="23.97" x2="0.15" y2="23.97"/><line class="cls-2" x1="9.03" y1="23.97" x2="9.03" y2="23.97"/><line class="cls-2" x1="17.98" y1="23.97" x2="17.98" y2="23.97"/><line class="cls-2" x1="5.93" y1="26.8" x2="5.93" y2="26.8"/><line class="cls-2" x1="14.87" y1="26.8" x2="14.87" y2="26.8"/><line class="cls-2" x1="1.63" y1="29.97" x2="1.63" y2="29.97"/><line class="cls-2" x1="10.51" y1="29.97" x2="10.51" y2="29.97"/><line class="cls-2" x1="19.46" y1="29.97" x2="19.46" y2="29.97"/><line class="cls-2" x1="7.21" y1="33.05" x2="7.21" y2="33.05"/><line class="cls-2" x1="16.15" y1="33.05" x2="16.15" y2="33.05"/><line class="cls-2" x1="2.74" y1="36.19" x2="2.74" y2="36.19"/><line class="cls-2" x1="11.62" y1="36.19" x2="11.62" y2="36.19"/><line class="cls-2" x1="6.82" y1="38.94" x2="6.82" y2="38.94"/><line class="cls-2" x1="15.77" y1="38.94" x2="15.77" y2="38.94"/><line class="cls-2" x1="1.54" y1="42.14" x2="1.54" y2="42.14"/><line class="cls-2" x1="10.43" y1="42.14" x2="10.43" y2="42.14"/><line class="cls-2" x1="19.37" y1="42.14" x2="19.37" y2="42.14"/><line class="cls-2" x1="6.01" y1="45.14" x2="6.01" y2="45.14"/><line class="cls-2" x1="14.96" y1="45.14" x2="14.96" y2="45.14"/><line class="cls-2" x1="0.87" y1="48.05" x2="0.87" y2="48.05"/><line class="cls-2" x1="9.76" y1="48.05" x2="9.76" y2="48.05"/><line class="cls-2" x1="18.71" y1="48.05" x2="18.71" y2="48.05"/><line class="cls-2" x1="6.93" y1="50.89" x2="6.93" y2="50.89"/><line class="cls-2" x1="15.87" y1="50.89" x2="15.87" y2="50.89"/><rect class="cls-3" x="-33.86" y="7.25" width="53.58" height="53.58"/><rect class="cls-3" width="53.75" height="53.75"/></svg>