<!-- Generator: Adobe Illustrator 22.1.0, SVG Export Plug-In  -->
<svg version="1.1"
     xmlns="http://www.w3.org/2000/svg" xmlns:xlink="http://www.w3.org/1999/xlink" xmlns:a="http://ns.adobe.com/AdobeSVGViewerExtensions/3.0/"
     x="0px" y="0px" width="53.8px" height="53.6px" viewBox="0 0 53.8 53.6" style="enable-background:new 0 0 53.8 53.6;"
     xml:space="preserve">
<style type="text/css">
    .st0{clip-path:url(#SVGID_2_);fill:none;stroke:#000000;stroke-width:0.3;}
    .st1{clip-path:url(#SVGID_2_);fill:none;stroke:#000000;stroke-width:0.7;stroke-linecap:round;}
    .st2{clip-path:url(#SVGID_4_);fill:none;stroke:#000000;stroke-width:0.3;}
    .st3{clip-path:url(#SVGID_4_);fill:none;stroke:#000000;stroke-width:0.7;stroke-linecap:round;}
</style>
<defs>
</defs>
<g>
    <defs>
        <rect id="SVGID_1_" x="0.2" width="53.6" height="53.6"/>
    </defs>
    <clipPath id="SVGID_2_">
        <use xlink:href="#SVGID_1_"  style="overflow:visible;"/>
    </clipPath>
    <line class="st0" x1="4.3" y1="1.8" x2="0.2" y2="1.8"/>
    <line class="st0" x1="7.5" y1="1.8" x2="13.2" y2="1.8"/>
    <line class="st0" x1="16.4" y1="1.8" x2="22.1" y2="1.8"/>
    <line class="st0" x1="25.3" y1="1.8" x2="31.1" y2="1.8"/>
    <line class="st0" x1="34.2" y1="1.8" x2="40" y2="1.8"/>
    <line class="st0" x1="43.1" y1="1.8" x2="48.9" y2="1.8"/>
    <line class="st0" x1="52.1" y1="1.8" x2="53.7" y2="1.8"/>
    <line class="st0" x1="8.6" y1="5" x2="2.9" y2="5"/>
    <line class="st0" x1="17.5" y1="5" x2="11.8" y2="5"/>
    <line class="st0" x1="26.4" y1="5" x2="20.7" y2="5"/>
    <line class="st0" x1="35.4" y1="5" x2="29.6" y2="5"/>
    <line class="st0" x1="44.3" y1="5" x2="38.5" y2="5"/>
    <line class="st0" x1="47.4" y1="5" x2="53.2" y2="5"/>
    <line class="st0" x1="2.5" y1="7.9" x2="0.2" y2="7.9"/>
    <line class="st0" x1="11.5" y1="7.9" x2="5.7" y2="7.9"/>
    <line class="st0" x1="14.6" y1="7.9" x2="20.4" y2="7.9"/>
    <line class="st0" x1="23.6" y1="7.9" x2="29.3" y2="7.9"/>
    <line class="st0" x1="32.5" y1="7.9" x2="38.2" y2="7.9"/>
    <line class="st0" x1="41.4" y1="7.9" x2="47.1" y2="7.9"/>
    <line class="st0" x1="50.3" y1="7.9" x2="53.7" y2="7.9"/>
    <line class="st0" x1="7.8" y1="10.7" x2="2.1" y2="10.7"/>
    <line class="st0" x1="16.7" y1="10.7" x2="11" y2="10.7"/>
    <line class="st0" x1="25.6" y1="10.7" x2="19.9" y2="10.7"/>
    <line class="st0" x1="34.6" y1="10.7" x2="28.8" y2="10.7"/>
    <line class="st0" x1="43.5" y1="10.7" x2="37.7" y2="10.7"/>
    <line class="st0" x1="52.4" y1="10.7" x2="46.7" y2="10.7"/>
    <line class="st0" x1="2.2" y1="13.7" x2="0.2" y2="13.7"/>
    <line class="st0" x1="5.4" y1="13.7" x2="11.2" y2="13.7"/>
    <line class="st0" x1="20.1" y1="13.7" x2="14.3" y2="13.7"/>
    <line class="st0" x1="23.2" y1="13.7" x2="29" y2="13.7"/>
    <line class="st0" x1="32.2" y1="13.7" x2="37.9" y2="13.7"/>
    <line class="st0" x1="41.1" y1="13.7" x2="46.8" y2="13.7"/>
    <line class="st0" x1="50" y1="13.7" x2="53.7" y2="13.7"/>
    <line class="st0" x1="0.2" y1="16.7" x2="0" y2="16.7"/>
    <line class="st0" x1="5.7" y1="16.7" x2="0.2" y2="16.7"/>
    <line class="st0" x1="14.7" y1="16.7" x2="8.9" y2="16.7"/>
    <line class="st0" x1="23.6" y1="16.7" x2="17.8" y2="16.7"/>
    <line class="st0" x1="26.7" y1="16.7" x2="32.5" y2="16.7"/>
    <line class="st0" x1="35.7" y1="16.7" x2="41.4" y2="16.7"/>
    <line class="st0" x1="44.6" y1="16.7" x2="50.3" y2="16.7"/>
    <line class="st0" x1="53.5" y1="16.7" x2="53.7" y2="16.7"/>
    <line class="st0" x1="2.7" y1="19.6" x2="0.2" y2="19.6"/>
    <line class="st0" x1="11.6" y1="19.6" x2="5.9" y2="19.6"/>
    <line class="st0" x1="20.6" y1="19.6" x2="14.8" y2="19.6"/>
    <line class="st0" x1="23.7" y1="19.6" x2="29.5" y2="19.6"/>
    <line class="st0" x1="32.6" y1="19.6" x2="38.4" y2="19.6"/>
    <line class="st0" x1="41.6" y1="19.6" x2="47.3" y2="19.6"/>
    <line class="st0" x1="50.5" y1="19.6" x2="53.7" y2="19.6"/>
    <line class="st0" x1="7.2" y1="22.8" x2="1.4" y2="22.8"/>
    <line class="st0" x1="16.1" y1="22.8" x2="10.3" y2="22.8"/>
    <line class="st0" x1="25" y1="22.8" x2="19.3" y2="22.8"/>
    <line class="st0" x1="28.2" y1="22.8" x2="33.9" y2="22.8"/>
    <line class="st0" x1="37.1" y1="22.8" x2="42.8" y2="22.8"/>
    <line class="st0" x1="46" y1="22.8" x2="51.8" y2="22.8"/>
    <line class="st0" x1="4" y1="25.8" x2="0.2" y2="25.8"/>
    <line class="st0" x1="12.9" y1="25.8" x2="7.2" y2="25.8"/>
    <line class="st0" x1="16.1" y1="25.8" x2="21.8" y2="25.8"/>
    <line class="st0" x1="25" y1="25.8" x2="30.7" y2="25.8"/>
    <line class="st0" x1="39.7" y1="25.8" x2="33.9" y2="25.8"/>
    <line class="st0" x1="48.6" y1="25.8" x2="42.8" y2="25.8"/>
    <line class="st0" x1="51.7" y1="25.8" x2="53.7" y2="25.8"/>
    <line class="st0" x1="2.7" y1="28.9" x2="8.5" y2="28.9"/>
    <line class="st0" x1="17.4" y1="28.9" x2="11.6" y2="28.9"/>
    <line class="st0" x1="26.3" y1="28.9" x2="20.5" y2="28.9"/>
    <line class="st0" x1="29.5" y1="28.9" x2="35.2" y2="28.9"/>
    <line class="st0" x1="38.4" y1="28.9" x2="44.1" y2="28.9"/>
    <line class="st0" x1="47.3" y1="28.9" x2="53" y2="28.9"/>
    <line class="st0" x1="3.5" y1="31.7" x2="0.2" y2="31.7"/>
    <line class="st0" x1="12.4" y1="31.7" x2="6.7" y2="31.7"/>
    <line class="st0" x1="21.3" y1="31.7" x2="15.6" y2="31.7"/>
    <line class="st0" x1="24.5" y1="31.7" x2="30.3" y2="31.7"/>
    <line class="st0" x1="33.4" y1="31.7" x2="39.2" y2="31.7"/>
    <line class="st0" x1="42.4" y1="31.7" x2="48.1" y2="31.7"/>
    <line class="st0" x1="51.3" y1="31.7" x2="53.7" y2="31.7"/>
    <line class="st0" x1="7.3" y1="34.8" x2="1.6" y2="34.8"/>
    <line class="st0" x1="16.3" y1="34.8" x2="10.5" y2="34.8"/>
    <line class="st0" x1="25.2" y1="34.8" x2="19.4" y2="34.8"/>
    <line class="st0" x1="28.3" y1="34.8" x2="34.1" y2="34.8"/>
    <line class="st0" x1="43" y1="34.8" x2="37.3" y2="34.8"/>
    <line class="st0" x1="46.2" y1="34.8" x2="51.9" y2="34.8"/>
    <line class="st0" x1="2.7" y1="37.8" x2="0.2" y2="37.8"/>
    <line class="st0" x1="5.9" y1="37.8" x2="11.6" y2="37.8"/>
    <line class="st0" x1="14.8" y1="37.8" x2="20.6" y2="37.8"/>
    <line class="st0" x1="23.7" y1="37.8" x2="29.5" y2="37.8"/>
    <line class="st0" x1="32.6" y1="37.8" x2="38.4" y2="37.8"/>
    <line class="st0" x1="41.6" y1="37.8" x2="47.3" y2="37.8"/>
    <line class="st0" x1="50.5" y1="37.8" x2="53.7" y2="37.8"/>
    <line class="st0" x1="6.5" y1="40.8" x2="0.8" y2="40.8"/>
    <line class="st0" x1="15.5" y1="40.8" x2="9.7" y2="40.8"/>
    <line class="st0" x1="24.4" y1="40.8" x2="18.6" y2="40.8"/>
    <line class="st0" x1="33.3" y1="40.8" x2="27.5" y2="40.8"/>
    <line class="st0" x1="36.5" y1="40.8" x2="42.2" y2="40.8"/>
    <line class="st0" x1="51.1" y1="40.8" x2="45.4" y2="40.8"/>
    <line class="st0" x1="3.6" y1="43.6" x2="0.2" y2="43.6"/>
    <line class="st0" x1="12.6" y1="43.6" x2="6.8" y2="43.6"/>
    <line class="st0" x1="15.8" y1="43.6" x2="21.5" y2="43.6"/>
    <line class="st0" x1="24.7" y1="43.6" x2="30.4" y2="43.6"/>
    <line class="st0" x1="33.6" y1="43.6" x2="39.3" y2="43.6"/>
    <line class="st0" x1="42.5" y1="43.6" x2="48.3" y2="43.6"/>
    <line class="st0" x1="51.4" y1="43.6" x2="53.7" y2="43.6"/>
    <line class="st0" x1="8.8" y1="46.7" x2="3" y2="46.7"/>
    <line class="st0" x1="17.7" y1="46.7" x2="11.9" y2="46.7"/>
    <line class="st0" x1="26.6" y1="46.7" x2="20.9" y2="46.7"/>
    <line class="st0" x1="35.5" y1="46.7" x2="29.8" y2="46.7"/>
    <line class="st0" x1="38.7" y1="46.7" x2="44.4" y2="46.7"/>
    <line class="st0" x1="47.6" y1="46.7" x2="53.4" y2="46.7"/>
    <line class="st0" x1="0.2" y1="49.7" x2="5.2" y2="49.7"/>
    <line class="st0" x1="8.4" y1="49.7" x2="14.2" y2="49.7"/>
    <line class="st0" x1="17.4" y1="49.7" x2="23.1" y2="49.7"/>
    <line class="st0" x1="26.3" y1="49.7" x2="32" y2="49.7"/>
    <line class="st0" x1="35.2" y1="49.7" x2="40.9" y2="49.7"/>
    <line class="st0" x1="44.1" y1="49.7" x2="49.9" y2="49.7"/>
    <line class="st0" x1="53" y1="49.7" x2="53.7" y2="49.7"/>
    <line class="st0" x1="9.1" y1="52.7" x2="3.3" y2="52.7"/>
    <line class="st0" x1="18" y1="52.7" x2="12.3" y2="52.7"/>
    <line class="st0" x1="26.9" y1="52.7" x2="21.2" y2="52.7"/>
    <line class="st0" x1="35.8" y1="52.7" x2="30.1" y2="52.7"/>
    <line class="st0" x1="44.8" y1="52.7" x2="39" y2="52.7"/>
    <line class="st0" x1="53.7" y1="52.7" x2="47.9" y2="52.7"/>
    <line class="st1" x1="5.9" y1="1.9" x2="5.9" y2="1.9"/>
    <line class="st1" x1="14.9" y1="1.9" x2="14.9" y2="1.9"/>
    <line class="st1" x1="23.8" y1="1.9" x2="23.8" y2="1.9"/>
    <line class="st1" x1="32.8" y1="1.9" x2="32.8" y2="1.9"/>
    <line class="st1" x1="41.6" y1="1.9" x2="41.6" y2="1.9"/>
    <line class="st1" x1="50.6" y1="1.9" x2="50.6" y2="1.9"/>
    <line class="st1" x1="1.2" y1="5" x2="1.2" y2="5"/>
    <line class="st1" x1="10.2" y1="5" x2="10.2" y2="5"/>
    <line class="st1" x1="19.1" y1="5" x2="19.1" y2="5"/>
    <line class="st1" x1="28.1" y1="5" x2="28.1" y2="5"/>
    <line class="st1" x1="36.9" y1="5" x2="36.9" y2="5"/>
    <line class="st1" x1="45.9" y1="5" x2="45.9" y2="5"/>
    <line class="st1" x1="4.2" y1="8" x2="4.2" y2="8"/>
    <line class="st1" x1="13.2" y1="8" x2="13.2" y2="8"/>
    <line class="st1" x1="22.1" y1="8" x2="22.1" y2="8"/>
    <line class="st1" x1="31" y1="8" x2="31" y2="8"/>
    <line class="st1" x1="39.9" y1="8" x2="39.9" y2="8"/>
    <line class="st1" x1="48.9" y1="8" x2="48.9" y2="8"/>
    <line class="st1" x1="0.6" y1="10.8" x2="0.6" y2="10.8"/>
    <line class="st1" x1="9.5" y1="10.8" x2="9.5" y2="10.8"/>
    <line class="st1" x1="18.4" y1="10.8" x2="18.4" y2="10.8"/>
    <line class="st1" x1="27.4" y1="10.8" x2="27.4" y2="10.8"/>
    <line class="st1" x1="36.3" y1="10.8" x2="36.3" y2="10.8"/>
    <line class="st1" x1="45.2" y1="10.8" x2="45.2" y2="10.8"/>
    <line class="st1" x1="3.8" y1="13.7" x2="3.8" y2="13.7"/>
    <line class="st1" x1="12.8" y1="13.7" x2="12.8" y2="13.7"/>
    <line class="st1" x1="21.7" y1="13.7" x2="21.7" y2="13.7"/>
    <line class="st1" x1="30.6" y1="13.7" x2="30.6" y2="13.7"/>
    <line class="st1" x1="39.5" y1="13.7" x2="39.5" y2="13.7"/>
    <line class="st1" x1="48.4" y1="13.7" x2="48.4" y2="13.7"/>
    <line class="st1" x1="7.3" y1="16.7" x2="7.3" y2="16.7"/>
    <line class="st1" x1="16.3" y1="16.7" x2="16.3" y2="16.7"/>
    <line class="st1" x1="25.2" y1="16.7" x2="25.2" y2="16.7"/>
    <line class="st1" x1="34.2" y1="16.7" x2="34.2" y2="16.7"/>
    <line class="st1" x1="43.1" y1="16.7" x2="43.1" y2="16.7"/>
    <line class="st1" x1="52" y1="16.7" x2="52" y2="16.7"/>
    <line class="st1" x1="4.2" y1="19.6" x2="4.2" y2="19.6"/>
    <line class="st1" x1="13.2" y1="19.6" x2="13.2" y2="19.6"/>
    <line class="st1" x1="22.1" y1="19.6" x2="22.1" y2="19.6"/>
    <line class="st1" x1="31.1" y1="19.6" x2="31.1" y2="19.6"/>
    <line class="st1" x1="39.9" y1="19.6" x2="39.9" y2="19.6"/>
    <line class="st1" x1="48.9" y1="19.6" x2="48.9" y2="19.6"/>
    <line class="st1" x1="8.8" y1="22.7" x2="8.8" y2="22.7"/>
    <line class="st1" x1="17.8" y1="22.7" x2="17.8" y2="22.7"/>
    <line class="st1" x1="26.7" y1="22.7" x2="26.7" y2="22.7"/>
    <line class="st1" x1="35.6" y1="22.7" x2="35.6" y2="22.7"/>
    <line class="st1" x1="44.5" y1="22.7" x2="44.5" y2="22.7"/>
    <line class="st1" x1="53.5" y1="22.7" x2="53.5" y2="22.7"/>
    <line class="st1" x1="5.5" y1="25.8" x2="5.5" y2="25.8"/>
    <line class="st1" x1="14.5" y1="25.8" x2="14.5" y2="25.8"/>
    <line class="st1" x1="23.4" y1="25.8" x2="23.4" y2="25.8"/>
    <line class="st1" x1="32.3" y1="25.8" x2="32.3" y2="25.8"/>
    <line class="st1" x1="41.2" y1="25.8" x2="41.2" y2="25.8"/>
    <line class="st1" x1="50.2" y1="25.8" x2="50.2" y2="25.8"/>
    <line class="st1" x1="9.9" y1="28.9" x2="9.9" y2="28.9"/>
    <line class="st1" x1="1.2" y1="28.9" x2="1.2" y2="28.9"/>
    <line class="st1" x1="18.9" y1="28.9" x2="18.9" y2="28.9"/>
    <line class="st1" x1="27.8" y1="28.9" x2="27.8" y2="28.9"/>
    <line class="st1" x1="36.8" y1="28.9" x2="36.8" y2="28.9"/>
    <line class="st1" x1="45.6" y1="28.9" x2="45.6" y2="28.9"/>
    <line class="st1" x1="5.1" y1="31.7" x2="5.1" y2="31.7"/>
    <line class="st1" x1="14.1" y1="31.7" x2="14.1" y2="31.7"/>
    <line class="st1" x1="23" y1="31.7" x2="23" y2="31.7"/>
    <line class="st1" x1="32" y1="31.7" x2="32" y2="31.7"/>
    <line class="st1" x1="40.8" y1="31.7" x2="40.8" y2="31.7"/>
    <line class="st1" x1="49.8" y1="31.7" x2="49.8" y2="31.7"/>
    <line class="st1" x1="8.7" y1="34.9" x2="8.7" y2="34.9"/>
    <line class="st1" x1="17.7" y1="34.9" x2="17.7" y2="34.9"/>
    <line class="st1" x1="26.6" y1="34.9" x2="26.6" y2="34.9"/>
    <line class="st1" x1="35.6" y1="34.9" x2="35.6" y2="34.9"/>
    <line class="st1" x1="44.4" y1="34.9" x2="44.4" y2="34.9"/>
    <line class="st1" x1="53.4" y1="34.9" x2="53.4" y2="34.9"/>
    <line class="st1" x1="4.3" y1="37.9" x2="4.3" y2="37.9"/>
    <line class="st1" x1="13.3" y1="37.9" x2="13.3" y2="37.9"/>
    <line class="st1" x1="22.2" y1="37.9" x2="22.2" y2="37.9"/>
    <line class="st1" x1="31.1" y1="37.9" x2="31.1" y2="37.9"/>
    <line class="st1" x1="40" y1="37.9" x2="40" y2="37.9"/>
    <line class="st1" x1="49" y1="37.9" x2="49" y2="37.9"/>
    <line class="st1" x1="8.1" y1="40.8" x2="8.1" y2="40.8"/>
    <line class="st1" x1="17" y1="40.8" x2="17" y2="40.8"/>
    <line class="st1" x1="25.9" y1="40.8" x2="25.9" y2="40.8"/>
    <line class="st1" x1="34.9" y1="40.8" x2="34.9" y2="40.8"/>
    <line class="st1" x1="43.8" y1="40.8" x2="43.8" y2="40.8"/>
    <line class="st1" x1="52.7" y1="40.8" x2="52.7" y2="40.8"/>
    <line class="st1" x1="5.2" y1="43.6" x2="5.2" y2="43.6"/>
    <line class="st1" x1="14.2" y1="43.6" x2="14.2" y2="43.6"/>
    <line class="st1" x1="23.1" y1="43.6" x2="23.1" y2="43.6"/>
    <line class="st1" x1="32.1" y1="43.6" x2="32.1" y2="43.6"/>
    <line class="st1" x1="40.9" y1="43.6" x2="40.9" y2="43.6"/>
    <line class="st1" x1="49.9" y1="43.6" x2="49.9" y2="43.6"/>
    <line class="st1" x1="1.4" y1="46.8" x2="1.4" y2="46.8"/>
    <line class="st1" x1="10.4" y1="46.8" x2="10.4" y2="46.8"/>
    <line class="st1" x1="19.3" y1="46.8" x2="19.3" y2="46.8"/>
    <line class="st1" x1="28.2" y1="46.8" x2="28.2" y2="46.8"/>
    <line class="st1" x1="37.1" y1="46.8" x2="37.1" y2="46.8"/>
    <line class="st1" x1="46.1" y1="46.8" x2="46.1" y2="46.8"/>
    <line class="st1" x1="6.8" y1="49.7" x2="6.8" y2="49.7"/>
    <line class="st1" x1="15.8" y1="49.7" x2="15.8" y2="49.7"/>
    <line class="st1" x1="24.7" y1="49.7" x2="24.7" y2="49.7"/>
    <line class="st1" x1="33.6" y1="49.7" x2="33.6" y2="49.7"/>
    <line class="st1" x1="42.5" y1="49.7" x2="42.5" y2="49.7"/>
    <line class="st1" x1="51.5" y1="49.7" x2="51.5" y2="49.7"/>
    <line class="st1" x1="1.6" y1="52.7" x2="1.6" y2="52.7"/>
    <line class="st1" x1="10.6" y1="52.7" x2="10.6" y2="52.7"/>
    <line class="st1" x1="19.5" y1="52.7" x2="19.5" y2="52.7"/>
    <line class="st1" x1="28.5" y1="52.7" x2="28.5" y2="52.7"/>
    <line class="st1" x1="37.4" y1="52.7" x2="37.4" y2="52.7"/>
    <line class="st1" x1="46.3" y1="52.7" x2="46.3" y2="52.7"/>
</g>
</svg>
