<!-- Generator: Adobe Illustrator 22.1.0, SVG Export Plug-In  -->
<svg version="1.1"
     xmlns="http://www.w3.org/2000/svg" xmlns:xlink="http://www.w3.org/1999/xlink" xmlns:a="http://ns.adobe.com/AdobeSVGViewerExtensions/3.0/"
     x="0px" y="0px" width="53.6px" height="51.1px" viewBox="0 0 53.6 51.1" style="enable-background:new 0 0 53.6 51.1;"
     xml:space="preserve">
<style type="text/css">
    .st0{fill:none;stroke:#231F20;stroke-width:0.3;}
</style>
<defs>
</defs>
<line class="st0" x1="3.8" y1="0.2" x2="0" y2="0.2"/>
<line class="st0" x1="6.4" y1="0.2" x2="12.7" y2="0.2"/>
<line class="st0" x1="15.3" y1="0.2" x2="21.6" y2="0.2"/>
<line class="st0" x1="24.2" y1="0.2" x2="30.6" y2="0.2"/>
<line class="st0" x1="33.1" y1="0.2" x2="39.5" y2="0.2"/>
<line class="st0" x1="42" y1="0.2" x2="48.4" y2="0.2"/>
<line class="st0" x1="53.6" y1="0.2" x2="50.9" y2="0.2"/>
<line class="st0" x1="8.1" y1="3.3" x2="1.7" y2="3.3"/>
<line class="st0" x1="17" y1="3.3" x2="10.7" y2="3.3"/>
<line class="st0" x1="25.9" y1="3.3" x2="19.6" y2="3.3"/>
<line class="st0" x1="34.9" y1="3.3" x2="28.5" y2="3.3"/>
<line class="st0" x1="43.8" y1="3.3" x2="37.4" y2="3.3"/>
<line class="st0" x1="46.3" y1="3.3" x2="52.7" y2="3.3"/>
<line class="st0" x1="0" y1="6.3" x2="2" y2="6.3"/>
<line class="st0" x1="11" y1="6.3" x2="4.6" y2="6.3"/>
<line class="st0" x1="13.5" y1="6.3" x2="19.9" y2="6.3"/>
<line class="st0" x1="22.4" y1="6.3" x2="28.8" y2="6.3"/>
<line class="st0" x1="31.4" y1="6.3" x2="37.7" y2="6.3"/>
<line class="st0" x1="40.3" y1="6.3" x2="46.6" y2="6.3"/>
<line class="st0" x1="49.2" y1="6.3" x2="53.6" y2="6.3"/>
<line class="st0" x1="7.3" y1="9.1" x2="0.9" y2="9.1"/>
<line class="st0" x1="16.2" y1="9.1" x2="9.9" y2="9.1"/>
<line class="st0" x1="25.1" y1="9.1" x2="18.8" y2="9.1"/>
<line class="st0" x1="34.1" y1="9.1" x2="27.7" y2="9.1"/>
<line class="st0" x1="43" y1="9.1" x2="36.6" y2="9.1"/>
<line class="st0" x1="45.5" y1="9.1" x2="51.9" y2="9.1"/>
<line class="st0" x1="1.7" y1="12" x2="0" y2="12"/>
<line class="st0" x1="4.3" y1="12" x2="10.7" y2="12"/>
<line class="st0" x1="19.6" y1="12" x2="13.2" y2="12"/>
<line class="st0" x1="22.1" y1="12" x2="28.5" y2="12"/>
<line class="st0" x1="31" y1="12" x2="37.4" y2="12"/>
<line class="st0" x1="40" y1="12" x2="46.3" y2="12"/>
<line class="st0" x1="48.9" y1="12" x2="53.6" y2="12"/>
<line class="st0" x1="5.2" y1="15" x2="0" y2="15"/>
<line class="st0" x1="14.2" y1="15" x2="7.8" y2="15"/>
<line class="st0" x1="23.1" y1="15" x2="16.7" y2="15"/>
<line class="st0" x1="25.6" y1="15" x2="32" y2="15"/>
<line class="st0" x1="34.5" y1="15" x2="40.9" y2="15"/>
<line class="st0" x1="43.5" y1="15" x2="49.8" y2="15"/>
<line class="st0" x1="53.6" y1="15" x2="52.4" y2="15"/>
<line class="st0" x1="2.2" y1="18.2" x2="0" y2="18.2"/>
<line class="st0" x1="11.1" y1="18.2" x2="4.8" y2="18.2"/>
<line class="st0" x1="13.7" y1="18.2" x2="20" y2="18.2"/>
<line class="st0" x1="29" y1="18.2" x2="22.6" y2="18.2"/>
<line class="st0" x1="37.9" y1="18.2" x2="31.5" y2="18.2"/>
<line class="st0" x1="46.8" y1="18.2" x2="40.4" y2="18.2"/>
<line class="st0" x1="53.6" y1="18.2" x2="49.3" y2="18.2"/>
<line class="st0" x1="6.7" y1="21.1" x2="0.3" y2="21.1"/>
<line class="st0" x1="15.6" y1="21.1" x2="9.2" y2="21.1"/>
<line class="st0" x1="24.5" y1="21.1" x2="18.1" y2="21.1"/>
<line class="st0" x1="27.1" y1="21.1" x2="33.4" y2="21.1"/>
<line class="st0" x1="36" y1="21.1" x2="42.3" y2="21.1"/>
<line class="st0" x1="44.9" y1="21.1" x2="51.3" y2="21.1"/>
<line class="st0" x1="3.5" y1="24.1" x2="0" y2="24.1"/>
<line class="st0" x1="6" y1="24.1" x2="12.4" y2="24.1"/>
<line class="st0" x1="21.3" y1="24.1" x2="15" y2="24.1"/>
<line class="st0" x1="30.2" y1="24.1" x2="23.9" y2="24.1"/>
<line class="st0" x1="32.8" y1="24.1" x2="39.2" y2="24.1"/>
<line class="st0" x1="41.7" y1="24.1" x2="48.1" y2="24.1"/>
<line class="st0" x1="50.6" y1="24.1" x2="53.6" y2="24.1"/>
<line class="st0" x1="7.9" y1="26.9" x2="1.6" y2="26.9"/>
<line class="st0" x1="16.9" y1="26.9" x2="10.5" y2="26.9"/>
<line class="st0" x1="25.8" y1="26.9" x2="19.4" y2="26.9"/>
<line class="st0" x1="28.3" y1="26.9" x2="34.7" y2="26.9"/>
<line class="st0" x1="43.6" y1="26.9" x2="37.2" y2="26.9"/>
<line class="st0" x1="46.2" y1="26.9" x2="52.5" y2="26.9"/>
<line class="st0" x1="3" y1="30" x2="0" y2="30"/>
<line class="st0" x1="11.9" y1="30" x2="5.6" y2="30"/>
<line class="st0" x1="14.5" y1="30" x2="20.8" y2="30"/>
<line class="st0" x1="23.4" y1="30" x2="29.8" y2="30"/>
<line class="st0" x1="32.3" y1="30" x2="38.7" y2="30"/>
<line class="st0" x1="41.2" y1="30" x2="47.6" y2="30"/>
<line class="st0" x1="50.1" y1="30" x2="53.6" y2="30"/>
<line class="st0" x1="6.8" y1="33.2" x2="0.5" y2="33.2"/>
<line class="st0" x1="15.8" y1="33.2" x2="9.4" y2="33.2"/>
<line class="st0" x1="24.7" y1="33.2" x2="18.3" y2="33.2"/>
<line class="st0" x1="27.2" y1="33.2" x2="33.6" y2="33.2"/>
<line class="st0" x1="42.5" y1="33.2" x2="36.1" y2="33.2"/>
<line class="st0" x1="45" y1="33.2" x2="51.4" y2="33.2"/>
<line class="st0" x1="0" y1="36.1" x2="2.2" y2="36.1"/>
<line class="st0" x1="4.8" y1="36.1" x2="11.1" y2="36.1"/>
<line class="st0" x1="20" y1="36.1" x2="13.7" y2="36.1"/>
<line class="st0" x1="22.6" y1="36.1" x2="29" y2="36.1"/>
<line class="st0" x1="31.5" y1="36.1" x2="37.9" y2="36.1"/>
<line class="st0" x1="40.4" y1="36.1" x2="46.8" y2="36.1"/>
<line class="st0" x1="49.3" y1="36.1" x2="53.6" y2="36.1"/>
<line class="st0" x1="6" y1="39.1" x2="0" y2="39.1"/>
<line class="st0" x1="15" y1="39.1" x2="8.6" y2="39.1"/>
<line class="st0" x1="23.9" y1="39.1" x2="17.5" y2="39.1"/>
<line class="st0" x1="26.4" y1="39.1" x2="32.8" y2="39.1"/>
<line class="st0" x1="35.3" y1="39.1" x2="41.7" y2="39.1"/>
<line class="st0" x1="44.3" y1="39.1" x2="50.6" y2="39.1"/>
<line class="st0" x1="53.6" y1="39.1" x2="53.2" y2="39.1"/>
<line class="st0" x1="0" y1="41.9" x2="3.1" y2="41.9"/>
<line class="st0" x1="12.1" y1="41.9" x2="5.7" y2="41.9"/>
<line class="st0" x1="14.6" y1="41.9" x2="21" y2="41.9"/>
<line class="st0" x1="23.6" y1="41.9" x2="29.9" y2="41.9"/>
<line class="st0" x1="32.5" y1="41.9" x2="38.8" y2="41.9"/>
<line class="st0" x1="47.8" y1="41.9" x2="41.4" y2="41.9"/>
<line class="st0" x1="50.3" y1="41.9" x2="53.6" y2="41.9"/>
<line class="st0" x1="8.3" y1="45" x2="1.9" y2="45"/>
<line class="st0" x1="17.2" y1="45" x2="10.8" y2="45"/>
<line class="st0" x1="26.1" y1="45" x2="19.7" y2="45"/>
<line class="st0" x1="35" y1="45" x2="28.6" y2="45"/>
<line class="st0" x1="37.6" y1="45" x2="43.9" y2="45"/>
<line class="st0" x1="46.5" y1="45" x2="52.9" y2="45"/>
<line class="st0" x1="4.7" y1="48" x2="0" y2="48"/>
<line class="st0" x1="7.3" y1="48" x2="13.7" y2="48"/>
<line class="st0" x1="16.2" y1="48" x2="22.6" y2="48"/>
<line class="st0" x1="25.1" y1="48" x2="31.5" y2="48"/>
<line class="st0" x1="34.1" y1="48" x2="40.4" y2="48"/>
<line class="st0" x1="43" y1="48" x2="49.3" y2="48"/>
<line class="st0" x1="51.9" y1="48" x2="53.6" y2="48"/>
<line class="st0" x1="8.6" y1="51" x2="2.2" y2="51"/>
<line class="st0" x1="17.5" y1="51" x2="11.1" y2="51"/>
<line class="st0" x1="26.4" y1="51" x2="20" y2="51"/>
<line class="st0" x1="35.3" y1="51" x2="29" y2="51"/>
<line class="st0" x1="44.3" y1="51" x2="37.9" y2="51"/>
<line class="st0" x1="53.2" y1="51" x2="46.8" y2="51"/>
</svg>
