<svg id="Layer_1" data-name="Layer 1" xmlns="http://www.w3.org/2000/svg" width="53.58" height="53.58" viewBox="0 0 53.58 53.58"><defs><style>.cls-1,.cls-2{fill:none;}.cls-2{stroke:#231f20;stroke-width:0.3px;}</style></defs><title>Artboard 36</title><rect class="cls-1" x="49.56" y="-8.57" width="53.58" height="53.58"/><line class="cls-2" x1="56.88" y1="1.6" x2="50.51" y2="1.6"/><line class="cls-2" x1="51.27" y1="4.57" x2="49.56" y2="4.57"/><line class="cls-2" x1="54.81" y1="7.58" x2="49.56" y2="7.58"/><line class="cls-2" x1="51.75" y1="10.74" x2="49.56" y2="10.74"/><line class="cls-2" x1="56.24" y1="13.66" x2="49.87" y2="13.66"/><line class="cls-2" x1="53.02" y1="16.63" x2="49.56" y2="16.63"/><line class="cls-2" x1="57.51" y1="19.48" x2="51.14" y2="19.48"/><line class="cls-2" x1="52.54" y1="22.57" x2="49.56" y2="22.57"/><line class="cls-2" x1="56.4" y1="25.7" x2="50.03" y2="25.7"/><line class="cls-2" x1="49.56" y1="28.67" x2="51.75" y2="28.67"/><line class="cls-2" x1="55.6" y1="31.64" x2="49.56" y2="31.64"/><line class="cls-2" x1="49.56" y1="34.44" x2="52.7" y2="34.44"/><line class="cls-2" x1="57.83" y1="37.57" x2="51.46" y2="37.57"/><line class="cls-2" x1="54.3" y1="40.54" x2="49.56" y2="40.54"/><line class="cls-2" x1="58.15" y1="43.51" x2="51.78" y2="43.51"/><rect class="cls-1" x="49.56" y="45.01" width="53.58" height="53.58"/><line class="cls-2" x1="53.34" y1="46.28" x2="49.56" y2="46.28"/><line class="cls-2" x1="57.67" y1="49.41" x2="51.3" y2="49.41"/><line class="cls-2" x1="49.56" y1="52.38" x2="51.59" y2="52.38"/><rect class="cls-1" x="-4.02" y="-8.57" width="53.58" height="53.58"/><line class="cls-2" x1="3.29" y1="1.6" x2="-3.08" y2="1.6"/><line class="cls-2" x1="12.21" y1="1.6" x2="5.84" y2="1.6"/><line class="cls-2" x1="21.13" y1="1.6" x2="14.76" y2="1.6"/><line class="cls-2" x1="30.04" y1="1.6" x2="23.67" y2="1.6"/><line class="cls-2" x1="38.96" y1="1.6" x2="32.59" y2="1.6"/><line class="cls-2" x1="41.51" y1="1.6" x2="47.88" y2="1.6"/><line class="cls-2" x1="0.27" y1="4.57" x2="6.64" y2="4.57"/><line class="cls-2" x1="15.55" y1="4.57" x2="9.18" y2="4.57"/><line class="cls-2" x1="18.1" y1="4.57" x2="24.47" y2="4.57"/><line class="cls-2" x1="27.02" y1="4.57" x2="33.39" y2="4.57"/><line class="cls-2" x1="35.93" y1="4.57" x2="42.3" y2="4.57"/><line class="cls-2" x1="44.85" y1="4.57" x2="49.56" y2="4.57"/><line class="cls-2" x1="1.22" y1="7.58" x2="-4.02" y2="7.58"/><line class="cls-2" x1="10.14" y1="7.58" x2="3.77" y2="7.58"/><line class="cls-2" x1="19.06" y1="7.58" x2="12.69" y2="7.58"/><line class="cls-2" x1="21.6" y1="7.58" x2="27.97" y2="7.58"/><line class="cls-2" x1="30.52" y1="7.58" x2="36.89" y2="7.58"/><line class="cls-2" x1="39.44" y1="7.58" x2="45.81" y2="7.58"/><line class="cls-2" x1="49.56" y1="7.58" x2="48.35" y2="7.58"/><line class="cls-2" x1="7.11" y1="10.74" x2="0.74" y2="10.74"/><line class="cls-2" x1="9.66" y1="10.74" x2="16.03" y2="10.74"/><line class="cls-2" x1="24.95" y1="10.74" x2="18.58" y2="10.74"/><line class="cls-2" x1="33.86" y1="10.74" x2="27.49" y2="10.74"/><line class="cls-2" x1="42.78" y1="10.74" x2="36.41" y2="10.74"/><line class="cls-2" x1="49.56" y1="10.74" x2="45.33" y2="10.74"/><line class="cls-2" x1="2.65" y1="13.66" x2="-3.71" y2="13.66"/><line class="cls-2" x1="11.57" y1="13.66" x2="5.2" y2="13.66"/><line class="cls-2" x1="20.49" y1="13.66" x2="14.12" y2="13.66"/><line class="cls-2" x1="23.04" y1="13.66" x2="29.4" y2="13.66"/><line class="cls-2" x1="31.95" y1="13.66" x2="38.32" y2="13.66"/><line class="cls-2" x1="40.87" y1="13.66" x2="47.24" y2="13.66"/><line class="cls-2" x1="2.02" y1="16.63" x2="8.39" y2="16.63"/><line class="cls-2" x1="17.3" y1="16.63" x2="10.93" y2="16.63"/><line class="cls-2" x1="26.22" y1="16.63" x2="19.85" y2="16.63"/><line class="cls-2" x1="28.77" y1="16.63" x2="35.14" y2="16.63"/><line class="cls-2" x1="37.68" y1="16.63" x2="44.05" y2="16.63"/><line class="cls-2" x1="46.6" y1="16.63" x2="49.56" y2="16.63"/><line class="cls-2" x1="3.93" y1="19.48" x2="-2.44" y2="19.48"/><line class="cls-2" x1="12.85" y1="19.48" x2="6.48" y2="19.48"/><line class="cls-2" x1="21.76" y1="19.48" x2="15.39" y2="19.48"/><line class="cls-2" x1="24.31" y1="19.48" x2="30.68" y2="19.48"/><line class="cls-2" x1="39.6" y1="19.48" x2="33.23" y2="19.48"/><line class="cls-2" x1="42.14" y1="19.48" x2="48.51" y2="19.48"/><line class="cls-2" x1="7.91" y1="22.57" x2="1.54" y2="22.57"/><line class="cls-2" x1="10.46" y1="22.57" x2="16.83" y2="22.57"/><line class="cls-2" x1="19.37" y1="22.57" x2="25.74" y2="22.57"/><line class="cls-2" x1="28.29" y1="22.57" x2="34.66" y2="22.57"/><line class="cls-2" x1="37.21" y1="22.57" x2="43.58" y2="22.57"/><line class="cls-2" x1="46.12" y1="22.57" x2="49.56" y2="22.57"/><line class="cls-2" x1="2.81" y1="25.7" x2="-3.56" y2="25.7"/><line class="cls-2" x1="11.73" y1="25.7" x2="5.36" y2="25.7"/><line class="cls-2" x1="20.65" y1="25.7" x2="14.28" y2="25.7"/><line class="cls-2" x1="23.19" y1="25.7" x2="29.56" y2="25.7"/><line class="cls-2" x1="38.48" y1="25.7" x2="32.11" y2="25.7"/><line class="cls-2" x1="41.03" y1="25.7" x2="47.4" y2="25.7"/><line class="cls-2" x1="0.74" y1="28.67" x2="7.11" y2="28.67"/><line class="cls-2" x1="16.03" y1="28.67" x2="9.66" y2="28.67"/><line class="cls-2" x1="18.58" y1="28.67" x2="24.95" y2="28.67"/><line class="cls-2" x1="27.49" y1="28.67" x2="33.86" y2="28.67"/><line class="cls-2" x1="36.41" y1="28.67" x2="42.78" y2="28.67"/><line class="cls-2" x1="45.33" y1="28.67" x2="49.56" y2="28.67"/><line class="cls-2" x1="2.02" y1="31.64" x2="-4.02" y2="31.64"/><line class="cls-2" x1="10.93" y1="31.64" x2="4.57" y2="31.64"/><line class="cls-2" x1="19.85" y1="31.64" x2="13.48" y2="31.64"/><line class="cls-2" x1="22.4" y1="31.64" x2="28.77" y2="31.64"/><line class="cls-2" x1="31.32" y1="31.64" x2="37.68" y2="31.64"/><line class="cls-2" x1="40.23" y1="31.64" x2="46.6" y2="31.64"/><line class="cls-2" x1="49.56" y1="31.64" x2="49.15" y2="31.64"/><line class="cls-2" x1="8.07" y1="34.44" x2="1.7" y2="34.44"/><line class="cls-2" x1="10.62" y1="34.44" x2="16.99" y2="34.44"/><line class="cls-2" x1="19.53" y1="34.44" x2="25.9" y2="34.44"/><line class="cls-2" x1="28.45" y1="34.44" x2="34.82" y2="34.44"/><line class="cls-2" x1="43.73" y1="34.44" x2="37.37" y2="34.44"/><line class="cls-2" x1="46.28" y1="34.44" x2="49.56" y2="34.44"/><line class="cls-2" x1="4.25" y1="37.57" x2="-2.12" y2="37.57"/><line class="cls-2" x1="13.16" y1="37.57" x2="6.79" y2="37.57"/><line class="cls-2" x1="22.08" y1="37.57" x2="15.71" y2="37.57"/><line class="cls-2" x1="31" y1="37.57" x2="24.63" y2="37.57"/><line class="cls-2" x1="33.54" y1="37.57" x2="39.91" y2="37.57"/><line class="cls-2" x1="42.46" y1="37.57" x2="48.83" y2="37.57"/><line class="cls-2" x1="0.71" y1="40.54" x2="-4.02" y2="40.54"/><line class="cls-2" x1="3.29" y1="40.54" x2="9.66" y2="40.54"/><line class="cls-2" x1="12.21" y1="40.54" x2="18.58" y2="40.54"/><line class="cls-2" x1="21.13" y1="40.54" x2="27.49" y2="40.54"/><line class="cls-2" x1="30.04" y1="40.54" x2="36.41" y2="40.54"/><line class="cls-2" x1="38.96" y1="40.54" x2="45.33" y2="40.54"/><line class="cls-2" x1="47.88" y1="40.54" x2="49.56" y2="40.54"/><line class="cls-2" x1="4.57" y1="43.51" x2="-1.8" y2="43.51"/><line class="cls-2" x1="13.48" y1="43.51" x2="7.11" y2="43.51"/><line class="cls-2" x1="22.4" y1="43.51" x2="16.03" y2="43.51"/><line class="cls-2" x1="31.32" y1="43.51" x2="24.95" y2="43.51"/><line class="cls-2" x1="40.23" y1="43.51" x2="33.86" y2="43.51"/><line class="cls-2" x1="49.15" y1="43.51" x2="42.78" y2="43.51"/><rect class="cls-1" x="-4.02" y="45.01" width="53.58" height="53.58"/><line class="cls-2" x1="2.34" y1="46.28" x2="8.71" y2="46.28"/><line class="cls-2" x1="11.25" y1="46.28" x2="17.62" y2="46.28"/><line class="cls-2" x1="20.17" y1="46.28" x2="26.54" y2="46.28"/><line class="cls-2" x1="29.09" y1="46.28" x2="35.46" y2="46.28"/><line class="cls-2" x1="38" y1="46.28" x2="44.37" y2="46.28"/><line class="cls-2" x1="49.56" y1="46.28" x2="46.92" y2="46.28"/><line class="cls-2" x1="4.09" y1="49.41" x2="-2.28" y2="49.41"/><line class="cls-2" x1="13" y1="49.41" x2="6.64" y2="49.41"/><line class="cls-2" x1="21.92" y1="49.41" x2="15.55" y2="49.41"/><line class="cls-2" x1="30.84" y1="49.41" x2="24.47" y2="49.41"/><line class="cls-2" x1="39.75" y1="49.41" x2="33.39" y2="49.41"/><line class="cls-2" x1="42.3" y1="49.41" x2="48.67" y2="49.41"/><line class="cls-2" x1="6.95" y1="52.38" x2="0.59" y2="52.38"/><line class="cls-2" x1="9.5" y1="52.38" x2="15.87" y2="52.38"/><line class="cls-2" x1="18.42" y1="52.38" x2="24.79" y2="52.38"/><line class="cls-2" x1="27.34" y1="52.38" x2="33.7" y2="52.38"/><line class="cls-2" x1="36.25" y1="52.38" x2="42.62" y2="52.38"/><line class="cls-2" x1="45.17" y1="52.38" x2="49.56" y2="52.38"/><rect class="cls-1" width="53.58" height="53.58"/></svg>