<!-- Generator: Adobe Illustrator 22.1.0, SVG Export Plug-In  -->
<svg version="1.1"
     xmlns="http://www.w3.org/2000/svg" xmlns:xlink="http://www.w3.org/1999/xlink" xmlns:a="http://ns.adobe.com/AdobeSVGViewerExtensions/3.0/"
     x="0px" y="0px" width="53.6px" height="52.6px" viewBox="0 0 53.6 52.6" style="enable-background:new 0 0 53.6 52.6;"
     xml:space="preserve">
<style type="text/css">
    .st0{fill:none;stroke:#000000;stroke-width:0.3;}
</style>
<defs>
</defs>
<line class="st0" x1="3.8" y1="0.8" x2="0" y2="0.8"/>
<line class="st0" x1="15.3" y1="0.8" x2="21.6" y2="0.8"/>
<line class="st0" x1="24.2" y1="0.8" x2="30.6" y2="0.8"/>
<line class="st0" x1="48.4" y1="0.8" x2="42" y2="0.8"/>
<line class="st0" x1="50.9" y1="0.8" x2="53.6" y2="0.8"/>
<line class="st0" x1="8.1" y1="3.9" x2="1.7" y2="3.9"/>
<line class="st0" x1="17" y1="3.9" x2="10.7" y2="3.9"/>
<line class="st0" x1="34.9" y1="3.9" x2="28.5" y2="3.9"/>
<line class="st0" x1="37.4" y1="3.9" x2="43.8" y2="3.9"/>
<line class="st0" x1="4.3" y1="6.9" x2="0" y2="6.9"/>
<line class="st0" x1="15.8" y1="6.9" x2="22.2" y2="6.9"/>
<line class="st0" x1="24.8" y1="6.9" x2="31.1" y2="6.9"/>
<line class="st0" x1="42.6" y1="6.9" x2="49" y2="6.9"/>
<line class="st0" x1="51.5" y1="6.9" x2="53.6" y2="6.9"/>
<line class="st0" x1="7.3" y1="9.7" x2="0.9" y2="9.7"/>
<line class="st0" x1="16.2" y1="9.7" x2="9.9" y2="9.7"/>
<line class="st0" x1="34.1" y1="9.7" x2="27.7" y2="9.7"/>
<line class="st0" x1="36.6" y1="9.7" x2="43" y2="9.7"/>
<line class="st0" x1="1.7" y1="12.7" x2="0" y2="12.7"/>
<line class="st0" x1="13.2" y1="12.7" x2="19.6" y2="12.7"/>
<line class="st0" x1="22.1" y1="12.7" x2="28.5" y2="12.7"/>
<line class="st0" x1="40" y1="12.7" x2="46.3" y2="12.7"/>
<line class="st0" x1="48.9" y1="12.7" x2="53.6" y2="12.7"/>
<line class="st0" x1="3" y1="15.7" x2="0" y2="15.7"/>
<line class="st0" x1="5.5" y1="15.7" x2="11.9" y2="15.7"/>
<line class="st0" x1="23.4" y1="15.7" x2="29.7" y2="15.7"/>
<line class="st0" x1="32.3" y1="15.7" x2="38.6" y2="15.7"/>
<line class="st0" x1="50.1" y1="15.7" x2="53.6" y2="15.7"/>
<line class="st0" x1="2.2" y1="18.5" x2="0" y2="18.5"/>
<line class="st0" x1="20" y1="18.5" x2="13.7" y2="18.5"/>
<line class="st0" x1="22.6" y1="18.5" x2="29" y2="18.5"/>
<line class="st0" x1="40.4" y1="18.5" x2="46.8" y2="18.5"/>
<line class="st0" x1="49.3" y1="18.5" x2="53.6" y2="18.5"/>
<line class="st0" x1="6.7" y1="21.7" x2="0.3" y2="21.7"/>
<line class="st0" x1="15.6" y1="21.7" x2="9.2" y2="21.7"/>
<line class="st0" x1="27.1" y1="21.7" x2="33.4" y2="21.7"/>
<line class="st0" x1="36" y1="21.7" x2="42.3" y2="21.7"/>
<line class="st0" x1="3.5" y1="24.7" x2="0" y2="24.7"/>
<line class="st0" x1="21.3" y1="24.7" x2="15" y2="24.7"/>
<line class="st0" x1="23.9" y1="24.7" x2="30.2" y2="24.7"/>
<line class="st0" x1="41.7" y1="24.7" x2="48.1" y2="24.7"/>
<line class="st0" x1="50.6" y1="24.7" x2="53.6" y2="24.7"/>
<line class="st0" x1="7.9" y1="27.8" x2="1.6" y2="27.8"/>
<line class="st0" x1="10.5" y1="27.8" x2="16.9" y2="27.8"/>
<line class="st0" x1="34.7" y1="27.8" x2="28.3" y2="27.8"/>
<line class="st0" x1="37.2" y1="27.8" x2="43.6" y2="27.8"/>
<line class="st0" x1="16.7" y1="30.7" x2="10.3" y2="30.7"/>
<line class="st0" x1="25.6" y1="30.7" x2="19.3" y2="30.7"/>
<line class="st0" x1="43.5" y1="30.7" x2="37.1" y2="30.7"/>
<line class="st0" x1="46" y1="30.7" x2="52.4" y2="30.7"/>
<line class="st0" x1="6.8" y1="33.8" x2="0.5" y2="33.8"/>
<line class="st0" x1="9.4" y1="33.8" x2="15.8" y2="33.8"/>
<line class="st0" x1="27.2" y1="33.8" x2="33.6" y2="33.8"/>
<line class="st0" x1="36.1" y1="33.8" x2="42.5" y2="33.8"/>
<line class="st0" x1="2.2" y1="36.8" x2="0" y2="36.8"/>
<line class="st0" x1="13.7" y1="36.8" x2="20" y2="36.8"/>
<line class="st0" x1="22.6" y1="36.8" x2="29" y2="36.8"/>
<line class="st0" x1="46.8" y1="36.8" x2="40.4" y2="36.8"/>
<line class="st0" x1="49.3" y1="36.8" x2="53.6" y2="36.8"/>
<line class="st0" x1="0" y1="39.7" x2="2" y2="39.7"/>
<line class="st0" x1="10.9" y1="39.7" x2="4.6" y2="39.7"/>
<line class="st0" x1="22.4" y1="39.7" x2="28.8" y2="39.7"/>
<line class="st0" x1="37.7" y1="39.7" x2="31.3" y2="39.7"/>
<line class="st0" x1="49.1" y1="39.7" x2="53.6" y2="39.7"/>
<line class="st0" x1="3.1" y1="42.5" x2="0" y2="42.5"/>
<line class="st0" x1="14.6" y1="42.5" x2="21" y2="42.5"/>
<line class="st0" x1="23.6" y1="42.5" x2="29.9" y2="42.5"/>
<line class="st0" x1="41.4" y1="42.5" x2="47.8" y2="42.5"/>
<line class="st0" x1="50.3" y1="42.5" x2="53.6" y2="42.5"/>
<line class="st0" x1="8.3" y1="45.7" x2="1.9" y2="45.7"/>
<line class="st0" x1="17.2" y1="45.7" x2="10.8" y2="45.7"/>
<line class="st0" x1="35" y1="45.7" x2="28.6" y2="45.7"/>
<line class="st0" x1="43.9" y1="45.7" x2="37.6" y2="45.7"/>
<line class="st0" x1="6.8" y1="48.6" x2="0.5" y2="48.6"/>
<line class="st0" x1="24.7" y1="48.6" x2="18.3" y2="48.6"/>
<line class="st0" x1="33.6" y1="48.6" x2="27.2" y2="48.6"/>
<line class="st0" x1="51.4" y1="48.6" x2="45.1" y2="48.6"/>
<line class="st0" x1="8.6" y1="51.6" x2="2.2" y2="51.6"/>
<line class="st0" x1="17.5" y1="51.6" x2="11.1" y2="51.6"/>
<line class="st0" x1="35.3" y1="51.6" x2="29" y2="51.6"/>
<line class="st0" x1="44.3" y1="51.6" x2="37.9" y2="51.6"/>
<path class="st0" d="M9.5,0.2C6.3,0.3,4.7,1.7,9.6,1.6C14.4,1.5,13.1,0,9.5,0.2z"/>
<path class="st0" d="M36.3,0.2c-3.1,0.1-4.7,1.5,0.1,1.4C41.2,1.5,39.9,0,36.3,0.2z"/>
<path class="st0" d="M22.8,3.3c-3.1,0.1-4.7,1.5,0.1,1.4C27.7,4.6,26.4,3.2,22.8,3.3z"/>
<path class="st0" d="M49.6,3.3c-3.1,0.1-4.7,1.5,0.1,1.4C54.6,4.6,53.2,3.2,49.6,3.3z"/>
<path class="st0" d="M10.3,7.6c4.8-0.1,3.5-1.5-0.1-1.4C7,6.3,5.4,7.7,10.3,7.6z"/>
<path class="st0" d="M37,6.2c-3.1,0.1-4.7,1.5,0.1,1.4C41.9,7.5,40.6,6.1,37,6.2z"/>
<path class="st0" d="M21.9,8.8c-3.1,0.1-4.7,1.5,0.1,1.4C26.9,10.1,25.6,8.7,21.9,8.8z"/>
<path class="st0" d="M48.9,10.2c4.8-0.1,3.5-1.5-0.1-1.4C45.6,8.9,44,10.3,48.9,10.2z"/>
<path class="st0" d="M7.4,11.8c-3.1,0.1-4.7,1.5,0.1,1.4C12.4,13.1,11.1,11.7,7.4,11.8z"/>
<path class="st0" d="M34.3,11.8c-3.1,0.1-4.7,1.5,0.1,1.4C39.2,13.1,37.9,11.7,34.3,11.8z"/>
<path class="st0" d="M17.5,14.9c-3.1,0.1-4.7,1.5,0.1,1.4C22.5,16.3,21.1,14.8,17.5,14.9z"/>
<path class="st0" d="M44.3,14.9c-3.1,0.1-4.7,1.5,0.1,1.4C49.3,16.3,48,14.8,44.3,14.9z"/>
<path class="st0" d="M7.9,19.2c4.8-0.1,3.5-1.5-0.1-1.4C4.6,17.9,3.1,19.3,7.9,19.2z"/>
<path class="st0" d="M34.7,19.2c4.8-0.1,3.5-1.5-0.1-1.4C31.5,17.9,29.9,19.3,34.7,19.2z"/>
<path class="st0" d="M21.1,20.9c-3.1,0.1-4.7,1.5,0.1,1.4C26.1,22.3,24.7,20.8,21.1,20.9z"/>
<path class="st0" d="M47.9,20.9c-3.1,0.1-4.7,1.5,0.1,1.4C52.9,22.3,51.6,20.8,47.9,20.9z"/>
<path class="st0" d="M9.4,25.4c4.8-0.1,3.5-1.5-0.1-1.4C6.1,24.1,4.6,25.5,9.4,25.4z"/>
<path class="st0" d="M36.1,23.9c-3.1,0.1-4.7,1.5,0.1,1.4C41.1,25.3,39.7,23.8,36.1,23.9z"/>
<path class="st0" d="M22.3,26.9c-3.1,0.1-4.7,1.5,0.1,1.4C27.2,28.3,25.9,26.8,22.3,26.9z"/>
<path class="st0" d="M49.1,26.9c-3.1,0.1-4.7,1.5,0.1,1.4C54.1,28.3,52.7,26.8,49.1,26.9z"/>
<path class="st0" d="M4.8,29.9c-3.1,0.1-4.7,1.5,0.1,1.4C9.8,31.3,8.4,29.8,4.8,29.9z"/>
<path class="st0" d="M31.7,31.4c4.8-0.1,3.5-1.5-0.1-1.4C28.5,30.1,26.9,31.5,31.7,31.4z"/>
<path class="st0" d="M21.7,34.5c4.8-0.1,3.5-1.5-0.1-1.4C18.5,33.2,16.9,34.6,21.7,34.5z"/>
<path class="st0" d="M48.6,34.5c4.8-0.1,3.5-1.5-0.1-1.4C45.3,33.2,43.7,34.6,48.6,34.5z"/>
<path class="st0" d="M7.9,36.1c-3.1,0.1-4.7,1.5,0.1,1.4C12.9,37.4,11.6,36,7.9,36.1z"/>
<path class="st0" d="M34.8,36.1c-3.1,0.1-4.7,1.5,0.1,1.4C39.7,37.4,38.4,36,34.8,36.1z"/>
<path class="st0" d="M16.7,40.4c4.8-0.1,3.5-1.5-0.1-1.4C13.4,39.1,11.9,40.5,16.7,40.4z"/>
<path class="st0" d="M43.5,40.4c4.8-0.1,3.5-1.5-0.1-1.4C40.3,39.1,38.7,40.5,43.5,40.4z"/>
<path class="st0" d="M9.1,43.3c4.8-0.1,3.5-1.5-0.1-1.4C5.8,41.9,4.3,43.4,9.1,43.3z"/>
<path class="st0" d="M35.9,43.3c4.8-0.1,3.5-1.5-0.1-1.4C32.7,41.9,31.1,43.4,35.9,43.3z"/>
<path class="st0" d="M22.7,46.4c4.8-0.1,3.5-1.5-0.1-1.4C19.5,45.1,17.9,46.5,22.7,46.4z"/>
<path class="st0" d="M49.4,44.9c-3.1,0.1-4.7,1.5,0.1,1.4C54.4,46.3,53.1,44.8,49.4,44.9z"/>
<path class="st0" d="M12.7,49.4c4.8-0.1,3.5-1.5-0.1-1.4C9.4,48.1,7.8,49.5,12.7,49.4z"/>
<path class="st0" d="M39.5,49.4c4.8-0.1,3.5-1.5-0.1-1.4C36.2,48.1,34.6,49.5,39.5,49.4z"/>
<path class="st0" d="M50.1,52.5c4.8-0.1,3.5-1.5-0.1-1.4C46.8,51.1,45.2,52.6,50.1,52.5z"/>
<path class="st0" d="M23.2,52.4c4.8-0.1,3.5-1.5-0.1-1.4C20,51.1,18.4,52.5,23.2,52.4z"/>
</svg>
