<svg id="Layer_1" data-name="Layer 1" xmlns="http://www.w3.org/2000/svg" width="53.58" height="53.58" viewBox="0 0 53.58 53.58"><defs><style>.cls-1,.cls-2{fill:none;}.cls-2{stroke:#000;stroke-width:0.3px;}</style></defs><title>Artboard 37</title><rect class="cls-1" x="35.61" y="-9.69" width="53.58" height="53.58"/><line class="cls-2" x1="42.92" y1="0.6" x2="36.56" y2="0.6"/><line class="cls-2" x1="51.84" y1="0.6" x2="45.47" y2="0.6"/><line class="cls-2" x1="37.32" y1="3.57" x2="35.61" y2="3.57"/><line class="cls-2" x1="48.82" y1="3.57" x2="55.19" y2="3.57"/><line class="cls-2" x1="38.59" y1="6.57" x2="35.61" y2="6.57"/><line class="cls-2" x1="41.13" y1="6.57" x2="47.5" y2="6.57"/><line class="cls-2" x1="37.8" y1="9.46" x2="35.61" y2="9.46"/><line class="cls-2" x1="55.66" y1="9.46" x2="49.29" y2="9.46"/><line class="cls-2" x1="42.29" y1="12.65" x2="35.92" y2="12.65"/><line class="cls-2" x1="51.2" y1="12.65" x2="44.84" y2="12.65"/><line class="cls-2" x1="39.07" y1="15.62" x2="35.61" y2="15.62"/><line class="cls-2" x1="56.94" y1="15.62" x2="50.57" y2="15.62"/><line class="cls-2" x1="43.56" y1="18.76" x2="37.19" y2="18.76"/><line class="cls-2" x1="46.11" y1="18.76" x2="52.48" y2="18.76"/><line class="cls-2" x1="52.32" y1="21.57" x2="45.95" y2="21.57"/><line class="cls-2" x1="42.45" y1="24.7" x2="36.08" y2="24.7"/><line class="cls-2" x1="44.99" y1="24.7" x2="51.36" y2="24.7"/><line class="cls-2" x1="37.8" y1="27.67" x2="35.61" y2="27.67"/><line class="cls-2" x1="49.29" y1="27.67" x2="55.66" y2="27.67"/><line class="cls-2" x1="35.61" y1="30.64" x2="37.62" y2="30.64"/><line class="cls-2" x1="46.54" y1="30.64" x2="40.17" y2="30.64"/><line class="cls-2" x1="38.75" y1="33.44" x2="35.61" y2="33.44"/><line class="cls-2" x1="50.25" y1="33.44" x2="56.62" y2="33.44"/><line class="cls-2" x1="43.88" y1="36.57" x2="37.51" y2="36.57"/><line class="cls-2" x1="52.8" y1="36.57" x2="46.43" y2="36.57"/><line class="cls-2" x1="42.44" y1="39.54" x2="36.07" y2="39.54"/><line class="cls-2" x1="44.2" y1="42.51" x2="37.83" y2="42.51"/><line class="cls-2" x1="53.12" y1="42.51" x2="46.75" y2="42.51"/><path class="cls-2" d="M43.05,2.69c-3.14.11-4.71,1.54.13,1.43S46.68,2.58,43.05,2.69Z"/><path class="cls-2" d="M53.12,5.86C50,6,48.4,7.4,53.24,7.29S56.75,5.75,53.12,5.86Z"/><path class="cls-2" d="M43.51,10.12C48.35,10,47,8.58,43.39,8.69,40.24,8.8,38.67,10.23,43.51,10.12Z"/><path class="cls-2" d="M45,16.29c4.84-.11,3.51-1.54-.12-1.43C41.74,15,40.17,16.4,45,16.29Z"/><path class="cls-2" d="M40.41,20.86c-3.14.11-4.71,1.54.13,1.43S44.05,20.75,40.41,20.86Z"/><path class="cls-2" d="M43.55,27c-3.14.11-4.71,1.54.13,1.43S47.18,26.91,43.55,27Z"/><path class="cls-2" d="M52.32,31.29c4.84-.11,3.51-1.54-.12-1.43C49.05,30,47.48,31.4,52.32,31.29Z"/><path class="cls-2" d="M44.73,34.17c4.84-.11,3.5-1.54-.13-1.43C41.46,32.85,39.89,34.28,44.73,34.17Z"/><path class="cls-2" d="M48.27,40.29c4.84-.11,3.51-1.54-.12-1.43C45,39,43.43,40.4,48.27,40.29Z"/><rect class="cls-1" x="35.61" y="43.9" width="53.58" height="53.58"/><line class="cls-2" x1="39.39" y1="45.28" x2="35.61" y2="45.28"/><line class="cls-2" x1="50.89" y1="45.28" x2="57.25" y2="45.28"/><line class="cls-2" x1="43.72" y1="48.41" x2="37.35" y2="48.41"/><line class="cls-2" x1="52.64" y1="48.41" x2="46.27" y2="48.41"/><line class="cls-2" x1="39.96" y1="51.38" x2="35.61" y2="51.38"/><line class="cls-2" x1="51.46" y1="51.38" x2="57.83" y2="51.38"/><path class="cls-2" d="M45.07,44.66c-3.15.1-4.72,1.54.12,1.42S48.7,44.54,45.07,44.66Z"/><path class="cls-2" d="M45.89,52.1c4.84-.11,3.51-1.54-.13-1.43C42.62,50.78,41.05,52.21,45.89,52.1Z"/><rect class="cls-1" x="-17.97" y="-9.69" width="53.58" height="53.58"/><line class="cls-2" x1="16.09" y1="0.6" x2="9.72" y2="0.6"/><line class="cls-2" x1="18.64" y1="0.6" x2="25.01" y2="0.6"/><line class="cls-2" x1="-4.77" y1="3.57" x2="1.6" y2="3.57"/><line class="cls-2" x1="4.15" y1="3.57" x2="10.52" y2="3.57"/><line class="cls-2" x1="21.98" y1="3.57" x2="28.35" y2="3.57"/><line class="cls-2" x1="30.9" y1="3.57" x2="35.61" y2="3.57"/><line class="cls-2" x1="5.38" y1="6.57" x2="11.75" y2="6.57"/><line class="cls-2" x1="14.3" y1="6.57" x2="20.67" y2="6.57"/><line class="cls-2" x1="32.13" y1="6.57" x2="35.61" y2="6.57"/><line class="cls-2" x1="2.08" y1="9.46" x2="-4.29" y2="9.46"/><line class="cls-2" x1="4.63" y1="9.46" x2="11" y2="9.46"/><line class="cls-2" x1="22.46" y1="9.46" x2="28.83" y2="9.46"/><line class="cls-2" x1="31.38" y1="9.46" x2="35.61" y2="9.46"/><line class="cls-2" x1="9.08" y1="12.65" x2="15.45" y2="12.65"/><line class="cls-2" x1="18" y1="12.65" x2="24.37" y2="12.65"/><line class="cls-2" x1="3.35" y1="15.62" x2="-3.02" y2="15.62"/><line class="cls-2" x1="5.9" y1="15.62" x2="12.27" y2="15.62"/><line class="cls-2" x1="23.73" y1="15.62" x2="30.1" y2="15.62"/><line class="cls-2" x1="32.65" y1="15.62" x2="35.61" y2="15.62"/><line class="cls-2" x1="16.73" y1="18.76" x2="10.36" y2="18.76"/><line class="cls-2" x1="19.28" y1="18.76" x2="25.64" y2="18.76"/><line class="cls-2" x1="7.65" y1="21.57" x2="1.28" y2="21.57"/><line class="cls-2" x1="25.49" y1="21.57" x2="19.12" y2="21.57"/><line class="cls-2" x1="28.03" y1="21.57" x2="34.4" y2="21.57"/><line class="cls-2" x1="9.24" y1="24.7" x2="15.61" y2="24.7"/><line class="cls-2" x1="18.16" y1="24.7" x2="24.53" y2="24.7"/><line class="cls-2" x1="-4.29" y1="27.67" x2="2.08" y2="27.67"/><line class="cls-2" x1="4.63" y1="27.67" x2="11" y2="27.67"/><line class="cls-2" x1="28.83" y1="27.67" x2="22.46" y2="27.67"/><line class="cls-2" x1="31.38" y1="27.67" x2="35.61" y2="27.67"/><line class="cls-2" x1="4.42" y1="30.64" x2="10.79" y2="30.64"/><line class="cls-2" x1="19.71" y1="30.64" x2="13.34" y2="30.64"/><line class="cls-2" x1="31.17" y1="30.64" x2="35.61" y2="30.64"/><line class="cls-2" x1="-3.34" y1="33.44" x2="3.03" y2="33.44"/><line class="cls-2" x1="5.58" y1="33.44" x2="11.95" y2="33.44"/><line class="cls-2" x1="23.41" y1="33.44" x2="29.78" y2="33.44"/><line class="cls-2" x1="32.33" y1="33.44" x2="35.61" y2="33.44"/><line class="cls-2" x1="17.05" y1="36.57" x2="10.68" y2="36.57"/><line class="cls-2" x1="25.96" y1="36.57" x2="19.59" y2="36.57"/><line class="cls-2" x1="6.72" y1="39.54" x2="0.36" y2="39.54"/><line class="cls-2" x1="15.64" y1="39.54" x2="9.27" y2="39.54"/><line class="cls-2" x1="33.47" y1="39.54" x2="27.11" y2="39.54"/><line class="cls-2" x1="17.37" y1="42.51" x2="11" y2="42.51"/><line class="cls-2" x1="26.28" y1="42.51" x2="19.91" y2="42.51"/><path class="cls-2" d="M4-.31C.82-.2-.75,1.23,4.09,1.12S7.6-.42,4-.31Z"/><path class="cls-2" d="M30.91,1.12C35.75,1,34.42-.42,30.79-.31,27.65-.2,26.07,1.23,30.91,1.12Z"/><path class="cls-2" d="M16.29,2.69c-3.14.11-4.72,1.54.12,1.43S19.92,2.58,16.29,2.69Z"/><path class="cls-2" d="M-.46,5.86C-3.61,6-5.18,7.4-.34,7.29S3.17,5.75-.46,5.86Z"/><path class="cls-2" d="M26.36,5.86c-3.15.11-4.72,1.54.12,1.43S30,5.75,26.36,5.86Z"/><path class="cls-2" d="M16.75,10.12c4.84-.11,3.51-1.54-.12-1.43C13.48,8.8,11.91,10.23,16.75,10.12Z"/><path class="cls-2" d="M3.14,11.86C0,12-1.58,13.4,3.26,13.29S6.77,11.75,3.14,11.86Z"/><path class="cls-2" d="M30,11.86c-3.15.11-4.72,1.54.12,1.43S33.59,11.75,30,11.86Z"/><path class="cls-2" d="M18.13,14.86c-3.15.11-4.72,1.54.12,1.43S21.76,14.75,18.13,14.86Z"/><path class="cls-2" d="M4.3,17.86c-3.14.11-4.72,1.54.12,1.43S7.93,17.75,4.3,17.86Z"/><path class="cls-2" d="M31.13,17.86c-3.15.11-4.72,1.54.12,1.43S34.76,17.75,31.13,17.86Z"/><path class="cls-2" d="M13.78,22.29c4.84-.11,3.5-1.54-.13-1.43C10.51,21,8.93,22.4,13.78,22.29Z"/><path class="cls-2" d="M3.76,25.45c4.84-.11,3.51-1.54-.12-1.43C.49,24.13-1.08,25.56,3.76,25.45Z"/><path class="cls-2" d="M30.58,25.45c4.84-.11,3.51-1.54-.12-1.43C27.31,24.13,25.74,25.56,30.58,25.45Z"/><path class="cls-2" d="M16.79,27c-3.14.11-4.72,1.54.12,1.43S20.42,26.91,16.79,27Z"/><path class="cls-2" d="M-1.27,31.29c4.84-.11,3.51-1.54-.12-1.43C-4.53,30-6.11,31.4-1.27,31.29Z"/><path class="cls-2" d="M25.55,31.29c4.85-.11,3.51-1.54-.12-1.43C22.29,30,20.71,31.4,25.55,31.29Z"/><path class="cls-2" d="M18,34.17c4.84-.11,3.51-1.54-.12-1.43C14.7,32.85,13.12,34.28,18,34.17Z"/><path class="cls-2" d="M4.76,37.29c4.84-.11,3.51-1.54-.12-1.43C1.49,36-.08,37.4,4.76,37.29Z"/><path class="cls-2" d="M31.46,35.86c-3.15.11-4.72,1.54.12,1.43S35.09,35.75,31.46,35.86Z"/><path class="cls-2" d="M21.51,40.29c4.84-.11,3.51-1.54-.12-1.43C18.24,39,16.67,40.4,21.51,40.29Z"/><path class="cls-2" d="M32.09,43.38c4.84-.11,3.51-1.54-.12-1.43C28.82,42.06,27.25,43.49,32.09,43.38Z"/><path class="cls-2" d="M5.26,43.33c4.84-.11,3.51-1.54-.12-1.43C2,42,.42,43.44,5.26,43.33Z"/><rect class="cls-1" x="-17.97" y="43.9" width="53.58" height="53.58"/><line class="cls-2" x1="-2.7" y1="45.28" x2="3.67" y2="45.28"/><line class="cls-2" x1="6.22" y1="45.28" x2="12.59" y2="45.28"/><line class="cls-2" x1="30.42" y1="45.28" x2="24.05" y2="45.28"/><line class="cls-2" x1="32.97" y1="45.28" x2="35.61" y2="45.28"/><line class="cls-2" x1="16.89" y1="48.41" x2="10.52" y2="48.41"/><line class="cls-2" x1="19.43" y1="48.41" x2="25.8" y2="48.41"/><line class="cls-2" x1="-2.12" y1="51.38" x2="4.24" y2="51.38"/><line class="cls-2" x1="6.79" y1="51.38" x2="13.16" y2="51.38"/><line class="cls-2" x1="24.63" y1="51.38" x2="30.99" y2="51.38"/><line class="cls-2" x1="33.54" y1="51.38" x2="35.61" y2="51.38"/><path class="cls-2" d="M18.3,44.66c-3.14.1-4.72,1.54.12,1.42S21.93,44.54,18.3,44.66Z"/><path class="cls-2" d="M4.81,47.78c-3.14.1-4.71,1.54.13,1.42S8.44,47.66,4.81,47.78Z"/><path class="cls-2" d="M31.64,47.78c-3.15.1-4.72,1.54.12,1.42S35.27,47.66,31.64,47.78Z"/><path class="cls-2" d="M19,50.67c-3.14.11-4.71,1.54.12,1.43S22.63,50.56,19,50.67Z"/><path class="cls-2" d="M4,53.28c-3.15.1-4.72,1.54.12,1.42S7.6,53.16,4,53.28Z"/><path class="cls-2" d="M30.91,54.7c4.84-.1,3.51-1.54-.12-1.42C27.65,53.38,26.07,54.82,30.91,54.7Z"/><rect class="cls-1" width="53.58" height="53.58"/></svg>