<svg id="Layer_1" data-name="Layer 1" xmlns="http://www.w3.org/2000/svg" width="53.58" height="53.58" viewBox="0 0 53.58 53.58"><defs><style>.cls-1,.cls-2{fill:none;}.cls-2{stroke:#231f20;stroke-width:0.3px;}</style></defs><title>Artboard 37</title><rect class="cls-1" x="20.73" y="-5.78" width="53.58" height="53.58"/><line class="cls-2" x1="22.76" y1="2.16" x2="20.73" y2="2.16"/><line class="cls-2" x1="25.34" y1="2.16" x2="26.7" y2="2.16"/><line class="cls-2" x1="31.71" y1="2.16" x2="26.7" y2="2.16"/><line class="cls-2" x1="34.25" y1="2.16" x2="40.62" y2="2.16"/><line class="cls-2" x1="44.56" y1="2.16" x2="49.54" y2="2.16"/><line class="cls-2" x1="44.56" y1="2.16" x2="43.17" y2="2.16"/><line class="cls-2" x1="52.09" y1="2.16" x2="58.46" y2="2.16"/><line class="cls-2" x1="28.04" y1="4.96" x2="21.67" y2="4.96"/><line class="cls-2" x1="36.96" y1="4.96" x2="30.59" y2="4.96"/><line class="cls-2" x1="45.88" y1="4.96" x2="39.51" y2="4.96"/><line class="cls-2" x1="54.79" y1="4.96" x2="48.42" y2="4.96"/><line class="cls-2" x1="22.44" y1="7.93" x2="20.73" y2="7.93"/><line class="cls-2" x1="25.02" y1="7.93" x2="26.08" y2="7.93"/><line class="cls-2" x1="26.08" y1="7.93" x2="31.39" y2="7.93"/><line class="cls-2" x1="40.3" y1="7.93" x2="33.94" y2="7.93"/><line class="cls-2" x1="44.12" y1="7.93" x2="42.85" y2="7.93"/><line class="cls-2" x1="44.12" y1="7.93" x2="49.22" y2="7.93"/><line class="cls-2" x1="51.77" y1="7.93" x2="58.14" y2="7.93"/><line class="cls-2" x1="25.97" y1="10.94" x2="20.73" y2="10.94"/><line class="cls-2" x1="34.89" y1="10.94" x2="28.52" y2="10.94"/><line class="cls-2" x1="37.44" y1="10.94" x2="43.81" y2="10.94"/><line class="cls-2" x1="52.72" y1="10.94" x2="46.35" y2="10.94"/><line class="cls-2" x1="22.92" y1="13.82" x2="20.73" y2="13.82"/><line class="cls-2" x1="31.86" y1="13.82" x2="25.5" y2="13.82"/><line class="cls-2" x1="34.41" y1="13.82" x2="35.57" y2="13.82"/><line class="cls-2" x1="40.78" y1="13.82" x2="35.57" y2="13.82"/><line class="cls-2" x1="49.7" y1="13.82" x2="43.33" y2="13.82"/><line class="cls-2" x1="53.53" y1="13.82" x2="52.25" y2="13.82"/><line class="cls-2" x1="58.61" y1="13.82" x2="53.53" y2="13.82"/><line class="cls-2" x1="27.41" y1="17.02" x2="21.04" y2="17.02"/><line class="cls-2" x1="36.32" y1="17.02" x2="29.95" y2="17.02"/><line class="cls-2" x1="45.24" y1="17.02" x2="38.87" y2="17.02"/><line class="cls-2" x1="47.79" y1="17.02" x2="54.16" y2="17.02"/><line class="cls-2" x1="24.19" y1="19.99" x2="20.73" y2="19.99"/><line class="cls-2" x1="33.14" y1="19.99" x2="26.77" y2="19.99"/><line class="cls-2" x1="35.69" y1="19.99" x2="36.72" y2="19.99"/><line class="cls-2" x1="42.06" y1="19.99" x2="36.72" y2="19.99"/><line class="cls-2" x1="44.6" y1="19.99" x2="50.97" y2="19.99"/><line class="cls-2" x1="54.74" y1="19.99" x2="53.52" y2="19.99"/><line class="cls-2" x1="22.31" y1="23.12" x2="28.68" y2="23.12"/><line class="cls-2" x1="37.6" y1="23.12" x2="31.23" y2="23.12"/><line class="cls-2" x1="46.51" y1="23.12" x2="40.15" y2="23.12"/><line class="cls-2" x1="55.43" y1="23.12" x2="49.06" y2="23.12"/><line class="cls-2" x1="23.71" y1="25.93" x2="20.73" y2="25.93"/><line class="cls-2" x1="32.66" y1="25.93" x2="26.29" y2="25.93"/><line class="cls-2" x1="35.21" y1="25.93" x2="41.58" y2="25.93"/><line class="cls-2" x1="44.13" y1="25.93" x2="50.49" y2="25.93"/><line class="cls-2" x1="53.04" y1="25.93" x2="59.41" y2="25.93"/><line class="cls-2" x1="27.57" y1="29.06" x2="21.2" y2="29.06"/><line class="cls-2" x1="36.48" y1="29.06" x2="30.11" y2="29.06"/><line class="cls-2" x1="45.4" y1="29.06" x2="39.03" y2="29.06"/><line class="cls-2" x1="47.95" y1="29.06" x2="54.32" y2="29.06"/><line class="cls-2" x1="22.92" y1="32.03" x2="20.73" y2="32.03"/><line class="cls-2" x1="31.86" y1="32.03" x2="25.5" y2="32.03"/><line class="cls-2" x1="40.78" y1="32.03" x2="34.41" y2="32.03"/><line class="cls-2" x1="43.33" y1="32.03" x2="49.7" y2="32.03"/><line class="cls-2" x1="52.25" y1="32.03" x2="58.61" y2="32.03"/><line class="cls-2" x1="20.73" y1="35" x2="22.07" y2="35"/><line class="cls-2" x1="26.77" y1="35" x2="22.07" y2="35"/><line class="cls-2" x1="29.32" y1="35" x2="35.69" y2="35"/><line class="cls-2" x1="39.47" y1="35" x2="38.23" y2="35"/><line class="cls-2" x1="44.6" y1="35" x2="39.47" y2="35"/><line class="cls-2" x1="53.52" y1="35" x2="47.15" y2="35"/><line class="cls-2" x1="20.73" y1="37.8" x2="23.87" y2="37.8"/><line class="cls-2" x1="32.82" y1="37.8" x2="26.45" y2="37.8"/><line class="cls-2" x1="35.37" y1="37.8" x2="41.74" y2="37.8"/><line class="cls-2" x1="44.28" y1="37.8" x2="50.65" y2="37.8"/><line class="cls-2" x1="53.2" y1="37.8" x2="59.57" y2="37.8"/><line class="cls-2" x1="29" y1="40.93" x2="22.63" y2="40.93"/><line class="cls-2" x1="37.92" y1="40.93" x2="31.55" y2="40.93"/><line class="cls-2" x1="46.83" y1="40.93" x2="40.46" y2="40.93"/><line class="cls-2" x1="55.75" y1="40.93" x2="49.38" y2="40.93"/><line class="cls-2" x1="25.46" y1="43.9" x2="20.73" y2="43.9"/><line class="cls-2" x1="28.04" y1="43.9" x2="34.41" y2="43.9"/><line class="cls-2" x1="36.96" y1="43.9" x2="43.33" y2="43.9"/><line class="cls-2" x1="45.88" y1="43.9" x2="52.25" y2="43.9"/><line class="cls-2" x1="29.32" y1="46.87" x2="22.95" y2="46.87"/><line class="cls-2" x1="38.23" y1="46.87" x2="31.86" y2="46.87"/><line class="cls-2" x1="47.15" y1="46.87" x2="40.78" y2="46.87"/><line class="cls-2" x1="56.07" y1="46.87" x2="49.7" y2="46.87"/><line class="cls-2" x1="26.67" y1="2.2" x2="26.7" y2="2.16"/><line class="cls-2" x1="26.7" y1="2.16" x2="27.75" y2="0.79"/><line class="cls-2" x1="44.56" y1="2.16" x2="45.61" y2="0.79"/><line class="cls-2" x1="44.52" y1="2.2" x2="44.56" y2="2.16"/><line class="cls-2" x1="40.9" y1="4.91" x2="41.98" y2="3.5"/><line class="cls-2" x1="22.94" y1="4.91" x2="24.03" y2="3.5"/><line class="cls-2" x1="44.12" y1="7.93" x2="45.19" y2="6.54"/><line class="cls-2" x1="44.11" y1="7.95" x2="44.12" y2="7.93"/><line class="cls-2" x1="26.07" y1="7.95" x2="26.08" y2="7.93"/><line class="cls-2" x1="26.08" y1="7.93" x2="27.15" y2="6.54"/><line class="cls-2" x1="48.76" y1="9.5" x2="47.67" y2="10.91"/><line class="cls-2" x1="29.78" y1="10.91" x2="30.86" y2="9.5"/><line class="cls-2" x1="53.53" y1="13.82" x2="53.5" y2="13.85"/><line class="cls-2" x1="54.59" y1="12.44" x2="53.53" y2="13.82"/><line class="cls-2" x1="35.55" y1="13.85" x2="35.57" y2="13.82"/><line class="cls-2" x1="36.63" y1="12.44" x2="35.57" y2="13.82"/><line class="cls-2" x1="50.11" y1="15.56" x2="49.03" y2="16.97"/><line class="cls-2" x1="31.21" y1="16.97" x2="32.3" y2="15.56"/><line class="cls-2" x1="36.71" y1="19.99" x2="36.72" y2="19.99"/><line class="cls-2" x1="37.8" y1="18.58" x2="36.72" y2="19.99"/><line class="cls-2" x1="41.48" y1="23.1" x2="42.57" y2="21.69"/><line class="cls-2" x1="23.63" y1="23.1" x2="24.72" y2="21.69"/><line class="cls-2" x1="27.65" y1="25.92" x2="28.74" y2="24.51"/><line class="cls-2" x1="45.53" y1="25.92" x2="46.61" y2="24.51"/><line class="cls-2" x1="40.26" y1="29.02" x2="41.34" y2="27.61"/><line class="cls-2" x1="22.42" y1="29.02" x2="23.51" y2="27.61"/><line class="cls-2" x1="28.03" y1="30.49" x2="26.95" y2="31.9"/><line class="cls-2" x1="44.8" y1="31.9" x2="45.88" y2="30.49"/><line class="cls-2" x1="40.55" y1="33.59" x2="39.47" y2="35"/><line class="cls-2" x1="39.47" y1="35" x2="39.47" y2="35"/><line class="cls-2" x1="22.07" y1="35" x2="22.07" y2="35"/><line class="cls-2" x1="23.16" y1="33.59" x2="22.07" y2="35"/><line class="cls-2" x1="46.68" y1="36.3" x2="45.59" y2="37.71"/><line class="cls-2" x1="28.7" y1="36.3" x2="27.61" y2="37.71"/><line class="cls-2" x1="32.82" y1="40.89" x2="33.91" y2="39.48"/><line class="cls-2" x1="51.78" y1="39.48" x2="50.7" y2="40.89"/><line class="cls-2" x1="42.03" y1="46.87" x2="43.12" y2="45.45"/><line class="cls-2" x1="24.1" y1="46.87" x2="25.18" y2="45.45"/><line class="cls-2" x1="48.36" y1="42.47" x2="47.28" y2="43.89"/><line class="cls-2" x1="30.3" y1="42.47" x2="29.22" y2="43.89"/><rect class="cls-1" x="20.73" y="47.81" width="53.58" height="53.58"/><line class="cls-2" x1="24.51" y1="49.64" x2="20.73" y2="49.64"/><line class="cls-2" x1="27.09" y1="49.64" x2="33.46" y2="49.64"/><line class="cls-2" x1="36" y1="49.64" x2="42.37" y2="49.64"/><line class="cls-2" x1="44.92" y1="49.64" x2="51.29" y2="49.64"/><line class="cls-2" x1="28.84" y1="52.77" x2="22.47" y2="52.77"/><line class="cls-2" x1="37.76" y1="52.77" x2="31.39" y2="52.77"/><line class="cls-2" x1="46.67" y1="52.77" x2="40.3" y2="52.77"/><line class="cls-2" x1="55.59" y1="52.77" x2="49.22" y2="52.77"/><line class="cls-2" x1="28.4" y1="49.58" x2="29.48" y2="48.16"/><line class="cls-2" x1="46.34" y1="49.58" x2="47.42" y2="48.16"/><line class="cls-2" x1="50.71" y1="52.76" x2="51.8" y2="51.35"/><line class="cls-2" x1="32.57" y1="52.76" x2="33.65" y2="51.35"/><rect class="cls-1" x="-32.85" y="-5.78" width="53.58" height="53.58"/><line class="cls-2" x1="-1.5" y1="2.16" x2="4.87" y2="2.16"/><line class="cls-2" x1="8.74" y1="2.16" x2="7.42" y2="2.16"/><line class="cls-2" x1="8.74" y1="2.16" x2="13.79" y2="2.16"/><line class="cls-2" x1="16.34" y1="2.16" x2="20.73" y2="2.16"/><line class="cls-2" x1="1.21" y1="4.96" x2="-5.16" y2="4.96"/><line class="cls-2" x1="10.13" y1="4.96" x2="3.76" y2="4.96"/><line class="cls-2" x1="19.04" y1="4.96" x2="12.67" y2="4.96"/><line class="cls-2" x1="-1.82" y1="7.93" x2="4.55" y2="7.93"/><line class="cls-2" x1="8.31" y1="7.93" x2="13.47" y2="7.93"/><line class="cls-2" x1="7.1" y1="7.93" x2="8.31" y2="7.93"/><line class="cls-2" x1="16.02" y1="7.93" x2="20.73" y2="7.93"/><line class="cls-2" x1="1.69" y1="10.94" x2="8.06" y2="10.94"/><line class="cls-2" x1="10.6" y1="10.94" x2="16.97" y2="10.94"/><line class="cls-2" x1="19.52" y1="10.94" x2="20.73" y2="10.94"/><line class="cls-2" x1="5.03" y1="13.82" x2="-0.06" y2="13.82"/><line class="cls-2" x1="13.95" y1="13.82" x2="7.58" y2="13.82"/><line class="cls-2" x1="16.49" y1="13.82" x2="17.71" y2="13.82"/><line class="cls-2" x1="17.71" y1="13.82" x2="20.73" y2="13.82"/><line class="cls-2" x1="-5.8" y1="17.02" x2="0.57" y2="17.02"/><line class="cls-2" x1="3.12" y1="17.02" x2="9.49" y2="17.02"/><line class="cls-2" x1="12.04" y1="17.02" x2="18.41" y2="17.02"/><line class="cls-2" x1="1.15" y1="19.99" x2="6.3" y2="19.99"/><line class="cls-2" x1="1.15" y1="19.99" x2="-0.06" y2="19.99"/><line class="cls-2" x1="8.85" y1="19.99" x2="15.22" y2="19.99"/><line class="cls-2" x1="17.77" y1="19.99" x2="19.09" y2="19.99"/><line class="cls-2" x1="19.09" y1="19.99" x2="20.73" y2="19.99"/><line class="cls-2" x1="1.85" y1="23.12" x2="-4.52" y2="23.12"/><line class="cls-2" x1="10.76" y1="23.12" x2="4.39" y2="23.12"/><line class="cls-2" x1="13.31" y1="23.12" x2="19.68" y2="23.12"/><line class="cls-2" x1="-0.54" y1="25.93" x2="5.83" y2="25.93"/><line class="cls-2" x1="8.37" y1="25.93" x2="14.74" y2="25.93"/><line class="cls-2" x1="17.29" y1="25.93" x2="20.73" y2="25.93"/><line class="cls-2" x1="-5.64" y1="29.06" x2="0.73" y2="29.06"/><line class="cls-2" x1="9.65" y1="29.06" x2="3.28" y2="29.06"/><line class="cls-2" x1="12.2" y1="29.06" x2="18.57" y2="29.06"/><line class="cls-2" x1="-1.34" y1="32.03" x2="5.03" y2="32.03"/><line class="cls-2" x1="7.58" y1="32.03" x2="13.95" y2="32.03"/><line class="cls-2" x1="16.49" y1="32.03" x2="20.73" y2="32.03"/><line class="cls-2" x1="3.7" y1="35" x2="2.48" y2="35"/><line class="cls-2" x1="3.7" y1="35" x2="8.85" y2="35"/><line class="cls-2" x1="11.4" y1="35" x2="17.77" y2="35"/><line class="cls-2" x1="20.73" y1="35" x2="20.32" y2="35"/><line class="cls-2" x1="-0.38" y1="37.8" x2="5.99" y2="37.8"/><line class="cls-2" x1="8.53" y1="37.8" x2="14.9" y2="37.8"/><line class="cls-2" x1="17.45" y1="37.8" x2="20.73" y2="37.8"/><line class="cls-2" x1="2.16" y1="40.93" x2="-4.2" y2="40.93"/><line class="cls-2" x1="11.08" y1="40.93" x2="4.71" y2="40.93"/><line class="cls-2" x1="13.63" y1="40.93" x2="20" y2="40.93"/><line class="cls-2" x1="1.21" y1="43.9" x2="7.58" y2="43.9"/><line class="cls-2" x1="10.13" y1="43.9" x2="16.49" y2="43.9"/><line class="cls-2" x1="19.04" y1="43.9" x2="20.73" y2="43.9"/><line class="cls-2" x1="2.48" y1="46.87" x2="-3.89" y2="46.87"/><line class="cls-2" x1="11.4" y1="46.87" x2="5.03" y2="46.87"/><line class="cls-2" x1="20.32" y1="46.87" x2="13.95" y2="46.87"/><line class="cls-2" x1="8.71" y1="2.2" x2="8.74" y2="2.16"/><line class="cls-2" x1="8.74" y1="2.16" x2="9.8" y2="0.79"/><line class="cls-2" x1="5.06" y1="4.91" x2="6.15" y2="3.5"/><line class="cls-2" x1="8.31" y1="7.93" x2="8.29" y2="7.95"/><line class="cls-2" x1="8.31" y1="7.93" x2="9.38" y2="6.54"/><line class="cls-2" x1="12.92" y1="9.5" x2="11.84" y2="10.91"/><line class="cls-2" x1="-0.06" y1="13.82" x2="-0.08" y2="13.85"/><line class="cls-2" x1="1.01" y1="12.44" x2="-0.06" y2="13.82"/><line class="cls-2" x1="17.71" y1="13.82" x2="18.78" y2="12.44"/><line class="cls-2" x1="17.71" y1="13.82" x2="17.69" y2="13.85"/><line class="cls-2" x1="14.24" y1="15.56" x2="13.15" y2="16.97"/><line class="cls-2" x1="1.15" y1="19.99" x2="2.24" y2="18.58"/><line class="cls-2" x1="1.15" y1="19.99" x2="1.15" y2="19.99"/><line class="cls-2" x1="19.09" y1="19.99" x2="20.17" y2="18.58"/><line class="cls-2" x1="19.09" y1="19.99" x2="19.09" y2="19.99"/><line class="cls-2" x1="5.71" y1="23.1" x2="6.8" y2="21.69"/><line class="cls-2" x1="10.65" y1="24.51" x2="9.57" y2="25.92"/><line class="cls-2" x1="5.65" y1="27.61" x2="4.57" y2="29.02"/><line class="cls-2" x1="9.99" y1="30.49" x2="8.9" y2="31.9"/><line class="cls-2" x1="3.7" y1="35" x2="4.78" y2="33.59"/><line class="cls-2" x1="3.7" y1="35" x2="3.69" y2="35"/><line class="cls-2" x1="9.88" y1="37.71" x2="10.97" y2="36.3"/><line class="cls-2" x1="11.42" y1="43.89" x2="12.51" y2="42.47"/><line class="cls-2" x1="6.32" y1="46.87" x2="7.41" y2="45.45"/><line class="cls-2" x1="16.36" y1="39.48" x2="15.28" y2="40.89"/><rect class="cls-1" x="-32.85" y="47.81" width="53.58" height="53.58"/><line class="cls-2" x1="0.25" y1="49.64" x2="6.62" y2="49.64"/><line class="cls-2" x1="9.17" y1="49.64" x2="15.54" y2="49.64"/><line class="cls-2" x1="20.73" y1="49.64" x2="18.09" y2="49.64"/><line class="cls-2" x1="2.01" y1="52.77" x2="-4.36" y2="52.77"/><line class="cls-2" x1="10.92" y1="52.77" x2="4.55" y2="52.77"/><line class="cls-2" x1="13.47" y1="52.77" x2="19.84" y2="52.77"/><line class="cls-2" x1="10.77" y1="49.58" x2="11.86" y2="48.16"/><line class="cls-2" x1="14.94" y1="52.76" x2="16.03" y2="51.35"/><rect class="cls-1" width="53.58" height="53.58"/></svg>