<svg id="Layer_1" data-name="Layer 1" xmlns="http://www.w3.org/2000/svg" width="53.58" height="53.58" viewBox="0 0 53.58 53.58"><defs><style>.cls-1,.cls-2{fill:none;}.cls-2{stroke:#231f20;stroke-width:0.3px;}</style></defs><title>Artboard 37</title><rect class="cls-1" x="10.5" y="-52.29" width="53.58" height="53.58"/><line class="cls-2" x1="19.08" y1="0.36" x2="12.71" y2="0.36"/><line class="cls-2" x1="28" y1="0.36" x2="21.63" y2="0.36"/><line class="cls-2" x1="36.92" y1="0.36" x2="30.55" y2="0.36"/><line class="cls-2" x1="45.83" y1="0.36" x2="39.46" y2="0.36"/><line class="cls-2" x1="54.75" y1="0.36" x2="48.38" y2="0.36"/><line class="cls-2" x1="49.67" y1="0.35" x2="49.68" y2="-1.34"/><line class="cls-2" x1="31.8" y1="0.35" x2="31.81" y2="-1.34"/><line class="cls-2" x1="13.86" y1="0.35" x2="13.87" y2="-1.34"/><rect class="cls-1" x="10.5" y="1.29" width="53.58" height="53.58"/><line class="cls-2" x1="14.27" y1="3.12" x2="10.5" y2="3.12"/><line class="cls-2" x1="16.85" y1="3.12" x2="23.22" y2="3.12"/><line class="cls-2" x1="25.77" y1="3.12" x2="32.14" y2="3.12"/><line class="cls-2" x1="34.69" y1="3.12" x2="41.06" y2="3.12"/><line class="cls-2" x1="43.6" y1="3.12" x2="49.97" y2="3.12"/><line class="cls-2" x1="52.52" y1="3.12" x2="58.89" y2="3.12"/><line class="cls-2" x1="18.6" y1="6.26" x2="12.24" y2="6.26"/><line class="cls-2" x1="27.52" y1="6.26" x2="21.15" y2="6.26"/><line class="cls-2" x1="36.44" y1="6.26" x2="30.07" y2="6.26"/><line class="cls-2" x1="45.35" y1="6.26" x2="38.99" y2="6.26"/><line class="cls-2" x1="54.27" y1="6.26" x2="47.9" y2="6.26"/><line class="cls-2" x1="12.52" y1="9.23" x2="10.5" y2="9.23"/><line class="cls-2" x1="15.1" y1="9.23" x2="16.43" y2="9.23"/><line class="cls-2" x1="21.47" y1="9.23" x2="16.43" y2="9.23"/><line class="cls-2" x1="24.02" y1="9.23" x2="30.39" y2="9.23"/><line class="cls-2" x1="34.29" y1="9.23" x2="32.94" y2="9.23"/><line class="cls-2" x1="34.29" y1="9.23" x2="39.3" y2="9.23"/><line class="cls-2" x1="41.85" y1="9.23" x2="48.22" y2="9.23"/><line class="cls-2" x1="52.06" y1="9.23" x2="57.14" y2="9.23"/><line class="cls-2" x1="52.06" y1="9.23" x2="50.77" y2="9.23"/><line class="cls-2" x1="17.81" y1="12.03" x2="11.44" y2="12.03"/><line class="cls-2" x1="26.73" y1="12.03" x2="20.36" y2="12.03"/><line class="cls-2" x1="35.64" y1="12.03" x2="29.27" y2="12.03"/><line class="cls-2" x1="44.56" y1="12.03" x2="38.19" y2="12.03"/><line class="cls-2" x1="53.48" y1="12.03" x2="47.11" y2="12.03"/><line class="cls-2" x1="12.2" y1="15" x2="10.5" y2="15"/><line class="cls-2" x1="15.83" y1="15" x2="21.15" y2="15"/><line class="cls-2" x1="14.78" y1="15" x2="15.83" y2="15"/><line class="cls-2" x1="30.07" y1="15" x2="23.7" y2="15"/><line class="cls-2" x1="33.87" y1="15" x2="38.99" y2="15"/><line class="cls-2" x1="33.87" y1="15" x2="32.62" y2="15"/><line class="cls-2" x1="41.53" y1="15" x2="47.9" y2="15"/><line class="cls-2" x1="51.64" y1="15" x2="56.82" y2="15"/><line class="cls-2" x1="50.45" y1="15" x2="51.64" y2="15"/><line class="cls-2" x1="15.74" y1="18.01" x2="10.5" y2="18.01"/><line class="cls-2" x1="24.66" y1="18.01" x2="18.29" y2="18.01"/><line class="cls-2" x1="27.2" y1="18.01" x2="33.57" y2="18.01"/><line class="cls-2" x1="42.49" y1="18.01" x2="36.12" y2="18.01"/><line class="cls-2" x1="45.04" y1="18.01" x2="51.41" y2="18.01"/><line class="cls-2" x1="12.68" y1="20.89" x2="10.5" y2="20.89"/><line class="cls-2" x1="21.63" y1="20.89" x2="15.26" y2="20.89"/><line class="cls-2" x1="24.18" y1="20.89" x2="25.31" y2="20.89"/><line class="cls-2" x1="30.55" y1="20.89" x2="25.31" y2="20.89"/><line class="cls-2" x1="39.46" y1="20.89" x2="33.09" y2="20.89"/><line class="cls-2" x1="48.38" y1="20.89" x2="43.27" y2="20.89"/><line class="cls-2" x1="43.27" y1="20.89" x2="42.01" y2="20.89"/><line class="cls-2" x1="57.3" y1="20.89" x2="50.93" y2="20.89"/><line class="cls-2" x1="17.17" y1="24.09" x2="10.8" y2="24.09"/><line class="cls-2" x1="26.09" y1="24.09" x2="19.72" y2="24.09"/><line class="cls-2" x1="35" y1="24.09" x2="28.64" y2="24.09"/><line class="cls-2" x1="37.55" y1="24.09" x2="43.92" y2="24.09"/><line class="cls-2" x1="46.47" y1="24.09" x2="52.84" y2="24.09"/><line class="cls-2" x1="13.95" y1="27.06" x2="10.5" y2="27.06"/><line class="cls-2" x1="22.9" y1="27.06" x2="16.53" y2="27.06"/><line class="cls-2" x1="31.82" y1="27.06" x2="26.48" y2="27.06"/><line class="cls-2" x1="25.45" y1="27.06" x2="26.48" y2="27.06"/><line class="cls-2" x1="34.37" y1="27.06" x2="40.74" y2="27.06"/><line class="cls-2" x1="44.5" y1="27.06" x2="49.65" y2="27.06"/><line class="cls-2" x1="44.5" y1="27.06" x2="43.28" y2="27.06"/><line class="cls-2" x1="52.2" y1="27.06" x2="58.57" y2="27.06"/><line class="cls-2" x1="12.08" y1="30.19" x2="18.45" y2="30.19"/><line class="cls-2" x1="27.36" y1="30.19" x2="20.99" y2="30.19"/><line class="cls-2" x1="36.28" y1="30.19" x2="29.91" y2="30.19"/><line class="cls-2" x1="45.2" y1="30.19" x2="38.83" y2="30.19"/><line class="cls-2" x1="54.11" y1="30.19" x2="47.74" y2="30.19"/><line class="cls-2" x1="13.48" y1="32.99" x2="10.5" y2="32.99"/><line class="cls-2" x1="22.43" y1="32.99" x2="16.06" y2="32.99"/><line class="cls-2" x1="24.97" y1="32.99" x2="31.34" y2="32.99"/><line class="cls-2" x1="33.89" y1="32.99" x2="40.26" y2="32.99"/><line class="cls-2" x1="42.81" y1="32.99" x2="49.18" y2="32.99"/><line class="cls-2" x1="51.72" y1="32.99" x2="58.09" y2="32.99"/><line class="cls-2" x1="17.33" y1="36.13" x2="10.96" y2="36.13"/><line class="cls-2" x1="26.25" y1="36.13" x2="19.88" y2="36.13"/><line class="cls-2" x1="35.16" y1="36.13" x2="28.79" y2="36.13"/><line class="cls-2" x1="37.71" y1="36.13" x2="44.08" y2="36.13"/><line class="cls-2" x1="53" y1="36.13" x2="46.63" y2="36.13"/><line class="cls-2" x1="10.5" y1="39.1" x2="12.68" y2="39.1"/><line class="cls-2" x1="15.26" y1="39.1" x2="21.63" y2="39.1"/><line class="cls-2" x1="30.55" y1="39.1" x2="24.18" y2="39.1"/><line class="cls-2" x1="33.09" y1="39.1" x2="39.46" y2="39.1"/><line class="cls-2" x1="42.01" y1="39.1" x2="48.38" y2="39.1"/><line class="cls-2" x1="50.93" y1="39.1" x2="57.3" y2="39.1"/><line class="cls-2" x1="11.83" y1="42.07" x2="10.5" y2="42.07"/><line class="cls-2" x1="16.53" y1="42.07" x2="11.83" y2="42.07"/><line class="cls-2" x1="25.45" y1="42.07" x2="19.08" y2="42.07"/><line class="cls-2" x1="34.37" y1="42.07" x2="29.23" y2="42.07"/><line class="cls-2" x1="29.23" y1="42.07" x2="28" y2="42.07"/><line class="cls-2" x1="43.28" y1="42.07" x2="36.92" y2="42.07"/><line class="cls-2" x1="47.04" y1="42.07" x2="52.2" y2="42.07"/><line class="cls-2" x1="47.04" y1="42.07" x2="45.83" y2="42.07"/><line class="cls-2" x1="13.64" y1="44.87" x2="10.5" y2="44.87"/><line class="cls-2" x1="22.58" y1="44.87" x2="16.22" y2="44.87"/><line class="cls-2" x1="25.13" y1="44.87" x2="31.5" y2="44.87"/><line class="cls-2" x1="34.05" y1="44.87" x2="40.42" y2="44.87"/><line class="cls-2" x1="42.97" y1="44.87" x2="49.33" y2="44.87"/><line class="cls-2" x1="51.88" y1="44.87" x2="58.25" y2="44.87"/><line class="cls-2" x1="18.76" y1="48" x2="12.39" y2="48"/><line class="cls-2" x1="27.68" y1="48" x2="21.31" y2="48"/><line class="cls-2" x1="36.6" y1="48" x2="30.23" y2="48"/><line class="cls-2" x1="45.51" y1="48" x2="39.14" y2="48"/><line class="cls-2" x1="54.43" y1="48" x2="48.06" y2="48"/><line class="cls-2" x1="10.5" y1="50.97" x2="15.23" y2="50.97"/><line class="cls-2" x1="17.81" y1="50.97" x2="24.18" y2="50.97"/><line class="cls-2" x1="26.73" y1="50.97" x2="33.09" y2="50.97"/><line class="cls-2" x1="35.64" y1="50.97" x2="42.01" y2="50.97"/><line class="cls-2" x1="44.56" y1="50.97" x2="50.93" y2="50.97"/><line class="cls-2" x1="53.48" y1="50.97" x2="59.84" y2="50.97"/><line class="cls-2" x1="18.16" y1="3.06" x2="18.17" y2="1.37"/><line class="cls-2" x1="36.1" y1="3.06" x2="36.11" y2="1.37"/><line class="cls-2" x1="40.48" y1="4.55" x2="40.48" y2="6.25"/><line class="cls-2" x1="22.34" y1="4.55" x2="22.33" y2="6.25"/><line class="cls-2" x1="16.43" y1="9.27" x2="16.43" y2="9.23"/><line class="cls-2" x1="16.43" y1="9.23" x2="16.44" y2="7.58"/><line class="cls-2" x1="34.29" y1="9.27" x2="34.29" y2="9.23"/><line class="cls-2" x1="34.29" y1="9.23" x2="34.3" y2="7.58"/><line class="cls-2" x1="52.06" y1="9.23" x2="52.07" y2="7.58"/><line class="cls-2" x1="52.06" y1="9.27" x2="52.06" y2="9.23"/><line class="cls-2" x1="48.41" y1="11.98" x2="48.42" y2="10.28"/><line class="cls-2" x1="30.66" y1="11.98" x2="30.67" y2="10.28"/><line class="cls-2" x1="12.7" y1="11.98" x2="12.71" y2="10.28"/><line class="cls-2" x1="51.64" y1="15" x2="51.64" y2="15.02"/><line class="cls-2" x1="51.64" y1="15" x2="51.65" y2="13.33"/><line class="cls-2" x1="33.87" y1="15" x2="33.88" y2="13.33"/><line class="cls-2" x1="33.87" y1="15.02" x2="33.87" y2="15"/><line class="cls-2" x1="15.83" y1="15.02" x2="15.83" y2="15"/><line class="cls-2" x1="15.83" y1="15" x2="15.84" y2="13.33"/><line class="cls-2" x1="37.44" y1="16.28" x2="37.44" y2="17.98"/><line class="cls-2" x1="19.54" y1="17.98" x2="19.55" y2="16.28"/><line class="cls-2" x1="43.28" y1="19.22" x2="43.27" y2="20.89"/><line class="cls-2" x1="43.27" y1="20.89" x2="43.27" y2="20.92"/><line class="cls-2" x1="25.32" y1="19.22" x2="25.31" y2="20.89"/><line class="cls-2" x1="25.31" y1="20.92" x2="25.31" y2="20.89"/><line class="cls-2" x1="38.8" y1="22.35" x2="38.79" y2="24.04"/><line class="cls-2" x1="20.98" y1="24.04" x2="20.99" y2="22.35"/><line class="cls-2" x1="26.48" y1="27.06" x2="26.48" y2="27.06"/><line class="cls-2" x1="26.49" y1="25.37" x2="26.48" y2="27.06"/><line class="cls-2" x1="44.5" y1="27.06" x2="44.5" y2="27.06"/><line class="cls-2" x1="44.5" y1="27.06" x2="44.51" y2="25.37"/><line class="cls-2" x1="49.06" y1="30.17" x2="49.07" y2="28.47"/><line class="cls-2" x1="31.25" y1="30.17" x2="31.26" y2="28.47"/><line class="cls-2" x1="13.4" y1="30.17" x2="13.41" y2="28.47"/><line class="cls-2" x1="17.43" y1="31.29" x2="17.42" y2="32.99"/><line class="cls-2" x1="35.29" y1="32.99" x2="35.3" y2="31.29"/><line class="cls-2" x1="52.93" y1="31.29" x2="52.92" y2="32.99"/><line class="cls-2" x1="47.93" y1="34.4" x2="47.92" y2="36.09"/><line class="cls-2" x1="30.02" y1="36.09" x2="30.03" y2="34.4"/><line class="cls-2" x1="12.19" y1="36.09" x2="12.2" y2="34.4"/><line class="cls-2" x1="16.71" y1="38.97" x2="16.72" y2="37.27"/><line class="cls-2" x1="34.56" y1="38.97" x2="34.57" y2="37.27"/><line class="cls-2" x1="52.26" y1="37.27" x2="52.25" y2="38.97"/><line class="cls-2" x1="47.04" y1="42.07" x2="47.05" y2="40.38"/><line class="cls-2" x1="29.24" y1="40.38" x2="29.23" y2="42.07"/><line class="cls-2" x1="11.83" y1="42.07" x2="11.84" y2="40.38"/><line class="cls-2" x1="53.23" y1="44.78" x2="53.24" y2="43.08"/><line class="cls-2" x1="35.36" y1="43.08" x2="35.36" y2="44.78"/><line class="cls-2" x1="17.38" y1="44.78" x2="17.38" y2="43.08"/><line class="cls-2" x1="22.58" y1="47.96" x2="22.59" y2="46.27"/><line class="cls-2" x1="40.47" y1="46.27" x2="40.46" y2="47.96"/><line class="cls-2" x1="49.67" y1="53.94" x2="49.68" y2="52.24"/><line class="cls-2" x1="31.8" y1="53.94" x2="31.81" y2="52.24"/><line class="cls-2" x1="13.86" y1="53.94" x2="13.87" y2="52.24"/><line class="cls-2" x1="37.05" y1="49.26" x2="37.04" y2="50.96"/><line class="cls-2" x1="18.99" y1="49.26" x2="18.98" y2="50.96"/><rect class="cls-1" x="-43.09" y="-52.29" width="53.58" height="53.58"/><line class="cls-2" x1="1.16" y1="0.36" x2="-5.2" y2="0.36"/><line class="cls-2" x1="10.08" y1="0.36" x2="3.71" y2="0.36"/><rect class="cls-1" x="-43.09" y="1.29" width="53.58" height="53.58"/><line class="cls-2" x1="-1.06" y1="3.12" x2="5.3" y2="3.12"/><line class="cls-2" x1="10.5" y1="3.12" x2="7.85" y2="3.12"/><line class="cls-2" x1="0.69" y1="6.26" x2="-5.68" y2="6.26"/><line class="cls-2" x1="3.24" y1="6.26" x2="9.6" y2="6.26"/><line class="cls-2" x1="-1.52" y1="9.23" x2="3.55" y2="9.23"/><line class="cls-2" x1="6.1" y1="9.23" x2="10.5" y2="9.23"/><line class="cls-2" x1="8.81" y1="12.03" x2="2.44" y2="12.03"/><line class="cls-2" x1="-1.94" y1="15" x2="3.24" y2="15"/><line class="cls-2" x1="5.78" y1="15" x2="10.5" y2="15"/><line class="cls-2" x1="0.37" y1="18.01" x2="6.74" y2="18.01"/><line class="cls-2" x1="9.28" y1="18.01" x2="10.5" y2="18.01"/><line class="cls-2" x1="3.71" y1="20.89" x2="-2.66" y2="20.89"/><line class="cls-2" x1="6.26" y1="20.89" x2="7.46" y2="20.89"/><line class="cls-2" x1="7.46" y1="20.89" x2="10.5" y2="20.89"/><line class="cls-2" x1="1.8" y1="24.09" x2="8.17" y2="24.09"/><line class="cls-2" x1="-1.38" y1="27.06" x2="4.99" y2="27.06"/><line class="cls-2" x1="8.85" y1="27.06" x2="10.5" y2="27.06"/><line class="cls-2" x1="7.53" y1="27.06" x2="8.85" y2="27.06"/><line class="cls-2" x1="0.53" y1="30.19" x2="-5.84" y2="30.19"/><line class="cls-2" x1="3.08" y1="30.19" x2="9.44" y2="30.19"/><line class="cls-2" x1="-1.86" y1="32.99" x2="4.51" y2="32.99"/><line class="cls-2" x1="7.06" y1="32.99" x2="10.5" y2="32.99"/><line class="cls-2" x1="1.96" y1="36.13" x2="8.33" y2="36.13"/><line class="cls-2" x1="-2.66" y1="39.1" x2="3.71" y2="39.1"/><line class="cls-2" x1="6.26" y1="39.1" x2="10.5" y2="39.1"/><line class="cls-2" x1="1.16" y1="42.07" x2="7.53" y2="42.07"/><line class="cls-2" x1="10.5" y1="42.07" x2="10.08" y2="42.07"/><line class="cls-2" x1="-1.7" y1="44.87" x2="4.67" y2="44.87"/><line class="cls-2" x1="7.22" y1="44.87" x2="10.5" y2="44.87"/><line class="cls-2" x1="0.85" y1="48" x2="-5.52" y2="48"/><line class="cls-2" x1="3.39" y1="48" x2="9.76" y2="48"/><line class="cls-2" x1="-0.11" y1="50.97" x2="6.26" y2="50.97"/><line class="cls-2" x1="8.81" y1="50.97" x2="10.5" y2="50.97"/><line class="cls-2" x1="0.54" y1="3.06" x2="0.55" y2="1.37"/><line class="cls-2" x1="4.71" y1="4.55" x2="4.7" y2="6.25"/><line class="cls-2" x1="1.61" y1="16.28" x2="1.6" y2="17.98"/><line class="cls-2" x1="7.46" y1="20.89" x2="7.46" y2="20.92"/><line class="cls-2" x1="7.46" y1="20.89" x2="7.46" y2="19.22"/><line class="cls-2" x1="2.92" y1="22.35" x2="2.91" y2="24.04"/><line class="cls-2" x1="8.85" y1="27.06" x2="8.86" y2="25.37"/><line class="cls-2" x1="8.85" y1="27.06" x2="8.85" y2="27.06"/><line class="cls-2" x1="1.19" y1="50.96" x2="1.2" y2="49.26"/><line class="cls-2" x1="5.05" y1="46.27" x2="5.04" y2="47.96"/><rect class="cls-1" width="53.58" height="53.58"/></svg>