<!-- Generator: Adobe Illustrator 22.1.0, SVG Export Plug-In  -->
<svg version="1.1"
     xmlns="http://www.w3.org/2000/svg" xmlns:xlink="http://www.w3.org/1999/xlink" xmlns:a="http://ns.adobe.com/AdobeSVGViewerExtensions/3.0/"
     x="0px" y="0px" width="54.1px" height="52.8px" viewBox="0 0 54.1 52.8" style="enable-background:new 0 0 54.1 52.8;"
     xml:space="preserve">
<style type="text/css">
    .st0{fill:none;stroke:#231F20;stroke-width:0.3;}
</style>
<defs>
</defs>
<line class="st0" x1="54.1" y1="9.7" x2="0" y2="9.7"/>
<line class="st0" x1="54.1" y1="11.3" x2="0" y2="11.3"/>
<line class="st0" x1="54.1" y1="12.9" x2="0" y2="12.9"/>
<line class="st0" x1="54.1" y1="14.5" x2="0" y2="14.5"/>
<line class="st0" x1="54.1" y1="16.1" x2="0" y2="16.1"/>
<line class="st0" x1="54.1" y1="17.6" x2="0" y2="17.6"/>
<line class="st0" x1="54.1" y1="19.2" x2="0" y2="19.2"/>
<line class="st0" x1="54.1" y1="20.8" x2="0" y2="20.8"/>
<line class="st0" x1="54.1" y1="22.4" x2="0" y2="22.4"/>
<line class="st0" x1="54.1" y1="24" x2="0" y2="24"/>
<line class="st0" x1="54.1" y1="25.6" x2="0" y2="25.6"/>
<line class="st0" x1="0" y1="0.2" x2="54.1" y2="0.2"/>
<line class="st0" x1="54.1" y1="1.7" x2="0" y2="1.7"/>
<line class="st0" x1="54.1" y1="3.3" x2="0" y2="3.3"/>
<line class="st0" x1="54.1" y1="4.9" x2="0" y2="4.9"/>
<line class="st0" x1="54.1" y1="6.5" x2="0" y2="6.5"/>
<line class="st0" x1="54.1" y1="8.1" x2="0" y2="8.1"/>
<line class="st0" x1="54.1" y1="27.2" x2="0" y2="27.2"/>
<line class="st0" x1="54.1" y1="28.8" x2="0" y2="28.8"/>
<line class="st0" x1="54.1" y1="30.4" x2="0" y2="30.4"/>
<line class="st0" x1="54.1" y1="32" x2="0" y2="32"/>
<line class="st0" x1="54.1" y1="33.6" x2="0" y2="33.6"/>
<line class="st0" x1="54.1" y1="35.1" x2="0" y2="35.1"/>
<line class="st0" x1="54.1" y1="36.7" x2="0" y2="36.7"/>
<line class="st0" x1="54.1" y1="38.3" x2="0" y2="38.3"/>
<line class="st0" x1="54.1" y1="39.9" x2="0" y2="39.9"/>
<line class="st0" x1="54.1" y1="41.5" x2="0" y2="41.5"/>
<line class="st0" x1="54.1" y1="43.1" x2="0" y2="43.1"/>
<line class="st0" x1="54.1" y1="44.7" x2="0" y2="44.7"/>
<line class="st0" x1="54.1" y1="46.3" x2="0" y2="46.3"/>
<line class="st0" x1="54.1" y1="47.9" x2="0" y2="47.9"/>
<line class="st0" x1="54.1" y1="49.5" x2="0" y2="49.5"/>
<line class="st0" x1="54.1" y1="51" x2="0" y2="51"/>
<line class="st0" x1="54.1" y1="52.6" x2="0" y2="52.6"/>
</svg>
