<svg id="Layer_1" data-name="Layer 1" xmlns="http://www.w3.org/2000/svg" width="54.13" height="54.13" viewBox="0 0 54.13 54.13"><defs><style>.cls-1,.cls-2{fill:none;}.cls-2{stroke:#231f20;stroke-width:0.3px;}</style></defs><title>Artboard 37</title><rect class="cls-1" x="4.02" y="-46.48" width="54.13" height="54.13"/><line class="cls-2" x1="58.14" y1="0.49" x2="4.02" y2="0.49"/><line class="cls-2" x1="58.14" y1="2.08" x2="4.02" y2="2.08"/><line class="cls-2" x1="58.14" y1="3.67" x2="4.02" y2="3.67"/><line class="cls-2" x1="58.14" y1="5.26" x2="4.02" y2="5.26"/><line class="cls-2" x1="58.14" y1="6.85" x2="4.02" y2="6.85"/><rect class="cls-1" x="4.02" y="7.64" width="54.13" height="54.13"/><line class="cls-2" x1="58.14" y1="18.03" x2="4.02" y2="18.03"/><line class="cls-2" x1="58.14" y1="19.62" x2="4.02" y2="19.62"/><line class="cls-2" x1="58.14" y1="21.21" x2="4.02" y2="21.21"/><line class="cls-2" x1="58.14" y1="22.8" x2="4.02" y2="22.8"/><line class="cls-2" x1="58.14" y1="24.39" x2="4.02" y2="24.39"/><line class="cls-2" x1="58.14" y1="25.98" x2="4.02" y2="25.98"/><line class="cls-2" x1="58.14" y1="27.57" x2="4.02" y2="27.57"/><line class="cls-2" x1="58.14" y1="29.16" x2="4.02" y2="29.16"/><line class="cls-2" x1="58.14" y1="30.75" x2="4.02" y2="30.75"/><line class="cls-2" x1="58.14" y1="32.34" x2="4.02" y2="32.34"/><line class="cls-2" x1="58.14" y1="33.94" x2="4.02" y2="33.94"/><line class="cls-2" x1="4.02" y1="8.49" x2="58.14" y2="8.49"/><line class="cls-2" x1="58.14" y1="10.08" x2="4.02" y2="10.08"/><line class="cls-2" x1="58.14" y1="11.67" x2="4.02" y2="11.67"/><line class="cls-2" x1="58.14" y1="13.26" x2="4.02" y2="13.26"/><line class="cls-2" x1="58.14" y1="14.85" x2="4.02" y2="14.85"/><line class="cls-2" x1="58.14" y1="16.44" x2="4.02" y2="16.44"/><line class="cls-2" x1="58.14" y1="35.53" x2="4.02" y2="35.53"/><line class="cls-2" x1="58.14" y1="37.12" x2="4.02" y2="37.12"/><line class="cls-2" x1="58.14" y1="38.71" x2="4.02" y2="38.71"/><line class="cls-2" x1="58.14" y1="40.3" x2="4.02" y2="40.3"/><line class="cls-2" x1="58.14" y1="41.89" x2="4.02" y2="41.89"/><line class="cls-2" x1="58.14" y1="43.48" x2="4.02" y2="43.48"/><line class="cls-2" x1="58.14" y1="45.07" x2="4.02" y2="45.07"/><line class="cls-2" x1="58.14" y1="46.66" x2="4.02" y2="46.66"/><line class="cls-2" x1="58.14" y1="48.25" x2="4.02" y2="48.25"/><line class="cls-2" x1="58.14" y1="49.84" x2="4.02" y2="49.84"/><line class="cls-2" x1="58.14" y1="51.43" x2="4.02" y2="51.43"/><line class="cls-2" x1="58.14" y1="53.02" x2="4.02" y2="53.02"/><rect class="cls-1" x="-50.11" y="-46.48" width="54.13" height="54.13"/><line class="cls-2" x1="4.02" y1="0.49" x2="-50.11" y2="0.49"/><line class="cls-2" x1="4.02" y1="2.08" x2="-50.11" y2="2.08"/><line class="cls-2" x1="4.02" y1="3.67" x2="-50.11" y2="3.67"/><line class="cls-2" x1="4.02" y1="5.26" x2="-50.11" y2="5.26"/><line class="cls-2" x1="4.02" y1="6.85" x2="-50.11" y2="6.85"/><rect class="cls-1" x="-50.11" y="7.64" width="54.13" height="54.13"/><line class="cls-2" x1="4.02" y1="18.03" x2="-50.11" y2="18.03"/><line class="cls-2" x1="4.02" y1="19.62" x2="-50.11" y2="19.62"/><line class="cls-2" x1="4.02" y1="21.21" x2="-50.11" y2="21.21"/><line class="cls-2" x1="4.02" y1="22.8" x2="-50.11" y2="22.8"/><line class="cls-2" x1="4.02" y1="24.39" x2="-50.11" y2="24.39"/><line class="cls-2" x1="4.02" y1="25.98" x2="-50.11" y2="25.98"/><line class="cls-2" x1="4.02" y1="27.57" x2="-50.11" y2="27.57"/><line class="cls-2" x1="4.02" y1="29.16" x2="-50.11" y2="29.16"/><line class="cls-2" x1="4.02" y1="30.75" x2="-50.11" y2="30.75"/><line class="cls-2" x1="4.02" y1="32.34" x2="-50.11" y2="32.34"/><line class="cls-2" x1="4.02" y1="33.94" x2="-50.11" y2="33.94"/><line class="cls-2" x1="-50.11" y1="8.49" x2="4.02" y2="8.49"/><line class="cls-2" x1="4.02" y1="10.08" x2="-50.11" y2="10.08"/><line class="cls-2" x1="4.02" y1="11.67" x2="-50.11" y2="11.67"/><line class="cls-2" x1="4.02" y1="13.26" x2="-50.11" y2="13.26"/><line class="cls-2" x1="4.02" y1="14.85" x2="-50.11" y2="14.85"/><line class="cls-2" x1="4.02" y1="16.44" x2="-50.11" y2="16.44"/><line class="cls-2" x1="4.02" y1="35.53" x2="-50.11" y2="35.53"/><line class="cls-2" x1="4.02" y1="37.12" x2="-50.11" y2="37.12"/><line class="cls-2" x1="4.02" y1="38.71" x2="-50.11" y2="38.71"/><line class="cls-2" x1="4.02" y1="40.3" x2="-50.11" y2="40.3"/><line class="cls-2" x1="4.02" y1="41.89" x2="-50.11" y2="41.89"/><line class="cls-2" x1="4.02" y1="43.48" x2="-50.11" y2="43.48"/><line class="cls-2" x1="4.02" y1="45.07" x2="-50.11" y2="45.07"/><line class="cls-2" x1="4.02" y1="46.66" x2="-50.11" y2="46.66"/><line class="cls-2" x1="4.02" y1="48.25" x2="-50.11" y2="48.25"/><line class="cls-2" x1="4.02" y1="49.84" x2="-50.11" y2="49.84"/><line class="cls-2" x1="4.02" y1="51.43" x2="-50.11" y2="51.43"/><line class="cls-2" x1="4.02" y1="53.02" x2="-50.11" y2="53.02"/><rect class="cls-1" width="53.9" height="53.9"/></svg>