<svg id="Layer_1" data-name="Layer 1" xmlns="http://www.w3.org/2000/svg" width="54.13" height="57.97" viewBox="0 0 54.13 57.97"><defs><style>.cls-1{fill:#231f20;}</style></defs><title>Artboard 42</title><polygon class="cls-1" points="-3.88 2.77 -3.88 2.93 -3.88 6.77 -3.88 6.93 50.25 6.93 104.37 6.93 104.37 6.77 104.37 2.93 104.37 2.77 50.25 2.77 -3.88 2.77"/><polygon class="cls-1" points="-3.88 0.57 -3.88 0.88 50.25 0.88 104.37 0.88 104.37 0.57 50.25 0.57 -3.88 0.57"/><polygon class="cls-1" points="-3.88 14.3 -3.88 18.3 50.25 18.3 104.37 18.3 104.37 14.3 50.25 14.3 -3.88 14.3"/><polygon class="cls-1" points="-3.88 56.9 -3.88 60.9 50.25 60.9 104.37 60.9 104.37 56.9 50.25 56.9 -3.88 56.9"/><polygon class="cls-1" points="-3.88 46.98 -3.88 51.48 50.25 51.48 104.37 51.48 104.37 46.98 50.25 46.98 -3.88 46.98"/><polygon class="cls-1" points="-3.88 40.73 -3.88 42.73 50.25 42.73 104.37 42.73 104.37 40.73 50.25 40.73 -3.88 40.73"/><polygon class="cls-1" points="-3.88 33.79 -3.88 35.79 50.25 35.79 104.37 35.79 104.37 33.79 50.25 33.79 -3.88 33.79"/><polygon class="cls-1" points="-3.88 29.39 -3.88 30.19 50.25 30.19 104.37 30.19 104.37 29.39 50.25 29.39 -3.88 29.39"/><polygon class="cls-1" points="-3.88 24.94 -3.88 25.64 50.25 25.64 104.37 25.64 104.37 24.94 50.25 24.94 -3.88 24.94"/><polygon class="cls-1" points="-3.88 9.33 -3.88 10.03 50.25 10.03 104.37 10.03 104.37 9.33 50.25 9.33 -3.88 9.33"/><polygon class="cls-1" points="-3.88 21.94 -3.88 22.64 50.25 22.64 104.37 22.64 104.37 21.94 50.25 21.94 -3.88 21.94"/><polygon class="cls-1" points="-3.88 38.19 -3.88 38.89 50.25 38.89 104.37 38.89 104.37 38.19 50.25 38.19 -3.88 38.19"/><polygon class="cls-1" points="-3.88 53.71 -3.88 54.11 50.25 54.11 104.37 54.11 104.37 53.71 50.25 53.71 -3.88 53.71"/><polygon class="cls-1" points="-3.88 43.96 -3.88 44.36 50.25 44.36 104.37 44.36 104.37 43.96 50.25 43.96 -3.88 43.96"/><polygon class="cls-1" points="-3.88 44.96 -3.88 45.36 50.25 45.36 104.37 45.36 104.37 44.96 50.25 44.96 -3.88 44.96"/><polygon class="cls-1" points="-3.88 37.09 -3.88 37.49 50.25 37.49 104.37 37.49 104.37 37.09 50.25 37.09 -3.88 37.09"/><polygon class="cls-1" points="-3.88 31.96 -3.88 32.36 50.25 32.36 104.37 32.36 104.37 31.96 50.25 31.96 -3.88 31.96"/><polygon class="cls-1" points="-3.88 24.21 -3.88 24.61 50.25 24.61 104.37 24.61 104.37 24.21 50.25 24.21 -3.88 24.21"/><polygon class="cls-1" points="-3.88 20.01 -3.88 20.31 50.25 20.31 104.37 20.31 104.37 20.01 50.25 20.01 -3.88 20.01"/><polygon class="cls-1" points="-3.88 21.01 -3.88 21.31 50.25 21.31 104.37 21.31 104.37 21.01 50.25 21.01 -3.88 21.01"/><polygon class="cls-1" points="-3.88 7.7 -3.88 8 50.25 8 104.37 8 104.37 7.7 50.25 7.7 -3.88 7.7"/><polygon class="cls-1" points="-3.88 27.39 -3.88 27.69 50.25 27.69 104.37 27.69 104.37 27.39 50.25 27.39 -3.88 27.39"/><polygon class="cls-1" points="-3.88 28.51 -3.88 28.81 50.25 28.81 104.37 28.81 104.37 28.51 50.25 28.51 -3.88 28.51"/><polygon class="cls-1" points="-3.88 54.7 -3.88 55 50.25 55 104.37 55 104.37 54.7 50.25 54.7 -3.88 54.7"/><polygon class="cls-1" points="-3.88 30.76 -3.88 31.06 50.25 31.06 104.37 31.06 104.37 30.76 50.25 30.76 -3.88 30.76"/><polygon class="cls-1" points="-3.88 39.64 -3.88 39.94 50.25 39.94 104.37 39.94 104.37 39.64 50.25 39.64 -3.88 39.64"/><polygon class="cls-1" points="-3.88 46.01 -3.88 46.31 50.25 46.31 104.37 46.31 104.37 46.01 50.25 46.01 -3.88 46.01"/><polygon class="cls-1" points="-3.88 52.14 -3.88 52.44 50.25 52.44 104.37 52.44 104.37 52.14 50.25 52.14 -3.88 52.14"/><polygon class="cls-1" points="-3.88 36.39 -3.88 36.69 50.25 36.69 104.37 36.69 104.37 36.39 50.25 36.39 -3.88 36.39"/><polygon class="cls-1" points="-3.88 12.85 -3.88 13.55 50.25 13.55 104.37 13.55 104.37 12.85 50.25 12.85 -3.88 12.85"/><polygon class="cls-1" points="-3.88 11.75 -3.88 12.15 50.25 12.15 104.37 12.15 104.37 11.75 50.25 11.75 -3.88 11.75"/><polygon class="cls-1" points="-3.88 10.65 -3.88 10.95 50.25 10.95 104.37 10.95 104.37 10.65 50.25 10.65 -3.88 10.65"/></svg>