<svg id="Layer_1" data-name="Layer 1" xmlns="http://www.w3.org/2000/svg" width="54.13" height="54.13" viewBox="0 0 54.13 54.13"><defs><style>.cls-1,.cls-2{fill:none;}.cls-2{stroke:#000;stroke-width:0.3px;}</style></defs><title>Artboard 37</title><rect class="cls-1" x="3.83" y="-35.04" width="54.13" height="54.13"/><line class="cls-2" x1="56.28" y1="2.63" x2="43.58" y2="2.63"/><line class="cls-2" x1="38.78" y1="2.63" x2="25.58" y2="2.63"/><line class="cls-2" x1="21.45" y1="2.63" x2="5.95" y2="2.63"/><line class="cls-2" x1="13.62" y1="5.63" x2="3.83" y2="5.63"/><line class="cls-2" x1="19.37" y1="5.63" x2="33.28" y2="5.63"/><line class="cls-2" x1="37.24" y1="5.63" x2="50.78" y2="5.63"/><line class="cls-2" x1="44.16" y1="8.5" x2="54.95" y2="8.5"/><line class="cls-2" x1="40.78" y1="8.5" x2="27.49" y2="8.5"/><line class="cls-2" x1="22.87" y1="8.5" x2="7.45" y2="8.5"/><line class="cls-2" x1="10.29" y1="11.75" x2="3.83" y2="11.75"/><line class="cls-2" x1="29.62" y1="11.75" x2="16.62" y2="11.75"/><line class="cls-2" x1="50.78" y1="11.75" x2="34.28" y2="11.75"/><line class="cls-2" x1="45.45" y1="14.63" x2="54.54" y2="14.63"/><line class="cls-2" x1="27.7" y1="14.63" x2="40.78" y2="14.63"/><line class="cls-2" x1="21.95" y1="14.63" x2="5.78" y2="14.63"/><line class="cls-2" x1="3.83" y1="17.75" x2="14.78" y2="17.75"/><line class="cls-2" x1="29.04" y1="17.75" x2="19.95" y2="17.75"/><line class="cls-2" x1="49.28" y1="17.75" x2="35.45" y2="17.75"/><line class="cls-2" x1="53.95" y1="5.63" x2="57.95" y2="5.63"/><line class="cls-2" x1="53.95" y1="17.75" x2="57.95" y2="17.75"/><line class="cls-2" x1="12.91" y1="2.59" x2="12.91" y2="0.25"/><line class="cls-2" x1="40.91" y1="3.25" x2="40.91" y2="5.59"/><line class="cls-2" x1="15.53" y1="8.44" x2="15.53" y2="6.1"/><line class="cls-2" x1="25.91" y1="11.69" x2="25.91" y2="9.35"/><line class="cls-2" x1="43.41" y1="15.23" x2="43.41" y2="17.56"/><line class="cls-2" x1="4.45" y1="11.63" x2="4.45" y2="9.29"/><rect class="cls-1" x="3.83" y="19.08" width="54.13" height="54.13"/><line class="cls-2" x1="22.03" y1="23.6" x2="22.03" y2="21.26"/><line class="cls-2" x1="4.78" y1="20.44" x2="18.54" y2="20.44"/><line class="cls-2" x1="23.62" y1="20.44" x2="36.66" y2="20.44"/><line class="cls-2" x1="41.28" y1="20.44" x2="56.12" y2="20.44"/><line class="cls-2" x1="14.45" y1="23.63" x2="3.83" y2="23.63"/><line class="cls-2" x1="32.45" y1="23.63" x2="19.45" y2="23.63"/><line class="cls-2" x1="51.95" y1="23.63" x2="37.58" y2="23.63"/><line class="cls-2" x1="20.79" y1="26.63" x2="5.95" y2="26.63"/><line class="cls-2" x1="26.45" y1="26.63" x2="39.78" y2="26.63"/><line class="cls-2" x1="43.62" y1="26.63" x2="56.66" y2="26.63"/><line class="cls-2" x1="31.28" y1="29.5" x2="10.45" y2="29.5"/><line class="cls-2" x1="41.12" y1="29.5" x2="57.78" y2="29.5"/><line class="cls-2" x1="56.45" y1="32.5" x2="43.12" y2="32.5"/><line class="cls-2" x1="39.12" y1="32.5" x2="23.62" y2="32.5"/><line class="cls-2" x1="18.41" y1="32.5" x2="5.45" y2="32.5"/><line class="cls-2" x1="11.62" y1="35.63" x2="3.83" y2="35.63"/><line class="cls-2" x1="17.83" y1="35.63" x2="30.62" y2="35.63"/><line class="cls-2" x1="35.7" y1="35.63" x2="51.62" y2="35.63"/><line class="cls-2" x1="41.24" y1="38.5" x2="28.74" y2="38.5"/><line class="cls-2" x1="44.74" y1="38.5" x2="55.49" y2="38.5"/><line class="cls-2" x1="23.45" y1="38.5" x2="5.28" y2="38.5"/><line class="cls-2" x1="13.62" y1="41.63" x2="3.83" y2="41.63"/><line class="cls-2" x1="30.12" y1="41.63" x2="17.58" y2="41.63"/><line class="cls-2" x1="33.62" y1="41.63" x2="50.12" y2="41.63"/><line class="cls-2" x1="45.74" y1="44.63" x2="55.78" y2="44.63"/><line class="cls-2" x1="21.45" y1="44.63" x2="41.12" y2="44.63"/><line class="cls-2" x1="4.12" y1="44.63" x2="16.41" y2="44.63"/><line class="cls-2" x1="12.95" y1="47.75" x2="3.83" y2="47.75"/><line class="cls-2" x1="33.28" y1="47.75" x2="18.79" y2="47.75"/><line class="cls-2" x1="50.66" y1="47.75" x2="39.45" y2="47.75"/><line class="cls-2" x1="41.45" y1="50.63" x2="56.28" y2="50.63"/><line class="cls-2" x1="23.45" y1="50.63" x2="36.78" y2="50.63"/><line class="cls-2" x1="17.95" y1="50.63" x2="6.45" y2="50.63"/><line class="cls-2" x1="3.83" y1="53.75" x2="10.78" y2="53.75"/><line class="cls-2" x1="27.95" y1="53.75" x2="15.33" y2="53.75"/><line class="cls-2" x1="33.33" y1="53.75" x2="48.62" y2="53.75"/><line class="cls-2" x1="53.95" y1="35.63" x2="57.95" y2="35.63"/><line class="cls-2" x1="53.83" y1="41.63" x2="57.95" y2="41.63"/><line class="cls-2" x1="51.45" y1="53.75" x2="57.95" y2="53.75"/><line class="cls-2" x1="34.28" y1="24.14" x2="34.28" y2="26.47"/><line class="cls-2" x1="33.41" y1="32.44" x2="33.41" y2="30.1"/><line class="cls-2" x1="14.16" y1="38.43" x2="14.16" y2="36.09"/><line class="cls-2" x1="31.91" y1="42.21" x2="31.91" y2="44.54"/><line class="cls-2" x1="52.78" y1="48.16" x2="52.78" y2="50.5"/><line class="cls-2" x1="53.66" y1="24.19" x2="53.66" y2="26.53"/><line class="cls-2" x1="43.78" y1="45.33" x2="43.78" y2="47.67"/><line class="cls-2" x1="21.78" y1="51.25" x2="21.78" y2="53.59"/><line class="cls-2" x1="43.28" y1="39.21" x2="43.28" y2="41.54"/><line class="cls-2" x1="8.16" y1="30.14" x2="8.16" y2="32.47"/><rect class="cls-1" x="-50.3" y="-35.04" width="54.13" height="54.13"/><line class="cls-2" x1="2.16" y1="2.63" x2="-10.55" y2="2.63"/><line class="cls-2" x1="-9.96" y1="8.5" x2="0.82" y2="8.5"/><line class="cls-2" x1="-8.67" y1="14.63" x2="0.41" y2="14.63"/><line class="cls-2" x1="-0.17" y1="5.63" x2="3.83" y2="5.63"/><line class="cls-2" x1="1.2" y1="11.75" x2="3.83" y2="11.75"/><line class="cls-2" x1="-0.17" y1="17.75" x2="3.83" y2="17.75"/><rect class="cls-1" x="-50.3" y="19.08" width="54.13" height="54.13"/><line class="cls-2" x1="-12.84" y1="20.44" x2="1.99" y2="20.44"/><line class="cls-2" x1="-10.51" y1="26.63" x2="2.54" y2="26.63"/><line class="cls-2" x1="-13" y1="29.5" x2="3.66" y2="29.5"/><line class="cls-2" x1="2.32" y1="32.5" x2="-11.01" y2="32.5"/><line class="cls-2" x1="-9.38" y1="38.5" x2="1.37" y2="38.5"/><line class="cls-2" x1="-8.38" y1="44.63" x2="1.66" y2="44.63"/><line class="cls-2" x1="-12.67" y1="50.63" x2="2.16" y2="50.63"/><line class="cls-2" x1="1.58" y1="23.63" x2="3.83" y2="23.63"/><line class="cls-2" x1="-0.17" y1="35.63" x2="3.83" y2="35.63"/><line class="cls-2" x1="-0.3" y1="41.63" x2="3.83" y2="41.63"/><line class="cls-2" x1="0.78" y1="47.75" x2="3.83" y2="47.75"/><line class="cls-2" x1="-2.67" y1="53.75" x2="3.83" y2="53.75"/><line class="cls-2" x1="3.16" y1="39.21" x2="3.16" y2="41.54"/><rect class="cls-1" width="54.13" height="54.13"/></svg>