<!-- Generator: Adobe Illustrator 22.1.0, SVG Export Plug-In  -->
<svg version="1.1"
     xmlns="http://www.w3.org/2000/svg" xmlns:xlink="http://www.w3.org/1999/xlink" xmlns:a="http://ns.adobe.com/AdobeSVGViewerExtensions/3.0/"
     x="0px" y="0px" width="54.1px" height="51.7px" viewBox="0 0 54.1 51.7" style="enable-background:new 0 0 54.1 51.7;"
     xml:space="preserve">
<style type="text/css">
    .st0{fill:none;stroke:#000000;stroke-width:0.3;}
</style>
<defs>
</defs>
<line class="st0" x1="18.2" y1="3.3" x2="18.2" y2="1"/>
<line class="st0" x1="1" y1="0.2" x2="14.7" y2="0.2"/>
<line class="st0" x1="19.8" y1="0.2" x2="32.8" y2="0.2"/>
<line class="st0" x1="37.5" y1="0.2" x2="52.3" y2="0.2"/>
<line class="st0" x1="10.6" y1="3.3" x2="0" y2="3.3"/>
<line class="st0" x1="28.6" y1="3.3" x2="15.6" y2="3.3"/>
<line class="st0" x1="48.1" y1="3.3" x2="33.8" y2="3.3"/>
<line class="st0" x1="17" y1="6.3" x2="2.1" y2="6.3"/>
<line class="st0" x1="22.6" y1="6.3" x2="36" y2="6.3"/>
<line class="st0" x1="39.8" y1="6.3" x2="52.8" y2="6.3"/>
<line class="st0" x1="27.5" y1="9.2" x2="6.6" y2="9.2"/>
<line class="st0" x1="37.3" y1="9.2" x2="54" y2="9.2"/>
<line class="st0" x1="52.6" y1="12.2" x2="39.3" y2="12.2"/>
<line class="st0" x1="35.3" y1="12.2" x2="19.8" y2="12.2"/>
<line class="st0" x1="14.6" y1="12.2" x2="1.6" y2="12.2"/>
<line class="st0" x1="7.8" y1="15.3" x2="0" y2="15.3"/>
<line class="st0" x1="14" y1="15.3" x2="26.8" y2="15.3"/>
<line class="st0" x1="31.9" y1="15.3" x2="47.8" y2="15.3"/>
<line class="st0" x1="37.4" y1="18.2" x2="24.9" y2="18.2"/>
<line class="st0" x1="40.9" y1="18.2" x2="51.7" y2="18.2"/>
<line class="st0" x1="19.6" y1="18.2" x2="1.5" y2="18.2"/>
<line class="st0" x1="9.8" y1="21.3" x2="0" y2="21.3"/>
<line class="st0" x1="26.3" y1="21.3" x2="13.8" y2="21.3"/>
<line class="st0" x1="29.8" y1="21.3" x2="46.3" y2="21.3"/>
<line class="st0" x1="41.9" y1="24.3" x2="52" y2="24.3"/>
<line class="st0" x1="17.6" y1="24.3" x2="37.3" y2="24.3"/>
<line class="st0" x1="0.3" y1="24.3" x2="12.6" y2="24.3"/>
<line class="st0" x1="9.1" y1="27.5" x2="0" y2="27.5"/>
<line class="st0" x1="29.5" y1="27.5" x2="15" y2="27.5"/>
<line class="st0" x1="46.8" y1="27.5" x2="35.6" y2="27.5"/>
<line class="st0" x1="37.6" y1="30.3" x2="52.5" y2="30.3"/>
<line class="st0" x1="19.6" y1="30.3" x2="33" y2="30.3"/>
<line class="st0" x1="14.1" y1="30.3" x2="2.6" y2="30.3"/>
<line class="st0" x1="0" y1="33.5" x2="7" y2="33.5"/>
<line class="st0" x1="24.1" y1="33.5" x2="11.5" y2="33.5"/>
<line class="st0" x1="29.5" y1="33.5" x2="44.8" y2="33.5"/>
<line class="st0" x1="52.5" y1="36.5" x2="39.8" y2="36.5"/>
<line class="st0" x1="35" y1="36.5" x2="21.8" y2="36.5"/>
<line class="st0" x1="17.6" y1="36.5" x2="2.1" y2="36.5"/>
<line class="st0" x1="9.8" y1="39.5" x2="0" y2="39.5"/>
<line class="st0" x1="15.5" y1="39.5" x2="29.5" y2="39.5"/>
<line class="st0" x1="33.4" y1="39.5" x2="47" y2="39.5"/>
<line class="st0" x1="40.3" y1="42.3" x2="51.1" y2="42.3"/>
<line class="st0" x1="37" y1="42.3" x2="23.7" y2="42.3"/>
<line class="st0" x1="19" y1="42.3" x2="3.6" y2="42.3"/>
<line class="st0" x1="6.5" y1="45.6" x2="0" y2="45.6"/>
<line class="st0" x1="25.8" y1="45.6" x2="12.8" y2="45.6"/>
<line class="st0" x1="47" y1="45.6" x2="30.5" y2="45.6"/>
<line class="st0" x1="41.6" y1="48.5" x2="50.7" y2="48.5"/>
<line class="st0" x1="23.9" y1="48.5" x2="37" y2="48.5"/>
<line class="st0" x1="18.1" y1="48.5" x2="2" y2="48.5"/>
<line class="st0" x1="0" y1="51.6" x2="11" y2="51.6"/>
<line class="st0" x1="25.2" y1="51.6" x2="16.1" y2="51.6"/>
<line class="st0" x1="45.5" y1="51.6" x2="31.6" y2="51.6"/>
<line class="st0" x1="51.9" y1="3.3" x2="54.1" y2="3.3"/>
<line class="st0" x1="50.1" y1="15.3" x2="54.1" y2="15.3"/>
<line class="st0" x1="50" y1="21.3" x2="54.1" y2="21.3"/>
<line class="st0" x1="51.1" y1="27.5" x2="54.1" y2="27.5"/>
<line class="st0" x1="47.6" y1="33.5" x2="54.1" y2="33.5"/>
<line class="st0" x1="50.1" y1="39.5" x2="54.1" y2="39.5"/>
<line class="st0" x1="51.5" y1="45.6" x2="54.1" y2="45.6"/>
<line class="st0" x1="50.1" y1="51.6" x2="54.1" y2="51.6"/>
<line class="st0" x1="30.5" y1="3.9" x2="30.5" y2="6.2"/>
<line class="st0" x1="29.6" y1="12.2" x2="29.6" y2="9.8"/>
<line class="st0" x1="10.3" y1="18.1" x2="10.3" y2="15.8"/>
<line class="st0" x1="28.1" y1="21.9" x2="28.1" y2="24.3"/>
<line class="st0" x1="49" y1="27.9" x2="49" y2="30.2"/>
<line class="st0" x1="9.1" y1="36.4" x2="9.1" y2="34.1"/>
<line class="st0" x1="49.8" y1="3.9" x2="49.8" y2="6.2"/>
<line class="st0" x1="40" y1="25" x2="40" y2="27.4"/>
<line class="st0" x1="18" y1="31" x2="18" y2="33.3"/>
<line class="st0" x1="37.1" y1="37.1" x2="37.1" y2="39.4"/>
<line class="st0" x1="11.7" y1="42.3" x2="11.7" y2="39.9"/>
<line class="st0" x1="22.1" y1="45.5" x2="22.1" y2="43.2"/>
<line class="st0" x1="39.6" y1="49.1" x2="39.6" y2="51.4"/>
<line class="st0" x1="39.5" y1="18.9" x2="39.5" y2="21.3"/>
<line class="st0" x1="53.5" y1="18.9" x2="53.5" y2="21.3"/>
<line class="st0" x1="0.6" y1="45.5" x2="0.6" y2="43.1"/>
<line class="st0" x1="4.3" y1="9.8" x2="4.3" y2="12.2"/>
</svg>
