<svg id="Layer_1" data-name="Layer 1" xmlns="http://www.w3.org/2000/svg" width="54.19" height="54.13" viewBox="0 0 54.19 54.13"><defs><style>.cls-1,.cls-2{fill:none;}.cls-1{stroke:#000;stroke-width:0.3px;}</style></defs><title>Artboard 37</title><line class="cls-1" x1="52.52" y1="8.92" x2="106.71" y2="8.92"/><line class="cls-1" x1="52.52" y1="12.69" x2="106.64" y2="12.69"/><line class="cls-1" x1="52.52" y1="2.08" x2="106.71" y2="2.08"/><line class="cls-1" x1="52.52" y1="5.3" x2="106.64" y2="5.3"/><line class="cls-1" x1="52.52" y1="20.48" x2="106.64" y2="20.48"/><line class="cls-1" x1="53.03" y1="2.13" x2="53.03" y2="5.29"/><line class="cls-1" x1="52.52" y1="17.1" x2="106.64" y2="17.1"/><rect class="cls-2" x="52.52" y="-32.81" width="54.13" height="54.13"/><line class="cls-1" x1="52.52" y1="25.07" x2="106.64" y2="25.07"/><line class="cls-1" x1="52.52" y1="29.24" x2="106.64" y2="29.24"/><line class="cls-1" x1="52.52" y1="33.43" x2="106.64" y2="33.43"/><line class="cls-1" x1="52.52" y1="37.45" x2="106.64" y2="37.45"/><line class="cls-1" x1="52.52" y1="40.73" x2="106.64" y2="40.73"/><line class="cls-1" x1="52.52" y1="44.15" x2="106.64" y2="44.15"/><line class="cls-1" x1="52.52" y1="48.2" x2="106.64" y2="48.2"/><line class="cls-1" x1="52.52" y1="52" x2="106.64" y2="52"/><rect class="cls-2" x="52.52" y="21.32" width="54.13" height="54.13"/><line class="cls-1" x1="-1.61" y1="8.92" x2="52.58" y2="8.92"/><line class="cls-1" x1="-1.61" y1="12.69" x2="52.52" y2="12.69"/><line class="cls-1" x1="-1.61" y1="2.08" x2="52.58" y2="2.08"/><line class="cls-1" x1="-1.61" y1="5.3" x2="52.52" y2="5.3"/><line class="cls-1" x1="-1.61" y1="20.48" x2="52.52" y2="20.48"/><line class="cls-1" x1="4.32" y1="20.47" x2="4.32" y2="21.32"/><line class="cls-1" x1="17.07" y1="20.47" x2="17.07" y2="21.32"/><line class="cls-1" x1="30.57" y1="20.47" x2="30.57" y2="21.32"/><line class="cls-1" x1="44.94" y1="20.47" x2="44.94" y2="21.32"/><line class="cls-1" x1="3.92" y1="-2.07" x2="3.92" y2="2.07"/><line class="cls-1" x1="16.92" y1="-2.07" x2="16.92" y2="2.07"/><line class="cls-1" x1="30.54" y1="-2.07" x2="30.54" y2="2.07"/><line class="cls-1" x1="44.79" y1="-2.07" x2="44.79" y2="2.07"/><line class="cls-1" x1="40.59" y1="2.13" x2="40.59" y2="5.29"/><line class="cls-1" x1="26.44" y1="2.13" x2="26.44" y2="5.29"/><line class="cls-1" x1="11.32" y1="2.13" x2="11.32" y2="5.29"/><line class="cls-1" x1="5.28" y1="5.35" x2="5.28" y2="8.92"/><line class="cls-1" x1="18.53" y1="5.35" x2="18.53" y2="8.92"/><line class="cls-1" x1="32.15" y1="5.35" x2="32.15" y2="8.92"/><line class="cls-1" x1="47.03" y1="5.35" x2="47.03" y2="8.92"/><line class="cls-1" x1="38.68" y1="8.97" x2="38.68" y2="12.73"/><line class="cls-1" x1="24.8" y1="8.97" x2="24.8" y2="12.73"/><line class="cls-1" x1="10.25" y1="8.97" x2="10.25" y2="12.73"/><line class="cls-1" x1="52.13" y1="8.97" x2="52.13" y2="12.73"/><line class="cls-1" x1="-1.61" y1="17.1" x2="52.52" y2="17.1"/><line class="cls-1" x1="8.69" y1="17.08" x2="8.69" y2="20.54"/><line class="cls-1" x1="23.13" y1="17.08" x2="23.13" y2="20.54"/><line class="cls-1" x1="36.75" y1="17.08" x2="36.75" y2="20.54"/><line class="cls-1" x1="50.13" y1="17.08" x2="50.13" y2="20.54"/><line class="cls-1" x1="2.96" y1="12.73" x2="2.96" y2="17.08"/><line class="cls-1" x1="15.96" y1="12.73" x2="15.96" y2="17.08"/><line class="cls-1" x1="29.96" y1="12.73" x2="29.96" y2="17.08"/><line class="cls-1" x1="44.53" y1="12.73" x2="44.53" y2="17.08"/><rect class="cls-2" x="-1.61" y="-32.81" width="54.13" height="54.13"/><line class="cls-1" x1="-1.61" y1="25.07" x2="52.52" y2="25.07"/><line class="cls-1" x1="-1.61" y1="29.24" x2="52.52" y2="29.24"/><line class="cls-1" x1="-1.61" y1="33.43" x2="52.52" y2="33.43"/><line class="cls-1" x1="-1.61" y1="37.45" x2="52.52" y2="37.45"/><line class="cls-1" x1="-1.61" y1="40.73" x2="52.52" y2="40.73"/><line class="cls-1" x1="-1.61" y1="44.15" x2="52.52" y2="44.15"/><line class="cls-1" x1="-1.61" y1="48.2" x2="52.52" y2="48.2"/><line class="cls-1" x1="-1.61" y1="52" x2="52.52" y2="52"/><line class="cls-1" x1="4.32" y1="21.32" x2="4.32" y2="25.07"/><line class="cls-1" x1="17.07" y1="21.32" x2="17.07" y2="25.07"/><line class="cls-1" x1="30.57" y1="21.32" x2="30.57" y2="25.07"/><line class="cls-1" x1="44.94" y1="21.32" x2="44.94" y2="25.07"/><line class="cls-1" x1="10.99" y1="25" x2="10.99" y2="29.23"/><line class="cls-1" x1="25.87" y1="25" x2="25.87" y2="29.23"/><line class="cls-1" x1="39.49" y1="25" x2="39.49" y2="29.23"/><line class="cls-1" x1="52.32" y1="25" x2="52.32" y2="29.23"/><line class="cls-1" x1="5.43" y1="29.37" x2="5.43" y2="33.42"/><line class="cls-1" x1="18.68" y1="29.37" x2="18.68" y2="33.42"/><line class="cls-1" x1="32.24" y1="29.37" x2="32.24" y2="33.42"/><line class="cls-1" x1="47.18" y1="29.37" x2="47.18" y2="33.42"/><line class="cls-1" x1="38.56" y1="33.42" x2="38.56" y2="37.42"/><line class="cls-1" x1="25.18" y1="33.42" x2="25.18" y2="37.42"/><line class="cls-1" x1="10.31" y1="33.42" x2="10.31" y2="37.42"/><line class="cls-1" x1="51.81" y1="33.42" x2="51.81" y2="37.42"/><line class="cls-1" x1="44.94" y1="37.42" x2="44.94" y2="40.72"/><line class="cls-1" x1="30.32" y1="37.42" x2="30.32" y2="40.72"/><line class="cls-1" x1="17.07" y1="37.42" x2="17.07" y2="40.72"/><line class="cls-1" x1="4.32" y1="37.42" x2="4.32" y2="40.72"/><line class="cls-1" x1="10.87" y1="40.72" x2="10.87" y2="44.14"/><line class="cls-1" x1="25.87" y1="40.72" x2="25.87" y2="44.14"/><line class="cls-1" x1="39.62" y1="40.72" x2="39.62" y2="44.14"/><line class="cls-1" x1="52.37" y1="40.72" x2="52.37" y2="44.14"/><line class="cls-1" x1="5.06" y1="44.14" x2="5.06" y2="48.19"/><line class="cls-1" x1="18.56" y1="44.14" x2="18.56" y2="48.19"/><line class="cls-1" x1="32.18" y1="44.14" x2="32.18" y2="48.19"/><line class="cls-1" x1="47.06" y1="44.14" x2="47.06" y2="48.19"/><line class="cls-1" x1="38.43" y1="48.25" x2="38.43" y2="51.99"/><line class="cls-1" x1="25.11" y1="48.25" x2="25.11" y2="51.99"/><line class="cls-1" x1="10.11" y1="48.25" x2="10.11" y2="51.99"/><line class="cls-1" x1="51.66" y1="48.25" x2="51.66" y2="51.99"/><line class="cls-1" x1="3.92" y1="52.05" x2="3.92" y2="56.19"/><line class="cls-1" x1="16.92" y1="52.05" x2="16.92" y2="56.19"/><line class="cls-1" x1="30.54" y1="52.05" x2="30.54" y2="56.19"/><line class="cls-1" x1="44.79" y1="52.05" x2="44.79" y2="56.19"/><rect class="cls-2" x="-1.61" y="21.32" width="54.13" height="54.13"/><rect class="cls-2" width="54.12" height="54.13"/></svg>