<svg id="Layer_1" data-name="Layer 1" xmlns="http://www.w3.org/2000/svg" width="56.2" height="54.13" viewBox="0 0 56.2 54.13"><defs><style>.cls-1,.cls-2{fill:none;}.cls-1{stroke:#000;stroke-width:0.3px;}</style></defs><title>Artboard 37</title><line class="cls-1" x1="45.19" y1="14.13" x2="99.38" y2="14.13"/><line class="cls-1" x1="45.19" y1="17.9" x2="99.32" y2="17.9"/><line class="cls-1" x1="45.19" y1="3.09" x2="99.32" y2="3.09"/><line class="cls-1" x1="45.19" y1="7.29" x2="99.38" y2="7.29"/><line class="cls-1" x1="45.19" y1="10.51" x2="99.32" y2="10.51"/><line class="cls-1" x1="45.19" y1="25.69" x2="99.32" y2="25.69"/><line class="cls-1" x1="51.12" y1="25.68" x2="51.12" y2="26.53"/><line class="cls-1" x1="50.72" y1="3.14" x2="50.72" y2="7.28"/><line class="cls-1" x1="45.7" y1="7.34" x2="45.7" y2="10.5"/><line class="cls-1" x1="52.08" y1="10.56" x2="52.08" y2="14.13"/><line class="cls-1" x1="45.19" y1="22.31" x2="99.32" y2="22.31"/><line class="cls-1" x1="55.49" y1="22.29" x2="55.49" y2="25.75"/><line class="cls-1" x1="49.77" y1="17.94" x2="49.77" y2="22.29"/><line class="cls-1" x1="53.38" y1="19.38" x2="51.51" y2="21"/><line class="cls-1" x1="56.69" y1="21.06" x2="55.57" y2="19.31"/><line class="cls-1" x1="48.07" y1="15.13" x2="46.19" y2="16.75"/><line class="cls-1" x1="50.88" y1="16.81" x2="49.76" y2="15.06"/><line class="cls-1" x1="55.44" y1="15.25" x2="53.07" y2="16.75"/><line class="cls-1" x1="55.88" y1="11.69" x2="54.01" y2="13.31"/><line class="cls-1" x1="47.57" y1="0.44" x2="45.69" y2="2.06"/><line class="cls-1" x1="50.88" y1="2.13" x2="49.76" y2="0.38"/><line class="cls-1" x1="55.44" y1="0.56" x2="53.07" y2="2.06"/><line class="cls-1" x1="48.82" y1="4.44" x2="46.44" y2="5.94"/><line class="cls-1" x1="54.07" y1="6" x2="52.19" y2="4.38"/><line class="cls-1" x1="57.38" y1="4.31" x2="56.26" y2="6.06"/><line class="cls-1" x1="49.39" y1="9.75" x2="47.52" y2="8.13"/><line class="cls-1" x1="52.57" y1="8.06" x2="51.45" y2="9.81"/><line class="cls-1" x1="56.57" y1="9.63" x2="54.19" y2="8.13"/><line class="cls-1" x1="46.07" y1="11.5" x2="44.94" y2="13.25"/><line class="cls-1" x1="50.63" y1="13.06" x2="48.26" y2="11.56"/><line class="cls-1" x1="46.47" y1="24.94" x2="44.59" y2="23.31"/><line class="cls-1" x1="49.78" y1="23.25" x2="48.66" y2="25"/><line class="cls-1" x1="54.09" y1="24.81" x2="51.72" y2="23.31"/><line class="cls-1" x1="47.88" y1="20.88" x2="45.51" y2="19.38"/><rect class="cls-2" x="45.19" y="-27.6" width="54.13" height="54.13"/><line class="cls-1" x1="45.19" y1="30.28" x2="99.32" y2="30.28"/><line class="cls-1" x1="45.19" y1="34.45" x2="99.32" y2="34.45"/><line class="cls-1" x1="45.19" y1="38.64" x2="99.32" y2="38.64"/><line class="cls-1" x1="45.19" y1="42.66" x2="99.32" y2="42.66"/><line class="cls-1" x1="45.19" y1="45.94" x2="99.32" y2="45.94"/><line class="cls-1" x1="45.19" y1="49.36" x2="99.32" y2="49.36"/><line class="cls-1" x1="45.19" y1="53.41" x2="99.32" y2="53.41"/><line class="cls-1" x1="51.12" y1="26.53" x2="51.12" y2="30.28"/><line class="cls-1" x1="52.23" y1="34.58" x2="52.23" y2="38.63"/><line class="cls-1" x1="51.12" y1="42.63" x2="51.12" y2="45.93"/><line class="cls-1" x1="51.86" y1="49.35" x2="51.86" y2="53.4"/><line class="cls-1" x1="56.26" y1="35.81" x2="54.38" y2="37.44"/><line class="cls-1" x1="50.44" y1="50.69" x2="48.94" y2="52.4"/><line class="cls-1" x1="48.82" y1="43.69" x2="46.44" y2="45.19"/><line class="cls-1" x1="49.38" y1="27.52" x2="47.01" y2="29.02"/><line class="cls-1" x1="46.63" y1="35.88" x2="45.51" y2="37.63"/><line class="cls-1" x1="50.45" y1="37.44" x2="48.07" y2="35.94"/><line class="cls-1" x1="48.05" y1="41.5" x2="46.18" y2="39.88"/><line class="cls-1" x1="50.87" y1="39.81" x2="49.74" y2="41.56"/><line class="cls-1" x1="55.43" y1="41.38" x2="53.05" y2="39.88"/><line class="cls-1" x1="54.44" y1="45.25" x2="52.57" y2="43.63"/><line class="cls-1" x1="48.66" y1="48.5" x2="46.78" y2="46.88"/><line class="cls-1" x1="51.32" y1="46.81" x2="50.19" y2="48.56"/><line class="cls-1" x1="55.88" y1="48.38" x2="53.51" y2="46.88"/><line class="cls-1" x1="55.44" y1="52.44" x2="53.57" y2="50.81"/><line class="cls-1" x1="54.51" y1="29.02" x2="52.63" y2="27.39"/><line class="cls-1" x1="48.56" y1="33.38" x2="46.68" y2="31.75"/><line class="cls-1" x1="51.32" y1="31.69" x2="50.19" y2="33.44"/><line class="cls-1" x1="55.88" y1="33.25" x2="53.51" y2="31.75"/><line class="cls-1" x1="47.01" y1="52.38" x2="45.88" y2="50.63"/><rect class="cls-2" x="45.19" y="26.53" width="54.13" height="54.13"/><line class="cls-1" x1="-8.93" y1="14.13" x2="45.26" y2="14.13"/><line class="cls-1" x1="-8.93" y1="17.9" x2="45.19" y2="17.9"/><line class="cls-1" x1="-8.93" y1="3.09" x2="45.19" y2="3.09"/><line class="cls-1" x1="-8.93" y1="7.29" x2="45.26" y2="7.29"/><line class="cls-1" x1="-8.93" y1="10.51" x2="45.19" y2="10.51"/><line class="cls-1" x1="-8.93" y1="25.69" x2="45.19" y2="25.69"/><line class="cls-1" x1="9.74" y1="25.68" x2="9.74" y2="26.53"/><line class="cls-1" x1="23.24" y1="25.68" x2="23.24" y2="26.53"/><line class="cls-1" x1="37.62" y1="25.68" x2="37.62" y2="26.53"/><line class="cls-1" x1="31.11" y1="-0.66" x2="31.11" y2="3.08"/><line class="cls-1" x1="17.78" y1="-0.66" x2="17.78" y2="3.08"/><line class="cls-1" x1="2.78" y1="-0.66" x2="2.78" y2="3.08"/><line class="cls-1" x1="44.34" y1="-0.66" x2="44.34" y2="3.08"/><line class="cls-1" x1="9.59" y1="3.14" x2="9.59" y2="7.28"/><line class="cls-1" x1="23.22" y1="3.14" x2="23.22" y2="7.28"/><line class="cls-1" x1="37.47" y1="3.14" x2="37.47" y2="7.28"/><line class="cls-1" x1="33.27" y1="7.34" x2="33.27" y2="10.5"/><line class="cls-1" x1="19.12" y1="7.34" x2="19.12" y2="10.5"/><line class="cls-1" x1="3.99" y1="7.34" x2="3.99" y2="10.5"/><line class="cls-1" x1="11.2" y1="10.56" x2="11.2" y2="14.13"/><line class="cls-1" x1="24.83" y1="10.56" x2="24.83" y2="14.13"/><line class="cls-1" x1="39.7" y1="10.56" x2="39.7" y2="14.13"/><line class="cls-1" x1="31.35" y1="14.18" x2="31.35" y2="17.94"/><line class="cls-1" x1="17.48" y1="14.18" x2="17.48" y2="17.94"/><line class="cls-1" x1="2.93" y1="14.18" x2="2.93" y2="17.94"/><line class="cls-1" x1="44.8" y1="14.18" x2="44.8" y2="17.94"/><line class="cls-1" x1="-8.93" y1="22.31" x2="45.19" y2="22.31"/><line class="cls-1" x1="1.37" y1="22.29" x2="1.37" y2="25.75"/><line class="cls-1" x1="15.8" y1="22.29" x2="15.8" y2="25.75"/><line class="cls-1" x1="29.43" y1="22.29" x2="29.43" y2="25.75"/><line class="cls-1" x1="42.8" y1="22.29" x2="42.8" y2="25.75"/><line class="cls-1" x1="8.64" y1="17.94" x2="8.64" y2="22.29"/><line class="cls-1" x1="22.64" y1="17.94" x2="22.64" y2="22.29"/><line class="cls-1" x1="37.2" y1="17.94" x2="37.2" y2="22.29"/><line class="cls-1" x1="2.57" y1="21.06" x2="1.44" y2="19.31"/><line class="cls-1" x1="7.13" y1="19.5" x2="4.76" y2="21"/><line class="cls-1" x1="5.69" y1="23.31" x2="3.82" y2="24.94"/><line class="cls-1" x1="9.01" y1="25" x2="7.88" y2="23.25"/><line class="cls-1" x1="13.57" y1="23.44" x2="11.19" y2="24.94"/><line class="cls-1" x1="32.94" y1="23.13" x2="31.07" y2="24.75"/><line class="cls-1" x1="36.26" y1="24.81" x2="35.13" y2="23.06"/><line class="cls-1" x1="40.82" y1="23.25" x2="38.44" y2="24.75"/><line class="cls-1" x1="27.07" y1="19.5" x2="25.19" y2="21.13"/><line class="cls-1" x1="30.38" y1="21.19" x2="29.26" y2="19.44"/><line class="cls-1" x1="34.94" y1="19.63" x2="32.57" y2="21.13"/><line class="cls-1" x1="21.69" y1="15.25" x2="19.82" y2="16.88"/><line class="cls-1" x1="25.01" y1="16.94" x2="23.88" y2="15.19"/><line class="cls-1" x1="29.57" y1="15.38" x2="27.19" y2="16.88"/><line class="cls-1" x1="1.32" y1="15.25" x2="-1.06" y2="16.75"/><line class="cls-1" x1="1.76" y1="11.69" x2="-0.12" y2="13.31"/><line class="cls-1" x1="5.07" y1="13.38" x2="3.94" y2="11.63"/><line class="cls-1" x1="9.63" y1="11.81" x2="7.26" y2="13.31"/><line class="cls-1" x1="29.13" y1="11.5" x2="27.26" y2="13.13"/><line class="cls-1" x1="32.44" y1="13.19" x2="31.32" y2="11.44"/><line class="cls-1" x1="37.01" y1="11.63" x2="34.63" y2="13.13"/><line class="cls-1" x1="36.94" y1="8.06" x2="35.07" y2="9.69"/><line class="cls-1" x1="39.91" y1="9.75" x2="38.78" y2="8"/><line class="cls-1" x1="43.87" y1="8.19" x2="41.49" y2="9.69"/><line class="cls-1" x1="8.82" y1="8.19" x2="6.94" y2="9.81"/><line class="cls-1" x1="12.13" y1="9.88" x2="11.01" y2="8.13"/><line class="cls-1" x1="16.69" y1="8.31" x2="14.32" y2="9.81"/><line class="cls-1" x1="13.57" y1="4.44" x2="11.69" y2="6.06"/><line class="cls-1" x1="16.88" y1="6.13" x2="15.76" y2="4.38"/><line class="cls-1" x1="21.44" y1="4.56" x2="19.07" y2="6.06"/><line class="cls-1" x1="21.57" y1="0.31" x2="19.69" y2="1.94"/><line class="cls-1" x1="24.88" y1="2" x2="23.76" y2="0.25"/><line class="cls-1" x1="29.44" y1="0.44" x2="27.07" y2="1.94"/><line class="cls-1" x1="1.32" y1="0.56" x2="-1.06" y2="2.06"/><line class="cls-1" x1="7.07" y1="2" x2="5.19" y2="0.38"/><line class="cls-1" x1="10.38" y1="0.31" x2="9.26" y2="2.06"/><line class="cls-1" x1="14.94" y1="1.88" x2="12.57" y2="0.38"/><line class="cls-1" x1="-0.06" y1="6" x2="-1.93" y2="4.38"/><line class="cls-1" x1="3.26" y1="4.31" x2="2.13" y2="6.06"/><line class="cls-1" x1="7.82" y1="5.88" x2="5.44" y2="4.38"/><line class="cls-1" x1="2.44" y1="9.63" x2="0.07" y2="8.13"/><line class="cls-1" x1="27.32" y1="6.13" x2="25.44" y2="4.5"/><line class="cls-1" x1="30.63" y1="4.44" x2="29.51" y2="6.19"/><line class="cls-1" x1="35.19" y1="6" x2="32.82" y2="4.5"/><line class="cls-1" x1="34.51" y1="2.13" x2="32.63" y2="0.5"/><line class="cls-1" x1="37.82" y1="0.44" x2="36.69" y2="2.19"/><line class="cls-1" x1="42.38" y1="2" x2="40.01" y2="0.5"/><line class="cls-1" x1="23.26" y1="9.81" x2="21.38" y2="8.19"/><line class="cls-1" x1="26.57" y1="8.13" x2="25.44" y2="9.88"/><line class="cls-1" x1="31.13" y1="9.69" x2="28.76" y2="8.19"/><line class="cls-1" x1="14.82" y1="13.31" x2="12.94" y2="11.69"/><line class="cls-1" x1="18.13" y1="11.63" x2="17.01" y2="13.38"/><line class="cls-1" x1="22.69" y1="13.19" x2="20.32" y2="11.69"/><line class="cls-1" x1="6.88" y1="16.94" x2="5.01" y2="15.31"/><line class="cls-1" x1="10.19" y1="15.25" x2="9.07" y2="17"/><line class="cls-1" x1="14.76" y1="16.81" x2="12.38" y2="15.31"/><line class="cls-1" x1="35.13" y1="16.94" x2="33.26" y2="15.31"/><line class="cls-1" x1="38.44" y1="15.25" x2="37.32" y2="17"/><line class="cls-1" x1="43.01" y1="16.81" x2="40.63" y2="15.31"/><line class="cls-1" x1="12.44" y1="21.06" x2="10.57" y2="19.44"/><line class="cls-1" x1="15.76" y1="19.38" x2="14.63" y2="21.13"/><line class="cls-1" x1="20.32" y1="20.94" x2="17.94" y2="19.44"/><line class="cls-1" x1="19.57" y1="25" x2="17.69" y2="23.38"/><line class="cls-1" x1="22.88" y1="23.31" x2="21.76" y2="25.06"/><line class="cls-1" x1="27.44" y1="24.88" x2="25.07" y2="23.38"/><line class="cls-1" x1="-0.03" y1="24.81" x2="-2.41" y2="23.31"/><line class="cls-1" x1="40.94" y1="4.31" x2="39.07" y2="5.94"/><line class="cls-1" x1="44.26" y1="6" x2="43.13" y2="4.25"/><line class="cls-1" x1="42.76" y1="13.19" x2="40.88" y2="11.56"/><line class="cls-1" x1="46.07" y1="11.5" x2="44.94" y2="13.25"/><line class="cls-1" x1="46.47" y1="24.94" x2="44.59" y2="23.31"/><line class="cls-1" x1="40.01" y1="21" x2="38.13" y2="19.38"/><line class="cls-1" x1="43.32" y1="19.31" x2="42.19" y2="21.06"/><rect class="cls-2" x="-8.93" y="-27.6" width="54.13" height="54.13"/><line class="cls-1" x1="-8.93" y1="30.28" x2="45.19" y2="30.28"/><line class="cls-1" x1="-8.93" y1="34.45" x2="45.19" y2="34.45"/><line class="cls-1" x1="-8.93" y1="38.64" x2="45.19" y2="38.64"/><line class="cls-1" x1="-8.93" y1="42.66" x2="45.19" y2="42.66"/><line class="cls-1" x1="-8.93" y1="45.94" x2="45.19" y2="45.94"/><line class="cls-1" x1="-8.93" y1="49.36" x2="45.19" y2="49.36"/><line class="cls-1" x1="-8.93" y1="53.41" x2="45.19" y2="53.41"/><line class="cls-1" x1="9.74" y1="26.53" x2="9.74" y2="30.28"/><line class="cls-1" x1="23.24" y1="26.53" x2="23.24" y2="30.28"/><line class="cls-1" x1="37.62" y1="26.53" x2="37.62" y2="30.28"/><line class="cls-1" x1="3.67" y1="30.21" x2="3.67" y2="34.44"/><line class="cls-1" x1="18.54" y1="30.21" x2="18.54" y2="34.44"/><line class="cls-1" x1="32.17" y1="30.21" x2="32.17" y2="34.44"/><line class="cls-1" x1="44.99" y1="30.21" x2="44.99" y2="34.44"/><line class="cls-1" x1="11.36" y1="34.58" x2="11.36" y2="38.63"/><line class="cls-1" x1="24.92" y1="34.58" x2="24.92" y2="38.63"/><line class="cls-1" x1="39.86" y1="34.58" x2="39.86" y2="38.63"/><line class="cls-1" x1="31.23" y1="38.63" x2="31.23" y2="42.63"/><line class="cls-1" x1="17.86" y1="38.63" x2="17.86" y2="42.63"/><line class="cls-1" x1="2.98" y1="38.63" x2="2.98" y2="42.63"/><line class="cls-1" x1="44.48" y1="38.63" x2="44.48" y2="42.63"/><line class="cls-1" x1="37.62" y1="42.63" x2="37.62" y2="45.93"/><line class="cls-1" x1="22.99" y1="42.63" x2="22.99" y2="45.93"/><line class="cls-1" x1="9.74" y1="42.63" x2="9.74" y2="45.93"/><line class="cls-1" x1="3.54" y1="45.93" x2="3.54" y2="49.35"/><line class="cls-1" x1="18.54" y1="45.93" x2="18.54" y2="49.35"/><line class="cls-1" x1="32.29" y1="45.93" x2="32.29" y2="49.35"/><line class="cls-1" x1="45.04" y1="45.93" x2="45.04" y2="49.35"/><line class="cls-1" x1="11.23" y1="49.35" x2="11.23" y2="53.4"/><line class="cls-1" x1="24.86" y1="49.35" x2="24.86" y2="53.4"/><line class="cls-1" x1="39.73" y1="49.35" x2="39.73" y2="53.4"/><line class="cls-1" x1="31.11" y1="53.46" x2="31.11" y2="57.2"/><line class="cls-1" x1="17.78" y1="53.46" x2="17.78" y2="57.2"/><line class="cls-1" x1="2.78" y1="53.46" x2="2.78" y2="57.2"/><line class="cls-1" x1="44.34" y1="53.46" x2="44.34" y2="57.2"/><line class="cls-1" x1="2.13" y1="35.81" x2="0.26" y2="37.44"/><line class="cls-1" x1="5.44" y1="37.5" x2="4.32" y2="35.75"/><line class="cls-1" x1="10.01" y1="35.94" x2="7.63" y2="37.44"/><line class="cls-1" x1="29.32" y1="35.81" x2="27.44" y2="37.44"/><line class="cls-1" x1="32.63" y1="37.5" x2="31.51" y2="35.75"/><line class="cls-1" x1="37.69" y1="35.94" x2="35.32" y2="37.44"/><line class="cls-1" x1="34.94" y1="39.94" x2="33.07" y2="41.56"/><line class="cls-1" x1="38.26" y1="41.63" x2="37.13" y2="39.88"/><line class="cls-1" x1="42.82" y1="40.06" x2="40.44" y2="41.56"/><line class="cls-1" x1="7.57" y1="39.81" x2="5.69" y2="41.44"/><line class="cls-1" x1="10.88" y1="41.5" x2="9.76" y2="39.75"/><line class="cls-1" x1="15.44" y1="39.94" x2="13.07" y2="41.44"/><line class="cls-1" x1="13.44" y1="43.44" x2="11.57" y2="45.06"/><line class="cls-1" x1="16.76" y1="45.13" x2="15.63" y2="43.38"/><line class="cls-1" x1="21.32" y1="43.56" x2="18.94" y2="45.06"/><line class="cls-1" x1="7.94" y1="46.94" x2="6.07" y2="48.56"/><line class="cls-1" x1="11.26" y1="48.63" x2="10.13" y2="46.88"/><line class="cls-1" x1="15.82" y1="47.06" x2="13.44" y2="48.56"/><line class="cls-1" x1="14.82" y1="50.56" x2="12.94" y2="52.19"/><line class="cls-1" x1="18.13" y1="52.25" x2="17.01" y2="50.5"/><line class="cls-1" x1="22.69" y1="50.69" x2="20.32" y2="52.19"/><line class="cls-1" x1="35.57" y1="46.81" x2="33.69" y2="48.44"/><line class="cls-1" x1="38.88" y1="48.5" x2="37.76" y2="46.75"/><line class="cls-1" x1="43.44" y1="46.94" x2="41.07" y2="48.44"/><line class="cls-1" x1="8.07" y1="31.56" x2="6.19" y2="33.19"/><line class="cls-1" x1="11.38" y1="33.25" x2="10.26" y2="31.5"/><line class="cls-1" x1="15.94" y1="31.69" x2="13.57" y2="33.19"/><line class="cls-1" x1="35.57" y1="31.69" x2="33.69" y2="33.31"/><line class="cls-1" x1="38.88" y1="33.38" x2="37.76" y2="31.63"/><line class="cls-1" x1="43.44" y1="31.81" x2="41.07" y2="33.31"/><line class="cls-1" x1="13.76" y1="27.39" x2="11.88" y2="29.02"/><line class="cls-1" x1="17.07" y1="29.08" x2="15.94" y2="27.33"/><line class="cls-1" x1="21.63" y1="27.52" x2="19.26" y2="29.02"/><line class="cls-1" x1="41.38" y1="27.46" x2="39.51" y2="29.08"/><line class="cls-1" x1="44.69" y1="29.14" x2="43.57" y2="27.39"/><line class="cls-1" x1="43.2" y1="37.56" x2="41.32" y2="35.94"/><line class="cls-1" x1="14.88" y1="37.56" x2="13.01" y2="35.94"/><line class="cls-1" x1="18.63" y1="35.94" x2="17.51" y2="37.69"/><line class="cls-1" x1="23.13" y1="37.5" x2="20.76" y2="36"/><line class="cls-1" x1="1.3" y1="41.38" x2="-1.07" y2="39.88"/><line class="cls-1" x1="21.63" y1="41.5" x2="19.76" y2="39.88"/><line class="cls-1" x1="24.94" y1="39.81" x2="23.82" y2="41.56"/><line class="cls-1" x1="29.51" y1="41.38" x2="27.13" y2="39.88"/><line class="cls-1" x1="27.19" y1="45.19" x2="25.32" y2="43.56"/><line class="cls-1" x1="30.51" y1="43.5" x2="29.38" y2="45.25"/><line class="cls-1" x1="35.07" y1="45.06" x2="32.69" y2="43.56"/><line class="cls-1" x1="22.57" y1="48.56" x2="20.69" y2="46.94"/><line class="cls-1" x1="25.88" y1="46.88" x2="24.76" y2="48.63"/><line class="cls-1" x1="30.44" y1="48.44" x2="28.07" y2="46.94"/><line class="cls-1" x1="0.32" y1="45.25" x2="-1.56" y2="43.63"/><line class="cls-1" x1="3.63" y1="43.56" x2="2.51" y2="45.31"/><line class="cls-1" x1="8.19" y1="45.13" x2="5.82" y2="43.63"/><line class="cls-1" x1="1.76" y1="48.38" x2="-0.62" y2="46.88"/><line class="cls-1" x1="1.32" y1="52.44" x2="-0.56" y2="50.81"/><line class="cls-1" x1="4.63" y1="50.75" x2="3.51" y2="52.5"/><line class="cls-1" x1="9.19" y1="52.31" x2="6.82" y2="50.81"/><line class="cls-1" x1="29.51" y1="52.44" x2="27.63" y2="50.81"/><line class="cls-1" x1="32.82" y1="50.75" x2="31.69" y2="52.5"/><line class="cls-1" x1="37.38" y1="52.31" x2="35.01" y2="50.81"/><line class="cls-1" x1="27.32" y1="29.27" x2="25.44" y2="27.64"/><line class="cls-1" x1="30.63" y1="27.58" x2="29.51" y2="29.33"/><line class="cls-1" x1="35.19" y1="29.14" x2="32.82" y2="27.64"/><line class="cls-1" x1="0.38" y1="29.02" x2="-1.49" y2="27.39"/><line class="cls-1" x1="3.69" y1="27.33" x2="2.57" y2="29.08"/><line class="cls-1" x1="8.26" y1="28.89" x2="5.88" y2="27.39"/><line class="cls-1" x1="1.76" y1="33.25" x2="-0.62" y2="31.75"/><line class="cls-1" x1="22.13" y1="33.31" x2="20.26" y2="31.69"/><line class="cls-1" x1="25.44" y1="31.63" x2="24.32" y2="33.38"/><line class="cls-1" x1="30.01" y1="33.19" x2="27.63" y2="31.69"/><line class="cls-1" x1="43.94" y1="50.69" x2="42.07" y2="52.31"/><line class="cls-1" x1="40.94" y1="43.56" x2="39.07" y2="45.19"/><line class="cls-1" x1="44.26" y1="45.25" x2="43.13" y2="43.5"/><rect class="cls-2" x="-8.93" y="26.53" width="54.13" height="54.13"/><rect class="cls-2" width="56.2" height="54.13"/></svg>