<!-- Generator: Adobe Illustrator 22.1.0, SVG Export Plug-In  -->
<svg version="1.1"
     xmlns="http://www.w3.org/2000/svg" xmlns:xlink="http://www.w3.org/1999/xlink" xmlns:a="http://ns.adobe.com/AdobeSVGViewerExtensions/3.0/"
     x="0px" y="0px" width="56.2px" height="54.1px" viewBox="0 0 56.2 54.1" style="enable-background:new 0 0 56.2 54.1;"
     xml:space="preserve">
<style type="text/css">
    .st0{clip-path:url(#SVGID_2_);fill:none;stroke:#000000;stroke-width:0.3;}
    .st1{clip-path:url(#SVGID_4_);fill:none;stroke:#000000;stroke-width:0.3;}
</style>
<defs>
</defs>
<g>
    <defs>
        <rect id="SVGID_1_" x="0.7" width="54.1" height="54.1"/>
    </defs>
    <clipPath id="SVGID_2_">
        <use xlink:href="#SVGID_1_"  style="overflow:visible;"/>
    </clipPath>
    <line class="st0" x1="0.7" y1="3.8" x2="54.8" y2="3.8"/>
    <line class="st0" x1="0.7" y1="7.9" x2="54.8" y2="7.9"/>
    <line class="st0" x1="0.7" y1="12.1" x2="54.8" y2="12.1"/>
    <line class="st0" x1="0.7" y1="41.7" x2="54.9" y2="41.7"/>
    <line class="st0" x1="0.7" y1="45.5" x2="54.8" y2="45.5"/>
    <line class="st0" x1="0.7" y1="16.1" x2="54.8" y2="16.1"/>
    <line class="st0" x1="0.7" y1="19.4" x2="54.8" y2="19.4"/>
    <line class="st0" x1="0.7" y1="22.8" x2="54.8" y2="22.8"/>
    <line class="st0" x1="0.7" y1="26.9" x2="54.8" y2="26.9"/>
    <line class="st0" x1="0.7" y1="30.7" x2="54.8" y2="30.7"/>
    <line class="st0" x1="0.7" y1="34.9" x2="54.9" y2="34.9"/>
    <line class="st0" x1="0.7" y1="38.1" x2="54.8" y2="38.1"/>
    <line class="st0" x1="0.7" y1="53.3" x2="54.8" y2="53.3"/>
    <line class="st0" x1="6.6" y1="0" x2="6.6" y2="3.8"/>
    <line class="st0" x1="19.4" y1="0" x2="19.4" y2="3.8"/>
    <line class="st0" x1="32.9" y1="0" x2="32.9" y2="3.8"/>
    <line class="st0" x1="47.2" y1="0" x2="47.2" y2="3.8"/>
    <line class="st0" x1="6.6" y1="53.3" x2="6.6" y2="54.1"/>
    <line class="st0" x1="19.4" y1="53.3" x2="19.4" y2="54.1"/>
    <line class="st0" x1="32.9" y1="53.3" x2="32.9" y2="54.1"/>
    <line class="st0" x1="47.2" y1="53.3" x2="47.2" y2="54.1"/>
    <line class="st0" x1="13.3" y1="3.7" x2="13.3" y2="7.9"/>
    <line class="st0" x1="28.2" y1="3.7" x2="28.2" y2="7.9"/>
    <line class="st0" x1="41.8" y1="3.7" x2="41.8" y2="7.9"/>
    <line class="st0" x1="54.6" y1="3.7" x2="54.6" y2="7.9"/>
    <line class="st0" x1="7.7" y1="8.1" x2="7.7" y2="12.1"/>
    <line class="st0" x1="21" y1="8.1" x2="21" y2="12.1"/>
    <line class="st0" x1="34.5" y1="8.1" x2="34.5" y2="12.1"/>
    <line class="st0" x1="49.5" y1="8.1" x2="49.5" y2="12.1"/>
    <line class="st0" x1="40.9" y1="12.1" x2="40.9" y2="16.1"/>
    <line class="st0" x1="27.5" y1="12.1" x2="27.5" y2="16.1"/>
    <line class="st0" x1="12.6" y1="12.1" x2="12.6" y2="16.1"/>
    <line class="st0" x1="54.1" y1="12.1" x2="54.1" y2="16.1"/>
    <line class="st0" x1="47.2" y1="16.1" x2="47.2" y2="19.4"/>
    <line class="st0" x1="32.6" y1="16.1" x2="32.6" y2="19.4"/>
    <line class="st0" x1="19.4" y1="16.1" x2="19.4" y2="19.4"/>
    <line class="st0" x1="6.6" y1="16.1" x2="6.6" y2="19.4"/>
    <line class="st0" x1="13.2" y1="19.4" x2="13.2" y2="22.8"/>
    <line class="st0" x1="28.2" y1="19.4" x2="28.2" y2="22.8"/>
    <line class="st0" x1="41.9" y1="19.4" x2="41.9" y2="22.8"/>
    <line class="st0" x1="54.7" y1="19.4" x2="54.7" y2="22.8"/>
    <line class="st0" x1="7.4" y1="22.8" x2="7.4" y2="26.9"/>
    <line class="st0" x1="20.9" y1="22.8" x2="20.9" y2="26.9"/>
    <line class="st0" x1="34.5" y1="22.8" x2="34.5" y2="26.9"/>
    <line class="st0" x1="49.4" y1="22.8" x2="49.4" y2="26.9"/>
    <line class="st0" x1="40.7" y1="26.9" x2="40.7" y2="30.7"/>
    <line class="st0" x1="27.4" y1="26.9" x2="27.4" y2="30.7"/>
    <line class="st0" x1="12.4" y1="26.9" x2="12.4" y2="30.7"/>
    <line class="st0" x1="54" y1="26.9" x2="54" y2="30.7"/>
    <line class="st0" x1="6.2" y1="30.7" x2="6.2" y2="34.9"/>
    <line class="st0" x1="19.2" y1="30.7" x2="19.2" y2="34.9"/>
    <line class="st0" x1="32.8" y1="30.7" x2="32.8" y2="34.9"/>
    <line class="st0" x1="47.1" y1="30.7" x2="47.1" y2="34.9"/>
    <line class="st0" x1="42.9" y1="34.9" x2="42.9" y2="38.1"/>
    <line class="st0" x1="28.7" y1="34.9" x2="28.7" y2="38.1"/>
    <line class="st0" x1="13.6" y1="34.9" x2="13.6" y2="38.1"/>
    <line class="st0" x1="1.2" y1="34.9" x2="1.2" y2="38.1"/>
    <line class="st0" x1="7.6" y1="38.2" x2="7.6" y2="41.7"/>
    <line class="st0" x1="20.8" y1="38.2" x2="20.8" y2="41.7"/>
    <line class="st0" x1="34.5" y1="38.2" x2="34.5" y2="41.7"/>
    <line class="st0" x1="49.3" y1="38.2" x2="49.3" y2="41.7"/>
    <line class="st0" x1="41" y1="41.8" x2="41" y2="45.5"/>
    <line class="st0" x1="27.1" y1="41.8" x2="27.1" y2="45.5"/>
    <line class="st0" x1="12.6" y1="41.8" x2="12.6" y2="45.5"/>
    <line class="st0" x1="54.4" y1="41.8" x2="54.4" y2="45.5"/>
    <line class="st0" x1="0.7" y1="49.9" x2="54.8" y2="49.9"/>
    <line class="st0" x1="11" y1="49.9" x2="11" y2="53.4"/>
    <line class="st0" x1="25.4" y1="49.9" x2="25.4" y2="53.4"/>
    <line class="st0" x1="39.1" y1="49.9" x2="39.1" y2="53.4"/>
    <line class="st0" x1="52.4" y1="49.9" x2="52.4" y2="53.4"/>
    <line class="st0" x1="5.3" y1="45.5" x2="5.3" y2="49.9"/>
    <line class="st0" x1="18.3" y1="45.5" x2="18.3" y2="49.9"/>
    <line class="st0" x1="32.3" y1="45.5" x2="32.3" y2="49.9"/>
    <line class="st0" x1="46.8" y1="45.5" x2="46.8" y2="49.9"/>
    <line class="st0" x1="11.8" y1="9.3" x2="9.9" y2="10.9"/>
    <line class="st0" x1="15.1" y1="11" x2="13.9" y2="9.2"/>
    <line class="st0" x1="19.6" y1="9.4" x2="17.3" y2="10.9"/>
    <line class="st0" x1="38.9" y1="9.3" x2="37.1" y2="10.9"/>
    <line class="st0" x1="42.3" y1="11" x2="41.1" y2="9.2"/>
    <line class="st0" x1="47.3" y1="9.4" x2="44.9" y2="10.9"/>
    <line class="st0" x1="44.6" y1="13.4" x2="42.7" y2="15"/>
    <line class="st0" x1="47.9" y1="15.1" x2="46.8" y2="13.4"/>
    <line class="st0" x1="52.4" y1="13.5" x2="50.1" y2="15"/>
    <line class="st0" x1="17.2" y1="13.3" x2="15.3" y2="14.9"/>
    <line class="st0" x1="20.5" y1="15" x2="19.4" y2="13.2"/>
    <line class="st0" x1="25.1" y1="13.4" x2="22.7" y2="14.9"/>
    <line class="st0" x1="23.1" y1="16.9" x2="21.2" y2="18.5"/>
    <line class="st0" x1="26.4" y1="18.6" x2="25.3" y2="16.9"/>
    <line class="st0" x1="30.9" y1="17" x2="28.6" y2="18.5"/>
    <line class="st0" x1="8.9" y1="47" x2="7" y2="48.6"/>
    <line class="st0" x1="12.2" y1="48.7" x2="11.1" y2="46.9"/>
    <line class="st0" x1="16.8" y1="47.1" x2="14.4" y2="48.6"/>
    <line class="st0" x1="15.3" y1="50.9" x2="13.4" y2="52.5"/>
    <line class="st0" x1="18.6" y1="52.6" x2="17.5" y2="50.9"/>
    <line class="st0" x1="23.2" y1="51" x2="20.8" y2="52.5"/>
    <line class="st0" x1="42.6" y1="50.7" x2="40.7" y2="52.4"/>
    <line class="st0" x1="45.9" y1="52.4" x2="44.8" y2="50.7"/>
    <line class="st0" x1="50.4" y1="50.9" x2="48.1" y2="52.4"/>
    <line class="st0" x1="36.7" y1="47.1" x2="34.8" y2="48.7"/>
    <line class="st0" x1="40" y1="48.8" x2="38.9" y2="47"/>
    <line class="st0" x1="44.6" y1="47.2" x2="42.2" y2="48.7"/>
    <line class="st0" x1="31.3" y1="42.9" x2="29.4" y2="44.5"/>
    <line class="st0" x1="34.6" y1="44.5" x2="33.5" y2="42.8"/>
    <line class="st0" x1="39.2" y1="43" x2="36.8" y2="44.5"/>
    <line class="st0" x1="3.6" y1="42.7" x2="1.7" y2="44.4"/>
    <line class="st0" x1="6.4" y1="44.4" x2="5.3" y2="42.7"/>
    <line class="st0" x1="10.9" y1="42.9" x2="8.6" y2="44.4"/>
    <line class="st0" x1="11.4" y1="39.3" x2="9.5" y2="40.9"/>
    <line class="st0" x1="14.7" y1="41" x2="13.6" y2="39.2"/>
    <line class="st0" x1="19.3" y1="39.4" x2="16.9" y2="40.9"/>
    <line class="st0" x1="38.8" y1="39.1" x2="36.9" y2="40.7"/>
    <line class="st0" x1="42.1" y1="40.8" x2="40.9" y2="39"/>
    <line class="st0" x1="46.6" y1="39.2" x2="44.3" y2="40.7"/>
    <line class="st0" x1="46.6" y1="35.7" x2="44.7" y2="37.3"/>
    <line class="st0" x1="49.5" y1="37.4" x2="48.4" y2="35.6"/>
    <line class="st0" x1="53.5" y1="35.8" x2="51.1" y2="37.3"/>
    <line class="st0" x1="18.4" y1="35.8" x2="16.6" y2="37.4"/>
    <line class="st0" x1="21.8" y1="37.5" x2="20.6" y2="35.7"/>
    <line class="st0" x1="26.3" y1="35.9" x2="23.9" y2="37.4"/>
    <line class="st0" x1="23.2" y1="32" x2="21.3" y2="33.7"/>
    <line class="st0" x1="26.5" y1="33.7" x2="25.4" y2="32"/>
    <line class="st0" x1="31.1" y1="32.2" x2="28.7" y2="33.7"/>
    <line class="st0" x1="31.2" y1="27.9" x2="29.3" y2="29.5"/>
    <line class="st0" x1="34.5" y1="29.6" x2="33.4" y2="27.9"/>
    <line class="st0" x1="39.1" y1="28" x2="36.7" y2="29.5"/>
    <line class="st0" x1="3.1" y1="28" x2="1.2" y2="29.7"/>
    <line class="st0" x1="6.4" y1="29.7" x2="5.3" y2="28"/>
    <line class="st0" x1="10.9" y1="28.2" x2="8.6" y2="29.7"/>
    <line class="st0" x1="5.9" y1="24.2" x2="4.4" y2="25.9"/>
    <line class="st0" x1="4.3" y1="32" x2="1.9" y2="33.5"/>
    <line class="st0" x1="17.6" y1="20.4" x2="15.7" y2="22"/>
    <line class="st0" x1="20.9" y1="22.1" x2="19.8" y2="20.4"/>
    <line class="st0" x1="25.4" y1="20.5" x2="23.1" y2="22"/>
    <line class="st0" x1="24.4" y1="24" x2="22.6" y2="25.7"/>
    <line class="st0" x1="27.8" y1="25.7" x2="26.6" y2="24"/>
    <line class="st0" x1="32.3" y1="24.2" x2="29.9" y2="25.7"/>
    <line class="st0" x1="45.2" y1="20.3" x2="43.3" y2="21.9"/>
    <line class="st0" x1="48.5" y1="22" x2="47.4" y2="20.2"/>
    <line class="st0" x1="53.1" y1="20.4" x2="50.7" y2="21.9"/>
    <line class="st0" x1="4.3" y1="17.2" x2="1.9" y2="18.7"/>
    <line class="st0" x1="17.7" y1="5" x2="15.8" y2="6.7"/>
    <line class="st0" x1="21" y1="6.7" x2="19.9" y2="5"/>
    <line class="st0" x1="25.6" y1="5.2" x2="23.2" y2="6.7"/>
    <line class="st0" x1="45.2" y1="5.2" x2="43.3" y2="6.8"/>
    <line class="st0" x1="48.5" y1="6.9" x2="47.4" y2="5.1"/>
    <line class="st0" x1="53.1" y1="5.3" x2="50.7" y2="6.8"/>
    <line class="st0" x1="23.4" y1="0.9" x2="21.5" y2="2.5"/>
    <line class="st0" x1="26.7" y1="2.6" x2="25.6" y2="0.8"/>
    <line class="st0" x1="31.3" y1="1" x2="28.9" y2="2.5"/>
    <line class="st0" x1="51" y1="0.9" x2="49.1" y2="2.6"/>
    <line class="st0" x1="54.3" y1="2.6" x2="53.2" y2="0.9"/>
    <line class="st0" x1="4.9" y1="1" x2="2.5" y2="2.5"/>
    <line class="st0" x1="52.8" y1="11" x2="50.9" y2="9.4"/>
    <line class="st0" x1="2.1" y1="9.4" x2="1" y2="11.1"/>
    <line class="st0" x1="5.9" y1="10.9" x2="3.6" y2="9.4"/>
    <line class="st0" x1="24.5" y1="11" x2="22.6" y2="9.4"/>
    <line class="st0" x1="28.3" y1="9.4" x2="27.1" y2="11.2"/>
    <line class="st0" x1="32.8" y1="11" x2="30.4" y2="9.5"/>
    <line class="st0" x1="3.6" y1="15" x2="1.7" y2="13.4"/>
    <line class="st0" x1="6.4" y1="13.3" x2="5.2" y2="15"/>
    <line class="st0" x1="10.9" y1="14.9" x2="8.6" y2="13.4"/>
    <line class="st0" x1="31.3" y1="15" x2="29.4" y2="13.4"/>
    <line class="st0" x1="34.6" y1="13.3" x2="33.4" y2="15"/>
    <line class="st0" x1="39.1" y1="14.9" x2="36.8" y2="13.4"/>
    <line class="st0" x1="36.8" y1="18.7" x2="34.9" y2="17"/>
    <line class="st0" x1="40.1" y1="17" x2="39" y2="18.7"/>
    <line class="st0" x1="44.7" y1="18.5" x2="42.3" y2="17"/>
    <line class="st0" x1="32.2" y1="22" x2="30.3" y2="20.4"/>
    <line class="st0" x1="35.5" y1="20.4" x2="34.4" y2="22.1"/>
    <line class="st0" x1="40.1" y1="21.9" x2="37.7" y2="20.4"/>
    <line class="st0" x1="9.9" y1="18.7" x2="8.1" y2="17.1"/>
    <line class="st0" x1="13.3" y1="17" x2="12.1" y2="18.8"/>
    <line class="st0" x1="17.8" y1="18.6" x2="15.4" y2="17.1"/>
    <line class="st0" x1="4.2" y1="22" x2="2.3" y2="20.4"/>
    <line class="st0" x1="6.8" y1="20.3" x2="5.7" y2="22"/>
    <line class="st0" x1="11.4" y1="21.9" x2="9" y2="20.4"/>
    <line class="st0" x1="10.9" y1="25.9" x2="9.1" y2="24.3"/>
    <line class="st0" x1="14.3" y1="24.2" x2="13.1" y2="26"/>
    <line class="st0" x1="18.8" y1="25.8" x2="16.4" y2="24.3"/>
    <line class="st0" x1="16.7" y1="29.6" x2="14.8" y2="28"/>
    <line class="st0" x1="20" y1="27.9" x2="18.9" y2="29.7"/>
    <line class="st0" x1="24.6" y1="29.5" x2="22.2" y2="28"/>
    <line class="st0" x1="9.6" y1="33.6" x2="7.7" y2="32"/>
    <line class="st0" x1="12.9" y1="31.9" x2="11.8" y2="33.7"/>
    <line class="st0" x1="17.4" y1="33.5" x2="15.1" y2="32"/>
    <line class="st0" x1="4.9" y1="37.4" x2="3" y2="35.7"/>
    <line class="st0" x1="8.1" y1="35.7" x2="7" y2="37.4"/>
    <line class="st0" x1="12.1" y1="37.2" x2="9.7" y2="35.7"/>
    <line class="st0" x1="36.9" y1="33.7" x2="35.1" y2="32.1"/>
    <line class="st0" x1="40.3" y1="32" x2="39.1" y2="33.8"/>
    <line class="st0" x1="44.8" y1="33.6" x2="42.4" y2="32.1"/>
    <line class="st0" x1="44.1" y1="29.7" x2="42.3" y2="28.1"/>
    <line class="st0" x1="47.4" y1="28" x2="46.3" y2="29.8"/>
    <line class="st0" x1="52" y1="29.6" x2="49.6" y2="28.1"/>
    <line class="st0" x1="39.1" y1="25.9" x2="37.3" y2="24.3"/>
    <line class="st0" x1="42.4" y1="24.2" x2="41.3" y2="26"/>
    <line class="st0" x1="47" y1="25.8" x2="44.6" y2="24.3"/>
    <line class="st0" x1="32.9" y1="37.4" x2="31" y2="35.8"/>
    <line class="st0" x1="36.2" y1="35.7" x2="35.1" y2="37.5"/>
    <line class="st0" x1="40.8" y1="37.3" x2="38.4" y2="35.8"/>
    <line class="st0" x1="24.4" y1="40.9" x2="22.6" y2="39.3"/>
    <line class="st0" x1="27.8" y1="39.2" x2="26.6" y2="41"/>
    <line class="st0" x1="32.3" y1="40.8" x2="29.9" y2="39.3"/>
    <line class="st0" x1="1.6" y1="39.1" x2="0.4" y2="40.9"/>
    <line class="st0" x1="6.1" y1="40.7" x2="3.8" y2="39.2"/>
    <line class="st0" x1="16.5" y1="44.5" x2="14.6" y2="42.9"/>
    <line class="st0" x1="19.8" y1="42.9" x2="18.7" y2="44.6"/>
    <line class="st0" x1="24.4" y1="44.4" x2="22" y2="42.9"/>
    <line class="st0" x1="44.8" y1="44.5" x2="42.9" y2="42.9"/>
    <line class="st0" x1="48.1" y1="42.9" x2="46.9" y2="44.6"/>
    <line class="st0" x1="52.6" y1="44.4" x2="50.3" y2="42.9"/>
    <line class="st0" x1="22.1" y1="48.7" x2="20.2" y2="47"/>
    <line class="st0" x1="25.4" y1="47" x2="24.3" y2="48.7"/>
    <line class="st0" x1="29.9" y1="48.5" x2="27.6" y2="47"/>
    <line class="st0" x1="29.2" y1="52.6" x2="27.3" y2="51"/>
    <line class="st0" x1="32.5" y1="50.9" x2="31.4" y2="52.7"/>
    <line class="st0" x1="37.1" y1="52.5" x2="34.7" y2="51"/>
    <line class="st0" x1="2" y1="52.5" x2="0.1" y2="50.9"/>
    <line class="st0" x1="5.3" y1="50.9" x2="4.2" y2="52.6"/>
    <line class="st0" x1="9.6" y1="52.4" x2="7.2" y2="50.9"/>
    <line class="st0" x1="3.4" y1="48.5" x2="1" y2="47"/>
    <line class="st0" x1="36.9" y1="2.7" x2="35.1" y2="1.1"/>
    <line class="st0" x1="40.3" y1="1.1" x2="39.1" y2="2.8"/>
    <line class="st0" x1="44.8" y1="2.6" x2="42.4" y2="1.1"/>
    <line class="st0" x1="10" y1="2.5" x2="8.1" y2="0.9"/>
    <line class="st0" x1="13.3" y1="0.8" x2="12.2" y2="2.6"/>
    <line class="st0" x1="17.9" y1="2.4" x2="15.5" y2="0.9"/>
    <line class="st0" x1="4.1" y1="6.9" x2="2.2" y2="5.2"/>
    <line class="st0" x1="6.8" y1="5.2" x2="5.7" y2="6.9"/>
    <line class="st0" x1="11.4" y1="6.7" x2="9" y2="5.2"/>
    <line class="st0" x1="31.8" y1="6.8" x2="29.9" y2="5.2"/>
    <line class="st0" x1="35.1" y1="5.1" x2="33.9" y2="6.9"/>
    <line class="st0" x1="39.6" y1="6.7" x2="37.3" y2="5.2"/>
    <line class="st0" x1="53.6" y1="24.2" x2="51.7" y2="25.8"/>
    <line class="st0" x1="2.5" y1="25.9" x2="1.4" y2="24.1"/>
    <line class="st0" x1="50.6" y1="31.9" x2="48.7" y2="33.5"/>
    <line class="st0" x1="53.9" y1="33.6" x2="52.8" y2="31.9"/>
    <line class="st0" x1="50.6" y1="17" x2="48.7" y2="18.7"/>
    <line class="st0" x1="53.9" y1="18.7" x2="52.8" y2="17"/>
    <line class="st0" x1="52.4" y1="40.8" x2="50.5" y2="39.2"/>
    <line class="st0" x1="55.7" y1="39.1" x2="54.6" y2="40.9"/>
    <line class="st0" x1="56.1" y1="52.5" x2="54.2" y2="50.9"/>
    <line class="st0" x1="49.6" y1="48.6" x2="47.8" y2="47"/>
    <line class="st0" x1="52.9" y1="46.9" x2="51.8" y2="48.7"/>
</g>
</svg>
