<!-- Generator: Adobe Illustrator 22.1.0, SVG Export Plug-In  -->
<svg version="1.1"
     xmlns="http://www.w3.org/2000/svg" xmlns:xlink="http://www.w3.org/1999/xlink" xmlns:a="http://ns.adobe.com/AdobeSVGViewerExtensions/3.0/"
     x="0px" y="0px" width="54.4px" height="54.1px" viewBox="0 0 54.4 54.1" style="enable-background:new 0 0 54.4 54.1;"
     xml:space="preserve">
<style type="text/css">
    .st0{clip-path:url(#SVGID_2_);fill:none;stroke:#231F20;stroke-width:0.3;}
    .st1{clip-path:url(#SVGID_4_);fill:none;stroke:#231F20;stroke-width:0.3;}
</style>
<defs>
</defs>
<g>
    <defs>
        <rect id="SVGID_1_" x="0.1" width="54.1" height="54.1"/>
    </defs>
    <clipPath id="SVGID_2_">
        <use xlink:href="#SVGID_1_"  style="overflow:visible;"/>
    </clipPath>
    <line class="st0" x1="12.7" y1="3.8" x2="18.8" y2="3.8"/>
    <line class="st0" x1="41.2" y1="3.8" x2="32.3" y2="3.8"/>
    <line class="st0" x1="54" y1="3.8" x2="46.7" y2="3.8"/>
    <line class="st0" x1="41.2" y1="3.8" x2="46.7" y2="3.8"/>
    <line class="st0" x1="12.7" y1="3.8" x2="6" y2="3.8"/>
    <line class="st0" x1="54" y1="3.8" x2="54.2" y2="3.8"/>
    <line class="st0" x1="27.6" y1="3.8" x2="32.3" y2="3.8"/>
    <line class="st0" x1="27.6" y1="3.8" x2="18.8" y2="3.8"/>
    <line class="st0" x1="0.1" y1="3.8" x2="6" y2="3.8"/>
    <line class="st0" x1="54.2" y1="7.9" x2="0.1" y2="7.9"/>
    <line class="st0" x1="40.3" y1="12.1" x2="53.5" y2="12.1"/>
    <line class="st0" x1="12" y1="12.1" x2="0.1" y2="12.1"/>
    <line class="st0" x1="40.3" y1="12.1" x2="26.9" y2="12.1"/>
    <line class="st0" x1="26.9" y1="12.1" x2="12" y2="12.1"/>
    <line class="st0" x1="54.2" y1="12.1" x2="53.5" y2="12.1"/>
    <line class="st0" x1="33.9" y1="41.7" x2="48.7" y2="41.7"/>
    <line class="st0" x1="7" y1="41.7" x2="20.2" y2="41.7"/>
    <line class="st0" x1="20.2" y1="41.7" x2="33.9" y2="41.7"/>
    <line class="st0" x1="48.7" y1="41.7" x2="54.2" y2="41.7"/>
    <line class="st0" x1="54.2" y1="41.7" x2="54.3" y2="41.7"/>
    <line class="st0" x1="7" y1="41.7" x2="0.1" y2="41.7"/>
    <line class="st0" x1="53.8" y1="45.5" x2="54.2" y2="45.5"/>
    <line class="st0" x1="26.5" y1="45.5" x2="40.4" y2="45.5"/>
    <line class="st0" x1="12" y1="45.5" x2="26.5" y2="45.5"/>
    <line class="st0" x1="40.4" y1="45.5" x2="53.8" y2="45.5"/>
    <line class="st0" x1="12" y1="45.5" x2="0.1" y2="45.5"/>
    <line class="st0" x1="46.7" y1="16.1" x2="54.2" y2="16.1"/>
    <line class="st0" x1="18.8" y1="16.1" x2="6" y2="16.1"/>
    <line class="st0" x1="32" y1="16.1" x2="18.8" y2="16.1"/>
    <line class="st0" x1="32" y1="16.1" x2="46.7" y2="16.1"/>
    <line class="st0" x1="6" y1="16.1" x2="0.1" y2="16.1"/>
    <line class="st0" x1="12.6" y1="19.4" x2="27.6" y2="19.4"/>
    <line class="st0" x1="41.3" y1="19.4" x2="27.6" y2="19.4"/>
    <line class="st0" x1="54.1" y1="19.4" x2="54.2" y2="19.4"/>
    <line class="st0" x1="12.6" y1="19.4" x2="0.1" y2="19.4"/>
    <line class="st0" x1="41.3" y1="19.4" x2="54.1" y2="19.4"/>
    <line class="st0" x1="48.8" y1="22.8" x2="54.2" y2="22.8"/>
    <line class="st0" x1="20.3" y1="22.8" x2="6.8" y2="22.8"/>
    <line class="st0" x1="33.9" y1="22.8" x2="20.3" y2="22.8"/>
    <line class="st0" x1="48.8" y1="22.8" x2="33.9" y2="22.8"/>
    <line class="st0" x1="6.8" y1="22.8" x2="0.1" y2="22.8"/>
    <line class="st0" x1="0.1" y1="26.9" x2="54.2" y2="26.9"/>
    <line class="st0" x1="0.1" y1="30.7" x2="54.2" y2="30.7"/>
    <line class="st0" x1="54.2" y1="34.9" x2="54.3" y2="34.9"/>
    <line class="st0" x1="54.2" y1="34.9" x2="0.1" y2="34.9"/>
    <line class="st0" x1="0.1" y1="38.1" x2="54.2" y2="38.1"/>
    <line class="st0" x1="0.1" y1="53.3" x2="6" y2="53.3"/>
    <line class="st0" x1="38.5" y1="53.3" x2="32.3" y2="53.3"/>
    <line class="st0" x1="38.5" y1="53.3" x2="46.7" y2="53.3"/>
    <line class="st0" x1="24.8" y1="53.3" x2="32.3" y2="53.3"/>
    <line class="st0" x1="51.8" y1="53.3" x2="46.7" y2="53.3"/>
    <line class="st0" x1="10.4" y1="53.3" x2="18.8" y2="53.3"/>
    <line class="st0" x1="10.4" y1="53.3" x2="6" y2="53.3"/>
    <line class="st0" x1="24.8" y1="53.3" x2="18.8" y2="53.3"/>
    <line class="st0" x1="51.8" y1="53.3" x2="54.2" y2="53.3"/>
    <line class="st0" x1="6" y1="0" x2="6" y2="3.8"/>
    <line class="st0" x1="18.8" y1="0" x2="18.8" y2="3.8"/>
    <line class="st0" x1="32.3" y1="0" x2="32.3" y2="3.8"/>
    <line class="st0" x1="46.7" y1="0" x2="46.7" y2="3.8"/>
    <line class="st0" x1="6" y1="54.1" x2="6" y2="53.3"/>
    <line class="st0" x1="6" y1="53.3" x2="6" y2="53.3"/>
    <line class="st0" x1="18.8" y1="53.3" x2="18.8" y2="53.3"/>
    <line class="st0" x1="18.8" y1="54.1" x2="18.8" y2="53.3"/>
    <line class="st0" x1="32.3" y1="53.3" x2="32.3" y2="53.3"/>
    <line class="st0" x1="32.3" y1="54.1" x2="32.3" y2="53.3"/>
    <line class="st0" x1="46.7" y1="53.3" x2="46.7" y2="53.3"/>
    <line class="st0" x1="46.7" y1="54.1" x2="46.7" y2="53.3"/>
    <line class="st0" x1="12.7" y1="3.8" x2="12.7" y2="3.7"/>
    <line class="st0" x1="12.7" y1="3.8" x2="12.7" y2="7.9"/>
    <line class="st0" x1="27.6" y1="3.8" x2="27.6" y2="7.9"/>
    <line class="st0" x1="27.6" y1="3.8" x2="27.6" y2="3.7"/>
    <line class="st0" x1="41.2" y1="3.8" x2="41.2" y2="7.9"/>
    <line class="st0" x1="41.2" y1="3.8" x2="41.2" y2="3.7"/>
    <line class="st0" x1="54" y1="3.8" x2="54" y2="3.7"/>
    <line class="st0" x1="54" y1="3.8" x2="54" y2="7.9"/>
    <line class="st0" x1="7.2" y1="12.1" x2="7.2" y2="8"/>
    <line class="st0" x1="20.4" y1="12.1" x2="20.4" y2="8"/>
    <line class="st0" x1="34" y1="12.1" x2="34" y2="8"/>
    <line class="st0" x1="48.9" y1="12.1" x2="48.9" y2="8"/>
    <line class="st0" x1="40.3" y1="12.1" x2="40.3" y2="16.1"/>
    <line class="st0" x1="40.3" y1="12.1" x2="40.3" y2="12.1"/>
    <line class="st0" x1="26.9" y1="12.1" x2="26.9" y2="12.1"/>
    <line class="st0" x1="26.9" y1="12.1" x2="26.9" y2="16.1"/>
    <line class="st0" x1="12" y1="12.1" x2="12" y2="12.1"/>
    <line class="st0" x1="12" y1="12.1" x2="12" y2="16.1"/>
    <line class="st0" x1="53.5" y1="12.1" x2="53.5" y2="12.1"/>
    <line class="st0" x1="53.5" y1="16.1" x2="53.5" y2="12.1"/>
    <line class="st0" x1="46.7" y1="16.1" x2="46.7" y2="16.1"/>
    <line class="st0" x1="46.7" y1="16.1" x2="46.7" y2="19.4"/>
    <line class="st0" x1="32" y1="16.1" x2="32" y2="16.1"/>
    <line class="st0" x1="32" y1="16.1" x2="32" y2="19.4"/>
    <line class="st0" x1="18.8" y1="16.1" x2="18.8" y2="16.1"/>
    <line class="st0" x1="18.8" y1="16.1" x2="18.8" y2="19.4"/>
    <line class="st0" x1="6" y1="16.1" x2="6" y2="16.1"/>
    <line class="st0" x1="6" y1="16.1" x2="6" y2="19.4"/>
    <line class="st0" x1="12.6" y1="19.4" x2="12.6" y2="19.4"/>
    <line class="st0" x1="12.6" y1="19.4" x2="12.6" y2="22.8"/>
    <line class="st0" x1="27.6" y1="19.4" x2="27.6" y2="22.8"/>
    <line class="st0" x1="27.6" y1="19.4" x2="27.6" y2="19.4"/>
    <line class="st0" x1="41.3" y1="19.4" x2="41.3" y2="19.4"/>
    <line class="st0" x1="41.3" y1="19.4" x2="41.3" y2="22.8"/>
    <line class="st0" x1="54.1" y1="19.4" x2="54.1" y2="19.4"/>
    <line class="st0" x1="54.1" y1="19.4" x2="54.1" y2="22.8"/>
    <line class="st0" x1="6.8" y1="22.8" x2="6.8" y2="22.8"/>
    <line class="st0" x1="6.8" y1="22.8" x2="6.8" y2="26.9"/>
    <line class="st0" x1="20.3" y1="22.8" x2="20.3" y2="22.8"/>
    <line class="st0" x1="20.3" y1="22.8" x2="20.3" y2="26.9"/>
    <line class="st0" x1="33.9" y1="22.8" x2="33.9" y2="26.9"/>
    <line class="st0" x1="33.9" y1="22.8" x2="33.9" y2="22.8"/>
    <line class="st0" x1="48.8" y1="22.8" x2="48.8" y2="26.9"/>
    <line class="st0" x1="48.8" y1="22.8" x2="48.8" y2="22.8"/>
    <line class="st0" x1="40.2" y1="26.9" x2="40.2" y2="30.7"/>
    <line class="st0" x1="26.8" y1="26.9" x2="26.8" y2="30.7"/>
    <line class="st0" x1="11.8" y1="26.9" x2="11.8" y2="30.7"/>
    <line class="st0" x1="53.4" y1="30.7" x2="53.4" y2="26.9"/>
    <line class="st0" x1="5.6" y1="30.7" x2="5.6" y2="34.9"/>
    <line class="st0" x1="18.6" y1="30.7" x2="18.6" y2="34.9"/>
    <line class="st0" x1="32.3" y1="30.7" x2="32.3" y2="34.9"/>
    <line class="st0" x1="46.5" y1="30.7" x2="46.5" y2="34.9"/>
    <line class="st0" x1="42.3" y1="34.9" x2="42.3" y2="38.1"/>
    <line class="st0" x1="28.2" y1="34.9" x2="28.2" y2="38.1"/>
    <line class="st0" x1="13" y1="34.9" x2="13" y2="38.1"/>
    <line class="st0" x1="0.6" y1="34.9" x2="0.6" y2="38.1"/>
    <line class="st0" x1="7" y1="41.7" x2="7" y2="38.2"/>
    <line class="st0" x1="20.2" y1="41.7" x2="20.2" y2="38.2"/>
    <line class="st0" x1="33.9" y1="41.7" x2="33.9" y2="38.2"/>
    <line class="st0" x1="48.7" y1="41.7" x2="48.7" y2="38.2"/>
    <line class="st0" x1="40.4" y1="45.5" x2="40.4" y2="45.5"/>
    <line class="st0" x1="40.4" y1="45.5" x2="40.4" y2="41.8"/>
    <line class="st0" x1="26.5" y1="45.5" x2="26.5" y2="41.8"/>
    <line class="st0" x1="26.5" y1="45.5" x2="26.5" y2="45.5"/>
    <line class="st0" x1="12" y1="45.5" x2="12" y2="41.8"/>
    <line class="st0" x1="12" y1="45.5" x2="12" y2="45.5"/>
    <line class="st0" x1="53.8" y1="45.5" x2="53.8" y2="45.5"/>
    <line class="st0" x1="53.8" y1="45.5" x2="53.8" y2="41.8"/>
    <line class="st0" x1="0.1" y1="49.9" x2="10.4" y2="49.9"/>
    <line class="st0" x1="51.8" y1="49.9" x2="54.2" y2="49.9"/>
    <line class="st0" x1="38.5" y1="49.9" x2="51.8" y2="49.9"/>
    <line class="st0" x1="38.5" y1="49.9" x2="24.8" y2="49.9"/>
    <line class="st0" x1="10.4" y1="49.9" x2="24.8" y2="49.9"/>
    <line class="st0" x1="10.4" y1="49.9" x2="10.4" y2="49.9"/>
    <line class="st0" x1="10.4" y1="49.9" x2="10.4" y2="53.3"/>
    <line class="st0" x1="10.4" y1="53.3" x2="10.4" y2="53.3"/>
    <line class="st0" x1="24.8" y1="49.9" x2="24.8" y2="53.3"/>
    <line class="st0" x1="24.8" y1="49.9" x2="24.8" y2="49.9"/>
    <line class="st0" x1="24.8" y1="53.3" x2="24.8" y2="53.3"/>
    <line class="st0" x1="38.5" y1="53.3" x2="38.5" y2="49.9"/>
    <line class="st0" x1="38.5" y1="53.3" x2="38.5" y2="53.3"/>
    <line class="st0" x1="38.5" y1="49.9" x2="38.5" y2="49.9"/>
    <line class="st0" x1="51.8" y1="53.3" x2="51.8" y2="53.3"/>
    <line class="st0" x1="51.8" y1="49.9" x2="51.8" y2="49.9"/>
    <line class="st0" x1="51.8" y1="49.9" x2="51.8" y2="53.3"/>
    <line class="st0" x1="4.7" y1="45.5" x2="4.7" y2="49.9"/>
    <line class="st0" x1="17.7" y1="45.5" x2="17.7" y2="49.9"/>
    <line class="st0" x1="31.7" y1="45.5" x2="31.7" y2="49.9"/>
    <line class="st0" x1="46.2" y1="45.5" x2="46.2" y2="49.9"/>
    <path class="st0" d="M22,47.2c1.1,2.5,3.8,2.2,4.7-0.2C24.7,47.9,24.1,47.9,22,47.2z"/>
    <path class="st0" d="M49.5,42.8c-2,1-2.7,1-4.7,0.2C45.9,45.5,48.6,45.3,49.5,42.8z"/>
    <path class="st0" d="M43.5,39c-2,1-2.7,1-4.7,0.2C39.9,41.7,42.6,41.5,43.5,39z"/>
    <path class="st0" d="M33.6,35.7c1.1,2.5,3.8,2.2,4.7-0.2C36.3,36.5,35.6,36.5,33.6,35.7z"/>
    <path class="st0" d="M23,32.1c1.1,2.5,3.8,2.2,4.7-0.2C25.7,32.9,25,32.9,23,32.1z"/>
    <path class="st0" d="M17,28.1c1.1,2.5,3.8,2.2,4.7-0.2C19.7,28.9,19.1,28.9,17,28.1z"/>
    <path class="st0" d="M10.8,24.1c1.1,2.5,3.8,2.2,4.7-0.2C13.5,24.9,12.9,24.9,10.8,24.1z"/>
    <path class="st0" d="M8.6,20.1c-2,1-2.7,1-4.7,0.2C5,22.8,7.7,22.6,8.6,20.1z"/>
    <path class="st0" d="M0.1,18.7c0.8-0.2,1.4-0.9,1.8-1.9c-0.7,0.4-1.3,0.6-1.8,0.7"/>
    <path class="st0" d="M44.3,28c1.1,2.5,3.8,2.2,4.7-0.2C47,28.8,46.3,28.8,44.3,28z"/>
    <path class="st0" d="M38.8,24.3c1.1,2.5,3.8,2.2,4.7-0.2C41.5,25,40.8,25,38.8,24.3z"/>
    <path class="st0" d="M36.9,20.3c-2,1-2.7,1-4.7,0.2C33.3,23,36,22.8,36.9,20.3z"/>
    <path class="st0" d="M23.4,17c1.1,2.5,3.8,2.2,4.7-0.2C26.1,17.8,25.4,17.8,23.4,17z"/>
    <path class="st0" d="M22.4,13.1c-2,1-2.7,1-4.7,0.2C18.8,15.8,21.5,15.6,22.4,13.1z"/>
    <path class="st0" d="M15.5,9.3c-2,1-2.7,1-4.7,0.2C11.9,12,14.6,11.8,15.5,9.3z"/>
    <path class="st0" d="M4,5.1c1.1,2.5,3.8,2.2,4.7-0.2C6.7,5.9,6,5.9,4,5.1z"/>
    <path class="st0" d="M49.6,13.2c-2,1-2.7,1-4.7,0.2C46,15.9,48.7,15.7,49.6,13.2z"/>
    <path class="st0" d="M43.9,9.2c-2,1-2.7,1-4.7,0.2C40.3,11.9,43,11.7,43.9,9.2z"/>
    <path class="st0" d="M31.8,5.3c1.1,2.5,3.8,2.2,4.7-0.2C34.5,6.1,33.8,6.1,31.8,5.3z"/>
    <path class="st0" d="M0.1,2.5c0.7-0.3,1.3-0.9,1.7-1.8C1.1,1,0.6,1.2,0.1,1.4"/>
    <path class="st0" d="M28,0.8c-2,1-2.7,1-4.7,0.2C24.4,3.5,27.1,3.2,28,0.8z"/>
    <path class="st0" d="M0.1,48.1c0.2-0.3,0.5-0.7,0.6-1.1c-0.2,0.1-0.4,0.2-0.6,0.3"/>
    <path class="st0" d="M16.8,42.9c1.1,2.5,3.8,2.2,4.7-0.2C19.5,43.7,18.8,43.7,16.8,42.9z"/>
    <path class="st0" d="M15.9,39c-2,1-2.7,1-4.7,0.2C12.3,41.7,15,41.4,15.9,39z"/>
    <path class="st0" d="M4.7,35.7c1.1,2.5,3.8,2.2,4.7-0.2C7.4,36.5,6.7,36.5,4.7,35.7z"/>
    <path class="st0" d="M0.1,33.5c0.6-0.3,1.2-0.9,1.5-1.8C1,32,0.6,32.2,0.1,32.4"/>
    <path class="st0" d="M34.2,50.7c-2,1-2.7,1-4.7,0.2C30.6,53.4,33.3,53.2,34.2,50.7z"/>
    <path class="st0" d="M6.7,50.7c-2,1-2.7,1-4.7,0.2C3.1,53.4,5.8,53.2,6.7,50.7z"/>
    <path class="st0" d="M47.5,52.6c-0.9-2.5-3.6-2.7-4.7-0.2C44.8,51.6,45.5,51.6,47.5,52.6z"/>
    <path class="st0" d="M0.1,10.4c0.9-0.2,1.7,0.1,3,0.7c-0.6-1.6-1.9-2.2-3-1.9"/>
    <path class="st0" d="M8,15c-0.9-2.5-3.6-2.7-4.7-0.2C5.3,14,5.9,14,8,15z"/>
    <path class="st0" d="M9.6,18.5c2-0.8,2.7-0.8,4.7,0.2C13.4,16.2,10.7,16,9.6,18.5z"/>
    <path class="st0" d="M22.5,22.3c-0.9-2.5-3.6-2.7-4.7-0.2C19.8,21.2,20.5,21.2,22.5,22.3z"/>
    <path class="st0" d="M24.7,25.6c2-0.8,2.7-0.8,4.7,0.2C28.6,23.4,25.9,23.1,24.7,25.6z"/>
    <path class="st0" d="M30.9,29.6c2-0.8,2.7-0.8,4.7,0.2C34.7,27.4,32,27.2,30.9,29.6z"/>
    <path class="st0" d="M36.8,33.6c2-0.8,2.7-0.8,4.7,0.2C40.6,31.4,37.9,31.1,36.8,33.6z"/>
    <path class="st0" d="M46.2,37.3c2-0.8,2.7-0.8,4.7,0.2C50,35,47.3,34.8,46.2,37.3z"/>
    <path class="st0" d="M17.8,6.6c2-0.8,2.7-0.8,4.7,0.2C21.6,4.4,18.9,4.2,17.8,6.6z"/>
    <path class="st0" d="M15,2.8c-0.9-2.5-3.6-2.7-4.7-0.2C12.3,1.8,13,1.8,15,2.8z"/>
    <path class="st0" d="M41.7,2.7c-0.9-2.5-3.6-2.7-4.7-0.2C39,1.7,39.6,1.7,41.7,2.7z"/>
    <path class="st0" d="M29.7,11c-0.9-2.5-3.6-2.7-4.7-0.2C27,10,27.7,10,29.7,11z"/>
    <path class="st0" d="M35.6,15.2c-0.9-2.5-3.6-2.7-4.7-0.2C32.9,14.1,33.6,14.1,35.6,15.2z"/>
    <path class="st0" d="M41.3,18.9c-0.9-2.5-3.6-2.7-4.7-0.2C38.6,17.8,39.3,17.8,41.3,18.9z"/>
    <path class="st0" d="M49.6,22.2c-0.9-2.5-3.6-2.7-4.7-0.2C46.9,21.2,47.6,21.2,49.6,22.2z"/>
    <path class="st0" d="M45,6.4c2-0.8,2.7-0.8,4.7,0.2C48.8,4.2,46.1,4,45,6.4z"/>
    <path class="st0" d="M19.9,52.6c-0.9-2.5-3.6-2.7-4.7-0.2C17.2,51.6,17.9,51.6,19.9,52.6z"/>
    <path class="st0" d="M8.7,48.4c2-0.8,2.7-0.8,4.7,0.2C12.5,46.2,9.8,46,8.7,48.4z"/>
    <path class="st0" d="M36.9,48.3c2-0.8,2.7-0.8,4.7,0.2C40.7,46.1,38,45.8,36.9,48.3z"/>
    <path class="st0" d="M30.5,44.3c2-0.8,2.7-0.8,4.7,0.2C34.3,42.1,31.6,41.8,30.5,44.3z"/>
    <path class="st0" d="M29.3,40.9c-0.9-2.5-3.6-2.7-4.7-0.2C26.6,39.9,27.3,39.9,29.3,40.9z"/>
    <path class="st0" d="M17.9,37.3c2-0.8,2.7-0.8,4.7,0.2C21.7,35,19,34.8,17.9,37.3z"/>
    <path class="st0" d="M9.7,33.6c2-0.8,2.7-0.8,4.7,0.2C13.5,31.4,10.8,31.2,9.7,33.6z"/>
    <path class="st0" d="M3.5,29.5c2-0.8,2.7-0.8,4.7,0.2C7.4,27.2,4.7,27,3.5,29.5z"/>
    <path class="st0" d="M0.1,24.1c1.2-0.5,2.6,0.1,3.2,1.8c-1.4-0.7-2.2-0.9-3.2-0.7"/>
    <path class="st0" d="M3.4,44.3c2-0.8,2.7-0.8,4.7,0.2C7.2,42.1,4.5,41.8,3.4,44.3z"/>
    <path class="st0" d="M0.1,40.2c1.1-0.3,1.9-0.1,3.4,0.7c-0.6-1.7-2.1-2.4-3.4-1.7"/>
    <path class="st0" d="M54.2,17.5c-0.9,0.2-1.6,0-2.9-0.5c0.6,1.4,1.8,2,2.9,1.7"/>
    <path class="st0" d="M54.2,1.4c-0.9,0.2-1.7,0-3-0.5c0.7,1.5,1.9,2,3,1.6"/>
    <path class="st0" d="M54.2,47.4C52.7,48,52,48,50.2,47.3c0.9,2,2.9,2.2,4.1,0.9"/>
    <path class="st0" d="M54.2,32.4c-1,0.3-1.8,0.1-3.1-0.4c0.7,1.6,2,2,3.1,1.6"/>
    <path class="st0" d="M54.2,9.3c-0.6,0.2-1.3,0.8-1.7,1.6c0.7-0.3,1.2-0.4,1.7-0.5"/>
    <path class="st0" d="M54.2,24.1c-0.6,0.3-1.1,0.8-1.4,1.6c0.6-0.2,1-0.4,1.4-0.5"/>
    <path class="st0" d="M54.2,39.2c-0.5,0.3-1,0.8-1.3,1.5c0.5-0.2,0.9-0.3,1.3-0.4"/>
    <line class="st0" x1="50.1" y1="50.9" x2="48.8" y2="52.6"/>
    <line class="st0" x1="9.2" y1="50.8" x2="7.3" y2="52.4"/>
    <line class="st0" x1="40.9" y1="52.6" x2="39.7" y2="50.8"/>
    <line class="st0" x1="44.9" y1="47.3" x2="42.7" y2="48.6"/>
    <line class="st0" x1="50.4" y1="44.6" x2="52.2" y2="43"/>
    <line class="st0" x1="38.4" y1="42.9" x2="37.1" y2="44.7"/>
    <line class="st0" x1="35.1" y1="48.9" x2="33.9" y2="47.1"/>
    <line class="st0" x1="28" y1="52.6" x2="26.9" y2="50.9"/>
    <line class="st0" x1="29.2" y1="46.7" x2="28.2" y2="48.6"/>
    <line class="st0" x1="20.7" y1="48.6" x2="19.6" y2="46.9"/>
    <line class="st0" x1="22.7" y1="50.8" x2="21.5" y2="52.6"/>
    <line class="st0" x1="37" y1="50.8" x2="35.1" y2="52.4"/>
    <line class="st0" x1="13.6" y1="52.5" x2="12.4" y2="50.8"/>
    <line class="st0" x1="24.4" y1="43" x2="22.6" y2="44.6"/>
    <line class="st0" x1="16.4" y1="47.1" x2="14.5" y2="48.7"/>
    <line class="st0" x1="3.9" y1="47.3" x2="2.1" y2="48.9"/>
    <line class="st0" x1="14.8" y1="44.6" x2="14.1" y2="42.7"/>
    <line class="st0" x1="7.2" y1="48.7" x2="6.1" y2="46.9"/>
    <line class="st0" x1="49.1" y1="49.1" x2="48" y2="47.3"/>
    <line class="st0" x1="52.9" y1="50.7" x2="54" y2="52.4"/>
    <line class="st0" x1="43.4" y1="44.7" x2="41.6" y2="43.1"/>
    <line class="st0" x1="30.7" y1="40.9" x2="32.6" y2="39.3"/>
    <line class="st0" x1="22.1" y1="39.1" x2="23.3" y2="40.9"/>
    <line class="st0" x1="40.8" y1="35.8" x2="38.9" y2="37.4"/>
    <line class="st0" x1="35.5" y1="40.8" x2="37.4" y2="39.2"/>
    <line class="st0" x1="32.1" y1="37.2" x2="30.4" y2="35.6"/>
    <line class="st0" x1="30.6" y1="32.1" x2="28.7" y2="33.7"/>
    <line class="st0" x1="21" y1="33.9" x2="20" y2="31.8"/>
    <line class="st0" x1="25.2" y1="37.4" x2="24.1" y2="35.7"/>
    <line class="st0" x1="17.3" y1="32.2" x2="15.4" y2="33.8"/>
    <line class="st0" x1="16.6" y1="35.9" x2="14.7" y2="37.3"/>
    <line class="st0" x1="8.3" y1="40.9" x2="10.2" y2="39.3"/>
    <line class="st0" x1="2.6" y1="42.9" x2="1.1" y2="44.5"/>
    <line class="st0" x1="8.1" y1="33.8" x2="7" y2="32.1"/>
    <line class="st0" x1="11.9" y1="37.1" x2="10.4" y2="35.6"/>
    <line class="st0" x1="4.4" y1="39.1" x2="5.5" y2="40.8"/>
    <line class="st0" x1="10.5" y1="44.4" x2="8.9" y2="42.8"/>
    <line class="st0" x1="28.9" y1="44.8" x2="27.7" y2="43"/>
    <line class="st0" x1="17.2" y1="39.1" x2="18.3" y2="40.9"/>
    <line class="st0" x1="18.7" y1="24.1" x2="16.8" y2="25.7"/>
    <line class="st0" x1="15.4" y1="28.1" x2="13.5" y2="29.7"/>
    <line class="st0" x1="4.4" y1="32.3" x2="2.5" y2="33.9"/>
    <line class="st0" x1="3.5" y1="35.9" x2="2" y2="37.2"/>
    <line class="st0" x1="3" y1="27.9" x2="1.1" y2="29.5"/>
    <line class="st0" x1="9.2" y1="25.7" x2="8.1" y2="23.9"/>
    <line class="st0" x1="10.7" y1="29.6" x2="9.6" y2="27.8"/>
    <line class="st0" x1="32.7" y1="24.2" x2="30.8" y2="25.8"/>
    <line class="st0" x1="30" y1="28.1" x2="28.1" y2="29.8"/>
    <line class="st0" x1="23.4" y1="25.9" x2="21.6" y2="24.1"/>
    <line class="st0" x1="37.9" y1="29.7" x2="36.7" y2="27.9"/>
    <line class="st0" x1="35.1" y1="34.1" x2="34" y2="32.4"/>
    <line class="st0" x1="24.4" y1="29.6" x2="23.2" y2="27.8"/>
    <line class="st0" x1="9.5" y1="20.3" x2="11.1" y2="21.9"/>
    <line class="st0" x1="5.7" y1="26.1" x2="4.6" y2="24.3"/>
    <line class="st0" x1="25.9" y1="20.4" x2="24.1" y2="22.1"/>
    <line class="st0" x1="16" y1="22.3" x2="14.8" y2="20.5"/>
    <line class="st0" x1="39.7" y1="20.5" x2="37.9" y2="22.1"/>
    <line class="st0" x1="37.3" y1="24.2" x2="35.4" y2="25.8"/>
    <line class="st0" x1="43.1" y1="28.1" x2="41.2" y2="29.7"/>
    <line class="st0" x1="44.9" y1="32.2" x2="43" y2="33.8"/>
    <line class="st0" x1="45.1" y1="35.6" x2="43.9" y2="37.3"/>
    <line class="st0" x1="51.9" y1="39.3" x2="50.1" y2="40.9"/>
    <line class="st0" x1="30.8" y1="22.1" x2="29.7" y2="20.4"/>
    <line class="st0" x1="52.9" y1="20.4" x2="51.1" y2="22.1"/>
    <line class="st0" x1="52" y1="24" x2="50.1" y2="25.6"/>
    <line class="st0" x1="48.1" y1="18.7" x2="49.9" y2="17.1"/>
    <line class="st0" x1="43.7" y1="22.1" x2="42.6" y2="20.3"/>
    <line class="st0" x1="46.2" y1="25.7" x2="45.1" y2="23.9"/>
    <line class="st0" x1="51.1" y1="29.7" x2="50" y2="27.9"/>
    <line class="st0" x1="49.7" y1="33.8" x2="48.6" y2="32.1"/>
    <line class="st0" x1="53.1" y1="37.4" x2="52" y2="35.6"/>
    <line class="st0" x1="45.1" y1="39.1" x2="46.2" y2="40.9"/>
    <line class="st0" x1="44.1" y1="18.6" x2="43" y2="16.9"/>
    <line class="st0" x1="50.8" y1="6.8" x2="52.7" y2="5.2"/>
    <line class="st0" x1="50.1" y1="11.1" x2="51.5" y2="9.4"/>
    <line class="st0" x1="42.5" y1="5" x2="43.9" y2="6.4"/>
    <line class="st0" x1="45.7" y1="9.3" x2="46.9" y2="11.1"/>
    <line class="st0" x1="52.1" y1="15" x2="51" y2="13.3"/>
    <line class="st0" x1="48.4" y1="0.6" x2="49.5" y2="2.4"/>
    <line class="st0" x1="29.3" y1="2.3" x2="31.2" y2="0.7"/>
    <line class="st0" x1="43.4" y1="2.2" x2="45.2" y2="0.6"/>
    <line class="st0" x1="38" y1="6.7" x2="39.9" y2="5.1"/>
    <line class="st0" x1="35.8" y1="11.1" x2="38" y2="9.2"/>
    <line class="st0" x1="41.2" y1="14.6" x2="43.6" y2="13.2"/>
    <line class="st0" x1="20.7" y1="0.7" x2="22.1" y2="2.7"/>
    <line class="st0" x1="33.6" y1="0.7" x2="34.4" y2="2.5"/>
    <line class="st0" x1="29.3" y1="5.3" x2="30.4" y2="7.1"/>
    <line class="st0" x1="30.7" y1="11.1" x2="32.6" y2="9.5"/>
    <line class="st0" x1="21.7" y1="9.2" x2="23.7" y2="10.7"/>
    <line class="st0" x1="23.5" y1="15.3" x2="25" y2="13.4"/>
    <line class="st0" x1="14.6" y1="13.3" x2="15.7" y2="15.1"/>
    <line class="st0" x1="36.7" y1="14.8" x2="39.1" y2="13.3"/>
    <line class="st0" x1="33.7" y1="18.6" x2="35.6" y2="16.9"/>
    <line class="st0" x1="28.7" y1="13.2" x2="29.4" y2="15.3"/>
    <line class="st0" x1="29.2" y1="17" x2="30.3" y2="18.8"/>
    <line class="st0" x1="16.4" y1="11.1" x2="18.2" y2="9.4"/>
    <line class="st0" x1="9.2" y1="15.1" x2="11.1" y2="13.4"/>
    <line class="st0" x1="17.6" y1="17.1" x2="15.7" y2="18.8"/>
    <line class="st0" x1="2.7" y1="20.3" x2="1.2" y2="21.9"/>
    <line class="st0" x1="22.4" y1="17" x2="20.5" y2="18.6"/>
    <line class="st0" x1="4.6" y1="17.1" x2="2.7" y2="18.7"/>
    <line class="st0" x1="8.9" y1="9.1" x2="9.7" y2="11.3"/>
    <line class="st0" x1="0.9" y1="13.4" x2="2" y2="15.1"/>
    <line class="st0" x1="8.5" y1="18.7" x2="7.4" y2="16.9"/>
    <line class="st0" x1="4.2" y1="9.4" x2="5.4" y2="11.1"/>
    <line class="st0" x1="2.9" y1="7" x2="1.7" y2="5.3"/>
    <line class="st0" x1="26.1" y1="5.4" x2="24" y2="6.7"/>
    <line class="st0" x1="7.7" y1="2.2" x2="9.6" y2="0.6"/>
    <line class="st0" x1="2.9" y1="2.3" x2="4.7" y2="0.6"/>
    <line class="st0" x1="11.5" y1="5.3" x2="9.6" y2="6.9"/>
    <line class="st0" x1="15.8" y1="7" x2="14.7" y2="5.3"/>
    <line class="st0" x1="16.4" y1="0.6" x2="17.1" y2="2.7"/>
</g>
</svg>
