<svg id="Layer_1" data-name="Layer 1" xmlns="http://www.w3.org/2000/svg" width="54.35" height="54.13" viewBox="0 0 54.35 54.13"><defs><style>.cls-1,.cls-2{fill:none;}.cls-1{stroke:#231f20;stroke-width:0.3px;}</style></defs><title>Artboard 37</title><line class="cls-1" x1="44.18" y1="23.06" x2="57.43" y2="23.06"/><line class="cls-1" x1="44.18" y1="23.06" x2="37.29" y2="23.06"/><line class="cls-1" x1="49.15" y1="26.83" x2="63.7" y2="26.83"/><line class="cls-1" x1="49.15" y1="26.83" x2="37.29" y2="26.83"/><line class="cls-1" x1="49.77" y1="0.74" x2="64.77" y2="0.74"/><line class="cls-1" x1="49.77" y1="0.74" x2="37.29" y2="0.74"/><line class="cls-1" x1="57.46" y1="4.17" x2="43.96" y2="4.17"/><line class="cls-1" x1="43.96" y1="4.17" x2="37.29" y2="4.17"/><line class="cls-1" x1="37.29" y1="8.22" x2="91.42" y2="8.22"/><line class="cls-1" x1="37.29" y1="12.02" x2="91.42" y2="12.02"/><line class="cls-1" x1="91.42" y1="16.22" x2="37.29" y2="16.22"/><line class="cls-1" x1="37.29" y1="19.44" x2="91.42" y2="19.44"/><line class="cls-1" x1="37.29" y1="34.62" x2="43.22" y2="34.62"/><line class="cls-1" x1="47.59" y1="34.62" x2="55.97" y2="34.62"/><line class="cls-1" x1="47.59" y1="34.62" x2="43.22" y2="34.62"/><line class="cls-1" x1="43.22" y1="35.46" x2="43.22" y2="34.62"/><line class="cls-1" x1="43.22" y1="34.61" x2="43.22" y2="34.62"/><line class="cls-1" x1="43.22" y1="-2.54" x2="43.22" y2="0.73"/><line class="cls-1" x1="49.77" y1="0.74" x2="49.77" y2="0.73"/><line class="cls-1" x1="49.77" y1="0.74" x2="49.77" y2="4.16"/><line class="cls-1" x1="43.96" y1="4.16" x2="43.96" y2="4.17"/><line class="cls-1" x1="43.96" y1="4.17" x2="43.96" y2="8.21"/><line class="cls-1" x1="49.01" y1="8.27" x2="49.01" y2="12.01"/><line class="cls-1" x1="42.82" y1="12.07" x2="42.82" y2="16.21"/><line class="cls-1" x1="50.22" y1="16.27" x2="50.22" y2="19.43"/><line class="cls-1" x1="37.8" y1="16.27" x2="37.8" y2="19.43"/><line class="cls-1" x1="44.18" y1="23.06" x2="44.18" y2="19.49"/><line class="cls-1" x1="49.15" y1="26.83" x2="49.15" y2="23.11"/><line class="cls-1" x1="49.15" y1="26.83" x2="49.15" y2="26.87"/><line class="cls-1" x1="37.29" y1="31.24" x2="47.59" y2="31.24"/><line class="cls-1" x1="47.59" y1="31.24" x2="62.03" y2="31.24"/><line class="cls-1" x1="47.59" y1="31.24" x2="47.59" y2="31.22"/><line class="cls-1" x1="47.59" y1="31.24" x2="47.59" y2="34.62"/><line class="cls-1" x1="47.59" y1="34.62" x2="47.59" y2="34.68"/><line class="cls-1" x1="41.86" y1="26.87" x2="41.86" y2="31.22"/><path class="cls-1" d="M54.22,9.47c1.13,2.47,3.83,2.25,4.73-.23C56.92,10.25,56.25,10.25,54.22,9.47Z"/><path class="cls-1" d="M48,5.45c1.13,2.47,3.83,2.25,4.73-.23C50.71,6.24,50,6.24,48,5.45Z"/><path class="cls-1" d="M45.74,1.47c-2,1-2.7,1-4.73.23C42.14,4.17,44.84,4,45.74,1.47Z"/><path class="cls-1" d="M37.29,0a2.86,2.86,0,0,0,1.82-1.89,7.87,7.87,0,0,1-1.82.72"/><path class="cls-1" d="M37.29,29.46a3.7,3.7,0,0,0,.62-1.09c-.22.11-.42.21-.62.29"/><path class="cls-1" d="M53.93,24.2c1.13,2.48,3.83,2.25,4.73-.22C56.63,25,56,25,53.93,24.2Z"/><path class="cls-1" d="M53,20.29c-2,1-2.7,1-4.72.22C49.43,23,52.13,22.76,53,20.29Z"/><path class="cls-1" d="M41.85,17c1.12,2.48,3.82,2.25,4.72-.23C44.55,17.83,43.87,17.83,41.85,17Z"/><path class="cls-1" d="M37.29,14.84a3,3,0,0,0,1.54-1.78,9.11,9.11,0,0,1-1.54.64"/><path class="cls-1" d="M43.87,32.06c-2,1-2.7,1-4.73.22C40.27,34.76,43,34.53,43.87,32.06Z"/><path class="cls-1" d="M46.79-.2c2-.78,2.69-.78,4.72.23C50.61-2.45,47.91-2.67,46.79-.2Z"/><path class="cls-1" d="M57.09,33.94c-.9-2.47-3.6-2.7-4.72-.22C54.39,32.93,55.07,32.93,57.09,33.94Z"/><path class="cls-1" d="M45.86,29.78c2-.79,2.7-.79,4.72.23C49.68,27.53,47,27.31,45.86,29.78Z"/><path class="cls-1" d="M46.89,15c2-.79,2.7-.79,4.72.22C50.71,12.72,48,12.49,46.89,15Z"/><path class="cls-1" d="M40.73,10.82c2-.78,2.7-.78,4.72.23C44.55,8.57,41.85,8.35,40.73,10.82Z"/><path class="cls-1" d="M37.29,5.4c1.21-.52,2.64.12,3.25,1.79a4.49,4.49,0,0,0-3.25-.7"/><path class="cls-1" d="M40.6,25.66c2-.79,2.7-.79,4.72.22C44.42,23.41,41.72,23.18,40.6,25.66Z"/><path class="cls-1" d="M37.29,21.54c1.11-.27,1.87-.07,3.37.68-.63-1.73-2.13-2.36-3.37-1.75"/><line class="cls-1" x1="46.37" y1="32.16" x2="44.49" y2="33.78"/><line class="cls-1" x1="50.73" y1="33.84" x2="49.61" y2="32.09"/><line class="cls-1" x1="53.56" y1="28.4" x2="51.68" y2="30.02"/><line class="cls-1" x1="41.11" y1="28.66" x2="39.23" y2="30.28"/><line class="cls-1" x1="51.98" y1="25.97" x2="51.29" y2="24.03"/><line class="cls-1" x1="44.39" y1="30.03" x2="43.27" y2="28.28"/><line class="cls-1" x1="54.5" y1="13.53" x2="52.63" y2="15.16"/><line class="cls-1" x1="53.79" y1="17.28" x2="51.86" y2="18.59"/><line class="cls-1" x1="45.48" y1="22.22" x2="47.36" y2="20.59"/><line class="cls-1" x1="39.79" y1="24.28" x2="38.28" y2="25.84"/><line class="cls-1" x1="45.29" y1="15.16" x2="44.17" y2="13.41"/><line class="cls-1" x1="49.04" y1="18.41" x2="47.54" y2="16.91"/><line class="cls-1" x1="41.54" y1="20.41" x2="42.67" y2="22.16"/><line class="cls-1" x1="47.71" y1="25.76" x2="46.09" y2="24.14"/><line class="cls-1" x1="54.36" y1="20.47" x2="55.48" y2="22.22"/><line class="cls-1" x1="55.88" y1="5.41" x2="54" y2="7.03"/><line class="cls-1" x1="52.54" y1="9.41" x2="50.67" y2="11.03"/><line class="cls-1" x1="41.54" y1="13.66" x2="39.67" y2="15.28"/><line class="cls-1" x1="40.67" y1="17.22" x2="39.17" y2="18.53"/><line class="cls-1" x1="40.16" y1="9.22" x2="38.28" y2="10.84"/><line class="cls-1" x1="46.42" y1="7.03" x2="45.29" y2="5.28"/><line class="cls-1" x1="47.89" y1="10.91" x2="46.77" y2="9.16"/><line class="cls-1" x1="46.67" y1="1.62" x2="48.29" y2="3.28"/><line class="cls-1" x1="42.91" y1="7.43" x2="41.78" y2="5.68"/><line class="cls-1" x1="53.15" y1="3.59" x2="52.02" y2="1.84"/><line class="cls-1" x1="54.79" y1="-1.53" x2="52.92" y2="0.09"/><line class="cls-1" x1="39.89" y1="1.66" x2="38.42" y2="3.28"/><line class="cls-1" x1="41.79" y1="-1.59" x2="39.92" y2="0.03"/><line class="cls-1" x1="45.67" y1="0.03" x2="44.54" y2="-1.72"/><rect class="cls-2" x="37.29" y="-18.67" width="54.13" height="54.13"/><line class="cls-1" x1="49.89" y1="39.21" x2="55.97" y2="39.21"/><line class="cls-1" x1="49.89" y1="39.21" x2="43.22" y2="39.21"/><line class="cls-1" x1="37.29" y1="39.21" x2="43.22" y2="39.21"/><line class="cls-1" x1="91.42" y1="43.38" x2="37.29" y2="43.38"/><line class="cls-1" x1="49.21" y1="47.57" x2="37.29" y2="47.57"/><line class="cls-1" x1="64.08" y1="47.57" x2="49.21" y2="47.57"/><line class="cls-1" x1="55.97" y1="51.59" x2="43.22" y2="51.59"/><line class="cls-1" x1="43.22" y1="51.59" x2="37.29" y2="51.59"/><line class="cls-1" x1="43.22" y1="35.46" x2="43.22" y2="39.21"/><line class="cls-1" x1="49.89" y1="39.21" x2="49.89" y2="39.15"/><line class="cls-1" x1="49.89" y1="39.21" x2="49.89" y2="43.37"/><line class="cls-1" x1="44.33" y1="47.56" x2="44.33" y2="43.51"/><line class="cls-1" x1="49.21" y1="47.57" x2="49.21" y2="47.56"/><line class="cls-1" x1="49.21" y1="47.57" x2="49.21" y2="51.56"/><line class="cls-1" x1="43.22" y1="51.59" x2="43.22" y2="51.56"/><line class="cls-1" x1="43.22" y1="51.59" x2="43.22" y2="54.86"/><path class="cls-1" d="M37.29,54.13a2.82,2.82,0,0,0,1.82-1.89,7.44,7.44,0,0,1-1.82.72"/><path class="cls-1" d="M52.66,44.74c-2,1-2.7,1-4.73.23C49.06,47.44,51.76,47.22,52.66,44.74Z"/><path class="cls-1" d="M41.17,40.57c1.13,2.48,3.83,2.25,4.73-.22C43.87,41.36,43.2,41.36,41.17,40.57Z"/><path class="cls-1" d="M37.29,38A2.93,2.93,0,0,0,39,36.14a9.07,9.07,0,0,1-1.68.68"/><path class="cls-1" d="M37.29,45.87a4.67,4.67,0,0,1,3,.74,2.53,2.53,0,0,0-3-1.88"/><path class="cls-1" d="M45.13,50.51c-.9-2.48-3.59-2.7-4.72-.23C42.43,49.49,43.11,49.49,45.13,50.51Z"/><path class="cls-1" d="M46.79,53.93c2-.79,2.69-.79,4.72.22C50.61,51.68,47.91,51.45,46.79,53.93Z"/><path class="cls-1" d="M52.22,38.31c-.9-2.48-3.6-2.7-4.73-.23C49.52,37.29,50.19,37.29,52.22,38.31Z"/><line class="cls-1" x1="51.73" y1="48.78" x2="52.86" y2="50.53"/><line class="cls-1" x1="53.54" y1="46.53" x2="55.42" y2="44.91"/><line class="cls-1" x1="46.36" y1="50.53" x2="48.23" y2="48.91"/><line class="cls-1" x1="54.79" y1="52.59" x2="52.92" y2="54.22"/><line class="cls-1" x1="41.79" y1="52.53" x2="39.92" y2="54.16"/><line class="cls-1" x1="46.04" y1="44.53" x2="46.86" y2="46.72"/><line class="cls-1" x1="38.04" y1="48.84" x2="39.17" y2="50.59"/><line class="cls-1" x1="45.67" y1="54.16" x2="44.54" y2="52.41"/><line class="cls-1" x1="41.42" y1="44.84" x2="42.54" y2="46.59"/><line class="cls-1" x1="40.03" y1="42.47" x2="38.91" y2="40.72"/><line class="cls-1" x1="44.92" y1="37.66" x2="46.79" y2="36.03"/><line class="cls-1" x1="40.03" y1="37.72" x2="41.91" y2="36.09"/><line class="cls-1" x1="48.68" y1="40.72" x2="46.81" y2="42.34"/><line class="cls-1" x1="53.02" y1="42.47" x2="51.9" y2="40.72"/><line class="cls-1" x1="53.54" y1="36.09" x2="54.29" y2="38.13"/><rect class="cls-2" x="37.29" y="35.46" width="54.13" height="54.13"/><line class="cls-1" x1="16.93" y1="23.06" x2="31.8" y2="23.06"/><line class="cls-1" x1="-9.95" y1="23.06" x2="3.3" y2="23.06"/><line class="cls-1" x1="3.3" y1="23.06" x2="16.93" y2="23.06"/><line class="cls-1" x1="31.8" y1="23.06" x2="37.29" y2="23.06"/><line class="cls-1" x1="37.29" y1="23.06" x2="37.36" y2="23.06"/><line class="cls-1" x1="36.9" y1="26.83" x2="37.29" y2="26.83"/><line class="cls-1" x1="9.58" y1="26.83" x2="23.45" y2="26.83"/><line class="cls-1" x1="-4.97" y1="26.83" x2="9.58" y2="26.83"/><line class="cls-1" x1="23.45" y1="26.83" x2="36.9" y2="26.83"/><line class="cls-1" x1="-4.36" y1="0.74" x2="10.64" y2="0.74"/><line class="cls-1" x1="24.39" y1="0.74" x2="10.64" y2="0.74"/><line class="cls-1" x1="37.14" y1="0.74" x2="37.29" y2="0.74"/><line class="cls-1" x1="24.39" y1="0.74" x2="37.14" y2="0.74"/><line class="cls-1" x1="31.83" y1="4.17" x2="37.29" y2="4.17"/><line class="cls-1" x1="3.33" y1="4.17" x2="-10.17" y2="4.17"/><line class="cls-1" x1="16.96" y1="4.17" x2="3.33" y2="4.17"/><line class="cls-1" x1="31.83" y1="4.17" x2="16.96" y2="4.17"/><line class="cls-1" x1="-16.83" y1="8.22" x2="37.29" y2="8.22"/><line class="cls-1" x1="-16.83" y1="12.02" x2="37.29" y2="12.02"/><line class="cls-1" x1="37.29" y1="16.22" x2="37.36" y2="16.22"/><line class="cls-1" x1="37.29" y1="16.22" x2="-16.83" y2="16.22"/><line class="cls-1" x1="-16.83" y1="19.44" x2="37.29" y2="19.44"/><line class="cls-1" x1="21.53" y1="34.62" x2="15.34" y2="34.62"/><line class="cls-1" x1="21.53" y1="34.62" x2="29.72" y2="34.62"/><line class="cls-1" x1="7.9" y1="34.62" x2="15.34" y2="34.62"/><line class="cls-1" x1="34.9" y1="34.62" x2="29.72" y2="34.62"/><line class="cls-1" x1="-6.54" y1="34.62" x2="1.84" y2="34.62"/><line class="cls-1" x1="7.9" y1="34.62" x2="1.84" y2="34.62"/><line class="cls-1" x1="34.9" y1="34.62" x2="37.29" y2="34.62"/><line class="cls-1" x1="1.84" y1="34.61" x2="1.84" y2="34.62"/><line class="cls-1" x1="1.84" y1="35.46" x2="1.84" y2="34.62"/><line class="cls-1" x1="15.34" y1="34.61" x2="15.34" y2="34.62"/><line class="cls-1" x1="15.34" y1="35.46" x2="15.34" y2="34.62"/><line class="cls-1" x1="29.72" y1="34.61" x2="29.72" y2="34.62"/><line class="cls-1" x1="29.72" y1="35.46" x2="29.72" y2="34.62"/><line class="cls-1" x1="29.72" y1="-2.54" x2="29.72" y2="0.73"/><line class="cls-1" x1="15.09" y1="-2.54" x2="15.09" y2="0.73"/><line class="cls-1" x1="1.84" y1="-2.54" x2="1.84" y2="0.73"/><line class="cls-1" x1="10.64" y1="0.74" x2="10.64" y2="4.16"/><line class="cls-1" x1="10.64" y1="0.74" x2="10.64" y2="0.73"/><line class="cls-1" x1="24.39" y1="0.74" x2="24.39" y2="0.73"/><line class="cls-1" x1="24.39" y1="0.74" x2="24.39" y2="4.16"/><line class="cls-1" x1="37.14" y1="0.74" x2="37.14" y2="0.73"/><line class="cls-1" x1="37.14" y1="0.74" x2="37.14" y2="4.16"/><line class="cls-1" x1="3.33" y1="4.16" x2="3.33" y2="4.17"/><line class="cls-1" x1="3.33" y1="4.17" x2="3.33" y2="8.21"/><line class="cls-1" x1="16.96" y1="4.17" x2="16.96" y2="8.21"/><line class="cls-1" x1="16.96" y1="4.16" x2="16.96" y2="4.17"/><line class="cls-1" x1="31.83" y1="4.17" x2="31.83" y2="8.21"/><line class="cls-1" x1="31.83" y1="4.17" x2="31.83" y2="4.16"/><line class="cls-1" x1="23.21" y1="8.27" x2="23.21" y2="12.01"/><line class="cls-1" x1="9.88" y1="8.27" x2="9.88" y2="12.01"/><line class="cls-1" x1="36.43" y1="12.01" x2="36.43" y2="8.27"/><line class="cls-1" x1="1.69" y1="12.07" x2="1.69" y2="16.21"/><line class="cls-1" x1="15.32" y1="12.07" x2="15.32" y2="16.21"/><line class="cls-1" x1="29.57" y1="12.07" x2="29.57" y2="16.21"/><line class="cls-1" x1="25.37" y1="16.27" x2="25.37" y2="19.43"/><line class="cls-1" x1="11.22" y1="16.27" x2="11.22" y2="19.43"/><line class="cls-1" x1="3.3" y1="23.06" x2="3.3" y2="19.49"/><line class="cls-1" x1="16.93" y1="23.06" x2="16.93" y2="19.49"/><line class="cls-1" x1="31.8" y1="23.06" x2="31.8" y2="19.49"/><line class="cls-1" x1="23.45" y1="26.83" x2="23.45" y2="26.87"/><line class="cls-1" x1="23.45" y1="26.83" x2="23.45" y2="23.11"/><line class="cls-1" x1="9.58" y1="26.83" x2="9.58" y2="23.11"/><line class="cls-1" x1="9.58" y1="26.83" x2="9.58" y2="26.87"/><line class="cls-1" x1="36.9" y1="26.83" x2="36.9" y2="26.87"/><line class="cls-1" x1="36.9" y1="26.83" x2="36.9" y2="23.11"/><line class="cls-1" x1="34.9" y1="31.24" x2="37.29" y2="31.24"/><line class="cls-1" x1="21.53" y1="31.24" x2="34.9" y2="31.24"/><line class="cls-1" x1="21.53" y1="31.24" x2="7.9" y2="31.24"/><line class="cls-1" x1="-6.54" y1="31.24" x2="7.9" y2="31.24"/><line class="cls-1" x1="7.9" y1="31.24" x2="7.9" y2="34.62"/><line class="cls-1" x1="7.9" y1="31.24" x2="7.9" y2="31.22"/><line class="cls-1" x1="7.9" y1="34.62" x2="7.9" y2="34.68"/><line class="cls-1" x1="21.53" y1="34.62" x2="21.53" y2="31.24"/><line class="cls-1" x1="21.53" y1="34.62" x2="21.53" y2="34.68"/><line class="cls-1" x1="21.53" y1="31.24" x2="21.53" y2="31.22"/><line class="cls-1" x1="34.9" y1="34.62" x2="34.9" y2="34.68"/><line class="cls-1" x1="34.9" y1="31.24" x2="34.9" y2="31.22"/><line class="cls-1" x1="34.9" y1="31.24" x2="34.9" y2="34.62"/><line class="cls-1" x1="0.74" y1="26.87" x2="0.74" y2="31.22"/><line class="cls-1" x1="14.74" y1="26.87" x2="14.74" y2="31.22"/><line class="cls-1" x1="29.3" y1="26.87" x2="29.3" y2="31.22"/><path class="cls-1" d="M5.1,28.49c1.12,2.48,3.82,2.25,4.72-.22C7.8,29.28,7.12,29.28,5.1,28.49Z"/><path class="cls-1" d="M32.53,24.18c-2,1-2.7,1-4.72.23C28.93,26.88,31.63,26.66,32.53,24.18Z"/><path class="cls-1" d="M26.57,20.35c-2,1-2.7,1-4.72.22C23,23.05,25.67,22.82,26.57,20.35Z"/><path class="cls-1" d="M16.66,17.07c1.13,2.48,3.82,2.25,4.72-.22C19.36,17.86,18.68,17.86,16.66,17.07Z"/><path class="cls-1" d="M6,13.41c1.12,2.47,3.82,2.25,4.72-.23C8.73,14.19,8.06,14.19,6,13.41Z"/><path class="cls-1" d="M.1,9.47c1.12,2.47,3.82,2.25,4.72-.23C2.8,10.25,2.12,10.25.1,9.47Z"/><path class="cls-1" d="M27.31,9.32c1.12,2.48,3.82,2.25,4.72-.22C30,10.11,29.33,10.11,27.31,9.32Z"/><path class="cls-1" d="M21.85,5.59c1.12,2.48,3.82,2.25,4.72-.22C24.55,6.38,23.87,6.38,21.85,5.59Z"/><path class="cls-1" d="M20,1.66c-2,1-2.7,1-4.73.23C16.39,4.36,19.09,4.14,20,1.66Z"/><path class="cls-1" d="M6.41-1.62C7.54.86,10.23.63,11.13-1.84,9.11-.83,8.43-.83,6.41-1.62Z"/><path class="cls-1" d="M-.19,24.2C.93,26.68,3.63,26.45,4.53,24,2.51,25,1.83,25-.19,24.2Z"/><path class="cls-1" d="M17.27,32.06c-2,1-2.7,1-4.73.22C13.67,34.76,16.37,34.53,17.27,32.06Z"/><path class="cls-1" d="M30.55,34c-.9-2.47-3.6-2.7-4.72-.22C27.85,33,28.53,33,30.55,34Z"/><path class="cls-1" d="M5.53,3.59C4.63,1.12,1.93.89.81,3.37,2.83,2.58,3.51,2.58,5.53,3.59Z"/><path class="cls-1" d="M7.79,7c2-.79,2.7-.79,4.72.22C11.61,4.7,8.91,4.47,7.79,7Z"/><path class="cls-1" d="M14,11c2-.79,2.7-.79,4.73.22C17.78,8.72,15.08,8.49,14,11Z"/><path class="cls-1" d="M19.83,15c2-.79,2.7-.79,4.72.22C23.65,12.7,21,12.47,19.83,15Z"/><path class="cls-1" d="M29.27,18.59c2-.79,2.7-.79,4.72.22C33.09,16.34,30.39,16.12,29.27,18.59Z"/><path class="cls-1" d="M24.38.19c-.9-2.47-3.59-2.7-4.72-.22C21.68-.82,22.36-.82,24.38.19Z"/><path class="cls-1" d="M32.63,3.51C31.73,1,29,.81,27.91,3.28,29.93,2.49,30.61,2.49,32.63,3.51Z"/><path class="cls-1" d="M3,33.94c-.9-2.47-3.6-2.7-4.73-.22C.27,32.93.94,32.93,3,33.94Z"/><path class="cls-1" d="M19.93,29.66c2-.79,2.7-.79,4.73.22C23.76,27.41,21.06,27.18,19.93,29.66Z"/><path class="cls-1" d="M13.56,25.66c2-.79,2.7-.79,4.72.22C17.38,23.41,14.68,23.18,13.56,25.66Z"/><path class="cls-1" d="M12.34,22.26c-.9-2.48-3.6-2.7-4.72-.23C9.64,21.24,10.32,21.24,12.34,22.26Z"/><path class="cls-1" d="M1,18.62c2-.79,2.7-.79,4.73.22C4.78,16.37,2.08,16.15,1,18.62Z"/><path class="cls-1" d="M37.29-1.15a4.88,4.88,0,0,1-2.86-.51A2.48,2.48,0,0,0,37.29,0"/><path class="cls-1" d="M37.29,28.68c-1.54.69-2.27.61-4.06-.09.91,2,2.88,2.25,4.06.91"/><path class="cls-1" d="M37.29,13.72a4.57,4.57,0,0,1-3.14-.44c.7,1.56,2,2,3.14,1.58"/><path class="cls-1" d="M37.29,5.42A3,3,0,0,0,35.86,7a9.78,9.78,0,0,1,1.43-.47"/><path class="cls-1" d="M37.29,20.49A3.09,3.09,0,0,0,36,22a10.14,10.14,0,0,1,1.32-.44"/><line class="cls-1" x1="33.11" y1="32.28" x2="31.86" y2="33.91"/><line class="cls-1" x1="23.92" y1="33.91" x2="22.79" y2="32.16"/><line class="cls-1" x1="27.94" y1="28.59" x2="25.75" y2="29.91"/><line class="cls-1" x1="33.42" y1="25.97" x2="35.29" y2="24.34"/><line class="cls-1" x1="21.42" y1="24.28" x2="20.11" y2="26.03"/><line class="cls-1" x1="18.11" y1="30.22" x2="16.98" y2="28.47"/><line class="cls-1" x1="11.04" y1="33.97" x2="9.92" y2="32.22"/><line class="cls-1" x1="12.29" y1="28.03" x2="11.23" y2="29.97"/><line class="cls-1" x1="3.73" y1="29.97" x2="2.61" y2="28.22"/><line class="cls-1" x1="5.72" y1="32.16" x2="4.54" y2="33.97"/><line class="cls-1" x1="20.04" y1="32.16" x2="18.17" y2="33.78"/><line class="cls-1" x1="7.48" y1="24.34" x2="5.61" y2="25.97"/><line class="cls-1" x1="32.17" y1="30.41" x2="31.04" y2="28.66"/><line class="cls-1" x1="35.92" y1="32.03" x2="37.04" y2="33.78"/><line class="cls-1" x1="26.48" y1="26.03" x2="24.67" y2="24.41"/><line class="cls-1" x1="13.79" y1="22.22" x2="15.67" y2="20.59"/><line class="cls-1" x1="5.19" y1="20.47" x2="6.31" y2="22.22"/><line class="cls-1" x1="23.84" y1="17.09" x2="21.96" y2="18.72"/><line class="cls-1" x1="18.54" y1="22.16" x2="20.42" y2="20.53"/><line class="cls-1" x1="15.13" y1="18.53" x2="13.5" y2="16.97"/><line class="cls-1" x1="13.61" y1="13.41" x2="11.73" y2="15.03"/><line class="cls-1" x1="4.04" y1="15.28" x2="3.04" y2="13.16"/><line class="cls-1" x1="8.29" y1="18.78" x2="7.17" y2="17.03"/><line class="cls-1" x1="0.38" y1="13.53" x2="-1.5" y2="15.16"/><line class="cls-1" x1="11.92" y1="26.09" x2="10.79" y2="24.34"/><line class="cls-1" x1="0.23" y1="20.47" x2="1.36" y2="22.22"/><line class="cls-1" x1="1.75" y1="5.41" x2="-0.12" y2="7.03"/><line class="cls-1" x1="15.71" y1="5.53" x2="13.84" y2="7.16"/><line class="cls-1" x1="13.04" y1="9.47" x2="11.17" y2="11.09"/><line class="cls-1" x1="6.42" y1="7.28" x2="4.67" y2="5.41"/><line class="cls-1" x1="20.92" y1="11.03" x2="19.79" y2="9.28"/><line class="cls-1" x1="18.17" y1="15.47" x2="17.04" y2="13.72"/><line class="cls-1" x1="7.42" y1="10.91" x2="6.29" y2="9.16"/><line class="cls-1" x1="8.98" y1="1.78" x2="7.11" y2="3.41"/><line class="cls-1" x1="22.79" y1="1.84" x2="20.92" y2="3.47"/><line class="cls-1" x1="20.36" y1="5.53" x2="18.48" y2="7.16"/><line class="cls-1" x1="26.11" y1="9.41" x2="24.23" y2="11.03"/><line class="cls-1" x1="27.92" y1="13.53" x2="26.04" y2="15.16"/><line class="cls-1" x1="28.13" y1="16.97" x2="26.94" y2="18.66"/><line class="cls-1" x1="34.98" y1="20.59" x2="33.11" y2="22.22"/><line class="cls-1" x1="13.86" y1="3.47" x2="12.73" y2="1.72"/><line class="cls-1" x1="35.99" y1="1.76" x2="34.11" y2="3.39"/><line class="cls-1" x1="35.07" y1="5.34" x2="33.19" y2="6.97"/><line class="cls-1" x1="31.11" y1="0.03" x2="32.98" y2="-1.59"/><line class="cls-1" x1="26.73" y1="3.41" x2="25.61" y2="1.66"/><line class="cls-1" x1="29.29" y1="7.03" x2="28.17" y2="5.28"/><line class="cls-1" x1="34.17" y1="11.03" x2="33.04" y2="9.28"/><line class="cls-1" x1="32.73" y1="15.16" x2="31.61" y2="13.41"/><line class="cls-1" x1="36.17" y1="18.72" x2="35.04" y2="16.97"/><line class="cls-1" x1="28.17" y1="20.47" x2="29.29" y2="22.22"/><line class="cls-1" x1="27.17" y1="-0.03" x2="26.04" y2="-1.78"/><line class="cls-1" x1="16.79" y1="-0.09" x2="18.67" y2="-1.72"/><line class="cls-1" x1="12.23" y1="-1.66" x2="13.36" y2="0.09"/><line class="cls-1" x1="0.67" y1="-1.53" x2="-1.21" y2="0.09"/><line class="cls-1" x1="5.44" y1="-1.66" x2="3.56" y2="-0.03"/><rect class="cls-2" x="-16.83" y="-18.67" width="54.13" height="54.13"/><line class="cls-1" x1="-4.23" y1="39.21" x2="1.84" y2="39.21"/><line class="cls-1" x1="24.27" y1="39.21" x2="15.34" y2="39.21"/><line class="cls-1" x1="37.09" y1="39.21" x2="29.72" y2="39.21"/><line class="cls-1" x1="24.27" y1="39.21" x2="29.72" y2="39.21"/><line class="cls-1" x1="37.09" y1="39.21" x2="37.29" y2="39.21"/><line class="cls-1" x1="10.64" y1="39.21" x2="15.34" y2="39.21"/><line class="cls-1" x1="10.64" y1="39.21" x2="1.84" y2="39.21"/><line class="cls-1" x1="37.29" y1="43.38" x2="-16.83" y2="43.38"/><line class="cls-1" x1="23.33" y1="47.57" x2="36.58" y2="47.57"/><line class="cls-1" x1="23.33" y1="47.57" x2="9.96" y2="47.57"/><line class="cls-1" x1="9.96" y1="47.57" x2="-4.92" y2="47.57"/><line class="cls-1" x1="37.29" y1="47.57" x2="36.58" y2="47.57"/><line class="cls-1" x1="29.72" y1="51.59" x2="37.29" y2="51.59"/><line class="cls-1" x1="1.84" y1="51.59" x2="-10.91" y2="51.59"/><line class="cls-1" x1="15.09" y1="51.59" x2="1.84" y2="51.59"/><line class="cls-1" x1="15.09" y1="51.59" x2="29.72" y2="51.59"/><line class="cls-1" x1="1.84" y1="35.46" x2="1.84" y2="39.21"/><line class="cls-1" x1="15.34" y1="35.46" x2="15.34" y2="39.21"/><line class="cls-1" x1="29.72" y1="35.46" x2="29.72" y2="39.21"/><line class="cls-1" x1="10.64" y1="39.21" x2="10.64" y2="43.37"/><line class="cls-1" x1="10.64" y1="39.21" x2="10.64" y2="39.15"/><line class="cls-1" x1="24.27" y1="39.21" x2="24.27" y2="43.37"/><line class="cls-1" x1="24.27" y1="39.21" x2="24.27" y2="39.15"/><line class="cls-1" x1="37.09" y1="39.21" x2="37.09" y2="39.15"/><line class="cls-1" x1="37.09" y1="39.21" x2="37.09" y2="43.37"/><line class="cls-1" x1="3.46" y1="47.56" x2="3.46" y2="43.51"/><line class="cls-1" x1="17.02" y1="47.56" x2="17.02" y2="43.51"/><line class="cls-1" x1="31.96" y1="47.56" x2="31.96" y2="43.51"/><line class="cls-1" x1="23.33" y1="47.57" x2="23.33" y2="51.56"/><line class="cls-1" x1="23.33" y1="47.57" x2="23.33" y2="47.56"/><line class="cls-1" x1="9.96" y1="47.57" x2="9.96" y2="47.56"/><line class="cls-1" x1="9.96" y1="47.57" x2="9.96" y2="51.56"/><line class="cls-1" x1="36.58" y1="47.56" x2="36.58" y2="47.57"/><line class="cls-1" x1="36.58" y1="51.56" x2="36.58" y2="47.57"/><line class="cls-1" x1="29.72" y1="51.59" x2="29.72" y2="51.56"/><line class="cls-1" x1="29.72" y1="51.59" x2="29.72" y2="54.86"/><line class="cls-1" x1="15.09" y1="51.59" x2="15.09" y2="51.56"/><line class="cls-1" x1="15.09" y1="51.59" x2="15.09" y2="54.86"/><line class="cls-1" x1="1.84" y1="51.59" x2="1.84" y2="51.56"/><line class="cls-1" x1="1.84" y1="51.59" x2="1.84" y2="54.86"/><path class="cls-1" d="M6.41,52.51c1.13,2.47,3.82,2.25,4.72-.23C9.11,53.29,8.43,53.29,6.41,52.51Z"/><path class="cls-1" d="M5.49,48.56c-2,1-2.7,1-4.73.22C1.89,51.26,4.59,51,5.49,48.56Z"/><path class="cls-1" d="M32.66,48.66c-2,1-2.7,1-4.73.23C29.06,51.36,31.76,51.14,32.66,48.66Z"/><path class="cls-1" d="M26.93,44.64c-2,1-2.7,1-4.73.23C23.33,47.34,26,47.12,26.93,44.64Z"/><path class="cls-1" d="M14.81,40.74c1.12,2.48,3.82,2.25,4.72-.22C17.51,41.53,16.83,41.53,14.81,40.74Z"/><path class="cls-1" d="M11.05,36.22c-2,1-2.7,1-4.72.22C7.45,38.92,10.15,38.69,11.05,36.22Z"/><path class="cls-1" d="M.81,42.09c2-.78,2.7-.78,4.72.23C4.63,39.84,1.93,39.62.81,42.09Z"/><path class="cls-1" d="M24.72,38.19c-.9-2.47-3.6-2.7-4.73-.22C22,37.18,22.69,37.18,24.72,38.19Z"/><path class="cls-1" d="M12.76,46.49c-.9-2.48-3.6-2.7-4.72-.23C10.06,45.47,10.73,45.47,12.76,46.49Z"/><path class="cls-1" d="M18.67,50.61c-.9-2.47-3.6-2.7-4.72-.22C16,49.6,16.65,49.6,18.67,50.61Z"/><path class="cls-1" d="M24.38,54.32c-.9-2.48-3.59-2.7-4.72-.23C21.68,53.31,22.36,53.31,24.38,54.32Z"/><path class="cls-1" d="M28.08,41.91c2-.79,2.7-.79,4.72.22C31.9,39.66,29.2,39.43,28.08,41.91Z"/><path class="cls-1" d="M37.29,53a4.79,4.79,0,0,1-2.86-.5,2.5,2.5,0,0,0,2.86,1.68"/><path class="cls-1" d="M37.29,36.83a4.59,4.59,0,0,1-3-.47,2.45,2.45,0,0,0,3,1.63"/><path class="cls-1" d="M37.29,44.75a2.84,2.84,0,0,0-1.65,1.64,8.64,8.64,0,0,1,1.65-.52"/><line class="cls-1" x1="31.11" y1="54.16" x2="32.98" y2="52.53"/><line class="cls-1" x1="27.17" y1="54.09" x2="26.04" y2="52.34"/><line class="cls-1" x1="33.86" y1="42.26" x2="35.73" y2="40.64"/><line class="cls-1" x1="33.17" y1="46.59" x2="34.54" y2="44.91"/><line class="cls-1" x1="25.54" y1="40.47" x2="26.92" y2="41.91"/><line class="cls-1" x1="28.79" y1="44.78" x2="29.92" y2="46.53"/><line class="cls-1" x1="35.17" y1="50.47" x2="34.04" y2="48.72"/><line class="cls-1" x1="31.42" y1="36.09" x2="32.54" y2="37.84"/><line class="cls-1" x1="12.36" y1="37.78" x2="14.23" y2="36.16"/><line class="cls-1" x1="26.42" y1="37.66" x2="28.29" y2="36.03"/><line class="cls-1" x1="21.04" y1="42.16" x2="22.92" y2="40.53"/><line class="cls-1" x1="18.86" y1="46.59" x2="21.04" y2="44.66"/><line class="cls-1" x1="24.29" y1="50.03" x2="26.67" y2="48.66"/><line class="cls-1" x1="3.71" y1="36.16" x2="5.15" y2="38.13"/><line class="cls-1" x1="16.67" y1="36.16" x2="17.42" y2="38.01"/><line class="cls-1" x1="12.34" y1="40.78" x2="13.46" y2="42.53"/><line class="cls-1" x1="13.79" y1="46.59" x2="15.67" y2="44.97"/><line class="cls-1" x1="4.79" y1="44.66" x2="6.79" y2="46.16"/><line class="cls-1" x1="6.59" y1="50.78" x2="8.02" y2="48.91"/><line class="cls-1" x1="19.77" y1="50.28" x2="22.15" y2="48.78"/><line class="cls-1" x1="16.79" y1="54.03" x2="18.67" y2="52.41"/><line class="cls-1" x1="11.79" y1="48.66" x2="12.42" y2="50.78"/><line class="cls-1" x1="12.23" y1="52.47" x2="13.36" y2="54.22"/><line class="cls-1" x1="-0.58" y1="46.53" x2="1.29" y2="44.91"/><line class="cls-1" x1="0.67" y1="52.59" x2="-1.21" y2="54.22"/><line class="cls-1" x1="5.44" y1="52.47" x2="3.56" y2="54.09"/><line class="cls-1" x1="9.17" y1="40.84" x2="7.04" y2="42.16"/><line class="cls-1" x1="-0.58" y1="36.09" x2="0.17" y2="38.13"/><rect class="cls-2" x="-16.83" y="35.46" width="54.13" height="54.13"/><rect class="cls-2" width="54.12" height="54.13"/></svg>