<svg id="Layer_1" data-name="Layer 1" xmlns="http://www.w3.org/2000/svg" width="54.23" height="54.13" viewBox="0 0 54.23 54.13"><defs><style>.cls-1,.cls-2{fill:none;}.cls-1{stroke:#231f20;stroke-width:0.3px;}</style></defs><title>Artboard 37</title><line class="cls-1" x1="48.49" y1="-0.5" x2="48.49" y2="2.35"/><line class="cls-1" x1="38.99" y1="-0.53" x2="38.99" y2="2.35"/><line class="cls-1" x1="52.86" y1="5.91" x2="52.86" y2="3.37"/><line class="cls-1" x1="52.86" y1="5.91" x2="52.86" y2="5.98"/><line class="cls-1" x1="44.11" y1="5.95" x2="44.11" y2="3.24"/><line class="cls-1" x1="44.11" y1="5.98" x2="44.11" y2="5.95"/><line class="cls-1" x1="34.61" y1="3.3" x2="34.61" y2="3.26"/><line class="cls-1" x1="34.61" y1="3.3" x2="34.61" y2="5.99"/><line class="cls-1" x1="48.36" y1="9.73" x2="48.36" y2="6.83"/><line class="cls-1" x1="48.36" y1="6.83" x2="48.36" y2="6.74"/><line class="cls-1" x1="38.86" y1="6.8" x2="38.86" y2="6.71"/><line class="cls-1" x1="38.86" y1="9.79" x2="38.86" y2="9.85"/><line class="cls-1" x1="38.86" y1="6.8" x2="38.86" y2="9.79"/><line class="cls-1" x1="52.99" y1="13.36" x2="52.99" y2="13.48"/><line class="cls-1" x1="52.99" y1="13.36" x2="52.99" y2="10.62"/><line class="cls-1" x1="52.99" y1="10.49" x2="52.99" y2="10.62"/><line class="cls-1" x1="44.24" y1="10.59" x2="44.24" y2="10.37"/><line class="cls-1" x1="44.24" y1="13.41" x2="44.24" y2="13.48"/><line class="cls-1" x1="44.24" y1="10.59" x2="44.24" y2="13.41"/><line class="cls-1" x1="34.74" y1="13.46" x2="34.74" y2="13.48"/><line class="cls-1" x1="34.74" y1="10.69" x2="34.74" y2="13.46"/><line class="cls-1" x1="34.74" y1="10.69" x2="34.74" y2="10.62"/><line class="cls-1" x1="49.11" y1="14.29" x2="49.11" y2="17.35"/><line class="cls-1" x1="49.11" y1="14.24" x2="49.11" y2="14.29"/><line class="cls-1" x1="39.61" y1="14.26" x2="39.61" y2="14.28"/><line class="cls-1" x1="39.61" y1="14.28" x2="39.61" y2="17.35"/><line class="cls-1" x1="52.61" y1="18.24" x2="52.61" y2="20.92"/><line class="cls-1" x1="52.61" y1="20.92" x2="52.61" y2="20.98"/><line class="cls-1" x1="43.86" y1="18.22" x2="43.86" y2="18.12"/><line class="cls-1" x1="43.86" y1="20.98" x2="43.86" y2="20.97"/><line class="cls-1" x1="43.86" y1="18.22" x2="43.86" y2="20.97"/><line class="cls-1" x1="34.36" y1="21.03" x2="34.36" y2="21.1"/><line class="cls-1" x1="34.36" y1="21.03" x2="34.36" y2="18.37"/><line class="cls-1" x1="48.74" y1="21.86" x2="48.74" y2="24.85"/><line class="cls-1" x1="48.74" y1="21.62" x2="48.74" y2="21.86"/><line class="cls-1" x1="39.24" y1="21.87" x2="39.24" y2="24.85"/><line class="cls-1" x1="52.49" y1="28.93" x2="52.49" y2="25.87"/><line class="cls-1" x1="52.49" y1="28.93" x2="52.49" y2="28.98"/><line class="cls-1" x1="43.74" y1="25.74" x2="43.74" y2="28.85"/><line class="cls-1" x1="34.24" y1="29.1" x2="34.24" y2="29.04"/><line class="cls-1" x1="34.24" y1="25.76" x2="34.24" y2="25.8"/><line class="cls-1" x1="34.24" y1="29.04" x2="34.24" y2="25.8"/><line class="cls-1" x1="48.24" y1="29.87" x2="48.24" y2="29.84"/><line class="cls-1" x1="48.24" y1="29.87" x2="48.24" y2="32.48"/><line class="cls-1" x1="38.74" y1="32.53" x2="38.74" y2="32.6"/><line class="cls-1" x1="38.74" y1="32.53" x2="38.74" y2="29.87"/><path class="cls-1" d="M57.24,2.31a4.21,4.21,0,0,0-2.08.48,5.6,5.6,0,0,1-4.5,0,4.74,4.74,0,0,0-2.17-.39"/><path class="cls-1" d="M34.61,3.3a7,7,0,0,1-1.55-.38"/><path class="cls-1" d="M48.49,2.35a5.91,5.91,0,0,0-2.33.39,5.94,5.94,0,0,1-4.59,0,6.78,6.78,0,0,0-4.5,0,4.93,4.93,0,0,1-2.46.51"/><path class="cls-1" d="M38.86,6.8a5.4,5.4,0,0,0,2.42-.48A6.56,6.56,0,0,1,44.11,6"/><path class="cls-1" d="M34.61,6a7,7,0,0,0-1.55.11"/><path class="cls-1" d="M44.11,6a3.78,3.78,0,0,1,1.67.37,6.46,6.46,0,0,0,2.58.51"/><path class="cls-1" d="M38.86,6.8a6.29,6.29,0,0,1-2.16-.43A6.69,6.69,0,0,0,34.61,6"/><path class="cls-1" d="M52.86,5.91a4.56,4.56,0,0,0-2.58.46,4.24,4.24,0,0,1-1.92.46"/><path class="cls-1" d="M52.86,5.91a5.59,5.59,0,0,1,2,.57,5.22,5.22,0,0,0,2.25.39"/><path class="cls-1" d="M57.11,9.68a4.21,4.21,0,0,0-2,.49,4.4,4.4,0,0,1-2.17.45"/><path class="cls-1" d="M44.24,10.59a5.27,5.27,0,0,0,1.92-.48,5.86,5.86,0,0,1,2.2-.38"/><path class="cls-1" d="M53,10.62a6.15,6.15,0,0,1-2.33-.51,4.9,4.9,0,0,0-2.3-.38"/><path class="cls-1" d="M34.74,10.69a7.42,7.42,0,0,1-1.68-.4"/><path class="cls-1" d="M38.86,9.79a4.66,4.66,0,0,0-1.79.38,5.26,5.26,0,0,1-2.33.52"/><path class="cls-1" d="M38.86,9.79a6.94,6.94,0,0,1,2.71.38,6.49,6.49,0,0,0,2.67.42"/><path class="cls-1" d="M39.61,14.28a6.51,6.51,0,0,1-2.41-.43,6.86,6.86,0,0,0-2.46-.39"/><path class="cls-1" d="M53,13.36a4.41,4.41,0,0,0-2.21.49,4.18,4.18,0,0,1-1.67.44"/><path class="cls-1" d="M44.24,13.41a6.43,6.43,0,0,0-2.46.38,5.36,5.36,0,0,1-2.17.49"/><path class="cls-1" d="M49.11,14.29a6.21,6.21,0,0,1-2.83-.5,4.46,4.46,0,0,0-2-.38"/><path class="cls-1" d="M34.74,13.46a5.91,5.91,0,0,0-1.68.24"/><path class="cls-1" d="M53,13.36a5.82,5.82,0,0,1,2.37.59,6,6,0,0,0,4.5-.1,5,5,0,0,1,2.5-.52"/><path class="cls-1" d="M57.86,17.35a4.66,4.66,0,0,0-2.83.43,5.61,5.61,0,0,1-4.5-.05,6.72,6.72,0,0,0-4.5,0,5.53,5.53,0,0,1-2.17.49"/><path class="cls-1" d="M43.86,18.22a6.52,6.52,0,0,1-2.41-.44,6.78,6.78,0,0,0-4.5,0c-1.23.4-1.75.89-3.89.17"/><path class="cls-1" d="M48.74,21.86A6.22,6.22,0,0,1,46,21.35,4.7,4.7,0,0,0,43.86,21"/><path class="cls-1" d="M52.61,20.92a4.36,4.36,0,0,0-2.08.49,4.27,4.27,0,0,1-1.79.45"/><path class="cls-1" d="M34.36,21a6.9,6.9,0,0,1,2.59.38,5.88,5.88,0,0,0,4.58-.06A6.15,6.15,0,0,1,43.86,21"/><path class="cls-1" d="M57.49,21.9a5.37,5.37,0,0,1-2.38-.38,5.76,5.76,0,0,0-2.5-.6"/><path class="cls-1" d="M34.36,21a6.33,6.33,0,0,0-1.3.16"/><path class="cls-1" d="M57.49,24.84a4.53,4.53,0,0,0-2.67.45,5.61,5.61,0,0,1-4.5-.05,6.72,6.72,0,0,0-4.5,0,5.92,5.92,0,0,1-4.58.05,6.78,6.78,0,0,0-4.5,0,5,5,0,0,1-2.5.51"/><path class="cls-1" d="M33.06,25.53a7.08,7.08,0,0,0,1.18.27"/><path class="cls-1" d="M34.24,29a6.7,6.7,0,0,1,2.62.38,5.94,5.94,0,0,0,4.59-.06,6.78,6.78,0,0,1,4.5,0,6.17,6.17,0,0,0,2.29.51"/><path class="cls-1" d="M33.06,29.18A6.06,6.06,0,0,1,34.24,29"/><path class="cls-1" d="M48.24,29.87a4.46,4.46,0,0,0,2.21-.45,4.18,4.18,0,0,1,2-.49"/><path class="cls-1" d="M57,29.91a4.72,4.72,0,0,1-2-.39,5.8,5.8,0,0,0-2.54-.59"/><path class="cls-1" d="M38.74,32.53a6.6,6.6,0,0,1,2.25.39,6.51,6.51,0,0,0,2.37.43"/><path class="cls-1" d="M33.06,33.23a4.44,4.44,0,0,0,3.43-.31,5.35,5.35,0,0,1,2.25-.39"/><path class="cls-1" d="M57,32.44a4.47,4.47,0,0,0-2.42.48,4.66,4.66,0,0,1-2.46.44"/><path class="cls-1" d="M52.11,33.36a6.07,6.07,0,0,1-2-.5,6.78,6.78,0,0,0-4.5,0,5.38,5.38,0,0,1-2.21.49"/><line class="cls-1" x1="52.11" y1="33.36" x2="52.11" y2="35.27"/><line class="cls-1" x1="52.11" y1="33.28" x2="52.11" y2="33.36"/><line class="cls-1" x1="43.36" y1="33.35" x2="43.36" y2="35.27"/><line class="cls-1" x1="43.36" y1="33.35" x2="43.36" y2="33.33"/><line class="cls-1" x1="33.86" y1="33.41" x2="33.86" y2="35.27"/><rect class="cls-2" x="33.06" y="-18.85" width="54.13" height="54.13"/><rect class="cls-2" x="33.02" y="-18.85" width="54.22" height="54.13"/><line class="cls-1" x1="38.49" y1="37.47" x2="38.49" y2="40.69"/><line class="cls-1" x1="38.49" y1="37.47" x2="38.49" y2="37.4"/><line class="cls-1" x1="47.86" y1="37.49" x2="47.86" y2="37.43"/><line class="cls-1" x1="47.86" y1="37.49" x2="47.86" y2="40.62"/><line class="cls-1" x1="52.11" y1="36.52" x2="52.11" y2="35.27"/><line class="cls-1" x1="43.36" y1="36.4" x2="43.36" y2="35.27"/><line class="cls-1" x1="33.86" y1="36.65" x2="33.86" y2="35.27"/><line class="cls-1" x1="51.86" y1="44.69" x2="51.86" y2="41.62"/><line class="cls-1" x1="51.86" y1="44.69" x2="51.86" y2="44.73"/><line class="cls-1" x1="43.11" y1="41.6" x2="43.11" y2="44.73"/><line class="cls-1" x1="43.11" y1="41.6" x2="43.11" y2="41.49"/><line class="cls-1" x1="33.61" y1="41.74" x2="33.61" y2="44.8"/><line class="cls-1" x1="33.61" y1="44.85" x2="33.61" y2="44.8"/><line class="cls-1" x1="47.74" y1="48.48" x2="47.74" y2="45.62"/><line class="cls-1" x1="38.24" y1="48.68" x2="38.24" y2="48.73"/><line class="cls-1" x1="38.24" y1="48.68" x2="38.24" y2="45.58"/><line class="cls-1" x1="34.49" y1="52.78" x2="34.49" y2="52.85"/><line class="cls-1" x1="34.49" y1="52.78" x2="34.49" y2="49.62"/><line class="cls-1" x1="52.49" y1="52.68" x2="52.49" y2="49.49"/><line class="cls-1" x1="52.49" y1="52.73" x2="52.49" y2="52.68"/><line class="cls-1" x1="42.99" y1="49.45" x2="42.99" y2="49.34"/><line class="cls-1" x1="42.99" y1="52.73" x2="42.99" y2="49.45"/><line class="cls-1" x1="48.49" y1="53.62" x2="48.49" y2="53.41"/><line class="cls-1" x1="48.49" y1="53.62" x2="48.49" y2="56.48"/><line class="cls-1" x1="38.99" y1="53.6" x2="38.99" y2="56.48"/><line class="cls-1" x1="38.99" y1="53.6" x2="38.99" y2="53.49"/><path class="cls-1" d="M38.49,37.47A6.62,6.62,0,0,1,36.36,37a7.09,7.09,0,0,0-3.3-.33"/><path class="cls-1" d="M47.86,37.49A6.19,6.19,0,0,1,45.45,37,6.78,6.78,0,0,0,41,37a5.47,5.47,0,0,1-2.46.49"/><path class="cls-1" d="M65.74,37.48a5,5,0,0,1-2.21-.5A5.38,5.38,0,0,0,59,37a5.91,5.91,0,0,1-4.5.1A5.23,5.23,0,0,0,50,37a4.34,4.34,0,0,1-2.09.45"/><path class="cls-1" d="M43.11,41.6a5.41,5.41,0,0,0,2.42-.49,6.78,6.78,0,0,1,4.5,0,5.6,5.6,0,0,0,4.5.06,5.22,5.22,0,0,1,4.58.1,4.85,4.85,0,0,0,2.13.39"/><path class="cls-1" d="M43.11,41.6A6.54,6.54,0,0,1,41,41.17a6.72,6.72,0,0,0-4.5,0,4.44,4.44,0,0,1-3.39.32"/><path class="cls-1" d="M51.86,44.69a4.09,4.09,0,0,0-1.83.48,5.6,5.6,0,0,1-4.5-.06,6.78,6.78,0,0,0-4.5,0,5.92,5.92,0,0,1-4.58.06,7.09,7.09,0,0,0-2.84-.37"/><path class="cls-1" d="M65.86,45.62a5.09,5.09,0,0,1-2.25-.51,5.37,5.37,0,0,0-4.5.06,5.91,5.91,0,0,1-4.5.1,5.76,5.76,0,0,0-2.75-.58"/><path class="cls-1" d="M33.06,44.86a4.87,4.87,0,0,1,.55-.06"/><path class="cls-1" d="M38.24,48.68A4.42,4.42,0,0,0,36.7,49c-1.18.38-1.71.85-3.64.25"/><path class="cls-1" d="M56.49,48.57a4.13,4.13,0,0,0-1.71.47,5.61,5.61,0,0,1-4.5,0,6.72,6.72,0,0,0-4.5,0,5.55,5.55,0,0,1-2.79.46"/><path class="cls-1" d="M38.24,48.68a7.15,7.15,0,0,1,3,.36,6.31,6.31,0,0,0,1.79.41"/><path class="cls-1" d="M34.49,52.78a6.84,6.84,0,0,0-1.43.17"/><path class="cls-1" d="M48.49,53.62a4.35,4.35,0,0,0,2-.45,4.25,4.25,0,0,1,2-.49"/><path class="cls-1" d="M57.24,53.66a4.85,4.85,0,0,1-2.13-.39,5.72,5.72,0,0,0-2.62-.59"/><path class="cls-1" d="M48.49,53.62A6.24,6.24,0,0,1,46,53.11a6.78,6.78,0,0,0-4.5,0A5.54,5.54,0,0,1,39,53.6"/><path class="cls-1" d="M39,53.6a6.93,6.93,0,0,1-2-.43,6.86,6.86,0,0,0-2.46-.39"/><rect class="cls-2" x="33.06" y="35.27" width="54.13" height="54.13"/><rect class="cls-2" x="33.02" y="35.27" width="54.22" height="54.13"/><line class="cls-1" x1="30.39" y1="2.35" x2="30.39" y2="-0.43"/><line class="cls-1" x1="21.52" y1="2.37" x2="21.52" y2="-0.5"/><line class="cls-1" x1="21.52" y1="2.37" x2="21.52" y2="2.48"/><line class="cls-1" x1="12.39" y1="-0.51" x2="12.39" y2="2.23"/><line class="cls-1" x1="3.02" y1="-0.46" x2="3.02" y2="2.31"/><line class="cls-1" x1="3.02" y1="2.31" x2="3.02" y2="2.35"/><line class="cls-1" x1="26.02" y1="3.26" x2="26.02" y2="5.95"/><line class="cls-1" x1="26.02" y1="5.98" x2="26.02" y2="5.95"/><line class="cls-1" x1="17.14" y1="3.19" x2="17.14" y2="3.24"/><line class="cls-1" x1="17.14" y1="3.24" x2="17.14" y2="5.81"/><line class="cls-1" x1="8.02" y1="5.88" x2="8.02" y2="5.98"/><line class="cls-1" x1="8.02" y1="3.28" x2="8.02" y2="3.24"/><line class="cls-1" x1="8.02" y1="5.88" x2="8.02" y2="3.28"/><line class="cls-1" x1="30.27" y1="6.99" x2="30.27" y2="9.73"/><line class="cls-1" x1="21.39" y1="9.75" x2="21.39" y2="9.85"/><line class="cls-1" x1="21.39" y1="9.75" x2="21.39" y2="6.87"/><line class="cls-1" x1="12.27" y1="6.82" x2="12.27" y2="9.65"/><line class="cls-1" x1="12.27" y1="6.82" x2="12.27" y2="6.74"/><line class="cls-1" x1="12.27" y1="9.73" x2="12.27" y2="9.65"/><line class="cls-1" x1="2.89" y1="6.87" x2="2.89" y2="9.68"/><line class="cls-1" x1="2.89" y1="9.68" x2="2.89" y2="9.73"/><line class="cls-1" x1="26.14" y1="10.63" x2="26.14" y2="13.35"/><line class="cls-1" x1="26.14" y1="10.63" x2="26.14" y2="10.62"/><line class="cls-1" x1="17.27" y1="10.49" x2="17.27" y2="10.61"/><line class="cls-1" x1="17.27" y1="10.61" x2="17.27" y2="13.35"/><line class="cls-1" x1="8.14" y1="13.33" x2="8.14" y2="10.65"/><line class="cls-1" x1="8.14" y1="13.33" x2="8.14" y2="13.48"/><line class="cls-1" x1="8.14" y1="10.65" x2="8.14" y2="10.48"/><line class="cls-1" x1="31.02" y1="14.49" x2="31.02" y2="17.35"/><line class="cls-1" x1="22.14" y1="17.4" x2="22.14" y2="17.48"/><line class="cls-1" x1="22.14" y1="17.4" x2="22.14" y2="14.37"/><line class="cls-1" x1="13.02" y1="17.32" x2="13.02" y2="14.28"/><line class="cls-1" x1="13.02" y1="14.28" x2="13.02" y2="14.24"/><line class="cls-1" x1="13.02" y1="17.32" x2="13.02" y2="17.35"/><line class="cls-1" x1="3.64" y1="17.35" x2="3.64" y2="14.37"/><line class="cls-1" x1="25.77" y1="20.97" x2="25.77" y2="20.98"/><line class="cls-1" x1="25.77" y1="18.37" x2="25.77" y2="20.97"/><line class="cls-1" x1="16.89" y1="20.99" x2="16.89" y2="18.24"/><line class="cls-1" x1="16.89" y1="20.99" x2="16.89" y2="21.1"/><line class="cls-1" x1="7.77" y1="18.27" x2="7.77" y2="20.89"/><line class="cls-1" x1="7.77" y1="20.89" x2="7.77" y2="20.98"/><line class="cls-1" x1="7.77" y1="18.27" x2="7.77" y2="18.12"/><line class="cls-1" x1="30.64" y1="21.87" x2="30.64" y2="21.92"/><line class="cls-1" x1="30.64" y1="24.85" x2="30.64" y2="21.92"/><line class="cls-1" x1="21.77" y1="21.74" x2="21.77" y2="21.86"/><line class="cls-1" x1="21.77" y1="24.89" x2="21.77" y2="21.86"/><line class="cls-1" x1="21.77" y1="24.89" x2="21.77" y2="24.98"/><line class="cls-1" x1="12.64" y1="24.81" x2="12.64" y2="21.85"/><line class="cls-1" x1="12.64" y1="21.62" x2="12.64" y2="21.85"/><line class="cls-1" x1="12.64" y1="24.81" x2="12.64" y2="24.85"/><line class="cls-1" x1="3.27" y1="24.84" x2="3.27" y2="24.85"/><line class="cls-1" x1="3.27" y1="21.74" x2="3.27" y2="21.9"/><line class="cls-1" x1="3.27" y1="24.84" x2="3.27" y2="21.9"/><line class="cls-1" x1="25.64" y1="25.82" x2="25.64" y2="28.85"/><line class="cls-1" x1="16.77" y1="25.74" x2="16.77" y2="28.98"/><line class="cls-1" x1="16.77" y1="25.74" x2="16.77" y2="25.69"/><line class="cls-1" x1="7.64" y1="25.78" x2="7.64" y2="28.85"/><line class="cls-1" x1="7.64" y1="25.78" x2="7.64" y2="25.74"/><line class="cls-1" x1="30.14" y1="29.95" x2="30.14" y2="29.87"/><line class="cls-1" x1="30.14" y1="29.95" x2="30.14" y2="32.48"/><line class="cls-1" x1="21.27" y1="32.5" x2="21.27" y2="29.88"/><line class="cls-1" x1="21.27" y1="32.5" x2="21.27" y2="32.6"/><line class="cls-1" x1="21.27" y1="29.88" x2="21.27" y2="29.74"/><line class="cls-1" x1="12.14" y1="29.67" x2="12.14" y2="29.87"/><line class="cls-1" x1="12.14" y1="29.87" x2="12.14" y2="32.35"/><line class="cls-1" x1="2.77" y1="32.44" x2="2.77" y2="32.6"/><line class="cls-1" x1="2.77" y1="32.44" x2="2.77" y2="29.91"/><line class="cls-1" x1="2.77" y1="29.85" x2="2.77" y2="29.91"/><path class="cls-1" d="M3,2.31a4.28,4.28,0,0,0-2.09.48,5.61,5.61,0,0,1-4.5,0,4.66,4.66,0,0,0-2.16-.39"/><path class="cls-1" d="M8,3.28a5,5,0,0,0,2-.49,5.37,5.37,0,0,1,4.5,0,5.43,5.43,0,0,0,2.62.5"/><path class="cls-1" d="M21.52,2.37a4.56,4.56,0,0,1,2.08.42,6.13,6.13,0,0,0,4.5.06,5,5,0,0,1,2.29-.5"/><path class="cls-1" d="M32.57,2.77l.39.15"/><path class="cls-1" d="M32.57,2.77l-.1,0,.13,0,0,0"/><path class="cls-1" d="M30.39,2.35a4.68,4.68,0,0,1,2.18.42"/><path class="cls-1" d="M3,2.31a5.69,5.69,0,0,1,2.5.59A5.41,5.41,0,0,0,8,3.28"/><path class="cls-1" d="M21.52,2.37a7,7,0,0,0-2.42.48,6.61,6.61,0,0,1-2,.39"/><path class="cls-1" d="M12.27,6.82a6.49,6.49,0,0,0,2-.39,5.76,5.76,0,0,1,4.5-.06,6.14,6.14,0,0,0,4.5.06A5.41,5.41,0,0,1,26,6"/><path class="cls-1" d="M8,5.88a4.46,4.46,0,0,1,1.62.44,5.47,5.47,0,0,0,2.63.5"/><path class="cls-1" d="M27.69,6.35c2.59,1,3.09.45,4.41,0A4,4,0,0,1,33,6.1"/><path class="cls-1" d="M27.69,6.35A3.85,3.85,0,0,0,26,6"/><path class="cls-1" d="M-1.36,5.91a5.59,5.59,0,0,1,2,.57,5.22,5.22,0,0,0,2.25.39"/><path class="cls-1" d="M2.89,6.87a5.27,5.27,0,0,0,2.25-.5A5.16,5.16,0,0,1,8,5.88"/><path class="cls-1" d="M27.69,6.35l-.09,0,.12,0,0,0"/><path class="cls-1" d="M26.14,10.63a4.17,4.17,0,0,0,2-.41,5.69,5.69,0,0,1,4.47-.07"/><path class="cls-1" d="M32.57,10.15l-.1,0,.13.06,0,0"/><path class="cls-1" d="M2.89,9.68a4.25,4.25,0,0,0-2,.49,4.38,4.38,0,0,1-2.16.45"/><path class="cls-1" d="M8.14,10.65a5.56,5.56,0,0,1-2.62-.38,5.8,5.8,0,0,0-2.63-.59"/><path class="cls-1" d="M32.57,10.15l.39.14"/><path class="cls-1" d="M21.39,9.75a4.54,4.54,0,0,1,2.21.42,6.29,6.29,0,0,0,2.54.46"/><path class="cls-1" d="M8.14,10.65A4.87,4.87,0,0,0,10,10.17a4.72,4.72,0,0,1,2.25-.52"/><path class="cls-1" d="M21.39,9.75a6.93,6.93,0,0,0-2.29.47,6.4,6.4,0,0,1-1.83.39"/><path class="cls-1" d="M17.27,10.61a5.42,5.42,0,0,1-2.75-.5,5,5,0,0,0-2.25-.46"/><path class="cls-1" d="M8.14,13.33a4.8,4.8,0,0,1,2,.46,5.51,5.51,0,0,0,2.88.49"/><path class="cls-1" d="M13,14.28a6.46,6.46,0,0,0,1.7-.38,5.71,5.71,0,0,1,4.5-.05,6.14,6.14,0,0,0,4.5.05,5.67,5.67,0,0,1,4.48-.07"/><path class="cls-1" d="M28.2,13.83c2.58,1,3.08.44,4.4,0A1.94,1.94,0,0,1,33,13.7"/><path class="cls-1" d="M28.2,13.83l-.1,0,.12.06,0,0"/><path class="cls-1" d="M-1.23,13.36A5.87,5.87,0,0,1,1.14,14a6,6,0,0,0,4.5-.1,5,5,0,0,1,2.5-.52"/><path class="cls-1" d="M3.64,17.35a4.66,4.66,0,0,0-2.83.43,5.6,5.6,0,0,1-4.5-.05,6.72,6.72,0,0,0-4.5,0,5.57,5.57,0,0,1-2.17.49"/><path class="cls-1" d="M13,17.32a4.31,4.31,0,0,1,1.37.41,6,6,0,0,0,4.58.11,6.79,6.79,0,0,1,3.17-.44"/><path class="cls-1" d="M13,17.32a5.27,5.27,0,0,0-3.13.46,4.86,4.86,0,0,1-2.12.49"/><path class="cls-1" d="M32.45,17.77,33,18"/><path class="cls-1" d="M22.14,17.4a4,4,0,0,1,1.33.38,6.14,6.14,0,0,0,4.5.06,5.67,5.67,0,0,1,4.48-.07"/><path class="cls-1" d="M3.64,17.35a6,6,0,0,1,1.75.54,5.2,5.2,0,0,0,2.38.38"/><path class="cls-1" d="M32.45,17.77l-.1,0,.12.05h0"/><path class="cls-1" d="M33,21.19a2.89,2.89,0,0,0-.61.22,8.21,8.21,0,0,1-1.71.51"/><path class="cls-1" d="M28,21.39a5.81,5.81,0,0,0,2.69.53"/><path class="cls-1" d="M3.27,21.9a5.34,5.34,0,0,1-2.38-.38,5.79,5.79,0,0,0-2.5-.6"/><path class="cls-1" d="M25.77,21a5.16,5.16,0,0,0-2.3.49,3.74,3.74,0,0,1-1.7.4"/><path class="cls-1" d="M28,21.39l-.1,0,.12.06,0,0"/><path class="cls-1" d="M16.89,21a4.5,4.5,0,0,1,2.08.42,6.55,6.55,0,0,0,2.8.45"/><path class="cls-1" d="M28,21.39A4.55,4.55,0,0,0,25.77,21"/><path class="cls-1" d="M7.77,20.89a4.81,4.81,0,0,0-2.38.52,5.16,5.16,0,0,1-2.12.49"/><path class="cls-1" d="M12.64,21.85a5.47,5.47,0,0,1-2.75-.5,5.17,5.17,0,0,0-2.12-.46"/><path class="cls-1" d="M16.89,21a7,7,0,0,0-2.42.47,6.33,6.33,0,0,1-1.83.39"/><path class="cls-1" d="M32.24,25.27l.72.26"/><path class="cls-1" d="M7.64,25.78a5.41,5.41,0,0,1-2.46-.38,5.56,5.56,0,0,0-1.91-.56"/><path class="cls-1" d="M16.77,25.74a6.31,6.31,0,0,0,2-.39,6.73,6.73,0,0,1,3-.46"/><path class="cls-1" d="M16.77,25.74a5.47,5.47,0,0,1-2.59-.5,4.3,4.3,0,0,0-1.54-.43"/><path class="cls-1" d="M7.64,25.78a5.11,5.11,0,0,0,2-.49,5.19,5.19,0,0,1,3-.48"/><path class="cls-1" d="M21.77,24.89a4.38,4.38,0,0,1,1.5.4,6.13,6.13,0,0,0,4.5.06,5.7,5.7,0,0,1,4.47-.08"/><path class="cls-1" d="M3.27,24.84a4.53,4.53,0,0,0-2.67.45,5.61,5.61,0,0,1-4.5-.05,6.72,6.72,0,0,0-4.5,0,5.92,5.92,0,0,1-4.58.05,6.78,6.78,0,0,0-4.5,0,5,5,0,0,1-2.5.51"/><path class="cls-1" d="M32.24,25.27l-.1,0,.13.05,0,0"/><path class="cls-1" d="M30.14,30a6,6,0,0,0,2.13-.53,2.93,2.93,0,0,1,.69-.24"/><path class="cls-1" d="M12.14,29.87a5.21,5.21,0,0,1-2.33-.51,5.38,5.38,0,0,0-4.5.06,5.45,5.45,0,0,1-2.54.49"/><path class="cls-1" d="M21.27,29.88a6.2,6.2,0,0,1-2.38-.46,5.71,5.71,0,0,0-4.5,0,6.3,6.3,0,0,1-2.25.4"/><path class="cls-1" d="M21.27,29.88a4.45,4.45,0,0,0,2.12-.41,5.69,5.69,0,0,1,4.47-.07"/><path class="cls-1" d="M30.14,30a7,7,0,0,1-2.28-.55"/><path class="cls-1" d="M27.86,29.4l-.09,0,.12.06,0,0"/><path class="cls-1" d="M2.77,29.91a4.68,4.68,0,0,1-2-.39,5.87,5.87,0,0,0-2.54-.59"/><path class="cls-1" d="M32,32.9a5.69,5.69,0,0,0-4.47.07,4.6,4.6,0,0,1-2.25.41"/><path class="cls-1" d="M21.27,32.5a4.27,4.27,0,0,1,1.75.42,6.11,6.11,0,0,0,2.25.46"/><path class="cls-1" d="M32,32.9l-.1,0,.13.06,0,0"/><path class="cls-1" d="M32,32.9c.36.14.68.24,1,.33"/><path class="cls-1" d="M2.77,32.44a4.45,4.45,0,0,0-2.42.48,4.66,4.66,0,0,1-2.46.44"/><path class="cls-1" d="M2.77,32.44A6,6,0,0,1,4.93,33a5.91,5.91,0,0,0,4.5-.1,5.38,5.38,0,0,1,4.5-.06,6,6,0,0,0,4.59.11,6.77,6.77,0,0,1,2.75-.47"/><line class="cls-1" x1="25.27" y1="33.38" x2="25.27" y2="33.35"/><line class="cls-1" x1="25.27" y1="33.38" x2="25.27" y2="35.27"/><line class="cls-1" x1="16.39" y1="33.4" x2="16.39" y2="35.27"/><line class="cls-1" x1="7.27" y1="33.44" x2="7.27" y2="35.27"/><rect class="cls-2" x="-21.16" y="-18.85" width="54.13" height="54.13"/><rect class="cls-2" x="-21.2" y="-18.85" width="54.22" height="54.13"/><line class="cls-1" x1="2.39" y1="40.62" x2="2.39" y2="37.55"/><line class="cls-1" x1="11.52" y1="37.48" x2="11.52" y2="37.42"/><line class="cls-1" x1="11.52" y1="37.48" x2="11.52" y2="40.49"/><line class="cls-1" x1="20.64" y1="37.5" x2="20.64" y2="37.38"/><line class="cls-1" x1="20.64" y1="37.5" x2="20.64" y2="40.62"/><line class="cls-1" x1="30.02" y1="37.56" x2="30.02" y2="40.63"/><line class="cls-1" x1="25.27" y1="36.65" x2="25.27" y2="36.6"/><line class="cls-1" x1="25.27" y1="36.6" x2="25.27" y2="35.27"/><line class="cls-1" x1="16.39" y1="36.52" x2="16.39" y2="35.27"/><line class="cls-1" x1="7.27" y1="36.4" x2="7.27" y2="35.27"/><line class="cls-1" x1="25.02" y1="44.73" x2="25.02" y2="41.74"/><line class="cls-1" x1="16.14" y1="41.62" x2="16.14" y2="44.73"/><line class="cls-1" x1="7.02" y1="41.66" x2="7.02" y2="41.49"/><line class="cls-1" x1="7.02" y1="44.6" x2="7.02" y2="41.66"/><line class="cls-1" x1="29.64" y1="45.87" x2="29.64" y2="48.6"/><line class="cls-1" x1="20.77" y1="48.64" x2="20.77" y2="45.74"/><line class="cls-1" x1="20.77" y1="48.64" x2="20.77" y2="48.73"/><line class="cls-1" x1="11.64" y1="45.62" x2="11.64" y2="48.48"/><line class="cls-1" x1="2.27" y1="48.57" x2="2.27" y2="45.74"/><line class="cls-1" x1="2.27" y1="48.57" x2="2.27" y2="48.6"/><line class="cls-1" x1="25.52" y1="52.73" x2="25.52" y2="49.62"/><line class="cls-1" x1="16.39" y1="49.49" x2="16.39" y2="52.73"/><line class="cls-1" x1="7.02" y1="49.62" x2="7.02" y2="52.6"/><line class="cls-1" x1="30.39" y1="53.7" x2="30.39" y2="53.6"/><line class="cls-1" x1="30.39" y1="56.48" x2="30.39" y2="53.7"/><line class="cls-1" x1="21.52" y1="56.49" x2="21.52" y2="53.63"/><line class="cls-1" x1="21.52" y1="53.63" x2="21.52" y2="53.54"/><line class="cls-1" x1="12.39" y1="53.62" x2="12.39" y2="56.35"/><line class="cls-1" x1="12.39" y1="53.62" x2="12.39" y2="53.41"/><line class="cls-1" x1="3.02" y1="53.66" x2="3.02" y2="56.43"/><line class="cls-1" x1="3.02" y1="53.66" x2="3.02" y2="53.54"/><path class="cls-1" d="M27.36,37a4.48,4.48,0,0,0-2.09-.42"/><path class="cls-1" d="M27.36,37l-.09,0,.12.06,0,0"/><path class="cls-1" d="M20.64,37.5a4.58,4.58,0,0,0,2.25-.41,5,5,0,0,1,2.38-.49"/><path class="cls-1" d="M20.64,37.5A6.16,6.16,0,0,1,18.39,37a5.71,5.71,0,0,0-4.5.05,6.1,6.1,0,0,1-2.37.39"/><path class="cls-1" d="M11.52,37.48A5,5,0,0,1,9.31,37a5.38,5.38,0,0,0-4.5.06,5.91,5.91,0,0,1-4.5.1A5.25,5.25,0,0,0-4.28,37a4.27,4.27,0,0,1-2.08.45"/><path class="cls-1" d="M27.36,37c2.58,1,3.09.44,4.41,0A4.24,4.24,0,0,1,33,36.71"/><path class="cls-1" d="M16.14,41.62a6.28,6.28,0,0,0,2.33-.4,5.71,5.71,0,0,1,4.5,0,6.14,6.14,0,0,0,4.5,0,5.69,5.69,0,0,1,4.47-.07"/><path class="cls-1" d="M-11.11,41.6a5.44,5.44,0,0,0,2.42-.49,6.78,6.78,0,0,1,4.5,0,5.6,5.6,0,0,0,4.5.06,5.23,5.23,0,0,1,4.58.1A4.85,4.85,0,0,0,7,41.66"/><path class="cls-1" d="M31.94,41.15l1,.34"/><path class="cls-1" d="M31.94,41.15l-.09,0,.12.06,0,0"/><path class="cls-1" d="M7,41.66a5.24,5.24,0,0,0,2.37-.49,5.38,5.38,0,0,1,4.5-.06,5.09,5.09,0,0,0,2.25.51"/><path class="cls-1" d="M27.44,45.15c2.59,1,3.09.44,4.41,0A3.57,3.57,0,0,1,33,44.86"/><path class="cls-1" d="M11.64,45.62a5.09,5.09,0,0,1-2.25-.51,5.38,5.38,0,0,0-4.5.06,5.91,5.91,0,0,1-4.5.1,5.76,5.76,0,0,0-2.75-.58"/><path class="cls-1" d="M27.44,45.15l-.09,0,.12.06,0,0"/><path class="cls-1" d="M11.64,45.62a6.28,6.28,0,0,0,2.33-.4,5.71,5.71,0,0,1,4.5,0,6.14,6.14,0,0,0,4.5,0,5.69,5.69,0,0,1,4.47-.07"/><path class="cls-1" d="M32.19,49l-.09,0,.12,0,0,0"/><path class="cls-1" d="M20.77,48.64a4.74,4.74,0,0,1,2.45.4,6.14,6.14,0,0,0,4.5.06A5.7,5.7,0,0,1,32.19,49"/><path class="cls-1" d="M32.19,49c.28.11.54.2.77.27"/><path class="cls-1" d="M2.27,48.57A4.13,4.13,0,0,0,.56,49a5.6,5.6,0,0,1-4.5,0,6.72,6.72,0,0,0-4.5,0,5.55,5.55,0,0,1-2.79.46"/><path class="cls-1" d="M2.27,48.57a5.76,5.76,0,0,1,2.87.58A6,6,0,0,0,9.64,49a5.37,5.37,0,0,1,4.5,0,5.26,5.26,0,0,0,2.25.5"/><path class="cls-1" d="M16.39,49.49a6.26,6.26,0,0,0,2.33-.39,7.09,7.09,0,0,1,2.05-.46"/><path class="cls-1" d="M30.39,53.7a6.51,6.51,0,0,0,2-.53A2.89,2.89,0,0,1,33,53"/><path class="cls-1" d="M27.94,53.15l-.09,0,.12.06,0,0"/><path class="cls-1" d="M27.94,53.15a6.46,6.46,0,0,0,2.45.55"/><path class="cls-1" d="M3,53.66a4.85,4.85,0,0,1-2.13-.39,5.75,5.75,0,0,0-2.62-.59"/><path class="cls-1" d="M3,53.66a5.24,5.24,0,0,0,2.37-.49,5.38,5.38,0,0,1,4.5-.06,5.35,5.35,0,0,0,2.5.51"/><path class="cls-1" d="M12.39,53.62a6.47,6.47,0,0,0,2.08-.4,5.71,5.71,0,0,1,4.5,0,6.31,6.31,0,0,0,2.55.46"/><path class="cls-1" d="M21.52,53.63a4.1,4.1,0,0,0,1.95-.41,5.69,5.69,0,0,1,4.47-.07"/><rect class="cls-2" x="-21.16" y="35.27" width="54.13" height="54.13"/><rect class="cls-2" x="-21.2" y="35.27" width="54.22" height="54.13"/><rect class="cls-2" width="54.12" height="54.13"/></svg>