<!-- Generator: Adobe Illustrator 22.1.0, SVG Export Plug-In  -->
<svg version="1.1"
     xmlns="http://www.w3.org/2000/svg" xmlns:xlink="http://www.w3.org/1999/xlink" xmlns:a="http://ns.adobe.com/AdobeSVGViewerExtensions/3.0/"
     x="0px" y="0px" width="54.2px" height="54.1px" viewBox="0 0 54.2 54.1" style="enable-background:new 0 0 54.2 54.1;"
     xml:space="preserve">
<style type="text/css">
    .st0{clip-path:url(#SVGID_2_);fill:none;stroke:#231F20;stroke-width:0.3;}
    .st1{clip-path:url(#SVGID_2_);fill:none;}
    .st2{clip-path:url(#SVGID_4_);fill:none;stroke:#231F20;stroke-width:0.3;}
    .st3{clip-path:url(#SVGID_4_);fill:none;}
</style>
<defs>
</defs>
<g>
    <defs>
        <rect id="SVGID_1_" x="0" width="54.2" height="54.1"/>
    </defs>
    <clipPath id="SVGID_2_">
        <use xlink:href="#SVGID_1_"  style="overflow:visible;"/>
    </clipPath>
    <line class="st0" x1="5.5" y1="2.2" x2="5.5" y2="5.4"/>
    <line class="st0" x1="5.5" y1="2.2" x2="5.5" y2="2.1"/>
    <line class="st0" x1="14.9" y1="2.2" x2="14.9" y2="2.2"/>
    <line class="st0" x1="14.9" y1="2.2" x2="14.9" y2="5.3"/>
    <line class="st0" x1="23.6" y1="5.3" x2="23.6" y2="2.3"/>
    <line class="st0" x1="32.7" y1="2.2" x2="32.7" y2="2.2"/>
    <line class="st0" x1="32.7" y1="2.2" x2="32.7" y2="5.2"/>
    <line class="st0" x1="41.9" y1="2.2" x2="41.9" y2="2.1"/>
    <line class="st0" x1="41.9" y1="2.2" x2="41.9" y2="5.3"/>
    <line class="st0" x1="51.2" y1="2.3" x2="51.2" y2="5.4"/>
    <line class="st0" x1="46.5" y1="1.4" x2="46.5" y2="1.3"/>
    <line class="st0" x1="46.5" y1="1.3" x2="46.5" y2="0"/>
    <line class="st0" x1="37.6" y1="1.3" x2="37.6" y2="0"/>
    <line class="st0" x1="28.5" y1="1.1" x2="28.5" y2="0"/>
    <line class="st0" x1="19.1" y1="1.3" x2="19.1" y2="0"/>
    <line class="st0" x1="10.4" y1="1.1" x2="10.4" y2="0"/>
    <line class="st0" x1="0.9" y1="1.4" x2="0.9" y2="0"/>
    <line class="st0" x1="46.2" y1="9.5" x2="46.2" y2="6.5"/>
    <line class="st0" x1="37.4" y1="6.3" x2="37.4" y2="6.3"/>
    <line class="st0" x1="37.4" y1="6.3" x2="37.4" y2="9.5"/>
    <line class="st0" x1="28.2" y1="6.4" x2="28.2" y2="6.2"/>
    <line class="st0" x1="28.2" y1="9.3" x2="28.2" y2="6.4"/>
    <line class="st0" x1="18.9" y1="9.4" x2="18.9" y2="6.3"/>
    <line class="st0" x1="18.9" y1="9.4" x2="18.9" y2="9.5"/>
    <line class="st0" x1="10.1" y1="6.3" x2="10.1" y2="9.5"/>
    <line class="st0" x1="10.1" y1="6.3" x2="10.1" y2="6.2"/>
    <line class="st0" x1="0.6" y1="6.5" x2="0.6" y2="9.5"/>
    <line class="st0" x1="0.6" y1="9.6" x2="0.6" y2="9.5"/>
    <line class="st0" x1="50.9" y1="10.6" x2="50.9" y2="13.3"/>
    <line class="st0" x1="42" y1="13.4" x2="42" y2="10.5"/>
    <line class="st0" x1="42" y1="13.4" x2="42" y2="13.5"/>
    <line class="st0" x1="32.9" y1="10.3" x2="32.9" y2="10.3"/>
    <line class="st0" x1="32.9" y1="10.3" x2="32.9" y2="13.2"/>
    <line class="st0" x1="23.5" y1="13.3" x2="23.5" y2="10.5"/>
    <line class="st0" x1="23.5" y1="13.3" x2="23.5" y2="13.3"/>
    <line class="st0" x1="14.7" y1="13.2" x2="14.7" y2="10.3"/>
    <line class="st0" x1="5.2" y1="13.4" x2="5.2" y2="13.5"/>
    <line class="st0" x1="5.2" y1="13.4" x2="5.2" y2="10.3"/>
    <line class="st0" x1="1.5" y1="17.5" x2="1.5" y2="17.6"/>
    <line class="st0" x1="1.5" y1="17.5" x2="1.5" y2="14.3"/>
    <line class="st0" x1="46.7" y1="17.5" x2="46.7" y2="14.3"/>
    <line class="st0" x1="37.6" y1="14.2" x2="37.6" y2="14.2"/>
    <line class="st0" x1="37.6" y1="14.2" x2="37.6" y2="17.5"/>
    <line class="st0" x1="28.2" y1="14.3" x2="28.2" y2="17.3"/>
    <line class="st0" x1="19.5" y1="17.4" x2="19.5" y2="14.2"/>
    <line class="st0" x1="19.5" y1="17.5" x2="19.5" y2="17.4"/>
    <line class="st0" x1="10" y1="14.2" x2="10" y2="14.1"/>
    <line class="st0" x1="10" y1="17.5" x2="10" y2="14.2"/>
    <line class="st0" x1="51.6" y1="18.4" x2="51.6" y2="18.3"/>
    <line class="st0" x1="51.6" y1="21.2" x2="51.6" y2="18.4"/>
    <line class="st0" x1="51.6" y1="21.2" x2="51.6" y2="21.2"/>
    <line class="st0" x1="42.7" y1="21.2" x2="42.7" y2="18.4"/>
    <line class="st0" x1="42.7" y1="18.4" x2="42.7" y2="18.3"/>
    <line class="st0" x1="42.7" y1="21.2" x2="42.7" y2="21.3"/>
    <line class="st0" x1="33.6" y1="18.3" x2="33.6" y2="21.1"/>
    <line class="st0" x1="33.6" y1="18.3" x2="33.6" y2="18.1"/>
    <line class="st0" x1="24.2" y1="18.4" x2="24.2" y2="21.2"/>
    <line class="st0" x1="24.2" y1="21.2" x2="24.2" y2="21.2"/>
    <line class="st0" x1="24.2" y1="18.4" x2="24.2" y2="18.3"/>
    <line class="st0" x1="15.5" y1="18.4" x2="15.5" y2="18.1"/>
    <line class="st0" x1="15.5" y1="18.4" x2="15.5" y2="21.2"/>
    <line class="st0" x1="15.5" y1="21.2" x2="15.5" y2="21.2"/>
    <line class="st0" x1="6" y1="18.3" x2="6" y2="21.2"/>
    <line class="st0" x1="6" y1="18.3" x2="6" y2="18.2"/>
    <line class="st0" x1="47.2" y1="22.1" x2="47.2" y2="24.8"/>
    <line class="st0" x1="47.2" y1="24.8" x2="47.2" y2="24.8"/>
    <line class="st0" x1="38.4" y1="22" x2="38.4" y2="22.1"/>
    <line class="st0" x1="38.4" y1="22.1" x2="38.4" y2="24.7"/>
    <line class="st0" x1="29.2" y1="24.7" x2="29.2" y2="24.8"/>
    <line class="st0" x1="29.2" y1="22.1" x2="29.2" y2="22.1"/>
    <line class="st0" x1="29.2" y1="24.7" x2="29.2" y2="22.1"/>
    <line class="st0" x1="19.9" y1="24.8" x2="19.9" y2="22.2"/>
    <line class="st0" x1="19.9" y1="24.8" x2="19.9" y2="24.8"/>
    <line class="st0" x1="11.1" y1="24.8" x2="11.1" y2="22.1"/>
    <line class="st0" x1="11.1" y1="24.8" x2="11.1" y2="24.8"/>
    <line class="st0" x1="1.6" y1="22.2" x2="1.6" y2="22.1"/>
    <line class="st0" x1="1.6" y1="22.2" x2="1.6" y2="24.8"/>
    <line class="st0" x1="1.6" y1="24.8" x2="1.6" y2="24.8"/>
    <line class="st0" x1="51.5" y1="25.8" x2="51.5" y2="28.6"/>
    <line class="st0" x1="42.6" y1="28.6" x2="42.6" y2="28.7"/>
    <line class="st0" x1="42.6" y1="28.6" x2="42.6" y2="25.7"/>
    <line class="st0" x1="33.5" y1="25.7" x2="33.5" y2="28.5"/>
    <line class="st0" x1="33.5" y1="25.7" x2="33.5" y2="25.6"/>
    <line class="st0" x1="33.5" y1="28.6" x2="33.5" y2="28.5"/>
    <line class="st0" x1="24.1" y1="25.7" x2="24.1" y2="28.5"/>
    <line class="st0" x1="24.1" y1="25.7" x2="24.1" y2="25.7"/>
    <line class="st0" x1="24.1" y1="28.5" x2="24.1" y2="28.6"/>
    <line class="st0" x1="15.4" y1="28.6" x2="15.4" y2="25.7"/>
    <line class="st0" x1="15.4" y1="25.7" x2="15.4" y2="25.6"/>
    <line class="st0" x1="15.4" y1="28.6" x2="15.4" y2="28.6"/>
    <line class="st0" x1="5.9" y1="25.7" x2="5.9" y2="25.6"/>
    <line class="st0" x1="5.9" y1="28.6" x2="5.9" y2="28.7"/>
    <line class="st0" x1="5.9" y1="25.7" x2="5.9" y2="28.6"/>
    <line class="st0" x1="47.4" y1="29.5" x2="47.4" y2="32.2"/>
    <line class="st0" x1="47.4" y1="29.5" x2="47.4" y2="29.5"/>
    <line class="st0" x1="38.5" y1="29.3" x2="38.5" y2="29.5"/>
    <line class="st0" x1="38.5" y1="29.5" x2="38.5" y2="32.2"/>
    <line class="st0" x1="29.4" y1="32.2" x2="29.4" y2="29.5"/>
    <line class="st0" x1="29.4" y1="32.2" x2="29.4" y2="32.3"/>
    <line class="st0" x1="29.4" y1="29.5" x2="29.4" y2="29.3"/>
    <line class="st0" x1="20" y1="32.2" x2="20" y2="32.3"/>
    <line class="st0" x1="20" y1="32.2" x2="20" y2="29.5"/>
    <line class="st0" x1="20" y1="29.3" x2="20" y2="29.5"/>
    <line class="st0" x1="11.2" y1="29.4" x2="11.2" y2="29.2"/>
    <line class="st0" x1="11.2" y1="32.3" x2="11.2" y2="32.3"/>
    <line class="st0" x1="11.2" y1="29.4" x2="11.2" y2="32.3"/>
    <line class="st0" x1="1.7" y1="32.3" x2="1.7" y2="32.3"/>
    <line class="st0" x1="1.7" y1="29.5" x2="1.7" y2="32.3"/>
    <line class="st0" x1="1.7" y1="29.5" x2="1.7" y2="29.5"/>
    <line class="st0" x1="52.2" y1="33.3" x2="52.2" y2="36.2"/>
    <line class="st0" x1="43.4" y1="36.3" x2="43.4" y2="36.3"/>
    <line class="st0" x1="43.4" y1="36.3" x2="43.4" y2="33.2"/>
    <line class="st0" x1="34.2" y1="36.2" x2="34.2" y2="33.1"/>
    <line class="st0" x1="34.2" y1="33.1" x2="34.2" y2="33.1"/>
    <line class="st0" x1="34.2" y1="36.2" x2="34.2" y2="36.2"/>
    <line class="st0" x1="24.9" y1="36.2" x2="24.9" y2="33.2"/>
    <line class="st0" x1="24.9" y1="36.2" x2="24.9" y2="36.2"/>
    <line class="st0" x1="16.1" y1="33.1" x2="16.1" y2="36.2"/>
    <line class="st0" x1="16.1" y1="33.1" x2="16.1" y2="33.1"/>
    <line class="st0" x1="6.6" y1="33.1" x2="6.6" y2="33.1"/>
    <line class="st0" x1="6.6" y1="33.1" x2="6.6" y2="36.2"/>
    <line class="st0" x1="47" y1="39.8" x2="47" y2="39.8"/>
    <line class="st0" x1="47" y1="37.2" x2="47" y2="39.8"/>
    <line class="st0" x1="38.1" y1="39.8" x2="38.1" y2="37.1"/>
    <line class="st0" x1="38.1" y1="39.8" x2="38.1" y2="40"/>
    <line class="st0" x1="29" y1="37.1" x2="29" y2="39.7"/>
    <line class="st0" x1="29" y1="39.7" x2="29" y2="39.8"/>
    <line class="st0" x1="29" y1="37.1" x2="29" y2="37"/>
    <line class="st0" x1="19.6" y1="37.1" x2="19.6" y2="39.8"/>
    <line class="st0" x1="19.6" y1="39.8" x2="19.6" y2="39.8"/>
    <line class="st0" x1="10.9" y1="37.1" x2="10.9" y2="37"/>
    <line class="st0" x1="10.9" y1="39.8" x2="10.9" y2="39.8"/>
    <line class="st0" x1="10.9" y1="37.1" x2="10.9" y2="39.8"/>
    <line class="st0" x1="1.4" y1="39.9" x2="1.4" y2="40"/>
    <line class="st0" x1="1.4" y1="39.9" x2="1.4" y2="37.2"/>
    <line class="st0" x1="51.9" y1="40.7" x2="51.9" y2="40.8"/>
    <line class="st0" x1="51.9" y1="43.7" x2="51.9" y2="40.8"/>
    <line class="st0" x1="43" y1="40.6" x2="43" y2="40.7"/>
    <line class="st0" x1="43" y1="43.7" x2="43" y2="40.7"/>
    <line class="st0" x1="43" y1="43.7" x2="43" y2="43.8"/>
    <line class="st0" x1="33.9" y1="43.7" x2="33.9" y2="40.7"/>
    <line class="st0" x1="33.9" y1="40.5" x2="33.9" y2="40.7"/>
    <line class="st0" x1="33.9" y1="43.7" x2="33.9" y2="43.7"/>
    <line class="st0" x1="24.5" y1="43.7" x2="24.5" y2="43.7"/>
    <line class="st0" x1="24.5" y1="40.6" x2="24.5" y2="40.8"/>
    <line class="st0" x1="24.5" y1="43.7" x2="24.5" y2="40.8"/>
    <line class="st0" x1="15.7" y1="40.7" x2="15.7" y2="43.7"/>
    <line class="st0" x1="15.7" y1="40.5" x2="15.7" y2="40.7"/>
    <line class="st0" x1="6.2" y1="40.7" x2="6.2" y2="43.7"/>
    <line class="st0" x1="46.9" y1="44.7" x2="46.9" y2="47.7"/>
    <line class="st0" x1="38" y1="44.6" x2="38" y2="47.8"/>
    <line class="st0" x1="38" y1="44.6" x2="38" y2="44.5"/>
    <line class="st0" x1="28.9" y1="44.6" x2="28.9" y2="47.7"/>
    <line class="st0" x1="28.9" y1="44.6" x2="28.9" y2="44.6"/>
    <line class="st0" x1="19.5" y1="47.8" x2="19.5" y2="44.7"/>
    <line class="st0" x1="19.5" y1="47.8" x2="19.5" y2="47.8"/>
    <line class="st0" x1="10.7" y1="44.6" x2="10.7" y2="47.7"/>
    <line class="st0" x1="1.2" y1="48" x2="1.2" y2="47.9"/>
    <line class="st0" x1="1.2" y1="44.6" x2="1.2" y2="44.7"/>
    <line class="st0" x1="1.2" y1="47.9" x2="1.2" y2="44.7"/>
    <line class="st0" x1="51.4" y1="48.8" x2="51.4" y2="48.7"/>
    <line class="st0" x1="51.4" y1="48.8" x2="51.4" y2="51.3"/>
    <line class="st0" x1="42.5" y1="51.4" x2="42.5" y2="48.7"/>
    <line class="st0" x1="42.5" y1="51.4" x2="42.5" y2="51.5"/>
    <line class="st0" x1="42.5" y1="48.7" x2="42.5" y2="48.6"/>
    <line class="st0" x1="33.4" y1="48.5" x2="33.4" y2="48.7"/>
    <line class="st0" x1="33.4" y1="48.7" x2="33.4" y2="51.2"/>
    <line class="st0" x1="24" y1="51.3" x2="24" y2="51.5"/>
    <line class="st0" x1="24" y1="51.3" x2="24" y2="48.8"/>
    <line class="st0" x1="24" y1="48.7" x2="24" y2="48.8"/>
    <line class="st0" x1="15.2" y1="48.7" x2="15.2" y2="48.7"/>
    <line class="st0" x1="15.2" y1="48.7" x2="15.2" y2="51.3"/>
    <line class="st0" x1="5.7" y1="51.4" x2="5.7" y2="51.5"/>
    <line class="st0" x1="5.7" y1="51.4" x2="5.7" y2="48.7"/>
    <path class="st0" d="M48.6,1.7c-0.4-0.3-1.2-0.4-2.1-0.4"/>
    <path class="st0" d="M48.6,1.7C48.5,1.7,48.5,1.7,48.6,1.7L48.6,1.7C48.6,1.8,48.6,1.8,48.6,1.7"/>
    <path class="st0" d="M41.9,2.2c0.8,0,1.7-0.1,2.2-0.4c0.6-0.3,1.5-0.5,2.4-0.5"/>
    <path class="st0" d="M5.5,2.2C4.7,2.2,4,2,3.4,1.8C2.4,1.4,1.1,1.3,0,1.4"/>
    <path class="st0" d="M14.9,2.2c-1,0-1.9-0.3-2.4-0.5c-0.8-0.5-3.3-0.5-4.5,0C7.1,2.1,6.3,2.2,5.5,2.2"/>
    <path class="st0" d="M41.9,2.2c-0.9,0-1.8-0.2-2.2-0.5c-0.8-0.4-2.5-0.7-4.5,0.1c-0.8,0.3-1.7,0.4-2.4,0.4"/>
    <path class="st0" d="M32.7,2.2c-1,0-1.8-0.3-2.2-0.5c-0.7-0.4-2.8-0.9-4.5,0.1c-1.3,0.7-3.6,0.6-4.5,0.1c-1.2-0.6-3.1-0.9-4.6-0.1
        c-0.6,0.3-1.4,0.5-2.1,0.5"/>
    <path class="st0" d="M48.6,1.7c2.6,1,3.1,0.4,4.4,0c0.3-0.2,0.7-0.3,1.2-0.3"/>
    <path class="st0" d="M37.4,6.3c0.7,0,1.5-0.1,2.3-0.4c2-0.8,3.7-0.5,4.5-0.1C45,6.3,47.4,6.7,48.7,6c1.2-0.7,3.6-0.6,4.5-0.1"/>
    <path class="st0" d="M10.1,6.3c0.8,0,1.6-0.1,2.4-0.5c1.2-0.5,3.8-0.5,4.5,0c0.9,0.4,3,0.9,4.5,0.1C23,5.1,24.9,5.4,26.1,6
        c0.5,0.2,1.3,0.4,2.1,0.4"/>
    <path class="st0" d="M53.2,5.9c0.4,0.1,0.7,0.3,1,0.3"/>
    <path class="st0" d="M53.2,5.9C53.1,5.9,53.1,5.9,53.2,5.9L53.2,5.9C53.2,5.9,53.2,5.9,53.2,5.9"/>
    <path class="st0" d="M28.2,6.4c0.8,0,1.7-0.1,2.4-0.5c1.7-0.9,3.8-0.4,4.5-0.1c0.4,0.2,1.2,0.5,2.2,0.5"/>
    <path class="st0" d="M10.1,6.3c-0.7,0-1.5-0.2-2.2-0.4c-1.4-0.5-3.5-0.5-4.5,0C2.3,6.3,1.8,6.7,0,6.2"/>
    <path class="st0" d="M18.9,9.4c-0.6,0-1.3,0.2-1.8,0.5c-1.5,0.8-3.6,0.4-4.5-0.1c-0.8-0.5-3.3-0.5-4.5,0c-1.5,0.7-3.2,0.6-4.6,0.1
        C2.6,9.6,1.5,9.5,0.6,9.5"/>
    <path class="st0" d="M48.7,9.9c2.6,1,3.1,0.4,4.4,0c0.3-0.1,0.7-0.2,1.1-0.3"/>
    <path class="st0" d="M32.9,10.3c-1,0-1.9-0.3-2.2-0.5c-0.7-0.4-2.8-0.9-4.5,0.1c-1.3,0.7-3.6,0.6-4.5,0.1c-0.7-0.4-1.7-0.6-2.8-0.6
        "/>
    <path class="st0" d="M48.7,9.9C48.6,9.9,48.6,9.9,48.7,9.9L48.7,9.9C48.7,9.9,48.7,9.9,48.7,9.9"/>
    <path class="st0" d="M0,9.6c0.2,0,0.4,0,0.6-0.1"/>
    <path class="st0" d="M32.9,10.3c0.7,0,1.5-0.1,2.3-0.4c2-0.8,3.7-0.5,4.5-0.1c0.8,0.4,3.2,0.8,4.5,0.1c1.2-0.7,3.6-0.6,4.5-0.1"/>
    <path class="st0" d="M53.4,13.8C53.4,13.7,53.3,13.7,53.4,13.8L53.4,13.8C53.4,13.8,53.4,13.8,53.4,13.8"/>
    <path class="st0" d="M42,13.4c1.1-0.1,1.9,0.1,2.5,0.4c0.8,0.4,3.2,0.8,4.5,0.1c1.2-0.7,3.6-0.6,4.5-0.1"/>
    <path class="st0" d="M53.4,13.8c0.3,0.1,0.5,0.2,0.8,0.3"/>
    <path class="st0" d="M5.2,13.4c-0.6,0-1.2,0.2-1.5,0.4C2.5,14.2,2,14.6,0,14"/>
    <path class="st0" d="M23.5,13.3c-0.6,0-1.2,0.2-1.7,0.5c-1.5,0.8-3.6,0.4-4.5-0.1c-0.8-0.5-3.3-0.5-4.5,0c-0.9,0.4-1.9,0.5-2.8,0.5
        "/>
    <path class="st0" d="M23.5,13.3c1.1-0.1,2.1,0.2,2.9,0.6c0.9,0.5,3.2,0.6,4.5-0.1c1.7-0.9,3.8-0.4,4.5-0.1c0.4,0.2,1.2,0.5,2.2,0.5
        "/>
    <path class="st0" d="M37.6,14.2c0.7,0,1.5-0.1,2.3-0.4c0.7-0.3,1.4-0.4,2-0.5"/>
    <path class="st0" d="M5.2,13.4c1-0.1,2.1,0,3,0.4c0.6,0.2,1.2,0.4,1.8,0.4"/>
    <path class="st0" d="M1.5,17.5c-0.5,0-1,0.1-1.4,0.2"/>
    <path class="st0" d="M51.6,18.4c0.7,0,1.2-0.3,2-0.5c0.2-0.1,0.4-0.2,0.6-0.2"/>
    <path class="st0" d="M49.2,17.9C49.1,17.9,49.1,17.9,49.2,17.9L49.2,17.9C49.2,17.9,49.2,17.9,49.2,17.9"/>
    <path class="st0" d="M49.2,17.9c1.1,0.4,1.9,0.6,2.4,0.6"/>
    <path class="st0" d="M15.5,18.4c0.7,0,1.4-0.1,2-0.5c0.6-0.3,1.3-0.5,2-0.5"/>
    <path class="st0" d="M24.2,18.4c-0.8,0-1.6-0.1-2.1-0.4c-0.7-0.4-1.6-0.6-2.6-0.6"/>
    <path class="st0" d="M24.2,18.4c0.8,0,1.7-0.1,2.4-0.5c1.7-0.9,3.8-0.4,4.5-0.1c0.4,0.2,1.4,0.5,2.5,0.5"/>
    <path class="st0" d="M15.5,18.4c-1,0-1.9-0.3-2.5-0.5c-0.8-0.5-3.3-0.5-4.5,0c-0.8,0.4-1.7,0.5-2.5,0.5"/>
    <path class="st0" d="M6,18.3c-0.7,0-1.4-0.2-2-0.4c-0.7-0.3-1.6-0.4-2.5-0.4"/>
    <path class="st0" d="M33.6,18.3c0.6,0,1.4-0.1,2.1-0.4c2-0.8,3.7-0.5,4.5-0.1c0.5,0.3,1.5,0.5,2.5,0.5"/>
    <path class="st0" d="M42.7,18.4c0.7,0,1.4-0.1,2-0.4c1.2-0.7,3.6-0.6,4.5-0.1"/>
    <path class="st0" d="M24.2,21.2c-0.7,0-1.4,0.1-2.1,0.5c-1.5,0.8-3.6,0.4-4.5-0.1c-0.4-0.2-1.3-0.4-2.2-0.4"/>
    <path class="st0" d="M1.6,22.2c-0.4,0-0.9-0.2-1.6-0.4"/>
    <path class="st0" d="M29.2,22.1c0.7,0,1.4-0.2,2-0.5c1.7-0.9,3.8-0.4,4.5-0.1c0.4,0.2,1.4,0.5,2.6,0.5"/>
    <path class="st0" d="M42.7,21.2c0.9,0,1.6,0.2,2.1,0.4c0.8,0.4,3.2,0.8,4.5,0.1c0.6-0.3,1.5-0.5,2.3-0.5"/>
    <path class="st0" d="M15.5,21.2c-0.9,0-1.8,0.1-2.3,0.4c-1.5,0.7-3.2,0.6-4.6,0.1c-1.4-0.5-3.5-0.5-4.5,0c-0.9,0.3-1.4,0.6-2.5,0.5
        "/>
    <path class="st0" d="M53.8,21.6c0.1,0.1,0.3,0.1,0.4,0.1"/>
    <path class="st0" d="M53.8,21.6C53.7,21.6,53.7,21.6,53.8,21.6L53.8,21.6C53.8,21.6,53.8,21.6,53.8,21.6"/>
    <path class="st0" d="M51.6,21.2c0.9,0,1.7,0.1,2.2,0.4"/>
    <path class="st0" d="M24.2,21.2c0.9,0,1.8,0.3,2.5,0.6c0.5,0.3,1.5,0.4,2.5,0.4"/>
    <path class="st0" d="M42.7,21.2c-0.7,0-1.5,0.1-2.4,0.5c-0.7,0.3-1.3,0.4-2,0.4"/>
    <path class="st0" d="M33.5,25.7c0.6,0,1.3-0.1,2-0.4c2-0.8,3.7-0.5,4.5-0.1c0.8,0.4,3.2,0.8,4.5,0.1c0.7-0.4,1.8-0.5,2.8-0.5"/>
    <path class="st0" d="M29.2,24.7c0.7,0.1,1.3,0.3,1.6,0.4c0.4,0.2,1.4,0.5,2.6,0.5"/>
    <path class="st0" d="M5.9,25.7c0.8,0,1.6-0.1,2.4-0.5c0.7-0.3,1.8-0.4,2.8-0.4"/>
    <path class="st0" d="M1.6,24.8c-0.5,0-1.1,0-1.6,0.1"/>
    <path class="st0" d="M48.9,25.2c2.6,1,3.1,0.4,4.4,0c0.2-0.1,0.5-0.2,0.9-0.3"/>
    <path class="st0" d="M11.1,24.8c0.7,0,1.4,0.2,1.7,0.4c0.6,0.3,1.6,0.5,2.6,0.5"/>
    <path class="st0" d="M5.9,25.7c-0.7,0-1.5-0.2-2.2-0.4c-0.6-0.2-1.4-0.4-2.1-0.4"/>
    <path class="st0" d="M19.9,24.8c-0.9-0.1-1.8,0-2.6,0.5c-0.6,0.3-1.3,0.4-1.9,0.5"/>
    <path class="st0" d="M48.9,25.2c-0.4-0.2-1-0.4-1.7-0.4"/>
    <path class="st0" d="M19.9,24.8c0.8,0.1,1.5,0.3,2,0.6c0.5,0.3,1.4,0.4,2.2,0.4"/>
    <path class="st0" d="M24.1,25.7c0.8,0,1.6-0.2,2.2-0.5c0.9-0.5,2-0.6,2.9-0.5"/>
    <path class="st0" d="M48.9,25.2C48.9,25.2,48.8,25.2,48.9,25.2L48.9,25.2C48.9,25.2,48.9,25.2,48.9,25.2"/>
    <path class="st0" d="M47.4,29.5c0.7,0,1.4-0.1,2-0.4c1.2-0.7,3.6-0.6,4.5-0.1"/>
    <path class="st0" d="M53.8,29C53.7,29,53.7,29,53.8,29L53.8,29C53.8,29,53.8,29,53.8,29"/>
    <path class="st0" d="M24.1,28.5c-0.7,0-1.3,0.2-2,0.5c-0.7,0.4-1.4,0.5-2.2,0.5"/>
    <path class="st0" d="M11.2,29.4c0.6,0,1.3-0.2,1.9-0.5c0.5-0.2,1.4-0.4,2.2-0.4"/>
    <path class="st0" d="M20,29.5c-0.9,0-1.8-0.3-2.3-0.5c-0.4-0.3-1.3-0.4-2.3-0.4"/>
    <path class="st0" d="M29.4,29.5c-1,0.1-2.1-0.1-2.6-0.4c-0.7-0.4-1.6-0.6-2.6-0.6"/>
    <path class="st0" d="M53.8,29c0.1,0.1,0.3,0.1,0.4,0.1"/>
    <path class="st0" d="M42.6,28.6c1,0,1.7,0.2,2.2,0.4c0.5,0.3,1.5,0.5,2.5,0.5"/>
    <path class="st0" d="M1.7,29.5c-0.4,0-1-0.2-1.7-0.4"/>
    <path class="st0" d="M5.9,28.6c-0.7,0-1.4,0.2-1.8,0.4c-0.9,0.3-1.4,0.6-2.3,0.5"/>
    <path class="st0" d="M5.9,28.6c0.9,0,1.9,0.1,2.7,0.4c0.8,0.3,1.7,0.5,2.7,0.4"/>
    <path class="st0" d="M29.4,29.5c0.7,0,1.3-0.2,1.9-0.5c0.7-0.4,1.5-0.5,2.2-0.5"/>
    <path class="st0" d="M42.6,28.6c-0.7,0-1.5,0.2-2.3,0.5c-0.6,0.2-1.3,0.4-1.8,0.4"/>
    <path class="st0" d="M38.5,29.5c-1.3,0.1-2.3-0.2-2.8-0.5c-0.4-0.2-1.3-0.5-2.2-0.5"/>
    <path class="st0" d="M29.4,32.2c0.9,0,1.6,0.3,2,0.5c0.5,0.3,1.6,0.6,2.9,0.5"/>
    <path class="st0" d="M6.6,33.1c-0.8,0-1.7-0.1-2.4-0.4c-0.7-0.3-1.6-0.4-2.5-0.4"/>
    <path class="st0" d="M34.2,33.1c0.5,0,1.1-0.2,1.7-0.4c2-0.8,3.7-0.5,4.5-0.1c0.8,0.4,3.2,0.8,4.5,0.1c1.2-0.7,3.6-0.6,4.5-0.1"/>
    <path class="st0" d="M20,32.2c-0.7,0-1.5,0.1-2.2,0.5c-0.5,0.3-1.1,0.4-1.7,0.4"/>
    <path class="st0" d="M11.2,32.3c-0.9,0-1.9,0.1-2.5,0.4c-0.7,0.3-1.4,0.5-2.2,0.5"/>
    <path class="st0" d="M49.4,32.7c2.6,1,3.1,0.4,4.4,0c0.1-0.1,0.2-0.1,0.4-0.1"/>
    <path class="st0" d="M16.1,33.1c-1.1,0.1-2.2-0.2-2.8-0.5c-0.4-0.2-1.2-0.4-2-0.4"/>
    <path class="st0" d="M1.7,32.3c-0.6,0-1.2,0.1-1.7,0.2"/>
    <path class="st0" d="M49.4,32.7C49.4,32.7,49.3,32.7,49.4,32.7L49.4,32.7C49.4,32.7,49.4,32.7,49.4,32.7"/>
    <path class="st0" d="M20,32.2c0.9,0,1.7,0.3,2.4,0.6c0.9,0.5,3.2,0.6,4.5-0.1c0.8-0.4,1.7-0.5,2.5-0.5"/>
    <path class="st0" d="M24.9,36.2c-0.9-0.1-2,0-2.8,0.4c-1.5,0.8-3.6,0.4-4.5-0.1c-0.8-0.5-3.3-0.5-4.5,0c-0.7,0.3-1.4,0.5-2.2,0.5"
        />
    <path class="st0" d="M34.2,36.2c0.6,0.1,1.1,0.3,1.4,0.4c0.7,0.4,2.6,0.9,4.6,0.1c1.2-0.5,2.3-0.5,3.2-0.4"/>
    <path class="st0" d="M34.2,36.2c-0.9-0.1-2.1-0.1-3.1,0.5c-0.6,0.3-1.4,0.5-2.1,0.5"/>
    <path class="st0" d="M53.7,36.6c0.2,0.1,0.4,0.1,0.5,0.2"/>
    <path class="st0" d="M10.9,37.1c-0.8,0-1.7-0.1-2.4-0.4c-1.4-0.5-3.5-0.5-4.5,0C2.7,37,2.2,37.5,0,36.8"/>
    <path class="st0" d="M43.4,36.3c0.6,0.1,1,0.2,1.3,0.4c0.8,0.4,3.2,0.8,4.5,0.1c1.2-0.7,3.6-0.6,4.5-0.1"/>
    <path class="st0" d="M24.9,36.2c0.7,0.1,1.3,0.3,1.8,0.5c0.5,0.3,1.4,0.4,2.4,0.4"/>
    <path class="st0" d="M53.7,36.6C53.6,36.6,53.6,36.6,53.7,36.6L53.7,36.6C53.7,36.6,53.7,36.6,53.7,36.6"/>
    <path class="st0" d="M54.2,40c-0.2,0.1-0.4,0.1-0.6,0.2c-0.7,0.2-1.1,0.4-1.7,0.5"/>
    <path class="st0" d="M49.2,40.2c1.3,0.5,2.1,0.6,2.7,0.5"/>
    <path class="st0" d="M15.7,40.7c-1.1,0-2.1-0.2-2.7-0.5c-0.4-0.2-1.3-0.4-2.2-0.4"/>
    <path class="st0" d="M19.6,39.8c-0.7,0-1.4,0.1-2.1,0.5c-0.5,0.3-1.2,0.4-1.8,0.5"/>
    <path class="st0" d="M1.4,39.9c0.9,0,1.8,0.1,2.6,0.4c1.4,0.5,3.1,0.6,4.6-0.1c0.6-0.3,1.5-0.4,2.3-0.4"/>
    <path class="st0" d="M24.5,40.8c-0.9,0-1.9-0.1-2.4-0.4c-0.7-0.3-1.6-0.6-2.5-0.6"/>
    <path class="st0" d="M47,39.8c-0.8,0-1.7,0.2-2.3,0.5c-0.5,0.3-1.1,0.4-1.7,0.4"/>
    <path class="st0" d="M49.2,40.2C49.1,40.2,49.1,40.2,49.2,40.2L49.2,40.2C49.2,40.3,49.2,40.3,49.2,40.2"/>
    <path class="st0" d="M38.1,39.8c0.9,0,1.6,0.2,2.1,0.4c0.5,0.3,1.7,0.5,2.8,0.5"/>
    <path class="st0" d="M1.4,39.9C0.9,39.9,0.4,40,0,40"/>
    <path class="st0" d="M49.2,40.2c-0.4-0.3-1.3-0.4-2.2-0.4"/>
    <path class="st0" d="M29,39.7c-0.8,0-1.6,0.1-2.4,0.5c-0.6,0.3-1.4,0.5-2.1,0.5"/>
    <path class="st0" d="M33.9,40.7c-1.3,0.1-2.3-0.2-2.7-0.5c-0.4-0.2-1.2-0.4-2.1-0.5"/>
    <path class="st0" d="M38.1,39.8c-0.7,0-1.5,0.1-2.4,0.5c-0.6,0.2-1.3,0.4-1.8,0.4"/>
    <path class="st0" d="M53.4,44.1c0.3,0.1,0.5,0.2,0.7,0.3"/>
    <path class="st0" d="M28.9,44.6c-1,0-1.9-0.1-2.5-0.4c-0.5-0.3-1.2-0.5-1.9-0.6"/>
    <path class="st0" d="M38,44.6c0.6,0,1.3-0.1,2-0.4c1.1-0.4,2.2-0.5,3-0.5"/>
    <path class="st0" d="M38,44.6c-1.2,0-2.1-0.3-2.6-0.5c-0.3-0.2-0.9-0.3-1.5-0.4"/>
    <path class="st0" d="M28.9,44.6c0.7,0,1.5-0.2,2-0.5c1-0.5,2.1-0.6,3-0.5"/>
    <path class="st0" d="M43,43.7c0.6,0.1,1.1,0.2,1.5,0.4c0.8,0.4,3.2,0.8,4.5,0.1c1.2-0.7,3.6-0.6,4.5-0.1"/>
    <path class="st0" d="M24.5,43.7c-0.9-0.1-1.8,0-2.7,0.5c-1.5,0.8-3.6,0.4-4.5-0.1c-0.8-0.5-3.3-0.5-4.5,0c-1.5,0.7-3.2,0.6-4.6,0.1
        c-1.4-0.5-3.5-0.5-4.5,0c-0.9,0.3-1.4,0.6-2.5,0.5"/>
    <path class="st0" d="M53.4,44.1C53.4,44.1,53.4,44.1,53.4,44.1L53.4,44.1C53.5,44.1,53.5,44.1,53.4,44.1"/>
    <path class="st0" d="M0,44.4c0.5,0.1,0.8,0.2,1.2,0.3"/>
    <path class="st0" d="M51.4,48.8c0.8,0,1.3-0.3,2.1-0.5c0.2-0.1,0.4-0.2,0.7-0.2"/>
    <path class="st0" d="M33.4,48.7c-1.1,0-1.9-0.3-2.3-0.5c-0.7-0.4-2.8-0.9-4.5,0.1c-0.7,0.4-1.7,0.5-2.5,0.5"/>
    <path class="st0" d="M1.2,47.9c0.9,0,1.9,0.1,2.6,0.4c1.4,0.5,3.1,0.6,4.6-0.1c1.2-0.5,3.8-0.5,4.5,0c0.5,0.2,1.4,0.5,2.3,0.5"/>
    <path class="st0" d="M42.5,48.7c-1,0-1.9-0.2-2.4-0.5c-0.8-0.4-2.5-0.7-4.5,0.1c-0.8,0.3-1.6,0.4-2.2,0.4"/>
    <path class="st0" d="M0,48c0.4-0.1,0.8-0.1,1.2-0.1"/>
    <path class="st0" d="M42.5,48.7c0.8,0,1.6-0.1,2.1-0.4c1.2-0.7,3.6-0.6,4.5-0.1"/>
    <path class="st0" d="M15.2,48.7c0.7,0,1.5-0.1,2.2-0.5c0.6-0.3,1.3-0.5,2-0.5"/>
    <path class="st0" d="M51.4,48.8c-0.6,0-1.3-0.2-2.3-0.6"/>
    <path class="st0" d="M49.1,48.3C49,48.2,49,48.2,49.1,48.3L49.1,48.3C49.1,48.3,49.1,48.3,49.1,48.3"/>
    <path class="st0" d="M24,48.8c-0.8,0-1.5-0.2-2-0.4c-0.7-0.3-1.6-0.6-2.5-0.6"/>
    <path class="st0" d="M5.7,51.4c0.8,0,1.6,0.1,2.2,0.4c0.7,0.3,1.6,0.4,2.4,0.4"/>
    <path class="st0" d="M53.2,51.8c-0.9-0.5-3.2-0.6-4.5,0.1c-0.6,0.3-1.4,0.4-2.2,0.4"/>
    <path class="st0" d="M0,52.1c1.8,0.5,2.3,0.1,3.4-0.3c0.5-0.3,1.4-0.4,2.2-0.4"/>
    <path class="st0" d="M42.5,51.4c0.7,0,1.3,0.2,1.8,0.4c0.4,0.2,1.3,0.4,2.2,0.5"/>
    <path class="st0" d="M53.2,51.8C53.2,51.7,53.1,51.7,53.2,51.8L53.2,51.8C53.2,51.8,53.2,51.8,53.2,51.8"/>
    <path class="st0" d="M53.2,51.8c0.4,0.1,0.7,0.2,1,0.3"/>
    <path class="st0" d="M24,51.3c-0.8-0.1-1.7,0.1-2.4,0.5c-0.7,0.4-1.6,0.5-2.5,0.4"/>
    <path class="st0" d="M19.1,52.2c-0.8-0.1-1.6-0.3-2-0.5c-0.8-0.5-3.3-0.5-4.5,0c-0.7,0.3-1.5,0.5-2.2,0.5"/>
    <path class="st0" d="M24,51.3c0.8,0.1,1.6,0.3,2.2,0.6c0.9,0.5,3.2,0.6,4.5-0.1c1.7-0.9,3.8-0.4,4.5-0.1c0.7,0.4,2.6,0.9,4.6,0.1
        c1-0.4,2-0.5,2.8-0.5"/>
    <line class="st0" x1="46.5" y1="52.2" x2="46.5" y2="52.2"/>
    <line class="st0" x1="46.5" y1="52.2" x2="46.5" y2="54.1"/>
    <line class="st0" x1="37.6" y1="52.3" x2="37.6" y2="54.1"/>
    <line class="st0" x1="28.5" y1="52.3" x2="28.5" y2="54.1"/>
    <line class="st0" x1="19.1" y1="52.2" x2="19.1" y2="54.1"/>
    <line class="st0" x1="19.1" y1="52.1" x2="19.1" y2="52.2"/>
    <line class="st0" x1="10.4" y1="52.2" x2="10.4" y2="54.1"/>
    <line class="st0" x1="10.4" y1="52.2" x2="10.4" y2="52.2"/>
    <line class="st0" x1="0.9" y1="52.3" x2="0.9" y2="54.1"/>
    <rect x="0" class="st1" width="54.1" height="54.1"/>
</g>
</svg>
