<svg id="Layer_1" data-name="Layer 1" xmlns="http://www.w3.org/2000/svg" width="54.13" height="54.13" viewBox="0 0 54.13 54.13"><defs><style>.cls-1,.cls-2{fill:none;}.cls-2{stroke:#000;stroke-width:0.3px;}</style></defs><title>Artboard 37</title><rect class="cls-1" x="25.79" y="-14.17" width="54.13" height="54.13"/><line class="cls-2" x1="45.93" y1="27.55" x2="59.55" y2="27.55"/><line class="cls-2" x1="32.68" y1="27.55" x2="25.79" y2="27.55"/><line class="cls-2" x1="32.68" y1="27.55" x2="45.93" y2="27.55"/><line class="cls-2" x1="52.2" y1="31.33" x2="37.65" y2="31.33"/><line class="cls-2" x1="37.65" y1="31.33" x2="25.79" y2="31.33"/><line class="cls-2" x1="66.08" y1="31.33" x2="52.2" y2="31.33"/><line class="cls-2" x1="31.72" y1="1.96" x2="25.79" y2="1.96"/><line class="cls-2" x1="57.72" y1="1.96" x2="44.47" y2="1.96"/><line class="cls-2" x1="44.47" y1="1.96" x2="31.72" y2="1.96"/><line class="cls-2" x1="53.27" y1="5.24" x2="38.27" y2="5.24"/><line class="cls-2" x1="38.27" y1="5.24" x2="25.79" y2="5.24"/><line class="cls-2" x1="67.02" y1="5.24" x2="53.27" y2="5.24"/><line class="cls-2" x1="59.58" y1="8.66" x2="45.95" y2="8.66"/><line class="cls-2" x1="32.45" y1="8.66" x2="25.79" y2="8.66"/><line class="cls-2" x1="45.95" y1="8.66" x2="32.45" y2="8.66"/><line class="cls-2" x1="25.79" y1="12.71" x2="79.92" y2="12.71"/><line class="cls-2" x1="25.79" y1="16.51" x2="79.92" y2="16.51"/><line class="cls-2" x1="79.92" y1="20.72" x2="25.79" y2="20.72"/><line class="cls-2" x1="25.79" y1="23.94" x2="79.92" y2="23.94"/><line class="cls-2" x1="25.79" y1="39.11" x2="31.72" y2="39.11"/><line class="cls-2" x1="44.47" y1="39.11" x2="36.09" y2="39.11"/><line class="cls-2" x1="50.53" y1="39.11" x2="44.47" y2="39.11"/><line class="cls-2" x1="50.53" y1="39.11" x2="57.97" y2="39.11"/><line class="cls-2" x1="31.72" y1="39.11" x2="36.09" y2="39.11"/><line class="cls-2" x1="31.72" y1="39.1" x2="31.72" y2="39.11"/><line class="cls-2" x1="31.72" y1="39.95" x2="31.72" y2="39.11"/><line class="cls-2" x1="44.47" y1="39.1" x2="44.47" y2="39.11"/><line class="cls-2" x1="44.47" y1="39.95" x2="44.47" y2="39.11"/><line class="cls-2" x1="52.58" y1="-2.06" x2="52.58" y2="1.93"/><line class="cls-2" x1="37.7" y1="-2.06" x2="37.7" y2="1.93"/><line class="cls-2" x1="44.47" y1="1.96" x2="44.47" y2="5.23"/><line class="cls-2" x1="44.47" y1="1.96" x2="44.47" y2="1.93"/><line class="cls-2" x1="31.72" y1="1.96" x2="31.72" y2="5.23"/><line class="cls-2" x1="31.72" y1="1.96" x2="31.72" y2="1.93"/><line class="cls-2" x1="38.27" y1="5.24" x2="38.27" y2="8.65"/><line class="cls-2" x1="38.27" y1="5.24" x2="38.27" y2="5.23"/><line class="cls-2" x1="53.27" y1="5.24" x2="53.27" y2="8.65"/><line class="cls-2" x1="53.27" y1="5.23" x2="53.27" y2="5.24"/><line class="cls-2" x1="32.45" y1="8.66" x2="32.45" y2="12.7"/><line class="cls-2" x1="32.45" y1="8.65" x2="32.45" y2="8.66"/><line class="cls-2" x1="45.95" y1="8.65" x2="45.95" y2="8.66"/><line class="cls-2" x1="45.95" y1="8.66" x2="45.95" y2="12.7"/><line class="cls-2" x1="52.51" y1="12.76" x2="52.51" y2="16.5"/><line class="cls-2" x1="37.51" y1="12.76" x2="37.51" y2="16.5"/><line class="cls-2" x1="31.32" y1="16.56" x2="31.32" y2="20.7"/><line class="cls-2" x1="44.32" y1="16.56" x2="44.32" y2="20.7"/><line class="cls-2" x1="53.84" y1="20.76" x2="53.84" y2="23.93"/><line class="cls-2" x1="38.72" y1="20.76" x2="38.72" y2="23.93"/><line class="cls-2" x1="26.3" y1="20.76" x2="26.3" y2="23.93"/><line class="cls-2" x1="32.68" y1="27.55" x2="32.68" y2="23.99"/><line class="cls-2" x1="45.93" y1="27.55" x2="45.93" y2="23.99"/><line class="cls-2" x1="52.2" y1="31.33" x2="52.2" y2="27.6"/><line class="cls-2" x1="52.2" y1="31.33" x2="52.2" y2="31.36"/><line class="cls-2" x1="37.65" y1="31.33" x2="37.65" y2="31.36"/><line class="cls-2" x1="37.65" y1="27.6" x2="37.65" y2="31.33"/><line class="cls-2" x1="64.15" y1="35.74" x2="50.53" y2="35.74"/><line class="cls-2" x1="25.79" y1="35.74" x2="36.09" y2="35.74"/><line class="cls-2" x1="50.53" y1="35.74" x2="36.09" y2="35.74"/><line class="cls-2" x1="36.09" y1="35.74" x2="36.09" y2="39.11"/><line class="cls-2" x1="36.09" y1="35.71" x2="36.09" y2="35.74"/><line class="cls-2" x1="36.09" y1="39.18" x2="36.09" y2="39.11"/><line class="cls-2" x1="50.53" y1="35.74" x2="50.53" y2="39.11"/><line class="cls-2" x1="50.53" y1="39.11" x2="50.53" y2="39.18"/><line class="cls-2" x1="50.53" y1="35.74" x2="50.53" y2="35.71"/><line class="cls-2" x1="30.36" y1="31.36" x2="30.36" y2="35.71"/><line class="cls-2" x1="43.36" y1="31.36" x2="43.36" y2="35.71"/><polygon class="cls-2" points="47.91 7.57 48.7 6.33 44.31 6.33 43.52 7.57 47.91 7.57"/><polygon class="cls-2" points="33.8 7.59 34.58 6.36 30.2 6.36 29.41 7.59 33.8 7.59"/><polygon class="cls-2" points="35.52 4.29 39.91 4.29 40.7 3.05 36.31 3.05 35.52 4.29"/><polygon class="cls-2" points="33.96 -0.58 29.57 -0.58 28.78 0.66 33.17 0.66 33.96 -0.58"/><polygon class="cls-2" points="47.7 -0.56 43.31 -0.56 42.52 0.67 46.91 0.67 47.7 -0.56"/><polygon class="cls-2" points="36.4 11.32 40.78 11.32 41.57 10.08 37.18 10.08 36.4 11.32"/><polyline class="cls-2" points="25.79 11.32 28.41 11.32 29.2 10.08 25.79 10.08"/><polygon class="cls-2" points="50.4 11.32 54.78 11.32 55.57 10.08 51.18 10.08 50.4 11.32"/><polygon class="cls-2" points="42.15 15.19 46.53 15.19 47.32 13.95 42.93 13.95 42.15 15.19"/><polygon class="cls-2" points="28.14 15.19 32.53 15.19 33.32 13.95 28.93 13.95 28.14 15.19"/><polygon class="cls-2" points="35.02 19.17 39.41 19.17 40.2 17.93 35.81 17.93 35.02 19.17"/><polygon class="cls-2" points="48.65 19.17 53.03 19.17 53.82 17.93 49.43 17.93 48.65 19.17"/><polyline class="cls-2" points="25.79 19.17 26.48 19.17 27.27 17.93 25.79 17.93"/><polygon class="cls-2" points="43.55 22.92 47.93 22.92 48.72 21.68 44.33 21.68 43.55 22.92"/><polygon class="cls-2" points="29.8 22.92 34.18 22.92 34.97 21.68 30.58 21.68 29.8 22.92"/><polyline class="cls-2" points="25.79 26.42 28.53 26.42 29.32 25.18 25.79 25.18"/><polygon class="cls-2" points="42.09 25.18 37.71 25.18 36.92 26.42 41.31 26.42 42.09 25.18"/><polygon class="cls-2" points="55.22 25.18 50.83 25.18 50.05 26.42 54.43 26.42 55.22 25.18"/><polygon class="cls-2" points="42.3 30.04 46.68 30.04 47.47 28.8 43.08 28.8 42.3 30.04"/><polygon class="cls-2" points="28.42 30.04 32.81 30.04 33.59 28.8 29.21 28.8 28.42 30.04"/><polyline class="cls-2" points="25.79 34.29 25.86 34.29 26.64 33.05 25.79 33.05"/><polygon class="cls-2" points="38.43 34.29 39.22 33.05 34.83 33.05 34.05 34.29 38.43 34.29"/><polygon class="cls-2" points="47.55 34.29 51.93 34.29 52.72 33.05 48.33 33.05 47.55 34.29"/><polygon class="cls-2" points="32.47 36.8 28.08 36.8 27.3 38.04 31.68 38.04 32.47 36.8"/><polygon class="cls-2" points="40.67 38.04 45.06 38.04 45.84 36.8 41.46 36.8 40.67 38.04"/><polygon class="cls-2" points="53.83 3.1 49.45 3.1 48.66 4.34 53.05 4.34 53.83 3.1"/><polyline class="cls-2" points="25.79 4.29 26.76 4.29 27.55 3.05 25.79 3.05"/><rect class="cls-1" x="25.79" y="39.95" width="54.13" height="54.13"/><line class="cls-2" x1="57.97" y1="43.7" x2="53.27" y2="43.7"/><line class="cls-2" x1="44.47" y1="43.7" x2="53.27" y2="43.7"/><line class="cls-2" x1="38.39" y1="43.7" x2="31.72" y2="43.7"/><line class="cls-2" x1="25.79" y1="43.7" x2="31.72" y2="43.7"/><line class="cls-2" x1="44.47" y1="43.7" x2="38.39" y2="43.7"/><line class="cls-2" x1="79.92" y1="47.88" x2="25.79" y2="47.88"/><line class="cls-2" x1="65.95" y1="52.07" x2="52.58" y2="52.07"/><line class="cls-2" x1="37.7" y1="52.07" x2="25.79" y2="52.07"/><line class="cls-2" x1="52.58" y1="52.07" x2="37.7" y2="52.07"/><line class="cls-2" x1="31.72" y1="39.95" x2="31.72" y2="43.7"/><line class="cls-2" x1="44.47" y1="43.7" x2="44.47" y2="39.95"/><line class="cls-2" x1="38.39" y1="43.7" x2="38.39" y2="47.87"/><line class="cls-2" x1="38.39" y1="43.64" x2="38.39" y2="43.7"/><line class="cls-2" x1="53.27" y1="43.64" x2="53.27" y2="43.7"/><line class="cls-2" x1="53.27" y1="47.87" x2="53.27" y2="43.7"/><line class="cls-2" x1="32.83" y1="52.05" x2="32.83" y2="48"/><line class="cls-2" x1="46.08" y1="52.05" x2="46.08" y2="48"/><line class="cls-2" x1="52.58" y1="52.07" x2="52.58" y2="52.05"/><line class="cls-2" x1="52.58" y1="52.07" x2="52.58" y2="56.05"/><line class="cls-2" x1="37.7" y1="52.07" x2="37.7" y2="52.05"/><line class="cls-2" x1="37.7" y1="52.07" x2="37.7" y2="56.05"/><polygon class="cls-2" points="33.96 53.55 29.57 53.55 28.78 54.78 33.17 54.78 33.96 53.55"/><polygon class="cls-2" points="47.7 53.56 43.31 53.56 42.52 54.8 46.91 54.8 47.7 53.56"/><polygon class="cls-2" points="55.82 49.37 51.43 49.37 50.65 50.6 55.03 50.6 55.82 49.37"/><polygon class="cls-2" points="42.21 49.35 37.82 49.35 37.03 50.59 41.42 50.59 42.21 49.35"/><polyline class="cls-2" points="25.79 50.62 28.81 50.62 29.59 49.38 25.79 49.38"/><polygon class="cls-2" points="30.06 45.19 29.27 46.43 33.66 46.43 34.45 45.19 30.06 45.19"/><polygon class="cls-2" points="43.15 46.43 47.53 46.43 48.32 45.19 43.93 45.19 43.15 46.43"/><polygon class="cls-2" points="53.82 41.14 49.43 41.14 48.65 42.38 53.03 42.38 53.82 41.14"/><polygon class="cls-2" points="39.91 42.38 40.7 41.14 36.31 41.14 35.52 42.38 39.91 42.38"/><polyline class="cls-2" points="25.79 42.38 27.16 42.38 27.95 41.14 25.79 41.14"/><rect class="cls-1" x="-28.33" y="-14.17" width="54.13" height="54.13"/><line class="cls-2" x1="5.43" y1="27.55" x2="20.3" y2="27.55"/><line class="cls-2" x1="-8.2" y1="27.55" x2="5.43" y2="27.55"/><line class="cls-2" x1="20.3" y1="27.55" x2="25.79" y2="27.55"/><line class="cls-2" x1="25.4" y1="31.33" x2="25.79" y2="31.33"/><line class="cls-2" x1="11.95" y1="31.33" x2="-1.92" y2="31.33"/><line class="cls-2" x1="11.95" y1="31.33" x2="25.4" y2="31.33"/><line class="cls-2" x1="3.59" y1="1.96" x2="-9.66" y2="1.96"/><line class="cls-2" x1="3.59" y1="1.96" x2="18.22" y2="1.96"/><line class="cls-2" x1="18.22" y1="1.96" x2="25.79" y2="1.96"/><line class="cls-2" x1="12.89" y1="5.24" x2="25.64" y2="5.24"/><line class="cls-2" x1="25.64" y1="5.24" x2="25.79" y2="5.24"/><line class="cls-2" x1="12.89" y1="5.24" x2="-0.86" y2="5.24"/><line class="cls-2" x1="20.33" y1="8.66" x2="5.45" y2="8.66"/><line class="cls-2" x1="5.45" y1="8.66" x2="-8.17" y2="8.66"/><line class="cls-2" x1="20.33" y1="8.66" x2="25.79" y2="8.66"/><line class="cls-2" x1="-28.33" y1="12.71" x2="25.79" y2="12.71"/><line class="cls-2" x1="-28.33" y1="16.51" x2="25.79" y2="16.51"/><line class="cls-2" x1="25.79" y1="20.72" x2="-28.33" y2="20.72"/><line class="cls-2" x1="-28.33" y1="23.94" x2="25.79" y2="23.94"/><line class="cls-2" x1="10.03" y1="39.11" x2="3.84" y2="39.11"/><line class="cls-2" x1="10.03" y1="39.11" x2="18.22" y2="39.11"/><line class="cls-2" x1="23.4" y1="39.11" x2="18.22" y2="39.11"/><line class="cls-2" x1="23.4" y1="39.11" x2="25.79" y2="39.11"/><line class="cls-2" x1="-3.6" y1="39.11" x2="3.84" y2="39.11"/><line class="cls-2" x1="3.84" y1="39.1" x2="3.84" y2="39.11"/><line class="cls-2" x1="3.84" y1="39.95" x2="3.84" y2="39.11"/><line class="cls-2" x1="18.22" y1="39.1" x2="18.22" y2="39.11"/><line class="cls-2" x1="18.22" y1="39.95" x2="18.22" y2="39.11"/><line class="cls-2" x1="11.83" y1="-2.06" x2="11.83" y2="1.93"/><line class="cls-2" x1="25.08" y1="1.93" x2="25.08" y2="-2.06"/><line class="cls-2" x1="18.22" y1="1.96" x2="18.22" y2="1.93"/><line class="cls-2" x1="18.22" y1="1.96" x2="18.22" y2="5.23"/><line class="cls-2" x1="3.59" y1="1.96" x2="3.59" y2="1.93"/><line class="cls-2" x1="3.59" y1="1.96" x2="3.59" y2="5.23"/><line class="cls-2" x1="12.89" y1="5.24" x2="12.89" y2="5.23"/><line class="cls-2" x1="12.89" y1="5.24" x2="12.89" y2="8.65"/><line class="cls-2" x1="25.64" y1="5.24" x2="25.64" y2="5.23"/><line class="cls-2" x1="25.64" y1="5.24" x2="25.64" y2="8.65"/><line class="cls-2" x1="5.45" y1="8.66" x2="5.45" y2="12.7"/><line class="cls-2" x1="5.45" y1="8.65" x2="5.45" y2="8.66"/><line class="cls-2" x1="20.33" y1="8.66" x2="20.33" y2="8.65"/><line class="cls-2" x1="20.33" y1="8.66" x2="20.33" y2="12.7"/><line class="cls-2" x1="11.7" y1="12.76" x2="11.7" y2="16.5"/><line class="cls-2" x1="24.93" y1="16.5" x2="24.93" y2="12.76"/><line class="cls-2" x1="3.82" y1="16.56" x2="3.82" y2="20.7"/><line class="cls-2" x1="18.07" y1="16.56" x2="18.07" y2="20.7"/><line class="cls-2" x1="13.87" y1="20.76" x2="13.87" y2="23.93"/><line class="cls-2" x1="5.43" y1="27.55" x2="5.43" y2="23.99"/><line class="cls-2" x1="20.3" y1="27.55" x2="20.3" y2="23.99"/><line class="cls-2" x1="11.95" y1="31.33" x2="11.95" y2="31.36"/><line class="cls-2" x1="11.95" y1="31.33" x2="11.95" y2="27.6"/><line class="cls-2" x1="25.4" y1="31.33" x2="25.4" y2="27.6"/><line class="cls-2" x1="25.4" y1="31.33" x2="25.4" y2="31.36"/><line class="cls-2" x1="10.03" y1="35.74" x2="-3.6" y2="35.74"/><line class="cls-2" x1="23.4" y1="35.74" x2="10.03" y2="35.74"/><line class="cls-2" x1="23.4" y1="35.74" x2="25.79" y2="35.74"/><line class="cls-2" x1="10.03" y1="39.11" x2="10.03" y2="35.74"/><line class="cls-2" x1="10.03" y1="39.11" x2="10.03" y2="39.18"/><line class="cls-2" x1="10.03" y1="35.71" x2="10.03" y2="35.74"/><line class="cls-2" x1="23.4" y1="39.11" x2="23.4" y2="35.74"/><line class="cls-2" x1="23.4" y1="39.11" x2="23.4" y2="39.18"/><line class="cls-2" x1="23.4" y1="35.74" x2="23.4" y2="35.71"/><line class="cls-2" x1="3.24" y1="31.36" x2="3.24" y2="35.71"/><line class="cls-2" x1="17.8" y1="35.71" x2="17.8" y2="31.36"/><polygon class="cls-2" points="17.43 6.33 16.64 7.57 21.03 7.57 21.82 6.33 17.43 6.33"/><polygon class="cls-2" points="7.78 7.57 8.57 6.33 4.18 6.33 3.4 7.57 7.78 7.57"/><polygon class="cls-2" points="7.7 -0.56 3.31 -0.56 2.52 0.67 6.91 0.67 7.7 -0.56"/><polygon class="cls-2" points="16.27 0.73 20.66 0.73 21.45 -0.51 17.06 -0.51 16.27 0.73"/><polygon class="cls-2" points="-3.73 11.32 0.66 11.32 1.45 10.08 -2.94 10.08 -3.73 11.32"/><polygon class="cls-2" points="10.27 11.32 14.66 11.32 15.45 10.08 11.06 10.08 10.27 11.32"/><polygon class="cls-2" points="15.89 15.19 20.28 15.19 21.07 13.95 16.68 13.95 15.89 15.19"/><polygon class="cls-2" points="2.4 15.19 6.78 15.19 7.57 13.95 3.18 13.95 2.4 15.19"/><polygon class="cls-2" points="8.39 19.17 12.78 19.17 13.57 17.93 9.18 17.93 8.39 19.17"/><polygon class="cls-2" points="17.89 22.92 22.28 22.92 23.07 21.68 18.68 21.68 17.89 22.92"/><polygon class="cls-2" points="3.92 22.92 8.31 22.92 9.1 21.68 4.71 21.68 3.92 22.92"/><polygon class="cls-2" points="1.09 25.18 -3.29 25.18 -4.08 26.42 0.31 26.42 1.09 25.18"/><polygon class="cls-2" points="15.22 25.18 10.83 25.18 10.04 26.42 14.43 26.42 15.22 25.18"/><polygon class="cls-2" points="21.47 28.8 17.08 28.8 16.3 30.04 20.68 30.04 21.47 28.8"/><polygon class="cls-2" points="2.96 28.8 2.17 30.04 6.56 30.04 7.34 28.8 2.96 28.8"/><polygon class="cls-2" points="12.43 34.29 13.22 33.05 8.83 33.05 8.04 34.29 12.43 34.29"/><polygon class="cls-2" points="5.31 38.04 6.09 36.8 1.71 36.8 0.92 38.04 5.31 38.04"/><polygon class="cls-2" points="18.56 38.04 19.34 36.8 14.96 36.8 14.17 38.04 18.56 38.04"/><polygon class="cls-2" points="8.78 4.27 13.17 4.27 13.96 3.04 9.57 3.04 8.78 4.27"/><polyline class="cls-2" points="25.79 10.08 24.81 10.08 24.02 11.32 25.79 11.32"/><polyline class="cls-2" points="25.79 17.93 22.88 17.93 22.09 19.17 25.79 19.17"/><polyline class="cls-2" points="25.79 25.18 24.93 25.18 24.14 26.42 25.79 26.42"/><polyline class="cls-2" points="25.79 33.05 22.26 33.05 21.47 34.29 25.79 34.29"/><polyline class="cls-2" points="25.79 3.05 23.16 3.05 22.38 4.29 25.79 4.29"/><rect class="cls-1" x="-28.33" y="39.95" width="54.13" height="54.13"/><line class="cls-2" x1="3.84" y1="43.7" x2="-0.86" y2="43.7"/><line class="cls-2" x1="25.59" y1="43.7" x2="25.79" y2="43.7"/><line class="cls-2" x1="25.59" y1="43.7" x2="18.22" y2="43.7"/><line class="cls-2" x1="12.77" y1="43.7" x2="18.22" y2="43.7"/><line class="cls-2" x1="12.77" y1="43.7" x2="3.84" y2="43.7"/><line class="cls-2" x1="25.79" y1="47.88" x2="-28.33" y2="47.88"/><line class="cls-2" x1="25.79" y1="52.07" x2="25.08" y2="52.07"/><line class="cls-2" x1="11.83" y1="52.07" x2="25.08" y2="52.07"/><line class="cls-2" x1="11.83" y1="52.07" x2="-1.55" y2="52.07"/><line class="cls-2" x1="3.84" y1="39.95" x2="3.84" y2="43.7"/><line class="cls-2" x1="18.22" y1="39.95" x2="18.22" y2="43.7"/><line class="cls-2" x1="12.77" y1="43.7" x2="12.77" y2="47.87"/><line class="cls-2" x1="12.77" y1="43.7" x2="12.77" y2="43.64"/><line class="cls-2" x1="25.59" y1="43.7" x2="25.59" y2="43.64"/><line class="cls-2" x1="25.59" y1="43.7" x2="25.59" y2="47.87"/><line class="cls-2" x1="5.52" y1="52.05" x2="5.52" y2="48"/><line class="cls-2" x1="20.45" y1="52.05" x2="20.45" y2="48"/><line class="cls-2" x1="11.83" y1="52.07" x2="11.83" y2="56.05"/><line class="cls-2" x1="11.83" y1="52.07" x2="11.83" y2="52.05"/><line class="cls-2" x1="25.08" y1="56.05" x2="25.08" y2="52.07"/><line class="cls-2" x1="25.08" y1="52.05" x2="25.08" y2="52.07"/><polygon class="cls-2" points="7.7 53.56 3.31 53.56 2.52 54.8 6.91 54.8 7.7 53.56"/><polygon class="cls-2" points="16.27 54.85 20.66 54.85 21.45 53.62 17.06 53.62 16.27 54.85"/><polygon class="cls-2" points="15.47 49.35 11.08 49.35 10.29 50.59 14.68 50.59 15.47 49.35"/><polygon class="cls-2" points="1.7 49.37 -2.69 49.37 -3.48 50.6 0.91 50.6 1.7 49.37"/><polygon class="cls-2" points="3.65 46.43 8.03 46.43 8.82 45.19 4.43 45.19 3.65 46.43"/><polygon class="cls-2" points="17.93 45.19 17.14 46.43 21.53 46.43 22.32 45.19 17.93 45.19"/><polygon class="cls-2" points="13.57 41.14 9.18 41.14 8.39 42.38 12.78 42.38 13.57 41.14"/><polyline class="cls-2" points="25.79 49.38 25.21 49.38 24.42 50.62 25.79 50.62"/><polyline class="cls-2" points="25.79 41.14 23.56 41.14 22.77 42.38 25.79 42.38"/><rect class="cls-1" width="54.13" height="54.13"/></svg>