<svg id="Layer_1" data-name="Layer 1" xmlns="http://www.w3.org/2000/svg" width="85.22" height="85.33" viewBox="0 0 85.22 85.33"><defs><style>.cls-1,.cls-2{fill:none;}.cls-1{stroke:#000;stroke-width:0.3px;}</style></defs><title>Artboard 37</title><line class="cls-1" x1="83.81" y1="1.5" x2="83.57" y2="-0.74"/><line class="cls-1" x1="83.56" y1="9.75" x2="82.93" y2="4.37"/><path class="cls-1" d="M91.3,36.37C86.63,34.9,82.57,33.13,80,31.13"/><path class="cls-1" d="M80,52.22l0,0"/><path class="cls-1" d="M97.7,59.24c-7.24-1.76-14-4.13-17.73-7"/><path class="cls-1" d="M80,9.94l.08.06"/><path class="cls-1" d="M86.31,13.39A28.55,28.55,0,0,1,80.05,10"/><path class="cls-1" d="M86.58,77.06a33.87,33.87,0,0,1-5-2.44"/><path class="cls-1" d="M81.61,74.62A18,18,0,0,1,80,73.5"/><path class="cls-1" d="M88.29,51.59c-3.52.36-6.41.57-8.32.6"/><path class="cls-1" d="M107.62,71.27C96.31,73,85.87,73.79,80,73.31"/><path class="cls-1" d="M108.07,28.19C96.66,33,88.15,31.05,80,31"/><path class="cls-1" d="M84.75,9.65A47.53,47.53,0,0,0,90,8.6"/><path class="cls-1" d="M80,10h.08"/><path class="cls-1" d="M84.75,9.65a36.55,36.55,0,0,1-4.7.35"/><path class="cls-1" d="M103.91-.74A90.68,90.68,0,0,1,80,4.65"/><path class="cls-1" d="M114.43,22.84c-7.32,4.81-18.54,6-30.12,5.38"/><path class="cls-1" d="M84.31,28.22c-1.44-.08-2.89-.18-4.34-.3"/><path class="cls-1" d="M93.68,25.53a89,89,0,0,1-12.12.12"/><path class="cls-1" d="M80,25.54l1.59.11"/><path class="cls-1" d="M86.31,13.39a28.69,28.69,0,0,1-4,.38"/><path class="cls-1" d="M82.32,13.77A13.77,13.77,0,0,1,80,13.61"/><path class="cls-1" d="M92,17.51A32.63,32.63,0,0,1,80,19"/><path class="cls-1" d="M87.49,22.52a46,46,0,0,1-7.52,0"/><path class="cls-1" d="M83.56,84.16a68.34,68.34,0,0,0,14.94-3l.73-.3"/><path class="cls-1" d="M83.56,84.16c-1.22.09-2.42.14-3.59.13"/><path class="cls-1" d="M92.52,79.12l-.78.35A31.89,31.89,0,0,1,80,80.83"/><path class="cls-1" d="M86.5,16.15a20.27,20.27,0,0,1-6.53.24"/><path class="cls-1" d="M84.75,9.65l.54.37"/><path class="cls-1" d="M109.87,17.59C100.5,16.65,91.7,14.26,85.29,10"/><path class="cls-1" d="M84.71,9.62l0,0"/><path class="cls-1" d="M84.94,56.35a20.92,20.92,0,0,1-5,.43"/><path class="cls-1" d="M84.94,56.35c.49-.09,1-.19,1.55-.32"/><path class="cls-1" d="M91.93,57.91c-3.68.54-6.83,1.12-9.62,1.59"/><path class="cls-1" d="M82.31,59.5,80,59.89"/><path class="cls-1" d="M95.06,60.16A74.15,74.15,0,0,1,80,62.78"/><path class="cls-1" d="M86.74,64.18c-2.22.31-4.5.57-6.77.75"/><path class="cls-1" d="M92.63,65.91A108.66,108.66,0,0,1,80,68.08"/><path class="cls-1" d="M92.29,68c-3.06.46-6.2.85-9.33,1.14"/><path class="cls-1" d="M83,69.16c-1,.1-2,.18-3,.25"/><path class="cls-1" d="M82.93,69.16h0"/><path class="cls-1" d="M95.74,71.61A52.12,52.12,0,0,1,83,69.16"/><path class="cls-1" d="M84.62,73.28c-1.69-.26-3.23-.47-4.65-.65"/><path class="cls-1" d="M88,.89c-2.67.47-5.38.82-8,1"/><path class="cls-1" d="M86.58,77.06a37.53,37.53,0,0,1-6.61-1"/><path class="cls-1" d="M86.22,36.65A63.73,63.73,0,0,1,80,34.77"/><path class="cls-1" d="M89.89,38.9c-3.37-.47-6.84-1.08-9.92-1.76"/><path class="cls-1" d="M85.64,41.38c-1.92-.16-3.82-.35-5.67-.56"/><path class="cls-1" d="M91.73,44.6c-3.94,0-7.93,0-11.76-.16"/><path class="cls-1" d="M86.14,48.45q-3.06,0-6.17-.1"/><line class="cls-1" x1="83.56" y1="84.16" x2="83.57" y2="84.3"/><line class="cls-1" x1="83.12" y1="76.75" x2="83.43" y2="80.81"/><line class="cls-1" x1="81.61" y1="74.62" x2="81.62" y2="74.56"/><line class="cls-1" x1="81.61" y1="74.62" x2="81.31" y2="76.31"/><line class="cls-1" x1="85.31" y1="67.37" x2="85.49" y2="68.87"/><line class="cls-1" x1="82.56" y1="67.69" x2="82.18" y2="64.75"/><line class="cls-1" x1="82.31" y1="59.5" x2="82.62" y2="62.44"/><line class="cls-1" x1="82.31" y1="59.5" x2="82.31" y2="59.44"/><line class="cls-1" x1="84.94" y1="56.35" x2="85.68" y2="58.87"/><line class="cls-1" x1="84.93" y1="56.31" x2="84.94" y2="56.35"/><line class="cls-1" x1="82.22" y1="32.62" x2="81.64" y2="35.29"/><line class="cls-1" x1="82.72" y1="37.79" x2="82.64" y2="41.04"/><line class="cls-1" x1="82.22" y1="48.29" x2="82.14" y2="44.54"/><line class="cls-1" x1="84.31" y1="28.12" x2="84.31" y2="28.22"/><line class="cls-1" x1="84.31" y1="28.22" x2="84.37" y2="31.12"/><line class="cls-1" x1="81.56" y1="25.65" x2="81.56" y2="25.62"/><line class="cls-1" x1="81.56" y1="25.65" x2="81.62" y2="28"/><line class="cls-1" x1="82.49" y1="22.5" x2="82.18" y2="19.12"/><line class="cls-1" x1="82.31" y1="13.69" x2="82.32" y2="13.77"/><line class="cls-1" x1="82.32" y1="13.77" x2="82.62" y2="16.44"/><line class="cls-1" x1="80.93" y1="10.62" x2="80.93" y2="13.69"/><line class="cls-1" x1="83.99" y1="12.25" x2="85.29" y2="10.02"/><line class="cls-1" x1="85.29" y1="10.02" x2="85.31" y2="10"/><line class="cls-1" x1="79.97" y1="52.19" x2="79.97" y2="52.22"/><line class="cls-1" x1="79.97" y1="10" x2="79.97" y2="9.94"/><line class="cls-1" x1="79.97" y1="31.13" x2="79.97" y2="31"/><rect class="cls-2" x="79.97" y="-0.74" width="85.04" height="85.04"/><line class="cls-1" x1="83.81" y1="86.54" x2="83.57" y2="84.3"/><path class="cls-1" d="M103.91,84.3A90.68,90.68,0,0,1,80,89.69"/><rect class="cls-2" x="79.97" y="84.3" width="85.04" height="85.04"/><line class="cls-1" x1="2.95" y1="0.87" x2="2.96" y2="0.89"/><line class="cls-1" x1="2.96" y1="0.89" x2="3.52" y2="3.37"/><line class="cls-1" x1="14.27" y1="0.81" x2="13.69" y2="-0.74"/><line class="cls-1" x1="7.27" y1="2.75" x2="8.58" y2="7.5"/><line class="cls-1" x1="17.45" y1="-0.13" x2="19.14" y2="2.87"/><line class="cls-1" x1="72.27" y1="-0.74" x2="71.95" y2="2"/><line class="cls-1" x1="59.41" y1="-0.74" x2="57.7" y2="3.56"/><line class="cls-1" x1="74.7" y1="5.05" x2="74.7" y2="2.19"/><line class="cls-1" x1="74.7" y1="5.05" x2="74.7" y2="5.06"/><path class="cls-1" d="M6.26,36.37C1.59,34.9-2.47,33.13-5.07,31.13"/><path class="cls-1" d="M28.51,41c2.84.33,5.42.54,7.55.6"/><path class="cls-1" d="M19.64,39.63c3.07.56,6.09,1,8.87,1.34"/><path class="cls-1" d="M19.64,39.63A113.72,113.72,0,0,1,6.26,36.37"/><path class="cls-1" d="M37.45,41.59c-.43,0-.9,0-1.39,0"/><path class="cls-1" d="M37.45,41.59a85.91,85.91,0,0,0,10-.75"/><path class="cls-1" d="M55.48,39.59c-2.74.51-5.45.93-8,1.25"/><path class="cls-1" d="M64.22,37.65c-2.85.74-5.82,1.39-8.74,1.94"/><path class="cls-1" d="M76.31,33.36A22.14,22.14,0,0,0,80,31.13"/><path class="cls-1" d="M64.22,37.65a63.9,63.9,0,0,0,12.09-4.29"/><path class="cls-1" d="M12.66,59.24c3.81.92,7.75,1.67,11.46,2.23"/><path class="cls-1" d="M24.12,61.47a95.26,95.26,0,0,0,13.33,1.22"/><path class="cls-1" d="M12.66,59.24c-7.24-1.76-14-4.13-17.73-7"/><path class="cls-1" d="M43.45,62.37c-2.29.21-4.33.32-6,.32"/><path class="cls-1" d="M74.34,55.37c-1.66.72-3.48,1.39-5.41,2"/><path class="cls-1" d="M74.34,55.37A26.19,26.19,0,0,0,80,52.22"/><path class="cls-1" d="M66.33,58.16c-2.34.67-4.79,1.27-7.26,1.8"/><path class="cls-1" d="M80,52.22l0,0"/><path class="cls-1" d="M68.93,57.38c-.85.27-1.72.53-2.6.78"/><path class="cls-1" d="M43.45,62.37A133.3,133.3,0,0,0,59.07,60"/><path class="cls-1" d="M1.27,13.39A28.55,28.55,0,0,1-5,10"/><path class="cls-1" d="M10.05,16.29a73.48,73.48,0,0,1-8.78-2.9"/><path class="cls-1" d="M19.35,18.39c-3.11-.59-6.28-1.29-9.3-2.1"/><path class="cls-1" d="M19.35,18.39c2.1.39,4.19.73,6.19,1"/><path class="cls-1" d="M25.54,19.4a91.36,91.36,0,0,0,11.91,1"/><path class="cls-1" d="M80,9.94l-.08.06"/><path class="cls-1" d="M50.7,19.2a95.18,95.18,0,0,1-13.25,1.21"/><path class="cls-1" d="M50.7,19.2c10.75-1.62,23.44-4.82,29.19-9.2"/><path class="cls-1" d="M72,51.78A64.47,64.47,0,0,1,52.5,47"/><path class="cls-1" d="M72,51.78c2.82.28,5.53.41,8,.41"/><path class="cls-1" d="M46.52,43.52l-.07-.05"/><path class="cls-1" d="M52.5,47a30.34,30.34,0,0,1-6-3.51"/><path class="cls-1" d="M80,52.19h0"/><path class="cls-1" d="M38.58,68.22A11.62,11.62,0,0,0,39.7,69"/><path class="cls-1" d="M57,73.11c-1.91-.14-3.8-.32-5.62-.58"/><path class="cls-1" d="M39.7,69c2.92,1.8,7.08,2.89,11.71,3.54"/><path class="cls-1" d="M57,73.11c8.52.6,17.53.17,22.94.17"/><path class="cls-1" d="M32.27,24.3a40.19,40.19,0,0,0,4.09,1.56"/><path class="cls-1" d="M25.45,19.28l.09.12"/><path class="cls-1" d="M73.14,30.88C76,31,78.32,31,80,31"/><path class="cls-1" d="M58.82,30c2.22.21,4.4.38,6.48.52"/><path class="cls-1" d="M31.22,23.81a15.06,15.06,0,0,1-5.68-4.41"/><path class="cls-1" d="M65.3,30.5c2.84.18,5.5.3,7.84.38"/><path class="cls-1" d="M32.27,24.3c-.36-.16-.71-.32-1.05-.49"/><path class="cls-1" d="M36.36,25.86C42.86,28,51.1,29.24,58.82,30"/><path class="cls-1" d="M39.37,83.92c1.91-.07,4.16-.26,6.59-.53"/><path class="cls-1" d="M77.2,75.22a20.28,20.28,0,0,0,2.72-1.75"/><path class="cls-1" d="M37.41,84h0"/><path class="cls-1" d="M37.41,84c.6,0,1.26,0,2,0"/><path class="cls-1" d="M69.33,78.5c-.83.27-1.68.53-2.55.79"/><path class="cls-1" d="M58.14,81.42c-4.21.87-8.42,1.54-12.18,2"/><path class="cls-1" d="M58.14,81.42c2.94-.61,5.88-1.32,8.64-2.13"/><path class="cls-1" d="M77.2,75.22a47.6,47.6,0,0,1-7.87,3.28"/><path class="cls-1" d="M18.25,81.74c-1.35-.27-2.71-.55-4.06-.86"/><path class="cls-1" d="M1.54,77.06a33.87,33.87,0,0,1-5-2.44"/><path class="cls-1" d="M37.41,84h0"/><path class="cls-1" d="M11.25,80.17c1,.25,1.95.48,2.94.71"/><path class="cls-1" d="M37.41,84c-.75,0-1.56,0-2.44-.07"/><path class="cls-1" d="M7.48,79.12c1.22.37,2.48.72,3.77,1"/><path class="cls-1" d="M2.9,77.59l-1.36-.53"/><path class="cls-1" d="M26.3,83.07l1.11.14"/><path class="cls-1" d="M35,83.9c-2.19-.1-4.77-.33-7.56-.69"/><path class="cls-1" d="M18.25,81.74c1.49.29,3,.55,4.43.79"/><path class="cls-1" d="M7.48,79.12c-1.6-.47-3.13-1-4.58-1.53"/><path class="cls-1" d="M26.3,83.07c-1.18-.16-2.39-.34-3.62-.54"/><path class="cls-1" d="M22.44,1,22.27.91"/><path class="cls-1" d="M28.52,3.89A76.67,76.67,0,0,0,40.35,7.71"/><path class="cls-1" d="M79.89,10H80"/><path class="cls-1" d="M40.35,7.71a89.9,89.9,0,0,0,9,1.66"/><path class="cls-1" d="M49.38,9.37c13,1.73,24.4.64,30.51.63"/><path class="cls-1" d="M28.52,3.89Q25.46,2.62,22.44,1"/><path class="cls-1" d="M33.11,46.89c-2.89.61-5.88,1.18-8.86,1.7"/><path class="cls-1" d="M55.48,39.59c-1.75,1.34-4.93,2.67-9,3.93"/><path class="cls-1" d="M3.25,51.59c-3.52.36-6.41.57-8.32.6"/><path class="cls-1" d="M55.48,39.59l0,0"/><path class="cls-1" d="M42.59,44.65c1.38-.37,2.69-.75,3.93-1.13"/><path class="cls-1" d="M24.25,48.59c-7.6,1.34-15.16,2.39-21,3"/><path class="cls-1" d="M42.59,44.65c-2.93.79-6.14,1.54-9.48,2.24"/><path class="cls-1" d="M29.17,70.15l-1.74.32"/><path class="cls-1" d="M57.3,62.67a47.37,47.37,0,0,0,9-4.51"/><path class="cls-1" d="M57.3,62.67c-1.38.54-2.83,1.06-4.34,1.57"/><path class="cls-1" d="M22.58,71.27C11.27,73,.83,73.79-5.07,73.31"/><path class="cls-1" d="M22.58,71.27c1.6-.25,3.22-.52,4.85-.8"/><path class="cls-1" d="M29.17,70.15c1.64-.3,3.28-.62,4.92-1"/><path class="cls-1" d="M48.08,65.77c-4.42,1.28-9.17,2.43-14,3.43"/><path class="cls-1" d="M48.08,65.77Q50.6,65,53,64.24"/><path class="cls-1" d="M66.7,57.91l-.37.25"/><path class="cls-1" d="M31.22,23.81c-1.17.76-2.32,1.44-3.44,2.06"/><path class="cls-1" d="M23,28.19a47.92,47.92,0,0,0,4.75-2.32"/><path class="cls-1" d="M31.27,23.78l-.05,0"/><path class="cls-1" d="M23,28.19C11.62,33,3.11,31.05-5.07,31"/><path class="cls-1" d="M17.82,3.67C19.42,2.84,21,1.94,22.44,1"/><path class="cls-1" d="M-.29,9.65A47.53,47.53,0,0,0,5,8.6"/><path class="cls-1" d="M5,8.6A58.64,58.64,0,0,0,12.78,6"/><path class="cls-1" d="M22.44,1Q23.74.16,25-.74"/><path class="cls-1" d="M17.82,3.67c-1.63.85-3.32,1.63-5,2.34"/><path class="cls-1" d="M18.87-.74A90.68,90.68,0,0,1-5.07,4.65"/><path class="cls-1" d="M29.39,22.84c-7.32,4.81-18.54,6-30.12,5.38"/><path class="cls-1" d="M22.16,23.17a43.67,43.67,0,0,0,5.17-1.83"/><path class="cls-1" d="M22.16,23.17A67.73,67.73,0,0,1,8.64,25.53"/><path class="cls-1" d="M8.64,25.53a89,89,0,0,1-12.12.12"/><path class="cls-1" d="M1.27,13.39l.09,0"/><path class="cls-1" d="M1.27,13.39a28.69,28.69,0,0,1-4,.38"/><path class="cls-1" d="M7,17.51A32.63,32.63,0,0,1-5.07,19"/><path class="cls-1" d="M7,17.51a28.71,28.71,0,0,0,3.09-1.22"/><path class="cls-1" d="M10.08,16.28h0"/><path class="cls-1" d="M19.35,18.39l.1-.05"/><path class="cls-1" d="M2.45,22.52a46,46,0,0,1-7.52,0"/><path class="cls-1" d="M19.35,18.39c-1.75.71-3.49,1.33-5.19,1.86"/><path class="cls-1" d="M2.45,22.52a54.05,54.05,0,0,0,11.71-2.27"/><line class="cls-1" x1="14.19" y1="80.88" x2="14.2" y2="80.87"/><path class="cls-1" d="M-1.48,84.16a68.34,68.34,0,0,0,14.94-3l.73-.3"/><line class="cls-1" x1="7.48" y1="79.12" x2="7.55" y2="79.09"/><path class="cls-1" d="M7.48,79.12l-.78.35A31.89,31.89,0,0,1-5.07,80.83"/><line class="cls-1" x1="66.78" y1="79.29" x2="66.77" y2="79.25"/><path class="cls-1" d="M72.42,83.29A10.14,10.14,0,0,1,67,79.66l-.19-.37"/><path class="cls-1" d="M80,84.29a26.15,26.15,0,0,1-7.55-1"/><path class="cls-1" d="M80,80.83a30.71,30.71,0,0,1-4.64-.69"/><path class="cls-1" d="M70.33,78.19l.49.25a13.53,13.53,0,0,0,4.51,1.7"/><path class="cls-1" d="M74.7,5.05c-2.06.06-4.17,0-6.27-.06"/><path class="cls-1" d="M74.7,5.05c1.79,0,3.55-.15,5.24-.3h0"/><path class="cls-1" d="M68.43,5a56.53,56.53,0,0,1-14.51-2.4"/><path class="cls-1" d="M47-.74a26.57,26.57,0,0,0,7,3.33"/><path class="cls-1" d="M1.46,16.15a20.27,20.27,0,0,1-6.53.24"/><path class="cls-1" d="M1.46,16.15a32.44,32.44,0,0,0,4.21-1.09"/><path class="cls-1" d="M69.51,26.66c-2.25-.34-4.45-.72-6.58-1.12"/><path class="cls-1" d="M54.93,23.88c-6-1.36-10.8-2.72-13.54-3.57"/><path class="cls-1" d="M62.93,25.54c-2.82-.53-5.51-1.1-8-1.66"/><path class="cls-1" d="M69.51,26.66c3.39.52,6.89.95,10.4,1.25H80"/><path class="cls-1" d="M76,25.19c1.34.13,2.64.25,3.91.34h0"/><path class="cls-1" d="M50.7,19.2h0"/><path class="cls-1" d="M76,25.19c-8.9-.9-19-2.66-24.76-5.69"/><path class="cls-1" d="M50.7,19.2c.18.11.36.2.55.3"/><path class="cls-1" d="M75.23,12.72a24,24,0,0,0,4.69.87h0"/><path class="cls-1" d="M66,16.45l-.59-.26"/><path class="cls-1" d="M66,16.45C69.7,18,75.13,18.77,80,19"/><path class="cls-1" d="M59.73,18l-.62-.34"/><path class="cls-1" d="M59.73,18a39.23,39.23,0,0,0,11.11,3.31"/><path class="cls-1" d="M77.85,22.28l2.06.2H80"/><path class="cls-1" d="M77.85,22.28c-2.22-.23-4.62-.53-7-.94"/><path class="cls-1" d="M71.39,14.31c1.16.95,5,1.53,8.52,2H80"/><path class="cls-1" d="M39.61-.69a45.29,45.29,0,0,0,7.72,4.6"/><path class="cls-1" d="M78.14,9.91C63.85,8.8,55,7.43,47.33,3.91"/><path class="cls-1" d="M38.58,2.4C37.25,1.24,36.13.15,35.25-.74"/><path class="cls-1" d="M38.58,2.4A31.55,31.55,0,0,0,51.89,9.53"/><path class="cls-1" d="M40.35,7.71l.29.13"/><path class="cls-1" d="M40.35,7.71c-3.26-1.53-8.5-5.4-12-8.45"/><path class="cls-1" d="M31.33,20.09c.57.46,1.15.9,1.74,1.34"/><path class="cls-1" d="M50.27,28.91a42.49,42.49,0,0,1-17.2-7.48"/><path class="cls-1" d="M76.58,30.94c-13.5-.38-33.5-6.78-39.31-10.53"/><path class="cls-1" d="M28.52,3.89l.12,0"/><path class="cls-1" d="M28.52,3.89a49.43,49.43,0,0,1-5.13-.81"/><path class="cls-1" d="M23.39,3.08a17,17,0,0,1-2.91-.86"/><path class="cls-1" d="M17.82,3.67l-.15,0"/><path class="cls-1" d="M33.8,5.87c-7.07,1.49-9.71-.34-16-2.2"/><path class="cls-1" d="M22.7,9a55.72,55.72,0,0,0,14.13.32"/><path class="cls-1" d="M42.05,8.22a25.12,25.12,0,0,1-5.22,1.09"/><path class="cls-1" d="M22.7,9a30.22,30.22,0,0,1-9.92-3"/><path class="cls-1" d="M12.78,6,12.7,6"/><path class="cls-1" d="M9.42,7.28A12.12,12.12,0,0,0,11.82,9"/><path class="cls-1" d="M49.38,9.37l.07,0"/><path class="cls-1" d="M49.38,9.37c-16.3,6.06-31,3.14-37.56-.42"/><path class="cls-1" d="M5,8.6l-.08-.1"/><path class="cls-1" d="M18,14.45c-5.4-1-9.83-2.7-12.18-4.93"/><path class="cls-1" d="M5.82,9.52A6.94,6.94,0,0,1,5,8.6"/><path class="cls-1" d="M35.45,15.77a68.61,68.61,0,0,0,17.91-2.53"/><path class="cls-1" d="M18,14.45a84.77,84.77,0,0,0,17.45,1.32"/><path class="cls-1" d="M59.77,10.28a22.76,22.76,0,0,1-6.41,3"/><path class="cls-1" d="M61.71,14.4A91.4,91.4,0,0,1,43,17.73"/><path class="cls-1" d="M71.58,10.28a43.18,43.18,0,0,1-9.87,4.12"/><path class="cls-1" d="M-.29,9.65.25,10"/><path class="cls-1" d="M24.83,17.59C15.46,16.65,6.66,14.26.25,10"/><path class="cls-1" d="M24.83,17.59A102.61,102.61,0,0,0,43,17.73"/><path class="cls-1" d="M36.36,25.86c-1.55.38-5.72,1.17-8.58,0"/><path class="cls-1" d="M36.36,25.86l.06,0"/><path class="cls-1" d="M27.78,25.87l-.08,0"/><path class="cls-1" d="M23,28.19l.3.07"/><path class="cls-1" d="M23,28.19h0"/><path class="cls-1" d="M44.48,28a39.53,39.53,0,0,1-21.15.26"/><path class="cls-1" d="M38,32.53c-9,.93-16.89-.06-20-2.56"/><path class="cls-1" d="M52.83,29.31A68.81,68.81,0,0,1,38,32.53"/><path class="cls-1" d="M41.71,36.22A36.52,36.52,0,0,0,54,33.07"/><path class="cls-1" d="M58.82,30h0"/><path class="cls-1" d="M41.71,36.22a69.68,69.68,0,0,1-16.82-.66"/><path class="cls-1" d="M54,33.07A22.77,22.77,0,0,0,58.82,30"/><path class="cls-1" d="M24.89,35.56A62.8,62.8,0,0,1,9.42,31.37"/><path class="cls-1" d="M71.2,30.81a47.72,47.72,0,0,1-8.93,4.39"/><path class="cls-1" d="M11.77,35.3C7,33.92,3.55,32.44,2,31.37"/><path class="cls-1" d="M51.39,38.07A58.94,58.94,0,0,0,62.27,35.2"/><path class="cls-1" d="M26.14,38.27a99.9,99.9,0,0,1-14.37-3"/><path class="cls-1" d="M26.14,38.27a86.34,86.34,0,0,0,25.25-.2"/><path class="cls-1" d="M42.52,44.59l.07.06"/><path class="cls-1" d="M42.59,44.65a7.93,7.93,0,0,0,3.55,1.84"/><path class="cls-1" d="M52.64,47H52.5"/><path class="cls-1" d="M52.5,47a35.86,35.86,0,0,1-6.36-.54"/><path class="cls-1" d="M53.34,48.81c.72-.14,1.49-.29,2.3-.47"/><path class="cls-1" d="M33,46.84l.16,0"/><path class="cls-1" d="M33.11,46.89c2,.59,3.67,1.11,5.15,1.53"/><path class="cls-1" d="M53.34,48.81c-7.21,1.38-10.12,1-15.08-.39"/><path class="cls-1" d="M43.45,51.6c-5.64-.23-11.44-1.36-19.2-3"/><path class="cls-1" d="M59.77,49.66A54.73,54.73,0,0,1,43.45,51.6"/><path class="cls-1" d="M24.25,48.59l-.3-.06"/><path class="cls-1" d="M34.45,53.75a74,74,0,0,0,18.45-.08"/><path class="cls-1" d="M34.45,53.75A104.52,104.52,0,0,1,17,49.84"/><path class="cls-1" d="M66,51.16A105.91,105.91,0,0,1,52.9,53.67"/><path class="cls-1" d="M35.52,56.57a67.47,67.47,0,0,1-13.14-1.83"/><path class="cls-1" d="M49.46,55.87a84.52,84.52,0,0,1-13.94.7"/><path class="cls-1" d="M22.38,54.74a88.68,88.68,0,0,1-12.3-4"/><path class="cls-1" d="M72,51.78c-8.5,1.73-15.76,3.23-22.56,4.09"/><path class="cls-1" d="M72,51.78l.31-.06"/><path class="cls-1" d="M3.14,51.53l.11.06"/><path class="cls-1" d="M71.42,54a94.15,94.15,0,0,1-12.7,3.82"/><path class="cls-1" d="M58.72,57.83c-20.23,4.55-39.79,1.78-55.47-6.24"/><path class="cls-1" d="M71.42,54c1.43-.54,2.86-1.11,4.28-1.73"/><path class="cls-1" d="M34.09,69.2l-.11,0"/><path class="cls-1" d="M37.51,70.44a37,37,0,0,0,6.13.4"/><path class="cls-1" d="M37.51,70.44a21.43,21.43,0,0,1-3.42-1.24"/><path class="cls-1" d="M42.09,73.23a24.63,24.63,0,0,1-10.39-2"/><path class="cls-1" d="M50.65,72.63l.76-.1"/><path class="cls-1" d="M51.42,72.53h0"/><path class="cls-1" d="M29,70.09l.15.06"/><path class="cls-1" d="M29.17,70.15l2.53,1"/><path class="cls-1" d="M42.09,73.23a68.29,68.29,0,0,0,8.56-.6"/><path class="cls-1" d="M57,73.11l.11,0"/><path class="cls-1" d="M57,73.11l-3,.39"/><path class="cls-1" d="M22.58,71.27l-.13,0"/><path class="cls-1" d="M34.51,74.58c-4.18-.42-7.45-1.54-11.93-3.31"/><path class="cls-1" d="M34.51,74.58a54.54,54.54,0,0,0,9.82,0"/><path class="cls-1" d="M44.33,74.54c2.74-.21,5.91-.55,9.7-1"/><path class="cls-1" d="M60.71,74.27a68.79,68.79,0,0,1-19.57,3.64"/><path class="cls-1" d="M41.14,77.91a51.8,51.8,0,0,1-6.81-.25"/><path class="cls-1" d="M60.71,74.27l2.34-.8"/><path class="cls-1" d="M34.33,77.66a63.6,63.6,0,0,1-15.44-3.78"/><path class="cls-1" d="M14.77,72.34c1.35.52,2.72,1,4.12,1.54"/><path class="cls-1" d="M24,78.57C20.89,77.84,18,77,15.2,76"/><path class="cls-1" d="M63.17,75.45a69.1,69.1,0,0,1-9.7,3.16"/><path class="cls-1" d="M53.47,78.61a61.38,61.38,0,0,1-10.2,1.59"/><path class="cls-1" d="M24,78.57A64.39,64.39,0,0,0,43.27,80.2"/><path class="cls-1" d="M15.2,76c-2.85-1-5.5-2-7.93-2.93"/><path class="cls-1" d="M63.17,75.45q2.2-.89,4.47-2"/><path class="cls-1" d="M24.26,81.48a73.32,73.32,0,0,0,7.94.79"/><path class="cls-1" d="M68.4,76.09c2.28-.87,4.29-1.74,6-2.53"/><path class="cls-1" d="M38.39,82.32a93.4,93.4,0,0,0,30-6.23"/><path class="cls-1" d="M32.2,82.27c1,0,2.09.08,3.13.09"/><path class="cls-1" d="M38.39,82.32c-1,0-2,0-3.06,0"/><path class="cls-1" d="M10.33,77.88c2.34.86,4.68,1.59,7,2.19"/><path class="cls-1" d="M17.33,80.07q3.5.89,6.93,1.41"/><path class="cls-1" d="M10.33,77.88A72.82,72.82,0,0,1,.7,73.47"/><path class="cls-1" d="M-.1,56.35c.49-.09,1-.19,1.55-.32"/><path class="cls-1" d="M6.89,57.91C3.21,58.45.06,59-2.73,59.5"/><path class="cls-1" d="M12.66,59.24l0,0"/><path class="cls-1" d="M10,60.16A74.15,74.15,0,0,1-5.07,62.78"/><path class="cls-1" d="M10,60.16c1-.3,1.88-.61,2.64-.92"/><path class="cls-1" d="M1.7,64.18c-2.22.31-4.5.57-6.77.75"/><path class="cls-1" d="M6,63.51c3.5-.62,6.76-1.35,9.56-2.1"/><path class="cls-1" d="M1.7,64.18c1.45-.2,2.88-.43,4.27-.67"/><path class="cls-1" d="M15.53,61.41c1.07-.29,2.07-.59,3-.88"/><path class="cls-1" d="M15.34,64q4.28-1.16,8.78-2.49"/><path class="cls-1" d="M24.12,61.47h0"/><path class="cls-1" d="M15.34,64q-4,1.08-7.75,1.95"/><path class="cls-1" d="M7.59,65.91A108.66,108.66,0,0,1-5.07,68.08"/><path class="cls-1" d="M16,66.49c6.37-1.25,12-2.7,16.29-4"/><path class="cls-1" d="M16,66.49c-2.81.56-5.75,1.08-8.76,1.53"/><path class="cls-1" d="M7.25,68c-3.06.46-6.2.85-9.33,1.14"/><path class="cls-1" d="M44.64,63.45c-1.1-.13-2.5-.37-4.56-.76"/><path class="cls-1" d="M44.64,63.45c3.12.38,3.94-.06,11-.2"/><path class="cls-1" d="M46.45,66.16c-12.93.75-11.93.65-25.62-.66"/><path class="cls-1" d="M15.7,69l-6.62-1.2"/><path class="cls-1" d="M27.43,70.47h.09"/><path class="cls-1" d="M15.7,69a76.08,76.08,0,0,0,11.73,1.52"/><path class="cls-1" d="M18,71.78c-2.82,0-5.14,0-7.25-.17"/><path class="cls-1" d="M10.7,71.61A52.12,52.12,0,0,1-2.08,69.16"/><path class="cls-1" d="M76.61,56.21a13.38,13.38,0,0,0,3.36.57"/><path class="cls-1" d="M74.34,55.37l-.06,0"/><path class="cls-1" d="M76.61,56.21c-.77-.24-1.51-.52-2.27-.84"/><path class="cls-1" d="M70.18,60.47A36.12,36.12,0,0,0,80,59.89"/><path class="cls-1" d="M70.18,60.47A17.36,17.36,0,0,1,65,59.05"/><path class="cls-1" d="M65,62a18,18,0,0,1-3.44-1.15"/><path class="cls-1" d="M74.43,63c1.82,0,3.69-.07,5.54-.21"/><path class="cls-1" d="M74.43,63A42,42,0,0,1,65,62"/><path class="cls-1" d="M57.3,62.67l-.08,0"/><path class="cls-1" d="M68.68,65.11a38.64,38.64,0,0,1-8.83-1.47"/><path class="cls-1" d="M68.68,65.11A81,81,0,0,0,80,64.93"/><path class="cls-1" d="M57.3,62.67a19.58,19.58,0,0,0,2.55,1"/><path class="cls-1" d="M70.53,68.39A62.6,62.6,0,0,0,80,68.07"/><path class="cls-1" d="M68.6,68.28a45.85,45.85,0,0,1-15.64-4"/><path class="cls-1" d="M53,64.24l-.05,0"/><path class="cls-1" d="M70.53,68.39c-.64,0-1.29-.06-1.93-.11"/><path class="cls-1" d="M48.08,65.77l-.06,0"/><path class="cls-1" d="M55.44,68.24c7.16,1.63,15.8,1.81,24.53,1.17"/><path class="cls-1" d="M48.08,65.77a35.13,35.13,0,0,0,7.36,2.47"/><path class="cls-1" d="M72.77,71.78c2.12.29,4.44.51,7.2.86"/><path class="cls-1" d="M72.77,71.78a30.51,30.51,0,0,1-8.41-2.25"/><line class="cls-1" x1="26.3" y1="83.07" x2="26.31" y2="83.05"/><path class="cls-1" d="M26.3,83.07l-.24.41L25,84.3"/><line class="cls-1" x1="22.68" y1="82.53" x2="22.75" y2="82.49"/><path class="cls-1" d="M18.84,84.3c1.17-.46,2.26-.92,3.23-1.39l.61-.38"/><path class="cls-1" d="M18.25,81.74l-.79.4c-2.18.77-4.59,1.51-7.14,2.16"/><line class="cls-1" x1="18.25" y1="81.74" x2="18.37" y2="81.68"/><line class="cls-1" x1="58.08" y1="81.31" x2="58.14" y2="81.42"/><path class="cls-1" d="M61.08,84.3a9.09,9.09,0,0,1-2.74-2.51l-.2-.37"/><path class="cls-1" d="M80,1.93c-7.59.6-14.69,0-18.95-2.67"/><path class="cls-1" d="M3,.89c2.57-.45,5.1-1,7.51-1.63"/><path class="cls-1" d="M3,.89c-2.67.47-5.38.82-8,1"/><line class="cls-1" x1="45.96" y1="83.39" x2="45.95" y2="83.37"/><path class="cls-1" d="M47.05,84.3c-.25-.17-.49-.35-.72-.53L46,83.39"/><line class="cls-1" x1="39.37" y1="83.92" x2="39.33" y2="83.87"/><line class="cls-1" x1="39.37" y1="83.92" x2="39.65" y2="84.3"/><path class="cls-1" d="M35.33,84.3l-.06-.06L35,83.9"/><line class="cls-1" x1="34.89" y1="83.81" x2="34.97" y2="83.9"/><path class="cls-1" d="M27.41,83.21l.54.65.5.44"/><line class="cls-1" x1="27.41" y1="83.21" x2="27.39" y2="83.19"/><path class="cls-1" d="M1.54,77.06h0"/><path class="cls-1" d="M1.54,77.06a37.53,37.53,0,0,1-6.61-1"/><path class="cls-1" d="M77.2,75.22c.9.28,2.1.65,2.73.81h0"/><path class="cls-1" d="M77.2,75.22l-.12,0"/><path class="cls-1" d="M1.18,36.65a52.55,52.55,0,0,0,11.71,1.57"/><path class="cls-1" d="M1.18,36.65a63.73,63.73,0,0,1-6.25-1.88"/><path class="cls-1" d="M4.85,38.9C1.48,38.43-2,37.82-5.07,37.14"/><path class="cls-1" d="M15,39.85a21.68,21.68,0,0,0,4.62-.22"/><path class="cls-1" d="M19.64,39.63h0"/><path class="cls-1" d="M15,39.85a96.52,96.52,0,0,1-10.17-1"/><path class="cls-1" d="M4.85,41.68c1.8.1,3.58.19,5.33.24"/><path class="cls-1" d="M.6,41.38c-1.92-.16-3.82-.35-5.67-.56"/><path class="cls-1" d="M28.64,40.94l-.13,0"/><path class="cls-1" d="M28.51,41c-3.56.91-10.56,1.19-18.33,1"/><path class="cls-1" d="M4.85,41.68C3.43,41.59,2,41.49.6,41.38"/><path class="cls-1" d="M6.69,44.6c12.51-.14,24.49-1.19,29.1-2.92"/><path class="cls-1" d="M6.69,44.6c-3.94,0-7.93,0-11.76-.16"/><path class="cls-1" d="M36.23,41.5l-.17.07"/><path class="cls-1" d="M35.79,41.68l.27-.11"/><path class="cls-1" d="M47.49,40.84c-1.06,1-7.09,2.89-15.84,4.57"/><path class="cls-1" d="M47.49,40.84l.09-.09"/><path class="cls-1" d="M21.47,47c-3.18.42-6.54.76-10,1"/><path class="cls-1" d="M21.47,47c3.67-.47,7.09-1,10.18-1.62"/><path class="cls-1" d="M1.1,48.45q-3.06,0-6.17-.1"/><path class="cls-1" d="M1.1,48.45c3.52,0,7-.17,10.35-.41"/><path class="cls-1" d="M76.31,33.36c.75.33,1.58.68,2.5,1"/><path class="cls-1" d="M76.31,33.36h0"/><path class="cls-1" d="M78.81,34.38c.37.15.76.29,1.16.43"/><path class="cls-1" d="M80,37.16a58.64,58.64,0,0,1-6.78-1.85"/><path class="cls-1" d="M73.19,35.31,72.47,35"/><path class="cls-1" d="M66.51,38.42A86.73,86.73,0,0,0,80,40.83"/><path class="cls-1" d="M66.51,38.42c-.85-.25-1.62-.51-2.29-.77"/><path class="cls-1" d="M64.22,37.65l-.12,0"/><path class="cls-1" d="M55.12,39.89c.87,1,2.91,1.84,5.77,2.51"/><path class="cls-1" d="M60.89,42.4A110,110,0,0,0,80,44.45"/><path class="cls-1" d="M74.26,48q2.86.24,5.71.34"/><path class="cls-1" d="M63.76,46.65A104.64,104.64,0,0,0,74.26,48"/><path class="cls-1" d="M49.39,42.64a76.56,76.56,0,0,0,14.37,4"/><line class="cls-1" x1="7.58" y1="82.78" x2="7.85" y2="84.3"/><line class="cls-1" x1="13.39" y1="83.47" x2="13.7" y2="84.3"/><line class="cls-1" x1="72.42" y1="83.29" x2="72.3" y2="84.3"/><line class="cls-1" x1="59.44" y1="84.3" x2="59.8" y2="83.41"/><line class="cls-1" x1="74.58" y1="83.75" x2="75.33" y2="80.14"/><line class="cls-1" x1="75.33" y1="80.14" x2="75.33" y2="80.12"/><line class="cls-1" x1="2.08" y1="80.56" x2="2.7" y2="83.62"/><line class="cls-1" x1="11.25" y1="80.17" x2="11.2" y2="80.06"/><line class="cls-1" x1="11.83" y1="81.62" x2="11.25" y2="80.17"/><line class="cls-1" x1="15.7" y1="68.95" x2="15.64" y2="71.75"/><line class="cls-1" x1="15.7" y1="68.95" x2="15.7" y2="68.94"/><line class="cls-1" x1="7.25" y1="68.02" x2="6.7" y2="71.19"/><line class="cls-1" x1="7.25" y1="68.02" x2="7.27" y2="67.94"/><line class="cls-1" x1="10.7" y1="71.61" x2="10.7" y2="71.5"/><line class="cls-1" x1="10.7" y1="71.61" x2="10.7" y2="72.75"/><line class="cls-1" x1="1.95" y1="73.25" x2="2.2" y2="70.37"/><line class="cls-1" x1="3.89" y1="75.12" x2="2.9" y2="77.59"/><line class="cls-1" x1="2.9" y1="77.59" x2="2.89" y2="77.62"/><line class="cls-1" x1="10.33" y1="77.88" x2="10.02" y2="79.75"/><line class="cls-1" x1="7.45" y1="76.69" x2="8.58" y2="73.62"/><line class="cls-1" x1="17.33" y1="80.07" x2="17.08" y2="81.44"/><line class="cls-1" x1="17.33" y1="80.07" x2="17.33" y2="80.06"/><line class="cls-1" x1="15.2" y1="76.02" x2="15.2" y2="76"/><line class="cls-1" x1="15.2" y1="76.02" x2="14.33" y2="79.19"/><line class="cls-1" x1="24.26" y1="81.48" x2="24.2" y2="82.69"/><line class="cls-1" x1="24.26" y1="81.48" x2="24.27" y2="81.44"/><line class="cls-1" x1="32.2" y1="82.27" x2="32.14" y2="83.62"/><line class="cls-1" x1="32.2" y1="82.27" x2="32.2" y2="82.25"/><line class="cls-1" x1="38.39" y1="82.32" x2="38.45" y2="83.81"/><line class="cls-1" x1="48.83" y1="81.37" x2="49.08" y2="82.94"/><line class="cls-1" x1="59.27" y1="79.12" x2="59.64" y2="81.06"/><line class="cls-1" x1="68.4" y1="76.09" x2="68.39" y2="76.06"/><line class="cls-1" x1="69.33" y1="78.5" x2="69.33" y2="78.5"/><line class="cls-1" x1="68.4" y1="76.09" x2="69.33" y2="78.5"/><line class="cls-1" x1="77.08" y1="73.37" x2="77.83" y2="74.81"/><line class="cls-1" x1="63.14" y1="75.37" x2="63.17" y2="75.45"/><line class="cls-1" x1="63.17" y1="75.45" x2="64.02" y2="77.62"/><line class="cls-1" x1="53.45" y1="78.56" x2="53.47" y2="78.61"/><line class="cls-1" x1="53.47" y1="78.61" x2="53.89" y2="80.31"/><line class="cls-1" x1="43.27" y1="80.2" x2="43.27" y2="80.19"/><line class="cls-1" x1="43.27" y1="80.2" x2="43.39" y2="81.94"/><line class="cls-1" x1="35.2" y1="80.25" x2="35.33" y2="82.36"/><line class="cls-1" x1="35.33" y1="82.36" x2="35.33" y2="82.37"/><line class="cls-1" x1="24.01" y1="78.57" x2="24.02" y2="78.56"/><line class="cls-1" x1="24.01" y1="78.57" x2="23.52" y2="81.31"/><line class="cls-1" x1="17.89" y1="76.81" x2="18.89" y2="73.88"/><line class="cls-1" x1="18.89" y1="73.88" x2="18.89" y2="73.87"/><line class="cls-1" x1="29.83" y1="77" x2="29.45" y2="79.56"/><line class="cls-1" x1="41.14" y1="77.91" x2="41.33" y2="80.25"/><line class="cls-1" x1="41.14" y1="77.87" x2="41.14" y2="77.91"/><line class="cls-1" x1="52.14" y1="78.81" x2="51.64" y2="76.69"/><line class="cls-1" x1="60.71" y1="74.27" x2="61.39" y2="76"/><line class="cls-1" x1="60.71" y1="74.27" x2="60.7" y2="74.25"/><line class="cls-1" x1="54.03" y1="73.5" x2="54.02" y2="73.44"/><line class="cls-1" x1="54.03" y1="73.5" x2="54.7" y2="75.94"/><line class="cls-1" x1="44.33" y1="74.54" x2="44.64" y2="77.69"/><line class="cls-1" x1="44.33" y1="74.5" x2="44.33" y2="74.54"/><line class="cls-1" x1="34.51" y1="74.58" x2="34.33" y2="77.66"/><line class="cls-1" x1="34.33" y1="77.66" x2="34.33" y2="77.69"/><line class="cls-1" x1="34.51" y1="74.58" x2="34.52" y2="74.56"/><line class="cls-1" x1="25.27" y1="72.31" x2="24.02" y2="75.56"/><line class="cls-1" x1="31.14" y1="74" x2="31.7" y2="71.2"/><line class="cls-1" x1="31.7" y1="71.2" x2="31.7" y2="71.19"/><line class="cls-1" x1="42.2" y1="74.62" x2="42.09" y2="73.23"/><line class="cls-1" x1="42.09" y1="73.23" x2="42.08" y2="73.12"/><line class="cls-1" x1="50.64" y1="72.56" x2="50.65" y2="72.63"/><line class="cls-1" x1="50.65" y1="72.63" x2="50.89" y2="73.87"/><line class="cls-1" x1="37.51" y1="70.44" x2="37.08" y2="72.81"/><line class="cls-1" x1="37.51" y1="70.44" x2="37.52" y2="70.44"/><line class="cls-1" x1="46.77" y1="73" x2="46.7" y2="71.69"/><line class="cls-1" x1="39.7" y1="68.99" x2="39.45" y2="70.62"/><line class="cls-1" x1="39.7" y1="68.99" x2="39.7" y2="68.94"/><line class="cls-1" x1="20.52" y1="69.75" x2="21.58" y2="65.69"/><line class="cls-1" x1="32.7" y1="62.5" x2="32.27" y2="66.5"/><line class="cls-1" x1="44.64" y1="63.45" x2="44.7" y2="66.25"/><line class="cls-1" x1="44.64" y1="63.44" x2="44.64" y2="63.45"/><line class="cls-1" x1="15.34" y1="63.96" x2="16.01" y2="66.49"/><line class="cls-1" x1="15.34" y1="63.96" x2="15.33" y2="63.94"/><line class="cls-1" x1="16.01" y1="66.49" x2="16.02" y2="66.5"/><line class="cls-1" x1="23.83" y1="61.56" x2="24.89" y2="64.44"/><line class="cls-1" x1="7.59" y1="65.91" x2="7.58" y2="65.87"/><line class="cls-1" x1="7.59" y1="65.91" x2="8.02" y2="67.81"/><line class="cls-1" x1="0.27" y1="67.37" x2="0.45" y2="68.87"/><line class="cls-1" x1="50.68" y1="66.96" x2="48.68" y2="71.96"/><line class="cls-1" x1="59.68" y1="69.04" x2="59.27" y2="73.21"/><line class="cls-1" x1="68.52" y1="73.37" x2="68.35" y2="70.96"/><line class="cls-1" x1="72.77" y1="71.78" x2="73.02" y2="69.79"/><line class="cls-1" x1="72.77" y1="71.78" x2="72.77" y2="71.79"/><line class="cls-1" x1="55.44" y1="68.24" x2="56.02" y2="65.54"/><line class="cls-1" x1="55.44" y1="68.24" x2="55.43" y2="68.29"/><line class="cls-1" x1="63.18" y1="67.54" x2="63.1" y2="69.37"/><line class="cls-1" x1="70.53" y1="68.39" x2="70.52" y2="68.29"/><line class="cls-1" x1="70.77" y1="69.71" x2="70.53" y2="68.39"/><line class="cls-1" x1="77.77" y1="69.46" x2="77.68" y2="68.37"/><line class="cls-1" x1="68.68" y1="65.11" x2="68.6" y2="68.28"/><line class="cls-1" x1="68.68" y1="65.11" x2="68.68" y2="65.04"/><line class="cls-1" x1="68.6" y1="68.28" x2="68.6" y2="68.29"/><line class="cls-1" x1="59.85" y1="63.64" x2="59.85" y2="63.62"/><line class="cls-1" x1="59.02" y1="66.46" x2="59.85" y2="63.64"/><line class="cls-1" x1="64.6" y1="64.54" x2="65" y2="62.04"/><line class="cls-1" x1="65" y1="62.04" x2="65.02" y2="61.96"/><line class="cls-1" x1="74.43" y1="62.99" x2="74.43" y2="65.21"/><line class="cls-1" x1="74.43" y1="62.99" x2="74.43" y2="62.96"/><line class="cls-1" x1="70.18" y1="60.47" x2="70.18" y2="60.46"/><line class="cls-1" x1="70.02" y1="62.79" x2="70.18" y2="60.47"/><line class="cls-1" x1="76.61" y1="56.21" x2="76.6" y2="56.12"/><line class="cls-1" x1="77.1" y1="60.21" x2="76.61" y2="56.21"/><line class="cls-1" x1="68.93" y1="57.38" x2="68.85" y2="60.21"/><line class="cls-1" x1="78.52" y1="56.54" x2="78.93" y2="53.04"/><line class="cls-1" x1="5.97" y1="63.51" x2="5.95" y2="63.44"/><line class="cls-1" x1="6.52" y1="66.12" x2="5.97" y2="63.51"/><line class="cls-1" x1="15.53" y1="61.41" x2="15.52" y2="61.37"/><line class="cls-1" x1="16.2" y1="63.69" x2="15.53" y2="61.41"/><line class="cls-1" x1="10.02" y1="60.16" x2="10.58" y2="62.5"/><line class="cls-1" x1="10.02" y1="60.12" x2="10.02" y2="60.16"/><line class="cls-1" x1="1.45" y1="62.06" x2="1.7" y2="64.18"/><line class="cls-1" x1="1.7" y1="64.18" x2="1.7" y2="64.19"/><line class="cls-1" x1="5.39" y1="58.19" x2="6.02" y2="61.12"/><line class="cls-1" x1="-0.1" y1="56.35" x2="0.64" y2="58.87"/><line class="cls-1" x1="-0.11" y1="56.31" x2="-0.1" y2="56.35"/><line class="cls-1" x1="5.83" y1="52.87" x2="3.95" y2="56.69"/><line class="cls-1" x1="16.77" y1="60.06" x2="17.45" y2="57.12"/><line class="cls-1" x1="30.08" y1="62.19" x2="30.14" y2="59.56"/><line class="cls-1" x1="43.45" y1="62.37" x2="43.14" y2="59.94"/><line class="cls-1" x1="58.72" y1="57.83" x2="59.07" y2="59.96"/><line class="cls-1" x1="59.07" y1="59.96" x2="59.08" y2="60"/><line class="cls-1" x1="58.72" y1="57.83" x2="58.7" y2="57.75"/><line class="cls-1" x1="71.39" y1="53.94" x2="71.42" y2="54.01"/><line class="cls-1" x1="71.42" y1="54.01" x2="72.39" y2="56.12"/><line class="cls-1" x1="64.52" y1="56.25" x2="63.64" y2="53.5"/><line class="cls-1" x1="49.46" y1="55.87" x2="49.95" y2="59.31"/><line class="cls-1" x1="49.45" y1="55.81" x2="49.46" y2="55.87"/><line class="cls-1" x1="35.52" y1="56.5" x2="35.52" y2="56.57"/><line class="cls-1" x1="35.52" y1="56.57" x2="35.52" y2="59.87"/><line class="cls-1" x1="22.38" y1="54.74" x2="21.64" y2="58.12"/><line class="cls-1" x1="22.38" y1="54.74" x2="22.39" y2="54.69"/><line class="cls-1" x1="18.39" y1="50.25" x2="17.27" y2="53.31"/><line class="cls-1" x1="34.45" y1="53.75" x2="34.33" y2="56.5"/><line class="cls-1" x1="52.9" y1="53.67" x2="53.2" y2="55.31"/><line class="cls-1" x1="52.9" y1="53.67" x2="52.89" y2="53.62"/><line class="cls-1" x1="43.45" y1="51.6" x2="43.45" y2="54.25"/><line class="cls-1" x1="43.45" y1="51.6" x2="43.45" y2="51.5"/><line class="cls-1" x1="28.27" y1="49.44" x2="27.52" y2="52.56"/><line class="cls-1" x1="60.2" y1="52.44" x2="59.33" y2="49.81"/><line class="cls-1" x1="53.34" y1="48.81" x2="53.83" y2="50.81"/><line class="cls-1" x1="53.34" y1="48.81" x2="53.33" y2="48.75"/><line class="cls-1" x1="37.77" y1="51" x2="38.26" y2="48.42"/><line class="cls-1" x1="38.27" y1="48.37" x2="38.26" y2="48.42"/><line class="cls-1" x1="46.14" y1="49.62" x2="46.14" y2="46.49"/><line class="cls-1" x1="46.14" y1="46.49" x2="46.14" y2="46.44"/><line class="cls-1" x1="48.83" y1="45.12" x2="48.58" y2="46.75"/><line class="cls-1" x1="6.26" y1="36.37" x2="6.27" y2="36.29"/><line class="cls-1" x1="6.26" y1="36.37" x2="6.1" y2="37.62"/><line class="cls-1" x1="1.18" y1="36.65" x2="1.18" y2="36.62"/><line class="cls-1" x1="1.18" y1="36.65" x2="1.02" y2="38.21"/><line class="cls-1" x1="11.6" y1="38.21" x2="11.68" y2="39.62"/><line class="cls-1" x1="4.85" y1="38.9" x2="4.85" y2="41.68"/><line class="cls-1" x1="4.85" y1="41.68" x2="4.85" y2="41.71"/><line class="cls-1" x1="4.85" y1="38.9" x2="4.85" y2="38.87"/><line class="cls-1" x1="15.02" y1="39.85" x2="15.02" y2="39.71"/><line class="cls-1" x1="15.02" y1="39.85" x2="15.02" y2="41.87"/><line class="cls-1" x1="23.02" y1="41.71" x2="22.77" y2="40.21"/><line class="cls-1" x1="0.6" y1="41.38" x2="0.77" y2="44.46"/><line class="cls-1" x1="0.6" y1="41.29" x2="0.6" y2="41.38"/><line class="cls-1" x1="10.18" y1="41.87" x2="10.18" y2="41.92"/><line class="cls-1" x1="10.18" y1="44.46" x2="10.18" y2="41.92"/><line class="cls-1" x1="20.6" y1="43.96" x2="20.35" y2="41.96"/><line class="cls-1" x1="30.68" y1="42.79" x2="30.27" y2="41.21"/><line class="cls-1" x1="6.69" y1="44.6" x2="7.02" y2="48.29"/><line class="cls-1" x1="6.69" y1="44.6" x2="6.68" y2="44.54"/><line class="cls-1" x1="16.18" y1="47.62" x2="15.77" y2="44.37"/><line class="cls-1" x1="26.43" y1="43.54" x2="26.85" y2="46.21"/><line class="cls-1" x1="35.79" y1="41.68" x2="36.93" y2="44.21"/><line class="cls-1" x1="35.79" y1="41.68" x2="35.77" y2="41.62"/><line class="cls-1" x1="1.1" y1="48.45" x2="1.27" y2="51.71"/><line class="cls-1" x1="1.1" y1="48.37" x2="1.1" y2="48.45"/><line class="cls-1" x1="11.45" y1="48.04" x2="11.85" y2="50.37"/><line class="cls-1" x1="11.43" y1="47.96" x2="11.45" y2="48.04"/><line class="cls-1" x1="21.47" y1="47.03" x2="21.89" y2="48.87"/><line class="cls-1" x1="21.45" y1="46.94" x2="21.47" y2="47.03"/><line class="cls-1" x1="31.65" y1="45.41" x2="31.64" y2="45.37"/><line class="cls-1" x1="32.02" y1="47.06" x2="31.65" y2="45.41"/><line class="cls-1" x1="40.77" y1="43.37" x2="41.39" y2="44.94"/><line class="cls-1" x1="50.89" y1="41.87" x2="50.08" y2="40.56"/><line class="cls-1" x1="54.64" y1="44.5" x2="53.77" y2="47.5"/><line class="cls-1" x1="63.76" y1="46.65" x2="63.2" y2="50.37"/><line class="cls-1" x1="63.76" y1="46.65" x2="63.77" y2="46.62"/><line class="cls-1" x1="74.02" y1="51.87" x2="74.26" y2="48.02"/><line class="cls-1" x1="74.27" y1="48" x2="74.26" y2="48.02"/><line class="cls-1" x1="71.2" y1="44" x2="71.02" y2="47.62"/><line class="cls-1" x1="60.89" y1="42.4" x2="60.89" y2="42.37"/><line class="cls-1" x1="60.89" y1="42.4" x2="60.27" y2="45.87"/><line class="cls-1" x1="66.51" y1="38.42" x2="66.52" y2="38.37"/><line class="cls-1" x1="66.51" y1="38.42" x2="65.7" y2="43.19"/><line class="cls-1" x1="76.27" y1="40.37" x2="75.95" y2="44.19"/><line class="cls-1" x1="72.2" y1="39.62" x2="73.19" y2="35.31"/><line class="cls-1" x1="73.2" y1="35.25" x2="73.19" y2="35.31"/><line class="cls-1" x1="78.2" y1="36.69" x2="78.81" y2="34.38"/><line class="cls-1" x1="78.81" y1="34.38" x2="78.83" y2="34.31"/><line class="cls-1" x1="73.14" y1="30.88" x2="73.14" y2="30.87"/><line class="cls-1" x1="74.7" y1="34.06" x2="73.14" y2="30.88"/><line class="cls-1" x1="63.02" y1="37.81" x2="62.27" y2="35.2"/><line class="cls-1" x1="62.27" y1="35.2" x2="62.27" y2="35.19"/><line class="cls-1" x1="51.39" y1="38.07" x2="51.39" y2="38.06"/><line class="cls-1" x1="51.39" y1="38.07" x2="51.77" y2="40.19"/><line class="cls-1" x1="38.77" y1="39.12" x2="38.89" y2="41.5"/><line class="cls-1" x1="26.14" y1="38.27" x2="25.95" y2="40.56"/><line class="cls-1" x1="26.14" y1="38.27" x2="26.14" y2="38.25"/><line class="cls-1" x1="14.64" y1="36.12" x2="14.14" y2="38.37"/><line class="cls-1" x1="4.14" y1="32.56" x2="3.08" y2="35.25"/><line class="cls-1" x1="11.77" y1="35.3" x2="11.77" y2="35.31"/><line class="cls-1" x1="11.77" y1="35.3" x2="12.64" y2="32.69"/><line class="cls-1" x1="29.08" y1="36.12" x2="28.89" y2="38.56"/><line class="cls-1" x1="41.95" y1="39" x2="41.71" y2="36.22"/><line class="cls-1" x1="41.71" y1="36.22" x2="41.7" y2="36.19"/><line class="cls-1" x1="55.58" y1="37.12" x2="54.02" y2="33.07"/><line class="cls-1" x1="54.02" y1="33.07" x2="54.02" y2="33.06"/><line class="cls-1" x1="65.3" y1="30.5" x2="65.27" y2="30.44"/><line class="cls-1" x1="66.64" y1="33.25" x2="65.3" y2="30.5"/><line class="cls-1" x1="48.7" y1="34.87" x2="47.77" y2="30.81"/><line class="cls-1" x1="37.96" y1="32.53" x2="38.27" y2="36.37"/><line class="cls-1" x1="37.95" y1="32.5" x2="37.96" y2="32.53"/><line class="cls-1" x1="24.89" y1="35.56" x2="25.33" y2="32.5"/><line class="cls-1" x1="22.14" y1="31.81" x2="23.33" y2="28.26"/><line class="cls-1" x1="23.33" y1="28.25" x2="23.33" y2="28.26"/><line class="cls-1" x1="34.58" y1="32.69" x2="34.64" y2="29.56"/><line class="cls-1" x1="48.77" y1="30.44" x2="48.08" y2="28.62"/><line class="cls-1" x1="35.58" y1="26.06" x2="36.2" y2="29.37"/><line class="cls-1" x1="28.45" y1="29.12" x2="29.02" y2="26.25"/><line class="cls-1" x1="32.27" y1="24.3" x2="32.27" y2="26.37"/><line class="cls-1" x1="32.27" y1="24.3" x2="32.27" y2="24.25"/><line class="cls-1" x1="14.33" y1="27.81" x2="14.95" y2="30.62"/><line class="cls-1" x1="22.14" y1="23.12" x2="22.16" y2="23.17"/><line class="cls-1" x1="22.16" y1="23.17" x2="22.95" y2="25.75"/><line class="cls-1" x1="8.64" y1="25.53" x2="8.95" y2="28.19"/><line class="cls-1" x1="8.64" y1="25.53" x2="8.64" y2="25.5"/><line class="cls-1" x1="2.45" y1="22.52" x2="2.58" y2="25.69"/><line class="cls-1" x1="2.45" y1="22.5" x2="2.45" y2="22.52"/><line class="cls-1" x1="14.16" y1="20.25" x2="14.14" y2="20.19"/><line class="cls-1" x1="14.16" y1="20.25" x2="15.27" y2="24.56"/><line class="cls-1" x1="6.96" y1="17.51" x2="6.95" y2="17.5"/><line class="cls-1" x1="6.96" y1="17.51" x2="8.02" y2="21.75"/><line class="cls-1" x1="1.46" y1="16.15" x2="1.89" y2="18.62"/><line class="cls-1" x1="1.46" y1="16.15" x2="1.45" y2="16.12"/><line class="cls-1" x1="23.39" y1="3.06" x2="23.39" y2="3.08"/><line class="cls-1" x1="22.89" y1="5.25" x2="23.39" y2="3.08"/><line class="cls-1" x1="28.58" y1="9.5" x2="28.64" y2="6.44"/><line class="cls-1" x1="17.2" y1="7.75" x2="18.58" y2="4"/><line class="cls-1" x1="22.7" y1="8.99" x2="22.7" y2="8.94"/><line class="cls-1" x1="22.7" y1="8.99" x2="22.2" y2="12.19"/><line class="cls-1" x1="11.82" y1="8.95" x2="11.83" y2="8.94"/><line class="cls-1" x1="11.82" y1="8.95" x2="10.52" y2="12.19"/><line class="cls-1" x1="27.52" y1="15.56" x2="27.52" y2="12.81"/><line class="cls-1" x1="18" y1="14.45" x2="17.64" y2="16.5"/><line class="cls-1" x1="18" y1="14.45" x2="18.02" y2="14.37"/><line class="cls-1" x1="5.83" y1="9.5" x2="5.82" y2="9.52"/><line class="cls-1" x1="5.82" y1="9.52" x2="4.27" y2="12.25"/><line class="cls-1" x1="10.95" y1="16.37" x2="11.27" y2="15"/><line class="cls-1" x1="-1.05" y1="12.25" x2="0.25" y2="10.02"/><line class="cls-1" x1="0.25" y1="10.02" x2="0.27" y2="10"/><line class="cls-1" x1="24.83" y1="17.59" x2="24.7" y2="19.25"/><line class="cls-1" x1="24.83" y1="17.59" x2="24.83" y2="17.56"/><line class="cls-1" x1="37.33" y1="12.31" x2="36.83" y2="9.31"/><line class="cls-1" x1="43.14" y1="11.31" x2="43.89" y2="15.06"/><line class="cls-1" x1="35.52" y1="18" x2="35.45" y2="15.77"/><line class="cls-1" x1="35.45" y1="15.77" x2="35.45" y2="15.75"/><line class="cls-1" x1="42.96" y1="17.73" x2="42.95" y2="17.69"/><line class="cls-1" x1="42.96" y1="17.73" x2="43.14" y2="20"/><line class="cls-1" x1="53.36" y1="13.24" x2="54.08" y2="16.12"/><line class="cls-1" x1="53.36" y1="13.24" x2="53.33" y2="13.12"/><line class="cls-1" x1="61.7" y1="14.37" x2="61.71" y2="14.4"/><line class="cls-1" x1="61.71" y1="14.4" x2="62.33" y2="16.81"/><line class="cls-1" x1="76.27" y1="12" x2="74.83" y2="10.19"/><line class="cls-1" x1="77.35" y1="13.29" x2="76.93" y2="15.79"/><line class="cls-1" x1="72.35" y1="14.87" x2="71.43" y2="17.96"/><line class="cls-1" x1="77.85" y1="22.28" x2="77.85" y2="22.29"/><line class="cls-1" x1="77.85" y1="22.28" x2="78.02" y2="18.96"/><line class="cls-1" x1="65.98" y1="16.45" x2="66.02" y2="16.37"/><line class="cls-1" x1="65.98" y1="16.45" x2="64.43" y2="19.79"/><line class="cls-1" x1="70.27" y1="24.46" x2="70.84" y2="21.34"/><line class="cls-1" x1="70.85" y1="21.29" x2="70.84" y2="21.34"/><line class="cls-1" x1="59.73" y1="18.03" x2="59.77" y2="17.96"/><line class="cls-1" x1="57.68" y1="21.87" x2="59.73" y2="18.03"/><line class="cls-1" x1="62.93" y1="25.54" x2="62.93" y2="25.54"/><line class="cls-1" x1="63.43" y1="23.37" x2="62.93" y2="25.54"/><line class="cls-1" x1="76.01" y1="25.19" x2="76.02" y2="25.12"/><line class="cls-1" x1="76.01" y1="25.19" x2="75.85" y2="27.37"/><line class="cls-1" x1="69.51" y1="26.66" x2="69.52" y2="26.62"/><line class="cls-1" x1="69.51" y1="26.66" x2="69.1" y2="30.12"/><line class="cls-1" x1="54.93" y1="23.88" x2="54.93" y2="23.87"/><line class="cls-1" x1="54.93" y1="23.88" x2="54.1" y2="26.87"/><line class="cls-1" x1="50.1" y1="22.62" x2="51.25" y2="19.5"/><line class="cls-1" x1="51.27" y1="19.46" x2="51.25" y2="19.5"/><line class="cls-1" x1="42.68" y1="26.54" x2="43.85" y2="23.54"/><line class="cls-1" x1="56.68" y1="29.71" x2="57.1" y2="27.79"/><line class="cls-1" x1="33.07" y1="21.43" x2="33.1" y2="21.37"/><line class="cls-1" x1="31.77" y1="23.96" x2="33.07" y2="21.43"/><line class="cls-1" x1="29.52" y1="4.21" x2="30.68" y2="1.37"/><line class="cls-1" x1="38.58" y1="2.4" x2="38.6" y2="2.37"/><line class="cls-1" x1="38.58" y1="2.4" x2="36.43" y2="5.29"/><line class="cls-1" x1="47.33" y1="3.91" x2="47.35" y2="3.87"/><line class="cls-1" x1="47.33" y1="3.91" x2="45.68" y2="7.21"/><line class="cls-1" x1="60.85" y1="10.12" x2="61.02" y2="7.96"/><line class="cls-1" x1="53.02" y1="5.96" x2="53.92" y2="2.59"/><line class="cls-1" x1="53.93" y1="2.54" x2="53.92" y2="2.59"/><line class="cls-1" x1="68.18" y1="8.87" x2="68.43" y2="4.99"/><line class="cls-1" x1="68.43" y1="4.96" x2="68.43" y2="4.99"/><line class="cls-1" x1="79.97" y1="9.94" x2="79.97" y2="10"/><line class="cls-1" x1="79.97" y1="31" x2="79.97" y2="31.13"/><rect class="cls-2" x="-5.07" y="-0.74" width="85.04" height="85.04"/><line class="cls-1" x1="7.84" y1="84.3" x2="7.95" y2="84.91"/><line class="cls-1" x1="14.27" y1="85.85" x2="13.69" y2="84.3"/><line class="cls-1" x1="17.45" y1="84.91" x2="19.14" y2="87.91"/><line class="cls-1" x1="72.27" y1="84.3" x2="71.95" y2="87.04"/><line class="cls-1" x1="59.41" y1="84.3" x2="57.7" y2="88.6"/><path class="cls-1" d="M22.44,86q1.3-.86,2.52-1.74"/><path class="cls-1" d="M18.87,84.3A90.68,90.68,0,0,1-5.07,89.69"/><path class="cls-1" d="M47,84.3a26.57,26.57,0,0,0,7,3.33"/><path class="cls-1" d="M39.61,84.35A45.29,45.29,0,0,0,47.33,89"/><path class="cls-1" d="M38.58,87.43c-1.33-1.15-2.45-2.24-3.33-3.13"/><path class="cls-1" d="M40.35,92.75c-3.26-1.54-8.5-5.4-12-8.45"/><path class="cls-1" d="M80,84.32l-1.09,0"/><path class="cls-1" d="M80,87c-7.59.6-14.69,0-18.95-2.67"/><path class="cls-1" d="M3,85.93c2.57-.45,5.1-1,7.51-1.63"/><rect class="cls-2" x="-5.07" y="84.3" width="85.04" height="85.04"/><rect class="cls-2" width="85.22" height="85.22"/></svg>