<svg id="Layer_1" data-name="Layer 1" xmlns="http://www.w3.org/2000/svg" width="85.22" height="85.33" viewBox="0 0 85.22 85.33"><defs><style>.cls-1,.cls-2{fill:none;}.cls-1{stroke:#000;stroke-width:0.3px;}</style></defs><title>Artboard 37</title><path class="cls-1" d="M69.08,2.41c8.51.6,17.53.17,22.94.17"/><path class="cls-1" d="M63.46,1.83C58.83,1.18,54.67.09,51.74-1.71"/><path class="cls-1" d="M69.08,2.41c-1.92-.14-3.81-.32-5.62-.58"/><path class="cls-1" d="M81.37,7.8c-.82.27-1.67.53-2.54.79"/><path class="cls-1" d="M70.18,10.72c2.95-.61,5.88-1.33,8.65-2.13"/><path class="cls-1" d="M89.25,4.52A47.37,47.37,0,0,1,81.37,7.8"/><path class="cls-1" d="M51.41,13.22c1.92-.07,4.16-.26,6.6-.54"/><path class="cls-1" d="M49.45,13.27c.61,0,1.26,0,2,0"/><path class="cls-1" d="M70.18,10.72c-4.2.87-8.42,1.54-12.17,2"/><path class="cls-1" d="M49.45,13.27h0"/><path class="cls-1" d="M38.35,12.37l1.11.14"/><path class="cls-1" d="M47,13.2c-2.19-.1-4.77-.34-7.56-.69"/><path class="cls-1" d="M8.62,3.92A18.7,18.7,0,0,1,7,2.8"/><path class="cls-1" d="M49.45,13.27c-.74,0-1.55,0-2.43-.07"/><path class="cls-1" d="M38.35,12.37c-1.18-.16-2.39-.34-3.62-.54"/><path class="cls-1" d="M30.3,11c1.49.29,3,.55,4.43.79"/><path class="cls-1" d="M49.45,13.27h0"/><path class="cls-1" d="M15,6.89c-.47-.17-.92-.35-1.37-.53"/><path class="cls-1" d="M19.53,8.42c-1.6-.48-3.14-1-4.58-1.53"/><path class="cls-1" d="M23.29,9.47c1,.25,2,.48,2.95.71"/><path class="cls-1" d="M30.3,11c-1.36-.27-2.71-.55-4.06-.86"/><path class="cls-1" d="M13.58,6.36a33.73,33.73,0,0,1-5-2.44"/><path class="cls-1" d="M19.53,8.42c1.22.37,2.48.72,3.76,1.05"/><path class="cls-1" d="M34.62.57Q37,.2,39.48-.24"/><path class="cls-1" d="M34.62.57C23.31,2.31,12.88,3.09,7,2.61"/><path class="cls-1" d="M10.56,13.46c-1.22.09-2.42.14-3.58.13"/><line class="cls-1" x1="26.24" y1="10.18" x2="26.25" y2="10.17"/><path class="cls-1" d="M10.56,13.46a68.31,68.31,0,0,0,15-3l.73-.3"/><line class="cls-1" x1="19.53" y1="8.42" x2="19.59" y2="8.39"/><path class="cls-1" d="M19.53,8.42l-.78.35A31.91,31.91,0,0,1,7,10.13"/><path class="cls-1" d="M92,13.59a25.7,25.7,0,0,1-7.55-1"/><path class="cls-1" d="M84.47,12.58A10,10,0,0,1,79,9l-.19-.37"/><line class="cls-1" x1="78.83" y1="8.59" x2="78.81" y2="8.55"/><path class="cls-1" d="M82.38,7.49l.49.25a13.45,13.45,0,0,0,4.5,1.7"/><path class="cls-1" d="M55.69.14a36.93,36.93,0,0,1-6.13-.4"/><path class="cls-1" d="M63.46,1.83l-.76.1"/><path class="cls-1" d="M63.46,1.83h0"/><path class="cls-1" d="M54.13,2.53A24.62,24.62,0,0,1,43.75.5"/><path class="cls-1" d="M41.21-.55C42.1-.2,42.92.16,43.75.5"/><path class="cls-1" d="M62.7,1.93a68.43,68.43,0,0,1-8.57.6"/><path class="cls-1" d="M56.38,3.84a54.53,54.53,0,0,1-9.82,0"/><path class="cls-1" d="M34.62.57c4.49,1.77,7.76,2.89,11.94,3.31"/><path class="cls-1" d="M69.08,2.41l-3,.39"/><path class="cls-1" d="M69.08,2.41l.11,0"/><path class="cls-1" d="M66.08,2.8c-3.79.49-7,.83-9.7,1"/><path class="cls-1" d="M34.62.57l-.12,0"/><path class="cls-1" d="M53.19,7.21A51.8,51.8,0,0,1,46.38,7"/><path class="cls-1" d="M26.81,1.64c1.35.52,2.72,1,4.12,1.54"/><path class="cls-1" d="M72.76,3.56c.76-.25,1.54-.51,2.33-.79"/><path class="cls-1" d="M72.76,3.56A68.49,68.49,0,0,1,53.19,7.21"/><path class="cls-1" d="M46.38,7A64.27,64.27,0,0,1,30.93,3.18"/><path class="cls-1" d="M65.51,7.91A61.06,61.06,0,0,1,55.31,9.5"/><path class="cls-1" d="M36.06,7.87A64.35,64.35,0,0,0,55.31,9.5"/><path class="cls-1" d="M27.25,5.32c-2.86-1-5.5-2-7.94-2.93"/><path class="cls-1" d="M75.22,4.75a68.79,68.79,0,0,1-9.71,3.16"/><path class="cls-1" d="M27.25,5.32c2.74.93,5.68,1.82,8.81,2.55"/><path class="cls-1" d="M75.22,4.75q2.2-.88,4.47-2"/><path class="cls-1" d="M22.38,7.18a72.23,72.23,0,0,1-9.63-4.41"/><path class="cls-1" d="M36.31,10.78a73.32,73.32,0,0,0,7.94.79"/><path class="cls-1" d="M22.38,7.18a71,71,0,0,0,7,2.18"/><path class="cls-1" d="M44.25,11.57q1.57.07,3.12.09"/><path class="cls-1" d="M80.45,5.39c2.27-.87,4.29-1.74,6-2.53"/><path class="cls-1" d="M29.37,9.36q3.51.9,6.94,1.42"/><path class="cls-1" d="M50.44,11.62c-1,0-2,0-3.07,0"/><path class="cls-1" d="M50.44,11.62a93.67,93.67,0,0,0,30-6.23"/><path class="cls-1" d="M22.75.91A52.59,52.59,0,0,1,10-1.54"/><path class="cls-1" d="M30,1.08c-2.82,0-5.14,0-7.25-.17"/><path class="cls-1" d="M11.63,2.58C9.94,2.32,8.4,2.11,7,1.93"/><path class="cls-1" d="M76.41-1.17a30.08,30.08,0,0,0,8.4,2.24"/><path class="cls-1" d="M84.81,1.07c2.13.3,4.44.52,7.21.86"/><line class="cls-1" x1="38.35" y1="12.37" x2="38.36" y2="12.35"/><path class="cls-1" d="M38.35,12.37l-.24.41L37,13.6"/><line class="cls-1" x1="34.73" y1="11.83" x2="34.79" y2="11.79"/><path class="cls-1" d="M30.89,13.6c1.17-.46,2.25-.92,3.23-1.39l.61-.38"/><line class="cls-1" x1="30.3" y1="11.04" x2="30.42" y2="10.97"/><path class="cls-1" d="M30.3,11l-.8.4c-2.17.77-4.58,1.51-7.13,2.16"/><path class="cls-1" d="M73.13,13.6a9.09,9.09,0,0,1-2.74-2.51l-.21-.37"/><line class="cls-1" x1="70.13" y1="10.61" x2="70.18" y2="10.72"/><line class="cls-1" x1="58.01" y1="12.68" x2="58" y2="12.67"/><path class="cls-1" d="M59.1,13.6c-.25-.17-.49-.35-.72-.53L58,12.68"/><line class="cls-1" x1="51.41" y1="13.22" x2="51.69" y2="13.6"/><line class="cls-1" x1="51.41" y1="13.22" x2="51.38" y2="13.17"/><line class="cls-1" x1="46.94" y1="13.11" x2="47.02" y2="13.2"/><path class="cls-1" d="M47.37,13.6l-.06-.06L47,13.2"/><line class="cls-1" x1="39.46" y1="12.51" x2="39.44" y2="12.49"/><path class="cls-1" d="M39.46,12.51l.54.65.49.44"/><path class="cls-1" d="M13.58,6.36h.05"/><path class="cls-1" d="M13.58,6.36a37.55,37.55,0,0,1-6.6-1"/><line class="cls-1" x1="10.56" y1="13.46" x2="10.58" y2="13.6"/><line class="cls-1" x1="19.63" y1="12.08" x2="19.89" y2="13.6"/><line class="cls-1" x1="25.44" y1="12.77" x2="25.74" y2="13.6"/><line class="cls-1" x1="84.47" y1="12.58" x2="84.47" y2="12.58"/><line class="cls-1" x1="84.47" y1="12.58" x2="84.35" y2="13.6"/><line class="cls-1" x1="71.49" y1="13.6" x2="71.84" y2="12.71"/><line class="cls-1" x1="14.13" y1="9.86" x2="14.75" y2="12.92"/><line class="cls-1" x1="23.29" y1="9.47" x2="23.25" y2="9.36"/><line class="cls-1" x1="23.88" y1="10.92" x2="23.29" y2="9.47"/><line class="cls-1" x1="10.13" y1="6.05" x2="10.44" y2="10.11"/><line class="cls-1" x1="8.62" y1="3.92" x2="8.63" y2="3.86"/><line class="cls-1" x1="8.62" y1="3.92" x2="8.31" y2="5.61"/><line class="cls-1" x1="27.69" y1="1.05" x2="27.75" y2="-1.75"/><line class="cls-1" x1="18.75" y1="0.49" x2="19.3" y2="-2.68"/><line class="cls-1" x1="22.75" y1="0.91" x2="22.75" y2="0.8"/><line class="cls-1" x1="22.75" y1="0.91" x2="22.75" y2="2.05"/><line class="cls-1" x1="14" y1="2.55" x2="14.25" y2="-0.33"/><line class="cls-1" x1="15.94" y1="4.42" x2="14.95" y2="6.89"/><line class="cls-1" x1="14.95" y1="6.89" x2="14.94" y2="6.92"/><line class="cls-1" x1="22.38" y1="7.18" x2="22.06" y2="9.05"/><line class="cls-1" x1="19.5" y1="5.99" x2="20.63" y2="2.92"/><line class="cls-1" x1="29.37" y1="9.36" x2="29.38" y2="9.36"/><line class="cls-1" x1="29.37" y1="9.36" x2="29.13" y2="10.74"/><line class="cls-1" x1="27.25" y1="5.32" x2="27.25" y2="5.3"/><line class="cls-1" x1="27.25" y1="5.32" x2="26.38" y2="8.49"/><line class="cls-1" x1="36.31" y1="10.78" x2="36.31" y2="10.74"/><line class="cls-1" x1="36.31" y1="10.78" x2="36.25" y2="11.99"/><line class="cls-1" x1="44.25" y1="11.57" x2="44.19" y2="12.92"/><line class="cls-1" x1="44.25" y1="11.57" x2="44.25" y2="11.55"/><line class="cls-1" x1="50.44" y1="11.62" x2="50.5" y2="13.11"/><line class="cls-1" x1="60.88" y1="10.67" x2="61.13" y2="12.24"/><line class="cls-1" x1="71.31" y1="8.42" x2="71.69" y2="10.36"/><line class="cls-1" x1="80.45" y1="5.39" x2="81.37" y2="7.8"/><line class="cls-1" x1="81.38" y1="7.8" x2="81.37" y2="7.8"/><line class="cls-1" x1="80.45" y1="5.39" x2="80.44" y2="5.36"/><line class="cls-1" x1="75.19" y1="4.67" x2="75.22" y2="4.75"/><line class="cls-1" x1="75.22" y1="4.75" x2="76.06" y2="6.92"/><line class="cls-1" x1="65.51" y1="7.91" x2="65.94" y2="9.61"/><line class="cls-1" x1="65.5" y1="7.86" x2="65.51" y2="7.91"/><line class="cls-1" x1="55.31" y1="9.5" x2="55.31" y2="9.49"/><line class="cls-1" x1="55.31" y1="9.5" x2="55.44" y2="11.24"/><line class="cls-1" x1="47.25" y1="9.55" x2="47.37" y2="11.66"/><line class="cls-1" x1="47.37" y1="11.66" x2="47.38" y2="11.67"/><line class="cls-1" x1="36.06" y1="7.87" x2="36.06" y2="7.86"/><line class="cls-1" x1="36.06" y1="7.87" x2="35.56" y2="10.61"/><line class="cls-1" x1="30.94" y1="3.17" x2="30.93" y2="3.18"/><line class="cls-1" x1="29.94" y1="6.11" x2="30.93" y2="3.18"/><line class="cls-1" x1="41.88" y1="6.3" x2="41.5" y2="8.86"/><line class="cls-1" x1="53.19" y1="7.21" x2="53.38" y2="9.55"/><line class="cls-1" x1="53.19" y1="7.17" x2="53.19" y2="7.21"/><line class="cls-1" x1="64.19" y1="8.11" x2="63.69" y2="5.99"/><line class="cls-1" x1="72.76" y1="3.56" x2="72.75" y2="3.55"/><line class="cls-1" x1="72.76" y1="3.56" x2="73.44" y2="5.3"/><line class="cls-1" x1="66.08" y1="2.8" x2="66.75" y2="5.24"/><line class="cls-1" x1="66.06" y1="2.74" x2="66.08" y2="2.8"/><line class="cls-1" x1="56.38" y1="3.84" x2="56.38" y2="3.8"/><line class="cls-1" x1="56.38" y1="3.84" x2="56.69" y2="6.99"/><line class="cls-1" x1="46.38" y1="6.96" x2="46.38" y2="6.99"/><line class="cls-1" x1="46.56" y1="3.88" x2="46.38" y2="6.96"/><line class="cls-1" x1="46.56" y1="3.88" x2="46.56" y2="3.86"/><line class="cls-1" x1="37.31" y1="1.61" x2="36.06" y2="4.86"/><line class="cls-1" x1="43.19" y1="3.3" x2="43.75" y2="0.5"/><line class="cls-1" x1="43.75" y1="0.49" x2="43.75" y2="0.5"/><line class="cls-1" x1="54.13" y1="2.53" x2="54.25" y2="3.92"/><line class="cls-1" x1="54.13" y1="2.42" x2="54.13" y2="2.53"/><line class="cls-1" x1="62.69" y1="1.86" x2="62.7" y2="1.93"/><line class="cls-1" x1="62.7" y1="1.93" x2="62.94" y2="3.17"/><line class="cls-1" x1="49.13" y1="2.11" x2="49.56" y2="-0.26"/><line class="cls-1" x1="58.81" y1="2.3" x2="58.75" y2="0.99"/><line class="cls-1" x1="62.73" y1="-3.74" x2="60.73" y2="1.26"/><line class="cls-1" x1="71.73" y1="-1.66" x2="71.31" y2="2.51"/><line class="cls-1" x1="80.56" y1="2.67" x2="80.4" y2="0.26"/><line class="cls-1" x1="84.81" y1="1.07" x2="85.06" y2="-0.91"/><line class="cls-1" x1="84.81" y1="1.07" x2="84.81" y2="1.09"/><path class="cls-1" d="M49.68,5.74c0,1.38,4.06,1.08,4-.18C53.56,4.68,49.7,4.71,49.68,5.74Z"/><path class="cls-1" d="M73.52.84c0,1.39,4,1.09,4-.17C77.39-.21,73.53-.19,73.52.84Z"/><path class="cls-1" d="M76.52,11c-.5,1,2.56,2.18,2.91,1.23C79.68,11.61,76.88,10.31,76.52,11Z"/><path class="cls-1" d="M29.22,7.43c-.36,1.05,2.83,1.82,3.05.83C32.43,7.57,29.48,6.65,29.22,7.43Z"/><path class="cls-1" d="M11.38,8.11c0,1.11,3.25.87,3.16-.14C14.48,7.27,11.4,7.29,11.38,8.11Z"/><line class="cls-1" x1="6.98" y1="2.8" x2="6.98" y2="2.61"/><rect class="cls-2" x="6.98" y="-71.44" width="85.04" height="85.04"/><line class="cls-1" x1="10.81" y1="15.84" x2="10.58" y2="13.6"/><line class="cls-1" x1="19.89" y1="13.6" x2="20" y2="14.21"/><line class="cls-1" x1="15" y1="15.21" x2="15" y2="15.23"/><line class="cls-1" x1="15" y1="15.23" x2="15.56" y2="17.71"/><line class="cls-1" x1="26.31" y1="15.15" x2="25.74" y2="13.6"/><line class="cls-1" x1="10.56" y1="24.09" x2="9.94" y2="18.71"/><line class="cls-1" x1="19.31" y1="17.09" x2="20.63" y2="21.84"/><line class="cls-1" x1="29.5" y1="14.21" x2="31.19" y2="17.21"/><line class="cls-1" x1="84.32" y1="13.6" x2="84" y2="16.34"/><line class="cls-1" x1="71.46" y1="13.6" x2="69.75" y2="17.9"/><path class="cls-1" d="M49.5,55.93l-1.39,0"/><path class="cls-1" d="M31.68,54c3.08.57,6.1,1,8.88,1.35"/><path class="cls-1" d="M48.11,55.91c-2.13-.06-4.72-.27-7.55-.6"/><path class="cls-1" d="M18.3,50.71C13.64,49.23,9.58,47.47,7,45.47"/><path class="cls-1" d="M31.68,54A112.71,112.71,0,0,1,18.3,50.71"/><path class="cls-1" d="M76.26,52a64.27,64.27,0,0,0,12.1-4.29"/><path class="cls-1" d="M67.53,53.92c-2.75.52-5.46.94-8,1.26"/><path class="cls-1" d="M76.26,52c-2.85.74-5.81,1.39-8.73,1.93"/><path class="cls-1" d="M59.54,55.18a85.91,85.91,0,0,1-10,.75"/><path class="cls-1" d="M24.71,73.58c-7.25-1.76-14-4.14-17.73-7"/><path class="cls-1" d="M36.17,75.81A95.13,95.13,0,0,0,49.5,77"/><path class="cls-1" d="M24.71,73.58c3.8.92,7.75,1.67,11.46,2.23"/><path class="cls-1" d="M86.38,69.71c-1.65.72-3.47,1.38-5.4,2"/><path class="cls-1" d="M81,71.71c-.85.28-1.72.54-2.6.79"/><path class="cls-1" d="M78.38,72.5c-2.35.67-4.8,1.27-7.26,1.8"/><path class="cls-1" d="M49.5,77c1.67,0,3.71-.11,6-.32"/><path class="cls-1" d="M55.5,76.71A133.62,133.62,0,0,0,71.12,74.3"/><path class="cls-1" d="M13.32,27.73a29,29,0,0,1-6.26-3.39"/><path class="cls-1" d="M22.1,30.63a73.48,73.48,0,0,1-8.78-2.9"/><path class="cls-1" d="M7,24.28l.08.06"/><path class="cls-1" d="M31.4,32.72c2.1.4,4.18.74,6.18,1"/><path class="cls-1" d="M37.58,33.74a91.09,91.09,0,0,0,11.92,1"/><path class="cls-1" d="M31.4,32.72c-3.12-.58-6.28-1.28-9.3-2.09"/><path class="cls-1" d="M62.75,33.54a95.07,95.07,0,0,1-13.25,1.2"/><path class="cls-1" d="M62.75,33.54c10.75-1.62,23.43-4.82,29.19-9.2"/><path class="cls-1" d="M64.55,61.36a29.28,29.28,0,0,1-6-3.5"/><path class="cls-1" d="M84.07,66.12c2.82.28,5.52.4,8,.41"/><path class="cls-1" d="M58.57,57.86l-.07,0"/><path class="cls-1" d="M84.07,66.12a64.12,64.12,0,0,1-19.52-4.76"/><path class="cls-1" d="M50.63,82.56c.34.27.72.52,1.11.77"/><path class="cls-1" d="M63.46,86.87c-4.63-.65-8.79-1.74-11.72-3.54"/><path class="cls-1" d="M77.34,44.84c2.85.18,5.51.3,7.85.38"/><path class="cls-1" d="M85.19,45.22c2.82.09,5.18.12,6.83.12"/><path class="cls-1" d="M70.86,44.32c2.22.21,4.4.38,6.48.52"/><path class="cls-1" d="M44.31,38.64A43.74,43.74,0,0,0,48.4,40.2"/><path class="cls-1" d="M48.4,40.2c6.51,2.12,14.75,3.38,22.46,4.12"/><path class="cls-1" d="M43.27,38.15a15.2,15.2,0,0,1-5.69-4.41"/><path class="cls-1" d="M44.31,38.64l-1-.49"/><path class="cls-1" d="M37.5,33.62l.08.12"/><path class="cls-1" d="M52.4,22.05a89.9,89.9,0,0,0,9,1.66"/><path class="cls-1" d="M61.43,23.71c13,1.73,24.4.64,30.51.63"/><path class="cls-1" d="M34.48,15.34s-.11-.06-.17-.1"/><path class="cls-1" d="M40.57,18.23Q37.51,17,34.48,15.34"/><path class="cls-1" d="M40.57,18.23A76.32,76.32,0,0,0,52.4,22.05"/><path class="cls-1" d="M54.63,59c1.38-.37,2.7-.75,3.94-1.13"/><path class="cls-1" d="M45.16,61.23c-2.89.61-5.88,1.18-8.86,1.7"/><path class="cls-1" d="M54.63,59c-2.92.79-6.13,1.54-9.47,2.24"/><path class="cls-1" d="M36.3,62.93c-7.6,1.34-15.16,2.38-21,3"/><path class="cls-1" d="M67.53,53.92l0,0"/><path class="cls-1" d="M15.3,65.93c-3.52.36-6.41.57-8.32.59"/><path class="cls-1" d="M67.53,53.92c-1.75,1.35-4.93,2.68-9,3.94"/><path class="cls-1" d="M41.21,84.49c1.64-.3,3.29-.62,4.92-1"/><path class="cls-1" d="M60.13,80.1c-4.42,1.29-9.18,2.44-14,3.43"/><path class="cls-1" d="M34.62,85.61q2.41-.37,4.86-.81"/><path class="cls-1" d="M69.34,77a47.48,47.48,0,0,0,9-4.51"/><path class="cls-1" d="M78.75,72.24l-.37.26"/><path class="cls-1" d="M39.48,84.8l1.73-.31"/><path class="cls-1" d="M69.34,77c-1.37.54-2.82,1.06-4.33,1.57"/><path class="cls-1" d="M60.13,80.1c1.68-.49,3.31-1,4.88-1.52"/><path class="cls-1" d="M35.08,42.53a47.92,47.92,0,0,0,4.75-2.32"/><path class="cls-1" d="M43.31,38.12l0,0"/><path class="cls-1" d="M43.27,38.15c-1.18.76-2.32,1.44-3.44,2.06"/><path class="cls-1" d="M35.08,42.53C23.67,47.34,15.16,45.39,7,45.34"/><path class="cls-1" d="M34.48,15.34c.88-.57,1.72-1.15,2.53-1.74"/><path class="cls-1" d="M17,22.94a46.65,46.65,0,0,1-5.29,1"/><path class="cls-1" d="M29.87,18c1.6-.84,3.15-1.73,4.61-2.67"/><path class="cls-1" d="M29.87,18q-2.46,1.27-5.05,2.34"/><path class="cls-1" d="M17,22.94a57.69,57.69,0,0,0,7.78-2.59"/><path class="cls-1" d="M11.75,24a36.27,36.27,0,0,1-4.69.35"/><path class="cls-1" d="M7,24.34h.08"/><path class="cls-1" d="M30.92,13.6A90.68,90.68,0,0,1,7,19"/><path class="cls-1" d="M7.08,13.6h.1"/><path class="cls-1" d="M11.31,42.55c-1.44-.07-2.88-.17-4.33-.29"/><path class="cls-1" d="M41.44,37.18c-7.32,4.81-18.55,6-30.13,5.37"/><path class="cls-1" d="M7,39.88,8.56,40"/><path class="cls-1" d="M34.2,37.51a45,45,0,0,0,5.18-1.83"/><path class="cls-1" d="M20.69,39.87A89.19,89.19,0,0,1,8.56,40"/><path class="cls-1" d="M34.2,37.51a67.62,67.62,0,0,1-13.51,2.36"/><path class="cls-1" d="M13.32,27.73l.09,0"/><path class="cls-1" d="M9.32,28.11A13.73,13.73,0,0,1,7,28"/><path class="cls-1" d="M13.32,27.73a28.68,28.68,0,0,1-4,.38"/><path class="cls-1" d="M22.13,30.62h0"/><path class="cls-1" d="M19,31.85a28.06,28.06,0,0,0,3.1-1.22"/><path class="cls-1" d="M19,31.85A33,33,0,0,1,7,33.38"/><path class="cls-1" d="M31.4,32.72q-2.64,1.08-5.2,1.86"/><path class="cls-1" d="M14.5,36.86a53.3,53.3,0,0,0,11.7-2.28"/><path class="cls-1" d="M14.5,36.86a47.12,47.12,0,0,1-7.52,0"/><path class="cls-1" d="M31.4,32.72l.1,0"/><path class="cls-1" d="M86.75,19.39c-2.06.06-4.17,0-6.27-.06"/><path class="cls-1" d="M59,13.6a26.42,26.42,0,0,0,7,3.33"/><path class="cls-1" d="M80.48,19.33A56.53,56.53,0,0,1,66,16.93"/><path class="cls-1" d="M13.5,30.49A20.46,20.46,0,0,1,7,30.72"/><path class="cls-1" d="M13.5,30.49a32.15,32.15,0,0,0,4.22-1.09"/><path class="cls-1" d="M67,38.22c-6-1.36-10.8-2.72-13.54-3.57"/><path class="cls-1" d="M81.56,41c3.39.51,6.89,1,10.4,1.25H92"/><path class="cls-1" d="M75,39.88c-2.82-.53-5.51-1.1-8-1.66"/><path class="cls-1" d="M81.56,41c-2.25-.35-4.45-.72-6.58-1.12"/><path class="cls-1" d="M62.75,33.54l.55.3"/><path class="cls-1" d="M88.06,39.53c-8.91-.9-19-2.66-24.76-5.69"/><path class="cls-1" d="M62.75,33.54h0"/><path class="cls-1" d="M78,30.78c3.71,1.54,9.15,2.33,14,2.59"/><path class="cls-1" d="M78,30.78l-.59-.25"/><path class="cls-1" d="M71.77,32.37,71.16,32"/><path class="cls-1" d="M89.9,36.62c-2.22-.23-4.62-.53-7-.94"/><path class="cls-1" d="M71.77,32.37a39.21,39.21,0,0,0,11.12,3.31"/><path class="cls-1" d="M83.44,28.65c1.16,1,5,1.53,8.52,2.05H92"/><path class="cls-1" d="M90.19,24.24c-14.29-1.11-23.2-2.47-30.81-6"/><path class="cls-1" d="M51.66,13.65a44.58,44.58,0,0,0,7.72,4.59"/><path class="cls-1" d="M50.63,16.73c-1.33-1.15-2.45-2.24-3.34-3.13"/><path class="cls-1" d="M50.63,16.73a31.61,31.61,0,0,0,13.31,7.14"/><path class="cls-1" d="M52.4,22.05l.29.13"/><path class="cls-1" d="M52.4,22.05c-3.26-1.54-8.51-5.41-12-8.45"/><path class="cls-1" d="M43.38,34.43c.56.46,1.14.9,1.74,1.34"/><path class="cls-1" d="M62.31,43.24a42.5,42.5,0,0,1-17.19-7.47"/><path class="cls-1" d="M88.63,45.28c-13.5-.38-33.5-6.79-39.32-10.54"/><path class="cls-1" d="M40.57,18.23h.12"/><path class="cls-1" d="M35.43,17.42a16.61,16.61,0,0,1-2.9-.86"/><path class="cls-1" d="M40.57,18.23a50,50,0,0,1-5.14-.81"/><path class="cls-1" d="M45.84,20.21c-7.07,1.49-9.71-.34-16-2.2"/><path class="cls-1" d="M29.87,18,29.72,18"/><path class="cls-1" d="M24.82,20.35l-.07,0"/><path class="cls-1" d="M54.09,22.56a25.53,25.53,0,0,1-5.21,1.09"/><path class="cls-1" d="M34.74,23.33a56.26,56.26,0,0,0,14.14.32"/><path class="cls-1" d="M34.74,23.33a30.37,30.37,0,0,1-9.92-3"/><path class="cls-1" d="M21.47,21.62a12.12,12.12,0,0,0,2.4,1.67"/><path class="cls-1" d="M61.43,23.71l.07,0"/><path class="cls-1" d="M61.43,23.71c-16.3,6.06-31,3.14-37.56-.42"/><path class="cls-1" d="M17.87,23.86c2.35,2.23,6.78,3.88,12.18,4.92"/><path class="cls-1" d="M30.05,28.78A84,84,0,0,0,47.5,30.11"/><path class="cls-1" d="M17,22.94l-.07-.1"/><path class="cls-1" d="M47.5,30.11a68.46,68.46,0,0,0,17.9-2.53"/><path class="cls-1" d="M17,22.94a7,7,0,0,0,.83.92"/><path class="cls-1" d="M71.81,24.62a22.5,22.5,0,0,1-6.41,3"/><path class="cls-1" d="M36.87,31.93C27.5,31,18.7,28.6,12.3,24.36"/><path class="cls-1" d="M11.72,24l0,0"/><path class="cls-1" d="M36.87,31.93A102.61,102.61,0,0,0,55,32.07"/><path class="cls-1" d="M83.63,24.62a43.83,43.83,0,0,1-9.87,4.12"/><path class="cls-1" d="M11.75,24l.55.37"/><path class="cls-1" d="M73.76,28.74A91.5,91.5,0,0,1,55,32.07"/><path class="cls-1" d="M39.83,40.21l-.08,0"/><path class="cls-1" d="M48.4,40.2c-1.54.38-5.71,1.17-8.57,0"/><path class="cls-1" d="M48.4,40.2l.07,0"/><path class="cls-1" d="M35.08,42.53l.29.07"/><path class="cls-1" d="M35.06,42.53h0"/><path class="cls-1" d="M56.53,42.34a39.67,39.67,0,0,1-21.16.26"/><path class="cls-1" d="M50,46.87c-9,.93-16.89-.06-20-2.56"/><path class="cls-1" d="M64.88,43.65A68.77,68.77,0,0,1,50,46.87"/><path class="cls-1" d="M66.06,47.4a22.1,22.1,0,0,0,4.8-3.08"/><path class="cls-1" d="M36.94,49.9a62.8,62.8,0,0,1-15.47-4.19"/><path class="cls-1" d="M53.75,50.56A36.18,36.18,0,0,0,66.06,47.4"/><path class="cls-1" d="M53.75,50.56a69.6,69.6,0,0,1-16.81-.66"/><path class="cls-1" d="M70.86,44.32h0"/><path class="cls-1" d="M63.44,52.41a59.74,59.74,0,0,0,10.88-2.87"/><path class="cls-1" d="M23.82,49.63c-4.75-1.37-8.23-2.85-9.76-3.92"/><path class="cls-1" d="M63.44,52.41a86.34,86.34,0,0,1-25.25.2"/><path class="cls-1" d="M38.19,52.61a98.47,98.47,0,0,1-14.37-3"/><path class="cls-1" d="M83.25,45.15a48.34,48.34,0,0,1-8.93,4.39"/><path class="cls-1" d="M54.56,58.93l.07.06"/><path class="cls-1" d="M54.63,59a7.91,7.91,0,0,0,3.56,1.84"/><path class="cls-1" d="M64.69,61.37h-.14"/><path class="cls-1" d="M64.55,61.36a35,35,0,0,1-6.36-.53"/><path class="cls-1" d="M45.16,61.23c2,.59,3.67,1.11,5.14,1.53"/><path class="cls-1" d="M45,61.18l.16,0"/><path class="cls-1" d="M65.39,63.15l2.3-.47"/><path class="cls-1" d="M65.39,63.15c-7.21,1.38-10.13,1-15.09-.39"/><path class="cls-1" d="M36.3,62.93l-.3-.06"/><path class="cls-1" d="M71.81,64A54,54,0,0,1,55.5,65.93"/><path class="cls-1" d="M55.5,65.93c-5.64-.22-11.44-1.35-19.2-3"/><path class="cls-1" d="M46.5,68.09a104.63,104.63,0,0,1-17.44-3.91"/><path class="cls-1" d="M46.5,68.09A74,74,0,0,0,65,68"/><path class="cls-1" d="M78,65.49A106.41,106.41,0,0,1,65,68"/><path class="cls-1" d="M84.07,66.12c-8.5,1.73-15.76,3.23-22.56,4.08"/><path class="cls-1" d="M84.07,66.12l.31-.06"/><path class="cls-1" d="M34.42,69.08a88.58,88.58,0,0,1-12.29-4"/><path class="cls-1" d="M47.56,70.91a67.57,67.57,0,0,1-13.14-1.83"/><path class="cls-1" d="M61.51,70.2a83.58,83.58,0,0,1-13.95.71"/><path class="cls-1" d="M83.47,68.35c1.43-.54,2.85-1.12,4.28-1.73"/><path class="cls-1" d="M83.47,68.35a95.3,95.3,0,0,1-12.71,3.82"/><path class="cls-1" d="M15.19,65.87l.11.06"/><path class="cls-1" d="M70.76,72.17C50.54,76.72,31,74,15.3,65.93"/><path class="cls-1" d="M55.69,85.18a38.13,38.13,0,0,1-6.13-.4"/><path class="cls-1" d="M46.13,83.53a22.09,22.09,0,0,0,3.43,1.25"/><path class="cls-1" d="M46,83.49l.1,0"/><path class="cls-1" d="M41.21,84.49l-.15-.06"/><path class="cls-1" d="M41.21,84.49c.89.35,1.71.71,2.54,1.05"/><path class="cls-1" d="M12,70.69c.49-.09,1-.2,1.55-.32"/><path class="cls-1" d="M12,70.69a21.46,21.46,0,0,1-5,.43"/><path class="cls-1" d="M9.32,73.84c2.79-.47,5.94-1,9.62-1.6"/><path class="cls-1" d="M9.32,73.84,7,74.23"/><path class="cls-1" d="M22.07,74.5c1-.3,1.88-.61,2.64-.92"/><path class="cls-1" d="M24.71,73.58l0,0"/><path class="cls-1" d="M22.07,74.5A74.15,74.15,0,0,1,7,77.12"/><path class="cls-1" d="M27.57,75.74c1.07-.28,2.07-.58,3-.87"/><path class="cls-1" d="M18,77.84c-1.39.25-2.81.48-4.26.68"/><path class="cls-1" d="M18,77.84c3.5-.61,6.77-1.34,9.56-2.1"/><path class="cls-1" d="M7,79.27c2.27-.18,4.55-.44,6.77-.75"/><path class="cls-1" d="M27.38,78.3c2.86-.77,5.79-1.61,8.79-2.49"/><path class="cls-1" d="M27.38,78.3c-2.64.71-5.22,1.37-7.75,1.94"/><path class="cls-1" d="M36.17,75.81h0"/><path class="cls-1" d="M19.63,80.24A106.43,106.43,0,0,1,7,82.41"/><path class="cls-1" d="M19.3,82.36c-3.07.46-6.2.85-9.33,1.14"/><path class="cls-1" d="M28.06,80.83c-2.81.56-5.75,1.07-8.76,1.53"/><path class="cls-1" d="M28.06,80.83c6.36-1.25,12.05-2.7,16.28-4"/><path class="cls-1" d="M7,83.75c1-.07,2-.15,3-.25"/><path class="cls-1" d="M56.69,77.79c3.11.38,3.94-.06,11-.2"/><path class="cls-1" d="M56.69,77.79c-1.11-.13-2.5-.37-4.56-.76"/><path class="cls-1" d="M58.5,80.49c-12.94.75-11.94.66-25.62-.65"/><path class="cls-1" d="M21.13,82.09l6.62,1.2"/><path class="cls-1" d="M39.56,84.81h-.08"/><path class="cls-1" d="M27.75,83.29A74.56,74.56,0,0,0,39.48,84.8"/><path class="cls-1" d="M10,83.5h0"/><path class="cls-1" d="M22.75,86A52.59,52.59,0,0,1,10,83.5"/><path class="cls-1" d="M82.23,74.81A36.14,36.14,0,0,0,92,74.23"/><path class="cls-1" d="M82.23,74.81a17.73,17.73,0,0,1-5.18-1.42"/><path class="cls-1" d="M86.48,77.33a42,42,0,0,1-9.43-1"/><path class="cls-1" d="M77.05,76.38a18.36,18.36,0,0,1-3.45-1.15"/><path class="cls-1" d="M69.34,77l-.08,0"/><path class="cls-1" d="M80.73,79.45A81,81,0,0,0,92,79.27"/><path class="cls-1" d="M69.34,77a20.15,20.15,0,0,0,2.55,1"/><path class="cls-1" d="M80.73,79.45A38.73,38.73,0,0,1,71.89,78"/><path class="cls-1" d="M65,78.58l-.05,0"/><path class="cls-1" d="M82.58,82.73A64,64,0,0,0,92,82.41"/><path class="cls-1" d="M82.58,82.73c-.65,0-1.29-.07-1.93-.12"/><path class="cls-1" d="M80.65,82.61a45.54,45.54,0,0,1-15.64-4"/><path class="cls-1" d="M60.13,80.1a34.38,34.38,0,0,0,7.36,2.48"/><path class="cls-1" d="M67.49,82.58c7.15,1.63,15.8,1.81,24.53,1.17"/><path class="cls-1" d="M60.13,80.1l-.06,0"/><path class="cls-1" d="M76.41,83.87a30.08,30.08,0,0,0,8.4,2.24"/><path class="cls-1" d="M92,16.26c-7.6.61-14.7,0-19-2.66"/><path class="cls-1" d="M15,15.23c-2.67.46-5.37.82-8,1"/><path class="cls-1" d="M15,15.23c2.57-.45,5.11-1,7.52-1.63"/><path class="cls-1" d="M13.23,51a52.47,52.47,0,0,0,11.71,1.57"/><path class="cls-1" d="M13.23,51A63.73,63.73,0,0,1,7,49.11"/><path class="cls-1" d="M31.68,54h0"/><path class="cls-1" d="M27.06,54.19A21.51,21.51,0,0,0,31.68,54"/><path class="cls-1" d="M16.9,53.24c-3.38-.47-6.84-1.08-9.92-1.77"/><path class="cls-1" d="M27.06,54.19a99.35,99.35,0,0,1-10.16-.95"/><path class="cls-1" d="M40.56,55.31l.13,0"/><path class="cls-1" d="M40.56,55.31C37,56.22,30,56.5,22.23,56.26"/><path class="cls-1" d="M12.65,55.72c1.41.11,2.83.21,4.25.29"/><path class="cls-1" d="M16.9,56c1.79.11,3.58.19,5.33.25"/><path class="cls-1" d="M12.65,55.72c-1.92-.16-3.82-.35-5.67-.56"/><path class="cls-1" d="M48.28,55.84l-.17.07"/><path class="cls-1" d="M18.73,58.94c-3.93,0-7.92,0-11.75-.16"/><path class="cls-1" d="M47.84,56c-4.61,1.73-16.59,2.78-29.11,2.92"/><path class="cls-1" d="M47.84,56l.27-.11"/><path class="cls-1" d="M13.15,62.78q-3.06,0-6.17-.09"/><path class="cls-1" d="M33.52,61.37c-3.18.41-6.54.76-10,1"/><path class="cls-1" d="M43.69,59.75c-3.08.59-6.5,1.15-10.17,1.62"/><path class="cls-1" d="M59.63,55.09l-.09.09"/><path class="cls-1" d="M59.54,55.18c-1.06,1-7.09,2.89-15.85,4.57"/><path class="cls-1" d="M13.15,62.78c3.52,0,7-.16,10.34-.4"/><path class="cls-1" d="M85.24,49.65l-.72-.27"/><path class="cls-1" d="M92,51.5a57.53,57.53,0,0,1-6.78-1.85"/><path class="cls-1" d="M78.56,52.76c-.85-.25-1.62-.51-2.3-.77"/><path class="cls-1" d="M78.56,52.76A87.71,87.71,0,0,0,92,55.17"/><path class="cls-1" d="M76.26,52l-.11-.05"/><path class="cls-1" d="M72.93,56.74a110.24,110.24,0,0,0,19.09,2"/><path class="cls-1" d="M67.17,54.23c.87,1,2.91,1.84,5.76,2.51"/><path class="cls-1" d="M61.43,57a76.88,76.88,0,0,0,14.38,4"/><path class="cls-1" d="M75.81,61c3.45.63,7,1.08,10.5,1.37"/><line class="cls-1" x1="27.69" y1="86.09" x2="27.75" y2="83.29"/><line class="cls-1" x1="27.75" y1="83.29" x2="27.75" y2="83.28"/><line class="cls-1" x1="19.3" y1="82.36" x2="19.31" y2="82.28"/><line class="cls-1" x1="18.75" y1="85.53" x2="19.3" y2="82.36"/><line class="cls-1" x1="14" y1="87.59" x2="14.25" y2="84.71"/><line class="cls-1" x1="49.13" y1="87.15" x2="49.56" y2="84.78"/><line class="cls-1" x1="49.56" y1="84.78" x2="49.56" y2="84.78"/><line class="cls-1" x1="51.5" y1="84.96" x2="51.74" y2="83.33"/><line class="cls-1" x1="51.74" y1="83.33" x2="51.75" y2="83.28"/><line class="cls-1" x1="32.56" y1="84.09" x2="33.63" y2="80.03"/><line class="cls-1" x1="44.75" y1="76.84" x2="44.31" y2="80.84"/><line class="cls-1" x1="56.69" y1="77.79" x2="56.75" y2="80.59"/><line class="cls-1" x1="56.69" y1="77.78" x2="56.69" y2="77.79"/><line class="cls-1" x1="27.38" y1="78.3" x2="27.38" y2="78.28"/><line class="cls-1" x1="27.38" y1="78.3" x2="28.06" y2="80.83"/><line class="cls-1" x1="28.06" y1="80.83" x2="28.06" y2="80.84"/><line class="cls-1" x1="35.88" y1="75.9" x2="36.94" y2="78.78"/><line class="cls-1" x1="19.63" y1="80.24" x2="19.63" y2="80.21"/><line class="cls-1" x1="19.63" y1="80.24" x2="20.06" y2="82.15"/><line class="cls-1" x1="12.31" y1="81.71" x2="12.5" y2="83.21"/><line class="cls-1" x1="62.73" y1="81.3" x2="60.73" y2="86.3"/><line class="cls-1" x1="71.73" y1="83.38" x2="71.31" y2="87.55"/><line class="cls-1" x1="80.56" y1="87.71" x2="80.4" y2="85.3"/><line class="cls-1" x1="84.81" y1="86.11" x2="85.06" y2="84.13"/><line class="cls-1" x1="67.48" y1="82.63" x2="67.49" y2="82.58"/><line class="cls-1" x1="67.49" y1="82.58" x2="68.06" y2="79.88"/><line class="cls-1" x1="75.23" y1="81.88" x2="75.15" y2="83.71"/><line class="cls-1" x1="82.58" y1="82.73" x2="82.56" y2="82.63"/><line class="cls-1" x1="82.81" y1="84.05" x2="82.58" y2="82.73"/><line class="cls-1" x1="80.73" y1="79.45" x2="80.73" y2="79.38"/><line class="cls-1" x1="80.65" y1="82.61" x2="80.65" y2="82.63"/><line class="cls-1" x1="80.73" y1="79.45" x2="80.65" y2="82.61"/><line class="cls-1" x1="71.06" y1="80.8" x2="71.89" y2="77.98"/><line class="cls-1" x1="71.89" y1="77.98" x2="71.9" y2="77.96"/><line class="cls-1" x1="76.65" y1="78.88" x2="77.05" y2="76.38"/><line class="cls-1" x1="77.05" y1="76.38" x2="77.06" y2="76.3"/><line class="cls-1" x1="82.23" y1="74.81" x2="82.23" y2="74.8"/><line class="cls-1" x1="82.06" y1="77.13" x2="82.23" y2="74.81"/><line class="cls-1" x1="80.98" y1="71.71" x2="80.9" y2="74.55"/><line class="cls-1" x1="9.19" y1="79.09" x2="9.56" y2="82.03"/><line class="cls-1" x1="18" y1="77.78" x2="18.01" y2="77.84"/><line class="cls-1" x1="18.01" y1="77.84" x2="18.56" y2="80.46"/><line class="cls-1" x1="28.25" y1="78.03" x2="27.57" y2="75.74"/><line class="cls-1" x1="27.57" y1="75.74" x2="27.56" y2="75.71"/><line class="cls-1" x1="22.06" y1="74.46" x2="22.07" y2="74.5"/><line class="cls-1" x1="22.07" y1="74.5" x2="22.63" y2="76.84"/><line class="cls-1" x1="13.75" y1="78.52" x2="13.75" y2="78.53"/><line class="cls-1" x1="13.75" y1="78.52" x2="13.5" y2="76.4"/><line class="cls-1" x1="9.32" y1="73.84" x2="9.63" y2="76.78"/><line class="cls-1" x1="9.31" y1="73.78" x2="9.32" y2="73.84"/><line class="cls-1" x1="18.06" y1="75.46" x2="17.44" y2="72.53"/><line class="cls-1" x1="11.95" y1="70.69" x2="12.69" y2="73.21"/><line class="cls-1" x1="11.94" y1="70.65" x2="11.95" y2="70.69"/><line class="cls-1" x1="17.88" y1="67.21" x2="16" y2="71.03"/><line class="cls-1" x1="28.81" y1="74.4" x2="29.5" y2="71.46"/><line class="cls-1" x1="42.13" y1="76.53" x2="42.19" y2="73.9"/><line class="cls-1" x1="55.5" y1="76.71" x2="55.19" y2="74.28"/><line class="cls-1" x1="70.76" y1="72.17" x2="70.75" y2="72.09"/><line class="cls-1" x1="71.12" y1="74.3" x2="71.13" y2="74.34"/><line class="cls-1" x1="70.76" y1="72.17" x2="71.12" y2="74.3"/><line class="cls-1" x1="83.47" y1="68.35" x2="84.44" y2="70.46"/><line class="cls-1" x1="83.44" y1="68.28" x2="83.47" y2="68.35"/><line class="cls-1" x1="76.56" y1="70.59" x2="75.69" y2="67.84"/><line class="cls-1" x1="61.5" y1="70.15" x2="61.51" y2="70.2"/><line class="cls-1" x1="61.51" y1="70.2" x2="62" y2="73.65"/><line class="cls-1" x1="47.56" y1="70.91" x2="47.56" y2="74.21"/><line class="cls-1" x1="47.56" y1="70.84" x2="47.56" y2="70.91"/><line class="cls-1" x1="34.42" y1="69.08" x2="33.69" y2="72.46"/><line class="cls-1" x1="34.42" y1="69.08" x2="34.44" y2="69.03"/><line class="cls-1" x1="30.44" y1="64.59" x2="29.31" y2="67.65"/><line class="cls-1" x1="46.5" y1="68.09" x2="46.38" y2="70.84"/><line class="cls-1" x1="64.95" y1="68.01" x2="64.94" y2="67.96"/><line class="cls-1" x1="64.95" y1="68.01" x2="65.25" y2="69.65"/><line class="cls-1" x1="55.5" y1="65.93" x2="55.5" y2="65.84"/><line class="cls-1" x1="55.5" y1="65.93" x2="55.5" y2="68.59"/><line class="cls-1" x1="40.31" y1="63.78" x2="39.56" y2="66.9"/><line class="cls-1" x1="72.25" y1="66.78" x2="71.38" y2="64.15"/><line class="cls-1" x1="65.39" y1="63.15" x2="65.88" y2="65.15"/><line class="cls-1" x1="65.39" y1="63.15" x2="65.38" y2="63.09"/><line class="cls-1" x1="50.31" y1="62.71" x2="50.3" y2="62.76"/><line class="cls-1" x1="49.81" y1="65.34" x2="50.3" y2="62.76"/><line class="cls-1" x1="58.19" y1="60.83" x2="58.19" y2="60.78"/><line class="cls-1" x1="58.19" y1="63.96" x2="58.19" y2="60.83"/><line class="cls-1" x1="60.88" y1="59.46" x2="60.63" y2="61.09"/><line class="cls-1" x1="9.23" y1="46.96" x2="8.65" y2="49.63"/><line class="cls-1" x1="18.3" y1="50.71" x2="18.15" y2="51.96"/><line class="cls-1" x1="18.3" y1="50.71" x2="18.31" y2="50.63"/><line class="cls-1" x1="13.23" y1="50.99" x2="13.23" y2="50.96"/><line class="cls-1" x1="13.23" y1="50.99" x2="13.06" y2="52.55"/><line class="cls-1" x1="23.65" y1="52.55" x2="23.73" y2="53.96"/><line class="cls-1" x1="16.9" y1="53.24" x2="16.9" y2="53.21"/><line class="cls-1" x1="16.9" y1="53.24" x2="16.9" y2="56.01"/><line class="cls-1" x1="16.9" y1="56.05" x2="16.9" y2="56.01"/><line class="cls-1" x1="27.06" y1="54.19" x2="27.06" y2="56.21"/><line class="cls-1" x1="27.06" y1="54.19" x2="27.06" y2="54.05"/><line class="cls-1" x1="35.06" y1="56.05" x2="34.81" y2="54.55"/><line class="cls-1" x1="9.73" y1="52.13" x2="9.65" y2="55.38"/><line class="cls-1" x1="12.65" y1="55.72" x2="12.81" y2="58.8"/><line class="cls-1" x1="12.65" y1="55.63" x2="12.65" y2="55.72"/><line class="cls-1" x1="22.23" y1="58.8" x2="22.23" y2="56.26"/><line class="cls-1" x1="22.23" y1="56.21" x2="22.23" y2="56.26"/><line class="cls-1" x1="32.4" y1="56.3" x2="32.65" y2="58.3"/><line class="cls-1" x1="42.73" y1="57.13" x2="42.31" y2="55.55"/><line class="cls-1" x1="9.23" y1="62.63" x2="9.15" y2="58.88"/><line class="cls-1" x1="18.73" y1="58.94" x2="19.06" y2="62.63"/><line class="cls-1" x1="18.73" y1="58.94" x2="18.73" y2="58.88"/><line class="cls-1" x1="28.23" y1="61.96" x2="27.81" y2="58.71"/><line class="cls-1" x1="38.9" y1="60.55" x2="38.48" y2="57.88"/><line class="cls-1" x1="47.84" y1="56.02" x2="47.81" y2="55.96"/><line class="cls-1" x1="47.84" y1="56.02" x2="48.98" y2="58.55"/><line class="cls-1" x1="13.15" y1="62.71" x2="13.15" y2="62.78"/><line class="cls-1" x1="13.15" y1="62.78" x2="13.31" y2="66.05"/><line class="cls-1" x1="23.48" y1="62.3" x2="23.49" y2="62.38"/><line class="cls-1" x1="23.49" y1="62.38" x2="23.9" y2="64.71"/><line class="cls-1" x1="33.52" y1="61.37" x2="33.94" y2="63.21"/><line class="cls-1" x1="33.52" y1="61.37" x2="33.5" y2="61.28"/><line class="cls-1" x1="43.69" y1="59.71" x2="43.69" y2="59.75"/><line class="cls-1" x1="43.69" y1="59.75" x2="44.06" y2="61.4"/><line class="cls-1" x1="52.81" y1="57.71" x2="53.44" y2="59.28"/><line class="cls-1" x1="62.94" y1="56.21" x2="62.13" y2="54.9"/><line class="cls-1" x1="66.69" y1="58.84" x2="65.81" y2="61.84"/><line class="cls-1" x1="75.81" y1="60.99" x2="75.81" y2="60.96"/><line class="cls-1" x1="75.81" y1="60.99" x2="75.25" y2="64.71"/><line class="cls-1" x1="83.25" y1="58.34" x2="83.06" y2="61.96"/><line class="cls-1" x1="72.93" y1="56.74" x2="72.31" y2="60.21"/><line class="cls-1" x1="72.93" y1="56.74" x2="72.94" y2="56.71"/><line class="cls-1" x1="78.56" y1="52.76" x2="77.75" y2="57.53"/><line class="cls-1" x1="78.56" y1="52.76" x2="78.56" y2="52.71"/><line class="cls-1" x1="84.25" y1="53.96" x2="85.24" y2="49.65"/><line class="cls-1" x1="85.25" y1="49.59" x2="85.24" y2="49.65"/><line class="cls-1" x1="86.75" y1="48.4" x2="85.19" y2="45.22"/><line class="cls-1" x1="85.19" y1="45.22" x2="85.19" y2="45.21"/><line class="cls-1" x1="75.06" y1="52.15" x2="74.32" y2="49.54"/><line class="cls-1" x1="74.32" y1="49.54" x2="74.31" y2="49.53"/><line class="cls-1" x1="63.44" y1="52.41" x2="63.44" y2="52.4"/><line class="cls-1" x1="63.44" y1="52.41" x2="63.81" y2="54.53"/><line class="cls-1" x1="50.81" y1="53.46" x2="50.94" y2="55.84"/><line class="cls-1" x1="38.19" y1="52.61" x2="38" y2="54.9"/><line class="cls-1" x1="38.19" y1="52.61" x2="38.19" y2="52.59"/><line class="cls-1" x1="26.69" y1="50.46" x2="26.19" y2="52.71"/><line class="cls-1" x1="16.19" y1="46.9" x2="15.13" y2="49.59"/><line class="cls-1" x1="23.82" y1="49.63" x2="23.81" y2="49.65"/><line class="cls-1" x1="23.82" y1="49.63" x2="24.69" y2="47.03"/><line class="cls-1" x1="40.94" y1="52.9" x2="41.13" y2="50.46"/><line class="cls-1" x1="53.75" y1="50.56" x2="53.75" y2="50.53"/><line class="cls-1" x1="53.75" y1="50.56" x2="54" y2="53.34"/><line class="cls-1" x1="67.63" y1="51.46" x2="66.06" y2="47.4"/><line class="cls-1" x1="66.06" y1="47.4" x2="66.06" y2="47.4"/><line class="cls-1" x1="78.69" y1="47.59" x2="77.34" y2="44.84"/><line class="cls-1" x1="77.34" y1="44.84" x2="77.31" y2="44.78"/><line class="cls-1" x1="60.75" y1="49.21" x2="59.81" y2="45.15"/><line class="cls-1" x1="50" y1="46.87" x2="50.31" y2="50.71"/><line class="cls-1" x1="50" y1="46.84" x2="50" y2="46.87"/><line class="cls-1" x1="36.94" y1="49.9" x2="37.38" y2="46.84"/><line class="cls-1" x1="35.38" y1="42.59" x2="35.37" y2="42.6"/><line class="cls-1" x1="34.19" y1="46.15" x2="35.37" y2="42.6"/><line class="cls-1" x1="46.63" y1="47.03" x2="46.69" y2="43.9"/><line class="cls-1" x1="60.81" y1="44.78" x2="60.13" y2="42.96"/><line class="cls-1" x1="47.63" y1="40.4" x2="48.25" y2="43.71"/><line class="cls-1" x1="40.5" y1="43.46" x2="41.06" y2="40.59"/><line class="cls-1" x1="44.31" y1="38.64" x2="44.31" y2="40.71"/><line class="cls-1" x1="44.31" y1="38.64" x2="44.31" y2="38.59"/><line class="cls-1" x1="11.31" y1="42.46" x2="11.31" y2="42.55"/><line class="cls-1" x1="11.31" y1="42.55" x2="11.38" y2="45.46"/><line class="cls-1" x1="26.38" y1="42.15" x2="27" y2="44.96"/><line class="cls-1" x1="34.19" y1="37.46" x2="34.2" y2="37.51"/><line class="cls-1" x1="34.2" y1="37.51" x2="35" y2="40.09"/><line class="cls-1" x1="20.69" y1="39.87" x2="21" y2="42.53"/><line class="cls-1" x1="20.69" y1="39.87" x2="20.69" y2="39.84"/><line class="cls-1" x1="8.56" y1="39.99" x2="8.63" y2="42.34"/><line class="cls-1" x1="8.56" y1="39.99" x2="8.56" y2="39.96"/><line class="cls-1" x1="14.5" y1="36.86" x2="14.5" y2="36.84"/><line class="cls-1" x1="14.5" y1="36.86" x2="14.63" y2="40.03"/><line class="cls-1" x1="26.2" y1="34.58" x2="27.31" y2="38.9"/><line class="cls-1" x1="26.2" y1="34.58" x2="26.19" y2="34.53"/><line class="cls-1" x1="19" y1="31.85" x2="19" y2="31.84"/><line class="cls-1" x1="19" y1="31.85" x2="20.06" y2="36.09"/><line class="cls-1" x1="9.5" y1="36.84" x2="9.19" y2="33.46"/><line class="cls-1" x1="13.5" y1="30.49" x2="13.5" y2="30.46"/><line class="cls-1" x1="13.5" y1="30.49" x2="13.94" y2="32.96"/><line class="cls-1" x1="9.31" y1="28.03" x2="9.32" y2="28.11"/><line class="cls-1" x1="9.32" y1="28.11" x2="9.63" y2="30.78"/><line class="cls-1" x1="7.94" y1="24.96" x2="7.94" y2="28.03"/><line class="cls-1" x1="35.44" y1="17.4" x2="35.43" y2="17.42"/><line class="cls-1" x1="34.94" y1="19.59" x2="35.43" y2="17.42"/><line class="cls-1" x1="40.63" y1="23.84" x2="40.69" y2="20.78"/><line class="cls-1" x1="29.25" y1="22.09" x2="30.63" y2="18.34"/><line class="cls-1" x1="34.74" y1="23.33" x2="34.75" y2="23.28"/><line class="cls-1" x1="34.74" y1="23.33" x2="34.25" y2="26.53"/><line class="cls-1" x1="23.87" y1="23.29" x2="22.56" y2="26.53"/><line class="cls-1" x1="23.87" y1="23.29" x2="23.88" y2="23.28"/><line class="cls-1" x1="39.56" y1="29.9" x2="39.56" y2="27.15"/><line class="cls-1" x1="29.69" y1="30.84" x2="30.05" y2="28.78"/><line class="cls-1" x1="30.05" y1="28.78" x2="30.06" y2="28.71"/><line class="cls-1" x1="17.87" y1="23.86" x2="17.88" y2="23.84"/><line class="cls-1" x1="16.31" y1="26.59" x2="17.87" y2="23.86"/><line class="cls-1" x1="23" y1="30.71" x2="23.31" y2="29.34"/><line class="cls-1" x1="11" y1="26.59" x2="12.3" y2="24.36"/><line class="cls-1" x1="12.31" y1="24.34" x2="12.3" y2="24.36"/><line class="cls-1" x1="36.87" y1="31.93" x2="36.75" y2="33.59"/><line class="cls-1" x1="36.87" y1="31.93" x2="36.88" y2="31.9"/><line class="cls-1" x1="49.38" y1="26.65" x2="48.88" y2="23.65"/><line class="cls-1" x1="55.19" y1="25.65" x2="55.94" y2="29.4"/><line class="cls-1" x1="47.56" y1="32.34" x2="47.5" y2="30.11"/><line class="cls-1" x1="47.5" y1="30.11" x2="47.5" y2="30.09"/><line class="cls-1" x1="55" y1="32.07" x2="55.19" y2="34.34"/><line class="cls-1" x1="55" y1="32.07" x2="55" y2="32.03"/><line class="cls-1" x1="65.4" y1="27.58" x2="66.13" y2="30.46"/><line class="cls-1" x1="65.4" y1="27.58" x2="65.38" y2="27.46"/><line class="cls-1" x1="73.76" y1="28.74" x2="74.38" y2="31.15"/><line class="cls-1" x1="73.75" y1="28.71" x2="73.76" y2="28.74"/><line class="cls-1" x1="84.4" y1="29.21" x2="83.48" y2="32.3"/><line class="cls-1" x1="78.03" y1="30.78" x2="76.48" y2="34.13"/><line class="cls-1" x1="78.03" y1="30.78" x2="78.06" y2="30.71"/><line class="cls-1" x1="82.31" y1="38.8" x2="82.89" y2="35.68"/><line class="cls-1" x1="82.9" y1="35.63" x2="82.89" y2="35.68"/><line class="cls-1" x1="71.77" y1="32.37" x2="71.81" y2="32.3"/><line class="cls-1" x1="69.73" y1="36.21" x2="71.77" y2="32.37"/><line class="cls-1" x1="75.48" y1="37.71" x2="74.98" y2="39.88"/><line class="cls-1" x1="74.98" y1="39.88" x2="74.98" y2="39.88"/><line class="cls-1" x1="81.56" y1="41" x2="81.15" y2="44.46"/><line class="cls-1" x1="81.56" y1="41" x2="81.56" y2="40.96"/><line class="cls-1" x1="66.98" y1="38.22" x2="66.98" y2="38.21"/><line class="cls-1" x1="66.98" y1="38.22" x2="66.15" y2="41.21"/><line class="cls-1" x1="62.15" y1="36.96" x2="63.3" y2="33.84"/><line class="cls-1" x1="63.31" y1="33.8" x2="63.3" y2="33.84"/><line class="cls-1" x1="54.73" y1="40.88" x2="55.9" y2="37.88"/><line class="cls-1" x1="68.73" y1="44.05" x2="69.15" y2="42.13"/><line class="cls-1" x1="43.81" y1="38.3" x2="45.12" y2="35.77"/><line class="cls-1" x1="45.12" y1="35.77" x2="45.15" y2="35.71"/><line class="cls-1" x1="41.56" y1="18.55" x2="42.73" y2="15.71"/><line class="cls-1" x1="50.63" y1="16.73" x2="50.65" y2="16.71"/><line class="cls-1" x1="50.63" y1="16.73" x2="48.48" y2="19.63"/><line class="cls-1" x1="59.38" y1="18.24" x2="57.73" y2="21.55"/><line class="cls-1" x1="59.38" y1="18.24" x2="59.4" y2="18.21"/><line class="cls-1" x1="72.9" y1="24.46" x2="73.06" y2="22.3"/><line class="cls-1" x1="65.98" y1="16.88" x2="65.97" y2="16.93"/><line class="cls-1" x1="65.06" y1="20.3" x2="65.97" y2="16.93"/><line class="cls-1" x1="80.23" y1="23.21" x2="80.48" y2="19.33"/><line class="cls-1" x1="80.48" y1="19.3" x2="80.48" y2="19.33"/><path class="cls-1" d="M18.06,19.71c-.35-1.05-5,.12-4.75,1.38C13.69,22.78,18.56,21.21,18.06,19.71Z"/><path class="cls-1" d="M29.38,36c.37,1.69,5.25.13,4.75-1.37C33.78,33.54,29.1,34.71,29.38,36Z"/><path class="cls-1" d="M75.33,26c-.35-1.06-5,.11-4.75,1.37C71,29.07,75.83,27.51,75.33,26Z"/><path class="cls-1" d="M51.45,78.74c-.06-1.11-4.88-1.23-5,.06C46.41,80.53,51.53,80.32,51.45,78.74Z"/><path class="cls-1" d="M51.54,60.68c-.61,1.62,4.34,3,4.73,1.43C56.55,61,52,59.48,51.54,60.68Z"/><path class="cls-1" d="M19.76,43.94c-.08-.89-3.93-.86-4,.17C15.78,45.5,19.87,45.2,19.76,43.94Z"/><path class="cls-1" d="M14.88,34.69c-.07-.89-3.93-.86-4,.17C10.91,36.25,15,36,14.88,34.69Z"/><path class="cls-1" d="M56.76,48c-.08-.88-3.93-.86-3.95.18C52.78,49.56,56.87,49.26,56.76,48Z"/><path class="cls-1" d="M25.26,60.12c-.08-.88-3.93-.85-4,.18C21.28,61.68,25.37,61.38,25.26,60.12Z"/><path class="cls-1" d="M73.52,85.88c0,1.39,4,1.09,4-.17C77.39,84.82,73.53,84.85,73.52,85.88Z"/><path class="cls-1" d="M40.71,71.74c0-.88-3.78-1.38-3.94-.37C36.55,72.74,40.64,73,40.71,71.74Z"/><path class="cls-1" d="M66.57,71.14c.13,1.37,4.15.61,3.9-.63C70.3,69.64,66.47,70.11,66.57,71.14Z"/><path class="cls-1" d="M7.88,72.37c0,1.11,3.25.87,3.17-.14C11,71.52,7.9,71.55,7.88,72.37Z"/><path class="cls-1" d="M65.52,39.5c.16-.69-2.79-1.61-3-.83C62.11,39.72,65.29,40.49,65.52,39.5Z"/><path class="cls-1" d="M79.06,36.38c.16-.69-2.79-1.62-3-.84C75.65,36.59,78.83,37.36,79.06,36.38Z"/><path class="cls-1" d="M78.73,49.41c.32,1.06,3.36-.17,3-1.11C81.42,47.65,78.49,48.62,78.73,49.41Z"/><path class="cls-1" d="M79,63.26c-.38,1,2.79,1.87,3,.89C82.23,63.46,79.31,62.49,79,63.26Z"/><path class="cls-1" d="M8,57.06c0,1.11,3.25.87,3.17-.14C11.09,56.22,8,56.24,8,57.06Z"/><path class="cls-1" d="M33.39,47.34c0-.71-3-1.12-3.15-.3C30.07,48.13,33.34,48.35,33.39,47.34Z"/><path class="cls-1" d="M43.31,22.18c0,1.38,4.06,1.08,3.95-.18C47.18,21.12,43.33,21.14,43.31,22.18Z"/><path class="cls-1" d="M61.09,16.61c.3-.83-3.2-2.44-3.66-1.52C56.82,16.34,60.65,17.8,61.09,16.61Z"/><line class="cls-1" x1="7.08" y1="13.6" x2="7.18" y2="13.6"/><line class="cls-1" x1="6.98" y1="24.34" x2="6.98" y2="24.28"/><line class="cls-1" x1="6.98" y1="66.52" x2="6.98" y2="66.56"/><line class="cls-1" x1="6.98" y1="45.47" x2="6.98" y2="45.34"/><rect class="cls-2" x="6.98" y="13.6" width="85.04" height="85.04"/><path class="cls-1" d="M-16,2.41C-7.45,3,1.57,2.58,7,2.58"/><path class="cls-1" d="M4.21,4.52A20.28,20.28,0,0,0,6.93,2.77"/><path class="cls-1" d="M4.21,4.52A47.37,47.37,0,0,1-3.67,7.8"/><path class="cls-1" d="M7,13.59a25.7,25.7,0,0,1-7.55-1"/><path class="cls-1" d="M-2.66,7.49l.49.25a13.45,13.45,0,0,0,4.5,1.7"/><path class="cls-1" d="M7,10.13a31,31,0,0,1-4.65-.69"/><path class="cls-1" d="M-4.59,5.39c2.27-.87,4.29-1.74,6-2.53"/><path class="cls-1" d="M-.23,1.07c2.13.3,4.44.52,7.21.86"/><path class="cls-1" d="M4.21,4.52l-.12,0"/><path class="cls-1" d="M4.21,4.52c.9.28,2.1.65,2.73.81H7"/><line class="cls-1" x1="1.59" y1="13.05" x2="2.33" y2="9.44"/><line class="cls-1" x1="2.33" y1="9.44" x2="2.34" y2="9.42"/><line class="cls-1" x1="4.09" y1="2.67" x2="4.84" y2="4.11"/><line class="cls-1" x1="-0.23" y1="1.07" x2="0.02" y2="-0.91"/><rect class="cls-2" x="-78.06" y="-71.44" width="85.04" height="85.04"/><line class="cls-1" x1="1.71" y1="19.39" x2="1.71" y2="19.4"/><line class="cls-1" x1="1.71" y1="19.39" x2="1.71" y2="16.53"/><path class="cls-1" d="M3.32,47.7A22.57,22.57,0,0,0,7,45.46"/><path class="cls-1" d="M-8.78,52A64.27,64.27,0,0,0,3.32,47.7"/><path class="cls-1" d="M1.34,69.71A27,27,0,0,0,7,66.56"/><path class="cls-1" d="M1.34,69.71c-1.65.72-3.47,1.38-5.4,2"/><path class="cls-1" d="M7,24.28l-.08.06"/><path class="cls-1" d="M-22.29,33.54c10.75-1.62,23.43-4.82,29.19-9.2"/><path class="cls-1" d="M-1,66.12c2.82.28,5.52.4,8,.41"/><path class="cls-1" d="M-7.7,44.84c2.85.18,5.51.3,7.85.38"/><path class="cls-1" d="M.15,45.22c2.82.09,5.18.12,6.83.12"/><path class="cls-1" d="M6.9,24.34H7"/><path class="cls-1" d="M-23.61,23.71c13,1.73,24.4.64,30.51.63"/><path class="cls-1" d="M1.71,19.39c1.79-.05,3.54-.15,5.24-.3H7"/><path class="cls-1" d="M1.71,19.39c-2.06.06-4.17,0-6.27-.06"/><path class="cls-1" d="M-3.48,41c3.39.51,6.89,1,10.4,1.25H7"/><path class="cls-1" d="M3,39.53c-8.91-.9-19-2.66-24.76-5.69"/><path class="cls-1" d="M3,39.53c1.33.13,2.64.24,3.9.34H7"/><path class="cls-1" d="M2.24,27.06a23.92,23.92,0,0,0,4.68.87H7"/><path class="cls-1" d="M-7,30.78c3.71,1.54,9.15,2.33,14,2.59"/><path class="cls-1" d="M4.86,36.62c-2.22-.23-4.62-.53-7-.94"/><path class="cls-1" d="M4.86,36.62l2.06.19H7"/><path class="cls-1" d="M-1.6,28.65c1.16,1,5,1.53,8.52,2.05H7"/><path class="cls-1" d="M5.15,24.24c-14.29-1.11-23.2-2.47-30.81-6"/><path class="cls-1" d="M7,13.62l-1.1,0"/><path class="cls-1" d="M3.59,45.28c-13.5-.38-33.5-6.79-39.32-10.54"/><path class="cls-1" d="M-1.57,68.35c1.43-.54,2.85-1.12,4.28-1.73"/><path class="cls-1" d="M3.62,70.55A13.76,13.76,0,0,0,7,71.12"/><path class="cls-1" d="M1.34,69.71l-.05,0"/><path class="cls-1" d="M3.62,70.55c-.78-.24-1.51-.53-2.28-.84"/><path class="cls-1" d="M-2.81,74.81A36.14,36.14,0,0,0,7,74.23"/><path class="cls-1" d="M1.44,77.33a42,42,0,0,1-9.43-1"/><path class="cls-1" d="M1.44,77.33c1.82,0,3.69-.07,5.54-.21"/><path class="cls-1" d="M-4.31,79.45A81,81,0,0,0,7,79.27"/><path class="cls-1" d="M-2.46,82.73A64,64,0,0,0,7,82.41"/><path class="cls-1" d="M-17.55,82.58C-10.4,84.21-1.75,84.39,7,83.75"/><path class="cls-1" d="M7,16.26c-7.6.61-14.7,0-19-2.66"/><path class="cls-1" d="M5.82,48.72c.37.15.76.29,1.16.43"/><path class="cls-1" d="M3.32,47.7h0"/><path class="cls-1" d="M3.32,47.7c.74.33,1.58.67,2.5,1"/><path class="cls-1" d="M.2,49.65l-.72-.27"/><path class="cls-1" d="M7,51.5A57.53,57.53,0,0,1,.2,49.65"/><path class="cls-1" d="M-6.48,52.76A87.71,87.71,0,0,0,7,55.17"/><path class="cls-1" d="M-12.11,56.74A110.24,110.24,0,0,0,7,58.79"/><path class="cls-1" d="M1.27,62.36c1.9.15,3.81.27,5.71.33"/><path class="cls-1" d="M-9.23,61c3.45.63,7,1.08,10.5,1.37"/><line class="cls-1" x1="-0.23" y1="86.11" x2="0.02" y2="84.13"/><line class="cls-1" x1="4.77" y1="83.8" x2="4.69" y2="82.71"/><line class="cls-1" x1="1.44" y1="77.33" x2="1.44" y2="79.55"/><line class="cls-1" x1="1.44" y1="77.33" x2="1.44" y2="77.3"/><line class="cls-1" x1="3.62" y1="70.55" x2="3.61" y2="70.46"/><line class="cls-1" x1="4.11" y1="74.55" x2="3.62" y2="70.55"/><line class="cls-1" x1="5.52" y1="70.88" x2="5.94" y2="67.38"/><line class="cls-1" x1="1.02" y1="66.21" x2="1.27" y2="62.36"/><line class="cls-1" x1="1.27" y1="62.34" x2="1.27" y2="62.36"/><line class="cls-1" x1="3.27" y1="54.71" x2="2.96" y2="58.53"/><line class="cls-1" x1="-0.79" y1="53.96" x2="0.2" y2="49.65"/><line class="cls-1" x1="0.21" y1="49.59" x2="0.2" y2="49.65"/><line class="cls-1" x1="5.82" y1="48.72" x2="5.84" y2="48.65"/><line class="cls-1" x1="5.21" y1="51.03" x2="5.82" y2="48.72"/><line class="cls-1" x1="1.71" y1="48.4" x2="0.15" y2="45.22"/><line class="cls-1" x1="0.15" y1="45.22" x2="0.15" y2="45.21"/><line class="cls-1" x1="3.27" y1="26.34" x2="1.84" y2="24.53"/><line class="cls-1" x1="4.36" y1="27.63" x2="3.94" y2="30.13"/><line class="cls-1" x1="4.86" y1="36.62" x2="5.02" y2="33.3"/><line class="cls-1" x1="4.86" y1="36.62" x2="4.86" y2="36.63"/><line class="cls-1" x1="3.02" y1="39.53" x2="3.02" y2="39.46"/><line class="cls-1" x1="3.02" y1="39.53" x2="2.86" y2="41.71"/><line class="cls-1" x1="6.98" y1="45.34" x2="6.98" y2="45.46"/><line class="cls-1" x1="6.98" y1="66.53" x2="6.98" y2="66.56"/><line class="cls-1" x1="6.98" y1="24.28" x2="6.98" y2="24.34"/><rect class="cls-2" x="-78.06" y="13.6" width="85.04" height="85.04"/><rect class="cls-2" width="85.33" height="85.33"/></svg>