<!-- Generator: Adobe Illustrator 22.1.0, SVG Export Plug-In  -->
<svg version="1.1"
     xmlns="http://www.w3.org/2000/svg" xmlns:xlink="http://www.w3.org/1999/xlink" xmlns:a="http://ns.adobe.com/AdobeSVGViewerExtensions/3.0/"
     x="0px" y="0px" width="54.1px" height="54.3px" viewBox="0 0 54.1 54.3" style="enable-background:new 0 0 54.1 54.3;"
     xml:space="preserve">
<style type="text/css">
    .st0{clip-path:url(#SVGID_2_);fill:none;stroke:#000000;stroke-width:0.3;}
    .st1{clip-path:url(#SVGID_2_);fill:none;stroke:#000000;stroke-width:0.7;stroke-linecap:round;}
    .st2{clip-path:url(#SVGID_4_);fill:none;stroke:#000000;stroke-width:0.3;}
    .st3{clip-path:url(#SVGID_4_);fill:none;stroke:#000000;stroke-width:0.7;stroke-linecap:round;}
</style>
<defs>
</defs>
<g>
    <defs>
        <rect id="SVGID_1_" x="0.1" y="0.1" width="54" height="54"/>
    </defs>
    <clipPath id="SVGID_2_">
        <use xlink:href="#SVGID_1_"  style="overflow:visible;"/>
    </clipPath>
    <path class="st0" d="M38.4,6.9c-3.2,1-6.4,2-9.6,2.8"/>
    <path class="st0" d="M22.1,11.4c2.2-0.5,4.4-1.1,6.7-1.7"/>
    <path class="st0" d="M47,3.9c2.5-1,4.9-2,7.1-3"/>
    <path class="st0" d="M47,3.9c-2.7,1.1-5.6,2.1-8.6,3"/>
    <path class="st0" d="M5.2,14.6c4.1-0.5,10.1-1.6,16.9-3.2"/>
    <line class="st0" x1="0.1" y1="0.9" x2="1.7" y2="0.1"/>
    <line class="st0" x1="1.8" y1="54.1" x2="3.7" y2="53.2"/>
    <line class="st0" x1="3.8" y1="53.2" x2="3.7" y2="53.2"/>
    <path class="st0" d="M32.6,50.9c4.4,1.3,9.1,2.4,14.1,3.2"/>
    <path class="st0" d="M4.6,40.1c-0.1,0-0.1,0-0.2-0.1"/>
    <path class="st0" d="M19.8,46.5c-5.9-2.3-11.1-4.7-15.2-6.5"/>
    <path class="st0" d="M19.8,46.5c3.9,1.5,8.2,3,12.8,4.4"/>
    <path class="st0" d="M22.1,37.2c-1.5,0.3-3,0.6-4.5,0.9"/>
    <path class="st0" d="M0.1,40.5c1.5-0.1,3-0.2,4.5-0.4"/>
    <path class="st0" d="M31.2,35c-3,0.7-6.1,1.5-9.2,2.1"/>
    <path class="st0" d="M46.2,30.9c-4.4,1.3-9.5,2.8-15,4.1"/>
    <path class="st0" d="M17.6,38.1c-4.4,0.8-8.8,1.5-13,2"/>
    <path class="st0" d="M46.2,30.9c3-0.9,5.6-1.8,7.8-2.5"/>
    <path class="st0" d="M54.1,12.9c-0.4-0.2-0.9-0.3-1.3-0.5"/>
    <path class="st0" d="M38.3,6.8c0,0,0.1,0,0.1,0.1"/>
    <path class="st0" d="M52.8,12.5c-6.4-2.3-11.4-4.3-14.4-5.6"/>
    <path class="st0" d="M48.6,40.6c1.8,0,3.6-0.1,5.5-0.2"/>
    <path class="st0" d="M38,40.3c-4.1-0.3-11.5-1-16-3.2"/>
    <line class="st0" x1="22.1" y1="37.1" x2="22.1" y2="37.2"/>
    <path class="st0" d="M48.6,40.6c-0.2,0-0.3,0-0.5,0c0,0-5,0-7.7-0.2c-0.5,0-1.3-0.1-2.4-0.2"/>
    <path class="st0" d="M48.4,25.3c1.9,0.3,3.8,0.5,5.6,0.7"/>
    <path class="st0" d="M19.8,19.2c8.9,2.5,18.8,4.7,28.6,6.1"/>
    <path class="st0" d="M19.8,19.2c-7.3-2-14-4.2-19.8-6.2"/>
    <path class="st0" d="M0.1,12.4c10-1,33.1-3.9,46.2-8.4"/>
    <path class="st0" d="M0.1,8c13.6-0.7,35.1-2.3,49.2-7.4"/>
    <path class="st0" d="M0.1,3.9c12.5-0.1,30.3-1.1,42.7-3.8"/>
    <path class="st0" d="M44.6,53.8c-0.5,0.1-1,0.2-1.6,0.4"/>
    <path class="st0" d="M38.4,52.6C26.9,53.8,14,53.7,3.7,53.2"/>
    <path class="st0" d="M3.7,53.2c-1.3-0.1-2.5-0.1-3.7-0.2"/>
    <path class="st0" d="M15.2,13c1,0.5,2.1,0.9,3.2,1.3"/>
    <path class="st0" d="M39.5,20.5c4.9,1,9.8,1.8,14.5,2.3"/>
    <path class="st0" d="M18.4,14.3c6.7,2.7,13.9,4.7,21.1,6.2"/>
    <path class="st0" d="M22.1,11.4c0.9,0.4,1.9,0.8,3.1,1.3"/>
    <path class="st0" d="M22.1,11.4c-0.1,0-0.1-0.1-0.2-0.1"/>
    <path class="st0" d="M25.2,12.7c6.6,2.5,17.8,5.4,28.9,7.2"/>
    <path class="st0" d="M31.9,10.9c2.7,1.1,5.9,2.3,9.6,3.6"/>
    <path class="st0" d="M28.8,9.7c0,0-0.1,0-0.1,0"/>
    <path class="st0" d="M54.1,18c-4.5-0.9-8.7-2.2-12.5-3.4"/>
    <path class="st0" d="M31.9,10.9c-1.2-0.5-2.2-0.9-3.1-1.3"/>
    <path class="st0" d="M34.4,8.1c7.4,3,10.9,5.2,19.7,6.7"/>
    <path class="st0" d="M26.1,20.9c-6.5,1.3-16.2,0.6-26-1"/>
    <path class="st0" d="M0.1,18c0.2,0,0.3,0.1,0.5,0.1"/>
    <path class="st0" d="M19.8,19.2c0.1,0,0.2,0,0.3,0"/>
    <path class="st0" d="M7.9,19.2c4,0.4,8,0.5,11.9,0"/>
    <path class="st0" d="M7.9,19.2c-2.5-0.3-4.9-0.6-7.3-1.1"/>
    <path class="st0" d="M8.8,16c-3.2-0.3-5.9-0.7-8.2-1"/>
    <path class="st0" d="M0.1,14.9c0.2,0,0.3,0.1,0.5,0.1"/>
    <line class="st0" x1="52.8" y1="12.5" x2="52.8" y2="12.5"/>
    <path class="st0" d="M54.1,12.4c-0.5,0-0.9,0.1-1.3,0.1"/>
    <path class="st0" d="M54.1,8c-5.8,0.3-10.1,0.4-11.8,0.5"/>
    <path class="st0" d="M47,3.9C49,3.9,51.4,4,54.1,3.9"/>
    <path class="st0" d="M47,3.9C46.9,3.9,46.9,3.9,47,3.9"/>
    <path class="st0" d="M5.3,26.4c-1.6-0.1-3.1-0.2-4.6-0.3"/>
    <path class="st0" d="M15.1,26.7c10.3,0.1,20.1-0.6,26.5-2.4"/>
    <path class="st0" d="M0.1,26c0.2,0,0.4,0,0.6,0"/>
    <path class="st0" d="M5.3,26.4c3.3,0.2,6.6,0.3,9.8,0.3"/>
    <path class="st0" d="M21,30.4C14,31,6.8,31.2,0.1,31.1"/>
    <path class="st0" d="M48.4,25.3c-7.1,2.6-17,4.2-27.4,5.1"/>
    <path class="st0" d="M48.4,25.3C48.4,25.3,48.4,25.3,48.4,25.3"/>
    <path class="st0" d="M0.1,36.4c21.4-1.6,47-8.1,54-10.1"/>
    <path class="st0" d="M46.2,30.9C46.2,30.9,46.2,30.9,46.2,30.9"/>
    <path class="st0" d="M46.2,30.9c2.5,0.1,5.1,0.2,7.8,0.2"/>
    <path class="st0" d="M31.2,35C31.2,35,31.2,35,31.2,35"/>
    <path class="st0" d="M31.2,35c2.7,0.9,7.1,1.3,9.3,1.5c2.2,0.2,5.1,0.3,5.1,0.3c2.7,0,5.6-0.2,8.5-0.4"/>
    <path class="st0" d="M32.6,50.9c-7.2,0.3-19.5,0.2-32.5-1.2"/>
    <path class="st0" d="M32.6,50.9c0,0,0.1,0,0.1,0"/>
    <path class="st0" d="M15.7,48.5c-4.2-0.1-9.2-0.5-15.7-1.6"/>
    <path class="st0" d="M24.4,48.3c-2.4,0.2-5.2,0.3-8.7,0.2"/>
    <path class="st0" d="M2.9,45.1C2,44.9,1,44.7,0.1,44.6"/>
    <path class="st0" d="M19.8,46.5c-3.1,0.1-9.3-0.2-16.9-1.5"/>
    <path class="st0" d="M19.8,46.5C19.8,46.5,19.8,46.5,19.8,46.5"/>
    <path class="st0" d="M15.4,44.8c-4.2,0-8-0.5-15.4-3.6"/>
    <path class="st0" d="M17.6,41c-1.6-0.6-3.1-1.3-4.6-2.1"/>
    <path class="st0" d="M17.6,41c10.5,4.4,21.2,6.3,21.2,6.3c5,1.1,10.2,1.8,15.2,2.4"/>
    <path class="st0" d="M20.2,37.6c4.9,2.4,17.2,5.9,17.2,5.9c6.4,1.5,11.9,2.6,16.6,3.4"/>
    <line class="st0" x1="38" y1="40.3" x2="37.9" y2="40.3"/>
    <path class="st0" d="M38,40.3l4.4,1.4c4,1.2,7.9,2.1,11.6,2.8"/>
    <path class="st0" d="M52.9,40.6c0.4,0.2,0.8,0.3,1.1,0.5"/>
    <path class="st0" d="M39.6,51.4c1.7,0.4,2.5,0.5,2.5,0.5l0.3,0.1c2.6,0.3,6.2,0.7,10.7,0.9"/>
    <path class="st0" d="M39.6,51.4c-2.9-0.6-8.3-1.8-16.5-3.7"/>
    <path class="st0" d="M53.1,53c0.3,0,0.7,0,1,0.1"/>
    <path class="st0" d="M36.2,23.1c-5.8,1.1-20,1.6-36.2-0.4"/>
    <path class="st0" d="M0.1,26.3c0.1,0,0.1,0,0.2-0.1l0.4-0.2"/>
    <line class="st0" x1="0.7" y1="26" x2="0.6" y2="26.1"/>
    <path class="st0" d="M5.3,26.4l-0.2,0.1c-1.1,0.5-2.8,1.1-5,1.9"/>
    <line class="st0" x1="5.3" y1="26.4" x2="5.4" y2="26.3"/>
    <path class="st0" d="M46.7,0.1c2.3,0.4,4.6,0.7,7,0.9"/>
    <path class="st0" d="M11.9,5.3c0-0.9-3-0.9-3,0.2C8.9,6.3,11.9,6.4,11.9,5.3z"/>
    <path class="st0" d="M29.8,16.2c-0.3,0.8,2.5,1.9,2.9,0.9C33,16.2,30.1,15.2,29.8,16.2z"/>
    <path class="st0" d="M7.1,28.8c0,0.8,3,1,3-0.1C10.1,27.8,7.1,27.7,7.1,28.8z"/>
    <path class="st0" d="M33.7,37.9c-0.2,0.8,2.8,1.5,3,0.4C36.9,37.4,33.9,36.8,33.7,37.9z"/>
    <path class="st0" d="M26.1,46.3c-0.2,0.8,2.8,1.5,3,0.4C29.2,45.9,26.3,45.3,26.1,46.3z"/>
    <path class="st0" d="M48.6,47.4c0.2-0.9-2.8-1.5-3-0.4C45.5,47.8,48.4,48.4,48.6,47.4z"/>
    <path class="st0" d="M0.5,33.8c0.1,0.8,3.1,0.7,3-0.4C3.4,32.5,0.4,32.7,0.5,33.8z"/>
    <path class="st0" d="M44.9,22.8c-0.3,0.8,2.5,1.9,2.9,0.9C48.1,22.8,45.3,21.8,44.9,22.8z"/>
    <path class="st0" d="M42.3,3.8c0,0.5,1.8,0.6,1.8-0.1C44.1,3.1,42.3,3.1,42.3,3.8z"/>
    <path class="st0" d="M33,3.4c0-0.5-1.8-0.5-1.8,0.1C31.2,4,33,4.1,33,3.4z"/>
    <path class="st0" d="M53.1,6.3c0-0.5-1.8-0.5-1.8,0.1C51.3,6.9,53.1,7,53.1,6.3z"/>
    <path class="st0" d="M6.7,13c0-0.5-1.8-0.5-1.8,0.1C4.9,13.6,6.7,13.7,6.7,13z"/>
    <path class="st0" d="M24.8,35.1c0-0.5-1.8-0.5-1.8,0.1C23,35.7,24.8,35.8,24.8,35.1z"/>
    <path class="st0" d="M40.9,9.5c0.3-0.5-1.4-1.3-1.6-0.7C39.1,9.2,40.6,10.1,40.9,9.5z"/>
    <path class="st0" d="M4.6,37.9c0,0.5,1.7,0.7,1.8,0.1C6.4,37.4,4.7,37.2,4.6,37.9z"/>
    <path class="st0" d="M2.9,43.4c0-0.5-1.7-0.7-1.8-0.1C1.1,43.9,2.8,44.1,2.9,43.4z"/>
    <path class="st0" d="M16.6,32.6c0-0.5-1.7-0.7-1.8-0.1C14.7,33.1,16.5,33.3,16.6,32.6z"/>
    <path class="st0" d="M6.6,48.9c0-0.5-1.7-0.7-1.8-0.1C4.8,49.4,6.6,49.6,6.6,48.9z"/>
    <path class="st0" d="M17.9,52.1c0,0.5,1.7,0.7,1.8,0.1C19.8,51.6,18,51.5,17.9,52.1z"/>
    <path class="st0" d="M20.1,22.8c0-0.5-1.7-0.7-1.8-0.1C18.2,23.3,20,23.5,20.1,22.8z"/>
    <path class="st0" d="M35.2,21c0-0.5-1.7-0.7-1.8-0.1C33.3,21.5,35.1,21.7,35.2,21z"/>
    <path class="st0" d="M3.1,21.5c0-0.5-1.7-0.7-1.8-0.1C1.2,21.9,3,22.1,3.1,21.5z"/>
    <path class="st0" d="M31.4,30.7c0-0.5-1.7-0.7-1.8-0.1C29.5,31.1,31.3,31.4,31.4,30.7z"/>
    <path class="st0" d="M22.5,7.7c0,0.8,3,0.9,3-0.2C25.5,6.6,22.5,6.6,22.5,7.7z"/>
    <path class="st0" d="M50.3,15.6c0.3-0.9-2.6-1.8-2.9-0.8C47.1,15.7,49.9,16.7,50.3,15.6z"/>
    <line class="st0" x1="11.2" y1="9.8" x2="8.7" y2="8.8"/>
    <line class="st0" x1="30.6" y1="32.8" x2="33.1" y2="33.8"/>
    <line class="st0" x1="18.2" y1="24.9" x2="20.7" y2="25.9"/>
    <line class="st0" x1="43.8" y1="6.2" x2="46.3" y2="7.2"/>
    <line class="st0" x1="23.2" y1="19" x2="21.9" y2="17.1"/>
    <line class="st0" x1="26.9" y1="29.3" x2="25.7" y2="27.4"/>
    <line class="st0" x1="40.1" y1="46.6" x2="38.8" y2="44.7"/>
    <line class="st0" x1="41.2" y1="37.9" x2="42.4" y2="39.8"/>
    <line class="st0" x1="17.6" y1="44.1" x2="16.3" y2="42.2"/>
    <line class="st0" x1="5.9" y1="51.3" x2="7.2" y2="53.2"/>
    <line class="st0" x1="34.7" y1="16.8" x2="35.9" y2="18.7"/>
    <line class="st0" x1="2.5" y1="28.6" x2="3.8" y2="30.5"/>
    <line class="st0" x1="27.1" y1="1.6" x2="24.6" y2="0.6"/>
    <line class="st0" x1="2.3" y1="5.3" x2="4.8" y2="6.3"/>
    <line class="st0" x1="29.4" y1="6.1" x2="27.6" y2="7.4"/>
    <line class="st0" x1="29.3" y1="42.3" x2="27.6" y2="43.6"/>
    <line class="st0" x1="50.2" y1="51.7" x2="52" y2="50.4"/>
    <line class="st0" x1="23.4" y1="49.3" x2="21.6" y2="50.6"/>
    <line class="st0" x1="42.2" y1="33.8" x2="40.5" y2="35.1"/>
    <line class="st0" x1="8.8" y1="25.9" x2="10.5" y2="24.6"/>
    <line class="st0" x1="13.3" y1="37.5" x2="15.3" y2="36.8"/>
    <line class="st0" x1="21.6" y1="5.3" x2="23.4" y2="3.9"/>
    <line class="st0" x1="29.6" y1="19.4" x2="27.4" y2="19.8"/>
    <line class="st0" x1="7.6" y1="1.5" x2="5.9" y2="2.8"/>
    <line class="st0" x1="11.5" y1="3.6" x2="11.5" y2="0.1"/>
    <line class="st0" x1="30.8" y1="2" x2="30.8" y2="0.1"/>
    <line class="st0" x1="11.5" y1="54.1" x2="11.5" y2="53.6"/>
    <line class="st0" x1="30.8" y1="54.1" x2="30.8" y2="53.2"/>
    <line class="st0" x1="15.4" y1="6.9" x2="15.4" y2="3.5"/>
    <line class="st0" x1="2.3" y1="8" x2="2.3" y2="12.1"/>
    <line class="st0" x1="34.9" y1="4.3" x2="34.9" y2="7"/>
    <line class="st0" x1="48.2" y1="3.9" x2="48.2" y2="8.2"/>
    <line class="st0" x1="17.6" y1="10.2" x2="17.6" y2="12.4"/>
    <line class="st0" x1="0.6" y1="18.1" x2="0.6" y2="14.9"/>
    <line class="st0" x1="0.6" y1="14.9" x2="0.6" y2="14.9"/>
    <line class="st0" x1="0.6" y1="18.1" x2="0.6" y2="18.1"/>
    <line class="st0" x1="25.2" y1="12.7" x2="25.2" y2="12.6"/>
    <line class="st0" x1="25.2" y1="12.7" x2="25.2" y2="16.6"/>
    <line class="st0" x1="31.9" y1="10.9" x2="31.9" y2="14.8"/>
    <line class="st0" x1="31.9" y1="10.9" x2="31.9" y2="10.9"/>
    <line class="st0" x1="41.6" y1="14.6" x2="41.6" y2="14.5"/>
    <line class="st0" x1="41.6" y1="11.3" x2="41.6" y2="14.5"/>
    <line class="st0" x1="36.9" y1="19.8" x2="36.9" y2="16.3"/>
    <line class="st0" x1="18.4" y1="14.3" x2="18.4" y2="14.3"/>
    <line class="st0" x1="18.4" y1="14.3" x2="18.4" y2="18.7"/>
    <line class="st0" x1="39.5" y1="20.5" x2="39.5" y2="20.4"/>
    <line class="st0" x1="39.5" y1="20.5" x2="39.5" y2="23.8"/>
    <line class="st0" x1="50.5" y1="25.5" x2="50.5" y2="22.4"/>
    <line class="st0" x1="27.5" y1="21.3" x2="27.5" y2="24"/>
    <line class="st0" x1="48.3" y1="30.2" x2="48.3" y2="27.9"/>
    <line class="st0" x1="36.6" y1="33.6" x2="36.6" y2="30.8"/>
    <line class="st0" x1="31.1" y1="29.1" x2="31.1" y2="26.1"/>
    <line class="st0" x1="12.2" y1="26.6" x2="12.2" y2="23.9"/>
    <line class="st0" x1="7.9" y1="19.2" x2="7.9" y2="19.2"/>
    <line class="st0" x1="7.9" y1="19.2" x2="7.9" y2="20.8"/>
    <line class="st0" x1="15.1" y1="26.7" x2="15.1" y2="26.7"/>
    <line class="st0" x1="15.1" y1="30.7" x2="15.1" y2="26.7"/>
    <line class="st0" x1="6.4" y1="31.2" x2="6.4" y2="35.8"/>
    <line class="st0" x1="21" y1="30.4" x2="21" y2="33.6"/>
    <line class="st0" x1="21" y1="30.3" x2="21" y2="30.4"/>
    <line class="st0" x1="9.8" y1="39.2" x2="9.8" y2="35.5"/>
    <line class="st0" x1="50.2" y1="36.6" x2="50.2" y2="31.1"/>
    <line class="st0" x1="27.4" y1="36" x2="27.4" y2="38.8"/>
    <line class="st0" x1="48.6" y1="40.6" x2="48.6" y2="43.3"/>
    <line class="st0" x1="48.6" y1="40.6" x2="48.6" y2="40.6"/>
    <line class="st0" x1="31.7" y1="41.8" x2="31.7" y2="45.6"/>
    <line class="st0" x1="17.6" y1="41" x2="17.6" y2="41"/>
    <line class="st0" x1="17.6" y1="37.9" x2="17.6" y2="38.1"/>
    <line class="st0" x1="17.6" y1="41" x2="17.6" y2="38.1"/>
    <line class="st0" x1="21.7" y1="47.2" x2="21.7" y2="42.6"/>
    <line class="st0" x1="39.6" y1="51.4" x2="39.6" y2="47.5"/>
    <line class="st0" x1="39.6" y1="51.4" x2="39.6" y2="51.4"/>
    <line class="st0" x1="9.4" y1="42.2" x2="9.4" y2="44.2"/>
    <line class="st0" x1="2.9" y1="45.1" x2="2.9" y2="45"/>
    <line class="st0" x1="2.9" y1="45.1" x2="2.9" y2="47.3"/>
    <line class="st0" x1="15.7" y1="48.5" x2="15.7" y2="50.8"/>
    <line class="st0" x1="15.7" y1="48.5" x2="15.7" y2="48.4"/>
    <line class="st0" x1="4.4" y1="53.3" x2="4.4" y2="50.1"/>
    <line class="st0" x1="25.5" y1="53.4" x2="25.5" y2="51.1"/>
    <line class="st0" x1="42.3" y1="52" x2="42.3" y2="53.3"/>
    <line class="st1" x1="52.9" y1="3" x2="52.9" y2="3"/>
    <line class="st1" x1="15.6" y1="8.6" x2="15.6" y2="8.6"/>
    <line class="st1" x1="14.4" y1="15.3" x2="14.4" y2="15.3"/>
    <line class="st1" x1="4.3" y1="17.1" x2="4.3" y2="17.1"/>
    <line class="st1" x1="13.9" y1="20.5" x2="13.9" y2="20.5"/>
    <line class="st1" x1="29.2" y1="11.9" x2="29.2" y2="11.9"/>
    <line class="st1" x1="52.1" y1="18.5" x2="52.1" y2="18.5"/>
    <line class="st1" x1="39.6" y1="4.6" x2="39.6" y2="4.6"/>
    <line class="st1" x1="41.1" y1="1.6" x2="41.1" y2="1.6"/>
    <line class="st1" x1="42.1" y1="19" x2="42.1" y2="19"/>
    <line class="st1" x1="45.1" y1="10.8" x2="45.1" y2="10.8"/>
    <line class="st1" x1="36.9" y1="10.8" x2="36.9" y2="10.8"/>
    <line class="st1" x1="51.2" y1="9.8" x2="51.2" y2="9.8"/>
    <line class="st1" x1="20.6" y1="1.5" x2="20.6" y2="1.5"/>
    <line class="st1" x1="11.3" y1="33.4" x2="11.3" y2="33.4"/>
    <line class="st1" x1="4.9" y1="24.6" x2="4.9" y2="24.6"/>
    <line class="st1" x1="26.9" y1="25.1" x2="26.9" y2="25.1"/>
    <line class="st1" x1="37.9" y1="26.6" x2="37.9" y2="26.6"/>
    <line class="st1" x1="46.9" y1="41.6" x2="46.9" y2="41.6"/>
    <line class="st1" x1="38.2" y1="42" x2="38.2" y2="42"/>
    <line class="st1" x1="30.6" y1="37.5" x2="30.6" y2="37.5"/>
    <line class="st1" x1="19.7" y1="35.8" x2="19.7" y2="35.8"/>
    <line class="st1" x1="45.2" y1="33.5" x2="45.2" y2="33.5"/>
    <line class="st1" x1="52.2" y1="45.4" x2="52.2" y2="45.4"/>
    <line class="st1" x1="50.6" y1="38.4" x2="50.6" y2="38.4"/>
    <line class="st1" x1="42.2" y1="50.3" x2="42.2" y2="50.3"/>
    <line class="st1" x1="1.8" y1="37.8" x2="1.8" y2="37.8"/>
    <line class="st1" x1="20.9" y1="28.5" x2="20.9" y2="28.5"/>
    <line class="st1" x1="34.9" y1="32.3" x2="34.9" y2="32.3"/>
    <line class="st1" x1="31.9" y1="47.9" x2="31.9" y2="47.9"/>
    <line class="st1" x1="22.6" y1="40.6" x2="22.6" y2="40.6"/>
    <line class="st1" x1="12.2" y1="41.6" x2="12.2" y2="41.6"/>
    <line class="st1" x1="6.9" y1="44.6" x2="6.9" y2="44.6"/>
    <line class="st1" x1="1.7" y1="48.6" x2="1.7" y2="48.6"/>
    <line class="st1" x1="11.7" y1="51.9" x2="11.7" y2="51.9"/>
    <line class="st1" x1="32.2" y1="51.9" x2="32.2" y2="51.9"/>
</g>
</svg>
