<svg id="Layer_1" data-name="Layer 1" xmlns="http://www.w3.org/2000/svg" width="54.13" height="54.3" viewBox="0 0 54.13 54.3"><defs><style>.cls-1,.cls-2,.cls-3{fill:none;}.cls-1,.cls-2{stroke:#000;}.cls-1{stroke-width:0.3px;}.cls-2{stroke-linecap:round;stroke-width:0.7px;}</style></defs><title>Artboard 37</title><line class="cls-1" x1="19.74" y1="7.6" x2="21.69" y2="6.69"/><line class="cls-1" x1="21.77" y1="6.65" x2="21.69" y2="6.69"/><path class="cls-1" d="M50.53,4.35A119.28,119.28,0,0,0,64.62,7.6"/><path class="cls-1" d="M37.76,0C31.81-2.34,26.67-4.69,22.51-6.5"/><path class="cls-1" d="M37.76,0C41.68,1.5,46,3,50.53,4.35"/><path class="cls-1" d="M56.4,6a226.52,226.52,0,0,1-34.71.68"/><path class="cls-1" d="M21.69,6.69c-1.26-.07-2.49-.13-3.67-.21"/><path class="cls-1" d="M50.53,4.35A231.34,231.34,0,0,1,18,3.11"/><path class="cls-1" d="M50.53,4.35h.12"/><path class="cls-1" d="M33.69,1.92A119.94,119.94,0,0,1,18,.37"/><path class="cls-1" d="M42.4,1.72c-2.43.17-5.25.29-8.71.2"/><path class="cls-1" d="M37.76,0a100.3,100.3,0,0,1-16.9-1.46"/><path class="cls-1" d="M37.76,0h0"/><path class="cls-1" d="M35.53-5.54A115,115,0,0,0,56.77.72C61.78,1.78,67,2.55,72,3.12"/><path class="cls-1" d="M38.15-8.9C43-6.53,55.4-3,55.4-3,61.79-1.48,67.27-.39,72,.37"/><path class="cls-1" d="M57.55,4.84c-2.87-.61-8.28-1.78-16.47-3.68"/><path class="cls-1" d="M44-.2c-.17.81,2.76,1.49,3,.42C47.19-.67,44.25-1.24,44-.2Z"/><path class="cls-1" d="M24.61,2.39c0-.55-1.75-.69-1.81-.06S24.55,3,24.61,2.39Z"/><path class="cls-1" d="M35.89,5.54c0,.5,1.74.71,1.8.06S35.94,4.91,35.89,5.54Z"/><line class="cls-1" x1="23.88" y1="4.77" x2="25.15" y2="6.66"/><line class="cls-1" x1="41.35" y1="2.7" x2="39.6" y2="4.04"/><line class="cls-1" x1="29.47" y1="7.6" x2="29.47" y2="7"/><line class="cls-1" x1="48.74" y1="7.6" x2="48.74" y2="6.69"/><line class="cls-1" x1="39.64" y1="0.63" x2="39.64" y2="-3.93"/><line class="cls-1" x1="20.86" y1="-1.49" x2="20.86" y2="0.71"/><line class="cls-1" x1="33.69" y1="1.92" x2="33.69" y2="4.21"/><line class="cls-1" x1="33.69" y1="1.92" x2="33.69" y2="1.85"/><line class="cls-1" x1="22.41" y1="6.71" x2="22.41" y2="3.57"/><line class="cls-1" x1="43.49" y1="6.82" x2="43.49" y2="4.55"/><line class="cls-2" x1="49.9" y1="1.35" x2="49.9" y2="1.35"/><line class="cls-2" x1="19.65" y1="2.1" x2="19.65" y2="2.1"/><line class="cls-2" x1="29.65" y1="5.35" x2="29.65" y2="5.35"/><line class="cls-2" x1="50.15" y1="5.35" x2="50.15" y2="5.35"/><rect class="cls-3" x="18.02" y="-46.4" width="54" height="54"/><path class="cls-1" d="M56.35,14.33c-3.17,1-6.39,2-9.55,2.81"/><path class="cls-1" d="M40.06,18.86c2.19-.52,4.45-1.1,6.74-1.72"/><path class="cls-1" d="M23.19,22.1a159,159,0,0,0,16.87-3.24"/><line class="cls-1" x1="18.02" y1="8.35" x2="19.63" y2="7.6"/><path class="cls-1" d="M22.51,47.5l-.16-.07"/><path class="cls-1" d="M37.76,54c-5.95-2.31-11.09-4.66-15.25-6.47"/><path class="cls-1" d="M37.76,54C41.68,55.5,46,57,50.53,58.35"/><path class="cls-1" d="M40,44.6c-1.5.32-3,.62-4.5.91"/><path class="cls-1" d="M18,47.9c1.46-.1,3-.23,4.49-.4"/><path class="cls-1" d="M49.19,42.49c-3,.74-6.06,1.46-9.16,2.11"/><path class="cls-1" d="M64.2,38.34c-4.4,1.34-9.54,2.79-15,4.15"/><path class="cls-1" d="M35.53,45.51c-4.41.84-8.82,1.53-13,2"/><path class="cls-1" d="M56,47.78c-4.13-.3-11.55-1-16-3.18"/><path class="cls-1" d="M40,44.6h0"/><path class="cls-1" d="M37.79,26.63a225.42,225.42,0,0,0,28.6,6.08"/><path class="cls-1" d="M37.79,26.63c-7.31-2-14-4.2-19.77-6.22"/><path class="cls-1" d="M18,19.81c10-1,33.12-3.92,46.17-8.38"/><path class="cls-1" d="M18,15.47C31.59,14.82,53.11,13.14,67.23,8"/><path class="cls-1" d="M18,11.39c12.5-.09,30.29-1.1,42.73-3.79"/><path class="cls-1" d="M33.19,20.43c1,.46,2.1.91,3.17,1.34"/><path class="cls-1" d="M36.36,21.77a127.08,127.08,0,0,0,21.13,6.15"/><path class="cls-1" d="M40.06,18.86c.86.41,1.89.84,3.08,1.28"/><path class="cls-1" d="M40.06,18.86l-.21-.09"/><path class="cls-1" d="M43.14,20.14A166.83,166.83,0,0,0,72,27.32"/><path class="cls-1" d="M49.91,18.4c2.67,1.07,5.93,2.35,9.6,3.58"/><path class="cls-1" d="M46.8,17.14l-.11,0"/><path class="cls-1" d="M49.91,18.4,46.8,17.14"/><path class="cls-1" d="M52.35,15.6c7.45,3,10.9,5.19,19.67,6.72"/><path class="cls-1" d="M44,28.34c-6.45,1.26-16.2.56-26-1"/><path class="cls-1" d="M18,25.41l.49.1"/><path class="cls-1" d="M37.79,26.63l.27,0"/><path class="cls-1" d="M25.84,26.63a55.51,55.51,0,0,0,12,0"/><path class="cls-1" d="M25.84,26.63c-2.48-.25-4.93-.64-7.33-1.12"/><path class="cls-1" d="M26.73,23.43c-3.22-.3-5.9-.65-8.22-1"/><path class="cls-1" d="M18,22.31l.49.08"/><path class="cls-1" d="M23.23,33.81c-1.56-.08-3.11-.18-4.64-.3"/><path class="cls-1" d="M33.07,34.13c10.32.1,20.13-.61,26.52-2.44"/><path class="cls-1" d="M18,33.46l.57,0"/><path class="cls-1" d="M23.23,33.81c3.27.19,6.58.3,9.84.32"/><path class="cls-1" d="M39,37.83c-7,.58-14.19.81-20.93.74"/><path class="cls-1" d="M66.39,32.71c-7.08,2.6-17,4.25-27.44,5.12"/><path class="cls-1" d="M18,43.89c21.37-1.64,47-8.09,54-10.11"/><path class="cls-1" d="M49.19,42.49l0,0"/><path class="cls-1" d="M49.19,42.49A44.51,44.51,0,0,0,58.46,44c2.19.19,5.06.3,5.06.3,2.72,0,5.57-.16,8.5-.38"/><path class="cls-1" d="M33.69,55.92A119.94,119.94,0,0,1,18,54.37"/><path class="cls-1" d="M20.86,52.51c-.93-.15-1.88-.32-2.84-.5"/><path class="cls-1" d="M37.76,54a100.3,100.3,0,0,1-16.9-1.46"/><path class="cls-1" d="M37.76,54h0"/><path class="cls-1" d="M33.4,52.22c-4.17,0-8-.45-15.38-3.63"/><path class="cls-1" d="M35.53,48.46c-1.56-.65-3.12-1.35-4.63-2.11"/><path class="cls-1" d="M35.53,48.46a115,115,0,0,0,21.24,6.26c5,1.06,10.18,1.83,15.25,2.4"/><path class="cls-1" d="M38.15,45.1C43,47.47,55.4,51,55.4,51c6.39,1.55,11.87,2.64,16.62,3.4"/><path class="cls-1" d="M54.19,30.6c-5.77,1.12-20,1.56-36.17-.36"/><path class="cls-1" d="M18,33.78l.2-.06.37-.21"/><line class="cls-1" x1="18.65" y1="33.47" x2="18.59" y2="33.51"/><path class="cls-1" d="M23.23,33.81l-.21.12c-1.09.47-2.8,1.12-5,1.88"/><line class="cls-1" x1="23.23" y1="33.81" x2="23.4" y2="33.72"/><path class="cls-1" d="M29.85,12.77c0-.92-3-.89-3,.16C26.85,13.77,29.85,13.85,29.85,12.77Z"/><path class="cls-1" d="M47.73,23.67c-.28.79,2.52,1.88,2.88.86C50.92,23.67,48.09,22.68,47.73,23.67Z"/><path class="cls-1" d="M25.08,36.23c0,.84,3,1,3-.11C28.09,35.2,25.09,35.18,25.08,36.23Z"/><path class="cls-1" d="M51.66,45.32c-.16.81,2.76,1.49,3,.43C54.82,44.85,51.87,44.28,51.66,45.32Z"/><path class="cls-1" d="M44,53.8c-.17.81,2.76,1.49,3,.42C47.19,53.33,44.25,52.76,44,53.8Z"/><path class="cls-1" d="M18.46,41.22c.06.84,3.06.72,3-.36C21.38,39.94,18.39,40.17,18.46,41.22Z"/><path class="cls-1" d="M51,10.88c0-.55-1.8-.54-1.8.09S51,11.53,51,10.88Z"/><path class="cls-1" d="M24.65,20.47c0-.55-1.8-.53-1.8.11S24.65,21.13,24.65,20.47Z"/><path class="cls-1" d="M42.77,42.6c0-.55-1.8-.53-1.8.1S42.77,43.25,42.77,42.6Z"/><path class="cls-1" d="M22.55,45.31c0,.5,1.75.71,1.81.06S22.61,44.68,22.55,45.31Z"/><path class="cls-1" d="M20.86,50.87c0-.55-1.75-.69-1.81-.06S20.8,51.52,20.86,50.87Z"/><path class="cls-1" d="M34.52,40.1c0-.55-1.75-.69-1.8-.06S34.46,40.75,34.52,40.1Z"/><path class="cls-1" d="M38,30.27c0-.55-1.75-.69-1.8-.06S38,30.92,38,30.27Z"/><path class="cls-1" d="M53.15,28.47c0-.54-1.75-.68-1.81,0S53.09,29.12,53.15,28.47Z"/><path class="cls-1" d="M21,28.93c.05-.54-1.75-.69-1.8-.06S21,29.58,21,28.93Z"/><path class="cls-1" d="M49.31,38.16c0-.55-1.74-.69-1.8-.06S49.26,38.81,49.31,38.16Z"/><path class="cls-1" d="M40.46,15.12c0,.83,3,.92,3-.17C43.46,14,40.46,14.07,40.46,15.12Z"/><line class="cls-1" x1="29.19" y1="17.27" x2="26.69" y2="16.27"/><line class="cls-1" x1="48.56" y1="40.27" x2="51.06" y2="41.27"/><line class="cls-1" x1="36.13" y1="32.39" x2="38.63" y2="33.39"/><line class="cls-1" x1="41.15" y1="26.47" x2="39.88" y2="24.58"/><line class="cls-1" x1="44.9" y1="36.72" x2="43.63" y2="34.83"/><line class="cls-1" x1="35.52" y1="51.54" x2="34.25" y2="49.64"/><line class="cls-1" x1="52.63" y1="24.27" x2="53.9" y2="26.16"/><line class="cls-1" x1="20.5" y1="36.02" x2="21.77" y2="37.91"/><line class="cls-1" x1="45.04" y1="9.04" x2="42.54" y2="8.04"/><line class="cls-1" x1="20.21" y1="12.72" x2="22.71" y2="13.72"/><line class="cls-1" x1="47.35" y1="13.52" x2="45.6" y2="14.85"/><line class="cls-1" x1="47.27" y1="49.77" x2="45.52" y2="51.1"/><line class="cls-1" x1="26.73" y1="33.35" x2="28.48" y2="32.02"/><line class="cls-1" x1="31.23" y1="44.91" x2="33.27" y2="44.22"/><line class="cls-1" x1="39.6" y1="12.72" x2="41.35" y2="11.39"/><line class="cls-1" x1="47.57" y1="26.87" x2="45.4" y2="27.24"/><line class="cls-1" x1="25.58" y1="8.93" x2="23.83" y2="10.27"/><line class="cls-1" x1="29.47" y1="11.05" x2="29.47" y2="7.6"/><line class="cls-1" x1="48.74" y1="9.48" x2="48.74" y2="7.6"/><line class="cls-1" x1="33.32" y1="14.4" x2="33.32" y2="10.96"/><line class="cls-1" x1="20.26" y1="15.46" x2="20.26" y2="19.5"/><line class="cls-1" x1="52.82" y1="11.8" x2="52.82" y2="14.42"/><line class="cls-1" x1="35.55" y1="17.63" x2="35.55" y2="19.86"/><line class="cls-1" x1="18.51" y1="25.51" x2="18.51" y2="22.39"/><line class="cls-1" x1="18.51" y1="22.38" x2="18.51" y2="22.39"/><line class="cls-1" x1="18.51" y1="25.51" x2="18.51" y2="25.55"/><line class="cls-1" x1="43.14" y1="20.14" x2="43.14" y2="20.03"/><line class="cls-1" x1="43.14" y1="20.14" x2="43.14" y2="24.07"/><line class="cls-1" x1="49.91" y1="18.4" x2="49.91" y2="22.25"/><line class="cls-1" x1="49.91" y1="18.4" x2="49.91" y2="18.38"/><line class="cls-1" x1="36.36" y1="21.77" x2="36.36" y2="21.71"/><line class="cls-1" x1="36.36" y1="21.77" x2="36.36" y2="26.15"/><line class="cls-1" x1="45.43" y1="28.71" x2="45.43" y2="31.42"/><line class="cls-1" x1="49.07" y1="36.59" x2="49.07" y2="33.55"/><line class="cls-1" x1="30.16" y1="34.03" x2="30.16" y2="31.38"/><line class="cls-1" x1="25.84" y1="26.63" x2="25.84" y2="28.3"/><line class="cls-1" x1="33.07" y1="34.13" x2="33.07" y2="34.13"/><line class="cls-1" x1="33.07" y1="38.17" x2="33.07" y2="34.13"/><line class="cls-1" x1="24.32" y1="38.63" x2="24.32" y2="43.28"/><line class="cls-1" x1="38.95" y1="37.83" x2="38.95" y2="41.03"/><line class="cls-1" x1="38.95" y1="37.8" x2="38.95" y2="37.83"/><line class="cls-1" x1="27.74" y1="46.69" x2="27.74" y2="42.96"/><line class="cls-1" x1="45.31" y1="43.48" x2="45.31" y2="46.28"/><line class="cls-1" x1="49.7" y1="49.3" x2="49.7" y2="53.05"/><line class="cls-1" x1="35.53" y1="48.46" x2="35.53" y2="48.46"/><line class="cls-1" x1="35.53" y1="45.39" x2="35.53" y2="45.51"/><line class="cls-1" x1="35.53" y1="48.46" x2="35.53" y2="45.51"/><line class="cls-1" x1="39.64" y1="54.63" x2="39.64" y2="50.07"/><line class="cls-1" x1="27.32" y1="49.66" x2="27.32" y2="51.63"/><line class="cls-1" x1="20.86" y1="52.51" x2="20.86" y2="52.49"/><line class="cls-1" x1="20.86" y1="52.51" x2="20.86" y2="54.71"/><line class="cls-2" x1="33.6" y1="16.1" x2="33.6" y2="16.1"/><line class="cls-2" x1="32.4" y1="22.72" x2="32.4" y2="22.72"/><line class="cls-2" x1="22.27" y1="24.6" x2="22.27" y2="24.6"/><line class="cls-2" x1="31.9" y1="27.97" x2="31.9" y2="27.97"/><line class="cls-2" x1="47.15" y1="19.35" x2="47.15" y2="19.35"/><line class="cls-2" x1="38.52" y1="8.93" x2="38.52" y2="8.93"/><line class="cls-2" x1="29.27" y1="40.85" x2="29.27" y2="40.85"/><line class="cls-2" x1="22.9" y1="32.1" x2="22.9" y2="32.1"/><line class="cls-2" x1="44.9" y1="32.6" x2="44.9" y2="32.6"/><line class="cls-2" x1="48.52" y1="44.97" x2="48.52" y2="44.97"/><line class="cls-2" x1="37.65" y1="43.22" x2="37.65" y2="43.22"/><line class="cls-2" x1="19.77" y1="45.22" x2="19.77" y2="45.22"/><line class="cls-2" x1="38.9" y1="35.97" x2="38.9" y2="35.97"/><line class="cls-2" x1="52.9" y1="39.72" x2="52.9" y2="39.72"/><line class="cls-2" x1="40.52" y1="48.1" x2="40.52" y2="48.1"/><line class="cls-2" x1="30.15" y1="49.1" x2="30.15" y2="49.1"/><line class="cls-2" x1="24.9" y1="52.1" x2="24.9" y2="52.1"/><rect class="cls-3" x="18.02" y="7.6" width="54" height="54"/><path class="cls-1" d="M-3.47,4.35A119.28,119.28,0,0,0,10.62,7.6"/><path class="cls-1" d="M8.52,7.24,6.94,7.6"/><path class="cls-1" d="M2.4,6a226.52,226.52,0,0,1-34.71.68"/><path class="cls-1" d="M-18.47-5.54A115,115,0,0,0,2.77.72C7.78,1.78,13,2.55,18,3.12"/><path class="cls-1" d="M-15.85-8.9C-11-6.53,1.4-3,1.4-3,7.79-1.48,13.27-.39,18,.37"/><path class="cls-1" d="M3.55,4.84,6,5.35l.33.12c2.56.31,6.25.66,10.67,1"/><path class="cls-1" d="M3.55,4.84C.68,4.23-4.73,3.06-12.92,1.16"/><path class="cls-1" d="M17,6.42l1,.06"/><path class="cls-1" d="M12.55.83c.18-.9-2.76-1.46-3-.43C9.42,1.22,12.34,1.89,12.55.83Z"/><line class="cls-1" x1="4.02" y1="0.04" x2="2.75" y2="-1.86"/><line class="cls-1" x1="14.17" y1="5.16" x2="15.92" y2="3.83"/><line class="cls-1" x1="3.55" y1="4.84" x2="3.55" y2="0.92"/><line class="cls-1" x1="3.55" y1="4.84" x2="3.55" y2="4.88"/><line class="cls-1" x1="6.3" y1="5.46" x2="6.3" y2="6.73"/><line class="cls-2" x1="6.15" y1="3.72" x2="6.15" y2="3.72"/><rect class="cls-3" x="-35.98" y="-46.4" width="54" height="54"/><path class="cls-1" d="M2.35,14.33c-3.17,1-6.39,2-9.55,2.81"/><path class="cls-1" d="M10.91,11.34c2.51-1,4.9-2,7.11-3"/><path class="cls-1" d="M10.91,11.34c-2.74,1.05-5.63,2.05-8.56,3"/><path class="cls-1" d="M10.2,38.34c-4.4,1.34-9.54,2.79-15,4.15"/><path class="cls-1" d="M10.2,38.34c3-.91,5.65-1.78,7.82-2.53"/><path class="cls-1" d="M18,20.4l-1.31-.47"/><path class="cls-1" d="M2.21,14.27l.14.06"/><path class="cls-1" d="M16.71,19.93c-6.39-2.28-11.4-4.32-14.36-5.6"/><path class="cls-1" d="M12.51,48.1c1.76,0,3.61-.07,5.51-.2"/><path class="cls-1" d="M2,47.78c-4.13-.3-11.55-1-16-3.18"/><path class="cls-1" d="M12.51,48.1H12s-5,0-7.69-.17L2,47.78"/><path class="cls-1" d="M12.39,32.71q2.82.39,5.63.69"/><path class="cls-1" d="M-16.21,26.63a225.42,225.42,0,0,0,28.6,6.08"/><path class="cls-1" d="M-36,19.81c10-1,33.12-3.92,46.17-8.38"/><path class="cls-1" d="M-36,15.47C-22.41,14.82-.89,13.14,13.23,8"/><path class="cls-1" d="M-36,11.39c12.5-.09,30.29-1.1,42.73-3.79"/><path class="cls-1" d="M3.49,27.92c4.9,1,9.8,1.76,14.53,2.32"/><path class="cls-1" d="M-17.64,21.77A127.08,127.08,0,0,0,3.49,27.92"/><path class="cls-1" d="M-10.86,20.14A166.83,166.83,0,0,0,18,27.32"/><path class="cls-1" d="M-4.09,18.4c2.67,1.07,5.93,2.35,9.6,3.58"/><path class="cls-1" d="M18,25.42A108,108,0,0,1,5.51,22"/><path class="cls-1" d="M-1.65,15.6c7.45,3,10.9,5.19,19.67,6.72"/><line class="cls-1" x1="16.71" y1="19.93" x2="16.71" y2="19.93"/><path class="cls-1" d="M18,19.81l-1.31.12"/><path class="cls-1" d="M18,15.47c-5.79.28-10.13.37-11.81.46"/><path class="cls-1" d="M10.91,11.34c2.07.05,4.47.07,7.11.05"/><path class="cls-1" d="M10.91,11.34h-.07"/><path class="cls-1" d="M-20.93,34.13c10.32.1,20.13-.61,26.52-2.44"/><path class="cls-1" d="M12.39,32.71C5.31,35.31-4.61,37-15,37.83"/><path class="cls-1" d="M12.39,32.71h0"/><path class="cls-1" d="M-36,43.89c21.37-1.64,47-8.09,54-10.11"/><path class="cls-1" d="M10.2,38.34h-.06"/><path class="cls-1" d="M10.2,38.34c2.5.12,5.12.2,7.82.23"/><path class="cls-1" d="M-4.81,42.49A44.51,44.51,0,0,0,4.46,44c2.19.19,5.06.3,5.06.3,2.72,0,5.57-.16,8.5-.38"/><path class="cls-1" d="M-18.47,48.46A115,115,0,0,0,2.77,54.72c5,1.06,10.18,1.83,15.25,2.4"/><path class="cls-1" d="M-15.85,45.1C-11,47.47,1.4,51,1.4,51c6.39,1.55,11.87,2.64,16.62,3.4"/><line class="cls-1" x1="1.99" y1="47.78" x2="1.91" y2="47.75"/><path class="cls-1" d="M2,47.78,6.4,49.22A111.29,111.29,0,0,0,18,52"/><path class="cls-1" d="M16.9,48.1c.38.17.75.34,1.12.49"/><path class="cls-1" d="M.19,30.6c-5.77,1.12-20,1.56-36.17-.36"/><path class="cls-1" d="M10.62,7.6q3.42.57,7,.93"/><path class="cls-1" d="M-2.34,45.32c-.16.81,2.76,1.49,3,.43C.82,44.85-2.13,44.28-2.34,45.32Z"/><path class="cls-1" d="M12.55,54.83c.18-.9-2.76-1.46-3-.43C9.42,55.22,12.34,55.89,12.55,54.83Z"/><path class="cls-1" d="M8.86,30.24c-.28.78,2.51,1.88,2.88.85C12.05,30.23,9.22,29.24,8.86,30.24Z"/><path class="cls-1" d="M6.28,11.22c0,.5,1.8.56,1.8-.09S6.28,10.59,6.28,11.22Z"/><path class="cls-1" d="M17,13.77c0-.55-1.8-.54-1.8.1S17,14.42,17,13.77Z"/><path class="cls-1" d="M4.89,17c.25-.49-1.35-1.31-1.65-.75S4.59,17.53,4.89,17Z"/><path class="cls-1" d="M14.21,23.08c.28-.88-2.58-1.77-2.9-.77C11.05,23.11,13.88,24.11,14.21,23.08Z"/><line class="cls-1" x1="7.73" y1="13.68" x2="10.23" y2="14.68"/><line class="cls-1" x1="4.02" y1="54.04" x2="2.75" y2="52.14"/><line class="cls-1" x1="5.13" y1="45.33" x2="6.4" y2="47.22"/><line class="cls-1" x1="-1.37" y1="24.27" x2="-0.1" y2="26.16"/><line class="cls-1" x1="6.17" y1="41.2" x2="4.42" y2="42.54"/><line class="cls-1" x1="12.18" y1="11.38" x2="12.18" y2="15.61"/><line class="cls-1" x1="5.51" y1="22.03" x2="5.51" y2="21.98"/><line class="cls-1" x1="5.51" y1="18.71" x2="5.51" y2="21.98"/><line class="cls-1" x1="0.84" y1="27.21" x2="0.84" y2="23.8"/><line class="cls-1" x1="3.49" y1="27.92" x2="3.49" y2="27.82"/><line class="cls-1" x1="3.49" y1="27.92" x2="3.49" y2="31.23"/><line class="cls-1" x1="14.43" y1="32.92" x2="14.43" y2="29.88"/><line class="cls-1" x1="12.26" y1="37.63" x2="12.26" y2="35.38"/><line class="cls-1" x1="0.53" y1="41" x2="0.53" y2="38.21"/><line class="cls-1" x1="14.16" y1="44.09" x2="14.16" y2="38.55"/><line class="cls-1" x1="12.51" y1="48.1" x2="12.51" y2="50.78"/><line class="cls-1" x1="12.51" y1="48.1" x2="12.51" y2="48.05"/><line class="cls-2" x1="16.85" y1="10.43" x2="16.85" y2="10.43"/><line class="cls-2" x1="16.02" y1="25.97" x2="16.02" y2="25.97"/><line class="cls-2" x1="3.52" y1="12.1" x2="3.52" y2="12.1"/><line class="cls-2" x1="5.02" y1="9.1" x2="5.02" y2="9.1"/><line class="cls-2" x1="6.02" y1="26.43" x2="6.02" y2="26.43"/><line class="cls-2" x1="9.02" y1="18.27" x2="9.02" y2="18.27"/><line class="cls-2" x1="0.9" y1="18.22" x2="0.9" y2="18.22"/><line class="cls-2" x1="15.15" y1="17.22" x2="15.15" y2="17.22"/><line class="cls-2" x1="1.9" y1="34.1" x2="1.9" y2="34.1"/><line class="cls-2" x1="10.9" y1="49.1" x2="10.9" y2="49.1"/><line class="cls-2" x1="2.15" y1="49.47" x2="2.15" y2="49.47"/><line class="cls-2" x1="9.15" y1="40.97" x2="9.15" y2="40.97"/><line class="cls-2" x1="16.15" y1="52.85" x2="16.15" y2="52.85"/><line class="cls-2" x1="14.52" y1="45.85" x2="14.52" y2="45.85"/><rect class="cls-3" x="-35.98" y="7.6" width="54" height="54"/><rect class="cls-3" width="54.3" height="54.3"/></svg>