<!-- Generator: Adobe Illustrator 22.1.0, SVG Export Plug-In  -->
<svg version="1.1"
     xmlns="http://www.w3.org/2000/svg" xmlns:xlink="http://www.w3.org/1999/xlink" xmlns:a="http://ns.adobe.com/AdobeSVGViewerExtensions/3.0/"
     x="0px" y="0px" width="54.4px" height="54.1px" viewBox="0 0 54.4 54.1" style="enable-background:new 0 0 54.4 54.1;"
     xml:space="preserve">
<style type="text/css">
    .st0{clip-path:url(#SVGID_2_);fill:none;stroke:#000000;stroke-width:0.3;}
    .st1{clip-path:url(#SVGID_4_);fill:none;stroke:#000000;stroke-width:0.3;}
</style>
<defs>
</defs>
<g>
    <defs>
        <rect id="SVGID_1_" x="0.1" width="54.1" height="54.1"/>
    </defs>
    <clipPath id="SVGID_2_">
        <use xlink:href="#SVGID_1_"  style="overflow:visible;"/>
    </clipPath>
    <line class="st0" x1="27.6" y1="3.8" x2="18.8" y2="3.8"/>
    <line class="st0" x1="12.7" y1="3.8" x2="18.8" y2="3.8"/>
    <line class="st0" x1="54.1" y1="3.8" x2="54.3" y2="3.8"/>
    <line class="st0" x1="0.1" y1="3.8" x2="6.1" y2="3.8"/>
    <line class="st0" x1="12.7" y1="3.8" x2="6.1" y2="3.8"/>
    <line class="st0" x1="54.1" y1="3.8" x2="46.7" y2="3.8"/>
    <line class="st0" x1="32.3" y1="3.8" x2="41.2" y2="3.8"/>
    <line class="st0" x1="46.7" y1="3.8" x2="41.2" y2="3.8"/>
    <line class="st0" x1="32.3" y1="3.8" x2="27.6" y2="3.8"/>
    <line class="st0" x1="54.3" y1="7.9" x2="0.1" y2="7.9"/>
    <line class="st0" x1="0.1" y1="12.1" x2="12" y2="12.1"/>
    <line class="st0" x1="53.5" y1="12.1" x2="54.3" y2="12.1"/>
    <line class="st0" x1="26.9" y1="12.1" x2="12" y2="12.1"/>
    <line class="st0" x1="26.9" y1="12.1" x2="40.3" y2="12.1"/>
    <line class="st0" x1="40.3" y1="12.1" x2="53.5" y2="12.1"/>
    <line class="st0" x1="33.9" y1="41.7" x2="48.8" y2="41.7"/>
    <line class="st0" x1="20.3" y1="41.7" x2="33.9" y2="41.7"/>
    <line class="st0" x1="7" y1="41.7" x2="0.1" y2="41.7"/>
    <line class="st0" x1="7" y1="41.7" x2="20.3" y2="41.7"/>
    <line class="st0" x1="48.8" y1="41.7" x2="54.3" y2="41.7"/>
    <line class="st0" x1="26.5" y1="45.5" x2="40.4" y2="45.5"/>
    <line class="st0" x1="40.4" y1="45.5" x2="53.9" y2="45.5"/>
    <line class="st0" x1="26.5" y1="45.5" x2="12" y2="45.5"/>
    <line class="st0" x1="12" y1="45.5" x2="0.1" y2="45.5"/>
    <line class="st0" x1="53.9" y1="45.5" x2="54.3" y2="45.5"/>
    <line class="st0" x1="46.7" y1="16.1" x2="54.3" y2="16.1"/>
    <line class="st0" x1="46.7" y1="16.1" x2="32.1" y2="16.1"/>
    <line class="st0" x1="18.8" y1="16.1" x2="32.1" y2="16.1"/>
    <line class="st0" x1="6.1" y1="16.1" x2="0.1" y2="16.1"/>
    <line class="st0" x1="18.8" y1="16.1" x2="6.1" y2="16.1"/>
    <line class="st0" x1="12.6" y1="19.4" x2="0.1" y2="19.4"/>
    <line class="st0" x1="54.1" y1="19.4" x2="54.3" y2="19.4"/>
    <line class="st0" x1="27.6" y1="19.4" x2="12.6" y2="19.4"/>
    <line class="st0" x1="41.4" y1="19.4" x2="54.1" y2="19.4"/>
    <line class="st0" x1="41.4" y1="19.4" x2="27.6" y2="19.4"/>
    <line class="st0" x1="54.3" y1="22.8" x2="48.8" y2="22.8"/>
    <line class="st0" x1="20.3" y1="22.8" x2="6.8" y2="22.8"/>
    <line class="st0" x1="33.9" y1="22.8" x2="20.3" y2="22.8"/>
    <line class="st0" x1="48.8" y1="22.8" x2="33.9" y2="22.8"/>
    <line class="st0" x1="6.8" y1="22.8" x2="0.1" y2="22.8"/>
    <line class="st0" x1="0.1" y1="26.9" x2="54.3" y2="26.9"/>
    <line class="st0" x1="0.1" y1="30.7" x2="54.3" y2="30.7"/>
    <line class="st0" x1="0.1" y1="34.9" x2="54.3" y2="34.9"/>
    <line class="st0" x1="0.1" y1="38.1" x2="54.3" y2="38.1"/>
    <line class="st0" x1="0.1" y1="53.3" x2="6.1" y2="53.3"/>
    <line class="st0" x1="6.1" y1="53.3" x2="10.4" y2="53.3"/>
    <line class="st0" x1="54.3" y1="53.3" x2="51.9" y2="53.3"/>
    <line class="st0" x1="38.5" y1="53.3" x2="46.7" y2="53.3"/>
    <line class="st0" x1="18.8" y1="53.3" x2="10.4" y2="53.3"/>
    <line class="st0" x1="46.7" y1="53.3" x2="51.9" y2="53.3"/>
    <line class="st0" x1="38.5" y1="53.3" x2="32.3" y2="53.3"/>
    <line class="st0" x1="24.9" y1="53.3" x2="32.3" y2="53.3"/>
    <line class="st0" x1="18.8" y1="53.3" x2="24.9" y2="53.3"/>
    <line class="st0" x1="6.1" y1="0" x2="6.1" y2="3.8"/>
    <line class="st0" x1="18.8" y1="0" x2="18.8" y2="3.8"/>
    <line class="st0" x1="32.3" y1="3.8" x2="32.3" y2="0"/>
    <line class="st0" x1="46.7" y1="0" x2="46.7" y2="3.8"/>
    <line class="st0" x1="6.1" y1="53.3" x2="6.1" y2="53.3"/>
    <line class="st0" x1="6.1" y1="54.1" x2="6.1" y2="53.3"/>
    <line class="st0" x1="18.8" y1="53.3" x2="18.8" y2="53.3"/>
    <line class="st0" x1="18.8" y1="53.3" x2="18.8" y2="54.1"/>
    <line class="st0" x1="32.3" y1="53.3" x2="32.3" y2="53.3"/>
    <line class="st0" x1="32.3" y1="54.1" x2="32.3" y2="53.3"/>
    <line class="st0" x1="46.7" y1="53.3" x2="46.7" y2="53.3"/>
    <line class="st0" x1="46.7" y1="54.1" x2="46.7" y2="53.3"/>
    <line class="st0" x1="12.7" y1="3.8" x2="12.7" y2="7.9"/>
    <line class="st0" x1="12.7" y1="3.8" x2="12.7" y2="3.7"/>
    <line class="st0" x1="27.6" y1="3.7" x2="27.6" y2="3.8"/>
    <line class="st0" x1="27.6" y1="3.8" x2="27.6" y2="7.9"/>
    <line class="st0" x1="41.2" y1="7.9" x2="41.2" y2="3.8"/>
    <line class="st0" x1="41.2" y1="3.7" x2="41.2" y2="3.8"/>
    <line class="st0" x1="54.1" y1="3.8" x2="54.1" y2="3.7"/>
    <line class="st0" x1="54.1" y1="3.8" x2="54.1" y2="7.9"/>
    <line class="st0" x1="7.2" y1="12.1" x2="7.2" y2="8"/>
    <line class="st0" x1="20.4" y1="12.1" x2="20.4" y2="8"/>
    <line class="st0" x1="34" y1="12.1" x2="34" y2="8"/>
    <line class="st0" x1="48.9" y1="12.1" x2="48.9" y2="8"/>
    <line class="st0" x1="40.3" y1="12.1" x2="40.3" y2="12.1"/>
    <line class="st0" x1="40.3" y1="16.1" x2="40.3" y2="12.1"/>
    <line class="st0" x1="26.9" y1="12.1" x2="26.9" y2="12.1"/>
    <line class="st0" x1="26.9" y1="12.1" x2="26.9" y2="16.1"/>
    <line class="st0" x1="12" y1="16.1" x2="12" y2="12.1"/>
    <line class="st0" x1="12" y1="12.1" x2="12" y2="12.1"/>
    <line class="st0" x1="53.5" y1="12.1" x2="53.5" y2="12.1"/>
    <line class="st0" x1="53.5" y1="16.1" x2="53.5" y2="12.1"/>
    <line class="st0" x1="46.7" y1="16.1" x2="46.7" y2="19.4"/>
    <line class="st0" x1="46.7" y1="16.1" x2="46.7" y2="16.1"/>
    <line class="st0" x1="32.1" y1="16.1" x2="32.1" y2="16.1"/>
    <line class="st0" x1="32.1" y1="16.1" x2="32.1" y2="19.4"/>
    <line class="st0" x1="18.8" y1="16.1" x2="18.8" y2="19.4"/>
    <line class="st0" x1="18.8" y1="16.1" x2="18.8" y2="16.1"/>
    <line class="st0" x1="6.1" y1="16.1" x2="6.1" y2="19.4"/>
    <line class="st0" x1="6.1" y1="16.1" x2="6.1" y2="16.1"/>
    <line class="st0" x1="12.6" y1="19.4" x2="12.6" y2="22.8"/>
    <line class="st0" x1="12.6" y1="19.4" x2="12.6" y2="19.4"/>
    <line class="st0" x1="27.6" y1="19.4" x2="27.6" y2="22.8"/>
    <line class="st0" x1="27.6" y1="19.4" x2="27.6" y2="19.4"/>
    <line class="st0" x1="41.4" y1="19.4" x2="41.4" y2="19.4"/>
    <line class="st0" x1="41.4" y1="19.4" x2="41.4" y2="22.8"/>
    <line class="st0" x1="54.1" y1="19.4" x2="54.1" y2="19.4"/>
    <line class="st0" x1="54.1" y1="19.4" x2="54.1" y2="22.8"/>
    <line class="st0" x1="6.8" y1="22.8" x2="6.8" y2="26.9"/>
    <line class="st0" x1="6.8" y1="22.8" x2="6.8" y2="22.8"/>
    <line class="st0" x1="20.3" y1="22.8" x2="20.3" y2="26.9"/>
    <line class="st0" x1="20.3" y1="22.8" x2="20.3" y2="22.8"/>
    <line class="st0" x1="33.9" y1="22.8" x2="33.9" y2="22.8"/>
    <line class="st0" x1="33.9" y1="22.8" x2="33.9" y2="26.9"/>
    <line class="st0" x1="48.8" y1="22.8" x2="48.8" y2="22.8"/>
    <line class="st0" x1="48.8" y1="22.8" x2="48.8" y2="26.9"/>
    <line class="st0" x1="40.2" y1="26.9" x2="40.2" y2="30.7"/>
    <line class="st0" x1="26.8" y1="26.9" x2="26.8" y2="30.7"/>
    <line class="st0" x1="11.8" y1="26.9" x2="11.8" y2="30.7"/>
    <line class="st0" x1="53.4" y1="30.7" x2="53.4" y2="26.9"/>
    <line class="st0" x1="5.7" y1="30.7" x2="5.7" y2="34.9"/>
    <line class="st0" x1="18.7" y1="30.7" x2="18.7" y2="34.9"/>
    <line class="st0" x1="32.3" y1="30.7" x2="32.3" y2="34.9"/>
    <line class="st0" x1="46.5" y1="30.7" x2="46.5" y2="34.9"/>
    <line class="st0" x1="42.3" y1="34.9" x2="42.3" y2="38.1"/>
    <line class="st0" x1="28.2" y1="34.9" x2="28.2" y2="38.1"/>
    <line class="st0" x1="13.1" y1="34.9" x2="13.1" y2="38.1"/>
    <line class="st0" x1="0.6" y1="34.9" x2="0.6" y2="38.1"/>
    <line class="st0" x1="7" y1="41.7" x2="7" y2="38.2"/>
    <line class="st0" x1="20.3" y1="41.7" x2="20.3" y2="38.2"/>
    <line class="st0" x1="33.9" y1="41.7" x2="33.9" y2="38.2"/>
    <line class="st0" x1="48.8" y1="41.7" x2="48.8" y2="38.2"/>
    <line class="st0" x1="40.4" y1="45.5" x2="40.4" y2="41.8"/>
    <line class="st0" x1="40.4" y1="45.5" x2="40.4" y2="45.5"/>
    <line class="st0" x1="26.5" y1="45.5" x2="26.5" y2="41.8"/>
    <line class="st0" x1="26.5" y1="45.5" x2="26.5" y2="45.5"/>
    <line class="st0" x1="12" y1="45.5" x2="12" y2="45.5"/>
    <line class="st0" x1="12" y1="41.8" x2="12" y2="45.5"/>
    <line class="st0" x1="53.9" y1="45.5" x2="53.9" y2="45.5"/>
    <line class="st0" x1="53.9" y1="45.5" x2="53.9" y2="41.8"/>
    <line class="st0" x1="54.3" y1="49.9" x2="51.9" y2="49.9"/>
    <line class="st0" x1="38.5" y1="49.9" x2="24.9" y2="49.9"/>
    <line class="st0" x1="38.5" y1="49.9" x2="51.9" y2="49.9"/>
    <line class="st0" x1="24.9" y1="49.9" x2="10.4" y2="49.9"/>
    <line class="st0" x1="0.1" y1="49.9" x2="10.4" y2="49.9"/>
    <line class="st0" x1="10.4" y1="49.9" x2="10.4" y2="53.3"/>
    <line class="st0" x1="10.4" y1="53.3" x2="10.4" y2="53.3"/>
    <line class="st0" x1="10.4" y1="49.9" x2="10.4" y2="49.9"/>
    <line class="st0" x1="24.9" y1="49.9" x2="24.9" y2="49.9"/>
    <line class="st0" x1="24.9" y1="49.9" x2="24.9" y2="53.3"/>
    <line class="st0" x1="24.9" y1="53.3" x2="24.9" y2="53.3"/>
    <line class="st0" x1="38.5" y1="49.9" x2="38.5" y2="49.9"/>
    <line class="st0" x1="38.5" y1="53.3" x2="38.5" y2="49.9"/>
    <line class="st0" x1="38.5" y1="53.3" x2="38.5" y2="53.3"/>
    <line class="st0" x1="51.9" y1="49.9" x2="51.9" y2="49.9"/>
    <line class="st0" x1="51.9" y1="49.9" x2="51.9" y2="53.3"/>
    <line class="st0" x1="51.9" y1="53.3" x2="51.9" y2="53.3"/>
    <line class="st0" x1="4.7" y1="45.5" x2="4.7" y2="49.9"/>
    <line class="st0" x1="17.7" y1="45.5" x2="17.7" y2="49.9"/>
    <line class="st0" x1="31.7" y1="45.5" x2="31.7" y2="49.9"/>
    <line class="st0" x1="46.3" y1="45.5" x2="46.3" y2="49.9"/>
    <path class="st0" d="M0.1,2.6c0.4-0.1,0.6-0.5,0.6-0.9S0.5,0.9,0.1,0.8"/>
    <path class="st0" d="M13.4,1.7c0-0.5-0.4-1-1-1c-0.5,0-1,0.4-1,1s0.4,1,1,1C13,2.6,13.4,2.2,13.4,1.7z"/>
    <path class="st0" d="M26.5,1.7c0-0.5-0.4-1-1-1c-0.5,0-1,0.4-1,1s0.4,1,1,1C26.1,2.6,26.5,2.2,26.5,1.7z"/>
    <path class="st0" d="M38.9,1.7c0,0.5,0.4,1,1,1c0.5,0,1-0.4,1-1s-0.4-1-1-1C39.3,0.7,38.9,1.1,38.9,1.7z"/>
    <path class="st0" d="M5.3,5.8c0,0.5,0.4,1,1,1c0.5,0,1-0.4,1-1c0-0.5-0.4-1-1-1C5.7,4.9,5.3,5.3,5.3,5.8z"/>
    <path class="st0" d="M19.6,5.8c0,0.5,0.4,1,1,1c0.5,0,1-0.4,1-1c0-0.5-0.4-1-1-1C20.1,4.9,19.6,5.3,19.6,5.8z"/>
    <path class="st0" d="M33.4,5.8c0,0.5,0.4,1,1,1c0.5,0,1-0.4,1-1c0-0.5-0.4-1-1-1C33.8,4.9,33.4,5.3,33.4,5.8z"/>
    <path class="st0" d="M48.9,5.8c0-0.5-0.4-1-1-1c-0.5,0-1,0.4-1,1c0,0.5,0.4,1,1,1C48.5,6.8,48.9,6.4,48.9,5.8z"/>
    <path class="st0" d="M2.3,10c0-0.5-0.4-1-1-1c-0.5,0-1,0.4-1,1s0.4,1,1,1C1.9,11,2.3,10.6,2.3,10z"/>
    <path class="st0" d="M14.7,10c0-0.5-0.4-1-1-1c-0.5,0-1,0.4-1,1s0.4,1,1,1C14.2,11,14.7,10.6,14.7,10z"/>
    <path class="st0" d="M28.4,10c0-0.5-0.4-1-1-1c-0.5,0-1,0.4-1,1s0.4,1,1,1C28,11,28.4,10.6,28.4,10z"/>
    <path class="st0" d="M42.5,10c0-0.5-0.4-1-1-1c-0.5,0-1,0.4-1,1s0.4,1,1,1C42.1,11,42.5,10.6,42.5,10z"/>
    <path class="st0" d="M6.7,14.1c0-0.5-0.4-1-1-1c-0.5,0-1,0.4-1,1c0,0.5,0.4,1,1,1C6.2,15.1,6.7,14.7,6.7,14.1z"/>
    <path class="st0" d="M20.4,14.1c0-0.5-0.4-1-1-1c-0.5,0-1,0.4-1,1c0,0.5,0.4,1,1,1C20,15.1,20.4,14.7,20.4,14.1z"/>
    <path class="st0" d="M34.9,14.1c0-0.5-0.4-1-1-1c-0.5,0-1,0.4-1,1c0,0.5,0.4,1,1,1C34.5,15.1,34.9,14.7,34.9,14.1z"/>
    <path class="st0" d="M47.2,15.1c0.5,0,1-0.4,1-1c0-0.5-0.4-1-1-1c-0.5,0-1,0.4-1,1C46.3,14.7,46.7,15.1,47.2,15.1z"/>
    <path class="st0" d="M0.1,18.7c0.5,0,0.9-0.4,0.9-1s-0.4-0.9-0.9-1"/>
    <path class="st0" d="M11.5,17.8c0,0.5,0.4,1,1,1c0.5,0,1-0.4,1-1c0-0.5-0.4-1-1-1C11.9,16.8,11.5,17.2,11.5,17.8z"/>
    <path class="st0" d="M24.5,17.8c0,0.5,0.4,1,1,1c0.5,0,1-0.4,1-1c0-0.5-0.4-1-1-1C24.9,16.8,24.5,17.2,24.5,17.8z"/>
    <path class="st0" d="M40.7,17.8c0-0.5-0.4-1-1-1c-0.5,0-1,0.4-1,1c0,0.5,0.4,1,1,1C40.2,18.7,40.7,18.3,40.7,17.8z"/>
    <path class="st0" d="M5.3,21.1c0,0.5,0.4,1,1,1c0.5,0,1-0.4,1-1c0-0.5-0.4-1-1-1C5.7,20.2,5.3,20.6,5.3,21.1z"/>
    <path class="st0" d="M0.1,24.4c0.2-0.3,0.5-0.5,0.8-0.5c0.5,0,1,0.4,1,1c0,0.5-0.4,1-1,1c-0.3,0-0.6-0.2-0.8-0.5"/>
    <path class="st0" d="M12.8,24.9c0,0.5,0.4,1,1,1c0.5,0,1-0.4,1-1c0-0.5-0.4-1-1-1C13.2,23.9,12.8,24.3,12.8,24.9z"/>
    <path class="st0" d="M26.5,24.9c0,0.5,0.4,1,1,1c0.5,0,1-0.4,1-1c0-0.5-0.4-1-1-1C26.9,23.9,26.5,24.3,26.5,24.9z"/>
    <path class="st0" d="M40.4,24.9c0,0.5,0.4,1,1,1c0.5,0,1-0.4,1-1c0-0.5-0.4-1-1-1C40.8,23.9,40.4,24.3,40.4,24.9z"/>
    <path class="st0" d="M4.5,28.9c0,0.5,0.4,1,1,1c0.5,0,1-0.4,1-1s-0.4-1-1-1C4.9,27.9,4.5,28.3,4.5,28.9z"/>
    <path class="st0" d="M18.1,28.9c0,0.5,0.4,1,1,1c0.5,0,1-0.4,1-1s-0.4-1-1-1C18.6,27.9,18.1,28.3,18.1,28.9z"/>
    <path class="st0" d="M32.8,28.9c0,0.5,0.4,1,1,1c0.5,0,1-0.4,1-1s-0.4-1-1-1C33.2,27.9,32.8,28.3,32.8,28.9z"/>
    <path class="st0" d="M45.9,28.9c0,0.5,0.4,1,1,1c0.5,0,1-0.4,1-1s-0.4-1-1-1C46.3,27.9,45.9,28.3,45.9,28.9z"/>
    <path class="st0" d="M0.1,33.3c0.1-0.2,0.2-0.3,0.2-0.5c0-0.2-0.1-0.4-0.2-0.5"/>
    <path class="st0" d="M11.3,32.8c0,0.5,0.4,1,1,1c0.5,0,1-0.4,1-1c0-0.5-0.4-1-1-1C11.7,31.8,11.3,32.2,11.3,32.8z"/>
    <path class="st0" d="M24.5,32.8c0,0.5,0.4,1,1,1c0.5,0,1-0.4,1-1c0-0.5-0.4-1-1-1C24.9,31.8,24.5,32.2,24.5,32.8z"/>
    <path class="st0" d="M38.6,32.8c0,0.5,0.4,1,1,1c0.5,0,1-0.4,1-1c0-0.5-0.4-1-1-1C39.1,31.8,38.6,32.2,38.6,32.8z"/>
    <path class="st0" d="M5.9,36.5c0,0.5,0.4,1,1,1c0.5,0,1-0.4,1-1s-0.4-1-1-1C6.3,35.5,5.9,36,5.9,36.5z"/>
    <path class="st0" d="M19.6,36.5c0,0.5,0.4,1,1,1c0.5,0,1-0.4,1-1s-0.4-1-1-1C20.1,35.5,19.6,36,19.6,36.5z"/>
    <path class="st0" d="M34,36.5c0,0.5,0.4,1,1,1c0.5,0,1-0.4,1-1s-0.4-1-1-1C34.4,35.5,34,36,34,36.5z"/>
    <path class="st0" d="M50.2,36.5c0-0.5-0.4-1-1-1c-0.5,0-1,0.4-1,1s0.4,1,1,1C49.7,37.5,50.2,37,50.2,36.5z"/>
    <path class="st0" d="M2.2,39.9c0-0.5-0.4-1-1-1c-0.5,0-1,0.4-1,1c0,0.5,0.4,1,1,1C1.8,40.8,2.2,40.4,2.2,39.9z"/>
    <path class="st0" d="M14.7,39.9c0-0.5-0.4-1-1-1c-0.5,0-1,0.4-1,1c0,0.5,0.4,1,1,1C14.2,40.8,14.7,40.4,14.7,39.9z"/>
    <path class="st0" d="M28.2,39.9c0-0.5-0.4-1-1-1c-0.5,0-1,0.4-1,1c0,0.5,0.4,1,1,1C27.7,40.8,28.2,40.4,28.2,39.9z"/>
    <path class="st0" d="M42.5,39.9c0-0.5-0.4-1-1-1c-0.5,0-1,0.4-1,1c0,0.5,0.4,1,1,1C42.1,40.8,42.5,40.4,42.5,39.9z"/>
    <path class="st0" d="M6.5,43.8c0-0.5-0.4-1-1-1c-0.5,0-1,0.4-1,1s0.4,1,1,1C6.1,44.7,6.5,44.3,6.5,43.8z"/>
    <path class="st0" d="M18.8,43.8c0,0.5,0.4,1,1,1c0.5,0,1-0.4,1-1s-0.4-1-1-1C19.2,42.8,18.8,43.2,18.8,43.8z"/>
    <path class="st0" d="M34.8,43.8c0-0.5-0.4-1-1-1c-0.5,0-1,0.4-1,1s0.4,1,1,1C34.4,44.7,34.8,44.3,34.8,43.8z"/>
    <path class="st0" d="M46.5,43.8c0,0.5,0.4,1,1,1c0.5,0,1-0.4,1-1s-0.4-1-1-1C46.9,42.8,46.5,43.2,46.5,43.8z"/>
    <path class="st0" d="M52.1,47.9c0,0.5,0.4,1,1,1c0.5,0,1-0.4,1-1c0-0.5-0.4-1-1-1C52.5,46.9,52.1,47.3,52.1,47.9z"/>
    <path class="st0" d="M11.3,48.8c0.5,0,1-0.4,1-1c0-0.5-0.4-1-1-1c-0.5,0-1,0.4-1,1C10.4,48.4,10.8,48.8,11.3,48.8z"/>
    <path class="st0" d="M23.8,47.9c0,0.5,0.4,1,1,1c0.5,0,1-0.4,1-1c0-0.5-0.4-1-1-1C24.2,46.9,23.8,47.3,23.8,47.9z"/>
    <path class="st0" d="M38.3,47.9c0,0.5,0.4,1,1,1c0.5,0,1-0.4,1-1c0-0.5-0.4-1-1-1C38.7,46.9,38.3,47.3,38.3,47.9z"/>
    <path class="st0" d="M3.8,51.7c0,0.5,0.4,1,1,1c0.5,0,1-0.4,1-1c0-0.5-0.4-1-1-1C4.2,50.7,3.8,51.2,3.8,51.7z"/>
    <path class="st0" d="M16.8,51.7c0,0.5,0.4,1,1,1c0.5,0,1-0.4,1-1c0-0.5-0.4-1-1-1C17.2,50.7,16.8,51.2,16.8,51.7z"/>
    <path class="st0" d="M32.7,51.7c0-0.5-0.4-1-1-1c-0.5,0-1,0.4-1,1c0,0.5,0.4,1,1,1C32.2,52.7,32.7,52.2,32.7,51.7z"/>
    <path class="st0" d="M44.8,51.7c0,0.5,0.4,1,1,1c0.5,0,1-0.4,1-1c0-0.5-0.4-1-1-1C45.2,50.7,44.8,51.2,44.8,51.7z"/>
    <path class="st0" d="M20.3,22.1c0.5,0,1-0.4,1-1c0-0.5-0.4-1-1-1c-0.5,0-1,0.4-1,1C19.4,21.7,19.8,22.1,20.3,22.1z"/>
    <path class="st0" d="M34.8,22.1c0.5,0,1-0.4,1-1c0-0.5-0.4-1-1-1c-0.5,0-1,0.4-1,1C33.9,21.7,34.3,22.1,34.8,22.1z"/>
    <path class="st0" d="M48.9,21.1c0-0.5-0.4-1-1-1c-0.5,0-1,0.4-1,1c0,0.5,0.4,1,1,1C48.5,22.1,48.9,21.7,48.9,21.1z"/>
    <path class="st0" d="M54.3,0.8c-0.1,0-0.2-0.1-0.3-0.1c-0.5,0-1,0.4-1,1s0.4,1,1,1c0.1,0,0.2,0,0.3-0.1"/>
    <path class="st0" d="M54.3,16.8C54.2,16.8,54.2,16.8,54.3,16.8c-0.6,0-1,0.4-1,1c0,0.5,0.4,1,1,1c0,0,0,0,0,0"/>
    <path class="st0" d="M54.3,24.4c-0.1,0.1-0.1,0.3-0.1,0.5s0.1,0.4,0.1,0.5"/>
    <path class="st0" d="M54.3,32.2c-0.2-0.2-0.5-0.4-0.8-0.4c-0.5,0-1,0.4-1,1c0,0.5,0.4,1,1,1c0.3,0,0.6-0.2,0.8-0.4"/>
</g>
</svg>
