<svg id="Layer_1" data-name="Layer 1" xmlns="http://www.w3.org/2000/svg" width="54.38" height="54.13" viewBox="0 0 54.38 54.13"><defs><style>.cls-1,.cls-2{fill:none;}.cls-1{stroke:#000;stroke-width:0.3px;}</style></defs><title>Artboard 37</title><line class="cls-1" x1="38.39" y1="2.66" x2="52.27" y2="2.66"/><line class="cls-1" x1="52.27" y1="2.66" x2="65.72" y2="2.66"/><line class="cls-1" x1="38.39" y1="2.66" x2="23.84" y2="2.66"/><line class="cls-1" x1="23.84" y1="2.66" x2="11.99" y2="2.66"/><line class="cls-1" x1="11.99" y1="10.45" x2="17.91" y2="10.45"/><line class="cls-1" x1="17.91" y1="10.45" x2="22.28" y2="10.45"/><line class="cls-1" x1="50.34" y1="10.45" x2="58.53" y2="10.45"/><line class="cls-1" x1="30.66" y1="10.45" x2="22.28" y2="10.45"/><line class="cls-1" x1="50.34" y1="10.45" x2="44.16" y2="10.45"/><line class="cls-1" x1="36.72" y1="10.45" x2="44.16" y2="10.45"/><line class="cls-1" x1="30.66" y1="10.45" x2="36.72" y2="10.45"/><line class="cls-1" x1="17.91" y1="10.43" x2="17.91" y2="10.45"/><line class="cls-1" x1="17.91" y1="11.28" x2="17.91" y2="10.45"/><line class="cls-1" x1="30.66" y1="10.45" x2="30.66" y2="10.43"/><line class="cls-1" x1="30.66" y1="10.45" x2="30.66" y2="11.28"/><line class="cls-1" x1="44.16" y1="10.43" x2="44.16" y2="10.45"/><line class="cls-1" x1="44.16" y1="11.28" x2="44.16" y2="10.45"/><line class="cls-1" x1="52.27" y1="2.66" x2="52.27" y2="-1.07"/><line class="cls-1" x1="52.27" y1="2.66" x2="52.27" y2="2.7"/><line class="cls-1" x1="38.39" y1="2.66" x2="38.39" y2="-1.07"/><line class="cls-1" x1="38.39" y1="2.66" x2="38.39" y2="2.7"/><line class="cls-1" x1="23.84" y1="2.66" x2="23.84" y2="2.7"/><line class="cls-1" x1="23.84" y1="-1.07" x2="23.84" y2="2.66"/><line class="cls-1" x1="50.34" y1="7.07" x2="36.72" y2="7.07"/><line class="cls-1" x1="50.34" y1="7.07" x2="63.72" y2="7.07"/><line class="cls-1" x1="36.72" y1="7.07" x2="22.28" y2="7.07"/><line class="cls-1" x1="11.99" y1="7.07" x2="22.28" y2="7.07"/><line class="cls-1" x1="22.28" y1="7.07" x2="22.28" y2="10.45"/><line class="cls-1" x1="22.28" y1="10.51" x2="22.28" y2="10.45"/><line class="cls-1" x1="22.28" y1="7.05" x2="22.28" y2="7.07"/><line class="cls-1" x1="36.72" y1="7.07" x2="36.72" y2="7.05"/><line class="cls-1" x1="36.72" y1="7.07" x2="36.72" y2="10.45"/><line class="cls-1" x1="36.72" y1="10.51" x2="36.72" y2="10.45"/><line class="cls-1" x1="50.34" y1="7.07" x2="50.34" y2="7.05"/><line class="cls-1" x1="50.34" y1="10.45" x2="50.34" y2="7.07"/><line class="cls-1" x1="50.34" y1="10.45" x2="50.34" y2="10.51"/><line class="cls-1" x1="16.56" y1="2.7" x2="16.56" y2="7.05"/><line class="cls-1" x1="29.56" y1="2.7" x2="29.56" y2="7.05"/><line class="cls-1" x1="43.56" y1="2.7" x2="43.56" y2="7.05"/><path class="cls-1" d="M18.4.91a1,1,0,1,0-.95,1A.94.94,0,0,0,18.4.91Z"/><path class="cls-1" d="M30.62.91a1,1,0,0,0,1.91,0,1,1,0,1,0-1.91,0Z"/><path class="cls-1" d="M46.65.91a1,1,0,1,0-.95,1A.94.94,0,0,0,46.65.91Z"/><path class="cls-1" d="M23.2,6a1,1,0,1,0-1-1A1,1,0,0,0,23.2,6Z"/><path class="cls-1" d="M35.62,5a1,1,0,1,0,1-1A1,1,0,0,0,35.62,5Z"/><path class="cls-1" d="M50.12,5a1,1,0,1,0,1-1A1,1,0,0,0,50.12,5Z"/><path class="cls-1" d="M15.62,8.86a1,1,0,0,0,1.91,0,1,1,0,1,0-1.91,0Z"/><path class="cls-1" d="M28.62,8.86a1,1,0,0,0,1.91,0,1,1,0,1,0-1.91,0Z"/><path class="cls-1" d="M44.53,8.86a1,1,0,1,0-1.91,0,1,1,0,0,0,1.91,0Z"/><rect class="cls-2" x="11.99" y="-42.84" width="54.13" height="54.13"/><line class="cls-1" x1="39.46" y1="15.03" x2="30.66" y2="15.03"/><line class="cls-1" x1="24.58" y1="15.03" x2="30.66" y2="15.03"/><line class="cls-1" x1="11.99" y1="15.03" x2="17.91" y2="15.03"/><line class="cls-1" x1="24.58" y1="15.03" x2="17.91" y2="15.03"/><line class="cls-1" x1="44.16" y1="15.03" x2="53.08" y2="15.03"/><line class="cls-1" x1="58.53" y1="15.03" x2="53.08" y2="15.03"/><line class="cls-1" x1="44.16" y1="15.03" x2="39.46" y2="15.03"/><line class="cls-1" x1="66.11" y1="19.21" x2="11.99" y2="19.21"/><line class="cls-1" x1="11.99" y1="23.4" x2="23.9" y2="23.4"/><line class="cls-1" x1="38.77" y1="23.4" x2="23.9" y2="23.4"/><line class="cls-1" x1="38.77" y1="23.4" x2="52.15" y2="23.4"/><line class="cls-1" x1="52.15" y1="23.4" x2="65.4" y2="23.4"/><line class="cls-1" x1="45.74" y1="53.01" x2="60.62" y2="53.01"/><line class="cls-1" x1="32.12" y1="53.01" x2="45.74" y2="53.01"/><line class="cls-1" x1="18.87" y1="53.01" x2="11.99" y2="53.01"/><line class="cls-1" x1="18.87" y1="53.01" x2="32.12" y2="53.01"/><line class="cls-1" x1="58.53" y1="27.42" x2="43.91" y2="27.42"/><line class="cls-1" x1="30.66" y1="27.42" x2="43.91" y2="27.42"/><line class="cls-1" x1="17.91" y1="27.42" x2="11.99" y2="27.42"/><line class="cls-1" x1="30.66" y1="27.42" x2="17.91" y2="27.42"/><line class="cls-1" x1="24.46" y1="30.7" x2="11.99" y2="30.7"/><line class="cls-1" x1="39.46" y1="30.7" x2="24.46" y2="30.7"/><line class="cls-1" x1="53.21" y1="30.7" x2="65.96" y2="30.7"/><line class="cls-1" x1="53.21" y1="30.7" x2="39.46" y2="30.7"/><line class="cls-1" x1="32.15" y1="34.12" x2="18.65" y2="34.12"/><line class="cls-1" x1="45.77" y1="34.12" x2="32.15" y2="34.12"/><line class="cls-1" x1="60.65" y1="34.12" x2="45.77" y2="34.12"/><line class="cls-1" x1="18.65" y1="34.12" x2="11.99" y2="34.12"/><line class="cls-1" x1="11.99" y1="38.17" x2="66.11" y2="38.17"/><line class="cls-1" x1="11.99" y1="41.97" x2="66.11" y2="41.97"/><line class="cls-1" x1="11.99" y1="46.17" x2="66.11" y2="46.17"/><line class="cls-1" x1="11.99" y1="49.4" x2="66.11" y2="49.4"/><line class="cls-1" x1="17.91" y1="11.28" x2="17.91" y2="15.03"/><line class="cls-1" x1="30.66" y1="11.28" x2="30.66" y2="15.03"/><line class="cls-1" x1="44.16" y1="15.03" x2="44.16" y2="11.28"/><line class="cls-1" x1="24.58" y1="15.03" x2="24.58" y2="19.2"/><line class="cls-1" x1="24.58" y1="15.03" x2="24.58" y2="14.97"/><line class="cls-1" x1="39.46" y1="14.97" x2="39.46" y2="15.03"/><line class="cls-1" x1="39.46" y1="15.03" x2="39.46" y2="19.2"/><line class="cls-1" x1="53.08" y1="19.2" x2="53.08" y2="15.03"/><line class="cls-1" x1="53.08" y1="14.97" x2="53.08" y2="15.03"/><line class="cls-1" x1="19.02" y1="23.38" x2="19.02" y2="19.33"/><line class="cls-1" x1="32.27" y1="23.38" x2="32.27" y2="19.33"/><line class="cls-1" x1="45.83" y1="23.38" x2="45.83" y2="19.33"/><line class="cls-1" x1="52.15" y1="23.4" x2="52.15" y2="23.38"/><line class="cls-1" x1="52.15" y1="27.38" x2="52.15" y2="23.4"/><line class="cls-1" x1="38.77" y1="23.4" x2="38.77" y2="23.38"/><line class="cls-1" x1="38.77" y1="23.4" x2="38.77" y2="27.38"/><line class="cls-1" x1="23.9" y1="27.38" x2="23.9" y2="23.4"/><line class="cls-1" x1="23.9" y1="23.4" x2="23.9" y2="23.38"/><line class="cls-1" x1="43.91" y1="27.42" x2="43.91" y2="27.38"/><line class="cls-1" x1="43.91" y1="27.42" x2="43.91" y2="30.68"/><line class="cls-1" x1="30.66" y1="27.42" x2="30.66" y2="30.68"/><line class="cls-1" x1="30.66" y1="27.42" x2="30.66" y2="27.38"/><line class="cls-1" x1="17.91" y1="27.42" x2="17.91" y2="30.68"/><line class="cls-1" x1="17.91" y1="27.42" x2="17.91" y2="27.38"/><line class="cls-1" x1="24.46" y1="30.7" x2="24.46" y2="34.11"/><line class="cls-1" x1="24.46" y1="30.7" x2="24.46" y2="30.68"/><line class="cls-1" x1="39.46" y1="30.7" x2="39.46" y2="34.11"/><line class="cls-1" x1="39.46" y1="30.68" x2="39.46" y2="30.7"/><line class="cls-1" x1="53.21" y1="30.7" x2="53.21" y2="30.68"/><line class="cls-1" x1="53.21" y1="30.7" x2="53.21" y2="34.11"/><line class="cls-1" x1="18.65" y1="34.12" x2="18.65" y2="38.16"/><line class="cls-1" x1="18.65" y1="34.11" x2="18.65" y2="34.12"/><line class="cls-1" x1="32.15" y1="34.12" x2="32.15" y2="38.16"/><line class="cls-1" x1="32.15" y1="34.11" x2="32.15" y2="34.12"/><line class="cls-1" x1="45.77" y1="34.11" x2="45.77" y2="34.12"/><line class="cls-1" x1="45.77" y1="34.12" x2="45.77" y2="38.16"/><line class="cls-1" x1="52.02" y1="38.22" x2="52.02" y2="41.96"/><line class="cls-1" x1="38.7" y1="38.22" x2="38.7" y2="41.96"/><line class="cls-1" x1="23.7" y1="38.22" x2="23.7" y2="41.96"/><line class="cls-1" x1="17.51" y1="42.02" x2="17.51" y2="46.16"/><line class="cls-1" x1="30.51" y1="42.02" x2="30.51" y2="46.16"/><line class="cls-1" x1="44.14" y1="42.02" x2="44.14" y2="46.16"/><line class="cls-1" x1="54.19" y1="46.22" x2="54.19" y2="49.38"/><line class="cls-1" x1="40.03" y1="46.22" x2="40.03" y2="49.38"/><line class="cls-1" x1="24.91" y1="46.22" x2="24.91" y2="49.38"/><line class="cls-1" x1="12.49" y1="46.22" x2="12.49" y2="49.38"/><line class="cls-1" x1="18.87" y1="53.01" x2="18.87" y2="49.45"/><line class="cls-1" x1="32.12" y1="53.01" x2="32.12" y2="49.45"/><line class="cls-1" x1="45.74" y1="53.01" x2="45.74" y2="49.45"/><line class="cls-1" x1="52.27" y1="56.78" x2="52.27" y2="53.06"/><line class="cls-1" x1="38.39" y1="56.78" x2="38.39" y2="53.06"/><line class="cls-1" x1="23.84" y1="53.06" x2="23.84" y2="56.78"/><path class="cls-1" d="M12,13.85A.94.94,0,0,0,12.6,13a1,1,0,0,0-.61-.9"/><path class="cls-1" d="M25.28,13a1,1,0,1,0-1.91,0,1,1,0,0,0,1.91,0Z"/><path class="cls-1" d="M38.4,13a1,1,0,1,0-.95.95A1,1,0,0,0,38.4,13Z"/><path class="cls-1" d="M50.74,13a1,1,0,1,0,1-1A1,1,0,0,0,50.74,13Z"/><path class="cls-1" d="M17.12,17.13a1,1,0,1,0,.95-.95A1,1,0,0,0,17.12,17.13Z"/><path class="cls-1" d="M31.49,17.13a1,1,0,1,0,1.91,0,1,1,0,0,0-1.91,0Z"/><path class="cls-1" d="M45.24,17.13a1,1,0,1,0,1.91,0,1,1,0,0,0-1.91,0Z"/><path class="cls-1" d="M14.18,21.33a1,1,0,1,0-1,1A1,1,0,0,0,14.18,21.33Z"/><path class="cls-1" d="M26.53,21.33a1,1,0,1,0-1,1A1,1,0,0,0,26.53,21.33Z"/><path class="cls-1" d="M40.28,21.33a1,1,0,1,0-1,1A1,1,0,0,0,40.28,21.33Z"/><path class="cls-1" d="M54.4,21.33a1,1,0,0,0-1.91,0,1,1,0,1,0,1.91,0Z"/><path class="cls-1" d="M18.53,25.41a1,1,0,1,0-1.91,0,1,1,0,0,0,1.91,0Z"/><path class="cls-1" d="M32.28,25.41a1,1,0,1,0-1.91,0,1,1,0,0,0,1.91,0Z"/><path class="cls-1" d="M46.78,25.41a1,1,0,1,0-1.91,0,1,1,0,0,0,1.91,0Z"/><path class="cls-1" d="M12,30a1,1,0,0,0,.91-1,.94.94,0,0,0-.91-.95"/><path class="cls-1" d="M23.37,29.06a1,1,0,0,0,1.91,0,1,1,0,1,0-1.91,0Z"/><path class="cls-1" d="M36.37,29.06a1,1,0,0,0,1.91,0,1,1,0,1,0-1.91,0Z"/><path class="cls-1" d="M52.53,29.06a1,1,0,1,0-1.91,0,1,1,0,0,0,1.91,0Z"/><path class="cls-1" d="M17.12,32.43a1,1,0,1,0,.95-.95A1,1,0,0,0,17.12,32.43Z"/><path class="cls-1" d="M12,35.66a.94.94,0,0,1,.81-.46,1,1,0,0,1,0,1.91.93.93,0,0,1-.81-.45"/><path class="cls-1" d="M24.62,36.16a1,1,0,0,0,1.91,0,1,1,0,1,0-1.91,0Z"/><path class="cls-1" d="M38.37,36.16a1,1,0,0,0,1.91,0,1,1,0,1,0-1.91,0Z"/><path class="cls-1" d="M52.24,36.16a1,1,0,1,0,1-1A1,1,0,0,0,52.24,36.16Z"/><path class="cls-1" d="M16.37,40.16a1,1,0,0,0,1.91,0,1,1,0,1,0-1.91,0Z"/><path class="cls-1" d="M30,40.16a1,1,0,1,0,1-1A1,1,0,0,0,30,40.16Z"/><path class="cls-1" d="M44.62,40.16a1,1,0,0,0,1.91,0,1,1,0,1,0-1.91,0Z"/><path class="cls-1" d="M12,44.57a1,1,0,0,0,.16-.54,1,1,0,0,0-.16-.54"/><path class="cls-1" d="M23.12,44a1,1,0,1,0,.95-1A1,1,0,0,0,23.12,44Z"/><path class="cls-1" d="M36.37,44a1,1,0,1,0,1-1A1,1,0,0,0,36.37,44Z"/><path class="cls-1" d="M50.49,44a1,1,0,1,0,1.91,0,1,1,0,0,0-1.91,0Z"/><path class="cls-1" d="M17.74,47.78a1,1,0,1,0,1.91,0,1,1,0,0,0-1.91,0Z"/><path class="cls-1" d="M31.49,47.78a1,1,0,1,0,1.91,0,1,1,0,0,0-1.91,0Z"/><path class="cls-1" d="M45.87,47.78a1,1,0,1,0,1-1A1,1,0,0,0,45.87,47.78Z"/><path class="cls-1" d="M14.1,51.16a1,1,0,1,0-.95,1A1,1,0,0,0,14.1,51.16Z"/><path class="cls-1" d="M26.53,51.16a1,1,0,1,0-1.91,0,1,1,0,0,0,1.91,0Z"/><path class="cls-1" d="M40,51.16a1,1,0,1,0-1.91,0,1,1,0,0,0,1.91,0Z"/><path class="cls-1" d="M54.4,51.16a1,1,0,1,0-.95,1A1,1,0,0,0,54.4,51.16Z"/><path class="cls-1" d="M18.4,55a1,1,0,0,0-1.91,0,1,1,0,1,0,1.91,0Z"/><path class="cls-1" d="M30.62,55a1,1,0,1,0,.95-1A1,1,0,0,0,30.62,55Z"/><path class="cls-1" d="M46.65,55a1,1,0,0,0-1.91,0,1,1,0,1,0,1.91,0Z"/><path class="cls-1" d="M32.2,33.39a1,1,0,1,0-1-1A1,1,0,0,0,32.2,33.39Z"/><path class="cls-1" d="M46.7,33.39a1,1,0,1,0-1-1A1,1,0,0,0,46.7,33.39Z"/><rect class="cls-2" x="11.99" y="11.28" width="54.13" height="54.13"/><line class="cls-1" x1="-1.86" y1="2.66" x2="11.59" y2="2.66"/><line class="cls-1" x1="11.59" y1="2.66" x2="11.99" y2="2.66"/><line class="cls-1" x1="11.99" y1="10.45" x2="9.59" y2="10.45"/><line class="cls-1" x1="-3.78" y1="10.45" x2="4.41" y2="10.45"/><line class="cls-1" x1="4.41" y1="10.45" x2="9.59" y2="10.45"/><line class="cls-1" x1="4.41" y1="10.43" x2="4.41" y2="10.45"/><line class="cls-1" x1="4.41" y1="11.28" x2="4.41" y2="10.45"/><line class="cls-1" x1="11.59" y1="2.66" x2="11.59" y2="2.7"/><line class="cls-1" x1="11.59" y1="2.66" x2="11.59" y2="-1.07"/><line class="cls-1" x1="11.99" y1="7.07" x2="9.59" y2="7.07"/><line class="cls-1" x1="-3.78" y1="7.07" x2="9.59" y2="7.07"/><line class="cls-1" x1="9.59" y1="7.05" x2="9.59" y2="7.07"/><line class="cls-1" x1="9.59" y1="7.07" x2="9.59" y2="10.45"/><line class="cls-1" x1="9.59" y1="10.51" x2="9.59" y2="10.45"/><line class="cls-1" x1="3.99" y1="2.7" x2="3.99" y2="7.05"/><path class="cls-1" d="M4.24.91a1,1,0,1,0,1-1A1,1,0,0,0,4.24.91Z"/><path class="cls-1" d="M9.84,5a1,1,0,1,0,1.91,0A1,1,0,0,0,9.84,5Z"/><path class="cls-1" d="M2.49,8.86a1,1,0,1,0,1-1A1,1,0,0,0,2.49,8.86Z"/><rect class="cls-2" x="-42.14" y="-42.84" width="54.13" height="54.13"/><line class="cls-1" x1="11.78" y1="15.03" x2="11.99" y2="15.03"/><line class="cls-1" x1="11.78" y1="15.03" x2="4.41" y2="15.03"/><line class="cls-1" x1="4.41" y1="15.03" x2="-1.04" y2="15.03"/><line class="cls-1" x1="11.99" y1="19.21" x2="-42.14" y2="19.21"/><line class="cls-1" x1="11.27" y1="23.4" x2="11.99" y2="23.4"/><line class="cls-1" x1="-1.98" y1="23.4" x2="11.27" y2="23.4"/><line class="cls-1" x1="-8.38" y1="53.01" x2="6.49" y2="53.01"/><line class="cls-1" x1="6.49" y1="53.01" x2="11.99" y2="53.01"/><line class="cls-1" x1="4.41" y1="27.42" x2="11.99" y2="27.42"/><line class="cls-1" x1="4.41" y1="27.42" x2="-10.22" y2="27.42"/><line class="cls-1" x1="11.83" y1="30.7" x2="11.99" y2="30.7"/><line class="cls-1" x1="-0.92" y1="30.7" x2="11.83" y2="30.7"/><line class="cls-1" x1="11.99" y1="34.12" x2="6.52" y2="34.12"/><line class="cls-1" x1="6.52" y1="34.12" x2="-8.35" y2="34.12"/><line class="cls-1" x1="-42.14" y1="38.17" x2="11.99" y2="38.17"/><line class="cls-1" x1="-42.14" y1="41.97" x2="11.99" y2="41.97"/><line class="cls-1" x1="-42.14" y1="46.17" x2="11.99" y2="46.17"/><line class="cls-1" x1="-42.14" y1="49.4" x2="11.99" y2="49.4"/><line class="cls-1" x1="4.41" y1="11.28" x2="4.41" y2="15.03"/><line class="cls-1" x1="11.78" y1="15.03" x2="11.78" y2="14.97"/><line class="cls-1" x1="11.78" y1="15.03" x2="11.78" y2="19.2"/><line class="cls-1" x1="6.65" y1="23.38" x2="6.65" y2="19.33"/><line class="cls-1" x1="11.27" y1="23.4" x2="11.27" y2="23.38"/><line class="cls-1" x1="11.27" y1="27.38" x2="11.27" y2="23.4"/><line class="cls-1" x1="4.41" y1="27.42" x2="4.41" y2="30.68"/><line class="cls-1" x1="4.41" y1="27.42" x2="4.41" y2="27.38"/><line class="cls-1" x1="11.83" y1="30.7" x2="11.83" y2="30.68"/><line class="cls-1" x1="11.83" y1="30.7" x2="11.83" y2="34.11"/><line class="cls-1" x1="6.52" y1="34.11" x2="6.52" y2="34.12"/><line class="cls-1" x1="6.52" y1="34.12" x2="6.52" y2="38.16"/><line class="cls-1" x1="11.13" y1="41.96" x2="11.13" y2="38.22"/><line class="cls-1" x1="4.26" y1="42.02" x2="4.26" y2="46.16"/><line class="cls-1" x1="0.06" y1="46.22" x2="0.06" y2="49.38"/><line class="cls-1" x1="6.49" y1="53.01" x2="6.49" y2="49.45"/><line class="cls-1" x1="11.59" y1="56.78" x2="11.59" y2="53.06"/><path class="cls-1" d="M6.65,17.13a1,1,0,0,0-1.91,0,1,1,0,1,0,1.91,0Z"/><path class="cls-1" d="M.28,21.33a1,1,0,0,0-1-.95,1,1,0,0,0-.95.95,1,1,0,0,0,.95,1A1,1,0,0,0,.28,21.33Z"/><path class="cls-1" d="M5,26.36a1,1,0,0,0,0-1.91,1,1,0,1,0,0,1.91Z"/><path class="cls-1" d="M-1.88,36.16a1,1,0,0,0,.95,1,1,1,0,0,0,1-1,1,1,0,0,0-1-1A1,1,0,0,0-1.88,36.16Z"/><path class="cls-1" d="M3.62,40.16a1,1,0,0,0,1.91,0,1,1,0,1,0-1.91,0Z"/><path class="cls-1" d="M7.9,47.78a1,1,0,0,0-1.91,0,1,1,0,1,0,1.91,0Z"/><path class="cls-1" d="M.28,51.16a1,1,0,0,0-1-1,1,1,0,0,0-.95,1,1,1,0,0,0,.95,1A1,1,0,0,0,.28,51.16Z"/><path class="cls-1" d="M4.24,55a1,1,0,1,0,1.91,0,1,1,0,0,0-1.91,0Z"/><path class="cls-1" d="M6.65,32.43a1,1,0,0,0-1.91,0,1,1,0,1,0,1.91,0Z"/><path class="cls-1" d="M12,12.06a1.28,1.28,0,0,0-.34-.06,1,1,0,1,0,0,1.91,1,1,0,0,0,.34-.06"/><path class="cls-1" d="M12,28.11h0A1,1,0,1,0,12,30h0"/><path class="cls-1" d="M12,35.66a.91.91,0,0,0,0,1"/><path class="cls-1" d="M12,43.49a1,1,0,1,0,0,1.08"/><rect class="cls-2" x="-42.14" y="11.28" width="54.13" height="54.13"/><rect class="cls-2" width="54.38" height="54.13"/></svg>