<svg id="Layer_1" data-name="Layer 1" xmlns="http://www.w3.org/2000/svg" width="54.24" height="54.13" viewBox="0 0 54.24 54.13"><defs><style>.cls-1,.cls-2,.cls-3{fill:none;}.cls-2,.cls-3{stroke:#000;}.cls-2{stroke-linecap:round;stroke-width:0.7px;}.cls-3{stroke-width:0.3px;}</style></defs><title>Artboard 37</title><rect class="cls-1" x="7.53" y="-41.07" width="54.24" height="54.13"/><line class="cls-2" x1="13.31" y1="2.63" x2="13.31" y2="2.63"/><line class="cls-2" x1="16.31" y1="2.63" x2="16.31" y2="2.63"/><line class="cls-2" x1="10.14" y1="2.63" x2="10.14" y2="2.63"/><line class="cls-2" x1="41.14" y1="2.63" x2="41.14" y2="2.63"/><line class="cls-2" x1="44.14" y1="2.63" x2="44.14" y2="2.63"/><line class="cls-2" x1="37.98" y1="2.63" x2="37.98" y2="2.63"/><line class="cls-2" x1="32.64" y1="6.73" x2="32.64" y2="6.73"/><line class="cls-2" x1="35.64" y1="6.73" x2="35.64" y2="6.73"/><line class="cls-2" x1="29.48" y1="6.73" x2="29.48" y2="6.73"/><line class="cls-2" x1="25.64" y1="10.51" x2="25.64" y2="10.51"/><line class="cls-2" x1="28.64" y1="10.51" x2="28.64" y2="10.51"/><line class="cls-2" x1="22.48" y1="10.51" x2="22.48" y2="10.51"/><line class="cls-2" x1="52.68" y1="10.56" x2="52.68" y2="10.56"/><line class="cls-2" x1="49.51" y1="10.56" x2="49.51" y2="10.56"/><line class="cls-2" x1="9.31" y1="6.73" x2="9.31" y2="6.73"/><line class="cls-3" x1="7.58" y1="0.65" x2="61.77" y2="0.65"/><line class="cls-3" x1="7.58" y1="4.43" x2="61.71" y2="4.43"/><line class="cls-3" x1="7.58" y1="12.21" x2="61.71" y2="12.21"/><line class="cls-3" x1="13.51" y1="12.2" x2="13.51" y2="13.05"/><line class="cls-3" x1="26.26" y1="12.2" x2="26.26" y2="13.05"/><line class="cls-3" x1="39.76" y1="12.2" x2="39.76" y2="13.05"/><line class="cls-3" x1="54.13" y1="12.2" x2="54.13" y2="13.05"/><line class="cls-3" x1="14.47" y1="-2.91" x2="14.47" y2="0.65"/><line class="cls-3" x1="27.72" y1="-2.91" x2="27.72" y2="0.65"/><line class="cls-3" x1="41.34" y1="-2.91" x2="41.34" y2="0.65"/><line class="cls-3" x1="47.87" y1="0.7" x2="47.87" y2="4.46"/><line class="cls-3" x1="33.99" y1="0.7" x2="33.99" y2="4.46"/><line class="cls-3" x1="19.44" y1="0.7" x2="19.44" y2="4.46"/><line class="cls-3" x1="7.58" y1="8.84" x2="61.71" y2="8.84"/><line class="cls-3" x1="17.88" y1="8.81" x2="17.88" y2="12.28"/><line class="cls-3" x1="32.32" y1="8.81" x2="32.32" y2="12.28"/><line class="cls-3" x1="45.94" y1="8.81" x2="45.94" y2="12.28"/><line class="cls-3" x1="12.16" y1="4.46" x2="12.16" y2="8.81"/><line class="cls-3" x1="25.16" y1="4.46" x2="25.16" y2="8.81"/><line class="cls-3" x1="39.16" y1="4.46" x2="39.16" y2="8.81"/><line class="cls-3" x1="53.72" y1="4.46" x2="53.72" y2="8.81"/><line class="cls-3" x1="23.02" y1="2.54" x2="30.27" y2="2.54"/><line class="cls-3" x1="14.89" y1="6.91" x2="22.14" y2="6.91"/><line class="cls-3" x1="7.77" y1="10.59" x2="15.02" y2="10.59"/><line class="cls-3" x1="51.27" y1="2.65" x2="58.52" y2="2.65"/><line class="cls-3" x1="42.89" y1="6.77" x2="50.14" y2="6.77"/><line class="cls-3" x1="35.52" y1="10.52" x2="42.77" y2="10.52"/><rect class="cls-1" x="7.53" y="13.05" width="54.24" height="54.13"/><line class="cls-2" x1="32.93" y1="14.74" x2="32.93" y2="14.74"/><line class="cls-2" x1="29.81" y1="14.74" x2="29.81" y2="14.74"/><line class="cls-2" x1="35.68" y1="14.74" x2="35.68" y2="14.74"/><line class="cls-2" x1="9.48" y1="14.74" x2="9.48" y2="14.74"/><line class="cls-2" x1="41.98" y1="19.01" x2="41.98" y2="19.01"/><line class="cls-2" x1="13.64" y1="19.01" x2="13.64" y2="19.01"/><line class="cls-2" x1="16.58" y1="19.01" x2="16.58" y2="19.01"/><line class="cls-2" x1="21.31" y1="23.02" x2="21.31" y2="23.02"/><line class="cls-2" x1="24.31" y1="23.02" x2="24.31" y2="23.02"/><line class="cls-2" x1="18.14" y1="23.02" x2="18.14" y2="23.02"/><line class="cls-2" x1="42.14" y1="34.12" x2="42.14" y2="34.12"/><line class="cls-2" x1="45.14" y1="34.12" x2="45.14" y2="34.12"/><line class="cls-2" x1="38.98" y1="34.12" x2="38.98" y2="34.12"/><line class="cls-2" x1="13.64" y1="34.12" x2="13.64" y2="34.12"/><line class="cls-2" x1="16.64" y1="34.12" x2="16.64" y2="34.12"/><line class="cls-2" x1="10.48" y1="34.12" x2="10.48" y2="34.12"/><line class="cls-2" x1="21.14" y1="37.92" x2="21.14" y2="37.92"/><line class="cls-2" x1="24.14" y1="37.92" x2="24.14" y2="37.92"/><line class="cls-2" x1="17.98" y1="37.92" x2="17.98" y2="37.92"/><line class="cls-2" x1="48.98" y1="37.92" x2="48.98" y2="37.92"/><line class="cls-2" x1="51.98" y1="37.92" x2="51.98" y2="37.92"/><line class="cls-2" x1="45.81" y1="37.92" x2="45.81" y2="37.92"/><line class="cls-2" x1="41.14" y1="41.92" x2="41.14" y2="41.92"/><line class="cls-2" x1="44.14" y1="41.92" x2="44.14" y2="41.92"/><line class="cls-2" x1="37.98" y1="41.92" x2="37.98" y2="41.92"/><line class="cls-2" x1="12.98" y1="41.92" x2="12.98" y2="41.92"/><line class="cls-2" x1="15.98" y1="41.92" x2="15.98" y2="41.92"/><line class="cls-2" x1="9.81" y1="41.92" x2="9.81" y2="41.92"/><line class="cls-2" x1="33.14" y1="45.92" x2="33.14" y2="45.92"/><line class="cls-2" x1="36.14" y1="45.92" x2="36.14" y2="45.92"/><line class="cls-2" x1="29.98" y1="45.92" x2="29.98" y2="45.92"/><line class="cls-2" x1="28.48" y1="49.59" x2="28.48" y2="49.59"/><line class="cls-2" x1="31.48" y1="49.59" x2="31.48" y2="49.59"/><line class="cls-2" x1="25.31" y1="49.59" x2="25.31" y2="49.59"/><line class="cls-2" x1="53.14" y1="49.59" x2="53.14" y2="49.59"/><line class="cls-2" x1="49.14" y1="53.09" x2="49.14" y2="53.09"/><line class="cls-2" x1="52.14" y1="53.09" x2="52.14" y2="53.09"/><line class="cls-2" x1="45.98" y1="53.09" x2="45.98" y2="53.09"/><line class="cls-2" x1="21.48" y1="53.09" x2="21.48" y2="53.09"/><line class="cls-2" x1="24.48" y1="53.09" x2="24.48" y2="53.09"/><line class="cls-2" x1="18.31" y1="53.09" x2="18.31" y2="53.09"/><line class="cls-2" x1="9.98" y1="45.92" x2="9.98" y2="45.92"/><line class="cls-2" x1="48.98" y1="23.02" x2="48.98" y2="23.02"/><line class="cls-2" x1="52.14" y1="23.02" x2="52.14" y2="23.02"/><line class="cls-2" x1="45.31" y1="23.02" x2="45.31" y2="23.02"/><line class="cls-2" x1="54.48" y1="27.17" x2="54.48" y2="27.17"/><line class="cls-2" x1="51.14" y1="27.17" x2="51.14" y2="27.17"/><line class="cls-2" x1="27.48" y1="27.17" x2="27.48" y2="27.17"/><line class="cls-2" x1="30.31" y1="27.17" x2="30.31" y2="27.17"/><line class="cls-2" x1="24.14" y1="27.17" x2="24.14" y2="27.17"/><line class="cls-2" x1="32.98" y1="30.92" x2="32.98" y2="30.92"/><line class="cls-2" x1="35.81" y1="30.92" x2="35.81" y2="30.92"/><line class="cls-2" x1="29.64" y1="30.92" x2="29.64" y2="30.92"/><line class="cls-2" x1="9.54" y1="30.92" x2="9.54" y2="30.92"/><line class="cls-2" x1="10.48" y1="19.01" x2="10.48" y2="19.01"/><line class="cls-2" x1="44.81" y1="19.01" x2="44.81" y2="19.01"/><line class="cls-2" x1="38.81" y1="19.01" x2="38.81" y2="19.01"/><line class="cls-3" x1="7.58" y1="16.8" x2="61.71" y2="16.8"/><line class="cls-3" x1="7.58" y1="20.98" x2="61.71" y2="20.98"/><line class="cls-3" x1="7.58" y1="25.16" x2="61.71" y2="25.16"/><line class="cls-3" x1="7.58" y1="29.18" x2="61.71" y2="29.18"/><line class="cls-3" x1="7.58" y1="32.46" x2="61.71" y2="32.46"/><line class="cls-3" x1="7.58" y1="35.89" x2="61.71" y2="35.89"/><line class="cls-3" x1="7.58" y1="39.94" x2="61.71" y2="39.94"/><line class="cls-3" x1="7.58" y1="43.74" x2="61.71" y2="43.74"/><line class="cls-3" x1="7.58" y1="47.94" x2="61.77" y2="47.94"/><line class="cls-3" x1="7.58" y1="51.16" x2="61.71" y2="51.16"/><line class="cls-3" x1="13.51" y1="13.05" x2="13.51" y2="16.8"/><line class="cls-3" x1="26.26" y1="13.05" x2="26.26" y2="16.8"/><line class="cls-3" x1="39.76" y1="13.05" x2="39.76" y2="16.8"/><line class="cls-3" x1="54.13" y1="13.05" x2="54.13" y2="16.8"/><line class="cls-3" x1="20.18" y1="16.74" x2="20.18" y2="20.96"/><line class="cls-3" x1="35.06" y1="16.74" x2="35.06" y2="20.96"/><line class="cls-3" x1="48.68" y1="16.74" x2="48.68" y2="20.96"/><line class="cls-3" x1="14.62" y1="21.1" x2="14.62" y2="25.15"/><line class="cls-3" x1="27.87" y1="21.1" x2="27.87" y2="25.15"/><line class="cls-3" x1="41.43" y1="21.1" x2="41.43" y2="25.15"/><line class="cls-3" x1="47.75" y1="25.15" x2="47.75" y2="29.15"/><line class="cls-3" x1="34.37" y1="25.15" x2="34.37" y2="29.15"/><line class="cls-3" x1="19.5" y1="25.15" x2="19.5" y2="29.15"/><line class="cls-3" x1="54.13" y1="29.15" x2="54.13" y2="32.45"/><line class="cls-3" x1="39.51" y1="29.15" x2="39.51" y2="32.45"/><line class="cls-3" x1="26.26" y1="29.15" x2="26.26" y2="32.45"/><line class="cls-3" x1="13.51" y1="29.15" x2="13.51" y2="32.45"/><line class="cls-3" x1="20.06" y1="32.45" x2="20.06" y2="35.88"/><line class="cls-3" x1="35.06" y1="32.45" x2="35.06" y2="35.88"/><line class="cls-3" x1="48.81" y1="32.45" x2="48.81" y2="35.88"/><line class="cls-3" x1="14.25" y1="35.88" x2="14.25" y2="39.93"/><line class="cls-3" x1="27.75" y1="35.88" x2="27.75" y2="39.93"/><line class="cls-3" x1="41.37" y1="35.88" x2="41.37" y2="39.93"/><line class="cls-3" x1="47.62" y1="39.99" x2="47.62" y2="43.73"/><line class="cls-3" x1="34.3" y1="39.99" x2="34.3" y2="43.73"/><line class="cls-3" x1="19.3" y1="39.99" x2="19.3" y2="43.73"/><line class="cls-3" x1="13.11" y1="43.79" x2="13.11" y2="47.93"/><line class="cls-3" x1="26.11" y1="43.79" x2="26.11" y2="47.93"/><line class="cls-3" x1="39.73" y1="43.79" x2="39.73" y2="47.93"/><line class="cls-3" x1="53.98" y1="43.79" x2="53.98" y2="47.93"/><line class="cls-3" x1="49.78" y1="47.99" x2="49.78" y2="51.15"/><line class="cls-3" x1="35.63" y1="47.99" x2="35.63" y2="51.15"/><line class="cls-3" x1="20.51" y1="47.99" x2="20.51" y2="51.15"/><line class="cls-3" x1="8.09" y1="47.99" x2="8.09" y2="51.15"/><line class="cls-3" x1="14.47" y1="51.21" x2="14.47" y2="54.78"/><line class="cls-3" x1="27.72" y1="51.21" x2="27.72" y2="54.78"/><line class="cls-3" x1="41.34" y1="51.21" x2="41.34" y2="54.78"/><line class="cls-3" x1="16.34" y1="14.71" x2="23.59" y2="14.71"/><line class="cls-3" x1="43.47" y1="14.71" x2="50.72" y2="14.71"/><line class="cls-3" x1="23.84" y1="18.97" x2="31.09" y2="18.97"/><line class="cls-3" x1="51.59" y1="18.97" x2="58.84" y2="18.97"/><line class="cls-3" x1="31.09" y1="23.04" x2="38.34" y2="23.04"/><line class="cls-3" x1="7.53" y1="23.04" x2="12.02" y2="23.04"/><line class="cls-3" x1="37.77" y1="27.29" x2="45.02" y2="27.29"/><line class="cls-3" x1="9.39" y1="27.29" x2="16.64" y2="27.29"/><line class="cls-3" x1="43.02" y1="30.79" x2="50.27" y2="30.79"/><line class="cls-3" x1="51.77" y1="34.16" x2="59.02" y2="34.16"/><line class="cls-3" x1="50.77" y1="41.79" x2="58.02" y2="41.79"/><line class="cls-3" x1="43.39" y1="45.79" x2="50.64" y2="45.79"/><line class="cls-3" x1="39.27" y1="49.54" x2="46.52" y2="49.54"/><line class="cls-3" x1="31.14" y1="53.04" x2="38.39" y2="53.04"/><line class="cls-3" x1="16.14" y1="30.9" x2="23.39" y2="30.9"/><line class="cls-3" x1="23.52" y1="34.15" x2="30.77" y2="34.15"/><line class="cls-3" x1="30.89" y1="37.9" x2="38.14" y2="37.9"/><line class="cls-3" x1="23.39" y1="41.9" x2="30.64" y2="41.9"/><line class="cls-3" x1="16.02" y1="45.9" x2="23.27" y2="45.9"/><line class="cls-3" x1="10.77" y1="49.65" x2="18.02" y2="49.65"/><line class="cls-3" x1="7.53" y1="53.15" x2="11.39" y2="53.15"/><line class="cls-3" x1="7.59" y1="38.04" x2="10.22" y2="38.04"/><rect class="cls-1" x="-46.71" y="-41.07" width="54.24" height="54.13"/><line class="cls-2" x1="1.43" y1="10.56" x2="1.43" y2="10.56"/><line class="cls-2" x1="6.4" y1="6.73" x2="6.4" y2="6.73"/><line class="cls-2" x1="3.23" y1="6.73" x2="3.23" y2="6.73"/><line class="cls-3" x1="-46.66" y1="0.65" x2="7.53" y2="0.65"/><line class="cls-3" x1="-46.66" y1="4.43" x2="7.47" y2="4.43"/><line class="cls-3" x1="-46.66" y1="12.21" x2="7.47" y2="12.21"/><line class="cls-3" x1="-0.11" y1="12.2" x2="-0.11" y2="13.05"/><line class="cls-3" x1="1.98" y1="-2.91" x2="1.98" y2="0.65"/><line class="cls-3" x1="7.08" y1="0.7" x2="7.08" y2="4.46"/><line class="cls-3" x1="-46.66" y1="8.84" x2="7.47" y2="8.84"/><line class="cls-3" x1="5.08" y1="8.81" x2="5.08" y2="12.28"/><line class="cls-3" x1="-2.97" y1="2.65" x2="4.28" y2="2.65"/><rect class="cls-1" x="-46.71" y="13.05" width="54.24" height="54.13"/><line class="cls-2" x1="6.73" y1="14.74" x2="6.73" y2="14.74"/><line class="cls-2" x1="4.4" y1="14.74" x2="4.4" y2="14.74"/><line class="cls-2" x1="2.07" y1="49.59" x2="2.07" y2="49.59"/><line class="cls-2" x1="5.07" y1="49.59" x2="5.07" y2="49.59"/><line class="cls-2" x1="6.4" y1="45.92" x2="6.4" y2="45.92"/><line class="cls-2" x1="3.23" y1="45.92" x2="3.23" y2="45.92"/><line class="cls-2" x1="0.23" y1="27.17" x2="0.23" y2="27.17"/><line class="cls-2" x1="3.07" y1="27.17" x2="3.07" y2="27.17"/><line class="cls-2" x1="6.57" y1="30.92" x2="6.57" y2="30.92"/><line class="cls-2" x1="3.23" y1="30.92" x2="3.23" y2="30.92"/><line class="cls-3" x1="-46.66" y1="16.8" x2="7.47" y2="16.8"/><line class="cls-3" x1="-46.66" y1="20.98" x2="7.47" y2="20.98"/><line class="cls-3" x1="-46.66" y1="25.16" x2="7.47" y2="25.16"/><line class="cls-3" x1="-46.66" y1="29.18" x2="7.47" y2="29.18"/><line class="cls-3" x1="-46.66" y1="32.46" x2="7.47" y2="32.46"/><line class="cls-3" x1="-46.66" y1="35.89" x2="7.47" y2="35.89"/><line class="cls-3" x1="-46.66" y1="39.94" x2="7.47" y2="39.94"/><line class="cls-3" x1="-46.66" y1="43.74" x2="7.47" y2="43.74"/><line class="cls-3" x1="-46.66" y1="47.94" x2="7.53" y2="47.94"/><line class="cls-3" x1="-46.66" y1="51.16" x2="7.47" y2="51.16"/><line class="cls-3" x1="-0.11" y1="13.05" x2="-0.11" y2="16.8"/><line class="cls-3" x1="7.27" y1="16.74" x2="7.27" y2="20.96"/><line class="cls-3" x1="2.13" y1="21.1" x2="2.13" y2="25.15"/><line class="cls-3" x1="6.76" y1="25.15" x2="6.76" y2="29.15"/><line class="cls-3" x1="-0.11" y1="29.15" x2="-0.11" y2="32.45"/><line class="cls-3" x1="7.32" y1="32.45" x2="7.32" y2="35.88"/><line class="cls-3" x1="2.01" y1="35.88" x2="2.01" y2="39.93"/><line class="cls-3" x1="6.61" y1="39.99" x2="6.61" y2="43.73"/><line class="cls-3" x1="1.98" y1="51.21" x2="1.98" y2="54.78"/><line class="cls-3" x1="-2.65" y1="18.97" x2="4.6" y2="18.97"/><line class="cls-3" x1="-2.47" y1="34.16" x2="4.78" y2="34.16"/><line class="cls-3" x1="4.65" y1="38.04" x2="7.43" y2="38.04"/><line class="cls-3" x1="-3.47" y1="41.79" x2="3.78" y2="41.79"/><line class="cls-3" x1="4.6" y1="23.04" x2="7.41" y2="23.04"/><line class="cls-3" x1="4.6" y1="53.15" x2="7.41" y2="53.15"/><rect class="cls-1" width="54.12" height="54.13"/></svg>