<svg id="Layer_1" data-name="Layer 1" xmlns="http://www.w3.org/2000/svg" width="54.2" height="54.13" viewBox="0 0 54.2 54.13"><defs><style>.cls-1,.cls-2{fill:none;}.cls-1{stroke:#000;stroke-width:0.3px;}</style></defs><title>Artboard 37</title><line class="cls-1" x1="40.43" y1="19.63" x2="55.3" y2="19.63"/><line class="cls-1" x1="26.8" y1="19.63" x2="40.43" y2="19.63"/><line class="cls-1" x1="26.8" y1="19.63" x2="13.55" y2="19.63"/><line class="cls-1" x1="13.55" y1="19.63" x2="6.67" y2="19.63"/><line class="cls-1" x1="33.08" y1="23.4" x2="18.53" y2="23.4"/><line class="cls-1" x1="46.95" y1="23.4" x2="60.4" y2="23.4"/><line class="cls-1" x1="46.95" y1="23.4" x2="33.08" y2="23.4"/><line class="cls-1" x1="18.53" y1="23.4" x2="6.67" y2="23.4"/><line class="cls-1" x1="26.83" y1="0.74" x2="13.33" y2="0.74"/><line class="cls-1" x1="55.33" y1="0.74" x2="40.46" y2="0.74"/><line class="cls-1" x1="40.46" y1="0.74" x2="26.83" y2="0.74"/><line class="cls-1" x1="13.33" y1="0.74" x2="6.67" y2="0.74"/><line class="cls-1" x1="6.67" y1="4.79" x2="60.8" y2="4.79"/><line class="cls-1" x1="6.67" y1="8.59" x2="60.8" y2="8.59"/><line class="cls-1" x1="6.67" y1="12.79" x2="60.8" y2="12.79"/><line class="cls-1" x1="6.67" y1="16.02" x2="60.8" y2="16.02"/><line class="cls-1" x1="6.67" y1="31.19" x2="12.6" y2="31.19"/><line class="cls-1" x1="16.97" y1="31.19" x2="12.6" y2="31.19"/><line class="cls-1" x1="45.03" y1="31.19" x2="38.85" y2="31.19"/><line class="cls-1" x1="31.4" y1="31.19" x2="25.35" y2="31.19"/><line class="cls-1" x1="58.4" y1="31.19" x2="53.22" y2="31.19"/><line class="cls-1" x1="31.4" y1="31.19" x2="38.85" y2="31.19"/><line class="cls-1" x1="16.97" y1="31.19" x2="25.35" y2="31.19"/><line class="cls-1" x1="45.03" y1="31.19" x2="53.22" y2="31.19"/><line class="cls-1" x1="12.6" y1="32.03" x2="12.6" y2="31.19"/><line class="cls-1" x1="12.6" y1="31.18" x2="12.6" y2="31.19"/><line class="cls-1" x1="25.35" y1="31.18" x2="25.35" y2="31.19"/><line class="cls-1" x1="25.35" y1="32.03" x2="25.35" y2="31.19"/><line class="cls-1" x1="38.85" y1="31.18" x2="38.85" y2="31.19"/><line class="cls-1" x1="38.85" y1="32.03" x2="38.85" y2="31.19"/><line class="cls-1" x1="53.22" y1="32.03" x2="53.22" y2="31.19"/><line class="cls-1" x1="53.22" y1="31.18" x2="53.22" y2="31.19"/><line class="cls-1" x1="19.15" y1="-2.68" x2="19.15" y2="0.73"/><line class="cls-1" x1="34.15" y1="-2.68" x2="34.15" y2="0.73"/><line class="cls-1" x1="47.9" y1="-2.68" x2="47.9" y2="0.73"/><line class="cls-1" x1="13.33" y1="0.74" x2="13.33" y2="4.78"/><line class="cls-1" x1="13.33" y1="0.73" x2="13.33" y2="0.74"/><line class="cls-1" x1="26.83" y1="0.73" x2="26.83" y2="0.74"/><line class="cls-1" x1="26.83" y1="0.74" x2="26.83" y2="4.78"/><line class="cls-1" x1="40.46" y1="0.74" x2="40.46" y2="4.78"/><line class="cls-1" x1="40.46" y1="0.73" x2="40.46" y2="0.74"/><line class="cls-1" x1="46.71" y1="4.84" x2="46.71" y2="8.58"/><line class="cls-1" x1="33.38" y1="4.84" x2="33.38" y2="8.58"/><line class="cls-1" x1="18.38" y1="4.84" x2="18.38" y2="8.58"/><line class="cls-1" x1="12.2" y1="8.64" x2="12.2" y2="12.78"/><line class="cls-1" x1="25.2" y1="8.64" x2="25.2" y2="12.78"/><line class="cls-1" x1="38.82" y1="8.64" x2="38.82" y2="12.78"/><line class="cls-1" x1="53.07" y1="8.64" x2="53.07" y2="12.78"/><line class="cls-1" x1="48.87" y1="12.84" x2="48.87" y2="16"/><line class="cls-1" x1="34.72" y1="12.84" x2="34.72" y2="16"/><line class="cls-1" x1="19.6" y1="12.84" x2="19.6" y2="16"/><line class="cls-1" x1="7.18" y1="12.84" x2="7.18" y2="16"/><line class="cls-1" x1="13.55" y1="19.63" x2="13.55" y2="16.07"/><line class="cls-1" x1="26.8" y1="19.63" x2="26.8" y2="16.07"/><line class="cls-1" x1="40.43" y1="19.63" x2="40.43" y2="16.07"/><line class="cls-1" x1="46.95" y1="23.4" x2="46.95" y2="19.68"/><line class="cls-1" x1="46.95" y1="23.4" x2="46.95" y2="23.44"/><line class="cls-1" x1="33.08" y1="23.4" x2="33.08" y2="23.44"/><line class="cls-1" x1="33.08" y1="19.68" x2="33.08" y2="23.4"/><line class="cls-1" x1="18.53" y1="23.4" x2="18.53" y2="19.68"/><line class="cls-1" x1="18.53" y1="23.4" x2="18.53" y2="23.44"/><line class="cls-1" x1="58.4" y1="27.82" x2="45.03" y2="27.82"/><line class="cls-1" x1="45.03" y1="27.82" x2="31.4" y2="27.82"/><line class="cls-1" x1="31.4" y1="27.82" x2="16.97" y2="27.82"/><line class="cls-1" x1="16.97" y1="27.82" x2="6.67" y2="27.82"/><line class="cls-1" x1="16.97" y1="27.79" x2="16.97" y2="27.82"/><line class="cls-1" x1="16.97" y1="31.19" x2="16.97" y2="31.25"/><line class="cls-1" x1="16.97" y1="31.19" x2="16.97" y2="27.82"/><line class="cls-1" x1="31.4" y1="31.19" x2="31.4" y2="27.82"/><line class="cls-1" x1="31.4" y1="27.79" x2="31.4" y2="27.82"/><line class="cls-1" x1="31.4" y1="31.19" x2="31.4" y2="31.25"/><line class="cls-1" x1="45.03" y1="27.79" x2="45.03" y2="27.82"/><line class="cls-1" x1="45.03" y1="31.19" x2="45.03" y2="31.25"/><line class="cls-1" x1="45.03" y1="31.19" x2="45.03" y2="27.82"/><line class="cls-1" x1="11.24" y1="27.79" x2="11.24" y2="23.44"/><line class="cls-1" x1="24.24" y1="23.44" x2="24.24" y2="27.79"/><line class="cls-1" x1="38.24" y1="23.44" x2="38.24" y2="27.79"/><line class="cls-1" x1="52.8" y1="27.79" x2="52.8" y2="23.44"/><path class="cls-1" d="M6.67,3.68l.53,0c1.32,0,2.39-.36,2.39-.8S8.52,2.11,7.2,2.11l-.53,0"/><path class="cls-1" d="M17.44,2.9c0,.44,1.07.8,2.39.8s2.38-.36,2.38-.8-1.07-.79-2.38-.79S17.44,2.46,17.44,2.9Z"/><path class="cls-1" d="M31.07,2.9c0,.44,1.07.8,2.38.8s2.39-.36,2.39-.8-1.07-.79-2.39-.79S31.07,2.46,31.07,2.9Z"/><path class="cls-1" d="M45.57,2.9c0,.44,1.07.8,2.38.8s2.39-.36,2.39-.8S49.27,2.11,48,2.11,45.57,2.46,45.57,2.9Z"/><path class="cls-1" d="M9.07,6.78c0,.44,1.07.79,2.38.79s2.39-.35,2.39-.79S12.77,6,11.45,6,9.07,6.34,9.07,6.78Z"/><path class="cls-1" d="M22.94,6.78c0,.44,1.07.79,2.39.79s2.38-.35,2.38-.79S26.64,6,25.33,6,22.94,6.34,22.94,6.78Z"/><path class="cls-1" d="M37.44,6.78c0,.44,1.07.79,2.39.79s2.38-.35,2.38-.79S41.14,6,39.83,6,37.44,6.34,37.44,6.78Z"/><path class="cls-1" d="M50.57,6.78c0,.44,1.07.79,2.38.79s2.39-.35,2.39-.79S54.27,6,53,6,50.57,6.34,50.57,6.78Z"/><path class="cls-1" d="M6.67,11.63c.84-.12,1.42-.4,1.42-.73s-.58-.6-1.42-.72"/><path class="cls-1" d="M16.19,10.9c0,.44,1.07.8,2.39.8S21,11.34,21,10.9s-1.07-.79-2.38-.79S16.19,10.46,16.19,10.9Z"/><path class="cls-1" d="M29.44,10.9c0,.44,1.07.8,2.39.8s2.38-.36,2.38-.8-1.07-.79-2.38-.79S29.44,10.46,29.44,10.9Z"/><path class="cls-1" d="M43.32,10.9c0,.44,1.07.8,2.38.8s2.39-.36,2.39-.8-1.07-.79-2.39-.79S43.32,10.46,43.32,10.9Z"/><path class="cls-1" d="M10.82,14.4c0,.44,1.07.8,2.38.8s2.39-.36,2.39-.8-1.07-.79-2.39-.79S10.82,14,10.82,14.4Z"/><path class="cls-1" d="M24.32,14.4c0,.44,1.07.8,2.38.8s2.39-.36,2.39-.8-1.07-.79-2.39-.79S24.32,14,24.32,14.4Z"/><path class="cls-1" d="M38.94,14.4c0,.44,1.07.8,2.39.8s2.38-.36,2.38-.8-1.07-.79-2.38-.79S38.94,14,38.94,14.4Z"/><path class="cls-1" d="M52.44,14.4c0,.44,1.07.8,2.39.8s2.38-.36,2.38-.8-1.07-.79-2.38-.79S52.44,14,52.44,14.4Z"/><path class="cls-1" d="M6.67,18.67q.31,0,.66,0c1.31,0,2.38-.36,2.38-.8s-1.07-.79-2.38-.79q-.35,0-.66,0"/><path class="cls-1" d="M22.21,17.9c0-.44-1.07-.79-2.38-.79s-2.39.35-2.39.79,1.07.8,2.39.8S22.21,18.34,22.21,17.9Z"/><path class="cls-1" d="M35.71,17.9c0-.44-1.07-.79-2.38-.79s-2.39.35-2.39.79,1.07.8,2.39.8S35.71,18.34,35.71,17.9Z"/><path class="cls-1" d="M50.09,17.9c0-.44-1.07-.79-2.39-.79s-2.38.35-2.38.79,1.07.8,2.38.8S50.09,18.34,50.09,17.9Z"/><path class="cls-1" d="M9.19,21.65c0,.44,1.07.8,2.39.8s2.38-.36,2.38-.8-1.07-.79-2.38-.79S9.19,21.21,9.19,21.65Z"/><path class="cls-1" d="M25.45,20.86c-1.31,0-2.38.35-2.38.79s1.07.8,2.38.8,2.39-.36,2.39-.8S26.77,20.86,25.45,20.86Z"/><path class="cls-1" d="M37.57,21.65c0,.44,1.07.8,2.38.8s2.39-.36,2.39-.8-1.07-.79-2.39-.79S37.57,21.21,37.57,21.65Z"/><path class="cls-1" d="M51.32,21.65c0,.44,1.07.8,2.38.8s2.39-.36,2.39-.8-1.07-.79-2.39-.79S51.32,21.21,51.32,21.65Z"/><path class="cls-1" d="M6.67,26.33c.41-.14.67-.34.67-.55s-.26-.41-.67-.55"/><path class="cls-1" d="M17.58,26.57c1.31,0,2.38-.35,2.38-.79s-1.07-.8-2.38-.8-2.39.36-2.39.8S16.26,26.57,17.58,26.57Z"/><path class="cls-1" d="M33.71,25.78c0-.44-1.07-.8-2.38-.8s-2.39.36-2.39.8,1.07.79,2.39.79S33.71,26.22,33.71,25.78Z"/><path class="cls-1" d="M45.45,26.57c1.32,0,2.39-.35,2.39-.79s-1.07-.8-2.39-.8-2.38.36-2.38.8S44.14,26.57,45.45,26.57Z"/><path class="cls-1" d="M12.71,29.65c0-.44-1.07-.79-2.38-.79s-2.39.35-2.39.79,1.07.8,2.39.8S12.71,30.09,12.71,29.65Z"/><path class="cls-1" d="M26.21,29.65c0-.44-1.07-.79-2.38-.79s-2.39.35-2.39.79,1.07.8,2.39.8S26.21,30.09,26.21,29.65Z"/><path class="cls-1" d="M40.46,29.65c0-.44-1.07-.79-2.38-.79s-2.39.35-2.39.79,1.07.8,2.39.8S40.46,30.09,40.46,29.65Z"/><path class="cls-1" d="M54,29.65c0-.44-1.07-.79-2.38-.79s-2.39.35-2.39.79,1.07.8,2.39.8S54,30.09,54,29.65Z"/><rect class="cls-2" x="6.67" y="-22.1" width="54.13" height="54.13"/><line class="cls-1" x1="34.15" y1="35.78" x2="25.35" y2="35.78"/><line class="cls-1" x1="34.15" y1="35.78" x2="38.85" y2="35.78"/><line class="cls-1" x1="19.27" y1="35.78" x2="25.35" y2="35.78"/><line class="cls-1" x1="47.77" y1="35.78" x2="53.22" y2="35.78"/><line class="cls-1" x1="60.6" y1="35.78" x2="53.22" y2="35.78"/><line class="cls-1" x1="47.77" y1="35.78" x2="38.85" y2="35.78"/><line class="cls-1" x1="19.27" y1="35.78" x2="12.6" y2="35.78"/><line class="cls-1" x1="6.67" y1="35.78" x2="12.6" y2="35.78"/><line class="cls-1" x1="6.67" y1="39.95" x2="60.8" y2="39.95"/><line class="cls-1" x1="46.83" y1="44.14" x2="60.08" y2="44.14"/><line class="cls-1" x1="46.83" y1="44.14" x2="33.46" y2="44.14"/><line class="cls-1" x1="33.46" y1="44.14" x2="18.58" y2="44.14"/><line class="cls-1" x1="18.58" y1="44.14" x2="6.67" y2="44.14"/><line class="cls-1" x1="53.22" y1="48.16" x2="60.8" y2="48.16"/><line class="cls-1" x1="25.35" y1="48.16" x2="38.6" y2="48.16"/><line class="cls-1" x1="38.6" y1="48.16" x2="53.22" y2="48.16"/><line class="cls-1" x1="25.35" y1="48.16" x2="12.6" y2="48.16"/><line class="cls-1" x1="12.6" y1="48.16" x2="6.67" y2="48.16"/><line class="cls-1" x1="34.15" y1="51.44" x2="19.15" y2="51.44"/><line class="cls-1" x1="47.9" y1="51.44" x2="34.15" y2="51.44"/><line class="cls-1" x1="47.9" y1="51.44" x2="60.65" y2="51.44"/><line class="cls-1" x1="19.15" y1="51.44" x2="6.67" y2="51.44"/><line class="cls-1" x1="12.6" y1="32.03" x2="12.6" y2="35.78"/><line class="cls-1" x1="25.35" y1="32.03" x2="25.35" y2="35.78"/><line class="cls-1" x1="38.85" y1="32.03" x2="38.85" y2="35.78"/><line class="cls-1" x1="53.22" y1="32.03" x2="53.22" y2="35.78"/><line class="cls-1" x1="19.27" y1="35.78" x2="19.27" y2="35.72"/><line class="cls-1" x1="19.27" y1="35.78" x2="19.27" y2="39.94"/><line class="cls-1" x1="34.15" y1="35.78" x2="34.15" y2="39.94"/><line class="cls-1" x1="34.15" y1="35.78" x2="34.15" y2="35.72"/><line class="cls-1" x1="47.77" y1="35.78" x2="47.77" y2="35.72"/><line class="cls-1" x1="47.77" y1="35.78" x2="47.77" y2="39.94"/><line class="cls-1" x1="13.71" y1="44.13" x2="13.71" y2="40.08"/><line class="cls-1" x1="26.96" y1="44.13" x2="26.96" y2="40.08"/><line class="cls-1" x1="40.52" y1="44.13" x2="40.52" y2="40.08"/><line class="cls-1" x1="46.83" y1="44.14" x2="46.83" y2="44.13"/><line class="cls-1" x1="46.83" y1="44.14" x2="46.83" y2="48.13"/><line class="cls-1" x1="33.46" y1="44.14" x2="33.46" y2="44.13"/><line class="cls-1" x1="33.46" y1="44.14" x2="33.46" y2="48.13"/><line class="cls-1" x1="18.58" y1="44.14" x2="18.58" y2="48.13"/><line class="cls-1" x1="18.58" y1="44.14" x2="18.58" y2="44.13"/><line class="cls-1" x1="53.22" y1="48.16" x2="53.22" y2="51.43"/><line class="cls-1" x1="53.22" y1="48.16" x2="53.22" y2="48.13"/><line class="cls-1" x1="38.6" y1="48.16" x2="38.6" y2="51.43"/><line class="cls-1" x1="38.6" y1="48.16" x2="38.6" y2="48.13"/><line class="cls-1" x1="25.35" y1="48.16" x2="25.35" y2="51.43"/><line class="cls-1" x1="25.35" y1="48.16" x2="25.35" y2="48.13"/><line class="cls-1" x1="12.6" y1="48.16" x2="12.6" y2="48.13"/><line class="cls-1" x1="12.6" y1="48.16" x2="12.6" y2="51.43"/><line class="cls-1" x1="19.15" y1="51.44" x2="19.15" y2="51.43"/><line class="cls-1" x1="19.15" y1="51.44" x2="19.15" y2="54.85"/><line class="cls-1" x1="34.15" y1="51.44" x2="34.15" y2="54.85"/><line class="cls-1" x1="34.15" y1="51.43" x2="34.15" y2="51.44"/><line class="cls-1" x1="47.9" y1="51.44" x2="47.9" y2="54.85"/><line class="cls-1" x1="47.9" y1="51.44" x2="47.9" y2="51.43"/><path class="cls-1" d="M6.67,42.87a6.53,6.53,0,0,0,1,.08c1.32,0,2.39-.36,2.39-.8S9,41.36,7.7,41.36a6.53,6.53,0,0,0-1,.08"/><path class="cls-1" d="M22.71,42.15c0-.44-1.07-.79-2.38-.79s-2.39.35-2.39.79,1.07.8,2.39.8S22.71,42.59,22.71,42.15Z"/><path class="cls-1" d="M36.34,42.15c0-.44-1.07-.79-2.39-.79s-2.38.35-2.38.79,1.07.8,2.38.8S36.34,42.59,36.34,42.15Z"/><path class="cls-1" d="M50.59,42.15c0-.44-1.07-.79-2.39-.79s-2.38.35-2.38.79,1.07.8,2.38.8S50.59,42.59,50.59,42.15Z"/><path class="cls-1" d="M6.67,34.51c1-.11,1.64-.41,1.64-.76S7.62,33.1,6.67,33"/><path class="cls-1" d="M21.21,33.75c0-.44-1.07-.79-2.38-.79s-2.39.35-2.39.79,1.07.8,2.39.8S21.21,34.19,21.21,33.75Z"/><path class="cls-1" d="M34.59,33.75c0-.44-1.07-.79-2.39-.79s-2.38.35-2.38.79,1.07.8,2.38.8S34.59,34.19,34.59,33.75Z"/><path class="cls-1" d="M48.34,33.75c0-.44-1.07-.79-2.39-.79s-2.38.35-2.38.79,1.07.8,2.38.8S48.34,34.19,48.34,33.75Z"/><path class="cls-1" d="M10.32,38c0,.44,1.07.79,2.38.79s2.39-.35,2.39-.79-1.07-.8-2.39-.8S10.32,37.59,10.32,38Z"/><path class="cls-1" d="M24.32,38c0,.44,1.07.79,2.38.79s2.39-.35,2.39-.79-1.07-.8-2.39-.8S24.32,37.59,24.32,38Z"/><path class="cls-1" d="M38.44,38c0,.44,1.07.79,2.39.79s2.38-.35,2.38-.79-1.07-.8-2.38-.8S38.44,37.59,38.44,38Z"/><path class="cls-1" d="M51.94,38c0,.44,1.07.79,2.39.79s2.38-.35,2.38-.79-1.07-.8-2.38-.8S51.94,37.59,51.94,38Z"/><path class="cls-1" d="M9.82,46.28c0,.44,1.07.79,2.38.79s2.39-.35,2.39-.79-1.07-.8-2.39-.8S9.82,45.84,9.82,46.28Z"/><path class="cls-1" d="M23.57,46.28c0,.44,1.07.79,2.38.79s2.39-.35,2.39-.79-1.07-.8-2.39-.8S23.57,45.84,23.57,46.28Z"/><path class="cls-1" d="M40.33,47.07c1.31,0,2.38-.35,2.38-.79s-1.07-.8-2.38-.8-2.39.36-2.39.8S39,47.07,40.33,47.07Z"/><path class="cls-1" d="M54,47.07c1.32,0,2.39-.35,2.39-.79s-1.07-.8-2.39-.8-2.38.36-2.38.8S52.64,47.07,54,47.07Z"/><path class="cls-1" d="M6.67,50.7c1-.08,1.82-.4,1.82-.77s-.78-.69-1.82-.77"/><path class="cls-1" d="M16.57,49.93c0,.44,1.07.79,2.38.79s2.39-.35,2.39-.79-1.07-.8-2.39-.8S16.57,49.49,16.57,49.93Z"/><path class="cls-1" d="M34.71,49.93c0-.44-1.07-.8-2.38-.8s-2.39.36-2.39.8,1.07.79,2.39.79S34.71,50.37,34.71,49.93Z"/><path class="cls-1" d="M45.83,50.72c1.31,0,2.38-.35,2.38-.79s-1.07-.8-2.38-.8-2.39.36-2.39.8S44.51,50.72,45.83,50.72Z"/><path class="cls-1" d="M14.71,53.15c0-.44-1.07-.79-2.38-.79s-2.39.35-2.39.79,1.07.8,2.39.8S14.71,53.59,14.71,53.15Z"/><path class="cls-1" d="M28.59,53.15c0-.44-1.07-.79-2.39-.79s-2.38.35-2.38.79,1.07.8,2.38.8S28.59,53.59,28.59,53.15Z"/><path class="cls-1" d="M41,54c1.32,0,2.39-.36,2.39-.8s-1.07-.79-2.39-.79-2.38.35-2.38.79S39.64,54,41,54Z"/><path class="cls-1" d="M54.2,54c1.32,0,2.39-.36,2.39-.8s-1.07-.79-2.39-.79-2.38.35-2.38.79S52.89,54,54.2,54Z"/><rect class="cls-2" x="6.67" y="32.03" width="54.13" height="54.13"/><line class="cls-1" x1="-13.7" y1="19.63" x2="1.18" y2="19.63"/><line class="cls-1" x1="1.18" y1="19.63" x2="6.67" y2="19.63"/><line class="cls-1" x1="-7.17" y1="23.4" x2="6.28" y2="23.4"/><line class="cls-1" x1="6.28" y1="23.4" x2="6.67" y2="23.4"/><line class="cls-1" x1="1.21" y1="0.74" x2="-13.67" y2="0.74"/><line class="cls-1" x1="1.21" y1="0.74" x2="6.67" y2="0.74"/><line class="cls-1" x1="-47.45" y1="4.79" x2="6.67" y2="4.79"/><line class="cls-1" x1="-47.45" y1="8.59" x2="6.67" y2="8.59"/><line class="cls-1" x1="-47.45" y1="12.79" x2="6.67" y2="12.79"/><line class="cls-1" x1="-47.45" y1="16.02" x2="6.67" y2="16.02"/><line class="cls-1" x1="4.28" y1="31.19" x2="6.67" y2="31.19"/><line class="cls-1" x1="4.28" y1="31.19" x2="-0.9" y2="31.19"/><line class="cls-1" x1="6.52" y1="-2.68" x2="6.52" y2="0.73"/><line class="cls-1" x1="1.21" y1="0.74" x2="1.21" y2="4.78"/><line class="cls-1" x1="1.21" y1="0.74" x2="1.21" y2="0.73"/><line class="cls-1" x1="5.81" y1="8.58" x2="5.81" y2="4.84"/><line class="cls-1" x1="1.18" y1="19.63" x2="1.18" y2="16.07"/><line class="cls-1" x1="6.28" y1="23.4" x2="6.28" y2="23.44"/><line class="cls-1" x1="6.28" y1="19.68" x2="6.28" y2="23.4"/><line class="cls-1" x1="4.28" y1="27.82" x2="-9.1" y2="27.82"/><line class="cls-1" x1="4.28" y1="27.82" x2="6.67" y2="27.82"/><line class="cls-1" x1="4.28" y1="27.82" x2="4.28" y2="27.79"/><line class="cls-1" x1="4.28" y1="31.19" x2="4.28" y2="31.25"/><line class="cls-1" x1="4.28" y1="31.19" x2="4.28" y2="27.82"/><path class="cls-1" d="M-3.56,6.78c0,.44,1.07.79,2.39.79s2.38-.35,2.38-.79S.14,6-1.17,6-3.56,6.34-3.56,6.78Z"/><path class="cls-1" d="M-1.68,14.4c0,.44,1.07.8,2.38.8s2.39-.36,2.39-.8S2,13.61.7,13.61-1.68,14-1.68,14.4Z"/><path class="cls-1" d="M-2.81,21.65c0,.44,1.07.8,2.39.8S2,22.09,2,21.65s-1.07-.79-2.38-.79S-2.81,21.21-2.81,21.65Z"/><path class="cls-1" d="M6.67,2.13c-1.06.08-1.85.39-1.85.77s.79.7,1.85.78"/><path class="cls-1" d="M6.67,10.18a5.82,5.82,0,0,0-1-.07c-1.31,0-2.38.35-2.38.79s1.07.8,2.38.8a7.12,7.12,0,0,0,1-.07"/><path class="cls-1" d="M6.67,17.14c-1,.09-1.73.4-1.73.76s.73.67,1.73.77"/><path class="cls-1" d="M6.67,25.23A5.44,5.44,0,0,0,5,25c-1.31,0-2.38.36-2.38.8s1.07.79,2.38.79a5.47,5.47,0,0,0,1.72-.24"/><rect class="cls-2" x="-47.45" y="-22.1" width="54.13" height="54.13"/><line class="cls-1" x1="6.47" y1="35.78" x2="-0.9" y2="35.78"/><line class="cls-1" x1="6.47" y1="35.78" x2="6.67" y2="35.78"/><line class="cls-1" x1="-47.45" y1="39.95" x2="6.67" y2="39.95"/><line class="cls-1" x1="5.96" y1="44.14" x2="6.67" y2="44.14"/><line class="cls-1" x1="-7.29" y1="44.14" x2="5.96" y2="44.14"/><line class="cls-1" x1="-0.9" y1="48.16" x2="6.67" y2="48.16"/><line class="cls-1" x1="6.52" y1="51.44" x2="6.67" y2="51.44"/><line class="cls-1" x1="-6.23" y1="51.44" x2="6.52" y2="51.44"/><line class="cls-1" x1="6.47" y1="35.78" x2="6.47" y2="39.94"/><line class="cls-1" x1="6.47" y1="35.78" x2="6.47" y2="35.72"/><line class="cls-1" x1="1.33" y1="44.13" x2="1.33" y2="40.08"/><line class="cls-1" x1="5.96" y1="44.14" x2="5.96" y2="44.13"/><line class="cls-1" x1="5.96" y1="44.14" x2="5.96" y2="48.13"/><line class="cls-1" x1="6.52" y1="51.44" x2="6.52" y2="54.85"/><line class="cls-1" x1="6.52" y1="51.44" x2="6.52" y2="51.43"/><path class="cls-1" d="M-2.18,38c0,.44,1.07.79,2.38.79s2.39-.35,2.39-.79-1.07-.8-2.39-.8S-2.18,37.59-2.18,38Z"/><path class="cls-1" d="M-.17,47.07c1.31,0,2.38-.35,2.38-.79s-1.07-.8-2.38-.8-2.39.36-2.39.8S-1.49,47.07-.17,47.07Z"/><path class="cls-1" d="M.08,54c1.31,0,2.38-.36,2.38-.8s-1.07-.79-2.38-.79-2.39.35-2.39.79S-1.24,54,.08,54Z"/><path class="cls-1" d="M6.67,41.44c-.8.12-1.35.4-1.35.71s.55.59,1.35.72"/><path class="cls-1" d="M6.67,33a5.8,5.8,0,0,0-.74,0c-1.32,0-2.39.35-2.39.79s1.07.8,2.39.8c.26,0,.51,0,.74,0"/><path class="cls-1" d="M6.67,49.16a5.17,5.17,0,0,0-.57,0c-1.31,0-2.38.36-2.38.8s1.07.79,2.38.79a5.24,5.24,0,0,0,.57,0"/><rect class="cls-2" x="-47.45" y="32.03" width="54.13" height="54.13"/><rect class="cls-2" width="54.12" height="54.13"/></svg>