<svg id="Layer_1" data-name="Layer 1" xmlns="http://www.w3.org/2000/svg" width="54.2" height="54.13" viewBox="0 0 54.2 54.13"><defs><style>.cls-1,.cls-2{fill:none;}.cls-1{stroke:#000;stroke-width:0.3px;}</style></defs><title>Artboard 37</title><line class="cls-1" x1="30.87" y1="22.3" x2="44.49" y2="22.3"/><line class="cls-1" x1="30.87" y1="22.3" x2="17.62" y2="22.3"/><line class="cls-1" x1="59.37" y1="22.3" x2="44.49" y2="22.3"/><line class="cls-1" x1="17.62" y1="22.3" x2="10.73" y2="22.3"/><line class="cls-1" x1="37.14" y1="26.07" x2="51.02" y2="26.07"/><line class="cls-1" x1="10.73" y1="26.07" x2="22.59" y2="26.07"/><line class="cls-1" x1="37.14" y1="26.07" x2="22.59" y2="26.07"/><line class="cls-1" x1="64.47" y1="26.07" x2="51.02" y2="26.07"/><line class="cls-1" x1="64.71" y1="-0.01" x2="51.96" y2="-0.01"/><line class="cls-1" x1="23.21" y1="-0.01" x2="10.73" y2="-0.01"/><line class="cls-1" x1="38.21" y1="-0.01" x2="51.96" y2="-0.01"/><line class="cls-1" x1="23.21" y1="-0.01" x2="38.21" y2="-0.01"/><line class="cls-1" x1="30.89" y1="3.41" x2="17.39" y2="3.41"/><line class="cls-1" x1="17.39" y1="3.41" x2="10.73" y2="3.41"/><line class="cls-1" x1="44.52" y1="3.41" x2="30.89" y2="3.41"/><line class="cls-1" x1="59.39" y1="3.41" x2="44.52" y2="3.41"/><line class="cls-1" x1="10.73" y1="7.46" x2="64.86" y2="7.46"/><line class="cls-1" x1="10.73" y1="11.26" x2="64.86" y2="11.26"/><line class="cls-1" x1="10.73" y1="15.46" x2="64.86" y2="15.46"/><line class="cls-1" x1="10.73" y1="18.69" x2="64.86" y2="18.69"/><line class="cls-1" x1="29.41" y1="33.86" x2="21.03" y2="33.86"/><line class="cls-1" x1="42.91" y1="33.86" x2="49.09" y2="33.86"/><line class="cls-1" x1="29.41" y1="33.86" x2="35.47" y2="33.86"/><line class="cls-1" x1="16.66" y1="33.86" x2="21.03" y2="33.86"/><line class="cls-1" x1="10.73" y1="33.86" x2="16.66" y2="33.86"/><line class="cls-1" x1="57.28" y1="33.86" x2="49.09" y2="33.86"/><line class="cls-1" x1="35.47" y1="33.86" x2="42.91" y2="33.86"/><line class="cls-1" x1="16.66" y1="34.7" x2="16.66" y2="33.86"/><line class="cls-1" x1="16.66" y1="33.85" x2="16.66" y2="33.86"/><line class="cls-1" x1="29.41" y1="33.86" x2="29.41" y2="33.85"/><line class="cls-1" x1="29.41" y1="33.86" x2="29.41" y2="34.7"/><line class="cls-1" x1="42.91" y1="33.85" x2="42.91" y2="33.86"/><line class="cls-1" x1="42.91" y1="34.7" x2="42.91" y2="33.86"/><line class="cls-1" x1="23.21" y1="-0.01" x2="23.21" y2="3.4"/><line class="cls-1" x1="38.21" y1="-0.01" x2="38.21" y2="3.4"/><line class="cls-1" x1="51.96" y1="-0.01" x2="51.96" y2="3.4"/><line class="cls-1" x1="17.39" y1="3.41" x2="17.39" y2="7.45"/><line class="cls-1" x1="17.39" y1="3.4" x2="17.39" y2="3.41"/><line class="cls-1" x1="30.89" y1="3.41" x2="30.89" y2="7.45"/><line class="cls-1" x1="30.89" y1="3.4" x2="30.89" y2="3.41"/><line class="cls-1" x1="44.52" y1="3.41" x2="44.52" y2="7.45"/><line class="cls-1" x1="44.52" y1="3.4" x2="44.52" y2="3.41"/><line class="cls-1" x1="50.77" y1="7.51" x2="50.77" y2="11.25"/><line class="cls-1" x1="37.44" y1="7.51" x2="37.44" y2="11.25"/><line class="cls-1" x1="22.44" y1="7.51" x2="22.44" y2="11.25"/><line class="cls-1" x1="16.26" y1="11.31" x2="16.26" y2="15.45"/><line class="cls-1" x1="29.26" y1="11.31" x2="29.26" y2="15.45"/><line class="cls-1" x1="42.88" y1="11.31" x2="42.88" y2="15.45"/><line class="cls-1" x1="52.93" y1="18.67" x2="52.93" y2="15.51"/><line class="cls-1" x1="38.78" y1="15.51" x2="38.78" y2="18.67"/><line class="cls-1" x1="23.66" y1="15.51" x2="23.66" y2="18.67"/><line class="cls-1" x1="11.24" y1="15.51" x2="11.24" y2="18.67"/><line class="cls-1" x1="17.62" y1="18.74" x2="17.62" y2="22.3"/><line class="cls-1" x1="30.87" y1="22.3" x2="30.87" y2="18.74"/><line class="cls-1" x1="44.49" y1="18.74" x2="44.49" y2="22.3"/><line class="cls-1" x1="51.02" y1="26.11" x2="51.02" y2="26.07"/><line class="cls-1" x1="51.02" y1="22.35" x2="51.02" y2="26.07"/><line class="cls-1" x1="37.14" y1="22.35" x2="37.14" y2="26.07"/><line class="cls-1" x1="37.14" y1="26.07" x2="37.14" y2="26.11"/><line class="cls-1" x1="22.59" y1="26.07" x2="22.59" y2="26.11"/><line class="cls-1" x1="22.59" y1="26.07" x2="22.59" y2="22.35"/><line class="cls-1" x1="35.47" y1="30.49" x2="49.09" y2="30.49"/><line class="cls-1" x1="35.47" y1="30.49" x2="21.03" y2="30.49"/><line class="cls-1" x1="62.47" y1="30.49" x2="49.09" y2="30.49"/><line class="cls-1" x1="10.73" y1="30.49" x2="21.03" y2="30.49"/><line class="cls-1" x1="21.03" y1="30.49" x2="21.03" y2="33.86"/><line class="cls-1" x1="21.03" y1="30.46" x2="21.03" y2="30.49"/><line class="cls-1" x1="21.03" y1="33.92" x2="21.03" y2="33.86"/><line class="cls-1" x1="35.47" y1="30.49" x2="35.47" y2="30.46"/><line class="cls-1" x1="35.47" y1="33.92" x2="35.47" y2="33.86"/><line class="cls-1" x1="35.47" y1="30.49" x2="35.47" y2="33.86"/><line class="cls-1" x1="49.09" y1="30.46" x2="49.09" y2="30.49"/><line class="cls-1" x1="49.09" y1="30.49" x2="49.09" y2="33.86"/><line class="cls-1" x1="49.09" y1="33.92" x2="49.09" y2="33.86"/><line class="cls-1" x1="15.3" y1="26.11" x2="15.3" y2="30.46"/><line class="cls-1" x1="28.3" y1="26.11" x2="28.3" y2="30.46"/><line class="cls-1" x1="42.3" y1="26.11" x2="42.3" y2="30.46"/><path class="cls-1" d="M14,1.7c0,.44,1.06.79,2.38.79s2.38-.35,2.38-.79S17.71.91,16.39.91,14,1.26,14,1.7Z"/><path class="cls-1" d="M35.13,5.57c0,.44,1.07.8,2.38.8S39.9,6,39.9,5.57s-1.07-.79-2.39-.79S35.13,5.14,35.13,5.57Z"/><path class="cls-1" d="M20.26,13.57c0,.44,1.06.8,2.38.8S25,14,25,13.57s-1.06-.79-2.38-.79S20.26,13.14,20.26,13.57Z"/><path class="cls-1" d="M43,17.07c0,.44,1.06.8,2.38.8s2.38-.36,2.38-.8-1.06-.79-2.38-.79S43,16.64,43,17.07Z"/><path class="cls-1" d="M30.26,23.53c-1.31,0-2.38.36-2.38.79s1.07.8,2.38.8,2.39-.36,2.39-.8S31.58,23.53,30.26,23.53Z"/><path class="cls-1" d="M10.73,21.19c.41-.14.67-.34.67-.55s-.26-.41-.67-.55"/><path class="cls-1" d="M49.51,29.24c1.32,0,2.39-.35,2.39-.79s-1.07-.79-2.39-.79-2.38.35-2.38.79S48.2,29.24,49.51,29.24Z"/><path class="cls-1" d="M25.06,32.06c0,.43,1.07.79,2.39.79s2.38-.36,2.38-.79-1.07-.8-2.38-.8S25.06,31.62,25.06,32.06Z"/><rect class="cls-2" x="10.73" y="-19.43" width="54.13" height="54.13"/><line class="cls-1" x1="42.91" y1="38.45" x2="51.83" y2="38.45"/><line class="cls-1" x1="42.91" y1="38.45" x2="38.21" y2="38.45"/><line class="cls-1" x1="57.28" y1="38.45" x2="51.83" y2="38.45"/><line class="cls-1" x1="23.33" y1="38.45" x2="16.66" y2="38.45"/><line class="cls-1" x1="23.33" y1="38.45" x2="29.41" y2="38.45"/><line class="cls-1" x1="38.21" y1="38.45" x2="29.41" y2="38.45"/><line class="cls-1" x1="10.73" y1="38.45" x2="16.66" y2="38.45"/><line class="cls-1" x1="64.86" y1="42.62" x2="10.73" y2="42.62"/><line class="cls-1" x1="22.64" y1="46.81" x2="37.52" y2="46.81"/><line class="cls-1" x1="64.14" y1="46.81" x2="50.89" y2="46.81"/><line class="cls-1" x1="22.64" y1="46.81" x2="10.73" y2="46.81"/><line class="cls-1" x1="37.52" y1="46.81" x2="50.89" y2="46.81"/><line class="cls-1" x1="42.66" y1="50.83" x2="29.41" y2="50.83"/><line class="cls-1" x1="42.66" y1="50.83" x2="57.28" y2="50.83"/><line class="cls-1" x1="29.41" y1="50.83" x2="16.66" y2="50.83"/><line class="cls-1" x1="10.73" y1="50.83" x2="16.66" y2="50.83"/><line class="cls-1" x1="64.71" y1="54.11" x2="51.96" y2="54.11"/><line class="cls-1" x1="23.21" y1="54.11" x2="10.73" y2="54.11"/><line class="cls-1" x1="38.21" y1="54.11" x2="51.96" y2="54.11"/><line class="cls-1" x1="23.21" y1="54.11" x2="38.21" y2="54.11"/><line class="cls-1" x1="16.66" y1="34.7" x2="16.66" y2="38.45"/><line class="cls-1" x1="29.41" y1="34.7" x2="29.41" y2="38.45"/><line class="cls-1" x1="42.91" y1="38.45" x2="42.91" y2="34.7"/><line class="cls-1" x1="23.33" y1="38.45" x2="23.33" y2="38.39"/><line class="cls-1" x1="23.33" y1="38.45" x2="23.33" y2="42.61"/><line class="cls-1" x1="38.21" y1="38.45" x2="38.21" y2="42.61"/><line class="cls-1" x1="38.21" y1="38.39" x2="38.21" y2="38.45"/><line class="cls-1" x1="51.83" y1="38.39" x2="51.83" y2="38.45"/><line class="cls-1" x1="51.83" y1="42.61" x2="51.83" y2="38.45"/><line class="cls-1" x1="17.77" y1="46.8" x2="17.77" y2="42.75"/><line class="cls-1" x1="31.02" y1="46.8" x2="31.02" y2="42.75"/><line class="cls-1" x1="44.58" y1="46.8" x2="44.58" y2="42.75"/><line class="cls-1" x1="50.89" y1="50.8" x2="50.89" y2="46.81"/><line class="cls-1" x1="50.89" y1="46.8" x2="50.89" y2="46.81"/><line class="cls-1" x1="37.52" y1="46.81" x2="37.52" y2="46.8"/><line class="cls-1" x1="37.52" y1="50.8" x2="37.52" y2="46.81"/><line class="cls-1" x1="22.64" y1="46.81" x2="22.64" y2="50.8"/><line class="cls-1" x1="22.64" y1="46.81" x2="22.64" y2="46.8"/><line class="cls-1" x1="42.66" y1="50.83" x2="42.66" y2="50.8"/><line class="cls-1" x1="42.66" y1="50.83" x2="42.66" y2="54.1"/><line class="cls-1" x1="29.41" y1="50.83" x2="29.41" y2="50.8"/><line class="cls-1" x1="29.41" y1="50.83" x2="29.41" y2="54.1"/><line class="cls-1" x1="16.66" y1="50.8" x2="16.66" y2="50.83"/><line class="cls-1" x1="16.66" y1="54.1" x2="16.66" y2="50.83"/><line class="cls-1" x1="23.21" y1="54.11" x2="23.21" y2="54.1"/><line class="cls-1" x1="23.21" y1="54.11" x2="23.21" y2="57.53"/><line class="cls-1" x1="38.21" y1="54.11" x2="38.21" y2="54.1"/><line class="cls-1" x1="38.21" y1="54.11" x2="38.21" y2="57.53"/><line class="cls-1" x1="51.96" y1="54.1" x2="51.96" y2="54.11"/><line class="cls-1" x1="51.96" y1="54.11" x2="51.96" y2="57.53"/><path class="cls-1" d="M10.73,45.54a6.63,6.63,0,0,0,1,.08c1.32,0,2.39-.36,2.39-.8S13.08,44,11.76,44a6.63,6.63,0,0,0-1,.08"/><path class="cls-1" d="M29.06,40.68c0,.44,1.07.79,2.39.79s2.38-.35,2.38-.79-1.07-.79-2.38-.79S29.06,40.24,29.06,40.68Z"/><path class="cls-1" d="M52.83,36.68c0-.44-1.07-.79-2.38-.79s-2.39.35-2.39.79,1.07.79,2.39.79S52.83,37.12,52.83,36.68Z"/><path class="cls-1" d="M31.55,49c0-.44-1.07-.79-2.39-.79s-2.38.35-2.38.79,1.07.79,2.38.79S31.55,49.39,31.55,49Z"/><path class="cls-1" d="M52.27,52.6c0-.44-1.06-.79-2.38-.79s-2.38.35-2.38.79,1.06.79,2.38.79S52.27,53,52.27,52.6Z"/><rect class="cls-2" x="10.73" y="34.7" width="54.13" height="54.13"/><line class="cls-1" x1="5.24" y1="22.3" x2="10.73" y2="22.3"/><line class="cls-1" x1="5.24" y1="22.3" x2="-9.63" y2="22.3"/><line class="cls-1" x1="10.34" y1="26.07" x2="10.73" y2="26.07"/><line class="cls-1" x1="10.34" y1="26.07" x2="-3.11" y2="26.07"/><line class="cls-1" x1="10.58" y1="-0.01" x2="10.73" y2="-0.01"/><line class="cls-1" x1="10.58" y1="-0.01" x2="-2.17" y2="-0.01"/><line class="cls-1" x1="5.27" y1="3.41" x2="10.73" y2="3.41"/><line class="cls-1" x1="5.27" y1="3.41" x2="-9.61" y2="3.41"/><line class="cls-1" x1="-43.39" y1="7.46" x2="10.73" y2="7.46"/><line class="cls-1" x1="-43.39" y1="11.26" x2="10.73" y2="11.26"/><line class="cls-1" x1="-43.39" y1="15.46" x2="10.73" y2="15.46"/><line class="cls-1" x1="-43.39" y1="18.69" x2="10.73" y2="18.69"/><line class="cls-1" x1="3.16" y1="33.86" x2="-5.03" y2="33.86"/><line class="cls-1" x1="8.34" y1="33.86" x2="3.16" y2="33.86"/><line class="cls-1" x1="8.34" y1="33.86" x2="10.73" y2="33.86"/><line class="cls-1" x1="3.16" y1="34.7" x2="3.16" y2="33.86"/><line class="cls-1" x1="3.16" y1="33.85" x2="3.16" y2="33.86"/><line class="cls-1" x1="10.58" y1="-0.01" x2="10.58" y2="3.4"/><line class="cls-1" x1="5.27" y1="3.41" x2="5.27" y2="3.4"/><line class="cls-1" x1="5.27" y1="3.41" x2="5.27" y2="7.45"/><line class="cls-1" x1="9.87" y1="11.25" x2="9.87" y2="7.51"/><line class="cls-1" x1="3.01" y1="11.31" x2="3.01" y2="15.45"/><line class="cls-1" x1="5.24" y1="22.3" x2="5.24" y2="18.74"/><line class="cls-1" x1="10.34" y1="26.07" x2="10.34" y2="22.35"/><line class="cls-1" x1="10.34" y1="26.07" x2="10.34" y2="26.11"/><line class="cls-1" x1="8.34" y1="30.49" x2="-5.03" y2="30.49"/><line class="cls-1" x1="8.34" y1="30.49" x2="10.73" y2="30.49"/><line class="cls-1" x1="8.34" y1="30.49" x2="8.34" y2="33.86"/><line class="cls-1" x1="8.34" y1="30.49" x2="8.34" y2="30.46"/><line class="cls-1" x1="8.34" y1="33.86" x2="8.34" y2="33.92"/><line class="cls-1" x1="2.74" y1="26.11" x2="2.74" y2="30.46"/><path class="cls-1" d="M.51,9.45c0,.44,1.06.79,2.38.79s2.38-.35,2.38-.79-1.06-.79-2.38-.79S.51,9,.51,9.45Z"/><path class="cls-1" d="M10.73,20.09A5.44,5.44,0,0,0,9,19.84c-1.31,0-2.38.36-2.38.8s1.07.79,2.38.79a5.47,5.47,0,0,0,1.72-.24"/><rect class="cls-2" x="-43.39" y="-19.43" width="54.13" height="54.13"/><line class="cls-1" x1="3.16" y1="38.45" x2="-2.29" y2="38.45"/><line class="cls-1" x1="10.53" y1="38.45" x2="3.16" y2="38.45"/><line class="cls-1" x1="10.53" y1="38.45" x2="10.73" y2="38.45"/><line class="cls-1" x1="10.73" y1="42.62" x2="-43.39" y2="42.62"/><line class="cls-1" x1="10.02" y1="46.81" x2="10.73" y2="46.81"/><line class="cls-1" x1="10.02" y1="46.81" x2="-3.23" y2="46.81"/><line class="cls-1" x1="3.16" y1="50.83" x2="10.73" y2="50.83"/><line class="cls-1" x1="-11.47" y1="50.83" x2="3.16" y2="50.83"/><line class="cls-1" x1="10.58" y1="54.11" x2="10.73" y2="54.11"/><line class="cls-1" x1="10.58" y1="54.11" x2="-2.17" y2="54.11"/><line class="cls-1" x1="3.16" y1="34.7" x2="3.16" y2="38.45"/><line class="cls-1" x1="10.53" y1="38.45" x2="10.53" y2="42.61"/><line class="cls-1" x1="10.53" y1="38.45" x2="10.53" y2="38.39"/><line class="cls-1" x1="5.39" y1="46.8" x2="5.39" y2="42.75"/><line class="cls-1" x1="10.02" y1="46.81" x2="10.02" y2="50.8"/><line class="cls-1" x1="10.02" y1="46.81" x2="10.02" y2="46.8"/><line class="cls-1" x1="3.16" y1="50.83" x2="3.16" y2="50.8"/><line class="cls-1" x1="3.16" y1="50.83" x2="3.16" y2="54.1"/><line class="cls-1" x1="10.58" y1="54.11" x2="10.58" y2="54.1"/><line class="cls-1" x1="10.58" y1="54.11" x2="10.58" y2="57.53"/><path class="cls-1" d="M10.73,44.11c-.8.13-1.35.4-1.35.71s.55.59,1.35.72"/><rect class="cls-2" x="-43.39" y="34.7" width="54.13" height="54.13"/><rect class="cls-2" width="54.2" height="54.2"/></svg>