<!-- Generator: Adobe Illustrator 22.1.0, SVG Export Plug-In  -->
<svg version="1.1"
     xmlns="http://www.w3.org/2000/svg" xmlns:xlink="http://www.w3.org/1999/xlink" xmlns:a="http://ns.adobe.com/AdobeSVGViewerExtensions/3.0/"
     x="0px" y="0px" width="54.1px" height="54.3px" viewBox="0 0 54.1 54.3" style="enable-background:new 0 0 54.1 54.3;"
     xml:space="preserve">
<style type="text/css">
    .st0{clip-path:url(#SVGID_2_);fill:none;stroke:#000000;stroke-width:0.3;}
    .st1{clip-path:url(#SVGID_4_);fill:none;stroke:#000000;stroke-width:0.3;}
</style>
<defs>
</defs>
<g>
    <defs>
        <rect id="SVGID_1_" y="0.1" width="54.1" height="54.1"/>
    </defs>
    <clipPath id="SVGID_2_">
        <use xlink:href="#SVGID_1_"  style="overflow:visible;"/>
    </clipPath>
    <line class="st0" x1="54.1" y1="3.8" x2="53.9" y2="3.8"/>
    <line class="st0" x1="27.5" y1="3.8" x2="18.7" y2="3.8"/>
    <line class="st0" x1="53.9" y1="3.8" x2="46.6" y2="3.8"/>
    <line class="st0" x1="13.6" y1="3.8" x2="18.7" y2="3.8"/>
    <line class="st0" x1="4.4" y1="3.8" x2="0" y2="3.8"/>
    <line class="st0" x1="30.7" y1="3.8" x2="46.6" y2="3.8"/>
    <line class="st0" x1="13.6" y1="3.8" x2="4.4" y2="3.8"/>
    <line class="st0" x1="27.5" y1="3.8" x2="30.7" y2="3.8"/>
    <line class="st0" x1="54.1" y1="8" x2="0" y2="8"/>
    <line class="st0" x1="54.1" y1="12.2" x2="53.4" y2="12.2"/>
    <line class="st0" x1="41.2" y1="12.2" x2="53.4" y2="12.2"/>
    <line class="st0" x1="26.8" y1="12.2" x2="41.2" y2="12.2"/>
    <line class="st0" x1="26.8" y1="12.2" x2="0" y2="12.2"/>
    <line class="st0" x1="20.1" y1="41.8" x2="32.3" y2="41.8"/>
    <line class="st0" x1="12.7" y1="41.8" x2="20.1" y2="41.8"/>
    <line class="st0" x1="32.3" y1="41.8" x2="41.1" y2="41.8"/>
    <line class="st0" x1="41.1" y1="41.8" x2="48.6" y2="41.8"/>
    <line class="st0" x1="5.4" y1="41.8" x2="12.7" y2="41.8"/>
    <line class="st0" x1="5.4" y1="41.8" x2="0" y2="41.8"/>
    <line class="st0" x1="48.6" y1="41.8" x2="54.1" y2="41.8"/>
    <line class="st0" x1="38.8" y1="45.6" x2="26.4" y2="45.6"/>
    <line class="st0" x1="10.4" y1="45.6" x2="26.4" y2="45.6"/>
    <line class="st0" x1="38.8" y1="45.6" x2="53.7" y2="45.6"/>
    <line class="st0" x1="53.7" y1="45.6" x2="54.1" y2="45.6"/>
    <line class="st0" x1="10.4" y1="45.6" x2="0" y2="45.6"/>
    <line class="st0" x1="5.9" y1="16.2" x2="31.9" y2="16.2"/>
    <line class="st0" x1="47" y1="16.2" x2="31.9" y2="16.2"/>
    <line class="st0" x1="47" y1="16.2" x2="54.1" y2="16.2"/>
    <line class="st0" x1="5.9" y1="16.2" x2="0" y2="16.2"/>
    <line class="st0" x1="12.5" y1="19.5" x2="0" y2="19.5"/>
    <line class="st0" x1="41.2" y1="19.5" x2="28" y2="19.5"/>
    <line class="st0" x1="54.1" y1="19.5" x2="54" y2="19.5"/>
    <line class="st0" x1="41.2" y1="19.5" x2="54" y2="19.5"/>
    <line class="st0" x1="28" y1="19.5" x2="12.5" y2="19.5"/>
    <line class="st0" x1="48.7" y1="22.9" x2="54.1" y2="22.9"/>
    <line class="st0" x1="48.7" y1="22.9" x2="20.2" y2="22.9"/>
    <line class="st0" x1="20.2" y1="22.9" x2="0" y2="22.9"/>
    <line class="st0" x1="54.1" y1="27" x2="0" y2="27"/>
    <line class="st0" x1="54.1" y1="30.8" x2="0" y2="30.8"/>
    <line class="st0" x1="54.1" y1="35" x2="0" y2="35"/>
    <line class="st0" x1="54.1" y1="38.2" x2="0" y2="38.2"/>
    <line class="st0" x1="46.6" y1="53.4" x2="50.3" y2="53.4"/>
    <line class="st0" x1="54.1" y1="53.4" x2="50.3" y2="53.4"/>
    <line class="st0" x1="7.3" y1="53.4" x2="10.3" y2="53.4"/>
    <line class="st0" x1="10.3" y1="53.4" x2="18.7" y2="53.4"/>
    <line class="st0" x1="38.4" y1="53.4" x2="46.6" y2="53.4"/>
    <line class="st0" x1="18.7" y1="53.4" x2="23.3" y2="53.4"/>
    <line class="st0" x1="33.4" y1="53.4" x2="23.3" y2="53.4"/>
    <line class="st0" x1="38.4" y1="53.4" x2="33.4" y2="53.4"/>
    <line class="st0" x1="7.3" y1="53.4" x2="0" y2="53.4"/>
    <line class="st0" x1="6.8" y1="0.1" x2="4.4" y2="3.8"/>
    <line class="st0" x1="18.7" y1="0.1" x2="18.7" y2="3.8"/>
    <line class="st0" x1="30.7" y1="3.8" x2="32.9" y2="0.1"/>
    <line class="st0" x1="46.6" y1="0.1" x2="46.6" y2="3.8"/>
    <line class="st0" x1="13.6" y1="3.8" x2="11.1" y2="8"/>
    <line class="st0" x1="27.5" y1="3.8" x2="27.5" y2="3.8"/>
    <line class="st0" x1="27.5" y1="3.8" x2="27.5" y2="8"/>
    <line class="st0" x1="42.2" y1="3.9" x2="39.6" y2="8"/>
    <line class="st0" x1="53.9" y1="3.8" x2="53.9" y2="8"/>
    <line class="st0" x1="53.9" y1="3.8" x2="53.9" y2="3.8"/>
    <line class="st0" x1="5.5" y1="12.2" x2="8.1" y2="8"/>
    <line class="st0" x1="20.3" y1="12.2" x2="20.3" y2="8.1"/>
    <line class="st0" x1="32.4" y1="12.2" x2="34.9" y2="8"/>
    <line class="st0" x1="48.8" y1="12.2" x2="48.8" y2="8.1"/>
    <line class="st0" x1="38.7" y1="16.2" x2="41.2" y2="12.2"/>
    <line class="st0" x1="41.2" y1="12.2" x2="41.2" y2="12.1"/>
    <line class="st0" x1="26.8" y1="12.2" x2="26.8" y2="12.2"/>
    <line class="st0" x1="26.8" y1="12.2" x2="26.8" y2="16.2"/>
    <line class="st0" x1="10.4" y1="16.2" x2="12.9" y2="12.2"/>
    <line class="st0" x1="53.4" y1="16.2" x2="53.4" y2="12.2"/>
    <line class="st0" x1="53.4" y1="12.2" x2="53.4" y2="12.2"/>
    <line class="st0" x1="47" y1="16.2" x2="45.1" y2="19.5"/>
    <line class="st0" x1="47" y1="16.2" x2="47" y2="16.2"/>
    <line class="st0" x1="31.9" y1="19.5" x2="31.9" y2="16.2"/>
    <line class="st0" x1="31.9" y1="16.2" x2="31.9" y2="16.2"/>
    <line class="st0" x1="17.2" y1="19.5" x2="19.2" y2="16.3"/>
    <line class="st0" x1="5.9" y1="16.2" x2="5.9" y2="16.2"/>
    <line class="st0" x1="5.9" y1="16.2" x2="5.9" y2="19.5"/>
    <line class="st0" x1="12.5" y1="19.5" x2="12.5" y2="22.9"/>
    <line class="st0" x1="12.5" y1="19.5" x2="12.5" y2="19.5"/>
    <line class="st0" x1="28" y1="19.5" x2="26" y2="22.9"/>
    <line class="st0" x1="28" y1="19.5" x2="28.1" y2="19.5"/>
    <line class="st0" x1="41.2" y1="19.5" x2="41.2" y2="19.5"/>
    <line class="st0" x1="41.2" y1="19.5" x2="41.2" y2="22.9"/>
    <line class="st0" x1="51.8" y1="22.9" x2="54" y2="19.5"/>
    <line class="st0" x1="54" y1="19.5" x2="54" y2="19.5"/>
    <line class="st0" x1="5.2" y1="27" x2="7.7" y2="23"/>
    <line class="st0" x1="20.2" y1="22.9" x2="20.2" y2="27"/>
    <line class="st0" x1="20.2" y1="22.9" x2="20.2" y2="22.9"/>
    <line class="st0" x1="34.8" y1="23" x2="32.3" y2="27"/>
    <line class="st0" x1="48.7" y1="22.9" x2="48.7" y2="22.9"/>
    <line class="st0" x1="48.7" y1="22.9" x2="48.7" y2="27"/>
    <line class="st0" x1="38.5" y1="30.8" x2="40.8" y2="27"/>
    <line class="st0" x1="26.7" y1="30.8" x2="26.7" y2="27"/>
    <line class="st0" x1="10.2" y1="30.8" x2="12.5" y2="27"/>
    <line class="st0" x1="53.3" y1="30.8" x2="53.3" y2="27"/>
    <line class="st0" x1="4" y1="35" x2="6.6" y2="30.9"/>
    <line class="st0" x1="18.5" y1="35" x2="18.5" y2="30.8"/>
    <line class="st0" x1="30.7" y1="35" x2="33.2" y2="30.8"/>
    <line class="st0" x1="46.4" y1="35" x2="46.4" y2="30.8"/>
    <line class="st0" x1="40.7" y1="38.2" x2="42.6" y2="35"/>
    <line class="st0" x1="28.1" y1="38.2" x2="28.1" y2="35"/>
    <line class="st0" x1="11.4" y1="38.2" x2="13.3" y2="35.1"/>
    <line class="st0" x1="0.5" y1="38.2" x2="0.5" y2="35"/>
    <line class="st0" x1="5.4" y1="41.8" x2="7.7" y2="38.2"/>
    <line class="st0" x1="20.1" y1="41.8" x2="20.1" y2="38.2"/>
    <line class="st0" x1="32.3" y1="41.8" x2="34.5" y2="38.2"/>
    <line class="st0" x1="48.6" y1="41.8" x2="48.6" y2="38.2"/>
    <line class="st0" x1="38.8" y1="45.6" x2="41.1" y2="41.8"/>
    <line class="st0" x1="41.1" y1="41.8" x2="41.1" y2="41.8"/>
    <line class="st0" x1="38.8" y1="45.6" x2="38.8" y2="45.6"/>
    <line class="st0" x1="26.4" y1="45.6" x2="26.4" y2="45.6"/>
    <line class="st0" x1="26.4" y1="45.6" x2="26.4" y2="41.9"/>
    <line class="st0" x1="10.4" y1="45.6" x2="10.4" y2="45.6"/>
    <line class="st0" x1="10.4" y1="45.6" x2="12.7" y2="41.8"/>
    <line class="st0" x1="12.7" y1="41.8" x2="12.7" y2="41.8"/>
    <line class="st0" x1="53.7" y1="45.6" x2="53.7" y2="45.6"/>
    <line class="st0" x1="53.7" y1="45.6" x2="53.7" y2="41.9"/>
    <line class="st0" x1="38.4" y1="50" x2="52.4" y2="50"/>
    <line class="st0" x1="38.4" y1="50" x2="25.3" y2="50"/>
    <line class="st0" x1="10.3" y1="50" x2="25.3" y2="50"/>
    <line class="st0" x1="54.1" y1="50" x2="52.4" y2="50"/>
    <line class="st0" x1="10.3" y1="50" x2="0" y2="50"/>
    <line class="st0" x1="10.3" y1="50" x2="10.3" y2="50"/>
    <line class="st0" x1="10.3" y1="53.4" x2="10.3" y2="53.4"/>
    <line class="st0" x1="10.3" y1="50" x2="10.3" y2="53.4"/>
    <line class="st0" x1="25.3" y1="50" x2="25.3" y2="50"/>
    <line class="st0" x1="25.3" y1="50" x2="23.3" y2="53.4"/>
    <line class="st0" x1="23.2" y1="53.4" x2="23.3" y2="53.4"/>
    <line class="st0" x1="38.4" y1="53.4" x2="38.4" y2="53.4"/>
    <line class="st0" x1="38.4" y1="50" x2="38.4" y2="50"/>
    <line class="st0" x1="38.4" y1="50" x2="38.4" y2="53.4"/>
    <line class="st0" x1="52.4" y1="50" x2="52.4" y2="50"/>
    <line class="st0" x1="52.4" y1="50" x2="50.3" y2="53.4"/>
    <line class="st0" x1="50.2" y1="53.4" x2="50.3" y2="53.4"/>
    <line class="st0" x1="4.6" y1="50" x2="4.6" y2="45.6"/>
    <line class="st0" x1="18.8" y1="45.7" x2="16.1" y2="50"/>
    <line class="st0" x1="31.6" y1="45.6" x2="31.6" y2="50"/>
    <line class="st0" x1="47.2" y1="45.6" x2="44.6" y2="50"/>
    <line class="st0" x1="18.7" y1="53.4" x2="18.7" y2="54.2"/>
    <line class="st0" x1="46.6" y1="53.4" x2="46.6" y2="54.2"/>
    <line class="st0" x1="7.3" y1="53.4" x2="6.8" y2="54.2"/>
    <line class="st0" x1="7.3" y1="53.4" x2="7.4" y2="53.3"/>
    <line class="st0" x1="32.9" y1="54.2" x2="33.4" y2="53.4"/>
    <line class="st0" x1="33.5" y1="53.3" x2="33.4" y2="53.4"/>
</g>
</svg>
