<svg id="Layer_1" data-name="Layer 1" xmlns="http://www.w3.org/2000/svg" width="54.18" height="54.2" viewBox="0 0 54.18 54.2"><defs><style>.cls-1,.cls-2{fill:none;}.cls-1{stroke:#000;stroke-width:0.3px;}</style></defs><title>Artboard 37</title><line class="cls-1" x1="65.3" y1="25.05" x2="52.7" y2="25.05"/><line class="cls-1" x1="58.16" y1="28.82" x2="52.7" y2="28.82"/><line class="cls-1" x1="65.74" y1="2.74" x2="52.7" y2="2.74"/><line class="cls-1" x1="60.18" y1="6.16" x2="52.7" y2="6.16"/><line class="cls-1" x1="65.19" y1="10.21" x2="52.7" y2="10.21"/><line class="cls-1" x1="106.82" y1="14.01" x2="52.7" y2="14.01"/><line class="cls-1" x1="106.82" y1="18.21" x2="52.7" y2="18.21"/><line class="cls-1" x1="104.52" y1="21.44" x2="52.7" y2="21.44"/><line class="cls-1" x1="61.71" y1="36.61" x2="52.7" y2="36.61"/><line class="cls-1" x1="106.82" y1="33.24" x2="52.7" y2="33.24"/><rect class="cls-2" x="52.7" y="-16.68" width="54.13" height="54.13"/><line class="cls-1" x1="57.28" y1="41.2" x2="52.7" y2="41.2"/><line class="cls-1" x1="60.67" y1="45.37" x2="52.7" y2="45.37"/><line class="cls-1" x1="65.42" y1="49.56" x2="52.7" y2="49.56"/><line class="cls-1" x1="59.32" y1="53.58" x2="52.7" y2="53.58"/><rect class="cls-2" x="52.7" y="37.45" width="54.13" height="54.13"/><line class="cls-1" x1="11.17" y1="25.05" x2="25.67" y2="25.05"/><line class="cls-1" x1="39.67" y1="25.05" x2="52.26" y2="25.05"/><line class="cls-1" x1="52.26" y1="25.05" x2="52.7" y2="25.05"/><line class="cls-1" x1="11.17" y1="25.05" x2="-1.43" y2="25.05"/><line class="cls-1" x1="25.67" y1="25.05" x2="39.67" y2="25.05"/><line class="cls-1" x1="4.04" y1="28.82" x2="8.86" y2="28.82"/><line class="cls-1" x1="8.86" y1="28.82" x2="17.04" y2="28.82"/><line class="cls-1" x1="31.04" y1="28.82" x2="23.36" y2="28.82"/><line class="cls-1" x1="17.04" y1="28.82" x2="23.36" y2="28.82"/><line class="cls-1" x1="49.8" y1="28.82" x2="52.7" y2="28.82"/><line class="cls-1" x1="4.04" y1="28.82" x2="-1.43" y2="28.82"/><line class="cls-1" x1="49.8" y1="28.82" x2="45.63" y2="28.82"/><line class="cls-1" x1="45.63" y1="28.82" x2="37.36" y2="28.82"/><line class="cls-1" x1="31.04" y1="28.82" x2="37.36" y2="28.82"/><line class="cls-1" x1="26.61" y1="2.74" x2="11.61" y2="2.74"/><line class="cls-1" x1="26.61" y1="2.74" x2="40.43" y2="2.74"/><line class="cls-1" x1="52.48" y1="2.74" x2="52.7" y2="2.74"/><line class="cls-1" x1="52.48" y1="2.74" x2="40.43" y2="2.74"/><line class="cls-1" x1="11.61" y1="2.74" x2="-1.43" y2="2.74"/><line class="cls-1" x1="50.28" y1="6.16" x2="52.7" y2="6.16"/><line class="cls-1" x1="6.06" y1="6.16" x2="-1.43" y2="6.16"/><line class="cls-1" x1="33.18" y1="6.16" x2="48.12" y2="6.16"/><line class="cls-1" x1="33.18" y1="6.16" x2="19.49" y2="6.16"/><line class="cls-1" x1="50.28" y1="6.16" x2="48.12" y2="6.16"/><line class="cls-1" x1="6.06" y1="6.16" x2="19.49" y2="6.16"/><line class="cls-1" x1="26.07" y1="10.21" x2="11.07" y2="10.21"/><line class="cls-1" x1="39.44" y1="10.21" x2="26.07" y2="10.21"/><line class="cls-1" x1="11.07" y1="10.21" x2="-1.43" y2="10.21"/><line class="cls-1" x1="52.63" y1="10.21" x2="52.7" y2="10.21"/><line class="cls-1" x1="52.63" y1="10.21" x2="39.44" y2="10.21"/><line class="cls-1" x1="52.7" y1="14.01" x2="-1.43" y2="14.01"/><line class="cls-1" x1="52.7" y1="18.21" x2="-1.43" y2="18.21"/><line class="cls-1" x1="50.39" y1="21.44" x2="-1.43" y2="21.44"/><line class="cls-1" x1="50.39" y1="21.44" x2="52.7" y2="21.44"/><line class="cls-1" x1="7.59" y1="36.61" x2="-1.43" y2="36.61"/><line class="cls-1" x1="48.96" y1="36.61" x2="52.7" y2="36.61"/><line class="cls-1" x1="7.59" y1="36.61" x2="21.9" y2="36.61"/><line class="cls-1" x1="21.9" y1="36.61" x2="35.59" y2="36.61"/><line class="cls-1" x1="35.59" y1="36.61" x2="48.96" y2="36.61"/><line class="cls-1" x1="52.7" y1="33.24" x2="-1.43" y2="33.24"/><line class="cls-1" x1="4.04" y1="28.82" x2="4.07" y2="28.76"/><line class="cls-1" x1="4.04" y1="28.82" x2="1.44" y2="33.21"/><line class="cls-1" x1="14.44" y1="33.21" x2="17.04" y2="28.82"/><line class="cls-1" x1="17.04" y1="28.82" x2="17.07" y2="28.76"/><line class="cls-1" x1="31.04" y1="28.82" x2="31.07" y2="28.76"/><line class="cls-1" x1="31.04" y1="28.82" x2="28.44" y2="33.21"/><line class="cls-1" x1="45.64" y1="28.82" x2="45.63" y2="28.82"/><line class="cls-1" x1="45.63" y1="28.82" x2="43.01" y2="33.21"/><line class="cls-1" x1="48.96" y1="36.61" x2="51.01" y2="33.26"/><line class="cls-1" x1="48.96" y1="36.61" x2="48.95" y2="36.64"/><line class="cls-1" x1="35.59" y1="36.61" x2="37.64" y2="33.26"/><line class="cls-1" x1="35.59" y1="36.61" x2="35.57" y2="36.64"/><line class="cls-1" x1="21.9" y1="36.61" x2="21.89" y2="36.64"/><line class="cls-1" x1="21.9" y1="36.61" x2="23.95" y2="33.26"/><line class="cls-1" x1="7.59" y1="36.61" x2="7.57" y2="36.64"/><line class="cls-1" x1="7.59" y1="36.61" x2="9.64" y2="33.26"/><line class="cls-1" x1="52.26" y1="25.05" x2="52.27" y2="25.03"/><line class="cls-1" x1="49.8" y1="28.82" x2="49.76" y2="28.89"/><line class="cls-1" x1="49.8" y1="28.82" x2="52.26" y2="25.05"/><line class="cls-1" x1="45.89" y1="25.01" x2="48.01" y2="21.45"/><line class="cls-1" x1="43.39" y1="18.14" x2="45.95" y2="14.07"/><line class="cls-1" x1="50.39" y1="21.44" x2="50.39" y2="21.45"/><line class="cls-1" x1="50.39" y1="21.44" x2="52.44" y2="18.24"/><line class="cls-1" x1="52.63" y1="10.21" x2="50.39" y2="13.95"/><line class="cls-1" x1="52.64" y1="10.2" x2="52.63" y2="10.21"/><line class="cls-1" x1="48.12" y1="6.16" x2="48.14" y2="6.14"/><line class="cls-1" x1="48.12" y1="6.16" x2="45.7" y2="10.2"/><line class="cls-1" x1="52.48" y1="2.74" x2="52.5" y2="2.72"/><line class="cls-1" x1="50.28" y1="6.16" x2="52.48" y2="2.74"/><line class="cls-1" x1="50.28" y1="6.16" x2="50.26" y2="6.2"/><line class="cls-1" x1="45.82" y1="-0.54" x2="43.82" y2="2.7"/><line class="cls-1" x1="39.67" y1="25.05" x2="39.7" y2="25.01"/><line class="cls-1" x1="37.36" y1="28.82" x2="39.67" y2="25.05"/><line class="cls-1" x1="37.32" y1="28.89" x2="37.36" y2="28.82"/><line class="cls-1" x1="25.67" y1="25.05" x2="25.7" y2="25.01"/><line class="cls-1" x1="23.32" y1="28.89" x2="23.36" y2="28.82"/><line class="cls-1" x1="23.36" y1="28.82" x2="25.67" y2="25.05"/><line class="cls-1" x1="11.17" y1="25.05" x2="11.2" y2="25.01"/><line class="cls-1" x1="11.17" y1="25.05" x2="8.86" y2="28.82"/><line class="cls-1" x1="8.82" y1="28.89" x2="8.86" y2="28.82"/><line class="cls-1" x1="31.01" y1="25.01" x2="33.14" y2="21.45"/><line class="cls-1" x1="17.32" y1="25.01" x2="19.45" y2="21.45"/><line class="cls-1" x1="4.07" y1="25.01" x2="6.2" y2="21.45"/><line class="cls-1" x1="38.57" y1="21.39" x2="40.51" y2="18.26"/><line class="cls-1" x1="24.32" y1="21.39" x2="26.26" y2="18.26"/><line class="cls-1" x1="9.26" y1="21.39" x2="11.2" y2="18.26"/><line class="cls-1" x1="29.07" y1="18.14" x2="31.64" y2="14.07"/><line class="cls-1" x1="15.45" y1="18.14" x2="18.01" y2="14.07"/><line class="cls-1" x1="2.45" y1="18.14" x2="5.01" y2="14.07"/><line class="cls-1" x1="39.44" y1="10.21" x2="37.2" y2="13.95"/><line class="cls-1" x1="39.45" y1="10.2" x2="39.44" y2="10.21"/><line class="cls-1" x1="26.07" y1="10.2" x2="26.07" y2="10.21"/><line class="cls-1" x1="26.07" y1="10.21" x2="23.82" y2="13.95"/><line class="cls-1" x1="11.07" y1="10.21" x2="8.82" y2="13.95"/><line class="cls-1" x1="11.07" y1="10.21" x2="11.07" y2="10.2"/><line class="cls-1" x1="33.18" y1="6.16" x2="33.2" y2="6.14"/><line class="cls-1" x1="33.18" y1="6.16" x2="30.76" y2="10.2"/><line class="cls-1" x1="17.07" y1="10.2" x2="19.49" y2="6.16"/><line class="cls-1" x1="19.51" y1="6.14" x2="19.49" y2="6.16"/><line class="cls-1" x1="6.06" y1="6.16" x2="3.64" y2="10.2"/><line class="cls-1" x1="6.06" y1="6.16" x2="6.07" y2="6.14"/><line class="cls-1" x1="40.45" y1="2.7" x2="40.43" y2="2.74"/><line class="cls-1" x1="38.45" y1="6.14" x2="40.43" y2="2.74"/><line class="cls-1" x1="26.61" y1="2.74" x2="24.64" y2="6.14"/><line class="cls-1" x1="26.61" y1="2.74" x2="26.64" y2="2.7"/><line class="cls-1" x1="11.61" y1="2.74" x2="9.64" y2="6.14"/><line class="cls-1" x1="11.61" y1="2.74" x2="11.64" y2="2.7"/><line class="cls-1" x1="31.19" y1="-0.54" x2="29.2" y2="2.7"/><line class="cls-1" x1="15.89" y1="2.7" x2="17.88" y2="-0.54"/><line class="cls-1" x1="5.19" y1="-0.54" x2="3.2" y2="2.7"/><line class="cls-1" x1="46.45" y1="36.7" x2="46" y2="37.45"/><line class="cls-1" x1="32.07" y1="36.7" x2="31.62" y2="37.45"/><line class="cls-1" x1="18.64" y1="36.7" x2="18.18" y2="37.45"/><line class="cls-1" x1="5.89" y1="36.7" x2="5.43" y2="37.45"/><rect class="cls-2" x="-1.43" y="-16.68" width="54.13" height="54.13"/><line class="cls-1" x1="29.35" y1="41.2" x2="26.92" y2="41.2"/><line class="cls-1" x1="40.59" y1="41.2" x2="29.35" y2="41.2"/><line class="cls-1" x1="40.59" y1="41.2" x2="43.72" y2="41.2"/><line class="cls-1" x1="15.91" y1="41.2" x2="26.92" y2="41.2"/><line class="cls-1" x1="52.7" y1="41.2" x2="43.72" y2="41.2"/><line class="cls-1" x1="3.16" y1="41.2" x2="15.91" y2="41.2"/><line class="cls-1" x1="3.16" y1="41.2" x2="-1.43" y2="41.2"/><line class="cls-1" x1="33.35" y1="45.37" x2="6.54" y2="45.37"/><line class="cls-1" x1="52.7" y1="45.37" x2="33.35" y2="45.37"/><line class="cls-1" x1="6.54" y1="45.37" x2="-1.43" y2="45.37"/><line class="cls-1" x1="26.11" y1="49.56" x2="11.29" y2="49.56"/><line class="cls-1" x1="26.11" y1="49.56" x2="39.54" y2="49.56"/><line class="cls-1" x1="39.54" y1="49.56" x2="52.36" y2="49.56"/><line class="cls-1" x1="52.36" y1="49.56" x2="52.7" y2="49.56"/><line class="cls-1" x1="11.29" y1="49.56" x2="-1.43" y2="49.56"/><line class="cls-1" x1="5.19" y1="53.58" x2="-1.43" y2="53.58"/><line class="cls-1" x1="5.19" y1="53.58" x2="17.88" y2="53.58"/><line class="cls-1" x1="45.82" y1="53.58" x2="52.7" y2="53.58"/><line class="cls-1" x1="31.19" y1="53.58" x2="17.88" y2="53.58"/><line class="cls-1" x1="45.82" y1="53.58" x2="31.19" y2="53.58"/><line class="cls-1" x1="45.82" y1="53.58" x2="43.82" y2="56.82"/><line class="cls-1" x1="45.82" y1="53.58" x2="45.82" y2="53.57"/><line class="cls-1" x1="49.93" y1="53.57" x2="52.36" y2="49.56"/><line class="cls-1" x1="52.36" y1="49.56" x2="52.39" y2="49.51"/><line class="cls-1" x1="44.76" y1="49.51" x2="47.41" y2="45.4"/><line class="cls-1" x1="52.48" y1="41.22" x2="49.86" y2="45.32"/><line class="cls-1" x1="43.72" y1="41.2" x2="46.01" y2="37.45"/><line class="cls-1" x1="43.72" y1="41.2" x2="43.71" y2="41.21"/><line class="cls-1" x1="31.19" y1="53.58" x2="31.2" y2="53.57"/><line class="cls-1" x1="31.19" y1="53.58" x2="29.2" y2="56.82"/><line class="cls-1" x1="15.89" y1="56.82" x2="17.88" y2="53.58"/><line class="cls-1" x1="17.89" y1="53.57" x2="17.88" y2="53.58"/><line class="cls-1" x1="5.19" y1="53.58" x2="3.2" y2="56.82"/><line class="cls-1" x1="5.19" y1="53.58" x2="5.2" y2="53.57"/><line class="cls-1" x1="39.54" y1="49.56" x2="39.57" y2="49.51"/><line class="cls-1" x1="37.14" y1="53.57" x2="39.54" y2="49.56"/><line class="cls-1" x1="26.11" y1="49.56" x2="26.14" y2="49.51"/><line class="cls-1" x1="26.11" y1="49.56" x2="23.7" y2="53.57"/><line class="cls-1" x1="11.29" y1="49.56" x2="8.89" y2="53.57"/><line class="cls-1" x1="11.29" y1="49.56" x2="11.32" y2="49.51"/><line class="cls-1" x1="33.35" y1="45.37" x2="33.39" y2="45.32"/><line class="cls-1" x1="33.35" y1="45.37" x2="30.82" y2="49.51"/><line class="cls-1" x1="17.2" y1="49.51" x2="19.7" y2="45.39"/><line class="cls-1" x1="6.54" y1="45.37" x2="6.57" y2="45.32"/><line class="cls-1" x1="6.54" y1="45.37" x2="4.01" y2="49.51"/><line class="cls-1" x1="40.59" y1="41.2" x2="38.07" y2="45.32"/><line class="cls-1" x1="40.59" y1="41.2" x2="40.61" y2="41.16"/><line class="cls-1" x1="24.39" y1="45.32" x2="26.92" y2="41.2"/><line class="cls-1" x1="26.95" y1="41.16" x2="26.92" y2="41.2"/><line class="cls-1" x1="12.03" y1="41.24" x2="9.51" y2="45.32"/><line class="cls-1" x1="29.34" y1="41.21" x2="29.35" y2="41.2"/><line class="cls-1" x1="29.35" y1="41.2" x2="31.63" y2="37.45"/><line class="cls-1" x1="15.91" y1="41.2" x2="18.19" y2="37.45"/><line class="cls-1" x1="15.9" y1="41.21" x2="15.91" y2="41.2"/><line class="cls-1" x1="3.16" y1="41.2" x2="3.15" y2="41.21"/><line class="cls-1" x1="5.44" y1="37.45" x2="3.16" y2="41.2"/><rect class="cls-2" x="-1.43" y="37.45" width="54.13" height="54.13"/><rect class="cls-2" width="54.2" height="54.2"/></svg>