<!-- Generator: Adobe Illustrator 22.1.0, SVG Export Plug-In  -->
<svg version="1.1"
     xmlns="http://www.w3.org/2000/svg" xmlns:xlink="http://www.w3.org/1999/xlink" xmlns:a="http://ns.adobe.com/AdobeSVGViewerExtensions/3.0/"
     x="0px" y="0px" width="54.1px" height="54.3px" viewBox="0 0 54.1 54.3" style="enable-background:new 0 0 54.1 54.3;"
     xml:space="preserve">
<style type="text/css">
    .st0{clip-path:url(#SVGID_2_);fill:none;stroke:#000000;stroke-width:0.3;}
    .st1{clip-path:url(#SVGID_4_);fill:none;stroke:#000000;stroke-width:0.3;}
</style>
<defs>
</defs>
<g>
    <defs>
        <rect id="SVGID_1_" x="0.1" y="0.1" width="54" height="54"/>
    </defs>
    <clipPath id="SVGID_2_">
        <use xlink:href="#SVGID_1_"  style="overflow:visible;"/>
    </clipPath>
    <path class="st0" d="M5.2,14.6c4.1-0.5,10.1-1.6,16.9-3.2"/>
    <path class="st0" d="M38.4,6.9c-3.2,1-6.4,2-9.6,2.8"/>
    <path class="st0" d="M54.1,0.9c-2.2,1-4.6,2-7.1,3"/>
    <path class="st0" d="M38.4,6.9c2.9-0.9,5.8-1.9,8.6-3"/>
    <path class="st0" d="M22.1,11.4c2.2-0.5,4.4-1.1,6.7-1.7"/>
    <line class="st0" x1="0.1" y1="0.9" x2="1.7" y2="0.1"/>
    <line class="st0" x1="3.7" y1="53.2" x2="3.8" y2="53.2"/>
    <line class="st0" x1="3.7" y1="53.2" x2="1.8" y2="54.1"/>
    <path class="st0" d="M41.5,53.2c1,0.2,2,0.4,3,0.6"/>
    <path class="st0" d="M44.5,53.8c0.7,0.1,1.4,0.3,2.2,0.4"/>
    <path class="st0" d="M19.8,46.5c-3.7-1.4-7.1-2.9-10.1-4.2"/>
    <path class="st0" d="M32.6,50.9c2.9,0.8,5.8,1.6,8.9,2.3"/>
    <path class="st0" d="M19.8,46.5c3.9,1.5,8.2,3,12.8,4.4"/>
    <path class="st0" d="M9.7,42.3c-1.8-0.8-3.5-1.6-5.1-2.2"/>
    <path class="st0" d="M4.6,40.1c-0.1,0-0.1,0-0.2-0.1"/>
    <path class="st0" d="M29,35.6c-2.3,0.5-4.6,1.1-6.9,1.6"/>
    <path class="st0" d="M4.6,40.1c4.4-0.5,9.1-1.2,13.7-2.1"/>
    <path class="st0" d="M46.2,30.9c3-0.9,5.6-1.8,7.8-2.5"/>
    <path class="st0" d="M18.3,37.9c1.3-0.2,2.5-0.5,3.8-0.8"/>
    <path class="st0" d="M29,35.6c0.7-0.2,1.5-0.4,2.2-0.5"/>
    <path class="st0" d="M4.6,40.1c-1.5,0.2-3,0.3-4.5,0.4"/>
    <path class="st0" d="M31.2,35c5.5-1.4,10.6-2.8,15-4.1"/>
    <path class="st0" d="M54.1,12.9c-0.4-0.2-0.9-0.3-1.3-0.5"/>
    <path class="st0" d="M38.4,6.9c3,1.3,8,3.3,14.4,5.6"/>
    <path class="st0" d="M38.4,6.9c0,0-0.1,0-0.1-0.1"/>
    <path class="st0" d="M38,40.3c-4.1-0.3-11.5-1-15.9-3.2"/>
    <line class="st0" x1="22.1" y1="37.2" x2="22.1" y2="37.1"/>
    <path class="st0" d="M38,40.3c1,0.1,1.9,0.1,2.4,0.2c2.7,0.2,7.7,0.2,7.7,0.2c1.9,0,3.9-0.1,6-0.2"/>
    <path class="st0" d="M19.8,19.2c-7.3-2-14-4.2-19.8-6.2"/>
    <path class="st0" d="M19.8,19.2c8.9,2.5,18.7,4.7,28.6,6.1"/>
    <path class="st0" d="M48.4,25.3c1.9,0.3,3.8,0.5,5.6,0.7"/>
    <path class="st0" d="M0.1,12.4c7.5-0.7,22.2-2.6,34.7-5.3"/>
    <path class="st0" d="M34.7,7.1c4.2-0.9,8.2-2,11.5-3.1"/>
    <path class="st0" d="M37.9,3.7c-10.3,2.2-22,3.3-31.6,3.9"/>
    <path class="st0" d="M0.1,8c1.9-0.1,4-0.2,6.2-0.3"/>
    <path class="st0" d="M37.9,3.7c4.1-0.9,8-1.9,11.4-3.2"/>
    <path class="st0" d="M17.9,3.3c-1.5,0.1-3.1,0.2-4.6,0.3"/>
    <path class="st0" d="M17.9,3.3c8.7-0.6,17.7-1.6,24.9-3.1"/>
    <path class="st0" d="M0.1,3.9c4,0,8.5-0.2,13.2-0.4"/>
    <path class="st0" d="M48.6,52.6c-1.3,0.4-2.6,0.8-4.1,1.1"/>
    <path class="st0" d="M42.8,54.1c0.6-0.1,1.1-0.3,1.7-0.4"/>
    <path class="st0" d="M31.6,53.2C22,53.8,12,53.6,3.7,53.2"/>
    <path class="st0" d="M31.6,53.2c2.3-0.2,4.6-0.4,6.9-0.6"/>
    <path class="st0" d="M0.1,53c1.2,0.1,2.4,0.1,3.7,0.2"/>
    <path class="st0" d="M20.4,15.1c6.9,2.6,14.2,4.5,21.4,5.8"/>
    <path class="st0" d="M20.4,15.1c-1.8-0.7-3.5-1.4-5.2-2.1"/>
    <path class="st0" d="M41.9,20.9c4.1,0.8,8.2,1.4,12.2,1.9"/>
    <path class="st0" d="M22.1,11.4c5.6,2.7,18.9,6.3,32,8.5"/>
    <path class="st0" d="M22.1,11.4c-0.1,0-0.1-0.1-0.2-0.1"/>
    <path class="st0" d="M28.8,9.7c0,0-0.1,0-0.1,0"/>
    <path class="st0" d="M41.6,14.5c-5.3-1.8-9.7-3.6-12.7-4.8"/>
    <path class="st0" d="M41.6,14.5c3.8,1.3,8,2.5,12.5,3.4"/>
    <path class="st0" d="M34.4,8.1c7.4,3,10.9,5.2,19.7,6.7"/>
    <path class="st0" d="M8.1,20.9c6.9,0.7,13.3,0.9,18-0.1"/>
    <path class="st0" d="M8.1,20.9c-2.6-0.3-5.3-0.6-8-1.1"/>
    <path class="st0" d="M9.6,19.3c3.4,0.3,6.9,0.2,10.3-0.1"/>
    <path class="st0" d="M9.6,19.3c-3.2-0.2-6.4-0.7-9.5-1.4"/>
    <path class="st0" d="M19.8,19.2c0.1,0,0.2,0,0.3,0"/>
    <path class="st0" d="M8.8,16c-2.2-0.2-4.2-0.4-6-0.7"/>
    <path class="st0" d="M0.1,14.9c0.9,0.1,1.8,0.3,2.7,0.4"/>
    <path class="st0" d="M54.1,12.4c-0.5,0-0.9,0.1-1.3,0.1"/>
    <line class="st0" x1="52.8" y1="12.5" x2="52.8" y2="12.5"/>
    <path class="st0" d="M54.1,8c-5.8,0.3-10.1,0.4-11.8,0.5"/>
    <path class="st0" d="M54.1,3.9c-2.6,0-5,0-7.1-0.1"/>
    <path class="st0" d="M46.9,3.9C46.9,3.9,46.9,3.9,46.9,3.9"/>
    <path class="st0" d="M0.6,26.1c-0.2,0-0.4,0-0.6,0"/>
    <path class="st0" d="M0.6,26.1c1.5,0.1,3.1,0.2,4.6,0.3"/>
    <path class="st0" d="M5.3,26.4c13.6,0.8,27.9,0.3,36.4-2.1"/>
    <path class="st0" d="M24.2,30.1c-8,0.8-16.4,1.1-24.1,1"/>
    <path class="st0" d="M48.4,25.3C48.4,25.3,48.4,25.3,48.4,25.3"/>
    <path class="st0" d="M48.4,25.3c-6.3,2.3-15,3.9-24.2,4.8"/>
    <path class="st0" d="M13,35c-4.4,0.6-8.7,1.1-12.9,1.5"/>
    <path class="st0" d="M52.6,26.7c0.5-0.1,1-0.3,1.4-0.4"/>
    <path class="st0" d="M13,35c16.5-2.4,32.8-6.4,39.6-8.3"/>
    <path class="st0" d="M51.9,31.1c-1.9,0-3.8-0.1-5.6-0.2"/>
    <path class="st0" d="M46.2,30.9C46.2,30.9,46.2,30.9,46.2,30.9"/>
    <path class="st0" d="M51.9,31.1c0.7,0,1.4,0,2.2,0"/>
    <path class="st0" d="M31.2,35C31.2,35,31.2,35,31.2,35"/>
    <path class="st0" d="M31.2,35c2.7,0.9,7.1,1.3,9.3,1.5c2.2,0.2,5.1,0.3,5.1,0.3c2.7,0,5.6-0.2,8.5-0.4"/>
    <path class="st0" d="M32.6,50.9c0,0,0.1,0,0.1,0"/>
    <path class="st0" d="M32.6,50.9c-6.4,0.2-16.8,0.2-28-0.8"/>
    <path class="st0" d="M0.1,49.7c1.5,0.2,3,0.3,4.5,0.4"/>
    <path class="st0" d="M0.1,46.9c6.4,1,11.5,1.4,15.6,1.6"/>
    <path class="st0" d="M24.4,48.3c-2.4,0.2-5.3,0.3-8.8,0.2"/>
    <path class="st0" d="M19.8,46.5c-3.1,0.1-9.5-0.2-17.1-1.5"/>
    <line class="st0" x1="19.8" y1="46.5" x2="19.8" y2="46.5"/>
    <path class="st0" d="M0.1,44.6C1,44.7,1.8,44.9,2.7,45"/>
    <path class="st0" d="M8.2,44c2.8,0.7,5,0.8,7.3,0.8"/>
    <path class="st0" d="M8.2,44c-2.2-0.5-4.8-1.4-8.1-2.8"/>
    <path class="st0" d="M12.9,38.9c11.8,5.9,25.9,8.4,25.9,8.4c5,1.1,10.2,1.8,15.2,2.4"/>
    <path class="st0" d="M54.1,46.9c-4.7-0.8-10.2-1.8-16.6-3.4c0,0-12.4-3.5-17.3-5.9"/>
    <line class="st0" x1="38" y1="40.3" x2="37.4" y2="40.1"/>
    <path class="st0" d="M54.1,44.6c-1.8-0.3-3.6-0.7-5.5-1.2"/>
    <path class="st0" d="M38,40.3l4.5,1.4c2,0.6,4.1,1.2,6.1,1.6"/>
    <path class="st0" d="M54.1,41.1c-0.4-0.2-0.7-0.3-1.1-0.5"/>
    <path class="st0" d="M23.1,47.7c12.9,3,18.9,4.2,18.9,4.2l0.3,0.1c0,0,0,0,0,0"/>
    <path class="st0" d="M53.1,53c-4.4-0.3-8.1-0.6-10.6-0.9"/>
    <path class="st0" d="M53.1,53c0.3,0,0.7,0,1,0.1"/>
    <path class="st0" d="M36.2,23.1c-5.8,1.1-20,1.6-36.2-0.4"/>
    <path class="st0" d="M0.6,26.1l-0.4,0.2c-0.1,0-0.1,0-0.2,0.1"/>
    <line class="st0" x1="0.6" y1="26.1" x2="0.7" y2="26"/>
    <line class="st0" x1="12.2" y1="26.6" x2="14.6" y2="24"/>
    <path class="st0" d="M5.3,26.4l-0.2,0.1c-1.1,0.5-2.8,1.1-5,1.9"/>
    <line class="st0" x1="5.3" y1="26.4" x2="5.4" y2="26.3"/>
    <path class="st0" d="M46.7,0.1c2.3,0.4,4.6,0.7,7,0.9"/>
    <line class="st0" x1="17.9" y1="3.3" x2="14.4" y2="7"/>
    <line class="st0" x1="17.9" y1="3.3" x2="17.9" y2="3.3"/>
    <line class="st0" x1="28.6" y1="2.3" x2="30.6" y2="0.1"/>
    <line class="st0" x1="31.6" y1="53.2" x2="31.6" y2="53.1"/>
    <line class="st0" x1="31.6" y1="53.2" x2="30.6" y2="54.1"/>
    <line class="st0" x1="34.7" y1="7.1" x2="34.7" y2="7.1"/>
    <line class="st0" x1="37.9" y1="3.7" x2="37.9" y2="3.6"/>
    <line class="st0" x1="37.9" y1="3.7" x2="34.7" y2="7.1"/>
    <line class="st0" x1="6.3" y1="7.7" x2="6.3" y2="7.6"/>
    <line class="st0" x1="6.3" y1="7.7" x2="2.3" y2="12"/>
    <line class="st0" x1="17.6" y1="12.4" x2="20" y2="9.8"/>
    <line class="st0" x1="52.1" y1="4" x2="48.2" y2="8.2"/>
    <line class="st0" x1="34.6" y1="12" x2="32" y2="14.9"/>
    <line class="st0" x1="25.1" y1="16.6" x2="27.8" y2="13.7"/>
    <line class="st0" x1="37" y1="19.8" x2="39.5" y2="17.1"/>
    <line class="st0" x1="52.6" y1="26.7" x2="50" y2="29.6"/>
    <line class="st0" x1="52.6" y1="26.7" x2="52.6" y2="26.7"/>
    <line class="st0" x1="24.3" y1="30" x2="24.2" y2="30.1"/>
    <line class="st0" x1="24.2" y1="30.1" x2="21.1" y2="33.5"/>
    <line class="st0" x1="10.5" y1="31" x2="6.5" y2="35.7"/>
    <line class="st0" x1="13" y1="35" x2="9" y2="39.4"/>
    <line class="st0" x1="13" y1="35" x2="13.1" y2="34.9"/>
    <line class="st0" x1="36.5" y1="33.6" x2="39.7" y2="30"/>
    <line class="st0" x1="52.9" y1="22.7" x2="50.4" y2="25.4"/>
    <line class="st0" x1="41.6" y1="14.5" x2="43.7" y2="12.1"/>
    <line class="st0" x1="41.6" y1="14.5" x2="41.5" y2="14.5"/>
    <line class="st0" x1="0.4" y1="18" x2="2.8" y2="15.3"/>
    <line class="st0" x1="2.8" y1="15.3" x2="2.8" y2="15.3"/>
    <line class="st0" x1="41.9" y1="20.9" x2="39.4" y2="23.7"/>
    <line class="st0" x1="41.9" y1="20.9" x2="41.9" y2="20.9"/>
    <line class="st0" x1="20.4" y1="15.1" x2="17.4" y2="18.5"/>
    <line class="st0" x1="20.4" y1="15.1" x2="20.5" y2="15.1"/>
    <line class="st0" x1="9.6" y1="19.3" x2="8.1" y2="20.9"/>
    <line class="st0" x1="8.1" y1="20.9" x2="8" y2="21"/>
    <line class="st0" x1="9.6" y1="19.3" x2="9.6" y2="19.3"/>
    <line class="st0" x1="28.3" y1="21.4" x2="26.1" y2="24"/>
    <line class="st0" x1="17.2" y1="26.7" x2="13.4" y2="30.8"/>
    <line class="st0" x1="33.8" y1="25.8" x2="30.9" y2="29.2"/>
    <line class="st0" x1="51.9" y1="31.1" x2="46.8" y2="36.8"/>
    <line class="st0" x1="51.9" y1="31.1" x2="51.9" y2="31"/>
    <line class="st0" x1="29" y1="35.6" x2="29.1" y2="35.5"/>
    <line class="st0" x1="29" y1="35.6" x2="26.3" y2="38.6"/>
    <line class="st0" x1="50.9" y1="40.6" x2="48.5" y2="43.4"/>
    <line class="st0" x1="48.5" y1="43.4" x2="48.5" y2="43.4"/>
    <line class="st0" x1="34.5" y1="42.7" x2="31.8" y2="45.7"/>
    <line class="st0" x1="18.3" y1="37.9" x2="18.3" y2="37.9"/>
    <line class="st0" x1="18.3" y1="37.9" x2="16.1" y2="40.4"/>
    <line class="st0" x1="42.4" y1="52" x2="41.5" y2="53.2"/>
    <line class="st0" x1="41.5" y1="53.2" x2="41.5" y2="53.2"/>
    <line class="st0" x1="42.4" y1="52" x2="42.4" y2="52"/>
    <line class="st0" x1="24.6" y1="53.5" x2="26.8" y2="51.1"/>
    <line class="st0" x1="15.7" y1="48.5" x2="13.6" y2="50.7"/>
    <line class="st0" x1="15.7" y1="48.5" x2="15.7" y2="48.5"/>
    <line class="st0" x1="4.6" y1="50.1" x2="4.5" y2="50.1"/>
    <line class="st0" x1="1.9" y1="53" x2="4.5" y2="50.1"/>
    <line class="st0" x1="1" y1="47" x2="2.7" y2="45"/>
    <line class="st0" x1="2.8" y1="45" x2="2.7" y2="45"/>
    <line class="st0" x1="8.2" y1="44" x2="8.1" y2="44"/>
    <line class="st0" x1="8.2" y1="44" x2="9.7" y2="42.3"/>
    <line class="st0" x1="9.7" y1="42.3" x2="9.7" y2="42.3"/>
    <line class="st0" x1="18.7" y1="46" x2="21.8" y2="42.6"/>
    <line class="st0" x1="36.8" y1="50.8" x2="39.6" y2="47.6"/>
    <line class="st0" x1="16.4" y1="54.1" x2="16.8" y2="53.7"/>
    <line class="st0" x1="13.3" y1="3.5" x2="16.4" y2="0.1"/>
    <line class="st0" x1="13.3" y1="3.5" x2="13.3" y2="3.6"/>
</g>
</svg>
