<svg id="Layer_1" data-name="Layer 1" xmlns="http://www.w3.org/2000/svg" width="54.13" height="54.28" viewBox="0 0 54.13 54.28"><defs><style>.cls-1,.cls-2{fill:none;}.cls-1{stroke:#000;stroke-width:0.3px;}</style></defs><title>Artboard 37</title><path class="cls-1" d="M35.25,3.13A159,159,0,0,0,52.12-.11"/><path class="cls-1" d="M52.12-.11c2.19-.52,4.45-1.1,6.74-1.72"/><line class="cls-1" x1="33.75" y1="41.72" x2="33.83" y2="41.68"/><line class="cls-1" x1="33.75" y1="41.72" x2="31.8" y2="42.63"/><path class="cls-1" d="M49.82,35c-3.71-1.44-7.1-2.89-10.13-4.22"/><path class="cls-1" d="M49.82,35c3.92,1.53,8.2,3,12.77,4.38"/><path class="cls-1" d="M39.69,30.78l-5.12-2.25"/><path class="cls-1" d="M34.57,28.53l-.15-.07"/><path class="cls-1" d="M59,24.06c-2.28.55-4.6,1.08-6.94,1.57"/><path class="cls-1" d="M34.57,28.53c4.43-.48,9.09-1.23,13.74-2.13"/><path class="cls-1" d="M48.31,26.4c1.26-.25,2.52-.5,3.78-.77"/><path class="cls-1" d="M34.57,28.53c-1.52.17-3,.3-4.49.4"/><path class="cls-1" d="M68,28.81c-4.15-.3-11.52-1-15.92-3.18"/><path class="cls-1" d="M52.09,25.63h0"/><path class="cls-1" d="M49.85,7.66c-7.31-2-14-4.2-19.77-6.22"/><path class="cls-1" d="M49.85,7.66a227.55,227.55,0,0,0,28.6,6.08"/><path class="cls-1" d="M30.08.84A331.73,331.73,0,0,0,64.76-4.45"/><path class="cls-1" d="M61.57,41.64a248.85,248.85,0,0,1-27.82.08"/><path class="cls-1" d="M30.08,41.51l3.67.21"/><path class="cls-1" d="M50.47,3.58A133.35,133.35,0,0,0,71.89,9.41"/><path class="cls-1" d="M50.47,3.58q-2.67-1-5.22-2.12"/><path class="cls-1" d="M52.12-.11c5.64,2.66,18.86,6.34,32,8.46"/><path class="cls-1" d="M52.12-.11l-.2-.09"/><path class="cls-1" d="M38.08,9.42c6.91.74,13.33.86,18-.05"/><path class="cls-1" d="M38.08,9.42c-2.62-.28-5.31-.65-8-1.08"/><path class="cls-1" d="M39.57,7.81a54.32,54.32,0,0,0,10.28-.15"/><path class="cls-1" d="M39.57,7.81a75.55,75.55,0,0,1-9.49-1.37"/><path class="cls-1" d="M49.85,7.66l.27,0"/><path class="cls-1" d="M38.79,4.46c-2.23-.21-4.2-.44-6-.69"/><path class="cls-1" d="M30.08,3.34c.86.15,1.77.29,2.74.43"/><path class="cls-1" d="M30.65,14.54l-.57,0"/><path class="cls-1" d="M30.65,14.54c1.53.11,3.08.22,4.65.3"/><path class="cls-1" d="M35.3,14.84c13.6.76,27.94.29,36.35-2.12"/><path class="cls-1" d="M54.22,18.56a223.36,223.36,0,0,1-24.14,1"/><path class="cls-1" d="M43,23.47c-4.35.62-8.72,1.13-12.92,1.45"/><path class="cls-1" d="M43,23.47a354.37,354.37,0,0,0,39.64-8.26"/><path class="cls-1" d="M62.59,39.38a231.93,231.93,0,0,1-28-.79"/><path class="cls-1" d="M30.08,38.14c1.51.17,3,.32,4.48.45"/><path class="cls-1" d="M30.08,35.4A119,119,0,0,0,45.7,37"/><path class="cls-1" d="M54.46,36.75c-2.44.17-5.28.29-8.76.2"/><path class="cls-1" d="M49.82,35a100.83,100.83,0,0,1-17.11-1.5"/><path class="cls-1" d="M49.82,35h0"/><path class="cls-1" d="M30.08,33c.89.17,1.77.32,2.63.46"/><path class="cls-1" d="M38.18,32.45a29.49,29.49,0,0,0,7.28.8"/><path class="cls-1" d="M38.18,32.45a50.45,50.45,0,0,1-8.1-2.83"/><path class="cls-1" d="M43,27.38c11.75,5.87,25.87,8.37,25.87,8.37,5,1,10.18,1.83,15.25,2.39"/><path class="cls-1" d="M84.08,35.4c-4.75-.76-10.23-1.85-16.62-3.4,0,0-12.38-3.5-17.25-5.87"/><path class="cls-1" d="M53.14,36.19c12.94,3,18.94,4.19,18.94,4.19l.34.12h0"/><path class="cls-1" d="M66.25,11.63c-5.77,1.12-20,1.56-36.17-.36"/><path class="cls-1" d="M30.65,14.54l-.36.21-.21.06"/><line class="cls-1" x1="30.65" y1="14.54" x2="30.71" y2="14.5"/><line class="cls-1" x1="42.21" y1="15.07" x2="44.58" y2="12.48"/><path class="cls-1" d="M35.3,14.84l-.22.12c-1.09.47-2.8,1.12-5,1.88"/><line class="cls-1" x1="35.3" y1="14.84" x2="35.46" y2="14.75"/><line class="cls-1" x1="36.31" y1="-3.85" x2="32.35" y2="0.52"/><line class="cls-1" x1="47.6" y1="0.86" x2="50" y2="-1.7"/><line class="cls-1" x1="54.27" y1="18.5" x2="54.22" y2="18.56"/><line class="cls-1" x1="54.22" y1="18.56" x2="51.17" y2="22.02"/><line class="cls-1" x1="40.52" y1="19.5" x2="36.52" y2="24.19"/><line class="cls-1" x1="43" y1="23.47" x2="39.04" y2="27.9"/><line class="cls-1" x1="43" y1="23.47" x2="43.08" y2="23.38"/><line class="cls-1" x1="30.42" y1="6.48" x2="32.82" y2="3.77"/><line class="cls-1" x1="32.83" y1="3.75" x2="32.82" y2="3.77"/><line class="cls-1" x1="50.47" y1="3.58" x2="47.44" y2="6.94"/><line class="cls-1" x1="50.47" y1="3.58" x2="50.5" y2="3.55"/><line class="cls-1" x1="39.57" y1="7.81" x2="38.08" y2="9.42"/><line class="cls-1" x1="38.08" y1="9.42" x2="38.04" y2="9.46"/><line class="cls-1" x1="39.57" y1="7.81" x2="39.58" y2="7.8"/><line class="cls-1" x1="47.21" y1="15.19" x2="43.46" y2="19.3"/><line class="cls-1" x1="48.33" y1="26.38" x2="48.31" y2="26.4"/><line class="cls-1" x1="48.31" y1="26.4" x2="46.1" y2="28.84"/><line class="cls-1" x1="45.7" y1="36.95" x2="43.67" y2="39.21"/><line class="cls-1" x1="45.7" y1="36.95" x2="45.71" y2="36.94"/><line class="cls-1" x1="34.58" y1="38.57" x2="34.56" y2="38.59"/><line class="cls-1" x1="31.92" y1="41.52" x2="34.56" y2="38.59"/><line class="cls-1" x1="30.98" y1="35.46" x2="32.71" y2="33.5"/><line class="cls-1" x1="32.77" y1="33.44" x2="32.71" y2="33.5"/><line class="cls-1" x1="38.18" y1="32.45" x2="38.17" y2="32.46"/><line class="cls-1" x1="38.18" y1="32.45" x2="39.69" y2="30.78"/><line class="cls-1" x1="39.69" y1="30.78" x2="39.71" y2="30.75"/><line class="cls-1" x1="48.71" y1="34.5" x2="51.83" y2="31.13"/><line class="cls-1" x1="46.43" y1="42.63" x2="46.83" y2="42.19"/><rect class="cls-2" x="30.08" y="-11.37" width="54" height="54"/><path class="cls-1" d="M35.25,57.13a159,159,0,0,0,16.87-3.24"/><path class="cls-1" d="M52.12,53.89c2.19-.52,4.45-1.1,6.74-1.72"/><line class="cls-1" x1="30.08" y1="43.38" x2="31.69" y2="42.63"/><path class="cls-1" d="M30.08,54.84a331.73,331.73,0,0,0,34.68-5.29"/><path class="cls-1" d="M67.87,46.22a227.94,227.94,0,0,1-31.56,3.93"/><path class="cls-1" d="M30.08,50.5c1.93-.09,4-.21,6.23-.35"/><path class="cls-1" d="M47.89,45.76c-1.53.1-3.06.19-4.56.26"/><path class="cls-1" d="M47.89,45.76a182.25,182.25,0,0,0,24.92-3.13"/><path class="cls-1" d="M30.08,46.42c4,0,8.52-.15,13.25-.4"/><path class="cls-1" d="M52.12,53.89c5.64,2.66,18.86,6.34,32,8.46"/><path class="cls-1" d="M52.12,53.89l-.2-.09"/><line class="cls-1" x1="47.89" y1="45.76" x2="44.44" y2="49.44"/><line class="cls-1" x1="47.89" y1="45.76" x2="47.89" y2="45.75"/><line class="cls-1" x1="36.31" y1="50.15" x2="36.33" y2="50.13"/><line class="cls-1" x1="36.31" y1="50.15" x2="32.35" y2="54.52"/><line class="cls-1" x1="47.6" y1="54.86" x2="50" y2="52.3"/><line class="cls-1" x1="43.33" y1="46.02" x2="46.41" y2="42.63"/><line class="cls-1" x1="43.33" y1="46.02" x2="43.3" y2="46.05"/><rect class="cls-2" x="30.08" y="42.63" width="54" height="54"/><path class="cls-1" d="M-1.88-.11C.31-.63,2.57-1.21,4.86-1.83"/><path class="cls-1" d="M17.48,41.64c1,.21,2,.42,3,.61"/><path class="cls-1" d="M20.5,42.25l2.18.38"/><path class="cls-1" d="M8.59,39.38c2.85.84,5.82,1.6,8.89,2.26"/><path class="cls-1" d="M-4.18,35C-.26,36.53,4,38,8.59,39.38"/><path class="cls-1" d="M5,24.06c-2.28.55-4.6,1.08-6.94,1.57"/><path class="cls-1" d="M22.26,19.37c3-.91,5.65-1.78,7.82-2.53"/><path class="cls-1" d="M5,24.06l2.22-.54"/><path class="cls-1" d="M7.25,23.52c5.47-1.36,10.61-2.81,15-4.15"/><path class="cls-1" d="M30.08,1.43,28.77,1"/><path class="cls-1" d="M14.41-4.64c3,1.28,8,3.32,14.36,5.6"/><path class="cls-1" d="M14,28.81c-4.15-.3-11.52-1-15.92-3.18"/><path class="cls-1" d="M14,28.81l2.41.15c2.66.17,7.68.17,7.68.17,1.91,0,3.91-.06,6-.2"/><path class="cls-1" d="M-4.15,7.66a227.55,227.55,0,0,0,28.6,6.08"/><path class="cls-1" d="M24.45,13.74q2.82.39,5.63.69"/><path class="cls-1" d="M-23.92.84A331.73,331.73,0,0,0,10.76-4.45"/><path class="cls-1" d="M24.58,41.13c-1.26.4-2.62.77-4.08,1.12"/><path class="cls-1" d="M18.81,42.63l1.69-.38"/><path class="cls-1" d="M7.57,41.64a248.85,248.85,0,0,1-27.82.08"/><path class="cls-1" d="M7.57,41.64c2.33-.15,4.64-.35,6.89-.6"/><path class="cls-1" d="M-3.53,3.58A133.35,133.35,0,0,0,17.89,9.41"/><path class="cls-1" d="M17.89,9.41c4.12.78,8.21,1.39,12.19,1.86"/><path class="cls-1" d="M-1.88-.11C3.76,2.55,17,6.23,30.08,8.35"/><path class="cls-1" d="M17.57,3C12.32,1.24,7.89-.61,4.86-1.83"/><path class="cls-1" d="M17.57,3A108,108,0,0,0,30.08,6.45"/><path class="cls-1" d="M10.42-3.37c7.44,3,10.89,5.19,19.66,6.72"/><path class="cls-1" d="M-15.92,9.42c6.91.74,13.33.86,18-.05"/><path class="cls-1" d="M30.08.84,28.77,1"/><line class="cls-1" x1="28.77" y1="0.96" x2="28.77" y2="0.96"/><path class="cls-1" d="M-18.7,14.84c13.6.76,27.94.29,36.35-2.12"/><path class="cls-1" d="M.22,18.56a223.36,223.36,0,0,1-24.14,1"/><path class="cls-1" d="M24.45,13.74h0"/><path class="cls-1" d="M24.45,13.74c-6.34,2.33-15,3.9-24.23,4.82"/><path class="cls-1" d="M28.64,15.21l1.44-.4"/><path class="cls-1" d="M-11,23.47a354.37,354.37,0,0,0,39.64-8.26"/><path class="cls-1" d="M27.91,19.56c-1.94,0-3.82-.1-5.65-.19"/><path class="cls-1" d="M22.26,19.37H22.2"/><path class="cls-1" d="M27.91,19.56c.72,0,1.44,0,2.17,0"/><path class="cls-1" d="M7.25,23.52l0,0"/><path class="cls-1" d="M7.25,23.52A44.51,44.51,0,0,0,16.52,25c2.19.19,5.06.3,5.06.3,2.72,0,5.57-.16,8.5-.38"/><path class="cls-1" d="M8.59,39.38h.12"/><path class="cls-1" d="M8.59,39.38a231.93,231.93,0,0,1-28-.79"/><path class="cls-1" d="M.46,36.75C-2,36.92-4.82,37-8.3,37"/><path class="cls-1" d="M-11,27.38c11.75,5.87,25.87,8.37,25.87,8.37,5,1,10.18,1.83,15.25,2.39"/><path class="cls-1" d="M30.08,35.4c-4.75-.76-10.23-1.85-16.62-3.4,0,0-12.38-3.5-17.25-5.87"/><line class="cls-1" x1="14.01" y1="28.81" x2="13.46" y2="28.63"/><path class="cls-1" d="M30.08,33c-1.79-.33-3.64-.72-5.52-1.16"/><path class="cls-1" d="M14,28.81l4.45,1.44c2.05.62,4.09,1.16,6.1,1.63"/><path class="cls-1" d="M30.08,29.62,29,29.13"/><path class="cls-1" d="M-.86,36.19c12.94,3,18.94,4.19,18.94,4.19l.34.12h0"/><path class="cls-1" d="M29.08,41.45c-4.39-.29-8.07-.64-10.63-.94"/><path class="cls-1" d="M29.08,41.45l1,.06"/><path class="cls-1" d="M12.25,11.63c-5.77,1.12-20,1.56-36.17-.36"/><line class="cls-1" x1="7.57" y1="41.64" x2="7.64" y2="41.57"/><line class="cls-1" x1="7.57" y1="41.64" x2="6.64" y2="42.63"/><line class="cls-1" x1="10.58" y1="0.46" x2="7.98" y2="3.34"/><line class="cls-1" x1="1.17" y1="5.09" x2="3.77" y2="2.21"/><line class="cls-1" x1="13.02" y1="8.32" x2="15.52" y2="5.59"/><line class="cls-1" x1="28.64" y1="15.21" x2="26.04" y2="18.09"/><line class="cls-1" x1="28.64" y1="15.21" x2="28.64" y2="15.21"/><line class="cls-1" x1="0.27" y1="18.5" x2="0.22" y2="18.56"/><line class="cls-1" x1="0.22" y1="18.56" x2="-2.83" y2="22.02"/><line class="cls-1" x1="12.48" y1="22.09" x2="15.71" y2="18.44"/><line class="cls-1" x1="28.96" y1="11.21" x2="26.46" y2="13.88"/><line class="cls-1" x1="17.57" y1="3.01" x2="19.75" y2="0.55"/><line class="cls-1" x1="17.57" y1="3.01" x2="17.56" y2="3.02"/><line class="cls-1" x1="17.89" y1="9.41" x2="15.42" y2="12.17"/><line class="cls-1" x1="17.89" y1="9.41" x2="17.92" y2="9.38"/><line class="cls-1" x1="4.33" y1="9.88" x2="2.1" y2="12.44"/><line class="cls-1" x1="9.77" y1="14.25" x2="6.92" y2="17.69"/><line class="cls-1" x1="27.91" y1="19.56" x2="22.85" y2="25.27"/><line class="cls-1" x1="27.91" y1="19.56" x2="27.96" y2="19.5"/><line class="cls-1" x1="5.03" y1="24.06" x2="5.08" y2="24"/><line class="cls-1" x1="5.03" y1="24.06" x2="2.35" y2="27.09"/><line class="cls-1" x1="26.96" y1="29.13" x2="24.56" y2="31.88"/><line class="cls-1" x1="24.54" y1="31.9" x2="24.56" y2="31.88"/><line class="cls-1" x1="10.52" y1="31.19" x2="7.85" y2="34.15"/><line class="cls-1" x1="18.45" y1="40.51" x2="17.48" y2="41.64"/><line class="cls-1" x1="17.48" y1="41.65" x2="17.48" y2="41.64"/><line class="cls-1" x1="18.45" y1="40.51" x2="18.46" y2="40.5"/><line class="cls-1" x1="0.6" y1="41.96" x2="2.83" y2="39.57"/><line class="cls-1" x1="12.77" y1="39.25" x2="15.64" y2="36.07"/><rect class="cls-2" x="-23.92" y="-11.37" width="54" height="54"/><path class="cls-1" d="M14.41,49.36c-3.17,1-6.39,2-9.55,2.81"/><path class="cls-1" d="M30.08,43.38c-2.21,1-4.6,2-7.1,3"/><path class="cls-1" d="M14.41,49.36c2.93-.94,5.82-1.94,8.57-3"/><path class="cls-1" d="M-1.88,53.89c2.19-.52,4.45-1.1,6.74-1.72"/><path class="cls-1" d="M14.41,49.36c3,1.28,8,3.32,14.36,5.6"/><path class="cls-1" d="M14.41,49.36l-.14-.06"/><path class="cls-1" d="M-23.92,54.84a331.73,331.73,0,0,0,34.68-5.29"/><path class="cls-1" d="M10.76,49.55a109.66,109.66,0,0,0,11.49-3.09"/><path class="cls-1" d="M13.87,46.22a227.94,227.94,0,0,1-31.56,3.93"/><path class="cls-1" d="M13.87,46.22a86.31,86.31,0,0,0,11.42-3.16"/><path class="cls-1" d="M-6.11,45.76a182.25,182.25,0,0,0,24.92-3.13"/><path class="cls-1" d="M-1.88,53.89c5.64,2.66,18.86,6.34,32,8.46"/><path class="cls-1" d="M4.86,52.17l-.11,0"/><path class="cls-1" d="M17.57,57c-5.25-1.77-9.68-3.62-12.71-4.84"/><path class="cls-1" d="M10.42,50.63c7.44,3,10.89,5.19,19.66,6.72"/><path class="cls-1" d="M30.08,50.5c-5.79.28-10.13.37-11.81.46"/><path class="cls-1" d="M30.08,46.42c-2.64,0-5,0-7.1-.05"/><path class="cls-1" d="M22.9,46.36H23"/><path class="cls-1" d="M22.68,42.63q3.42.57,7,.92"/><line class="cls-1" x1="4.62" y1="44.75" x2="6.64" y2="42.63"/><line class="cls-1" x1="10.75" y1="49.57" x2="10.76" y2="49.55"/><line class="cls-1" x1="13.87" y1="46.22" x2="13.96" y2="46.13"/><line class="cls-1" x1="13.87" y1="46.22" x2="10.76" y2="49.55"/><line class="cls-1" x1="28.08" y1="46.46" x2="24.21" y2="50.71"/><rect class="cls-2" x="-23.92" y="42.63" width="54" height="54"/><rect class="cls-2" width="54.13" height="54.13"/></svg>