<!-- Generator: Adobe Illustrator 22.1.0, SVG Export Plug-In  -->
<svg version="1.1"
     xmlns="http://www.w3.org/2000/svg" xmlns:xlink="http://www.w3.org/1999/xlink" xmlns:a="http://ns.adobe.com/AdobeSVGViewerExtensions/3.0/"
     x="0px" y="0px" width="54.3px" height="54.3px" viewBox="0 0 54.3 54.3" style="enable-background:new 0 0 54.3 54.3;"
     xml:space="preserve">
<style type="text/css">
    .st0{clip-path:url(#SVGID_2_);fill:none;stroke:#000000;stroke-width:0.3;}
    .st1{clip-path:url(#SVGID_4_);fill:none;stroke:#000000;stroke-width:0.3;}
</style>
<defs>
</defs>
<g>
    <defs>
        <rect id="SVGID_1_" x="0" y="0.1" width="54.1" height="54.1"/>
    </defs>
    <clipPath id="SVGID_2_">
        <use xlink:href="#SVGID_1_"  style="overflow:visible;"/>
    </clipPath>
    <line class="st0" x1="42.1" y1="3.8" x2="30.8" y2="3.8"/>
    <line class="st0" x1="42.1" y1="3.8" x2="45.2" y2="3.8"/>
    <line class="st0" x1="54.2" y1="3.8" x2="45.2" y2="3.8"/>
    <line class="st0" x1="28.4" y1="3.8" x2="30.8" y2="3.8"/>
    <line class="st0" x1="28.4" y1="3.8" x2="17.4" y2="3.8"/>
    <line class="st0" x1="4.6" y1="3.8" x2="0" y2="3.8"/>
    <line class="st0" x1="4.6" y1="3.8" x2="17.4" y2="3.8"/>
    <line class="st0" x1="8" y1="8" x2="0" y2="8"/>
    <line class="st0" x1="54.2" y1="8" x2="34.8" y2="8"/>
    <line class="st0" x1="34.8" y1="8" x2="8" y2="8"/>
    <line class="st0" x1="53.8" y1="12.2" x2="41" y2="12.2"/>
    <line class="st0" x1="41" y1="12.2" x2="27.6" y2="12.2"/>
    <line class="st0" x1="12.8" y1="12.2" x2="27.6" y2="12.2"/>
    <line class="st0" x1="53.8" y1="12.2" x2="54.2" y2="12.2"/>
    <line class="st0" x1="12.8" y1="12.2" x2="0" y2="12.2"/>
    <line class="st0" x1="27.1" y1="41.8" x2="12.6" y2="41.8"/>
    <line class="st0" x1="41.1" y1="41.8" x2="53.7" y2="41.8"/>
    <line class="st0" x1="53.7" y1="41.8" x2="54.2" y2="41.8"/>
    <line class="st0" x1="12.6" y1="41.8" x2="0" y2="41.8"/>
    <line class="st0" x1="54.2" y1="41.8" x2="54.2" y2="41.8"/>
    <line class="st0" x1="41.1" y1="41.8" x2="27.1" y2="41.8"/>
    <line class="st0" x1="51.3" y1="45.6" x2="54.2" y2="45.6"/>
    <line class="st0" x1="24.8" y1="45.6" x2="32.5" y2="45.6"/>
    <line class="st0" x1="38.8" y1="45.6" x2="47.1" y2="45.6"/>
    <line class="st0" x1="10.3" y1="45.6" x2="18.5" y2="45.6"/>
    <line class="st0" x1="10.3" y1="45.6" x2="5.5" y2="45.6"/>
    <line class="st0" x1="38.8" y1="45.6" x2="32.5" y2="45.6"/>
    <line class="st0" x1="24.8" y1="45.6" x2="18.5" y2="45.6"/>
    <line class="st0" x1="5.5" y1="45.6" x2="0" y2="45.6"/>
    <line class="st0" x1="51.3" y1="45.6" x2="47.1" y2="45.6"/>
    <line class="st0" x1="6.7" y1="16.2" x2="0" y2="16.2"/>
    <line class="st0" x1="32.7" y1="16.2" x2="19.3" y2="16.2"/>
    <line class="st0" x1="32.7" y1="16.2" x2="47.3" y2="16.2"/>
    <line class="st0" x1="19.3" y1="16.2" x2="6.7" y2="16.2"/>
    <line class="st0" x1="47.3" y1="16.2" x2="54.2" y2="16.2"/>
    <line class="st0" x1="13.1" y1="19.5" x2="0" y2="19.5"/>
    <line class="st0" x1="41.9" y1="19.5" x2="54" y2="19.5"/>
    <line class="st0" x1="28.1" y1="19.5" x2="13.1" y2="19.5"/>
    <line class="st0" x1="41.9" y1="19.5" x2="28.1" y2="19.5"/>
    <line class="st0" x1="54" y1="19.5" x2="54.2" y2="19.5"/>
    <line class="st0" x1="7.5" y1="22.9" x2="0" y2="22.9"/>
    <line class="st0" x1="49.6" y1="22.9" x2="51.8" y2="22.9"/>
    <line class="st0" x1="34.7" y1="22.9" x2="49.6" y2="22.9"/>
    <line class="st0" x1="21" y1="22.9" x2="34.7" y2="22.9"/>
    <line class="st0" x1="21" y1="22.9" x2="7.5" y2="22.9"/>
    <line class="st0" x1="51.8" y1="22.9" x2="54.2" y2="22.9"/>
    <line class="st0" x1="54.1" y1="27" x2="54.2" y2="27"/>
    <line class="st0" x1="27.5" y1="27" x2="12.5" y2="27"/>
    <line class="st0" x1="40.9" y1="27" x2="27.5" y2="27"/>
    <line class="st0" x1="12.5" y1="27" x2="0" y2="27"/>
    <line class="st0" x1="40.9" y1="27" x2="54.1" y2="27"/>
    <line class="st0" x1="0" y1="30.8" x2="54.2" y2="30.8"/>
    <line class="st0" x1="0" y1="35" x2="54.2" y2="35"/>
    <line class="st0" x1="54.2" y1="35" x2="54.2" y2="35"/>
    <line class="st0" x1="51.9" y1="38.2" x2="54.2" y2="38.2"/>
    <line class="st0" x1="51.9" y1="38.2" x2="0" y2="38.2"/>
    <line class="st0" x1="9.1" y1="53.4" x2="23.4" y2="53.4"/>
    <line class="st0" x1="50.4" y1="53.4" x2="54.2" y2="53.4"/>
    <line class="st0" x1="37.1" y1="53.4" x2="50.4" y2="53.4"/>
    <line class="st0" x1="23.4" y1="53.4" x2="37.1" y2="53.4"/>
    <line class="st0" x1="0" y1="53.4" x2="9.1" y2="53.4"/>
    <line class="st0" x1="0" y1="50" x2="54.2" y2="50"/>
    <line class="st0" x1="5.5" y1="45.6" x2="2.9" y2="50"/>
    <line class="st0" x1="5.5" y1="45.5" x2="5.5" y2="45.6"/>
    <line class="st0" x1="18.5" y1="45.5" x2="18.5" y2="45.6"/>
    <line class="st0" x1="18.5" y1="45.6" x2="15.9" y2="50"/>
    <line class="st0" x1="32.5" y1="45.6" x2="29.9" y2="50"/>
    <line class="st0" x1="32.5" y1="45.5" x2="32.5" y2="45.6"/>
    <line class="st0" x1="47.1" y1="45.6" x2="44.5" y2="50"/>
    <line class="st0" x1="50.4" y1="53.4" x2="52.5" y2="50"/>
    <line class="st0" x1="50.4" y1="53.4" x2="50.4" y2="53.4"/>
    <line class="st0" x1="37.1" y1="53.4" x2="39.1" y2="50"/>
    <line class="st0" x1="37.1" y1="53.4" x2="37" y2="53.4"/>
    <line class="st0" x1="23.4" y1="53.4" x2="23.4" y2="53.4"/>
    <line class="st0" x1="23.4" y1="53.4" x2="25.4" y2="50"/>
    <line class="st0" x1="9.1" y1="53.4" x2="11.1" y2="50"/>
    <line class="st0" x1="9.1" y1="53.4" x2="9" y2="53.4"/>
    <line class="st0" x1="51.3" y1="45.6" x2="51.2" y2="45.6"/>
    <line class="st0" x1="53.7" y1="41.8" x2="53.7" y2="41.8"/>
    <line class="st0" x1="51.3" y1="45.6" x2="53.7" y2="41.8"/>
    <line class="st0" x1="47.4" y1="41.8" x2="49.5" y2="38.2"/>
    <line class="st0" x1="47.4" y1="30.8" x2="44.9" y2="34.9"/>
    <line class="st0" x1="51.9" y1="38.2" x2="53.9" y2="35"/>
    <line class="st0" x1="51.9" y1="38.2" x2="51.9" y2="38.2"/>
    <line class="st0" x1="54.1" y1="27" x2="54.1" y2="27"/>
    <line class="st0" x1="51.9" y1="30.7" x2="54.1" y2="27"/>
    <line class="st0" x1="49.6" y1="22.9" x2="49.6" y2="22.9"/>
    <line class="st0" x1="49.6" y1="22.9" x2="47.2" y2="27"/>
    <line class="st0" x1="51.7" y1="23" x2="51.8" y2="22.9"/>
    <line class="st0" x1="54" y1="19.5" x2="51.8" y2="22.9"/>
    <line class="st0" x1="54" y1="19.5" x2="54" y2="19.5"/>
    <line class="st0" x1="47.3" y1="16.2" x2="47.3" y2="16.2"/>
    <line class="st0" x1="47.3" y1="16.2" x2="45.3" y2="19.5"/>
    <line class="st0" x1="53.8" y1="12.2" x2="51.4" y2="16.2"/>
    <line class="st0" x1="53.8" y1="12.2" x2="53.9" y2="12.1"/>
    <line class="st0" x1="46.2" y1="12.1" x2="48.9" y2="8"/>
    <line class="st0" x1="51.3" y1="8" x2="53.9" y2="3.8"/>
    <line class="st0" x1="45.2" y1="3.8" x2="45.2" y2="3.8"/>
    <line class="st0" x1="45.2" y1="3.8" x2="47.5" y2="0.1"/>
    <line class="st0" x1="41.1" y1="41.8" x2="41.2" y2="41.8"/>
    <line class="st0" x1="38.8" y1="45.6" x2="41.1" y2="41.8"/>
    <line class="st0" x1="38.8" y1="45.6" x2="38.8" y2="45.6"/>
    <line class="st0" x1="24.8" y1="45.6" x2="27.1" y2="41.8"/>
    <line class="st0" x1="27.1" y1="41.8" x2="27.2" y2="41.8"/>
    <line class="st0" x1="24.8" y1="45.6" x2="24.8" y2="45.6"/>
    <line class="st0" x1="12.6" y1="41.8" x2="12.7" y2="41.8"/>
    <line class="st0" x1="10.3" y1="45.6" x2="10.3" y2="45.6"/>
    <line class="st0" x1="12.6" y1="41.8" x2="10.3" y2="45.6"/>
    <line class="st0" x1="32.5" y1="41.8" x2="34.6" y2="38.2"/>
    <line class="st0" x1="18.8" y1="41.8" x2="20.9" y2="38.2"/>
    <line class="st0" x1="5.5" y1="41.8" x2="7.7" y2="38.2"/>
    <line class="st0" x1="40" y1="38.1" x2="42" y2="35"/>
    <line class="st0" x1="25.8" y1="38.1" x2="27.7" y2="35"/>
    <line class="st0" x1="10.7" y1="38.1" x2="12.7" y2="35"/>
    <line class="st0" x1="33.1" y1="30.8" x2="30.5" y2="34.9"/>
    <line class="st0" x1="19.5" y1="30.8" x2="16.9" y2="34.9"/>
    <line class="st0" x1="6.5" y1="30.8" x2="3.9" y2="34.9"/>
    <line class="st0" x1="40.9" y1="27" x2="38.7" y2="30.7"/>
    <line class="st0" x1="40.9" y1="27" x2="40.9" y2="27"/>
    <line class="st0" x1="27.5" y1="27" x2="27.5" y2="27"/>
    <line class="st0" x1="27.5" y1="27" x2="25.3" y2="30.7"/>
    <line class="st0" x1="12.5" y1="27" x2="10.3" y2="30.7"/>
    <line class="st0" x1="12.5" y1="27" x2="12.5" y2="27"/>
    <line class="st0" x1="34.7" y1="22.9" x2="32.2" y2="27"/>
    <line class="st0" x1="34.7" y1="22.9" x2="34.7" y2="22.9"/>
    <line class="st0" x1="21" y1="22.9" x2="21" y2="22.9"/>
    <line class="st0" x1="21" y1="22.9" x2="18.5" y2="27"/>
    <line class="st0" x1="7.5" y1="22.9" x2="7.5" y2="22.9"/>
    <line class="st0" x1="7.5" y1="22.9" x2="5.1" y2="27"/>
    <line class="st0" x1="41.9" y1="19.5" x2="39.9" y2="22.9"/>
    <line class="st0" x1="41.9" y1="19.5" x2="41.9" y2="19.5"/>
    <line class="st0" x1="28.1" y1="19.5" x2="26.1" y2="22.9"/>
    <line class="st0" x1="28.1" y1="19.5" x2="28.1" y2="19.5"/>
    <line class="st0" x1="13.1" y1="19.5" x2="13.1" y2="19.5"/>
    <line class="st0" x1="13.1" y1="19.5" x2="11.1" y2="22.9"/>
    <line class="st0" x1="32.7" y1="16.2" x2="30.7" y2="19.5"/>
    <line class="st0" x1="32.7" y1="16.2" x2="32.7" y2="16.2"/>
    <line class="st0" x1="19.3" y1="16.2" x2="19.4" y2="16.2"/>
    <line class="st0" x1="19.3" y1="16.2" x2="17.4" y2="19.5"/>
    <line class="st0" x1="6.7" y1="16.2" x2="6.7" y2="16.2"/>
    <line class="st0" x1="6.7" y1="16.2" x2="4.7" y2="19.5"/>
    <line class="st0" x1="41" y1="12.2" x2="38.6" y2="16.2"/>
    <line class="st0" x1="41" y1="12.2" x2="41" y2="12.1"/>
    <line class="st0" x1="27.6" y1="12.2" x2="27.6" y2="12.1"/>
    <line class="st0" x1="25.2" y1="16.2" x2="27.6" y2="12.2"/>
    <line class="st0" x1="12.8" y1="12.1" x2="12.8" y2="12.2"/>
    <line class="st0" x1="12.8" y1="12.2" x2="10.4" y2="16.2"/>
    <line class="st0" x1="34.8" y1="8" x2="32.3" y2="12.1"/>
    <line class="st0" x1="34.8" y1="8" x2="34.9" y2="8"/>
    <line class="st0" x1="18.7" y1="12.1" x2="21.2" y2="8"/>
    <line class="st0" x1="8" y1="8" x2="5.5" y2="12.1"/>
    <line class="st0" x1="8" y1="8" x2="8" y2="8"/>
    <line class="st0" x1="42.1" y1="3.8" x2="42.1" y2="3.8"/>
    <line class="st0" x1="42.1" y1="3.8" x2="39.5" y2="8"/>
    <line class="st0" x1="28.4" y1="3.8" x2="28.4" y2="3.8"/>
    <line class="st0" x1="28.4" y1="3.8" x2="25.9" y2="8"/>
    <line class="st0" x1="13.5" y1="3.9" x2="11" y2="8"/>
    <line class="st0" x1="30.8" y1="3.8" x2="30.8" y2="3.8"/>
    <line class="st0" x1="30.8" y1="3.8" x2="33.1" y2="0.1"/>
    <line class="st0" x1="17.4" y1="3.8" x2="17.4" y2="3.8"/>
    <line class="st0" x1="17.4" y1="3.8" x2="19.7" y2="0.1"/>
    <line class="st0" x1="4.6" y1="3.8" x2="6.9" y2="0.1"/>
    <line class="st0" x1="4.6" y1="3.8" x2="4.6" y2="3.8"/>
    <line class="st0" x1="47.9" y1="53.5" x2="47.5" y2="54.2"/>
    <line class="st0" x1="33.5" y1="53.5" x2="33.1" y2="54.2"/>
    <line class="st0" x1="20.1" y1="53.5" x2="19.7" y2="54.2"/>
    <line class="st0" x1="7.4" y1="53.5" x2="6.9" y2="54.2"/>
    <circle class="st0" cx="11.7" cy="1.8" r="1"/>
    <circle class="st0" cx="25" cy="1.8" r="1"/>
    <circle class="st0" cx="38.8" cy="1.8" r="1"/>
    <circle class="st0" cx="52.9" cy="1.8" r="1"/>
    <circle class="st0" cx="5" cy="6.1" r="1"/>
    <circle class="st0" cx="18.9" cy="6.1" r="1"/>
    <circle class="st0" cx="33.4" cy="6.1" r="1"/>
    <circle class="st0" cx="46.8" cy="6.1" r="1"/>
    <circle class="st0" cx="12.8" cy="10.2" r="1"/>
    <path class="st0" d="M0,11.2c0,0,0.1,0,0.1,0c0.5,0,1-0.4,1-1c0-0.5-0.4-1-1-1c0,0-0.1,0-0.1,0"/>
    <path class="st0" d="M27.6,10.2c0-0.5-0.4-1-1-1c-0.5,0-1,0.4-1,1c0,0.5,0.4,1,1,1C27.1,11.2,27.6,10.7,27.6,10.2z"/>
    <circle class="st0" cx="40.9" cy="10.2" r="1"/>
    <circle class="st0" cx="46.2" cy="14.4" r="1"/>
    <circle class="st0" cx="32.9" cy="14.4" r="1"/>
    <circle class="st0" cx="18.7" cy="14.4" r="1"/>
    <circle class="st0" cx="4.3" cy="14.4" r="1"/>
    <circle class="st0" cx="53.2" cy="18" r="1"/>
    <circle class="st0" cx="38.8" cy="18" r="1"/>
    <circle class="st0" cx="24.8" cy="18" r="1"/>
    <circle class="st0" cx="11.9" cy="18" r="1"/>
    <circle class="st0" cx="4.9" cy="21.2" r="1"/>
    <circle class="st0" cx="19.4" cy="21.2" r="1"/>
    <circle class="st0" cx="33.7" cy="21.2" r="1"/>
    <circle class="st0" cx="47" cy="21.2" r="1"/>
    <circle class="st0" cx="12.9" cy="25" r="1"/>
    <circle class="st0" cx="26.4" cy="25" r="1"/>
    <circle class="st0" cx="40.7" cy="25" r="1"/>
    <path class="st0" d="M0,25.9c0.4-0.1,0.7-0.5,0.7-0.9c0-0.4-0.3-0.8-0.7-0.9"/>
    <circle class="st0" cx="4.4" cy="28.9" r="1"/>
    <circle class="st0" cx="18.8" cy="28.9" r="1"/>
    <circle class="st0" cx="32.8" cy="28.9" r="1"/>
    <circle class="st0" cx="46" cy="28.9" r="1"/>
    <circle class="st0" cx="52.5" cy="33" r="1"/>
    <circle class="st0" cx="38.8" cy="33" r="1"/>
    <circle class="st0" cx="24.4" cy="33" r="1"/>
    <circle class="st0" cx="11.4" cy="33" r="1"/>
    <circle class="st0" cx="4.4" cy="36.6" r="1"/>
    <circle class="st0" cx="18.7" cy="36.6" r="1"/>
    <circle class="st0" cx="33.7" cy="36.6" r="1"/>
    <circle class="st0" cx="47.2" cy="36.6" r="1"/>
    <path class="st0" d="M0,40.9c0.4-0.1,0.7-0.5,0.7-0.9S0.5,39.2,0,39.1"/>
    <circle class="st0" cx="41" cy="40" r="1"/>
    <circle class="st0" cx="26.7" cy="40" r="1"/>
    <circle class="st0" cx="13.2" cy="40" r="1"/>
    <circle class="st0" cx="4.4" cy="43.7" r="1"/>
    <circle class="st0" cx="18.5" cy="43.7" r="1"/>
    <circle class="st0" cx="32.8" cy="43.7" r="1"/>
    <circle class="st0" cx="46.8" cy="43.7" r="1"/>
    <circle class="st0" cx="52" cy="47.8" r="1"/>
    <circle class="st0" cx="38.5" cy="47.8" r="1"/>
    <circle class="st0" cx="24" cy="47.8" r="1"/>
    <circle class="st0" cx="10.3" cy="47.8" r="1"/>
    <circle class="st0" cx="3.2" cy="51.7" r="1"/>
    <circle class="st0" cx="16.9" cy="51.7" r="1"/>
    <circle class="st0" cx="30.9" cy="51.7" r="1"/>
    <circle class="st0" cx="44.7" cy="51.7" r="1"/>
    <path class="st0" d="M54.2,9.3c-0.5,0.1-0.8,0.5-0.8,0.9c0,0.5,0.4,0.9,0.8,0.9"/>
    <path class="st0" d="M54.2,24c-0.1,0-0.2,0-0.3,0c-0.5,0-1,0.4-1,1c0,0.5,0.4,1,1,1c0.1,0,0.2,0,0.3,0"/>
    <path class="st0" d="M54.2,39.1c-0.1,0-0.2,0-0.2,0c-0.5,0-1,0.4-1,1c0,0.5,0.4,1,1,1c0.1,0,0.2,0,0.2,0"/>
</g>
</svg>
