<svg id="Layer_1" data-name="Layer 1" xmlns="http://www.w3.org/2000/svg" width="54.19" height="54.2" viewBox="0 0 54.19 54.2"><defs><style>.cls-1,.cls-2,.cls-3{fill:none;}.cls-1,.cls-2{stroke:#000;}.cls-1{stroke-width:0.3px;}.cls-2{stroke-linecap:round;stroke-width:0.7px;}</style></defs><title>Artboard 37</title><line class="cls-1" x1="36.32" y1="1.42" x2="27.31" y2="1.42"/><line class="cls-1" x1="50.63" y1="1.42" x2="64.32" y2="1.42"/><line class="cls-1" x1="36.32" y1="1.42" x2="50.63" y2="1.42"/><line class="cls-1" x1="50.63" y1="1.42" x2="52.68" y2="-1.93"/><line class="cls-1" x1="50.63" y1="1.42" x2="50.62" y2="1.45"/><line class="cls-1" x1="36.32" y1="1.42" x2="36.31" y2="1.45"/><line class="cls-1" x1="36.32" y1="1.42" x2="38.37" y2="-1.93"/><line class="cls-1" x1="47.37" y1="1.51" x2="46.92" y2="2.26"/><line class="cls-1" x1="34.62" y1="1.51" x2="34.17" y2="2.26"/><line class="cls-2" x1="45.26" y1="0.13" x2="45.26" y2="0.13"/><line class="cls-2" x1="54.26" y1="-0.04" x2="54.26" y2="-0.04"/><line class="cls-2" x1="34.6" y1="0.13" x2="34.6" y2="0.13"/><rect class="cls-3" x="27.31" y="-51.86" width="54.13" height="54.13"/><line class="cls-1" x1="44.64" y1="6.01" x2="55.65" y2="6.01"/><line class="cls-1" x1="31.89" y1="6.01" x2="44.64" y2="6.01"/><line class="cls-1" x1="31.89" y1="6.01" x2="27.31" y2="6.01"/><line class="cls-1" x1="35.28" y1="10.19" x2="27.31" y2="10.19"/><line class="cls-1" x1="62.09" y1="10.19" x2="35.28" y2="10.19"/><line class="cls-1" x1="54.84" y1="14.37" x2="40.03" y2="14.37"/><line class="cls-1" x1="40.03" y1="14.37" x2="27.31" y2="14.37"/><line class="cls-1" x1="39.91" y1="43.99" x2="54.41" y2="43.99"/><line class="cls-1" x1="39.91" y1="43.99" x2="27.31" y2="43.99"/><line class="cls-1" x1="59.77" y1="47.76" x2="52.09" y2="47.76"/><line class="cls-1" x1="45.77" y1="47.76" x2="52.09" y2="47.76"/><line class="cls-1" x1="32.77" y1="47.76" x2="27.31" y2="47.76"/><line class="cls-1" x1="32.77" y1="47.76" x2="37.59" y2="47.76"/><line class="cls-1" x1="37.59" y1="47.76" x2="45.77" y2="47.76"/><line class="cls-1" x1="59.93" y1="18.39" x2="46.61" y2="18.39"/><line class="cls-1" x1="33.93" y1="18.39" x2="27.31" y2="18.39"/><line class="cls-1" x1="33.93" y1="18.39" x2="46.61" y2="18.39"/><line class="cls-1" x1="55.35" y1="21.67" x2="40.35" y2="21.67"/><line class="cls-1" x1="40.35" y1="21.67" x2="27.31" y2="21.67"/><line class="cls-1" x1="61.92" y1="25.1" x2="48.23" y2="25.1"/><line class="cls-1" x1="34.79" y1="25.1" x2="27.31" y2="25.1"/><line class="cls-1" x1="34.79" y1="25.1" x2="48.23" y2="25.1"/><line class="cls-1" x1="54.8" y1="29.15" x2="39.8" y2="29.15"/><line class="cls-1" x1="39.8" y1="29.15" x2="27.31" y2="29.15"/><line class="cls-1" x1="81.43" y1="32.95" x2="27.31" y2="32.95"/><line class="cls-1" x1="81.43" y1="37.15" x2="27.31" y2="37.15"/><line class="cls-1" x1="79.13" y1="40.37" x2="27.31" y2="40.37"/><line class="cls-1" x1="81.43" y1="52.17" x2="27.31" y2="52.17"/><line class="cls-1" x1="32.77" y1="47.76" x2="30.18" y2="52.15"/><line class="cls-1" x1="32.77" y1="47.76" x2="32.81" y2="47.7"/><line class="cls-1" x1="43.18" y1="52.15" x2="45.77" y2="47.76"/><line class="cls-1" x1="45.77" y1="47.76" x2="45.81" y2="47.7"/><line class="cls-1" x1="50.63" y1="55.55" x2="52.68" y2="52.2"/><line class="cls-1" x1="36.32" y1="55.55" x2="38.37" y2="52.2"/><line class="cls-1" x1="52.06" y1="47.82" x2="52.09" y2="47.76"/><line class="cls-1" x1="52.09" y1="47.76" x2="54.41" y2="43.99"/><line class="cls-1" x1="39.91" y1="43.99" x2="37.59" y2="47.76"/><line class="cls-1" x1="39.91" y1="43.99" x2="39.93" y2="43.95"/><line class="cls-1" x1="37.56" y1="47.82" x2="37.59" y2="47.76"/><line class="cls-1" x1="46.06" y1="43.95" x2="48.18" y2="40.39"/><line class="cls-1" x1="32.81" y1="43.95" x2="34.93" y2="40.39"/><line class="cls-1" x1="53.06" y1="40.32" x2="54.99" y2="37.2"/><line class="cls-1" x1="37.99" y1="40.32" x2="39.93" y2="37.2"/><line class="cls-1" x1="44.18" y1="37.07" x2="46.74" y2="33.01"/><line class="cls-1" x1="31.18" y1="37.07" x2="33.74" y2="33.01"/><line class="cls-1" x1="54.8" y1="29.15" x2="52.56" y2="32.89"/><line class="cls-1" x1="39.8" y1="29.15" x2="37.56" y2="32.89"/><line class="cls-1" x1="39.8" y1="29.15" x2="39.81" y2="29.14"/><line class="cls-1" x1="45.81" y1="29.14" x2="48.23" y2="25.1"/><line class="cls-1" x1="48.24" y1="25.07" x2="48.23" y2="25.1"/><line class="cls-1" x1="34.79" y1="25.1" x2="34.81" y2="25.07"/><line class="cls-1" x1="34.79" y1="25.1" x2="32.37" y2="29.14"/><line class="cls-1" x1="55.35" y1="21.67" x2="53.37" y2="25.07"/><line class="cls-1" x1="40.35" y1="21.67" x2="40.37" y2="21.64"/><line class="cls-1" x1="40.35" y1="21.67" x2="38.37" y2="25.07"/><line class="cls-1" x1="46.62" y1="18.39" x2="46.61" y2="18.39"/><line class="cls-1" x1="44.62" y1="21.64" x2="46.61" y2="18.39"/><line class="cls-1" x1="33.93" y1="18.39" x2="31.93" y2="21.64"/><line class="cls-1" x1="33.93" y1="18.39" x2="33.93" y2="18.39"/><line class="cls-1" x1="54.84" y1="14.37" x2="52.43" y2="18.39"/><line class="cls-1" x1="40.03" y1="14.37" x2="37.62" y2="18.39"/><line class="cls-1" x1="40.03" y1="14.37" x2="40.06" y2="14.32"/><line class="cls-1" x1="45.93" y1="14.32" x2="48.43" y2="10.2"/><line class="cls-1" x1="35.28" y1="10.19" x2="35.31" y2="10.14"/><line class="cls-1" x1="35.28" y1="10.19" x2="32.74" y2="14.32"/><line class="cls-1" x1="53.12" y1="10.14" x2="55.65" y2="6.01"/><line class="cls-1" x1="40.76" y1="6.05" x2="38.24" y2="10.14"/><line class="cls-1" x1="44.63" y1="6.02" x2="44.64" y2="6.01"/><line class="cls-1" x1="44.64" y1="6.01" x2="46.93" y2="2.26"/><line class="cls-1" x1="31.89" y1="6.01" x2="31.88" y2="6.02"/><line class="cls-1" x1="34.18" y1="2.26" x2="31.89" y2="6.01"/><line class="cls-2" x1="46.93" y1="35.97" x2="46.93" y2="35.97"/><line class="cls-2" x1="50.36" y1="34.22" x2="50.36" y2="34.22"/><line class="cls-2" x1="53.28" y1="36.05" x2="53.28" y2="36.05"/><line class="cls-2" x1="33.6" y1="35.97" x2="33.6" y2="35.97"/><line class="cls-2" x1="37.03" y1="34.22" x2="37.03" y2="34.22"/><line class="cls-2" x1="39.95" y1="36.05" x2="39.95" y2="36.05"/><line class="cls-2" x1="43.36" y1="34.3" x2="43.36" y2="34.3"/><line class="cls-2" x1="41.26" y1="46.72" x2="41.26" y2="46.72"/><line class="cls-2" x1="44.7" y1="44.97" x2="44.7" y2="44.97"/><line class="cls-2" x1="47.61" y1="46.8" x2="47.61" y2="46.8"/><line class="cls-2" x1="51.03" y1="45.05" x2="51.03" y2="45.05"/><line class="cls-2" x1="27.76" y1="46.72" x2="27.76" y2="46.72"/><line class="cls-2" x1="31.2" y1="44.97" x2="31.2" y2="44.97"/><line class="cls-2" x1="34.11" y1="46.8" x2="34.11" y2="46.8"/><line class="cls-2" x1="37.53" y1="45.05" x2="37.53" y2="45.05"/><line class="cls-2" x1="32.76" y1="51.05" x2="32.76" y2="51.05"/><line class="cls-2" x1="36.2" y1="49.3" x2="36.2" y2="49.3"/><line class="cls-2" x1="39.11" y1="51.14" x2="39.11" y2="51.14"/><line class="cls-2" x1="42.53" y1="49.39" x2="42.53" y2="49.39"/><line class="cls-2" x1="46.6" y1="51.05" x2="46.6" y2="51.05"/><line class="cls-2" x1="50.03" y1="49.3" x2="50.03" y2="49.3"/><line class="cls-2" x1="52.95" y1="51.14" x2="52.95" y2="51.14"/><line class="cls-2" x1="40.93" y1="53.22" x2="40.93" y2="53.22"/><line class="cls-2" x1="45.26" y1="54.25" x2="45.26" y2="54.25"/><line class="cls-2" x1="49.1" y1="53.05" x2="49.1" y2="53.05"/><line class="cls-2" x1="49.43" y1="41.85" x2="49.43" y2="41.85"/><line class="cls-2" x1="53.76" y1="42.89" x2="53.76" y2="42.89"/><line class="cls-2" x1="28.26" y1="42.89" x2="28.26" y2="42.89"/><line class="cls-2" x1="32.1" y1="41.69" x2="32.1" y2="41.69"/><line class="cls-2" x1="42.6" y1="38.35" x2="42.6" y2="38.35"/><line class="cls-2" x1="46.93" y1="39.39" x2="46.93" y2="39.39"/><line class="cls-2" x1="50.76" y1="38.19" x2="50.76" y2="38.19"/><line class="cls-2" x1="54.26" y1="54.09" x2="54.26" y2="54.09"/><line class="cls-2" x1="30.76" y1="53.05" x2="30.76" y2="53.05"/><line class="cls-2" x1="34.6" y1="54.25" x2="34.6" y2="54.25"/><line class="cls-2" x1="36.26" y1="42.59" x2="36.26" y2="42.59"/><line class="cls-2" x1="40.6" y1="41.55" x2="40.6" y2="41.55"/><line class="cls-2" x1="44.43" y1="42.75" x2="44.43" y2="42.75"/><line class="cls-2" x1="28.26" y1="39.25" x2="28.26" y2="39.25"/><line class="cls-2" x1="32.6" y1="38.22" x2="32.6" y2="38.22"/><line class="cls-2" x1="36.43" y1="39.42" x2="36.43" y2="39.42"/><line class="cls-2" x1="29.43" y1="35.42" x2="29.43" y2="35.42"/><line class="cls-2" x1="42.6" y1="23.59" x2="42.6" y2="23.59"/><line class="cls-2" x1="46.93" y1="22.55" x2="46.93" y2="22.55"/><line class="cls-2" x1="50.76" y1="23.75" x2="50.76" y2="23.75"/><line class="cls-2" x1="34.93" y1="20.59" x2="34.93" y2="20.59"/><line class="cls-2" x1="39.26" y1="19.55" x2="39.26" y2="19.55"/><line class="cls-2" x1="43.1" y1="20.75" x2="43.1" y2="20.75"/><line class="cls-2" x1="28.26" y1="23.02" x2="28.26" y2="23.02"/><line class="cls-2" x1="32.6" y1="24.05" x2="32.6" y2="24.05"/><line class="cls-2" x1="36.43" y1="22.85" x2="36.43" y2="22.85"/><line class="cls-2" x1="30.6" y1="19.69" x2="30.6" y2="19.69"/><line class="cls-2" x1="48.1" y1="19.85" x2="48.1" y2="19.85"/><line class="cls-2" x1="52.43" y1="20.89" x2="52.43" y2="20.89"/><line class="cls-2" x1="41.43" y1="32.05" x2="41.43" y2="32.05"/><line class="cls-2" x1="44.86" y1="30.3" x2="44.86" y2="30.3"/><line class="cls-2" x1="47.78" y1="32.14" x2="47.78" y2="32.14"/><line class="cls-2" x1="51.2" y1="30.39" x2="51.2" y2="30.39"/><line class="cls-2" x1="30.36" y1="30.3" x2="30.36" y2="30.3"/><line class="cls-2" x1="33.28" y1="32.14" x2="33.28" y2="32.14"/><line class="cls-2" x1="36.7" y1="30.39" x2="36.7" y2="30.39"/><line class="cls-2" x1="34.93" y1="28.05" x2="34.93" y2="28.05"/><line class="cls-2" x1="38.36" y1="26.3" x2="38.36" y2="26.3"/><line class="cls-2" x1="41.28" y1="28.14" x2="41.28" y2="28.14"/><line class="cls-2" x1="44.7" y1="26.39" x2="44.7" y2="26.39"/><line class="cls-2" x1="48.6" y1="28.05" x2="48.6" y2="28.05"/><line class="cls-2" x1="52.03" y1="26.3" x2="52.03" y2="26.3"/><line class="cls-2" x1="28.11" y1="28.14" x2="28.11" y2="28.14"/><line class="cls-2" x1="31.53" y1="26.39" x2="31.53" y2="26.39"/><line class="cls-2" x1="40.93" y1="17.22" x2="40.93" y2="17.22"/><line class="cls-2" x1="44.36" y1="15.47" x2="44.36" y2="15.47"/><line class="cls-2" x1="47.28" y1="17.3" x2="47.28" y2="17.3"/><line class="cls-2" x1="50.7" y1="15.55" x2="50.7" y2="15.55"/><line class="cls-2" x1="29.86" y1="15.47" x2="29.86" y2="15.47"/><line class="cls-2" x1="32.78" y1="17.3" x2="32.78" y2="17.3"/><line class="cls-2" x1="36.2" y1="15.55" x2="36.2" y2="15.55"/><line class="cls-2" x1="48.76" y1="13.22" x2="48.76" y2="13.22"/><line class="cls-2" x1="52.2" y1="11.47" x2="52.2" y2="11.47"/><line class="cls-2" x1="34.93" y1="13.22" x2="34.93" y2="13.22"/><line class="cls-2" x1="38.36" y1="11.47" x2="38.36" y2="11.47"/><line class="cls-2" x1="41.28" y1="13.3" x2="41.28" y2="13.3"/><line class="cls-2" x1="44.7" y1="11.55" x2="44.7" y2="11.55"/><line class="cls-2" x1="28.11" y1="13.3" x2="28.11" y2="13.3"/><line class="cls-2" x1="31.53" y1="11.55" x2="31.53" y2="11.55"/><line class="cls-2" x1="41.76" y1="8.89" x2="41.76" y2="8.89"/><line class="cls-2" x1="45.2" y1="7.14" x2="45.2" y2="7.14"/><line class="cls-2" x1="48.11" y1="8.97" x2="48.11" y2="8.97"/><line class="cls-2" x1="51.53" y1="7.22" x2="51.53" y2="7.22"/><line class="cls-2" x1="27.85" y1="8.89" x2="27.85" y2="8.89"/><line class="cls-2" x1="31.28" y1="7.14" x2="31.28" y2="7.14"/><line class="cls-2" x1="34.2" y1="8.97" x2="34.2" y2="8.97"/><line class="cls-2" x1="37.61" y1="7.22" x2="37.61" y2="7.22"/><line class="cls-2" x1="34.6" y1="4.55" x2="34.6" y2="4.55"/><line class="cls-2" x1="38.03" y1="2.8" x2="38.03" y2="2.8"/><line class="cls-2" x1="40.95" y1="4.64" x2="40.95" y2="4.64"/><line class="cls-2" x1="44.36" y1="2.89" x2="44.36" y2="2.89"/><line class="cls-2" x1="30.45" y1="2.89" x2="30.45" y2="2.89"/><line class="cls-2" x1="47.26" y1="4.55" x2="47.26" y2="4.55"/><line class="cls-2" x1="50.7" y1="2.8" x2="50.7" y2="2.8"/><line class="cls-2" x1="53.61" y1="4.64" x2="53.61" y2="4.64"/><rect class="cls-3" x="27.31" y="2.26" width="54.13" height="54.13"/><line class="cls-1" x1="23.57" y1="1.42" x2="27.31" y2="1.42"/><line class="cls-1" x1="-3.49" y1="1.42" x2="10.2" y2="1.42"/><line class="cls-1" x1="10.2" y1="1.42" x2="23.57" y2="1.42"/><line class="cls-1" x1="23.57" y1="1.42" x2="25.62" y2="-1.93"/><line class="cls-1" x1="23.57" y1="1.42" x2="23.56" y2="1.45"/><line class="cls-1" x1="10.2" y1="1.42" x2="12.24" y2="-1.93"/><line class="cls-1" x1="10.2" y1="1.42" x2="10.18" y2="1.45"/><line class="cls-1" x1="21.06" y1="1.51" x2="20.6" y2="2.26"/><line class="cls-1" x1="6.68" y1="1.51" x2="6.23" y2="2.26"/><line class="cls-2" x1="18.64" y1="0.13" x2="18.64" y2="0.13"/><line class="cls-2" x1="0.14" y1="-0.04" x2="0.14" y2="-0.04"/><line class="cls-2" x1="8.31" y1="0.13" x2="8.31" y2="0.13"/><line class="cls-2" x1="26.47" y1="-0.04" x2="26.47" y2="-0.04"/><rect class="cls-3" x="-26.82" y="-51.86" width="54.13" height="54.13"/><line class="cls-1" x1="3.95" y1="6.01" x2="1.53" y2="6.01"/><line class="cls-1" x1="-9.48" y1="6.01" x2="1.53" y2="6.01"/><line class="cls-1" x1="15.2" y1="6.01" x2="18.33" y2="6.01"/><line class="cls-1" x1="15.2" y1="6.01" x2="3.95" y2="6.01"/><line class="cls-1" x1="27.31" y1="6.01" x2="18.33" y2="6.01"/><line class="cls-1" x1="7.96" y1="10.19" x2="-18.85" y2="10.19"/><line class="cls-1" x1="27.31" y1="10.19" x2="7.96" y2="10.19"/><line class="cls-1" x1="0.71" y1="14.37" x2="-14.1" y2="14.37"/><line class="cls-1" x1="26.96" y1="14.37" x2="27.31" y2="14.37"/><line class="cls-1" x1="14.15" y1="14.37" x2="26.96" y2="14.37"/><line class="cls-1" x1="0.71" y1="14.37" x2="14.15" y2="14.37"/><line class="cls-1" x1="27.37" y1="43.99" x2="27.31" y2="43.99"/><line class="cls-1" x1="-14.22" y1="43.99" x2="0.28" y2="43.99"/><line class="cls-1" x1="26.86" y1="43.99" x2="27.31" y2="43.99"/><line class="cls-1" x1="0.28" y1="43.99" x2="14.28" y2="43.99"/><line class="cls-1" x1="14.28" y1="43.99" x2="26.86" y2="43.99"/><line class="cls-1" x1="5.64" y1="47.76" x2="-2.03" y2="47.76"/><line class="cls-1" x1="24.41" y1="47.76" x2="27.31" y2="47.76"/><line class="cls-1" x1="20.24" y1="47.76" x2="11.97" y2="47.76"/><line class="cls-1" x1="5.64" y1="47.76" x2="11.97" y2="47.76"/><line class="cls-1" x1="24.41" y1="47.76" x2="20.24" y2="47.76"/><line class="cls-1" x1="5.8" y1="18.39" x2="-7.51" y2="18.39"/><line class="cls-1" x1="20.43" y1="18.39" x2="27.31" y2="18.39"/><line class="cls-1" x1="20.43" y1="18.39" x2="5.8" y2="18.39"/><line class="cls-1" x1="27.09" y1="21.67" x2="15.03" y2="21.67"/><line class="cls-1" x1="27.09" y1="21.67" x2="27.31" y2="21.67"/><line class="cls-1" x1="1.22" y1="21.67" x2="-13.78" y2="21.67"/><line class="cls-1" x1="1.22" y1="21.67" x2="15.03" y2="21.67"/><line class="cls-1" x1="7.79" y1="25.1" x2="-5.9" y2="25.1"/><line class="cls-1" x1="24.89" y1="25.1" x2="27.31" y2="25.1"/><line class="cls-1" x1="7.79" y1="25.1" x2="22.73" y2="25.1"/><line class="cls-1" x1="24.89" y1="25.1" x2="22.73" y2="25.1"/><line class="cls-1" x1="27.24" y1="29.15" x2="14.05" y2="29.15"/><line class="cls-1" x1="27.24" y1="29.15" x2="27.31" y2="29.15"/><line class="cls-1" x1="0.67" y1="29.15" x2="-14.33" y2="29.15"/><line class="cls-1" x1="14.05" y1="29.15" x2="0.67" y2="29.15"/><line class="cls-1" x1="27.31" y1="32.95" x2="-26.82" y2="32.95"/><line class="cls-1" x1="27.31" y1="37.15" x2="-26.82" y2="37.15"/><line class="cls-1" x1="25" y1="40.37" x2="27.31" y2="40.37"/><line class="cls-1" x1="25" y1="40.37" x2="-26.82" y2="40.37"/><line class="cls-1" x1="27.31" y1="52.17" x2="-26.82" y2="52.17"/><line class="cls-1" x1="5.64" y1="47.76" x2="3.05" y2="52.15"/><line class="cls-1" x1="5.64" y1="47.76" x2="5.68" y2="47.7"/><line class="cls-1" x1="20.24" y1="47.76" x2="17.61" y2="52.15"/><line class="cls-1" x1="23.57" y1="55.55" x2="25.62" y2="52.2"/><line class="cls-1" x1="10.2" y1="55.55" x2="12.24" y2="52.2"/><line class="cls-1" x1="24.41" y1="47.76" x2="24.37" y2="47.82"/><line class="cls-1" x1="26.86" y1="43.99" x2="26.88" y2="43.96"/><line class="cls-1" x1="24.41" y1="47.76" x2="26.86" y2="43.99"/><line class="cls-1" x1="20.49" y1="43.95" x2="22.62" y2="40.39"/><line class="cls-1" x1="17.99" y1="37.07" x2="20.56" y2="33.01"/><line class="cls-1" x1="25" y1="40.37" x2="24.99" y2="40.39"/><line class="cls-1" x1="25" y1="40.37" x2="27.04" y2="37.17"/><line class="cls-1" x1="27.24" y1="29.15" x2="24.99" y2="32.89"/><line class="cls-1" x1="27.24" y1="29.14" x2="27.24" y2="29.15"/><line class="cls-1" x1="22.73" y1="25.1" x2="20.31" y2="29.14"/><line class="cls-1" x1="22.73" y1="25.1" x2="22.74" y2="25.07"/><line class="cls-1" x1="27.09" y1="21.67" x2="27.11" y2="21.65"/><line class="cls-1" x1="24.89" y1="25.1" x2="27.09" y2="21.67"/><line class="cls-1" x1="24.89" y1="25.1" x2="24.87" y2="25.14"/><line class="cls-1" x1="20.43" y1="18.39" x2="20.43" y2="18.39"/><line class="cls-1" x1="20.43" y1="18.39" x2="18.43" y2="21.64"/><line class="cls-1" x1="24.54" y1="18.39" x2="26.96" y2="14.37"/><line class="cls-1" x1="26.96" y1="14.37" x2="26.99" y2="14.32"/><line class="cls-1" x1="19.37" y1="14.32" x2="22.02" y2="10.21"/><line class="cls-1" x1="27.08" y1="6.03" x2="24.47" y2="10.14"/><line class="cls-1" x1="18.33" y1="6.01" x2="18.32" y2="6.02"/><line class="cls-1" x1="18.33" y1="6.01" x2="20.61" y2="2.26"/><line class="cls-1" x1="11.93" y1="47.82" x2="11.97" y2="47.76"/><line class="cls-1" x1="11.97" y1="47.76" x2="14.28" y2="43.99"/><line class="cls-1" x1="14.28" y1="43.99" x2="14.31" y2="43.95"/><line class="cls-1" x1="0.28" y1="43.99" x2="0.31" y2="43.95"/><line class="cls-1" x1="-2.03" y1="47.76" x2="0.28" y2="43.99"/><line class="cls-1" x1="5.62" y1="43.95" x2="7.74" y2="40.39"/><line class="cls-1" x1="13.18" y1="40.32" x2="15.12" y2="37.2"/><line class="cls-1" x1="-1.07" y1="40.32" x2="0.87" y2="37.2"/><line class="cls-1" x1="3.68" y1="37.07" x2="6.24" y2="33.01"/><line class="cls-1" x1="14.06" y1="29.14" x2="14.05" y2="29.15"/><line class="cls-1" x1="14.05" y1="29.15" x2="11.81" y2="32.89"/><line class="cls-1" x1="0.68" y1="29.14" x2="0.67" y2="29.15"/><line class="cls-1" x1="0.67" y1="29.15" x2="-1.57" y2="32.89"/><line class="cls-1" x1="7.79" y1="25.1" x2="7.81" y2="25.07"/><line class="cls-1" x1="7.79" y1="25.1" x2="5.37" y2="29.14"/><line class="cls-1" x1="15.06" y1="21.64" x2="15.03" y2="21.67"/><line class="cls-1" x1="13.06" y1="25.07" x2="15.03" y2="21.67"/><line class="cls-1" x1="1.22" y1="21.67" x2="-0.76" y2="25.07"/><line class="cls-1" x1="1.22" y1="21.67" x2="1.24" y2="21.64"/><line class="cls-1" x1="5.8" y1="18.39" x2="3.81" y2="21.64"/><line class="cls-1" x1="5.8" y1="18.39" x2="5.81" y2="18.39"/><line class="cls-1" x1="14.15" y1="14.37" x2="14.18" y2="14.32"/><line class="cls-1" x1="11.74" y1="18.39" x2="14.15" y2="14.37"/><line class="cls-1" x1="0.71" y1="14.37" x2="0.74" y2="14.32"/><line class="cls-1" x1="0.71" y1="14.37" x2="-1.69" y2="18.39"/><line class="cls-1" x1="7.96" y1="10.19" x2="7.99" y2="10.14"/><line class="cls-1" x1="7.96" y1="10.19" x2="5.43" y2="14.32"/><line class="cls-1" x1="15.2" y1="6.01" x2="15.22" y2="5.97"/><line class="cls-1" x1="15.2" y1="6.01" x2="12.68" y2="10.14"/><line class="cls-1" x1="-1.01" y1="10.14" x2="1.53" y2="6.01"/><line class="cls-1" x1="1.56" y1="5.97" x2="1.53" y2="6.01"/><line class="cls-1" x1="3.95" y1="6.02" x2="3.95" y2="6.01"/><line class="cls-1" x1="3.95" y1="6.01" x2="6.24" y2="2.26"/><line class="cls-2" x1="6.79" y1="35.97" x2="6.79" y2="35.97"/><line class="cls-2" x1="10.22" y1="34.22" x2="10.22" y2="34.22"/><line class="cls-2" x1="13.14" y1="36.05" x2="13.14" y2="36.05"/><line class="cls-2" x1="16.56" y1="34.3" x2="16.56" y2="34.3"/><line class="cls-2" x1="2.57" y1="34.3" x2="2.57" y2="34.3"/><line class="cls-2" x1="20.47" y1="35.97" x2="20.47" y2="35.97"/><line class="cls-2" x1="23.91" y1="34.22" x2="23.91" y2="34.22"/><line class="cls-2" x1="26.82" y1="36.05" x2="26.82" y2="36.05"/><line class="cls-2" x1="14.47" y1="46.72" x2="14.47" y2="46.72"/><line class="cls-2" x1="17.91" y1="44.97" x2="17.91" y2="44.97"/><line class="cls-2" x1="20.82" y1="46.8" x2="20.82" y2="46.8"/><line class="cls-2" x1="24.24" y1="45.05" x2="24.24" y2="45.05"/><line class="cls-2" x1="0.97" y1="46.72" x2="0.97" y2="46.72"/><line class="cls-2" x1="4.41" y1="44.97" x2="4.41" y2="44.97"/><line class="cls-2" x1="7.32" y1="46.8" x2="7.32" y2="46.8"/><line class="cls-2" x1="10.74" y1="45.05" x2="10.74" y2="45.05"/><line class="cls-2" x1="2.24" y1="49.39" x2="2.24" y2="49.39"/><line class="cls-2" x1="6.44" y1="51.05" x2="6.44" y2="51.05"/><line class="cls-2" x1="9.87" y1="49.3" x2="9.87" y2="49.3"/><line class="cls-2" x1="12.79" y1="51.14" x2="12.79" y2="51.14"/><line class="cls-2" x1="16.21" y1="49.39" x2="16.21" y2="49.39"/><line class="cls-2" x1="14.31" y1="53.22" x2="14.31" y2="53.22"/><line class="cls-2" x1="18.64" y1="54.25" x2="18.64" y2="54.25"/><line class="cls-2" x1="22.47" y1="53.05" x2="22.47" y2="53.05"/><line class="cls-2" x1="3.47" y1="41.69" x2="3.47" y2="41.69"/><line class="cls-2" x1="23.47" y1="41.85" x2="23.47" y2="41.85"/><line class="cls-2" x1="15.97" y1="38.35" x2="15.97" y2="38.35"/><line class="cls-2" x1="20.31" y1="39.39" x2="20.31" y2="39.39"/><line class="cls-2" x1="24.14" y1="38.19" x2="24.14" y2="38.19"/><line class="cls-2" x1="3.47" y1="23.02" x2="3.47" y2="23.02"/><line class="cls-2" x1="7.81" y1="24.05" x2="7.81" y2="24.05"/><line class="cls-2" x1="11.64" y1="22.85" x2="11.64" y2="22.85"/><line class="cls-2" x1="0.14" y1="54.09" x2="0.14" y2="54.09"/><line class="cls-2" x1="4.47" y1="53.05" x2="4.47" y2="53.05"/><line class="cls-2" x1="8.31" y1="54.25" x2="8.31" y2="54.25"/><line class="cls-2" x1="26.47" y1="54.09" x2="26.47" y2="54.09"/><line class="cls-2" x1="9.97" y1="42.42" x2="9.97" y2="42.42"/><line class="cls-2" x1="14.31" y1="41.39" x2="14.31" y2="41.39"/><line class="cls-2" x1="18.14" y1="42.59" x2="18.14" y2="42.59"/><line class="cls-2" x1="2.64" y1="39.25" x2="2.64" y2="39.25"/><line class="cls-2" x1="6.97" y1="38.22" x2="6.97" y2="38.22"/><line class="cls-2" x1="10.81" y1="39.42" x2="10.81" y2="39.42"/><line class="cls-2" x1="15.97" y1="23.75" x2="15.97" y2="23.75"/><line class="cls-2" x1="20.31" y1="22.72" x2="20.31" y2="22.72"/><line class="cls-2" x1="24.14" y1="23.92" x2="24.14" y2="23.92"/><line class="cls-2" x1="7.81" y1="20.59" x2="7.81" y2="20.59"/><line class="cls-2" x1="12.14" y1="19.55" x2="12.14" y2="19.55"/><line class="cls-2" x1="15.97" y1="20.75" x2="15.97" y2="20.75"/><line class="cls-2" x1="21.64" y1="19.85" x2="21.64" y2="19.85"/><line class="cls-2" x1="25.97" y1="20.89" x2="25.97" y2="20.89"/><line class="cls-2" x1="2.14" y1="19.69" x2="2.14" y2="19.69"/><line class="cls-2" x1="19.97" y1="51.05" x2="19.97" y2="51.05"/><line class="cls-2" x1="23.41" y1="49.3" x2="23.41" y2="49.3"/><line class="cls-2" x1="26.32" y1="51.14" x2="26.32" y2="51.14"/><line class="cls-2" x1="14.31" y1="32.05" x2="14.31" y2="32.05"/><line class="cls-2" x1="17.74" y1="30.3" x2="17.74" y2="30.3"/><line class="cls-2" x1="20.66" y1="32.14" x2="20.66" y2="32.14"/><line class="cls-2" x1="24.07" y1="30.39" x2="24.07" y2="30.39"/><line class="cls-2" x1="0.81" y1="32.05" x2="0.81" y2="32.05"/><line class="cls-2" x1="4.24" y1="30.3" x2="4.24" y2="30.3"/><line class="cls-2" x1="7.16" y1="32.14" x2="7.16" y2="32.14"/><line class="cls-2" x1="10.57" y1="30.39" x2="10.57" y2="30.39"/><line class="cls-2" x1="0.82" y1="28.14" x2="0.82" y2="28.14"/><line class="cls-2" x1="4.24" y1="26.39" x2="4.24" y2="26.39"/><line class="cls-2" x1="8.47" y1="28.05" x2="8.47" y2="28.05"/><line class="cls-2" x1="11.91" y1="26.3" x2="11.91" y2="26.3"/><line class="cls-2" x1="14.82" y1="28.14" x2="14.82" y2="28.14"/><line class="cls-2" x1="18.24" y1="26.39" x2="18.24" y2="26.39"/><line class="cls-2" x1="22.31" y1="28.05" x2="22.31" y2="28.05"/><line class="cls-2" x1="25.74" y1="26.3" x2="25.74" y2="26.3"/><line class="cls-2" x1="0.97" y1="17.22" x2="0.97" y2="17.22"/><line class="cls-2" x1="4.41" y1="15.47" x2="4.41" y2="15.47"/><line class="cls-2" x1="7.32" y1="17.3" x2="7.32" y2="17.3"/><line class="cls-2" x1="10.74" y1="15.55" x2="10.74" y2="15.55"/><line class="cls-2" x1="14.14" y1="17.22" x2="14.14" y2="17.22"/><line class="cls-2" x1="17.57" y1="15.47" x2="17.57" y2="15.47"/><line class="cls-2" x1="20.49" y1="17.3" x2="20.49" y2="17.3"/><line class="cls-2" x1="23.91" y1="15.55" x2="23.91" y2="15.55"/><line class="cls-2" x1="8.81" y1="13.22" x2="8.81" y2="13.22"/><line class="cls-2" x1="12.24" y1="11.47" x2="12.24" y2="11.47"/><line class="cls-2" x1="15.16" y1="13.3" x2="15.16" y2="13.3"/><line class="cls-2" x1="18.57" y1="11.55" x2="18.57" y2="11.55"/><line class="cls-2" x1="0.99" y1="13.3" x2="0.99" y2="13.3"/><line class="cls-2" x1="4.41" y1="11.55" x2="4.41" y2="11.55"/><line class="cls-2" x1="22.81" y1="13.22" x2="22.81" y2="13.22"/><line class="cls-2" x1="26.24" y1="11.47" x2="26.24" y2="11.47"/><line class="cls-2" x1="14.81" y1="8.89" x2="14.81" y2="8.89"/><line class="cls-2" x1="18.24" y1="7.14" x2="18.24" y2="7.14"/><line class="cls-2" x1="21.16" y1="8.97" x2="21.16" y2="8.97"/><line class="cls-2" x1="24.57" y1="7.22" x2="24.57" y2="7.22"/><line class="cls-2" x1="1.64" y1="8.89" x2="1.64" y2="8.89"/><line class="cls-2" x1="5.07" y1="7.14" x2="5.07" y2="7.14"/><line class="cls-2" x1="7.99" y1="8.97" x2="7.99" y2="8.97"/><line class="cls-2" x1="11.41" y1="7.22" x2="11.41" y2="7.22"/><line class="cls-2" x1="2.91" y1="2.89" x2="2.91" y2="2.89"/><line class="cls-2" x1="6.81" y1="4.55" x2="6.81" y2="4.55"/><line class="cls-2" x1="10.24" y1="2.8" x2="10.24" y2="2.8"/><line class="cls-2" x1="13.16" y1="4.64" x2="13.16" y2="4.64"/><line class="cls-2" x1="16.57" y1="2.89" x2="16.57" y2="2.89"/><line class="cls-2" x1="20.71" y1="4.55" x2="20.71" y2="4.55"/><line class="cls-2" x1="24.14" y1="2.8" x2="24.14" y2="2.8"/><line class="cls-2" x1="27.06" y1="4.64" x2="27.06" y2="4.64"/><rect class="cls-3" x="-26.82" y="2.26" width="54.13" height="54.13"/><rect class="cls-3" width="54.19" height="54.19"/></svg>