<svg id="Layer_1" data-name="Layer 1" xmlns="http://www.w3.org/2000/svg" width="54.19" height="54.2" viewBox="0 0 54.19 54.2"><defs><style>.cls-1,.cls-2,.cls-3{fill:none;}.cls-1,.cls-2{stroke:#000;}.cls-1{stroke-width:0.3px;}.cls-2{stroke-linecap:round;stroke-width:0.6px;}</style></defs><title>Artboard 37</title><line class="cls-1" x1="19.46" y1="5.7" x2="28.48" y2="5.7"/><line class="cls-1" x1="42.79" y1="5.7" x2="56.48" y2="5.7"/><line class="cls-1" x1="28.48" y1="5.7" x2="42.79" y2="5.7"/><line class="cls-1" x1="19.46" y1="2.33" x2="73.59" y2="2.33"/><line class="cls-1" x1="24.93" y1="-2.09" x2="22.33" y2="2.3"/><line class="cls-1" x1="37.93" y1="-2.09" x2="35.33" y2="2.3"/><line class="cls-1" x1="49.33" y1="2.3" x2="51.93" y2="-2.09"/><line class="cls-1" x1="42.79" y1="5.7" x2="42.78" y2="5.73"/><line class="cls-1" x1="42.79" y1="5.7" x2="44.84" y2="2.35"/><line class="cls-1" x1="28.48" y1="5.7" x2="30.53" y2="2.35"/><line class="cls-1" x1="28.48" y1="5.7" x2="28.46" y2="5.73"/><line class="cls-1" x1="52.96" y1="5.79" x2="52.51" y2="6.54"/><line class="cls-1" x1="39.53" y1="5.79" x2="39.08" y2="6.54"/><line class="cls-1" x1="26.78" y1="5.79" x2="26.33" y2="6.54"/><line class="cls-1" x1="33.43" y1="0.42" x2="26.18" y2="0.42"/><line class="cls-1" x1="26.73" y1="4.1" x2="19.48" y2="4.1"/><line class="cls-1" x1="61.43" y1="0.29" x2="54.18" y2="0.29"/><line class="cls-1" x1="53.91" y1="4.04" x2="46.66" y2="4.04"/><line class="cls-2" x1="36.92" y1="4" x2="36.92" y2="4"/><line class="cls-2" x1="39.92" y1="4" x2="39.92" y2="4"/><line class="cls-2" x1="33.76" y1="4" x2="33.76" y2="4"/><line class="cls-2" x1="43.59" y1="0.25" x2="43.59" y2="0.25"/><line class="cls-2" x1="46.59" y1="0.25" x2="46.59" y2="0.25"/><line class="cls-2" x1="40.42" y1="0.25" x2="40.42" y2="0.25"/><line class="cls-2" x1="20.72" y1="0.25" x2="20.72" y2="0.25"/><rect class="cls-3" x="19.46" y="-47.59" width="54.13" height="54.13"/><line class="cls-1" x1="24.05" y1="10.29" x2="19.46" y2="10.29"/><line class="cls-1" x1="61.48" y1="10.29" x2="50.24" y2="10.29"/><line class="cls-1" x1="36.8" y1="10.29" x2="47.81" y2="10.29"/><line class="cls-1" x1="36.8" y1="10.29" x2="24.05" y2="10.29"/><line class="cls-1" x1="50.24" y1="10.29" x2="47.81" y2="10.29"/><line class="cls-1" x1="54.25" y1="14.46" x2="27.43" y2="14.46"/><line class="cls-1" x1="27.43" y1="14.46" x2="19.46" y2="14.46"/><line class="cls-1" x1="32.18" y1="18.65" x2="19.46" y2="18.65"/><line class="cls-1" x1="47" y1="18.65" x2="60.43" y2="18.65"/><line class="cls-1" x1="47" y1="18.65" x2="32.18" y2="18.65"/><line class="cls-1" x1="32.07" y1="48.26" x2="46.57" y2="48.26"/><line class="cls-1" x1="60.57" y1="48.26" x2="46.57" y2="48.26"/><line class="cls-1" x1="32.07" y1="48.26" x2="19.46" y2="48.26"/><line class="cls-1" x1="37.93" y1="52.04" x2="44.25" y2="52.04"/><line class="cls-1" x1="24.93" y1="52.04" x2="19.46" y2="52.04"/><line class="cls-1" x1="44.25" y1="52.04" x2="51.93" y2="52.04"/><line class="cls-1" x1="29.75" y1="52.04" x2="24.93" y2="52.04"/><line class="cls-1" x1="58.25" y1="52.04" x2="51.93" y2="52.04"/><line class="cls-1" x1="29.75" y1="52.04" x2="37.93" y2="52.04"/><line class="cls-1" x1="26.09" y1="22.67" x2="38.77" y2="22.67"/><line class="cls-1" x1="52.09" y1="22.67" x2="66.71" y2="22.67"/><line class="cls-1" x1="26.09" y1="22.67" x2="19.46" y2="22.67"/><line class="cls-1" x1="52.09" y1="22.67" x2="38.77" y2="22.67"/><line class="cls-1" x1="47.5" y1="25.95" x2="32.5" y2="25.95"/><line class="cls-1" x1="32.5" y1="25.95" x2="19.46" y2="25.95"/><line class="cls-1" x1="47.5" y1="25.95" x2="61.32" y2="25.95"/><line class="cls-1" x1="54.07" y1="29.38" x2="40.39" y2="29.38"/><line class="cls-1" x1="26.95" y1="29.38" x2="40.39" y2="29.38"/><line class="cls-1" x1="26.95" y1="29.38" x2="19.46" y2="29.38"/><line class="cls-1" x1="54.07" y1="29.38" x2="69.01" y2="29.38"/><line class="cls-1" x1="60.33" y1="33.43" x2="46.96" y2="33.43"/><line class="cls-1" x1="31.96" y1="33.43" x2="19.46" y2="33.43"/><line class="cls-1" x1="46.96" y1="33.43" x2="31.96" y2="33.43"/><line class="cls-1" x1="73.59" y1="37.23" x2="19.46" y2="37.23"/><line class="cls-1" x1="19.46" y1="41.43" x2="73.59" y2="41.43"/><line class="cls-1" x1="19.46" y1="44.65" x2="71.29" y2="44.65"/><line class="cls-1" x1="24.93" y1="52.04" x2="22.33" y2="56.43"/><line class="cls-1" x1="24.96" y1="51.98" x2="24.93" y2="52.04"/><line class="cls-1" x1="37.96" y1="51.98" x2="37.93" y2="52.04"/><line class="cls-1" x1="37.93" y1="52.04" x2="35.33" y2="56.43"/><line class="cls-1" x1="51.96" y1="51.98" x2="51.93" y2="52.04"/><line class="cls-1" x1="49.33" y1="56.43" x2="51.93" y2="52.04"/><line class="cls-1" x1="44.21" y1="52.1" x2="44.25" y2="52.04"/><line class="cls-1" x1="46.57" y1="48.26" x2="44.25" y2="52.04"/><line class="cls-1" x1="46.59" y1="48.23" x2="46.57" y2="48.26"/><line class="cls-1" x1="29.75" y1="52.04" x2="29.71" y2="52.1"/><line class="cls-1" x1="32.07" y1="48.26" x2="32.09" y2="48.23"/><line class="cls-1" x1="32.07" y1="48.26" x2="29.75" y2="52.04"/><line class="cls-1" x1="51.9" y1="48.23" x2="54.03" y2="44.66"/><line class="cls-1" x1="38.21" y1="48.23" x2="40.34" y2="44.66"/><line class="cls-1" x1="24.96" y1="48.23" x2="27.09" y2="44.66"/><line class="cls-1" x1="47.15" y1="41.48" x2="45.21" y2="44.6"/><line class="cls-1" x1="32.09" y1="41.48" x2="30.15" y2="44.6"/><line class="cls-1" x1="52.53" y1="37.29" x2="49.96" y2="41.35"/><line class="cls-1" x1="38.9" y1="37.29" x2="36.34" y2="41.35"/><line class="cls-1" x1="25.9" y1="37.29" x2="23.34" y2="41.35"/><line class="cls-1" x1="46.96" y1="33.43" x2="44.71" y2="37.16"/><line class="cls-1" x1="46.96" y1="33.41" x2="46.96" y2="33.43"/><line class="cls-1" x1="31.96" y1="33.43" x2="29.71" y2="37.16"/><line class="cls-1" x1="31.96" y1="33.43" x2="31.96" y2="33.41"/><line class="cls-1" x1="54.07" y1="29.38" x2="51.65" y2="33.41"/><line class="cls-1" x1="54.07" y1="29.38" x2="54.09" y2="29.35"/><line class="cls-1" x1="37.96" y1="33.41" x2="40.39" y2="29.38"/><line class="cls-1" x1="40.4" y1="29.35" x2="40.39" y2="29.38"/><line class="cls-1" x1="26.95" y1="29.38" x2="24.53" y2="33.41"/><line class="cls-1" x1="26.95" y1="29.38" x2="26.96" y2="29.35"/><line class="cls-1" x1="47.5" y1="25.95" x2="47.53" y2="25.91"/><line class="cls-1" x1="47.5" y1="25.95" x2="45.53" y2="29.35"/><line class="cls-1" x1="32.5" y1="25.95" x2="30.53" y2="29.35"/><line class="cls-1" x1="32.5" y1="25.95" x2="32.53" y2="25.91"/><line class="cls-1" x1="52.09" y1="22.67" x2="50.09" y2="25.91"/><line class="cls-1" x1="52.09" y1="22.67" x2="52.09" y2="22.66"/><line class="cls-1" x1="38.78" y1="22.66" x2="38.77" y2="22.67"/><line class="cls-1" x1="36.78" y1="25.91" x2="38.77" y2="22.67"/><line class="cls-1" x1="26.09" y1="22.67" x2="24.09" y2="25.91"/><line class="cls-1" x1="26.09" y1="22.67" x2="26.09" y2="22.66"/><line class="cls-1" x1="47" y1="18.65" x2="44.59" y2="22.66"/><line class="cls-1" x1="47" y1="18.65" x2="47.03" y2="18.6"/><line class="cls-1" x1="32.18" y1="18.65" x2="32.21" y2="18.6"/><line class="cls-1" x1="32.18" y1="18.65" x2="29.78" y2="22.66"/><line class="cls-1" x1="54.25" y1="14.46" x2="54.28" y2="14.41"/><line class="cls-1" x1="54.25" y1="14.46" x2="51.71" y2="18.6"/><line class="cls-1" x1="38.09" y1="18.6" x2="40.59" y2="14.48"/><line class="cls-1" x1="27.43" y1="14.46" x2="27.46" y2="14.41"/><line class="cls-1" x1="27.43" y1="14.46" x2="24.9" y2="18.6"/><line class="cls-1" x1="45.28" y1="14.41" x2="47.81" y2="10.29"/><line class="cls-1" x1="47.84" y1="10.25" x2="47.81" y2="10.29"/><line class="cls-1" x1="32.92" y1="10.33" x2="30.4" y2="14.41"/><line class="cls-1" x1="50.24" y1="10.29" x2="52.52" y2="6.54"/><line class="cls-1" x1="50.23" y1="10.3" x2="50.24" y2="10.29"/><line class="cls-1" x1="36.8" y1="10.29" x2="39.09" y2="6.54"/><line class="cls-1" x1="36.8" y1="10.29" x2="36.79" y2="10.3"/><line class="cls-1" x1="24.05" y1="10.29" x2="26.34" y2="6.54"/><line class="cls-1" x1="24.04" y1="10.3" x2="24.05" y2="10.29"/><line class="cls-1" x1="27.59" y1="8.47" x2="34.84" y2="8.47"/><line class="cls-1" x1="42.14" y1="12.49" x2="34.89" y2="12.49"/><line class="cls-1" x1="42.28" y1="16.55" x2="49.53" y2="16.55"/><line class="cls-1" x1="22.86" y1="16.55" x2="19.46" y2="16.55"/><line class="cls-1" x1="55.96" y1="20.8" x2="48.71" y2="20.8"/><line class="cls-1" x1="20.34" y1="20.8" x2="27.59" y2="20.8"/><line class="cls-1" x1="56.79" y1="43.05" x2="49.54" y2="43.05"/><line class="cls-1" x1="42.29" y1="46.55" x2="49.54" y2="46.55"/><line class="cls-1" x1="34.38" y1="50.17" x2="41.63" y2="50.17"/><line class="cls-1" x1="27.54" y1="24.41" x2="34.79" y2="24.41"/><line class="cls-1" x1="42.69" y1="27.66" x2="35.44" y2="27.66"/><line class="cls-1" x1="42.38" y1="31.41" x2="49.63" y2="31.41"/><line class="cls-1" x1="41.74" y1="35.41" x2="34.49" y2="35.41"/><line class="cls-1" x1="34.61" y1="39.41" x2="27.36" y2="39.41"/><line class="cls-1" x1="28.01" y1="43.16" x2="20.76" y2="43.16"/><line class="cls-1" x1="22.54" y1="46.66" x2="19.46" y2="46.66"/><line class="cls-1" x1="21.98" y1="31.55" x2="19.46" y2="31.55"/><line class="cls-2" x1="43.59" y1="54.37" x2="43.59" y2="54.37"/><line class="cls-2" x1="46.59" y1="54.37" x2="46.59" y2="54.37"/><line class="cls-2" x1="40.42" y1="54.37" x2="40.42" y2="54.37"/><line class="cls-2" x1="52.55" y1="50.37" x2="52.55" y2="50.37"/><line class="cls-2" x1="49.38" y1="50.37" x2="49.38" y2="50.37"/><line class="cls-2" x1="24.42" y1="50.37" x2="24.42" y2="50.37"/><line class="cls-2" x1="27.42" y1="50.37" x2="27.42" y2="50.37"/><line class="cls-2" x1="21.26" y1="50.37" x2="21.26" y2="50.37"/><line class="cls-2" x1="32.67" y1="46.55" x2="32.67" y2="46.55"/><line class="cls-2" x1="35.67" y1="46.55" x2="35.67" y2="46.55"/><line class="cls-2" x1="29.51" y1="46.55" x2="29.51" y2="46.55"/><line class="cls-2" x1="38.67" y1="43" x2="38.67" y2="43"/><line class="cls-2" x1="41.67" y1="43" x2="41.67" y2="43"/><line class="cls-2" x1="35.51" y1="43" x2="35.51" y2="43"/><line class="cls-2" x1="44.67" y1="39.25" x2="44.67" y2="39.25"/><line class="cls-2" x1="47.67" y1="39.25" x2="47.67" y2="39.25"/><line class="cls-2" x1="41.51" y1="39.25" x2="41.51" y2="39.25"/><line class="cls-2" x1="21.67" y1="39.25" x2="21.67" y2="39.25"/><line class="cls-2" x1="52.3" y1="35.37" x2="52.3" y2="35.37"/><line class="cls-2" x1="49.13" y1="35.37" x2="49.13" y2="35.37"/><line class="cls-2" x1="24.3" y1="35.37" x2="24.3" y2="35.37"/><line class="cls-2" x1="27.3" y1="35.37" x2="27.3" y2="35.37"/><line class="cls-2" x1="21.13" y1="35.37" x2="21.13" y2="35.37"/><line class="cls-2" x1="32.42" y1="31.37" x2="32.42" y2="31.37"/><line class="cls-2" x1="35.42" y1="31.37" x2="35.42" y2="31.37"/><line class="cls-2" x1="29.26" y1="31.37" x2="29.26" y2="31.37"/><line class="cls-2" x1="53.42" y1="27.62" x2="53.42" y2="27.62"/><line class="cls-2" x1="50.26" y1="27.62" x2="50.26" y2="27.62"/><line class="cls-2" x1="25.05" y1="27.62" x2="25.05" y2="27.62"/><line class="cls-2" x1="28.05" y1="27.62" x2="28.05" y2="27.62"/><line class="cls-2" x1="21.88" y1="27.62" x2="21.88" y2="27.62"/><line class="cls-2" x1="21.67" y1="24.37" x2="21.67" y2="24.37"/><line class="cls-2" x1="38.3" y1="20.75" x2="38.3" y2="20.75"/><line class="cls-2" x1="41.3" y1="20.75" x2="41.3" y2="20.75"/><line class="cls-2" x1="35.13" y1="20.75" x2="35.13" y2="20.75"/><line class="cls-2" x1="32.55" y1="16.5" x2="32.55" y2="16.5"/><line class="cls-2" x1="35.55" y1="16.5" x2="35.55" y2="16.5"/><line class="cls-2" x1="29.38" y1="16.5" x2="29.38" y2="16.5"/><line class="cls-2" x1="53.42" y1="12.37" x2="53.42" y2="12.37"/><line class="cls-2" x1="50.26" y1="12.37" x2="50.26" y2="12.37"/><line class="cls-2" x1="24.8" y1="12.37" x2="24.8" y2="12.37"/><line class="cls-2" x1="27.8" y1="12.37" x2="27.8" y2="12.37"/><line class="cls-2" x1="21.63" y1="12.37" x2="21.63" y2="12.37"/><line class="cls-2" x1="44.8" y1="8.5" x2="44.8" y2="8.5"/><line class="cls-2" x1="47.8" y1="8.5" x2="47.8" y2="8.5"/><line class="cls-2" x1="41.63" y1="8.5" x2="41.63" y2="8.5"/><line class="cls-2" x1="21.67" y1="8.5" x2="21.67" y2="8.5"/><line class="cls-2" x1="44.55" y1="24.37" x2="44.55" y2="24.37"/><line class="cls-2" x1="47.55" y1="24.37" x2="47.55" y2="24.37"/><line class="cls-2" x1="41.38" y1="24.37" x2="41.38" y2="24.37"/><line class="cls-2" x1="20.72" y1="54.37" x2="20.72" y2="54.37"/><rect class="cls-3" x="19.46" y="6.54" width="54.13" height="54.13"/><line class="cls-1" x1="2.35" y1="5.7" x2="15.73" y2="5.7"/><line class="cls-1" x1="15.73" y1="5.7" x2="19.46" y2="5.7"/><line class="cls-1" x1="-11.33" y1="5.7" x2="2.35" y2="5.7"/><line class="cls-1" x1="-34.66" y1="2.33" x2="19.46" y2="2.33"/><line class="cls-1" x1="12.4" y1="-2.09" x2="9.77" y2="2.3"/><line class="cls-1" x1="15.73" y1="5.7" x2="15.71" y2="5.73"/><line class="cls-1" x1="15.73" y1="5.7" x2="17.78" y2="2.35"/><line class="cls-1" x1="2.35" y1="5.7" x2="2.34" y2="5.73"/><line class="cls-1" x1="2.35" y1="5.7" x2="4.4" y2="2.35"/><line class="cls-1" x1="13.21" y1="5.79" x2="12.76" y2="6.54"/><line class="cls-1" x1="7.31" y1="0.29" x2="0.06" y2="0.29"/><line class="cls-1" x1="19.06" y1="4.1" x2="19.46" y2="4.1"/><line class="cls-2" x1="17.86" y1="0.25" x2="17.86" y2="0.25"/><line class="cls-2" x1="14.69" y1="0.25" x2="14.69" y2="0.25"/><line class="cls-2" x1="10.05" y1="4" x2="10.05" y2="4"/><line class="cls-2" x1="13.05" y1="4" x2="13.05" y2="4"/><line class="cls-2" x1="6.88" y1="4" x2="6.88" y2="4"/><rect class="cls-3" x="-34.66" y="-47.59" width="54.13" height="54.13"/><line class="cls-1" x1="19.46" y1="10.29" x2="10.49" y2="10.29"/><line class="cls-1" x1="7.35" y1="10.29" x2="-3.89" y2="10.29"/><line class="cls-1" x1="7.35" y1="10.29" x2="10.49" y2="10.29"/><line class="cls-1" x1="19.46" y1="14.46" x2="0.12" y2="14.46"/><line class="cls-1" x1="0.12" y1="14.46" x2="-26.69" y2="14.46"/><line class="cls-1" x1="6.31" y1="18.65" x2="19.12" y2="18.65"/><line class="cls-1" x1="-7.13" y1="18.65" x2="6.31" y2="18.65"/><line class="cls-1" x1="19.12" y1="18.65" x2="19.46" y2="18.65"/><line class="cls-1" x1="19.02" y1="48.26" x2="19.46" y2="48.26"/><line class="cls-1" x1="6.44" y1="48.26" x2="-7.56" y2="48.26"/><line class="cls-1" x1="6.44" y1="48.26" x2="19.02" y2="48.26"/><line class="cls-1" x1="19.46" y1="48.26" x2="19.53" y2="48.26"/><line class="cls-1" x1="16.57" y1="52.04" x2="19.46" y2="52.04"/><line class="cls-1" x1="4.13" y1="52.04" x2="12.4" y2="52.04"/><line class="cls-1" x1="16.57" y1="52.04" x2="12.4" y2="52.04"/><line class="cls-1" x1="4.13" y1="52.04" x2="-2.2" y2="52.04"/><line class="cls-1" x1="-2.04" y1="22.67" x2="12.59" y2="22.67"/><line class="cls-1" x1="19.46" y1="22.67" x2="12.59" y2="22.67"/><line class="cls-1" x1="7.19" y1="25.95" x2="19.25" y2="25.95"/><line class="cls-1" x1="-6.62" y1="25.95" x2="7.19" y2="25.95"/><line class="cls-1" x1="19.46" y1="25.95" x2="19.25" y2="25.95"/><line class="cls-1" x1="14.89" y1="29.38" x2="17.05" y2="29.38"/><line class="cls-1" x1="17.05" y1="29.38" x2="19.46" y2="29.38"/><line class="cls-1" x1="-0.05" y1="29.38" x2="14.89" y2="29.38"/><line class="cls-1" x1="19.39" y1="33.43" x2="6.21" y2="33.43"/><line class="cls-1" x1="6.21" y1="33.43" x2="-7.17" y2="33.43"/><line class="cls-1" x1="19.39" y1="33.43" x2="19.46" y2="33.43"/><line class="cls-1" x1="19.46" y1="37.23" x2="-34.66" y2="37.23"/><line class="cls-1" x1="19.53" y1="41.43" x2="19.46" y2="41.43"/><line class="cls-1" x1="-34.66" y1="41.43" x2="19.46" y2="41.43"/><line class="cls-1" x1="17.16" y1="44.65" x2="19.46" y2="44.65"/><line class="cls-1" x1="-34.66" y1="44.65" x2="17.16" y2="44.65"/><line class="cls-1" x1="12.4" y1="52.04" x2="9.77" y2="56.43"/><line class="cls-1" x1="19.02" y1="48.26" x2="19.04" y2="48.24"/><line class="cls-1" x1="16.57" y1="52.04" x2="19.02" y2="48.26"/><line class="cls-1" x1="16.57" y1="52.04" x2="16.53" y2="52.1"/><line class="cls-1" x1="12.65" y1="48.23" x2="14.78" y2="44.66"/><line class="cls-1" x1="12.71" y1="37.29" x2="10.15" y2="41.35"/><line class="cls-1" x1="19.2" y1="41.45" x2="17.16" y2="44.65"/><line class="cls-1" x1="17.15" y1="44.66" x2="17.16" y2="44.65"/><line class="cls-1" x1="19.39" y1="33.43" x2="19.4" y2="33.41"/><line class="cls-1" x1="19.39" y1="33.43" x2="17.15" y2="37.16"/><line class="cls-1" x1="14.89" y1="29.38" x2="14.9" y2="29.35"/><line class="cls-1" x1="14.89" y1="29.38" x2="12.46" y2="33.41"/><line class="cls-1" x1="17.03" y1="29.41" x2="17.05" y2="29.38"/><line class="cls-1" x1="19.25" y1="25.95" x2="17.05" y2="29.38"/><line class="cls-1" x1="19.25" y1="25.95" x2="19.26" y2="25.93"/><line class="cls-1" x1="12.59" y1="22.66" x2="12.59" y2="22.67"/><line class="cls-1" x1="10.59" y1="25.91" x2="12.59" y2="22.67"/><line class="cls-1" x1="19.12" y1="18.65" x2="16.7" y2="22.66"/><line class="cls-1" x1="19.12" y1="18.65" x2="19.15" y2="18.6"/><line class="cls-1" x1="11.53" y1="18.6" x2="14.18" y2="14.49"/><line class="cls-1" x1="16.63" y1="14.41" x2="19.24" y2="10.31"/><line class="cls-1" x1="10.49" y1="10.29" x2="12.77" y2="6.54"/><line class="cls-1" x1="10.49" y1="10.29" x2="10.48" y2="10.3"/><line class="cls-1" x1="4.13" y1="52.04" x2="4.09" y2="52.1"/><line class="cls-1" x1="6.44" y1="48.26" x2="4.13" y2="52.04"/><line class="cls-1" x1="6.44" y1="48.26" x2="6.46" y2="48.23"/><line class="cls-1" x1="-2.22" y1="48.23" x2="-0.1" y2="44.66"/><line class="cls-1" x1="7.28" y1="41.48" x2="5.34" y2="44.6"/><line class="cls-1" x1="6.21" y1="33.41" x2="6.21" y2="33.43"/><line class="cls-1" x1="6.21" y1="33.43" x2="3.96" y2="37.16"/><line class="cls-1" x1="-0.05" y1="29.38" x2="-2.47" y2="33.41"/><line class="cls-1" x1="-0.05" y1="29.38" x2="-0.04" y2="29.35"/><line class="cls-1" x1="7.19" y1="25.95" x2="7.21" y2="25.91"/><line class="cls-1" x1="7.19" y1="25.95" x2="5.21" y2="29.35"/><line class="cls-1" x1="6.31" y1="18.65" x2="6.34" y2="18.6"/><line class="cls-1" x1="3.9" y1="22.66" x2="6.31" y2="18.65"/><line class="cls-1" x1="0.12" y1="14.46" x2="0.15" y2="14.41"/><line class="cls-1" x1="0.12" y1="14.46" x2="-2.41" y2="18.6"/><line class="cls-1" x1="7.35" y1="10.29" x2="4.84" y2="14.41"/><line class="cls-1" x1="7.35" y1="10.29" x2="7.38" y2="10.25"/><line class="cls-1" x1="0.59" y1="8.47" x2="7.84" y2="8.47"/><line class="cls-1" x1="15.76" y1="12.49" x2="8.51" y2="12.49"/><line class="cls-1" x1="1.84" y1="20.8" x2="-5.41" y2="20.8"/><line class="cls-1" x1="7.54" y1="24.3" x2="0.29" y2="24.3"/><line class="cls-1" x1="16.59" y1="27.67" x2="9.34" y2="27.67"/><line class="cls-1" x1="16.53" y1="31.55" x2="19.46" y2="31.55"/><line class="cls-1" x1="14.99" y1="35.3" x2="7.74" y2="35.3"/><line class="cls-1" x1="7.74" y1="39.3" x2="0.49" y2="39.3"/><line class="cls-1" x1="2.67" y1="43.05" x2="-4.58" y2="43.05"/><line class="cls-1" x1="8.34" y1="50.29" x2="15.59" y2="50.29"/><line class="cls-1" x1="15.56" y1="16.55" x2="19.46" y2="16.55"/><line class="cls-1" x1="15.86" y1="46.66" x2="19.46" y2="46.66"/><line class="cls-2" x1="1.42" y1="50.37" x2="1.42" y2="50.37"/><line class="cls-2" x1="6.42" y1="46.55" x2="6.42" y2="46.55"/><line class="cls-2" x1="9.42" y1="46.55" x2="9.42" y2="46.55"/><line class="cls-2" x1="3.26" y1="46.55" x2="3.26" y2="46.55"/><line class="cls-2" x1="12.3" y1="43" x2="12.3" y2="43"/><line class="cls-2" x1="15.3" y1="43" x2="15.3" y2="43"/><line class="cls-2" x1="9.13" y1="43" x2="9.13" y2="43"/><line class="cls-2" x1="18.55" y1="39.25" x2="18.55" y2="39.25"/><line class="cls-2" x1="15.38" y1="39.25" x2="15.38" y2="39.25"/><line class="cls-2" x1="1.17" y1="35.37" x2="1.17" y2="35.37"/><line class="cls-2" x1="6.17" y1="31.37" x2="6.17" y2="31.37"/><line class="cls-2" x1="9.17" y1="31.37" x2="9.17" y2="31.37"/><line class="cls-2" x1="3.01" y1="31.37" x2="3.01" y2="31.37"/><line class="cls-2" x1="2.3" y1="27.62" x2="2.3" y2="27.62"/><line class="cls-2" x1="18.42" y1="24.37" x2="18.42" y2="24.37"/><line class="cls-2" x1="15.26" y1="24.37" x2="15.26" y2="24.37"/><line class="cls-2" x1="11.8" y1="20.75" x2="11.8" y2="20.75"/><line class="cls-2" x1="14.8" y1="20.75" x2="14.8" y2="20.75"/><line class="cls-2" x1="8.63" y1="20.75" x2="8.63" y2="20.75"/><line class="cls-2" x1="5.8" y1="16.5" x2="5.8" y2="16.5"/><line class="cls-2" x1="8.8" y1="16.5" x2="8.8" y2="16.5"/><line class="cls-2" x1="2.63" y1="16.5" x2="2.63" y2="16.5"/><line class="cls-2" x1="2.3" y1="12.37" x2="2.3" y2="12.37"/><line class="cls-2" x1="18.67" y1="8.5" x2="18.67" y2="8.5"/><line class="cls-2" x1="15.51" y1="8.5" x2="15.51" y2="8.5"/><line class="cls-2" x1="17.86" y1="54.37" x2="17.86" y2="54.37"/><line class="cls-2" x1="14.69" y1="54.37" x2="14.69" y2="54.37"/><rect class="cls-3" x="-34.66" y="6.54" width="54.13" height="54.13"/><rect class="cls-3" width="54.19" height="54.19"/></svg>