<svg id="Layer_1" data-name="Layer 1" xmlns="http://www.w3.org/2000/svg" width="54.19" height="54.2" viewBox="0 0 54.19 54.2"><defs><style>.cls-1,.cls-2{fill:none;}.cls-1{stroke:#231f20;stroke-width:0.3px;}</style></defs><title>Artboard 37</title><line class="cls-1" x1="35.49" y1="3.5" x2="41.82" y2="3.5"/><line class="cls-1" x1="27.32" y1="3.5" x2="22.49" y2="3.5"/><line class="cls-1" x1="55.82" y1="3.5" x2="49.49" y2="3.5"/><line class="cls-1" x1="41.82" y1="3.5" x2="49.49" y2="3.5"/><line class="cls-1" x1="22.49" y1="3.5" x2="17.03" y2="3.5"/><line class="cls-1" x1="27.32" y1="3.5" x2="35.49" y2="3.5"/><line class="cls-1" x1="54.04" y1="11.28" x2="67.42" y2="11.28"/><line class="cls-1" x1="26.04" y1="11.28" x2="40.36" y2="11.28"/><line class="cls-1" x1="17.03" y1="11.28" x2="26.04" y2="11.28"/><line class="cls-1" x1="40.36" y1="11.28" x2="54.04" y2="11.28"/><line class="cls-1" x1="17.03" y1="7.91" x2="71.15" y2="7.91"/><line class="cls-1" x1="22.53" y1="3.43" x2="22.49" y2="3.5"/><line class="cls-1" x1="22.49" y1="3.5" x2="19.9" y2="7.88"/><line class="cls-1" x1="35.49" y1="3.5" x2="32.9" y2="7.88"/><line class="cls-1" x1="35.53" y1="3.43" x2="35.49" y2="3.5"/><line class="cls-1" x1="49.53" y1="3.43" x2="49.49" y2="3.5"/><line class="cls-1" x1="46.9" y1="7.88" x2="49.49" y2="3.5"/><line class="cls-1" x1="54.04" y1="11.28" x2="54.03" y2="11.31"/><line class="cls-1" x1="54.04" y1="11.28" x2="56.09" y2="7.93"/><line class="cls-1" x1="40.36" y1="11.28" x2="40.34" y2="11.31"/><line class="cls-1" x1="40.36" y1="11.28" x2="42.4" y2="7.93"/><line class="cls-1" x1="26.04" y1="11.28" x2="28.09" y2="7.93"/><line class="cls-1" x1="26.04" y1="11.28" x2="26.03" y2="11.31"/><line class="cls-1" x1="44.13" y1="-0.28" x2="41.82" y2="3.5"/><line class="cls-1" x1="41.78" y1="3.56" x2="41.82" y2="3.5"/><line class="cls-1" x1="29.63" y1="-0.28" x2="27.32" y2="3.5"/><line class="cls-1" x1="27.32" y1="3.5" x2="27.28" y2="3.56"/><line class="cls-1" x1="50.53" y1="11.37" x2="50.07" y2="12.12"/><line class="cls-1" x1="37.09" y1="11.37" x2="36.64" y2="12.12"/><line class="cls-1" x1="24.34" y1="11.37" x2="23.89" y2="12.12"/><line class="cls-1" x1="31.94" y1="1.63" x2="39.19" y2="1.63"/><line class="cls-1" x1="31" y1="6" x2="23.75" y2="6"/><line class="cls-1" x1="24.29" y1="9.68" x2="17.04" y2="9.68"/><line class="cls-1" x1="59" y1="5.87" x2="51.75" y2="5.87"/><line class="cls-1" x1="51.47" y1="9.62" x2="44.22" y2="9.62"/><rect class="cls-2" x="17.03" y="-42" width="54.13" height="54.13"/><line class="cls-1" x1="34.36" y1="15.87" x2="21.61" y2="15.87"/><line class="cls-1" x1="21.61" y1="15.87" x2="17.03" y2="15.87"/><line class="cls-1" x1="59.04" y1="15.87" x2="47.8" y2="15.87"/><line class="cls-1" x1="34.36" y1="15.87" x2="45.38" y2="15.87"/><line class="cls-1" x1="47.8" y1="15.87" x2="45.38" y2="15.87"/><line class="cls-1" x1="51.81" y1="20.05" x2="25" y2="20.05"/><line class="cls-1" x1="71.15" y1="20.05" x2="51.81" y2="20.05"/><line class="cls-1" x1="25" y1="20.05" x2="17.03" y2="20.05"/><line class="cls-1" x1="44.56" y1="24.23" x2="29.75" y2="24.23"/><line class="cls-1" x1="29.75" y1="24.23" x2="17.03" y2="24.23"/><line class="cls-1" x1="44.56" y1="24.23" x2="58" y2="24.23"/><line class="cls-1" x1="58.13" y1="53.85" x2="44.13" y2="53.85"/><line class="cls-1" x1="29.63" y1="53.85" x2="44.13" y2="53.85"/><line class="cls-1" x1="29.63" y1="53.85" x2="17.03" y2="53.85"/><line class="cls-1" x1="49.65" y1="28.25" x2="36.34" y2="28.25"/><line class="cls-1" x1="23.65" y1="28.25" x2="36.34" y2="28.25"/><line class="cls-1" x1="49.65" y1="28.25" x2="64.27" y2="28.25"/><line class="cls-1" x1="23.65" y1="28.25" x2="17.03" y2="28.25"/><line class="cls-1" x1="45.07" y1="31.53" x2="58.88" y2="31.53"/><line class="cls-1" x1="30.07" y1="31.53" x2="17.03" y2="31.53"/><line class="cls-1" x1="45.07" y1="31.53" x2="30.07" y2="31.53"/><line class="cls-1" x1="51.64" y1="34.96" x2="66.57" y2="34.96"/><line class="cls-1" x1="24.51" y1="34.96" x2="37.95" y2="34.96"/><line class="cls-1" x1="51.64" y1="34.96" x2="37.95" y2="34.96"/><line class="cls-1" x1="24.51" y1="34.96" x2="17.03" y2="34.96"/><line class="cls-1" x1="44.52" y1="39.01" x2="29.52" y2="39.01"/><line class="cls-1" x1="57.89" y1="39.01" x2="44.52" y2="39.01"/><line class="cls-1" x1="29.52" y1="39.01" x2="17.03" y2="39.01"/><line class="cls-1" x1="71.15" y1="42.81" x2="17.03" y2="42.81"/><line class="cls-1" x1="17.03" y1="47.01" x2="71.15" y2="47.01"/><line class="cls-1" x1="17.03" y1="50.23" x2="68.85" y2="50.23"/><line class="cls-1" x1="44.13" y1="53.85" x2="41.82" y2="57.62"/><line class="cls-1" x1="44.15" y1="53.81" x2="44.13" y2="53.85"/><line class="cls-1" x1="29.63" y1="53.85" x2="27.32" y2="57.62"/><line class="cls-1" x1="29.63" y1="53.85" x2="29.65" y2="53.81"/><line class="cls-1" x1="49.46" y1="53.81" x2="51.59" y2="50.25"/><line class="cls-1" x1="35.78" y1="53.81" x2="37.9" y2="50.25"/><line class="cls-1" x1="22.53" y1="53.81" x2="24.65" y2="50.25"/><line class="cls-1" x1="44.71" y1="47.06" x2="42.78" y2="50.18"/><line class="cls-1" x1="29.65" y1="47.06" x2="27.71" y2="50.18"/><line class="cls-1" x1="50.09" y1="42.87" x2="47.53" y2="46.93"/><line class="cls-1" x1="36.46" y1="42.87" x2="33.9" y2="46.93"/><line class="cls-1" x1="23.46" y1="42.87" x2="20.9" y2="46.93"/><line class="cls-1" x1="44.52" y1="39.01" x2="42.28" y2="42.75"/><line class="cls-1" x1="44.53" y1="39" x2="44.52" y2="39.01"/><line class="cls-1" x1="29.52" y1="39.01" x2="27.28" y2="42.75"/><line class="cls-1" x1="29.52" y1="39.01" x2="29.53" y2="39"/><line class="cls-1" x1="51.64" y1="34.96" x2="49.21" y2="39"/><line class="cls-1" x1="51.64" y1="34.96" x2="51.65" y2="34.93"/><line class="cls-1" x1="35.53" y1="39" x2="37.95" y2="34.96"/><line class="cls-1" x1="37.96" y1="34.93" x2="37.95" y2="34.96"/><line class="cls-1" x1="24.51" y1="34.96" x2="22.09" y2="39"/><line class="cls-1" x1="24.51" y1="34.96" x2="24.53" y2="34.93"/><line class="cls-1" x1="45.07" y1="31.53" x2="43.09" y2="34.93"/><line class="cls-1" x1="45.07" y1="31.53" x2="45.09" y2="31.5"/><line class="cls-1" x1="30.07" y1="31.53" x2="30.09" y2="31.5"/><line class="cls-1" x1="30.07" y1="31.53" x2="28.09" y2="34.93"/><line class="cls-1" x1="49.65" y1="28.25" x2="47.65" y2="31.5"/><line class="cls-1" x1="49.65" y1="28.25" x2="49.65" y2="28.25"/><line class="cls-1" x1="36.34" y1="28.25" x2="36.34" y2="28.25"/><line class="cls-1" x1="34.34" y1="31.5" x2="36.34" y2="28.25"/><line class="cls-1" x1="23.65" y1="28.25" x2="23.65" y2="28.25"/><line class="cls-1" x1="23.65" y1="28.25" x2="21.65" y2="31.5"/><line class="cls-1" x1="44.56" y1="24.23" x2="42.15" y2="28.25"/><line class="cls-1" x1="44.56" y1="24.23" x2="44.59" y2="24.18"/><line class="cls-1" x1="29.75" y1="24.23" x2="29.78" y2="24.18"/><line class="cls-1" x1="29.75" y1="24.23" x2="27.34" y2="28.25"/><line class="cls-1" x1="51.81" y1="20.05" x2="51.84" y2="20"/><line class="cls-1" x1="51.81" y1="20.05" x2="49.28" y2="24.18"/><line class="cls-1" x1="35.65" y1="24.18" x2="38.15" y2="20.06"/><line class="cls-1" x1="25" y1="20.05" x2="22.46" y2="24.18"/><line class="cls-1" x1="25" y1="20.05" x2="25.03" y2="20"/><line class="cls-1" x1="42.84" y1="20" x2="45.38" y2="15.87"/><line class="cls-1" x1="45.4" y1="15.83" x2="45.38" y2="15.87"/><line class="cls-1" x1="30.49" y1="15.91" x2="27.96" y2="20"/><line class="cls-1" x1="47.8" y1="15.87" x2="50.09" y2="12.12"/><line class="cls-1" x1="47.79" y1="15.88" x2="47.8" y2="15.87"/><line class="cls-1" x1="34.36" y1="15.87" x2="34.36" y2="15.88"/><line class="cls-1" x1="34.36" y1="15.87" x2="36.65" y2="12.12"/><line class="cls-1" x1="21.61" y1="15.88" x2="21.61" y2="15.87"/><line class="cls-1" x1="21.61" y1="15.87" x2="23.9" y2="12.12"/><line class="cls-1" x1="25.15" y1="14.05" x2="32.4" y2="14.05"/><line class="cls-1" x1="52.27" y1="14.05" x2="59.52" y2="14.05"/><line class="cls-1" x1="39.7" y1="18.07" x2="32.45" y2="18.07"/><line class="cls-1" x1="39.84" y1="22.13" x2="47.09" y2="22.13"/><line class="cls-1" x1="20.42" y1="22.13" x2="17.03" y2="22.13"/><line class="cls-1" x1="53.52" y1="26.38" x2="46.27" y2="26.38"/><line class="cls-1" x1="17.9" y1="26.38" x2="25.15" y2="26.38"/><line class="cls-1" x1="59.22" y1="29.88" x2="51.97" y2="29.88"/><line class="cls-1" x1="59.43" y1="44.88" x2="52.18" y2="44.88"/><line class="cls-1" x1="54.36" y1="48.63" x2="47.11" y2="48.63"/><line class="cls-1" x1="39.85" y1="52.13" x2="47.1" y2="52.13"/><line class="cls-1" x1="25.1" y1="29.99" x2="32.35" y2="29.99"/><line class="cls-1" x1="40.25" y1="33.24" x2="33" y2="33.24"/><line class="cls-1" x1="39.94" y1="36.99" x2="47.19" y2="36.99"/><line class="cls-1" x1="39.3" y1="40.99" x2="32.05" y2="40.99"/><line class="cls-1" x1="32.17" y1="44.99" x2="24.92" y2="44.99"/><line class="cls-1" x1="25.57" y1="48.74" x2="18.32" y2="48.74"/><line class="cls-1" x1="20.1" y1="52.24" x2="17.03" y2="52.24"/><line class="cls-1" x1="19.55" y1="37.13" x2="17.03" y2="37.13"/><rect class="cls-2" x="17.03" y="12.12" width="54.13" height="54.13"/><line class="cls-1" x1="1.69" y1="3.5" x2="9.96" y2="3.5"/><line class="cls-1" x1="1.69" y1="3.5" x2="-4.64" y2="3.5"/><line class="cls-1" x1="14.13" y1="3.5" x2="17.03" y2="3.5"/><line class="cls-1" x1="14.13" y1="3.5" x2="9.96" y2="3.5"/><line class="cls-1" x1="-0.08" y1="11.28" x2="13.29" y2="11.28"/><line class="cls-1" x1="13.29" y1="11.28" x2="17.03" y2="11.28"/><line class="cls-1" x1="-37.1" y1="7.91" x2="17.03" y2="7.91"/><line class="cls-1" x1="9.96" y1="3.5" x2="7.34" y2="7.88"/><line class="cls-1" x1="13.29" y1="11.28" x2="13.28" y2="11.31"/><line class="cls-1" x1="13.29" y1="11.28" x2="15.34" y2="7.93"/><line class="cls-1" x1="-0.08" y1="11.28" x2="-0.1" y2="11.31"/><line class="cls-1" x1="-0.08" y1="11.28" x2="1.96" y2="7.93"/><line class="cls-1" x1="14.13" y1="3.5" x2="14.09" y2="3.56"/><line class="cls-1" x1="14.13" y1="3.5" x2="16.58" y2="-0.28"/><line class="cls-1" x1="1.69" y1="3.5" x2="1.65" y2="3.56"/><line class="cls-1" x1="4" y1="-0.28" x2="1.69" y2="3.5"/><line class="cls-1" x1="10.78" y1="11.37" x2="10.32" y2="12.12"/><line class="cls-1" x1="5.9" y1="1.74" x2="13.15" y2="1.74"/><line class="cls-1" x1="4.87" y1="5.87" x2="-2.38" y2="5.87"/><line class="cls-1" x1="16.62" y1="9.68" x2="17.03" y2="9.68"/><rect class="cls-2" x="-37.1" y="-42" width="54.13" height="54.13"/><line class="cls-1" x1="4.92" y1="15.87" x2="8.05" y2="15.87"/><line class="cls-1" x1="17.03" y1="15.87" x2="8.05" y2="15.87"/><line class="cls-1" x1="4.92" y1="15.87" x2="-6.32" y2="15.87"/><line class="cls-1" x1="17.03" y1="20.05" x2="-2.32" y2="20.05"/><line class="cls-1" x1="16.68" y1="24.23" x2="17.03" y2="24.23"/><line class="cls-1" x1="3.87" y1="24.23" x2="16.68" y2="24.23"/><line class="cls-1" x1="-9.57" y1="24.23" x2="3.87" y2="24.23"/><line class="cls-1" x1="4" y1="53.85" x2="-10" y2="53.85"/><line class="cls-1" x1="4" y1="53.85" x2="16.58" y2="53.85"/><line class="cls-1" x1="16.58" y1="53.85" x2="17.03" y2="53.85"/><line class="cls-1" x1="17.03" y1="53.85" x2="17.09" y2="53.85"/><line class="cls-1" x1="17.03" y1="28.25" x2="10.15" y2="28.25"/><line class="cls-1" x1="-4.48" y1="28.25" x2="10.15" y2="28.25"/><line class="cls-1" x1="17.03" y1="31.53" x2="16.81" y2="31.53"/><line class="cls-1" x1="-9.06" y1="31.53" x2="4.76" y2="31.53"/><line class="cls-1" x1="4.76" y1="31.53" x2="16.81" y2="31.53"/><line class="cls-1" x1="-2.49" y1="34.96" x2="12.45" y2="34.96"/><line class="cls-1" x1="12.45" y1="34.96" x2="14.61" y2="34.96"/><line class="cls-1" x1="14.61" y1="34.96" x2="17.03" y2="34.96"/><line class="cls-1" x1="3.77" y1="39.01" x2="-9.61" y2="39.01"/><line class="cls-1" x1="16.96" y1="39.01" x2="17.03" y2="39.01"/><line class="cls-1" x1="16.96" y1="39.01" x2="3.77" y2="39.01"/><line class="cls-1" x1="17.03" y1="42.81" x2="-37.1" y2="42.81"/><line class="cls-1" x1="17.09" y1="47.01" x2="17.03" y2="47.01"/><line class="cls-1" x1="-37.1" y1="47.01" x2="17.03" y2="47.01"/><line class="cls-1" x1="14.72" y1="50.23" x2="17.03" y2="50.23"/><line class="cls-1" x1="-37.1" y1="50.23" x2="14.72" y2="50.23"/><line class="cls-1" x1="16.58" y1="53.85" x2="16.6" y2="53.82"/><line class="cls-1" x1="14.13" y1="57.62" x2="16.58" y2="53.85"/><line class="cls-1" x1="10.21" y1="53.81" x2="12.34" y2="50.25"/><line class="cls-1" x1="10.28" y1="42.87" x2="7.71" y2="46.93"/><line class="cls-1" x1="14.71" y1="50.25" x2="14.72" y2="50.23"/><line class="cls-1" x1="16.77" y1="47.03" x2="14.72" y2="50.23"/><line class="cls-1" x1="16.96" y1="39.01" x2="14.71" y2="42.75"/><line class="cls-1" x1="16.96" y1="39.01" x2="16.96" y2="39"/><line class="cls-1" x1="12.45" y1="34.96" x2="12.46" y2="34.93"/><line class="cls-1" x1="12.45" y1="34.96" x2="10.03" y2="39"/><line class="cls-1" x1="16.81" y1="31.53" x2="14.61" y2="34.96"/><line class="cls-1" x1="14.59" y1="35" x2="14.61" y2="34.96"/><line class="cls-1" x1="16.81" y1="31.53" x2="16.83" y2="31.51"/><line class="cls-1" x1="10.15" y1="28.25" x2="10.15" y2="28.25"/><line class="cls-1" x1="8.15" y1="31.5" x2="10.15" y2="28.25"/><line class="cls-1" x1="16.68" y1="24.23" x2="16.71" y2="24.18"/><line class="cls-1" x1="16.68" y1="24.23" x2="14.26" y2="28.25"/><line class="cls-1" x1="9.09" y1="24.18" x2="11.74" y2="20.07"/><line class="cls-1" x1="14.19" y1="20" x2="16.81" y2="15.89"/><line class="cls-1" x1="8.05" y1="15.87" x2="10.34" y2="12.12"/><line class="cls-1" x1="8.05" y1="15.87" x2="8.04" y2="15.88"/><line class="cls-1" x1="4" y1="53.85" x2="4.03" y2="53.81"/><line class="cls-1" x1="4" y1="53.85" x2="1.69" y2="57.62"/><line class="cls-1" x1="4.84" y1="47.06" x2="2.9" y2="50.18"/><line class="cls-1" x1="3.77" y1="39.01" x2="1.53" y2="42.75"/><line class="cls-1" x1="3.78" y1="39" x2="3.77" y2="39.01"/><line class="cls-1" x1="4.76" y1="31.53" x2="4.78" y2="31.5"/><line class="cls-1" x1="4.76" y1="31.53" x2="2.78" y2="34.93"/><line class="cls-1" x1="3.87" y1="24.23" x2="3.9" y2="24.18"/><line class="cls-1" x1="1.46" y1="28.25" x2="3.87" y2="24.23"/><line class="cls-1" x1="4.92" y1="15.87" x2="2.4" y2="20"/><line class="cls-1" x1="4.92" y1="15.87" x2="4.94" y2="15.83"/><line class="cls-1" x1="-1.85" y1="14.05" x2="5.4" y2="14.05"/><line class="cls-1" x1="13.32" y1="18.07" x2="6.07" y2="18.07"/><line class="cls-1" x1="5.1" y1="29.88" x2="-2.15" y2="29.88"/><line class="cls-1" x1="14.15" y1="33.25" x2="6.9" y2="33.25"/><line class="cls-1" x1="14.1" y1="37.13" x2="17.03" y2="37.13"/><line class="cls-1" x1="12.55" y1="40.88" x2="5.3" y2="40.88"/><line class="cls-1" x1="5.31" y1="44.88" x2="-1.94" y2="44.88"/><line class="cls-1" x1="0.23" y1="48.63" x2="-7.02" y2="48.63"/><line class="cls-1" x1="13.12" y1="22.13" x2="17.03" y2="22.13"/><line class="cls-1" x1="13.42" y1="52.24" x2="17.03" y2="52.24"/><rect class="cls-2" x="-37.1" y="12.12" width="54.13" height="54.13"/><rect class="cls-2" width="54.19" height="54.19"/></svg>