<svg id="Layer_1" data-name="Layer 1" xmlns="http://www.w3.org/2000/svg" width="54.19" height="54.2" viewBox="0 0 54.19 54.2"><defs><style>.cls-1,.cls-2{fill:none;}.cls-1{stroke:#000;stroke-width:0.3px;}</style></defs><title>Artboard 37</title><path class="cls-1" d="M16.12,0c0,.44,1.06.8,2.38.8S20.88.42,20.88,0,19.81-.81,18.5-.81,16.12-.46,16.12,0Z"/><path class="cls-1" d="M43.52,3.59c0-.43-1.07-.79-2.39-.79s-2.38.36-2.38.79,1.07.8,2.38.8S43.52,4,43.52,3.59Z"/><path class="cls-1" d="M25.73,11.53c1.31,0,2.38-.36,2.38-.8S27,9.94,25.73,9.94s-2.39.35-2.39.79S24.41,11.53,25.73,11.53Z"/><path class="cls-1" d="M7,7.84h.26c1.31,0,2.38-.36,2.38-.79s-1.07-.8-2.38-.8H7"/><path class="cls-1" d="M43,14.86c0,.44,1.07.79,2.38.79s2.39-.35,2.39-.79-1.07-.8-2.39-.8S43,14.42,43,14.86Z"/><path class="cls-1" d="M21.72,18.75c0,.43,1.06.79,2.38.79s2.38-.36,2.38-.79S25.42,18,24.1,18,21.72,18.31,21.72,18.75Z"/><line class="cls-1" x1="48.1" y1="8.84" x2="34.1" y2="8.84"/><line class="cls-1" x1="48.1" y1="8.84" x2="60.68" y2="8.84"/><line class="cls-1" x1="19.6" y1="8.84" x2="7" y2="8.84"/><line class="cls-1" x1="19.6" y1="8.84" x2="34.1" y2="8.84"/><line class="cls-1" x1="45.79" y1="12.61" x2="54.06" y2="12.61"/><line class="cls-1" x1="31.79" y1="12.61" x2="39.46" y2="12.61"/><line class="cls-1" x1="58.23" y1="12.61" x2="54.06" y2="12.61"/><line class="cls-1" x1="25.46" y1="12.61" x2="17.29" y2="12.61"/><line class="cls-1" x1="12.46" y1="12.61" x2="7" y2="12.61"/><line class="cls-1" x1="17.29" y1="12.61" x2="12.46" y2="12.61"/><line class="cls-1" x1="45.79" y1="12.61" x2="39.46" y2="12.61"/><line class="cls-1" x1="31.79" y1="12.61" x2="25.46" y2="12.61"/><line class="cls-1" x1="7" y1="2" x2="61.12" y2="2"/><line class="cls-1" x1="58.82" y1="5.22" x2="7" y2="5.22"/><line class="cls-1" x1="30.33" y1="20.4" x2="44.01" y2="20.4"/><line class="cls-1" x1="44.01" y1="20.4" x2="57.39" y2="20.4"/><line class="cls-1" x1="7" y1="20.4" x2="16.01" y2="20.4"/><line class="cls-1" x1="16.01" y1="20.4" x2="30.33" y2="20.4"/><line class="cls-1" x1="7" y1="17.02" x2="61.12" y2="17.02"/><line class="cls-1" x1="12.46" y1="12.61" x2="9.87" y2="17"/><line class="cls-1" x1="12.5" y1="12.55" x2="12.46" y2="12.61"/><line class="cls-1" x1="25.5" y1="12.55" x2="25.46" y2="12.61"/><line class="cls-1" x1="25.46" y1="12.61" x2="22.87" y2="17"/><line class="cls-1" x1="36.87" y1="17" x2="39.46" y2="12.61"/><line class="cls-1" x1="39.5" y1="12.55" x2="39.46" y2="12.61"/><line class="cls-1" x1="54.06" y1="12.61" x2="51.43" y2="17"/><line class="cls-1" x1="44.01" y1="20.4" x2="46.06" y2="17.05"/><line class="cls-1" x1="44.01" y1="20.4" x2="44" y2="20.42"/><line class="cls-1" x1="30.33" y1="20.4" x2="32.37" y2="17.05"/><line class="cls-1" x1="30.33" y1="20.4" x2="30.31" y2="20.42"/><line class="cls-1" x1="16.01" y1="20.4" x2="16" y2="20.42"/><line class="cls-1" x1="16.01" y1="20.4" x2="18.06" y2="17.05"/><line class="cls-1" x1="54.31" y1="8.8" x2="56.44" y2="5.24"/><line class="cls-1" x1="54.37" y1="-2.14" x2="51.81" y2="1.92"/><line class="cls-1" x1="45.79" y1="12.61" x2="45.75" y2="12.67"/><line class="cls-1" x1="48.1" y1="8.84" x2="48.12" y2="8.8"/><line class="cls-1" x1="48.1" y1="8.84" x2="45.79" y2="12.61"/><line class="cls-1" x1="34.12" y1="8.8" x2="34.1" y2="8.84"/><line class="cls-1" x1="31.79" y1="12.61" x2="31.75" y2="12.67"/><line class="cls-1" x1="34.1" y1="8.84" x2="31.79" y2="12.61"/><line class="cls-1" x1="19.6" y1="8.84" x2="17.29" y2="12.61"/><line class="cls-1" x1="17.29" y1="12.61" x2="17.25" y2="12.67"/><line class="cls-1" x1="19.6" y1="8.84" x2="19.62" y2="8.8"/><line class="cls-1" x1="39.44" y1="8.8" x2="41.56" y2="5.24"/><line class="cls-1" x1="25.75" y1="8.8" x2="27.87" y2="5.24"/><line class="cls-1" x1="12.5" y1="8.8" x2="14.62" y2="5.24"/><line class="cls-1" x1="47" y1="5.17" x2="48.94" y2="2.05"/><line class="cls-1" x1="32.75" y1="5.17" x2="34.69" y2="2.05"/><line class="cls-1" x1="17.69" y1="5.17" x2="19.62" y2="2.05"/><line class="cls-1" x1="40.06" y1="-2.14" x2="37.5" y2="1.92"/><line class="cls-1" x1="26.44" y1="-2.14" x2="23.87" y2="1.92"/><line class="cls-1" x1="13.44" y1="-2.14" x2="10.87" y2="1.92"/><line class="cls-1" x1="40.5" y1="20.49" x2="40.05" y2="21.24"/><line class="cls-1" x1="27.06" y1="20.49" x2="26.61" y2="21.24"/><line class="cls-1" x1="14.31" y1="20.49" x2="13.86" y2="21.24"/><rect class="cls-2" x="7" y="-32.89" width="54.13" height="54.13"/><path class="cls-1" d="M7,32h.23c1.31,0,2.38-.36,2.38-.8s-1.07-.79-2.38-.79H7"/><path class="cls-1" d="M24.19,27.09c0,.44,1.06.79,2.38.79S29,27.53,29,27.09s-1.06-.8-2.38-.8S24.19,26.65,24.19,27.09Z"/><path class="cls-1" d="M48.69,22.8c0-.44-1.07-.79-2.38-.79s-2.39.35-2.39.79,1.07.8,2.39.8S48.69,23.24,48.69,22.8Z"/><path class="cls-1" d="M28.31,35.36c0-.44-1.06-.8-2.38-.8s-2.38.36-2.38.8,1.06.79,2.38.79S28.31,35.8,28.31,35.36Z"/><path class="cls-1" d="M43.37,39c0,.44,1.06.79,2.38.79s2.38-.35,2.38-.79-1.07-.8-2.38-.8S43.37,38.57,43.37,39Z"/><path class="cls-1" d="M14.63,42.34c0-.43-1.07-.79-2.38-.79s-2.38.36-2.38.79,1.06.8,2.38.8S14.63,42.78,14.63,42.34Z"/><path class="cls-1" d="M35.76,46.11c0-.44-1.07-.8-2.39-.8s-2.38.36-2.38.8,1.07.79,2.38.79S35.76,46.55,35.76,46.11Z"/><path class="cls-1" d="M51.17,50c0,.44,1.07.8,2.38.8s2.39-.36,2.39-.8-1.07-.79-2.39-.79S51.17,49.54,51.17,50Z"/><path class="cls-1" d="M16.12,54.11c0,.44,1.06.79,2.38.79s2.38-.35,2.38-.79-1.07-.8-2.38-.8S16.12,53.67,16.12,54.11Z"/><line class="cls-1" x1="37.77" y1="24.99" x2="35.35" y2="24.99"/><line class="cls-1" x1="24.33" y1="24.99" x2="11.58" y2="24.99"/><line class="cls-1" x1="49.01" y1="24.99" x2="52.15" y2="24.99"/><line class="cls-1" x1="11.58" y1="24.99" x2="7" y2="24.99"/><line class="cls-1" x1="61.12" y1="24.99" x2="52.15" y2="24.99"/><line class="cls-1" x1="24.33" y1="24.99" x2="35.35" y2="24.99"/><line class="cls-1" x1="49.01" y1="24.99" x2="37.77" y2="24.99"/><line class="cls-1" x1="41.78" y1="29.16" x2="14.97" y2="29.16"/><line class="cls-1" x1="61.12" y1="29.16" x2="41.78" y2="29.16"/><line class="cls-1" x1="14.97" y1="29.16" x2="7" y2="29.16"/><line class="cls-1" x1="19.72" y1="33.35" x2="7" y2="33.35"/><line class="cls-1" x1="34.53" y1="33.35" x2="47.97" y2="33.35"/><line class="cls-1" x1="19.72" y1="33.35" x2="34.53" y2="33.35"/><line class="cls-1" x1="60.78" y1="33.35" x2="47.97" y2="33.35"/><line class="cls-1" x1="39.62" y1="37.37" x2="26.31" y2="37.37"/><line class="cls-1" x1="54.24" y1="37.37" x2="39.62" y2="37.37"/><line class="cls-1" x1="13.62" y1="37.37" x2="7" y2="37.37"/><line class="cls-1" x1="26.31" y1="37.37" x2="13.62" y2="37.37"/><line class="cls-1" x1="20.04" y1="40.65" x2="7" y2="40.65"/><line class="cls-1" x1="48.85" y1="40.65" x2="60.91" y2="40.65"/><line class="cls-1" x1="35.04" y1="40.65" x2="48.85" y2="40.65"/><line class="cls-1" x1="35.04" y1="40.65" x2="20.04" y2="40.65"/><line class="cls-1" x1="14.48" y1="44.07" x2="7" y2="44.07"/><line class="cls-1" x1="14.48" y1="44.07" x2="27.92" y2="44.07"/><line class="cls-1" x1="56.55" y1="44.07" x2="41.61" y2="44.07"/><line class="cls-1" x1="27.92" y1="44.07" x2="41.61" y2="44.07"/><line class="cls-1" x1="47.87" y1="48.12" x2="61.05" y2="48.12"/><line class="cls-1" x1="19.49" y1="48.12" x2="7" y2="48.12"/><line class="cls-1" x1="47.87" y1="48.12" x2="34.49" y2="48.12"/><line class="cls-1" x1="34.49" y1="48.12" x2="19.49" y2="48.12"/><line class="cls-1" x1="7" y1="51.92" x2="61.12" y2="51.92"/><line class="cls-1" x1="54.37" y1="51.99" x2="51.81" y2="56.05"/><line class="cls-1" x1="56.55" y1="44.07" x2="54.12" y2="48.11"/><line class="cls-1" x1="54.24" y1="37.37" x2="54.25" y2="37.36"/><line class="cls-1" x1="54.24" y1="37.37" x2="52.25" y2="40.61"/><line class="cls-1" x1="53.19" y1="33.3" x2="55.84" y2="29.19"/><line class="cls-1" x1="52.15" y1="24.99" x2="52.14" y2="25"/><line class="cls-1" x1="52.15" y1="24.99" x2="54.43" y2="21.24"/><line class="cls-1" x1="40.06" y1="51.99" x2="37.5" y2="56.05"/><line class="cls-1" x1="26.44" y1="51.99" x2="23.87" y2="56.05"/><line class="cls-1" x1="13.44" y1="51.99" x2="10.87" y2="56.05"/><line class="cls-1" x1="47.87" y1="48.12" x2="47.87" y2="48.11"/><line class="cls-1" x1="47.87" y1="48.12" x2="45.62" y2="51.86"/><line class="cls-1" x1="34.5" y1="48.11" x2="34.49" y2="48.12"/><line class="cls-1" x1="34.49" y1="48.12" x2="32.25" y2="51.86"/><line class="cls-1" x1="19.5" y1="48.11" x2="19.49" y2="48.12"/><line class="cls-1" x1="19.49" y1="48.12" x2="17.25" y2="51.86"/><line class="cls-1" x1="41.62" y1="44.05" x2="41.61" y2="44.07"/><line class="cls-1" x1="39.19" y1="48.11" x2="41.61" y2="44.07"/><line class="cls-1" x1="27.92" y1="44.07" x2="25.5" y2="48.11"/><line class="cls-1" x1="27.92" y1="44.07" x2="27.94" y2="44.05"/><line class="cls-1" x1="14.48" y1="44.07" x2="12.06" y2="48.11"/><line class="cls-1" x1="14.48" y1="44.07" x2="14.5" y2="44.05"/><line class="cls-1" x1="48.85" y1="40.65" x2="48.87" y2="40.61"/><line class="cls-1" x1="48.85" y1="40.65" x2="46.87" y2="44.05"/><line class="cls-1" x1="35.04" y1="40.65" x2="35.06" y2="40.61"/><line class="cls-1" x1="35.04" y1="40.65" x2="33.06" y2="44.05"/><line class="cls-1" x1="20.04" y1="40.65" x2="20.06" y2="40.61"/><line class="cls-1" x1="20.04" y1="40.65" x2="18.06" y2="44.05"/><line class="cls-1" x1="39.62" y1="37.37" x2="37.62" y2="40.61"/><line class="cls-1" x1="39.62" y1="37.37" x2="39.62" y2="37.36"/><line class="cls-1" x1="26.31" y1="37.37" x2="24.31" y2="40.61"/><line class="cls-1" x1="26.31" y1="37.37" x2="26.31" y2="37.36"/><line class="cls-1" x1="13.62" y1="37.37" x2="13.62" y2="37.36"/><line class="cls-1" x1="13.62" y1="37.37" x2="11.62" y2="40.61"/><line class="cls-1" x1="47.97" y1="33.35" x2="48" y2="33.3"/><line class="cls-1" x1="45.56" y1="37.36" x2="47.97" y2="33.35"/><line class="cls-1" x1="34.53" y1="33.35" x2="34.56" y2="33.3"/><line class="cls-1" x1="32.12" y1="37.36" x2="34.53" y2="33.35"/><line class="cls-1" x1="19.72" y1="33.35" x2="19.75" y2="33.3"/><line class="cls-1" x1="19.72" y1="33.35" x2="17.31" y2="37.36"/><line class="cls-1" x1="41.78" y1="29.16" x2="39.25" y2="33.3"/><line class="cls-1" x1="41.78" y1="29.16" x2="41.81" y2="29.11"/><line class="cls-1" x1="25.62" y1="33.3" x2="28.12" y2="29.17"/><line class="cls-1" x1="14.97" y1="29.16" x2="15" y2="29.11"/><line class="cls-1" x1="14.97" y1="29.16" x2="12.44" y2="33.3"/><line class="cls-1" x1="49.01" y1="24.99" x2="46.5" y2="29.11"/><line class="cls-1" x1="49.01" y1="24.99" x2="49.04" y2="24.95"/><line class="cls-1" x1="32.81" y1="29.11" x2="35.35" y2="24.99"/><line class="cls-1" x1="35.37" y1="24.95" x2="35.35" y2="24.99"/><line class="cls-1" x1="20.46" y1="25.03" x2="17.94" y2="29.11"/><line class="cls-1" x1="37.77" y1="24.99" x2="40.06" y2="21.24"/><line class="cls-1" x1="37.76" y1="25" x2="37.77" y2="24.99"/><line class="cls-1" x1="24.33" y1="24.99" x2="26.62" y2="21.24"/><line class="cls-1" x1="24.33" y1="24.99" x2="24.33" y2="25"/><line class="cls-1" x1="11.58" y1="25" x2="11.58" y2="24.99"/><line class="cls-1" x1="11.58" y1="24.99" x2="13.87" y2="21.24"/><rect class="cls-2" x="7" y="21.24" width="54.13" height="54.13"/><path class="cls-1" d="M7,6.26c-1.2,0-2.13.38-2.13.79s.93.74,2.13.79"/><line class="cls-1" x1="7" y1="8.84" x2="7.06" y2="8.84"/><line class="cls-1" x1="-6.03" y1="8.84" x2="6.56" y2="8.84"/><line class="cls-1" x1="6.56" y1="8.84" x2="7" y2="8.84"/><line class="cls-1" x1="4.1" y1="12.61" x2="-0.06" y2="12.61"/><line class="cls-1" x1="4.1" y1="12.61" x2="7" y2="12.61"/><line class="cls-1" x1="-47.13" y1="2" x2="7" y2="2"/><line class="cls-1" x1="7.06" y1="2" x2="7" y2="2"/><line class="cls-1" x1="4.69" y1="5.22" x2="7" y2="5.22"/><line class="cls-1" x1="4.69" y1="5.22" x2="-47.13" y2="5.22"/><line class="cls-1" x1="-10.11" y1="20.4" x2="3.26" y2="20.4"/><line class="cls-1" x1="3.26" y1="20.4" x2="7" y2="20.4"/><line class="cls-1" x1="-47.13" y1="17.02" x2="7" y2="17.02"/><line class="cls-1" x1="-0.06" y1="12.61" x2="-2.69" y2="17"/><line class="cls-1" x1="3.26" y1="20.4" x2="3.25" y2="20.42"/><line class="cls-1" x1="3.26" y1="20.4" x2="5.31" y2="17.05"/><line class="cls-1" x1="4.1" y1="12.61" x2="6.56" y2="8.84"/><line class="cls-1" x1="4.1" y1="12.61" x2="4.06" y2="12.67"/><line class="cls-1" x1="6.56" y1="8.84" x2="6.57" y2="8.82"/><line class="cls-1" x1="0.19" y1="8.8" x2="2.31" y2="5.24"/><line class="cls-1" x1="0.25" y1="-2.14" x2="-2.31" y2="1.92"/><line class="cls-1" x1="4.69" y1="5.22" x2="6.74" y2="2.02"/><line class="cls-1" x1="4.69" y1="5.22" x2="4.69" y2="5.24"/><line class="cls-1" x1="0.75" y1="20.49" x2="0.3" y2="21.24"/><rect class="cls-2" x="-47.13" y="-32.89" width="54.13" height="54.13"/><path class="cls-1" d="M-3,50c0,.44,1.07.8,2.39.8s2.38-.36,2.38-.8-1.06-.79-2.38-.79S-3,49.54-3,50Z"/><path class="cls-1" d="M7,30.44c-1.21,0-2.16.38-2.16.79S5.79,32,7,32"/><line class="cls-1" x1="7" y1="24.99" x2="-1.98" y2="24.99"/><line class="cls-1" x1="7" y1="29.16" x2="-12.34" y2="29.16"/><line class="cls-1" x1="6.66" y1="33.35" x2="7" y2="33.35"/><line class="cls-1" x1="6.66" y1="33.35" x2="-6.16" y2="33.35"/><line class="cls-1" x1="0.12" y1="37.37" x2="-14.51" y2="37.37"/><line class="cls-1" x1="0.12" y1="37.37" x2="7" y2="37.37"/><line class="cls-1" x1="-5.27" y1="40.65" x2="6.79" y2="40.65"/><line class="cls-1" x1="6.79" y1="40.65" x2="7" y2="40.65"/><line class="cls-1" x1="4.58" y1="44.07" x2="2.42" y2="44.07"/><line class="cls-1" x1="2.42" y1="44.07" x2="-12.52" y2="44.07"/><line class="cls-1" x1="4.58" y1="44.07" x2="7" y2="44.07"/><line class="cls-1" x1="6.93" y1="48.12" x2="7" y2="48.12"/><line class="cls-1" x1="-6.26" y1="48.12" x2="6.93" y2="48.12"/><line class="cls-1" x1="-47.13" y1="51.92" x2="7" y2="51.92"/><line class="cls-1" x1="0.25" y1="51.99" x2="-2.31" y2="56.05"/><line class="cls-1" x1="4.69" y1="51.86" x2="6.93" y2="48.12"/><line class="cls-1" x1="6.94" y1="48.11" x2="6.93" y2="48.12"/><line class="cls-1" x1="2.42" y1="44.07" y2="48.11"/><line class="cls-1" x1="2.44" y1="44.05" x2="2.42" y2="44.07"/><line class="cls-1" x1="4.58" y1="44.07" x2="6.79" y2="40.65"/><line class="cls-1" x1="4.58" y1="44.07" x2="4.56" y2="44.11"/><line class="cls-1" x1="6.8" y1="40.63" x2="6.79" y2="40.65"/><line class="cls-1" x1="0.12" y1="37.37" x2="0.12" y2="37.36"/><line class="cls-1" x1="0.12" y1="37.37" x2="-1.88" y2="40.61"/><line class="cls-1" x1="6.66" y1="33.35" x2="6.69" y2="33.3"/><line class="cls-1" x1="6.66" y1="33.35" x2="4.23" y2="37.36"/><line class="cls-1" x1="-0.94" y1="33.3" x2="1.71" y2="29.19"/><line class="cls-1" x1="6.78" y1="25" x2="4.16" y2="29.11"/><line class="cls-1" x1="-1.98" y1="24.99" x2="0.31" y2="21.24"/><rect class="cls-2" x="-47.13" y="21.24" width="54.13" height="54.13"/><rect class="cls-2" width="54.19" height="54.19"/></svg>