<!-- Generator: Adobe Illustrator 22.1.0, SVG Export Plug-In  -->
<svg version="1.1"
     xmlns="http://www.w3.org/2000/svg" xmlns:xlink="http://www.w3.org/1999/xlink" xmlns:a="http://ns.adobe.com/AdobeSVGViewerExtensions/3.0/"
     x="0px" y="0px" width="54.4px" height="54.4px" viewBox="0 0 54.4 54.4" style="enable-background:new 0 0 54.4 54.4;"
     xml:space="preserve">
<style type="text/css">
    .st0{clip-path:url(#SVGID_2_);fill:none;stroke:#000000;stroke-width:0.3;}
    .st1{clip-path:url(#SVGID_4_);fill:none;stroke:#000000;stroke-width:0.3;}
</style>
<defs>
</defs>
<g>
    <defs>
        <rect id="SVGID_1_" x="0.2" y="0.2" width="54.1" height="54.1"/>
    </defs>
    <clipPath id="SVGID_2_">
        <use xlink:href="#SVGID_1_"  style="overflow:visible;"/>
    </clipPath>
    <line class="st0" x1="54.3" y1="21.2" x2="54.3" y2="21.6"/>
    <line class="st0" x1="54.3" y1="50.3" x2="54.3" y2="50.4"/>
    <line class="st0" x1="0.2" y1="50.3" x2="0.2" y2="50.4"/>
    <line class="st0" x1="54.3" y1="36.4" x2="54.3" y2="37.2"/>
    <path class="st0" d="M16.3,4c-0.1,0-0.1,0-0.2,0h-0.9"/>
    <path class="st0" d="M16.3,4c3.3-0.5,3.3-3.4-0.2-3.8"/>
    <path class="st0" d="M10.3,4H8.7C8.6,4,8.6,4,8.5,4"/>
    <line class="st0" x1="10.3" y1="4" x2="15.2" y2="4"/>
    <path class="st0" d="M8.7,0.2C5.3,0.6,5.3,3.4,8.5,4"/>
    <line class="st0" x1="8.7" y1="0.2" x2="16.1" y2="0.2"/>
    <path class="st0" d="M21.3,4c-3.2-0.6-3.3-3.3,0.2-3.8"/>
    <path class="st0" d="M25.1,4h4.5c3.5-0.4,3.6-3.4,0-3.9"/>
    <path class="st0" d="M21.3,4c0.1,0,0.1,0,0.2,0h3.7"/>
    <line class="st0" x1="29.6" y1="0.2" x2="21.4" y2="0.2"/>
    <path class="st0" d="M44.2,4c3.3-0.5,3.3-3.4-0.2-3.8"/>
    <line class="st0" x1="38.7" y1="4" x2="43.7" y2="4"/>
    <path class="st0" d="M43.7,4H44c0.1,0,0.1,0,0.2,0"/>
    <path class="st0" d="M34.9,0.2c-3.4,0.5-3.3,3.3-0.2,3.8"/>
    <path class="st0" d="M38.7,4h-3.8c-0.1,0-0.1,0-0.2,0"/>
    <line class="st0" x1="34.9" y1="0.2" x2="44" y2="0.2"/>
    <path class="st0" d="M10.3,4c-0.1,0-0.1,0-0.2,0H8.5"/>
    <line class="st0" x1="8.5" y1="4" x2="3.6" y2="4"/>
    <path class="st0" d="M2.6,4c0,0,0.1,0,0.1,0h0.8"/>
    <path class="st0" d="M10.3,4c3.4,0.6,3.3,3.5-0.2,3.8H2.7C-0.6,7.4-0.7,4.6,2.6,4"/>
    <path class="st0" d="M15.2,4c-3.3,0.6-3.1,3.4,0.1,3.8h9.6c3.4-0.4,3.6-3.3,0.2-3.8"/>
    <path class="st0" d="M21.3,4h3.7C25,4,25,4,25.1,4"/>
    <path class="st0" d="M16.3,4h-0.9c0,0-0.1,0-0.1,0"/>
    <line class="st0" x1="21.3" y1="4" x2="16.3" y2="4"/>
    <path class="st0" d="M38.7,4c3.4,0.6,3.3,3.5-0.2,3.8h-8.3c-3.3-0.4-3.5-3.3,0-3.9h4.5"/>
    <path class="st0" d="M38.7,4c-0.1,0-0.1,0-0.2,0h-3.8"/>
    <path class="st0" d="M51.8,4c3.4,0.6,3.3,3.5-0.2,3.8h-7.8c-3.3-0.4-3.5-3.2-0.1-3.8"/>
    <line class="st0" x1="49.2" y1="4" x2="44.2" y2="4"/>
    <path class="st0" d="M51.8,4c-0.1,0-0.1,0-0.2,0h-2.5"/>
    <path class="st0" d="M43.7,4c0,0,0.1,0,0.1,0h0.3"/>
    <line class="st0" x1="1.9" y1="11.7" x2="0.2" y2="11.7"/>
    <path class="st0" d="M4.7,11.7C8,11.2,8,8.3,4.5,7.9H0.2"/>
    <path class="st0" d="M4.7,11.7c-0.1,0-0.1,0-0.2,0H1.9"/>
    <path class="st0" d="M14.5,11.7H9.8c-3.3-0.4-3.5-3.3,0-3.8h8c3.5,0.4,3.5,3.3,0.2,3.8"/>
    <path class="st0" d="M14.5,11.7h3.2c0.1,0,0.1,0,0.2,0"/>
    <path class="st0" d="M29.4,11.7h2c0.1,0,0.1,0,0.2,0"/>
    <line class="st0" x1="24.4" y1="11.7" x2="29.4" y2="11.7"/>
    <path class="st0" d="M34,9.9c0-0.1,0-0.1,0-0.2"/>
    <path class="st0" d="M34,9.9c-0.1,0.8-0.9,1.5-2.4,1.8"/>
    <path class="st0" d="M24.4,11.7H23c-0.1,0-0.1,0-0.2,0"/>
    <path class="st0" d="M22.9,11.7c-3.2-0.5-3.2-3.3,0.2-3.8h8.3c1.7,0.2,2.6,1,2.6,1.8"/>
    <path class="st0" d="M37.8,11.7h-1.3c-0.1,0-0.1,0-0.2,0"/>
    <path class="st0" d="M46.5,11.7c3.3-0.5,3.3-3.4-0.2-3.8h-9.8c-1.6,0.2-2.5,1-2.5,1.8"/>
    <path class="st0" d="M36.4,11.7c-1.5-0.2-2.3-1-2.4-1.8"/>
    <line class="st0" x1="37.8" y1="11.7" x2="42.7" y2="11.7"/>
    <path class="st0" d="M46.5,11.7c-0.1,0-0.1,0-0.2,0h-3.6"/>
    <path class="st0" d="M34,9.7c0,0.1,0,0.1,0,0.2"/>
    <path class="st0" d="M1.9,11.7c-0.8,0.1-1.3,0.4-1.7,0.7"/>
    <path class="st0" d="M4.7,11.7H2c0,0-0.1,0-0.1,0"/>
    <path class="st0" d="M4.7,11.7h4.7c3.6,0.5,3.5,3.5,0,3.9H2c-0.8-0.1-1.4-0.4-1.9-0.7"/>
    <path class="st0" d="M24.4,11.7c-0.1,0-0.1,0-0.2,0h-1.4"/>
    <line class="st0" x1="22.9" y1="11.7" x2="17.9" y2="11.7"/>
    <path class="st0" d="M14.5,11.7c0,0,0.1,0,0.1,0h3.3"/>
    <path class="st0" d="M24.4,11.7c3.4,0.6,3.3,3.5-0.2,3.8h-9.6c-3.3-0.4-3.5-3.2-0.1-3.8"/>
    <path class="st0" d="M29.4,11.7c0,0,0.1,0,0.1,0h2"/>
    <path class="st0" d="M37.8,11.7c-0.1,0-0.1,0-0.2,0h-1.3"/>
    <line class="st0" x1="36.4" y1="11.7" x2="31.5" y2="11.7"/>
    <path class="st0" d="M37.8,11.7c3.4,0.6,3.3,3.5-0.2,3.8h-8.2c-3.3-0.4-3.5-3.2-0.1-3.8"/>
    <path class="st0" d="M42.7,11.7c-3.3,0.6-3.1,3.4,0.1,3.8h8c3.5-0.4,3.6-3.4,0-3.9h-4.4"/>
    <path class="st0" d="M46.5,11.7h-3.6c0,0-0.1,0-0.1,0"/>
    <path class="st0" d="M0.2,19.4h3.3C6.9,19,7,16,3.4,15.6H0.2"/>
    <path class="st0" d="M8.7,15.6c-3.5,0.5-3.3,3.4,0,3.9h7.4c3.5-0.4,3.6-3.4,0-3.9H8.7z"/>
    <path class="st0" d="M29.4,15.6h-8c-3.5,0.5-3.3,3.4,0,3.9h8C32.9,19,33,16,29.4,15.6z"/>
    <path class="st0" d="M44,15.6h-9.4c-3.5,0.5-3.3,3.4,0,3.9H44C47.5,19,47.6,16,44,15.6z"/>
    <path class="st0" d="M12.6,21.6c0-0.1,0-0.3,0-0.4"/>
    <path class="st0" d="M12.6,21.2c-0.1-0.8-1-1.5-2.6-1.7H2.8c-3.5,0.6-3.3,3.4,0,3.9H10c1.6-0.2,2.5-0.9,2.6-1.7"/>
    <path class="st0" d="M12.6,21.6c0.1,0.8,1,1.5,2.5,1.7h9.8c3.5-0.4,3.6-3.4,0-3.9h-9.8c-1.6,0.3-2.4,1-2.5,1.7"/>
    <path class="st0" d="M12.6,21.2c0,0.1,0,0.3,0,0.4"/>
    <path class="st0" d="M30.1,19.4c-3.5,0.6-3.3,3.4,0,3.9h8.5c3.5-0.4,3.6-3.4,0-3.9H30.1z"/>
    <path class="st0" d="M54.3,21.2c0,0.1,0,0.2,0,0.3"/>
    <path class="st0" d="M54.3,21.2c-0.1-0.8-1-1.6-2.6-1.8h-7.7c-3.5,0.6-3.3,3.4,0,3.9h7.7c1.6-0.2,2.5-0.9,2.6-1.7"/>
    <path class="st0" d="M0.2,27.2h4c3.5-0.4,3.6-3.4,0-3.9h-4"/>
    <path class="st0" d="M9.4,27.2h8.3c3.5-0.4,3.6-3.4,0-3.9H9.4C5.9,23.8,6,26.7,9.4,27.2z"/>
    <path class="st0" d="M22.9,27.2h8.4c3.5-0.4,3.6-3.4,0-3.9h-8.4C19.4,23.8,19.5,26.7,22.9,27.2z"/>
    <path class="st0" d="M46.2,27.2c3.5-0.4,3.6-3.4,0-3.9h-9.7c-3.5,0.5-3.3,3.4,0,3.9H46.2z"/>
    <path class="st0" d="M8.1,31h1.1c0.1,0,0.1,0,0.2,0"/>
    <path class="st0" d="M1.6,31c-0.6-0.1-1.1-0.3-1.5-0.5"/>
    <path class="st0" d="M3.2,31H1.8c-0.1,0-0.1,0-0.2,0"/>
    <path class="st0" d="M9.4,31c3.3-0.5,3.3-3.4-0.2-3.8H1.8c-0.7,0.1-1.2,0.3-1.6,0.5"/>
    <line class="st0" x1="3.2" y1="31" x2="8.1" y2="31"/>
    <path class="st0" d="M16.2,31h-1.8c-0.1,0-0.1,0-0.2,0"/>
    <path class="st0" d="M21.1,31h3c0.1,0,0.1,0,0.2,0"/>
    <line class="st0" x1="16.2" y1="31" x2="21.1" y2="31"/>
    <path class="st0" d="M24.4,31c3.3-0.5,3.3-3.4-0.2-3.8h-9.8c-3.4,0.5-3.3,3.3-0.2,3.8"/>
    <path class="st0" d="M37.7,31c-0.1,0-0.1,0-0.2,0h-2.7"/>
    <path class="st0" d="M29.3,31c0.1,0,0.1,0,0.2,0h0.4"/>
    <line class="st0" x1="34.8" y1="31" x2="29.8" y2="31"/>
    <path class="st0" d="M29.3,31c-3.2-0.5-3.2-3.3,0.2-3.8h8c3.5,0.4,3.5,3.3,0.2,3.8"/>
    <line class="st0" x1="44" y1="31" x2="49" y2="31"/>
    <path class="st0" d="M51,31c-0.1,0-0.1,0-0.2,0H49"/>
    <path class="st0" d="M42.6,31c0.1,0,0.1,0,0.2,0H44"/>
    <path class="st0" d="M53.4,28.9c0,0.2,0,0.3,0,0.5"/>
    <path class="st0" d="M53.4,29.4c-0.1,0.7-1,1.4-2.4,1.6"/>
    <path class="st0" d="M42.6,31c-3.2-0.5-3.2-3.3,0.2-3.8h8c1.6,0.2,2.5,0.9,2.6,1.7"/>
    <line class="st0" x1="1.6" y1="31" x2="0.2" y2="31"/>
    <path class="st0" d="M3.2,31c3.4,0.5,3.3,3.4-0.2,3.8H0.2"/>
    <path class="st0" d="M3.2,31c-0.1,0-0.1,0-0.2,0H1.6"/>
    <line class="st0" x1="9.4" y1="31" x2="14.2" y2="31"/>
    <path class="st0" d="M8.1,31c0.1,0,0.1,0,0.2,0h1.1"/>
    <path class="st0" d="M16.2,31c-0.1,0-0.1,0-0.2,0h-1.8"/>
    <path class="st0" d="M16.2,31c3.4,0.5,3.3,3.4-0.2,3.8H8.3C5,34.4,4.8,31.6,8.1,31"/>
    <path class="st0" d="M29.3,31h0.3c0.1,0,0.1,0,0.2,0"/>
    <line class="st0" x1="29.3" y1="31" x2="24.4" y2="31"/>
    <path class="st0" d="M21.1,31c0.1,0,0.1,0,0.2,0h3.1"/>
    <path class="st0" d="M21.1,31c-3.3,0.6-3.1,3.4,0.2,3.8h8.4c3.4-0.4,3.6-3.3,0.2-3.8"/>
    <path class="st0" d="M34.8,31c-3.3,0.6-3.1,3.4,0.2,3.8h8.9c3.4-0.4,3.6-3.3,0.2-3.8"/>
    <line class="st0" x1="42.6" y1="31" x2="37.7" y2="31"/>
    <path class="st0" d="M37.7,31h-2.8c-0.1,0-0.1,0-0.2,0"/>
    <path class="st0" d="M42.6,31h1.2c0.1,0,0.1,0,0.2,0"/>
    <line class="st0" x1="4.4" y1="38.7" x2="9.6" y2="38.7"/>
    <path class="st0" d="M2.7,38.7c-3.3-0.5-3.5-3.4,0-3.9h7.1c3.6,0.4,3.5,3.4,0,3.9"/>
    <line class="st0" x1="17.7" y1="38.7" x2="22.9" y2="38.7"/>
    <path class="st0" d="M24.9,38.7c3.5-0.4,3.6-3.4,0-3.9h-9.8c-3.5,0.5-3.3,3.4,0,3.9"/>
    <path class="st0" d="M41.7,36.6c0,0.1,0,0.3,0,0.4"/>
    <line class="st0" x1="36.5" y1="38.7" x2="31.3" y2="38.7"/>
    <path class="st0" d="M41.7,37c-0.1,0.8-1,1.5-2.6,1.7"/>
    <path class="st0" d="M41.7,36.6c-0.1-0.8-1-1.5-2.6-1.7h-9c-3.5,0.5-3.3,3.4,0,3.9"/>
    <path class="st0" d="M41.7,36.6c0.1-0.8,1-1.5,2.5-1.7h7.4c1.5,0.2,2.4,0.8,2.6,1.5"/>
    <path class="st0" d="M54.3,37.2c-0.2,0.7-1.1,1.4-2.6,1.5"/>
    <path class="st0" d="M44.3,38.7c-1.5-0.2-2.4-1-2.5-1.7"/>
    <line class="st0" x1="51.4" y1="38.7" x2="46.2" y2="38.7"/>
    <path class="st0" d="M41.7,36.6c0,0.1,0,0.3,0,0.4"/>
    <line class="st0" x1="2.7" y1="38.7" x2="0.2" y2="38.7"/>
    <line class="st0" x1="2" y1="42.6" x2="0.2" y2="42.6"/>
    <path class="st0" d="M4.4,42.6c3.5-0.4,3.6-3.4,0-3.8"/>
    <line class="st0" x1="2.7" y1="38.7" x2="4.4" y2="38.7"/>
    <line class="st0" x1="9.8" y1="38.7" x2="15.1" y2="38.7"/>
    <path class="st0" d="M14.6,42.6h-5c-3.3-0.4-3.5-3.3,0-3.8"/>
    <path class="st0" d="M17.7,38.7c3.6,0.4,3.5,3.4,0,3.8"/>
    <line class="st0" x1="9.8" y1="38.7" x2="9.6" y2="38.7"/>
    <line class="st0" x1="17.7" y1="38.7" x2="15.1" y2="38.7"/>
    <line class="st0" x1="24.9" y1="38.7" x2="30.1" y2="38.7"/>
    <path class="st0" d="M31.3,42.6c3.5-0.4,3.6-3.4,0-3.8"/>
    <path class="st0" d="M22.9,38.7c-3.5,0.5-3.3,3.4,0,3.8"/>
    <line class="st0" x1="24.3" y1="42.6" x2="29.5" y2="42.6"/>
    <line class="st0" x1="22.9" y1="38.7" x2="24.9" y2="38.7"/>
    <line class="st0" x1="30.1" y1="38.7" x2="31.3" y2="38.7"/>
    <path class="st0" d="M36.5,38.7c-3.5,0.5-3.3,3.4,0,3.8"/>
    <path class="st0" d="M46.2,38.7c1.7,0.2,2.6,1,2.6,1.8"/>
    <path class="st0" d="M48.8,40.8c0-0.1,0-0.2,0-0.2"/>
    <line class="st0" x1="44.3" y1="38.7" x2="39.1" y2="38.7"/>
    <path class="st0" d="M48.8,40.8c-0.1,0.8-1,1.6-2.6,1.8"/>
    <line class="st0" x1="37.7" y1="42.6" x2="42.9" y2="42.6"/>
    <line class="st0" x1="36.5" y1="38.7" x2="39.1" y2="38.7"/>
    <line class="st0" x1="44.3" y1="38.7" x2="46.2" y2="38.7"/>
    <path class="st0" d="M2,50.3c3.5-0.4,3.6-3.4,0-3.9H0.2"/>
    <line class="st0" x1="0.2" y1="50.3" x2="0.4" y2="50.3"/>
    <line class="st0" x1="7.8" y1="50.3" x2="13" y2="50.3"/>
    <path class="st0" d="M7.4,50.3c-3.3-0.5-3.5-3.4,0-3.9h7.8c1.5,0.2,2.4,0.9,2.6,1.6"/>
    <path class="st0" d="M17.7,48.7c-0.2,0.7-1.1,1.4-2.6,1.6"/>
    <path class="st0" d="M17.7,48.1c0.1,0.2,0.1,0.4,0,0.7"/>
    <path class="st0" d="M20.2,50.3c-1.5-0.2-2.3-0.9-2.5-1.6"/>
    <path class="st0" d="M31.7,48.1c0,0.2,0,0.4,0,0.6"/>
    <path class="st0" d="M17.7,48.1c-0.1,0.2-0.1,0.4,0,0.7"/>
    <line class="st0" x1="22.2" y1="50.3" x2="27.4" y2="50.3"/>
    <path class="st0" d="M17.7,48.1c0.2-0.7,1-1.4,2.5-1.6h8.9c1.6,0.2,2.4,0.9,2.6,1.7"/>
    <path class="st0" d="M29.1,50.3c1.6-0.2,2.5-0.9,2.6-1.7"/>
    <line class="st0" x1="35.8" y1="50.3" x2="41" y2="50.3"/>
    <path class="st0" d="M31.7,48.1c0,0.2,0,0.4,0,0.6"/>
    <path class="st0" d="M34.2,50.3c-1.5-0.2-2.3-0.9-2.5-1.7"/>
    <path class="st0" d="M31.7,48.1c0.2-0.7,1-1.4,2.5-1.7h9.4c3.6,0.5,3.5,3.5,0,3.9"/>
    <path class="st0" d="M7.8,50.3c3.6,0.5,3.5,3.5,0,3.9H0.4c-0.1,0-0.1,0-0.2,0"/>
    <path class="st0" d="M0.2,50.4c0.1,0,0.1,0,0.2,0"/>
    <line class="st0" x1="7.4" y1="50.3" x2="2" y2="50.3"/>
    <line class="st0" x1="2" y1="50.3" x2="0.4" y2="50.3"/>
    <line class="st0" x1="7.4" y1="50.3" x2="7.8" y2="50.3"/>
    <line class="st0" x1="15.1" y1="50.3" x2="20.2" y2="50.3"/>
    <path class="st0" d="M24.8,52.5c-0.1,0.8-1,1.5-2.6,1.7H13c-3.3-0.4-3.5-3.3,0-3.9"/>
    <path class="st0" d="M24.8,52.5c0-0.1,0-0.3,0-0.4"/>
    <path class="st0" d="M22.2,50.3c1.6,0.2,2.5,1,2.6,1.8"/>
    <line class="st0" x1="15.1" y1="50.3" x2="13" y2="50.3"/>
    <line class="st0" x1="22.2" y1="50.3" x2="20.2" y2="50.3"/>
    <path class="st0" d="M38.5,52.5c0-0.1,0-0.3,0-0.4"/>
    <line class="st0" x1="34.2" y1="50.3" x2="29.1" y2="50.3"/>
    <path class="st0" d="M35.8,50.3c1.6,0.2,2.5,1,2.6,1.8"/>
    <path class="st0" d="M27.4,50.3c-1.6,0.3-2.4,1-2.5,1.8"/>
    <path class="st0" d="M38.5,52.5c-0.1,0.8-1,1.5-2.6,1.7h-8.5c-1.5-0.2-2.4-0.9-2.5-1.7"/>
    <path class="st0" d="M24.8,52.1c0,0.1,0,0.3,0,0.4"/>
    <line class="st0" x1="27.4" y1="50.3" x2="29.1" y2="50.3"/>
    <line class="st0" x1="35.8" y1="50.3" x2="34.2" y2="50.3"/>
    <path class="st0" d="M41,50.3c-1.6,0.3-2.4,1-2.5,1.8"/>
    <path class="st0" d="M38.5,52.5c0-0.1,0-0.3,0-0.4"/>
    <path class="st0" d="M38.5,52.5c0.1,0.8,1,1.5,2.5,1.7h8.2c3.5-0.4,3.6-3.4,0-3.9"/>
    <line class="st0" x1="43.6" y1="50.3" x2="48.9" y2="50.3"/>
    <line class="st0" x1="43.6" y1="50.3" x2="41" y2="50.3"/>
    <path class="st0" d="M2.6,4h0.8c0.1,0,0.1,0,0.2,0"/>
    <path class="st0" d="M3.6,4c3.3-0.5,3.3-3.4-0.2-3.8"/>
    <line class="st0" x1="2.6" y1="4" x2="0.2" y2="4"/>
    <line class="st0" x1="0.2" y1="0.2" x2="3.4" y2="0.2"/>
    <path class="st0" d="M54.3,7.9h-2.8c-3.5,0.5-3.3,3.4,0,3.8h2.8"/>
    <path class="st0" d="M54.3,12.4c-0.9,0.7-0.9,1.7,0,2.4"/>
    <path class="st0" d="M2,42.6c-0.8,0.1-1.5,0.4-1.9,0.7"/>
    <path class="st0" d="M0.2,45.7C0.6,46,1.2,46.3,2,46.4h7.4c3.5-0.4,3.6-3.4,0-3.9H4.4"/>
    <line class="st0" x1="4.4" y1="42.6" x2="2" y2="42.6"/>
    <path class="st0" d="M24.3,42.6c3.6,0.5,3.5,3.5,0,3.9h-9.6c-3.3-0.4-3.5-3.3,0-3.9"/>
    <line class="st0" x1="17.7" y1="42.6" x2="22.9" y2="42.6"/>
    <line class="st0" x1="14.6" y1="42.6" x2="17.7" y2="42.6"/>
    <line class="st0" x1="24.3" y1="42.6" x2="22.9" y2="42.6"/>
    <line class="st0" x1="36.5" y1="42.6" x2="31.3" y2="42.6"/>
    <path class="st0" d="M37.7,42.6c3.6,0.5,3.5,3.5,0,3.9h-8.2c-3.3-0.4-3.5-3.3,0-3.9"/>
    <line class="st0" x1="29.5" y1="42.6" x2="31.3" y2="42.6"/>
    <line class="st0" x1="37.7" y1="42.6" x2="36.5" y2="42.6"/>
    <path class="st0" d="M42.9,42.6c-3.5,0.5-3.3,3.4,0,3.9h8c3.5-0.4,3.6-3.4,0-3.9h-4.7"/>
    <line class="st0" x1="46.2" y1="42.6" x2="42.9" y2="42.6"/>
    <path class="st0" d="M54.3,43.3c-0.9,0.7-0.9,1.7,0,2.4"/>
    <path class="st0" d="M54.3,19.4h-5c-3.3-0.5-3.5-3.4,0-3.9h5"/>
    <path class="st0" d="M54.3,23.3h-2.9c-3.5,0.5-3.3,3.4,0,3.9h2.9"/>
    <path class="st0" d="M53.4,28.9c0,0.2,0,0.3,0,0.5"/>
    <path class="st0" d="M53.4,28.9c0.1-0.4,0.4-0.8,0.9-1.1"/>
    <path class="st0" d="M54.3,30.5c-0.5-0.3-0.8-0.7-0.9-1.1"/>
    <line class="st0" x1="51" y1="31" x2="54.3" y2="31"/>
    <path class="st0" d="M54.3,34.9h-5.1c-3.3-0.5-3.5-3.3-0.2-3.8"/>
    <path class="st0" d="M51,31h-1.8c-0.1,0-0.1,0-0.2,0"/>
    <path class="st0" d="M48.8,40.8c0.1,0.8,0.9,1.6,2.5,1.8h2.9"/>
    <path class="st0" d="M48.8,40.8c0-0.1,0-0.2,0-0.2"/>
    <line class="st0" x1="51.7" y1="38.7" x2="54.3" y2="38.7"/>
    <path class="st0" d="M48.8,40.5c0.1-0.8,0.9-1.6,2.5-1.8"/>
    <line class="st0" x1="51.4" y1="38.7" x2="51.7" y2="38.7"/>
    <path class="st0" d="M54.3,46.4h-5.4c-3.5,0.5-3.3,3.4,0,3.9"/>
    <line class="st0" x1="49.2" y1="50.3" x2="54.3" y2="50.3"/>
    <line class="st0" x1="49.2" y1="50.3" x2="48.9" y2="50.3"/>
    <path class="st0" d="M54.3,50.4c-3.2,0.7-3.1,3.3,0,3.8"/>
    <path class="st0" d="M51.8,4h-2.5c-0.1,0-0.1,0-0.2,0"/>
    <path class="st0" d="M49.3,0.2C45.9,0.6,46,3.4,49.2,4"/>
    <line class="st0" x1="51.8" y1="4" x2="54.3" y2="4"/>
    <line class="st0" x1="49.3" y1="0.2" x2="54.3" y2="0.2"/>
</g>
</svg>
