<svg id="Layer_1" data-name="Layer 1" xmlns="http://www.w3.org/2000/svg" width="54.42" height="54.4" viewBox="0 0 54.42 54.4"><defs><style>.cls-1,.cls-2{fill:none;}.cls-1{stroke:#231f20;stroke-width:0.3px;}</style></defs><title>Artboard 37</title><line class="cls-1" x1="47.43" y1="19.22" x2="47.43" y2="19.26"/><path class="cls-1" d="M48.9-.12a4.15,4.15,0,0,1-1.47-.5"/><path class="cls-1" d="M50.5-.09H49.07l-.17,0"/><path class="cls-1" d="M56.68-.12c3.3-.46,3.3-3.36-.2-3.79H49.07a4.51,4.51,0,0,0-1.64.54"/><line class="cls-1" x1="50.5" y1="-0.09" x2="55.41" y2="-0.09"/><line class="cls-1" x1="48.9" y1="-0.12" x2="47.43" y2="-0.12"/><path class="cls-1" d="M50.5-.09c3.38.51,3.26,3.42-.18,3.83H47.43"/><path class="cls-1" d="M50.5-.09l-.18,0H48.9"/><path class="cls-1" d="M63.46-.09c3.38.51,3.26,3.42-.18,3.83H55.57c-3.29-.48-3.46-3.27-.16-3.83"/><line class="cls-1" x1="51.67" y1="7.62" x2="56.93" y2="7.62"/><path class="cls-1" d="M50,7.62c-3.34-.49-3.46-3.36,0-3.86h7.11c3.57.43,3.5,3.43,0,3.86"/><line class="cls-1" x1="49.98" y1="7.62" x2="47.43" y2="7.62"/><line class="cls-1" x1="49.31" y1="11.43" x2="47.43" y2="11.43"/><path class="cls-1" d="M51.67,11.43c3.5-.37,3.56-3.37,0-3.81"/><line class="cls-1" x1="49.98" y1="7.62" x2="51.67" y2="7.62"/><path class="cls-1" d="M61.93,11.43h-5c-3.34-.44-3.46-3.31,0-3.81"/><path class="cls-1" d="M49.29,19.22c3.5-.43,3.57-3.43,0-3.91H47.43"/><line class="cls-1" x1="47.43" y1="19.22" x2="47.63" y2="19.22"/><path class="cls-1" d="M54.63,19.22c-3.34-.49-3.46-3.36,0-3.91h7.76c1.55.21,2.41.89,2.61,1.63"/><path class="cls-1" d="M55,19.22c3.57.54,3.5,3.54,0,3.91H47.63l-.2,0"/><path class="cls-1" d="M47.43,19.26l.2,0"/><line class="cls-1" x1="54.63" y1="19.22" x2="49.29" y2="19.22"/><line class="cls-1" x1="49.29" y1="19.22" x2="47.63" y2="19.22"/><path class="cls-1" d="M49.31,11.43a4.06,4.06,0,0,0-1.88.73"/><path class="cls-1" d="M47.43,14.6a3.8,3.8,0,0,0,1.88.69h7.41c3.5-.37,3.56-3.37,0-3.86h-5"/><line class="cls-1" x1="51.67" y1="11.43" x2="49.31" y2="11.43"/><rect class="cls-2" x="47.43" y="-30.97" width="54.13" height="54.13"/><path class="cls-1" d="M56,23.16c-3.41.49-3.34,3.28-.16,3.83"/><line class="cls-1" x1="55.8" y1="26.99" x2="50.86" y2="26.99"/><path class="cls-1" d="M49.88,27,50,27h.84"/><path class="cls-1" d="M57.6,27c3.39.56,3.28,3.47-.17,3.84H50c-3.29-.43-3.46-3.23-.14-3.84"/><line class="cls-1" x1="49.16" y1="34.71" x2="47.43" y2="34.71"/><path class="cls-1" d="M52,34.68c3.31-.46,3.3-3.36-.19-3.79H47.43"/><path class="cls-1" d="M52,34.68l-.19,0H49.16"/><path class="cls-1" d="M61.79,34.71H57.06c-3.34-.44-3.47-3.32,0-3.82h8c3.49.43,3.5,3.33.2,3.79"/><path class="cls-1" d="M49.16,34.71a4,4,0,0,0-1.73.7"/><path class="cls-1" d="M52,34.68H49.31l-.15,0"/><path class="cls-1" d="M52,34.68h4.72c3.56.49,3.5,3.49,0,3.86H49.31a3.8,3.8,0,0,1-1.88-.69"/><path class="cls-1" d="M47.43,42.43h3.26c3.5-.42,3.57-3.42,0-3.86H47.43"/><path class="cls-1" d="M56,38.57c-3.46.5-3.34,3.37,0,3.86h7.41c3.5-.42,3.56-3.42,0-3.86Z"/><path class="cls-1" d="M59.87,44.19c-.13-.78-1-1.52-2.63-1.75H50c-3.46.55-3.34,3.43,0,3.87h7.21c1.62-.18,2.51-.91,2.64-1.7"/><path class="cls-1" d="M47.43,50.19h4c3.5-.42,3.56-3.42,0-3.86h-4"/><path class="cls-1" d="M56.64,50.19h8.27c3.5-.42,3.56-3.42,0-3.86H56.64C53.18,46.83,53.31,49.71,56.64,50.19Z"/><path class="cls-1" d="M48.9,54a4.15,4.15,0,0,1-1.47-.51"/><path class="cls-1" d="M50.5,54H49.07l-.17,0"/><path class="cls-1" d="M56.68,54c3.3-.47,3.3-3.36-.2-3.79H49.07a4.32,4.32,0,0,0-1.64.54"/><line class="cls-1" x1="50.5" y1="54.03" x2="55.41" y2="54.03"/><line class="cls-1" x1="48.9" y1="54.01" x2="47.43" y2="54.01"/><path class="cls-1" d="M50.5,54c3.38.52,3.26,3.42-.18,3.84H47.43"/><path class="cls-1" d="M50.5,54l-.18,0H48.9"/><path class="cls-1" d="M63.46,54c3.38.52,3.26,3.42-.18,3.84H55.57c-3.29-.48-3.46-3.28-.16-3.84"/><path class="cls-1" d="M49.88,27h.8l.18,0"/><path class="cls-1" d="M50.86,27c3.32-.5,3.32-3.4-.18-3.83"/><line class="cls-1" x1="49.88" y1="27.02" x2="47.43" y2="27.02"/><line class="cls-1" x1="47.43" y1="23.16" x2="50.68" y2="23.16"/><rect class="cls-2" x="47.43" y="23.16" width="54.13" height="54.13"/><line class="cls-1" x1="47.43" y1="19.22" x2="47.43" y2="19.26"/><line class="cls-1" x1="47.43" y1="5.29" x2="47.43" y2="6.07"/><path class="cls-1" d="M1.29-.09H2.36l.19,0"/><path class="cls-1" d="M2.55-.12c3.31-.46,3.3-3.36-.19-3.79H-5.06a4.45,4.45,0,0,0-1.63.54"/><line class="cls-1" x1="-3.63" y1="-0.09" x2="1.29" y2="-0.09"/><path class="cls-1" d="M9.34-.09H7.57l-.17,0"/><path class="cls-1" d="M14.29-.09h3l.2,0"/><line class="cls-1" x1="9.34" y1="-0.09" x2="14.29" y2="-0.09"/><path class="cls-1" d="M17.53-.12c3.3-.46,3.3-3.36-.2-3.79H7.57C4.17-3.42,4.23-.63,7.4-.12"/><path class="cls-1" d="M30.84-.12l-.2,0H27.91"/><path class="cls-1" d="M22.46-.12l.17,0H23"/><line class="cls-1" x1="27.91" y1="-0.09" x2="22.99" y2="-0.09"/><path class="cls-1" d="M22.46-.12c-3.17-.51-3.23-3.3.17-3.79h8c3.5.43,3.51,3.33.2,3.79"/><line class="cls-1" x1="37.16" y1="-0.09" x2="42.15" y2="-0.09"/><path class="cls-1" d="M44.12-.12l-.2,0H42.15"/><path class="cls-1" d="M35.74-.12l.17,0h1.25"/><path class="cls-1" d="M46.54-1.75C46.4-1,45.59-.33,44.12-.12"/><path class="cls-1" d="M35.74-.12c-3.17-.51-3.24-3.3.17-3.79h8c1.6.2,2.47.91,2.62,1.67"/><line class="cls-1" x1="2.55" y1="-0.12" x2="7.4" y2="-0.12"/><path class="cls-1" d="M1.29-.09l.15,0H2.55"/><path class="cls-1" d="M9.34-.09l-.18,0H7.4"/><path class="cls-1" d="M9.34-.09c3.38.51,3.26,3.42-.18,3.83H1.44C-1.84,3.26-2,.47,1.29-.09"/><path class="cls-1" d="M22.46-.12h.35l.18,0"/><line class="cls-1" x1="22.46" y1="-0.12" x2="17.53" y2="-0.12"/><path class="cls-1" d="M14.29-.09l.15,0h3.09"/><path class="cls-1" d="M14.29-.09c-3.3.56-3.13,3.35.15,3.83h8.37C26.25,3.33,26.37.42,23-.09"/><path class="cls-1" d="M27.91-.09c-3.3.56-3.13,3.35.16,3.83H37c3.44-.41,3.56-3.32.18-3.83"/><line class="cls-1" x1="35.74" y1="-0.12" x2="30.84" y2="-0.12"/><path class="cls-1" d="M30.84-.12H28.07l-.16,0"/><path class="cls-1" d="M35.74-.12H37l.18,0"/><line class="cls-1" x1="-2.46" y1="7.62" x2="2.81" y2="7.62"/><path class="cls-1" d="M-4.14,7.62c-3.34-.49-3.47-3.36,0-3.86H3c3.56.43,3.5,3.43,0,3.86"/><line class="cls-1" x1="10.82" y1="7.62" x2="16.03" y2="7.62"/><path class="cls-1" d="M18.07,7.62c3.5-.43,3.56-3.43,0-3.86H8.26c-3.47.5-3.34,3.37,0,3.86"/><path class="cls-1" d="M34.9,5.46a1.48,1.48,0,0,1,0,.42"/><line class="cls-1" x1="29.66" y1="7.62" x2="24.44" y2="7.62"/><path class="cls-1" d="M34.9,5.88c-.13.79-1,1.54-2.63,1.74"/><path class="cls-1" d="M34.9,5.46c-.14-.77-1-1.5-2.63-1.7h-9c-3.47.5-3.34,3.37,0,3.86"/><path class="cls-1" d="M34.9,5.46c.12-.76,1-1.48,2.53-1.7h7.41c1.51.18,2.36.82,2.59,1.53"/><path class="cls-1" d="M47.43,6.07c-.23.72-1.09,1.37-2.59,1.55"/><path class="cls-1" d="M37.43,7.62c-1.54-.23-2.4-1-2.53-1.74"/><line class="cls-1" x1="44.51" y1="7.62" x2="39.32" y2="7.62"/><path class="cls-1" d="M34.9,5.46a1.48,1.48,0,0,0,0,.42"/><path class="cls-1" d="M-2.46,11.43c3.5-.37,3.57-3.37,0-3.81"/><line class="cls-1" x1="2.97" y1="7.62" x2="8.26" y2="7.62"/><path class="cls-1" d="M7.81,11.43h-5C-.53,11-.66,8.12,2.81,7.62"/><path class="cls-1" d="M10.82,7.62c3.56.44,3.5,3.44,0,3.81"/><line class="cls-1" x1="2.97" y1="7.62" x2="2.81" y2="7.62"/><line class="cls-1" x1="10.82" y1="7.62" x2="8.26" y2="7.62"/><line class="cls-1" x1="18.07" y1="7.62" x2="23.31" y2="7.62"/><path class="cls-1" d="M24.44,11.43c3.5-.37,3.57-3.37,0-3.81"/><path class="cls-1" d="M16,7.62c-3.46.5-3.34,3.37,0,3.81"/><line class="cls-1" x1="17.42" y1="11.43" x2="22.66" y2="11.43"/><line class="cls-1" x1="16.03" y1="7.62" x2="18.07" y2="7.62"/><line class="cls-1" x1="23.31" y1="7.62" x2="24.44" y2="7.62"/><path class="cls-1" d="M29.66,7.62c-3.47.5-3.34,3.37,0,3.81"/><path class="cls-1" d="M39.32,7.62c1.69.21,2.56,1,2.64,1.8"/><path class="cls-1" d="M42,9.65a.88.88,0,0,0,0-.23"/><line class="cls-1" x1="37.43" y1="7.62" x2="32.27" y2="7.62"/><path class="cls-1" d="M42,9.65c-.07.81-1,1.6-2.64,1.78"/><line class="cls-1" x1="30.82" y1="11.43" x2="36.03" y2="11.43"/><line class="cls-1" x1="29.66" y1="7.62" x2="32.27" y2="7.62"/><line class="cls-1" x1="37.43" y1="7.62" x2="39.32" y2="7.62"/><line class="cls-1" x1="0.92" y1="19.22" x2="6.16" y2="19.22"/><path class="cls-1" d="M.51,19.22c-3.34-.49-3.47-3.36,0-3.91H8.27c1.54.21,2.4.89,2.6,1.63"/><path class="cls-1" d="M10.88,17.6c-.2.75-1.07,1.43-2.61,1.62"/><path class="cls-1" d="M10.87,16.94a1.34,1.34,0,0,1,0,.66"/><path class="cls-1" d="M13.38,19.22c-1.46-.22-2.31-.89-2.5-1.62"/><path class="cls-1" d="M24.86,17a1.28,1.28,0,0,1,0,.55"/><path class="cls-1" d="M10.87,16.94a1.34,1.34,0,0,0,0,.66"/><line class="cls-1" x1="15.37" y1="19.22" x2="20.53" y2="19.22"/><path class="cls-1" d="M10.87,16.94c.19-.72,1-1.4,2.51-1.63h8.86c1.58.21,2.45.92,2.62,1.68"/><path class="cls-1" d="M22.24,19.22c1.58-.19,2.46-.91,2.62-1.68"/><line class="cls-1" x1="28.99" y1="19.22" x2="34.16" y2="19.22"/><path class="cls-1" d="M24.86,17a1.28,1.28,0,0,0,0,.55"/><path class="cls-1" d="M27.38,19.22c-1.5-.22-2.35-.92-2.52-1.68"/><path class="cls-1" d="M24.86,17c.16-.74,1-1.44,2.52-1.68h9.41c3.57.48,3.5,3.48,0,3.91"/><path class="cls-1" d="M.92,19.22c3.56.54,3.5,3.54,0,3.91H-6.49l-.2,0"/><line class="cls-1" x1="0.51" y1="19.22" x2="-4.83" y2="19.22"/><line class="cls-1" x1="0.51" y1="19.22" x2="0.92" y2="19.22"/><line class="cls-1" x1="8.27" y1="19.22" x2="13.38" y2="19.22"/><path class="cls-1" d="M18,21.43c-.13.79-1,1.53-2.63,1.7H6.16c-3.34-.44-3.47-3.31,0-3.91"/><path class="cls-1" d="M18,21.43A1.48,1.48,0,0,0,18,21"/><path class="cls-1" d="M15.37,19.22c1.62.24,2.49,1,2.63,1.79"/><line class="cls-1" x1="8.27" y1="19.22" x2="6.16" y2="19.22"/><line class="cls-1" x1="15.37" y1="19.22" x2="13.38" y2="19.22"/><path class="cls-1" d="M31.63,21.43a1.19,1.19,0,0,0,0-.42"/><line class="cls-1" x1="27.38" y1="19.22" x2="22.24" y2="19.22"/><path class="cls-1" d="M29,19.22c1.63.24,2.5,1,2.63,1.79"/><path class="cls-1" d="M20.53,19.22c-1.57.27-2.41,1-2.53,1.79"/><path class="cls-1" d="M31.63,21.43c-.13.79-1,1.53-2.64,1.7H20.53c-1.54-.2-2.4-.92-2.53-1.7"/><path class="cls-1" d="M18,21a1.48,1.48,0,0,0,0,.42"/><line class="cls-1" x1="20.53" y1="19.22" x2="22.24" y2="19.22"/><line class="cls-1" x1="28.99" y1="19.22" x2="27.38" y2="19.22"/><path class="cls-1" d="M34.16,19.22c-1.58.27-2.41,1-2.54,1.79"/><path class="cls-1" d="M31.63,21.43a1.19,1.19,0,0,1,0-.42"/><path class="cls-1" d="M31.63,21.43c.13.78,1,1.5,2.53,1.7h8.21c3.5-.37,3.56-3.37,0-3.91"/><line class="cls-1" x1="36.79" y1="19.22" x2="42.03" y2="19.22"/><line class="cls-1" x1="36.79" y1="19.22" x2="34.16" y2="19.22"/><path class="cls-1" d="M-6.69,14.6a3.76,3.76,0,0,0,1.87.69H2.59c3.5-.37,3.57-3.37,0-3.86h-5"/><path class="cls-1" d="M17.42,11.43c3.56.49,3.5,3.49,0,3.86H7.81c-3.34-.43-3.47-3.31,0-3.86"/><line class="cls-1" x1="10.82" y1="11.43" x2="16.03" y2="11.43"/><line class="cls-1" x1="7.81" y1="11.43" x2="10.82" y2="11.43"/><line class="cls-1" x1="17.42" y1="11.43" x2="16.03" y2="11.43"/><line class="cls-1" x1="29.66" y1="11.43" x2="24.44" y2="11.43"/><path class="cls-1" d="M30.82,11.43c3.56.49,3.5,3.49,0,3.86H22.66c-3.34-.43-3.47-3.31,0-3.86"/><line class="cls-1" x1="22.66" y1="11.43" x2="24.44" y2="11.43"/><line class="cls-1" x1="30.82" y1="11.43" x2="29.66" y2="11.43"/><path class="cls-1" d="M36,11.43c-3.46.55-3.34,3.43,0,3.86h8c3.51-.37,3.57-3.37,0-3.86H39.32"/><line class="cls-1" x1="39.32" y1="11.43" x2="36.03" y2="11.43"/><path class="cls-1" d="M47.43,12.16a1.44,1.44,0,0,0,0,2.44"/><line class="cls-1" x1="44.12" y1="-0.12" x2="47.43" y2="-0.12"/><path class="cls-1" d="M47.43,3.74H42.31C39,3.26,38.85.47,42.15-.09"/><path class="cls-1" d="M44.12-.12H42.31l-.16,0"/><path class="cls-1" d="M42,9.65c.08.8.94,1.57,2.55,1.78h2.92"/><path class="cls-1" d="M42,9.65V9.42"/><line class="cls-1" x1="44.84" y1="7.62" x2="47.43" y2="7.62"/><path class="cls-1" d="M42,9.42c.07-.79.91-1.56,2.55-1.8"/><line class="cls-1" x1="44.51" y1="7.62" x2="44.84" y2="7.62"/><path class="cls-1" d="M47.43,15.31H42c-3.46.55-3.34,3.42,0,3.91"/><line class="cls-1" x1="42.37" y1="19.22" x2="47.43" y2="19.22"/><line class="cls-1" x1="42.37" y1="19.22" x2="42.03" y2="19.22"/><path class="cls-1" d="M47.43,19.26c-3.19.66-3.08,3.33,0,3.84"/><rect class="cls-2" x="-6.69" y="-30.97" width="54.13" height="54.13"/><line class="cls-1" x1="47.43" y1="44.24" x2="47.43" y2="44.57"/><path class="cls-1" d="M9.42,27l-.18,0H8.38"/><path class="cls-1" d="M9.42,27c3.33-.5,3.32-3.4-.18-3.83"/><path class="cls-1" d="M3.47,27H1.83l-.15,0"/><line class="cls-1" x1="3.47" y1="27.02" x2="8.38" y2="27.02"/><path class="cls-1" d="M1.83,23.16c-3.41.49-3.34,3.28-.15,3.83"/><line class="cls-1" x1="1.83" y1="23.16" x2="9.24" y2="23.16"/><path class="cls-1" d="M14.43,27c-3.19-.55-3.26-3.34.15-3.83"/><path class="cls-1" d="M18.25,27h4.49c3.5-.43,3.57-3.43,0-3.86"/><path class="cls-1" d="M14.43,27l.15,0h3.67"/><line class="cls-1" x1="22.74" y1="23.16" x2="14.58" y2="23.16"/><path class="cls-1" d="M37.33,27c3.32-.5,3.31-3.4-.19-3.83"/><line class="cls-1" x1="31.87" y1="27.02" x2="36.88" y2="27.02"/><path class="cls-1" d="M36.88,27h.26l.19,0"/><path class="cls-1" d="M28.08,23.16c-3.41.49-3.34,3.28-.15,3.83"/><path class="cls-1" d="M31.87,27H28.08l-.15,0"/><line class="cls-1" x1="28.08" y1="23.16" x2="37.14" y2="23.16"/><path class="cls-1" d="M3.47,27l-.16,0H1.68"/><line class="cls-1" x1="1.68" y1="26.99" x2="-3.26" y2="26.99"/><path class="cls-1" d="M3.47,27c3.4.56,3.28,3.47-.16,3.84H-4.11c-3.29-.43-3.45-3.23-.14-3.84"/><path class="cls-1" d="M8.38,27c-3.32.61-3.15,3.41.14,3.84h9.56c3.45-.37,3.56-3.28.17-3.84"/><path class="cls-1" d="M14.43,27h3.65l.17,0"/><path class="cls-1" d="M9.42,27h-.9l-.14,0"/><line class="cls-1" x1="14.43" y1="26.99" x2="9.42" y2="26.99"/><path class="cls-1" d="M31.87,27c3.4.56,3.28,3.47-.16,3.84H23.39c-3.33-.44-3.46-3.32,0-3.87h4.54"/><path class="cls-1" d="M31.87,27l-.16,0H27.93"/><path class="cls-1" d="M45,27c3.39.56,3.28,3.47-.17,3.84H37c-3.29-.43-3.46-3.23-.14-3.84"/><line class="cls-1" x1="42.31" y1="26.99" x2="37.33" y2="26.99"/><path class="cls-1" d="M45,27l-.17,0H42.31"/><path class="cls-1" d="M36.88,27,37,27h.31"/><path class="cls-1" d="M-2.12,34.68c3.3-.46,3.3-3.36-.2-3.79H-6.69"/><path class="cls-1" d="M7.66,34.71H2.93c-3.34-.44-3.46-3.32,0-3.82h8c3.5.43,3.51,3.33.2,3.79"/><path class="cls-1" d="M7.66,34.71h3.23l.2,0"/><path class="cls-1" d="M22.51,34.71h2l.2,0"/><line class="cls-1" x1="17.59" y1="34.71" x2="22.51" y2="34.71"/><path class="cls-1" d="M27.14,32.92V32.7"/><path class="cls-1" d="M27.14,32.92c-.07.78-.89,1.54-2.45,1.76"/><path class="cls-1" d="M17.59,34.71H16.18l-.17,0"/><path class="cls-1" d="M16,34.68c-3.17-.51-3.23-3.29.17-3.79h8.31c1.7.21,2.57,1,2.65,1.81"/><path class="cls-1" d="M31,34.71H29.68l-.17,0"/><path class="cls-1" d="M39.64,34.68c3.31-.46,3.3-3.36-.2-3.79H29.68c-1.64.24-2.48,1-2.54,1.81"/><path class="cls-1" d="M29.51,34.68c-1.5-.24-2.3-1-2.37-1.76"/><line class="cls-1" x1="30.99" y1="34.71" x2="35.89" y2="34.71"/><path class="cls-1" d="M39.64,34.68l-.2,0H35.89"/><path class="cls-1" d="M27.14,32.7a.81.81,0,0,0,0,.22"/><path class="cls-1" d="M-2.12,34.68H2.59c3.57.49,3.5,3.49,0,3.86H-4.82a3.76,3.76,0,0,1-1.87-.69"/><path class="cls-1" d="M17.59,34.71l-.17,0H16"/><line class="cls-1" x1="16.01" y1="34.68" x2="11.09" y2="34.68"/><path class="cls-1" d="M7.66,34.71l.15,0h3.28"/><path class="cls-1" d="M17.59,34.71c3.39.55,3.27,3.46-.17,3.83H7.81c-3.29-.43-3.46-3.23-.15-3.83"/><path class="cls-1" d="M22.51,34.71l.15,0h2"/><path class="cls-1" d="M31,34.71l-.17,0H29.51"/><line class="cls-1" x1="29.51" y1="34.68" x2="24.69" y2="34.68"/><path class="cls-1" d="M31,34.71c3.39.55,3.27,3.46-.17,3.83H22.66c-3.29-.43-3.46-3.23-.15-3.83"/><path class="cls-1" d="M35.89,34.71c-3.32.6-3.15,3.4.14,3.83h8c3.51-.37,3.57-3.37,0-3.86H39.64"/><path class="cls-1" d="M39.64,34.68H36l-.14,0"/><path class="cls-1" d="M1.84,38.57c-3.46.5-3.33,3.37,0,3.86H9.26c3.5-.42,3.56-3.42,0-3.86Z"/><path class="cls-1" d="M22.57,38.57h-8c-3.47.5-3.34,3.37,0,3.86h8C26.07,42,26.13,39,22.57,38.57Z"/><path class="cls-1" d="M37.14,38.57H27.78c-3.46.5-3.34,3.37,0,3.86h9.36C40.64,42,40.71,39,37.14,38.57Z"/><path class="cls-1" d="M5.75,44.61a1.48,1.48,0,0,0,0-.42"/><path class="cls-1" d="M5.75,44.19c-.14-.78-1-1.52-2.63-1.75H-4.09c-3.47.55-3.34,3.43,0,3.87H3.12c1.62-.18,2.5-.91,2.63-1.7"/><path class="cls-1" d="M5.75,44.61c.13.77,1,1.49,2.53,1.7h9.81c3.5-.38,3.57-3.38,0-3.87H8.28c-1.57.25-2.41,1-2.53,1.75"/><path class="cls-1" d="M5.75,44.19a1.48,1.48,0,0,0,0,.42"/><path class="cls-1" d="M23.31,42.44c-3.47.55-3.34,3.43,0,3.87h8.51c3.5-.38,3.56-3.38,0-3.87Z"/><path class="cls-1" d="M47.43,44.24a.91.91,0,0,1,0,.33"/><path class="cls-1" d="M47.43,44.24c-.1-.79-1-1.57-2.64-1.8H37.08c-3.46.55-3.34,3.43,0,3.87h7.71c1.65-.18,2.54-.94,2.64-1.74"/><path class="cls-1" d="M-6.69,50.19h4c3.5-.42,3.56-3.42,0-3.86h-4"/><path class="cls-1" d="M2.52,50.19h8.26c3.5-.42,3.56-3.42,0-3.86H2.52C-.94,46.83-.82,49.71,2.52,50.19Z"/><path class="cls-1" d="M16,50.19h8.41c3.5-.42,3.56-3.42,0-3.86H16C12.56,46.83,12.68,49.71,16,50.19Z"/><path class="cls-1" d="M39.31,50.19c3.5-.42,3.56-3.42,0-3.86H29.64c-3.46.5-3.33,3.38,0,3.86Z"/><path class="cls-1" d="M1.29,54H2.36l.19,0"/><path class="cls-1" d="M2.55,54c3.31-.47,3.3-3.36-.19-3.79H-5.06a4.27,4.27,0,0,0-1.63.54"/><line class="cls-1" x1="-3.63" y1="54.03" x2="1.29" y2="54.03"/><path class="cls-1" d="M9.34,54H7.57L7.4,54"/><path class="cls-1" d="M14.29,54h3l.2,0"/><line class="cls-1" x1="9.34" y1="54.03" x2="14.29" y2="54.03"/><path class="cls-1" d="M17.53,54c3.3-.47,3.3-3.36-.2-3.79H7.57c-3.4.49-3.34,3.28-.17,3.79"/><path class="cls-1" d="M30.84,54l-.2,0H27.91"/><path class="cls-1" d="M22.46,54l.17,0H23"/><line class="cls-1" x1="27.91" y1="54.03" x2="22.99" y2="54.03"/><path class="cls-1" d="M22.46,54c-3.17-.51-3.23-3.3.17-3.79h8c3.5.43,3.51,3.32.2,3.79"/><line class="cls-1" x1="37.16" y1="54.03" x2="42.15" y2="54.03"/><path class="cls-1" d="M44.12,54l-.2,0H42.15"/><path class="cls-1" d="M35.74,54l.17,0h1.25"/><path class="cls-1" d="M46.54,51.89a1.11,1.11,0,0,1,0,.48"/><path class="cls-1" d="M46.54,52.37c-.14.74-.95,1.43-2.42,1.64"/><path class="cls-1" d="M35.74,54c-3.17-.51-3.24-3.3.17-3.79h8c1.6.2,2.47.91,2.62,1.67"/><line class="cls-1" x1="2.55" y1="54.01" x2="7.4" y2="54.01"/><path class="cls-1" d="M1.29,54l.15,0H2.55"/><path class="cls-1" d="M9.34,54l-.18,0H7.4"/><path class="cls-1" d="M9.34,54c3.38.52,3.26,3.42-.18,3.84H1.44C-1.84,57.39-2,54.59,1.29,54"/><path class="cls-1" d="M22.46,54h.35L23,54"/><line class="cls-1" x1="22.46" y1="54.01" x2="17.53" y2="54.01"/><path class="cls-1" d="M14.29,54l.15,0h3.09"/><path class="cls-1" d="M14.29,54c-3.3.56-3.13,3.36.15,3.84h8.37c3.44-.42,3.56-3.32.18-3.84"/><path class="cls-1" d="M27.91,54c-3.3.56-3.13,3.36.16,3.84H37c3.44-.42,3.56-3.32.18-3.84"/><line class="cls-1" x1="35.74" y1="54.01" x2="30.84" y2="54.01"/><path class="cls-1" d="M30.84,54H28.07l-.16,0"/><path class="cls-1" d="M35.74,54H37l.18,0"/><path class="cls-1" d="M47.43,30.89H44.64c-3.46.5-3.33,3.38,0,3.82h2.79"/><path class="cls-1" d="M47.43,35.41a1.44,1.44,0,0,0,0,2.44"/><path class="cls-1" d="M47.43,42.43h-5c-3.34-.49-3.46-3.36,0-3.86h5"/><path class="cls-1" d="M47.43,46.33H44.57c-3.46.5-3.34,3.38,0,3.86h2.86"/><path class="cls-1" d="M46.54,51.89a1.29,1.29,0,0,0,0,.48"/><path class="cls-1" d="M46.54,51.89a1.76,1.76,0,0,1,.89-1.13"/><path class="cls-1" d="M47.43,53.5a1.83,1.83,0,0,1-.89-1.13"/><line class="cls-1" x1="44.12" y1="54.01" x2="47.43" y2="54.01"/><path class="cls-1" d="M47.43,57.87H42.31c-3.29-.48-3.46-3.28-.16-3.84"/><path class="cls-1" d="M44.12,54H42.31l-.16,0"/><path class="cls-1" d="M45,27H42.47l-.16,0"/><path class="cls-1" d="M42.47,23.16c-3.41.49-3.34,3.28-.16,3.83"/><line class="cls-1" x1="44.95" y1="27.02" x2="47.43" y2="27.02"/><line class="cls-1" x1="42.47" y1="23.16" x2="47.43" y2="23.16"/><rect class="cls-2" x="-6.69" y="23.16" width="54.13" height="54.13"/><rect class="cls-2" width="54.4" height="54.4"/></svg>