<svg id="Layer_1" data-name="Layer 1" xmlns="http://www.w3.org/2000/svg" width="54.39" height="54.42" viewBox="0 0 54.39 54.42"><defs><style>.cls-1,.cls-2{fill:none;}.cls-1{stroke:#000;stroke-width:0.3px;}</style></defs><title>Artboard 37</title><path class="cls-1" d="M49.83,3.32c-1.54,0-3.08-.12-4.7-.06"/><path class="cls-1" d="M45.13,3.26l-.46,0a6.07,6.07,0,0,1-1.32-.09"/><path class="cls-1" d="M55.45,1.5C55.3,2.28,53.93,3,53,3.11l-.7.1"/><path class="cls-1" d="M49.83,3.32a20.27,20.27,0,0,0,2.45-.11"/><path class="cls-1" d="M40.67.8a1.5,1.5,0,0,0-.18.54,1.09,1.09,0,0,0,.14.38"/><path class="cls-1" d="M55.46,1.27A.83.83,0,0,0,55.23.8c-1.77-2-4.62-1.12-7.16-1.42l-.51,0a8.29,8.29,0,0,1-1.19.05"/><path class="cls-1" d="M40.67.8a3.5,3.5,0,0,1,2.4-1.52"/><path class="cls-1" d="M43.35,3.19a3.86,3.86,0,0,1-2.72-1.47"/><path class="cls-1" d="M49.83,3.32a8.2,8.2,0,0,1,2.45-.11"/><path class="cls-1" d="M52.28,3.21c.92.06,1.84.17,2.6.15,1.63,0,2.93-.49,4.76-.08.82.24,1.7.65,1.94,1.36l0,.12"/><path class="cls-1" d="M55.27,7.43c-1.53-.11-3.07-.35-4.64-.42"/><path class="cls-1" d="M49.83,3.32a3.49,3.49,0,0,0-.57.2,2.61,2.61,0,0,0-1.53,2C47.67,6.46,48.92,7,49.9,7"/><path class="cls-1" d="M50,7H49.9"/><path class="cls-1" d="M50.63,7H50"/><path class="cls-1" d="M45.13,3.26a17.43,17.43,0,0,0-1.78-.07"/><path class="cls-1" d="M41.83,3.19l-.58,0"/><path class="cls-1" d="M46,7c.68-.32,1-.87,1.76-1.92.32-.46-.14-1.09-.56-1.26a6.24,6.24,0,0,0-2.07-.56"/><path class="cls-1" d="M41.83,3.19a15.47,15.47,0,0,0-5.76.21,1.34,1.34,0,0,0-1,1.77,2,2,0,0,0,1.54,1.41c.42.14.86.26,1.29.36"/><path class="cls-1" d="M44.62,7.3a22.08,22.08,0,0,1-4.67,0"/><path class="cls-1" d="M43.35,3.19c-.5,0-1,0-1.52,0"/><path class="cls-1" d="M41.83,3.19l.42,0"/><path class="cls-1" d="M38,6.94a17.08,17.08,0,0,0,2,.35"/><path class="cls-1" d="M46,7a3.49,3.49,0,0,1-.8.23l-.58.07"/><path class="cls-1" d="M44.62,7.3a3.39,3.39,0,0,0-.48.17c-.77.29-1.83,1-1.48,2.06A1.82,1.82,0,0,0,44,10.77l.33.05"/><path class="cls-1" d="M46,7a7.69,7.69,0,0,0-1.38.3"/><path class="cls-1" d="M50,7h.62"/><path class="cls-1" d="M50.91,11,53,10.87"/><path class="cls-1" d="M55.27,7.43a19.09,19.09,0,0,0-4-.4l-.67,0"/><path class="cls-1" d="M44.35,10.82a20.48,20.48,0,0,0,2.45.23"/><path class="cls-1" d="M55.27,7.43l.27,0c.71.12,1.21.23,1.44.94a2.06,2.06,0,0,1-1.76,2.36c-.76,0-1.51.06-2.25.1"/><path class="cls-1" d="M49.9,7h-.46A14.14,14.14,0,0,0,46,7"/><path class="cls-1" d="M50.91,11c-1.37.07-2.73.12-4.11.06"/><path class="cls-1" d="M50,7H49.9"/><path class="cls-1" d="M50.89,14.56c.63.12,1.3.17,1.91.24h0"/><path class="cls-1" d="M53,10.87a10.1,10.1,0,0,0-2.06.12"/><path class="cls-1" d="M56.1,10.59a9.37,9.37,0,0,1-3.13.28"/><path class="cls-1" d="M56.76,14.8a34.08,34.08,0,0,1-3.92,0"/><path class="cls-1" d="M50.89,14.56a2.84,2.84,0,0,1-2.1-1.26.58.58,0,0,1,0-.14"/><path class="cls-1" d="M48.68,12.76a.93.93,0,0,0,.06.4"/><path class="cls-1" d="M50.91,11a5.5,5.5,0,0,0-.88.25c-.52.24-1.3.81-1.35,1.52"/><path class="cls-1" d="M37.38,11.06a7.63,7.63,0,0,1,2.28-.34"/><path class="cls-1" d="M41.9,14.83c1.29,0,2.56-.11,3.84-.18"/><path class="cls-1" d="M37.25,14.65a1.81,1.81,0,0,0,.7.18l1,0"/><path class="cls-1" d="M48.74,13.16a1.52,1.52,0,0,1-1.18,1.38l-1.82.11"/><path class="cls-1" d="M41.9,14.83c-1,0-2,0-2.95,0"/><path class="cls-1" d="M37.38,11.06h0a2.57,2.57,0,0,0-1.24,1.24,1.85,1.85,0,0,0,1.13,2.35"/><path class="cls-1" d="M44.35,10.82c-.84,0-1.71.07-2.51,0s-1.46-.11-2.18-.11"/><path class="cls-1" d="M48.74,13.16a1.08,1.08,0,0,0-.06-.4"/><path class="cls-1" d="M48.68,12.76l0-.08a2.89,2.89,0,0,0-1.85-1.63"/><path class="cls-1" d="M46.8,11.05a8,8,0,0,0-2.45-.23"/><path class="cls-1" d="M45.74,14.65c-2.76-.15-3.18,0-3.84.18"/><path class="cls-1" d="M44.12,18.57l1.37.13"/><path class="cls-1" d="M40.35,16.05a1.16,1.16,0,0,0,0,.61,1.17,1.17,0,0,0,.06.2"/><path class="cls-1" d="M44.12,18.57l-.87-.08c-1.16-.17-2.43-.55-2.82-1.63"/><path class="cls-1" d="M40.35,16.05a1.54,1.54,0,0,1,1.18-1.11l.37-.11"/><path class="cls-1" d="M50.89,14.56c-.79,0-1.62,0-2.47,0a20.88,20.88,0,0,1-2.2.09l-.48,0"/><path class="cls-1" d="M49.57,18.84a34.92,34.92,0,0,1-4.08-.14"/><path class="cls-1" d="M55.06,16.47,55,16.4a4,4,0,0,0-2.17-1.59"/><path class="cls-1" d="M55.1,16.83a2,2,0,0,1-1.18,1.24,12.84,12.84,0,0,1-2.41.59"/><path class="cls-1" d="M50.89,14.56a6.91,6.91,0,0,1,2,.25"/><path class="cls-1" d="M51.51,18.66a17.93,17.93,0,0,1-1.94.18"/><path class="cls-1" d="M57.87,18.25a24.84,24.84,0,0,0-3.54.36,9.87,9.87,0,0,1-2.82.05"/><path class="cls-1" d="M48,20.22a.75.75,0,0,0,0,.62"/><path class="cls-1" d="M48,20.84a3.26,3.26,0,0,0,2.61,1.61"/><path class="cls-1" d="M48,20.22A2.77,2.77,0,0,1,49.26,19a2,2,0,0,1,.31-.12"/><path class="cls-1" d="M51.51,18.66a5.22,5.22,0,0,0-1.94.18"/><path class="cls-1" d="M50.58,22.45a9.43,9.43,0,0,0,1.29.09H52"/><path class="cls-1" d="M52,22.54c2-.05,3.55.22,5.56,0a8.47,8.47,0,0,0,2.83-.38,2.4,2.4,0,0,0,1.35-1.43"/><path class="cls-1" d="M48,20.84a1.43,1.43,0,0,0,0-.62"/><path class="cls-1" d="M38.51,18.48a3.61,3.61,0,0,0-1.95.35"/><path class="cls-1" d="M37.49,22.35a14.73,14.73,0,0,0,2.57.26"/><path class="cls-1" d="M36.56,18.83h0c-.71.47-1.71,1-1.48,1.95A1.73,1.73,0,0,0,36.18,22a10.47,10.47,0,0,0,1.31.33"/><path class="cls-1" d="M44.55,22.39c-1.51.11-3,.25-4.49.22"/><path class="cls-1" d="M44.55,22.39h.12a13.83,13.83,0,0,0,2.06-.3h0"/><path class="cls-1" d="M48,20.84a1.86,1.86,0,0,1-1.23,1.24"/><path class="cls-1" d="M48,20.22a2.54,2.54,0,0,0-2-1.44l-.42-.08"/><path class="cls-1" d="M44.12,18.57c-.87,0-1.74.06-2.69.09a28.31,28.31,0,0,1-2.92-.18"/><path class="cls-1" d="M44.12,18.57a9.32,9.32,0,0,1,1.37.13"/><path class="cls-1" d="M50.58,22.45c-.56-.05-1.09-.11-1.55-.19a10.65,10.65,0,0,0-2.29-.18"/><path class="cls-1" d="M44.55,22.39a10.71,10.71,0,0,1,2.19-.31"/><path class="cls-1" d="M50.58,22.45l1.43.09"/><path class="cls-1" d="M57,24.33c-.26,1.38-1.61,1.79-3,1.79-3.63,0-6.54.18-10-.15a2.3,2.3,0,0,1-1.71-1.35c-.41-.89.65-1.83,1.42-2,.27-.08.54-.16.82-.22"/><path class="cls-1" d="M52,22.54c2.46.13,5,.27,5,1.6"/><path class="cls-1" d="M40.67.8a.16.16,0,0,1,0,.07.87.87,0,0,1-.08.85"/><path class="cls-1" d="M40.63,1.72a2.58,2.58,0,0,1-1.39,1.09A20.77,20.77,0,0,1,35,3.26"/><path class="cls-1" d="M40.67.8C39.6-1.08,37.13-.74,35-.74"/><path class="cls-1" d="M38,6.94a6.76,6.76,0,0,1,2,.35"/><path class="cls-1" d="M39.66,10.72l.52-.13c.77-.18,1.71-1.12,1.3-1.88A2.6,2.6,0,0,0,40,7.29"/><path class="cls-1" d="M35,11.12c.81,0,1.61,0,2.4-.06"/><path class="cls-1" d="M35,6.83l.78,0c.68,0,1.44,0,2.19.06"/><path class="cls-1" d="M37.38,11.06a15.87,15.87,0,0,0,2.28-.34"/><path class="cls-1" d="M35,14a1.32,1.32,0,0,0,.49-1.43,3.1,3.1,0,0,0-.49-.73"/><path class="cls-1" d="M40.35,16.05v0a1,1,0,0,1,.07.79"/><path class="cls-1" d="M40.43,16.86a2.67,2.67,0,0,1-1.54,1.51l-.38.11"/><path class="cls-1" d="M37.25,14.65a4.68,4.68,0,0,1,1.7.21"/><path class="cls-1" d="M40.35,16.05A2.54,2.54,0,0,0,39,14.86"/><path class="cls-1" d="M35,18.92c.53,0,1.06,0,1.58-.09"/><path class="cls-1" d="M36.56,18.83a13.31,13.31,0,0,0,1.95-.35"/><path class="cls-1" d="M37.25,14.65c-.73,0-1.51.12-2.27.18"/><path class="cls-1" d="M37.49,22.35a6.39,6.39,0,0,1,2.57.26"/><path class="cls-1" d="M35,22.5h.37c.67,0,1.41-.1,2.14-.14"/><path class="cls-1" d="M35,26.33a15,15,0,0,0,5-.61c.77-.41,2-1,1.55-1.93a2.73,2.73,0,0,0-1.42-1.18"/><rect class="cls-2" x="34.98" y="-27.8" width="54.13" height="54.13"/><path class="cls-1" d="M52.72,30.47c-1.19-.33-2.35-.92-2.24-1.88.7-1.77,2.2-2.19,3.85-2.26"/><path class="cls-1" d="M54.86,30.79l-.73,0a12.51,12.51,0,0,1-1.41-.28"/><path class="cls-1" d="M54.33,26.33c.41,0,.83,0,1.25,0"/><path class="cls-1" d="M44.56,26.33h0c.46,0,1,0,1.49,0"/><path class="cls-1" d="M44.22,26.33a1.87,1.87,0,0,0,.34,0"/><path class="cls-1" d="M43.5,26.33l.42,0a1.33,1.33,0,0,1,.3,0"/><path class="cls-1" d="M38.93,26.33a10.77,10.77,0,0,1,2.73,0"/><path class="cls-1" d="M41.66,26.33a14.12,14.12,0,0,0,1.84,0"/><path class="cls-1" d="M38.93,26.33c-.87.19-1.44.76-1.51,2.21,0,.53.8,1.32,1.59,1.59,3.27,1.15,6.72.17,10.25-.18.71,0,1-.66,1.15-1.59,0-1.46-2.22-1.94-4.34-2"/><path class="cls-1" d="M53.55,34.19c1-.13,1.87-.28,2.7-.44.53-.1,1.43-.68,1.44-1.32"/><path class="cls-1" d="M46.72,34.47a23.38,23.38,0,0,0,4,0"/><path class="cls-1" d="M45,34.13a2.77,2.77,0,0,1-2-1.62c-.09-1.76,4.55-2.52,7-2.34h.26a20.07,20.07,0,0,1,2.44.3"/><path class="cls-1" d="M53.55,34.19c-.92.12-1.87.23-2.81.29"/><path class="cls-1" d="M54.86,30.79c-.82-.1-1.51-.21-2.14-.32"/><path class="cls-1" d="M46.72,34.47a9.13,9.13,0,0,1-1.7-.34"/><path class="cls-1" d="M48.93,36.51a2.41,2.41,0,0,1,1.81-2"/><path class="cls-1" d="M48.91,36.73c.06.6.87,1.06,1.65,1.28"/><path class="cls-1" d="M53.55,34.19a9.34,9.34,0,0,0-2.81.29"/><path class="cls-1" d="M53.37,38.17c-.83-.05-1.67-.09-2.51-.09l-.3-.07"/><path class="cls-1" d="M48.91,36.73v-.06c0-.06,0-.11,0-.16"/><path class="cls-1" d="M57.73,38.32c-1.44,0-2.89-.06-4.36-.15"/><path class="cls-1" d="M60,38.09q.6-.11,1.2-.27c.7-.18,1.49-.76,1.26-1.57-.6-2.1-3.12-2.23-6.48-2.06-.72,0-1.57,0-2.43,0"/><path class="cls-1" d="M45,34.13c-.84-.06-1.71,0-2.56,0s-2.07-.06-3.12,0"/><path class="cls-1" d="M37.07,38.12l.26.05.47,0"/><path class="cls-1" d="M37.32,34.36a2.28,2.28,0,0,0-1.67,2.31c0,.47.71,1.23,1.42,1.45"/><path class="cls-1" d="M45.06,37.87c-.8.05-1.6.08-2.39.11"/><path class="cls-1" d="M39.34,34.07a7,7,0,0,0-2,.29"/><path class="cls-1" d="M48.91,36.73a1.52,1.52,0,0,1-1.15.91c-.91.1-1.81.17-2.7.23"/><path class="cls-1" d="M46.72,34.47a3.63,3.63,0,0,1,2.1,1.76.52.52,0,0,1,.11.28"/><path class="cls-1" d="M48.91,36.73a.57.57,0,0,0,0-.22"/><path class="cls-1" d="M46.72,34.47a6.66,6.66,0,0,0-1.7-.34"/><path class="cls-1" d="M42.67,38c-1.61.06-3.22.09-4.87.17"/><path class="cls-1" d="M40.54,39.52a4.09,4.09,0,0,0-.16.46,1.14,1.14,0,0,0,0,.81"/><path class="cls-1" d="M40.54,39.52a2.55,2.55,0,0,1,2-1.48l.17-.06"/><path class="cls-1" d="M45.06,37.87l-.27,0a13.79,13.79,0,0,0-2.12.13"/><path class="cls-1" d="M55.28,39.86h0a2.16,2.16,0,0,0-1.91-1.68"/><path class="cls-1" d="M41.83,41.67a2.15,2.15,0,0,1-.76-.23,1.74,1.74,0,0,1-.64-.65"/><path class="cls-1" d="M45.06,37.87a24.85,24.85,0,0,1,2.85,0,17.34,17.34,0,0,0,2.65.1"/><path class="cls-1" d="M53.37,38.17A13.91,13.91,0,0,0,50.56,38"/><path class="cls-1" d="M55.24,40.28a2,2,0,0,1-1.6,1.21c-3.4.48-5.86.08-9.28.08a8.24,8.24,0,0,0-1.22.07"/><path class="cls-1" d="M41.83,41.67a5.26,5.26,0,0,0,1.31,0"/><path class="cls-1" d="M49.46,45.8c-1.23-.23-2.39-.78-2.4-1.88v-.06"/><path class="cls-1" d="M60.11,45.55a2.14,2.14,0,0,0,1.65-2.16c-.65-2.21-5.13-1.54-7.78-1.54-1.77,0-3.54-.35-5.13.3-.65.28-1.41.55-1.69,1.19"/><path class="cls-1" d="M50,45.88l-.31,0"/><path class="cls-1" d="M54,46l-2.77,0"/><path class="cls-1" d="M50,45.88a9.62,9.62,0,0,0,1.18,0"/><path class="cls-1" d="M54,46c1.53,0,3,0,4.6-.1l.26,0"/><path class="cls-1" d="M47.16,43.34a1.38,1.38,0,0,0-.1.52"/><path class="cls-1" d="M49.46,45.8l.26,0"/><path class="cls-1" d="M37.76,45.79a18.49,18.49,0,0,0,2.58.09"/><path class="cls-1" d="M38.06,41.8H38a6.35,6.35,0,0,0-1.17.18"/><path class="cls-1" d="M37.76,45.79a11.16,11.16,0,0,1-1.58-.28A1.79,1.79,0,0,1,35,44.29s0-.08,0-.12"/><path class="cls-1" d="M45.75,45.56l.1-.05a2.56,2.56,0,0,0,1.21-1.65"/><path class="cls-1" d="M36.84,42a1.22,1.22,0,0,0-.36.18c-.67.46-1.43,1-1.5,1.76"/><path class="cls-1" d="M43.14,41.64c1.84,0,3.67.45,4,1.7"/><path class="cls-1" d="M44.28,46a24.14,24.14,0,0,1-3.38-.12l-.56,0"/><path class="cls-1" d="M35,43.91a1.13,1.13,0,0,0,0,.26"/><path class="cls-1" d="M41.83,41.67l-.7.07a14.33,14.33,0,0,1-3.07.06"/><path class="cls-1" d="M43.14,41.64c-.44,0-.89,0-1.31,0"/><path class="cls-1" d="M47.06,43.86c0-.14.08-.28.13-.43l0-.09"/><path class="cls-1" d="M45.75,45.56a4.4,4.4,0,0,1-1.47.42"/><path class="cls-1" d="M50.67,49.81a30.12,30.12,0,0,1-5-.13"/><path class="cls-1" d="M50,45.88l-.18,0-.13,0"/><path class="cls-1" d="M49.72,45.84l-.26,0"/><path class="cls-1" d="M45.75,45.56a12.32,12.32,0,0,1,3.71.24"/><path class="cls-1" d="M45.64,49.68a9.6,9.6,0,0,1-1-.18"/><path class="cls-1" d="M45.75,45.56a5.15,5.15,0,0,0-1.2.3l-.27.12"/><path class="cls-1" d="M44.28,46c-.87.42-1.75,1.34-1.38,2.36a1.7,1.7,0,0,0,1,1l.69.16"/><path class="cls-1" d="M50,45.88a3.09,3.09,0,0,1,1.18,0"/><path class="cls-1" d="M50.67,49.81c1.06,0,2.13-.08,3.19-.06a4,4,0,0,0,1-.13"/><path class="cls-1" d="M54.88,49.62c1.1-.27,2.08-1,2-2-.06-.77-1-1.36-1.95-1.47L54,46"/><path class="cls-1" d="M54,46a8.29,8.29,0,0,0-2.77,0"/><path class="cls-1" d="M50.67,49.81a4.19,4.19,0,0,1,1.19-.18,27.61,27.61,0,0,0,3,0"/><path class="cls-1" d="M56.84,53.83a25.48,25.48,0,0,1-5.69-.43c-.94-.12-2.06-.53-2.24-1.41-.26-1.12.68-1.87,1.76-2.18"/><path class="cls-1" d="M43.07,53.41a20.39,20.39,0,0,0,3.13.11h.17"/><path class="cls-1" d="M44.59,49.5a9.67,9.67,0,0,0-2.16-.1c-.58,0-1.23,0-1.9.05"/><path class="cls-1" d="M46.37,53.51c1.31-.09,2.82-.6,2.42-2.58A1.42,1.42,0,0,0,47.67,50c-.69-.09-1.36-.23-2-.36"/><path class="cls-1" d="M43.07,53.41c-.47,0-.93-.07-1.41-.07-2,.11-5.25.2-5.82-1.15"/><path class="cls-1" d="M35.94,51.29a2.59,2.59,0,0,1,1.71-1.48"/><path class="cls-1" d="M45.64,49.68c-.35-.06-.7-.13-1-.18"/><path class="cls-1" d="M35.84,52.19a1.11,1.11,0,0,1-.07-.26,3.49,3.49,0,0,1,.17-.64"/><path class="cls-1" d="M40.53,49.45a10.19,10.19,0,0,0-2.88.36"/><path class="cls-1" d="M43.07,53.41a3.83,3.83,0,0,1,.83-.07c1,0,1.68.14,2.47.17"/><path class="cls-1" d="M55.46,55.39a.9.9,0,0,0-.23-.47c-1.77-2-4.62-1.12-7.16-1.41l-.51,0a6.14,6.14,0,0,1-1.19,0"/><path class="cls-1" d="M40.67,54.92a3.49,3.49,0,0,1,2.4-1.51"/><path class="cls-1" d="M35,30.29a8,8,0,0,0,.84-.22c.65-.3,1.77-1.18,1.36-2.06a2.23,2.23,0,0,0-1.83-1.36l-.37,0"/><path class="cls-1" d="M39.34,34.07l2.14-.41c.52-.1,1.41-.88,1.41-1.41-.17-.89-1.32-1.5-2.38-1.68-1.24,0-2.39-.35-3.71-.35a11.1,11.1,0,0,0-1.82.15"/><path class="cls-1" d="M39.34,34.07c-.66.11-1.34.21-2,.29"/><path class="cls-1" d="M35,34.52a18.91,18.91,0,0,0,2.34-.16"/><path class="cls-1" d="M35,37.07A1.59,1.59,0,0,0,35.47,36,1.16,1.16,0,0,0,35,35"/><path class="cls-1" d="M35,38.07h.25"/><path class="cls-1" d="M40.43,40.79a1,1,0,0,0,.23-1.06l-.12-.21"/><path class="cls-1" d="M38.06,41.8c-.41.07-.81.13-1.22.17"/><path class="cls-1" d="M37.8,38.15a3.22,3.22,0,0,1,2.74,1.37"/><path class="cls-1" d="M35,42.07c.62,0,1.24,0,1.86-.1"/><path class="cls-1" d="M35,38.06c.66.06,1.38,0,2.09.06"/><path class="cls-1" d="M38.06,41.8a13.27,13.27,0,0,0,1.48-.36,2.39,2.39,0,0,0,.89-.65"/><path class="cls-1" d="M37.8,38.15c-.24,0-.48,0-.73,0"/><path class="cls-1" d="M35,49.87c.89,0,1.77,0,2.67-.06"/><path class="cls-1" d="M37.65,49.81c.6,0,1.21-.05,1.83-.06a3.13,3.13,0,0,0,1.05-.3"/><path class="cls-1" d="M37.76,45.79c.52,0,1.05,0,1.6,0a2.71,2.71,0,0,1,1,.14"/><path class="cls-1" d="M40.53,49.45c.91-.43,1.62-1.26,1.36-2.12a2.24,2.24,0,0,0-1.55-1.45"/><path class="cls-1" d="M37.76,45.79c-.94,0-1.85,0-2.78,0"/><path class="cls-1" d="M35.84,52.19a1.35,1.35,0,0,0,.1-.9"/><path class="cls-1" d="M35,53a2,2,0,0,0,.86-.85"/><path class="cls-1" d="M35,50.33a1.84,1.84,0,0,1,1,1h0"/><path class="cls-1" d="M40.67,54.92c-1.07-1.87-3.54-1.53-5.69-1.53"/><line class="cls-1" x1="34.98" y1="38.06" x2="34.98" y2="38.07"/><line class="cls-1" x1="34.98" y1="30.37" x2="34.98" y2="30.29"/><line class="cls-1" x1="34.98" y1="44.17" x2="34.98" y2="43.91"/><rect class="cls-2" x="34.98" y="26.33" width="54.13" height="54.13"/><path class="cls-1" d="M32,3.2l-.81,0"/><path class="cls-1" d="M28.37,1.07c.07-.55.64-.88,1.24-1.2a4.87,4.87,0,0,1,1.06-.34"/><path class="cls-1" d="M28.43,1.58C28.73,2.7,30,3.17,31.2,3.17"/><path class="cls-1" d="M28.37,1.07a1.18,1.18,0,0,0,.06.51"/><path class="cls-1" d="M32,3.2c1,0,2,.07,3,.06"/><path class="cls-1" d="M14.64,1.29a1.7,1.7,0,0,1,0-.22"/><path class="cls-1" d="M14.68,1.07A2.69,2.69,0,0,1,16.06-.31a5.09,5.09,0,0,1,1.58-.35"/><path class="cls-1" d="M18.35,3.22c.65.06,1.29.11,1.92.13"/><path class="cls-1" d="M19.82-.68a13.3,13.3,0,0,0,1.89-.1c2-.3,4.76,0,5.69.82.43.4.82.63,1,1"/><path class="cls-1" d="M28.43,1.58a1.16,1.16,0,0,0-.06-.51"/><path class="cls-1" d="M14.64,1.29a1.4,1.4,0,0,0,0,.29c.12.82,1.12,1.23,2,1.41.57.09,1.14.17,1.7.23"/><path class="cls-1" d="M28.43,1.58a2.07,2.07,0,0,1-1.18,1.06,27.6,27.6,0,0,1-7,.71"/><path class="cls-1" d="M9,3.28a13.88,13.88,0,0,0,2.48-.15"/><path class="cls-1" d="M2.72-.3A1.76,1.76,0,0,0,1.34,1.27"/><path class="cls-1" d="M1.33,1.5a1.09,1.09,0,0,0,.7,1c2.24.82,4.53.72,7,.76"/><path class="cls-1" d="M1.34,1.27a1.15,1.15,0,0,0,0,.19v0"/><path class="cls-1" d="M14.64,1.29v0c-.18.53-.24.85-.88,1.14a8.37,8.37,0,0,1-2.23.66"/><path class="cls-1" d="M14.68,1.07c.11-1-1.26-1.6-2.29-1.72"/><path class="cls-1" d="M14.64,1.29a.85.85,0,0,0,0-.22"/><path class="cls-1" d="M1.33,1.5C1.18,2.28-.19,3-1.15,3.11l-.7.1"/><path class="cls-1" d="M1.33,1.5a.91.91,0,0,0,0-.23"/><path class="cls-1" d="M1.34,1.27A.9.9,0,0,0,1.11.8C-.66-1.21-3.52-.32-6-.62l-.52,0a8.23,8.23,0,0,1-1.19.05"/><path class="cls-1" d="M22.52,5.18c.07.77,1.05,1.36,1.79,1.7a6,6,0,0,0,1.23.27"/><path class="cls-1" d="M26.86,7.18H27c2.41-.17,4.77-.06,7-.76.47-.12,1.12-.65.88-1.24A3.42,3.42,0,0,0,32,3.2"/><path class="cls-1" d="M22.6,4.7a1.06,1.06,0,0,0-.08.48"/><path class="cls-1" d="M22.6,4.7c1.12-2.53,4-1.18,6.24-1.53.76-.12,1.71.17,2.36,0"/><path class="cls-1" d="M32,3.2a5.49,5.49,0,0,0-.81,0"/><path class="cls-1" d="M26.86,7.18a8.32,8.32,0,0,1-1.32,0"/><path class="cls-1" d="M7.52,5.19v0a1,1,0,0,1,0-.41"/><path class="cls-1" d="M11.52,3.13c1.27,0,2.52,0,3.77,0"/><path class="cls-1" d="M10.2,6.9l.14,0a30,30,0,0,0,4,.48"/><path class="cls-1" d="M22.52,5.18C22.19,6.38,21,6.8,19.8,7.07"/><path class="cls-1" d="M18.35,3.22a13,13,0,0,1-3.41-.05"/><path class="cls-1" d="M22.6,4.7a3.16,3.16,0,0,0-2.33-1.35"/><path class="cls-1" d="M18,7.33c.52-.06,1-.13,1.58-.22l.21,0"/><path class="cls-1" d="M22.6,4.7a2.41,2.41,0,0,1-.08.48"/><path class="cls-1" d="M20.27,3.35a5.83,5.83,0,0,0-.79-.12,8.54,8.54,0,0,0-1.13,0"/><path class="cls-1" d="M7.49,4.76A2.2,2.2,0,0,1,9,3.28"/><path class="cls-1" d="M18,7.33a25.13,25.13,0,0,1-3.67.09"/><path class="cls-1" d="M11.52,3.13c-.82,0-1.64.06-2.48.15"/><path class="cls-1" d="M7.52,5.19C7.92,6.25,9,6.62,10.2,6.9"/><path class="cls-1" d="M7.52,5.19A2.3,2.3,0,0,1,5.92,7"/><path class="cls-1" d="M1.14,7.43a14.68,14.68,0,0,0,3.18-.08"/><path class="cls-1" d="M-1.85,3.21c.93.06,1.85.17,2.6.15,1.64,0,2.93-.49,4.76-.08.82.24,1.71.65,1.94,1.36a.56.56,0,0,1,0,.12"/><path class="cls-1" d="M1.14,7.43C-.38,7.32-1.92,7.08-3.49,7"/><path class="cls-1" d="M5.92,7,5.8,7a8.82,8.82,0,0,1-1.48.35"/><path class="cls-1" d="M7.52,5.19a1.59,1.59,0,0,0,0-.43"/><path class="cls-1" d="M29.15,8.59a2.58,2.58,0,0,1,1.46-1.42A11.74,11.74,0,0,1,35,6.83"/><path class="cls-1" d="M29.09,9.08a.86.86,0,0,0,.05.27A3,3,0,0,0,31.67,11"/><path class="cls-1" d="M33.66,11.1l1.32,0"/><path class="cls-1" d="M31.67,11a3.55,3.55,0,0,0,.47.06l1.52,0"/><path class="cls-1" d="M29.15,8.59a1.35,1.35,0,0,0-.06.49"/><path class="cls-1" d="M26.33,11l.69-.24c.84-.37,1.81-.9,2.07-1.69"/><path class="cls-1" d="M24.49,11.4A9.89,9.89,0,0,0,26.33,11"/><path class="cls-1" d="M26.86,7.18l.86.05a1.77,1.77,0,0,1,1.4,1.17.63.63,0,0,1,0,.19"/><path class="cls-1" d="M29.09,9.08a1.32,1.32,0,0,0,.06-.49"/><path class="cls-1" d="M25.54,7.15c-1.38,0-2.74,0-4.18,0-.52,0-1.05-.05-1.56,0"/><path class="cls-1" d="M20.12,11.18c-.77-.14-1.53-.32-2.29-.53a1.9,1.9,0,0,1-1.36-1.12c-.39-1,.72-1.92,1.54-2.2"/><path class="cls-1" d="M26.86,7.18l-1.32,0"/><path class="cls-1" d="M18,7.33l.11,0a6.19,6.19,0,0,1,1.68-.22"/><path class="cls-1" d="M24.49,11.4a13.69,13.69,0,0,1-3,0"/><path class="cls-1" d="M21.49,11.38c-.45-.05-.91-.12-1.37-.2"/><path class="cls-1" d="M4.32,7.35A2,2,0,0,0,3,9.53a1.7,1.7,0,0,0,1.29,1.06h0"/><path class="cls-1" d="M10.2,6.9a29.37,29.37,0,0,1,3.85.45l.29.07"/><path class="cls-1" d="M11.47,11.19a6.56,6.56,0,0,0,1.9-.21"/><path class="cls-1" d="M13.37,11a9.09,9.09,0,0,1,1.27-.21c1.89-.12,1.65-1.06,1.65-1.89s-1.07-1.22-1.95-1.46"/><path class="cls-1" d="M6.66,10.93a10,10,0,0,1-2.29-.33"/><path class="cls-1" d="M6.66,10.93a32.07,32.07,0,0,1,4.74.25h.07"/><path class="cls-1" d="M5.92,7a4.81,4.81,0,0,0-1.47.33l-.13.06"/><path class="cls-1" d="M5.92,7c.93-.07,1.89.06,2.89,0a13.13,13.13,0,0,1,1.39,0"/><path class="cls-1" d="M1.14,7.43a19.09,19.09,0,0,0-4-.4l-.66,0"/><path class="cls-1" d="M1.14,7.43l.27,0c.71.12,1.21.23,1.45.94a2.07,2.07,0,0,1-1.77,2.36c-.76,0-1.5.06-2.25.1"/><path class="cls-1" d="M26.33,11a5.9,5.9,0,0,0-1.84.39"/><path class="cls-1" d="M24.49,11.4a2.11,2.11,0,0,0-1.42,1.9c1,1.48,3.11,1.43,4.38,1.55.87.08,1.73.13,2.58.13"/><path class="cls-1" d="M26.33,11a18.56,18.56,0,0,1,2.66.08A17.2,17.2,0,0,0,31.67,11"/><path class="cls-1" d="M32.49,14.78a11.56,11.56,0,0,0,1.95-.48A1.45,1.45,0,0,0,35,14"/><path class="cls-1" d="M33.66,11.1a2.58,2.58,0,0,1,1.32.78"/><path class="cls-1" d="M31.67,11a6.84,6.84,0,0,1,2,.1"/><path class="cls-1" d="M32.49,14.78A15.7,15.7,0,0,1,30,15"/><path class="cls-1" d="M9.87,14.55a3.12,3.12,0,0,0,.53.11c.64.06,1.26.1,1.89.14"/><path class="cls-1" d="M11.47,11.19l-2,.23c-.67.07-1.65.82-1.36,1.71a2.45,2.45,0,0,0,1.71,1.42"/><path class="cls-1" d="M16.91,14.89a36.72,36.72,0,0,0,3.72-.34"/><path class="cls-1" d="M11.47,11.19c.66-.08,1.28-.16,1.9-.21"/><path class="cls-1" d="M21.49,11.38l-.13,0c-.28-.06-.72-.12-1.24-.18"/><path class="cls-1" d="M20.12,11.18a34.37,34.37,0,0,0-4.89-.29h.12c-.69,0-1.34,0-2,.09"/><path class="cls-1" d="M21.49,11.38A2,2,0,0,1,23,12.54c.32.94-.65,1.7-1.24,1.82l-1.14.19"/><path class="cls-1" d="M16.91,14.89c-1.54,0-3.06,0-4.62-.09"/><path class="cls-1" d="M2,10.59a9.34,9.34,0,0,1-3.13.28"/><path class="cls-1" d="M2.63,14.8a33.91,33.91,0,0,1-3.91,0"/><path class="cls-1" d="M2.63,14.8c.78-.05,1.54-.11,2.27-.19"/><path class="cls-1" d="M6.66,10.93c.78.28,1.2.75,1.15,1.49s-.44,1.89-1.3,2l-1.61.19"/><path class="cls-1" d="M1.62,10.71c1-.08,1.94-.12,2.75-.11"/><path class="cls-1" d="M6.66,10.93a7.41,7.41,0,0,0-2.29-.33"/><path class="cls-1" d="M31.88,18.8c1,.08,2.08.14,3.1.12"/><path class="cls-1" d="M32.49,14.78l1,.07a10,10,0,0,0,1.44,0"/><path class="cls-1" d="M27.82,17.12a3.61,3.61,0,0,0,2.32,1.48"/><path class="cls-1" d="M32.49,14.78A8.59,8.59,0,0,0,30,15"/><path class="cls-1" d="M27.9,16.73l-.12.34,0,.05"/><path class="cls-1" d="M27.9,16.73A2.92,2.92,0,0,1,30,15"/><path class="cls-1" d="M31.88,18.8,31,18.72a5.53,5.53,0,0,1-.83-.12"/><path class="cls-1" d="M17,18.62a8.13,8.13,0,0,0,1,0c.79,0,1.57,0,2.35,0"/><path class="cls-1" d="M27.9,16.73a1,1,0,0,1-.08.39"/><path class="cls-1" d="M20.63,14.55a25.47,25.47,0,0,0-3.72.34"/><path class="cls-1" d="M16.91,14.89a6.08,6.08,0,0,0-1,.3c-.65.29-1.65,1.06-1.41,1.88.27,1.1,1.39,1.49,2.54,1.55"/><path class="cls-1" d="M27.9,16.73a.89.89,0,0,0-.06-.31A3.18,3.18,0,0,0,26,14.89a13.74,13.74,0,0,0-5.19-.35h-.14"/><path class="cls-1" d="M27.82,17.12a2.19,2.19,0,0,1-1.16,1.07,18.43,18.43,0,0,1-6.31.43"/><path class="cls-1" d="M.93,16.47a.89.89,0,0,0,0,.36"/><path class="cls-1" d="M1,16.83,1,17a2.67,2.67,0,0,0,2.71,1.29"/><path class="cls-1" d="M.93,16.47A2.27,2.27,0,0,1,2.21,15l.42-.15"/><path class="cls-1" d="M2.63,14.8a6.62,6.62,0,0,1,2.27-.19"/><path class="cls-1" d="M3.74,18.25c4.66-.09,4.7.75,8.06,0,.62-.15,2.43-.4,2.52-1.2.14-1.24-.77-1.89-2-2.21"/><path class="cls-1" d="M12.29,14.8a10.51,10.51,0,0,0-2.42-.25"/><path class="cls-1" d="M4.9,14.61a19.84,19.84,0,0,0,2.67.05,20.27,20.27,0,0,1,2.3-.11"/><path class="cls-1" d="M.93,16.47.88,16.4a4,4,0,0,0-2.16-1.59"/><path class="cls-1" d="M1,16.83A2,2,0,0,1-.21,18.07a12.66,12.66,0,0,1-2.41.59"/><path class="cls-1" d="M1,16.83a.55.55,0,0,0,0-.36"/><path class="cls-1" d="M22.42,20.3a4,4,0,0,0,0,.49s0,0,0,.06"/><path class="cls-1" d="M32,22.42c.41-.09.8-.21,1.23-.34,1-.29,1.71-1,1.61-1.84-.08-.66-1.41-1.17-3-1.44"/><path class="cls-1" d="M31.88,18.8a14.25,14.25,0,0,0-1.74-.2"/><path class="cls-1" d="M26.56,22.68a9,9,0,0,1-2.22-.29"/><path class="cls-1" d="M26.56,22.68c1.47,0,2.93-.15,4.44-.13"/><path class="cls-1" d="M31,22.55h.14a6,6,0,0,0,.89-.13"/><path class="cls-1" d="M22.43,20.85c.1.62.9,1.18,1.64,1.47l.27.07"/><path class="cls-1" d="M22.42,20.3c.23-2.17,3.55-1.75,5.48-1.69l-.06.05a12.16,12.16,0,0,1,2.3-.06"/><path class="cls-1" d="M7.54,20.26c.15-.57,1-1,1.52-1.35,1.29-.8,7-.22,7-.22l.92-.07"/><path class="cls-1" d="M18.33,22.69a23.15,23.15,0,0,1-3.63,0"/><path class="cls-1" d="M17,18.62a11.15,11.15,0,0,1,3.23,0h.11"/><path class="cls-1" d="M7.54,20.26a.73.73,0,0,0,0,.41.93.93,0,0,1,0,.1"/><path class="cls-1" d="M22.43,20.85a1,1,0,0,0,0-.55"/><path class="cls-1" d="M18.33,22.69a14.61,14.61,0,0,0,2-.33"/><path class="cls-1" d="M11.75,22.47c-.46,0-.94-.07-1.41-.09a3.28,3.28,0,0,1-2.72-1.61"/><path class="cls-1" d="M22.42,20.3a.52.52,0,0,0-.06-.16,2.89,2.89,0,0,0-2-1.52"/><path class="cls-1" d="M11.75,22.47c1,.07,2,.16,2.95.22"/><path class="cls-1" d="M22.43,20.85a2,2,0,0,1-1.36,1.29l-.76.22"/><path class="cls-1" d="M3.74,18.25a24.55,24.55,0,0,0-3.53.36,9.94,9.94,0,0,1-2.83.05"/><path class="cls-1" d="M7.54,20.26l0,0a.92.92,0,0,1,0,.46"/><path class="cls-1" d="M3.74,18.25c1.46.18,3.14.58,3.8,2"/><path class="cls-1" d="M-2.12,22.54c2-.05,3.55.22,5.57,0a8.54,8.54,0,0,0,2.83-.38,2.41,2.41,0,0,0,1.34-1.43"/><path class="cls-1" d="M31,22.55a2.42,2.42,0,0,0-1.95,1.79"/><path class="cls-1" d="M33.79,26.33h-.88A4.72,4.72,0,0,1,29,24.79"/><path class="cls-1" d="M29.05,24.34c0,.13-.06.26-.09.39l0,.06"/><path class="cls-1" d="M31,22.55a4.92,4.92,0,0,1,1-.13"/><path class="cls-1" d="M32,22.42c1-.05,2,.07,2.95.08"/><path class="cls-1" d="M26.56,22.68a5,5,0,0,1,2.34,1.41.51.51,0,0,1,.15.25"/><path class="cls-1" d="M26.56,22.68a9.37,9.37,0,0,0-2.22-.29"/><path class="cls-1" d="M16.27,24.13a1.11,1.11,0,0,0,0,.54"/><path class="cls-1" d="M24.34,22.39c-.55,0-1.12,0-1.71,0l-.84-.14c-.54,0-1,.05-1.48.09"/><path class="cls-1" d="M18.33,22.69a8.9,8.9,0,0,1,2-.33"/><path class="cls-1" d="M18.33,22.69a7.18,7.18,0,0,0-.74.25,2.08,2.08,0,0,0-1.32,1.19"/><path class="cls-1" d="M29,24.79a2,2,0,0,1-1.39,1.06,29.92,29.92,0,0,1-10.26-.11,1.56,1.56,0,0,1-1.06-1.07"/><path class="cls-1" d="M29,24.79a.65.65,0,0,0,.05-.45"/><path class="cls-1" d="M14.28,26.33a10.79,10.79,0,0,1-2.54,0"/><path class="cls-1" d="M5.92,26.33a13.09,13.09,0,0,0,2,0"/><path class="cls-1" d="M16.29,24.67A1.85,1.85,0,0,1,15.34,26a3.47,3.47,0,0,1-1.06.34"/><path class="cls-1" d="M11.75,22.47a7.17,7.17,0,0,1,2.72.14l.23.08"/><path class="cls-1" d="M11.74,26.33l-.34,0a18.6,18.6,0,0,0-3.5,0"/><path class="cls-1" d="M16.29,24.67a1.09,1.09,0,0,0,0-.54"/><path class="cls-1" d="M2.89,24.33c-.06.86,1,1.54,1.74,1.76a6.37,6.37,0,0,0,1.29.24"/><path class="cls-1" d="M14.7,22.69a2.37,2.37,0,0,1,1.57,1.44"/><path class="cls-1" d="M2.89,24.33a.68.68,0,0,1,0-.19"/><path class="cls-1" d="M2.92,24.14c.65-2.65,3.8-1.14,5.92-1.29.95-.07,1.92-.28,2.91-.38"/><path class="cls-1" d="M2.89,24.33c-.27,1.38-1.62,1.79-3,1.79-3.62,0-6.54.18-10-.15a2.27,2.27,0,0,1-1.7-1.35c-.42-.89.64-1.83,1.41-2,.27-.08.55-.16.82-.22"/><path class="cls-1" d="M-2.12,22.54c2.46.13,5,.27,5,1.6"/><path class="cls-1" d="M2.89,24.33l0-.19"/><rect class="cls-2" x="-19.15" y="-27.8" width="54.13" height="54.13"/><path class="cls-1" d="M32.18,26.33c-.36,0-.72,0-1.1,0-1.06,0-2.07-.07-3.15,0"/><path class="cls-1" d="M26.54,30.13a7.05,7.05,0,0,0,2.45.34"/><path class="cls-1" d="M27.93,26.33a9.36,9.36,0,0,0-1.85.35A1.58,1.58,0,0,0,25,28.77a3.09,3.09,0,0,0,1.42,1.3l.17.06"/><path class="cls-1" d="M29,30.47c1,0,1.94-.11,2.92,0A10.56,10.56,0,0,0,35,30.29"/><path class="cls-1" d="M32.18,26.33c.93.05,1.83.16,2.8.28"/><path class="cls-1" d="M22.55,30c-.89.16-1.76.28-2.62.37"/><path class="cls-1" d="M15.6,30.61a41.85,41.85,0,0,0,4.33-.22"/><path class="cls-1" d="M15.6,30.61c-.95,0-1.92,0-2.9-.07a3,3,0,0,1-1-.19"/><path class="cls-1" d="M11.69,30.35a2.25,2.25,0,0,1-1.58-1.81,1.64,1.64,0,0,1,1.12-1.71c1.88-.71,4.14-.33,6.27-.33,2.83,0,5.75-.85,7.22,1.68.35.59-.47,1.53-1.18,1.65-.33.07-.66.14-1,.19"/><path class="cls-1" d="M6.53,30.22c-.48.11-1,.21-1.43.29"/><path class="cls-1" d="M-1.41,30.47c-1.19-.33-2.34-.92-2.23-1.88.7-1.77,2.2-2.19,3.84-2.26"/><path class="cls-1" d="M.74,30.79l-.74,0a13,13,0,0,1-1.41-.28"/><path class="cls-1" d="M.2,26.33c.42,0,.84,0,1.26,0"/><path class="cls-1" d="M6.57,26.33a17.2,17.2,0,0,0-1.9,0"/><path class="cls-1" d="M1.46,26.33c.66,0,1.32.05,1.94,0l1.27,0"/><path class="cls-1" d="M.74,30.79a20.37,20.37,0,0,0,4.36-.28"/><path class="cls-1" d="M6.53,30.22c.79-.17,1.59-.39,2.4-.62.62-.09,1.28-.84,1-1.28-.62-1.46-1.91-1.89-3.37-2"/><path class="cls-1" d="M32.57,34.28a2.34,2.34,0,0,1-2-1.94,2.11,2.11,0,0,1,2.17-1.73A16,16,0,0,0,35,30.36"/><path class="cls-1" d="M33.9,34.49a9.47,9.47,0,0,0,1.08,0"/><path class="cls-1" d="M33.9,34.49a8.42,8.42,0,0,1-1.33-.21"/><path class="cls-1" d="M22.55,30c.82,0,1.64,0,2.38,0l1.61.09"/><path class="cls-1" d="M29,30.47a14.19,14.19,0,0,0-2.45-.34"/><path class="cls-1" d="M27,34.16c.61,0,1.18-.11,1.7-.14s1.59-1.19,1.78-1.68c.41-1-.33-1.57-1.52-1.87"/><path class="cls-1" d="M19.93,30.39a3.34,3.34,0,0,0-2.34,2.39c.19,2,3.85,1.88,7.31,1.59"/><path class="cls-1" d="M27,34.16l-2.13.21"/><path class="cls-1" d="M22.55,30a9.22,9.22,0,0,0-2.62.37"/><path class="cls-1" d="M10.9,34.32c-3.5.28-6.82,0-7.34-1.89"/><path class="cls-1" d="M6.53,30.22a5,5,0,0,0-1.43.29"/><path class="cls-1" d="M3.51,32.15a1.41,1.41,0,0,1,.69-1.27,4.73,4.73,0,0,1,.9-.37"/><path class="cls-1" d="M15.6,30.61c-1.2-.11-2.55-.19-3.91-.26"/><path class="cls-1" d="M10.9,34.32c.84-.07,1.7-.17,2.53-.29"/><path class="cls-1" d="M3.51,32.15a.58.58,0,0,0,0,.19.29.29,0,0,0,0,.09"/><path class="cls-1" d="M11.69,30.35l-1-.05c-1.57-.07-2.52.14-3.94,0l-.23,0"/><path class="cls-1" d="M15.6,30.61l.49.05A2,2,0,0,1,17.63,32c.27.79-.88,1.41-1.54,1.54-.82.17-1.72.33-2.66.46"/><path class="cls-1" d="M3.51,32.15a1,1,0,0,1,.05.28"/><path class="cls-1" d="M.74,30.79c.39.05.82.1,1.29.13a1.71,1.71,0,0,1,1.46,1.2l0,0"/><path class="cls-1" d="M-.58,34.19c1-.13,1.87-.28,2.7-.44.53-.1,1.43-.68,1.44-1.32"/><path class="cls-1" d="M.74,30.79c-.82-.1-1.51-.21-2.15-.32"/><path class="cls-1" d="M26.38,38.5a13.05,13.05,0,0,0,3.07-.06"/><path class="cls-1" d="M30.92,38.19c-.49.1-1,.18-1.47.25"/><path class="cls-1" d="M33.9,34.49A2.77,2.77,0,0,1,35,35"/><path class="cls-1" d="M27,34.16l1.87,0c1.2,0,2.52,0,3.67.09"/><path class="cls-1" d="M22.84,36.33a3.21,3.21,0,0,0,2.1,1.89"/><path class="cls-1" d="M24.94,38.22a6.09,6.09,0,0,0,1,.22l.48.06"/><path class="cls-1" d="M30.92,38.19c1-.19,2-.44,3.11-.64A1.85,1.85,0,0,0,35,37"/><path class="cls-1" d="M27,34.16a8.8,8.8,0,0,0-2.13.21"/><path class="cls-1" d="M22.8,36.23c-.17-.71.8-1.33,1.51-1.68a3.09,3.09,0,0,1,.59-.18"/><path class="cls-1" d="M33.9,34.49a8.42,8.42,0,0,0-1.33-.21"/><path class="cls-1" d="M22.84,36.33a.42.42,0,0,0,0-.1"/><path class="cls-1" d="M10.37,38.08a12.55,12.55,0,0,0,2,.27l.2,0"/><path class="cls-1" d="M10.9,34.32a3.44,3.44,0,0,0-2.5,2.17c0,.88.93,1.35,2,1.59"/><path class="cls-1" d="M22.8,36.23c-1-2.16-4-1.89-6.27-2-.94-.06-2-.16-3.1-.16"/><path class="cls-1" d="M20.79,38c-1.16.13-2.25.18-3.32.2"/><path class="cls-1" d="M10.9,34.32A9.39,9.39,0,0,1,13.43,34"/><path class="cls-1" d="M17.47,38.2c-1.63,0-3.21,0-4.9.13"/><path class="cls-1" d="M22.84,36.33a.42.42,0,0,0,0-.1"/><path class="cls-1" d="M22.84,36.33a1.69,1.69,0,0,1-1.36,1.58l-.69.09"/><path class="cls-1" d="M3.61,38.32a16,16,0,0,0,2.27-.23"/><path class="cls-1" d="M3.61,38.32c-1.45,0-2.9-.06-4.36-.15"/><path class="cls-1" d="M5.88,38.09c.39-.07.79-.16,1.19-.27.71-.18,1.5-.76,1.26-1.57-.6-2.1-3.12-2.23-6.47-2.06-.73,0-1.58,0-2.44,0"/><path class="cls-1" d="M29.55,41.78l.47.07,1.48.09"/><path class="cls-1" d="M30.92,38.19A25,25,0,0,1,35,38.07"/><path class="cls-1" d="M30.92,38.19,30,38.3a2.19,2.19,0,0,0-.56.14"/><path class="cls-1" d="M29.45,38.44a2.24,2.24,0,0,0-1.52,1.85c0,.93.79,1.31,1.62,1.49"/><path class="cls-1" d="M31.5,41.94c1.17.07,2.33.14,3.48.13"/><path class="cls-1" d="M20.79,38l.38,0h.44c1.07.19,2.26.1,3.33.18"/><path class="cls-1" d="M19.42,41.85c2.47-.47,4.65.42,7-.17.82-.12,1.65-1.18,1.35-1.83a2.37,2.37,0,0,0-1.4-1.35"/><path class="cls-1" d="M26.38,38.5a4.66,4.66,0,0,0-1.44-.28"/><path class="cls-1" d="M17.77,42a5.45,5.45,0,0,0,1.65-.11"/><path class="cls-1" d="M20.79,38a11.5,11.5,0,0,0-3.32.2"/><path class="cls-1" d="M17.77,42a7.44,7.44,0,0,1-1.48-.28,2.26,2.26,0,0,1-1.47-1.24c-.35-.83.52-1.87,1.3-2l1.35-.24"/><path class="cls-1" d="M11.86,41.8c.56,0,1.13-.13,1.72-.24a1.3,1.3,0,0,0,1-1.53c.18-1.15-.82-1.48-1.65-1.59a3.21,3.21,0,0,0-.36-.11"/><path class="cls-1" d="M8.18,38a19.87,19.87,0,0,0,2.19.11"/><path class="cls-1" d="M5.88,38.09l1-.13c.3,0,.8.06,1.26,0"/><path class="cls-1" d="M3.61,38.32l-.47.07a2.55,2.55,0,0,0-2,1.47"/><path class="cls-1" d="M5.88,38.09c-.91.1-1.46.11-2.27.23"/><path class="cls-1" d="M8.51,37.91a1.61,1.61,0,0,1-.33.06"/><path class="cls-1" d="M11.86,41.8c-.53,0-1.06.06-1.57.07"/><path class="cls-1" d="M10.29,41.87c-2,0-3.9-.16-6-.12-1.18,0-2.79-.25-3.14-1.31a.5.5,0,0,1,0-.16"/><path class="cls-1" d="M10.37,38.08c.3,0,.63,0,1,.09a4.07,4.07,0,0,1,1.17.16"/><path class="cls-1" d="M8.18,38H8.1"/><path class="cls-1" d="M1.15,39.86a1,1,0,0,0,0,.42"/><path class="cls-1" d="M1.15,39.86h0a2.14,2.14,0,0,0-1.9-1.68"/><path class="cls-1" d="M1.12,40.28A2.08,2.08,0,0,1-.49,41.49c-3.39.48-5.86.08-9.28.08a8.4,8.4,0,0,0-1.22.07"/><path class="cls-1" d="M1.12,40.28a.87.87,0,0,0,0-.42"/><path class="cls-1" d="M31.5,41.94c.45.07.89.15,1.34.25,1,.3,2,.43,2.07,1.37.11,1.31-.94,1.9-2.18,2.12"/><path class="cls-1" d="M29.55,41.78a15.7,15.7,0,0,1,1.95.16"/><path class="cls-1" d="M32.73,45.68a7.76,7.76,0,0,1-1.44.11"/><path class="cls-1" d="M29.55,41.78c-.45,0-.9,0-1.35,0-2.24.12-5.62.05-5.78,2.48.38,1.15,2,1.53,3.3,1.65,1.53.12,3-.24,4.54-.18.31,0,.66,0,1,0"/><path class="cls-1" d="M9.63,45.74a76.16,76.16,0,0,1,9.19,0"/><path class="cls-1" d="M17.77,42c.54,0,1.09-.06,1.65-.11"/><path class="cls-1" d="M9.22,45.7a1,1,0,0,0,.41,0"/><path class="cls-1" d="M17.77,42a14.8,14.8,0,0,1-2.83-.11,13.48,13.48,0,0,0-1.68-.06c-.46,0-.93,0-1.4,0"/><path class="cls-1" d="M10.29,41.87a5,5,0,0,0-.89.22c-.89.33-2,1-1.67,2A2.51,2.51,0,0,0,9.22,45.7"/><path class="cls-1" d="M18.82,45.72l1.07,0a2.16,2.16,0,0,0,.56-.05"/><path class="cls-1" d="M11.86,41.8a10.09,10.09,0,0,0-1.57.07"/><path class="cls-1" d="M19.42,41.85a9.18,9.18,0,0,0,1.35.18,2.26,2.26,0,0,1,1.65,1.41c.25,1.16-.86,2-2,2.25"/><path class="cls-1" d="M6,45.55a2.13,2.13,0,0,0,1.65-2.16C7,41.18,2.5,41.85-.15,41.85c-1.77,0-3.53-.35-5.12.3-.66.28-1.41.55-1.69,1.19"/><path class="cls-1" d="M-.15,46c1.54,0,3.05,0,4.6-.1l.26,0"/><path class="cls-1" d="M6,45.55a5.43,5.43,0,0,1-1.27.28"/><path class="cls-1" d="M31.29,45.79l-.38.13c-.77.41-1.94,1.2-1.58,2.14a2.43,2.43,0,0,0,1.39,1.29"/><path class="cls-1" d="M32.73,45.68c.5,0,1,.06,1.54.06H35"/><path class="cls-1" d="M33.83,49.84c.38,0,.77,0,1.15,0"/><path class="cls-1" d="M32.73,45.68a5.23,5.23,0,0,0-1.44.11"/><path class="cls-1" d="M33.83,49.84a17.29,17.29,0,0,1-2.51-.33,2.23,2.23,0,0,1-.6-.16"/><path class="cls-1" d="M18.88,49.6a2.85,2.85,0,0,1-2.35-1.68c-.3-.76.53-1.59,1.24-1.94a4.61,4.61,0,0,1,1.05-.26"/><path class="cls-1" d="M27.06,49.67a6.55,6.55,0,0,1-1.16.2h-.81"/><path class="cls-1" d="M18.88,49.6l.3,0L21,49.7"/><path class="cls-1" d="M25.09,49.86c-1.37,0-2.72-.1-4.1-.16"/><path class="cls-1" d="M27.06,49.67a2.67,2.67,0,0,0,2.15-2.09c-.09-1-.62-1.59-2.47-1.59-2.58,0-4.55-.19-4.55-.19-.57,0-1.15-.08-1.74-.11"/><path class="cls-1" d="M18.82,45.72a8.85,8.85,0,0,1,1.63,0"/><path class="cls-1" d="M9.63,45.74l-.41,0"/><path class="cls-1" d="M6,45.55a17.16,17.16,0,0,1,3.24.15"/><path class="cls-1" d="M4.71,45.83a4.39,4.39,0,0,0-.44.21c-.76.41-1.71,1.35-1.35,2.18.53,1.35,2.52,1.13,3.93,1.13,3-.06,6,.75,9-.25.68-.23.63-1.17.53-2.06C16.09,44.71,12,46,9.63,45.74"/><path class="cls-1" d="M6,45.55a5,5,0,0,0-1.27.28"/><path class="cls-1" d="M-3.46,49.81c1.07,0,2.13-.08,3.2-.06a3.89,3.89,0,0,0,1-.13"/><path class="cls-1" d="M.75,49.62c1.1-.27,2.08-1,2-2-.06-.77-1-1.36-1.94-1.47L-.15,46"/><path class="cls-1" d="M27.06,49.67a13.43,13.43,0,0,0-2,.19"/><path class="cls-1" d="M34,53.4a4,4,0,0,1-.81.12c-.85.08-1.7.13-2.53.13"/><path class="cls-1" d="M27.06,49.67a11.39,11.39,0,0,0,2-.22,5.13,5.13,0,0,1,1.7-.1"/><path class="cls-1" d="M33.83,49.84a12.63,12.63,0,0,0-2.75-.44l-.36,0"/><path class="cls-1" d="M34.14,53.37A4.11,4.11,0,0,0,35,53"/><path class="cls-1" d="M33.83,49.84a6.16,6.16,0,0,1,.67.26l.48.24"/><path class="cls-1" d="M25.09,49.86c-1.15.23-2,.79-1.84,2.31.06.41.59.82,1.12,1a43.53,43.53,0,0,0,6.3.48"/><path class="cls-1" d="M34.14,53.37l-.13,0"/><path class="cls-1" d="M12.39,53.48a40,40,0,0,1,5.25,0"/><path class="cls-1" d="M19.82,53.44c.3,0,.59-.09.89-.16,1.12-.29,2.42-.88,2.6-2.12-.1-.89-1.06-1.3-2.32-1.46"/><path class="cls-1" d="M18.88,49.6c-1.24,0-2.51.12-3.47.15-1.95.06-3.77-.33-5.72.06-1,.2-1.67,1.42-1.47,1.94a2.56,2.56,0,0,0,2,1.62"/><path class="cls-1" d="M12.39,53.48c-.5,0-1,0-1.52,0a3.84,3.84,0,0,1-.68-.09"/><path class="cls-1" d="M17.64,53.46l.48.06a8,8,0,0,0,1.7-.08"/><path class="cls-1" d="M18.88,49.6a14.29,14.29,0,0,1,2.11.1"/><path class="cls-1" d="M-3.46,49.81a4.19,4.19,0,0,1,1.19-.18,27.6,27.6,0,0,0,3,0"/><path class="cls-1" d="M5.24,53.51a16.23,16.23,0,0,1-2.52.32"/><path class="cls-1" d="M2.72,53.83A25.61,25.61,0,0,1-3,53.4C-3.92,53.28-5,52.87-5.21,52c-.26-1.12.68-1.87,1.75-2.18"/><path class="cls-1" d="M1.62,49.51C4.33,49,7.37,49.57,8,51c.3.76-.06,1.71-1.29,2.12a13.44,13.44,0,0,1-1.51.4"/><path class="cls-1" d="M2,49.51c-.41.05-.82.09-1.22.11"/><path class="cls-1" d="M34,53.4a15.81,15.81,0,0,0-3.34.25"/><path class="cls-1" d="M34.14,53.37l-.29,0"/><path class="cls-1" d="M28.37,55.2c.07-.56.64-.88,1.24-1.21a4.87,4.87,0,0,1,1.06-.34"/><path class="cls-1" d="M34.15,53.4H34"/><path class="cls-1" d="M34.14,53.37l.84,0"/><path class="cls-1" d="M14.68,55.2a2.62,2.62,0,0,1,1.38-1.38,5.41,5.41,0,0,1,1.58-.36"/><path class="cls-1" d="M19.82,53.44c-.74,0-1.47,0-2.18,0"/><path class="cls-1" d="M19.82,53.44a10.89,10.89,0,0,0,1.89-.1c2-.3,4.76,0,5.69.83.43.39.82.62,1,1"/><path class="cls-1" d="M5.24,53.51a9.58,9.58,0,0,0-2.52.32"/><path class="cls-1" d="M2.72,53.83a1.74,1.74,0,0,0-1.38,1.56"/><path class="cls-1" d="M5.24,53.51c.88,0,1.77,0,2.51-.11a12.53,12.53,0,0,1,2.44,0"/><path class="cls-1" d="M14.68,55.2c.11-1-1.26-1.61-2.29-1.72"/><path class="cls-1" d="M12.39,53.48l-.19,0c-.71,0-1.36-.05-2-.09"/><path class="cls-1" d="M1.34,55.39a1,1,0,0,0-.23-.47c-1.77-2-4.63-1.12-7.16-1.41l-.52,0a6.11,6.11,0,0,1-1.19,0"/><line class="cls-1" x1="34.98" y1="30.29" x2="34.98" y2="30.36"/><rect class="cls-2" x="-19.15" y="26.33" width="54.13" height="54.13"/><rect class="cls-2" width="54.42" height="54.42"/></svg>