<svg id="Layer_1" data-name="Layer 1" xmlns="http://www.w3.org/2000/svg" width="54.39" height="54.42" viewBox="0 0 54.39 54.42"><defs><style>.cls-1,.cls-2{fill:none;}.cls-1{stroke:#000;stroke-width:0.3px;}</style></defs><title>Artboard 37</title><path class="cls-1" d="M50.68,1.62a1,1,0,0,0,.42,0"/><path class="cls-1" d="M51.1,1.66a76,76,0,0,1,9.18,0"/><path class="cls-1" d="M50.68,1.62A2.45,2.45,0,0,1,49.2.06c-.3-1,.77-1.72,1.66-2a5,5,0,0,1,.89-.22"/><path class="cls-1" d="M47.44,1.47a5.45,5.45,0,0,1-1.27.29"/><path class="cls-1" d="M36.8,1.72l.25,0"/><path class="cls-1" d="M36.8,1.72c-1.24-.23-2.39-.78-2.41-1.88V-.22"/><path class="cls-1" d="M47.44,1.47A2.13,2.13,0,0,0,49.09-.69C48.44-2.9,44-2.23,41.31-2.23c-1.76,0-3.53-.35-5.12.3-.66.28-1.41.55-1.69,1.19"/><path class="cls-1" d="M41.32,1.88c-.91,0-1.83,0-2.78,0"/><path class="cls-1" d="M41.32,1.88c1.53,0,3,0,4.59-.1l.26,0"/><path class="cls-1" d="M37.36,1.8a9.75,9.75,0,0,0,1.18,0"/><path class="cls-1" d="M37.36,1.8l-.31,0"/><path class="cls-1" d="M33.08,1.48l.1-.05A2.52,2.52,0,0,0,34.39-.22"/><path class="cls-1" d="M33.08,1.48a4.28,4.28,0,0,1-1.46.42"/><path class="cls-1" d="M27.68,1.8a20.32,20.32,0,0,1-2.59-.08"/><path class="cls-1" d="M25.09,1.72a11.07,11.07,0,0,1-1.57-.29A1.75,1.75,0,0,1,22.33.21s0-.08,0-.11"/><path class="cls-1" d="M31.62,1.9a24.33,24.33,0,0,1-3.39-.12l-.55,0"/><path class="cls-1" d="M22.31-.17a1.22,1.22,0,0,0,0,.27"/><path class="cls-1" d="M47.44,1.47a17.12,17.12,0,0,1,3.24.15"/><path class="cls-1" d="M47.44,1.47a4.6,4.6,0,0,0-1.27.29"/><path class="cls-1" d="M50.68,1.62l.42,0"/><path class="cls-1" d="M46.17,1.76a2.86,2.86,0,0,0-.44.2C45,2.37,44,3.31,44.38,4.14c.53,1.35,2.52,1.13,3.93,1.13,3-.06,6,.75,9-.25.68-.22.64-1.16.53-2.06-.26-2.33-4.39-1.08-6.71-1.3"/><path class="cls-1" d="M41.32,1.88a8.62,8.62,0,0,0-2.78,0"/><path class="cls-1" d="M38,5.73a30.07,30.07,0,0,1-5-.12"/><path class="cls-1" d="M42.21,5.55c1.1-.28,2.08-1,2-2.06-.06-.77-1-1.35-1.94-1.47l-.94-.14"/><path class="cls-1" d="M37.36,1.8a3.31,3.31,0,0,1,1.18,0"/><path class="cls-1" d="M33.08,1.48a5.61,5.61,0,0,0-1.19.3,1.59,1.59,0,0,0-.27.12"/><path class="cls-1" d="M37.05,1.76l-.25,0"/><path class="cls-1" d="M37.36,1.8l-.17,0-.14,0"/><path class="cls-1" d="M31.62,1.9c-.87.42-1.76,1.34-1.38,2.36a1.68,1.68,0,0,0,1,1c.23.06.46.12.69.16"/><path class="cls-1" d="M42.21,5.55a4.36,4.36,0,0,1-1,.12c-1.07,0-2.13,0-3.19.06"/><path class="cls-1" d="M33.08,1.48a12.41,12.41,0,0,1,3.72.24"/><path class="cls-1" d="M31.93,5.42c.34.08.69.14,1,.19"/><path class="cls-1" d="M51.65,9.29a2.54,2.54,0,0,1-2-1.62c-.2-.52.44-1.73,1.47-1.94,2-.39,3.78,0,5.72-.06,1,0,2.23-.13,3.47-.14"/><path class="cls-1" d="M59.1,9.38a41.79,41.79,0,0,0-5.25,0"/><path class="cls-1" d="M51.65,9.29a3.84,3.84,0,0,0,.68.09c.52,0,1,0,1.52,0"/><path class="cls-1" d="M43.44,5.43c-.42.06-.83.09-1.23.12"/><path class="cls-1" d="M44.18,9.75a15,15,0,0,0,2.52-.32"/><path class="cls-1" d="M44.18,9.75a25.48,25.48,0,0,1-5.69-.43c-1-.11-2.07-.53-2.24-1.41C36,6.79,36.93,6.05,38,5.73"/><path class="cls-1" d="M43.08,5.43c2.71-.47,5.76.06,6.43,1.48.29.76-.06,1.71-1.3,2.12a12.9,12.9,0,0,1-1.51.4"/><path class="cls-1" d="M42.21,5.55a27.65,27.65,0,0,1-3,0A4.08,4.08,0,0,0,38,5.73"/><path class="cls-1" d="M30.4,9.33c-.46,0-.93-.06-1.4-.06-2,.11-5.26.19-5.82-1.16"/><path class="cls-1" d="M27.86,5.37A10.19,10.19,0,0,0,25,5.73"/><path class="cls-1" d="M23.28,7.21A2.57,2.57,0,0,1,25,5.73"/><path class="cls-1" d="M33,5.61l-1-.19"/><path class="cls-1" d="M23.28,7.21a2.5,2.5,0,0,0-.17.64.77.77,0,0,0,.07.26"/><path class="cls-1" d="M31.93,5.42a9.7,9.7,0,0,0-2.16-.1c-.58,0-1.24,0-1.91,0"/><path class="cls-1" d="M33.7,9.43h-.16a20.52,20.52,0,0,1-3.14-.11"/><path class="cls-1" d="M33.7,9.43c1.32-.09,2.82-.6,2.43-2.58A1.39,1.39,0,0,0,35,6c-.69-.1-1.36-.24-2-.36"/><path class="cls-1" d="M51.65,9.29c.66,0,1.3.09,2,.09l.19,0"/><path class="cls-1" d="M46.7,9.43a9.64,9.64,0,0,0-2.52.32"/><path class="cls-1" d="M42.8,11.31a1.21,1.21,0,0,0,0,.19v0"/><path class="cls-1" d="M42.79,11.54a1.11,1.11,0,0,0,.7,1c2.24.82,4.53.71,7,.76"/><path class="cls-1" d="M51.65,9.29a13.37,13.37,0,0,0-2.44,0c-.74.09-1.63.09-2.51.11"/><path class="cls-1" d="M50.51,13.33A13.85,13.85,0,0,0,53,13.17"/><path class="cls-1" d="M44.18,9.75a1.74,1.74,0,0,0-1.38,1.56"/><path class="cls-1" d="M56.15,11.12c.11-1-1.27-1.61-2.3-1.72"/><path class="cls-1" d="M56.1,11.34v0c-.18.53-.24.86-.88,1.15a8,8,0,0,1-2.23.65"/><path class="cls-1" d="M28,10.84a1.64,1.64,0,0,0-.19.55,1.74,1.74,0,0,0,.14.38"/><path class="cls-1" d="M42.8,11.31a1,1,0,0,0-.23-.47c-1.77-2-4.63-1.12-7.16-1.41l-.52,0a6.11,6.11,0,0,1-1.19,0"/><path class="cls-1" d="M37.17,13.37c-1.55,0-3.08-.13-4.7-.06"/><path class="cls-1" d="M33.7,9.43c-.78,0-1.5-.16-2.46-.16a4,4,0,0,0-.84.06"/><path class="cls-1" d="M28,11.77a3.89,3.89,0,0,0,2.73,1.47"/><path class="cls-1" d="M37.17,13.37a18.44,18.44,0,0,0,2.45-.12"/><path class="cls-1" d="M42.79,11.54a.87.87,0,0,0,0-.23"/><path class="cls-1" d="M32.47,13.31l-.47,0a6.66,6.66,0,0,1-1.31-.09"/><path class="cls-1" d="M28,10.84A3.51,3.51,0,0,1,30.4,9.33"/><path class="cls-1" d="M39.62,13.25c.23,0,.46-.06.69-.1,1-.13,2.33-.82,2.48-1.61"/><path class="cls-1" d="M49,15.24c.41,1.06,1.5,1.42,2.68,1.71"/><path class="cls-1" d="M49,15.24v0a1,1,0,0,1,0-.41"/><path class="cls-1" d="M49,14.81a2.18,2.18,0,0,1,1.56-1.48"/><path class="cls-1" d="M53,13.17c-.82,0-1.64.07-2.47.16"/><path class="cls-1" d="M53,13.17c1.27,0,2.52,0,3.77,0"/><path class="cls-1" d="M51.66,17l.14,0a28.52,28.52,0,0,0,4,.49"/><path class="cls-1" d="M42.6,17.48a14.68,14.68,0,0,0,3.18-.08"/><path class="cls-1" d="M49,15.24a1.56,1.56,0,0,0,0-.43"/><path class="cls-1" d="M49,15.24A2.3,2.3,0,0,1,47.38,17"/><path class="cls-1" d="M39.62,13.25c.92.06,1.84.18,2.59.15,1.64,0,2.93-.48,4.76-.07.83.24,1.71.65,2,1.36l0,.12"/><path class="cls-1" d="M47.38,17l-.11,0a9,9,0,0,1-1.49.36"/><path class="cls-1" d="M37.23,17.05h.12"/><path class="cls-1" d="M38,17.06l-.49,0h-.13"/><path class="cls-1" d="M42.6,17.48c-1.52-.11-3.06-.35-4.63-.42"/><path class="cls-1" d="M37.17,13.37a8.53,8.53,0,0,1,2.45-.12"/><path class="cls-1" d="M37.17,13.37a2.75,2.75,0,0,0-.57.2,2.59,2.59,0,0,0-1.53,2c-.06.93,1.18,1.44,2.16,1.48"/><path class="cls-1" d="M29.17,13.24l.42,0"/><path class="cls-1" d="M29.17,13.24h1.52"/><path class="cls-1" d="M29.17,13.24l-.58,0"/><path class="cls-1" d="M32,17.34a22.09,22.09,0,0,1-4.67,0"/><path class="cls-1" d="M32.47,13.31a17.54,17.54,0,0,0-1.78-.07"/><path class="cls-1" d="M32,17.34l.58-.06a3,3,0,0,0,.8-.24"/><path class="cls-1" d="M33.33,17c.69-.31,1-.87,1.77-1.91.32-.46-.15-1.09-.56-1.27a6.29,6.29,0,0,0-2.07-.55"/><path class="cls-1" d="M25.28,17a19.94,19.94,0,0,0,2,.35"/><path class="cls-1" d="M29.17,13.24a15.53,15.53,0,0,0-5.77.21,1.33,1.33,0,0,0-.94,1.77A1.94,1.94,0,0,0,24,16.63q.65.21,1.29.36"/><path class="cls-1" d="M52.94,21.23A5.87,5.87,0,0,0,54.83,21"/><path class="cls-1" d="M47.38,17a4.59,4.59,0,0,0-1.47.33l-.13.06"/><path class="cls-1" d="M48.12,21a10.11,10.11,0,0,1-2.29-.32"/><path class="cls-1" d="M47.38,17c.93-.07,1.89,0,2.89,0,.48,0,.94,0,1.39,0"/><path class="cls-1" d="M45.78,17.4a2,2,0,0,0-1.28,2.18,1.7,1.7,0,0,0,1.29,1.06h0"/><path class="cls-1" d="M48.12,21a30.8,30.8,0,0,1,4.74.26h.08"/><path class="cls-1" d="M51.66,17a27.9,27.9,0,0,1,3.86.45l.28.07"/><path class="cls-1" d="M38.25,21l2-.12"/><path class="cls-1" d="M37.23,17.05h-.45a15.31,15.31,0,0,0-3.45,0"/><path class="cls-1" d="M42.6,17.48a19,19,0,0,0-4-.41H38"/><path class="cls-1" d="M31.68,20.87a23.27,23.27,0,0,0,2.45.23"/><path class="cls-1" d="M38.25,21c-1.37.07-2.73.12-4.12.06"/><path class="cls-1" d="M32,17.34a8.9,8.9,0,0,1,1.38-.3"/><path class="cls-1" d="M42.6,17.48l.28,0c.7.12,1.2.24,1.44.95a2.06,2.06,0,0,1-1.77,2.35c-.75,0-1.5.06-2.25.11"/><path class="cls-1" d="M32,17.34l-.48.17c-.76.3-1.82,1-1.47,2.07a1.8,1.8,0,0,0,1.36,1.23l.32.06"/><path class="cls-1" d="M37.23,17.05h.12"/><path class="cls-1" d="M38,17.06h-.62"/><path class="cls-1" d="M52.94,21.23,54.83,21"/><path class="cls-1" d="M52.94,21.23c-.61.08-1.26.16-2,.23s-1.65.83-1.36,1.71a2.43,2.43,0,0,0,1.71,1.42"/><path class="cls-1" d="M58.37,24.93a44.61,44.61,0,0,1-4.62-.08"/><path class="cls-1" d="M51.33,24.59a3.12,3.12,0,0,0,.53.11l1.89.15"/><path class="cls-1" d="M36,22.8a1.17,1.17,0,0,0,.06.41"/><path class="cls-1" d="M38.23,24.61a2.82,2.82,0,0,1-2.1-1.26l-.06-.14"/><path class="cls-1" d="M38.25,21a4,4,0,0,0-.88.25c-.52.23-1.31.81-1.36,1.51"/><path class="cls-1" d="M44.1,24.85c.78-.05,1.53-.12,2.26-.19"/><path class="cls-1" d="M38.23,24.61c.62.12,1.29.17,1.91.24h0"/><path class="cls-1" d="M43.08,20.76a24.81,24.81,0,0,1,2.75-.11"/><path class="cls-1" d="M48.12,21a1.44,1.44,0,0,1,1.15,1.49c-.06.87-.43,1.9-1.3,2l-1.61.19"/><path class="cls-1" d="M48.12,21a7.72,7.72,0,0,0-2.29-.32"/><path class="cls-1" d="M44.1,24.85a32,32,0,0,1-3.92,0"/><path class="cls-1" d="M40.3,20.92a10,10,0,0,0-2,.12"/><path class="cls-1" d="M43.44,20.64a9.69,9.69,0,0,1-3.14.28"/><path class="cls-1" d="M36.07,23.21a1.54,1.54,0,0,1-1.18,1.38l-1.82.1"/><path class="cls-1" d="M29.23,24.88q-1.45,0-2.94,0"/><path class="cls-1" d="M24.72,21.1h0a2.53,2.53,0,0,0-1.24,1.24,1.84,1.84,0,0,0,1.12,2.35"/><path class="cls-1" d="M29.23,24.88c1.29,0,2.57-.11,3.84-.19"/><path class="cls-1" d="M31.68,20.87c-.84,0-1.7.07-2.5,0s-1.47-.11-2.19-.1"/><path class="cls-1" d="M24.72,21.1A7.56,7.56,0,0,1,27,20.77"/><path class="cls-1" d="M26.29,24.91l-1,0a2,2,0,0,1-.71-.18"/><path class="cls-1" d="M36.07,23.21A1,1,0,0,0,36,22.8"/><path class="cls-1" d="M36,22.8l0-.07a2.85,2.85,0,0,0-1.85-1.63"/><path class="cls-1" d="M31.68,20.87a7.72,7.72,0,0,1,2.45.23"/><path class="cls-1" d="M53.75,24.85a11,11,0,0,0-2.42-.26"/><path class="cls-1" d="M42.44,26.87a.5.5,0,0,0,.05.13,2.68,2.68,0,0,0,2.71,1.3"/><path class="cls-1" d="M42.39,26.52A2.25,2.25,0,0,1,43.67,25a3.12,3.12,0,0,1,.43-.15"/><path class="cls-1" d="M44.1,24.85a6.56,6.56,0,0,1,2.26-.19"/><path class="cls-1" d="M46.36,24.66a18.33,18.33,0,0,0,2.67,0c.67-.06,1.48-.11,2.3-.11"/><path class="cls-1" d="M45.2,28.3c4.66-.09,4.7.75,8.06-.05.62-.14,2.43-.39,2.52-1.19.14-1.25-.77-1.9-2-2.21"/><path class="cls-1" d="M42.39,26.52a.7.7,0,0,0,0,.35"/><path class="cls-1" d="M36.9,28.89a32.79,32.79,0,0,1-4.07-.15"/><path class="cls-1" d="M27.68,26.09a1.31,1.31,0,0,0,0,.62l.06.2"/><path class="cls-1" d="M42.44,26.87a.53.53,0,0,0,0-.35"/><path class="cls-1" d="M38.23,24.61a7,7,0,0,1,2,.24"/><path class="cls-1" d="M38.85,28.71c-.65.09-1.29.15-2,.18"/><path class="cls-1" d="M38.23,24.61c-.79,0-1.62,0-2.47,0a21,21,0,0,1-2.21.09l-.48,0"/><path class="cls-1" d="M42.39,26.52s0-.05,0-.08a4.1,4.1,0,0,0-2.17-1.59"/><path class="cls-1" d="M42.44,26.87a2.06,2.06,0,0,1-1.18,1.25,13.89,13.89,0,0,1-2.41.59"/><path class="cls-1" d="M27.68,26.09A1.57,1.57,0,0,1,28.87,25l.36-.1"/><path class="cls-1" d="M31.45,28.62l-.86-.09c-1.17-.16-2.44-.54-2.83-1.62"/><path class="cls-1" d="M33.07,24.69c-2.76-.15-3.17,0-3.84.19"/><path class="cls-1" d="M31.45,28.62c.46,0,.92.09,1.38.12"/><path class="cls-1" d="M53.21,32.51c1,.08,2,.17,3,.23"/><path class="cls-1" d="M49,30.3a.64.64,0,0,0,0,.41l0,.1"/><path class="cls-1" d="M53.21,32.51l-1.41-.09a3.25,3.25,0,0,1-2.72-1.61"/><path class="cls-1" d="M49,30.3c.14-.56,1-1,1.51-1.34,1.29-.8,7-.22,7-.22l.92-.07"/><path class="cls-1" d="M38.85,28.71a5.07,5.07,0,0,0-2,.18"/><path class="cls-1" d="M49,30.3s0,0,0,.06a.87.87,0,0,1,0,.45"/><path class="cls-1" d="M35.3,30.89a3.24,3.24,0,0,0,2.61,1.6"/><path class="cls-1" d="M37.91,32.49a8.13,8.13,0,0,0,1.3.1h.13"/><path class="cls-1" d="M39.34,32.58c2,0,3.55.22,5.57.05a8.81,8.81,0,0,0,2.83-.38,2.45,2.45,0,0,0,1.34-1.44"/><path class="cls-1" d="M35.28,30.27a.79.79,0,0,0,0,.62"/><path class="cls-1" d="M45.2,28.3c1.46.17,3.14.58,3.81,2"/><path class="cls-1" d="M45.2,28.3a26.21,26.21,0,0,0-3.53.35,9.88,9.88,0,0,1-2.82.06"/><path class="cls-1" d="M35.28,30.27A2.79,2.79,0,0,1,36.6,29a1.88,1.88,0,0,1,.3-.12"/><path class="cls-1" d="M31.45,28.62a9.3,9.3,0,0,1,1.38.12"/><path class="cls-1" d="M35.28,30.27a2.51,2.51,0,0,0-2-1.44l-.41-.09"/><path class="cls-1" d="M25.84,28.52a3.65,3.65,0,0,0-1.95.36"/><path class="cls-1" d="M35.3,30.89a1.84,1.84,0,0,1-1.23,1.24"/><path class="cls-1" d="M31.45,28.62c-.86,0-1.73.06-2.69.09a25.66,25.66,0,0,1-2.92-.19"/><path class="cls-1" d="M24.82,32.4a13.9,13.9,0,0,0,2.57.25"/><path class="cls-1" d="M31.88,32.43c-1.51.12-3,.25-4.49.22"/><path class="cls-1" d="M31.88,32.43H32a13.63,13.63,0,0,0,2.07-.29h0"/><path class="cls-1" d="M23.89,28.88h0c-.7.47-1.71,1-1.47,1.94a1.73,1.73,0,0,0,1.12,1.24,10.32,10.32,0,0,0,1.3.33"/><path class="cls-1" d="M35.3,30.89a1.18,1.18,0,0,0,0-.62"/><path class="cls-1" d="M53.2,36.37l-.34,0a19.36,19.36,0,0,0-3.49,0"/><path class="cls-1" d="M44.38,34.19c.65-2.65,3.8-1.14,5.92-1.3,1-.07,1.93-.27,2.91-.38"/><path class="cls-1" d="M44.35,34.38c-.06.85,1,1.54,1.74,1.76a6.48,6.48,0,0,0,1.29.23"/><path class="cls-1" d="M44.35,34.38a.58.58,0,0,1,0-.19"/><path class="cls-1" d="M55.74,36.37a9.82,9.82,0,0,1-2.54,0"/><path class="cls-1" d="M47.38,36.37a13.22,13.22,0,0,0,2,0"/><path class="cls-1" d="M53.21,32.51a7.38,7.38,0,0,1,2.72.15l.24.08"/><path class="cls-1" d="M44.35,34.38l0-.19"/><path class="cls-1" d="M44.35,34.38c-.27,1.38-1.62,1.78-3,1.78-3.62,0-6.54.18-10-.14a2.26,2.26,0,0,1-1.71-1.36c-.42-.88.65-1.82,1.41-2,.27-.09.55-.16.82-.23"/><path class="cls-1" d="M31.88,32.43a10.79,10.79,0,0,1,2.19-.3"/><path class="cls-1" d="M39.34,32.58c2.46.14,5,.28,5,1.61"/><path class="cls-1" d="M37.91,32.49a13.41,13.41,0,0,1-1.55-.19,10.63,10.63,0,0,0-2.29-.17"/><path class="cls-1" d="M37.91,32.49c.46,0,1,.06,1.43.09"/><path class="cls-1" d="M25,5.73c-.89,0-1.78.07-2.67.06"/><path class="cls-1" d="M27.86,5.37c.91-.43,1.63-1.26,1.37-2.12A2.26,2.26,0,0,0,27.68,1.8"/><path class="cls-1" d="M27.86,5.37a3.07,3.07,0,0,1-1.05.3c-.62,0-1.22,0-1.83.06"/><path class="cls-1" d="M25.09,1.72c-.93,0-1.84,0-2.78-.05"/><path class="cls-1" d="M27.68,1.8a3,3,0,0,0-1-.14c-.54,0-1.07.05-1.6.06"/><path class="cls-1" d="M23.28,7.21h0a1.86,1.86,0,0,0-1-1"/><path class="cls-1" d="M23.18,8.11a2,2,0,0,1-.87.85"/><path class="cls-1" d="M23.28,7.21a1.42,1.42,0,0,1-.1.9"/><path class="cls-1" d="M28,11.77a.88.88,0,0,0,.09-.85s0-.05,0-.08"/><path class="cls-1" d="M28,10.84C26.93,9,24.46,9.31,22.31,9.31"/><path class="cls-1" d="M28,11.77a2.52,2.52,0,0,1-1.38,1.09,21.67,21.67,0,0,1-4.27.45"/><path class="cls-1" d="M24.72,21.1A15.92,15.92,0,0,0,27,20.77"/><path class="cls-1" d="M27.28,17.34a6.4,6.4,0,0,0-2-.35"/><path class="cls-1" d="M24.72,21.1c-.8.06-1.6.08-2.41.07"/><path class="cls-1" d="M27,20.77l.53-.13c.77-.18,1.71-1.12,1.3-1.89a2.63,2.63,0,0,0-1.54-1.41"/><path class="cls-1" d="M25.28,17c-.74,0-1.51,0-2.18-.06l-.79-.05"/><path class="cls-1" d="M22.31,24.07a1.33,1.33,0,0,0,.5-1.43,3.19,3.19,0,0,0-.5-.74"/><path class="cls-1" d="M23.89,28.88a12.87,12.87,0,0,0,1.95-.36"/><path class="cls-1" d="M27.76,26.91a2.67,2.67,0,0,1-1.54,1.51l-.38.1"/><path class="cls-1" d="M26.29,24.91a4.5,4.5,0,0,0-1.71-.21"/><path class="cls-1" d="M27.68,26.09a2.47,2.47,0,0,0-1.39-1.18"/><path class="cls-1" d="M22.31,29c.53,0,1.06,0,1.58-.09"/><path class="cls-1" d="M27.68,26.09l0,0a1,1,0,0,1,.06.79"/><path class="cls-1" d="M24.58,24.7c-.73,0-1.51.12-2.27.18"/><path class="cls-1" d="M22.31,32.54h.38c.67,0,1.4-.1,2.13-.14"/><path class="cls-1" d="M24.82,32.4a6.54,6.54,0,0,1,2.57.25"/><path class="cls-1" d="M22.34,36.32a13.88,13.88,0,0,0,4.93-.55c.77-.42,2-1.05,1.55-1.93a2.77,2.77,0,0,0-1.43-1.19"/><path class="cls-1" d="M22.31,35.35a2.65,2.65,0,0,0,2.52-2,5.54,5.54,0,0,1-2.52.79"/><path class="cls-1" d="M48.92,34c1.12,2.47,3.82,2.25,4.72-.22C51.62,34.79,50.94,34.79,48.92,34Z"/><path class="cls-1" d="M39.69,30c1.13,2.47,3.83,2.25,4.73-.23C42.39,30.75,41.72,30.75,39.69,30Z"/><path class="cls-1" d="M46.63,25.77c1.12,2.48,3.82,2.25,4.72-.22C49.33,26.56,48.65,26.56,46.63,25.77Z"/><path class="cls-1" d="M22.31,27.91a2.83,2.83,0,0,0,2-1.93,7.39,7.39,0,0,1-2,.75"/><path class="cls-1" d="M27.11,22.27c1.12,2.48,3.82,2.25,4.72-.22C29.81,23.06,29.13,23.06,27.11,22.27Z"/><path class="cls-1" d="M53.33,18.15c-2,1-2.7,1-4.72.22C49.73,20.85,52.43,20.62,53.33,18.15Z"/><path class="cls-1" d="M22.31,20.18a2.65,2.65,0,0,0,2.61-2,5.31,5.31,0,0,1-2.61.79"/><path class="cls-1" d="M44.35,14.55c-2,1-2.7,1-4.72.22C40.75,17.25,43.45,17,44.35,14.55Z"/><path class="cls-1" d="M51.52,10.44c-2,1-2.7,1-4.73.23C47.92,13.14,50.62,12.92,51.52,10.44Z"/><path class="cls-1" d="M22.31,12.3a2.88,2.88,0,0,0,1.86-1.9,7.38,7.38,0,0,1-1.86.72"/><path class="cls-1" d="M27.15,6.83c1.12,2.48,3.82,2.25,4.72-.22C29.85,7.62,29.17,7.62,27.15,6.83Z"/><path class="cls-1" d="M54.57,6.75c1.12,2.47,3.82,2.25,4.72-.23C57.27,7.54,56.59,7.54,54.57,6.75Z"/><path class="cls-1" d="M48.63,2.79c1.12,2.48,3.82,2.25,4.72-.22C51.33,3.58,50.65,3.58,48.63,2.79Z"/><path class="cls-1" d="M22.31,3.65a4.61,4.61,0,0,0,3.13-.73c-.59,1.62-1.94,2.27-3.13,1.85"/><path class="cls-1" d="M25.92-1c1.12,2.47,3.82,2.25,4.72-.23C28.62-.25,27.94-.25,25.92-1Z"/><path class="cls-1" d="M59-1.25c-2,1-2.7,1-4.73.23C55.36,1.45,58.06,1.23,59-1.25Z"/><path class="cls-1" d="M34.59,35.15c2-.79,2.7-.79,4.72.22C38.41,32.9,35.71,32.67,34.59,35.15Z"/><path class="cls-1" d="M26.63,31.58c2-.78,2.7-.78,4.72.23C30.45,29.33,27.75,29.11,26.63,31.58Z"/><path class="cls-1" d="M54.67,31.65c2-.79,2.7-.79,4.72.22C58.49,29.4,55.79,29.17,54.67,31.65Z"/><path class="cls-1" d="M33,27.62c2-.78,2.7-.78,4.73.23C36.87,25.37,34.17,25.15,33,27.62Z"/><path class="cls-1" d="M40.54,23.65c2-.79,2.7-.79,4.73.22C44.37,21.4,41.67,21.17,40.54,23.65Z"/><path class="cls-1" d="M34.92,20c2-.79,2.7-.79,4.72.22C38.74,17.71,36,17.48,34.92,20Z"/><path class="cls-1" d="M27,16.12c2-.78,2.7-.78,4.73.23C30.79,13.87,28.09,13.65,27,16.12Z"/><path class="cls-1" d="M54,16.1c2-.78,2.7-.78,4.73.23C57.83,13.85,55.13,13.63,54,16.1Z"/><path class="cls-1" d="M32.69,12.21c2-.79,2.7-.79,4.73.22C36.52,10,33.82,9.73,32.69,12.21Z"/><path class="cls-1" d="M40.94,8.48c2-.79,2.7-.79,4.73.22C44.77,6.23,42.07,6,40.94,8.48Z"/><path class="cls-1" d="M34.82,4.56c2-.79,2.7-.79,4.72.23C38.64,2.31,35.94,2.09,34.82,4.56Z"/><path class="cls-1" d="M44.08.72c-.9-2.47-3.6-2.7-4.72-.22C41.38-.29,42.06-.29,44.08.72Z"/><rect class="cls-2" x="22.31" y="-17.75" width="54.13" height="54.13"/><path class="cls-1" d="M53.15,40.4a3,3,0,0,0,1,.19c1,0,2,.07,2.9.07"/><path class="cls-1" d="M64,40.07l1-.19c.71-.12,1.53-1.06,1.18-1.65-1.47-2.53-4.39-1.68-7.22-1.68-2.13,0-4.39-.38-6.27.32a1.65,1.65,0,0,0-1.12,1.71,2.26,2.26,0,0,0,1.58,1.82"/><path class="cls-1" d="M42.2,40.84l-.74-.05a9.72,9.72,0,0,1-1.41-.28"/><path class="cls-1" d="M40.05,40.51c-1.18-.32-2.34-.91-2.23-1.87.7-1.78,2.2-2.2,3.84-2.27"/><path class="cls-1" d="M48,40.27q1.18-.27,2.4-.63c.62-.09,1.28-.84,1-1.28-.63-1.46-1.92-1.89-3.38-2"/><path class="cls-1" d="M46.13,36.37c.64,0,1.28,0,1.9,0"/><path class="cls-1" d="M42.92,36.37c.66,0,1.33.06,1.94.05l1.27-.05"/><path class="cls-1" d="M41.66,36.37h1.26"/><path class="cls-1" d="M42.2,40.84a19.75,19.75,0,0,0,4.36-.29"/><path class="cls-1" d="M48,40.27c-.48.11-1,.2-1.43.28"/><path class="cls-1" d="M31.89,36.37h0c.46,0,1,0,1.48,0"/><path class="cls-1" d="M31.56,36.37a1.18,1.18,0,0,0,.33,0"/><path class="cls-1" d="M29,36.37a11.3,11.3,0,0,0,1.84,0"/><path class="cls-1" d="M26.27,36.37c-.87.2-1.44.76-1.51,2.21,0,.53.79,1.33,1.59,1.59,3.27,1.15,6.71.18,10.25-.17.71,0,1-.67,1.15-1.59,0-1.46-2.22-1.95-4.35-2"/><path class="cls-1" d="M30.84,36.37l.41,0c.12,0,.16,0,.31,0"/><path class="cls-1" d="M26.27,36.37a11.78,11.78,0,0,1,2.73,0"/><path class="cls-1" d="M52.36,44.37c.85-.07,1.7-.17,2.53-.29"/><path class="cls-1" d="M53.15,40.4c1.36.07,2.71.15,3.91.26"/><path class="cls-1" d="M53.15,40.4l-1,0c-1.57-.07-2.52.13-3.94,0a.53.53,0,0,0-.23,0"/><path class="cls-1" d="M52.36,44.37c-3.49.28-6.81,0-7.34-1.89"/><path class="cls-1" d="M45,42.2a1.41,1.41,0,0,1,.69-1.27,4.92,4.92,0,0,1,.9-.38"/><path class="cls-1" d="M48,40.27a5,5,0,0,0-1.43.28"/><path class="cls-1" d="M45,42.2a1,1,0,0,0,0,.18.36.36,0,0,0,0,.1"/><path class="cls-1" d="M45,42.48c0,.64-.91,1.22-1.44,1.32-.83.15-1.74.3-2.69.43"/><path class="cls-1" d="M42.2,40.84c-.82-.1-1.51-.22-2.15-.33"/><path class="cls-1" d="M38.08,44.53c.94-.07,1.89-.17,2.81-.3"/><path class="cls-1" d="M32.36,44.18a9,9,0,0,0,1.7.33"/><path class="cls-1" d="M32.36,44.18a2.83,2.83,0,0,1-2-1.62c-.08-1.77,4.56-2.52,7-2.34h.27a17.91,17.91,0,0,1,2.43.29"/><path class="cls-1" d="M45,42.2l0,0A1.71,1.71,0,0,0,43.49,41l-1.29-.13"/><path class="cls-1" d="M45,42.2a.66.66,0,0,1,.05.28"/><path class="cls-1" d="M34.06,44.51a22.36,22.36,0,0,0,4,0"/><path class="cls-1" d="M54,48.38h-.19a11.55,11.55,0,0,1-2-.26"/><path class="cls-1" d="M52.36,44.37a3.44,3.44,0,0,0-2.5,2.17c0,.88.93,1.34,2,1.59"/><path class="cls-1" d="M54.89,44.08a9.44,9.44,0,0,0-2.53.29"/><path class="cls-1" d="M54,48.38c1.69-.13,3.27-.1,4.91-.13"/><path class="cls-1" d="M36.25,46.77c0,.6.86,1.07,1.64,1.29"/><path class="cls-1" d="M36.27,46.55a2.41,2.41,0,0,1,1.81-2"/><path class="cls-1" d="M37.89,48.06l.3.07c.85,0,1.69,0,2.52.09"/><path class="cls-1" d="M45.07,48.37c-1.45,0-2.89-.07-4.36-.15"/><path class="cls-1" d="M47.34,48.14a10.75,10.75,0,0,0,1.19-.28c.71-.17,1.5-.75,1.27-1.56-.6-2.1-3.12-2.24-6.48-2.06-.73,0-1.58,0-2.43,0"/><path class="cls-1" d="M40.89,44.23a9.62,9.62,0,0,0-2.81.3"/><path class="cls-1" d="M45.07,48.37a17.64,17.64,0,0,0,2.27-.23"/><path class="cls-1" d="M36.25,46.77v-.06a1,1,0,0,1,0-.16"/><path class="cls-1" d="M24.41,48.16a1.22,1.22,0,0,0,.26.06l.46,0"/><path class="cls-1" d="M24.66,44.41A2.26,2.26,0,0,0,23,46.71c0,.48.7,1.23,1.42,1.45"/><path class="cls-1" d="M30,48c-1.61.06-3.22.09-4.87.17"/><path class="cls-1" d="M36.25,46.77a1.55,1.55,0,0,1-1.15.92c-.92.1-1.81.17-2.7.23"/><path class="cls-1" d="M34.06,44.51a3.63,3.63,0,0,1,2.1,1.76.66.66,0,0,1,.11.28"/><path class="cls-1" d="M26.67,44.11a7,7,0,0,0-2,.3"/><path class="cls-1" d="M32.36,44.18a7.21,7.21,0,0,1,1.7.33"/><path class="cls-1" d="M36.25,46.77a.53.53,0,0,0,0-.22"/><path class="cls-1" d="M30,48c.8,0,1.59-.06,2.4-.11"/><path class="cls-1" d="M26.67,44.11c1,0,2.17.06,3.12,0s1.73,0,2.57,0"/><path class="cls-1" d="M54,48.38a3.46,3.46,0,0,0-1.17-.16,8.63,8.63,0,0,0-1-.09"/><path class="cls-1" d="M54,48.38a3.72,3.72,0,0,1,.37.1c.82.12,1.82.44,1.65,1.59a1.33,1.33,0,0,1-1,1.54c-.58.11-1.16.18-1.72.23"/><path class="cls-1" d="M47.34,48.14c-.91.09-1.45.11-2.27.23"/><path class="cls-1" d="M42.58,50.32a1,1,0,0,0,0,.17c.35,1.06,2,1.31,3.14,1.31,2.1,0,4,.15,6,.12"/><path class="cls-1" d="M42.61,49.91a.94.94,0,0,0,0,.41"/><path class="cls-1" d="M53.32,51.84c-.53,0-1,.07-1.57.08"/><path class="cls-1" d="M47.34,48.14l1-.13c.29,0,.79.06,1.25,0"/><path class="cls-1" d="M51.83,48.13c-.71,0-1.28,0-2.19-.11"/><path class="cls-1" d="M42.61,49.91a2.53,2.53,0,0,1,2-1.47l.47-.07"/><path class="cls-1" d="M50,48a1.28,1.28,0,0,1-.34.07"/><path class="cls-1" d="M49.56,48h.08"/><path class="cls-1" d="M30,48a15.3,15.3,0,0,1,2.12-.14l.28,0"/><path class="cls-1" d="M29.16,51.72a2.1,2.1,0,0,1-.75-.23,1.76,1.76,0,0,1-.65-.65"/><path class="cls-1" d="M42.58,50.32A2.06,2.06,0,0,1,41,51.53c-3.4.49-5.87.09-9.29.09a7.19,7.19,0,0,0-1.22.07"/><path class="cls-1" d="M27.87,49.57a2.76,2.76,0,0,0-.15.46,1.2,1.2,0,0,0,0,.81"/><path class="cls-1" d="M27.87,49.57a2.58,2.58,0,0,1,2-1.49L30,48"/><path class="cls-1" d="M32.4,47.92a24.62,24.62,0,0,1,2.84,0,16.2,16.2,0,0,0,2.65.11"/><path class="cls-1" d="M42.61,49.91h0a2.14,2.14,0,0,0-1.9-1.68"/><path class="cls-1" d="M37.89,48.06a13.31,13.31,0,0,1,2.82.16"/><path class="cls-1" d="M29.16,51.72a5.76,5.76,0,0,0,1.31,0"/><path class="cls-1" d="M42.58,50.32a.83.83,0,0,0,0-.41"/><path class="cls-1" d="M53.32,51.84a11.54,11.54,0,0,0-1.57.08"/><path class="cls-1" d="M50.68,55.75a2.46,2.46,0,0,1-1.48-1.57c-.3-1,.77-1.72,1.66-2a3.74,3.74,0,0,1,.89-.22"/><path class="cls-1" d="M53.32,51.84c.47,0,.94,0,1.4,0a13.41,13.41,0,0,1,1.68.06,15.67,15.67,0,0,0,2.83.1"/><path class="cls-1" d="M34.5,53.38a1.46,1.46,0,0,0-.11.52"/><path class="cls-1" d="M36.8,55.84c-1.24-.22-2.39-.77-2.41-1.88V53.9"/><path class="cls-1" d="M47.44,55.59a2.12,2.12,0,0,0,1.65-2.16c-.65-2.21-5.12-1.53-7.78-1.53-1.76,0-3.53-.35-5.12.29-.66.29-1.41.56-1.69,1.19"/><path class="cls-1" d="M33.08,55.61l.1-.06a2.5,2.5,0,0,0,1.21-1.65"/><path class="cls-1" d="M30.47,51.69c1.84,0,3.67.44,4,1.69"/><path class="cls-1" d="M29.16,51.72l-.69.06a13.8,13.8,0,0,1-3.08.07"/><path class="cls-1" d="M34.39,53.9a4.17,4.17,0,0,0,.13-.42.36.36,0,0,0,0-.1"/><path class="cls-1" d="M29.16,51.72c.43,0,.87,0,1.31,0"/><path class="cls-1" d="M25.09,55.84a11.07,11.07,0,0,1-1.57-.29,1.74,1.74,0,0,1-1.19-1.21s0-.08,0-.12"/><path class="cls-1" d="M25.39,51.85h0a5.7,5.7,0,0,0-1.18.18"/><path class="cls-1" d="M22.31,54a1.13,1.13,0,0,0,0,.26"/><path class="cls-1" d="M24.17,52a1.49,1.49,0,0,0-.36.17c-.66.46-1.42,1-1.5,1.77"/><path class="cls-1" d="M22.31,40.34a6.28,6.28,0,0,0,.85-.23c.65-.29,1.77-1.17,1.35-2.06a2.2,2.2,0,0,0-1.82-1.35l-.38-.05"/><path class="cls-1" d="M22.31,44.57c.75,0,1.55-.07,2.35-.16"/><path class="cls-1" d="M26.67,44.11c.77-.13,1.5-.27,2.15-.4s1.41-.88,1.41-1.42c-.18-.88-1.33-1.5-2.39-1.67-1.23,0-2.38-.36-3.71-.36a11.2,11.2,0,0,0-1.82.15"/><path class="cls-1" d="M26.67,44.11c-.65.11-1.33.22-2,.3"/><path class="cls-1" d="M22.31,47.11a1.6,1.6,0,0,0,.5-1.1,1.22,1.22,0,0,0-.5-1"/><path class="cls-1" d="M22.31,48.1c.67.07,1.39,0,2.1.06"/><path class="cls-1" d="M25.13,48.2l-.72,0"/><path class="cls-1" d="M24.17,52q-.92.09-1.86.09"/><path class="cls-1" d="M22.31,48.11l.26,0"/><path class="cls-1" d="M27.76,50.84a2.54,2.54,0,0,1-.89.65,12.76,12.76,0,0,1-1.48.36"/><path class="cls-1" d="M27.76,50.84A1,1,0,0,0,28,49.78l-.12-.21"/><path class="cls-1" d="M27.87,49.57a3.2,3.2,0,0,0-2.74-1.37"/><path class="cls-1" d="M24.17,52c.41-.05.82-.1,1.22-.17"/><path class="cls-1" d="M25.92,53.08c1.12,2.48,3.82,2.25,4.72-.22C28.62,53.87,27.94,53.87,25.92,53.08Z"/><path class="cls-1" d="M59,52.88c-2,1-2.7,1-4.73.22C55.36,55.58,58.06,55.35,59,52.88Z"/><path class="cls-1" d="M51.27,49.09c-2,1-2.7,1-4.73.22C47.67,51.79,50.37,51.56,51.27,49.09Z"/><path class="cls-1" d="M22.31,51.19a2.83,2.83,0,0,0,1.94-1.92,6.78,6.78,0,0,1-1.94.74"/><path class="cls-1" d="M31.67,45.3c-2,1-2.7,1-4.73.22C28.07,48,30.77,47.77,31.67,45.3Z"/><path class="cls-1" d="M59.37,45.38c-2,1-2.7,1-4.72.22C55.77,48.08,58.47,47.85,59.37,45.38Z"/><path class="cls-1" d="M22.31,43.36c1.25.7,2.82.08,3.46-1.69-1.54.77-2.3.95-3.46.65"/><path class="cls-1" d="M53.77,41.63c-2,1-2.7,1-4.73.22C50.17,44.33,52.87,44.1,53.77,41.63Z"/><path class="cls-1" d="M46.64,37.71c-2,1-2.7,1-4.72.23C43,40.41,45.74,40.19,46.64,37.71Z"/><path class="cls-1" d="M44.08,54.85c-.9-2.48-3.6-2.7-4.72-.23C41.38,53.84,42.06,53.84,44.08,54.85Z"/><path class="cls-1" d="M32.65,50.58c2-.78,2.7-.78,4.72.23C36.47,48.33,33.77,48.11,32.65,50.58Z"/><path class="cls-1" d="M41,47.1c2-.78,2.7-.78,4.73.23C44.79,44.85,42.09,44.63,41,47.1Z"/><path class="cls-1" d="M39.58,43.35c-.9-2.48-3.6-2.7-4.72-.23C36.88,42.34,37.56,42.34,39.58,43.35Z"/><path class="cls-1" d="M28.4,39.08c2-.78,2.7-.78,4.72.23C32.22,36.83,29.52,36.61,28.4,39.08Z"/><line class="cls-1" x1="22.31" y1="48.11" x2="22.31" y2="48.1"/><rect class="cls-2" x="22.31" y="36.37" width="54.13" height="54.13"/><path class="cls-1" d="M20.06,1.6c1.25-.22,2.3-.8,2.19-2.12-.12-.94-1.08-1.07-2.08-1.37-.44-.1-.89-.18-1.33-.25"/><path class="cls-1" d="M20.06,1.6a7.71,7.71,0,0,1-1.44.12"/><path class="cls-1" d="M16.88-2.3c-.44,0-.89,0-1.35,0-2.24.11-5.61,0-5.77,2.47.38,1.15,2,1.53,3.3,1.65C14.59,2,16,1.6,17.59,1.66c.32,0,.67.05,1,.06"/><path class="cls-1" d="M7.79,1.61C8.9,1.39,10,.52,9.76-.63A2.28,2.28,0,0,0,8.11-2a9.32,9.32,0,0,1-1.36-.18"/><path class="cls-1" d="M-3,1.66a76,76,0,0,1,9.18,0"/><path class="cls-1" d="M6.15,1.64l1.07,0a2.2,2.2,0,0,0,.57,0"/><path class="cls-1" d="M20.06,1.6c.5,0,1,.06,1.54.06h.71"/><path class="cls-1" d="M22.31,5.8l-1.15,0"/><path class="cls-1" d="M18.05,5.27a2.33,2.33,0,0,0,.6.16,17.29,17.29,0,0,0,2.51.33"/><path class="cls-1" d="M20.06,1.6a5.26,5.26,0,0,0-1.44.12"/><path class="cls-1" d="M18.62,1.72a2.78,2.78,0,0,0-.38.12C17.48,2.25,16.31,3,16.66,4a2.45,2.45,0,0,0,1.39,1.28"/><path class="cls-1" d="M12.43,5.78c-1.37,0-2.73-.1-4.11-.16"/><path class="cls-1" d="M14.39,5.59a6.25,6.25,0,0,1-1.16.2h-.8"/><path class="cls-1" d="M6.22,5.53l.3,0,1.8.07"/><path class="cls-1" d="M14.39,5.59a2.68,2.68,0,0,0,2.16-2.08c-.09-1-.62-1.6-2.48-1.6-2.57,0-4.55-.19-4.55-.19-.57,0-1.15-.08-1.73-.11"/><path class="cls-1" d="M6.15,1.64a9,9,0,0,1,1.64,0"/><path class="cls-1" d="M6.15,1.64A4.75,4.75,0,0,0,5.1,1.9c-.71.35-1.53,1.18-1.24,1.94A2.89,2.89,0,0,0,6.22,5.53"/><path class="cls-1" d="M-7.95,1.76a2.48,2.48,0,0,0-.44.2c-.77.41-1.71,1.35-1.36,2.18.53,1.35,2.52,1.13,3.94,1.13,3-.06,6,.75,9-.25.67-.22.63-1.16.53-2.06C3.42.63-.7,1.88-3,1.66"/><path class="cls-1" d="M18.05,5.27l.37.05a12.54,12.54,0,0,1,2.74.44"/><path class="cls-1" d="M22.31,6.27c-.15-.09-.31-.17-.47-.25a6.31,6.31,0,0,0-.68-.26"/><path class="cls-1" d="M14.39,5.59a13.43,13.43,0,0,0-2,.19"/><path class="cls-1" d="M18.05,5.27a4.83,4.83,0,0,0-1.69.11,11.67,11.67,0,0,1-2,.21"/><path class="cls-1" d="M18,9.57a24.28,24.28,0,0,0,2.54-.13,3.88,3.88,0,0,0,.8-.12"/><path class="cls-1" d="M12.43,5.78c-1.15.24-2,.8-1.85,2.31.06.41.59.82,1.12,1a43.75,43.75,0,0,0,6.3.48"/><path class="cls-1" d="M21.48,9.29A3.81,3.81,0,0,0,22.31,9"/><path class="cls-1" d="M21.34,9.32l.14,0"/><path class="cls-1" d="M7.16,9.36a8,8,0,0,1-1.7.08L5,9.38"/><path class="cls-1" d="M-2.48,9.29a2.52,2.52,0,0,1-2-1.62C-4.65,7.15-4,5.94-3,5.73-1,5.34.8,5.73,2.74,5.67c1,0,2.24-.13,3.48-.14"/><path class="cls-1" d="M5,9.38a41.78,41.78,0,0,0-5.25,0"/><path class="cls-1" d="M6.22,5.53a15.71,15.71,0,0,1,2.1.09"/><path class="cls-1" d="M7.16,9.36l.89-.15c1.12-.3,2.41-.89,2.59-2.12-.1-.9-1.05-1.31-2.32-1.47"/><path class="cls-1" d="M21.48,9.32h-.14"/><path class="cls-1" d="M21.34,9.32A15.91,15.91,0,0,0,18,9.57"/><path class="cls-1" d="M21.48,9.29c.27,0,.55,0,.83,0"/><path class="cls-1" d="M15.71,11.12c.07-.56.63-.88,1.24-1.21A6.46,6.46,0,0,1,18,9.57"/><path class="cls-1" d="M15.77,11.62c.29,1.12,1.59,1.59,2.77,1.59"/><path class="cls-1" d="M15.71,11.12a1,1,0,0,0,.06.5"/><path class="cls-1" d="M21.48,9.29l-.29,0"/><path class="cls-1" d="M19.35,13.25l-.81,0"/><path class="cls-1" d="M19.35,13.25c1,0,2,.07,3,.06"/><path class="cls-1" d="M2,11.12A2.64,2.64,0,0,1,3.39,9.74,5.55,5.55,0,0,1,5,9.38"/><path class="cls-1" d="M2,11.34a.88.88,0,0,0,0,.28c.12.83,1.12,1.24,2,1.42.58.09,1.15.16,1.71.22"/><path class="cls-1" d="M15.77,11.62a1.27,1.27,0,0,0-.06-.5"/><path class="cls-1" d="M7.16,9.36c-.74,0-1.47,0-2.18,0"/><path class="cls-1" d="M7.61,13.39a27.15,27.15,0,0,0,7-.71,2.07,2.07,0,0,0,1.18-1.06"/><path class="cls-1" d="M7.16,9.36a12,12,0,0,0,1.89-.09c2-.31,4.76,0,5.69.82.43.39.82.62,1,1"/><path class="cls-1" d="M7.61,13.39c-.64,0-1.28-.06-1.92-.13"/><path class="cls-1" d="M2,11.12a.78.78,0,0,0,0,.22"/><path class="cls-1" d="M2,11.34a2.07,2.07,0,0,0,0-.22"/><path class="cls-1" d="M2,11.12c.11-1-1.26-1.61-2.29-1.72"/><path class="cls-1" d="M2,11.34l0,0c-.17.53-.23.86-.88,1.15a7.85,7.85,0,0,1-2.22.65"/><path class="cls-1" d="M14.2,17.23h.09c2.42-.18,4.78-.06,7-.77.47-.11,1.12-.64.88-1.23a3.43,3.43,0,0,0-2.84-2"/><path class="cls-1" d="M9.93,14.75a.9.9,0,0,0-.07.48"/><path class="cls-1" d="M12.88,17.2a8.32,8.32,0,0,0,1.32,0"/><path class="cls-1" d="M12.88,17.2a7.07,7.07,0,0,1-1.24-.27c-.73-.35-1.71-.94-1.78-1.7"/><path class="cls-1" d="M19.35,13.25a4.4,4.4,0,0,0-.81,0"/><path class="cls-1" d="M9.93,14.75c1.12-2.54,4-1.18,6.25-1.54.76-.12,1.71.18,2.36,0"/><path class="cls-1" d="M7.14,17.12l-.21,0c-.54.09-1.06.16-1.58.21"/><path class="cls-1" d="M-1.14,13.17c1.26,0,2.51,0,3.77,0"/><path class="cls-1" d="M-2.47,17l.15,0a28.2,28.2,0,0,0,4,.49"/><path class="cls-1" d="M5.35,17.37a24,24,0,0,1-3.68.1"/><path class="cls-1" d="M5.69,13.26a12.26,12.26,0,0,1-3.42,0"/><path class="cls-1" d="M9.93,14.75a3.13,3.13,0,0,0-2.32-1.36"/><path class="cls-1" d="M7.61,13.39l-.8-.12a10.48,10.48,0,0,0-1.12,0"/><path class="cls-1" d="M9.86,15.23c-.33,1.2-1.57,1.62-2.72,1.89"/><path class="cls-1" d="M9.93,14.75a2.41,2.41,0,0,1-.07.48"/><path class="cls-1" d="M16.42,19.12a2.74,2.74,0,0,0,0,.28A3,3,0,0,0,19,21.05"/><path class="cls-1" d="M16.48,18.64a1.54,1.54,0,0,0-.06.48"/><path class="cls-1" d="M19,21.05l.48.06,1.51,0"/><path class="cls-1" d="M21,21.15l1.32,0"/><path class="cls-1" d="M16.48,18.64A2.53,2.53,0,0,1,18,17.22a11.69,11.69,0,0,1,4.36-.34"/><path class="cls-1" d="M7.14,17.12c.51,0,1,0,1.56,0,1.44.08,2.8,0,4.18,0"/><path class="cls-1" d="M16.42,19.12c-.25.79-1.23,1.32-2.07,1.69a6.37,6.37,0,0,1-.69.25"/><path class="cls-1" d="M7.46,21.23c-.77-.15-1.54-.33-2.3-.53a1.87,1.87,0,0,1-1.35-1.12c-.4-1,.72-1.92,1.54-2.21"/><path class="cls-1" d="M16.48,18.64a1.5,1.5,0,0,0,0-.2,1.79,1.79,0,0,0-1.4-1.16l-.86-.05"/><path class="cls-1" d="M7.14,17.12a6.14,6.14,0,0,0-1.68.22l-.11,0"/><path class="cls-1" d="M12.88,17.2c.44,0,.87,0,1.32,0"/><path class="cls-1" d="M11.82,21.45a13.6,13.6,0,0,1-3,0"/><path class="cls-1" d="M11.82,21.45a10.57,10.57,0,0,0,1.84-.39"/><path class="cls-1" d="M16.42,19.12a1.1,1.1,0,0,0,.06-.48"/><path class="cls-1" d="M8.83,21.43c-.46-.05-.91-.12-1.37-.2"/><path class="cls-1" d="M-1.19,21.23A5.94,5.94,0,0,0,.71,21"/><path class="cls-1" d="M.71,21A8.85,8.85,0,0,1,2,20.81c1.88-.11,1.65-1.06,1.65-1.88s-1.08-1.22-2-1.46"/><path class="cls-1" d="M-2.47,17a27.72,27.72,0,0,1,3.86.45l.28.07"/><path class="cls-1" d="M19,21.05a6.18,6.18,0,0,1,2,.1"/><path class="cls-1" d="M11.82,21.45a2.12,2.12,0,0,0-1.42,1.9c1,1.47,3.11,1.43,4.38,1.55a25.14,25.14,0,0,0,2.58.12"/><path class="cls-1" d="M19.82,24.83a13,13,0,0,0,2-.48,1.42,1.42,0,0,0,.53-.3"/><path class="cls-1" d="M21,21.15a2.48,2.48,0,0,1,1.32.78"/><path class="cls-1" d="M13.66,21.06a5.69,5.69,0,0,0-1.84.39"/><path class="cls-1" d="M13.66,21.06a16.16,16.16,0,0,1,2.67.08A17.07,17.07,0,0,0,19,21.05"/><path class="cls-1" d="M19.82,24.83a15.5,15.5,0,0,1-2.46.19"/><path class="cls-1" d="M7.46,21.23a34.79,34.79,0,0,0-4.89-.3h.12c-.7,0-1.34,0-2,.09"/><path class="cls-1" d="M-1.19,21.23.71,21"/><path class="cls-1" d="M4.24,24.93A34.19,34.19,0,0,0,8,24.6"/><path class="cls-1" d="M4.24,24.93a44.66,44.66,0,0,1-4.62-.08"/><path class="cls-1" d="M8.83,21.43a2,2,0,0,1,1.52,1.15c.32,1-.65,1.71-1.24,1.83L8,24.6"/><path class="cls-1" d="M8.83,21.43l-.13,0c-.28,0-.72-.11-1.24-.17"/><path class="cls-1" d="M19.82,24.83c.36,0,.71,0,1.06.07a9.84,9.84,0,0,0,1.43,0"/><path class="cls-1" d="M19.21,28.85c1.05.08,2.08.14,3.1.12"/><path class="cls-1" d="M19.82,24.83a9,9,0,0,0-2.46.19"/><path class="cls-1" d="M17.48,28.65c.26.05.54.09.82.12l.91.08"/><path class="cls-1" d="M15.16,27.17a3.67,3.67,0,0,0,2.32,1.48"/><path class="cls-1" d="M15.24,26.78A2.92,2.92,0,0,1,17.36,25"/><path class="cls-1" d="M15.24,26.78a2,2,0,0,0-.12.34l0,.05"/><path class="cls-1" d="M8,24.6a25.6,25.6,0,0,0-3.73.33"/><path class="cls-1" d="M15.24,26.78a.85.85,0,0,0-.06-.31,3.14,3.14,0,0,0-1.89-1.53,13.7,13.7,0,0,0-5.18-.35H8"/><path class="cls-1" d="M7.68,28.67c-.77,0-1.55-.05-2.34,0a6.52,6.52,0,0,1-1,0"/><path class="cls-1" d="M4.24,24.93a8.57,8.57,0,0,0-1,.3c-.65.3-1.65,1.06-1.42,1.89.28,1.09,1.4,1.48,2.55,1.55"/><path class="cls-1" d="M15.24,26.78a1.09,1.09,0,0,1-.08.39"/><path class="cls-1" d="M7.68,28.67A18.75,18.75,0,0,0,14,28.24a2.3,2.3,0,0,0,1.16-1.07"/><path class="cls-1" d="M-8.92,28.3c4.65-.09,4.7.75,8.06-.05.61-.14,2.43-.39,2.51-1.19.14-1.25-.76-1.9-2-2.21"/><path class="cls-1" d="M9.77,30.9c.1.62.9,1.18,1.64,1.46l.27.08"/><path class="cls-1" d="M9.76,30.35c.22-2.17,3.55-1.75,5.48-1.7l-.06.06a11.38,11.38,0,0,1,2.3-.06"/><path class="cls-1" d="M17.48,28.65a14.09,14.09,0,0,1,1.73.2"/><path class="cls-1" d="M11.68,32.44a9.94,9.94,0,0,0,2.22.29"/><path class="cls-1" d="M18.34,32.6h.14a5.16,5.16,0,0,0,.89-.14"/><path class="cls-1" d="M13.9,32.73c1.46,0,2.93-.16,4.44-.13"/><path class="cls-1" d="M9.76,30.35a1.93,1.93,0,0,0,0,.48.2.2,0,0,0,0,.07"/><path class="cls-1" d="M19.37,32.46c.4-.09.8-.21,1.23-.33,1-.3,1.71-1,1.6-1.84-.07-.67-1.41-1.17-3-1.44"/><path class="cls-1" d="M9.76,30.35l-.06-.17a2.92,2.92,0,0,0-2-1.51"/><path class="cls-1" d="M9.77,30.9a1.14,1.14,0,0,0,0-.55"/><path class="cls-1" d="M7.68,28.67l-.1,0a11.48,11.48,0,0,0-3.23,0"/><path class="cls-1" d="M-.91,32.51c1,.08,2,.17,3,.23"/><path class="cls-1" d="M5.67,32.73a24.43,24.43,0,0,1-3.63,0"/><path class="cls-1" d="M9.77,30.9A2,2,0,0,1,8.4,32.19q-.37.12-.75.21"/><path class="cls-1" d="M5.67,32.73a12.4,12.4,0,0,0,2-.33"/><path class="cls-1" d="M-5.12,30.3c.14-.56,1-1,1.52-1.34,1.29-.8,7-.22,7-.22l.93-.07"/><path class="cls-1" d="M21.13,36.37h-.88a4.7,4.7,0,0,1-3.91-1.53"/><path class="cls-1" d="M16.39,34.39a2.23,2.23,0,0,0-.09.39l0,.06"/><path class="cls-1" d="M19.37,32.46c1-.05,2,.07,2.94.08"/><path class="cls-1" d="M18.34,32.6a2.41,2.41,0,0,0-1.95,1.79"/><path class="cls-1" d="M18.34,32.6a5.56,5.56,0,0,1,1-.14"/><path class="cls-1" d="M11.68,32.44c-.56,0-1.13,0-1.72,0l-.84-.13-1.47.08"/><path class="cls-1" d="M13.9,32.73a8.88,8.88,0,0,0-2.22-.29"/><path class="cls-1" d="M7.65,32.4a9.31,9.31,0,0,0-2,.33"/><path class="cls-1" d="M3.61,34.18a1,1,0,0,0,0,.54"/><path class="cls-1" d="M16.34,34.84a.8.8,0,0,0,.05-.45"/><path class="cls-1" d="M5.67,32.73c-.24.07-.49.15-.74.25a2.07,2.07,0,0,0-1.32,1.2"/><path class="cls-1" d="M16.34,34.84a2,2,0,0,1-1.4,1.06,29.86,29.86,0,0,1-10.25-.12,1.53,1.53,0,0,1-1.06-1.06"/><path class="cls-1" d="M13.9,32.73a5.07,5.07,0,0,1,2.34,1.4.76.76,0,0,1,.15.26"/><path class="cls-1" d="M3.63,34.72a1.39,1.39,0,0,0,0-.54"/><path class="cls-1" d="M2,32.74a2.39,2.39,0,0,1,1.57,1.44"/><path class="cls-1" d="M3.63,34.72a1.83,1.83,0,0,1-1,1.31,3.22,3.22,0,0,1-1.06.34"/><path class="cls-1" d="M1.61,36.37a9.74,9.74,0,0,1-2.53,0"/><path class="cls-1" d="M-.91,32.51a7.33,7.33,0,0,1,2.71.15l.24.08"/><path class="cls-1" d="M13.11,30.21c1.12,2.47,3.82,2.25,4.72-.23C15.81,31,15.13,31,13.11,30.21Z"/><path class="cls-1" d="M.81,22.35c1.13,2.48,3.83,2.25,4.73-.22C3.51,23.14,2.84,23.14.81,22.35Z"/><path class="cls-1" d="M18,14.57c-2,1-2.7,1-4.73.22C14.44,17.27,17.14,17,18,14.57Z"/><path class="cls-1" d="M.44,6.75C1.56,9.22,4.26,9,5.16,6.52,3.14,7.54,2.46,7.54.44,6.75Z"/><path class="cls-1" d="M4.83-1.25c-2,1-2.7,1-4.72.23C1.23,1.45,3.93,1.23,4.83-1.25Z"/><path class="cls-1" d="M7.42,35c2-.79,2.7-.79,4.72.23C11.24,32.79,8.54,32.57,7.42,35Z"/><path class="cls-1" d="M.54,31.65c2-.79,2.7-.79,4.73.22C4.37,29.4,1.67,29.17.54,31.65Z"/><path class="cls-1" d="M6.29,27.62c2-.78,2.7-.78,4.73.23C10.12,25.37,7.42,25.15,6.29,27.62Z"/><path class="cls-1" d="M19.39,24c-.9-2.48-3.6-2.7-4.72-.23C16.69,23,17.37,23,19.39,24Z"/><path class="cls-1" d="M7.88,20c2-.79,2.7-.79,4.72.22C11.7,17.73,9,17.5,7.88,20Z"/><path class="cls-1" d="M-.12,16.1c2-.78,2.7-.78,4.72.23C3.7,13.85,1,13.63-.12,16.1Z"/><path class="cls-1" d="M11.31,12.27c-.9-2.48-3.6-2.7-4.72-.23C8.61,11.25,9.29,11.25,11.31,12.27Z"/><path class="cls-1" d="M19,8.43c-.9-2.47-3.6-2.7-4.73-.22C16.3,7.42,17,7.42,19,8.43Z"/><path class="cls-1" d="M18.16.85c-.9-2.48-3.6-2.7-4.72-.23C15.46-.16,16.14-.16,18.16.85Z"/><path class="cls-1" d="M7.73,4.31c2-.79,2.7-.79,4.73.23C11.56,2.06,8.86,1.84,7.73,4.31Z"/><path class="cls-1" d="M22.31,34.17a6.39,6.39,0,0,1-2.18-.57,2.67,2.67,0,0,0,2.18,1.75"/><path class="cls-1" d="M22.31,26.73a5,5,0,0,1-2.75-.52,2.52,2.52,0,0,0,2.75,1.7"/><path class="cls-1" d="M22.31,19a6.94,6.94,0,0,1-2.1-.56,2.69,2.69,0,0,0,2.1,1.73"/><path class="cls-1" d="M22.31,11.13a4.85,4.85,0,0,1-2.85-.51,2.48,2.48,0,0,0,2.85,1.68"/><path class="cls-1" d="M22.31,3.65a10.24,10.24,0,0,1-1.58-.5,2.92,2.92,0,0,0,1.58,1.61"/><rect class="cls-2" x="-31.81" y="-17.75" width="54.13" height="54.13"/><path class="cls-1" d="M13.87,40.18l-.17-.07a3,3,0,0,1-1.41-1.29,1.58,1.58,0,0,1,1.12-2.09,9.5,9.5,0,0,1,1.86-.36"/><path class="cls-1" d="M13.87,40.18a7.1,7.1,0,0,0,2.46.33"/><path class="cls-1" d="M15.27,36.37c1.08-.09,2.08,0,3.15,0,.37,0,.73,0,1.09,0"/><path class="cls-1" d="M22.31,36.66c-1-.12-1.86-.23-2.8-.29"/><path class="cls-1" d="M22.31,40.33a10.53,10.53,0,0,1-3.07.14c-1-.06-1.95,0-2.91,0"/><path class="cls-1" d="M-1,40.4a2.91,2.91,0,0,0,1,.19c1,0,2,.07,2.9.07"/><path class="cls-1" d="M7.26,40.44c.87-.09,1.74-.21,2.62-.37"/><path class="cls-1" d="M7.26,40.44a41.57,41.57,0,0,1-4.33.22"/><path class="cls-1" d="M9.88,40.07l1-.19c.7-.12,1.53-1.06,1.18-1.65-1.48-2.53-4.39-1.68-7.22-1.68-2.14,0-4.39-.38-6.28.32a1.65,1.65,0,0,0-1.12,1.71A2.29,2.29,0,0,0-1,40.4"/><path class="cls-1" d="M19.9,44.32a2.32,2.32,0,0,1-2-1.94,2.1,2.1,0,0,1,2.16-1.72,15.63,15.63,0,0,0,2.23-.25"/><path class="cls-1" d="M21.23,44.54q.52,0,1.08,0"/><path class="cls-1" d="M21.23,44.54a7.53,7.53,0,0,1-1.33-.22"/><path class="cls-1" d="M14.37,44.21l1.69-.15c.53,0,1.59-1.18,1.79-1.68.41-1-.33-1.57-1.52-1.87"/><path class="cls-1" d="M13.87,40.18a14.5,14.5,0,0,1,2.46.33"/><path class="cls-1" d="M13.87,40.18l-1.61-.09c-.73,0-1.55,0-2.38,0"/><path class="cls-1" d="M12.23,44.41c-3.46.3-7.12.37-7.3-1.58a3.32,3.32,0,0,1,2.33-2.39"/><path class="cls-1" d="M12.23,44.41l2.14-.2"/><path class="cls-1" d="M9.88,40.07a9.27,9.27,0,0,0-2.62.37"/><path class="cls-1" d="M-1.77,44.37c.85-.07,1.71-.17,2.54-.29"/><path class="cls-1" d="M-1,40.4c1.35.07,2.71.15,3.9.26"/><path class="cls-1" d="M.77,44.08c.93-.14,1.84-.3,2.65-.46S5.23,42.87,5,42.07A2.08,2.08,0,0,0,3.42,40.7l-.49,0"/><path class="cls-1" d="M14.37,44.21a9.42,9.42,0,0,0-2.14.2"/><path class="cls-1" d="M10.17,46.38a3.22,3.22,0,0,0,2.11,1.88"/><path class="cls-1" d="M10.14,46.27l0,.11"/><path class="cls-1" d="M10.14,46.27c-.18-.7.79-1.32,1.5-1.68.2-.07.39-.13.59-.18"/><path class="cls-1" d="M12.28,48.26a4.51,4.51,0,0,0,1,.22l.48.06"/><path class="cls-1" d="M13.71,48.54a12.61,12.61,0,0,0,3.08-.06"/><path class="cls-1" d="M14.37,44.21c.61,0,1.24,0,1.87,0,1.19,0,2.52,0,3.66.08"/><path class="cls-1" d="M18.26,48.24c-.49.09-1,.18-1.47.24"/><path class="cls-1" d="M21.23,44.54a9.22,9.22,0,0,0-1.33-.22"/><path class="cls-1" d="M21.23,44.54a2.92,2.92,0,0,1,1.08.48"/><path class="cls-1" d="M18.26,48.24c1-.2,2-.44,3.11-.64a1.83,1.83,0,0,0,.94-.51"/><path class="cls-1" d="M4.81,48.25A32.33,32.33,0,0,0,8.12,48"/><path class="cls-1" d="M10.17,46.38A1.67,1.67,0,0,1,8.81,48q-.35.06-.69.09"/><path class="cls-1" d="M10.14,46.27a.23.23,0,0,1,0,.11"/><path class="cls-1" d="M.77,44.08a9.47,9.47,0,0,0-2.54.29"/><path class="cls-1" d="M.77,44.08c1.07,0,2.16.1,3.09.16,2.3.14,5.25-.12,6.28,2"/><path class="cls-1" d="M-.09,48.38c1.69-.13,3.27-.1,4.9-.13"/><path class="cls-1" d="M22,48.07l.3,0"/><path class="cls-1" d="M18.26,48.24a23.82,23.82,0,0,1,4-.12"/><path class="cls-1" d="M16.79,48.48a2.24,2.24,0,0,0-1.52,1.86c0,.92.79,1.31,1.61,1.48"/><path class="cls-1" d="M16.88,51.82a4,4,0,0,0,.48.08l1.48.09"/><path class="cls-1" d="M18.84,52c1.17.07,2.33.13,3.47.12"/><path class="cls-1" d="M18.26,48.24l-.92.11a2.59,2.59,0,0,0-.55.13"/><path class="cls-1" d="M12.28,48.26a5.26,5.26,0,0,1,1.43.28"/><path class="cls-1" d="M12.28,48.26A31,31,0,0,1,9,48.08H8.5l-.38,0"/><path class="cls-1" d="M8.12,48a11.43,11.43,0,0,0-3.31.21"/><path class="cls-1" d="M5.1,52a5.4,5.4,0,0,0,1.65-.1"/><path class="cls-1" d="M4.81,48.25l-1.36.23c-.78.13-1.65,1.18-1.29,2a2.18,2.18,0,0,0,1.47,1.23A7.34,7.34,0,0,0,5.1,52"/><path class="cls-1" d="M13.71,48.54a2.44,2.44,0,0,1,1.41,1.36c.29.64-.53,1.71-1.36,1.82-2.35.59-4.53-.29-7,.18"/><path class="cls-1" d="M-.09,48.38l.36.1c.83.12,1.83.44,1.65,1.59a1.31,1.31,0,0,1-1,1.54c-.59.11-1.16.18-1.73.23"/><path class="cls-1" d="M20.06,55.73c1.25-.22,2.3-.81,2.19-2.12-.12-.94-1.08-1.08-2.08-1.37-.44-.1-.89-.19-1.33-.25"/><path class="cls-1" d="M16.88,51.82c-.44,0-.89,0-1.35,0-2.24.12-5.61,0-5.77,2.48.38,1.14,2,1.53,3.3,1.65,1.53.11,2.94-.24,4.53-.18.32,0,.67.05,1,.05"/><path class="cls-1" d="M16.88,51.82a16,16,0,0,1,2,.17"/><path class="cls-1" d="M7.79,55.74c1.11-.22,2.22-1.09,2-2.25a2.25,2.25,0,0,0-1.65-1.41,9.32,9.32,0,0,1-1.36-.18"/><path class="cls-1" d="M6.75,51.9c-.56,0-1.1.08-1.65.1"/><path class="cls-1" d="M-.81,51.84c.48,0,1,0,1.4,0a13.41,13.41,0,0,1,1.68.06A15.73,15.73,0,0,0,5.1,52"/><path class="cls-1" d="M4.83,52.88c-2,1-2.7,1-4.72.22C1.23,55.58,3.93,55.35,4.83,52.88Z"/><path class="cls-1" d="M5.25,45.38c-2,1-2.7,1-4.73.22C1.65,48.08,4.35,47.85,5.25,45.38Z"/><path class="cls-1" d="M20.73,37.42c-2,1-2.7,1-4.73.23C17.13,40.12,19.83,39.9,20.73,37.42Z"/><path class="cls-1" d="M18.16,55c-.9-2.47-3.6-2.7-4.72-.22C15.46,54,16.14,54,18.16,55Z"/><path class="cls-1" d="M6.31,50.77C8.34,50,9,50,11,51,10.14,48.52,7.44,48.3,6.31,50.77Z"/><path class="cls-1" d="M18.5,47.27c-.9-2.48-3.6-2.7-4.73-.23C15.8,46.25,16.47,46.25,18.5,47.27Z"/><path class="cls-1" d="M13.87,43.29c-.9-2.48-3.6-2.7-4.72-.23C11.17,42.27,11.85,42.27,13.87,43.29Z"/><path class="cls-1" d="M2.52,39.21c2-.79,2.7-.79,4.73.22C6.35,37,3.65,36.73,2.52,39.21Z"/><path class="cls-1" d="M22.31,50a5,5,0,0,1-2.77-.52,2.52,2.52,0,0,0,2.77,1.7"/><path class="cls-1" d="M22.31,42.32c-.36-.1-.77-.24-1.25-.42a3.09,3.09,0,0,0,1.25,1.45"/><line class="cls-1" x1="22.31" y1="40.41" x2="22.31" y2="40.33"/><line class="cls-1" x1="22.31" y1="48.12" x2="22.31" y2="48.1"/><rect class="cls-2" x="-31.81" y="36.37" width="54.13" height="54.13"/><rect class="cls-2" width="54.42" height="54.42"/></svg>