<!-- Generator: Adobe Illustrator 22.1.0, SVG Export Plug-In  -->
<svg version="1.1"
     xmlns="http://www.w3.org/2000/svg" xmlns:xlink="http://www.w3.org/1999/xlink" xmlns:a="http://ns.adobe.com/AdobeSVGViewerExtensions/3.0/"
     x="0px" y="0px" width="54.1px" height="54px" viewBox="0 0 54.1 54" style="enable-background:new 0 0 54.1 54;"
     xml:space="preserve">
<style type="text/css">
    .st0{clip-path:url(#SVGID_2_);fill:none;stroke:#000000;stroke-width:0.3;}
    .st1{clip-path:url(#SVGID_4_);fill:none;stroke:#000000;stroke-width:0.3;}
</style>
<defs>
</defs>
<g>
    <defs>
        <rect id="SVGID_1_" x="0.1" width="54" height="54"/>
    </defs>
    <clipPath id="SVGID_2_">
        <use xlink:href="#SVGID_1_"  style="overflow:visible;"/>
    </clipPath>
    <line class="st0" x1="0.1" y1="6.9" x2="54.1" y2="6.9"/>
    <line class="st0" x1="54.1" y1="2.7" x2="0.1" y2="2.7"/>
    <path class="st0" d="M0.1,5.1c0.6,0,1.3,0.3,2.3,0.8C1.9,4.6,1,3.9,0.1,3.9"/>
    <path class="st0" d="M4.4,4.4c1.1,2.5,3.8,2.2,4.7-0.2C7.1,5.2,6.4,5.2,4.4,4.4z"/>
    <path class="st0" d="M27.6,15.6c-2,1-2.7,1-4.7,0.2C24,18.3,26.7,18.1,27.6,15.6z"/>
    <path class="st0" d="M45.7,10.2c-2,1-2.7,1-4.7,0.2C42.1,12.9,44.8,12.7,45.7,10.2z"/>
    <path class="st0" d="M27.3,30.8c1.1,2.5,3.8,2.2,4.7-0.2C30,31.6,29.3,31.6,27.3,30.8z"/>
    <path class="st0" d="M0.1,29c0.5-0.3,0.9-0.9,1.1-1.6c-0.4,0.2-0.8,0.4-1.1,0.5"/>
    <path class="st0" d="M26.9,41.3c-2,1-2.7,1-4.7,0.2C23.3,44,26,43.8,26.9,41.3z"/>
    <path class="st0" d="M5,48.4c1.1,2.5,3.8,2.2,4.7-0.2C7.7,49.2,7,49.2,5,48.4z"/>
    <path class="st0" d="M39.8,50.8c1.1,2.5,3.8,2.2,4.7-0.2C42.5,51.6,41.8,51.6,39.8,50.8z"/>
    <path class="st0" d="M11.1,5.6c2-0.8,2.7-0.8,4.7,0.2C15,3.4,12.3,3.2,11.1,5.6z"/>
    <path class="st0" d="M10.7,11.9C9.8,9.4,7.1,9.2,6,11.6C8,10.8,8.7,10.8,10.7,11.9z"/>
    <path class="st0" d="M38,22.9c2-0.8,2.7-0.8,4.7,0.2C41.8,20.7,39.1,20.5,38,22.9z"/>
    <path class="st0" d="M16.9,24.1c-0.9-2.5-3.6-2.7-4.7-0.2C14.2,23.1,14.9,23.1,16.9,24.1z"/>
    <path class="st0" d="M13.3,36.6c-0.9-2.5-3.6-2.7-4.7-0.2C10.6,35.5,11.3,35.5,13.3,36.6z"/>
    <path class="st0" d="M22,53c2-0.8,2.7-0.8,4.7,0.2C25.8,50.8,23.1,50.5,22,53z"/>
    <path class="st0" d="M44.8,39.6c2-0.8,2.7-0.8,4.7,0.2C48.6,37.4,45.9,37.2,44.8,39.6z"/>
    <path class="st0" d="M17.9,4.4c1.1,2.5,3.8,2.2,4.7-0.2C20.6,5.2,19.9,5.2,17.9,4.4z"/>
    <path class="st0" d="M24.6,5.6c2-0.8,2.7-0.8,4.7,0.2C28.5,3.4,25.8,3.2,24.6,5.6z"/>
    <path class="st0" d="M31.4,4.4c1.1,2.5,3.8,2.2,4.7-0.2C34.1,5.2,33.4,5.2,31.4,4.4z"/>
    <path class="st0" d="M38.1,5.6c2-0.8,2.7-0.8,4.7,0.2C42,3.4,39.3,3.2,38.1,5.6z"/>
    <path class="st0" d="M44.9,4.4c1.1,2.5,3.8,2.2,4.7-0.2C47.6,5.2,46.9,5.2,44.9,4.4z"/>
    <path class="st0" d="M54.1,3.9c-0.9-0.1-1.9,0.5-2.5,1.7c1.1-0.4,1.8-0.6,2.5-0.6"/>
    <path class="st0" d="M54.1,27.9c-1.2,0.5-2,0.3-3.6-0.3c0.8,1.8,2.4,2.2,3.6,1.3"/>
</g>
</svg>
