<svg id="Layer_1" data-name="Layer 1" xmlns="http://www.w3.org/2000/svg" width="54.15" height="53.98" viewBox="0 0 54.15 53.98"><defs><style>.cls-1,.cls-2{fill:none;}.cls-1{stroke:#231f20;stroke-width:0.3px;}</style></defs><title>Artboard 69</title><line class="cls-1" x1="13.47" y1="6.91" x2="67.45" y2="6.91"/><line class="cls-1" x1="67.45" y1="2.66" x2="13.47" y2="2.66"/><path class="cls-1" d="M13.47,5.08a6,6,0,0,1,2.27.78,2.71,2.71,0,0,0-2.27-2"/><path class="cls-1" d="M17.76,4.37c1.13,2.48,3.83,2.25,4.73-.22C20.46,5.16,19.79,5.16,17.76,4.37Z"/><path class="cls-1" d="M41,15.65c-2,1-2.7,1-4.73.22C37.39,18.35,40.09,18.12,41,15.65Z"/><path class="cls-1" d="M59.11,10.21c-2,1-2.7,1-4.72.23C55.51,12.91,58.21,12.69,59.11,10.21Z"/><path class="cls-1" d="M40.69,30.84c1.12,2.47,3.82,2.25,4.72-.23C43.39,31.62,42.71,31.62,40.69,30.84Z"/><path class="cls-1" d="M13.47,29a3.11,3.11,0,0,0,1.14-1.56,9.49,9.49,0,0,1-1.14.51"/><path class="cls-1" d="M40.24,41.34c-2,1-2.7,1-4.73.22C36.64,44,39.34,43.81,40.24,41.34Z"/><path class="cls-1" d="M18.39,48.4c1.12,2.47,3.82,2.25,4.72-.23C21.09,49.19,20.41,49.19,18.39,48.4Z"/><path class="cls-1" d="M53.14,50.81c1.12,2.48,3.82,2.25,4.72-.22C55.84,51.6,55.16,51.6,53.14,50.81Z"/><path class="cls-1" d="M24.51,5.63c2-.79,2.7-.79,4.73.23C28.34,3.38,25.64,3.16,24.51,5.63Z"/><path class="cls-1" d="M24.11,11.86c-.9-2.48-3.6-2.7-4.72-.23C21.41,10.84,22.09,10.84,24.11,11.86Z"/><path class="cls-1" d="M51.39,22.94c2-.78,2.7-.78,4.72.23C55.21,20.69,52.51,20.47,51.39,22.94Z"/><path class="cls-1" d="M30.26,24.13c-.9-2.47-3.6-2.7-4.72-.22C27.56,23.12,28.24,23.12,30.26,24.13Z"/><path class="cls-1" d="M26.71,36.56c-.9-2.48-3.6-2.7-4.72-.23C24,35.54,24.69,35.54,26.71,36.56Z"/><path class="cls-1" d="M35.39,53c2-.79,2.7-.79,4.72.22C39.21,50.76,36.51,50.53,35.39,53Z"/><path class="cls-1" d="M31.26,4.37c1.13,2.48,3.83,2.25,4.73-.22C34,5.16,33.29,5.16,31.26,4.37Z"/><path class="cls-1" d="M38,5.63c2-.79,2.7-.79,4.73.23C41.84,3.38,39.14,3.16,38,5.63Z"/><path class="cls-1" d="M44.76,4.37c1.13,2.48,3.83,2.25,4.73-.22C47.46,5.16,46.79,5.16,44.76,4.37Z"/><path class="cls-1" d="M51.51,5.63c2-.79,2.7-.79,4.73.23C55.34,3.38,52.64,3.16,51.51,5.63Z"/><rect class="cls-2" x="13.47" width="53.98" height="53.98"/><line class="cls-1" x1="-40.51" y1="6.91" x2="13.47" y2="6.91"/><line class="cls-1" x1="13.47" y1="2.66" x2="-40.51" y2="2.66"/><path class="cls-1" d="M5.14,10.21c-2,1-2.7,1-4.73.23C1.54,12.91,4.24,12.69,5.14,10.21Z"/><path class="cls-1" d="M-.84,50.81C.29,53.29,3,53.06,3.89,50.59,1.86,51.6,1.19,51.6-.84,50.81Z"/><path class="cls-1" d="M-2.59,22.94c2-.78,2.7-.78,4.73.23C1.24,20.69-1.46,20.47-2.59,22.94Z"/><path class="cls-1" d="M4.16,39.63c2-.79,2.7-.79,4.73.23C8,37.38,5.29,37.16,4.16,39.63Z"/><path class="cls-1" d="M-2.46,5.63c2-.79,2.7-.79,4.72.23C1.36,3.38-1.34,3.16-2.46,5.63Z"/><path class="cls-1" d="M4.29,4.37C5.41,6.85,8.11,6.62,9,4.15,7,5.16,6.31,5.16,4.29,4.37Z"/><path class="cls-1" d="M13.47,3.89A2.6,2.6,0,0,0,11,5.63a5.52,5.52,0,0,1,2.46-.55"/><path class="cls-1" d="M13.47,27.91c-1.23.46-2,.33-3.58-.29.8,1.77,2.4,2.16,3.58,1.34"/><rect class="cls-2" x="-40.51" width="53.98" height="53.98"/><rect class="cls-2" y="8.67" width="53.98" height="53.98"/></svg>