<!-- Generator: Adobe Illustrator 22.1.0, SVG Export Plug-In  -->
<svg version="1.1"
     xmlns="http://www.w3.org/2000/svg" xmlns:xlink="http://www.w3.org/1999/xlink" xmlns:a="http://ns.adobe.com/AdobeSVGViewerExtensions/3.0/"
     x="0px" y="0px" width="52.3px" height="47.1px" viewBox="0 0 52.3 47.1" style="enable-background:new 0 0 52.3 47.1;"
     xml:space="preserve">
<style type="text/css">
    .st0{fill:none;stroke:#000000;stroke-width:0.3;}
</style>
<defs>
</defs>
<path class="st0" d="M20.3,23.4h3c0.4-1,2.1-1,2.4,0h2.9"/>
<path class="st0" d="M20.3,24.7h3c0.4,1,2.1,1,2.4,0h2.9"/>
<path class="st0" d="M27.5,31.8h3c0.4-1,2.1-1,2.4,0h2.9"/>
<path class="st0" d="M27.5,33.1h3c0.4,1,2.1,1,2.4,0h2.9"/>
<path class="st0" d="M0.9,44.9h3c0.4-1,2.1-1,2.4,0h2.9"/>
<path class="st0" d="M0.9,46.2h3c0.4,1,2.1,1,2.4,0h2.9"/>
<path class="st0" d="M16.5,3.6h3c0.4-1,2.1-1,2.4,0h2.9"/>
<path class="st0" d="M16.5,4.9h3c0.4,1,2.1,1,2.4,0h2.9"/>
<path class="st0" d="M42.2,0.9h3c0.4-1,2.1-1,2.4,0h2.9"/>
<path class="st0" d="M42.2,2.2h3c0.4,1,2.1,1,2.4,0h2.9"/>
<path class="st0" d="M34.3,10.8h3c0.4-1,2.1-1,2.4,0h2.9"/>
<path class="st0" d="M34.3,12.2h3c0.4,1,2.1,1,2.4,0h2.9"/>
<path class="st0" d="M44,25.9h3c0.4-1,2.1-1,2.4,0h2.9"/>
<path class="st0" d="M44,27.2h3c0.4,1,2.1,1,2.4,0h2.9"/>
<path class="st0" d="M43.9,36h3c0.4-1,2.1-1,2.4,0h2.9"/>
<path class="st0" d="M43.9,37.4h3c0.4,1,2.1,1,2.4,0h2.9"/>
<path class="st0" d="M34.1,44.6h3c0.4-1,2.1-1,2.4,0h2.9"/>
<path class="st0" d="M34.1,45.9h3c0.4,1,2.1,1,2.4,0h2.9"/>
<path class="st0" d="M15.7,41.3h3c0.4-1,2.1-1,2.4,0H24"/>
<path class="st0" d="M15.7,42.6h3c0.4,1,2.1,1,2.4,0H24"/>
<path class="st0" d="M4.3,31.7h3c0.4-1,2.1-1,2.4,0h2.9"/>
<path class="st0" d="M4.3,33h3c0.4,1,2.1,1,2.4,0h2.9"/>
<path class="st0" d="M0,16.6h3c0.4-1,2.1-1,2.4,0h2.9"/>
<path class="st0" d="M0,17.9h3c0.4,1,2.1,1,2.4,0h2.9"/>
</svg>
