<svg id="Layer_1" data-name="Layer 1" xmlns="http://www.w3.org/2000/svg" width="54.13" height="54.13" viewBox="0 0 54.13 54.13"><defs><style>.cls-1,.cls-2{fill:none;}.cls-2{stroke:#000;stroke-width:0.3px;}</style></defs><title>Artboard 37</title><rect class="cls-1" x="9.31" y="-46.32" width="54.13" height="54.13"/><path class="cls-2" d="M11.07,4h3a1.32,1.32,0,0,1,2.39,0h2.93"/><path class="cls-2" d="M11.07,5.27h3a1.32,1.32,0,0,0,2.39,0h2.93"/><path class="cls-2" d="M44.31,3.62h3a1.32,1.32,0,0,1,2.39,0H52.6"/><path class="cls-2" d="M44.31,4.94h3a1.32,1.32,0,0,0,2.39,0H52.6"/><path class="cls-2" d="M25.94.32h3a1.32,1.32,0,0,1,2.39,0h2.93"/><path class="cls-2" d="M25.94,1.64h3a1.32,1.32,0,0,0,2.39,0h2.93"/><rect class="cls-1" x="9.31" y="7.8" width="54.13" height="54.13"/><path class="cls-2" d="M30.47,36.57h3a1.32,1.32,0,0,1,2.39,0h2.93"/><path class="cls-2" d="M30.47,37.89h3a1.32,1.32,0,0,0,2.39,0h2.93"/><path class="cls-2" d="M37.71,45h3a1.32,1.32,0,0,1,2.39,0H46"/><path class="cls-2" d="M37.71,46.33h3a1.32,1.32,0,0,0,2.39,0H46"/><path class="cls-2" d="M26.73,16.75h3a1.33,1.33,0,0,1,2.4,0H35"/><path class="cls-2" d="M26.73,18.07h3a1.33,1.33,0,0,0,2.4,0H35"/><path class="cls-2" d="M52.4,14.08h3a1.32,1.32,0,0,1,2.39,0h2.93"/><path class="cls-2" d="M52.4,15.4h3a1.32,1.32,0,0,0,2.39,0h2.93"/><path class="cls-2" d="M44.55,24h3a1.33,1.33,0,0,1,2.4,0h2.92"/><path class="cls-2" d="M44.55,25.35h3a1.33,1.33,0,0,0,2.4,0h2.92"/><path class="cls-2" d="M54.12,49.21h3a1.33,1.33,0,0,1,2.4,0h2.92"/><path class="cls-2" d="M54.12,50.53h3a1.33,1.33,0,0,0,2.4,0h2.92"/><path class="cls-2" d="M25.94,54.45h3a1.32,1.32,0,0,1,2.39,0h2.93"/><path class="cls-2" d="M14.5,44.9h3a1.32,1.32,0,0,1,2.39,0h2.93"/><path class="cls-2" d="M14.5,46.22h3a1.32,1.32,0,0,0,2.39,0h2.93"/><path class="cls-2" d="M10.21,29.77h3a1.32,1.32,0,0,1,2.39,0H18.5"/><path class="cls-2" d="M10.21,31.09h3a1.32,1.32,0,0,0,2.39,0H18.5"/><rect class="cls-1" x="-44.82" y="-46.32" width="54.13" height="54.13"/><rect class="cls-1" x="-44.82" y="7.8" width="54.13" height="54.13"/><path class="cls-2" d="M-1.72,14.08h3a1.32,1.32,0,0,1,2.39,0H6.57"/><path class="cls-2" d="M-1.72,15.4h3a1.32,1.32,0,0,0,2.39,0H6.57"/><path class="cls-2" d="M.08,39.07h3a1.32,1.32,0,0,1,2.39,0H8.37"/><path class="cls-2" d="M.08,40.39h3a1.32,1.32,0,0,0,2.39,0H8.37"/><path class="cls-2" d="M0,49.21H3a1.32,1.32,0,0,1,2.39,0H8.29"/><path class="cls-2" d="M0,50.53H3a1.32,1.32,0,0,0,2.39,0H8.29"/><rect class="cls-1" width="54.12" height="54.13"/></svg>