<svg id="Layer_1" data-name="Layer 1" xmlns="http://www.w3.org/2000/svg" width="46.75" height="46.75" viewBox="0 0 46.75 46.75"><defs><style>.cls-1,.cls-2,.cls-3{fill:none;}.cls-2{stroke:#231f20;stroke-width:0.3px;}.cls-3{stroke:#000;stroke-linecap:round;stroke-width:0.7px;}</style></defs><title>Artboard 37</title><rect class="cls-1" x="4.51" y="-44.53" width="46.75" height="46.75"/><line class="cls-2" x1="37.96" y1="0.4" x2="32.57" y2="0.4"/><line class="cls-2" x1="21.8" y1="0.4" x2="16.41" y2="0.4"/><line class="cls-3" x1="5.63" y1="0.39" x2="5.63" y2="0.39"/><line class="cls-3" x1="9.22" y1="0.39" x2="9.22" y2="0.39"/><line class="cls-3" x1="7.43" y1="0.39" x2="7.43" y2="0.39"/><line class="cls-3" x1="12.82" y1="0.39" x2="12.82" y2="0.39"/><line class="cls-3" x1="11.02" y1="0.39" x2="11.02" y2="0.39"/><line class="cls-3" x1="14.62" y1="0.39" x2="14.62" y2="0.39"/><line class="cls-3" x1="23.59" y1="0.39" x2="23.59" y2="0.39"/><line class="cls-3" x1="27.19" y1="0.39" x2="27.19" y2="0.39"/><line class="cls-3" x1="25.39" y1="0.39" x2="25.39" y2="0.39"/><line class="cls-3" x1="30.78" y1="0.39" x2="30.78" y2="0.39"/><line class="cls-3" x1="28.98" y1="0.39" x2="28.98" y2="0.39"/><line class="cls-3" x1="41.55" y1="0.39" x2="41.55" y2="0.39"/><line class="cls-3" x1="39.76" y1="0.39" x2="39.76" y2="0.39"/><line class="cls-3" x1="45.14" y1="0.39" x2="45.14" y2="0.39"/><line class="cls-3" x1="43.35" y1="0.39" x2="43.35" y2="0.39"/><line class="cls-3" x1="46.94" y1="0.39" x2="46.94" y2="0.39"/><rect class="cls-1" x="4.51" y="2.22" width="46.75" height="46.75"/><line class="cls-2" x1="42.33" y1="3.52" x2="50.15" y2="3.52"/><line class="cls-2" x1="22.58" y1="3.52" x2="30.4" y2="3.52"/><line class="cls-2" x1="6.88" y1="3.52" x2="13.76" y2="3.52"/><line class="cls-2" x1="41.01" y1="15.15" x2="47.9" y2="15.15"/><line class="cls-2" x1="28.15" y1="15.15" x2="21.25" y2="15.15"/><line class="cls-2" x1="12.27" y1="15.15" x2="5.22" y2="15.15"/><line class="cls-2" x1="43.35" y1="29.8" x2="50.45" y2="29.8"/><line class="cls-2" x1="30.78" y1="29.8" x2="23.64" y2="29.8"/><line class="cls-2" x1="14.81" y1="29.8" x2="9.22" y2="29.8"/><line class="cls-2" x1="37.76" y1="44.11" x2="44.6" y2="44.11"/><line class="cls-2" x1="19.06" y1="44.11" x2="12.27" y2="44.11"/><line class="cls-2" x1="14.62" y1="6.49" x2="21.51" y2="6.49"/><line class="cls-2" x1="28.98" y1="6.49" x2="36.16" y2="6.49"/><line class="cls-2" x1="43.01" y1="9.41" x2="37.41" y2="9.41"/><line class="cls-2" x1="12.5" y1="9.35" x2="6.2" y2="9.35"/><line class="cls-2" x1="16.07" y1="12.35" x2="21.8" y2="12.35"/><line class="cls-2" x1="30.71" y1="18.1" x2="36.16" y2="18.1"/><line class="cls-2" x1="15.13" y1="18.1" x2="8.84" y2="18.1"/><line class="cls-2" x1="21.25" y1="20.98" x2="27.96" y2="20.98"/><line class="cls-2" x1="8.46" y1="20.98" x2="4.51" y2="20.98"/><line class="cls-2" x1="42.97" y1="20.98" x2="37.41" y2="20.98"/><line class="cls-2" x1="38.21" y1="23.98" x2="32.57" y2="23.98"/><line class="cls-2" x1="14.83" y1="23.98" x2="8.54" y2="23.98"/><line class="cls-2" x1="24.84" y1="26.73" x2="17.29" y2="26.73"/><line class="cls-2" x1="44.83" y1="26.73" x2="39.21" y2="26.73"/><line class="cls-2" x1="32.04" y1="32.73" x2="37.41" y2="32.73"/><line class="cls-2" x1="19.83" y1="32.73" x2="13.54" y2="32.73"/><line class="cls-2" x1="7.33" y1="35.48" x2="4.51" y2="35.48"/><line class="cls-2" x1="23.75" y1="35.48" x2="18.21" y2="35.48"/><line class="cls-2" x1="36.16" y1="35.48" x2="41.75" y2="35.48"/><line class="cls-2" x1="24.84" y1="38.48" x2="32.37" y2="38.48"/><line class="cls-2" x1="41.01" y1="38.48" x2="46.62" y2="38.48"/><line class="cls-2" x1="19.87" y1="41.4" x2="25.39" y2="41.4"/><line class="cls-2" x1="4.51" y1="41.4" x2="5.54" y2="41.4"/><line class="cls-2" x1="38.16" y1="41.4" x2="32.57" y2="41.4"/><line class="cls-2" x1="16" y1="38.61" x2="10.47" y2="38.61"/><line class="cls-2" x1="46.68" y1="41.4" x2="51.26" y2="41.4"/><line class="cls-3" x1="5.63" y1="6.47" x2="5.63" y2="6.47"/><line class="cls-3" x1="9.22" y1="6.47" x2="9.22" y2="6.47"/><line class="cls-3" x1="7.43" y1="6.47" x2="7.43" y2="6.47"/><line class="cls-3" x1="12.82" y1="6.47" x2="12.82" y2="6.47"/><line class="cls-3" x1="11.02" y1="6.47" x2="11.02" y2="6.47"/><line class="cls-3" x1="23.59" y1="6.47" x2="23.59" y2="6.47"/><line class="cls-3" x1="27.19" y1="6.47" x2="27.19" y2="6.47"/><line class="cls-3" x1="25.39" y1="6.47" x2="25.39" y2="6.47"/><line class="cls-3" x1="37.96" y1="6.47" x2="37.96" y2="6.47"/><line class="cls-3" x1="41.55" y1="6.47" x2="41.55" y2="6.47"/><line class="cls-3" x1="39.76" y1="6.47" x2="39.76" y2="6.47"/><line class="cls-3" x1="45.14" y1="6.47" x2="45.14" y2="6.47"/><line class="cls-3" x1="43.35" y1="6.47" x2="43.35" y2="6.47"/><line class="cls-3" x1="46.94" y1="6.47" x2="46.94" y2="6.47"/><line class="cls-3" x1="5.63" y1="12.34" x2="5.63" y2="12.34"/><line class="cls-3" x1="9.22" y1="12.34" x2="9.22" y2="12.34"/><line class="cls-3" x1="7.43" y1="12.34" x2="7.43" y2="12.34"/><line class="cls-3" x1="12.82" y1="12.34" x2="12.82" y2="12.34"/><line class="cls-3" x1="11.02" y1="12.34" x2="11.02" y2="12.34"/><line class="cls-3" x1="14.62" y1="12.34" x2="14.62" y2="12.34"/><line class="cls-3" x1="23.59" y1="12.34" x2="23.59" y2="12.34"/><line class="cls-3" x1="27.19" y1="12.34" x2="27.19" y2="12.34"/><line class="cls-3" x1="25.39" y1="12.34" x2="25.39" y2="12.34"/><line class="cls-3" x1="30.78" y1="12.34" x2="30.78" y2="12.34"/><line class="cls-3" x1="28.98" y1="12.34" x2="28.98" y2="12.34"/><line class="cls-3" x1="34.37" y1="12.34" x2="34.37" y2="12.34"/><line class="cls-3" x1="32.57" y1="12.34" x2="32.57" y2="12.34"/><line class="cls-3" x1="37.96" y1="12.34" x2="37.96" y2="12.34"/><line class="cls-3" x1="36.16" y1="12.34" x2="36.16" y2="12.34"/><line class="cls-3" x1="41.55" y1="12.34" x2="41.55" y2="12.34"/><line class="cls-3" x1="39.76" y1="12.34" x2="39.76" y2="12.34"/><line class="cls-3" x1="45.14" y1="12.34" x2="45.14" y2="12.34"/><line class="cls-3" x1="43.35" y1="12.34" x2="43.35" y2="12.34"/><line class="cls-3" x1="5.63" y1="18.04" x2="5.63" y2="18.04"/><line class="cls-3" x1="7.43" y1="18.04" x2="7.43" y2="18.04"/><line class="cls-3" x1="16.41" y1="18.04" x2="16.41" y2="18.04"/><line class="cls-3" x1="20" y1="18.04" x2="20" y2="18.04"/><line class="cls-3" x1="18.21" y1="18.04" x2="18.21" y2="18.04"/><line class="cls-3" x1="23.59" y1="18.04" x2="23.59" y2="18.04"/><line class="cls-3" x1="21.8" y1="18.04" x2="21.8" y2="18.04"/><line class="cls-3" x1="27.19" y1="18.04" x2="27.19" y2="18.04"/><line class="cls-3" x1="25.39" y1="18.04" x2="25.39" y2="18.04"/><line class="cls-3" x1="28.98" y1="18.04" x2="28.98" y2="18.04"/><line class="cls-3" x1="37.96" y1="18.04" x2="37.96" y2="18.04"/><line class="cls-3" x1="41.55" y1="18.04" x2="41.55" y2="18.04"/><line class="cls-3" x1="39.76" y1="18.04" x2="39.76" y2="18.04"/><line class="cls-3" x1="45.14" y1="18.04" x2="45.14" y2="18.04"/><line class="cls-3" x1="43.35" y1="18.04" x2="43.35" y2="18.04"/><line class="cls-3" x1="46.94" y1="18.04" x2="46.94" y2="18.04"/><line class="cls-3" x1="5.63" y1="23.92" x2="5.63" y2="23.92"/><line class="cls-3" x1="7.43" y1="23.92" x2="7.43" y2="23.92"/><line class="cls-3" x1="16.41" y1="23.92" x2="16.41" y2="23.92"/><line class="cls-3" x1="20" y1="23.92" x2="20" y2="23.92"/><line class="cls-3" x1="18.21" y1="23.92" x2="18.21" y2="23.92"/><line class="cls-3" x1="23.59" y1="23.92" x2="23.59" y2="23.92"/><line class="cls-3" x1="21.8" y1="23.92" x2="21.8" y2="23.92"/><line class="cls-3" x1="27.19" y1="23.92" x2="27.19" y2="23.92"/><line class="cls-3" x1="25.39" y1="23.92" x2="25.39" y2="23.92"/><line class="cls-3" x1="30.78" y1="23.92" x2="30.78" y2="23.92"/><line class="cls-3" x1="28.98" y1="23.92" x2="28.98" y2="23.92"/><line class="cls-3" x1="41.55" y1="23.92" x2="41.55" y2="23.92"/><line class="cls-3" x1="39.76" y1="23.92" x2="39.76" y2="23.92"/><line class="cls-3" x1="45.14" y1="23.92" x2="45.14" y2="23.92"/><line class="cls-3" x1="43.35" y1="23.92" x2="43.35" y2="23.92"/><line class="cls-3" x1="46.94" y1="23.92" x2="46.94" y2="23.92"/><line class="cls-3" x1="5.63" y1="29.74" x2="5.63" y2="29.74"/><line class="cls-3" x1="7.43" y1="29.74" x2="7.43" y2="29.74"/><line class="cls-3" x1="16.41" y1="29.74" x2="16.41" y2="29.74"/><line class="cls-3" x1="20" y1="29.74" x2="20" y2="29.74"/><line class="cls-3" x1="18.21" y1="29.74" x2="18.21" y2="29.74"/><line class="cls-3" x1="21.8" y1="29.74" x2="21.8" y2="29.74"/><line class="cls-3" x1="34.37" y1="29.74" x2="34.37" y2="29.74"/><line class="cls-3" x1="32.57" y1="29.74" x2="32.57" y2="29.74"/><line class="cls-3" x1="37.96" y1="29.74" x2="37.96" y2="29.74"/><line class="cls-3" x1="36.16" y1="29.74" x2="36.16" y2="29.74"/><line class="cls-3" x1="41.55" y1="29.74" x2="41.55" y2="29.74"/><line class="cls-3" x1="39.76" y1="29.74" x2="39.76" y2="29.74"/><line class="cls-3" x1="9.22" y1="35.5" x2="9.22" y2="35.5"/><line class="cls-3" x1="12.82" y1="35.5" x2="12.82" y2="35.5"/><line class="cls-3" x1="11.02" y1="35.5" x2="11.02" y2="35.5"/><line class="cls-3" x1="16.41" y1="35.5" x2="16.41" y2="35.5"/><line class="cls-3" x1="14.62" y1="35.5" x2="14.62" y2="35.5"/><line class="cls-3" x1="27.19" y1="35.5" x2="27.19" y2="35.5"/><line class="cls-3" x1="25.39" y1="35.5" x2="25.39" y2="35.5"/><line class="cls-3" x1="30.78" y1="35.5" x2="30.78" y2="35.5"/><line class="cls-3" x1="28.98" y1="35.5" x2="28.98" y2="35.5"/><line class="cls-3" x1="34.37" y1="35.5" x2="34.37" y2="35.5"/><line class="cls-3" x1="32.57" y1="35.5" x2="32.57" y2="35.5"/><line class="cls-3" x1="45.14" y1="35.5" x2="45.14" y2="35.5"/><line class="cls-3" x1="43.35" y1="35.5" x2="43.35" y2="35.5"/><line class="cls-3" x1="46.94" y1="35.5" x2="46.94" y2="35.5"/><line class="cls-3" x1="9.22" y1="41.38" x2="9.22" y2="41.38"/><line class="cls-3" x1="7.43" y1="41.38" x2="7.43" y2="41.38"/><line class="cls-3" x1="12.82" y1="41.38" x2="12.82" y2="41.38"/><line class="cls-3" x1="11.02" y1="41.38" x2="11.02" y2="41.38"/><line class="cls-3" x1="16.41" y1="41.38" x2="16.41" y2="41.38"/><line class="cls-3" x1="14.62" y1="41.38" x2="14.62" y2="41.38"/><line class="cls-3" x1="18.21" y1="41.38" x2="18.21" y2="41.38"/><line class="cls-3" x1="27.19" y1="41.38" x2="27.19" y2="41.38"/><line class="cls-3" x1="30.78" y1="41.38" x2="30.78" y2="41.38"/><line class="cls-3" x1="28.98" y1="41.38" x2="28.98" y2="41.38"/><line class="cls-3" x1="41.55" y1="41.38" x2="41.55" y2="41.38"/><line class="cls-3" x1="39.76" y1="41.38" x2="39.76" y2="41.38"/><line class="cls-3" x1="45.14" y1="41.38" x2="45.14" y2="41.38"/><line class="cls-3" x1="43.35" y1="41.38" x2="43.35" y2="41.38"/><line class="cls-3" x1="5.08" y1="3.52" x2="5.08" y2="3.52"/><line class="cls-3" x1="17.66" y1="3.52" x2="17.66" y2="3.52"/><line class="cls-3" x1="15.86" y1="3.52" x2="15.86" y2="3.52"/><line class="cls-3" x1="21.25" y1="3.52" x2="21.25" y2="3.52"/><line class="cls-3" x1="19.45" y1="3.52" x2="19.45" y2="3.52"/><line class="cls-3" x1="32.03" y1="3.52" x2="32.03" y2="3.52"/><line class="cls-3" x1="35.61" y1="3.52" x2="35.61" y2="3.52"/><line class="cls-3" x1="33.82" y1="3.52" x2="33.82" y2="3.52"/><line class="cls-3" x1="39.21" y1="3.52" x2="39.21" y2="3.52"/><line class="cls-3" x1="37.41" y1="3.52" x2="37.41" y2="3.52"/><line class="cls-3" x1="41.01" y1="3.52" x2="41.01" y2="3.52"/><line class="cls-3" x1="5.08" y1="9.39" x2="5.08" y2="9.39"/><line class="cls-3" x1="14.07" y1="9.39" x2="14.07" y2="9.39"/><line class="cls-3" x1="17.66" y1="9.39" x2="17.66" y2="9.39"/><line class="cls-3" x1="15.86" y1="9.39" x2="15.86" y2="9.39"/><line class="cls-3" x1="21.25" y1="9.39" x2="21.25" y2="9.39"/><line class="cls-3" x1="19.45" y1="9.39" x2="19.45" y2="9.39"/><line class="cls-3" x1="24.84" y1="9.39" x2="24.84" y2="9.39"/><line class="cls-3" x1="23.05" y1="9.39" x2="23.05" y2="9.39"/><line class="cls-3" x1="28.44" y1="9.39" x2="28.44" y2="9.39"/><line class="cls-3" x1="26.64" y1="9.39" x2="26.64" y2="9.39"/><line class="cls-3" x1="32.03" y1="9.39" x2="32.03" y2="9.39"/><line class="cls-3" x1="30.23" y1="9.39" x2="30.23" y2="9.39"/><line class="cls-3" x1="35.61" y1="9.39" x2="35.61" y2="9.39"/><line class="cls-3" x1="33.82" y1="9.39" x2="33.82" y2="9.39"/><line class="cls-3" x1="46.39" y1="9.39" x2="46.39" y2="9.39"/><line class="cls-3" x1="44.6" y1="9.39" x2="44.6" y2="9.39"/><line class="cls-3" x1="14.07" y1="15.09" x2="14.07" y2="15.09"/><line class="cls-3" x1="17.66" y1="15.09" x2="17.66" y2="15.09"/><line class="cls-3" x1="15.86" y1="15.09" x2="15.86" y2="15.09"/><line class="cls-3" x1="19.45" y1="15.09" x2="19.45" y2="15.09"/><line class="cls-3" x1="32.03" y1="15.09" x2="32.03" y2="15.09"/><line class="cls-3" x1="30.23" y1="15.09" x2="30.23" y2="15.09"/><line class="cls-3" x1="35.61" y1="15.09" x2="35.61" y2="15.09"/><line class="cls-3" x1="33.82" y1="15.09" x2="33.82" y2="15.09"/><line class="cls-3" x1="39.21" y1="15.09" x2="39.21" y2="15.09"/><line class="cls-3" x1="37.41" y1="15.09" x2="37.41" y2="15.09"/><line class="cls-3" x1="10.47" y1="20.97" x2="10.47" y2="20.97"/><line class="cls-3" x1="14.07" y1="20.97" x2="14.07" y2="20.97"/><line class="cls-3" x1="12.27" y1="20.97" x2="12.27" y2="20.97"/><line class="cls-3" x1="17.66" y1="20.97" x2="17.66" y2="20.97"/><line class="cls-3" x1="15.86" y1="20.97" x2="15.86" y2="20.97"/><line class="cls-3" x1="19.45" y1="20.97" x2="19.45" y2="20.97"/><line class="cls-3" x1="32.03" y1="20.97" x2="32.03" y2="20.97"/><line class="cls-3" x1="30.23" y1="20.97" x2="30.23" y2="20.97"/><line class="cls-3" x1="35.61" y1="20.97" x2="35.61" y2="20.97"/><line class="cls-3" x1="33.82" y1="20.97" x2="33.82" y2="20.97"/><line class="cls-3" x1="46.39" y1="20.97" x2="46.39" y2="20.97"/><line class="cls-3" x1="44.6" y1="20.97" x2="44.6" y2="20.97"/><line class="cls-3" x1="6.88" y1="26.79" x2="6.88" y2="26.79"/><line class="cls-3" x1="5.08" y1="26.79" x2="5.08" y2="26.79"/><line class="cls-3" x1="10.47" y1="26.79" x2="10.47" y2="26.79"/><line class="cls-3" x1="8.68" y1="26.79" x2="8.68" y2="26.79"/><line class="cls-3" x1="14.07" y1="26.79" x2="14.07" y2="26.79"/><line class="cls-3" x1="12.27" y1="26.79" x2="12.27" y2="26.79"/><line class="cls-3" x1="15.86" y1="26.79" x2="15.86" y2="26.79"/><line class="cls-3" x1="28.44" y1="26.79" x2="28.44" y2="26.79"/><line class="cls-3" x1="26.64" y1="26.79" x2="26.64" y2="26.79"/><line class="cls-3" x1="32.03" y1="26.79" x2="32.03" y2="26.79"/><line class="cls-3" x1="30.23" y1="26.79" x2="30.23" y2="26.79"/><line class="cls-3" x1="35.61" y1="26.79" x2="35.61" y2="26.79"/><line class="cls-3" x1="33.82" y1="26.79" x2="33.82" y2="26.79"/><line class="cls-3" x1="37.41" y1="26.79" x2="37.41" y2="26.79"/><line class="cls-3" x1="46.39" y1="26.79" x2="46.39" y2="26.79"/><line class="cls-3" x1="6.88" y1="32.55" x2="6.88" y2="32.55"/><line class="cls-3" x1="5.08" y1="32.55" x2="5.08" y2="32.55"/><line class="cls-3" x1="10.47" y1="32.55" x2="10.47" y2="32.55"/><line class="cls-3" x1="8.68" y1="32.55" x2="8.68" y2="32.55"/><line class="cls-3" x1="12.27" y1="32.55" x2="12.27" y2="32.55"/><line class="cls-3" x1="21.25" y1="32.55" x2="21.25" y2="32.55"/><line class="cls-3" x1="24.84" y1="32.55" x2="24.84" y2="32.55"/><line class="cls-3" x1="23.05" y1="32.55" x2="23.05" y2="32.55"/><line class="cls-3" x1="28.44" y1="32.55" x2="28.44" y2="32.55"/><line class="cls-3" x1="26.64" y1="32.55" x2="26.64" y2="32.55"/><line class="cls-3" x1="30.23" y1="32.55" x2="30.23" y2="32.55"/><line class="cls-3" x1="39.21" y1="32.55" x2="39.21" y2="32.55"/><line class="cls-3" x1="42.8" y1="32.55" x2="42.8" y2="32.55"/><line class="cls-3" x1="41.01" y1="32.55" x2="41.01" y2="32.55"/><line class="cls-3" x1="46.39" y1="32.55" x2="46.39" y2="32.55"/><line class="cls-3" x1="44.6" y1="32.55" x2="44.6" y2="32.55"/><line class="cls-3" x1="6.88" y1="38.43" x2="6.88" y2="38.43"/><line class="cls-3" x1="5.08" y1="38.43" x2="5.08" y2="38.43"/><line class="cls-3" x1="8.68" y1="38.43" x2="8.68" y2="38.43"/><line class="cls-3" x1="17.66" y1="38.43" x2="17.66" y2="38.43"/><line class="cls-3" x1="21.25" y1="38.43" x2="21.25" y2="38.43"/><line class="cls-3" x1="19.45" y1="38.43" x2="19.45" y2="38.43"/><line class="cls-3" x1="23.05" y1="38.43" x2="23.05" y2="38.43"/><line class="cls-3" x1="35.61" y1="38.43" x2="35.61" y2="38.43"/><line class="cls-3" x1="33.82" y1="38.43" x2="33.82" y2="38.43"/><line class="cls-3" x1="39.21" y1="38.43" x2="39.21" y2="38.43"/><line class="cls-3" x1="37.41" y1="38.43" x2="37.41" y2="38.43"/><line class="cls-3" x1="6.88" y1="44.19" x2="6.88" y2="44.19"/><line class="cls-3" x1="5.08" y1="44.19" x2="5.08" y2="44.19"/><line class="cls-3" x1="10.47" y1="44.19" x2="10.47" y2="44.19"/><line class="cls-3" x1="8.68" y1="44.19" x2="8.68" y2="44.19"/><line class="cls-3" x1="21.25" y1="44.19" x2="21.25" y2="44.19"/><line class="cls-3" x1="24.84" y1="44.19" x2="24.84" y2="44.19"/><line class="cls-3" x1="23.05" y1="44.19" x2="23.05" y2="44.19"/><line class="cls-3" x1="28.44" y1="44.19" x2="28.44" y2="44.19"/><line class="cls-3" x1="26.64" y1="44.19" x2="26.64" y2="44.19"/><line class="cls-3" x1="32.03" y1="44.19" x2="32.03" y2="44.19"/><line class="cls-3" x1="30.23" y1="44.19" x2="30.23" y2="44.19"/><line class="cls-3" x1="35.61" y1="44.19" x2="35.61" y2="44.19"/><line class="cls-3" x1="33.82" y1="44.19" x2="33.82" y2="44.19"/><line class="cls-3" x1="46.39" y1="44.19" x2="46.39" y2="44.19"/><rect class="cls-1" x="-42.24" y="-44.53" width="46.75" height="46.75"/><line class="cls-3" x1="1.99" y1="0.39" x2="1.99" y2="0.39"/><line class="cls-3" x1="0.19" y1="0.39" x2="0.19" y2="0.39"/><line class="cls-3" x1="3.78" y1="0.39" x2="3.78" y2="0.39"/><rect class="cls-1" x="-42.24" y="2.22" width="46.75" height="46.75"/><line class="cls-2" x1="-4.42" y1="3.52" x2="3.4" y2="3.52"/><line class="cls-2" x1="-5.74" y1="15.15" x2="1.15" y2="15.15"/><line class="cls-2" x1="-3.4" y1="29.8" x2="3.7" y2="29.8"/><line class="cls-2" x1="0.19" y1="12.35" x2="4.51" y2="12.35"/><line class="cls-2" x1="3.08" y1="20.98" x2="4.51" y2="20.98"/><line class="cls-2" x1="1.16" y1="35.48" x2="4.51" y2="35.48"/><line class="cls-2" x1="-0.07" y1="41.4" x2="4.51" y2="41.4"/><line class="cls-3" x1="1.99" y1="6.47" x2="1.99" y2="6.47"/><line class="cls-3" x1="0.19" y1="6.47" x2="0.19" y2="6.47"/><line class="cls-3" x1="3.78" y1="6.47" x2="3.78" y2="6.47"/><line class="cls-3" x1="1.99" y1="18.04" x2="1.99" y2="18.04"/><line class="cls-3" x1="0.19" y1="18.04" x2="0.19" y2="18.04"/><line class="cls-3" x1="3.78" y1="18.04" x2="3.78" y2="18.04"/><line class="cls-3" x1="1.99" y1="23.92" x2="1.99" y2="23.92"/><line class="cls-3" x1="0.19" y1="23.92" x2="0.19" y2="23.92"/><line class="cls-3" x1="3.78" y1="23.92" x2="3.78" y2="23.92"/><line class="cls-3" x1="0.19" y1="35.5" x2="0.19" y2="35.5"/><line class="cls-3" x1="3.23" y1="9.39" x2="3.23" y2="9.39"/><line class="cls-3" x1="1.44" y1="9.39" x2="1.44" y2="9.39"/><line class="cls-3" x1="3.23" y1="15.09" x2="3.23" y2="15.09"/><line class="cls-3" x1="1.44" y1="20.97" x2="1.44" y2="20.97"/><line class="cls-3" x1="3.23" y1="26.79" x2="3.23" y2="26.79"/><line class="cls-3" x1="1.44" y1="26.79" x2="1.44" y2="26.79"/><line class="cls-3" x1="3.23" y1="32.55" x2="3.23" y2="32.55"/><line class="cls-3" x1="1.44" y1="32.55" x2="1.44" y2="32.55"/><line class="cls-3" x1="3.23" y1="38.43" x2="3.23" y2="38.43"/><line class="cls-3" x1="1.44" y1="38.43" x2="1.44" y2="38.43"/><line class="cls-3" x1="3.23" y1="44.19" x2="3.23" y2="44.19"/><line class="cls-3" x1="1.44" y1="44.19" x2="1.44" y2="44.19"/><rect class="cls-1" width="46.75" height="46.75"/></svg>