<!-- Generator: Adobe Illustrator 22.1.0, SVG Export Plug-In  -->
<svg version="1.1"
     xmlns="http://www.w3.org/2000/svg" xmlns:xlink="http://www.w3.org/1999/xlink" xmlns:a="http://ns.adobe.com/AdobeSVGViewerExtensions/3.0/"
     x="0px" y="0px" width="46.8px" height="44.3px" viewBox="0 0 46.8 44.3" style="enable-background:new 0 0 46.8 44.3;"
     xml:space="preserve">
<style type="text/css">
    .st0{fill:none;stroke:#000000;stroke-width:0.3;}
    .st1{fill:none;stroke:#000000;stroke-width:0.7;stroke-linecap:round;}
</style>
<defs>
</defs>
<line class="st0" x1="37.8" y1="0.4" x2="45.6" y2="0.4"/>
<line class="st0" x1="18.1" y1="0.4" x2="25.9" y2="0.4"/>
<line class="st0" x1="2.4" y1="0.4" x2="9.2" y2="0.4"/>
<line class="st0" x1="36.5" y1="12" x2="43.4" y2="12"/>
<line class="st0" x1="23.6" y1="12" x2="16.7" y2="12"/>
<line class="st0" x1="7.8" y1="12" x2="0.7" y2="12"/>
<line class="st0" x1="38.8" y1="26.6" x2="45.9" y2="26.6"/>
<line class="st0" x1="26.3" y1="26.6" x2="19.1" y2="26.6"/>
<line class="st0" x1="10.3" y1="26.6" x2="4.7" y2="26.6"/>
<line class="st0" x1="33.2" y1="40.9" x2="40.1" y2="40.9"/>
<line class="st0" x1="14.5" y1="40.9" x2="7.8" y2="40.9"/>
<line class="st0" x1="10.1" y1="3.3" x2="17" y2="3.3"/>
<line class="st0" x1="24.5" y1="3.3" x2="31.7" y2="3.3"/>
<line class="st0" x1="38.5" y1="6.2" x2="32.9" y2="6.2"/>
<line class="st0" x1="8" y1="6.2" x2="1.7" y2="6.2"/>
<line class="st0" x1="11.6" y1="9.2" x2="17.3" y2="9.2"/>
<line class="st0" x1="42.4" y1="9.2" x2="46.8" y2="9.2"/>
<line class="st0" x1="26.2" y1="14.9" x2="31.7" y2="14.9"/>
<line class="st0" x1="10.6" y1="14.9" x2="4.3" y2="14.9"/>
<line class="st0" x1="16.7" y1="17.8" x2="23.4" y2="17.8"/>
<line class="st0" x1="3.9" y1="17.8" x2="0" y2="17.8"/>
<line class="st0" x1="38.5" y1="17.8" x2="32.9" y2="17.8"/>
<line class="st0" x1="33.7" y1="20.8" x2="28.1" y2="20.8"/>
<line class="st0" x1="10.3" y1="20.8" x2="4" y2="20.8"/>
<line class="st0" x1="20.3" y1="23.6" x2="12.8" y2="23.6"/>
<line class="st0" x1="40.3" y1="23.6" x2="34.7" y2="23.6"/>
<line class="st0" x1="27.5" y1="29.6" x2="32.9" y2="29.6"/>
<line class="st0" x1="15.3" y1="29.6" x2="9" y2="29.6"/>
<line class="st0" x1="2.8" y1="32.3" x2="0" y2="32.3"/>
<line class="st0" x1="19.2" y1="32.3" x2="13.7" y2="32.3"/>
<line class="st0" x1="31.7" y1="32.3" x2="37.2" y2="32.3"/>
<line class="st0" x1="20.3" y1="35.3" x2="27.9" y2="35.3"/>
<line class="st0" x1="36.5" y1="35.3" x2="42.1" y2="35.3"/>
<line class="st0" x1="15.4" y1="38.2" x2="20.9" y2="38.2"/>
<line class="st0" x1="0" y1="38.2" x2="1" y2="38.2"/>
<line class="st0" x1="33.6" y1="38.2" x2="28.1" y2="38.2"/>
<line class="st0" x1="33.4" y1="44" x2="28.1" y2="44"/>
<line class="st0" x1="17.3" y1="44" x2="11.9" y2="44"/>
<line class="st0" x1="11.5" y1="35.4" x2="6" y2="35.4"/>
<line class="st0" x1="45.3" y1="17.8" x2="46.8" y2="17.8"/>
<line class="st0" x1="43.4" y1="32.3" x2="46.8" y2="32.3"/>
<line class="st0" x1="42.2" y1="38.2" x2="46.8" y2="38.2"/>
<line class="st1" x1="1.1" y1="3.3" x2="1.1" y2="3.3"/>
<line class="st1" x1="4.7" y1="3.3" x2="4.7" y2="3.3"/>
<line class="st1" x1="2.9" y1="3.3" x2="2.9" y2="3.3"/>
<line class="st1" x1="8.3" y1="3.3" x2="8.3" y2="3.3"/>
<line class="st1" x1="6.5" y1="3.3" x2="6.5" y2="3.3"/>
<line class="st1" x1="19.1" y1="3.3" x2="19.1" y2="3.3"/>
<line class="st1" x1="22.7" y1="3.3" x2="22.7" y2="3.3"/>
<line class="st1" x1="20.9" y1="3.3" x2="20.9" y2="3.3"/>
<line class="st1" x1="33.4" y1="3.3" x2="33.4" y2="3.3"/>
<line class="st1" x1="37" y1="3.3" x2="37" y2="3.3"/>
<line class="st1" x1="35.2" y1="3.3" x2="35.2" y2="3.3"/>
<line class="st1" x1="40.6" y1="3.3" x2="40.6" y2="3.3"/>
<line class="st1" x1="38.8" y1="3.3" x2="38.8" y2="3.3"/>
<line class="st1" x1="44.2" y1="3.3" x2="44.2" y2="3.3"/>
<line class="st1" x1="42.4" y1="3.3" x2="42.4" y2="3.3"/>
<line class="st1" x1="46" y1="3.3" x2="46" y2="3.3"/>
<line class="st1" x1="1.1" y1="9.2" x2="1.1" y2="9.2"/>
<line class="st1" x1="4.7" y1="9.2" x2="4.7" y2="9.2"/>
<line class="st1" x1="2.9" y1="9.2" x2="2.9" y2="9.2"/>
<line class="st1" x1="8.3" y1="9.2" x2="8.3" y2="9.2"/>
<line class="st1" x1="6.5" y1="9.2" x2="6.5" y2="9.2"/>
<line class="st1" x1="10.1" y1="9.2" x2="10.1" y2="9.2"/>
<line class="st1" x1="19.1" y1="9.2" x2="19.1" y2="9.2"/>
<line class="st1" x1="22.7" y1="9.2" x2="22.7" y2="9.2"/>
<line class="st1" x1="20.9" y1="9.2" x2="20.9" y2="9.2"/>
<line class="st1" x1="26.3" y1="9.2" x2="26.3" y2="9.2"/>
<line class="st1" x1="24.5" y1="9.2" x2="24.5" y2="9.2"/>
<line class="st1" x1="29.9" y1="9.2" x2="29.9" y2="9.2"/>
<line class="st1" x1="28.1" y1="9.2" x2="28.1" y2="9.2"/>
<line class="st1" x1="33.4" y1="9.2" x2="33.4" y2="9.2"/>
<line class="st1" x1="31.7" y1="9.2" x2="31.7" y2="9.2"/>
<line class="st1" x1="37" y1="9.2" x2="37" y2="9.2"/>
<line class="st1" x1="35.2" y1="9.2" x2="35.2" y2="9.2"/>
<line class="st1" x1="40.6" y1="9.2" x2="40.6" y2="9.2"/>
<line class="st1" x1="38.8" y1="9.2" x2="38.8" y2="9.2"/>
<line class="st1" x1="1.1" y1="14.9" x2="1.1" y2="14.9"/>
<line class="st1" x1="2.9" y1="14.9" x2="2.9" y2="14.9"/>
<line class="st1" x1="11.9" y1="14.9" x2="11.9" y2="14.9"/>
<line class="st1" x1="15.5" y1="14.9" x2="15.5" y2="14.9"/>
<line class="st1" x1="13.7" y1="14.9" x2="13.7" y2="14.9"/>
<line class="st1" x1="19.1" y1="14.9" x2="19.1" y2="14.9"/>
<line class="st1" x1="17.3" y1="14.9" x2="17.3" y2="14.9"/>
<line class="st1" x1="22.7" y1="14.9" x2="22.7" y2="14.9"/>
<line class="st1" x1="20.9" y1="14.9" x2="20.9" y2="14.9"/>
<line class="st1" x1="24.5" y1="14.9" x2="24.5" y2="14.9"/>
<line class="st1" x1="33.4" y1="14.9" x2="33.4" y2="14.9"/>
<line class="st1" x1="37" y1="14.9" x2="37" y2="14.9"/>
<line class="st1" x1="35.2" y1="14.9" x2="35.2" y2="14.9"/>
<line class="st1" x1="40.6" y1="14.9" x2="40.6" y2="14.9"/>
<line class="st1" x1="38.8" y1="14.9" x2="38.8" y2="14.9"/>
<line class="st1" x1="44.2" y1="14.9" x2="44.2" y2="14.9"/>
<line class="st1" x1="42.4" y1="14.9" x2="42.4" y2="14.9"/>
<line class="st1" x1="46" y1="14.9" x2="46" y2="14.9"/>
<line class="st1" x1="1.1" y1="20.8" x2="1.1" y2="20.8"/>
<line class="st1" x1="2.9" y1="20.8" x2="2.9" y2="20.8"/>
<line class="st1" x1="11.9" y1="20.8" x2="11.9" y2="20.8"/>
<line class="st1" x1="15.5" y1="20.8" x2="15.5" y2="20.8"/>
<line class="st1" x1="13.7" y1="20.8" x2="13.7" y2="20.8"/>
<line class="st1" x1="19.1" y1="20.8" x2="19.1" y2="20.8"/>
<line class="st1" x1="17.3" y1="20.8" x2="17.3" y2="20.8"/>
<line class="st1" x1="22.7" y1="20.8" x2="22.7" y2="20.8"/>
<line class="st1" x1="20.9" y1="20.8" x2="20.9" y2="20.8"/>
<line class="st1" x1="26.3" y1="20.8" x2="26.3" y2="20.8"/>
<line class="st1" x1="24.5" y1="20.8" x2="24.5" y2="20.8"/>
<line class="st1" x1="37" y1="20.8" x2="37" y2="20.8"/>
<line class="st1" x1="35.2" y1="20.8" x2="35.2" y2="20.8"/>
<line class="st1" x1="40.6" y1="20.8" x2="40.6" y2="20.8"/>
<line class="st1" x1="38.8" y1="20.8" x2="38.8" y2="20.8"/>
<line class="st1" x1="44.2" y1="20.8" x2="44.2" y2="20.8"/>
<line class="st1" x1="42.4" y1="20.8" x2="42.4" y2="20.8"/>
<line class="st1" x1="46" y1="20.8" x2="46" y2="20.8"/>
<line class="st1" x1="1.1" y1="26.6" x2="1.1" y2="26.6"/>
<line class="st1" x1="2.9" y1="26.6" x2="2.9" y2="26.6"/>
<line class="st1" x1="11.9" y1="26.6" x2="11.9" y2="26.6"/>
<line class="st1" x1="15.5" y1="26.6" x2="15.5" y2="26.6"/>
<line class="st1" x1="13.7" y1="26.6" x2="13.7" y2="26.6"/>
<line class="st1" x1="17.3" y1="26.6" x2="17.3" y2="26.6"/>
<line class="st1" x1="29.9" y1="26.6" x2="29.9" y2="26.6"/>
<line class="st1" x1="28.1" y1="26.6" x2="28.1" y2="26.6"/>
<line class="st1" x1="33.4" y1="26.6" x2="33.4" y2="26.6"/>
<line class="st1" x1="31.7" y1="26.6" x2="31.7" y2="26.6"/>
<line class="st1" x1="37" y1="26.6" x2="37" y2="26.6"/>
<line class="st1" x1="35.2" y1="26.6" x2="35.2" y2="26.6"/>
<line class="st1" x1="4.7" y1="32.3" x2="4.7" y2="32.3"/>
<line class="st1" x1="8.3" y1="32.3" x2="8.3" y2="32.3"/>
<line class="st1" x1="6.5" y1="32.3" x2="6.5" y2="32.3"/>
<line class="st1" x1="11.9" y1="32.3" x2="11.9" y2="32.3"/>
<line class="st1" x1="10.1" y1="32.3" x2="10.1" y2="32.3"/>
<line class="st1" x1="22.7" y1="32.3" x2="22.7" y2="32.3"/>
<line class="st1" x1="20.9" y1="32.3" x2="20.9" y2="32.3"/>
<line class="st1" x1="26.3" y1="32.3" x2="26.3" y2="32.3"/>
<line class="st1" x1="24.5" y1="32.3" x2="24.5" y2="32.3"/>
<line class="st1" x1="29.9" y1="32.3" x2="29.9" y2="32.3"/>
<line class="st1" x1="28.1" y1="32.3" x2="28.1" y2="32.3"/>
<line class="st1" x1="40.6" y1="32.3" x2="40.6" y2="32.3"/>
<line class="st1" x1="38.8" y1="32.3" x2="38.8" y2="32.3"/>
<line class="st1" x1="42.4" y1="32.3" x2="42.4" y2="32.3"/>
<line class="st1" x1="4.7" y1="38.2" x2="4.7" y2="38.2"/>
<line class="st1" x1="2.9" y1="38.2" x2="2.9" y2="38.2"/>
<line class="st1" x1="8.3" y1="38.2" x2="8.3" y2="38.2"/>
<line class="st1" x1="6.5" y1="38.2" x2="6.5" y2="38.2"/>
<line class="st1" x1="11.9" y1="38.2" x2="11.9" y2="38.2"/>
<line class="st1" x1="10.1" y1="38.2" x2="10.1" y2="38.2"/>
<line class="st1" x1="13.7" y1="38.2" x2="13.7" y2="38.2"/>
<line class="st1" x1="22.7" y1="38.2" x2="22.7" y2="38.2"/>
<line class="st1" x1="26.3" y1="38.2" x2="26.3" y2="38.2"/>
<line class="st1" x1="24.5" y1="38.2" x2="24.5" y2="38.2"/>
<line class="st1" x1="37" y1="38.2" x2="37" y2="38.2"/>
<line class="st1" x1="35.2" y1="38.2" x2="35.2" y2="38.2"/>
<line class="st1" x1="40.6" y1="38.2" x2="40.6" y2="38.2"/>
<line class="st1" x1="38.8" y1="38.2" x2="38.8" y2="38.2"/>
<line class="st1" x1="1.1" y1="44" x2="1.1" y2="44"/>
<line class="st1" x1="4.7" y1="44" x2="4.7" y2="44"/>
<line class="st1" x1="2.9" y1="44" x2="2.9" y2="44"/>
<line class="st1" x1="8.3" y1="44" x2="8.3" y2="44"/>
<line class="st1" x1="6.5" y1="44" x2="6.5" y2="44"/>
<line class="st1" x1="10.1" y1="44" x2="10.1" y2="44"/>
<line class="st1" x1="19.1" y1="44" x2="19.1" y2="44"/>
<line class="st1" x1="22.7" y1="44" x2="22.7" y2="44"/>
<line class="st1" x1="20.9" y1="44" x2="20.9" y2="44"/>
<line class="st1" x1="26.3" y1="44" x2="26.3" y2="44"/>
<line class="st1" x1="24.5" y1="44" x2="24.5" y2="44"/>
<line class="st1" x1="37" y1="44" x2="37" y2="44"/>
<line class="st1" x1="35.2" y1="44" x2="35.2" y2="44"/>
<line class="st1" x1="40.6" y1="44" x2="40.6" y2="44"/>
<line class="st1" x1="38.8" y1="44" x2="38.8" y2="44"/>
<line class="st1" x1="44.2" y1="44" x2="44.2" y2="44"/>
<line class="st1" x1="42.4" y1="44" x2="42.4" y2="44"/>
<line class="st1" x1="46" y1="44" x2="46" y2="44"/>
<line class="st1" x1="0.6" y1="0.3" x2="0.6" y2="0.3"/>
<line class="st1" x1="13.1" y1="0.3" x2="13.1" y2="0.3"/>
<line class="st1" x1="11.4" y1="0.3" x2="11.4" y2="0.3"/>
<line class="st1" x1="16.7" y1="0.3" x2="16.7" y2="0.3"/>
<line class="st1" x1="14.9" y1="0.3" x2="14.9" y2="0.3"/>
<line class="st1" x1="27.5" y1="0.3" x2="27.5" y2="0.3"/>
<line class="st1" x1="31.1" y1="0.3" x2="31.1" y2="0.3"/>
<line class="st1" x1="29.3" y1="0.3" x2="29.3" y2="0.3"/>
<line class="st1" x1="34.7" y1="0.3" x2="34.7" y2="0.3"/>
<line class="st1" x1="32.9" y1="0.3" x2="32.9" y2="0.3"/>
<line class="st1" x1="36.5" y1="0.3" x2="36.5" y2="0.3"/>
<line class="st1" x1="0.6" y1="6.2" x2="0.6" y2="6.2"/>
<line class="st1" x1="9.6" y1="6.2" x2="9.6" y2="6.2"/>
<line class="st1" x1="13.1" y1="6.2" x2="13.1" y2="6.2"/>
<line class="st1" x1="11.4" y1="6.2" x2="11.4" y2="6.2"/>
<line class="st1" x1="16.7" y1="6.2" x2="16.7" y2="6.2"/>
<line class="st1" x1="14.9" y1="6.2" x2="14.9" y2="6.2"/>
<line class="st1" x1="20.3" y1="6.2" x2="20.3" y2="6.2"/>
<line class="st1" x1="18.5" y1="6.2" x2="18.5" y2="6.2"/>
<line class="st1" x1="23.9" y1="6.2" x2="23.9" y2="6.2"/>
<line class="st1" x1="22.1" y1="6.2" x2="22.1" y2="6.2"/>
<line class="st1" x1="27.5" y1="6.2" x2="27.5" y2="6.2"/>
<line class="st1" x1="25.7" y1="6.2" x2="25.7" y2="6.2"/>
<line class="st1" x1="31.1" y1="6.2" x2="31.1" y2="6.2"/>
<line class="st1" x1="29.3" y1="6.2" x2="29.3" y2="6.2"/>
<line class="st1" x1="41.9" y1="6.2" x2="41.9" y2="6.2"/>
<line class="st1" x1="40.1" y1="6.2" x2="40.1" y2="6.2"/>
<line class="st1" x1="45.5" y1="6.2" x2="45.5" y2="6.2"/>
<line class="st1" x1="43.7" y1="6.2" x2="43.7" y2="6.2"/>
<line class="st1" x1="9.6" y1="11.9" x2="9.6" y2="11.9"/>
<line class="st1" x1="13.1" y1="11.9" x2="13.1" y2="11.9"/>
<line class="st1" x1="11.4" y1="11.9" x2="11.4" y2="11.9"/>
<line class="st1" x1="14.9" y1="11.9" x2="14.9" y2="11.9"/>
<line class="st1" x1="27.5" y1="11.9" x2="27.5" y2="11.9"/>
<line class="st1" x1="25.7" y1="11.9" x2="25.7" y2="11.9"/>
<line class="st1" x1="31.1" y1="11.9" x2="31.1" y2="11.9"/>
<line class="st1" x1="29.3" y1="11.9" x2="29.3" y2="11.9"/>
<line class="st1" x1="34.7" y1="11.9" x2="34.7" y2="11.9"/>
<line class="st1" x1="32.9" y1="11.9" x2="32.9" y2="11.9"/>
<line class="st1" x1="45.5" y1="11.9" x2="45.5" y2="11.9"/>
<line class="st1" x1="6" y1="17.8" x2="6" y2="17.8"/>
<line class="st1" x1="9.6" y1="17.8" x2="9.6" y2="17.8"/>
<line class="st1" x1="7.8" y1="17.8" x2="7.8" y2="17.8"/>
<line class="st1" x1="13.1" y1="17.8" x2="13.1" y2="17.8"/>
<line class="st1" x1="11.4" y1="17.8" x2="11.4" y2="17.8"/>
<line class="st1" x1="14.9" y1="17.8" x2="14.9" y2="17.8"/>
<line class="st1" x1="27.5" y1="17.8" x2="27.5" y2="17.8"/>
<line class="st1" x1="25.7" y1="17.8" x2="25.7" y2="17.8"/>
<line class="st1" x1="31.1" y1="17.8" x2="31.1" y2="17.8"/>
<line class="st1" x1="29.3" y1="17.8" x2="29.3" y2="17.8"/>
<line class="st1" x1="41.9" y1="17.8" x2="41.9" y2="17.8"/>
<line class="st1" x1="40.1" y1="17.8" x2="40.1" y2="17.8"/>
<line class="st1" x1="43.7" y1="17.8" x2="43.7" y2="17.8"/>
<line class="st1" x1="2.4" y1="23.6" x2="2.4" y2="23.6"/>
<line class="st1" x1="0.6" y1="23.6" x2="0.6" y2="23.6"/>
<line class="st1" x1="6" y1="23.6" x2="6" y2="23.6"/>
<line class="st1" x1="4.2" y1="23.6" x2="4.2" y2="23.6"/>
<line class="st1" x1="9.6" y1="23.6" x2="9.6" y2="23.6"/>
<line class="st1" x1="7.8" y1="23.6" x2="7.8" y2="23.6"/>
<line class="st1" x1="11.4" y1="23.6" x2="11.4" y2="23.6"/>
<line class="st1" x1="23.9" y1="23.6" x2="23.9" y2="23.6"/>
<line class="st1" x1="22.1" y1="23.6" x2="22.1" y2="23.6"/>
<line class="st1" x1="27.5" y1="23.6" x2="27.5" y2="23.6"/>
<line class="st1" x1="25.7" y1="23.6" x2="25.7" y2="23.6"/>
<line class="st1" x1="31.1" y1="23.6" x2="31.1" y2="23.6"/>
<line class="st1" x1="29.3" y1="23.6" x2="29.3" y2="23.6"/>
<line class="st1" x1="32.9" y1="23.6" x2="32.9" y2="23.6"/>
<line class="st1" x1="41.9" y1="23.6" x2="41.9" y2="23.6"/>
<line class="st1" x1="45.5" y1="23.6" x2="45.5" y2="23.6"/>
<line class="st1" x1="43.7" y1="23.6" x2="43.7" y2="23.6"/>
<line class="st1" x1="2.4" y1="29.4" x2="2.4" y2="29.4"/>
<line class="st1" x1="0.6" y1="29.4" x2="0.6" y2="29.4"/>
<line class="st1" x1="6" y1="29.4" x2="6" y2="29.4"/>
<line class="st1" x1="4.2" y1="29.4" x2="4.2" y2="29.4"/>
<line class="st1" x1="7.8" y1="29.4" x2="7.8" y2="29.4"/>
<line class="st1" x1="16.7" y1="29.4" x2="16.7" y2="29.4"/>
<line class="st1" x1="20.3" y1="29.4" x2="20.3" y2="29.4"/>
<line class="st1" x1="18.5" y1="29.4" x2="18.5" y2="29.4"/>
<line class="st1" x1="23.9" y1="29.4" x2="23.9" y2="29.4"/>
<line class="st1" x1="22.1" y1="29.4" x2="22.1" y2="29.4"/>
<line class="st1" x1="25.7" y1="29.4" x2="25.7" y2="29.4"/>
<line class="st1" x1="34.7" y1="29.4" x2="34.7" y2="29.4"/>
<line class="st1" x1="38.3" y1="29.4" x2="38.3" y2="29.4"/>
<line class="st1" x1="36.5" y1="29.4" x2="36.5" y2="29.4"/>
<line class="st1" x1="41.9" y1="29.4" x2="41.9" y2="29.4"/>
<line class="st1" x1="40.1" y1="29.4" x2="40.1" y2="29.4"/>
<line class="st1" x1="45.5" y1="29.4" x2="45.5" y2="29.4"/>
<line class="st1" x1="43.7" y1="29.4" x2="43.7" y2="29.4"/>
<line class="st1" x1="2.4" y1="35.3" x2="2.4" y2="35.3"/>
<line class="st1" x1="0.6" y1="35.3" x2="0.6" y2="35.3"/>
<line class="st1" x1="4.2" y1="35.3" x2="4.2" y2="35.3"/>
<line class="st1" x1="13.1" y1="35.3" x2="13.1" y2="35.3"/>
<line class="st1" x1="16.7" y1="35.3" x2="16.7" y2="35.3"/>
<line class="st1" x1="14.9" y1="35.3" x2="14.9" y2="35.3"/>
<line class="st1" x1="18.5" y1="35.3" x2="18.5" y2="35.3"/>
<line class="st1" x1="31.1" y1="35.3" x2="31.1" y2="35.3"/>
<line class="st1" x1="29.3" y1="35.3" x2="29.3" y2="35.3"/>
<line class="st1" x1="34.7" y1="35.3" x2="34.7" y2="35.3"/>
<line class="st1" x1="32.9" y1="35.3" x2="32.9" y2="35.3"/>
<line class="st1" x1="45.5" y1="35.3" x2="45.5" y2="35.3"/>
<line class="st1" x1="43.7" y1="35.3" x2="43.7" y2="35.3"/>
<line class="st1" x1="2.4" y1="41" x2="2.4" y2="41"/>
<line class="st1" x1="0.6" y1="41" x2="0.6" y2="41"/>
<line class="st1" x1="6" y1="41" x2="6" y2="41"/>
<line class="st1" x1="4.2" y1="41" x2="4.2" y2="41"/>
<line class="st1" x1="16.7" y1="41" x2="16.7" y2="41"/>
<line class="st1" x1="20.3" y1="41" x2="20.3" y2="41"/>
<line class="st1" x1="18.5" y1="41" x2="18.5" y2="41"/>
<line class="st1" x1="23.9" y1="41" x2="23.9" y2="41"/>
<line class="st1" x1="22.1" y1="41" x2="22.1" y2="41"/>
<line class="st1" x1="27.5" y1="41" x2="27.5" y2="41"/>
<line class="st1" x1="25.7" y1="41" x2="25.7" y2="41"/>
<line class="st1" x1="31.1" y1="41" x2="31.1" y2="41"/>
<line class="st1" x1="29.3" y1="41" x2="29.3" y2="41"/>
<line class="st1" x1="41.9" y1="41" x2="41.9" y2="41"/>
<line class="st1" x1="45.5" y1="41" x2="45.5" y2="41"/>
<line class="st1" x1="43.7" y1="41" x2="43.7" y2="41"/>
</svg>
