<svg id="Layer_1" data-name="Layer 1" xmlns="http://www.w3.org/2000/svg" width="54.18" height="54.13" viewBox="0 0 54.18 54.13"><defs><style>.cls-1,.cls-2,.cls-3{fill:none;}.cls-1,.cls-2{stroke:#000;}.cls-1{stroke-width:0.3px;}.cls-2{stroke-linecap:round;stroke-width:0.7px;}</style></defs><title>Artboard 37</title><path class="cls-1" d="M49.11,5a7.28,7.28,0,0,1,3.56.5c1.36.92,3.19.42,3.61.5"/><path class="cls-1" d="M42.16,15.89a8,8,0,0,0,1-.35"/><path class="cls-1" d="M49.45,10.09c-3.17-.42-4.92.66-6.17.91"/><path class="cls-1" d="M47.66.21a13.33,13.33,0,0,1-5.5.91"/><line class="cls-2" x1="43.31" y1="3.66" x2="43.31" y2="3.66"/><line class="cls-2" x1="45.31" y1="3.34" x2="45.31" y2="3.34"/><line class="cls-2" x1="47.13" y1="2.73" x2="47.13" y2="2.73"/><line class="cls-2" x1="49.06" y1="2.6" x2="49.06" y2="2.6"/><line class="cls-2" x1="51.01" y1="2.73" x2="51.01" y2="2.73"/><line class="cls-2" x1="52.94" y1="3.17" x2="52.94" y2="3.17"/><line class="cls-2" x1="48.82" y1="0.21" x2="48.82" y2="0.21"/><line class="cls-2" x1="50.75" y1="0.09" x2="50.75" y2="0.09"/><line class="cls-2" x1="52.7" y1="0.21" x2="52.7" y2="0.21"/><line class="cls-2" x1="44.03" y1="8.39" x2="44.03" y2="8.39"/><line class="cls-2" x1="45.85" y1="7.77" x2="45.85" y2="7.77"/><line class="cls-2" x1="47.78" y1="7.64" x2="47.78" y2="7.64"/><line class="cls-2" x1="43.33" y1="6.12" x2="43.33" y2="6.12"/><line class="cls-2" x1="45.15" y1="5.5" x2="45.15" y2="5.5"/><line class="cls-2" x1="47.07" y1="5.38" x2="47.07" y2="5.38"/><line class="cls-2" x1="49.72" y1="7.77" x2="49.72" y2="7.77"/><line class="cls-2" x1="51.66" y1="8.21" x2="51.66" y2="8.21"/><line class="cls-2" x1="53.51" y1="8.58" x2="53.51" y2="8.58"/><line class="cls-2" x1="50.81" y1="10.53" x2="50.81" y2="10.53"/><line class="cls-2" x1="52.65" y1="10.9" x2="52.65" y2="10.9"/><line class="cls-2" x1="42.76" y1="13.28" x2="42.76" y2="13.28"/><line class="cls-2" x1="44.58" y1="12.66" x2="44.58" y2="12.66"/><line class="cls-2" x1="46.5" y1="12.53" x2="46.5" y2="12.53"/><line class="cls-2" x1="48.45" y1="12.66" x2="48.45" y2="12.66"/><line class="cls-2" x1="50.39" y1="13.1" x2="50.39" y2="13.1"/><line class="cls-2" x1="52.24" y1="13.47" x2="52.24" y2="13.47"/><line class="cls-2" x1="45.08" y1="15.06" x2="45.08" y2="15.06"/><line class="cls-2" x1="47.01" y1="14.94" x2="47.01" y2="14.94"/><line class="cls-2" x1="48.96" y1="15.06" x2="48.96" y2="15.06"/><line class="cls-2" x1="50.89" y1="15.51" x2="50.89" y2="15.51"/><line class="cls-2" x1="52.74" y1="15.88" x2="52.74" y2="15.88"/><line class="cls-2" x1="54.27" y1="13.59" x2="54.27" y2="13.59"/><rect class="cls-3" x="42.16" y="-37.6" width="54.13" height="54.13"/><path class="cls-1" d="M43.11,20.75c1.25-.25,3-1.33,6.17-.91"/><path class="cls-1" d="M45.11,24.67a9.44,9.44,0,0,1-3,.78"/><path class="cls-1" d="M47.07,34.71a10.25,10.25,0,0,0-4.91.54"/><path class="cls-1" d="M51.32,49.75a10.47,10.47,0,0,0,7.42.17"/><path class="cls-1" d="M42.53,29.63c3.58-.67,6,.91,7.5,1.08"/><path class="cls-1" d="M58,40.13a8.94,8.94,0,0,1-6.84-.25"/><path class="cls-1" d="M55.28,45.46c-.42-.08-2.25.42-3.61-.5a7.28,7.28,0,0,0-3.56-.5"/><line class="cls-2" x1="42.61" y1="18.4" x2="42.61" y2="18.4"/><line class="cls-2" x1="44.61" y1="18.08" x2="44.61" y2="18.08"/><line class="cls-2" x1="46.43" y1="17.46" x2="46.43" y2="17.46"/><line class="cls-2" x1="48.36" y1="17.34" x2="48.36" y2="17.34"/><line class="cls-2" x1="50.31" y1="17.46" x2="50.31" y2="17.46"/><line class="cls-2" x1="52.24" y1="17.9" x2="52.24" y2="17.9"/><line class="cls-2" x1="54.09" y1="18.27" x2="54.09" y2="18.27"/><line class="cls-2" x1="42.98" y1="22.97" x2="42.98" y2="22.97"/><line class="cls-2" x1="44.8" y1="22.35" x2="44.8" y2="22.35"/><line class="cls-2" x1="46.72" y1="22.23" x2="46.72" y2="22.23"/><line class="cls-2" x1="48.67" y1="22.35" x2="48.67" y2="22.35"/><line class="cls-2" x1="50.61" y1="22.79" x2="50.61" y2="22.79"/><line class="cls-2" x1="52.46" y1="23.16" x2="52.46" y2="23.16"/><line class="cls-2" x1="54.49" y1="23.29" x2="54.49" y2="23.29"/><line class="cls-2" x1="50.57" y1="20.2" x2="50.57" y2="20.2"/><line class="cls-2" x1="52.42" y1="20.56" x2="52.42" y2="20.56"/><line class="cls-2" x1="54.45" y1="20.69" x2="54.45" y2="20.69"/><line class="cls-2" x1="42.63" y1="27.35" x2="42.63" y2="27.35"/><line class="cls-2" x1="44.56" y1="27.23" x2="44.56" y2="27.23"/><line class="cls-2" x1="46.51" y1="27.35" x2="46.51" y2="27.35"/><line class="cls-2" x1="48.44" y1="27.79" x2="48.44" y2="27.79"/><line class="cls-2" x1="50.29" y1="28.16" x2="50.29" y2="28.16"/><line class="cls-2" x1="52.32" y1="28.29" x2="52.32" y2="28.29"/><line class="cls-2" x1="46.16" y1="24.75" x2="46.16" y2="24.75"/><line class="cls-2" x1="48.11" y1="24.88" x2="48.11" y2="24.88"/><line class="cls-2" x1="50.04" y1="25.32" x2="50.04" y2="25.32"/><line class="cls-2" x1="51.89" y1="25.69" x2="51.89" y2="25.69"/><line class="cls-2" x1="53.92" y1="25.81" x2="53.92" y2="25.81"/><line class="cls-2" x1="54.38" y1="27.97" x2="54.38" y2="27.97"/><line class="cls-2" x1="42.8" y1="32.18" x2="42.8" y2="32.18"/><line class="cls-2" x1="44.72" y1="32.06" x2="44.72" y2="32.06"/><line class="cls-2" x1="46.67" y1="32.18" x2="46.67" y2="32.18"/><line class="cls-2" x1="48.61" y1="32.63" x2="48.61" y2="32.63"/><line class="cls-2" x1="50.46" y1="33" x2="50.46" y2="33"/><line class="cls-2" x1="52.49" y1="33.12" x2="52.49" y2="33.12"/><line class="cls-2" x1="51.27" y1="30.73" x2="51.27" y2="30.73"/><line class="cls-2" x1="53.33" y1="30.41" x2="53.33" y2="30.41"/><line class="cls-2" x1="43.31" y1="37.97" x2="43.31" y2="37.97"/><line class="cls-2" x1="45.13" y1="37.35" x2="45.13" y2="37.35"/><line class="cls-2" x1="47.06" y1="37.23" x2="47.06" y2="37.23"/><line class="cls-2" x1="49.01" y1="37.35" x2="49.01" y2="37.35"/><line class="cls-2" x1="50.94" y1="37.79" x2="50.94" y2="37.79"/><line class="cls-2" x1="52.79" y1="38.16" x2="52.79" y2="38.16"/><line class="cls-2" x1="48.37" y1="34.88" x2="48.37" y2="34.88"/><line class="cls-2" x1="50.31" y1="35.33" x2="50.31" y2="35.33"/><line class="cls-2" x1="52.15" y1="35.7" x2="52.15" y2="35.7"/><line class="cls-2" x1="54.18" y1="35.82" x2="54.18" y2="35.82"/><line class="cls-2" x1="43.15" y1="42.64" x2="43.15" y2="42.64"/><line class="cls-2" x1="44.97" y1="42.02" x2="44.97" y2="42.02"/><line class="cls-2" x1="46.89" y1="41.89" x2="46.89" y2="41.89"/><line class="cls-2" x1="48.84" y1="42.02" x2="48.84" y2="42.02"/><line class="cls-2" x1="43.37" y1="40.21" x2="43.37" y2="40.21"/><line class="cls-2" x1="45.36" y1="39.48" x2="45.36" y2="39.48"/><line class="cls-2" x1="47.34" y1="39.29" x2="47.34" y2="39.29"/><line class="cls-2" x1="49.41" y1="39.42" x2="49.41" y2="39.42"/><line class="cls-2" x1="50.78" y1="42.46" x2="50.78" y2="42.46"/><line class="cls-2" x1="52.62" y1="42.83" x2="52.62" y2="42.83"/><line class="cls-2" x1="42.63" y1="47.95" x2="42.63" y2="47.95"/><line class="cls-2" x1="44.48" y1="47.64" x2="44.48" y2="47.64"/><line class="cls-2" x1="46.3" y1="47.02" x2="46.3" y2="47.02"/><line class="cls-2" x1="42.99" y1="45.52" x2="42.99" y2="45.52"/><line class="cls-2" x1="44.84" y1="45.2" x2="44.84" y2="45.2"/><line class="cls-2" x1="46.66" y1="44.59" x2="46.66" y2="44.59"/><line class="cls-2" x1="48.22" y1="46.89" x2="48.22" y2="46.89"/><line class="cls-2" x1="50.17" y1="47.02" x2="50.17" y2="47.02"/><line class="cls-2" x1="43.82" y1="50.2" x2="43.82" y2="50.2"/><line class="cls-2" x1="45.7" y1="49.59" x2="45.7" y2="49.59"/><line class="cls-2" x1="47.62" y1="49.46" x2="47.62" y2="49.46"/><line class="cls-2" x1="49.57" y1="49.59" x2="49.57" y2="49.59"/><line class="cls-2" x1="52.11" y1="47.46" x2="52.11" y2="47.46"/><line class="cls-2" x1="53.96" y1="47.83" x2="53.96" y2="47.83"/><line class="cls-2" x1="43.48" y1="52.95" x2="43.48" y2="52.95"/><line class="cls-2" x1="45.48" y1="52.64" x2="45.48" y2="52.64"/><line class="cls-2" x1="47.3" y1="52.02" x2="47.3" y2="52.02"/><line class="cls-2" x1="49.22" y1="51.89" x2="49.22" y2="51.89"/><line class="cls-2" x1="51.17" y1="52.02" x2="51.17" y2="52.02"/><line class="cls-2" x1="53.11" y1="52.46" x2="53.11" y2="52.46"/><line class="cls-2" x1="48.82" y1="54.34" x2="48.82" y2="54.34"/><line class="cls-2" x1="50.75" y1="54.21" x2="50.75" y2="54.21"/><line class="cls-2" x1="52.7" y1="54.34" x2="52.7" y2="54.34"/><rect class="cls-3" x="42.16" y="16.52" width="54.13" height="54.13"/><path class="cls-1" d="M11.41,5.63a8.91,8.91,0,0,0,6.83.25"/><path class="cls-1" d="M29.57,6.29c1.5,0,2.59-.75,3.84-1.08a7.32,7.32,0,0,1,4.41.08"/><path class="cls-1" d="M-5,5a7.28,7.28,0,0,1,3.56.5c1.36.92,3.19.42,3.61.5"/><path class="cls-1" d="M8.66,15a7.27,7.27,0,0,0-4.42-.08C3,15.21,1.91,16,.41,16"/><path class="cls-1" d="M26.66,15.88c-.42-.09-2.25.41-3.61-.5a7.17,7.17,0,0,0-3.56-.5"/><path class="cls-1" d="M5.91,10.09c3.58-.67,6,.91,7.5,1.08"/><path class="cls-1" d="M25.41,10.84c1.16.25,5.16.33,7.33-.75"/><path class="cls-1" d="M10,.34C6.82-.08,5.07,1,3.82,1.25"/><path class="cls-1" d="M20.57.34c3.59-.67,6,.91,7.5,1.08"/><path class="cls-1" d="M36.36,15.29a9.44,9.44,0,0,0,5.8.6"/><path class="cls-1" d="M40.32,1a11.51,11.51,0,0,0,1.84.16"/><line class="cls-2" x1="0.67" y1="3.54" x2="0.67" y2="3.54"/><line class="cls-2" x1="0.51" y1="0.65" x2="0.51" y2="0.65"/><line class="cls-2" x1="2.28" y1="1.21" x2="2.28" y2="1.21"/><line class="cls-2" x1="2.69" y1="3.66" x2="2.69" y2="3.66"/><line class="cls-2" x1="4.75" y1="3.34" x2="4.75" y2="3.34"/><line class="cls-2" x1="6.57" y1="2.73" x2="6.57" y2="2.73"/><line class="cls-2" x1="8.49" y1="2.6" x2="8.49" y2="2.6"/><line class="cls-2" x1="10.44" y1="2.73" x2="10.44" y2="2.73"/><line class="cls-2" x1="12.38" y1="3.17" x2="12.38" y2="3.17"/><line class="cls-2" x1="14.11" y1="3.54" x2="14.11" y2="3.54"/><line class="cls-2" x1="16.12" y1="3.61" x2="16.12" y2="3.61"/><line class="cls-2" x1="18.18" y1="3.29" x2="18.18" y2="3.29"/><line class="cls-2" x1="19.99" y1="2.67" x2="19.99" y2="2.67"/><line class="cls-2" x1="11.5" y1="0.71" x2="11.5" y2="0.71"/><line class="cls-2" x1="13.23" y1="1.08" x2="13.23" y2="1.08"/><line class="cls-2" x1="15.24" y1="1.15" x2="15.24" y2="1.15"/><line class="cls-2" x1="17.3" y1="0.83" x2="17.3" y2="0.83"/><line class="cls-2" x1="19.28" y1="0.54" x2="19.28" y2="0.54"/><line class="cls-2" x1="21.92" y1="2.54" x2="21.92" y2="2.54"/><line class="cls-2" x1="23.87" y1="2.67" x2="23.87" y2="2.67"/><line class="cls-2" x1="25.81" y1="3.11" x2="25.81" y2="3.11"/><line class="cls-2" x1="27.71" y1="3.48" x2="27.71" y2="3.48"/><line class="cls-2" x1="29.69" y1="3.61" x2="29.69" y2="3.61"/><line class="cls-2" x1="31.74" y1="3.29" x2="31.74" y2="3.29"/><line class="cls-2" x1="33.56" y1="2.67" x2="33.56" y2="2.67"/><line class="cls-2" x1="35.49" y1="2.54" x2="35.49" y2="2.54"/><line class="cls-2" x1="37.44" y1="2.67" x2="37.44" y2="2.67"/><line class="cls-2" x1="39.38" y1="3.11" x2="39.38" y2="3.11"/><line class="cls-2" x1="29.51" y1="1.12" x2="29.51" y2="1.12"/><line class="cls-2" x1="31.57" y1="0.8" x2="31.57" y2="0.8"/><line class="cls-2" x1="33.39" y1="0.18" x2="33.39" y2="0.18"/><line class="cls-2" x1="35.31" y1="0.06" x2="35.31" y2="0.06"/><line class="cls-2" x1="37.26" y1="0.18" x2="37.26" y2="0.18"/><line class="cls-2" x1="39.2" y1="0.63" x2="39.2" y2="0.63"/><line class="cls-2" x1="41.11" y1="3.48" x2="41.11" y2="3.48"/><line class="cls-2" x1="1.41" y1="8.7" x2="1.41" y2="8.7"/><line class="cls-2" x1="3.47" y1="8.39" x2="3.47" y2="8.39"/><line class="cls-2" x1="0.56" y1="11.03" x2="0.56" y2="11.03"/><line class="cls-2" x1="2.61" y1="10.71" x2="2.61" y2="10.71"/><line class="cls-2" x1="4.28" y1="10.38" x2="4.28" y2="10.38"/><line class="cls-2" x1="5.29" y1="7.77" x2="5.29" y2="7.77"/><line class="cls-2" x1="7.21" y1="7.64" x2="7.21" y2="7.64"/><line class="cls-2" x1="9.16" y1="7.77" x2="9.16" y2="7.77"/><line class="cls-2" x1="11.1" y1="8.21" x2="11.1" y2="8.21"/><line class="cls-2" x1="3.67" y1="6" x2="3.67" y2="6"/><line class="cls-2" x1="5.49" y1="5.38" x2="5.49" y2="5.38"/><line class="cls-2" x1="7.42" y1="5.25" x2="7.42" y2="5.25"/><line class="cls-2" x1="9.36" y1="5.38" x2="9.36" y2="5.38"/><line class="cls-2" x1="12.83" y1="8.58" x2="12.83" y2="8.58"/><line class="cls-2" x1="14.84" y1="8.65" x2="14.84" y2="8.65"/><line class="cls-2" x1="16.89" y1="8.33" x2="16.89" y2="8.33"/><line class="cls-2" x1="18.71" y1="7.71" x2="18.71" y2="7.71"/><line class="cls-2" x1="20.64" y1="7.59" x2="20.64" y2="7.59"/><line class="cls-2" x1="22.59" y1="7.71" x2="22.59" y2="7.71"/><line class="cls-2" x1="24.53" y1="8.15" x2="24.53" y2="8.15"/><line class="cls-2" x1="14.68" y1="11.12" x2="14.68" y2="11.12"/><line class="cls-2" x1="16.73" y1="10.8" x2="16.73" y2="10.8"/><line class="cls-2" x1="18.55" y1="10.18" x2="18.55" y2="10.18"/><line class="cls-2" x1="20.48" y1="10.06" x2="20.48" y2="10.06"/><line class="cls-2" x1="22.43" y1="10.18" x2="22.43" y2="10.18"/><line class="cls-2" x1="24.36" y1="10.63" x2="24.36" y2="10.63"/><line class="cls-2" x1="26.43" y1="8.52" x2="26.43" y2="8.52"/><line class="cls-2" x1="20.03" y1="5.38" x2="20.03" y2="5.38"/><line class="cls-2" x1="21.96" y1="5.25" x2="21.96" y2="5.25"/><line class="cls-2" x1="23.91" y1="5.38" x2="23.91" y2="5.38"/><line class="cls-2" x1="25.84" y1="5.82" x2="25.84" y2="5.82"/><line class="cls-2" x1="27.75" y1="6.19" x2="27.75" y2="6.19"/><line class="cls-2" x1="28.41" y1="8.65" x2="28.41" y2="8.65"/><line class="cls-2" x1="30.46" y1="8.33" x2="30.46" y2="8.33"/><line class="cls-2" x1="32.28" y1="7.71" x2="32.28" y2="7.71"/><line class="cls-2" x1="34.21" y1="7.59" x2="34.21" y2="7.59"/><line class="cls-2" x1="36.16" y1="7.71" x2="36.16" y2="7.71"/><line class="cls-2" x1="38.14" y1="8.04" x2="38.14" y2="8.04"/><line class="cls-2" x1="40.07" y1="8.42" x2="40.07" y2="8.42"/><line class="cls-2" x1="41.81" y1="8.59" x2="41.81" y2="8.59"/><line class="cls-2" x1="34.16" y1="10.02" x2="34.16" y2="10.02"/><line class="cls-2" x1="36.11" y1="10.15" x2="36.11" y2="10.15"/><line class="cls-2" x1="38.26" y1="10.54" x2="38.26" y2="10.54"/><line class="cls-2" x1="40.07" y1="10.86" x2="40.07" y2="10.86"/><line class="cls-2" x1="41.77" y1="11.03" x2="41.77" y2="11.03"/><line class="cls-2" x1="39.36" y1="5.71" x2="39.36" y2="5.71"/><line class="cls-2" x1="41.35" y1="5.78" x2="41.35" y2="5.78"/><line class="cls-2" x1="0.14" y1="13.59" x2="0.14" y2="13.59"/><line class="cls-2" x1="2.2" y1="13.28" x2="2.2" y2="13.28"/><line class="cls-2" x1="4.02" y1="12.66" x2="4.02" y2="12.66"/><line class="cls-2" x1="5.94" y1="12.53" x2="5.94" y2="12.53"/><line class="cls-2" x1="7.89" y1="12.66" x2="7.89" y2="12.66"/><line class="cls-2" x1="9.83" y1="13.1" x2="9.83" y2="13.1"/><line class="cls-2" x1="11.56" y1="13.47" x2="11.56" y2="13.47"/><line class="cls-2" x1="13.57" y1="13.54" x2="13.57" y2="13.54"/><line class="cls-2" x1="15.62" y1="13.22" x2="15.62" y2="13.22"/><line class="cls-2" x1="17.44" y1="12.6" x2="17.44" y2="12.6"/><line class="cls-2" x1="10.33" y1="15.71" x2="10.33" y2="15.71"/><line class="cls-2" x1="12.07" y1="16.08" x2="12.07" y2="16.08"/><line class="cls-2" x1="14.07" y1="16.15" x2="14.07" y2="16.15"/><line class="cls-2" x1="16.13" y1="15.83" x2="16.13" y2="15.83"/><line class="cls-2" x1="17.95" y1="15.21" x2="17.95" y2="15.21"/><line class="cls-2" x1="19.37" y1="12.48" x2="19.37" y2="12.48"/><line class="cls-2" x1="21.32" y1="12.6" x2="21.32" y2="12.6"/><line class="cls-2" x1="23.25" y1="13.04" x2="23.25" y2="13.04"/><line class="cls-2" x1="25.16" y1="13.41" x2="25.16" y2="13.41"/><line class="cls-2" x1="27.14" y1="13.54" x2="27.14" y2="13.54"/><line class="cls-2" x1="29.19" y1="13.22" x2="29.19" y2="13.22"/><line class="cls-2" x1="31.01" y1="12.6" x2="31.01" y2="12.6"/><line class="cls-2" x1="32.94" y1="12.48" x2="32.94" y2="12.48"/><line class="cls-2" x1="34.89" y1="12.6" x2="34.89" y2="12.6"/><line class="cls-2" x1="28.75" y1="15.58" x2="28.75" y2="15.58"/><line class="cls-2" x1="30.57" y1="14.96" x2="30.57" y2="14.96"/><line class="cls-2" x1="32.5" y1="14.84" x2="32.5" y2="14.84"/><line class="cls-2" x1="34.45" y1="14.96" x2="34.45" y2="14.96"/><line class="cls-2" x1="36.82" y1="13.04" x2="36.82" y2="13.04"/><line class="cls-2" x1="38.56" y1="13.41" x2="38.56" y2="13.41"/><line class="cls-2" x1="40.54" y1="13.48" x2="40.54" y2="13.48"/><rect class="cls-3" x="-11.97" y="-37.6" width="54.13" height="54.13"/><path class="cls-1" d="M5.74,19.84c3.58-.67,6,.91,7.5,1.08"/><path class="cls-1" d="M25.24,20.59c1.17.25,5.17.33,7.33-.75"/><path class="cls-1" d="M26.24,30.59c1.25-.25,3-1.34,6.17-.92"/><path class="cls-1" d="M3.53,34.71c3.58-.67,6,.92,7.5,1.08"/><path class="cls-1" d="M30.36,34.71c-2.16,1.08-6.16,1-7.33.75"/><path class="cls-1" d="M-2.8,49.75a10.44,10.44,0,0,0,7.41.17"/><path class="cls-1" d="M15.36,50.42c1.5,0,2.59-.75,3.84-1.08a7.24,7.24,0,0,1,4.41.08"/><path class="cls-1" d="M34.45,49.34a7.17,7.17,0,0,1,3.56.5c1.35.91,3.19.41,3.6.5"/><path class="cls-1" d="M7.07,24.71c-3.16-.42-4.91.67-6.16.92"/><path class="cls-1" d="M17.66,24.71c3.58-.67,6,.92,7.5,1.08"/><path class="cls-1" d="M7.91,30.38c1.16.25,5.16.33,7.33-.75"/><path class="cls-1" d="M3.82,40.13A8.91,8.91,0,0,1-3,39.88"/><path class="cls-1" d="M23.41,39.54A7.35,7.35,0,0,0,19,39.46c-1.25.33-2.33,1.08-3.83,1.08"/><path class="cls-1" d="M41.41,40.46c-.42-.08-2.25.42-3.61-.5a7.28,7.28,0,0,0-3.56-.5"/><path class="cls-1" d="M10.74,44.75a8.87,8.87,0,0,0,6.83.25"/><path class="cls-1" d="M37.16,44.42a7.27,7.27,0,0,0-4.42-.08c-1.25.33-2.33,1.08-3.83,1.08"/><path class="cls-1" d="M1.16,45.46c-.42-.08-2.25.42-3.61-.5A7.28,7.28,0,0,0-6,44.46"/><path class="cls-1" d="M37.78,25.42a16.44,16.44,0,0,0,4.38,0"/><path class="cls-1" d="M40.91,35.63c.36-.08.77-.22,1.25-.38"/><line class="cls-2" x1="-0.03" y1="18.27" x2="-0.03" y2="18.27"/><line class="cls-2" x1="1.99" y1="18.4" x2="1.99" y2="18.4"/><line class="cls-2" x1="4.05" y1="18.08" x2="4.05" y2="18.08"/><line class="cls-2" x1="5.87" y1="17.46" x2="5.87" y2="17.46"/><line class="cls-2" x1="7.8" y1="17.34" x2="7.8" y2="17.34"/><line class="cls-2" x1="9.74" y1="17.46" x2="9.74" y2="17.46"/><line class="cls-2" x1="11.68" y1="17.9" x2="11.68" y2="17.9"/><line class="cls-2" x1="13.42" y1="18.27" x2="13.42" y2="18.27"/><line class="cls-2" x1="15.42" y1="18.34" x2="15.42" y2="18.34"/><line class="cls-2" x1="17.48" y1="18.02" x2="17.48" y2="18.02"/><line class="cls-2" x1="19.3" y1="17.4" x2="19.3" y2="17.4"/><line class="cls-2" x1="21.22" y1="17.28" x2="21.22" y2="17.28"/><line class="cls-2" x1="23.17" y1="17.4" x2="23.17" y2="17.4"/><line class="cls-2" x1="25.11" y1="17.85" x2="25.11" y2="17.85"/><line class="cls-2" x1="27.01" y1="18.22" x2="27.01" y2="18.22"/><line class="cls-2" x1="28.99" y1="18.34" x2="28.99" y2="18.34"/><line class="cls-2" x1="31.05" y1="18.02" x2="31.05" y2="18.02"/><line class="cls-2" x1="32.86" y1="17.4" x2="32.86" y2="17.4"/><line class="cls-2" x1="34.79" y1="17.28" x2="34.79" y2="17.28"/><line class="cls-2" x1="36.74" y1="17.4" x2="36.74" y2="17.4"/><line class="cls-2" x1="38.68" y1="17.85" x2="38.68" y2="17.85"/><line class="cls-2" x1="40.41" y1="18.22" x2="40.41" y2="18.22"/><line class="cls-2" x1="0.36" y1="23.29" x2="0.36" y2="23.29"/><line class="cls-2" x1="2.42" y1="22.97" x2="2.42" y2="22.97"/><line class="cls-2" x1="4.24" y1="22.35" x2="4.24" y2="22.35"/><line class="cls-2" x1="0.32" y1="20.69" x2="0.32" y2="20.69"/><line class="cls-2" x1="2.38" y1="20.37" x2="2.38" y2="20.37"/><line class="cls-2" x1="4.2" y1="19.95" x2="4.2" y2="19.95"/><line class="cls-2" x1="6.16" y1="22.23" x2="6.16" y2="22.23"/><line class="cls-2" x1="8.11" y1="22.35" x2="8.11" y2="22.35"/><line class="cls-2" x1="10.05" y1="22.79" x2="10.05" y2="22.79"/><line class="cls-2" x1="11.78" y1="23.16" x2="11.78" y2="23.16"/><line class="cls-2" x1="13.79" y1="23.23" x2="13.79" y2="23.23"/><line class="cls-2" x1="15.84" y1="22.91" x2="15.84" y2="22.91"/><line class="cls-2" x1="17.66" y1="22.29" x2="17.66" y2="22.29"/><line class="cls-2" x1="19.59" y1="22.17" x2="19.59" y2="22.17"/><line class="cls-2" x1="21.54" y1="22.29" x2="21.54" y2="22.29"/><line class="cls-2" x1="23.47" y1="22.74" x2="23.47" y2="22.74"/><line class="cls-2" x1="14.56" y1="20.65" x2="14.56" y2="20.65"/><line class="cls-2" x1="16.62" y1="20.33" x2="16.62" y2="20.33"/><line class="cls-2" x1="18.44" y1="19.71" x2="18.44" y2="19.71"/><line class="cls-2" x1="20.36" y1="19.59" x2="20.36" y2="19.59"/><line class="cls-2" x1="22.31" y1="19.71" x2="22.31" y2="19.71"/><line class="cls-2" x1="24.25" y1="20.15" x2="24.25" y2="20.15"/><line class="cls-2" x1="25.38" y1="23.11" x2="25.38" y2="23.11"/><line class="cls-2" x1="27.36" y1="23.23" x2="27.36" y2="23.23"/><line class="cls-2" x1="29.41" y1="22.91" x2="29.41" y2="22.91"/><line class="cls-2" x1="31.23" y1="22.29" x2="31.23" y2="22.29"/><line class="cls-2" x1="33.16" y1="22.17" x2="33.16" y2="22.17"/><line class="cls-2" x1="35.11" y1="22.29" x2="35.11" y2="22.29"/><line class="cls-2" x1="37.04" y1="22.74" x2="37.04" y2="22.74"/><line class="cls-2" x1="38.78" y1="23.11" x2="38.78" y2="23.11"/><line class="cls-2" x1="40.76" y1="23.17" x2="40.76" y2="23.17"/><line class="cls-2" x1="33.78" y1="19.84" x2="33.78" y2="19.84"/><line class="cls-2" x1="35.73" y1="19.96" x2="35.73" y2="19.96"/><line class="cls-2" x1="37.67" y1="20.4" x2="37.67" y2="20.4"/><line class="cls-2" x1="39.4" y1="20.77" x2="39.4" y2="20.77"/><line class="cls-2" x1="41.39" y1="20.84" x2="41.39" y2="20.84"/><line class="cls-2" x1="-0.21" y1="25.81" x2="-0.21" y2="25.81"/><line class="cls-2" x1="0.25" y1="27.97" x2="0.25" y2="27.97"/><line class="cls-2" x1="2.07" y1="27.35" x2="2.07" y2="27.35"/><line class="cls-2" x1="3.99" y1="27.23" x2="3.99" y2="27.23"/><line class="cls-2" x1="5.94" y1="27.35" x2="5.94" y2="27.35"/><line class="cls-2" x1="7.88" y1="27.79" x2="7.88" y2="27.79"/><line class="cls-2" x1="9.61" y1="28.16" x2="9.61" y2="28.16"/><line class="cls-2" x1="11.62" y1="28.23" x2="11.62" y2="28.23"/><line class="cls-2" x1="13.68" y1="27.91" x2="13.68" y2="27.91"/><line class="cls-2" x1="15.49" y1="27.29" x2="15.49" y2="27.29"/><line class="cls-2" x1="8.5" y1="25.09" x2="8.5" y2="25.09"/><line class="cls-2" x1="10.23" y1="25.45" x2="10.23" y2="25.45"/><line class="cls-2" x1="12.24" y1="25.52" x2="12.24" y2="25.52"/><line class="cls-2" x1="14.3" y1="25.2" x2="14.3" y2="25.2"/><line class="cls-2" x1="16.2" y1="24.84" x2="16.2" y2="24.84"/><line class="cls-2" x1="17.42" y1="27.17" x2="17.42" y2="27.17"/><line class="cls-2" x1="19.37" y1="27.29" x2="19.37" y2="27.29"/><line class="cls-2" x1="21.31" y1="27.74" x2="21.31" y2="27.74"/><line class="cls-2" x1="23.21" y1="28.11" x2="23.21" y2="28.11"/><line class="cls-2" x1="25.19" y1="28.23" x2="25.19" y2="28.23"/><line class="cls-2" x1="27.24" y1="27.91" x2="27.24" y2="27.91"/><line class="cls-2" x1="29.06" y1="27.29" x2="29.06" y2="27.29"/><line class="cls-2" x1="30.99" y1="27.17" x2="30.99" y2="27.17"/><line class="cls-2" x1="32.94" y1="27.29" x2="32.94" y2="27.29"/><line class="cls-2" x1="34.88" y1="27.74" x2="34.88" y2="27.74"/><line class="cls-2" x1="26.68" y1="25.75" x2="26.68" y2="25.75"/><line class="cls-2" x1="28.73" y1="25.43" x2="28.73" y2="25.43"/><line class="cls-2" x1="30.55" y1="24.81" x2="30.55" y2="24.81"/><line class="cls-2" x1="32.48" y1="24.68" x2="32.48" y2="24.68"/><line class="cls-2" x1="34.43" y1="24.81" x2="34.43" y2="24.81"/><line class="cls-2" x1="36.36" y1="25.25" x2="36.36" y2="25.25"/><line class="cls-2" x1="36.61" y1="28.11" x2="36.61" y2="28.11"/><line class="cls-2" x1="38.6" y1="28.17" x2="38.6" y2="28.17"/><line class="cls-2" x1="40.65" y1="27.86" x2="40.65" y2="27.86"/><line class="cls-2" x1="0.42" y1="32.8" x2="0.42" y2="32.8"/><line class="cls-2" x1="2.24" y1="32.18" x2="2.24" y2="32.18"/><line class="cls-2" x1="4.16" y1="32.06" x2="4.16" y2="32.06"/><line class="cls-2" x1="6.11" y1="32.18" x2="6.11" y2="32.18"/><line class="cls-2" x1="8.05" y1="32.63" x2="8.05" y2="32.63"/><line class="cls-2" x1="1.02" y1="29.79" x2="1.02" y2="29.79"/><line class="cls-2" x1="2.95" y1="29.67" x2="2.95" y2="29.67"/><line class="cls-2" x1="4.9" y1="29.79" x2="4.9" y2="29.79"/><line class="cls-2" x1="6.83" y1="30.24" x2="6.83" y2="30.24"/><line class="cls-2" x1="9.78" y1="33" x2="9.78" y2="33"/><line class="cls-2" x1="11.79" y1="33.06" x2="11.79" y2="33.06"/><line class="cls-2" x1="13.84" y1="32.75" x2="13.84" y2="32.75"/><line class="cls-2" x1="15.66" y1="32.13" x2="15.66" y2="32.13"/><line class="cls-2" x1="17.59" y1="32" x2="17.59" y2="32"/><line class="cls-2" x1="19.54" y1="32.13" x2="19.54" y2="32.13"/><line class="cls-2" x1="21.47" y1="32.57" x2="21.47" y2="32.57"/><line class="cls-2" x1="23.38" y1="32.94" x2="23.38" y2="32.94"/><line class="cls-2" x1="16.95" y1="29.59" x2="16.95" y2="29.59"/><line class="cls-2" x1="18.79" y1="29.79" x2="18.79" y2="29.79"/><line class="cls-2" x1="20.74" y1="29.92" x2="20.74" y2="29.92"/><line class="cls-2" x1="22.68" y1="30.36" x2="22.68" y2="30.36"/><line class="cls-2" x1="24.58" y1="30.73" x2="24.58" y2="30.73"/><line class="cls-2" x1="25.36" y1="33.06" x2="25.36" y2="33.06"/><line class="cls-2" x1="27.41" y1="32.75" x2="27.41" y2="32.75"/><line class="cls-2" x1="29.23" y1="32.13" x2="29.23" y2="32.13"/><line class="cls-2" x1="31.16" y1="32" x2="31.16" y2="32"/><line class="cls-2" x1="33.11" y1="32.13" x2="33.11" y2="32.13"/><line class="cls-2" x1="35.04" y1="32.57" x2="35.04" y2="32.57"/><line class="cls-2" x1="36.78" y1="32.94" x2="36.78" y2="32.94"/><line class="cls-2" x1="38.76" y1="33.01" x2="38.76" y2="33.01"/><line class="cls-2" x1="40.82" y1="32.69" x2="40.82" y2="32.69"/><line class="cls-2" x1="33.7" y1="29.84" x2="33.7" y2="29.84"/><line class="cls-2" x1="35.64" y1="30.28" x2="35.64" y2="30.28"/><line class="cls-2" x1="37.37" y1="30.65" x2="37.37" y2="30.65"/><line class="cls-2" x1="39.36" y1="30.72" x2="39.36" y2="30.72"/><line class="cls-2" x1="41.41" y1="30.4" x2="41.41" y2="30.4"/><line class="cls-2" x1="0.69" y1="38.29" x2="0.69" y2="38.29"/><line class="cls-2" x1="2.75" y1="37.97" x2="2.75" y2="37.97"/><line class="cls-2" x1="0.06" y1="35.82" x2="0.06" y2="35.82"/><line class="cls-2" x1="2.11" y1="35.25" x2="2.11" y2="35.25"/><line class="cls-2" x1="4.57" y1="37.35" x2="4.57" y2="37.35"/><line class="cls-2" x1="6.49" y1="37.23" x2="6.49" y2="37.23"/><line class="cls-2" x1="8.44" y1="37.35" x2="8.44" y2="37.35"/><line class="cls-2" x1="10.38" y1="37.79" x2="10.38" y2="37.79"/><line class="cls-2" x1="12.11" y1="38.16" x2="12.11" y2="38.16"/><line class="cls-2" x1="14.12" y1="38.23" x2="14.12" y2="38.23"/><line class="cls-2" x1="16.18" y1="37.91" x2="16.18" y2="37.91"/><line class="cls-2" x1="17.99" y1="37.29" x2="17.99" y2="37.29"/><line class="cls-2" x1="19.92" y1="37.17" x2="19.92" y2="37.17"/><line class="cls-2" x1="21.87" y1="37.29" x2="21.87" y2="37.29"/><line class="cls-2" x1="12.03" y1="35.67" x2="12.03" y2="35.67"/><line class="cls-2" x1="14.06" y1="35.4" x2="14.06" y2="35.4"/><line class="cls-2" x1="16.11" y1="35.09" x2="16.11" y2="35.09"/><line class="cls-2" x1="17.93" y1="34.47" x2="17.93" y2="34.47"/><line class="cls-2" x1="19.84" y1="34.67" x2="19.84" y2="34.67"/><line class="cls-2" x1="21.78" y1="35.09" x2="21.78" y2="35.09"/><line class="cls-2" x1="23.81" y1="37.74" x2="23.81" y2="37.74"/><line class="cls-2" x1="25.71" y1="38.11" x2="25.71" y2="38.11"/><line class="cls-2" x1="27.69" y1="38.23" x2="27.69" y2="38.23"/><line class="cls-2" x1="29.74" y1="37.91" x2="29.74" y2="37.91"/><line class="cls-2" x1="31.56" y1="37.29" x2="31.56" y2="37.29"/><line class="cls-2" x1="33.49" y1="37.17" x2="33.49" y2="37.17"/><line class="cls-2" x1="35.44" y1="37.29" x2="35.44" y2="37.29"/><line class="cls-2" x1="37.38" y1="37.74" x2="37.38" y2="37.74"/><line class="cls-2" x1="39.11" y1="38.11" x2="39.11" y2="38.11"/><line class="cls-2" x1="32.11" y1="34.67" x2="32.11" y2="34.67"/><line class="cls-2" x1="33.87" y1="34.79" x2="33.87" y2="34.79"/><line class="cls-2" x1="35.82" y1="34.92" x2="35.82" y2="34.92"/><line class="cls-2" x1="37.76" y1="35.36" x2="37.76" y2="35.36"/><line class="cls-2" x1="39.49" y1="35.73" x2="39.49" y2="35.73"/><line class="cls-2" x1="41.1" y1="38.17" x2="41.1" y2="38.17"/><line class="cls-2" x1="0.53" y1="42.95" x2="0.53" y2="42.95"/><line class="cls-2" x1="2.58" y1="42.64" x2="2.58" y2="42.64"/><line class="cls-2" x1="4.4" y1="42.02" x2="4.4" y2="42.02"/><line class="cls-2" x1="6.33" y1="41.89" x2="6.33" y2="41.89"/><line class="cls-2" x1="8.28" y1="42.02" x2="8.28" y2="42.02"/><line class="cls-2" x1="10.22" y1="42.46" x2="10.22" y2="42.46"/><line class="cls-2" x1="2.32" y1="45.26" x2="2.32" y2="45.26"/><line class="cls-2" x1="4.14" y1="44.64" x2="4.14" y2="44.64"/><line class="cls-2" x1="6.06" y1="44.52" x2="6.06" y2="44.52"/><line class="cls-2" x1="8.01" y1="44.64" x2="8.01" y2="44.64"/><line class="cls-2" x1="9.53" y1="44.59" x2="9.53" y2="44.59"/><line class="cls-2" x1="11.95" y1="42.83" x2="11.95" y2="42.83"/><line class="cls-2" x1="13.95" y1="42.9" x2="13.95" y2="42.9"/><line class="cls-2" x1="5.61" y1="39.67" x2="5.61" y2="39.67"/><line class="cls-2" x1="7.54" y1="39.54" x2="7.54" y2="39.54"/><line class="cls-2" x1="9.49" y1="39.67" x2="9.49" y2="39.67"/><line class="cls-2" x1="11.43" y1="40.11" x2="11.43" y2="40.11"/><line class="cls-2" x1="13.16" y1="40.48" x2="13.16" y2="40.48"/><line class="cls-2" x1="16.01" y1="42.58" x2="16.01" y2="42.58"/><line class="cls-2" x1="17.83" y1="41.96" x2="17.83" y2="41.96"/><line class="cls-2" x1="19.75" y1="41.84" x2="19.75" y2="41.84"/><line class="cls-2" x1="21.7" y1="41.96" x2="21.7" y2="41.96"/><line class="cls-2" x1="23.64" y1="42.4" x2="23.64" y2="42.4"/><line class="cls-2" x1="25.54" y1="42.77" x2="25.54" y2="42.77"/><line class="cls-2" x1="27.52" y1="42.9" x2="27.52" y2="42.9"/><line class="cls-2" x1="29.58" y1="42.58" x2="29.58" y2="42.58"/><line class="cls-2" x1="31.4" y1="41.96" x2="31.4" y2="41.96"/><line class="cls-2" x1="33.32" y1="41.84" x2="33.32" y2="41.84"/><line class="cls-2" x1="24.68" y1="39.91" x2="24.68" y2="39.91"/><line class="cls-2" x1="26.58" y1="40.28" x2="26.58" y2="40.28"/><line class="cls-2" x1="28.56" y1="40.4" x2="28.56" y2="40.4"/><line class="cls-2" x1="30.61" y1="40.09" x2="30.61" y2="40.09"/><line class="cls-2" x1="32.43" y1="39.47" x2="32.43" y2="39.47"/><line class="cls-2" x1="35.27" y1="41.96" x2="35.27" y2="41.96"/><line class="cls-2" x1="37.21" y1="42.4" x2="37.21" y2="42.4"/><line class="cls-2" x1="39.45" y1="42.77" x2="39.45" y2="42.77"/><line class="cls-2" x1="41.21" y1="42.84" x2="41.21" y2="42.84"/><line class="cls-2" x1="-0.17" y1="47.83" x2="-0.17" y2="47.83"/><line class="cls-2" x1="1.86" y1="47.95" x2="1.86" y2="47.95"/><line class="cls-2" x1="3.92" y1="47.64" x2="3.92" y2="47.64"/><line class="cls-2" x1="5.74" y1="47.02" x2="5.74" y2="47.02"/><line class="cls-2" x1="7.66" y1="46.89" x2="7.66" y2="46.89"/><line class="cls-2" x1="9.61" y1="47.02" x2="9.61" y2="47.02"/><line class="cls-2" x1="11.55" y1="47.46" x2="11.55" y2="47.46"/><line class="cls-2" x1="13.28" y1="47.83" x2="13.28" y2="47.83"/><line class="cls-2" x1="15.29" y1="47.9" x2="15.29" y2="47.9"/><line class="cls-2" x1="17.34" y1="47.58" x2="17.34" y2="47.58"/><line class="cls-2" x1="19.16" y1="46.96" x2="19.16" y2="46.96"/><line class="cls-2" x1="21.09" y1="46.84" x2="21.09" y2="46.84"/><line class="cls-2" x1="23.04" y1="46.96" x2="23.04" y2="46.96"/><line class="cls-2" x1="24.97" y1="47.4" x2="24.97" y2="47.4"/><line class="cls-2" x1="26.88" y1="47.77" x2="26.88" y2="47.77"/><line class="cls-2" x1="19.28" y1="44.67" x2="19.28" y2="44.67"/><line class="cls-2" x1="21.21" y1="44.54" x2="21.21" y2="44.54"/><line class="cls-2" x1="23.16" y1="44.67" x2="23.16" y2="44.67"/><line class="cls-2" x1="25.09" y1="45.11" x2="25.09" y2="45.11"/><line class="cls-2" x1="27" y1="45.48" x2="27" y2="45.48"/><line class="cls-2" x1="28.86" y1="47.9" x2="28.86" y2="47.9"/><line class="cls-2" x1="30.91" y1="47.58" x2="30.91" y2="47.58"/><line class="cls-2" x1="32.73" y1="46.96" x2="32.73" y2="46.96"/><line class="cls-2" x1="34.66" y1="46.84" x2="34.66" y2="46.84"/><line class="cls-2" x1="36.78" y1="47.04" x2="36.78" y2="47.04"/><line class="cls-2" x1="38.71" y1="47.42" x2="38.71" y2="47.42"/><line class="cls-2" x1="40.64" y1="47.79" x2="40.64" y2="47.79"/><line class="cls-2" x1="39.18" y1="45.03" x2="39.18" y2="45.03"/><line class="cls-2" x1="40.91" y1="45.4" x2="40.91" y2="45.4"/><line class="cls-2" x1="0.83" y1="52.83" x2="0.83" y2="52.83"/><line class="cls-2" x1="2.86" y1="52.95" x2="2.86" y2="52.95"/><line class="cls-2" x1="4.92" y1="52.64" x2="4.92" y2="52.64"/><line class="cls-2" x1="6.74" y1="52.02" x2="6.74" y2="52.02"/><line class="cls-2" x1="8.66" y1="51.89" x2="8.66" y2="51.89"/><line class="cls-2" x1="10.61" y1="52.02" x2="10.61" y2="52.02"/><line class="cls-2" x1="12.55" y1="52.46" x2="12.55" y2="52.46"/><line class="cls-2" x1="14.28" y1="52.83" x2="14.28" y2="52.83"/><line class="cls-2" x1="6.6" y1="49.55" x2="6.6" y2="49.55"/><line class="cls-2" x1="8.53" y1="49.42" x2="8.53" y2="49.42"/><line class="cls-2" x1="10.47" y1="49.55" x2="10.47" y2="49.55"/><line class="cls-2" x1="12.41" y1="49.99" x2="12.41" y2="49.99"/><line class="cls-2" x1="14.14" y1="50.36" x2="14.14" y2="50.36"/><line class="cls-2" x1="16.29" y1="52.9" x2="16.29" y2="52.9"/><line class="cls-2" x1="18.34" y1="52.58" x2="18.34" y2="52.58"/><line class="cls-2" x1="20.16" y1="51.96" x2="20.16" y2="51.96"/><line class="cls-2" x1="22.09" y1="51.84" x2="22.09" y2="51.84"/><line class="cls-2" x1="24.04" y1="51.96" x2="24.04" y2="51.96"/><line class="cls-2" x1="25.97" y1="52.4" x2="25.97" y2="52.4"/><line class="cls-2" x1="27.88" y1="52.77" x2="27.88" y2="52.77"/><line class="cls-2" x1="29.86" y1="52.9" x2="29.86" y2="52.9"/><line class="cls-2" x1="31.91" y1="52.58" x2="31.91" y2="52.58"/><line class="cls-2" x1="33.73" y1="51.96" x2="33.73" y2="51.96"/><line class="cls-2" x1="25.19" y1="49.78" x2="25.19" y2="49.78"/><line class="cls-2" x1="27.09" y1="50.15" x2="27.09" y2="50.15"/><line class="cls-2" x1="29.07" y1="50.27" x2="29.07" y2="50.27"/><line class="cls-2" x1="31.13" y1="49.95" x2="31.13" y2="49.95"/><line class="cls-2" x1="33.11" y1="49.59" x2="33.11" y2="49.59"/><line class="cls-2" x1="35.66" y1="51.84" x2="35.66" y2="51.84"/><line class="cls-2" x1="37.61" y1="51.96" x2="37.61" y2="51.96"/><line class="cls-2" x1="39.54" y1="52.4" x2="39.54" y2="52.4"/><line class="cls-2" x1="41.28" y1="52.77" x2="41.28" y2="52.77"/><line class="cls-2" x1="33.39" y1="54.31" x2="33.39" y2="54.31"/><line class="cls-2" x1="35.31" y1="54.18" x2="35.31" y2="54.18"/><line class="cls-2" x1="37.26" y1="54.31" x2="37.26" y2="54.31"/><rect class="cls-3" x="-11.97" y="16.52" width="54.13" height="54.13"/><rect class="cls-3" width="54.12" height="54.13"/></svg>