<svg id="Layer_1" data-name="Layer 1" xmlns="http://www.w3.org/2000/svg" width="54.19" height="54.19" viewBox="0 0 54.19 54.19"><defs><style>.cls-1,.cls-2{fill:none;}.cls-1{stroke:#000;stroke-width:0.3px;}</style></defs><title>Artboard 37</title><line class="cls-1" x1="19.73" y1="14.31" x2="41.5" y2="-7.44"/><line class="cls-1" x1="11.4" y1="22.63" x2="19.73" y2="14.31"/><line class="cls-1" x1="16.13" y1="14.31" x2="11.4" y2="19.04"/><line class="cls-1" x1="16.13" y1="14.31" x2="37.9" y2="-7.44"/><line class="cls-1" x1="19.54" y1="7.31" x2="11.4" y2="15.44"/><line class="cls-1" x1="19.54" y1="7.31" x2="37.68" y2="-10.81"/><line class="cls-1" x1="11.4" y1="11.85" x2="22.7" y2="0.56"/><line class="cls-1" x1="22.7" y1="0.56" x2="26.7" y2="-3.44"/><line class="cls-1" x1="23.11" y1="-3.44" x2="19.1" y2="0.56"/><line class="cls-1" x1="11.4" y1="8.25" x2="15.43" y2="4.23"/><line class="cls-1" x1="15.43" y1="4.23" x2="19.1" y2="0.56"/><line class="cls-1" x1="23.01" y1="-6.94" x2="11.83" y2="4.23"/><line class="cls-1" x1="11.4" y1="4.66" x2="11.83" y2="4.23"/><line class="cls-1" x1="27.05" y1="-14.56" x2="11.4" y2="1.07"/><line class="cls-1" x1="37.09" y1="0.56" x2="33.71" y2="3.94"/><line class="cls-1" x1="26.58" y1="11.06" x2="14.94" y2="22.69"/><line class="cls-1" x1="26.58" y1="11.06" x2="33.71" y2="3.94"/><line class="cls-1" x1="40.85" y1="-3.19" x2="37.09" y2="0.56"/><line class="cls-1" x1="30.18" y1="11.06" x2="33.93" y2="7.31"/><line class="cls-1" x1="37.31" y1="3.94" x2="33.93" y2="7.31"/><line class="cls-1" x1="30.18" y1="11.06" x2="18.54" y2="22.69"/><line class="cls-1" x1="44.44" y1="-3.19" x2="37.31" y2="3.94"/><line class="cls-1" x1="33.78" y1="11.06" x2="40.91" y2="3.94"/><line class="cls-1" x1="33.78" y1="11.06" x2="25.02" y2="19.81"/><line class="cls-1" x1="48.04" y1="-3.19" x2="40.91" y2="3.94"/><line class="cls-1" x1="22.14" y1="22.69" x2="25.02" y2="19.81"/><line class="cls-1" x1="34.5" y1="13.94" x2="28.62" y2="19.81"/><line class="cls-1" x1="55.9" y1="-7.44" x2="34.5" y2="13.94"/><line class="cls-1" x1="25.74" y1="22.69" x2="28.62" y2="19.81"/><line class="cls-1" x1="59.5" y1="-7.44" x2="51.99" y2="0.06"/><line class="cls-1" x1="29.34" y1="22.69" x2="32.22" y2="19.81"/><line class="cls-1" x1="51.99" y1="0.06" x2="38.1" y2="13.94"/><line class="cls-1" x1="38.1" y1="13.94" x2="32.22" y2="19.81"/><line class="cls-1" x1="41.7" y1="13.94" x2="32.94" y2="22.69"/><line class="cls-1" x1="55.59" y1="0.06" x2="41.7" y2="13.94"/><line class="cls-1" x1="48.43" y1="10.81" x2="55.31" y2="3.94"/><line class="cls-1" x1="48.43" y1="10.81" x2="36.54" y2="22.69"/><line class="cls-1" x1="40.14" y1="22.69" x2="46.4" y2="16.44"/><line class="cls-1" x1="55.66" y1="7.19" x2="46.4" y2="16.44"/><line class="cls-1" x1="65.38" y1="1.07" x2="50" y2="16.44"/><line class="cls-1" x1="43.74" y1="22.69" x2="50" y2="16.44"/><line class="cls-1" x1="59.22" y1="10.81" x2="53.59" y2="16.44"/><line class="cls-1" x1="47.34" y1="22.69" x2="53.59" y2="16.44"/><line class="cls-1" x1="50.94" y1="22.69" x2="53.94" y2="19.69"/><line class="cls-1" x1="62.82" y1="10.81" x2="53.94" y2="19.69"/><line class="cls-1" x1="11.4" y1="4.23" x2="11.83" y2="4.23"/><line class="cls-1" x1="15.43" y1="4.23" x2="16.05" y2="4.23"/><line class="cls-1" x1="11.83" y1="4.23" x2="15.43" y2="4.23"/><line class="cls-1" x1="23.13" y1="0.56" x2="22.7" y2="0.56"/><line class="cls-1" x1="22.7" y1="0.56" x2="19.1" y2="0.56"/><line class="cls-1" x1="19.1" y1="0.56" x2="15.76" y2="0.56"/><line class="cls-1" x1="35.63" y1="0.56" x2="37.09" y2="0.56"/><line class="cls-1" x1="37.09" y1="0.56" x2="39.13" y2="0.56"/><line class="cls-1" x1="51.99" y1="0.06" x2="55.59" y2="0.06"/><line class="cls-1" x1="50.38" y1="0.06" x2="51.99" y2="0.06"/><line class="cls-1" x1="53.13" y1="3.94" x2="55.31" y2="3.94"/><line class="cls-1" x1="40.91" y1="3.94" x2="37.31" y2="3.94"/><line class="cls-1" x1="33.71" y1="3.94" x2="33.63" y2="3.94"/><line class="cls-1" x1="33.71" y1="3.94" x2="37.31" y2="3.94"/><line class="cls-1" x1="40.91" y1="3.94" x2="42.01" y2="3.94"/><line class="cls-1" x1="19.54" y1="7.31" x2="19.13" y2="7.31"/><line class="cls-1" x1="22.26" y1="7.31" x2="19.54" y2="7.31"/><line class="cls-1" x1="33.93" y1="7.31" x2="30.38" y2="7.31"/><line class="cls-1" x1="33.93" y1="7.31" x2="37.01" y2="7.31"/><line class="cls-1" x1="52.63" y1="7.19" x2="55.66" y2="7.19"/><line class="cls-1" x1="23.51" y1="11.06" x2="25.63" y2="11.06"/><line class="cls-1" x1="33.78" y1="11.06" x2="34.38" y2="11.06"/><line class="cls-1" x1="33.78" y1="11.06" x2="33.38" y2="11.06"/><line class="cls-1" x1="25.63" y1="11.06" x2="26.58" y2="11.06"/><line class="cls-1" x1="30.18" y1="11.06" x2="33.38" y2="11.06"/><line class="cls-1" x1="26.58" y1="11.06" x2="30.18" y2="11.06"/><line class="cls-1" x1="45.88" y1="10.81" x2="48.43" y2="10.81"/><line class="cls-1" x1="48.43" y1="10.81" x2="50.26" y2="10.81"/><line class="cls-1" x1="53.59" y1="16.44" x2="50" y2="16.44"/><line class="cls-1" x1="53.59" y1="16.44" x2="54.51" y2="16.44"/><line class="cls-1" x1="46.4" y1="16.44" x2="50" y2="16.44"/><line class="cls-1" x1="46.4" y1="16.44" x2="45.88" y2="16.44"/><line class="cls-1" x1="38.1" y1="13.94" x2="41.7" y2="13.94"/><line class="cls-1" x1="41.7" y1="13.94" x2="42.51" y2="13.94"/><line class="cls-1" x1="34.5" y1="13.94" x2="32.63" y2="13.94"/><line class="cls-1" x1="38.1" y1="13.94" x2="34.5" y2="13.94"/><line class="cls-1" x1="16.13" y1="14.31" x2="13.88" y2="14.31"/><line class="cls-1" x1="19.73" y1="14.31" x2="16.13" y2="14.31"/><line class="cls-1" x1="22.38" y1="14.31" x2="19.73" y2="14.31"/><line class="cls-1" x1="25.02" y1="19.81" x2="25.01" y2="19.81"/><line class="cls-1" x1="25.02" y1="19.81" x2="28.62" y2="19.81"/><line class="cls-1" x1="32.22" y1="19.81" x2="33.13" y2="19.81"/><line class="cls-1" x1="32.22" y1="19.81" x2="28.62" y2="19.81"/><line class="cls-1" x1="53.94" y1="19.69" x2="53.63" y2="19.69"/><line class="cls-1" x1="57.54" y1="19.69" x2="53.94" y2="19.69"/><path d="M47.38.81l-1.25-2S45-.31,44.26-1.31a3,3,0,0,0-1.88-1.13l-.25,1.38-1.62.5a2.23,2.23,0,0,0,1.37.62c.75,0,.88,1.13.88,1.13S45.26-.69,47.38.81Z"/><path d="M30.38,1.19s2,1,2.63-1.63c1.37-1,1.12-1.5.5-1.75a3.26,3.26,0,0,1-1.13-.87s.38.75-.62.75-2,.12-1.38.87A1.1,1.1,0,0,1,30.26.19C30,.31,30.38,1.19,30.38,1.19Z"/><path d="M23.4,4.48a7.11,7.11,0,0,1,1,1.5c.63-.38,2.13.75,2.13.75-.5-1.88.62-1.38.62-1.38s0-2.62-.5-1.62S23.4,4.48,23.4,4.48Z"/><path d="M13.13,8.94s3.25,1,4,2a8.34,8.34,0,0,1,2.25-1s-.12-.38-.87-.63-1.38-.62-.75-2a2.7,2.7,0,0,1-2.25-.75l-1-.12S15.26,7.44,13.13,8.94Z"/><path d="M14.26,18.56l1.12,1.75a7.83,7.83,0,0,1,4.5-.12,5.78,5.78,0,0,1,1-1,1.41,1.41,0,0,1-1.37-.63,3.32,3.32,0,0,1-3.5-.87Z"/><path d="M24.38,15.56c1.13.88,2.5,3,3,2.25a5,5,0,0,1,2.5-1.5c.38,0-.62-1.12-.5-1.5s-1.75,0-2.12-.62S26.88,15.44,24.38,15.56Z"/><path d="M37.51,17.56s1.5,1.5,1.5,1.88,4.87-.75,4.87-.75l-2.75-2.75A4.08,4.08,0,0,1,37.51,17.56Z"/><path d="M37.38,9.31a7.88,7.88,0,0,1,4,2.88c.38.5.63-1.63,1.88-2.25-1.25-.5-1.38-.75-1.38-1.75s-1,1.25-2,0C39.51,9.06,36.29,9,37.38,9.31Z"/><path d="M45.86,6.06A3.69,3.69,0,0,0,45,5.94a6.94,6.94,0,0,0,.85.12"/><path d="M45.86,6.06A1.5,1.5,0,0,1,47,8.19l3.12-.75,1.5-2.63-1.87-.5a3.76,3.76,0,0,1-3.9,1.75"/><path d="M51.26,12.19l1.12,1s1.38-.75,1.75.5l2.13-.63s-.75-.62,0-2.12l-1.5.37-2.38-.12Z"/><path d="M46.57,22.69l.31-.75,1.5-.67a1.75,1.75,0,0,0,1.21,1.42Z"/><rect class="cls-2" x="11.4" y="-31.29" width="53.98" height="53.98"/><line class="cls-1" x1="41.5" y1="46.54" x2="45.25" y2="42.79"/><line class="cls-1" x1="19.73" y1="68.29" x2="41.5" y2="46.54"/><line class="cls-1" x1="48.76" y1="39.29" x2="45.25" y2="42.79"/><line class="cls-1" x1="48.76" y1="39.29" x2="56.37" y2="31.69"/><line class="cls-1" x1="48.79" y1="35.67" x2="45.16" y2="39.29"/><line class="cls-1" x1="48.79" y1="35.67" x2="60.59" y2="23.87"/><line class="cls-1" x1="16.13" y1="68.29" x2="37.9" y2="46.54"/><line class="cls-1" x1="45.16" y1="39.29" x2="37.9" y2="46.54"/><line class="cls-1" x1="45.19" y1="35.67" x2="53.2" y2="27.67"/><line class="cls-1" x1="45.19" y1="35.67" x2="37.68" y2="43.17"/><line class="cls-1" x1="53.2" y1="27.67" x2="58.18" y2="22.69"/><line class="cls-1" x1="19.54" y1="61.29" x2="37.68" y2="43.17"/><line class="cls-1" x1="22.7" y1="54.54" x2="26.7" y2="50.54"/><line class="cls-1" x1="49.6" y1="27.67" x2="54.58" y2="22.69"/><line class="cls-1" x1="34.09" y1="43.17" x2="45.72" y2="31.54"/><line class="cls-1" x1="45.72" y1="31.54" x2="49.6" y2="27.67"/><line class="cls-1" x1="34.09" y1="43.17" x2="26.7" y2="50.54"/><line class="cls-1" x1="26.61" y1="47.04" x2="23.11" y2="50.54"/><line class="cls-1" x1="42.13" y1="31.54" x2="26.61" y2="47.04"/><line class="cls-1" x1="23.11" y1="50.54" x2="19.1" y2="54.54"/><line class="cls-1" x1="50.99" y1="22.69" x2="46" y2="27.67"/><line class="cls-1" x1="42.13" y1="31.54" x2="46" y2="27.67"/><line class="cls-1" x1="23.01" y1="47.04" x2="11.83" y2="58.21"/><line class="cls-1" x1="23.01" y1="47.04" x2="30.64" y2="39.42"/><line class="cls-1" x1="38.53" y1="31.54" x2="47.39" y2="22.69"/><line class="cls-1" x1="30.64" y1="39.42" x2="38.53" y2="31.54"/><line class="cls-1" x1="27.05" y1="39.42" x2="39.06" y2="27.42"/><line class="cls-1" x1="27.05" y1="39.42" x2="11.4" y2="55.04"/><line class="cls-1" x1="39.06" y1="27.42" x2="43.79" y2="22.69"/><line class="cls-1" x1="31" y1="31.87" x2="40.19" y2="22.69"/><line class="cls-1" x1="31" y1="31.87" x2="11.4" y2="51.45"/><line class="cls-1" x1="15.97" y1="43.29" x2="11.4" y2="47.85"/><line class="cls-1" x1="15.97" y1="43.29" x2="27.4" y2="31.87"/><line class="cls-1" x1="27.4" y1="31.87" x2="35.58" y2="23.71"/><line class="cls-1" x1="35.58" y1="23.71" x2="36.6" y2="22.69"/><line class="cls-1" x1="31.98" y1="23.71" x2="33" y2="22.69"/><line class="cls-1" x1="11.4" y1="44.26" x2="19.13" y2="36.54"/><line class="cls-1" x1="19.13" y1="36.54" x2="31.98" y2="23.71"/><line class="cls-1" x1="24.25" y1="27.83" x2="28.38" y2="23.71"/><line class="cls-1" x1="11.4" y1="40.67" x2="15.53" y2="36.54"/><line class="cls-1" x1="28.38" y1="23.71" x2="29.4" y2="22.69"/><line class="cls-1" x1="24.25" y1="27.83" x2="15.53" y2="36.54"/><line class="cls-1" x1="15.94" y1="32.54" x2="25.8" y2="22.69"/><line class="cls-1" x1="11.4" y1="37.07" x2="15.94" y2="32.54"/><line class="cls-1" x1="12.34" y1="32.54" x2="22.21" y2="22.69"/><line class="cls-1" x1="11.4" y1="33.48" x2="12.34" y2="32.54"/><line class="cls-1" x1="18.61" y1="22.69" x2="11.4" y2="29.89"/><line class="cls-1" x1="11.4" y1="26.29" x2="15.01" y2="22.69"/><line class="cls-1" x1="52.36" y1="39.29" x2="40.85" y2="50.79"/><line class="cls-1" x1="40.85" y1="50.79" x2="37.09" y2="54.54"/><line class="cls-1" x1="52.36" y1="39.29" x2="65.38" y2="26.28"/><line class="cls-1" x1="44.44" y1="50.79" x2="59.58" y2="35.67"/><line class="cls-1" x1="44.44" y1="50.79" x2="37.31" y2="57.92"/><line class="cls-1" x1="48.04" y1="50.79" x2="55.8" y2="43.04"/><line class="cls-1" x1="48.04" y1="50.79" x2="40.91" y2="57.92"/><line class="cls-1" x1="55.9" y1="46.54" x2="34.5" y2="67.92"/><line class="cls-1" x1="59.5" y1="46.54" x2="51.99" y2="54.04"/><line class="cls-1" x1="51.99" y1="54.04" x2="38.1" y2="67.92"/><line class="cls-1" x1="55.59" y1="54.04" x2="41.7" y2="67.92"/><line class="cls-1" x1="19.13" y1="36.54" x2="15.53" y2="36.54"/><line class="cls-1" x1="22.63" y1="36.54" x2="19.13" y2="36.54"/><line class="cls-1" x1="15.53" y1="36.54" x2="14.88" y2="36.54"/><line class="cls-1" x1="34.09" y1="43.17" x2="30.51" y2="43.17"/><line class="cls-1" x1="37.68" y1="43.17" x2="34.09" y2="43.17"/><line class="cls-1" x1="37.68" y1="43.17" x2="38.26" y2="43.17"/><line class="cls-1" x1="40.85" y1="50.79" x2="44.44" y2="50.79"/><line class="cls-1" x1="48.04" y1="50.79" x2="48.26" y2="50.79"/><line class="cls-1" x1="44.44" y1="50.79" x2="48.04" y2="50.79"/><line class="cls-1" x1="40.51" y1="50.79" x2="40.85" y2="50.79"/><line class="cls-1" x1="23.01" y1="47.04" x2="26.61" y2="47.04"/><line class="cls-1" x1="26.61" y1="47.04" x2="27.26" y2="47.04"/><line class="cls-1" x1="23.01" y1="47.04" x2="19.51" y2="47.04"/><line class="cls-1" x1="27.05" y1="39.42" x2="25.01" y2="39.42"/><line class="cls-1" x1="33.38" y1="39.42" x2="30.64" y2="39.42"/><line class="cls-1" x1="30.64" y1="39.42" x2="27.05" y2="39.42"/><line class="cls-1" x1="45.19" y1="35.67" x2="43.51" y2="35.67"/><line class="cls-1" x1="50.88" y1="35.67" x2="48.79" y2="35.67"/><line class="cls-1" x1="48.79" y1="35.67" x2="45.19" y2="35.67"/><line class="cls-1" x1="31" y1="31.87" x2="27.4" y2="31.87"/><line class="cls-1" x1="27.4" y1="31.87" x2="24.05" y2="31.87"/><line class="cls-1" x1="31.42" y1="31.87" x2="31" y2="31.87"/><line class="cls-1" x1="44.38" y1="39.29" x2="45.16" y2="39.29"/><line class="cls-1" x1="52.36" y1="39.29" x2="48.76" y2="39.29"/><line class="cls-1" x1="48.76" y1="39.29" x2="45.16" y2="39.29"/><line class="cls-1" x1="53.51" y1="39.29" x2="52.36" y2="39.29"/><line class="cls-1" x1="15.97" y1="43.29" x2="13.01" y2="43.29"/><line class="cls-1" x1="18.01" y1="43.29" x2="15.97" y2="43.29"/><line class="cls-1" x1="45.25" y1="42.79" x2="43.38" y2="42.79"/><line class="cls-1" x1="45.25" y1="42.79" x2="47.38" y2="42.79"/><line class="cls-1" x1="55.8" y1="43.04" x2="53.76" y2="43.04"/><line class="cls-1" x1="41.5" y1="46.54" x2="43.76" y2="46.54"/><line class="cls-1" x1="37.9" y1="46.54" x2="35.88" y2="46.54"/><line class="cls-1" x1="41.5" y1="46.54" x2="37.9" y2="46.54"/><line class="cls-1" x1="21.88" y1="50.54" x2="23.11" y2="50.54"/><line class="cls-1" x1="26.7" y1="50.54" x2="23.11" y2="50.54"/><line class="cls-1" x1="26.7" y1="50.54" x2="28.26" y2="50.54"/><line class="cls-1" x1="24.25" y1="27.83" x2="21.42" y2="27.83"/><line class="cls-1" x1="27.8" y1="27.83" x2="24.25" y2="27.83"/><line class="cls-1" x1="51.99" y1="54.04" x2="55.59" y2="54.04"/><line class="cls-1" x1="50.38" y1="54.04" x2="51.99" y2="54.04"/><line class="cls-1" x1="11.4" y1="32.54" x2="12.34" y2="32.54"/><line class="cls-1" x1="12.34" y1="32.54" x2="15.94" y2="32.54"/><line class="cls-1" x1="17.09" y1="32.54" x2="15.94" y2="32.54"/><line class="cls-1" x1="39.06" y1="27.42" x2="41.51" y2="27.42"/><line class="cls-1" x1="38.13" y1="27.42" x2="39.06" y2="27.42"/><line class="cls-1" x1="53.2" y1="27.67" x2="49.6" y2="27.67"/><line class="cls-1" x1="46" y1="27.67" x2="49.6" y2="27.67"/><line class="cls-1" x1="46" y1="27.67" x2="44.55" y2="27.67"/><line class="cls-1" x1="55.42" y1="27.67" x2="53.2" y2="27.67"/><line class="cls-1" x1="28.38" y1="23.71" x2="27.26" y2="23.71"/><line class="cls-1" x1="35.58" y1="23.71" x2="31.98" y2="23.71"/><line class="cls-1" x1="38.13" y1="23.71" x2="35.58" y2="23.71"/><line class="cls-1" x1="28.38" y1="23.71" x2="31.98" y2="23.71"/><line class="cls-1" x1="38.53" y1="31.54" x2="37.42" y2="31.54"/><line class="cls-1" x1="38.53" y1="31.54" x2="42.13" y2="31.54"/><line class="cls-1" x1="45.72" y1="31.54" x2="42.13" y2="31.54"/><line class="cls-1" x1="45.72" y1="31.54" x2="46.05" y2="31.54"/><path d="M21.32,43.29l2.25-1-.25-1-.75-.12-.88-.88.63-.87-1.75-1.5-4.25.87,1.12,2s0,.13,1.13-.37,1.12,1.5,1.12,1.5l1-.13Z"/><path d="M36.13,37.54c2.75,1,1.13,2.38,1.13,2.38l.5.5c.62,0,1.25,2,1.25,2l1.62-.88-.25-.62,1.5-1.5-.62-.5.62-.63-3.75-1.5Z"/><path d="M33.71,46.08a1.9,1.9,0,0,0,.42,0,2.85,2.85,0,0,0-.42,0"/><path d="M33.71,46.08a2.92,2.92,0,0,1-2.45-1,4.31,4.31,0,0,1-3.38,1L32,47.42a2.9,2.9,0,0,1,1.7-1.34"/><path d="M47.88,47l1.38-1.5a9.35,9.35,0,0,1,1.87.38c.63.25,1.5.25.75-.13a1.39,1.39,0,0,1-.62-1.37C50.13,44.67,49,44,49.13,43A3.41,3.41,0,0,1,48,44.29L45.38,45Z"/><path d="M52.38,51.29a9.4,9.4,0,0,0,4.75,1.63L59,52.79l-1.75-.62v-.63l-1.5-1.62A3.53,3.53,0,0,1,52.38,51.29Z"/><path d="M47.38,54.79l-1.25-2s-1.12.88-1.87-.12a3,3,0,0,0-1.88-1.13l-.25,1.38-1.62.5a2.23,2.23,0,0,0,1.37.62c.75,0,.88,1.13.88,1.13S45.26,53.29,47.38,54.79Z"/><path d="M30.38,55.17s2,1,2.63-1.63c1.37-1,1.12-1.5.5-1.75a3.26,3.26,0,0,1-1.13-.87s.38.75-.62.75-2,.12-1.38.87a1.1,1.1,0,0,1-.12,1.63C30,54.29,30.38,55.17,30.38,55.17Z"/><path d="M15.26,51.29s1.25.5,1.5,1.13-.13-.25,1.12-.5a3.46,3.46,0,0,0,1.88-1l-1-1.13-1.5-.62Z"/><path d="M53.21,32.83l-.66-1.5s-.34,1.17-1.17.34-1.83-2-1.83-2l-.84.83-1,1.17,1.34,1.16Z"/><path d="M46.56,22.69l-.51,1.23,2.33.5,1.83-1.67a2.23,2.23,0,0,1-.54-.06Z"/><path d="M33.73,28.35,36.23,27l-2.16-2L31.9,27.35l-1.33-.66-1,2.33a1.37,1.37,0,0,0,1.83.67,1.9,1.9,0,0,1,2.17.83Z"/><path d="M20.67,29l-2-3.5-3.83.5,1.83,2.83s0-.66,1-.83S20.67,29,20.67,29Z"/><polygon points="28.38 33.91 26.88 35.16 28.88 35.41 30.88 36.66 32.88 35.41 30.88 35.16 28.38 33.91"/><polygon points="11.4 46.24 12.69 45.41 11.4 44.84 11.4 46.24"/><rect class="cls-2" x="11.4" y="22.69" width="53.98" height="53.98"/><line class="cls-1" x1="1.92" y1="-7.44" x2="-19.48" y2="13.94"/><line class="cls-1" x1="5.52" y1="-7.44" x2="-1.99" y2="0.06"/><line class="cls-1" x1="1.61" y1="0.06" x2="5.11" y2="-3.44"/><line class="cls-1" x1="1.61" y1="0.06" x2="-12.28" y2="13.94"/><line class="cls-1" x1="-5.55" y1="10.81" x2="1.33" y2="3.94"/><line class="cls-1" x1="8.71" y1="-3.44" x2="1.33" y2="3.94"/><line class="cls-1" x1="11.4" y1="-2.53" x2="1.68" y2="7.19"/><line class="cls-1" x1="1.68" y1="7.19" x2="-7.58" y2="16.44"/><line class="cls-1" x1="11.4" y1="1.07" x2="-3.98" y2="16.44"/><line class="cls-1" x1="5.25" y1="10.81" x2="-0.38" y2="16.44"/><line class="cls-1" x1="11.4" y1="4.66" x2="5.25" y2="10.81"/><line class="cls-1" x1="8.85" y1="10.81" x2="11.4" y2="8.26"/><line class="cls-1" x1="-3.04" y1="22.69" x2="-0.04" y2="19.69"/><line class="cls-1" x1="8.85" y1="10.81" x2="-0.04" y2="19.69"/><line class="cls-1" x1="11.4" y1="11.86" x2="3.56" y2="19.69"/><line class="cls-1" x1="3.56" y1="19.69" x2="0.56" y2="22.69"/><line class="cls-1" x1="11.4" y1="15.45" x2="4.16" y2="22.69"/><line class="cls-1" x1="11.4" y1="19.05" x2="7.76" y2="22.69"/><line class="cls-1" x1="-1.99" y1="0.06" x2="1.61" y2="0.06"/><line class="cls-1" x1="1.61" y1="0.06" x2="3.4" y2="0.06"/><line class="cls-1" x1="1.33" y1="3.94" x2="2.28" y2="3.94"/><line class="cls-1" x1="-0.85" y1="3.94" x2="1.33" y2="3.94"/><line class="cls-1" x1="1.68" y1="7.19" x2="2.03" y2="7.19"/><line class="cls-1" x1="-1.35" y1="7.19" x2="1.68" y2="7.19"/><line class="cls-1" x1="8.85" y1="10.81" x2="5.25" y2="10.81"/><line class="cls-1" x1="4.78" y1="10.81" x2="5.25" y2="10.81"/><line class="cls-1" x1="9.28" y1="10.81" x2="8.85" y2="10.81"/><line class="cls-1" x1="-0.38" y1="16.44" x2="0.53" y2="16.44"/><line class="cls-1" x1="6.03" y1="19.69" x2="3.56" y2="19.69"/><line class="cls-1" x1="3.56" y1="19.69" x2="-0.04" y2="19.69"/><line class="cls-1" x1="11.4" y1="4.23" x2="8.3" y2="4.23"/><path d="M-2.72,12.19l1.12,1s1.38-.75,1.75.5l2.13-.63s-.75-.62,0-2.12l-1.5.37-2.38-.12Z"/><path d="M4.15,4.94,5.9,6.81l1.63-1,2.75-.5L7.15,4.44S6.4,2.19,6.4,3.19,4.15,4.94,4.15,4.94Z"/><path d="M4.78,16.19S7,18.06,8.28,18.94c.25-.75,1.75-2.13,1.25-2.13s-.75-.87-.38-1.87C8.65,15.94,4.78,16.19,4.78,16.19Z"/><rect class="cls-2" x="-42.57" y="-31.29" width="53.98" height="53.98"/><line class="cls-1" x1="10.21" y1="23.87" x2="11.4" y2="22.69"/><line class="cls-1" x1="2.39" y1="31.69" x2="10.21" y2="23.87"/><line class="cls-1" x1="-5.22" y1="39.29" x2="2.39" y2="31.69"/><line class="cls-1" x1="6.61" y1="23.87" x2="7.8" y2="22.69"/><line class="cls-1" x1="-5.19" y1="35.67" x2="6.61" y2="23.87"/><line class="cls-1" x1="-0.78" y1="27.67" x2="4.2" y2="22.69"/><line class="cls-1" x1="-4.38" y1="27.67" x2="0.61" y2="22.69"/><line class="cls-1" x1="-1.62" y1="39.29" x2="11.4" y2="26.28"/><line class="cls-1" x1="11.4" y1="29.88" x2="8.74" y2="32.54"/><line class="cls-1" x1="-9.53" y1="50.79" x2="5.61" y2="35.67"/><line class="cls-1" x1="5.61" y1="35.67" x2="8.74" y2="32.54"/><line class="cls-1" x1="-5.93" y1="50.79" x2="1.82" y2="43.04"/><line class="cls-1" x1="11.4" y1="33.47" x2="9.21" y2="35.67"/><line class="cls-1" x1="1.82" y1="43.04" x2="9.21" y2="35.67"/><line class="cls-1" x1="1.92" y1="46.54" x2="-19.48" y2="67.92"/><line class="cls-1" x1="1.92" y1="46.54" x2="5.42" y2="43.04"/><line class="cls-1" x1="5.42" y1="43.04" x2="11.4" y2="37.07"/><line class="cls-1" x1="5.52" y1="46.54" x2="11.4" y2="40.66"/><line class="cls-1" x1="5.52" y1="46.54" x2="-1.99" y2="54.04"/><line class="cls-1" x1="1.61" y1="54.04" x2="5.11" y2="50.54"/><line class="cls-1" x1="11.4" y1="44.26" x2="5.11" y2="50.54"/><line class="cls-1" x1="1.61" y1="54.04" x2="-12.28" y2="67.92"/><line class="cls-1" x1="8.71" y1="50.54" x2="11.4" y2="47.85"/><line class="cls-1" x1="8.71" y1="50.54" x2="1.33" y2="57.92"/><line class="cls-1" x1="11.4" y1="51.45" x2="1.68" y2="61.17"/><line class="cls-1" x1="5.61" y1="35.67" x2="9.21" y2="35.67"/><line class="cls-1" x1="2.65" y1="35.67" x2="5.61" y2="35.67"/><line class="cls-1" x1="9.21" y1="35.67" x2="9.53" y2="35.67"/><line class="cls-1" x1="4.61" y1="31.69" x2="2.39" y2="31.69"/><line class="cls-1" x1="2.39" y1="31.69" x2="0.61" y2="31.69"/><line class="cls-1" x1="10.36" y1="23.87" x2="10.21" y2="23.87"/><line class="cls-1" x1="6.36" y1="23.87" x2="6.61" y2="23.87"/><line class="cls-1" x1="10.21" y1="23.87" x2="6.61" y2="23.87"/><line class="cls-1" x1="5.42" y1="43.04" x2="8.28" y2="43.04"/><line class="cls-1" x1="1.82" y1="43.04" x2="-0.22" y2="43.04"/><line class="cls-1" x1="1.82" y1="43.04" x2="5.42" y2="43.04"/><line class="cls-1" x1="5.52" y1="46.54" x2="7.28" y2="46.54"/><line class="cls-1" x1="1.92" y1="46.54" x2="0.4" y2="46.54"/><line class="cls-1" x1="1.92" y1="46.54" x2="5.52" y2="46.54"/><line class="cls-1" x1="5.11" y1="50.54" x2="8.71" y2="50.54"/><line class="cls-1" x1="5.11" y1="50.54" x2="4.9" y2="50.54"/><line class="cls-1" x1="8.71" y1="50.54" x2="10.78" y2="50.54"/><line class="cls-1" x1="-1.99" y1="54.04" x2="1.61" y2="54.04"/><line class="cls-1" x1="1.61" y1="54.04" x2="3.4" y2="54.04"/><line class="cls-1" x1="1.44" y1="27.67" x2="-0.78" y2="27.67"/><line class="cls-1" x1="8.74" y1="32.54" x2="11.4" y2="32.54"/><line class="cls-1" x1="8.74" y1="32.54" x2="8.71" y2="32.54"/><path d="M1.28,39.44,6.9,40.56c-.37-.75-.5-.87-.25-1.5a.88.88,0,0,1,.75-.62s-.5-1-1.37-.88-1.25.13-1.63-.75-1.12-.12-1,.63S2.78,38.69,1.28,39.44Z"/><path d="M-1.6,51.29a9.4,9.4,0,0,0,4.75,1.63L5,52.79l-1.75-.62v-.63l-1.5-1.62A3.53,3.53,0,0,1-1.6,51.29Z"/><path d="M7.74,29.54l-1-.83s1-1,0-1.67a8.37,8.37,0,0,1-1.67-1.5l-1,.67-1.67-.5-.16,2.16,1,.34-.5,1.16,3,1.17Z"/><polygon points="11.4 44.84 10.44 44.41 8.69 44.91 9.94 47.16 11.4 46.24 11.4 44.84"/><rect class="cls-2" x="-42.57" y="22.69" width="53.98" height="53.98"/><rect class="cls-2" width="54.19" height="54.19"/></svg>