<svg id="Layer_1" data-name="Layer 1" xmlns="http://www.w3.org/2000/svg" width="54.34" height="54.13" viewBox="0 0 54.34 54.13"><defs><style>.cls-1{fill:#231f20;}.cls-2{fill:#fff;}</style></defs><title>Artboard 37</title><rect class="cls-1" x="-35.57" y="-41.87" width="108.25" height="108.25"/><path class="cls-2" d="M42.79,4.1c5.13.25,3,.07,3.73.45a7.39,7.39,0,0,0,5.37-.75c1.75-1.13,1.25-1.5-1.5-1.63S49.17,2,47.17,2a23.6,23.6,0,0,1-3.5-.25C38,2.1,37.67,3.85,42.79,4.1Z"/><path class="cls-2" d="M18.56,3.4c1.73,0,3.23,0,3.23,0,4.38.25,4.5-.5,5.25-.63s1.63-1-1.62-1H18.56Z"/><path class="cls-2" d="M23.79,8.6c1.88-.13,5.5.5,8.75.87s2.38.13,4.25-.37-.5-1.63-1.5-1.38A3.15,3.15,0,0,1,33.42,8c-2.25-.12-7.75-1.37-10.13-1.12S21.92,8.72,23.79,8.6Z"/><path class="cls-2" d="M59.79,10.6c4.38.37,6.13.25,8.25-.75S67,5.26,62.23,6.13a32.71,32.71,0,0,1-5.5-.25c-2.13-.37-2.81,2.84-4.19,3.47S55.42,10.22,59.79,10.6Z"/><polyline class="cls-1" points="57.78 5.86 53.75 9.99 53.97 10.2 58 6.07"/><polyline class="cls-1" points="18.67 2.94 19.72 1.86 19.51 1.65 18.45 2.73"/><polyline class="cls-1" points="21.86 1.63 20.23 3.31 20.44 3.52 22.08 1.84"/><polyline class="cls-1" points="24.22 1.61 22.52 3.35 22.74 3.56 24.43 1.82"/><polyline class="cls-1" points="26.52 1.65 25 3.2 25.22 3.41 26.73 1.86"/><polyline class="cls-1" points="25 6.7 23.18 8.56 23.39 8.77 25.21 6.91"/><polyline class="cls-1" points="27.08 6.96 25.53 8.55 25.75 8.76 27.29 7.17"/><polyline class="cls-1" points="29.18 7.2 27.61 8.81 27.82 9.02 29.4 7.41"/><polyline class="cls-1" points="31.17 7.56 29.75 9.02 29.96 9.22 31.39 7.77"/><polyline class="cls-1" points="33.16 7.92 31.8 9.31 32.01 9.52 33.37 8.13"/><polyline class="cls-1" points="35.82 7.58 33.97 9.48 34.18 9.69 36.03 7.79"/><polyline class="cls-1" points="42.13 1.76 40.24 3.69 40.46 3.9 42.34 1.97"/><polyline class="cls-1" points="44.48 1.74 42.29 3.99 42.5 4.2 44.7 1.95"/><polyline class="cls-1" points="46.62 1.95 44.58 4.04 44.8 4.25 46.84 2.16"/><polyline class="cls-1" points="48.95 1.96 46.54 4.43 46.75 4.64 49.16 2.17"/><polyline class="cls-1" points="51.12 2.13 48.71 4.6 48.92 4.81 51.33 2.34"/><path class="cls-2" d="M21.83,28.49c-3.37.63-.37,2.5,1.5,2.38a9.83,9.83,0,0,1,4.13.37,22.52,22.52,0,0,0,7,1.13c2.5-.13,3.5-.13,7.5-.25,6.75-.88.36-3-2.13-2.75a12.77,12.77,0,0,1-7.12-1.25C30.46,27,25.21,27.87,21.83,28.49Z"/><path class="cls-2" d="M68.67,30.85c2.25-.75,1.12-2-3.75-2a20.81,20.81,0,0,1-4.25-.63c-1.5-.5-4-.12-7.38.63s-1.5,1.75,0,1.87a38.45,38.45,0,0,1,6.13.75A17.62,17.62,0,0,0,68.67,30.85Z"/><path class="cls-2" d="M39.08,40c2.13,0,4.5.37,9.5,1.5s12.5-1,15.13-2,1.75-1.25.75-1.88-1.75-.62-5.63-.25A40.58,40.58,0,0,1,53.46,37c-2.25-.38-6.5.12-10.13.37a25.92,25.92,0,0,0-6.62.88C32.71,39.07,37,40,39.08,40Z"/><path class="cls-2" d="M69.29,51.47c4.25-.87.5-2.25-4.25-2.25a16.68,16.68,0,0,1-3.25-.37c-1.62-.38-8-.88-9.87-.25s-5.38.62-7.25.75-.88,1.5.62,1.5,4,.62,6.5.25a9.5,9.5,0,0,1,6.13.87C60.29,53,65,52.35,69.29,51.47Z"/><path class="cls-2" d="M36.42,15.64a16.19,16.19,0,0,1-3.25-.38,40.07,40.07,0,0,0-5.09.88c-1.66.5-.16,2.16,1.21,2.25,2.38,1,7.13.37,11.38-.5S41.17,15.64,36.42,15.64Z"/><path class="cls-2" d="M19.92,47.1a16.35,16.35,0,0,0,6.12.12c2-.37,1.13.63.63,1s0,1.13,2,1a23.51,23.51,0,0,1,4.12,0c1.63.13,1.75-.37,1.25-1s1.13-.75,2.5-.37,2.13-.13,3.63-1-1.5-1.63-5.38-1.63A21.68,21.68,0,0,1,30.42,45c-2.25-.37-6.88,0-9.63.38S18.67,46.72,19.92,47.1Z"/><path class="cls-2" d="M50.54,22.1a23.6,23.6,0,0,1-3.5.25c-2,0-5.25.37-8,.5s-3.25.5-1.5,1.62a7.32,7.32,0,0,0,5.38.75c.75-.37,3.37-.5,8.5-.75S56.17,22.47,50.54,22.1Z"/><path class="cls-2" d="M18.56,39.27c1.45-.14,3.35-.25,5.61-.42,3.25-.25,2-.75.37-1.13a20.78,20.78,0,0,0-5.75-.87l-.23,0Z"/><path class="cls-2" d="M18.56,23.12c1.21-.29,1.38-1.87,4-2.13,3.33-.33,1.5-2.33-.67-2.33-.7,0-1.9-.07-3.31-.19Z"/><polyline class="cls-1" points="18.96 18.41 18.45 18.94 18.67 19.15 19.18 18.62"/><polyline class="cls-1" points="21.16 18.55 18.45 21.33 18.67 21.54 21.38 18.76"/><polyline class="cls-1" points="20.86 21.69 23.43 19.06 23.21 18.85 20.65 21.48"/><polyline class="cls-1" points="20.43 36.88 18.45 38.9 18.67 39.11 20.64 37.09"/><polyline class="cls-1" points="22.54 37.11 20.65 39.04 20.87 39.25 22.75 37.32"/><polyline class="cls-1" points="24.37 37.63 23.25 38.77 23.47 38.98 24.58 37.84"/><polyline class="cls-1" points="21.28 45.17 19.52 46.97 19.73 47.18 21.5 45.38"/><polyline class="cls-1" points="21.78 47.48 24.1 45.11 23.88 44.9 21.57 47.27"/><polyline class="cls-1" points="23.98 47.62 26.55 44.99 26.33 44.78 23.77 47.41"/><polyline class="cls-1" points="28.75 44.7 26.5 47.01 26.71 47.22 28.96 44.91"/><polyline class="cls-1" points="27.15 49.16 31.1 45.11 30.89 44.9 26.94 48.95"/><polyline class="cls-1" points="29.29 49.37 33.18 45.38 32.97 45.17 29.08 49.16"/><polyline class="cls-1" points="35.32 45.15 31.47 49.1 31.68 49.31 35.54 45.36"/><polyline class="cls-1" points="35.46 47.84 37.77 45.47 37.56 45.26 35.24 47.63"/><polyline class="cls-1" points="39.57 45.59 37.26 47.96 37.47 48.17 39.79 45.8"/><polyline class="cls-1" points="45.18 50.95 46.7 49.39 46.48 49.18 44.96 50.75"/><polyline class="cls-1" points="47.35 51.13 49.36 49.06 49.15 48.85 47.13 50.92"/><polyline class="cls-1" points="49.39 51.42 52.15 48.6 51.94 48.39 49.18 51.21"/><polyline class="cls-1" points="54.6 48.05 51.72 51 51.94 51.21 54.81 48.26"/><polyline class="cls-1" points="54.44 51.05 57.03 48.39 56.81 48.18 54.22 50.84"/><polyline class="cls-1" points="38.04 37.8 36.34 39.54 36.55 39.75 38.25 38.01"/><polyline class="cls-1" points="38.66 39.98 41.04 37.55 40.82 37.34 38.45 39.77"/><polyline class="cls-1" points="40.93 40.06 43.52 37.4 43.3 37.19 40.71 39.85"/><polyline class="cls-1" points="42.97 40.36 46.06 37.19 45.84 36.98 42.76 40.15"/><polyline class="cls-1" points="44.87 40.81 48.57 37.02 48.35 36.81 44.65 40.6"/><polyline class="cls-1" points="50.77 36.72 46.61 40.99 46.82 41.2 50.99 36.93"/><polyline class="cls-1" points="53.01 36.83 48.62 41.32 48.84 41.53 53.22 37.04"/><polyline class="cls-1" points="55.05 37.13 50.64 41.65 50.85 41.86 55.27 37.34"/><polyline class="cls-1" points="57.32 37.2 53 41.63 53.21 41.84 57.53 37.41"/><polyline class="cls-1" points="52.96 30.78 55.06 28.63 54.84 28.42 52.75 30.57"/><polyline class="cls-1" points="22.29 28.24 20.65 29.92 20.87 30.13 22.5 28.45"/><polyline class="cls-1" points="22.45 30.9 25.29 27.99 25.08 27.78 22.24 30.69"/><polyline class="cls-1" points="24.71 30.97 27.83 27.78 27.62 27.57 24.5 30.77"/><polyline class="cls-1" points="30.04 27.49 26.64 30.97 26.85 31.18 30.25 27.7"/><polyline class="cls-1" points="28.66 31.73 32.27 28.02 32.05 27.82 28.44 31.52"/><polyline class="cls-1" points="39.41 22.67 37.62 24.51 37.83 24.72 39.63 22.88"/><polyline class="cls-1" points="33.76 28.46 30.27 32.04 30.48 32.25 33.97 28.67"/><polyline class="cls-1" points="39.57 25.33 42.1 22.74 41.89 22.53 39.36 25.12"/><polyline class="cls-1" points="35.56 29.01 32.53 32.11 32.75 32.32 35.77 29.22"/><polyline class="cls-1" points="41.68 25.57 44.55 22.62 44.34 22.41 41.47 25.36"/><polyline class="cls-1" points="37.61 29.31 34.8 32.18 35.02 32.39 37.82 29.52"/><polyline class="cls-1" points="44.5 25.07 47.03 22.48 46.82 22.27 44.28 24.86"/><polyline class="cls-1" points="37.29 32.46 40.27 29.41 40.06 29.2 37.07 32.26"/><polyline class="cls-1" points="47.01 24.89 49.48 22.36 49.27 22.16 46.8 24.69"/><polyline class="cls-1" points="39.79 32.3 42.32 29.7 42.1 29.49 39.57 32.09"/><polyline class="cls-1" points="49.49 24.75 51.81 22.38 51.59 22.17 49.28 24.54"/><polyline class="cls-1" points="42.24 32.18 44.12 30.25 43.9 30.04 42.02 31.97"/><polyline class="cls-1" points="52 24.57 53.85 22.67 53.64 22.46 51.79 24.36"/><polyline class="cls-1" points="28.21 18.03 30.4 15.79 30.19 15.58 28 17.82"/><polyline class="cls-1" points="29.95 18.65 33.22 15.29 33.01 15.09 29.74 18.44"/><polyline class="cls-1" points="31.94 19.01 35.21 15.65 34.99 15.45 31.72 18.8"/><polyline class="cls-1" points="34.45 18.83 37.44 15.76 37.23 15.55 34.23 18.62"/><polyline class="cls-1" points="36.87 18.75 39.61 15.93 39.4 15.72 36.65 18.54"/><polyline class="cls-1" points="39.81 18.13 41.57 16.33 41.35 16.12 39.59 17.92"/><path class="cls-2" d="M5.67,10.6c4.37.37,6.12.25,8.25-.75S12.85,5.26,8.1,6.13a32.73,32.73,0,0,1-5.5-.25C.48,5.51-.21,8.72-1.58,9.35S1.29,10.22,5.67,10.6Z"/><path class="cls-2" d="M18.56,1.72H18c-1.62,0-5.25.88-2.75,1.38a21,21,0,0,0,3.27.3Z"/><polyline class="cls-1" points="3.66 5.86 -0.37 9.99 -0.16 10.2 3.88 6.07"/><polyline class="cls-1" points="5.75 6.12 1.88 10.08 2.09 10.29 5.96 6.33"/><polyline class="cls-1" points="8.17 6.04 3.97 10.34 4.18 10.55 8.38 6.24"/><polyline class="cls-1" points="10.59 5.95 6.18 10.47 6.39 10.68 10.8 6.16"/><polyline class="cls-1" points="12.34 6.54 8.35 10.64 8.56 10.85 12.56 6.75"/><polyline class="cls-1" points="13.77 7.47 10.69 10.64 10.9 10.85 13.99 7.68"/><polyline class="cls-1" points="17.09 1.73 15.7 3.15 15.92 3.36 17.31 1.94"/><polyline class="cls-1" points="18.09 3.53 18.67 2.94 18.45 2.73 17.87 3.32"/><path class="cls-2" d="M14.54,30.85c2.25-.75,1.13-2-3.75-2a20.81,20.81,0,0,1-4.25-.63c-1.5-.5-4-.12-7.37.63s-1.5,1.75,0,1.87a38.25,38.25,0,0,1,6.12.75A17.61,17.61,0,0,0,14.54,30.85Z"/><path class="cls-2" d="M-15,40c2.12,0,4.5.37,9.5,1.5s12.5-1,15.12-2,1.75-1.25.75-1.88S8.58,37,4.71,37.32A40.69,40.69,0,0,1-.67,37c-2.25-.38-6.5.12-10.12.37a25.94,25.94,0,0,0-6.63.88C-21.42,39.07-17.17,40-15,40Z"/><path class="cls-2" d="M15.17,51.47c4.25-.87.5-2.25-4.25-2.25a16.62,16.62,0,0,1-3.25-.37C6,48.47-.33,48-2.21,48.6s-5.37.62-7.25.75-.87,1.5.63,1.5,4,.62,6.5.25A9.46,9.46,0,0,1,3.79,52C6.17,53,10.92,52.35,15.17,51.47Z"/><path class="cls-2" d="M-3.58,22.1a23.6,23.6,0,0,1-3.5.25c-2,0-5.25.37-8,.5s-3.25.5-1.5,1.62a7.29,7.29,0,0,0,5.37.75c.75-.37,3.38-.5,8.5-.75S2,22.47-3.58,22.1Z"/><path class="cls-2" d="M18.56,36.88c-.35.06-1.1.17-2.39.34-1.88.25-.75,2.5.75,2.25.45-.08,1-.14,1.64-.2Z"/><path class="cls-2" d="M18.56,18.47c-2.92-.23-6.72-.64-8.85-1a15.25,15.25,0,0,0-7.84.83s-1.5-1-1.16.34,3.66,3.33,6,3,7.83.5,10.5,1.33a2.59,2.59,0,0,0,1.35.13Z"/><polyline class="cls-1" points="0.48 48.05 -2.4 51 -2.19 51.21 0.69 48.26"/><polyline class="cls-1" points="0.31 51.05 2.9 48.39 2.69 48.18 0.1 50.84"/><polyline class="cls-1" points="4.86 48.35 2.02 51.26 2.23 51.47 5.07 48.56"/><polyline class="cls-1" points="6.99 48.56 3.78 51.85 3.99 52.06 7.2 48.77"/><polyline class="cls-1" points="9 48.9 5.62 52.36 5.84 52.57 9.21 49.11"/><polyline class="cls-1" points="11.17 49.08 8 52.32 8.21 52.53 11.38 49.28"/><polyline class="cls-1" points="13.34 49.25 10.62 52.03 10.84 52.24 13.55 49.46"/><polyline class="cls-1" points="13.54 51.86 15.56 49.8 15.34 49.59 13.33 51.65"/><polyline class="cls-1" points="0.93 37.13 -3.49 41.65 -3.27 41.86 1.14 37.34"/><polyline class="cls-1" points="3.19 37.2 -1.13 41.63 -0.91 41.84 3.41 37.41"/><polyline class="cls-1" points="5.58 37.16 1.44 41.39 1.66 41.6 5.79 37.36"/><polyline class="cls-1" points="4.57 41.02 8.34 37.16 8.12 36.95 4.36 40.81"/><polyline class="cls-1" points="7.67 40.23 10.23 37.61 10.01 37.4 7.45 40.03"/><polyline class="cls-1" points="-1.16 30.78 0.93 28.63 0.72 28.42 -1.38 30.57"/><polyline class="cls-1" points="3.51 27.96 0.76 30.77 0.97 30.98 3.72 28.17"/><polyline class="cls-1" points="3.02 31.28 5.99 28.24 5.77 28.04 2.81 31.07"/><polyline class="cls-1" points="5.13 31.52 7.91 28.67 7.69 28.46 4.92 31.3"/><polyline class="cls-1" points="7.12 31.88 10.08 28.84 9.87 28.63 6.9 31.67"/><polyline class="cls-1" points="9.47 31.86 12.28 28.98 12.07 28.77 9.26 31.65"/><polyline class="cls-1" points="12.01 31.65 14.3 29.31 14.09 29.1 11.8 31.44"/><polyline class="cls-1" points="1.64 19.83 3.52 17.9 3.3 17.69 1.42 19.62"/><polyline class="cls-1" points="2.94 20.89 6.18 17.57 5.97 17.36 2.73 20.68"/><polyline class="cls-1" points="4.62 21.57 8.6 17.48 8.39 17.28 4.4 21.36"/><polyline class="cls-1" points="6.76 21.77 10.77 17.66 10.56 17.45 6.54 21.56"/><polyline class="cls-1" points="9.15 21.72 12.82 17.95 12.61 17.74 8.93 21.51"/><polyline class="cls-1" points="11.22 21.98 14.93 18.19 14.71 17.98 11.01 21.77"/><polyline class="cls-1" points="13.36 22.19 17.01 18.45 16.79 18.24 13.15 21.98"/><polyline class="cls-1" points="15.32 22.58 18.67 19.15 18.45 18.94 15.11 22.37"/><polyline class="cls-1" points="17.15 23.1 18.67 21.54 18.45 21.33 16.94 22.89"/><polyline class="cls-1" points="16.12 39.32 18.38 37.01 18.16 36.8 15.91 39.11"/><polyline class="cls-1" points="18.33 39.46 18.67 39.11 18.45 38.9 18.11 39.25"/></svg>