<!-- Generator: Adobe Illustrator 22.1.0, SVG Export Plug-In  -->
<svg version="1.1"
     xmlns="http://www.w3.org/2000/svg" xmlns:xlink="http://www.w3.org/1999/xlink" xmlns:a="http://ns.adobe.com/AdobeSVGViewerExtensions/3.0/"
     x="0px" y="0px" width="54.3px" height="54.1px" viewBox="0 0 54.3 54.1" style="enable-background:new 0 0 54.3 54.1;"
     xml:space="preserve">
<style type="text/css">
    .st0{clip-path:url(#SVGID_2_);}
    .st1{clip-path:url(#SVGID_2_);fill:#FFFFFF;}
    .st2{clip-path:url(#SVGID_2_);fill:none;stroke:#000000;stroke-width:0.3;}
    .st3{clip-path:url(#SVGID_4_);}
    .st4{clip-path:url(#SVGID_4_);fill:#FFFFFF;}
    .st5{clip-path:url(#SVGID_4_);fill:none;stroke:#000000;stroke-width:0.3;}
</style>
<defs>
</defs>
<g>
    <defs>
        <rect id="SVGID_1_" x="0.1" width="54.1" height="54.1"/>
    </defs>
    <clipPath id="SVGID_2_">
        <use xlink:href="#SVGID_1_"  style="overflow:visible;"/>
    </clipPath>
    <rect x="0.1" class="st0" width="54.1" height="54.1"/>
    <path class="st1" d="M3.4,16.2C0,16.9,3,18.7,4.9,18.6S8,18.6,9,19s4.5,1.2,7,1.1s3.5-0.1,7.5-0.2c6.8-0.9,0.4-3-2.1-2.8
        c-2.5,0.2-4.9-0.1-7.1-1.2S6.8,15.6,3.4,16.2z"/>
    <path class="st1" d="M50.2,18.6c2.2-0.8,1.1-2-3.8-2c0,0-2.8-0.1-4.2-0.6s-4-0.1-7.4,0.6s-1.5,1.8,0,1.9s2,0,6.1,0.8
        S48,19.3,50.2,18.6z"/>
    <path class="st1" d="M20.6,27.7c2.1,0,4.5,0.4,9.5,1.5s12.5-1,15.1-2s1.8-1.2,0.8-1.9s-1.8-0.6-5.6-0.2c0,0-3.1,0-5.4-0.4
        s-6.5,0.1-10.1,0.4s-2.6,0-6.6,0.9S18.5,27.7,20.6,27.7z"/>
    <path class="st1" d="M50.8,39.2c4.2-0.9,0.5-2.2-4.2-2.2c0,0-1.6,0-3.2-0.4s-8-0.9-9.9-0.2c-1.9,0.6-5.4,0.6-7.3,0.8
        s-0.9,1.5,0.6,1.5s4,0.6,6.5,0.2s3.8-0.1,6.1,0.9S46.6,40.1,50.8,39.2z"/>
    <path class="st1" d="M18,3.4c0,0-1.6,0-3.2-0.4c0,0-3.4,0.4-5.1,0.9C8,4.4,9.5,6,10.8,6.1c2.4,1,7.1,0.4,11.4-0.5S22.7,3.4,18,3.4z
        "/>
    <path class="st1" d="M1.5,34.8c1.3,0.4,4.1,0.5,6.1,0.1s1.1,0.6,0.6,1s0,1.1,2,1s2.5-0.1,4.1,0s1.8-0.4,1.2-1s1.1-0.8,2.5-0.4
        s2.1-0.1,3.6-1S20.2,33,16.3,33c0,0-2.1,0.1-4.4-0.2s-6.9,0-9.6,0.4S0.2,34.5,1.5,34.8z"/>
    <path class="st1" d="M24.3,46c5.1,0.2,3,0.1,3.7,0.5s3.6,0.4,5.4-0.8c1.8-1.1,1.2-1.5-1.5-1.6s-1.2-0.2-3.2-0.2s-3.5-0.2-3.5-0.2
        C19.6,44,19.2,45.7,24.3,46z"/>
    <path class="st1" d="M32.1,9.8c0,0-1.5,0.2-3.5,0.2s-5.2,0.4-8,0.5s-3.2,0.5-1.5,1.6s4.6,1.1,5.4,0.8s3.4-0.5,8.5-0.8
        S37.7,10.2,32.1,9.8z"/>
    <path class="st1" d="M0.1,45.3c1.7,0,3.2-0.1,3.2-0.1c4.4,0.2,4.5-0.5,5.2-0.6s1.6-1-1.6-1c-2.9,0-5.2,0-6.9,0V45.3z"/>
    <path class="st1" d="M5.3,50.5c1.9-0.1,5.5,0.5,8.8,0.9s2.4,0.1,4.2-0.4s-0.5-1.6-1.5-1.4s-0.5,0.3-1.9,0.2
        c-2.2-0.1-7.7-1.4-10.1-1.1S3.5,50.6,5.3,50.5z"/>
    <path class="st1" d="M41.3,52.5c4.4,0.4,6.1,0.2,8.2-0.8s-1.1-4.6-5.8-3.7c0,0-3.4,0.1-5.5-0.2s-2.8,2.8-4.2,3.5S37,52.1,41.3,52.5
        z"/>
    <path class="st1" d="M0.1,27c1.5-0.1,3.3-0.3,5.6-0.4c3.2-0.2,2-0.8,0.4-1.1s-3-0.9-5.8-0.9c0,0-0.1,0-0.2,0V27z"/>
    <path class="st1" d="M0.1,10.9c1.2-0.3,1.4-1.9,4-2.1c3.3-0.3,1.5-2.3-0.7-2.3c-0.7,0-1.9-0.1-3.3-0.2V10.9z"/>
    <path class="st1" d="M54.2,43.6c-0.2,0-0.4,0-0.5,0c-1.6,0-5.2,0.9-2.8,1.4c1,0.2,2.2,0.3,3.3,0.3V43.6z"/>
    <path class="st1" d="M54.2,24.6c-0.3,0.1-1.1,0.2-2.4,0.3c-1.9,0.2-0.8,2.5,0.8,2.2c0.5-0.1,1-0.1,1.6-0.2V24.6z"/>
    <path class="st1" d="M54.2,6.2c-2.9-0.2-6.7-0.6-8.9-1c-3.2-0.5-6.5,0.2-7.8,0.8c0,0-1.5-1-1.2,0.3c0.3,1.3,3.7,3.3,6,3
        c2.3-0.3,7.8,0.5,10.5,1.3c0.6,0.2,1,0.2,1.4,0.1V6.2z"/>
    <line class="st2" x1="0.6" y1="6.3" x2="0.1" y2="6.8"/>
    <line class="st2" x1="2.8" y1="6.4" x2="0.1" y2="9.2"/>
    <line class="st2" x1="2.3" y1="9.3" x2="4.9" y2="6.7"/>
    <line class="st2" x1="39.4" y1="47.8" x2="35.4" y2="52"/>
    <line class="st2" x1="41.5" y1="48.1" x2="37.7" y2="52.1"/>
    <line class="st2" x1="43.9" y1="48" x2="39.7" y2="52.3"/>
    <line class="st2" x1="46.4" y1="47.9" x2="42" y2="52.4"/>
    <line class="st2" x1="48.1" y1="48.5" x2="44.1" y2="52.6"/>
    <line class="st2" x1="49.6" y1="49.4" x2="46.5" y2="52.6"/>
    <line class="st2" x1="0.1" y1="44.7" x2="1.2" y2="43.6"/>
    <line class="st2" x1="3.5" y1="43.6" x2="1.9" y2="45.3"/>
    <line class="st2" x1="5.9" y1="43.6" x2="4.2" y2="45.3"/>
    <line class="st2" x1="8.2" y1="43.6" x2="6.7" y2="45.2"/>
    <line class="st2" x1="2.1" y1="24.7" x2="0.1" y2="26.7"/>
    <line class="st2" x1="4.2" y1="25" x2="2.3" y2="26.9"/>
    <line class="st2" x1="6" y1="25.5" x2="4.9" y2="26.6"/>
    <line class="st2" x1="2.9" y1="33" x2="1.2" y2="34.8"/>
    <line class="st2" x1="3.2" y1="35.1" x2="5.5" y2="32.7"/>
    <line class="st2" x1="5.4" y1="35.3" x2="8" y2="32.6"/>
    <line class="st2" x1="10.4" y1="32.5" x2="8.2" y2="34.9"/>
    <line class="st2" x1="8.6" y1="36.8" x2="12.5" y2="32.8"/>
    <line class="st2" x1="10.7" y1="37" x2="14.6" y2="33"/>
    <line class="st2" x1="17" y1="33" x2="13.1" y2="37"/>
    <line class="st2" x1="16.9" y1="35.5" x2="19.2" y2="33.1"/>
    <line class="st2" x1="21.2" y1="33.4" x2="18.9" y2="35.8"/>
    <line class="st2" x1="6.7" y1="48.7" x2="4.8" y2="50.5"/>
    <line class="st2" x1="8.7" y1="48.9" x2="7.2" y2="50.5"/>
    <line class="st2" x1="10.8" y1="49.2" x2="9.3" y2="50.8"/>
    <line class="st2" x1="12.8" y1="49.5" x2="11.4" y2="51"/>
    <line class="st2" x1="14.8" y1="49.9" x2="13.5" y2="51.3"/>
    <line class="st2" x1="17.5" y1="49.6" x2="15.6" y2="51.5"/>
    <line class="st2" x1="23.8" y1="43.7" x2="21.9" y2="45.7"/>
    <line class="st2" x1="26.1" y1="43.7" x2="23.9" y2="46"/>
    <line class="st2" x1="28.3" y1="43.9" x2="26.2" y2="46"/>
    <line class="st2" x1="30.6" y1="43.9" x2="28.2" y2="46.4"/>
    <line class="st2" x1="32.8" y1="44.1" x2="30.4" y2="46.6"/>
    <line class="st2" x1="26.6" y1="38.6" x2="28.1" y2="37"/>
    <line class="st2" x1="28.8" y1="38.8" x2="30.8" y2="36.7"/>
    <line class="st2" x1="30.8" y1="39.1" x2="33.6" y2="36.2"/>
    <line class="st2" x1="36.3" y1="35.9" x2="33.4" y2="38.9"/>
    <line class="st2" x1="35.9" y1="38.7" x2="38.5" y2="36"/>
    <line class="st2" x1="40.6" y1="36.2" x2="37.8" y2="39.1"/>
    <line class="st2" x1="42.8" y1="36.4" x2="39.6" y2="39.7"/>
    <line class="st2" x1="44.8" y1="36.8" x2="41.4" y2="40.2"/>
    <line class="st2" x1="46.9" y1="36.9" x2="43.8" y2="40.2"/>
    <line class="st2" x1="49.1" y1="37.1" x2="46.4" y2="39.9"/>
    <line class="st2" x1="49.1" y1="39.5" x2="51.1" y2="37.4"/>
    <line class="st2" x1="19.7" y1="25.6" x2="18" y2="27.4"/>
    <line class="st2" x1="20.1" y1="27.6" x2="22.5" y2="25.2"/>
    <line class="st2" x1="22.4" y1="27.7" x2="25" y2="25"/>
    <line class="st2" x1="24.4" y1="28" x2="27.5" y2="24.8"/>
    <line class="st2" x1="26.3" y1="28.4" x2="30" y2="24.7"/>
    <line class="st2" x1="32.4" y1="24.6" x2="28.3" y2="28.8"/>
    <line class="st2" x1="34.7" y1="24.7" x2="30.3" y2="29.2"/>
    <line class="st2" x1="36.7" y1="25" x2="32.3" y2="29.5"/>
    <line class="st2" x1="39" y1="25.1" x2="34.7" y2="29.5"/>
    <line class="st2" x1="41.4" y1="25" x2="37.2" y2="29.2"/>
    <line class="st2" x1="40.1" y1="28.7" x2="43.9" y2="24.8"/>
    <line class="st2" x1="43.2" y1="27.9" x2="45.8" y2="25.2"/>
    <line class="st2" x1="34.4" y1="18.4" x2="36.5" y2="16.3"/>
    <line class="st2" x1="39.3" y1="15.8" x2="36.5" y2="18.6"/>
    <line class="st2" x1="38.6" y1="18.9" x2="41.6" y2="15.9"/>
    <line class="st2" x1="40.7" y1="19.2" x2="43.5" y2="16.3"/>
    <line class="st2" x1="42.7" y1="19.5" x2="45.6" y2="16.5"/>
    <line class="st2" x1="45" y1="19.5" x2="47.8" y2="16.6"/>
    <line class="st2" x1="47.6" y1="19.3" x2="49.9" y2="16.9"/>
    <line class="st2" x1="3.9" y1="16.1" x2="2.3" y2="17.8"/>
    <line class="st2" x1="3.9" y1="18.5" x2="6.7" y2="15.6"/>
    <line class="st2" x1="6.2" y1="18.6" x2="9.3" y2="15.4"/>
    <line class="st2" x1="11.7" y1="15.3" x2="8.3" y2="18.8"/>
    <line class="st2" x1="10.1" y1="19.4" x2="13.7" y2="15.7"/>
    <line class="st2" x1="21.1" y1="10.5" x2="19.3" y2="12.4"/>
    <line class="st2" x1="15.4" y1="16.3" x2="11.9" y2="19.9"/>
    <line class="st2" x1="21" y1="13" x2="23.5" y2="10.4"/>
    <line class="st2" x1="17.2" y1="16.9" x2="14.2" y2="20"/>
    <line class="st2" x1="23.1" y1="13.2" x2="26" y2="10.3"/>
    <line class="st2" x1="19.3" y1="17.2" x2="16.5" y2="20"/>
    <line class="st2" x1="25.9" y1="12.7" x2="28.5" y2="10.1"/>
    <line class="st2" x1="18.7" y1="20.1" x2="21.7" y2="17"/>
    <line class="st2" x1="28.5" y1="12.5" x2="30.9" y2="10"/>
    <line class="st2" x1="21.2" y1="19.9" x2="23.8" y2="17.3"/>
    <line class="st2" x1="30.9" y1="12.4" x2="33.2" y2="10"/>
    <line class="st2" x1="23.7" y1="19.8" x2="25.6" y2="17.9"/>
    <line class="st2" x1="33.4" y1="12.2" x2="35.3" y2="10.3"/>
    <line class="st2" x1="9.7" y1="5.7" x2="11.8" y2="3.4"/>
    <line class="st2" x1="11.4" y1="6.3" x2="14.7" y2="2.9"/>
    <line class="st2" x1="13.4" y1="6.6" x2="16.6" y2="3.3"/>
    <line class="st2" x1="15.9" y1="6.5" x2="18.9" y2="3.4"/>
    <line class="st2" x1="18.3" y1="6.4" x2="21.1" y2="3.6"/>
    <line class="st2" x1="21.2" y1="5.8" x2="23" y2="4"/>
    <line class="st2" x1="37.2" y1="7.5" x2="39.1" y2="5.5"/>
    <line class="st2" x1="38.5" y1="8.5" x2="41.7" y2="5.2"/>
    <line class="st2" x1="40.2" y1="9.2" x2="44.2" y2="5.1"/>
    <line class="st2" x1="42.3" y1="9.4" x2="46.3" y2="5.3"/>
    <line class="st2" x1="44.7" y1="9.4" x2="48.4" y2="5.6"/>
    <line class="st2" x1="46.8" y1="9.6" x2="50.5" y2="5.8"/>
    <line class="st2" x1="48.9" y1="9.8" x2="52.6" y2="6.1"/>
    <line class="st2" x1="50.9" y1="10.2" x2="54.2" y2="6.8"/>
    <line class="st2" x1="52.7" y1="10.7" x2="54.2" y2="9.2"/>
    <line class="st2" x1="52.9" y1="43.7" x2="51.5" y2="45.1"/>
    <line class="st2" x1="53.7" y1="45.3" x2="54.2" y2="44.7"/>
    <line class="st2" x1="51.7" y1="27" x2="53.9" y2="24.6"/>
    <line class="st2" x1="53.9" y1="27.1" x2="54.2" y2="26.7"/>
</g>
</svg>
