<!-- Generator: Adobe Illustrator 22.1.0, SVG Export Plug-In  -->
<svg version="1.1"
     xmlns="http://www.w3.org/2000/svg" xmlns:xlink="http://www.w3.org/1999/xlink" xmlns:a="http://ns.adobe.com/AdobeSVGViewerExtensions/3.0/"
     x="0px" y="0px" width="54.1px" height="49.5px" viewBox="0 0 54.1 49.5" style="enable-background:new 0 0 54.1 49.5;"
     xml:space="preserve">
<style type="text/css">
    .st0{fill:none;stroke:#000000;stroke-width:0.3;}
</style>
<defs>
</defs>
<line class="st0" x1="0" y1="37.7" x2="54.1" y2="37.7"/>
<line class="st0" x1="0" y1="23.5" x2="54.1" y2="23.5"/>
<line class="st0" x1="0" y1="13.1" x2="54.1" y2="13.1"/>
<path class="st0" d="M1.3,49.5c0,0-0.1-1.4,0.1-2.5s0.1-1.2-0.1-2s-0.2-1,0-1.6s0.1-0.9,0-1.6s0-1,0.8-2.5H0.2"/>
<path class="st0" d="M5.5,49.5c0,0-0.1-1.4,0.1-2.5s0.1-1.2-0.1-2s-0.2-1,0-1.6s0.1-0.9,0-1.6s0-1,0.8-2.5H4.4"/>
<path class="st0" d="M9.6,49.5c0,0-0.1-1.4,0.1-2.5s0.1-1.2-0.1-2s-0.2-1,0-1.6s0.1-0.9,0-1.6s0-1,0.8-2.5H8.5"/>
<path class="st0" d="M13.8,49.5c0,0-0.1-1.4,0.1-2.5s0.1-1.2-0.1-2s-0.2-1,0-1.6s0.1-0.9,0-1.6s0-1,0.8-2.5h-1.9"/>
<path class="st0" d="M18,49.5c0,0-0.1-1.4,0.1-2.5s0.1-1.2-0.1-2s-0.2-1,0-1.6s0.1-0.9,0-1.6s0-1,0.8-2.5h-1.9"/>
<path class="st0" d="M22.1,49.5c0,0-0.1-1.4,0.1-2.5s0.1-1.2-0.1-2s-0.2-1,0-1.6s0.1-0.9,0-1.6s0-1,0.8-2.5H21"/>
<path class="st0" d="M26.3,49.5c0,0-0.1-1.4,0.1-2.5s0.1-1.2-0.1-2s-0.2-1,0-1.6s0.1-0.9,0-1.6s0-1,0.8-2.5h-1.9"/>
<path class="st0" d="M30.5,49.5c0,0-0.1-1.4,0.1-2.5s0.1-1.2-0.1-2s-0.2-1,0-1.6s0.1-0.9,0-1.6s0-1,0.8-2.5h-1.9"/>
<path class="st0" d="M34.6,49.5c0,0-0.1-1.4,0.1-2.5s0.1-1.2-0.1-2s-0.2-1,0-1.6s0.1-0.9,0-1.6s0-1,0.8-2.5h-1.9"/>
<path class="st0" d="M38.8,49.5c0,0-0.1-1.4,0.1-2.5s0.1-1.2-0.1-2s-0.2-1,0-1.6s0.1-0.9,0-1.6s0-1,0.8-2.5h-1.9"/>
<path class="st0" d="M43,49.5c0,0-0.1-1.4,0.1-2.5s0.1-1.2-0.1-2s-0.2-1,0-1.6s0.1-0.9,0-1.6s0-1,0.8-2.5h-1.9"/>
<path class="st0" d="M47,49.5c0,0-0.1-1.4,0.1-2.5s0.1-1.2-0.1-2s-0.2-1,0-1.6s0.1-0.9,0-1.6s0-1,0.8-2.5h-1.9"/>
<path class="st0" d="M51.2,49.5c0,0-0.1-1.4,0.1-2.5s0.1-1.2-0.1-2s-0.2-1,0-1.6s0.1-0.9,0-1.6s0-1,0.8-2.5h-1.9"/>
<path class="st0" d="M1.2,31.6c0.1-0.5,0.1-1.1-0.1-1.8S0.8,28.7,1.2,28s0.2-0.8,0.1-1.5S1.2,26,1.7,25H0.1"/>
<path class="st0" d="M4.6,31.6c0.1-0.5,0.1-1.1-0.1-1.8S4.2,28.7,4.6,28s0.2-0.8,0.1-1.5S4.6,26,5.1,25H3.5"/>
<path class="st0" d="M8,31.6c0.1-0.5,0.1-1.1-0.1-1.8S7.6,28.7,8,28s0.2-0.8,0.1-1.5S8,26,8.5,25H6.8"/>
<path class="st0" d="M11.4,31.6c0.1-0.5,0.1-1.1-0.1-1.8S11,28.7,11.4,28s0.2-0.8,0.1-1.5S11.4,26,11.9,25h-1.6"/>
<path class="st0" d="M14.8,31.6c0.1-0.5,0.1-1.1-0.1-1.8s-0.2-1.1,0.1-1.9s0.2-0.8,0.1-1.5S14.8,26,15.3,25h-1.6"/>
<path class="st0" d="M18.1,31.6c0.1-0.5,0.1-1.1-0.1-1.8s-0.2-1.1,0.1-1.9s0.2-0.8,0.1-1.5S18.1,26,18.6,25H17"/>
<path class="st0" d="M21.6,31.6c0.1-0.5,0.1-1.1-0.1-1.8s-0.2-1.1,0.1-1.9s0.2-0.8,0.1-1.5S21.6,26,22.1,25h-1.6"/>
<path class="st0" d="M25,31.6c0.1-0.5,0.1-1.1-0.1-1.8S24.6,28.7,25,28s0.2-0.8,0.1-1.5S25,26,25.5,25h-1.6"/>
<path class="st0" d="M28.3,31.6c0.1-0.5,0.1-1.1-0.1-1.8s-0.2-1.1,0.1-1.9s0.2-0.8,0.1-1.5S28.3,26,28.8,25h-1.6"/>
<path class="st0" d="M31.7,31.6c0.1-0.5,0.1-1.1-0.1-1.8s-0.2-1.1,0.1-1.9s0.2-0.8,0.1-1.5S31.7,26,32.2,25h-1.6"/>
<path class="st0" d="M35.1,31.6c0.1-0.5,0.1-1.1-0.1-1.8s-0.2-1.1,0.1-1.9s0.2-0.8,0.1-1.5S35.1,26,35.6,25H34"/>
<path class="st0" d="M38.5,31.6c0.1-0.5,0.1-1.1-0.1-1.8s-0.2-1.1,0.1-1.9s0.2-0.8,0.1-1.5S38.5,26,39,25h-1.6"/>
<path class="st0" d="M41.8,31.6c0.1-0.5,0.1-1.1-0.1-1.8s-0.2-1.1,0.1-1.9s0.2-0.8,0.1-1.5S41.8,26,42.3,25h-1.6"/>
<path class="st0" d="M45.2,31.6c0.1-0.5,0.1-1.1-0.1-1.8s-0.2-1.1,0.1-1.9s0.2-0.8,0.1-1.5S45.2,26,45.7,25h-1.6"/>
<path class="st0" d="M48.6,31.6c0.1-0.5,0.1-1.1-0.1-1.8s-0.2-1.1,0.1-1.9s0.2-0.8,0.1-1.5S48.6,26,49.1,25h-1.6"/>
<path class="st0" d="M52,31.6c0.1-0.5,0.1-1.1-0.1-1.8S51.6,28.7,52,28s0.2-0.8,0.1-1.5S52,26,52.5,25h-1.6"/>
<line class="st0" x1="0" y1="0.2" x2="54.1" y2="0.2"/>
<path class="st0" d="M1.2,8.2c0.1-0.5,0.6-1.1,0.3-1.8S0.8,5.3,1.2,4.6s0.1-0.8,0-1.5s0-0.5,0.5-1.5H0.1"/>
<path class="st0" d="M4.6,8.2c0.1-0.5,0.6-1.1,0.3-1.8S4.2,5.3,4.6,4.6s0.1-0.8,0-1.5s0-0.5,0.5-1.5H3.5"/>
<path class="st0" d="M8,8.2c0.1-0.5,0.6-1.1,0.3-1.8S7.6,5.3,8,4.6s0.1-0.8,0-1.5s0-0.5,0.5-1.5H6.8"/>
<path class="st0" d="M11.4,8.2c0.1-0.5,0.6-1.1,0.3-1.8S11,5.3,11.4,4.6s0.1-0.8,0-1.5s0-0.5,0.5-1.5h-1.6"/>
<path class="st0" d="M14.8,8.2c0.1-0.5,0.6-1.1,0.3-1.8s-0.7-1.1-0.3-1.9s0.1-0.8,0-1.5s0-0.5,0.5-1.5h-1.6"/>
<path class="st0" d="M18.1,8.2c0.1-0.5,0.6-1.1,0.3-1.8s-0.7-1.1-0.3-1.9s0.1-0.8,0-1.5s0-0.5,0.5-1.5H17"/>
<path class="st0" d="M21.6,8.2c0.1-0.5,0.6-1.1,0.3-1.8s-0.7-1.1-0.3-1.9s0.1-0.8,0-1.5s0-0.5,0.5-1.5h-1.6"/>
<path class="st0" d="M25,8.2c0.1-0.5,0.6-1.1,0.3-1.8S24.6,5.3,25,4.6s0.1-0.8,0-1.5s0-0.5,0.5-1.5h-1.6"/>
<path class="st0" d="M28.3,8.2c0.1-0.5,0.6-1.1,0.3-1.8s-0.7-1.1-0.3-1.9s0.1-0.8,0-1.5s0-0.5,0.5-1.5h-1.6"/>
<path class="st0" d="M31.7,8.2c0.1-0.5,0.6-1.1,0.3-1.8c-0.3-0.6-0.7-1.1-0.3-1.9s0.1-0.8,0-1.5s0-0.5,0.5-1.5h-1.6"/>
<path class="st0" d="M35.1,8.2c0.1-0.5,0.6-1.1,0.3-1.8s-0.7-1.1-0.3-1.9s0.1-0.8,0-1.5s0-0.5,0.5-1.5H34"/>
<path class="st0" d="M38.5,8.2c0.1-0.5,0.6-1.1,0.3-1.8s-0.7-1.1-0.3-1.9s0.1-0.8,0-1.5s0-0.5,0.5-1.5h-1.6"/>
<path class="st0" d="M41.8,8.2c0.1-0.5,0.6-1.1,0.3-1.8s-0.7-1.1-0.3-1.9s0.1-0.8,0-1.5s0-0.5,0.5-1.5h-1.6"/>
<path class="st0" d="M45.2,8.2c0.1-0.5,0.6-1.1,0.3-1.8s-0.7-1.1-0.3-1.9s0.1-0.8,0-1.5s0-0.5,0.5-1.5h-1.6"/>
<path class="st0" d="M48.6,8.2c0.1-0.5,0.6-1.1,0.3-1.8s-0.7-1.1-0.3-1.9s0.1-0.8,0-1.5s0-0.5,0.5-1.5h-1.6"/>
<path class="st0" d="M52,8.2c0.1-0.5,0.6-1.1,0.3-1.8S51.6,5.3,52,4.6s0.1-0.8,0-1.5s0-0.5,0.5-1.5h-1.6"/>
<path class="st0" d="M1,17.1c0-0.4,0-0.9,0.1-1.5s0-0.5,0.4-1.4H0.2"/>
<path class="st0" d="M3.8,17.1c0-0.4,0-0.9,0.1-1.5c0.1-0.6,0-0.5,0.4-1.4H3"/>
<path class="st0" d="M6.6,17.1c0-0.4,0-0.9,0.1-1.5s0-0.5,0.4-1.4H5.9"/>
<path class="st0" d="M9.5,17.1c0-0.4,0-0.9,0.1-1.5s0-0.5,0.4-1.4H8.7"/>
<path class="st0" d="M12.4,17.1c0-0.4,0-0.9,0.1-1.5s0-0.5,0.4-1.4h-1.2"/>
<path class="st0" d="M15.2,17.1c0-0.4,0-0.9,0.1-1.5s0-0.5,0.4-1.4h-1.2"/>
<path class="st0" d="M18.1,17.1c0-0.4,0-0.9,0.1-1.5s0-0.5,0.4-1.4h-1.2"/>
<path class="st0" d="M20.9,17.1c0-0.4,0-0.9,0.1-1.5s0-0.5,0.4-1.4h-1.2"/>
<path class="st0" d="M23.8,17.1c0-0.4,0-0.9,0.1-1.5s0-0.5,0.4-1.4H23"/>
<path class="st0" d="M26.6,17.1c0-0.4,0-0.9,0.1-1.5s0-0.5,0.4-1.4h-1.2"/>
<path class="st0" d="M29.5,17.1c0-0.4,0-0.9,0.1-1.5s0-0.5,0.4-1.4h-1.2"/>
<path class="st0" d="M32.3,17.1c0-0.4,0-0.9,0.1-1.5s0-0.5,0.4-1.4h-1.2"/>
<path class="st0" d="M35.1,17.1c0-0.4,0-0.9,0.1-1.5s0-0.5,0.4-1.4h-1.2"/>
<path class="st0" d="M38,17.1c0-0.4,0-0.9,0.1-1.5s0-0.5,0.4-1.4h-1.2"/>
<path class="st0" d="M40.8,17.1c0-0.4,0-0.9,0.1-1.5s0-0.5,0.4-1.4h-1.2"/>
<path class="st0" d="M43.7,17.1c0-0.4,0-0.9,0.1-1.5s0-0.5,0.4-1.4H43"/>
<path class="st0" d="M46.5,17.1c0-0.4,0-0.9,0.1-1.5s0-0.5,0.4-1.4h-1.2"/>
<path class="st0" d="M49.4,17.1c0-0.4,0-0.9,0.1-1.5s0-0.5,0.4-1.4h-1.2"/>
<path class="st0" d="M52.2,17.1c0-0.4,0-0.9,0.1-1.5s0-0.5,0.4-1.4h-1.2"/>
</svg>
