<svg id="Layer_1" data-name="Layer 1" xmlns="http://www.w3.org/2000/svg" width="54.13" height="54.13" viewBox="0 0 54.13 54.13"><defs><style>.cls-1,.cls-2{fill:none;}.cls-2{stroke:#000;stroke-width:0.3px;}</style></defs><title>Artboard 77</title><rect class="cls-1" x="5.79" width="54.13" height="54.13"/><line class="cls-2" x1="5.79" y1="40.73" x2="59.91" y2="40.73"/><line class="cls-2" x1="5.79" y1="26.61" x2="59.91" y2="26.61"/><line class="cls-2" x1="5.79" y1="16.23" x2="59.91" y2="16.23"/><path class="cls-2" d="M7.12,52.54A9.48,9.48,0,0,1,7.24,50a2.63,2.63,0,0,0-.12-2,1.84,1.84,0,0,1,0-1.62c.25-.63.12-.88,0-1.63s0-1,.75-2.5H6"/><path class="cls-2" d="M11.31,52.54a9.48,9.48,0,0,1,.12-2.5,2.63,2.63,0,0,0-.12-2,1.84,1.84,0,0,1,0-1.62c.25-.63.12-.88,0-1.63s0-1,.75-2.5H10.18"/><path class="cls-2" d="M15.43,52.54a9.7,9.7,0,0,1,.13-2.5,2.62,2.62,0,0,0-.13-2,1.84,1.84,0,0,1,0-1.62,2.4,2.4,0,0,0,0-1.63c-.12-.75,0-1,.75-2.5H14.31"/><path class="cls-2" d="M19.62,52.54a9.48,9.48,0,0,1,.12-2.5,2.63,2.63,0,0,0-.12-2,1.84,1.84,0,0,1,0-1.62c.25-.63.12-.88,0-1.63s0-1,.75-2.5H18.49"/><path class="cls-2" d="M23.74,52.54a9.7,9.7,0,0,1,.13-2.5,2.62,2.62,0,0,0-.13-2,1.84,1.84,0,0,1,0-1.62,2.4,2.4,0,0,0,0-1.63c-.12-.75,0-1,.75-2.5H22.62"/><path class="cls-2" d="M27.93,52.54a9.7,9.7,0,0,1,.13-2.5,2.62,2.62,0,0,0-.13-2,1.84,1.84,0,0,1,0-1.62,2.4,2.4,0,0,0,0-1.63c-.12-.75,0-1,.75-2.5H26.81"/><path class="cls-2" d="M32.12,52.54a9.48,9.48,0,0,1,.12-2.5,2.63,2.63,0,0,0-.12-2,1.84,1.84,0,0,1,0-1.62c.25-.63.12-.88,0-1.63s0-1,.75-2.5H31"/><path class="cls-2" d="M36.24,52.54a9.7,9.7,0,0,1,.13-2.5,2.62,2.62,0,0,0-.13-2,1.84,1.84,0,0,1,0-1.62,2.4,2.4,0,0,0,0-1.63c-.12-.75,0-1,.75-2.5H35.12"/><path class="cls-2" d="M40.43,52.54a9.7,9.7,0,0,1,.13-2.5,2.62,2.62,0,0,0-.13-2,1.84,1.84,0,0,1,0-1.62,2.4,2.4,0,0,0,0-1.63c-.12-.75,0-1,.75-2.5H39.31"/><path class="cls-2" d="M44.56,52.54a9.48,9.48,0,0,1,.12-2.5,2.63,2.63,0,0,0-.12-2,1.84,1.84,0,0,1,0-1.62c.25-.63.12-.88,0-1.63s0-1,.75-2.5H43.43"/><path class="cls-2" d="M48.74,52.54a9.7,9.7,0,0,1,.13-2.5,2.62,2.62,0,0,0-.13-2,1.84,1.84,0,0,1,0-1.62,2.4,2.4,0,0,0,0-1.63c-.12-.75,0-1,.75-2.5H47.62"/><path class="cls-2" d="M52.81,52.54a9.48,9.48,0,0,1,.12-2.5,2.63,2.63,0,0,0-.12-2,1.84,1.84,0,0,1,0-1.62c.25-.63.12-.88,0-1.63s0-1,.75-2.5H51.68"/><path class="cls-2" d="M7,34.67a2.82,2.82,0,0,0-.12-1.75A2,2,0,0,1,7,31c.38-.75.25-.75.13-1.5S7,29,7.49,28.06H5.87"/><path class="cls-2" d="M10.37,34.67a2.91,2.91,0,0,0-.13-1.75A2,2,0,0,1,10.37,31c.37-.75.25-.75.12-1.5s-.12-.5.38-1.48H9.24"/><path class="cls-2" d="M13.74,34.67a2.82,2.82,0,0,0-.12-1.75A2,2,0,0,1,13.74,31c.38-.75.25-.75.13-1.5s-.13-.5.37-1.48H12.62"/><path class="cls-2" d="M17.18,34.67a2.82,2.82,0,0,0-.12-1.75A2,2,0,0,1,17.18,31c.38-.75.25-.75.13-1.5s-.13-.5.37-1.48H16.06"/><path class="cls-2" d="M20.56,34.67a2.91,2.91,0,0,0-.13-1.75A2,2,0,0,1,20.56,31c.37-.75.25-.75.12-1.5s-.12-.5.38-1.48H19.43"/><path class="cls-2" d="M23.93,34.67a2.82,2.82,0,0,0-.12-1.75A2,2,0,0,1,23.93,31c.38-.75.25-.75.13-1.5s-.13-.5.37-1.48H22.81"/><path class="cls-2" d="M27.37,34.67a2.91,2.91,0,0,0-.13-1.75A2,2,0,0,1,27.37,31c.37-.75.25-.75.12-1.5s-.12-.5.38-1.48H26.24"/><path class="cls-2" d="M30.74,34.67a2.82,2.82,0,0,0-.12-1.75A2,2,0,0,1,30.74,31c.38-.75.25-.75.13-1.5s-.13-.5.37-1.48H29.62"/><path class="cls-2" d="M34.06,34.67a2.91,2.91,0,0,0-.13-1.75A2,2,0,0,1,34.06,31c.37-.75.25-.75.12-1.5s-.12-.5.38-1.48H32.93"/><path class="cls-2" d="M37.49,34.67a2.82,2.82,0,0,0-.12-1.75A2,2,0,0,1,37.49,31c.38-.75.25-.75.13-1.5s-.13-.5.37-1.48H36.37"/><path class="cls-2" d="M40.87,34.67a2.91,2.91,0,0,0-.13-1.75A2,2,0,0,1,40.87,31c.37-.75.25-.75.12-1.5s-.12-.5.38-1.48H39.74"/><path class="cls-2" d="M44.24,34.67a2.82,2.82,0,0,0-.12-1.75A2,2,0,0,1,44.24,31c.38-.75.25-.75.13-1.5s-.13-.5.37-1.48H43.12"/><path class="cls-2" d="M47.62,34.67a2.91,2.91,0,0,0-.13-1.75A2,2,0,0,1,47.62,31c.37-.75.25-.75.12-1.5s-.12-.5.38-1.48H46.49"/><path class="cls-2" d="M51,34.67a2.82,2.82,0,0,0-.12-1.75A2,2,0,0,1,51,31c.38-.75.25-.75.13-1.5s-.13-.5.37-1.48H49.87"/><path class="cls-2" d="M54.43,34.67a2.82,2.82,0,0,0-.12-1.75A2,2,0,0,1,54.43,31c.38-.75.25-.75.13-1.5s-.13-.5.37-1.48H53.31"/><line class="cls-2" x1="5.79" y1="3.23" x2="59.91" y2="3.23"/><path class="cls-2" d="M7,11.29c.13-.5.58-1.12.33-1.75S6.62,8.42,7,7.67s.14-.75,0-1.5,0-.5.48-1.48H5.87"/><path class="cls-2" d="M10.37,11.29c.12-.5.58-1.12.33-1.75S10,8.42,10.37,7.67s.14-.75,0-1.5,0-.5.49-1.48H9.24"/><path class="cls-2" d="M13.74,11.29c.13-.5.58-1.12.33-1.75s-.7-1.12-.33-1.87.14-.75,0-1.5,0-.5.48-1.48H12.62"/><path class="cls-2" d="M17.18,11.29c.13-.5.58-1.12.33-1.75s-.7-1.12-.33-1.87.14-.75,0-1.5,0-.5.49-1.48H16.06"/><path class="cls-2" d="M20.56,11.29c.12-.5.58-1.12.33-1.75s-.71-1.12-.33-1.87.13-.75,0-1.5,0-.5.49-1.48H19.43"/><path class="cls-2" d="M23.93,11.29c.13-.5.58-1.12.33-1.75s-.7-1.12-.33-1.87.14-.75,0-1.5,0-.5.49-1.48H22.81"/><path class="cls-2" d="M27.37,11.29c.12-.5.58-1.12.33-1.75S27,8.42,27.37,7.67s.14-.75,0-1.5,0-.5.49-1.48H26.24"/><path class="cls-2" d="M30.74,11.29c.13-.5.58-1.12.33-1.75s-.7-1.12-.33-1.87.14-.75,0-1.5,0-.5.48-1.48H29.62"/><path class="cls-2" d="M34.06,11.29c.12-.5.58-1.12.33-1.75s-.71-1.12-.33-1.87.13-.75,0-1.5,0-.5.49-1.48H32.93"/><path class="cls-2" d="M37.49,11.29c.13-.5.58-1.12.33-1.75s-.7-1.12-.33-1.87.14-.75,0-1.5,0-.5.48-1.48H36.37"/><path class="cls-2" d="M40.87,11.29c.12-.5.58-1.12.33-1.75s-.71-1.12-.33-1.87.14-.75,0-1.5,0-.5.49-1.48H39.74"/><path class="cls-2" d="M44.24,11.29c.13-.5.58-1.12.33-1.75s-.7-1.12-.33-1.87.14-.75,0-1.5,0-.5.48-1.48H43.12"/><path class="cls-2" d="M47.62,11.29c.12-.5.58-1.12.33-1.75s-.71-1.12-.33-1.87.14-.75,0-1.5,0-.5.49-1.48H46.49"/><path class="cls-2" d="M51,11.29c.13-.5.58-1.12.33-1.75s-.7-1.12-.33-1.87.14-.75,0-1.5,0-.5.48-1.48H49.87"/><path class="cls-2" d="M54.43,11.29c.13-.5.58-1.12.33-1.75s-.7-1.12-.33-1.87.14-.75,0-1.5,0-.5.49-1.48H53.31"/><path class="cls-2" d="M6.74,20.21a6.86,6.86,0,0,1,.13-1.5,3.79,3.79,0,0,1,.37-1.38H6"/><path class="cls-2" d="M9.56,20.21a7.42,7.42,0,0,1,.12-1.5,3.84,3.84,0,0,1,.38-1.38H8.81"/><path class="cls-2" d="M12.43,20.21a6.86,6.86,0,0,1,.13-1.5,3.79,3.79,0,0,1,.37-1.38H11.68"/><path class="cls-2" d="M15.24,20.21a6.86,6.86,0,0,1,.13-1.5,3.79,3.79,0,0,1,.37-1.38H14.49"/><path class="cls-2" d="M18.18,20.21a6.86,6.86,0,0,1,.13-1.5,3.79,3.79,0,0,1,.37-1.38H17.43"/><path class="cls-2" d="M21,20.21a6.86,6.86,0,0,1,.13-1.5,3.79,3.79,0,0,1,.37-1.38H20.24"/><path class="cls-2" d="M23.87,20.21a7.42,7.42,0,0,1,.12-1.5,3.84,3.84,0,0,1,.38-1.38H23.12"/><path class="cls-2" d="M26.68,20.21a6.86,6.86,0,0,1,.13-1.5,3.79,3.79,0,0,1,.37-1.38H25.93"/><path class="cls-2" d="M29.56,20.21a7.42,7.42,0,0,1,.12-1.5,3.84,3.84,0,0,1,.38-1.38H28.81"/><path class="cls-2" d="M32.37,20.21a7.42,7.42,0,0,1,.12-1.5,3.84,3.84,0,0,1,.38-1.38H31.62"/><path class="cls-2" d="M35.24,20.21a6.86,6.86,0,0,1,.13-1.5,3.79,3.79,0,0,1,.37-1.38H34.49"/><path class="cls-2" d="M38.06,20.21a7.42,7.42,0,0,1,.12-1.5,3.84,3.84,0,0,1,.38-1.38H37.31"/><path class="cls-2" d="M40.93,20.21a6.86,6.86,0,0,1,.13-1.5,3.79,3.79,0,0,1,.37-1.38H40.18"/><path class="cls-2" d="M43.81,20.21a7.42,7.42,0,0,1,.12-1.5,3.84,3.84,0,0,1,.38-1.38H43.06"/><path class="cls-2" d="M46.62,20.21a7.42,7.42,0,0,1,.12-1.5,3.84,3.84,0,0,1,.38-1.38H45.87"/><path class="cls-2" d="M49.49,20.21a6.86,6.86,0,0,1,.13-1.5A3.79,3.79,0,0,1,50,17.33H48.74"/><path class="cls-2" d="M52.31,20.21a7.42,7.42,0,0,1,.12-1.5,3.84,3.84,0,0,1,.38-1.38H51.56"/><rect class="cls-1" x="-48.34" width="54.13" height="54.13"/><line class="cls-2" x1="-48.34" y1="40.73" x2="5.79" y2="40.73"/><line class="cls-2" x1="-48.34" y1="26.61" x2="5.79" y2="26.61"/><line class="cls-2" x1="-48.34" y1="16.23" x2="5.79" y2="16.23"/><path class="cls-2" d="M2.87,52.54A9.48,9.48,0,0,1,3,50a2.63,2.63,0,0,0-.12-2,1.84,1.84,0,0,1,0-1.62c.25-.63.12-.88,0-1.63s0-1,.75-2.5H1.74"/><path class="cls-2" d="M.31,34.67a2.91,2.91,0,0,0-.13-1.75A2,2,0,0,1,.31,31c.37-.75.25-.75.12-1.5s-.12-.5.38-1.48H-.82"/><path class="cls-2" d="M3.62,34.67a2.91,2.91,0,0,0-.13-1.75A2,2,0,0,1,3.62,31c.37-.75.25-.75.12-1.5s-.12-.5.38-1.48H2.49"/><line class="cls-2" x1="-48.34" y1="3.23" x2="5.79" y2="3.23"/><path class="cls-2" d="M.31,11.29c.12-.5.58-1.12.33-1.75S-.07,8.42.31,7.67s.13-.75,0-1.5,0-.5.49-1.48H-.82"/><path class="cls-2" d="M3.62,11.29c.12-.5.58-1.12.33-1.75s-.71-1.12-.33-1.87.14-.75,0-1.5,0-.5.49-1.48H2.49"/><path class="cls-2" d="M1.06,20.21a7.42,7.42,0,0,1,.12-1.5,3.84,3.84,0,0,1,.38-1.38H.31"/><path class="cls-2" d="M3.87,20.21A7.42,7.42,0,0,1,4,18.71a3.84,3.84,0,0,1,.38-1.38H3.12"/><rect class="cls-1" y="28.84" width="54.12" height="54.13"/></svg>