<!-- Generator: Adobe Illustrator 22.1.0, SVG Export Plug-In  -->
<svg version="1.1"
     xmlns="http://www.w3.org/2000/svg" xmlns:xlink="http://www.w3.org/1999/xlink" xmlns:a="http://ns.adobe.com/AdobeSVGViewerExtensions/3.0/"
     x="0px" y="0px" width="54px" height="51.1px" viewBox="0 0 54 51.1" style="enable-background:new 0 0 54 51.1;"
     xml:space="preserve">
<style type="text/css">
    .st0{fill:none;stroke:#000000;stroke-width:0.3;}
</style>
<defs>
</defs>
<line class="st0" x1="10.7" y1="8.3" x2="11.8" y2="7.3"/>
<line class="st0" x1="11.8" y1="9.3" x2="10.7" y2="8.3"/>
<line class="st0" x1="4.5" y1="8.3" x2="10.7" y2="8.3"/>
<line class="st0" x1="18.8" y1="22.1" x2="17.8" y2="23.1"/>
<line class="st0" x1="17.8" y1="23.1" x2="18.8" y2="24.1"/>
<line class="st0" x1="11.6" y1="23.1" x2="17.8" y2="23.1"/>
<line class="st0" x1="27" y1="39.6" x2="28.1" y2="38.6"/>
<line class="st0" x1="27" y1="39.6" x2="28.1" y2="40.6"/>
<line class="st0" x1="20.8" y1="39.6" x2="27" y2="39.6"/>
<line class="st0" x1="26.7" y1="49.9" x2="27.8" y2="50.9"/>
<line class="st0" x1="26.7" y1="49.9" x2="27.8" y2="48.9"/>
<line class="st0" x1="26.7" y1="49.9" x2="20.5" y2="49.9"/>
<line class="st0" x1="51.5" y1="38.4" x2="50.4" y2="39.4"/>
<line class="st0" x1="50.4" y1="39.4" x2="51.5" y2="40.4"/>
<line class="st0" x1="50.4" y1="39.4" x2="44.2" y2="39.4"/>
<line class="st0" x1="44.6" y1="48.9" x2="45.7" y2="49.9"/>
<line class="st0" x1="45.7" y1="47.9" x2="44.6" y2="48.9"/>
<line class="st0" x1="44.6" y1="48.9" x2="38.5" y2="48.9"/>
<line class="st0" x1="9" y1="34.9" x2="10" y2="35.9"/>
<line class="st0" x1="9" y1="34.9" x2="10" y2="33.9"/>
<line class="st0" x1="9" y1="34.9" x2="2.8" y2="34.9"/>
<line class="st0" x1="28.9" y1="13.1" x2="27.9" y2="14.1"/>
<line class="st0" x1="27.9" y1="14.1" x2="28.9" y2="15.1"/>
<line class="st0" x1="21.7" y1="14.1" x2="27.9" y2="14.1"/>
<line class="st0" x1="47" y1="9.6" x2="45.9" y2="8.6"/>
<line class="st0" x1="45.9" y1="8.6" x2="47" y2="7.6"/>
<line class="st0" x1="39.7" y1="8.6" x2="45.9" y2="8.6"/>
<line class="st0" x1="42.8" y1="19.8" x2="43.8" y2="20.8"/>
<line class="st0" x1="42.8" y1="19.8" x2="43.8" y2="18.8"/>
<line class="st0" x1="42.8" y1="19.8" x2="36.6" y2="19.8"/>
<line class="st0" x1="2.5" y1="24.8" x2="1.4" y2="25.8"/>
<line class="st0" x1="1.4" y1="25.8" x2="2.5" y2="26.8"/>
<line class="st0" x1="0" y1="25.8" x2="1.4" y2="25.8"/>
<line class="st0" x1="34.9" y1="30.4" x2="35.9" y2="31.4"/>
<line class="st0" x1="35.9" y1="29.4" x2="34.9" y2="30.4"/>
<line class="st0" x1="34.9" y1="30.4" x2="28.7" y2="30.4"/>
<line class="st0" x1="50.8" y1="2" x2="51.8" y2="3"/>
<line class="st0" x1="51.8" y1="1" x2="50.8" y2="2"/>
<line class="st0" x1="50.8" y1="2" x2="45.1" y2="2"/>
<line class="st0" x1="40.1" y1="2" x2="34.4" y2="2"/>
<line class="st0" x1="29.4" y1="2.1" x2="23.7" y2="2.1"/>
<line class="st0" x1="18.6" y1="2.2" x2="12.9" y2="2.2"/>
<line class="st0" x1="41.1" y1="1" x2="40.1" y2="2"/>
<line class="st0" x1="40.1" y1="2" x2="41.1" y2="3"/>
<line class="st0" x1="30.3" y1="1.1" x2="29.4" y2="2.1"/>
<line class="st0" x1="29.4" y1="2.1" x2="30.3" y2="3.1"/>
<line class="st0" x1="19.6" y1="1.2" x2="18.6" y2="2.2"/>
<line class="st0" x1="18.6" y1="2.2" x2="19.6" y2="3.2"/>
<line class="st0" x1="7.9" y1="2.3" x2="8.9" y2="3.3"/>
<line class="st0" x1="8.9" y1="1.3" x2="7.9" y2="2.3"/>
<line class="st0" x1="7.9" y1="2.3" x2="2.2" y2="2.3"/>
<line class="st0" x1="0" y1="4.4" x2="54" y2="4.4"/>
<line class="st0" x1="0" y1="0.2" x2="54" y2="0.2"/>
<line class="st0" x1="13.2" y1="44.9" x2="14.3" y2="43.9"/>
<line class="st0" x1="13.2" y1="44.9" x2="14.3" y2="45.9"/>
<line class="st0" x1="13.2" y1="44.9" x2="7" y2="44.9"/>
<line class="st0" x1="49.2" y1="25.8" x2="54" y2="25.8"/>
</svg>
