<svg id="Layer_1" data-name="Layer 1" xmlns="http://www.w3.org/2000/svg" width="53.98" height="53.98" viewBox="0 0 53.98 53.98"><defs><style>.cls-1,.cls-2{fill:none;}.cls-2{stroke:#000;stroke-width:0.3px;}</style></defs><title>Artboard 79</title><rect class="cls-1" x="39.63" y="-0.14" width="53.98" height="53.98"/><line class="cls-2" x1="50.35" y1="10.71" x2="51.42" y2="9.71"/><line class="cls-2" x1="51.42" y1="11.71" x2="50.35" y2="10.71"/><line class="cls-2" x1="44.17" y1="10.71" x2="50.35" y2="10.71"/><line class="cls-2" x1="51.21" y1="25.44" x2="57.4" y2="25.44"/><line class="cls-2" x1="48.6" y1="37.27" x2="49.67" y2="38.27"/><line class="cls-2" x1="48.6" y1="37.27" x2="49.67" y2="36.27"/><line class="cls-2" x1="48.6" y1="37.27" x2="42.42" y2="37.27"/><line class="cls-2" x1="42.1" y1="27.17" x2="41.04" y2="28.17"/><line class="cls-2" x1="41.04" y1="28.17" x2="42.1" y2="29.17"/><line class="cls-2" x1="39.63" y1="28.17" x2="41.04" y2="28.17"/><line class="cls-2" x1="58.26" y1="4.59" x2="52.56" y2="4.59"/><line class="cls-2" x1="47.53" y1="4.67" x2="48.51" y2="5.67"/><line class="cls-2" x1="48.51" y1="3.67" x2="47.53" y2="4.67"/><line class="cls-2" x1="47.53" y1="4.67" x2="41.84" y2="4.67"/><line class="cls-2" x1="39.63" y1="6.77" x2="93.6" y2="6.77"/><line class="cls-2" x1="39.63" y1="2.52" x2="93.6" y2="2.52"/><line class="cls-2" x1="52.85" y1="47.32" x2="53.92" y2="46.32"/><line class="cls-2" x1="52.85" y1="47.32" x2="53.92" y2="48.32"/><line class="cls-2" x1="52.85" y1="47.32" x2="46.67" y2="47.32"/><rect class="cls-1" x="39.63" y="53.84" width="53.98" height="53.98"/><rect class="cls-1" x="-14.35" y="-0.14" width="53.98" height="53.98"/><line class="cls-2" x1="4.48" y1="24.44" x2="3.42" y2="25.44"/><line class="cls-2" x1="3.42" y1="25.44" x2="4.48" y2="26.44"/><line class="cls-2" x1="-2.77" y1="25.44" x2="3.42" y2="25.44"/><line class="cls-2" x1="12.67" y1="41.96" x2="13.73" y2="40.96"/><line class="cls-2" x1="12.67" y1="41.96" x2="13.73" y2="42.96"/><line class="cls-2" x1="6.48" y1="41.96" x2="12.67" y2="41.96"/><line class="cls-2" x1="12.38" y1="52.32" x2="13.44" y2="53.32"/><line class="cls-2" x1="12.38" y1="52.32" x2="13.44" y2="51.32"/><line class="cls-2" x1="12.38" y1="52.32" x2="6.19" y2="52.32"/><line class="cls-2" x1="37.15" y1="40.8" x2="36.08" y2="41.8"/><line class="cls-2" x1="36.08" y1="41.8" x2="37.15" y2="42.8"/><line class="cls-2" x1="36.08" y1="41.8" x2="29.9" y2="41.8"/><line class="cls-2" x1="30.29" y1="51.3" x2="31.36" y2="52.3"/><line class="cls-2" x1="31.36" y1="50.3" x2="30.29" y2="51.3"/><line class="cls-2" x1="30.29" y1="51.3" x2="24.11" y2="51.3"/><line class="cls-2" x1="14.56" y1="15.48" x2="13.5" y2="16.48"/><line class="cls-2" x1="13.5" y1="16.48" x2="14.56" y2="17.48"/><line class="cls-2" x1="7.31" y1="16.48" x2="13.5" y2="16.48"/><line class="cls-2" x1="32.61" y1="11.98" x2="31.54" y2="10.98"/><line class="cls-2" x1="31.54" y1="10.98" x2="32.61" y2="9.98"/><line class="cls-2" x1="25.36" y1="10.98" x2="31.54" y2="10.98"/><line class="cls-2" x1="28.42" y1="22.15" x2="29.48" y2="23.15"/><line class="cls-2" x1="28.42" y1="22.15" x2="29.48" y2="21.15"/><line class="cls-2" x1="28.42" y1="22.15" x2="22.23" y2="22.15"/><line class="cls-2" x1="20.5" y1="32.8" x2="21.56" y2="33.8"/><line class="cls-2" x1="21.56" y1="31.8" x2="20.5" y2="32.8"/><line class="cls-2" x1="20.5" y1="32.8" x2="14.31" y2="32.8"/><line class="cls-2" x1="36.45" y1="4.34" x2="37.43" y2="5.34"/><line class="cls-2" x1="37.43" y1="3.34" x2="36.45" y2="4.34"/><line class="cls-2" x1="36.45" y1="4.34" x2="30.76" y2="4.34"/><line class="cls-2" x1="25.73" y1="4.42" x2="20.03" y2="4.42"/><line class="cls-2" x1="15" y1="4.5" x2="9.31" y2="4.5"/><line class="cls-2" x1="4.28" y1="4.59" x2="-1.41" y2="4.59"/><line class="cls-2" x1="26.7" y1="3.42" x2="25.73" y2="4.42"/><line class="cls-2" x1="25.73" y1="4.42" x2="26.7" y2="5.42"/><line class="cls-2" x1="15.98" y1="3.5" x2="15" y2="4.5"/><line class="cls-2" x1="15" y1="4.5" x2="15.98" y2="5.5"/><line class="cls-2" x1="5.26" y1="3.59" x2="4.28" y2="4.59"/><line class="cls-2" x1="4.28" y1="4.59" x2="5.26" y2="5.59"/><line class="cls-2" x1="-14.35" y1="6.77" x2="39.63" y2="6.77"/><line class="cls-2" x1="-14.35" y1="2.52" x2="39.63" y2="2.52"/><line class="cls-2" x1="-1.12" y1="47.32" x2="-0.06" y2="46.32"/><line class="cls-2" x1="-1.12" y1="47.32" x2="-0.06" y2="48.32"/><line class="cls-2" x1="34.85" y1="28.17" x2="39.63" y2="28.17"/><rect class="cls-1" x="-14.35" y="53.84" width="53.98" height="53.98"/><rect class="cls-1" y="24.58" width="53.98" height="53.98"/></svg>