<!-- Generator: Adobe Illustrator 22.1.0, SVG Export Plug-In  -->
<svg version="1.1"
     xmlns="http://www.w3.org/2000/svg" xmlns:xlink="http://www.w3.org/1999/xlink" xmlns:a="http://ns.adobe.com/AdobeSVGViewerExtensions/3.0/"
     x="0px" y="0px" width="54.1px" height="54px" viewBox="0 0 54.1 54" style="enable-background:new 0 0 54.1 54;"
     xml:space="preserve">
<style type="text/css">
    .st0{clip-path:url(#SVGID_2_);fill:none;stroke:#000000;stroke-width:0.3;}
    .st1{clip-path:url(#SVGID_4_);fill:none;stroke:#000000;stroke-width:0.3;}
</style>
<defs>
</defs>
<g>
    <defs>
        <rect id="SVGID_1_" x="0" width="54" height="54"/>
    </defs>
    <clipPath id="SVGID_2_">
        <use xlink:href="#SVGID_1_"  style="overflow:visible;"/>
    </clipPath>
    <line class="st0" x1="0" y1="5.9" x2="54" y2="5.9"/>
    <line class="st0" x1="0" y1="1.7" x2="54" y2="1.7"/>
    <path class="st0" d="M13.5,12.7c0.5-0.1,1.4-0.4,1.8-1.2c1.4,0.7,3.4,1.8,6.1,0.8"/>
    <path class="st0" d="M4.2,18.3c-1.7,0.6-3,0.4-4.2,0"/>
    <path class="st0" d="M22.7,48c-2.7,1-4.6-0.1-6.1-0.8c-0.4,0.8-1.3,1.1-1.8,1.2"/>
    <path class="st0" d="M42.9,44.9c-2.7,1-4.6-0.1-6.1-0.8c-0.4,0.8-1.3,1.1-1.8,1.2"/>
    <path class="st0" d="M0,51.5c0.5-0.1,1-0.2,1.5-0.4"/>
    <path class="st0" d="M39.5,11.6c0.5-0.1,1.4-0.4,1.8-1.2c1.4,0.7,3.4,1.8,6.1,0.8"/>
    <path class="st0" d="M28.1,21.4c0.5-0.1,1.4-0.4,1.8-1.2c1.4,0.7,3.4,1.8,6.1,0.8"/>
    <path class="st0" d="M51.1,29.5c-2.7,1-4.6-0.1-6.1-0.8c-0.4,0.8-1.3,1.1-1.8,1.2"/>
    <path class="st0" d="M33.3,35c-2.7,1-4.6-0.1-6.1-0.8c-0.4,0.8-1.3,1.1-1.8,1.2"/>
    <path class="st0" d="M18.3,27.7c-2.7,1-4.6-0.1-6.1-0.8c-0.4,0.8-1.3,1.1-1.8,1.2"/>
    <path class="st0" d="M8.2,39.1c-2.7,1-4.6-0.1-6.1-0.8c-0.4,0.8-1.3,1.1-1.8,1.2"/>
    <path class="st0" d="M46.7,4.2c0.4-0.1,1.2-0.3,1.6-1c1.3,0.6,3,1.5,5.3,0.7"/>
    <path class="st0" d="M44.6,3.9c-2.4,0.8-4.1-0.1-5.3-0.7c-0.4,0.7-1.2,0.9-1.6,1"/>
    <path class="st0" d="M35.6,3.9c-2.4,0.8-4.1-0.1-5.3-0.7c-0.4,0.7-1.2,0.9-1.6,1"/>
    <path class="st0" d="M26.6,3.9c-2.4,0.8-4.1-0.1-5.3-0.7c-0.4,0.7-1.2,0.9-1.6,1"/>
    <path class="st0" d="M17.7,3.9c-2.4,0.8-4.1-0.1-5.3-0.7c-0.4,0.7-1.2,0.9-1.6,1"/>
    <path class="st0" d="M8.7,3.9C6.3,4.7,4.6,3.8,3.4,3.2C3,3.9,2.2,4.1,1.8,4.2"/>
    <path class="st0" d="M50.3,18.6c0.5-0.1,1.4-0.4,1.8-1.2c0.5,0.3,1.2,0.6,1.9,0.8"/>
    <path class="st0" d="M47.6,51.5c0.5-0.1,1.4-0.4,1.8-1.2c1.2,0.6,2.6,1.4,4.6,1.2"/>
</g>
</svg>
