<svg id="Layer_1" data-name="Layer 1" xmlns="http://www.w3.org/2000/svg" width="54.03" height="53.98" viewBox="0 0 54.03 53.98"><defs><style>.cls-1,.cls-2{fill:none;}.cls-1{stroke:#000;stroke-width:0.3px;}</style></defs><title>Artboard 80</title><line class="cls-1" x1="13.36" y1="5.91" x2="67.33" y2="5.91"/><line class="cls-1" x1="13.36" y1="1.66" x2="67.33" y2="1.66"/><path class="cls-1" d="M26.79,12.69A2.47,2.47,0,0,0,28.6,11.5c1.44.69,3.38,1.81,6.07.81"/><path class="cls-1" d="M17.54,18.27a5.87,5.87,0,0,1-4.18,0"/><path class="cls-1" d="M36,48c-2.69,1-4.63-.13-6.06-.82a2.45,2.45,0,0,1-1.82,1.19"/><path class="cls-1" d="M56.25,44.91c-2.69,1-4.63-.12-6.06-.81a2.48,2.48,0,0,1-1.82,1.19"/><path class="cls-1" d="M13.36,51.52a5.82,5.82,0,0,0,1.47-.36"/><path class="cls-1" d="M52.83,11.6a2.45,2.45,0,0,0,1.82-1.19c1.43.69,3.37,1.82,6.06.82"/><path class="cls-1" d="M41.37,21.37a2.46,2.46,0,0,0,1.82-1.18c1.43.68,3.37,1.81,6.06.81"/><path class="cls-1" d="M46.62,35c-2.68,1-4.62-.13-6.06-.82a2.43,2.43,0,0,1-1.81,1.19"/><path class="cls-1" d="M31.56,27.69c-2.69,1-4.62-.13-6.06-.82a2.43,2.43,0,0,1-1.81,1.19"/><path class="cls-1" d="M21.52,39.12c-2.69,1-4.62-.12-6.06-.81a2.46,2.46,0,0,1-1.81,1.19"/><path class="cls-1" d="M57.89,3.87a6.57,6.57,0,0,1-5.31-.66,2.18,2.18,0,0,1-1.59,1"/><path class="cls-1" d="M48.92,3.87a6.59,6.59,0,0,1-5.32-.66,2.16,2.16,0,0,1-1.58,1"/><path class="cls-1" d="M40,3.87a6.59,6.59,0,0,1-5.32-.66,2.16,2.16,0,0,1-1.59,1"/><path class="cls-1" d="M31,3.87a6.57,6.57,0,0,1-5.31-.66,2.16,2.16,0,0,1-1.59,1"/><path class="cls-1" d="M22,3.87a6.57,6.57,0,0,1-5.31-.66,2.18,2.18,0,0,1-1.59,1"/><rect class="cls-2" x="13.36" width="53.98" height="53.98"/><line class="cls-1" x1="-40.62" y1="5.91" x2="13.36" y2="5.91"/><line class="cls-1" x1="-40.62" y1="1.66" x2="13.36" y2="1.66"/><path class="cls-1" d="M2.27,44.91c-2.69,1-4.62-.12-6.06-.81A2.46,2.46,0,0,1-5.6,45.29"/><path class="cls-1" d="M-1.14,11.6A2.43,2.43,0,0,0,.67,10.41c1.44.69,3.37,1.82,6.06.82"/><path class="cls-1" d="M10.42,29.52c-2.69,1-4.63-.13-6.06-.81a2.46,2.46,0,0,1-1.82,1.18"/><path class="cls-1" d="M6,4.17a2.16,2.16,0,0,0,1.59-1,6.59,6.59,0,0,0,5.32.66"/><path class="cls-1" d="M3.91,3.87A6.57,6.57,0,0,1-1.4,3.21,2.16,2.16,0,0,1-3,4.17"/><path class="cls-1" d="M9.67,18.64a2.45,2.45,0,0,0,1.81-1.18,19,19,0,0,0,1.88.83"/><path class="cls-1" d="M7,51.54a2.46,2.46,0,0,0,1.81-1.19,7.9,7.9,0,0,0,4.59,1.17"/><rect class="cls-2" x="-40.62" width="53.98" height="53.98"/><rect class="cls-2" y="14.3" width="53.98" height="53.98"/></svg>