<svg id="Layer_1" data-name="Layer 1" xmlns="http://www.w3.org/2000/svg" width="53.98" height="53.98" viewBox="0 0 53.98 53.98"><defs><style>.cls-1,.cls-2{fill:none;}.cls-2{stroke:#000;stroke-width:0.3px;}</style></defs><title>Artboard 37</title><rect class="cls-1" x="48.01" y="-18.77" width="53.98" height="53.98"/><path class="cls-2" d="M51.45-2.17A2.36,2.36,0,0,1,53.81.19a2.36,2.36,0,0,1-4.72,0A2.36,2.36,0,0,1,51.45-2.17Z"/><rect class="cls-2" x="50.63" y="-0.63" width="1.64" height="1.64"/><circle class="cls-2" cx="51.83" cy="19.97" r="2.36"/><rect class="cls-2" x="51.01" y="19.15" width="1.64" height="1.64"/><rect class="cls-1" x="48.01" y="35.21" width="53.98" height="53.98"/><path class="cls-2" d="M51.45,51.81a2.36,2.36,0,1,1-2.36,2.36A2.36,2.36,0,0,1,51.45,51.81Z"/><rect class="cls-2" x="50.63" y="53.35" width="1.64" height="1.64"/><path class="cls-2" d="M55.9,41a2.36,2.36,0,1,1-2.35,2.35A2.36,2.36,0,0,1,55.9,41Z"/><rect class="cls-1" x="-5.97" y="-18.77" width="53.98" height="53.98"/><path class="cls-2" d="M30.94,1.17a2.36,2.36,0,1,1-2.36,2.36A2.36,2.36,0,0,1,30.94,1.17Z"/><rect class="cls-2" x="30.12" y="2.71" width="1.64" height="1.64"/><path class="cls-2" d="M44.42,7.27a2.36,2.36,0,1,1-2.35,2.35A2.35,2.35,0,0,1,44.42,7.27Z"/><rect class="cls-2" x="43.6" y="8.8" width="1.64" height="1.64"/><circle class="cls-2" cx="12.85" cy="8.35" r="2.36"/><rect class="cls-2" x="12.03" y="7.53" width="1.64" height="1.64"/><circle class="cls-2" cx="-2.15" cy="19.97" r="2.36"/><circle class="cls-2" cx="32.1" cy="18.1" r="2.36"/><rect class="cls-2" x="31.28" y="17.28" width="1.64" height="1.64"/><circle class="cls-2" cx="41.85" cy="26.35" r="2.36"/><rect class="cls-2" x="41.03" y="25.53" width="1.64" height="1.64"/><circle class="cls-2" cx="27.23" cy="31.22" r="2.36"/><rect class="cls-2" x="26.41" y="30.4" width="1.64" height="1.64"/><circle class="cls-2" cx="15.6" cy="24.22" r="2.36"/><rect class="cls-2" x="14.78" y="23.4" width="1.64" height="1.64"/><circle class="cls-2" cx="4.85" cy="31.97" r="2.36"/><rect class="cls-2" x="4.03" y="31.15" width="1.64" height="1.64"/><rect class="cls-1" x="-5.97" y="35.21" width="53.98" height="53.98"/><path class="cls-2" d="M16.83,48.42a2.36,2.36,0,1,1-2.36,2.36A2.36,2.36,0,0,1,16.83,48.42Z"/><rect class="cls-2" x="16.01" y="49.96" width="1.64" height="1.64"/><path class="cls-2" d="M1.92,41A2.36,2.36,0,1,1-.43,43.35,2.35,2.35,0,0,1,1.92,41Z"/><rect class="cls-2" x="1.1" y="42.53" width="1.64" height="1.64"/><path class="cls-2" d="M35.83,42.17a2.36,2.36,0,1,1-2.36,2.36A2.36,2.36,0,0,1,35.83,42.17Z"/><rect class="cls-2" x="35.01" y="43.71" width="1.64" height="1.64"/><path class="cls-2" d="M16.17,36.62A2.36,2.36,0,1,1,13.82,39,2.36,2.36,0,0,1,16.17,36.62Z"/><rect class="cls-2" x="15.35" y="38.16" width="1.64" height="1.64"/><path class="cls-2" d="M44.3,36.12a2.36,2.36,0,1,1-2.36,2.36A2.36,2.36,0,0,1,44.3,36.12Z"/><rect class="cls-2" x="43.48" y="37.66" width="1.64" height="1.64"/><rect class="cls-1" width="53.98" height="53.98"/></svg>