<!-- Generator: Adobe Illustrator 22.1.0, SVG Export Plug-In  -->
<svg version="1.1"
     xmlns="http://www.w3.org/2000/svg" xmlns:xlink="http://www.w3.org/1999/xlink" xmlns:a="http://ns.adobe.com/AdobeSVGViewerExtensions/3.0/"
     x="0px" y="0px" width="52px" height="52.5px" viewBox="0 0 52 52.5" style="enable-background:new 0 0 52 52.5;"
     xml:space="preserve">
<style type="text/css">
    .st0{fill:none;stroke:#000000;stroke-width:0.3;}
</style>
<defs>
</defs>
<path class="st0" d="M2.5,15.8c1.3,0,2.4,1.1,2.4,2.4c0,1.3-1.1,2.4-2.4,2.4c-1.3,0-2.4-1.1-2.4-2.4C0.2,16.9,1.2,15.8,2.5,15.8z"/>
<rect x="1.7" y="17.4" class="st0" width="1.6" height="1.6"/>
<path class="st0" d="M36,19.2c1.3,0,2.4,1.1,2.4,2.4c0,1.3-1.1,2.4-2.4,2.4c-1.3,0-2.4-1.1-2.4-2.4C33.6,20.2,34.7,19.2,36,19.2z"/>
<rect x="35.2" y="20.7" class="st0" width="1.6" height="1.6"/>
<path class="st0" d="M49.5,25.3c1.3,0,2.4,1.1,2.4,2.4c0,1.3-1.1,2.4-2.4,2.4c-1.3,0-2.4-1.1-2.4-2.4C47.1,26.3,48.2,25.3,49.5,25.3
    z"/>
<rect x="48.6" y="26.8" class="st0" width="1.6" height="1.6"/>
<path class="st0" d="M21.9,12.5c1.3,0,2.4,1.1,2.4,2.4c0,1.3-1.1,2.4-2.4,2.4c-1.3,0-2.4-1.1-2.4-2.4C19.5,13.5,20.6,12.5,21.9,12.5
    z"/>
<rect x="21" y="14" class="st0" width="1.6" height="1.6"/>
<path class="st0" d="M7,5c1.3,0,2.4,1.1,2.4,2.4c0,1.3-1.1,2.4-2.4,2.4c-1.3,0-2.4-1.1-2.4-2.4C4.6,6.1,5.7,5,7,5z"/>
<rect x="6.1" y="6.6" class="st0" width="1.6" height="1.6"/>
<path class="st0" d="M40.9,6.2c1.3,0,2.4,1.1,2.4,2.4c0,1.3-1.1,2.4-2.4,2.4c-1.3,0-2.4-1.1-2.4-2.4C38.5,7.3,39.6,6.2,40.9,6.2z"/>
<rect x="40" y="7.7" class="st0" width="1.6" height="1.6"/>
<path class="st0" d="M21.2,0.6c1.3,0,2.4,1.1,2.4,2.4c0,1.3-1.1,2.4-2.4,2.4c-1.3,0-2.4-1.1-2.4-2.4C18.9,1.7,19.9,0.6,21.2,0.6z"/>
<rect x="20.4" y="2.2" class="st0" width="1.6" height="1.6"/>
<path class="st0" d="M49.3,0.2c1.3,0,2.4,1.1,2.4,2.4c0,1.3-1.1,2.4-2.4,2.4C48,4.9,47,3.8,47,2.5C47,1.2,48,0.2,49.3,0.2z"/>
<rect x="48.5" y="1.7" class="st0" width="1.6" height="1.6"/>
<circle class="st0" cx="17.9" cy="26.4" r="2.4"/>
<rect x="17.1" y="25.5" class="st0" width="1.6" height="1.6"/>
<circle class="st0" cx="2.9" cy="38" r="2.4"/>
<rect x="2.1" y="37.2" class="st0" width="1.6" height="1.6"/>
<circle class="st0" cx="37.1" cy="36.1" r="2.4"/>
<rect x="36.3" y="35.3" class="st0" width="1.6" height="1.6"/>
<circle class="st0" cx="46.9" cy="44.4" r="2.4"/>
<rect x="46.1" y="43.5" class="st0" width="1.6" height="1.6"/>
<circle class="st0" cx="32.3" cy="49.2" r="2.4"/>
<rect x="31.4" y="48.4" class="st0" width="1.6" height="1.6"/>
<circle class="st0" cx="20.6" cy="42.2" r="2.4"/>
<rect x="19.8" y="41.4" class="st0" width="1.6" height="1.6"/>
<circle class="st0" cx="9.9" cy="50" r="2.4"/>
<rect x="9.1" y="49.2" class="st0" width="1.6" height="1.6"/>
</svg>
