<svg id="Layer_1" data-name="Layer 1" xmlns="http://www.w3.org/2000/svg" width="54.19" height="53.98" viewBox="0 0 54.19 53.98"><defs><style>.cls-1,.cls-2{fill:none;}.cls-1{stroke:#231f20;stroke-width:0.3px;}</style></defs><title>Artboard 37</title><path class="cls-1" d="M43.51,41.89h0a2.34,2.34,0,1,0-4.67,0h0"/><path class="cls-1" d="M41.18,44.22a2.34,2.34,0,0,1-2.34-2.33"/><path class="cls-1" d="M43.51,41.89a2.33,2.33,0,0,1-2.33,2.33"/><line class="cls-1" x1="41.18" y1="41.89" x2="41.18" y2="39.62"/><line class="cls-1" x1="41.18" y1="41.89" x2="41.18" y2="44.22"/><line class="cls-1" x1="41.18" y1="41.89" x2="38.84" y2="41.89"/><line class="cls-1" x1="41.18" y1="41.89" x2="43.51" y2="41.89"/><path class="cls-1" d="M54.53,48.24a2.33,2.33,0,0,1-2.33-2.33"/><path class="cls-1" d="M56.87,45.91h0a2.34,2.34,0,1,0-4.67,0h0"/><line class="cls-1" x1="52.2" y1="45.91" x2="52.2" y2="45.91"/><line class="cls-1" x1="54.53" y1="45.91" x2="52.2" y2="45.91"/><path class="cls-1" d="M46.37,28.41h0a2.34,2.34,0,1,0-4.67,0h0"/><path class="cls-1" d="M44,30.74a2.33,2.33,0,0,1-2.33-2.33"/><path class="cls-1" d="M46.37,28.41A2.34,2.34,0,0,1,44,30.74"/><line class="cls-1" x1="44.03" y1="28.41" x2="44.03" y2="26.14"/><line class="cls-1" x1="44.03" y1="28.41" x2="44.03" y2="30.74"/><line class="cls-1" x1="41.7" y1="28.41" x2="41.7" y2="28.41"/><line class="cls-1" x1="44.03" y1="28.41" x2="46.37" y2="28.41"/><line class="cls-1" x1="44.03" y1="28.41" x2="41.7" y2="28.41"/><path class="cls-1" d="M42.33,16.36h0A2.33,2.33,0,0,0,40,14a2.3,2.3,0,0,0-1.17.31"/><path class="cls-1" d="M42.33,16.36A2.34,2.34,0,0,1,40,18.69"/><path class="cls-1" d="M38.83,18.37a2.3,2.3,0,0,0,1.17.32"/><line class="cls-1" x1="40" y1="16.36" x2="40" y2="14.09"/><line class="cls-1" x1="40" y1="16.36" x2="40" y2="18.69"/><line class="cls-1" x1="40" y1="16.36" x2="38.83" y2="16.36"/><line class="cls-1" x1="40" y1="16.36" x2="42.33" y2="16.36"/><path class="cls-1" d="M47.18,8.07h0a2.34,2.34,0,0,0-4.67,0h0"/><path class="cls-1" d="M44.84,10.39a2.33,2.33,0,0,0,2.34-2.32"/><path class="cls-1" d="M44.84,10.39a2.33,2.33,0,0,1-2.33-2.32"/><line class="cls-1" x1="44.84" y1="8.07" x2="44.84" y2="5.79"/><line class="cls-1" x1="44.84" y1="8.07" x2="44.84" y2="10.39"/><line class="cls-1" x1="42.51" y1="8.07" x2="42.51" y2="8.07"/><line class="cls-1" x1="44.84" y1="8.07" x2="42.51" y2="8.07"/><line class="cls-1" x1="44.84" y1="8.07" x2="47.18" y2="8.07"/><path class="cls-1" d="M41.37,1.63A2.34,2.34,0,0,1,39,4"/><path class="cls-1" d="M41.37,1.63h0A2.34,2.34,0,0,0,39-.71h-.2"/><path class="cls-1" d="M39,4h-.2"/><line class="cls-1" x1="39.03" y1="3.96" x2="39.03" y2="1.63"/><line class="cls-1" x1="39.03" y1="-0.64" x2="39.03" y2="1.63"/><line class="cls-1" x1="39.03" y1="1.63" x2="38.83" y2="1.63"/><line class="cls-1" x1="41.37" y1="1.63" x2="39.03" y2="1.63"/><path class="cls-1" d="M52.37,1.38h0a2.34,2.34,0,0,0-4.67,0h0"/><path class="cls-1" d="M50,3.71A2.33,2.33,0,0,1,47.7,1.38"/><path class="cls-1" d="M52.37,1.38A2.34,2.34,0,0,1,50,3.71"/><line class="cls-1" x1="50.03" y1="1.38" x2="50.03" y2="3.71"/><line class="cls-1" x1="50.03" y1="1.38" x2="50.03" y2="-0.89"/><line class="cls-1" x1="47.7" y1="1.38" x2="47.7" y2="1.38"/><line class="cls-1" x1="50.03" y1="1.38" x2="47.7" y2="1.38"/><line class="cls-1" x1="50.03" y1="1.38" x2="52.37" y2="1.38"/><path class="cls-1" d="M57.37,7.13h0a2.34,2.34,0,0,0-4.67,0h0"/><path class="cls-1" d="M55,9.46A2.33,2.33,0,0,1,52.7,7.13"/><line class="cls-1" x1="52.7" y1="7.13" x2="52.7" y2="7.13"/><line class="cls-1" x1="55.03" y1="7.13" x2="52.7" y2="7.13"/><rect class="cls-2" x="38.83" y="-3.33" width="53.98" height="53.98"/><path class="cls-1" d="M41.37,55.61h0A2.33,2.33,0,0,0,39,53.27h-.2"/><line class="cls-1" x1="39.03" y1="53.33" x2="39.03" y2="55.61"/><path class="cls-1" d="M52.37,55.36h0a2.34,2.34,0,0,0-4.67,0h0"/><line class="cls-1" x1="50.03" y1="55.36" x2="50.03" y2="53.08"/><rect class="cls-2" x="38.83" y="50.65" width="53.98" height="53.98"/><path class="cls-1" d="M32.55,31.26a2.33,2.33,0,0,0,2.34-2.33"/><path class="cls-1" d="M32.55,31.26a2.33,2.33,0,0,1-2.33-2.33"/><path class="cls-1" d="M34.89,28.93h0a2.34,2.34,0,1,0-4.67,0h0"/><line class="cls-1" x1="32.55" y1="28.93" x2="32.55" y2="31.26"/><line class="cls-1" x1="32.55" y1="28.93" x2="32.55" y2="26.66"/><line class="cls-1" x1="32.55" y1="28.93" x2="34.89" y2="28.93"/><line class="cls-1" x1="32.55" y1="28.93" x2="30.22" y2="28.93"/><line class="cls-1" x1="30.22" y1="28.93" x2="30.22" y2="28.93"/><path class="cls-1" d="M27.58,17h0a2.34,2.34,0,1,0-4.67,0h0"/><path class="cls-1" d="M27.58,17a2.34,2.34,0,0,1-2.34,2.33"/><path class="cls-1" d="M25.24,19.29A2.33,2.33,0,0,1,22.91,17"/><line class="cls-1" x1="25.24" y1="16.96" x2="25.24" y2="19.29"/><line class="cls-1" x1="25.24" y1="16.96" x2="25.24" y2="14.69"/><line class="cls-1" x1="25.24" y1="16.96" x2="22.91" y2="16.96"/><line class="cls-1" x1="25.24" y1="16.96" x2="27.58" y2="16.96"/><line class="cls-1" x1="22.91" y1="16.96" x2="22.91" y2="16.96"/><path class="cls-1" d="M20.38,27.54h0a2.34,2.34,0,0,0-4.67,0h0"/><path class="cls-1" d="M18.05,29.87a2.33,2.33,0,0,0,2.33-2.33"/><path class="cls-1" d="M18.05,29.87a2.34,2.34,0,0,1-2.34-2.33"/><line class="cls-1" x1="18.05" y1="29.87" x2="18.05" y2="27.54"/><line class="cls-1" x1="18.05" y1="27.54" x2="18.05" y2="25.27"/><line class="cls-1" x1="15.71" y1="27.54" x2="15.71" y2="27.54"/><line class="cls-1" x1="18.05" y1="27.54" x2="20.38" y2="27.54"/><line class="cls-1" x1="15.71" y1="27.54" x2="18.05" y2="27.54"/><path class="cls-1" d="M3.18,35.8a2.33,2.33,0,0,0,2.33-2.33"/><path class="cls-1" d="M.85,33.47A2.33,2.33,0,0,0,3.18,35.8"/><path class="cls-1" d="M.85,33.47h0a2.33,2.33,0,1,1,4.66,0h0"/><line class="cls-1" x1="3.18" y1="35.8" x2="3.18" y2="33.47"/><line class="cls-1" x1="3.18" y1="31.2" x2="3.18" y2="33.47"/><line class="cls-1" x1="0.85" y1="33.47" x2="3.18" y2="33.47"/><line class="cls-1" x1="0.85" y1="33.47" x2="0.84" y2="33.47"/><line class="cls-1" x1="3.18" y1="33.47" x2="5.51" y2="33.47"/><path class="cls-1" d="M2.89,45.91A2.33,2.33,0,0,1,.55,48.24"/><path class="cls-1" d="M.55,48.24a2.33,2.33,0,0,1-2.33-2.33"/><path class="cls-1" d="M2.89,45.91h0A2.34,2.34,0,0,0,.55,43.57a2.34,2.34,0,0,0-2.33,2.34h0"/><line class="cls-1" x1="0.55" y1="45.91" x2="0.55" y2="43.64"/><line class="cls-1" x1="0.55" y1="45.91" x2="0.55" y2="48.24"/><line class="cls-1" x1="0.55" y1="45.91" x2="2.89" y2="45.91"/><line class="cls-1" x1="0.55" y1="45.91" x2="-1.78" y2="45.91"/><path class="cls-1" d="M18.58,41.58a2.35,2.35,0,0,1-2.34,2.33"/><path class="cls-1" d="M18.58,41.58h0a2.34,2.34,0,0,0-4.67,0h0"/><path class="cls-1" d="M16.24,43.91a2.33,2.33,0,0,1-2.33-2.33"/><line class="cls-1" x1="16.24" y1="41.58" x2="16.24" y2="43.91"/><line class="cls-1" x1="16.24" y1="41.58" x2="16.24" y2="39.31"/><line class="cls-1" x1="16.24" y1="41.58" x2="13.91" y2="41.58"/><line class="cls-1" x1="16.24" y1="41.58" x2="18.58" y2="41.58"/><line class="cls-1" x1="13.91" y1="41.58" x2="13.91" y2="41.58"/><path class="cls-1" d="M30.62,47a2.34,2.34,0,0,1-2.34-2.33"/><path class="cls-1" d="M33,44.62A2.33,2.33,0,0,1,30.62,47"/><path class="cls-1" d="M33,44.62h0a2.34,2.34,0,0,0-4.67,0h0"/><line class="cls-1" x1="30.62" y1="44.62" x2="30.62" y2="42.35"/><line class="cls-1" x1="30.62" y1="44.62" x2="30.62" y2="46.95"/><line class="cls-1" x1="30.62" y1="44.62" x2="32.95" y2="44.62"/><line class="cls-1" x1="30.62" y1="44.62" x2="28.28" y2="44.62"/><line class="cls-1" x1="28.28" y1="44.62" x2="28.28" y2="44.62"/><path class="cls-1" d="M1.2,19.61a2.34,2.34,0,0,0,2.33,2.33"/><path class="cls-1" d="M5.87,19.61h0a2.34,2.34,0,0,0-4.67,0h0"/><path class="cls-1" d="M3.53,21.94a2.35,2.35,0,0,0,2.34-2.33"/><line class="cls-1" x1="3.53" y1="21.94" x2="3.53" y2="19.61"/><line class="cls-1" x1="3.53" y1="17.34" x2="3.53" y2="19.61"/><line class="cls-1" x1="1.2" y1="19.61" x2="3.53" y2="19.61"/><line class="cls-1" x1="1.2" y1="19.61" x2="1.2" y2="19.61"/><line class="cls-1" x1="5.87" y1="19.61" x2="3.53" y2="19.61"/><path class="cls-1" d="M3.39,7.13h0a2.34,2.34,0,0,0-4.67,0h0"/><path class="cls-1" d="M1.05,9.46A2.33,2.33,0,0,1-1.28,7.13"/><path class="cls-1" d="M1.05,9.46A2.33,2.33,0,0,0,3.39,7.13"/><line class="cls-1" x1="1.05" y1="7.13" x2="1.05" y2="9.46"/><line class="cls-1" x1="1.05" y1="7.13" x2="1.05" y2="4.86"/><line class="cls-1" x1="1.05" y1="7.13" x2="3.39" y2="7.13"/><line class="cls-1" x1="1.05" y1="7.13" x2="-1.28" y2="7.13"/><path class="cls-1" d="M12.45,10.69a2.33,2.33,0,0,0,2.33-2.33"/><path class="cls-1" d="M10.12,8.36a2.33,2.33,0,0,0,2.33,2.33"/><path class="cls-1" d="M14.78,8.36h0a2.33,2.33,0,1,0-4.66,0h0"/><line class="cls-1" x1="12.45" y1="10.69" x2="12.45" y2="8.36"/><line class="cls-1" x1="12.45" y1="6.09" x2="12.45" y2="8.36"/><line class="cls-1" x1="10.12" y1="8.36" x2="10.12" y2="8.36"/><line class="cls-1" x1="10.12" y1="8.36" x2="12.45" y2="8.36"/><line class="cls-1" x1="14.78" y1="8.36" x2="12.45" y2="8.36"/><path class="cls-1" d="M7.2,2.33A2.33,2.33,0,0,1,4.87,0"/><path class="cls-1" d="M9.53,0A2.33,2.33,0,0,1,7.2,2.33"/><path class="cls-1" d="M9.53,0h0A2.33,2.33,0,0,0,7.2-2.33,2.33,2.33,0,0,0,4.87,0h0"/><line class="cls-1" x1="7.2" x2="7.2" y2="-2.27"/><line class="cls-1" x1="7.2" x2="7.2" y2="2.33"/><line class="cls-1" x1="7.2" x2="9.53"/><line class="cls-1" x1="4.87" x2="4.87"/><line class="cls-1" x1="7.2" x2="4.87"/><path class="cls-1" d="M19.26,1.13a2.33,2.33,0,0,1-2.33,2.33"/><path class="cls-1" d="M19.26,1.13h0a2.33,2.33,0,0,0-4.66,0h0"/><path class="cls-1" d="M16.93,3.46A2.33,2.33,0,0,1,14.6,1.13"/><line class="cls-1" x1="16.93" y1="1.13" x2="16.93" y2="3.46"/><line class="cls-1" x1="16.93" y1="1.13" x2="16.93" y2="-1.14"/><line class="cls-1" x1="16.93" y1="1.13" x2="14.6" y2="1.13"/><line class="cls-1" x1="14.6" y1="1.13" x2="14.59" y2="1.13"/><line class="cls-1" x1="16.93" y1="1.13" x2="19.26" y2="1.13"/><path class="cls-1" d="M22.55,9.21a2.33,2.33,0,0,1-2.33-2.33"/><path class="cls-1" d="M24.89,6.88a2.33,2.33,0,0,1-2.34,2.33"/><path class="cls-1" d="M24.89,6.88h0a2.34,2.34,0,0,0-4.67,0h0"/><line class="cls-1" x1="22.55" y1="6.88" x2="22.55" y2="9.21"/><line class="cls-1" x1="22.55" y1="6.88" x2="22.55" y2="4.61"/><line class="cls-1" x1="22.55" y1="6.88" x2="24.89" y2="6.88"/><line class="cls-1" x1="20.22" y1="6.88" x2="20.22" y2="6.88"/><line class="cls-1" x1="22.55" y1="6.88" x2="20.22" y2="6.88"/><path class="cls-1" d="M29.89.15h0a2.34,2.34,0,0,0-2.34-2.33A2.34,2.34,0,0,0,25.22.14h0"/><path class="cls-1" d="M27.55,2.48A2.33,2.33,0,0,1,25.22.15"/><path class="cls-1" d="M27.55,2.48A2.33,2.33,0,0,0,29.89.15"/><line class="cls-1" x1="27.55" y1="0.15" x2="27.55" y2="-2.12"/><line class="cls-1" x1="27.55" y1="0.15" x2="27.55" y2="2.48"/><line class="cls-1" x1="27.55" y1="0.15" x2="25.22" y2="0.15"/><line class="cls-1" x1="27.55" y1="0.15" x2="29.89" y2="0.15"/><line class="cls-1" x1="25.22" y1="0.15" x2="25.22" y2="0.15"/><path class="cls-1" d="M36.2,7h0a2.34,2.34,0,1,0-4.67,0h0"/><path class="cls-1" d="M33.87,9.31A2.33,2.33,0,0,0,36.2,7"/><path class="cls-1" d="M33.87,9.31A2.34,2.34,0,0,1,31.53,7"/><line class="cls-1" x1="33.87" y1="6.98" x2="33.87" y2="4.71"/><line class="cls-1" x1="33.87" y1="6.98" x2="33.87" y2="9.31"/><line class="cls-1" x1="33.87" y1="6.98" x2="31.53" y2="6.98"/><line class="cls-1" x1="31.53" y1="6.98" x2="31.53" y2="6.98"/><line class="cls-1" x1="33.87" y1="6.98" x2="36.2" y2="6.98"/><path class="cls-1" d="M37.66,16.36a2.31,2.31,0,0,0,1.17,2"/><path class="cls-1" d="M38.83,14.33a2.34,2.34,0,0,0-1.17,2h0"/><line class="cls-1" x1="37.66" y1="16.36" x2="38.83" y2="16.36"/><line class="cls-1" x1="37.66" y1="16.36" x2="37.66" y2="16.36"/><path class="cls-1" d="M36.7,1.63A2.33,2.33,0,0,0,38.83,4"/><path class="cls-1" d="M36.7,1.63h0A2.33,2.33,0,0,1,38.83-.7"/><line class="cls-1" x1="36.7" y1="1.63" x2="36.7" y2="1.63"/><line class="cls-1" x1="36.7" y1="1.63" x2="38.83" y2="1.63"/><rect class="cls-2" x="-15.15" y="-3.33" width="53.98" height="53.98"/><path class="cls-1" d="M9.53,54h0a2.33,2.33,0,1,0-4.66,0h0"/><line class="cls-1" x1="7.2" y1="53.98" x2="7.2" y2="51.71"/><line class="cls-1" x1="7.2" y1="53.98" x2="9.53" y2="53.98"/><line class="cls-1" x1="4.87" y1="53.98" x2="4.87" y2="53.98"/><line class="cls-1" x1="7.2" y1="53.98" x2="4.87" y2="53.98"/><path class="cls-1" d="M19.26,55.11h0a2.33,2.33,0,0,0-4.66,0h0"/><line class="cls-1" x1="16.93" y1="55.11" x2="16.93" y2="52.83"/><path class="cls-1" d="M29.89,54.13h0a2.34,2.34,0,0,0-4.67,0h0"/><line class="cls-1" x1="27.55" y1="54.13" x2="27.55" y2="51.85"/><path class="cls-1" d="M36.7,55.61h0a2.33,2.33,0,0,1,2.13-2.32"/><rect class="cls-2" x="-15.15" y="50.65" width="53.98" height="53.98"/><rect class="cls-2" width="53.98" height="53.98"/></svg>