<!-- Generator: Adobe Illustrator 22.1.0, SVG Export Plug-In  -->
<svg version="1.1"
     xmlns="http://www.w3.org/2000/svg" xmlns:xlink="http://www.w3.org/1999/xlink" xmlns:a="http://ns.adobe.com/AdobeSVGViewerExtensions/3.0/"
     x="0px" y="0px" width="54.2px" height="54px" viewBox="0 0 54.2 54" style="enable-background:new 0 0 54.2 54;"
     xml:space="preserve">
<style type="text/css">
    .st0{clip-path:url(#SVGID_2_);fill:none;stroke:#000000;stroke-width:0.3;}
    .st1{clip-path:url(#SVGID_4_);fill:none;stroke:#000000;stroke-width:0.3;}
</style>
<defs>
</defs>
<g>
    <defs>
        <rect id="SVGID_1_" x="0.1" width="54" height="54"/>
    </defs>
    <clipPath id="SVGID_2_">
        <use xlink:href="#SVGID_1_"  style="overflow:visible;"/>
    </clipPath>
    <path class="st0" d="M47.8,34.6c1.3,0,2.3-1,2.3-2.3"/>
    <path class="st0" d="M47.8,34.6c-1.3,0-2.3-1-2.3-2.3"/>
    <path class="st0" d="M50.2,32.3C50.2,32.3,50.2,32.3,50.2,32.3c0-1.3-1-2.3-2.3-2.3c-1.3,0-2.3,1-2.3,2.3c0,0,0,0,0,0"/>
    <line class="st0" x1="47.8" y1="32.3" x2="47.8" y2="34.6"/>
    <line class="st0" x1="47.8" y1="32.3" x2="47.8" y2="30"/>
    <line class="st0" x1="47.8" y1="32.3" x2="50.2" y2="32.3"/>
    <line class="st0" x1="50.2" y1="32.3" x2="50.2" y2="32.3"/>
    <line class="st0" x1="47.8" y1="32.3" x2="45.5" y2="32.3"/>
    <line class="st0" x1="45.5" y1="32.3" x2="45.5" y2="32.3"/>
    <path class="st0" d="M42.9,20.3C42.9,20.3,42.9,20.3,42.9,20.3c0-1.3-1-2.3-2.3-2.3c-1.3,0-2.3,1-2.3,2.3c0,0,0,0,0,0"/>
    <path class="st0" d="M42.9,20.3c0,1.3-1,2.3-2.3,2.3"/>
    <path class="st0" d="M40.5,22.6c-1.3,0-2.3-1-2.3-2.3"/>
    <line class="st0" x1="40.5" y1="20.3" x2="40.5" y2="22.6"/>
    <line class="st0" x1="40.5" y1="20.3" x2="40.5" y2="18"/>
    <line class="st0" x1="42.9" y1="20.3" x2="42.9" y2="20.3"/>
    <line class="st0" x1="40.5" y1="20.3" x2="38.2" y2="20.3"/>
    <line class="st0" x1="40.5" y1="20.3" x2="42.9" y2="20.3"/>
    <line class="st0" x1="38.2" y1="20.3" x2="38.2" y2="20.3"/>
    <path class="st0" d="M35.7,30.9C35.7,30.9,35.7,30.9,35.7,30.9c0-1.3-1-2.3-2.3-2.3c-1.3,0-2.3,1-2.3,2.3c0,0,0,0,0,0"/>
    <path class="st0" d="M33.3,33.2c1.3,0,2.3-1,2.3-2.3"/>
    <path class="st0" d="M33.3,33.2c-1.3,0-2.3-1-2.3-2.3"/>
    <line class="st0" x1="33.3" y1="33.2" x2="33.3" y2="30.9"/>
    <line class="st0" x1="33.3" y1="30.9" x2="33.3" y2="28.6"/>
    <line class="st0" x1="31" y1="30.9" x2="31" y2="30.9"/>
    <line class="st0" x1="33.3" y1="30.9" x2="35.7" y2="30.9"/>
    <line class="st0" x1="35.7" y1="30.9" x2="35.7" y2="30.9"/>
    <line class="st0" x1="31" y1="30.9" x2="33.3" y2="30.9"/>
    <path class="st0" d="M18.5,39.1c1.3,0,2.3-1,2.3-2.3"/>
    <path class="st0" d="M16.1,36.8c0,1.3,1,2.3,2.3,2.3"/>
    <path class="st0" d="M16.1,36.8C16.1,36.8,16.1,36.8,16.1,36.8c0-1.3,1-2.3,2.3-2.3c1.3,0,2.3,1,2.3,2.3c0,0,0,0,0,0"/>
    <line class="st0" x1="18.5" y1="39.1" x2="18.5" y2="36.8"/>
    <line class="st0" x1="18.5" y1="34.5" x2="18.5" y2="36.8"/>
    <line class="st0" x1="16.1" y1="36.8" x2="18.5" y2="36.8"/>
    <line class="st0" x1="20.8" y1="36.8" x2="20.8" y2="36.8"/>
    <line class="st0" x1="16.1" y1="36.8" x2="16.1" y2="36.8"/>
    <line class="st0" x1="18.5" y1="36.8" x2="20.8" y2="36.8"/>
    <path class="st0" d="M4.8,45.2C4.8,45.2,4.8,45.2,4.8,45.2c0-1.3-1-2.3-2.3-2.3c-1.3,0-2.3,1-2.3,2.3c0,0,0,0,0,0"/>
    <path class="st0" d="M2.5,47.5c-1.3,0-2.3-1-2.3-2.3"/>
    <path class="st0" d="M4.8,45.2c0,1.3-1,2.3-2.3,2.3"/>
    <line class="st0" x1="2.5" y1="45.2" x2="2.5" y2="42.9"/>
    <line class="st0" x1="2.5" y1="45.2" x2="2.5" y2="47.5"/>
    <line class="st0" x1="2.5" y1="45.2" x2="0.2" y2="45.2"/>
    <line class="st0" x1="4.8" y1="45.2" x2="4.8" y2="45.2"/>
    <line class="st0" x1="2.5" y1="45.2" x2="4.8" y2="45.2"/>
    <path class="st0" d="M18.2,49.2c0,1.3-1,2.3-2.3,2.3"/>
    <path class="st0" d="M15.8,51.6c-1.3,0-2.3-1-2.3-2.3"/>
    <path class="st0" d="M18.2,49.2C18.2,49.2,18.2,49.2,18.2,49.2c0-1.3-1-2.3-2.3-2.3s-2.3,1-2.3,2.3c0,0,0,0,0,0"/>
    <line class="st0" x1="15.8" y1="49.2" x2="15.8" y2="47"/>
    <line class="st0" x1="15.8" y1="49.2" x2="15.8" y2="51.6"/>
    <line class="st0" x1="15.8" y1="49.2" x2="18.2" y2="49.2"/>
    <line class="st0" x1="13.5" y1="49.2" x2="13.5" y2="49.2"/>
    <line class="st0" x1="18.2" y1="49.2" x2="18.2" y2="49.2"/>
    <line class="st0" x1="15.8" y1="49.2" x2="13.5" y2="49.2"/>
    <path class="st0" d="M33.9,44.9c0,1.3-1,2.3-2.3,2.3"/>
    <path class="st0" d="M33.9,44.9C33.9,44.9,33.9,44.9,33.9,44.9c0-1.3-1-2.3-2.3-2.3s-2.3,1-2.3,2.3c0,0,0,0,0,0"/>
    <path class="st0" d="M31.5,47.2c-1.3,0-2.3-1-2.3-2.3"/>
    <line class="st0" x1="31.5" y1="44.9" x2="31.5" y2="47.2"/>
    <line class="st0" x1="31.5" y1="44.9" x2="31.5" y2="42.6"/>
    <line class="st0" x1="31.5" y1="44.9" x2="29.2" y2="44.9"/>
    <line class="st0" x1="33.9" y1="44.9" x2="33.9" y2="44.9"/>
    <line class="st0" x1="31.5" y1="44.9" x2="33.9" y2="44.9"/>
    <line class="st0" x1="29.2" y1="44.9" x2="29.2" y2="44.9"/>
    <path class="st0" d="M45.9,50.3c-1.3,0-2.3-1-2.3-2.3"/>
    <path class="st0" d="M48.2,47.9c0,1.3-1,2.3-2.3,2.3"/>
    <path class="st0" d="M48.2,47.9C48.2,47.9,48.2,47.9,48.2,47.9c0-1.3-1-2.3-2.3-2.3c-1.3,0-2.3,1-2.3,2.3c0,0,0,0,0,0"/>
    <line class="st0" x1="45.9" y1="47.9" x2="45.9" y2="45.7"/>
    <line class="st0" x1="45.9" y1="47.9" x2="45.9" y2="50.3"/>
    <line class="st0" x1="45.9" y1="47.9" x2="48.2" y2="47.9"/>
    <line class="st0" x1="45.9" y1="47.9" x2="43.6" y2="47.9"/>
    <line class="st0" x1="43.6" y1="47.9" x2="43.6" y2="47.9"/>
    <line class="st0" x1="48.2" y1="47.9" x2="48.2" y2="47.9"/>
    <path class="st0" d="M16.5,22.9c0,1.3,1,2.3,2.3,2.3"/>
    <path class="st0" d="M21.1,22.9C21.1,22.9,21.1,22.9,21.1,22.9c0-1.3-1-2.3-2.3-2.3c-1.3,0-2.3,1-2.3,2.3c0,0,0,0,0,0"/>
    <path class="st0" d="M18.8,25.3c1.3,0,2.3-1,2.3-2.3"/>
    <line class="st0" x1="18.8" y1="25.3" x2="18.8" y2="22.9"/>
    <line class="st0" x1="18.8" y1="20.7" x2="18.8" y2="22.9"/>
    <line class="st0" x1="16.5" y1="22.9" x2="18.8" y2="22.9"/>
    <line class="st0" x1="16.5" y1="22.9" x2="16.5" y2="22.9"/>
    <line class="st0" x1="21.1" y1="22.9" x2="21.1" y2="22.9"/>
    <line class="st0" x1="21.1" y1="22.9" x2="18.8" y2="22.9"/>
    <path class="st0" d="M7.7,31.7C7.7,31.7,7.7,31.7,7.7,31.7c0-1.3-1-2.3-2.3-2.3S3,30.4,3,31.7c0,0,0,0,0,0"/>
    <path class="st0" d="M5.3,34.1c-1.3,0-2.3-1-2.3-2.3"/>
    <path class="st0" d="M7.7,31.7c0,1.3-1,2.3-2.3,2.3"/>
    <line class="st0" x1="5.3" y1="31.7" x2="5.3" y2="29.5"/>
    <line class="st0" x1="5.3" y1="31.7" x2="5.3" y2="34.1"/>
    <line class="st0" x1="3" y1="31.7" x2="3" y2="31.7"/>
    <line class="st0" x1="5.3" y1="31.7" x2="7.7" y2="31.7"/>
    <line class="st0" x1="5.3" y1="31.7" x2="3" y2="31.7"/>
    <line class="st0" x1="7.7" y1="31.7" x2="7.7" y2="31.7"/>
    <path class="st0" d="M3.6,19.7C3.6,19.7,3.6,19.7,3.6,19.7c0-1.3-1-2.3-2.3-2.3c-0.4,0-0.8,0.1-1.2,0.3"/>
    <path class="st0" d="M3.6,19.7c0,1.3-1,2.3-2.3,2.3"/>
    <path class="st0" d="M0.1,21.7C0.5,21.9,0.9,22,1.3,22"/>
    <line class="st0" x1="1.3" y1="19.7" x2="1.3" y2="17.4"/>
    <line class="st0" x1="1.3" y1="19.7" x2="1.3" y2="22"/>
    <line class="st0" x1="1.3" y1="19.7" x2="0.1" y2="19.7"/>
    <line class="st0" x1="1.3" y1="19.7" x2="3.6" y2="19.7"/>
    <line class="st0" x1="3.6" y1="19.7" x2="3.6" y2="19.7"/>
    <path class="st0" d="M8.5,11.4C8.5,11.4,8.5,11.4,8.5,11.4c0-1.3-1-2.3-2.3-2.3s-2.3,1-2.3,2.3c0,0,0,0,0,0"/>
    <path class="st0" d="M6.2,13.7c1.3,0,2.3-1,2.3-2.3"/>
    <path class="st0" d="M6.2,13.7c-1.3,0-2.3-1-2.3-2.3"/>
    <line class="st0" x1="6.2" y1="11.4" x2="6.2" y2="9.1"/>
    <line class="st0" x1="6.2" y1="11.4" x2="6.2" y2="13.7"/>
    <line class="st0" x1="8.5" y1="11.4" x2="8.5" y2="11.4"/>
    <line class="st0" x1="3.8" y1="11.4" x2="3.8" y2="11.4"/>
    <line class="st0" x1="6.2" y1="11.4" x2="3.8" y2="11.4"/>
    <line class="st0" x1="6.2" y1="11.4" x2="8.5" y2="11.4"/>
    <path class="st0" d="M2.7,5c0,1.3-1,2.3-2.3,2.3"/>
    <path class="st0" d="M2.7,5C2.7,5,2.7,5,2.7,5c0-1.3-1-2.3-2.3-2.3c-0.1,0-0.1,0-0.2,0"/>
    <path class="st0" d="M0.3,7.3c-0.1,0-0.1,0-0.2,0"/>
    <line class="st0" x1="0.3" y1="7.3" x2="0.3" y2="5"/>
    <line class="st0" x1="0.3" y1="2.7" x2="0.3" y2="5"/>
    <line class="st0" x1="2.7" y1="5" x2="2.7" y2="5"/>
    <line class="st0" x1="0.3" y1="5" x2="0.1" y2="5"/>
    <line class="st0" x1="2.7" y1="5" x2="0.3" y2="5"/>
    <path class="st0" d="M13.7,4.7C13.7,4.7,13.7,4.7,13.7,4.7c0-1.3-1-2.3-2.3-2.3S9,3.4,9,4.7c0,0,0,0,0,0"/>
    <path class="st0" d="M11.3,7C10.1,7,9,6,9,4.7"/>
    <path class="st0" d="M13.7,4.7c0,1.3-1,2.3-2.3,2.3"/>
    <line class="st0" x1="11.3" y1="4.7" x2="11.3" y2="7"/>
    <line class="st0" x1="11.3" y1="4.7" x2="11.3" y2="2.4"/>
    <line class="st0" x1="9" y1="4.7" x2="9" y2="4.7"/>
    <line class="st0" x1="11.3" y1="4.7" x2="9" y2="4.7"/>
    <line class="st0" x1="13.7" y1="4.7" x2="13.7" y2="4.7"/>
    <line class="st0" x1="11.3" y1="4.7" x2="13.7" y2="4.7"/>
    <path class="st0" d="M18.7,10.5C18.7,10.5,18.7,10.5,18.7,10.5c0-1.3-1-2.3-2.3-2.3s-2.3,1-2.3,2.3c0,0,0,0,0,0"/>
    <path class="st0" d="M16.3,12.8c-1.3,0-2.3-1-2.3-2.3"/>
    <path class="st0" d="M16.3,12.8c1.3,0,2.3-1,2.3-2.3"/>
    <line class="st0" x1="16.3" y1="10.5" x2="16.3" y2="12.8"/>
    <line class="st0" x1="16.3" y1="10.5" x2="16.3" y2="8.2"/>
    <line class="st0" x1="16.3" y1="10.5" x2="18.7" y2="10.5"/>
    <line class="st0" x1="14" y1="10.5" x2="14" y2="10.5"/>
    <line class="st0" x1="16.3" y1="10.5" x2="14" y2="10.5"/>
    <line class="st0" x1="18.7" y1="10.5" x2="18.7" y2="10.5"/>
    <path class="st0" d="M27.7,14c1.3,0,2.3-1,2.3-2.3"/>
    <path class="st0" d="M25.4,11.7c0,1.3,1,2.3,2.3,2.3"/>
    <path class="st0" d="M30.1,11.7C30.1,11.7,30.1,11.7,30.1,11.7c0-1.3-1-2.3-2.3-2.3c-1.3,0-2.3,1-2.3,2.3c0,0,0,0,0,0"/>
    <line class="st0" x1="27.7" y1="14" x2="27.7" y2="11.7"/>
    <line class="st0" x1="27.7" y1="9.4" x2="27.7" y2="11.7"/>
    <line class="st0" x1="25.4" y1="11.7" x2="25.4" y2="11.7"/>
    <line class="st0" x1="25.4" y1="11.7" x2="27.7" y2="11.7"/>
    <line class="st0" x1="30.1" y1="11.7" x2="27.7" y2="11.7"/>
    <line class="st0" x1="30.1" y1="11.7" x2="30.1" y2="11.7"/>
    <path class="st0" d="M22.5,5.7c-1.3,0-2.3-1-2.3-2.3"/>
    <path class="st0" d="M24.8,3.3c0,1.3-1,2.3-2.3,2.3"/>
    <path class="st0" d="M24.8,3.3C24.8,3.3,24.8,3.3,24.8,3.3c0-1.3-1-2.3-2.3-2.3c-1.3,0-2.3,1-2.3,2.3c0,0,0,0,0,0"/>
    <line class="st0" x1="22.5" y1="3.3" x2="22.5" y2="1.1"/>
    <line class="st0" x1="22.5" y1="3.3" x2="22.5" y2="5.7"/>
    <line class="st0" x1="22.5" y1="3.3" x2="24.8" y2="3.3"/>
    <line class="st0" x1="24.8" y1="3.3" x2="24.8" y2="3.3"/>
    <line class="st0" x1="20.1" y1="3.3" x2="20.1" y2="3.3"/>
    <line class="st0" x1="22.5" y1="3.3" x2="20.1" y2="3.3"/>
    <path class="st0" d="M34.5,4.5c0,1.3-1,2.3-2.3,2.3"/>
    <path class="st0" d="M34.5,4.5C34.5,4.5,34.5,4.5,34.5,4.5c0-1.3-1-2.3-2.3-2.3c-1.3,0-2.3,1-2.3,2.3c0,0,0,0,0,0"/>
    <path class="st0" d="M32.2,6.8c-1.3,0-2.3-1-2.3-2.3"/>
    <line class="st0" x1="32.2" y1="4.5" x2="32.2" y2="6.8"/>
    <line class="st0" x1="32.2" y1="4.5" x2="32.2" y2="2.2"/>
    <line class="st0" x1="32.2" y1="4.5" x2="29.9" y2="4.5"/>
    <line class="st0" x1="29.9" y1="4.5" x2="29.9" y2="4.5"/>
    <line class="st0" x1="34.5" y1="4.5" x2="34.5" y2="4.5"/>
    <line class="st0" x1="32.2" y1="4.5" x2="34.5" y2="4.5"/>
    <path class="st0" d="M37.8,12.5c-1.3,0-2.3-1-2.3-2.3"/>
    <path class="st0" d="M40.2,10.2c0,1.3-1,2.3-2.3,2.3"/>
    <path class="st0" d="M40.2,10.2C40.2,10.2,40.2,10.2,40.2,10.2c0-1.3-1-2.3-2.3-2.3c-1.3,0-2.3,1-2.3,2.3c0,0,0,0,0,0"/>
    <line class="st0" x1="37.8" y1="10.2" x2="37.8" y2="12.5"/>
    <line class="st0" x1="37.8" y1="10.2" x2="37.8" y2="7.9"/>
    <line class="st0" x1="37.8" y1="10.2" x2="40.2" y2="10.2"/>
    <line class="st0" x1="35.5" y1="10.2" x2="35.5" y2="10.2"/>
    <line class="st0" x1="37.8" y1="10.2" x2="35.5" y2="10.2"/>
    <line class="st0" x1="40.2" y1="10.2" x2="40.2" y2="10.2"/>
    <path class="st0" d="M45.2,3.5C45.2,3.5,45.2,3.5,45.2,3.5c0-1.3-1-2.3-2.3-2.3c-1.3,0-2.3,1-2.3,2.3c0,0,0,0,0,0"/>
    <path class="st0" d="M42.8,5.8c-1.3,0-2.3-1-2.3-2.3"/>
    <path class="st0" d="M42.8,5.8c1.3,0,2.3-1,2.3-2.3"/>
    <line class="st0" x1="42.8" y1="3.5" x2="42.8" y2="1.2"/>
    <line class="st0" x1="42.8" y1="3.5" x2="42.8" y2="5.8"/>
    <line class="st0" x1="42.8" y1="3.5" x2="40.5" y2="3.5"/>
    <line class="st0" x1="42.8" y1="3.5" x2="45.2" y2="3.5"/>
    <line class="st0" x1="45.2" y1="3.5" x2="45.2" y2="3.5"/>
    <line class="st0" x1="40.5" y1="3.5" x2="40.5" y2="3.5"/>
    <path class="st0" d="M51.5,10.3C51.5,10.3,51.5,10.3,51.5,10.3c0-1.3-1-2.3-2.3-2.3c-1.3,0-2.3,1-2.3,2.3c0,0,0,0,0,0"/>
    <path class="st0" d="M49.2,12.6c1.3,0,2.3-1,2.3-2.3"/>
    <path class="st0" d="M49.2,12.6c-1.3,0-2.3-1-2.3-2.3"/>
    <line class="st0" x1="49.2" y1="10.3" x2="49.2" y2="8"/>
    <line class="st0" x1="49.2" y1="10.3" x2="49.2" y2="12.6"/>
    <line class="st0" x1="49.2" y1="10.3" x2="46.8" y2="10.3"/>
    <line class="st0" x1="51.5" y1="10.3" x2="51.5" y2="10.3"/>
    <line class="st0" x1="46.8" y1="10.3" x2="46.8" y2="10.3"/>
    <line class="st0" x1="49.2" y1="10.3" x2="51.5" y2="10.3"/>
    <path class="st0" d="M52.9,19.7c0,0.9,0.5,1.6,1.2,2"/>
    <path class="st0" d="M54.1,17.7c-0.7,0.4-1.2,1.2-1.2,2c0,0,0,0,0,0"/>
    <line class="st0" x1="52.9" y1="19.7" x2="54.1" y2="19.7"/>
    <line class="st0" x1="52.9" y1="19.7" x2="52.9" y2="19.7"/>
    <path class="st0" d="M52,5c0,1.2,0.9,2.2,2.1,2.3"/>
    <path class="st0" d="M52,5C52,5,52,5,52,5c0-1.2,0.9-2.2,2.1-2.3"/>
    <line class="st0" x1="52" y1="5" x2="52" y2="5"/>
    <line class="st0" x1="52" y1="5" x2="54.1" y2="5"/>
</g>
</svg>
