<!-- Generator: Adobe Illustrator 22.1.0, SVG Export Plug-In  -->
<svg version="1.1"
     xmlns="http://www.w3.org/2000/svg" xmlns:xlink="http://www.w3.org/1999/xlink" xmlns:a="http://ns.adobe.com/AdobeSVGViewerExtensions/3.0/"
     x="0px" y="0px" width="54px" height="50px" viewBox="0 0 54 50" style="enable-background:new 0 0 54 50;" xml:space="preserve">
<defs>
</defs>
<path d="M4.8,0.3c-2.6-0.1-3.5,1.2,0,1.2S7.9,0.1,4.8,0.3z"/>
<path d="M11.5,1.6C12,2,12.8,2.6,14.6,2c2.4-0.8,1.2-1.8-1.2-1.9C11,0.3,11,1.3,11.5,1.6z"/>
<path d="M22.5,0.3c-4,0.3-2.2,1.8,0.4,1.6S25.4,0.4,22.5,0.3z"/>
<path d="M31.1,0c-2.6,0.1-3,1.5,0.2,1.4S35-0.1,31.1,0z"/>
<path d="M40.8,1.9c2.4-0.1,2.8-1.2,0-1.9C35.8-0.1,38.4,2,40.8,1.9z"/>
<path d="M48.1,0c-2.8,0.2-2.1,1.6,0.4,1.5S50.5,0,48.1,0z"/>
<path d="M0,6.2c0.3,0,0.6,0.1,1,0.1c2.6-0.1,2-1.8-0.8-1.8c-0.1,0-0.2,0-0.2,0"/>
<path d="M10.4,4.8c-0.4-1-0.9-1-2.8-0.4C5.2,4.9,7.1,6,8.9,5.9S10.8,5.8,10.4,4.8z"/>
<path d="M17.4,4.5c-3.6,0-2.2,1.6,0.2,1.6S20.2,4.9,17.4,4.5z"/>
<path d="M27.6,4.6c-4-1.1-3,1.4-0.6,1.4S29.6,5.5,27.6,4.6z"/>
<path d="M35.9,4.4c-4.1,0.2-1,1.9,1.6,1.4S38.1,4.6,35.9,4.4z"/>
<path d="M44.1,5.5c3.1-0.1,2.6-1.4-0.1-1.4C41.5,4,41,5.6,44.1,5.5z"/>
<path d="M6,42.6c1.8-0.1,1.9-0.1,1.5-1.1s-0.9-1-2.8-0.4C2.4,41.6,4.2,42.8,6,42.6z"/>
<path d="M14.8,42.9c2.5,0,2.6-1.2-0.2-1.6C10.9,41.3,12.2,42.9,14.8,42.9z"/>
<path d="M24.1,42.8c2.4,0,2.6-0.5,0.6-1.4C20.8,40.3,21.8,42.8,24.1,42.8z"/>
<path d="M34.6,42.5c2.6-0.5,0.6-1.1-1.6-1.4C28.9,41.4,32,43,34.6,42.5z"/>
<path d="M41.2,42.3c3.1-0.1,2.6-1.4-0.1-1.4C38.6,40.8,38.1,42.4,41.2,42.3z"/>
<path d="M51.1,42.6c2.9,0.1,2.1-1.5-0.5-1.6S47,42.6,51.1,42.6z"/>
<path d="M45.6,10.9c-1.9,0.4-2.1,1.6,0.9,1.6c3.1,0,2.6-0.6,1.8-1.2S47.5,10.5,45.6,10.9z"/>
<path d="M34.5,12.5c-1.9,0-3,2,0.2,1.9C38.6,14.6,36.4,12.5,34.5,12.5z"/>
<path d="M9.3,49.7c3.9,0.2,1.6-1.9-0.2-1.9S6.1,49.9,9.3,49.7z"/>
<path d="M16.9,11.5c1.5,0.2,1.8,0.2,2.6-0.5s0.4-1.1-1.6-1.1C15.6,9.9,15.4,11.3,16.9,11.5z"/>
<path d="M44.8,47.3c1.5,0.2,1.8,0.2,2.6-0.5s0.4-1.1-1.6-1.1C43.5,45.6,43.2,47,44.8,47.3z"/>
<path d="M4.4,10.6c2.4-0.4,2-1.5-0.2-1.8C1.4,8.6,2,11,4.4,10.6z"/>
<path d="M8.1,16.6c-2.9,0-2.9,1.6,0.2,1.6S10.3,16.5,8.1,16.6z"/>
<path d="M33.9,23.5c3.1,0,2-1.8-0.2-1.6C30.8,21.9,30.8,23.5,33.9,23.5z"/>
<path d="M28.1,18.1c1.5-0.5-0.1-1.5-2-1.8C20.9,17.1,25.2,19.1,28.1,18.1z"/>
<path d="M48,23.6c2.2-0.8,0.8-1.5-1.5-1.5c0,0-1.2,0-1.9,0.2C43,24,45.8,24.3,48,23.6z"/>
<path d="M20.7,25.3c3,0.1,2.9-1.5,0-1.6C17.5,23.6,17.7,25.1,20.7,25.3z"/>
<path d="M46.6,33.5c-3.1,0.1-2,1.8,0.4,1.8S49.8,33.4,46.6,33.5z"/>
<path d="M36,32c2.8,0,2.8-1.7-0.1-1.7C32.8,30.1,33.2,32,36,32z"/>
<path d="M22.1,34.4c2.5,0,2.2-1.8-0.5-1.8C18.2,33,19.6,34.4,22.1,34.4z"/>
<path d="M8.1,29.3c2.6,0,3-1.8-0.2-1.8C4.9,27.6,5.5,29.3,8.1,29.3z"/>
<path d="M29.2,50c2.6,0,3-1.8-0.2-1.8C26,48.4,26.6,50,29.2,50z"/>
<path d="M3.9,36.8c2.5-0.1,2.5-1.5-0.4-1.4C0.1,35.6,1.4,36.9,3.9,36.8z"/>
<path d="M54,4.5c-2.2,0.1-1.8,1.4,0,1.7"/>
</svg>
