<svg id="Layer_1" data-name="Layer 1" xmlns="http://www.w3.org/2000/svg" width="53.98" height="53.98" viewBox="0 0 53.98 53.98"><defs><style>.cls-1{fill:none;}</style></defs><title>Artboard 37</title><rect class="cls-1" x="33.43" y="-3.8" width="53.98" height="53.98"/><path d="M44.93-.2c.5.38,1.25,1,3.13.38,2.4-.8,1.25-1.75-1.25-1.88C44.43-1.57,44.43-.57,44.93-.2Z"/><path d="M55.93-1.57c-4,.25-2.25,1.75.38,1.62S58.81-1.45,55.93-1.57Z"/><path d="M33.43,4.37a5.27,5.27,0,0,0,1,.06c2.63-.13,2-1.75-.75-1.75h-.25"/><path d="M43.81,2.93c-.38-1-.88-1-2.75-.38-2.38.5-.5,1.63,1.25,1.5S44.18,3.93,43.81,2.93Z"/><path d="M50.81,2.68c-3.63,0-2.25,1.62.25,1.62S53.68,3.05,50.81,2.68Z"/><path d="M39.43,40.8c1.75-.12,1.88-.12,1.5-1.12s-.87-1-2.75-.38C35.81,39.8,37.68,40.93,39.43,40.8Z"/><path d="M48.18,41.05c2.5,0,2.63-1.25-.25-1.62C44.31,39.43,45.68,41.05,48.18,41.05Z"/><path d="M42.76,47.92c3.88.25,1.63-1.88-.25-1.88S39.51,48,42.76,47.92Z"/><path d="M50.31,9.68c1.5.25,1.75.25,2.62-.5s.38-1.13-1.62-1.13C49.06,8.05,48.81,9.43,50.31,9.68Z"/><path d="M37.81,8.8c2.37-.37,2-1.5-.25-1.75C34.81,6.8,35.43,9.18,37.81,8.8Z"/><path d="M41.52,14.8c-2.88,0-2.88,1.63.25,1.63S43.77,14.68,41.52,14.8Z"/><path d="M54.1,23.43c3,.12,2.88-1.5,0-1.63C51,21.8,51.1,23.3,54.1,23.43Z"/><path d="M55.56,32.55c2.5,0,2.25-1.75-.5-1.75C51.68,31.18,53.06,32.55,55.56,32.55Z"/><path d="M41.56,27.43c2.62,0,3-1.75-.25-1.75C38.31,25.8,38.93,27.43,41.56,27.43Z"/><path d="M37.31,34.93c2.5-.13,2.5-1.5-.38-1.38C33.56,33.8,34.81,35.05,37.31,34.93Z"/><rect class="cls-1" x="33.43" y="50.18" width="53.98" height="53.98"/><path d="M38.18,52.4c-2.62-.12-3.5,1.25,0,1.25S41.31,52.28,38.18,52.4Z"/><path d="M44.93,53.78c.5.37,1.25,1,3.13.37,2.4-.8,1.25-1.75-1.25-1.87C44.43,52.4,44.43,53.4,44.93,53.78Z"/><path d="M55.93,52.4c-4,.25-2.25,1.75.38,1.63S58.81,52.53,55.93,52.4Z"/><rect class="cls-1" x="-20.54" y="-3.8" width="53.98" height="53.98"/><path d="M2-1.57C-2-1.32-.29.18,2.33.05S4.83-1.45,2-1.57Z"/><path d="M20.21.05c2.37-.12,2.75-1.25,0-1.87C15.21-1.95,17.83.18,20.21.05Z"/><path d="M7.08,2.8c-4-1.12-3,1.38-.62,1.38S9.08,3.68,7.08,2.8Z"/><path d="M15.33,2.55c-4.12.25-1,1.88,1.63,1.38S17.58,2.8,15.33,2.55Z"/><path d="M23.58,3.68c3.13-.13,2.63-1.38-.12-1.38C21,2.18,20.46,3.8,23.58,3.68Z"/><path d="M3.58,40.93c2.38,0,2.63-.5.63-1.38C.21,38.43,1.21,40.93,3.58,40.93Z"/><path d="M14.08,40.68c2.63-.5.63-1.13-1.62-1.38C8.33,39.55,11.46,41.18,14.08,40.68Z"/><path d="M20.71,40.43c3.12-.13,2.62-1.38-.13-1.38C18.08,38.93,17.58,40.55,20.71,40.43Z"/><path d="M30.58,40.8c2.88.13,2.13-1.5-.5-1.62S26.46,40.8,30.58,40.8Z"/><path d="M25.08,9.05c-1.87.38-2.12,1.63.88,1.63s2.62-.63,1.75-1.25S27,8.68,25.08,9.05Z"/><path d="M14,10.68c-1.88,0-3,2,.25,1.87C18.08,12.8,15.83,10.68,14,10.68Z"/><path d="M24.21,45.43c1.5.25,1.75.25,2.62-.5s.38-1.13-1.62-1.13C23,43.8,22.71,45.18,24.21,45.43Z"/><path d="M13.37,21.72c3.13,0,2-1.75-.25-1.63C10.25,20.09,10.25,21.72,13.37,21.72Z"/><path d="M7.58,16.3c1.54-.53-.12-1.5-2-1.75C.33,15.3,4.71,17.3,7.58,16.3Z"/><path d="M27.46,21.76c2.25-.75.75-1.5-1.5-1.5a6.82,6.82,0,0,0-1.88.25C22.46,22.13,25.21,22.51,27.46,21.76Z"/><path d="M.12,23.43c3,.12,2.88-1.5,0-1.63C-3,21.8-2.88,23.3.12,23.43Z"/><path d="M26.08,31.68c-3.12.12-2,1.75.38,1.75S29.21,31.55,26.08,31.68Z"/><path d="M15.46,30.18c2.75,0,2.75-1.75-.13-1.75C12.21,28.3,12.71,30.18,15.46,30.18Z"/><path d="M1.58,32.55c2.5,0,2.25-1.75-.5-1.75C-2.29,31.18-.92,32.55,1.58,32.55Z"/><path d="M8.71,48.18c2.62,0,3-1.75-.25-1.75C5.46,46.55,6.08,48.18,8.71,48.18Z"/><path d="M33.43,2.68c-2.19.09-1.76,1.39,0,1.69"/><rect class="cls-1" x="-20.54" y="50.18" width="53.98" height="53.98"/><path d="M2,52.4c-4,.25-2.25,1.75.37,1.63S4.83,52.53,2,52.4Z"/><path d="M10.58,52.15c-2.62.13-3,1.5.25,1.38S14.46,52,10.58,52.15Z"/><path d="M20.21,54c2.37-.13,2.75-1.25,0-1.88C15.21,52,17.83,54.15,20.21,54Z"/><path d="M27.58,52.15c-2.75.25-2.12,1.63.38,1.5S30,52.15,27.58,52.15Z"/><rect class="cls-1" width="53.98" height="53.98"/></svg>