<svg id="Layer_1" data-name="Layer 1" xmlns="http://www.w3.org/2000/svg" width="39.08" height="39.08" viewBox="0 0 39.08 39.08"><defs><style>.cls-1,.cls-2{fill:none;}.cls-1{stroke:#000;stroke-width:0.3px;}</style></defs><title>Artboard 37</title><line class="cls-1" x1="16.09" y1="-23.17" x2="54.95" y2="15.65"/><line class="cls-1" x1="18.68" y1="-23.17" x2="54.95" y2="13.06"/><line class="cls-1" x1="21.27" y1="-23.17" x2="54.95" y2="10.47"/><line class="cls-1" x1="23.86" y1="-23.17" x2="54.95" y2="7.88"/><line class="cls-1" x1="26.45" y1="-23.17" x2="54.95" y2="5.3"/><line class="cls-1" x1="29.04" y1="-23.17" x2="54.95" y2="2.71"/><line class="cls-1" x1="31.63" y1="-23.17" x2="54.95" y2="0.12"/><line class="cls-1" x1="16.08" y1="-20.59" x2="52.4" y2="15.69"/><line class="cls-1" x1="16.08" y1="-18" x2="49.81" y2="15.69"/><line class="cls-1" x1="16.08" y1="-15.41" x2="47.22" y2="15.69"/><line class="cls-1" x1="16.08" y1="-12.82" x2="44.62" y2="15.69"/><line class="cls-1" x1="16.08" y1="-10.23" x2="42.03" y2="15.69"/><line class="cls-1" x1="16.08" y1="-7.64" x2="39.44" y2="15.69"/><line class="cls-1" x1="16.08" y1="-5.05" x2="36.85" y2="15.69"/><line class="cls-1" x1="16.08" y1="-2.46" x2="34.26" y2="15.69"/><line class="cls-1" x1="16.08" y1="0.12" x2="31.67" y2="15.69"/><line class="cls-1" x1="16.08" y1="2.71" x2="29.08" y2="15.69"/><line class="cls-1" x1="16.08" y1="5.3" x2="26.48" y2="15.69"/><line class="cls-1" x1="16.08" y1="7.89" x2="23.89" y2="15.69"/><line class="cls-1" x1="16.08" y1="10.48" x2="21.3" y2="15.69"/><line class="cls-1" x1="16.08" y1="13.07" x2="18.71" y2="15.69"/><rect class="cls-2" x="16.08" y="-23.17" width="38.86" height="38.86"/><line class="cls-1" x1="16.09" y1="15.69" x2="54.95" y2="54.51"/><line class="cls-1" x1="18.68" y1="15.69" x2="54.95" y2="51.92"/><line class="cls-1" x1="21.27" y1="15.69" x2="54.95" y2="49.34"/><line class="cls-1" x1="23.86" y1="15.69" x2="54.95" y2="46.75"/><line class="cls-1" x1="26.45" y1="15.69" x2="54.95" y2="44.16"/><line class="cls-1" x1="29.04" y1="15.69" x2="54.95" y2="41.57"/><line class="cls-1" x1="31.63" y1="15.69" x2="54.95" y2="38.99"/><line class="cls-1" x1="34.22" y1="15.69" x2="54.95" y2="36.4"/><line class="cls-1" x1="36.81" y1="15.69" x2="54.95" y2="33.81"/><line class="cls-1" x1="16.08" y1="18.28" x2="52.4" y2="54.55"/><line class="cls-1" x1="16.08" y1="20.87" x2="49.81" y2="54.55"/><line class="cls-1" x1="16.08" y1="23.45" x2="47.22" y2="54.55"/><line class="cls-1" x1="16.08" y1="26.04" x2="44.62" y2="54.55"/><line class="cls-1" x1="16.08" y1="28.63" x2="42.03" y2="54.55"/><line class="cls-1" x1="16.08" y1="31.22" x2="39.44" y2="54.55"/><line class="cls-1" x1="16.08" y1="33.81" x2="36.85" y2="54.55"/><line class="cls-1" x1="16.08" y1="36.4" x2="34.26" y2="54.55"/><line class="cls-1" x1="16.08" y1="38.99" x2="31.67" y2="54.55"/><rect class="cls-2" x="16.08" y="15.69" width="38.86" height="38.86"/><line class="cls-1" x1="-22.78" y1="-23.17" x2="16.08" y2="15.65"/><line class="cls-1" x1="-20.19" y1="-23.17" x2="16.08" y2="13.06"/><line class="cls-1" x1="-17.6" y1="-23.17" x2="16.08" y2="10.47"/><line class="cls-1" x1="-15.01" y1="-23.17" x2="16.08" y2="7.88"/><line class="cls-1" x1="-12.42" y1="-23.17" x2="16.08" y2="5.3"/><line class="cls-1" x1="-9.83" y1="-23.17" x2="16.08" y2="2.71"/><line class="cls-1" x1="-7.23" y1="-23.17" x2="16.08" y2="0.12"/><line class="cls-1" x1="-22.78" y1="-20.59" x2="13.54" y2="15.69"/><line class="cls-1" x1="-22.78" y1="-18" x2="10.95" y2="15.69"/><line class="cls-1" x1="-22.78" y1="-15.41" x2="8.35" y2="15.69"/><line class="cls-1" x1="-22.78" y1="-12.82" x2="5.76" y2="15.69"/><line class="cls-1" x1="-22.78" y1="-10.23" x2="3.17" y2="15.69"/><line class="cls-1" x1="-22.78" y1="-7.64" x2="0.58" y2="15.69"/><rect class="cls-2" x="-22.78" y="-23.17" width="38.86" height="38.86"/><line class="cls-1" x1="-22.78" y1="15.69" x2="16.08" y2="54.51"/><line class="cls-1" x1="-20.19" y1="15.69" x2="16.08" y2="51.92"/><line class="cls-1" x1="-17.6" y1="15.69" x2="16.08" y2="49.34"/><line class="cls-1" x1="-15.01" y1="15.69" x2="16.08" y2="46.75"/><line class="cls-1" x1="-12.42" y1="15.69" x2="16.08" y2="44.16"/><line class="cls-1" x1="-9.83" y1="15.69" x2="16.08" y2="41.57"/><line class="cls-1" x1="-7.23" y1="15.69" x2="16.08" y2="38.99"/><line class="cls-1" x1="-4.64" y1="15.69" x2="16.08" y2="36.4"/><line class="cls-1" x1="-2.05" y1="15.69" x2="16.08" y2="33.81"/><line class="cls-1" x1="0.54" y1="15.69" x2="16.08" y2="31.22"/><line class="cls-1" x1="3.13" y1="15.69" x2="16.08" y2="28.63"/><line class="cls-1" x1="5.72" y1="15.69" x2="16.08" y2="26.05"/><line class="cls-1" x1="8.31" y1="15.69" x2="16.08" y2="23.46"/><line class="cls-1" x1="10.9" y1="15.69" x2="16.08" y2="20.87"/><line class="cls-1" x1="13.49" y1="15.69" x2="16.08" y2="18.28"/><line class="cls-1" x1="-22.78" y1="18.28" x2="13.54" y2="54.55"/><line class="cls-1" x1="-22.78" y1="20.87" x2="10.95" y2="54.55"/><line class="cls-1" x1="-22.78" y1="23.45" x2="8.35" y2="54.55"/><line class="cls-1" x1="-22.78" y1="26.04" x2="5.76" y2="54.55"/><line class="cls-1" x1="-22.78" y1="28.63" x2="3.17" y2="54.55"/><line class="cls-1" x1="-22.78" y1="31.22" x2="0.58" y2="54.55"/><rect class="cls-2" x="-22.78" y="15.69" width="38.86" height="38.86"/><rect class="cls-2" width="39.08" height="39.08"/></svg>