<!-- Generator: Adobe Illustrator 22.1.0, SVG Export Plug-In  -->
<svg version="1.1"
     xmlns="http://www.w3.org/2000/svg" xmlns:xlink="http://www.w3.org/1999/xlink" xmlns:a="http://ns.adobe.com/AdobeSVGViewerExtensions/3.0/"
     x="0px" y="0px" width="39.1px" height="39.1px" viewBox="0 0 39.1 39.1" style="enable-background:new 0 0 39.1 39.1;"
     xml:space="preserve">
<style type="text/css">
    .st0{clip-path:url(#SVGID_2_);fill:none;stroke:#000000;stroke-width:0.3;}
    .st1{clip-path:url(#SVGID_4_);fill:none;stroke:#000000;stroke-width:0.3;}
</style>
<defs>
</defs>
<g>
    <defs>
        <rect id="SVGID_1_" x="0.1" y="0.1" width="38.9" height="38.9"/>
    </defs>
    <clipPath id="SVGID_2_">
        <use xlink:href="#SVGID_1_"  style="overflow:visible;"/>
    </clipPath>
    <line class="st0" x1="0.1" y1="0.1" x2="39" y2="38.9"/>
    <line class="st0" x1="2.7" y1="0.1" x2="39" y2="36.3"/>
    <line class="st0" x1="5.3" y1="0.1" x2="39" y2="33.8"/>
    <line class="st0" x1="7.9" y1="0.1" x2="39" y2="31.2"/>
    <line class="st0" x1="10.5" y1="0.1" x2="39" y2="28.6"/>
    <line class="st0" x1="13.1" y1="0.1" x2="39" y2="26"/>
    <line class="st0" x1="15.6" y1="0.1" x2="39" y2="23.4"/>
    <line class="st0" x1="18.2" y1="0.1" x2="39" y2="20.8"/>
    <line class="st0" x1="20.8" y1="0.1" x2="39" y2="18.2"/>
    <line class="st0" x1="23.4" y1="0.1" x2="39" y2="15.6"/>
    <line class="st0" x1="26" y1="0.1" x2="39" y2="13.1"/>
    <line class="st0" x1="28.6" y1="0.1" x2="39" y2="10.5"/>
    <line class="st0" x1="31.2" y1="0.1" x2="39" y2="7.9"/>
    <line class="st0" x1="33.8" y1="0.1" x2="39" y2="5.3"/>
    <line class="st0" x1="36.4" y1="0.1" x2="39" y2="2.7"/>
    <line class="st0" x1="0.1" y1="2.7" x2="36.4" y2="39"/>
    <line class="st0" x1="0.1" y1="5.3" x2="33.8" y2="39"/>
    <line class="st0" x1="0.1" y1="7.9" x2="31.2" y2="39"/>
    <line class="st0" x1="0.1" y1="10.5" x2="28.6" y2="39"/>
    <line class="st0" x1="0.1" y1="13" x2="26.1" y2="39"/>
    <line class="st0" x1="0.1" y1="15.6" x2="23.5" y2="39"/>
    <line class="st0" x1="0.1" y1="18.2" x2="20.9" y2="39"/>
    <line class="st0" x1="0.1" y1="20.8" x2="18.3" y2="39"/>
    <line class="st0" x1="0.1" y1="23.4" x2="15.7" y2="39"/>
    <line class="st0" x1="0.1" y1="26" x2="13.1" y2="39"/>
    <line class="st0" x1="0.1" y1="28.6" x2="10.5" y2="39"/>
    <line class="st0" x1="0.1" y1="31.2" x2="7.9" y2="39"/>
    <line class="st0" x1="0.1" y1="33.8" x2="5.3" y2="39"/>
    <line class="st0" x1="0.1" y1="36.3" x2="2.7" y2="39"/>
</g>
</svg>
