<!-- Generator: Adobe Illustrator 22.1.0, SVG Export Plug-In  -->
<svg version="1.1"
     xmlns="http://www.w3.org/2000/svg" xmlns:xlink="http://www.w3.org/1999/xlink" xmlns:a="http://ns.adobe.com/AdobeSVGViewerExtensions/3.0/"
     x="0px" y="0px" width="46.8px" height="44.1px" viewBox="0 0 46.8 44.1" style="enable-background:new 0 0 46.8 44.1;"
     xml:space="preserve">
<style type="text/css">
    .st0{fill:none;stroke:#000000;stroke-width:0.3;}
    .st1{fill:none;stroke:#000000;stroke-width:0.7;stroke-linecap:round;}
</style>
<defs>
</defs>
<line class="st0" x1="7.7" y1="0.2" x2="1.1" y2="0.2"/>
<line class="st0" x1="10.3" y1="0.2" x2="17" y2="0.2"/>
<line class="st0" x1="19.8" y1="0.2" x2="26.5" y2="0.2"/>
<line class="st0" x1="29.3" y1="0.2" x2="35.9" y2="0.2"/>
<line class="st0" x1="38.6" y1="0.2" x2="45.2" y2="0.2"/>
<line class="st0" x1="0" y1="5.9" x2="3.1" y2="5.9"/>
<line class="st0" x1="12.4" y1="5.9" x2="5.8" y2="5.9"/>
<line class="st0" x1="21.9" y1="5.9" x2="15.3" y2="5.9"/>
<line class="st0" x1="31.3" y1="5.9" x2="24.7" y2="5.9"/>
<line class="st0" x1="40.7" y1="5.9" x2="34" y2="5.9"/>
<line class="st0" x1="46.8" y1="5.9" x2="43.1" y2="5.9"/>
<line class="st0" x1="7.7" y1="11.8" x2="1.1" y2="11.8"/>
<line class="st0" x1="17" y1="11.8" x2="10.3" y2="11.8"/>
<line class="st0" x1="19.8" y1="11.8" x2="26.5" y2="11.8"/>
<line class="st0" x1="29.3" y1="11.8" x2="35.9" y2="11.8"/>
<line class="st0" x1="38.6" y1="11.8" x2="45.2" y2="11.8"/>
<line class="st0" x1="3.1" y1="17.6" x2="0" y2="17.6"/>
<line class="st0" x1="12.4" y1="17.6" x2="5.8" y2="17.6"/>
<line class="st0" x1="21.9" y1="17.6" x2="15.3" y2="17.6"/>
<line class="st0" x1="31.3" y1="17.6" x2="24.7" y2="17.6"/>
<line class="st0" x1="40.7" y1="17.6" x2="34" y2="17.6"/>
<line class="st0" x1="43.1" y1="17.6" x2="46.8" y2="17.6"/>
<line class="st0" x1="1.1" y1="23.4" x2="7.7" y2="23.4"/>
<line class="st0" x1="17" y1="23.4" x2="10.3" y2="23.4"/>
<line class="st0" x1="26.5" y1="23.4" x2="19.8" y2="23.4"/>
<line class="st0" x1="29.3" y1="23.4" x2="35.9" y2="23.4"/>
<line class="st0" x1="38.6" y1="23.4" x2="45.2" y2="23.4"/>
<line class="st0" x1="3.1" y1="29.2" x2="0" y2="29.2"/>
<line class="st0" x1="12.4" y1="29.2" x2="5.8" y2="29.2"/>
<line class="st0" x1="15.3" y1="29.2" x2="21.9" y2="29.2"/>
<line class="st0" x1="31.3" y1="29.2" x2="24.7" y2="29.2"/>
<line class="st0" x1="34" y1="29.2" x2="40.7" y2="29.2"/>
<line class="st0" x1="43.1" y1="29.2" x2="46.8" y2="29.2"/>
<line class="st0" x1="7.7" y1="35" x2="1.1" y2="35"/>
<line class="st0" x1="17" y1="35" x2="10.3" y2="35"/>
<line class="st0" x1="19.8" y1="35" x2="26.5" y2="35"/>
<line class="st0" x1="29.3" y1="35" x2="35.9" y2="35"/>
<line class="st0" x1="38.6" y1="35" x2="45.2" y2="35"/>
<line class="st0" x1="3.1" y1="40.8" x2="0" y2="40.8"/>
<line class="st0" x1="5.8" y1="40.8" x2="12.4" y2="40.8"/>
<line class="st0" x1="21.9" y1="40.8" x2="15.3" y2="40.8"/>
<line class="st0" x1="31.3" y1="40.8" x2="24.7" y2="40.8"/>
<line class="st0" x1="40.7" y1="40.8" x2="34" y2="40.8"/>
<line class="st0" x1="43.1" y1="40.8" x2="46.8" y2="40.8"/>
<line class="st1" x1="1.1" y1="3.1" x2="1.1" y2="3.1"/>
<line class="st1" x1="4.7" y1="3.1" x2="4.7" y2="3.1"/>
<line class="st1" x1="2.9" y1="3.1" x2="2.9" y2="3.1"/>
<line class="st1" x1="8.3" y1="3.1" x2="8.3" y2="3.1"/>
<line class="st1" x1="6.5" y1="3.1" x2="6.5" y2="3.1"/>
<line class="st1" x1="11.9" y1="3.1" x2="11.9" y2="3.1"/>
<line class="st1" x1="10.1" y1="3.1" x2="10.1" y2="3.1"/>
<line class="st1" x1="15.5" y1="3.1" x2="15.5" y2="3.1"/>
<line class="st1" x1="13.7" y1="3.1" x2="13.7" y2="3.1"/>
<line class="st1" x1="19.1" y1="3.1" x2="19.1" y2="3.1"/>
<line class="st1" x1="17.3" y1="3.1" x2="17.3" y2="3.1"/>
<line class="st1" x1="22.7" y1="3.1" x2="22.7" y2="3.1"/>
<line class="st1" x1="20.9" y1="3.1" x2="20.9" y2="3.1"/>
<line class="st1" x1="26.3" y1="3.1" x2="26.3" y2="3.1"/>
<line class="st1" x1="24.5" y1="3.1" x2="24.5" y2="3.1"/>
<line class="st1" x1="29.9" y1="3.1" x2="29.9" y2="3.1"/>
<line class="st1" x1="28.1" y1="3.1" x2="28.1" y2="3.1"/>
<line class="st1" x1="33.4" y1="3.1" x2="33.4" y2="3.1"/>
<line class="st1" x1="31.7" y1="3.1" x2="31.7" y2="3.1"/>
<line class="st1" x1="37" y1="3.1" x2="37" y2="3.1"/>
<line class="st1" x1="35.2" y1="3.1" x2="35.2" y2="3.1"/>
<line class="st1" x1="40.6" y1="3.1" x2="40.6" y2="3.1"/>
<line class="st1" x1="38.8" y1="3.1" x2="38.8" y2="3.1"/>
<line class="st1" x1="44.2" y1="3.1" x2="44.2" y2="3.1"/>
<line class="st1" x1="42.4" y1="3.1" x2="42.4" y2="3.1"/>
<line class="st1" x1="46" y1="3.1" x2="46" y2="3.1"/>
<line class="st1" x1="1.1" y1="9" x2="1.1" y2="9"/>
<line class="st1" x1="4.7" y1="9" x2="4.7" y2="9"/>
<line class="st1" x1="2.9" y1="9" x2="2.9" y2="9"/>
<line class="st1" x1="8.3" y1="9" x2="8.3" y2="9"/>
<line class="st1" x1="6.5" y1="9" x2="6.5" y2="9"/>
<line class="st1" x1="11.9" y1="9" x2="11.9" y2="9"/>
<line class="st1" x1="10.1" y1="9" x2="10.1" y2="9"/>
<line class="st1" x1="15.5" y1="9" x2="15.5" y2="9"/>
<line class="st1" x1="13.7" y1="9" x2="13.7" y2="9"/>
<line class="st1" x1="19.1" y1="9" x2="19.1" y2="9"/>
<line class="st1" x1="17.3" y1="9" x2="17.3" y2="9"/>
<line class="st1" x1="22.7" y1="9" x2="22.7" y2="9"/>
<line class="st1" x1="20.9" y1="9" x2="20.9" y2="9"/>
<line class="st1" x1="26.3" y1="9" x2="26.3" y2="9"/>
<line class="st1" x1="24.5" y1="9" x2="24.5" y2="9"/>
<line class="st1" x1="29.9" y1="9" x2="29.9" y2="9"/>
<line class="st1" x1="28.1" y1="9" x2="28.1" y2="9"/>
<line class="st1" x1="33.4" y1="9" x2="33.4" y2="9"/>
<line class="st1" x1="31.7" y1="9" x2="31.7" y2="9"/>
<line class="st1" x1="37" y1="9" x2="37" y2="9"/>
<line class="st1" x1="35.2" y1="9" x2="35.2" y2="9"/>
<line class="st1" x1="40.6" y1="9" x2="40.6" y2="9"/>
<line class="st1" x1="38.8" y1="9" x2="38.8" y2="9"/>
<line class="st1" x1="44.2" y1="9" x2="44.2" y2="9"/>
<line class="st1" x1="42.4" y1="9" x2="42.4" y2="9"/>
<line class="st1" x1="46" y1="9" x2="46" y2="9"/>
<line class="st1" x1="1.1" y1="14.7" x2="1.1" y2="14.7"/>
<line class="st1" x1="4.7" y1="14.7" x2="4.7" y2="14.7"/>
<line class="st1" x1="2.9" y1="14.7" x2="2.9" y2="14.7"/>
<line class="st1" x1="8.3" y1="14.7" x2="8.3" y2="14.7"/>
<line class="st1" x1="6.5" y1="14.7" x2="6.5" y2="14.7"/>
<line class="st1" x1="11.9" y1="14.7" x2="11.9" y2="14.7"/>
<line class="st1" x1="10.1" y1="14.7" x2="10.1" y2="14.7"/>
<line class="st1" x1="15.5" y1="14.7" x2="15.5" y2="14.7"/>
<line class="st1" x1="13.7" y1="14.7" x2="13.7" y2="14.7"/>
<line class="st1" x1="19.1" y1="14.7" x2="19.1" y2="14.7"/>
<line class="st1" x1="17.3" y1="14.7" x2="17.3" y2="14.7"/>
<line class="st1" x1="22.7" y1="14.7" x2="22.7" y2="14.7"/>
<line class="st1" x1="20.9" y1="14.7" x2="20.9" y2="14.7"/>
<line class="st1" x1="26.3" y1="14.7" x2="26.3" y2="14.7"/>
<line class="st1" x1="24.5" y1="14.7" x2="24.5" y2="14.7"/>
<line class="st1" x1="29.9" y1="14.7" x2="29.9" y2="14.7"/>
<line class="st1" x1="28.1" y1="14.7" x2="28.1" y2="14.7"/>
<line class="st1" x1="33.4" y1="14.7" x2="33.4" y2="14.7"/>
<line class="st1" x1="31.7" y1="14.7" x2="31.7" y2="14.7"/>
<line class="st1" x1="37" y1="14.7" x2="37" y2="14.7"/>
<line class="st1" x1="35.2" y1="14.7" x2="35.2" y2="14.7"/>
<line class="st1" x1="40.6" y1="14.7" x2="40.6" y2="14.7"/>
<line class="st1" x1="38.8" y1="14.7" x2="38.8" y2="14.7"/>
<line class="st1" x1="44.2" y1="14.7" x2="44.2" y2="14.7"/>
<line class="st1" x1="42.4" y1="14.7" x2="42.4" y2="14.7"/>
<line class="st1" x1="46" y1="14.7" x2="46" y2="14.7"/>
<line class="st1" x1="1.1" y1="20.5" x2="1.1" y2="20.5"/>
<line class="st1" x1="4.7" y1="20.5" x2="4.7" y2="20.5"/>
<line class="st1" x1="2.9" y1="20.5" x2="2.9" y2="20.5"/>
<line class="st1" x1="8.3" y1="20.5" x2="8.3" y2="20.5"/>
<line class="st1" x1="6.5" y1="20.5" x2="6.5" y2="20.5"/>
<line class="st1" x1="11.9" y1="20.5" x2="11.9" y2="20.5"/>
<line class="st1" x1="10.1" y1="20.5" x2="10.1" y2="20.5"/>
<line class="st1" x1="15.5" y1="20.5" x2="15.5" y2="20.5"/>
<line class="st1" x1="13.7" y1="20.5" x2="13.7" y2="20.5"/>
<line class="st1" x1="19.1" y1="20.5" x2="19.1" y2="20.5"/>
<line class="st1" x1="17.3" y1="20.5" x2="17.3" y2="20.5"/>
<line class="st1" x1="22.7" y1="20.5" x2="22.7" y2="20.5"/>
<line class="st1" x1="20.9" y1="20.5" x2="20.9" y2="20.5"/>
<line class="st1" x1="26.3" y1="20.5" x2="26.3" y2="20.5"/>
<line class="st1" x1="24.5" y1="20.5" x2="24.5" y2="20.5"/>
<line class="st1" x1="29.9" y1="20.5" x2="29.9" y2="20.5"/>
<line class="st1" x1="28.1" y1="20.5" x2="28.1" y2="20.5"/>
<line class="st1" x1="33.4" y1="20.5" x2="33.4" y2="20.5"/>
<line class="st1" x1="31.7" y1="20.5" x2="31.7" y2="20.5"/>
<line class="st1" x1="37" y1="20.5" x2="37" y2="20.5"/>
<line class="st1" x1="35.2" y1="20.5" x2="35.2" y2="20.5"/>
<line class="st1" x1="40.6" y1="20.5" x2="40.6" y2="20.5"/>
<line class="st1" x1="38.8" y1="20.5" x2="38.8" y2="20.5"/>
<line class="st1" x1="44.2" y1="20.5" x2="44.2" y2="20.5"/>
<line class="st1" x1="42.4" y1="20.5" x2="42.4" y2="20.5"/>
<line class="st1" x1="46" y1="20.5" x2="46" y2="20.5"/>
<line class="st1" x1="1.1" y1="26.4" x2="1.1" y2="26.4"/>
<line class="st1" x1="4.7" y1="26.4" x2="4.7" y2="26.4"/>
<line class="st1" x1="2.9" y1="26.4" x2="2.9" y2="26.4"/>
<line class="st1" x1="8.3" y1="26.4" x2="8.3" y2="26.4"/>
<line class="st1" x1="6.5" y1="26.4" x2="6.5" y2="26.4"/>
<line class="st1" x1="11.9" y1="26.4" x2="11.9" y2="26.4"/>
<line class="st1" x1="10.1" y1="26.4" x2="10.1" y2="26.4"/>
<line class="st1" x1="15.5" y1="26.4" x2="15.5" y2="26.4"/>
<line class="st1" x1="13.7" y1="26.4" x2="13.7" y2="26.4"/>
<line class="st1" x1="19.1" y1="26.4" x2="19.1" y2="26.4"/>
<line class="st1" x1="17.3" y1="26.4" x2="17.3" y2="26.4"/>
<line class="st1" x1="22.7" y1="26.4" x2="22.7" y2="26.4"/>
<line class="st1" x1="20.9" y1="26.4" x2="20.9" y2="26.4"/>
<line class="st1" x1="26.3" y1="26.4" x2="26.3" y2="26.4"/>
<line class="st1" x1="24.5" y1="26.4" x2="24.5" y2="26.4"/>
<line class="st1" x1="29.9" y1="26.4" x2="29.9" y2="26.4"/>
<line class="st1" x1="28.1" y1="26.4" x2="28.1" y2="26.4"/>
<line class="st1" x1="33.4" y1="26.4" x2="33.4" y2="26.4"/>
<line class="st1" x1="31.7" y1="26.4" x2="31.7" y2="26.4"/>
<line class="st1" x1="37" y1="26.4" x2="37" y2="26.4"/>
<line class="st1" x1="35.2" y1="26.4" x2="35.2" y2="26.4"/>
<line class="st1" x1="40.6" y1="26.4" x2="40.6" y2="26.4"/>
<line class="st1" x1="38.8" y1="26.4" x2="38.8" y2="26.4"/>
<line class="st1" x1="44.2" y1="26.4" x2="44.2" y2="26.4"/>
<line class="st1" x1="42.4" y1="26.4" x2="42.4" y2="26.4"/>
<line class="st1" x1="46" y1="26.4" x2="46" y2="26.4"/>
<line class="st1" x1="1.1" y1="32.1" x2="1.1" y2="32.1"/>
<line class="st1" x1="4.7" y1="32.1" x2="4.7" y2="32.1"/>
<line class="st1" x1="2.9" y1="32.1" x2="2.9" y2="32.1"/>
<line class="st1" x1="8.3" y1="32.1" x2="8.3" y2="32.1"/>
<line class="st1" x1="6.5" y1="32.1" x2="6.5" y2="32.1"/>
<line class="st1" x1="11.9" y1="32.1" x2="11.9" y2="32.1"/>
<line class="st1" x1="10.1" y1="32.1" x2="10.1" y2="32.1"/>
<line class="st1" x1="15.5" y1="32.1" x2="15.5" y2="32.1"/>
<line class="st1" x1="13.7" y1="32.1" x2="13.7" y2="32.1"/>
<line class="st1" x1="19.1" y1="32.1" x2="19.1" y2="32.1"/>
<line class="st1" x1="17.3" y1="32.1" x2="17.3" y2="32.1"/>
<line class="st1" x1="22.7" y1="32.1" x2="22.7" y2="32.1"/>
<line class="st1" x1="20.9" y1="32.1" x2="20.9" y2="32.1"/>
<line class="st1" x1="26.3" y1="32.1" x2="26.3" y2="32.1"/>
<line class="st1" x1="24.5" y1="32.1" x2="24.5" y2="32.1"/>
<line class="st1" x1="29.9" y1="32.1" x2="29.9" y2="32.1"/>
<line class="st1" x1="28.1" y1="32.1" x2="28.1" y2="32.1"/>
<line class="st1" x1="33.4" y1="32.1" x2="33.4" y2="32.1"/>
<line class="st1" x1="31.7" y1="32.1" x2="31.7" y2="32.1"/>
<line class="st1" x1="37" y1="32.1" x2="37" y2="32.1"/>
<line class="st1" x1="35.2" y1="32.1" x2="35.2" y2="32.1"/>
<line class="st1" x1="40.6" y1="32.1" x2="40.6" y2="32.1"/>
<line class="st1" x1="38.8" y1="32.1" x2="38.8" y2="32.1"/>
<line class="st1" x1="44.2" y1="32.1" x2="44.2" y2="32.1"/>
<line class="st1" x1="42.4" y1="32.1" x2="42.4" y2="32.1"/>
<line class="st1" x1="46" y1="32.1" x2="46" y2="32.1"/>
<line class="st1" x1="1.1" y1="38" x2="1.1" y2="38"/>
<line class="st1" x1="4.7" y1="38" x2="4.7" y2="38"/>
<line class="st1" x1="2.9" y1="38" x2="2.9" y2="38"/>
<line class="st1" x1="8.3" y1="38" x2="8.3" y2="38"/>
<line class="st1" x1="6.5" y1="38" x2="6.5" y2="38"/>
<line class="st1" x1="11.9" y1="38" x2="11.9" y2="38"/>
<line class="st1" x1="10.1" y1="38" x2="10.1" y2="38"/>
<line class="st1" x1="15.5" y1="38" x2="15.5" y2="38"/>
<line class="st1" x1="13.7" y1="38" x2="13.7" y2="38"/>
<line class="st1" x1="19.1" y1="38" x2="19.1" y2="38"/>
<line class="st1" x1="17.3" y1="38" x2="17.3" y2="38"/>
<line class="st1" x1="22.7" y1="38" x2="22.7" y2="38"/>
<line class="st1" x1="20.9" y1="38" x2="20.9" y2="38"/>
<line class="st1" x1="26.3" y1="38" x2="26.3" y2="38"/>
<line class="st1" x1="24.5" y1="38" x2="24.5" y2="38"/>
<line class="st1" x1="29.9" y1="38" x2="29.9" y2="38"/>
<line class="st1" x1="28.1" y1="38" x2="28.1" y2="38"/>
<line class="st1" x1="33.4" y1="38" x2="33.4" y2="38"/>
<line class="st1" x1="31.7" y1="38" x2="31.7" y2="38"/>
<line class="st1" x1="37" y1="38" x2="37" y2="38"/>
<line class="st1" x1="35.2" y1="38" x2="35.2" y2="38"/>
<line class="st1" x1="40.6" y1="38" x2="40.6" y2="38"/>
<line class="st1" x1="38.8" y1="38" x2="38.8" y2="38"/>
<line class="st1" x1="44.2" y1="38" x2="44.2" y2="38"/>
<line class="st1" x1="42.4" y1="38" x2="42.4" y2="38"/>
<line class="st1" x1="46" y1="38" x2="46" y2="38"/>
<line class="st1" x1="1.1" y1="43.8" x2="1.1" y2="43.8"/>
<line class="st1" x1="4.7" y1="43.8" x2="4.7" y2="43.8"/>
<line class="st1" x1="2.9" y1="43.8" x2="2.9" y2="43.8"/>
<line class="st1" x1="8.3" y1="43.8" x2="8.3" y2="43.8"/>
<line class="st1" x1="6.5" y1="43.8" x2="6.5" y2="43.8"/>
<line class="st1" x1="11.9" y1="43.8" x2="11.9" y2="43.8"/>
<line class="st1" x1="10.1" y1="43.8" x2="10.1" y2="43.8"/>
<line class="st1" x1="15.5" y1="43.8" x2="15.5" y2="43.8"/>
<line class="st1" x1="13.7" y1="43.8" x2="13.7" y2="43.8"/>
<line class="st1" x1="19.1" y1="43.8" x2="19.1" y2="43.8"/>
<line class="st1" x1="17.3" y1="43.8" x2="17.3" y2="43.8"/>
<line class="st1" x1="22.7" y1="43.8" x2="22.7" y2="43.8"/>
<line class="st1" x1="20.9" y1="43.8" x2="20.9" y2="43.8"/>
<line class="st1" x1="26.3" y1="43.8" x2="26.3" y2="43.8"/>
<line class="st1" x1="24.5" y1="43.8" x2="24.5" y2="43.8"/>
<line class="st1" x1="29.9" y1="43.8" x2="29.9" y2="43.8"/>
<line class="st1" x1="28.1" y1="43.8" x2="28.1" y2="43.8"/>
<line class="st1" x1="33.4" y1="43.8" x2="33.4" y2="43.8"/>
<line class="st1" x1="31.7" y1="43.8" x2="31.7" y2="43.8"/>
<line class="st1" x1="37" y1="43.8" x2="37" y2="43.8"/>
<line class="st1" x1="35.2" y1="43.8" x2="35.2" y2="43.8"/>
<line class="st1" x1="40.6" y1="43.8" x2="40.6" y2="43.8"/>
<line class="st1" x1="38.8" y1="43.8" x2="38.8" y2="43.8"/>
<line class="st1" x1="44.2" y1="43.8" x2="44.2" y2="43.8"/>
<line class="st1" x1="42.4" y1="43.8" x2="42.4" y2="43.8"/>
<line class="st1" x1="46" y1="43.8" x2="46" y2="43.8"/>
</svg>
