<svg id="Layer_1" data-name="Layer 1" xmlns="http://www.w3.org/2000/svg" width="46.75" height="46.75" viewBox="0 0 46.75 46.75"><defs><style>.cls-1,.cls-2,.cls-3{fill:none;}.cls-2,.cls-3{stroke:#000;}.cls-2{stroke-width:0.3px;}.cls-3{stroke-linecap:round;stroke-width:0.7px;}</style></defs><title>Artboard 37</title><rect class="cls-1" x="44.51" y="-22.8" width="46.75" height="46.75"/><line class="cls-2" x1="45.57" y1="1.77" x2="52.19" y2="1.77"/><line class="cls-2" x1="47.63" y1="7.56" x2="44.51" y2="7.56"/><line class="cls-2" x1="52.19" y1="13.37" x2="45.57" y2="13.37"/><line class="cls-2" x1="47.63" y1="19.17" x2="44.51" y2="19.17"/><line class="cls-3" x1="45.63" y1="4.73" x2="45.63" y2="4.73"/><line class="cls-3" x1="45.63" y1="10.49" x2="45.63" y2="10.49"/><line class="cls-3" x1="45.63" y1="16.37" x2="45.63" y2="16.37"/><line class="cls-3" x1="45.63" y1="22.13" x2="45.63" y2="22.13"/><rect class="cls-1" x="44.51" y="23.95" width="46.75" height="46.75"/><line class="cls-2" x1="52.19" y1="25.26" x2="45.57" y2="25.26"/><line class="cls-2" x1="44.51" y1="31.06" x2="47.63" y2="31.06"/><line class="cls-2" x1="52.19" y1="36.89" x2="45.57" y2="36.89"/><line class="cls-2" x1="47.63" y1="42.68" x2="44.51" y2="42.68"/><line class="cls-3" x1="45.63" y1="28.2" x2="45.63" y2="28.2"/><line class="cls-3" x1="45.63" y1="34.08" x2="45.63" y2="34.08"/><line class="cls-3" x1="45.63" y1="39.77" x2="45.63" y2="39.77"/><line class="cls-3" x1="45.63" y1="45.66" x2="45.63" y2="45.66"/><rect class="cls-1" x="-2.24" y="-22.8" width="46.75" height="46.75"/><line class="cls-2" x1="-1.18" y1="1.77" x2="5.44" y2="1.77"/><line class="cls-2" x1="14.71" y1="1.77" x2="8.09" y2="1.77"/><line class="cls-2" x1="24.23" y1="1.77" x2="17.61" y2="1.77"/><line class="cls-2" x1="27.02" y1="1.77" x2="33.64" y2="1.77"/><line class="cls-2" x1="36.35" y1="1.77" x2="42.98" y2="1.77"/><line class="cls-2" x1="0.88" y1="7.56" x2="-2.24" y2="7.56"/><line class="cls-2" x1="10.15" y1="7.56" x2="3.53" y2="7.56"/><line class="cls-2" x1="13.04" y1="7.56" x2="19.66" y2="7.56"/><line class="cls-2" x1="29.08" y1="7.56" x2="22.45" y2="7.56"/><line class="cls-2" x1="31.79" y1="7.56" x2="38.41" y2="7.56"/><line class="cls-2" x1="40.9" y1="7.56" x2="44.51" y2="7.56"/><line class="cls-2" x1="5.44" y1="13.37" x2="-1.18" y2="13.37"/><line class="cls-2" x1="14.71" y1="13.37" x2="8.09" y2="13.37"/><line class="cls-2" x1="17.61" y1="13.37" x2="24.23" y2="13.37"/><line class="cls-2" x1="27.02" y1="13.37" x2="33.64" y2="13.37"/><line class="cls-2" x1="36.35" y1="13.37" x2="42.98" y2="13.37"/><line class="cls-2" x1="0.88" y1="19.17" x2="-2.24" y2="19.17"/><line class="cls-2" x1="3.53" y1="19.17" x2="10.15" y2="19.17"/><line class="cls-2" x1="19.66" y1="19.17" x2="13.04" y2="19.17"/><line class="cls-2" x1="29.08" y1="19.17" x2="22.45" y2="19.17"/><line class="cls-2" x1="38.41" y1="19.17" x2="31.79" y2="19.17"/><line class="cls-2" x1="40.9" y1="19.17" x2="44.51" y2="19.17"/><line class="cls-3" x1="2.47" y1="4.73" x2="2.47" y2="4.73"/><line class="cls-3" x1="0.68" y1="4.73" x2="0.68" y2="4.73"/><line class="cls-3" x1="6.07" y1="4.73" x2="6.07" y2="4.73"/><line class="cls-3" x1="4.27" y1="4.73" x2="4.27" y2="4.73"/><line class="cls-3" x1="9.66" y1="4.73" x2="9.66" y2="4.73"/><line class="cls-3" x1="7.86" y1="4.73" x2="7.86" y2="4.73"/><line class="cls-3" x1="13.25" y1="4.73" x2="13.25" y2="4.73"/><line class="cls-3" x1="11.46" y1="4.73" x2="11.46" y2="4.73"/><line class="cls-3" x1="16.84" y1="4.73" x2="16.84" y2="4.73"/><line class="cls-3" x1="15.05" y1="4.73" x2="15.05" y2="4.73"/><line class="cls-3" x1="20.44" y1="4.73" x2="20.44" y2="4.73"/><line class="cls-3" x1="18.64" y1="4.73" x2="18.64" y2="4.73"/><line class="cls-3" x1="24.03" y1="4.73" x2="24.03" y2="4.73"/><line class="cls-3" x1="22.23" y1="4.73" x2="22.23" y2="4.73"/><line class="cls-3" x1="27.62" y1="4.73" x2="27.62" y2="4.73"/><line class="cls-3" x1="25.82" y1="4.73" x2="25.82" y2="4.73"/><line class="cls-3" x1="31.21" y1="4.73" x2="31.21" y2="4.73"/><line class="cls-3" x1="29.41" y1="4.73" x2="29.41" y2="4.73"/><line class="cls-3" x1="34.8" y1="4.73" x2="34.8" y2="4.73"/><line class="cls-3" x1="33.01" y1="4.73" x2="33.01" y2="4.73"/><line class="cls-3" x1="38.39" y1="4.73" x2="38.39" y2="4.73"/><line class="cls-3" x1="36.6" y1="4.73" x2="36.6" y2="4.73"/><line class="cls-3" x1="41.98" y1="4.73" x2="41.98" y2="4.73"/><line class="cls-3" x1="40.19" y1="4.73" x2="40.19" y2="4.73"/><line class="cls-3" x1="43.78" y1="4.73" x2="43.78" y2="4.73"/><line class="cls-3" x1="2.47" y1="10.49" x2="2.47" y2="10.49"/><line class="cls-3" x1="0.68" y1="10.49" x2="0.68" y2="10.49"/><line class="cls-3" x1="6.07" y1="10.49" x2="6.07" y2="10.49"/><line class="cls-3" x1="4.27" y1="10.49" x2="4.27" y2="10.49"/><line class="cls-3" x1="9.66" y1="10.49" x2="9.66" y2="10.49"/><line class="cls-3" x1="7.86" y1="10.49" x2="7.86" y2="10.49"/><line class="cls-3" x1="13.25" y1="10.49" x2="13.25" y2="10.49"/><line class="cls-3" x1="11.46" y1="10.49" x2="11.46" y2="10.49"/><line class="cls-3" x1="16.84" y1="10.49" x2="16.84" y2="10.49"/><line class="cls-3" x1="15.05" y1="10.49" x2="15.05" y2="10.49"/><line class="cls-3" x1="20.44" y1="10.49" x2="20.44" y2="10.49"/><line class="cls-3" x1="18.64" y1="10.49" x2="18.64" y2="10.49"/><line class="cls-3" x1="24.03" y1="10.49" x2="24.03" y2="10.49"/><line class="cls-3" x1="22.23" y1="10.49" x2="22.23" y2="10.49"/><line class="cls-3" x1="27.62" y1="10.49" x2="27.62" y2="10.49"/><line class="cls-3" x1="25.82" y1="10.49" x2="25.82" y2="10.49"/><line class="cls-3" x1="31.21" y1="10.49" x2="31.21" y2="10.49"/><line class="cls-3" x1="29.41" y1="10.49" x2="29.41" y2="10.49"/><line class="cls-3" x1="34.8" y1="10.49" x2="34.8" y2="10.49"/><line class="cls-3" x1="33.01" y1="10.49" x2="33.01" y2="10.49"/><line class="cls-3" x1="38.39" y1="10.49" x2="38.39" y2="10.49"/><line class="cls-3" x1="36.6" y1="10.49" x2="36.6" y2="10.49"/><line class="cls-3" x1="41.98" y1="10.49" x2="41.98" y2="10.49"/><line class="cls-3" x1="40.19" y1="10.49" x2="40.19" y2="10.49"/><line class="cls-3" x1="43.78" y1="10.49" x2="43.78" y2="10.49"/><line class="cls-3" x1="2.47" y1="16.37" x2="2.47" y2="16.37"/><line class="cls-3" x1="0.68" y1="16.37" x2="0.68" y2="16.37"/><line class="cls-3" x1="6.07" y1="16.37" x2="6.07" y2="16.37"/><line class="cls-3" x1="4.27" y1="16.37" x2="4.27" y2="16.37"/><line class="cls-3" x1="9.66" y1="16.37" x2="9.66" y2="16.37"/><line class="cls-3" x1="7.86" y1="16.37" x2="7.86" y2="16.37"/><line class="cls-3" x1="13.25" y1="16.37" x2="13.25" y2="16.37"/><line class="cls-3" x1="11.46" y1="16.37" x2="11.46" y2="16.37"/><line class="cls-3" x1="16.84" y1="16.37" x2="16.84" y2="16.37"/><line class="cls-3" x1="15.05" y1="16.37" x2="15.05" y2="16.37"/><line class="cls-3" x1="20.44" y1="16.37" x2="20.44" y2="16.37"/><line class="cls-3" x1="18.64" y1="16.37" x2="18.64" y2="16.37"/><line class="cls-3" x1="24.03" y1="16.37" x2="24.03" y2="16.37"/><line class="cls-3" x1="22.23" y1="16.37" x2="22.23" y2="16.37"/><line class="cls-3" x1="27.62" y1="16.37" x2="27.62" y2="16.37"/><line class="cls-3" x1="25.82" y1="16.37" x2="25.82" y2="16.37"/><line class="cls-3" x1="31.21" y1="16.37" x2="31.21" y2="16.37"/><line class="cls-3" x1="29.41" y1="16.37" x2="29.41" y2="16.37"/><line class="cls-3" x1="34.8" y1="16.37" x2="34.8" y2="16.37"/><line class="cls-3" x1="33.01" y1="16.37" x2="33.01" y2="16.37"/><line class="cls-3" x1="38.39" y1="16.37" x2="38.39" y2="16.37"/><line class="cls-3" x1="36.6" y1="16.37" x2="36.6" y2="16.37"/><line class="cls-3" x1="41.98" y1="16.37" x2="41.98" y2="16.37"/><line class="cls-3" x1="40.19" y1="16.37" x2="40.19" y2="16.37"/><line class="cls-3" x1="43.78" y1="16.37" x2="43.78" y2="16.37"/><line class="cls-3" x1="2.47" y1="22.13" x2="2.47" y2="22.13"/><line class="cls-3" x1="0.68" y1="22.13" x2="0.68" y2="22.13"/><line class="cls-3" x1="6.07" y1="22.13" x2="6.07" y2="22.13"/><line class="cls-3" x1="4.27" y1="22.13" x2="4.27" y2="22.13"/><line class="cls-3" x1="9.66" y1="22.13" x2="9.66" y2="22.13"/><line class="cls-3" x1="7.86" y1="22.13" x2="7.86" y2="22.13"/><line class="cls-3" x1="13.25" y1="22.13" x2="13.25" y2="22.13"/><line class="cls-3" x1="11.46" y1="22.13" x2="11.46" y2="22.13"/><line class="cls-3" x1="16.84" y1="22.13" x2="16.84" y2="22.13"/><line class="cls-3" x1="15.05" y1="22.13" x2="15.05" y2="22.13"/><line class="cls-3" x1="20.44" y1="22.13" x2="20.44" y2="22.13"/><line class="cls-3" x1="18.64" y1="22.13" x2="18.64" y2="22.13"/><line class="cls-3" x1="24.03" y1="22.13" x2="24.03" y2="22.13"/><line class="cls-3" x1="22.23" y1="22.13" x2="22.23" y2="22.13"/><line class="cls-3" x1="27.62" y1="22.13" x2="27.62" y2="22.13"/><line class="cls-3" x1="25.82" y1="22.13" x2="25.82" y2="22.13"/><line class="cls-3" x1="31.21" y1="22.13" x2="31.21" y2="22.13"/><line class="cls-3" x1="29.41" y1="22.13" x2="29.41" y2="22.13"/><line class="cls-3" x1="34.8" y1="22.13" x2="34.8" y2="22.13"/><line class="cls-3" x1="33.01" y1="22.13" x2="33.01" y2="22.13"/><line class="cls-3" x1="38.39" y1="22.13" x2="38.39" y2="22.13"/><line class="cls-3" x1="36.6" y1="22.13" x2="36.6" y2="22.13"/><line class="cls-3" x1="41.98" y1="22.13" x2="41.98" y2="22.13"/><line class="cls-3" x1="40.19" y1="22.13" x2="40.19" y2="22.13"/><line class="cls-3" x1="43.78" y1="22.13" x2="43.78" y2="22.13"/><rect class="cls-1" x="-2.24" y="23.95" width="46.75" height="46.75"/><line class="cls-2" x1="5.44" y1="25.26" x2="-1.18" y2="25.26"/><line class="cls-2" x1="8.09" y1="25.26" x2="14.71" y2="25.26"/><line class="cls-2" x1="17.61" y1="25.26" x2="24.23" y2="25.26"/><line class="cls-2" x1="27.02" y1="25.26" x2="33.64" y2="25.26"/><line class="cls-2" x1="36.35" y1="25.26" x2="42.98" y2="25.26"/><line class="cls-2" x1="-2.24" y1="31.06" x2="0.88" y2="31.06"/><line class="cls-2" x1="10.15" y1="31.06" x2="3.53" y2="31.06"/><line class="cls-2" x1="19.66" y1="31.06" x2="13.04" y2="31.06"/><line class="cls-2" x1="29.08" y1="31.06" x2="22.45" y2="31.06"/><line class="cls-2" x1="38.41" y1="31.06" x2="31.79" y2="31.06"/><line class="cls-2" x1="44.51" y1="31.06" x2="40.9" y2="31.06"/><line class="cls-2" x1="5.44" y1="36.89" x2="-1.18" y2="36.89"/><line class="cls-2" x1="14.71" y1="36.89" x2="8.09" y2="36.89"/><line class="cls-2" x1="17.61" y1="36.89" x2="24.23" y2="36.89"/><line class="cls-2" x1="27.02" y1="36.89" x2="33.64" y2="36.89"/><line class="cls-2" x1="36.35" y1="36.89" x2="42.98" y2="36.89"/><line class="cls-2" x1="0.88" y1="42.68" x2="-2.24" y2="42.68"/><line class="cls-2" x1="10.15" y1="42.68" x2="3.53" y2="42.68"/><line class="cls-2" x1="19.66" y1="42.68" x2="13.04" y2="42.68"/><line class="cls-2" x1="29.08" y1="42.68" x2="22.45" y2="42.68"/><line class="cls-2" x1="38.41" y1="42.68" x2="31.79" y2="42.68"/><line class="cls-2" x1="40.9" y1="42.68" x2="44.51" y2="42.68"/><line class="cls-3" x1="2.47" y1="28.2" x2="2.47" y2="28.2"/><line class="cls-3" x1="0.68" y1="28.2" x2="0.68" y2="28.2"/><line class="cls-3" x1="6.07" y1="28.2" x2="6.07" y2="28.2"/><line class="cls-3" x1="4.27" y1="28.2" x2="4.27" y2="28.2"/><line class="cls-3" x1="9.66" y1="28.2" x2="9.66" y2="28.2"/><line class="cls-3" x1="7.86" y1="28.2" x2="7.86" y2="28.2"/><line class="cls-3" x1="13.25" y1="28.2" x2="13.25" y2="28.2"/><line class="cls-3" x1="11.46" y1="28.2" x2="11.46" y2="28.2"/><line class="cls-3" x1="16.84" y1="28.2" x2="16.84" y2="28.2"/><line class="cls-3" x1="15.05" y1="28.2" x2="15.05" y2="28.2"/><line class="cls-3" x1="20.44" y1="28.2" x2="20.44" y2="28.2"/><line class="cls-3" x1="18.64" y1="28.2" x2="18.64" y2="28.2"/><line class="cls-3" x1="24.03" y1="28.2" x2="24.03" y2="28.2"/><line class="cls-3" x1="22.23" y1="28.2" x2="22.23" y2="28.2"/><line class="cls-3" x1="27.62" y1="28.2" x2="27.62" y2="28.2"/><line class="cls-3" x1="25.82" y1="28.2" x2="25.82" y2="28.2"/><line class="cls-3" x1="31.21" y1="28.2" x2="31.21" y2="28.2"/><line class="cls-3" x1="29.41" y1="28.2" x2="29.41" y2="28.2"/><line class="cls-3" x1="34.8" y1="28.2" x2="34.8" y2="28.2"/><line class="cls-3" x1="33.01" y1="28.2" x2="33.01" y2="28.2"/><line class="cls-3" x1="38.39" y1="28.2" x2="38.39" y2="28.2"/><line class="cls-3" x1="36.6" y1="28.2" x2="36.6" y2="28.2"/><line class="cls-3" x1="41.98" y1="28.2" x2="41.98" y2="28.2"/><line class="cls-3" x1="40.19" y1="28.2" x2="40.19" y2="28.2"/><line class="cls-3" x1="43.78" y1="28.2" x2="43.78" y2="28.2"/><line class="cls-3" x1="2.47" y1="34.08" x2="2.47" y2="34.08"/><line class="cls-3" x1="0.68" y1="34.08" x2="0.68" y2="34.08"/><line class="cls-3" x1="6.07" y1="34.08" x2="6.07" y2="34.08"/><line class="cls-3" x1="4.27" y1="34.08" x2="4.27" y2="34.08"/><line class="cls-3" x1="9.66" y1="34.08" x2="9.66" y2="34.08"/><line class="cls-3" x1="7.86" y1="34.08" x2="7.86" y2="34.08"/><line class="cls-3" x1="13.25" y1="34.08" x2="13.25" y2="34.08"/><line class="cls-3" x1="11.46" y1="34.08" x2="11.46" y2="34.08"/><line class="cls-3" x1="16.84" y1="34.08" x2="16.84" y2="34.08"/><line class="cls-3" x1="15.05" y1="34.08" x2="15.05" y2="34.08"/><line class="cls-3" x1="20.44" y1="34.08" x2="20.44" y2="34.08"/><line class="cls-3" x1="18.64" y1="34.08" x2="18.64" y2="34.08"/><line class="cls-3" x1="24.03" y1="34.08" x2="24.03" y2="34.08"/><line class="cls-3" x1="22.23" y1="34.08" x2="22.23" y2="34.08"/><line class="cls-3" x1="27.62" y1="34.08" x2="27.62" y2="34.08"/><line class="cls-3" x1="25.82" y1="34.08" x2="25.82" y2="34.08"/><line class="cls-3" x1="31.21" y1="34.08" x2="31.21" y2="34.08"/><line class="cls-3" x1="29.41" y1="34.08" x2="29.41" y2="34.08"/><line class="cls-3" x1="34.8" y1="34.08" x2="34.8" y2="34.08"/><line class="cls-3" x1="33.01" y1="34.08" x2="33.01" y2="34.08"/><line class="cls-3" x1="38.39" y1="34.08" x2="38.39" y2="34.08"/><line class="cls-3" x1="36.6" y1="34.08" x2="36.6" y2="34.08"/><line class="cls-3" x1="41.98" y1="34.08" x2="41.98" y2="34.08"/><line class="cls-3" x1="40.19" y1="34.08" x2="40.19" y2="34.08"/><line class="cls-3" x1="43.78" y1="34.08" x2="43.78" y2="34.08"/><line class="cls-3" x1="2.47" y1="39.77" x2="2.47" y2="39.77"/><line class="cls-3" x1="0.68" y1="39.77" x2="0.68" y2="39.77"/><line class="cls-3" x1="6.07" y1="39.77" x2="6.07" y2="39.77"/><line class="cls-3" x1="4.27" y1="39.77" x2="4.27" y2="39.77"/><line class="cls-3" x1="9.66" y1="39.77" x2="9.66" y2="39.77"/><line class="cls-3" x1="7.86" y1="39.77" x2="7.86" y2="39.77"/><line class="cls-3" x1="13.25" y1="39.77" x2="13.25" y2="39.77"/><line class="cls-3" x1="11.46" y1="39.77" x2="11.46" y2="39.77"/><line class="cls-3" x1="16.84" y1="39.77" x2="16.84" y2="39.77"/><line class="cls-3" x1="15.05" y1="39.77" x2="15.05" y2="39.77"/><line class="cls-3" x1="20.44" y1="39.77" x2="20.44" y2="39.77"/><line class="cls-3" x1="18.64" y1="39.77" x2="18.64" y2="39.77"/><line class="cls-3" x1="24.03" y1="39.77" x2="24.03" y2="39.77"/><line class="cls-3" x1="22.23" y1="39.77" x2="22.23" y2="39.77"/><line class="cls-3" x1="27.62" y1="39.77" x2="27.62" y2="39.77"/><line class="cls-3" x1="25.82" y1="39.77" x2="25.82" y2="39.77"/><line class="cls-3" x1="31.21" y1="39.77" x2="31.21" y2="39.77"/><line class="cls-3" x1="29.41" y1="39.77" x2="29.41" y2="39.77"/><line class="cls-3" x1="34.8" y1="39.77" x2="34.8" y2="39.77"/><line class="cls-3" x1="33.01" y1="39.77" x2="33.01" y2="39.77"/><line class="cls-3" x1="38.39" y1="39.77" x2="38.39" y2="39.77"/><line class="cls-3" x1="36.6" y1="39.77" x2="36.6" y2="39.77"/><line class="cls-3" x1="41.98" y1="39.77" x2="41.98" y2="39.77"/><line class="cls-3" x1="40.19" y1="39.77" x2="40.19" y2="39.77"/><line class="cls-3" x1="43.78" y1="39.77" x2="43.78" y2="39.77"/><line class="cls-3" x1="2.47" y1="45.66" x2="2.47" y2="45.66"/><line class="cls-3" x1="0.68" y1="45.66" x2="0.68" y2="45.66"/><line class="cls-3" x1="6.07" y1="45.66" x2="6.07" y2="45.66"/><line class="cls-3" x1="4.27" y1="45.66" x2="4.27" y2="45.66"/><line class="cls-3" x1="9.66" y1="45.66" x2="9.66" y2="45.66"/><line class="cls-3" x1="7.86" y1="45.66" x2="7.86" y2="45.66"/><line class="cls-3" x1="13.25" y1="45.66" x2="13.25" y2="45.66"/><line class="cls-3" x1="11.46" y1="45.66" x2="11.46" y2="45.66"/><line class="cls-3" x1="16.84" y1="45.66" x2="16.84" y2="45.66"/><line class="cls-3" x1="15.05" y1="45.66" x2="15.05" y2="45.66"/><line class="cls-3" x1="20.44" y1="45.66" x2="20.44" y2="45.66"/><line class="cls-3" x1="18.64" y1="45.66" x2="18.64" y2="45.66"/><line class="cls-3" x1="24.03" y1="45.66" x2="24.03" y2="45.66"/><line class="cls-3" x1="22.23" y1="45.66" x2="22.23" y2="45.66"/><line class="cls-3" x1="27.62" y1="45.66" x2="27.62" y2="45.66"/><line class="cls-3" x1="25.82" y1="45.66" x2="25.82" y2="45.66"/><line class="cls-3" x1="31.21" y1="45.66" x2="31.21" y2="45.66"/><line class="cls-3" x1="29.41" y1="45.66" x2="29.41" y2="45.66"/><line class="cls-3" x1="34.8" y1="45.66" x2="34.8" y2="45.66"/><line class="cls-3" x1="33.01" y1="45.66" x2="33.01" y2="45.66"/><line class="cls-3" x1="38.39" y1="45.66" x2="38.39" y2="45.66"/><line class="cls-3" x1="36.6" y1="45.66" x2="36.6" y2="45.66"/><line class="cls-3" x1="41.98" y1="45.66" x2="41.98" y2="45.66"/><line class="cls-3" x1="40.19" y1="45.66" x2="40.19" y2="45.66"/><line class="cls-3" x1="43.78" y1="45.66" x2="43.78" y2="45.66"/><rect class="cls-1" width="46.75" height="46.75"/></svg>