<svg id="Layer_1" data-name="Layer 1" xmlns="http://www.w3.org/2000/svg" width="54.18" height="54.13" viewBox="0 0 54.18 54.13"><defs><style>.cls-1,.cls-2,.cls-3{fill:none;}.cls-1,.cls-2{stroke:#000;}.cls-1{stroke-width:0.3px;}.cls-2{stroke-linecap:round;stroke-width:0.7px;}</style></defs><title>Artboard 37</title><path class="cls-1" d="M43.83,27.38c-3.17-.42-4.92.66-6.17.91"/><path class="cls-1" d="M52.66,28a8.82,8.82,0,0,1-6.83-.25"/><path class="cls-1" d="M27.58,27.21a12.69,12.69,0,0,1-5.13.91"/><path class="cls-1" d="M36.58,28.21c-.42-.08-2.25.42-3.61-.5a7.28,7.28,0,0,0-3.56-.5"/><path class="cls-1" d="M22.45,38.06a8.07,8.07,0,0,0,1.05-.35"/><path class="cls-1" d="M32.75,38.13c-1.5-.17-3.92-1.75-7.5-1.08"/><path class="cls-1" d="M43.08,37.13a7.27,7.27,0,0,0-4.42-.08c-1.25.33-2.33,1.08-3.83,1.08"/><path class="cls-1" d="M52.08,37.05c-2.17,1.08-6.17,1-7.33.75"/><path class="cls-1" d="M61.08,38.05c-.42-.09-2.25.41-3.61-.5a7.17,7.17,0,0,0-3.56-.5"/><path class="cls-1" d="M27.37,2.75a10.31,10.31,0,0,0-4.92.54"/><path class="cls-1" d="M36.2,3.42a8.87,8.87,0,0,1-6.83-.25"/><path class="cls-1" d="M45.45,3.84C44,3.67,41.54,2.09,38,2.75"/><path class="cls-1" d="M55.79,2.84a7.28,7.28,0,0,0-4.42-.09c-1.25.34-2.33,1.09-3.83,1.09"/><path class="cls-1" d="M29.62,17.38c-3.17-.42-4.92.66-6.17.91"/><path class="cls-1" d="M31.62,17.79a8.82,8.82,0,0,0,6.83.25"/><path class="cls-1" d="M40.2,17.38c3.59-.67,6,.91,7.5,1.08"/><path class="cls-1" d="M49.79,18.46c1.5,0,2.58-.75,3.83-1.08a7.27,7.27,0,0,1,4.42.08"/><path class="cls-1" d="M29.75,32.25c-3.17-.41-4.92.67-6.17.92"/><path class="cls-1" d="M31.75,32.67a8.86,8.86,0,0,0,6.83.25"/><path class="cls-1" d="M40.33,32.25c3.58-.66,6,.92,7.5,1.09"/><path class="cls-1" d="M49.91,33.34c1.5,0,2.59-.75,3.84-1.09a7.25,7.25,0,0,1,4.41.09"/><path class="cls-1" d="M29.41,7.5c-3.16-.41-4.91.67-6.16.92"/><path class="cls-1" d="M38.25,8.17a8.89,8.89,0,0,1-6.84-.25"/><path class="cls-1" d="M40,7.5c3.58-.66,6,.92,7.5,1.09"/><path class="cls-1" d="M49.58,8.59c1.5,0,2.58-.75,3.83-1.09a7.28,7.28,0,0,1,4.42.09"/><path class="cls-1" d="M43.16,12.38C40,12,38.25,13,37,13.29"/><path class="cls-1" d="M52,13a8.85,8.85,0,0,1-6.84-.25"/><path class="cls-1" d="M61.25,13.46c-1.5-.17-3.92-1.75-7.5-1.08"/><path class="cls-1" d="M38.25,23.42c1.25-.25,3-1.33,6.16-.92"/><path class="cls-1" d="M46.41,22.92a8.89,8.89,0,0,0,6.84.25"/><path class="cls-1" d="M28,22.38a13.11,13.11,0,0,1-5.5.9"/><path class="cls-1" d="M29.79,22.38a7.17,7.17,0,0,1,3.56.5c1.35.91,3.19.41,3.6.5"/><path class="cls-1" d="M26.58,12.5a11.13,11.13,0,0,1-4.13.88"/><path class="cls-1" d="M35.58,13.5c-.42-.08-2.25.42-3.61-.5a7.28,7.28,0,0,0-3.56-.5"/><line class="cls-2" x1="23.1" y1="0.23" x2="23.1" y2="0.23"/><line class="cls-2" x1="25.02" y1="0.1" x2="25.02" y2="0.1"/><line class="cls-2" x1="26.97" y1="0.23" x2="26.97" y2="0.23"/><line class="cls-2" x1="28.91" y1="0.67" x2="28.91" y2="0.67"/><line class="cls-2" x1="30.76" y1="1.04" x2="30.76" y2="1.04"/><line class="cls-2" x1="32.78" y1="1.16" x2="32.78" y2="1.16"/><line class="cls-2" x1="34.84" y1="0.85" x2="34.84" y2="0.85"/><line class="cls-2" x1="36.66" y1="0.23" x2="36.66" y2="0.23"/><line class="cls-2" x1="38.59" y1="0.1" x2="38.59" y2="0.1"/><line class="cls-2" x1="40.53" y1="0.23" x2="40.53" y2="0.23"/><line class="cls-2" x1="42.47" y1="0.67" x2="42.47" y2="0.67"/><line class="cls-2" x1="44.2" y1="1.04" x2="44.2" y2="1.04"/><line class="cls-2" x1="46.21" y1="1.11" x2="46.21" y2="1.11"/><line class="cls-2" x1="48.27" y1="0.79" x2="48.27" y2="0.79"/><line class="cls-2" x1="50.09" y1="0.17" x2="50.09" y2="0.17"/><line class="cls-2" x1="52.01" y1="0.04" x2="52.01" y2="0.04"/><line class="cls-2" x1="53.96" y1="0.17" x2="53.96" y2="0.17"/><line class="cls-2" x1="23.61" y1="6.01" x2="23.61" y2="6.01"/><line class="cls-2" x1="25.43" y1="5.39" x2="25.43" y2="5.39"/><line class="cls-2" x1="27.36" y1="5.27" x2="27.36" y2="5.27"/><line class="cls-2" x1="29.31" y1="5.39" x2="29.31" y2="5.39"/><line class="cls-2" x1="31.24" y1="5.84" x2="31.24" y2="5.84"/><line class="cls-2" x1="33.09" y1="6.21" x2="33.09" y2="6.21"/><line class="cls-2" x1="35.12" y1="6.33" x2="35.12" y2="6.33"/><line class="cls-2" x1="37.17" y1="6.01" x2="37.17" y2="6.01"/><line class="cls-2" x1="38.99" y1="5.39" x2="38.99" y2="5.39"/><line class="cls-2" x1="40.92" y1="5.27" x2="40.92" y2="5.27"/><line class="cls-2" x1="42.87" y1="5.39" x2="42.87" y2="5.39"/><line class="cls-2" x1="44.81" y1="5.84" x2="44.81" y2="5.84"/><line class="cls-2" x1="46.54" y1="6.21" x2="46.54" y2="6.21"/><line class="cls-2" x1="48.54" y1="6.27" x2="48.54" y2="6.27"/><line class="cls-2" x1="50.6" y1="5.96" x2="50.6" y2="5.96"/><line class="cls-2" x1="52.42" y1="5.34" x2="52.42" y2="5.34"/><line class="cls-2" x1="54.34" y1="5.21" x2="54.34" y2="5.21"/><line class="cls-2" x1="23.45" y1="10.68" x2="23.45" y2="10.68"/><line class="cls-2" x1="25.26" y1="10.06" x2="25.26" y2="10.06"/><line class="cls-2" x1="27.19" y1="9.94" x2="27.19" y2="9.94"/><line class="cls-2" x1="29.14" y1="10.06" x2="29.14" y2="10.06"/><line class="cls-2" x1="31.08" y1="10.5" x2="31.08" y2="10.5"/><line class="cls-2" x1="32.92" y1="10.87" x2="32.92" y2="10.87"/><line class="cls-2" x1="34.95" y1="11" x2="34.95" y2="11"/><line class="cls-2" x1="37.01" y1="10.68" x2="37.01" y2="10.68"/><line class="cls-2" x1="38.83" y1="10.06" x2="38.83" y2="10.06"/><line class="cls-2" x1="40.75" y1="9.94" x2="40.75" y2="9.94"/><line class="cls-2" x1="42.7" y1="10.06" x2="42.7" y2="10.06"/><line class="cls-2" x1="44.64" y1="10.5" x2="44.64" y2="10.5"/><line class="cls-2" x1="46.37" y1="10.87" x2="46.37" y2="10.87"/><line class="cls-2" x1="48.38" y1="10.94" x2="48.38" y2="10.94"/><line class="cls-2" x1="50.43" y1="10.62" x2="50.43" y2="10.62"/><line class="cls-2" x1="52.25" y1="10" x2="52.25" y2="10"/><line class="cls-2" x1="54.18" y1="9.88" x2="54.18" y2="9.88"/><line class="cls-2" x1="22.93" y1="16" x2="22.93" y2="16"/><line class="cls-2" x1="24.78" y1="15.68" x2="24.78" y2="15.68"/><line class="cls-2" x1="26.6" y1="15.06" x2="26.6" y2="15.06"/><line class="cls-2" x1="28.52" y1="14.94" x2="28.52" y2="14.94"/><line class="cls-2" x1="30.47" y1="15.06" x2="30.47" y2="15.06"/><line class="cls-2" x1="32.41" y1="15.5" x2="32.41" y2="15.5"/><line class="cls-2" x1="34.26" y1="15.87" x2="34.26" y2="15.87"/><line class="cls-2" x1="36.28" y1="16" x2="36.28" y2="16"/><line class="cls-2" x1="38.34" y1="15.68" x2="38.34" y2="15.68"/><line class="cls-2" x1="40.16" y1="15.06" x2="40.16" y2="15.06"/><line class="cls-2" x1="42.09" y1="14.94" x2="42.09" y2="14.94"/><line class="cls-2" x1="44.03" y1="15.06" x2="44.03" y2="15.06"/><line class="cls-2" x1="45.97" y1="15.5" x2="45.97" y2="15.5"/><line class="cls-2" x1="47.7" y1="15.87" x2="47.7" y2="15.87"/><line class="cls-2" x1="49.71" y1="15.94" x2="49.71" y2="15.94"/><line class="cls-2" x1="51.77" y1="15.62" x2="51.77" y2="15.62"/><line class="cls-2" x1="53.59" y1="15" x2="53.59" y2="15"/><line class="cls-2" x1="23.78" y1="21" x2="23.78" y2="21"/><line class="cls-2" x1="25.78" y1="20.68" x2="25.78" y2="20.68"/><line class="cls-2" x1="27.6" y1="20.06" x2="27.6" y2="20.06"/><line class="cls-2" x1="29.52" y1="19.94" x2="29.52" y2="19.94"/><line class="cls-2" x1="31.47" y1="20.06" x2="31.47" y2="20.06"/><line class="cls-2" x1="33.41" y1="20.5" x2="33.41" y2="20.5"/><line class="cls-2" x1="35.26" y1="20.87" x2="35.26" y2="20.87"/><line class="cls-2" x1="37.28" y1="21" x2="37.28" y2="21"/><line class="cls-2" x1="39.34" y1="20.68" x2="39.34" y2="20.68"/><line class="cls-2" x1="41.16" y1="20.06" x2="41.16" y2="20.06"/><line class="cls-2" x1="43.09" y1="19.94" x2="43.09" y2="19.94"/><line class="cls-2" x1="45.03" y1="20.06" x2="45.03" y2="20.06"/><line class="cls-2" x1="46.97" y1="20.5" x2="46.97" y2="20.5"/><line class="cls-2" x1="48.7" y1="20.87" x2="48.7" y2="20.87"/><line class="cls-2" x1="50.71" y1="20.94" x2="50.71" y2="20.94"/><line class="cls-2" x1="52.77" y1="20.62" x2="52.77" y2="20.62"/><line class="cls-2" x1="23.61" y1="25.83" x2="23.61" y2="25.83"/><line class="cls-2" x1="25.61" y1="25.51" x2="25.61" y2="25.51"/><line class="cls-2" x1="27.43" y1="24.89" x2="27.43" y2="24.89"/><line class="cls-2" x1="29.36" y1="24.77" x2="29.36" y2="24.77"/><line class="cls-2" x1="31.31" y1="24.89" x2="31.31" y2="24.89"/><line class="cls-2" x1="33.24" y1="25.34" x2="33.24" y2="25.34"/><line class="cls-2" x1="35.09" y1="25.71" x2="35.09" y2="25.71"/><line class="cls-2" x1="37.12" y1="25.83" x2="37.12" y2="25.83"/><line class="cls-2" x1="39.17" y1="25.51" x2="39.17" y2="25.51"/><line class="cls-2" x1="40.99" y1="24.89" x2="40.99" y2="24.89"/><line class="cls-2" x1="42.92" y1="24.77" x2="42.92" y2="24.77"/><line class="cls-2" x1="44.87" y1="24.89" x2="44.87" y2="24.89"/><line class="cls-2" x1="46.81" y1="25.34" x2="46.81" y2="25.34"/><line class="cls-2" x1="48.54" y1="25.71" x2="48.54" y2="25.71"/><line class="cls-2" x1="50.54" y1="25.77" x2="50.54" y2="25.77"/><line class="cls-2" x1="52.6" y1="25.46" x2="52.6" y2="25.46"/><line class="cls-2" x1="54.42" y1="24.84" x2="54.42" y2="24.84"/><line class="cls-2" x1="24.33" y1="30.55" x2="24.33" y2="30.55"/><line class="cls-2" x1="26.15" y1="29.94" x2="26.15" y2="29.94"/><line class="cls-2" x1="28.07" y1="29.81" x2="28.07" y2="29.81"/><line class="cls-2" x1="30.02" y1="29.94" x2="30.02" y2="29.94"/><line class="cls-2" x1="31.96" y1="30.38" x2="31.96" y2="30.38"/><line class="cls-2" x1="33.81" y1="30.75" x2="33.81" y2="30.75"/><line class="cls-2" x1="35.84" y1="30.87" x2="35.84" y2="30.87"/><line class="cls-2" x1="37.89" y1="30.55" x2="37.89" y2="30.55"/><line class="cls-2" x1="39.71" y1="29.94" x2="39.71" y2="29.94"/><line class="cls-2" x1="41.64" y1="29.81" x2="41.64" y2="29.81"/><line class="cls-2" x1="43.59" y1="29.94" x2="43.59" y2="29.94"/><line class="cls-2" x1="45.52" y1="30.38" x2="45.52" y2="30.38"/><line class="cls-2" x1="47.26" y1="30.75" x2="47.26" y2="30.75"/><line class="cls-2" x1="49.26" y1="30.82" x2="49.26" y2="30.82"/><line class="cls-2" x1="51.32" y1="30.5" x2="51.32" y2="30.5"/><line class="cls-2" x1="53.14" y1="29.88" x2="53.14" y2="29.88"/><line class="cls-2" x1="23.06" y1="35.44" x2="23.06" y2="35.44"/><line class="cls-2" x1="24.88" y1="34.82" x2="24.88" y2="34.82"/><line class="cls-2" x1="26.8" y1="34.7" x2="26.8" y2="34.7"/><line class="cls-2" x1="28.75" y1="34.82" x2="28.75" y2="34.82"/><line class="cls-2" x1="30.69" y1="35.27" x2="30.69" y2="35.27"/><line class="cls-2" x1="32.54" y1="35.64" x2="32.54" y2="35.64"/><line class="cls-2" x1="34.56" y1="35.76" x2="34.56" y2="35.76"/><line class="cls-2" x1="36.62" y1="35.44" x2="36.62" y2="35.44"/><line class="cls-2" x1="38.44" y1="34.82" x2="38.44" y2="34.82"/><line class="cls-2" x1="40.37" y1="34.7" x2="40.37" y2="34.7"/><line class="cls-2" x1="42.31" y1="34.82" x2="42.31" y2="34.82"/><line class="cls-2" x1="44.25" y1="35.27" x2="44.25" y2="35.27"/><line class="cls-2" x1="45.98" y1="35.64" x2="45.98" y2="35.64"/><line class="cls-2" x1="47.99" y1="35.71" x2="47.99" y2="35.71"/><line class="cls-2" x1="50.05" y1="35.39" x2="50.05" y2="35.39"/><line class="cls-2" x1="51.87" y1="34.77" x2="51.87" y2="34.77"/><line class="cls-2" x1="53.79" y1="34.64" x2="53.79" y2="34.64"/><rect class="cls-3" x="22.45" y="-15.43" width="54.13" height="54.13"/><path class="cls-1" d="M23.41,42.92c1.25-.25,3-1.33,6.17-.92"/><path class="cls-1" d="M31.58,42.42a8.87,8.87,0,0,0,6.83.25"/><path class="cls-1" d="M40.16,42c3.59-.66,6,.92,7.5,1.09"/><path class="cls-1" d="M49.75,43.09c1.5,0,2.58-.75,3.83-1.09a7.28,7.28,0,0,1,4.42.09"/><path class="cls-1" d="M25.41,46.84a9.79,9.79,0,0,1-3,.78"/><path class="cls-1" d="M34.41,47.84c-.41-.09-2.25.41-3.6-.5a7.17,7.17,0,0,0-3.56-.5"/><path class="cls-1" d="M41.5,46.88c-3.17-.42-4.92.66-6.17.91"/><path class="cls-1" d="M50.33,47.54a8.82,8.82,0,0,1-6.83-.25"/><path class="cls-1" d="M52.08,46.88c3.58-.67,6,.91,7.5,1.08"/><path class="cls-1" d="M30.33,52.88c-1.5-.17-3.92-1.75-7.5-1.09"/><path class="cls-1" d="M32.41,52.88c1.5,0,2.59-.75,3.84-1.09a7.25,7.25,0,0,1,4.41.09"/><path class="cls-1" d="M42.33,52.54c1.17.25,5.17.34,7.33-.75"/><path class="cls-1" d="M51.5,51.79a7.28,7.28,0,0,1,3.56.5c1.35.92,3.19.42,3.6.5"/><line class="cls-2" x1="22.91" y1="40.57" x2="22.91" y2="40.57"/><line class="cls-2" x1="24.91" y1="40.25" x2="24.91" y2="40.25"/><line class="cls-2" x1="26.73" y1="39.63" x2="26.73" y2="39.63"/><line class="cls-2" x1="28.66" y1="39.5" x2="28.66" y2="39.5"/><line class="cls-2" x1="30.61" y1="39.63" x2="30.61" y2="39.63"/><line class="cls-2" x1="32.54" y1="40.07" x2="32.54" y2="40.07"/><line class="cls-2" x1="34.39" y1="40.44" x2="34.39" y2="40.44"/><line class="cls-2" x1="36.42" y1="40.57" x2="36.42" y2="40.57"/><line class="cls-2" x1="38.47" y1="40.25" x2="38.47" y2="40.25"/><line class="cls-2" x1="40.29" y1="39.63" x2="40.29" y2="39.63"/><line class="cls-2" x1="42.22" y1="39.5" x2="42.22" y2="39.5"/><line class="cls-2" x1="44.17" y1="39.63" x2="44.17" y2="39.63"/><line class="cls-2" x1="46.11" y1="40.07" x2="46.11" y2="40.07"/><line class="cls-2" x1="47.84" y1="40.44" x2="47.84" y2="40.44"/><line class="cls-2" x1="49.84" y1="40.51" x2="49.84" y2="40.51"/><line class="cls-2" x1="51.9" y1="40.19" x2="51.9" y2="40.19"/><line class="cls-2" x1="53.72" y1="39.57" x2="53.72" y2="39.57"/><line class="cls-2" x1="23.28" y1="45.14" x2="23.28" y2="45.14"/><line class="cls-2" x1="25.1" y1="44.52" x2="25.1" y2="44.52"/><line class="cls-2" x1="27.02" y1="44.39" x2="27.02" y2="44.39"/><line class="cls-2" x1="28.97" y1="44.52" x2="28.97" y2="44.52"/><line class="cls-2" x1="30.91" y1="44.96" x2="30.91" y2="44.96"/><line class="cls-2" x1="32.76" y1="45.33" x2="32.76" y2="45.33"/><line class="cls-2" x1="34.78" y1="45.46" x2="34.78" y2="45.46"/><line class="cls-2" x1="36.84" y1="45.14" x2="36.84" y2="45.14"/><line class="cls-2" x1="38.66" y1="44.52" x2="38.66" y2="44.52"/><line class="cls-2" x1="40.59" y1="44.39" x2="40.59" y2="44.39"/><line class="cls-2" x1="42.53" y1="44.52" x2="42.53" y2="44.52"/><line class="cls-2" x1="44.47" y1="44.96" x2="44.47" y2="44.96"/><line class="cls-2" x1="46.2" y1="45.33" x2="46.2" y2="45.33"/><line class="cls-2" x1="48.21" y1="45.4" x2="48.21" y2="45.4"/><line class="cls-2" x1="50.27" y1="45.08" x2="50.27" y2="45.08"/><line class="cls-2" x1="52.09" y1="44.46" x2="52.09" y2="44.46"/><line class="cls-2" x1="54.01" y1="44.34" x2="54.01" y2="44.34"/><line class="cls-2" x1="22.93" y1="49.52" x2="22.93" y2="49.52"/><line class="cls-2" x1="24.86" y1="49.39" x2="24.86" y2="49.39"/><line class="cls-2" x1="26.81" y1="49.52" x2="26.81" y2="49.52"/><line class="cls-2" x1="28.74" y1="49.96" x2="28.74" y2="49.96"/><line class="cls-2" x1="30.59" y1="50.33" x2="30.59" y2="50.33"/><line class="cls-2" x1="32.62" y1="50.46" x2="32.62" y2="50.46"/><line class="cls-2" x1="34.67" y1="50.14" x2="34.67" y2="50.14"/><line class="cls-2" x1="36.49" y1="49.52" x2="36.49" y2="49.52"/><line class="cls-2" x1="38.42" y1="49.39" x2="38.42" y2="49.39"/><line class="cls-2" x1="40.37" y1="49.52" x2="40.37" y2="49.52"/><line class="cls-2" x1="42.31" y1="49.96" x2="42.31" y2="49.96"/><line class="cls-2" x1="44.04" y1="50.33" x2="44.04" y2="50.33"/><line class="cls-2" x1="46.04" y1="50.4" x2="46.04" y2="50.4"/><line class="cls-2" x1="48.1" y1="50.08" x2="48.1" y2="50.08"/><line class="cls-2" x1="49.92" y1="49.46" x2="49.92" y2="49.46"/><line class="cls-2" x1="51.84" y1="49.34" x2="51.84" y2="49.34"/><line class="cls-2" x1="53.79" y1="49.46" x2="53.79" y2="49.46"/><line class="cls-2" x1="23.1" y1="54.35" x2="23.1" y2="54.35"/><line class="cls-2" x1="25.02" y1="54.23" x2="25.02" y2="54.23"/><line class="cls-2" x1="26.97" y1="54.35" x2="26.97" y2="54.35"/><line class="cls-2" x1="36.66" y1="54.35" x2="36.66" y2="54.35"/><line class="cls-2" x1="38.59" y1="54.23" x2="38.59" y2="54.23"/><line class="cls-2" x1="40.53" y1="54.35" x2="40.53" y2="54.35"/><line class="cls-2" x1="50.09" y1="54.29" x2="50.09" y2="54.29"/><line class="cls-2" x1="52.01" y1="54.17" x2="52.01" y2="54.17"/><line class="cls-2" x1="53.96" y1="54.29" x2="53.96" y2="54.29"/><rect class="cls-3" x="22.45" y="38.69" width="54.13" height="54.13"/><path class="cls-1" d="M7.79,28.46c-1.5-.17-3.92-1.75-7.5-1.08"/><path class="cls-1" d="M9.87,28.46c1.5,0,2.58-.75,3.83-1.08a7.27,7.27,0,0,1,4.42.08"/><path class="cls-1" d="M7,38.05c-.41-.09-2.25.41-3.6-.5a7.17,7.17,0,0,0-3.56-.5"/><path class="cls-1" d="M14.7,36.88c-3.16-.42-4.91.67-6.16.92"/><path class="cls-1" d="M1.66,2.84a7.25,7.25,0,0,0-4.41-.09C-4,3.09-5.09,3.84-6.59,3.84"/><path class="cls-1" d="M10.66,2.75c-2.16,1.09-6.16,1-7.33.75"/><path class="cls-1" d="M12.5,2.75a7.28,7.28,0,0,1,3.56.5c1.35.92,3.19.42,3.6.5"/><path class="cls-1" d="M-4.34,18.46c1.5,0,2.59-.75,3.84-1.08a7.24,7.24,0,0,1,4.41.08"/><path class="cls-1" d="M5.58,18.13c1.17.25,5.17.33,7.33-.75"/><path class="cls-1" d="M14.75,17.38a7.17,7.17,0,0,1,3.56.5c1.35.91,3.19.41,3.6.5"/><path class="cls-1" d="M-4.21,33.34c1.5,0,2.58-.75,3.83-1.09A7.28,7.28,0,0,1,4,32.34"/><path class="cls-1" d="M5.7,33c1.17.25,5.17.34,7.34-.75"/><path class="cls-1" d="M22,33.25c-.42-.08-2.25.42-3.61-.5a7.28,7.28,0,0,0-3.56-.5"/><path class="cls-1" d="M-4.55,8.59C-3,8.59-2,7.84-.71,7.5a7.25,7.25,0,0,1,4.41.09"/><path class="cls-1" d="M5.37,8.25c1.17.25,5.17.34,7.33-.75"/><path class="cls-1" d="M14.54,7.5A7.28,7.28,0,0,1,18.1,8c1.35.92,3.19.42,3.6.5"/><path class="cls-1" d="M7.12,13.46c-1.5-.17-3.92-1.75-7.5-1.08"/><path class="cls-1" d="M9.2,13.46c1.5,0,2.59-.75,3.84-1.08a7.24,7.24,0,0,1,4.41.08"/><path class="cls-1" d="M.87,22.5c3.58-.66,6,.92,7.5,1.09"/><path class="cls-1" d="M10.45,23.59c1.5,0,2.59-.75,3.84-1.09a7.25,7.25,0,0,1,4.41.09"/><path class="cls-1" d="M20.25,28a12.28,12.28,0,0,0,2.2.16"/><path class="cls-1" d="M16.66,37.46a9.42,9.42,0,0,0,5.79.6"/><path class="cls-1" d="M21.2,3.67a9.94,9.94,0,0,0,1.25-.38"/><path class="cls-1" d="M20.62,23.13a10.51,10.51,0,0,0,1.83.15"/><path class="cls-1" d="M19.25,13.25a13.64,13.64,0,0,0,3.2.13"/><line class="cls-2" x1="-0.16" y1="0.17" x2="-0.16" y2="0.17"/><line class="cls-2" x1="1.77" y1="0.61" x2="1.77" y2="0.61"/><line class="cls-2" x1="3.68" y1="0.98" x2="3.68" y2="0.98"/><line class="cls-2" x1="5.65" y1="1.11" x2="5.65" y2="1.11"/><line class="cls-2" x1="7.71" y1="0.79" x2="7.71" y2="0.79"/><line class="cls-2" x1="9.53" y1="0.17" x2="9.53" y2="0.17"/><line class="cls-2" x1="11.45" y1="0.04" x2="11.45" y2="0.04"/><line class="cls-2" x1="13.4" y1="0.17" x2="13.4" y2="0.17"/><line class="cls-2" x1="15.34" y1="0.61" x2="15.34" y2="0.61"/><line class="cls-2" x1="17.07" y1="0.98" x2="17.07" y2="0.98"/><line class="cls-2" x1="19.06" y1="1.05" x2="19.06" y2="1.05"/><line class="cls-2" x1="21.12" y1="0.73" x2="21.12" y2="0.73"/><line class="cls-2" x1="0.22" y1="5.21" x2="0.22" y2="5.21"/><line class="cls-2" x1="2.17" y1="5.34" x2="2.17" y2="5.34"/><line class="cls-2" x1="4.11" y1="5.78" x2="4.11" y2="5.78"/><line class="cls-2" x1="6.01" y1="6.15" x2="6.01" y2="6.15"/><line class="cls-2" x1="7.99" y1="6.27" x2="7.99" y2="6.27"/><line class="cls-2" x1="10.04" y1="5.96" x2="10.04" y2="5.96"/><line class="cls-2" x1="11.86" y1="5.34" x2="11.86" y2="5.34"/><line class="cls-2" x1="13.79" y1="5.21" x2="13.79" y2="5.21"/><line class="cls-2" x1="15.74" y1="5.34" x2="15.74" y2="5.34"/><line class="cls-2" x1="17.67" y1="5.78" x2="17.67" y2="5.78"/><line class="cls-2" x1="19.41" y1="6.15" x2="19.41" y2="6.15"/><line class="cls-2" x1="21.4" y1="6.22" x2="21.4" y2="6.22"/><line class="cls-2" x1="0.05" y1="9.88" x2="0.05" y2="9.88"/><line class="cls-2" x1="2" y1="10" x2="2" y2="10"/><line class="cls-2" x1="3.94" y1="10.45" x2="3.94" y2="10.45"/><line class="cls-2" x1="5.84" y1="10.82" x2="5.84" y2="10.82"/><line class="cls-2" x1="7.82" y1="10.94" x2="7.82" y2="10.94"/><line class="cls-2" x1="9.88" y1="10.62" x2="9.88" y2="10.62"/><line class="cls-2" x1="11.7" y1="10" x2="11.7" y2="10"/><line class="cls-2" x1="13.62" y1="9.88" x2="13.62" y2="9.88"/><line class="cls-2" x1="15.57" y1="10" x2="15.57" y2="10"/><line class="cls-2" x1="17.51" y1="10.45" x2="17.51" y2="10.45"/><line class="cls-2" x1="19.24" y1="10.82" x2="19.24" y2="10.82"/><line class="cls-2" x1="21.23" y1="10.88" x2="21.23" y2="10.88"/><line class="cls-2" x1="1.39" y1="14.88" x2="1.39" y2="14.88"/><line class="cls-2" x1="3.34" y1="15" x2="3.34" y2="15"/><line class="cls-2" x1="5.27" y1="15.45" x2="5.27" y2="15.45"/><line class="cls-2" x1="7.18" y1="15.82" x2="7.18" y2="15.82"/><line class="cls-2" x1="9.15" y1="15.94" x2="9.15" y2="15.94"/><line class="cls-2" x1="11.21" y1="15.62" x2="11.21" y2="15.62"/><line class="cls-2" x1="13.03" y1="15" x2="13.03" y2="15"/><line class="cls-2" x1="14.95" y1="14.88" x2="14.95" y2="14.88"/><line class="cls-2" x1="16.9" y1="15" x2="16.9" y2="15"/><line class="cls-2" x1="18.84" y1="15.45" x2="18.84" y2="15.45"/><line class="cls-2" x1="20.57" y1="15.82" x2="20.57" y2="15.82"/><line class="cls-2" x1="0.46" y1="20" x2="0.46" y2="20"/><line class="cls-2" x1="2.39" y1="19.88" x2="2.39" y2="19.88"/><line class="cls-2" x1="4.34" y1="20" x2="4.34" y2="20"/><line class="cls-2" x1="6.27" y1="20.45" x2="6.27" y2="20.45"/><line class="cls-2" x1="8.18" y1="20.82" x2="8.18" y2="20.82"/><line class="cls-2" x1="10.15" y1="20.94" x2="10.15" y2="20.94"/><line class="cls-2" x1="12.21" y1="20.62" x2="12.21" y2="20.62"/><line class="cls-2" x1="14.03" y1="20" x2="14.03" y2="20"/><line class="cls-2" x1="15.95" y1="19.88" x2="15.95" y2="19.88"/><line class="cls-2" x1="17.9" y1="20" x2="17.9" y2="20"/><line class="cls-2" x1="19.84" y1="20.45" x2="19.84" y2="20.45"/><line class="cls-2" x1="21.57" y1="20.82" x2="21.57" y2="20.82"/><line class="cls-2" x1="0.29" y1="24.84" x2="0.29" y2="24.84"/><line class="cls-2" x1="2.22" y1="24.71" x2="2.22" y2="24.71"/><line class="cls-2" x1="4.17" y1="24.84" x2="4.17" y2="24.84"/><line class="cls-2" x1="6.11" y1="25.28" x2="6.11" y2="25.28"/><line class="cls-2" x1="8.01" y1="25.65" x2="8.01" y2="25.65"/><line class="cls-2" x1="9.99" y1="25.77" x2="9.99" y2="25.77"/><line class="cls-2" x1="12.04" y1="25.46" x2="12.04" y2="25.46"/><line class="cls-2" x1="13.86" y1="24.84" x2="13.86" y2="24.84"/><line class="cls-2" x1="15.79" y1="24.71" x2="15.79" y2="24.71"/><line class="cls-2" x1="17.74" y1="24.84" x2="17.74" y2="24.84"/><line class="cls-2" x1="19.67" y1="25.28" x2="19.67" y2="25.28"/><line class="cls-2" x1="21.41" y1="25.65" x2="21.41" y2="25.65"/><line class="cls-2" x1="0.94" y1="29.75" x2="0.94" y2="29.75"/><line class="cls-2" x1="2.89" y1="29.88" x2="2.89" y2="29.88"/><line class="cls-2" x1="4.82" y1="30.32" x2="4.82" y2="30.32"/><line class="cls-2" x1="6.73" y1="30.69" x2="6.73" y2="30.69"/><line class="cls-2" x1="8.7" y1="30.82" x2="8.7" y2="30.82"/><line class="cls-2" x1="10.76" y1="30.5" x2="10.76" y2="30.5"/><line class="cls-2" x1="12.58" y1="29.88" x2="12.58" y2="29.88"/><line class="cls-2" x1="14.51" y1="29.75" x2="14.51" y2="29.75"/><line class="cls-2" x1="16.45" y1="29.88" x2="16.45" y2="29.88"/><line class="cls-2" x1="18.39" y1="30.32" x2="18.39" y2="30.32"/><line class="cls-2" x1="20.12" y1="30.69" x2="20.12" y2="30.69"/><line class="cls-2" x1="22.11" y1="30.76" x2="22.11" y2="30.76"/><line class="cls-2" x1="-0.33" y1="34.64" x2="-0.33" y2="34.64"/><line class="cls-2" x1="1.62" y1="34.77" x2="1.62" y2="34.77"/><line class="cls-2" x1="3.55" y1="35.21" x2="3.55" y2="35.21"/><line class="cls-2" x1="5.46" y1="35.58" x2="5.46" y2="35.58"/><line class="cls-2" x1="7.43" y1="35.71" x2="7.43" y2="35.71"/><line class="cls-2" x1="9.49" y1="35.39" x2="9.49" y2="35.39"/><line class="cls-2" x1="11.31" y1="34.77" x2="11.31" y2="34.77"/><line class="cls-2" x1="13.23" y1="34.64" x2="13.23" y2="34.64"/><line class="cls-2" x1="15.18" y1="34.77" x2="15.18" y2="34.77"/><line class="cls-2" x1="17.12" y1="35.21" x2="17.12" y2="35.21"/><line class="cls-2" x1="18.85" y1="35.58" x2="18.85" y2="35.58"/><line class="cls-2" x1="20.84" y1="35.65" x2="20.84" y2="35.65"/><rect class="cls-3" x="-31.67" y="-15.43" width="54.13" height="54.13"/><path class="cls-1" d="M-4.38,43.09c1.5,0,2.58-.75,3.83-1.09a7.28,7.28,0,0,1,4.42.09"/><path class="cls-1" d="M5.54,42.75c1.16.25,5.16.34,7.33-.75"/><path class="cls-1" d="M14.7,42a7.28,7.28,0,0,1,3.56.5c1.36.92,3.19.42,3.61.5"/><path class="cls-1" d="M6.54,52.75c1.25-.25,3-1.33,6.16-.91"/><path class="cls-1" d="M14.7,52.25a8.85,8.85,0,0,0,6.84.25"/><path class="cls-1" d="M-2,46.88c3.59-.67,6,.91,7.5,1.08"/><path class="cls-1" d="M7.54,48c1.5,0,2.58-.75,3.83-1.08a7.27,7.27,0,0,1,4.42.08"/><path class="cls-1" d="M-2.63,51.79a7.28,7.28,0,0,1,3.56.5c1.36.92,3.19.42,3.61.5"/><path class="cls-1" d="M18.08,47.59a16.82,16.82,0,0,0,4.37,0"/><line class="cls-2" x1="1.52" y1="39.45" x2="1.52" y2="39.45"/><line class="cls-2" x1="3.47" y1="39.57" x2="3.47" y2="39.57"/><line class="cls-2" x1="5.41" y1="40.02" x2="5.41" y2="40.02"/><line class="cls-2" x1="7.31" y1="40.38" x2="7.31" y2="40.38"/><line class="cls-2" x1="9.29" y1="40.51" x2="9.29" y2="40.51"/><line class="cls-2" x1="11.34" y1="40.19" x2="11.34" y2="40.19"/><line class="cls-2" x1="13.16" y1="39.57" x2="13.16" y2="39.57"/><line class="cls-2" x1="15.09" y1="39.45" x2="15.09" y2="39.45"/><line class="cls-2" x1="17.04" y1="39.57" x2="17.04" y2="39.57"/><line class="cls-2" x1="18.97" y1="40.02" x2="18.97" y2="40.02"/><line class="cls-2" x1="20.71" y1="40.38" x2="20.71" y2="40.38"/><line class="cls-2" x1="-0.11" y1="44.34" x2="-0.11" y2="44.34"/><line class="cls-2" x1="1.84" y1="44.46" x2="1.84" y2="44.46"/><line class="cls-2" x1="3.77" y1="44.91" x2="3.77" y2="44.91"/><line class="cls-2" x1="5.68" y1="45.27" x2="5.68" y2="45.27"/><line class="cls-2" x1="7.65" y1="45.4" x2="7.65" y2="45.4"/><line class="cls-2" x1="9.71" y1="45.08" x2="9.71" y2="45.08"/><line class="cls-2" x1="11.53" y1="44.46" x2="11.53" y2="44.46"/><line class="cls-2" x1="13.45" y1="44.34" x2="13.45" y2="44.34"/><line class="cls-2" x1="15.4" y1="44.46" x2="15.4" y2="44.46"/><line class="cls-2" x1="17.34" y1="44.91" x2="17.34" y2="44.91"/><line class="cls-2" x1="19.07" y1="45.27" x2="19.07" y2="45.27"/><line class="cls-2" x1="21.06" y1="45.34" x2="21.06" y2="45.34"/><line class="cls-2" x1="-0.33" y1="49.46" x2="-0.33" y2="49.46"/><line class="cls-2" x1="1.61" y1="49.91" x2="1.61" y2="49.91"/><line class="cls-2" x1="3.51" y1="50.27" x2="3.51" y2="50.27"/><line class="cls-2" x1="5.49" y1="50.4" x2="5.49" y2="50.4"/><line class="cls-2" x1="7.54" y1="50.08" x2="7.54" y2="50.08"/><line class="cls-2" x1="9.36" y1="49.46" x2="9.36" y2="49.46"/><line class="cls-2" x1="11.29" y1="49.34" x2="11.29" y2="49.34"/><line class="cls-2" x1="13.24" y1="49.46" x2="13.24" y2="49.46"/><line class="cls-2" x1="15.17" y1="49.91" x2="15.17" y2="49.91"/><line class="cls-2" x1="16.91" y1="50.27" x2="16.91" y2="50.27"/><line class="cls-2" x1="18.9" y1="50.34" x2="18.9" y2="50.34"/><line class="cls-2" x1="20.95" y1="50.02" x2="20.95" y2="50.02"/><line class="cls-2" x1="-0.16" y1="54.29" x2="-0.16" y2="54.29"/><line class="cls-2" x1="9.53" y1="54.29" x2="9.53" y2="54.29"/><line class="cls-2" x1="11.45" y1="54.17" x2="11.45" y2="54.17"/><line class="cls-2" x1="13.4" y1="54.29" x2="13.4" y2="54.29"/><rect class="cls-3" x="-31.67" y="38.69" width="54.13" height="54.13"/><rect class="cls-3" width="54.18" height="54.18"/></svg>