<!-- Generator: Adobe Illustrator 22.1.0, SVG Export Plug-In  -->
<svg version="1.1"
     xmlns="http://www.w3.org/2000/svg" xmlns:xlink="http://www.w3.org/1999/xlink" xmlns:a="http://ns.adobe.com/AdobeSVGViewerExtensions/3.0/"
     x="0px" y="0px" width="44.7px" height="42.3px" viewBox="0 0 44.7 42.3" style="enable-background:new 0 0 44.7 42.3;"
     xml:space="preserve">
<style type="text/css">
    .st0{fill:none;stroke:#000000;stroke-width:0.3;}
    .st1{fill:none;stroke:#000000;stroke-width:0.7;stroke-linecap:round;}
</style>
<defs>
</defs>
<line class="st0" x1="0.7" y1="10.6" x2="8.2" y2="10.6"/>
<line class="st0" x1="24.1" y1="10.6" x2="31.6" y2="10.6"/>
<line class="st0" x1="11.5" y1="40.5" x2="4" y2="40.5"/>
<line class="st0" x1="35" y1="40.5" x2="27.5" y2="40.5"/>
<line class="st0" x1="16.9" y1="25.7" x2="9.4" y2="25.7"/>
<line class="st0" x1="40.4" y1="25.7" x2="32.9" y2="25.7"/>
<line class="st0" x1="0" y1="0.2" x2="3.8" y2="0.2"/>
<line class="st0" x1="6.4" y1="0.2" x2="12.7" y2="0.2"/>
<line class="st0" x1="15.3" y1="0.2" x2="21.6" y2="0.2"/>
<line class="st0" x1="24.2" y1="0.2" x2="30.6" y2="0.2"/>
<line class="st0" x1="33.1" y1="0.2" x2="39.5" y2="0.2"/>
<line class="st0" x1="8.1" y1="3.3" x2="1.7" y2="3.3"/>
<line class="st0" x1="17" y1="3.3" x2="10.7" y2="3.3"/>
<line class="st0" x1="25.9" y1="3.3" x2="19.6" y2="3.3"/>
<line class="st0" x1="34.9" y1="3.3" x2="28.5" y2="3.3"/>
<line class="st0" x1="43.8" y1="3.3" x2="37.4" y2="3.3"/>
<line class="st0" x1="2" y1="6.3" x2="0" y2="6.3"/>
<line class="st0" x1="4.6" y1="6.3" x2="11" y2="6.3"/>
<line class="st0" x1="13.5" y1="6.3" x2="19.9" y2="6.3"/>
<line class="st0" x1="22.4" y1="6.3" x2="28.8" y2="6.3"/>
<line class="st0" x1="31.4" y1="6.3" x2="37.7" y2="6.3"/>
<line class="st0" x1="5.2" y1="15" x2="0" y2="15"/>
<line class="st0" x1="7.8" y1="15" x2="14.2" y2="15"/>
<line class="st0" x1="23.1" y1="15" x2="16.7" y2="15"/>
<line class="st0" x1="32" y1="15" x2="25.6" y2="15"/>
<line class="st0" x1="34.5" y1="15" x2="40.9" y2="15"/>
<line class="st0" x1="0" y1="18.2" x2="2.2" y2="18.2"/>
<line class="st0" x1="11.1" y1="18.2" x2="4.8" y2="18.2"/>
<line class="st0" x1="20" y1="18.2" x2="13.7" y2="18.2"/>
<line class="st0" x1="22.6" y1="18.2" x2="29" y2="18.2"/>
<line class="st0" x1="31.5" y1="18.2" x2="37.9" y2="18.2"/>
<line class="st0" x1="6.7" y1="21.1" x2="0.3" y2="21.1"/>
<line class="st0" x1="15.6" y1="21.1" x2="9.2" y2="21.1"/>
<line class="st0" x1="18.1" y1="21.1" x2="24.5" y2="21.1"/>
<line class="st0" x1="33.4" y1="21.1" x2="27.1" y2="21.1"/>
<line class="st0" x1="42.3" y1="21.1" x2="36" y2="21.1"/>
<line class="st0" x1="3" y1="30" x2="0" y2="30"/>
<line class="st0" x1="5.6" y1="30" x2="11.9" y2="30"/>
<line class="st0" x1="14.5" y1="30" x2="20.8" y2="30"/>
<line class="st0" x1="23.4" y1="30" x2="29.8" y2="30"/>
<line class="st0" x1="32.3" y1="30" x2="38.7" y2="30"/>
<line class="st0" x1="6.8" y1="33.2" x2="0.5" y2="33.2"/>
<line class="st0" x1="9.4" y1="33.2" x2="15.8" y2="33.2"/>
<line class="st0" x1="18.3" y1="33.2" x2="24.7" y2="33.2"/>
<line class="st0" x1="27.2" y1="33.2" x2="33.6" y2="33.2"/>
<line class="st0" x1="36.1" y1="33.2" x2="42.5" y2="33.2"/>
<line class="st0" x1="0" y1="36.1" x2="2.2" y2="36.1"/>
<line class="st0" x1="11.1" y1="36.1" x2="4.8" y2="36.1"/>
<line class="st0" x1="20" y1="36.1" x2="13.7" y2="36.1"/>
<line class="st0" x1="29" y1="36.1" x2="22.6" y2="36.1"/>
<line class="st0" x1="37.9" y1="36.1" x2="31.5" y2="36.1"/>
<line class="st0" x1="19.5" y1="23.9" x2="7" y2="23.9"/>
<line class="st0" x1="31.4" y1="23.9" x2="44.7" y2="23.9"/>
<line class="st0" x1="7" y1="23.9" x2="0" y2="23.9"/>
<line class="st0" x1="31.4" y1="23.9" x2="19.5" y2="23.9"/>
<line class="st0" x1="41.7" y1="27.2" x2="44.7" y2="27.2"/>
<line class="st0" x1="0" y1="27.2" x2="41.7" y2="27.2"/>
<line class="st0" x1="31.4" y1="23.9" x2="31.4" y2="27.2"/>
<line class="st0" x1="31.4" y1="23.9" x2="31.4" y2="23.9"/>
<line class="st0" x1="41.7" y1="27.2" x2="41.7" y2="24"/>
<line class="st0" x1="41.7" y1="27.2" x2="41.7" y2="27.3"/>
<line class="st0" x1="19.5" y1="23.9" x2="19.5" y2="27.2"/>
<line class="st0" x1="19.5" y1="23.9" x2="19.5" y2="23.9"/>
<line class="st0" x1="7" y1="23.9" x2="7" y2="23.9"/>
<line class="st0" x1="7" y1="23.9" x2="7" y2="27.2"/>
<line class="st0" x1="34" y1="12.2" x2="44.2" y2="12.2"/>
<line class="st0" x1="9.5" y1="12.2" x2="0" y2="12.2"/>
<line class="st0" x1="44.2" y1="12.2" x2="44.7" y2="12.2"/>
<line class="st0" x1="9.5" y1="12.2" x2="22" y2="12.2"/>
<line class="st0" x1="22" y1="12.2" x2="34" y2="12.2"/>
<line class="st0" x1="9.5" y1="8.9" x2="22" y2="8.9"/>
<line class="st0" x1="44.2" y1="8.9" x2="34" y2="8.9"/>
<line class="st0" x1="9.5" y1="8.9" x2="0" y2="8.9"/>
<line class="st0" x1="22" y1="8.9" x2="34" y2="8.9"/>
<line class="st0" x1="44.2" y1="8.9" x2="44.7" y2="8.9"/>
<line class="st0" x1="9.5" y1="12.2" x2="9.5" y2="12.3"/>
<line class="st0" x1="9.5" y1="8.9" x2="9.5" y2="12.2"/>
<line class="st0" x1="9.5" y1="8.9" x2="9.5" y2="8.9"/>
<line class="st0" x1="22" y1="12.2" x2="22" y2="8.9"/>
<line class="st0" x1="22" y1="12.3" x2="22" y2="12.2"/>
<line class="st0" x1="22" y1="8.9" x2="22" y2="8.9"/>
<line class="st0" x1="44.2" y1="12.2" x2="44.2" y2="12.3"/>
<line class="st0" x1="44.2" y1="8.9" x2="44.2" y2="8.9"/>
<line class="st0" x1="44.2" y1="12.2" x2="44.2" y2="8.9"/>
<line class="st0" x1="34" y1="12.2" x2="34" y2="8.9"/>
<line class="st0" x1="34" y1="12.2" x2="34" y2="12.3"/>
<line class="st0" x1="34" y1="8.9" x2="34" y2="8.9"/>
<line class="st0" x1="0" y1="38.9" x2="44.7" y2="38.9"/>
<line class="st0" x1="0" y1="42.1" x2="44.7" y2="42.1"/>
<line class="st0" x1="36.9" y1="42.1" x2="36.9" y2="38.9"/>
<line class="st0" x1="25.3" y1="38.9" x2="25.3" y2="42.1"/>
<line class="st0" x1="13.7" y1="38.9" x2="13.7" y2="42.1"/>
<line class="st0" x1="1.7" y1="38.9" x2="1.7" y2="42.1"/>
<line class="st0" x1="42.1" y1="0.2" x2="44.7" y2="0.2"/>
<line class="st0" x1="40.3" y1="6.3" x2="44.7" y2="6.3"/>
<line class="st0" x1="44.7" y1="15" x2="43.5" y2="15"/>
<line class="st0" x1="40.5" y1="18.2" x2="44.7" y2="18.2"/>
<line class="st0" x1="44.7" y1="30" x2="41.3" y2="30"/>
<line class="st0" x1="40.5" y1="36.1" x2="44.7" y2="36.1"/>
<line class="st1" x1="16" y1="10.7" x2="16" y2="10.7"/>
<line class="st1" x1="18" y1="10.7" x2="18" y2="10.7"/>
<line class="st1" x1="14" y1="10.7" x2="14" y2="10.7"/>
<line class="st1" x1="39.7" y1="10.7" x2="39.7" y2="10.7"/>
<line class="st1" x1="41.6" y1="10.7" x2="41.6" y2="10.7"/>
<line class="st1" x1="37.6" y1="10.7" x2="37.6" y2="10.7"/>
<line class="st1" x1="25.5" y1="25.7" x2="25.5" y2="25.7"/>
<line class="st1" x1="27.5" y1="25.7" x2="27.5" y2="25.7"/>
<line class="st1" x1="23.5" y1="25.7" x2="23.5" y2="25.7"/>
<line class="st1" x1="19.7" y1="40.5" x2="19.7" y2="40.5"/>
<line class="st1" x1="21.6" y1="40.5" x2="21.6" y2="40.5"/>
<line class="st1" x1="17.6" y1="40.5" x2="17.6" y2="40.5"/>
<line class="st1" x1="41.9" y1="40.5" x2="41.9" y2="40.5"/>
<line class="st1" x1="43.9" y1="40.5" x2="43.9" y2="40.5"/>
<line class="st1" x1="39.8" y1="40.5" x2="39.8" y2="40.5"/>
<line class="st1" x1="1.5" y1="25.7" x2="1.5" y2="25.7"/>
<line class="st1" x1="3.5" y1="25.7" x2="3.5" y2="25.7"/>
<line class="st1" x1="44.3" y1="25.7" x2="44.3" y2="25.7"/>
</svg>
