<svg id="Layer_1" data-name="Layer 1" xmlns="http://www.w3.org/2000/svg" width="44.67" height="44.67" viewBox="0 0 44.67 44.67"><defs><style>.cls-1,.cls-2,.cls-3{fill:none;}.cls-2,.cls-3{stroke:#000;}.cls-2{stroke-width:0.3px;}.cls-3{stroke-linecap:round;stroke-width:0.7px;}</style></defs><title>Artboard 37</title><rect class="cls-1" x="40.28" y="-23.14" width="44.67" height="44.67"/><line class="cls-2" x1="51.78" y1="18.45" x2="44.28" y2="18.45"/><line class="cls-2" x1="43.26" y1="8" x2="40.28" y2="8"/><line class="cls-2" x1="47.11" y1="11.13" x2="40.74" y2="11.13"/><line class="cls-2" x1="40.28" y1="14.1" x2="42.46" y2="14.1"/><line class="cls-2" x1="47.3" y1="1.89" x2="40.28" y2="1.89"/><line class="cls-2" x1="40.28" y1="5.17" x2="82.01" y2="5.17"/><line class="cls-2" x1="40.28" y1="16.87" x2="84.95" y2="16.87"/><line class="cls-2" x1="40.28" y1="20.09" x2="84.95" y2="20.09"/><line class="cls-2" x1="41.99" y1="16.92" x2="41.99" y2="20.08"/><line class="cls-3" x1="41.82" y1="3.65" x2="41.82" y2="3.65"/><line class="cls-3" x1="43.8" y1="3.65" x2="43.8" y2="3.65"/><rect class="cls-1" x="40.28" y="21.53" width="44.67" height="44.67"/><line class="cls-2" x1="40.94" y1="33.19" x2="48.44" y2="33.19"/><line class="cls-2" x1="40.28" y1="22.79" x2="44.06" y2="22.79"/><line class="cls-2" x1="48.39" y1="25.93" x2="42.02" y2="25.93"/><line class="cls-2" x1="42.3" y1="28.9" x2="40.28" y2="28.9"/><line class="cls-2" x1="45.52" y1="37.67" x2="40.28" y2="37.67"/><line class="cls-2" x1="40.28" y1="40.84" x2="42.46" y2="40.84"/><line class="cls-2" x1="46.95" y1="43.75" x2="40.58" y2="43.75"/><line class="cls-2" x1="49.83" y1="34.89" x2="40.28" y2="34.89"/><line class="cls-2" x1="49.83" y1="31.51" x2="40.28" y2="31.51"/><rect class="cls-1" x="-4.39" y="-23.14" width="44.67" height="44.67"/><line class="cls-2" x1="7.11" y1="18.45" x2="-0.39" y2="18.45"/><line class="cls-2" x1="30.61" y1="18.45" x2="23.11" y2="18.45"/><line class="cls-2" x1="12.51" y1="3.65" x2="5.01" y2="3.65"/><line class="cls-2" x1="36.01" y1="3.65" x2="28.51" y2="3.65"/><line class="cls-2" x1="1.17" y1="8" x2="7.54" y2="8"/><line class="cls-2" x1="10.09" y1="8" x2="16.46" y2="8"/><line class="cls-2" x1="19.01" y1="8" x2="25.37" y2="8"/><line class="cls-2" x1="27.92" y1="8" x2="34.29" y2="8"/><line class="cls-2" x1="2.45" y1="11.13" x2="-3.92" y2="11.13"/><line class="cls-2" x1="4.99" y1="11.13" x2="11.36" y2="11.13"/><line class="cls-2" x1="13.91" y1="11.13" x2="20.28" y2="11.13"/><line class="cls-2" x1="22.83" y1="11.13" x2="29.2" y2="11.13"/><line class="cls-2" x1="31.74" y1="11.13" x2="38.11" y2="11.13"/><line class="cls-2" x1="6.75" y1="14.1" x2="0.38" y2="14.1"/><line class="cls-2" x1="15.66" y1="14.1" x2="9.29" y2="14.1"/><line class="cls-2" x1="24.58" y1="14.1" x2="18.21" y2="14.1"/><line class="cls-2" x1="33.5" y1="14.1" x2="27.13" y2="14.1"/><line class="cls-2" x1="15.06" y1="1.89" x2="2.63" y2="1.89"/><line class="cls-2" x1="26.97" y1="1.89" x2="40.28" y2="1.89"/><line class="cls-2" x1="2.63" y1="1.89" x2="-4.39" y2="1.89"/><line class="cls-2" x1="26.97" y1="1.89" x2="15.06" y2="1.89"/><line class="cls-2" x1="37.34" y1="5.17" x2="40.28" y2="5.17"/><line class="cls-2" x1="-4.39" y1="5.17" x2="37.34" y2="5.17"/><line class="cls-2" x1="26.97" y1="1.89" x2="26.97" y2="5.16"/><line class="cls-2" x1="26.97" y1="1.89" x2="26.97" y2="1.86"/><line class="cls-2" x1="37.34" y1="5.17" x2="37.34" y2="1.95"/><line class="cls-2" x1="37.34" y1="5.17" x2="37.34" y2="5.25"/><line class="cls-2" x1="15.06" y1="1.89" x2="15.06" y2="5.16"/><line class="cls-2" x1="15.06" y1="1.86" x2="15.06" y2="1.89"/><line class="cls-2" x1="2.63" y1="1.86" x2="2.63" y2="1.89"/><line class="cls-2" x1="2.63" y1="1.89" x2="2.63" y2="5.16"/><line class="cls-2" x1="-4.39" y1="16.87" x2="40.28" y2="16.87"/><line class="cls-2" x1="-4.39" y1="20.09" x2="40.28" y2="20.09"/><line class="cls-2" x1="32.53" y1="20.08" x2="32.53" y2="16.92"/><line class="cls-2" x1="20.89" y1="16.92" x2="20.89" y2="20.08"/><line class="cls-2" x1="9.32" y1="16.92" x2="9.32" y2="20.08"/><line class="cls-2" x1="40.28" y1="8" x2="36.89" y2="8"/><line class="cls-2" x1="36.09" y1="14.1" x2="40.28" y2="14.1"/><line class="cls-3" x1="21.15" y1="3.65" x2="21.15" y2="3.65"/><line class="cls-3" x1="23.14" y1="3.65" x2="23.14" y2="3.65"/><line class="cls-3" x1="19.08" y1="3.65" x2="19.08" y2="3.65"/><line class="cls-3" x1="15.28" y1="18.52" x2="15.28" y2="18.52"/><line class="cls-3" x1="17.26" y1="18.52" x2="17.26" y2="18.52"/><line class="cls-3" x1="13.21" y1="18.52" x2="13.21" y2="18.52"/><line class="cls-3" x1="37.53" y1="18.52" x2="37.53" y2="18.52"/><line class="cls-3" x1="39.51" y1="18.52" x2="39.51" y2="18.52"/><line class="cls-3" x1="35.46" y1="18.52" x2="35.46" y2="18.52"/><line class="cls-3" x1="39.87" y1="3.65" x2="39.87" y2="3.65"/><rect class="cls-1" x="-4.39" y="21.53" width="44.67" height="44.67"/><line class="cls-2" x1="-3.73" y1="33.19" x2="3.77" y2="33.19"/><line class="cls-2" x1="19.74" y1="33.26" x2="27.24" y2="33.26"/><line class="cls-2" x1="1.97" y1="22.79" x2="8.34" y2="22.79"/><line class="cls-2" x1="10.89" y1="22.79" x2="17.25" y2="22.79"/><line class="cls-2" x1="19.8" y1="22.79" x2="26.17" y2="22.79"/><line class="cls-2" x1="28.72" y1="22.79" x2="35.09" y2="22.79"/><line class="cls-2" x1="3.72" y1="25.93" x2="-2.65" y2="25.93"/><line class="cls-2" x1="12.64" y1="25.93" x2="6.27" y2="25.93"/><line class="cls-2" x1="21.55" y1="25.93" x2="15.18" y2="25.93"/><line class="cls-2" x1="30.47" y1="25.93" x2="24.1" y2="25.93"/><line class="cls-2" x1="39.39" y1="25.93" x2="33.02" y2="25.93"/><line class="cls-2" x1="0.22" y1="28.9" x2="6.59" y2="28.9"/><line class="cls-2" x1="9.13" y1="28.9" x2="15.5" y2="28.9"/><line class="cls-2" x1="18.05" y1="28.9" x2="24.42" y2="28.9"/><line class="cls-2" x1="26.97" y1="28.9" x2="33.34" y2="28.9"/><line class="cls-2" x1="0.85" y1="37.67" x2="-4.39" y2="37.67"/><line class="cls-2" x1="3.4" y1="37.67" x2="9.77" y2="37.67"/><line class="cls-2" x1="18.69" y1="37.67" x2="12.32" y2="37.67"/><line class="cls-2" x1="27.6" y1="37.67" x2="21.24" y2="37.67"/><line class="cls-2" x1="30.15" y1="37.67" x2="36.52" y2="37.67"/><line class="cls-2" x1="6.75" y1="40.84" x2="0.38" y2="40.84"/><line class="cls-2" x1="15.66" y1="40.84" x2="9.29" y2="40.84"/><line class="cls-2" x1="18.21" y1="40.84" x2="24.58" y2="40.84"/><line class="cls-2" x1="27.13" y1="40.84" x2="33.5" y2="40.84"/><line class="cls-2" x1="2.29" y1="43.75" x2="-4.08" y2="43.75"/><line class="cls-2" x1="11.2" y1="43.75" x2="4.83" y2="43.75"/><line class="cls-2" x1="13.75" y1="43.75" x2="20.12" y2="43.75"/><line class="cls-2" x1="29.04" y1="43.75" x2="22.67" y2="43.75"/><line class="cls-2" x1="37.95" y1="43.75" x2="31.58" y2="43.75"/><line class="cls-2" x1="29.66" y1="34.89" x2="39.78" y2="34.89"/><line class="cls-2" x1="5.16" y1="34.89" x2="-4.39" y2="34.89"/><line class="cls-2" x1="39.78" y1="34.89" x2="40.28" y2="34.89"/><line class="cls-2" x1="5.16" y1="34.89" x2="17.57" y2="34.89"/><line class="cls-2" x1="17.57" y1="34.89" x2="29.66" y2="34.89"/><line class="cls-2" x1="5.16" y1="31.51" x2="17.57" y2="31.51"/><line class="cls-2" x1="39.78" y1="31.51" x2="29.66" y2="31.51"/><line class="cls-2" x1="5.16" y1="31.51" x2="-4.39" y2="31.51"/><line class="cls-2" x1="17.57" y1="31.51" x2="29.66" y2="31.51"/><line class="cls-2" x1="39.78" y1="31.51" x2="40.28" y2="31.51"/><line class="cls-2" x1="5.16" y1="34.89" x2="5.16" y2="34.92"/><line class="cls-2" x1="5.16" y1="31.51" x2="5.16" y2="34.89"/><line class="cls-2" x1="5.16" y1="31.51" x2="5.16" y2="31.5"/><line class="cls-2" x1="17.57" y1="34.89" x2="17.57" y2="31.51"/><line class="cls-2" x1="17.57" y1="34.92" x2="17.57" y2="34.89"/><line class="cls-2" x1="17.57" y1="31.51" x2="17.57" y2="31.5"/><line class="cls-2" x1="39.78" y1="34.89" x2="39.78" y2="34.92"/><line class="cls-2" x1="39.78" y1="31.51" x2="39.78" y2="31.5"/><line class="cls-2" x1="39.78" y1="34.89" x2="39.78" y2="31.51"/><line class="cls-2" x1="29.66" y1="34.89" x2="29.66" y2="31.51"/><line class="cls-2" x1="29.66" y1="34.89" x2="29.66" y2="34.92"/><line class="cls-2" x1="29.66" y1="31.5" x2="29.66" y2="31.51"/><line class="cls-2" x1="37.69" y1="22.79" x2="40.28" y2="22.79"/><line class="cls-2" x1="35.94" y1="28.9" x2="40.28" y2="28.9"/><line class="cls-2" x1="40.28" y1="37.67" x2="39.15" y2="37.67"/><line class="cls-2" x1="36.09" y1="40.84" x2="40.28" y2="40.84"/><line class="cls-3" x1="11.64" y1="33.31" x2="11.64" y2="33.31"/><line class="cls-3" x1="13.62" y1="33.31" x2="13.62" y2="33.31"/><line class="cls-3" x1="9.57" y1="33.31" x2="9.57" y2="33.31"/><line class="cls-3" x1="35.28" y1="33.31" x2="35.28" y2="33.31"/><line class="cls-3" x1="37.26" y1="33.31" x2="37.26" y2="33.31"/><line class="cls-3" x1="33.21" y1="33.31" x2="33.21" y2="33.31"/><rect class="cls-1" width="44.67" height="44.67"/></svg>