<svg id="Layer_1" data-name="Layer 1" xmlns="http://www.w3.org/2000/svg" width="53.58" height="53.58" viewBox="0 0 53.58 53.58"><defs><style>.cls-1,.cls-2{fill:none;}.cls-2{stroke:#000;stroke-width:0.3px;}</style></defs><title>Artboard 37</title><rect class="cls-1" x="1.89" y="-52.51" width="53.58" height="53.58"/><rect class="cls-1" x="1.89" y="1.07" width="53.58" height="53.58"/><line class="cls-2" x1="5.67" y1="2.33" x2="1.89" y2="2.33"/><line class="cls-2" x1="8.25" y1="2.33" x2="14.62" y2="2.33"/><line class="cls-2" x1="17.17" y1="2.33" x2="23.53" y2="2.33"/><line class="cls-2" x1="26.08" y1="2.33" x2="32.45" y2="2.33"/><line class="cls-2" x1="35" y1="2.33" x2="41.37" y2="2.33"/><line class="cls-2" x1="43.92" y1="2.33" x2="50.28" y2="2.33"/><line class="cls-2" x1="55.48" y1="2.33" x2="52.83" y2="2.33"/><line class="cls-2" x1="1.89" y1="14.21" x2="3.6" y2="14.21"/><line class="cls-2" x1="6.18" y1="14.21" x2="12.55" y2="14.21"/><line class="cls-2" x1="15.09" y1="14.21" x2="21.46" y2="14.21"/><line class="cls-2" x1="24.01" y1="14.21" x2="30.38" y2="14.21"/><line class="cls-2" x1="32.93" y1="14.21" x2="39.3" y2="14.21"/><line class="cls-2" x1="41.84" y1="14.21" x2="48.21" y2="14.21"/><line class="cls-2" x1="50.76" y1="14.21" x2="55.48" y2="14.21"/><line class="cls-2" x1="7.13" y1="17.22" x2="1.89" y2="17.22"/><line class="cls-2" x1="16.05" y1="17.22" x2="9.68" y2="17.22"/><line class="cls-2" x1="24.97" y1="17.22" x2="18.6" y2="17.22"/><line class="cls-2" x1="33.88" y1="17.22" x2="27.51" y2="17.22"/><line class="cls-2" x1="42.8" y1="17.22" x2="36.43" y2="17.22"/><line class="cls-2" x1="51.72" y1="17.22" x2="45.35" y2="17.22"/><line class="cls-2" x1="1.89" y1="20.39" x2="4.08" y2="20.39"/><line class="cls-2" x1="13.03" y1="20.39" x2="6.66" y2="20.39"/><line class="cls-2" x1="15.57" y1="20.39" x2="21.94" y2="20.39"/><line class="cls-2" x1="24.49" y1="20.39" x2="30.86" y2="20.39"/><line class="cls-2" x1="33.41" y1="20.39" x2="39.77" y2="20.39"/><line class="cls-2" x1="42.32" y1="20.39" x2="48.69" y2="20.39"/><line class="cls-2" x1="51.24" y1="20.39" x2="55.48" y2="20.39"/><line class="cls-2" x1="8.57" y1="23.3" x2="2.2" y2="23.3"/><line class="cls-2" x1="17.48" y1="23.3" x2="11.11" y2="23.3"/><line class="cls-2" x1="26.4" y1="23.3" x2="20.03" y2="23.3"/><line class="cls-2" x1="35.32" y1="23.3" x2="28.95" y2="23.3"/><line class="cls-2" x1="44.23" y1="23.3" x2="37.86" y2="23.3"/><line class="cls-2" x1="46.78" y1="23.3" x2="53.15" y2="23.3"/><line class="cls-2" x1="5.35" y1="26.27" x2="1.89" y2="26.27"/><line class="cls-2" x1="7.93" y1="26.27" x2="14.3" y2="26.27"/><line class="cls-2" x1="16.85" y1="26.27" x2="23.22" y2="26.27"/><line class="cls-2" x1="25.76" y1="26.27" x2="32.13" y2="26.27"/><line class="cls-2" x1="34.68" y1="26.27" x2="41.05" y2="26.27"/><line class="cls-2" x1="43.6" y1="26.27" x2="49.96" y2="26.27"/><line class="cls-2" x1="52.51" y1="26.27" x2="55.48" y2="26.27"/><line class="cls-2" x1="9.84" y1="29.12" x2="3.47" y2="29.12"/><line class="cls-2" x1="18.76" y1="29.12" x2="12.39" y2="29.12"/><line class="cls-2" x1="27.67" y1="29.12" x2="21.3" y2="29.12"/><line class="cls-2" x1="36.59" y1="29.12" x2="30.22" y2="29.12"/><line class="cls-2" x1="45.51" y1="29.12" x2="39.14" y2="29.12"/><line class="cls-2" x1="54.42" y1="29.12" x2="48.05" y2="29.12"/><line class="cls-2" x1="1.89" y1="41.28" x2="7.93" y2="41.28"/><line class="cls-2" x1="16.85" y1="41.28" x2="10.48" y2="41.28"/><line class="cls-2" x1="19.39" y1="41.28" x2="25.76" y2="41.28"/><line class="cls-2" x1="28.31" y1="41.28" x2="34.68" y2="41.28"/><line class="cls-2" x1="37.23" y1="41.28" x2="43.6" y2="41.28"/><line class="cls-2" x1="46.14" y1="41.28" x2="52.51" y2="41.28"/><line class="cls-2" x1="1.89" y1="44.08" x2="5.03" y2="44.08"/><line class="cls-2" x1="13.98" y1="44.08" x2="7.61" y2="44.08"/><line class="cls-2" x1="22.9" y1="44.08" x2="16.53" y2="44.08"/><line class="cls-2" x1="31.81" y1="44.08" x2="25.44" y2="44.08"/><line class="cls-2" x1="40.73" y1="44.08" x2="34.36" y2="44.08"/><line class="cls-2" x1="49.65" y1="44.08" x2="43.28" y2="44.08"/><line class="cls-2" x1="52.19" y1="44.08" x2="55.48" y2="44.08"/><line class="cls-2" x1="10.16" y1="47.22" x2="3.79" y2="47.22"/><line class="cls-2" x1="12.71" y1="47.22" x2="19.08" y2="47.22"/><line class="cls-2" x1="27.99" y1="47.22" x2="21.62" y2="47.22"/><line class="cls-2" x1="36.91" y1="47.22" x2="30.54" y2="47.22"/><line class="cls-2" x1="39.46" y1="47.22" x2="45.83" y2="47.22"/><line class="cls-2" x1="48.37" y1="47.22" x2="54.74" y2="47.22"/><line class="cls-2" x1="6.62" y1="50.19" x2="1.89" y2="50.19"/><line class="cls-2" x1="9.2" y1="50.19" x2="15.57" y2="50.19"/><line class="cls-2" x1="18.12" y1="50.19" x2="24.49" y2="50.19"/><line class="cls-2" x1="27.04" y1="50.19" x2="33.41" y2="50.19"/><line class="cls-2" x1="35.95" y1="50.19" x2="42.32" y2="50.19"/><line class="cls-2" x1="44.87" y1="50.19" x2="51.24" y2="50.19"/><line class="cls-2" x1="10.48" y1="53.16" x2="4.11" y2="53.16"/><line class="cls-2" x1="19.39" y1="53.16" x2="13.03" y2="53.16"/><line class="cls-2" x1="28.31" y1="53.16" x2="21.94" y2="53.16"/><line class="cls-2" x1="37.23" y1="53.16" x2="30.86" y2="53.16"/><line class="cls-2" x1="46.14" y1="53.16" x2="39.77" y2="53.16"/><line class="cls-2" x1="55.06" y1="53.16" x2="48.69" y2="53.16"/><line class="cls-2" x1="47.78" y1="8.29" x2="52.51" y2="8.29"/><line class="cls-2" x1="7.15" y1="8.29" x2="11.01" y2="8.29"/><line class="cls-2" x1="39.76" y1="8.29" x2="33.15" y2="8.29"/><line class="cls-2" x1="19.9" y1="8.29" x2="26.01" y2="8.29"/><line class="cls-2" x1="55.48" y1="8.29" x2="52.51" y2="8.29"/><line class="cls-2" x1="33.15" y1="8.29" x2="26.01" y2="8.29"/><line class="cls-2" x1="11.01" y1="8.29" x2="19.9" y2="8.29"/><line class="cls-2" x1="47.78" y1="8.29" x2="39.76" y2="8.29"/><line class="cls-2" x1="7.15" y1="8.29" x2="1.89" y2="8.29"/><line class="cls-2" x1="55.48" y1="11.57" x2="1.89" y2="11.57"/><line class="cls-2" x1="47.78" y1="8.29" x2="47.78" y2="11.56"/><line class="cls-2" x1="47.78" y1="8.29" x2="47.78" y2="8.25"/><line class="cls-2" x1="33.15" y1="8.25" x2="33.15" y2="8.29"/><line class="cls-2" x1="33.15" y1="8.29" x2="33.15" y2="11.56"/><line class="cls-2" x1="19.9" y1="11.56" x2="19.9" y2="8.29"/><line class="cls-2" x1="19.9" y1="8.29" x2="19.9" y2="8.25"/><line class="cls-2" x1="7.15" y1="8.29" x2="7.15" y2="11.56"/><line class="cls-2" x1="7.15" y1="8.29" x2="7.15" y2="8.25"/><line class="cls-2" x1="39.76" y1="4.91" x2="52.51" y2="4.91"/><line class="cls-2" x1="52.51" y1="4.91" x2="55.48" y2="4.91"/><line class="cls-2" x1="11.01" y1="4.91" x2="1.89" y2="4.91"/><line class="cls-2" x1="39.76" y1="4.91" x2="26.01" y2="4.91"/><line class="cls-2" x1="11.01" y1="4.91" x2="26.01" y2="4.91"/><line class="cls-2" x1="11.01" y1="8.32" x2="11.01" y2="8.29"/><line class="cls-2" x1="11.01" y1="4.91" x2="11.01" y2="8.29"/><line class="cls-2" x1="11.01" y1="4.91" x2="11.01" y2="4.9"/><line class="cls-2" x1="26.01" y1="4.91" x2="26.01" y2="4.9"/><line class="cls-2" x1="26.01" y1="8.29" x2="26.01" y2="4.91"/><line class="cls-2" x1="26.01" y1="8.32" x2="26.01" y2="8.29"/><line class="cls-2" x1="39.76" y1="4.91" x2="39.76" y2="4.9"/><line class="cls-2" x1="39.76" y1="8.29" x2="39.76" y2="8.32"/><line class="cls-2" x1="39.76" y1="4.91" x2="39.76" y2="8.29"/><line class="cls-2" x1="52.51" y1="4.91" x2="52.51" y2="4.9"/><line class="cls-2" x1="52.51" y1="8.29" x2="52.51" y2="4.91"/><line class="cls-2" x1="52.51" y1="8.32" x2="52.51" y2="8.29"/><line class="cls-2" x1="10.33" y1="39" x2="23.58" y2="39"/><line class="cls-2" x1="37.2" y1="39" x2="23.58" y2="39"/><line class="cls-2" x1="52.08" y1="39" x2="55.48" y2="39"/><line class="cls-2" x1="10.33" y1="39" x2="1.89" y2="39"/><line class="cls-2" x1="37.2" y1="39" x2="52.08" y2="39"/><line class="cls-2" x1="55.48" y1="32.16" x2="1.89" y2="32.16"/><line class="cls-2" x1="55.48" y1="35.38" x2="1.89" y2="35.38"/><line class="cls-2" x1="45.64" y1="35.37" x2="45.64" y2="32.21"/><line class="cls-2" x1="31.49" y1="35.37" x2="31.49" y2="32.21"/><line class="cls-2" x1="16.37" y1="35.37" x2="16.37" y2="32.21"/><line class="cls-2" x1="3.95" y1="32.21" x2="3.95" y2="35.37"/><line class="cls-2" x1="10.33" y1="39" x2="10.33" y2="35.43"/><line class="cls-2" x1="23.58" y1="35.43" x2="23.58" y2="39"/><line class="cls-2" x1="37.2" y1="39" x2="37.2" y2="35.43"/><line class="cls-2" x1="52.08" y1="39" x2="52.08" y2="35.43"/><rect class="cls-1" x="-51.69" y="-52.51" width="53.58" height="53.58"/><rect class="cls-1" x="-51.69" y="1.07" width="53.58" height="53.58"/><line class="cls-2" x1="1.89" y1="2.33" x2="-0.75" y2="2.33"/><line class="cls-2" x1="-2.82" y1="14.21" x2="1.89" y2="14.21"/><line class="cls-2" x1="1.89" y1="17.22" x2="0.68" y2="17.22"/><line class="cls-2" x1="-2.34" y1="20.39" x2="1.89" y2="20.39"/><line class="cls-2" x1="-1.07" y1="26.27" x2="1.89" y2="26.27"/><line class="cls-2" x1="0.84" y1="29.12" x2="-5.53" y2="29.12"/><line class="cls-2" x1="1.89" y1="41.28" x2="1.48" y2="41.28"/><line class="cls-2" x1="-1.39" y1="44.08" x2="1.89" y2="44.08"/><line class="cls-2" x1="-5.21" y1="47.22" x2="1.16" y2="47.22"/><line class="cls-2" x1="0.2" y1="50.19" x2="1.89" y2="50.19"/><line class="cls-2" x1="1.48" y1="53.16" x2="-4.89" y2="53.16"/><line class="cls-2" x1="1.89" y1="8.29" x2="-1.07" y2="8.29"/><line class="cls-2" x1="1.89" y1="11.57" x2="-51.69" y2="11.57"/><line class="cls-2" x1="-1.07" y1="4.91" x2="1.89" y2="4.91"/><line class="cls-2" x1="-1.51" y1="39" x2="1.89" y2="39"/><line class="cls-2" x1="1.89" y1="32.16" x2="-51.69" y2="32.16"/><line class="cls-2" x1="1.89" y1="35.38" x2="-51.69" y2="35.38"/><rect class="cls-1" width="53.58" height="53.58"/></svg>