<svg id="Layer_1" data-name="Layer 1" xmlns="http://www.w3.org/2000/svg" width="44.67" height="44.67" viewBox="0 0 44.67 44.67"><defs><style>.cls-1,.cls-2{fill:none;}.cls-2{stroke:#000;stroke-width:0.3px;}</style></defs><title>Artboard 37</title><rect class="cls-1" x="2.31" y="-17.47" width="44.67" height="44.67"/><line class="cls-2" x1="2.31" y1="1.85" x2="4.49" y2="1.85"/><line class="cls-2" x1="13.44" y1="1.85" x2="7.07" y2="1.85"/><line class="cls-2" x1="22.36" y1="1.85" x2="15.99" y2="1.85"/><line class="cls-2" x1="24.91" y1="1.85" x2="31.28" y2="1.85"/><line class="cls-2" x1="33.82" y1="1.85" x2="40.19" y2="1.85"/><line class="cls-2" x1="8.98" y1="4.76" x2="2.62" y2="4.76"/><line class="cls-2" x1="11.53" y1="4.76" x2="17.9" y2="4.76"/><line class="cls-2" x1="20.45" y1="4.76" x2="26.82" y2="4.76"/><line class="cls-2" x1="35.73" y1="4.76" x2="29.37" y2="4.76"/><line class="cls-2" x1="38.28" y1="4.76" x2="44.65" y2="4.76"/><line class="cls-2" x1="5.29" y1="13.67" x2="2.31" y2="13.67"/><line class="cls-2" x1="7.87" y1="13.67" x2="14.24" y2="13.67"/><line class="cls-2" x1="16.79" y1="13.67" x2="23.16" y2="13.67"/><line class="cls-2" x1="25.7" y1="13.67" x2="32.07" y2="13.67"/><line class="cls-2" x1="34.62" y1="13.67" x2="40.99" y2="13.67"/><line class="cls-2" x1="9.14" y1="16.81" x2="2.77" y2="16.81"/><line class="cls-2" x1="11.69" y1="16.81" x2="18.06" y2="16.81"/><line class="cls-2" x1="20.61" y1="16.81" x2="26.98" y2="16.81"/><line class="cls-2" x1="29.52" y1="16.81" x2="35.89" y2="16.81"/><line class="cls-2" x1="38.44" y1="16.81" x2="44.81" y2="16.81"/><line class="cls-2" x1="2.31" y1="19.78" x2="4.49" y2="19.78"/><line class="cls-2" x1="13.44" y1="19.78" x2="7.07" y2="19.78"/><line class="cls-2" x1="22.36" y1="19.78" x2="15.99" y2="19.78"/><line class="cls-2" x1="31.28" y1="19.78" x2="24.91" y2="19.78"/><line class="cls-2" x1="40.19" y1="19.78" x2="33.82" y2="19.78"/><line class="cls-2" x1="6.77" y1="7.57" x2="2.31" y2="7.57"/><line class="cls-2" x1="36.27" y1="7.57" x2="21.52" y2="7.57"/><line class="cls-2" x1="21.52" y1="7.57" x2="6.77" y2="7.57"/><line class="cls-2" x1="36.27" y1="7.57" x2="46.98" y2="7.57"/><line class="cls-2" x1="2.31" y1="10.85" x2="46.98" y2="10.85"/><line class="cls-2" x1="36.27" y1="7.57" x2="36.27" y2="10.84"/><line class="cls-2" x1="36.27" y1="7.57" x2="36.27" y2="7.54"/><line class="cls-2" x1="21.52" y1="7.57" x2="21.52" y2="10.84"/><line class="cls-2" x1="21.52" y1="7.54" x2="21.52" y2="7.57"/><line class="cls-2" x1="6.77" y1="7.54" x2="6.77" y2="7.57"/><line class="cls-2" x1="6.77" y1="7.57" x2="6.77" y2="10.84"/><line class="cls-2" x1="2.31" y1="22.54" x2="46.98" y2="22.54"/><line class="cls-2" x1="2.31" y1="25.76" x2="46.98" y2="25.76"/><line class="cls-2" x1="39.22" y1="25.75" x2="39.22" y2="22.59"/><line class="cls-2" x1="27.59" y1="22.59" x2="27.59" y2="25.75"/><line class="cls-2" x1="16.02" y1="22.59" x2="16.02" y2="25.75"/><line class="cls-2" x1="4.02" y1="22.59" x2="4.02" y2="25.75"/><line class="cls-2" x1="42.79" y1="1.85" x2="46.98" y2="1.85"/><line class="cls-2" x1="43.59" y1="13.67" x2="46.98" y2="13.67"/><line class="cls-2" x1="42.79" y1="19.78" x2="46.98" y2="19.78"/><rect class="cls-1" x="2.31" y="27.2" width="44.67" height="44.67"/><line class="cls-2" x1="6.09" y1="28.47" x2="2.31" y2="28.47"/><line class="cls-2" x1="8.67" y1="28.47" x2="15.04" y2="28.47"/><line class="cls-2" x1="17.58" y1="28.47" x2="23.95" y2="28.47"/><line class="cls-2" x1="26.5" y1="28.47" x2="32.87" y2="28.47"/><line class="cls-2" x1="35.42" y1="28.47" x2="41.79" y2="28.47"/><line class="cls-2" x1="10.42" y1="31.6" x2="4.05" y2="31.6"/><line class="cls-2" x1="19.33" y1="31.6" x2="12.97" y2="31.6"/><line class="cls-2" x1="21.88" y1="31.6" x2="28.25" y2="31.6"/><line class="cls-2" x1="37.17" y1="31.6" x2="30.8" y2="31.6"/><line class="cls-2" x1="39.72" y1="31.6" x2="46.08" y2="31.6"/><line class="cls-2" x1="2.31" y1="34.57" x2="4.33" y2="34.57"/><line class="cls-2" x1="13.28" y1="34.57" x2="6.92" y2="34.57"/><line class="cls-2" x1="22.2" y1="34.57" x2="15.83" y2="34.57"/><line class="cls-2" x1="24.75" y1="34.57" x2="31.12" y2="34.57"/><line class="cls-2" x1="40.03" y1="34.57" x2="33.66" y2="34.57"/><line class="cls-2" x1="7.55" y1="43.35" x2="2.31" y2="43.35"/><line class="cls-2" x1="16.47" y1="43.35" x2="10.1" y2="43.35"/><line class="cls-2" x1="19.02" y1="43.35" x2="25.39" y2="43.35"/><line class="cls-2" x1="27.93" y1="43.35" x2="34.3" y2="43.35"/><line class="cls-2" x1="36.85" y1="43.35" x2="43.22" y2="43.35"/><line class="cls-2" x1="26.23" y1="40.56" x2="40.23" y2="40.56"/><line class="cls-2" x1="9.29" y1="40.56" x2="26.23" y2="40.56"/><line class="cls-2" x1="9.29" y1="40.56" x2="2.31" y2="40.56"/><line class="cls-2" x1="40.23" y1="40.56" x2="46.98" y2="40.56"/><line class="cls-2" x1="9.29" y1="37.18" x2="2.31" y2="37.18"/><line class="cls-2" x1="40.23" y1="37.18" x2="46.98" y2="37.18"/><line class="cls-2" x1="40.23" y1="37.18" x2="26.23" y2="37.18"/><line class="cls-2" x1="9.29" y1="37.18" x2="26.23" y2="37.18"/><line class="cls-2" x1="9.29" y1="37.18" x2="9.29" y2="40.56"/><line class="cls-2" x1="9.29" y1="37.18" x2="9.29" y2="37.17"/><line class="cls-2" x1="9.29" y1="40.56" x2="9.29" y2="40.6"/><line class="cls-2" x1="26.23" y1="37.18" x2="26.23" y2="40.56"/><line class="cls-2" x1="26.23" y1="37.18" x2="26.23" y2="37.17"/><line class="cls-2" x1="26.23" y1="40.6" x2="26.23" y2="40.56"/><line class="cls-2" x1="40.23" y1="40.56" x2="40.23" y2="40.6"/><line class="cls-2" x1="40.23" y1="40.56" x2="40.23" y2="37.18"/><line class="cls-2" x1="40.23" y1="37.17" x2="40.23" y2="37.18"/><line class="cls-2" x1="44.38" y1="28.47" x2="46.98" y2="28.47"/><line class="cls-2" x1="46.98" y1="34.57" x2="42.63" y2="34.57"/><rect class="cls-1" x="-42.36" y="-17.47" width="44.67" height="44.67"/><line class="cls-2" x1="-6.23" y1="16.81" x2="0.14" y2="16.81"/><line class="cls-2" x1="-8.4" y1="7.57" x2="2.31" y2="7.57"/><line class="cls-2" x1="-42.36" y1="10.85" x2="2.31" y2="10.85"/><line class="cls-2" x1="-42.36" y1="22.54" x2="2.31" y2="22.54"/><line class="cls-2" x1="-42.36" y1="25.76" x2="2.31" y2="25.76"/><line class="cls-2" x1="-1.87" y1="1.85" x2="2.31" y2="1.85"/><line class="cls-2" x1="-1.08" y1="13.67" x2="2.31" y2="13.67"/><line class="cls-2" x1="-1.87" y1="19.78" x2="2.31" y2="19.78"/><rect class="cls-1" x="-42.36" y="27.2" width="44.67" height="44.67"/><line class="cls-2" x1="-4.95" y1="31.6" x2="1.42" y2="31.6"/><line class="cls-2" x1="-4.44" y1="40.56" x2="2.31" y2="40.56"/><line class="cls-2" x1="-4.44" y1="37.18" x2="2.31" y2="37.18"/><line class="cls-2" x1="-0.28" y1="28.47" x2="2.31" y2="28.47"/><line class="cls-2" x1="2.31" y1="34.57" x2="-2.03" y2="34.57"/><line class="cls-2" x1="2.31" y1="43.35" x2="1.18" y2="43.35"/><rect class="cls-1" width="44.67" height="44.67"/></svg>