<svg id="Layer_1" data-name="Layer 1" xmlns="http://www.w3.org/2000/svg" width="53.58" height="53.58" viewBox="0 0 53.58 53.58"><defs><style>.cls-1,.cls-2{fill:none;}.cls-2{stroke:#000;stroke-width:0.3px;}</style></defs><title>Artboard 37</title><rect class="cls-1" x="4.64" y="-41.51" width="53.58" height="53.58"/><line class="cls-2" x1="7.77" y1="2.32" x2="4.64" y2="2.32"/><line class="cls-2" x1="10.35" y1="2.32" x2="16.72" y2="2.32"/><line class="cls-2" x1="19.27" y1="2.32" x2="25.64" y2="2.32"/><line class="cls-2" x1="34.56" y1="2.32" x2="28.19" y2="2.32"/><line class="cls-2" x1="43.47" y1="2.32" x2="37.1" y2="2.32"/><line class="cls-2" x1="46.02" y1="2.32" x2="52.39" y2="2.32"/><line class="cls-2" x1="12.9" y1="5.45" x2="6.53" y2="5.45"/><line class="cls-2" x1="21.82" y1="5.45" x2="15.45" y2="5.45"/><line class="cls-2" x1="30.74" y1="5.45" x2="24.37" y2="5.45"/><line class="cls-2" x1="39.65" y1="5.45" x2="33.28" y2="5.45"/><line class="cls-2" x1="48.57" y1="5.45" x2="42.2" y2="5.45"/><line class="cls-2" x1="51.12" y1="5.45" x2="57.49" y2="5.45"/><line class="cls-2" x1="4.64" y1="8.42" x2="9.37" y2="8.42"/><line class="cls-2" x1="11.95" y1="8.42" x2="18.32" y2="8.42"/><line class="cls-2" x1="20.86" y1="8.42" x2="27.23" y2="8.42"/><line class="cls-2" x1="29.78" y1="8.42" x2="36.15" y2="8.42"/><line class="cls-2" x1="38.7" y1="8.42" x2="45.07" y2="8.42"/><line class="cls-2" x1="47.61" y1="8.42" x2="53.98" y2="8.42"/><line class="cls-2" x1="13.22" y1="11.39" x2="6.85" y2="11.39"/><line class="cls-2" x1="22.14" y1="11.39" x2="15.77" y2="11.39"/><line class="cls-2" x1="31.05" y1="11.39" x2="24.68" y2="11.39"/><line class="cls-2" x1="39.97" y1="11.39" x2="33.6" y2="11.39"/><line class="cls-2" x1="48.89" y1="11.39" x2="42.52" y2="11.39"/><line class="cls-2" x1="57.8" y1="11.39" x2="51.43" y2="11.39"/><line class="cls-2" x1="47.37" y1="2.23" x2="48.45" y2="0.82"/><line class="cls-2" x1="29.49" y1="2.23" x2="30.58" y2="0.82"/><line class="cls-2" x1="11.51" y1="2.23" x2="12.6" y2="0.82"/><line class="cls-2" x1="17.81" y1="4" x2="16.72" y2="5.41"/><line class="cls-2" x1="34.6" y1="5.41" x2="35.68" y2="4"/><line class="cls-2" x1="48.91" y1="8.4" x2="50" y2="6.99"/><line class="cls-2" x1="43.81" y1="11.38" x2="44.9" y2="9.97"/><line class="cls-2" x1="25.94" y1="11.38" x2="27.02" y2="9.97"/><line class="cls-2" x1="8" y1="11.38" x2="9.08" y2="9.97"/><line class="cls-2" x1="32.27" y1="6.99" x2="31.18" y2="8.4"/><line class="cls-2" x1="14.2" y1="6.99" x2="13.12" y2="8.4"/><line class="cls-2" x1="53.85" y1="4" x2="52.76" y2="5.41"/><rect class="cls-1" x="4.64" y="12.07" width="53.58" height="53.58"/><line class="cls-2" x1="8.41" y1="14.15" x2="4.64" y2="14.15"/><line class="cls-2" x1="10.99" y1="14.15" x2="17.36" y2="14.15"/><line class="cls-2" x1="19.91" y1="14.15" x2="26.28" y2="14.15"/><line class="cls-2" x1="28.82" y1="14.15" x2="35.19" y2="14.15"/><line class="cls-2" x1="37.74" y1="14.15" x2="44.11" y2="14.15"/><line class="cls-2" x1="46.66" y1="14.15" x2="53.03" y2="14.15"/><line class="cls-2" x1="4.64" y1="26.03" x2="6.34" y2="26.03"/><line class="cls-2" x1="8.92" y1="26.03" x2="9.99" y2="26.03"/><line class="cls-2" x1="9.99" y1="26.03" x2="15.29" y2="26.03"/><line class="cls-2" x1="17.84" y1="26.03" x2="24.21" y2="26.03"/><line class="cls-2" x1="28.02" y1="26.03" x2="33.12" y2="26.03"/><line class="cls-2" x1="28.02" y1="26.03" x2="26.75" y2="26.03"/><line class="cls-2" x1="35.67" y1="26.03" x2="42.04" y2="26.03"/><line class="cls-2" x1="45.79" y1="26.03" x2="50.96" y2="26.03"/><line class="cls-2" x1="45.79" y1="26.03" x2="44.59" y2="26.03"/><line class="cls-2" x1="53.5" y1="26.03" x2="58.23" y2="26.03"/><line class="cls-2" x1="9.88" y1="29.04" x2="4.64" y2="29.04"/><line class="cls-2" x1="18.79" y1="29.04" x2="12.42" y2="29.04"/><line class="cls-2" x1="21.34" y1="29.04" x2="27.71" y2="29.04"/><line class="cls-2" x1="36.63" y1="29.04" x2="30.26" y2="29.04"/><line class="cls-2" x1="39.17" y1="29.04" x2="45.54" y2="29.04"/><line class="cls-2" x1="54.46" y1="29.04" x2="48.09" y2="29.04"/><line class="cls-2" x1="4.64" y1="31.92" x2="6.82" y2="31.92"/><line class="cls-2" x1="15.77" y1="31.92" x2="9.4" y2="31.92"/><line class="cls-2" x1="18.32" y1="31.92" x2="19.47" y2="31.92"/><line class="cls-2" x1="19.47" y1="31.92" x2="24.68" y2="31.92"/><line class="cls-2" x1="33.6" y1="31.92" x2="27.23" y2="31.92"/><line class="cls-2" x1="37.43" y1="31.92" x2="36.15" y2="31.92"/><line class="cls-2" x1="37.43" y1="31.92" x2="42.52" y2="31.92"/><line class="cls-2" x1="51.43" y1="31.92" x2="45.07" y2="31.92"/><line class="cls-2" x1="11.31" y1="35.12" x2="4.94" y2="35.12"/><line class="cls-2" x1="20.23" y1="35.12" x2="13.86" y2="35.12"/><line class="cls-2" x1="22.77" y1="35.12" x2="29.14" y2="35.12"/><line class="cls-2" x1="38.06" y1="35.12" x2="31.69" y2="35.12"/><line class="cls-2" x1="40.61" y1="35.12" x2="46.98" y2="35.12"/><line class="cls-2" x1="49.52" y1="35.12" x2="55.89" y2="35.12"/><line class="cls-2" x1="8.09" y1="38.09" x2="4.64" y2="38.09"/><line class="cls-2" x1="10.67" y1="38.09" x2="17.04" y2="38.09"/><line class="cls-2" x1="20.62" y1="38.09" x2="25.96" y2="38.09"/><line class="cls-2" x1="19.59" y1="38.09" x2="20.62" y2="38.09"/><line class="cls-2" x1="28.51" y1="38.09" x2="34.87" y2="38.09"/><line class="cls-2" x1="38.64" y1="38.09" x2="37.42" y2="38.09"/><line class="cls-2" x1="38.64" y1="38.09" x2="43.79" y2="38.09"/><line class="cls-2" x1="46.34" y1="38.09" x2="52.71" y2="38.09"/><line class="cls-2" x1="12.58" y1="41.22" x2="6.21" y2="41.22"/><line class="cls-2" x1="21.5" y1="41.22" x2="15.13" y2="41.22"/><line class="cls-2" x1="30.42" y1="41.22" x2="24.05" y2="41.22"/><line class="cls-2" x1="39.33" y1="41.22" x2="32.96" y2="41.22"/><line class="cls-2" x1="48.25" y1="41.22" x2="41.88" y2="41.22"/><line class="cls-2" x1="57.17" y1="41.22" x2="50.8" y2="41.22"/><line class="cls-2" x1="10.67" y1="53.1" x2="5.97" y2="53.1"/><line class="cls-2" x1="4.64" y1="53.1" x2="5.97" y2="53.1"/><line class="cls-2" x1="19.59" y1="53.1" x2="13.22" y2="53.1"/><line class="cls-2" x1="22.14" y1="53.1" x2="23.37" y2="53.1"/><line class="cls-2" x1="28.51" y1="53.1" x2="23.37" y2="53.1"/><line class="cls-2" x1="31.05" y1="53.1" x2="37.42" y2="53.1"/><line class="cls-2" x1="41.18" y1="53.1" x2="46.34" y2="53.1"/><line class="cls-2" x1="39.97" y1="53.1" x2="41.18" y2="53.1"/><line class="cls-2" x1="48.89" y1="53.1" x2="55.26" y2="53.1"/><line class="cls-2" x1="12.3" y1="14.1" x2="13.39" y2="12.68"/><line class="cls-2" x1="30.24" y1="14.1" x2="31.32" y2="12.68"/><line class="cls-2" x1="48.26" y1="14.1" x2="49.34" y2="12.68"/><line class="cls-2" x1="45.78" y1="26.05" x2="45.79" y2="26.03"/><line class="cls-2" x1="45.79" y1="26.03" x2="46.87" y2="24.64"/><line class="cls-2" x1="28.02" y1="26.03" x2="29.09" y2="24.64"/><line class="cls-2" x1="28.01" y1="26.05" x2="28.02" y2="26.03"/><line class="cls-2" x1="9.99" y1="26.03" x2="11.06" y2="24.64"/><line class="cls-2" x1="9.97" y1="26.05" x2="9.99" y2="26.03"/><line class="cls-2" x1="50.41" y1="27.6" x2="49.32" y2="29.01"/><line class="cls-2" x1="32.66" y1="27.6" x2="31.57" y2="29.01"/><line class="cls-2" x1="14.76" y1="27.6" x2="13.68" y2="29.01"/><line class="cls-2" x1="37.43" y1="31.92" x2="38.49" y2="30.54"/><line class="cls-2" x1="37.41" y1="31.95" x2="37.43" y2="31.92"/><line class="cls-2" x1="19.47" y1="31.92" x2="20.54" y2="30.54"/><line class="cls-2" x1="19.45" y1="31.95" x2="19.47" y2="31.92"/><line class="cls-2" x1="50.64" y1="35.07" x2="51.72" y2="33.66"/><line class="cls-2" x1="32.93" y1="35.07" x2="34.01" y2="33.66"/><line class="cls-2" x1="15.12" y1="35.07" x2="16.2" y2="33.66"/><line class="cls-2" x1="20.62" y1="38.09" x2="21.7" y2="36.68"/><line class="cls-2" x1="20.62" y1="38.1" x2="20.62" y2="38.09"/><line class="cls-2" x1="38.64" y1="38.09" x2="39.72" y2="36.68"/><line class="cls-2" x1="38.64" y1="38.09" x2="38.64" y2="38.1"/><line class="cls-2" x1="43.2" y1="41.2" x2="44.29" y2="39.79"/><line class="cls-2" x1="25.39" y1="41.2" x2="26.47" y2="39.79"/><line class="cls-2" x1="7.54" y1="41.2" x2="8.62" y2="39.79"/><line class="cls-2" x1="41.18" y1="53.1" x2="41.18" y2="53.1"/><line class="cls-2" x1="41.18" y1="53.1" x2="42.27" y2="51.69"/><line class="cls-2" x1="23.37" y1="53.1" x2="24.45" y2="51.69"/><line class="cls-2" x1="23.37" y1="53.1" x2="23.37" y2="53.1"/><line class="cls-2" x1="7.06" y1="51.69" x2="5.97" y2="53.1"/><line class="cls-2" x1="5.97" y1="53.1" x2="5.97" y2="53.1"/><line class="cls-2" x1="9.9" y1="20.08" x2="4.64" y2="20.08"/><line class="cls-2" x1="9.9" y1="20.08" x2="13.76" y2="20.08"/><line class="cls-2" x1="50.53" y1="20.08" x2="55.26" y2="20.08"/><line class="cls-2" x1="42.51" y1="20.08" x2="35.9" y2="20.08"/><line class="cls-2" x1="50.53" y1="20.08" x2="42.51" y2="20.08"/><line class="cls-2" x1="35.9" y1="20.08" x2="28.76" y2="20.08"/><line class="cls-2" x1="13.76" y1="20.08" x2="22.65" y2="20.08"/><line class="cls-2" x1="22.65" y1="20.08" x2="28.76" y2="20.08"/><line class="cls-2" x1="58.23" y1="23.36" x2="4.64" y2="23.36"/><line class="cls-2" x1="50.53" y1="20.08" x2="50.53" y2="23.35"/><line class="cls-2" x1="50.53" y1="20.08" x2="50.53" y2="20.05"/><line class="cls-2" x1="35.9" y1="20.08" x2="35.9" y2="23.35"/><line class="cls-2" x1="35.9" y1="20.05" x2="35.9" y2="20.08"/><line class="cls-2" x1="22.65" y1="23.35" x2="22.65" y2="20.08"/><line class="cls-2" x1="22.65" y1="20.08" x2="22.65" y2="20.05"/><line class="cls-2" x1="9.9" y1="20.08" x2="9.9" y2="20.05"/><line class="cls-2" x1="9.9" y1="20.08" x2="9.9" y2="23.35"/><line class="cls-2" x1="13.76" y1="16.7" x2="28.76" y2="16.7"/><line class="cls-2" x1="42.51" y1="16.7" x2="28.76" y2="16.7"/><line class="cls-2" x1="42.51" y1="16.7" x2="55.26" y2="16.7"/><line class="cls-2" x1="13.76" y1="16.7" x2="4.64" y2="16.7"/><line class="cls-2" x1="13.76" y1="20.11" x2="13.76" y2="20.08"/><line class="cls-2" x1="13.76" y1="16.7" x2="13.76" y2="20.08"/><line class="cls-2" x1="13.76" y1="16.7" x2="13.76" y2="16.69"/><line class="cls-2" x1="28.76" y1="20.11" x2="28.76" y2="20.08"/><line class="cls-2" x1="28.76" y1="20.08" x2="28.76" y2="16.7"/><line class="cls-2" x1="28.76" y1="16.7" x2="28.76" y2="16.69"/><line class="cls-2" x1="42.51" y1="20.08" x2="42.51" y2="20.11"/><line class="cls-2" x1="42.51" y1="16.7" x2="42.51" y2="20.08"/><line class="cls-2" x1="42.51" y1="16.7" x2="42.51" y2="16.69"/><line class="cls-2" x1="13.08" y1="50.79" x2="4.64" y2="50.79"/><line class="cls-2" x1="13.08" y1="50.79" x2="26.33" y2="50.79"/><line class="cls-2" x1="39.95" y1="50.79" x2="54.83" y2="50.79"/><line class="cls-2" x1="26.33" y1="50.79" x2="39.95" y2="50.79"/><line class="cls-2" x1="58.23" y1="43.95" x2="4.64" y2="43.95"/><line class="cls-2" x1="58.23" y1="47.18" x2="4.64" y2="47.18"/><line class="cls-2" x1="48.39" y1="47.16" x2="48.39" y2="44"/><line class="cls-2" x1="34.24" y1="47.16" x2="34.24" y2="44"/><line class="cls-2" x1="19.12" y1="47.16" x2="19.12" y2="44"/><line class="cls-2" x1="6.7" y1="44" x2="6.7" y2="47.16"/><line class="cls-2" x1="13.08" y1="50.79" x2="13.08" y2="47.23"/><line class="cls-2" x1="26.33" y1="50.79" x2="26.33" y2="47.23"/><line class="cls-2" x1="39.95" y1="50.79" x2="39.95" y2="47.23"/><rect class="cls-1" x="-48.94" y="-41.51" width="53.58" height="53.58"/><line class="cls-2" x1="1.35" y1="2.32" x2="4.64" y2="2.32"/><line class="cls-2" x1="-2.47" y1="5.45" x2="3.9" y2="5.45"/><line class="cls-2" x1="-5.97" y1="8.42" x2="0.4" y2="8.42"/><line class="cls-2" x1="2.95" y1="8.42" x2="4.64" y2="8.42"/><line class="cls-2" x1="4.22" y1="11.39" x2="-2.15" y2="11.39"/><line class="cls-2" x1="0.27" y1="4" x2="-0.82" y2="5.41"/><rect class="cls-1" x="-48.94" y="12.07" width="53.58" height="53.58"/><line class="cls-2" x1="4.64" y1="14.15" x2="1.99" y2="14.15"/><line class="cls-2" x1="-0.08" y1="26.03" x2="4.64" y2="26.03"/><line class="cls-2" x1="0.88" y1="29.04" x2="-5.49" y2="29.04"/><line class="cls-2" x1="4.64" y1="29.04" x2="3.42" y2="29.04"/><line class="cls-2" x1="1.62" y1="31.92" x2="4.64" y2="31.92"/><line class="cls-2" x1="0.4" y1="31.92" x2="1.62" y2="31.92"/><line class="cls-2" x1="-4.06" y1="35.12" x2="2.31" y2="35.12"/><line class="cls-2" x1="3" y1="38.09" x2="4.64" y2="38.09"/><line class="cls-2" x1="1.67" y1="38.09" x2="3" y2="38.09"/><line class="cls-2" x1="3.58" y1="41.22" x2="-2.79" y2="41.22"/><line class="cls-2" x1="-4.7" y1="53.1" x2="1.67" y2="53.1"/><line class="cls-2" x1="4.64" y1="53.1" x2="4.22" y2="53.1"/><line class="cls-2" x1="1.62" y1="31.92" x2="1.59" y2="31.95"/><line class="cls-2" x1="1.62" y1="31.92" x2="2.68" y2="30.54"/><line class="cls-2" x1="3" y1="38.09" x2="4.08" y2="36.68"/><line class="cls-2" x1="3" y1="38.09" x2="2.99" y2="38.1"/><line class="cls-2" x1="-3.06" y1="20.08" x2="1.68" y2="20.08"/><line class="cls-2" x1="4.64" y1="20.08" x2="1.68" y2="20.08"/><line class="cls-2" x1="4.64" y1="23.36" x2="-48.94" y2="23.36"/><line class="cls-2" x1="1.68" y1="16.7" x2="4.64" y2="16.7"/><line class="cls-2" x1="-11.07" y1="16.7" x2="1.68" y2="16.7"/><line class="cls-2" x1="1.68" y1="20.08" x2="1.68" y2="16.7"/><line class="cls-2" x1="1.68" y1="20.11" x2="1.68" y2="20.08"/><line class="cls-2" x1="1.68" y1="16.7" x2="1.68" y2="16.69"/><line class="cls-2" x1="1.24" y1="50.79" x2="4.64" y2="50.79"/><line class="cls-2" x1="-13.63" y1="50.79" x2="1.24" y2="50.79"/><line class="cls-2" x1="4.64" y1="43.95" x2="-48.94" y2="43.95"/><line class="cls-2" x1="4.64" y1="47.18" x2="-48.94" y2="47.18"/><line class="cls-2" x1="1.24" y1="50.79" x2="1.24" y2="47.23"/><rect class="cls-1" width="53.58" height="53.58"/></svg>