<svg id="Layer_1" data-name="Layer 1" xmlns="http://www.w3.org/2000/svg" width="54.13" height="54.13" viewBox="0 0 54.13 54.13"><defs><style>.cls-1,.cls-2,.cls-3{fill:none;}.cls-2,.cls-3{stroke:#000;}.cls-2{stroke-width:0.3px;}.cls-3{stroke-linecap:round;stroke-width:0.7px;}</style></defs><title>Artboard 37</title><rect class="cls-1" x="39.72" y="-37.37" width="54.13" height="54.13"/><line class="cls-2" x1="39.72" y1="6.29" x2="41.24" y2="6.29"/><line class="cls-2" x1="50.19" y1="6.29" x2="43.82" y2="6.29"/><line class="cls-2" x1="59.11" y1="6.29" x2="52.74" y2="6.29"/><line class="cls-2" x1="41.25" y1="14.28" x2="47.62" y2="14.28"/><line class="cls-2" x1="56.57" y1="14.28" x2="50.2" y2="14.28"/><line class="cls-2" x1="46.61" y1="4.35" x2="59.86" y2="4.35"/><line class="cls-2" x1="46.61" y1="4.35" x2="39.72" y2="4.35"/><line class="cls-2" x1="39.72" y1="8.13" x2="93.85" y2="8.13"/><line class="cls-2" x1="39.72" y1="0.74" x2="93.85" y2="0.74"/><line class="cls-2" x1="58.4" y1="15.91" x2="45.65" y2="15.91"/><line class="cls-2" x1="39.72" y1="15.91" x2="45.65" y2="15.91"/><line class="cls-2" x1="45.65" y1="15.9" x2="45.65" y2="15.91"/><line class="cls-2" x1="45.65" y1="16.75" x2="45.65" y2="15.91"/><line class="cls-2" x1="46.61" y1="4.35" x2="46.61" y2="0.79"/><line class="cls-2" x1="39.72" y1="12.54" x2="93.85" y2="12.54"/><line class="cls-2" x1="44.3" y1="8.16" x2="44.3" y2="12.51"/><line class="cls-2" x1="54.28" y1="10.61" x2="47.03" y2="10.61"/><line class="cls-2" x1="39.72" y1="2.72" x2="43.53" y2="2.72"/><rect class="cls-1" x="39.72" y="-37.37" width="54.13" height="54.13"/><line class="cls-3" x1="53.62" y1="2.66" x2="53.62" y2="2.66"/><line class="cls-3" x1="50.45" y1="2.66" x2="50.45" y2="2.66"/><line class="cls-3" x1="41.45" y1="10.43" x2="41.45" y2="10.43"/><rect class="cls-1" x="39.72" y="16.75" width="54.13" height="54.13"/><line class="cls-2" x1="39.72" y1="22.68" x2="43.85" y2="22.68"/><line class="cls-2" x1="52.8" y1="22.68" x2="46.43" y2="22.68"/><line class="cls-2" x1="41.18" y1="30.91" x2="47.55" y2="30.91"/><line class="cls-2" x1="50.1" y1="30.91" x2="56.47" y2="30.91"/><line class="cls-2" x1="47.82" y1="45.63" x2="41.46" y2="45.63"/><line class="cls-2" x1="56.77" y1="45.63" x2="50.4" y2="45.63"/><line class="cls-2" x1="43.2" y1="53.27" x2="39.72" y2="53.27"/><line class="cls-2" x1="52.15" y1="53.27" x2="45.78" y2="53.27"/><line class="cls-2" x1="39.72" y1="37.92" x2="42.82" y2="37.92"/><line class="cls-2" x1="45.4" y1="37.92" x2="51.77" y2="37.92"/><line class="cls-2" x1="45.65" y1="20.5" x2="39.72" y2="20.5"/><line class="cls-2" x1="45.65" y1="20.5" x2="58.4" y2="20.5"/><line class="cls-2" x1="93.85" y1="24.68" x2="39.72" y2="24.68"/><line class="cls-2" x1="39.72" y1="28.86" x2="93.85" y2="28.86"/><line class="cls-2" x1="45.65" y1="32.88" x2="39.72" y2="32.88"/><line class="cls-2" x1="58.4" y1="32.88" x2="45.65" y2="32.88"/><line class="cls-2" x1="39.72" y1="36.16" x2="93.85" y2="36.16"/><line class="cls-2" x1="46.39" y1="39.59" x2="39.72" y2="39.59"/><line class="cls-2" x1="59.89" y1="39.59" x2="46.39" y2="39.59"/><line class="cls-2" x1="39.72" y1="43.64" x2="93.85" y2="43.64"/><line class="cls-2" x1="39.72" y1="47.44" x2="93.85" y2="47.44"/><line class="cls-2" x1="39.72" y1="51.64" x2="93.85" y2="51.64"/><line class="cls-2" x1="45.65" y1="20.5" x2="45.65" y2="16.75"/><line class="cls-2" x1="46.76" y1="24.8" x2="46.76" y2="28.85"/><line class="cls-2" x1="45.65" y1="32.88" x2="45.65" y2="36.15"/><line class="cls-2" x1="45.65" y1="32.85" x2="45.65" y2="32.88"/><line class="cls-2" x1="46.39" y1="39.58" x2="46.39" y2="39.59"/><line class="cls-2" x1="46.39" y1="39.59" x2="46.39" y2="43.63"/><line class="cls-2" x1="45.25" y1="47.49" x2="45.25" y2="51.63"/><line class="cls-2" x1="48.48" y1="18.41" x2="55.73" y2="18.41"/><line class="cls-2" x1="44.16" y1="26.74" x2="39.72" y2="26.74"/><line class="cls-2" x1="55.53" y1="34.6" x2="48.28" y2="34.6"/><line class="cls-2" x1="55.41" y1="49.6" x2="48.16" y2="49.6"/><line class="cls-2" x1="42.36" y1="41.74" x2="39.73" y2="41.74"/><rect class="cls-1" x="39.72" y="16.75" width="54.13" height="54.13"/><line class="cls-3" x1="41.62" y1="18.44" x2="41.62" y2="18.44"/><line class="cls-3" x1="53.45" y1="26.72" x2="53.45" y2="26.72"/><line class="cls-3" x1="50.28" y1="26.72" x2="50.28" y2="26.72"/><line class="cls-3" x1="53.28" y1="41.62" x2="53.28" y2="41.62"/><line class="cls-3" x1="50.12" y1="41.62" x2="50.12" y2="41.62"/><line class="cls-3" x1="42.12" y1="49.62" x2="42.12" y2="49.62"/><line class="cls-3" x1="41.68" y1="34.62" x2="41.68" y2="34.62"/><rect class="cls-1" x="-14.4" y="-37.37" width="54.13" height="54.13"/><line class="cls-2" x1="4.98" y1="6.29" x2="-1.39" y2="6.29"/><line class="cls-2" x1="13.9" y1="6.29" x2="7.53" y2="6.29"/><line class="cls-2" x1="22.82" y1="6.29" x2="16.45" y2="6.29"/><line class="cls-2" x1="31.73" y1="6.29" x2="25.36" y2="6.29"/><line class="cls-2" x1="34.28" y1="6.29" x2="39.72" y2="6.29"/><line class="cls-2" x1="2.44" y1="14.28" x2="-3.93" y2="14.28"/><line class="cls-2" x1="4.99" y1="14.28" x2="11.36" y2="14.28"/><line class="cls-2" x1="13.9" y1="14.28" x2="20.27" y2="14.28"/><line class="cls-2" x1="22.82" y1="14.28" x2="29.19" y2="14.28"/><line class="cls-2" x1="31.74" y1="14.28" x2="38.11" y2="14.28"/><line class="cls-2" x1="19.36" y1="4.35" x2="34.23" y2="4.35"/><line class="cls-2" x1="-7.52" y1="4.35" x2="5.73" y2="4.35"/><line class="cls-2" x1="19.36" y1="4.35" x2="5.73" y2="4.35"/><line class="cls-2" x1="34.23" y1="4.35" x2="39.72" y2="4.35"/><line class="cls-2" x1="-14.4" y1="8.13" x2="39.72" y2="8.13"/><line class="cls-2" x1="-14.4" y1="0.74" x2="39.72" y2="0.74"/><line class="cls-2" x1="4.28" y1="15.91" x2="-8.47" y2="15.91"/><line class="cls-2" x1="4.28" y1="15.91" x2="17.78" y2="15.91"/><line class="cls-2" x1="32.15" y1="15.91" x2="39.72" y2="15.91"/><line class="cls-2" x1="32.15" y1="15.91" x2="17.78" y2="15.91"/><line class="cls-2" x1="4.28" y1="15.91" x2="4.28" y2="16.75"/><line class="cls-2" x1="4.28" y1="15.91" x2="4.28" y2="15.9"/><line class="cls-2" x1="17.78" y1="16.75" x2="17.78" y2="15.91"/><line class="cls-2" x1="17.78" y1="15.9" x2="17.78" y2="15.91"/><line class="cls-2" x1="32.15" y1="15.91" x2="32.15" y2="15.9"/><line class="cls-2" x1="32.15" y1="15.91" x2="32.15" y2="16.75"/><line class="cls-2" x1="5.73" y1="0.79" x2="5.73" y2="4.35"/><line class="cls-2" x1="19.36" y1="4.35" x2="19.36" y2="0.79"/><line class="cls-2" x1="34.23" y1="4.35" x2="34.23" y2="0.79"/><line class="cls-2" x1="-14.4" y1="12.54" x2="39.72" y2="12.54"/><line class="cls-2" x1="3.17" y1="8.16" x2="3.17" y2="12.51"/><line class="cls-2" x1="17.17" y1="8.16" x2="17.17" y2="12.51"/><line class="cls-2" x1="31.73" y1="8.16" x2="31.73" y2="12.51"/><line class="cls-2" x1="9.16" y1="2.61" x2="16.41" y2="2.61"/><line class="cls-2" x1="0.16" y1="10.61" x2="-7.09" y2="10.61"/><line class="cls-2" x1="28.16" y1="10.47" x2="20.91" y2="10.47"/><line class="cls-2" x1="36.86" y1="2.72" x2="39.67" y2="2.72"/><rect class="cls-1" x="-14.4" y="-37.37" width="54.13" height="54.13"/><line class="cls-3" x1="27.16" y1="2.66" x2="27.16" y2="2.66"/><line class="cls-3" x1="30.16" y1="2.66" x2="30.16" y2="2.66"/><line class="cls-3" x1="23.99" y1="2.66" x2="23.99" y2="2.66"/><line class="cls-3" x1="2.49" y1="2.66" x2="2.49" y2="2.66"/><line class="cls-3" x1="10.66" y1="10.43" x2="10.66" y2="10.43"/><line class="cls-3" x1="13.66" y1="10.43" x2="13.66" y2="10.43"/><line class="cls-3" x1="7.49" y1="10.43" x2="7.49" y2="10.43"/><line class="cls-3" x1="38.66" y1="10.43" x2="38.66" y2="10.43"/><line class="cls-3" x1="35.49" y1="10.43" x2="35.49" y2="10.43"/><rect class="cls-1" x="-14.4" y="16.75" width="54.13" height="54.13"/><line class="cls-2" x1="7.59" y1="22.68" x2="1.22" y2="22.68"/><line class="cls-2" x1="16.5" y1="22.68" x2="10.14" y2="22.68"/><line class="cls-2" x1="19.05" y1="22.68" x2="25.42" y2="22.68"/><line class="cls-2" x1="34.34" y1="22.68" x2="27.97" y2="22.68"/><line class="cls-2" x1="36.89" y1="22.68" x2="39.72" y2="22.68"/><line class="cls-2" x1="-4.03" y1="30.91" x2="2.34" y2="30.91"/><line class="cls-2" x1="4.89" y1="30.91" x2="11.26" y2="30.91"/><line class="cls-2" x1="20.17" y1="30.91" x2="13.81" y2="30.91"/><line class="cls-2" x1="29.09" y1="30.91" x2="22.72" y2="30.91"/><line class="cls-2" x1="31.64" y1="30.91" x2="38.01" y2="30.91"/><line class="cls-2" x1="2.65" y1="45.63" x2="-3.72" y2="45.63"/><line class="cls-2" x1="11.57" y1="45.63" x2="5.2" y2="45.63"/><line class="cls-2" x1="20.48" y1="45.63" x2="14.11" y2="45.63"/><line class="cls-2" x1="29.4" y1="45.63" x2="23.03" y2="45.63"/><line class="cls-2" x1="38.32" y1="45.63" x2="31.95" y2="45.63"/><line class="cls-2" x1="6.94" y1="53.27" x2="0.57" y2="53.27"/><line class="cls-2" x1="15.86" y1="53.27" x2="9.49" y2="53.27"/><line class="cls-2" x1="24.77" y1="53.27" x2="18.4" y2="53.27"/><line class="cls-2" x1="33.69" y1="53.27" x2="27.32" y2="53.27"/><line class="cls-2" x1="36.24" y1="53.27" x2="39.72" y2="53.27"/><line class="cls-2" x1="0.2" y1="37.92" x2="6.57" y2="37.92"/><line class="cls-2" x1="9.11" y1="37.92" x2="15.48" y2="37.92"/><line class="cls-2" x1="18.03" y1="37.92" x2="24.4" y2="37.92"/><line class="cls-2" x1="26.95" y1="37.92" x2="33.32" y2="37.92"/><line class="cls-2" x1="35.86" y1="37.92" x2="39.72" y2="37.92"/><line class="cls-2" x1="17.78" y1="20.5" x2="32.15" y2="20.5"/><line class="cls-2" x1="17.78" y1="20.5" x2="4.28" y2="20.5"/><line class="cls-2" x1="-8.47" y1="20.5" x2="4.28" y2="20.5"/><line class="cls-2" x1="39.72" y1="20.5" x2="32.15" y2="20.5"/><line class="cls-2" x1="39.72" y1="24.68" x2="-14.4" y2="24.68"/><line class="cls-2" x1="-14.4" y1="28.86" x2="39.72" y2="28.86"/><line class="cls-2" x1="4.28" y1="32.88" x2="-8.47" y2="32.88"/><line class="cls-2" x1="17.53" y1="32.88" x2="4.28" y2="32.88"/><line class="cls-2" x1="17.53" y1="32.88" x2="32.15" y2="32.88"/><line class="cls-2" x1="32.15" y1="32.88" x2="39.72" y2="32.88"/><line class="cls-2" x1="-14.4" y1="36.16" x2="39.72" y2="36.16"/><line class="cls-2" x1="34.26" y1="39.59" x2="39.72" y2="39.59"/><line class="cls-2" x1="5.76" y1="39.59" x2="-7.74" y2="39.59"/><line class="cls-2" x1="19.39" y1="39.59" x2="5.76" y2="39.59"/><line class="cls-2" x1="34.26" y1="39.59" x2="19.39" y2="39.59"/><line class="cls-2" x1="-14.4" y1="43.64" x2="39.72" y2="43.64"/><line class="cls-2" x1="-14.4" y1="47.44" x2="39.72" y2="47.44"/><line class="cls-2" x1="-14.4" y1="51.64" x2="39.72" y2="51.64"/><line class="cls-2" x1="4.28" y1="16.75" x2="4.28" y2="20.5"/><line class="cls-2" x1="17.78" y1="20.5" x2="17.78" y2="16.75"/><line class="cls-2" x1="32.15" y1="16.75" x2="32.15" y2="20.5"/><line class="cls-2" x1="5.89" y1="24.8" x2="5.89" y2="28.85"/><line class="cls-2" x1="19.45" y1="24.8" x2="19.45" y2="28.85"/><line class="cls-2" x1="34.39" y1="24.8" x2="34.39" y2="28.85"/><line class="cls-2" x1="32.15" y1="36.15" x2="32.15" y2="32.88"/><line class="cls-2" x1="32.15" y1="32.85" x2="32.15" y2="32.88"/><line class="cls-2" x1="17.53" y1="32.88" x2="17.53" y2="32.85"/><line class="cls-2" x1="17.53" y1="32.88" x2="17.53" y2="36.15"/><line class="cls-2" x1="4.28" y1="32.85" x2="4.28" y2="32.88"/><line class="cls-2" x1="4.28" y1="32.88" x2="4.28" y2="36.15"/><line class="cls-2" x1="5.76" y1="39.58" x2="5.76" y2="39.59"/><line class="cls-2" x1="5.76" y1="39.59" x2="5.76" y2="43.63"/><line class="cls-2" x1="19.39" y1="39.58" x2="19.39" y2="39.59"/><line class="cls-2" x1="19.39" y1="39.59" x2="19.39" y2="43.63"/><line class="cls-2" x1="34.26" y1="39.59" x2="34.26" y2="43.63"/><line class="cls-2" x1="34.26" y1="39.59" x2="34.26" y2="39.58"/><line class="cls-2" x1="4.12" y1="47.49" x2="4.12" y2="51.63"/><line class="cls-2" x1="17.75" y1="47.49" x2="17.75" y2="51.63"/><line class="cls-2" x1="32" y1="51.63" x2="32" y2="47.49"/><line class="cls-2" x1="-5.64" y1="18.41" x2="1.61" y2="18.41"/><line class="cls-2" x1="21.48" y1="18.41" x2="28.73" y2="18.41"/><line class="cls-2" x1="16.36" y1="26.74" x2="9.11" y2="26.74"/><line class="cls-2" x1="28.28" y1="34.49" x2="21.03" y2="34.49"/><line class="cls-2" x1="39.69" y1="41.74" x2="36.91" y2="41.74"/><line class="cls-2" x1="28.66" y1="49.49" x2="21.41" y2="49.49"/><line class="cls-2" x1="1.41" y1="34.6" x2="-5.84" y2="34.6"/><line class="cls-2" x1="16.16" y1="41.6" x2="8.91" y2="41.6"/><line class="cls-2" x1="1.28" y1="49.6" x2="-5.97" y2="49.6"/><line class="cls-2" x1="39.67" y1="26.74" x2="36.86" y2="26.74"/><rect class="cls-1" x="-14.4" y="16.75" width="54.13" height="54.13"/><line class="cls-3" x1="10.94" y1="18.44" x2="10.94" y2="18.44"/><line class="cls-3" x1="7.82" y1="18.44" x2="7.82" y2="18.44"/><line class="cls-3" x1="13.69" y1="18.44" x2="13.69" y2="18.44"/><line class="cls-3" x1="38.99" y1="18.44" x2="38.99" y2="18.44"/><line class="cls-3" x1="36.66" y1="18.44" x2="36.66" y2="18.44"/><line class="cls-3" x1="2.32" y1="26.72" x2="2.32" y2="26.72"/><line class="cls-3" x1="2.16" y1="41.62" x2="2.16" y2="41.62"/><line class="cls-3" x1="26.99" y1="41.62" x2="26.99" y2="41.62"/><line class="cls-3" x1="29.99" y1="41.62" x2="29.99" y2="41.62"/><line class="cls-3" x1="23.82" y1="41.62" x2="23.82" y2="41.62"/><line class="cls-3" x1="11.16" y1="49.62" x2="11.16" y2="49.62"/><line class="cls-3" x1="14.16" y1="49.62" x2="14.16" y2="49.62"/><line class="cls-3" x1="7.99" y1="49.62" x2="7.99" y2="49.62"/><line class="cls-3" x1="38.66" y1="49.62" x2="38.66" y2="49.62"/><line class="cls-3" x1="35.49" y1="49.62" x2="35.49" y2="49.62"/><line class="cls-3" x1="26.99" y1="26.72" x2="26.99" y2="26.72"/><line class="cls-3" x1="30.16" y1="26.72" x2="30.16" y2="26.72"/><line class="cls-3" x1="23.32" y1="26.72" x2="23.32" y2="26.72"/><line class="cls-3" x1="10.99" y1="34.62" x2="10.99" y2="34.62"/><line class="cls-3" x1="13.82" y1="34.62" x2="13.82" y2="34.62"/><line class="cls-3" x1="7.66" y1="34.62" x2="7.66" y2="34.62"/><line class="cls-3" x1="38.82" y1="34.62" x2="38.82" y2="34.62"/><line class="cls-3" x1="35.49" y1="34.62" x2="35.49" y2="34.62"/><rect class="cls-1" width="54.12" height="54.13"/></svg>