<svg id="Layer_1" data-name="Layer 1" xmlns="http://www.w3.org/2000/svg" width="54.13" height="54.13" viewBox="0 0 54.13 54.13"><defs><style>.cls-1,.cls-2{fill:none;}.cls-2{stroke:#000;stroke-width:0.3px;}</style></defs><title>Artboard 37</title><rect class="cls-1" x="51.43" y="-31.61" width="54.13" height="54.13"/><line class="cls-2" x1="54.91" y1="4.91" x2="51.43" y2="4.91"/><line class="cls-2" x1="51.43" y1="12.06" x2="52.95" y2="12.06"/><line class="cls-2" x1="52.95" y1="20.05" x2="59.32" y2="20.05"/><line class="cls-2" x1="58.31" y1="10.12" x2="51.43" y2="10.12"/><line class="cls-2" x1="51.43" y1="13.89" x2="105.56" y2="13.89"/><line class="cls-2" x1="51.43" y1="3.28" x2="105.56" y2="3.28"/><line class="cls-2" x1="51.43" y1="6.51" x2="105.56" y2="6.51"/><line class="cls-2" x1="51.43" y1="21.68" x2="57.36" y2="21.68"/><line class="cls-2" x1="51.43" y1="18.31" x2="105.56" y2="18.31"/><rect class="cls-1" x="51.43" y="22.52" width="54.13" height="54.13"/><line class="cls-2" x1="51.43" y1="28.44" x2="55.55" y2="28.44"/><line class="cls-2" x1="52.89" y1="36.68" x2="59.26" y2="36.68"/><line class="cls-2" x1="59.53" y1="51.4" x2="53.16" y2="51.4"/><line class="cls-2" x1="51.43" y1="43.69" x2="54.53" y2="43.69"/><line class="cls-2" x1="57.36" y1="26.27" x2="51.43" y2="26.27"/><line class="cls-2" x1="105.56" y1="30.44" x2="51.43" y2="30.44"/><line class="cls-2" x1="51.43" y1="34.63" x2="105.56" y2="34.63"/><line class="cls-2" x1="57.36" y1="38.65" x2="51.43" y2="38.65"/><line class="cls-2" x1="51.43" y1="41.93" x2="105.56" y2="41.93"/><line class="cls-2" x1="58.09" y1="45.36" x2="51.43" y2="45.36"/><line class="cls-2" x1="51.43" y1="49.41" x2="105.56" y2="49.41"/><line class="cls-2" x1="51.43" y1="53.21" x2="105.56" y2="53.21"/><rect class="cls-1" x="-2.69" y="-31.61" width="54.13" height="54.13"/><line class="cls-2" x1="0.78" y1="4.91" x2="-2.69" y2="4.91"/><line class="cls-2" x1="9.73" y1="4.91" x2="3.36" y2="4.91"/><line class="cls-2" x1="18.65" y1="4.91" x2="12.28" y2="4.91"/><line class="cls-2" x1="27.56" y1="4.91" x2="21.19" y2="4.91"/><line class="cls-2" x1="36.48" y1="4.91" x2="30.11" y2="4.91"/><line class="cls-2" x1="45.4" y1="4.91" x2="39.03" y2="4.91"/><line class="cls-2" x1="47.94" y1="4.91" x2="51.43" y2="4.91"/><line class="cls-2" x1="7.77" y1="12.06" x2="1.4" y2="12.06"/><line class="cls-2" x1="16.69" y1="12.06" x2="10.32" y2="12.06"/><line class="cls-2" x1="25.61" y1="12.06" x2="19.24" y2="12.06"/><line class="cls-2" x1="34.52" y1="12.06" x2="28.15" y2="12.06"/><line class="cls-2" x1="43.44" y1="12.06" x2="37.07" y2="12.06"/><line class="cls-2" x1="45.99" y1="12.06" x2="51.43" y2="12.06"/><line class="cls-2" x1="-1.17" y1="20.05" x2="5.2" y2="20.05"/><line class="cls-2" x1="14.15" y1="20.05" x2="7.78" y2="20.05"/><line class="cls-2" x1="16.69" y1="20.05" x2="23.06" y2="20.05"/><line class="cls-2" x1="25.61" y1="20.05" x2="31.98" y2="20.05"/><line class="cls-2" x1="34.53" y1="20.05" x2="40.9" y2="20.05"/><line class="cls-2" x1="43.44" y1="20.05" x2="49.81" y2="20.05"/><line class="cls-2" x1="45.94" y1="10.12" x2="51.43" y2="10.12"/><line class="cls-2" x1="31.06" y1="10.12" x2="45.94" y2="10.12"/><line class="cls-2" x1="4.19" y1="10.12" x2="-2.69" y2="10.12"/><line class="cls-2" x1="31.06" y1="10.12" x2="17.44" y2="10.12"/><line class="cls-2" x1="4.19" y1="10.12" x2="17.44" y2="10.12"/><line class="cls-2" x1="-2.69" y1="13.89" x2="51.43" y2="13.89"/><line class="cls-2" x1="-2.69" y1="3.28" x2="51.43" y2="3.28"/><line class="cls-2" x1="-2.69" y1="6.51" x2="51.43" y2="6.51"/><line class="cls-2" x1="-2.69" y1="21.68" x2="3.23" y2="21.68"/><line class="cls-2" x1="15.98" y1="21.68" x2="3.23" y2="21.68"/><line class="cls-2" x1="43.86" y1="21.68" x2="29.48" y2="21.68"/><line class="cls-2" x1="15.98" y1="21.68" x2="29.48" y2="21.68"/><line class="cls-2" x1="43.86" y1="21.68" x2="51.43" y2="21.68"/><line class="cls-2" x1="3.23" y1="21.67" x2="3.23" y2="21.68"/><line class="cls-2" x1="3.23" y1="22.52" x2="3.23" y2="21.68"/><line class="cls-2" x1="15.98" y1="21.68" x2="15.98" y2="22.52"/><line class="cls-2" x1="15.98" y1="21.68" x2="15.98" y2="21.67"/><line class="cls-2" x1="29.48" y1="22.52" x2="29.48" y2="21.68"/><line class="cls-2" x1="29.48" y1="21.67" x2="29.48" y2="21.68"/><line class="cls-2" x1="43.86" y1="21.68" x2="43.86" y2="22.52"/><line class="cls-2" x1="43.86" y1="21.68" x2="43.86" y2="21.67"/><line class="cls-2" x1="2.83" y1="-0.87" x2="2.83" y2="3.27"/><line class="cls-2" x1="15.83" y1="-0.87" x2="15.83" y2="3.27"/><line class="cls-2" x1="29.46" y1="-0.87" x2="29.46" y2="3.27"/><line class="cls-2" x1="43.71" y1="3.27" x2="43.71" y2="-0.87"/><line class="cls-2" x1="4.19" y1="10.12" x2="4.19" y2="6.56"/><line class="cls-2" x1="17.44" y1="6.56" x2="17.44" y2="10.12"/><line class="cls-2" x1="31.06" y1="10.12" x2="31.06" y2="6.56"/><line class="cls-2" x1="45.94" y1="10.12" x2="45.94" y2="6.56"/><line class="cls-2" x1="-2.69" y1="18.31" x2="51.43" y2="18.31"/><line class="cls-2" x1="1.88" y1="13.93" x2="1.88" y2="18.28"/><line class="cls-2" x1="14.88" y1="13.93" x2="14.88" y2="18.28"/><line class="cls-2" x1="28.88" y1="13.93" x2="28.88" y2="18.28"/><line class="cls-2" x1="43.44" y1="13.93" x2="43.44" y2="18.28"/><rect class="cls-1" x="-2.69" y="22.52" width="54.13" height="54.13"/><line class="cls-2" x1="-2.69" y1="28.44" x2="1.43" y2="28.44"/><line class="cls-2" x1="10.38" y1="28.44" x2="4.01" y2="28.44"/><line class="cls-2" x1="19.29" y1="28.44" x2="12.92" y2="28.44"/><line class="cls-2" x1="28.21" y1="28.44" x2="21.84" y2="28.44"/><line class="cls-2" x1="30.76" y1="28.44" x2="37.13" y2="28.44"/><line class="cls-2" x1="46.04" y1="28.44" x2="39.67" y2="28.44"/><line class="cls-2" x1="48.59" y1="28.44" x2="51.43" y2="28.44"/><line class="cls-2" x1="-1.24" y1="36.68" x2="5.13" y2="36.68"/><line class="cls-2" x1="7.68" y1="36.68" x2="14.05" y2="36.68"/><line class="cls-2" x1="16.59" y1="36.68" x2="22.96" y2="36.68"/><line class="cls-2" x1="31.88" y1="36.68" x2="25.51" y2="36.68"/><line class="cls-2" x1="40.8" y1="36.68" x2="34.43" y2="36.68"/><line class="cls-2" x1="43.34" y1="36.68" x2="49.71" y2="36.68"/><line class="cls-2" x1="5.41" y1="51.4" x2="-0.96" y2="51.4"/><line class="cls-2" x1="14.36" y1="51.4" x2="7.99" y2="51.4"/><line class="cls-2" x1="23.27" y1="51.4" x2="16.9" y2="51.4"/><line class="cls-2" x1="32.19" y1="51.4" x2="25.82" y2="51.4"/><line class="cls-2" x1="41.11" y1="51.4" x2="34.74" y2="51.4"/><line class="cls-2" x1="50.02" y1="51.4" x2="43.65" y2="51.4"/><line class="cls-2" x1="-2.69" y1="43.69" x2="0.41" y2="43.69"/><line class="cls-2" x1="2.99" y1="43.69" x2="9.36" y2="43.69"/><line class="cls-2" x1="11.9" y1="43.69" x2="18.27" y2="43.69"/><line class="cls-2" x1="20.82" y1="43.69" x2="27.19" y2="43.69"/><line class="cls-2" x1="29.74" y1="43.69" x2="36.11" y2="43.69"/><line class="cls-2" x1="38.65" y1="43.69" x2="45.02" y2="43.69"/><line class="cls-2" x1="47.57" y1="43.69" x2="51.43" y2="43.69"/><line class="cls-2" x1="29.48" y1="26.27" x2="15.98" y2="26.27"/><line class="cls-2" x1="3.23" y1="26.27" x2="15.98" y2="26.27"/><line class="cls-2" x1="29.48" y1="26.27" x2="43.86" y2="26.27"/><line class="cls-2" x1="3.23" y1="26.27" x2="-2.69" y2="26.27"/><line class="cls-2" x1="51.43" y1="26.27" x2="43.86" y2="26.27"/><line class="cls-2" x1="51.43" y1="30.44" x2="-2.69" y2="30.44"/><line class="cls-2" x1="-2.69" y1="34.63" x2="51.43" y2="34.63"/><line class="cls-2" x1="29.23" y1="38.65" x2="43.86" y2="38.65"/><line class="cls-2" x1="3.23" y1="38.65" x2="-2.69" y2="38.65"/><line class="cls-2" x1="29.23" y1="38.65" x2="15.98" y2="38.65"/><line class="cls-2" x1="15.98" y1="38.65" x2="3.23" y2="38.65"/><line class="cls-2" x1="43.86" y1="38.65" x2="51.43" y2="38.65"/><line class="cls-2" x1="-2.69" y1="41.93" x2="51.43" y2="41.93"/><line class="cls-2" x1="45.97" y1="45.36" x2="51.43" y2="45.36"/><line class="cls-2" x1="45.97" y1="45.36" x2="31.09" y2="45.36"/><line class="cls-2" x1="17.47" y1="45.36" x2="3.97" y2="45.36"/><line class="cls-2" x1="3.97" y1="45.36" x2="-2.69" y2="45.36"/><line class="cls-2" x1="31.09" y1="45.36" x2="17.47" y2="45.36"/><line class="cls-2" x1="-2.69" y1="49.41" x2="51.43" y2="49.41"/><line class="cls-2" x1="-2.69" y1="53.21" x2="51.43" y2="53.21"/><line class="cls-2" x1="3.23" y1="26.27" x2="3.23" y2="22.52"/><line class="cls-2" x1="15.98" y1="22.52" x2="15.98" y2="26.27"/><line class="cls-2" x1="29.48" y1="26.27" x2="29.48" y2="22.52"/><line class="cls-2" x1="43.86" y1="22.52" x2="43.86" y2="26.27"/><line class="cls-2" x1="4.34" y1="30.57" x2="4.34" y2="34.62"/><line class="cls-2" x1="17.59" y1="30.57" x2="17.59" y2="34.62"/><line class="cls-2" x1="31.16" y1="30.57" x2="31.16" y2="34.62"/><line class="cls-2" x1="46.09" y1="30.57" x2="46.09" y2="34.62"/><line class="cls-2" x1="43.86" y1="38.62" x2="43.86" y2="38.65"/><line class="cls-2" x1="43.86" y1="41.92" x2="43.86" y2="38.65"/><line class="cls-2" x1="29.23" y1="38.65" x2="29.23" y2="38.62"/><line class="cls-2" x1="29.23" y1="38.65" x2="29.23" y2="41.92"/><line class="cls-2" x1="15.98" y1="38.62" x2="15.98" y2="38.65"/><line class="cls-2" x1="15.98" y1="38.65" x2="15.98" y2="41.92"/><line class="cls-2" x1="3.23" y1="38.62" x2="3.23" y2="38.65"/><line class="cls-2" x1="3.23" y1="38.65" x2="3.23" y2="41.92"/><line class="cls-2" x1="3.97" y1="45.36" x2="3.97" y2="49.39"/><line class="cls-2" x1="3.97" y1="45.34" x2="3.97" y2="45.36"/><line class="cls-2" x1="17.47" y1="45.34" x2="17.47" y2="45.36"/><line class="cls-2" x1="17.47" y1="45.36" x2="17.47" y2="49.39"/><line class="cls-2" x1="31.09" y1="45.36" x2="31.09" y2="49.39"/><line class="cls-2" x1="31.09" y1="45.34" x2="31.09" y2="45.36"/><line class="cls-2" x1="45.97" y1="45.36" x2="45.97" y2="49.39"/><line class="cls-2" x1="45.97" y1="45.36" x2="45.97" y2="45.34"/><line class="cls-2" x1="2.83" y1="53.26" x2="2.83" y2="57.39"/><line class="cls-2" x1="15.83" y1="53.26" x2="15.83" y2="57.39"/><line class="cls-2" x1="29.46" y1="53.26" x2="29.46" y2="57.39"/><line class="cls-2" x1="43.71" y1="57.39" x2="43.71" y2="53.26"/><rect class="cls-1" width="54.12" height="54.13"/></svg>