<svg id="Layer_1" data-name="Layer 1" xmlns="http://www.w3.org/2000/svg" width="48.71" height="48.71" viewBox="0 0 48.71 48.71"><defs><style>.cls-1,.cls-2{fill:none;}.cls-2{stroke:#000;stroke-width:0.3px;}</style></defs><title>Artboard 37</title><rect class="cls-1" x="46.03" y="-30.31" width="48.71" height="48.71"/><line class="cls-2" x1="46.41" y1="4" x2="46.03" y2="4"/><line class="cls-2" x1="49.55" y1="7.54" x2="46.03" y2="7.54"/><line class="cls-2" x1="46.8" y1="11.41" x2="46.03" y2="11.41"/><line class="cls-2" x1="94.75" y1="1.09" x2="46.03" y2="1.09"/><line class="cls-2" x1="51.37" y1="17.65" x2="46.03" y2="17.65"/><line class="cls-2" x1="55.3" y1="14.61" x2="46.03" y2="14.61"/><rect class="cls-1" x="46.03" y="18.41" width="48.71" height="48.71"/><line class="cls-2" x1="46.41" y1="28.75" x2="46.03" y2="28.75"/><line class="cls-2" x1="49.55" y1="32.55" x2="46.03" y2="32.55"/><line class="cls-2" x1="46.03" y1="35.76" x2="46.8" y2="35.76"/><line class="cls-2" x1="46.03" y1="21.78" x2="51.37" y2="21.78"/><line class="cls-2" x1="94.75" y1="25.54" x2="46.03" y2="25.54"/><line class="cls-2" x1="52.03" y1="38.96" x2="46.03" y2="38.96"/><line class="cls-2" x1="94.75" y1="42.6" x2="46.03" y2="42.6"/><line class="cls-2" x1="94.75" y1="46.02" x2="46.03" y2="46.02"/><rect class="cls-1" x="-2.68" y="-30.31" width="48.71" height="48.71"/><line class="cls-2" x1="0.02" y1="4" x2="5.75" y2="4"/><line class="cls-2" x1="8.04" y1="4" x2="13.77" y2="4"/><line class="cls-2" x1="16.07" y1="4" x2="21.8" y2="4"/><line class="cls-2" x1="24.09" y1="4" x2="29.82" y2="4"/><line class="cls-2" x1="32.12" y1="4" x2="37.85" y2="4"/><line class="cls-2" x1="40.14" y1="4" x2="46.02" y2="4"/><line class="cls-2" x1="0.84" y1="7.54" x2="-2.68" y2="7.54"/><line class="cls-2" x1="8.87" y1="7.54" x2="3.13" y2="7.54"/><line class="cls-2" x1="16.89" y1="7.54" x2="11.16" y2="7.54"/><line class="cls-2" x1="19.18" y1="7.54" x2="24.92" y2="7.54"/><line class="cls-2" x1="27.21" y1="7.54" x2="32.94" y2="7.54"/><line class="cls-2" x1="40.97" y1="7.54" x2="35.23" y2="7.54"/><line class="cls-2" x1="43.26" y1="7.54" x2="46.03" y2="7.54"/><line class="cls-2" x1="6.14" y1="11.41" x2="0.41" y2="11.41"/><line class="cls-2" x1="14.17" y1="11.41" x2="8.44" y2="11.41"/><line class="cls-2" x1="16.46" y1="11.41" x2="22.19" y2="11.41"/><line class="cls-2" x1="30.22" y1="11.41" x2="24.49" y2="11.41"/><line class="cls-2" x1="38.24" y1="11.41" x2="32.51" y2="11.41"/><line class="cls-2" x1="40.54" y1="11.41" x2="46.03" y2="11.41"/><line class="cls-2" x1="46.03" y1="1.09" x2="-2.68" y2="1.09"/><line class="cls-2" x1="26.28" y1="17.65" x2="31.84" y2="17.65"/><line class="cls-2" x1="2.65" y1="17.65" x2="-2.68" y2="17.65"/><line class="cls-2" x1="39.22" y1="17.65" x2="43.88" y2="17.65"/><line class="cls-2" x1="39.22" y1="17.65" x2="31.84" y2="17.65"/><line class="cls-2" x1="43.88" y1="17.65" x2="46.03" y2="17.65"/><line class="cls-2" x1="19.58" y1="17.65" x2="26.28" y2="17.65"/><line class="cls-2" x1="6.59" y1="17.65" x2="14.13" y2="17.65"/><line class="cls-2" x1="2.65" y1="17.65" x2="6.59" y2="17.65"/><line class="cls-2" x1="14.13" y1="17.65" x2="19.58" y2="17.65"/><line class="cls-2" x1="2.65" y1="17.65" x2="2.65" y2="17.64"/><line class="cls-2" x1="2.65" y1="17.65" x2="2.65" y2="18.41"/><line class="cls-2" x1="14.13" y1="17.64" x2="14.13" y2="17.65"/><line class="cls-2" x1="14.13" y1="18.41" x2="14.13" y2="17.65"/><line class="cls-2" x1="26.28" y1="17.65" x2="26.28" y2="17.64"/><line class="cls-2" x1="26.28" y1="18.41" x2="26.28" y2="17.65"/><line class="cls-2" x1="39.22" y1="17.65" x2="39.22" y2="17.64"/><line class="cls-2" x1="39.22" y1="17.65" x2="39.22" y2="18.41"/><line class="cls-2" x1="2.3" y1="-2.64" x2="2.3" y2="1.08"/><line class="cls-2" x1="14" y1="1.08" x2="14" y2="-2.64"/><line class="cls-2" x1="26.26" y1="1.08" x2="26.26" y2="-2.64"/><line class="cls-2" x1="39.08" y1="1.08" x2="39.08" y2="-2.64"/><line class="cls-2" x1="43.88" y1="14.61" x2="31.84" y2="14.61"/><line class="cls-2" x1="19.58" y1="14.61" x2="31.84" y2="14.61"/><line class="cls-2" x1="6.59" y1="14.61" x2="19.58" y2="14.61"/><line class="cls-2" x1="6.59" y1="14.61" x2="-2.68" y2="14.61"/><line class="cls-2" x1="43.88" y1="14.61" x2="46.03" y2="14.61"/><line class="cls-2" x1="6.59" y1="14.61" x2="6.59" y2="14.59"/><line class="cls-2" x1="6.59" y1="14.61" x2="6.59" y2="17.65"/><line class="cls-2" x1="6.59" y1="17.71" x2="6.59" y2="17.65"/><line class="cls-2" x1="19.58" y1="14.59" x2="19.58" y2="14.61"/><line class="cls-2" x1="19.58" y1="14.61" x2="19.58" y2="17.65"/><line class="cls-2" x1="19.58" y1="17.71" x2="19.58" y2="17.65"/><line class="cls-2" x1="31.84" y1="17.65" x2="31.84" y2="17.71"/><line class="cls-2" x1="31.84" y1="14.59" x2="31.84" y2="14.61"/><line class="cls-2" x1="31.84" y1="17.65" x2="31.84" y2="14.61"/><line class="cls-2" x1="43.88" y1="14.61" x2="43.88" y2="14.59"/><line class="cls-2" x1="43.88" y1="14.61" x2="43.88" y2="17.65"/><line class="cls-2" x1="43.88" y1="17.71" x2="43.88" y2="17.65"/><rect class="cls-1" x="-2.68" y="18.41" width="48.71" height="48.71"/><line class="cls-2" x1="0.02" y1="28.75" x2="5.75" y2="28.75"/><line class="cls-2" x1="8.04" y1="28.75" x2="13.77" y2="28.75"/><line class="cls-2" x1="16.07" y1="28.75" x2="21.8" y2="28.75"/><line class="cls-2" x1="24.09" y1="28.75" x2="29.82" y2="28.75"/><line class="cls-2" x1="32.12" y1="28.75" x2="37.85" y2="28.75"/><line class="cls-2" x1="40.14" y1="28.75" x2="46.02" y2="28.75"/><line class="cls-2" x1="0.84" y1="32.55" x2="-2.68" y2="32.55"/><line class="cls-2" x1="8.87" y1="32.55" x2="3.13" y2="32.55"/><line class="cls-2" x1="11.16" y1="32.55" x2="16.89" y2="32.55"/><line class="cls-2" x1="19.18" y1="32.55" x2="24.92" y2="32.55"/><line class="cls-2" x1="32.94" y1="32.55" x2="27.21" y2="32.55"/><line class="cls-2" x1="40.97" y1="32.55" x2="35.23" y2="32.55"/><line class="cls-2" x1="46.03" y1="32.55" x2="43.26" y2="32.55"/><line class="cls-2" x1="6.14" y1="35.76" x2="0.41" y2="35.76"/><line class="cls-2" x1="14.17" y1="35.76" x2="8.44" y2="35.76"/><line class="cls-2" x1="22.19" y1="35.76" x2="16.46" y2="35.76"/><line class="cls-2" x1="30.22" y1="35.76" x2="24.49" y2="35.76"/><line class="cls-2" x1="38.24" y1="35.76" x2="32.51" y2="35.76"/><line class="cls-2" x1="40.54" y1="35.76" x2="46.03" y2="35.76"/><line class="cls-2" x1="22.05" y1="21.78" x2="14.13" y2="21.78"/><line class="cls-2" x1="8.66" y1="21.78" x2="14.13" y2="21.78"/><line class="cls-2" x1="-2.68" y1="21.78" x2="2.65" y2="21.78"/><line class="cls-2" x1="8.66" y1="21.78" x2="2.65" y2="21.78"/><line class="cls-2" x1="39.22" y1="21.78" x2="34.31" y2="21.78"/><line class="cls-2" x1="26.28" y1="21.78" x2="22.05" y2="21.78"/><line class="cls-2" x1="45.85" y1="21.78" x2="46.03" y2="21.78"/><line class="cls-2" x1="26.28" y1="21.78" x2="34.31" y2="21.78"/><line class="cls-2" x1="45.85" y1="21.78" x2="39.22" y2="21.78"/><line class="cls-2" x1="46.03" y1="25.54" x2="-2.68" y2="25.54"/><line class="cls-2" x1="41.12" y1="38.96" x2="46.03" y2="38.96"/><line class="cls-2" x1="41.12" y1="38.96" x2="27.73" y2="38.96"/><line class="cls-2" x1="3.32" y1="38.96" x2="-2.68" y2="38.96"/><line class="cls-2" x1="15.47" y1="38.96" x2="3.32" y2="38.96"/><line class="cls-2" x1="15.47" y1="38.96" x2="27.73" y2="38.96"/><line class="cls-2" x1="46.03" y1="42.6" x2="-2.68" y2="42.6"/><line class="cls-2" x1="46.03" y1="46.02" x2="-2.68" y2="46.02"/><line class="cls-2" x1="2.65" y1="18.41" x2="2.65" y2="21.78"/><line class="cls-2" x1="14.13" y1="18.41" x2="14.13" y2="21.78"/><line class="cls-2" x1="26.28" y1="21.78" x2="26.28" y2="18.41"/><line class="cls-2" x1="39.22" y1="18.41" x2="39.22" y2="21.78"/><line class="cls-2" x1="8.66" y1="21.78" x2="8.66" y2="25.53"/><line class="cls-2" x1="8.66" y1="21.78" x2="8.66" y2="21.72"/><line class="cls-2" x1="22.05" y1="21.72" x2="22.05" y2="21.78"/><line class="cls-2" x1="22.05" y1="21.78" x2="22.05" y2="25.53"/><line class="cls-2" x1="34.31" y1="21.72" x2="34.31" y2="21.78"/><line class="cls-2" x1="34.31" y1="25.53" x2="34.31" y2="21.78"/><line class="cls-2" x1="45.85" y1="21.78" x2="45.85" y2="25.53"/><line class="cls-2" x1="3.32" y1="38.96" x2="3.32" y2="38.95"/><line class="cls-2" x1="3.32" y1="38.96" x2="3.32" y2="42.59"/><line class="cls-2" x1="15.47" y1="38.96" x2="15.47" y2="42.59"/><line class="cls-2" x1="15.47" y1="38.95" x2="15.47" y2="38.96"/><line class="cls-2" x1="27.73" y1="42.59" x2="27.73" y2="38.96"/><line class="cls-2" x1="27.73" y1="38.95" x2="27.73" y2="38.96"/><line class="cls-2" x1="41.12" y1="38.96" x2="41.12" y2="42.59"/><line class="cls-2" x1="41.12" y1="38.95" x2="41.12" y2="38.96"/><line class="cls-2" x1="33.36" y1="46.01" x2="33.36" y2="42.65"/><line class="cls-2" x1="21.36" y1="46.01" x2="21.36" y2="42.65"/><line class="cls-2" x1="7.86" y1="42.65" x2="7.86" y2="46.01"/><line class="cls-2" x1="45.26" y1="46.01" x2="45.26" y2="42.65"/><line class="cls-2" x1="2.3" y1="46.07" x2="2.3" y2="49.79"/><line class="cls-2" x1="14" y1="49.79" x2="14" y2="46.07"/><line class="cls-2" x1="26.26" y1="49.79" x2="26.26" y2="46.07"/><line class="cls-2" x1="39.08" y1="49.79" x2="39.08" y2="46.07"/><rect class="cls-1" width="48.71" height="48.71"/></svg>