<svg id="Layer_1" data-name="Layer 1" xmlns="http://www.w3.org/2000/svg" width="48.71" height="48.71" viewBox="0 0 48.71 48.71"><defs><style>.cls-1,.cls-2{fill:none;}.cls-2{stroke:#000;stroke-width:0.3px;}</style></defs><title>Artboard 37</title><rect class="cls-1" x="11.4" y="-20.26" width="48.71" height="48.71"/><line class="cls-2" x1="11.4" y1="17.64" x2="14.92" y2="17.64"/><line class="cls-2" x1="17.21" y1="17.64" x2="22.95" y2="17.64"/><line class="cls-2" x1="25.24" y1="17.64" x2="30.97" y2="17.64"/><line class="cls-2" x1="33.26" y1="17.64" x2="39" y2="17.64"/><line class="cls-2" x1="41.29" y1="17.64" x2="47.02" y2="17.64"/><line class="cls-2" x1="11.4" y1="21.51" x2="12.17" y2="21.51"/><line class="cls-2" x1="20.22" y1="21.51" x2="14.49" y2="21.51"/><line class="cls-2" x1="28.25" y1="21.51" x2="22.52" y2="21.51"/><line class="cls-2" x1="30.54" y1="21.51" x2="36.27" y2="21.51"/><line class="cls-2" x1="44.3" y1="21.51" x2="38.57" y2="21.51"/><line class="cls-2" x1="52.32" y1="21.51" x2="46.59" y2="21.51"/><line class="cls-2" x1="29.55" y1="0.35" x2="41.81" y2="0.35"/><line class="cls-2" x1="55.2" y1="0.35" x2="41.81" y2="0.35"/><line class="cls-2" x1="29.55" y1="0.35" x2="17.4" y2="0.35"/><line class="cls-2" x1="17.4" y1="0.35" x2="11.4" y2="0.35"/><line class="cls-2" x1="60.11" y1="3.99" x2="11.4" y2="3.99"/><line class="cls-2" x1="60.11" y1="7.41" x2="11.4" y2="7.41"/><line class="cls-2" x1="60.11" y1="11.19" x2="11.4" y2="11.19"/><line class="cls-2" x1="20.67" y1="27.75" x2="28.21" y2="27.75"/><line class="cls-2" x1="40.36" y1="27.75" x2="45.92" y2="27.75"/><line class="cls-2" x1="53.3" y1="27.75" x2="45.92" y2="27.75"/><line class="cls-2" x1="33.66" y1="27.75" x2="40.36" y2="27.75"/><line class="cls-2" x1="20.67" y1="27.75" x2="16.73" y2="27.75"/><line class="cls-2" x1="28.21" y1="27.75" x2="33.66" y2="27.75"/><line class="cls-2" x1="11.4" y1="27.75" x2="16.73" y2="27.75"/><line class="cls-2" x1="16.73" y1="27.75" x2="16.73" y2="28.45"/><line class="cls-2" x1="16.73" y1="27.74" x2="16.73" y2="27.75"/><line class="cls-2" x1="28.21" y1="27.74" x2="28.21" y2="27.75"/><line class="cls-2" x1="28.21" y1="27.75" x2="28.21" y2="28.45"/><line class="cls-2" x1="40.36" y1="27.75" x2="40.36" y2="27.74"/><line class="cls-2" x1="40.36" y1="28.45" x2="40.36" y2="27.75"/><line class="cls-2" x1="17.4" y1="0.35" x2="17.4" y2="0.34"/><line class="cls-2" x1="17.4" y1="0.35" x2="17.4" y2="3.98"/><line class="cls-2" x1="29.55" y1="0.34" x2="29.55" y2="0.35"/><line class="cls-2" x1="29.55" y1="0.35" x2="29.55" y2="3.98"/><line class="cls-2" x1="41.81" y1="0.34" x2="41.81" y2="0.35"/><line class="cls-2" x1="41.81" y1="3.98" x2="41.81" y2="0.35"/><line class="cls-2" x1="60.11" y1="14.3" x2="11.4" y2="14.3"/><line class="cls-2" x1="19.95" y1="11.21" x2="19.95" y2="14.29"/><line class="cls-2" x1="32.1" y1="14.29" x2="32.1" y2="11.21"/><line class="cls-2" x1="44.36" y1="14.29" x2="44.36" y2="11.21"/><line class="cls-2" x1="47.43" y1="7.4" x2="47.43" y2="4.04"/><line class="cls-2" x1="35.44" y1="7.4" x2="35.44" y2="4.04"/><line class="cls-2" x1="21.94" y1="4.04" x2="21.94" y2="7.4"/><line class="cls-2" x1="16.37" y1="7.46" x2="16.37" y2="11.18"/><line class="cls-2" x1="28.07" y1="11.18" x2="28.07" y2="7.46"/><line class="cls-2" x1="40.34" y1="11.18" x2="40.34" y2="7.46"/><line class="cls-2" x1="57.96" y1="24.71" x2="45.92" y2="24.71"/><line class="cls-2" x1="20.67" y1="24.71" x2="11.4" y2="24.71"/><line class="cls-2" x1="33.66" y1="24.71" x2="45.92" y2="24.71"/><line class="cls-2" x1="20.67" y1="24.71" x2="33.66" y2="24.71"/><line class="cls-2" x1="20.67" y1="27.75" x2="20.67" y2="27.81"/><line class="cls-2" x1="20.67" y1="24.71" x2="20.67" y2="27.75"/><line class="cls-2" x1="20.67" y1="24.71" x2="20.67" y2="24.69"/><line class="cls-2" x1="33.66" y1="24.71" x2="33.66" y2="27.75"/><line class="cls-2" x1="33.66" y1="27.81" x2="33.66" y2="27.75"/><line class="cls-2" x1="33.66" y1="24.69" x2="33.66" y2="24.71"/><line class="cls-2" x1="45.92" y1="27.75" x2="45.92" y2="27.81"/><line class="cls-2" x1="45.92" y1="27.75" x2="45.92" y2="24.71"/><line class="cls-2" x1="45.92" y1="24.69" x2="45.92" y2="24.71"/><rect class="cls-1" x="11.4" y="28.45" width="48.71" height="48.71"/><line class="cls-2" x1="14.92" y1="42.65" x2="11.4" y2="42.65"/><line class="cls-2" x1="17.21" y1="42.65" x2="22.95" y2="42.65"/><line class="cls-2" x1="25.24" y1="42.65" x2="30.97" y2="42.65"/><line class="cls-2" x1="33.26" y1="42.65" x2="39" y2="42.65"/><line class="cls-2" x1="41.29" y1="42.65" x2="47.02" y2="42.65"/><line class="cls-2" x1="11.4" y1="45.86" x2="12.17" y2="45.86"/><line class="cls-2" x1="20.22" y1="45.86" x2="14.49" y2="45.86"/><line class="cls-2" x1="28.25" y1="45.86" x2="22.52" y2="45.86"/><line class="cls-2" x1="36.27" y1="45.86" x2="30.54" y2="45.86"/><line class="cls-2" x1="44.3" y1="45.86" x2="38.57" y2="45.86"/><line class="cls-2" x1="52.32" y1="45.86" x2="46.59" y2="45.86"/><line class="cls-2" x1="11.4" y1="31.88" x2="16.73" y2="31.88"/><line class="cls-2" x1="53.3" y1="31.88" x2="48.39" y2="31.88"/><line class="cls-2" x1="36.13" y1="31.88" x2="28.21" y2="31.88"/><line class="cls-2" x1="40.36" y1="31.88" x2="48.39" y2="31.88"/><line class="cls-2" x1="40.36" y1="31.88" x2="36.13" y2="31.88"/><line class="cls-2" x1="22.74" y1="31.88" x2="28.21" y2="31.88"/><line class="cls-2" x1="22.74" y1="31.88" x2="16.73" y2="31.88"/><line class="cls-2" x1="60.11" y1="35.64" x2="11.4" y2="35.64"/><line class="cls-2" x1="16.73" y1="31.88" x2="16.73" y2="28.45"/><line class="cls-2" x1="28.21" y1="31.88" x2="28.21" y2="28.45"/><line class="cls-2" x1="40.36" y1="31.88" x2="40.36" y2="28.45"/><line class="cls-2" x1="22.74" y1="31.88" x2="22.74" y2="35.63"/><line class="cls-2" x1="22.74" y1="31.88" x2="22.74" y2="31.82"/><line class="cls-2" x1="36.13" y1="31.82" x2="36.13" y2="31.88"/><line class="cls-2" x1="36.13" y1="31.88" x2="36.13" y2="35.63"/><line class="cls-2" x1="48.39" y1="35.63" x2="48.39" y2="31.88"/><line class="cls-2" x1="48.39" y1="31.82" x2="48.39" y2="31.88"/><line class="cls-2" x1="60.11" y1="39.25" x2="11.4" y2="39.25"/><line class="cls-2" x1="39.33" y1="39.24" x2="39.33" y2="35.87"/><line class="cls-2" x1="27.33" y1="39.24" x2="27.33" y2="35.87"/><line class="cls-2" x1="13.83" y1="39.24" x2="13.83" y2="35.87"/><rect class="cls-1" x="-37.31" y="-20.26" width="48.71" height="48.71"/><line class="cls-2" x1="0.6" y1="17.64" x2="6.33" y2="17.64"/><line class="cls-2" x1="8.63" y1="17.64" x2="11.4" y2="17.64"/><line class="cls-2" x1="3.61" y1="21.51" x2="-2.12" y2="21.51"/><line class="cls-2" x1="5.9" y1="21.51" x2="11.4" y2="21.51"/><line class="cls-2" x1="6.49" y1="0.35" x2="11.4" y2="0.35"/><line class="cls-2" x1="6.49" y1="0.35" x2="-6.9" y2="0.35"/><line class="cls-2" x1="11.4" y1="3.99" x2="-37.31" y2="3.99"/><line class="cls-2" x1="11.4" y1="7.41" x2="-37.31" y2="7.41"/><line class="cls-2" x1="11.4" y1="11.19" x2="-37.31" y2="11.19"/><line class="cls-2" x1="4.58" y1="27.75" x2="-2.79" y2="27.75"/><line class="cls-2" x1="9.25" y1="27.75" x2="4.58" y2="27.75"/><line class="cls-2" x1="9.25" y1="27.75" x2="11.4" y2="27.75"/><line class="cls-2" x1="4.58" y1="27.75" x2="4.58" y2="28.45"/><line class="cls-2" x1="4.58" y1="27.74" x2="4.58" y2="27.75"/><line class="cls-2" x1="6.49" y1="0.34" x2="6.49" y2="0.35"/><line class="cls-2" x1="6.49" y1="0.35" x2="6.49" y2="3.98"/><line class="cls-2" x1="11.4" y1="14.3" x2="-37.31" y2="14.3"/><line class="cls-2" x1="9.04" y1="14.29" x2="9.04" y2="11.21"/><line class="cls-2" x1="10.63" y1="7.4" x2="10.63" y2="4.04"/><line class="cls-2" x1="4.45" y1="11.18" x2="4.45" y2="7.46"/><line class="cls-2" x1="9.25" y1="24.71" x2="11.4" y2="24.71"/><line class="cls-2" x1="9.25" y1="24.71" x2="-2.79" y2="24.71"/><line class="cls-2" x1="9.25" y1="27.75" x2="9.25" y2="27.81"/><line class="cls-2" x1="9.25" y1="24.71" x2="9.25" y2="27.75"/><line class="cls-2" x1="9.25" y1="24.71" x2="9.25" y2="24.69"/><rect class="cls-1" x="-37.31" y="28.45" width="48.71" height="48.71"/><line class="cls-2" x1="0.6" y1="42.65" x2="6.33" y2="42.65"/><line class="cls-2" x1="11.4" y1="42.65" x2="8.63" y2="42.65"/><line class="cls-2" x1="3.61" y1="45.86" x2="-2.12" y2="45.86"/><line class="cls-2" x1="5.9" y1="45.86" x2="11.4" y2="45.86"/><line class="cls-2" x1="11.22" y1="31.88" x2="4.58" y2="31.88"/><line class="cls-2" x1="4.58" y1="31.88" x2="-0.32" y2="31.88"/><line class="cls-2" x1="11.22" y1="31.88" x2="11.4" y2="31.88"/><line class="cls-2" x1="11.4" y1="35.64" x2="-37.31" y2="35.64"/><line class="cls-2" x1="4.58" y1="31.88" x2="4.58" y2="28.45"/><line class="cls-2" x1="11.22" y1="31.88" x2="11.22" y2="35.63"/><line class="cls-2" x1="11.4" y1="39.25" x2="-37.31" y2="39.25"/><line class="cls-2" x1="2.52" y1="39.24" x2="2.52" y2="35.87"/><rect class="cls-1" width="48.71" height="48.71"/></svg>