<svg id="Layer_1" data-name="Layer 1" xmlns="http://www.w3.org/2000/svg" width="48.71" height="48.71" viewBox="0 0 48.71 48.71"><defs><style>.cls-1,.cls-2{fill:none;}.cls-2{stroke:#000;stroke-width:0.3px;}</style></defs><title>Artboard 37</title><rect class="cls-1" x="38.22" y="-16.63" width="48.71" height="48.71"/><line class="cls-2" x1="38.22" y1="0.72" x2="38.99" y2="0.72"/><line class="cls-2" x1="42.47" y1="0.72" x2="47.04" y2="0.72"/><line class="cls-2" x1="42.47" y1="0.72" x2="41.31" y2="0.72"/><line class="cls-2" x1="44.22" y1="3.92" x2="56.37" y2="3.92"/><line class="cls-2" x1="44.22" y1="3.92" x2="38.22" y2="3.92"/><line class="cls-2" x1="38.22" y1="7.57" x2="86.93" y2="7.57"/><line class="cls-2" x1="38.22" y1="10.99" x2="86.93" y2="10.99"/><line class="cls-2" x1="38.22" y1="14.77" x2="86.93" y2="14.77"/><line class="cls-2" x1="38.22" y1="31.33" x2="43.55" y2="31.33"/><line class="cls-2" x1="43.55" y1="31.33" x2="47.49" y2="31.33"/><line class="cls-2" x1="55.03" y1="31.33" x2="47.49" y2="31.33"/><line class="cls-2" x1="43.55" y1="31.32" x2="43.55" y2="31.33"/><line class="cls-2" x1="43.55" y1="32.08" x2="43.55" y2="31.33"/><line class="cls-2" x1="44.22" y1="3.92" x2="44.22" y2="7.56"/><line class="cls-2" x1="44.22" y1="3.91" x2="44.22" y2="3.92"/><line class="cls-2" x1="48.76" y1="7.61" x2="48.76" y2="10.98"/><line class="cls-2" x1="43.19" y1="11.03" x2="43.19" y2="14.76"/><line class="cls-2" x1="60.48" y1="28.29" x2="47.49" y2="28.29"/><line class="cls-2" x1="38.22" y1="28.29" x2="47.49" y2="28.29"/><line class="cls-2" x1="47.49" y1="31.38" x2="47.49" y2="31.33"/><line class="cls-2" x1="47.49" y1="28.29" x2="47.49" y2="31.33"/><line class="cls-2" x1="47.49" y1="28.27" x2="47.49" y2="28.29"/><line class="cls-2" x1="42.47" y1="0.72" x2="42.47" y2="0.73"/><line class="cls-2" x1="42.47" y1="0.72" x2="42.47" y2="-0.9"/><line class="cls-2" x1="39.44" y1="18.59" x2="38.22" y2="18.59"/><line class="cls-2" x1="41.77" y1="18.59" x2="42.91" y2="18.59"/><line class="cls-2" x1="47.5" y1="18.59" x2="42.91" y2="18.59"/><line class="cls-2" x1="42.59" y1="22.39" x2="38.22" y2="22.39"/><line class="cls-2" x1="44.88" y1="22.39" x2="50.62" y2="22.39"/><line class="cls-2" x1="38.22" y1="25.6" x2="39.84" y2="25.6"/><line class="cls-2" x1="43.32" y1="25.6" x2="42.16" y2="25.6"/><line class="cls-2" x1="43.32" y1="25.6" x2="47.89" y2="25.6"/><line class="cls-2" x1="42.91" y1="18.62" x2="42.91" y2="18.59"/><line class="cls-2" x1="42.91" y1="16.99" x2="42.91" y2="18.59"/><line class="cls-2" x1="43.32" y1="25.6" x2="43.32" y2="23.98"/><line class="cls-2" x1="43.32" y1="25.6" x2="43.32" y2="25.61"/><rect class="cls-1" x="38.22" y="-16.63" width="48.71" height="48.71"/><rect class="cls-1" x="38.22" y="32.08" width="48.71" height="48.71"/><line class="cls-2" x1="38.59" y1="42.42" x2="38.22" y2="42.42"/><line class="cls-2" x1="40.92" y1="42.42" x2="42.06" y2="42.42"/><line class="cls-2" x1="42.06" y1="42.42" x2="46.65" y2="42.42"/><line class="cls-2" x1="41.74" y1="46.22" x2="38.22" y2="46.22"/><line class="cls-2" x1="44.03" y1="46.22" x2="49.77" y2="46.22"/><line class="cls-2" x1="49.56" y1="35.46" x2="43.55" y2="35.46"/><line class="cls-2" x1="38.22" y1="35.46" x2="43.55" y2="35.46"/><line class="cls-2" x1="38.22" y1="39.21" x2="86.93" y2="39.21"/><line class="cls-2" x1="43.55" y1="32.08" x2="43.55" y2="35.46"/><line class="cls-2" x1="42.06" y1="42.45" x2="42.06" y2="42.42"/><line class="cls-2" x1="42.06" y1="42.42" x2="42.06" y2="40.82"/><line class="cls-2" x1="42.47" y1="49.43" x2="42.47" y2="47.82"/><rect class="cls-1" x="38.22" y="32.08" width="48.71" height="48.71"/><rect class="cls-1" x="-10.49" y="-16.63" width="48.71" height="48.71"/><line class="cls-2" x1="6.36" y1="0.72" x2="0.62" y2="0.72"/><line class="cls-2" x1="9.98" y1="0.72" x2="8.65" y2="0.72"/><line class="cls-2" x1="14.38" y1="0.72" x2="9.98" y2="0.72"/><line class="cls-2" x1="16.67" y1="0.72" x2="22.41" y2="0.72"/><line class="cls-2" x1="26.06" y1="0.72" x2="24.7" y2="0.72"/><line class="cls-2" x1="26.06" y1="0.72" x2="30.43" y2="0.72"/><line class="cls-2" x1="32.72" y1="0.72" x2="38.22" y2="0.72"/><line class="cls-2" x1="-4.5" y1="3.92" x2="7.66" y2="3.92"/><line class="cls-2" x1="33.3" y1="3.92" x2="19.92" y2="3.92"/><line class="cls-2" x1="19.92" y1="3.92" x2="7.66" y2="3.92"/><line class="cls-2" x1="33.3" y1="3.92" x2="38.22" y2="3.92"/><line class="cls-2" x1="-10.49" y1="7.57" x2="38.22" y2="7.57"/><line class="cls-2" x1="-10.49" y1="10.99" x2="38.22" y2="10.99"/><line class="cls-2" x1="-10.49" y1="14.77" x2="38.22" y2="14.77"/><line class="cls-2" x1="36.07" y1="31.33" x2="31.4" y2="31.33"/><line class="cls-2" x1="36.07" y1="31.33" x2="38.22" y2="31.33"/><line class="cls-2" x1="6.32" y1="31.33" x2="-1.22" y2="31.33"/><line class="cls-2" x1="31.4" y1="31.33" x2="24.03" y2="31.33"/><line class="cls-2" x1="18.47" y1="31.33" x2="24.03" y2="31.33"/><line class="cls-2" x1="11.77" y1="31.33" x2="18.47" y2="31.33"/><line class="cls-2" x1="11.77" y1="31.33" x2="6.32" y2="31.33"/><line class="cls-2" x1="6.32" y1="31.32" x2="6.32" y2="31.33"/><line class="cls-2" x1="6.32" y1="32.08" x2="6.32" y2="31.33"/><line class="cls-2" x1="18.47" y1="32.08" x2="18.47" y2="31.33"/><line class="cls-2" x1="18.47" y1="31.32" x2="18.47" y2="31.33"/><line class="cls-2" x1="31.4" y1="32.08" x2="31.4" y2="31.33"/><line class="cls-2" x1="31.4" y1="31.32" x2="31.4" y2="31.33"/><line class="cls-2" x1="7.66" y1="3.91" x2="7.66" y2="3.92"/><line class="cls-2" x1="7.66" y1="7.56" x2="7.66" y2="3.92"/><line class="cls-2" x1="19.92" y1="3.91" x2="19.92" y2="3.92"/><line class="cls-2" x1="19.92" y1="3.92" x2="19.92" y2="7.56"/><line class="cls-2" x1="33.3" y1="3.92" x2="33.3" y2="7.56"/><line class="cls-2" x1="33.3" y1="3.92" x2="33.3" y2="3.91"/><line class="cls-2" x1="25.54" y1="7.61" x2="25.54" y2="10.98"/><line class="cls-2" x1="13.55" y1="7.61" x2="13.55" y2="10.98"/><line class="cls-2" x1="0.05" y1="7.61" x2="0.05" y2="10.98"/><line class="cls-2" x1="37.45" y1="7.61" x2="37.45" y2="10.98"/><line class="cls-2" x1="6.18" y1="11.03" x2="6.18" y2="14.76"/><line class="cls-2" x1="18.44" y1="11.03" x2="18.44" y2="14.76"/><line class="cls-2" x1="31.27" y1="14.76" x2="31.27" y2="11.03"/><line class="cls-2" x1="36.07" y1="28.29" x2="24.03" y2="28.29"/><line class="cls-2" x1="11.77" y1="28.29" x2="-1.22" y2="28.29"/><line class="cls-2" x1="36.07" y1="28.29" x2="38.22" y2="28.29"/><line class="cls-2" x1="11.77" y1="28.29" x2="24.03" y2="28.29"/><line class="cls-2" x1="11.77" y1="28.29" x2="11.77" y2="31.33"/><line class="cls-2" x1="11.77" y1="28.29" x2="11.77" y2="28.27"/><line class="cls-2" x1="11.77" y1="31.33" x2="11.77" y2="31.38"/><line class="cls-2" x1="24.03" y1="31.38" x2="24.03" y2="31.33"/><line class="cls-2" x1="24.03" y1="28.29" x2="24.03" y2="31.33"/><line class="cls-2" x1="24.03" y1="28.27" x2="24.03" y2="28.29"/><line class="cls-2" x1="36.07" y1="28.29" x2="36.07" y2="28.27"/><line class="cls-2" x1="36.07" y1="28.29" x2="36.07" y2="31.33"/><line class="cls-2" x1="36.07" y1="31.33" x2="36.07" y2="31.38"/><line class="cls-2" x1="9.98" y1="-0.9" x2="9.98" y2="0.72"/><line class="cls-2" x1="9.98" y1="0.72" x2="9.98" y2="0.73"/><line class="cls-2" x1="26.06" y1="0.72" x2="26.06" y2="0.73"/><line class="cls-2" x1="26.06" y1="0.72" x2="26.06" y2="-0.9"/><line class="cls-2" x1="6.81" y1="18.59" x2="1.08" y2="18.59"/><line class="cls-2" x1="10.13" y1="18.59" x2="9.1" y2="18.59"/><line class="cls-2" x1="14.84" y1="18.59" x2="10.13" y2="18.59"/><line class="cls-2" x1="17.13" y1="18.59" x2="22.86" y2="18.59"/><line class="cls-2" x1="27.01" y1="18.59" x2="25.78" y2="18.59"/><line class="cls-2" x1="27.01" y1="18.59" x2="31.51" y2="18.59"/><line class="cls-2" x1="33.69" y1="18.59" x2="38.22" y2="18.59"/><line class="cls-2" x1="-3.83" y1="22.39" x2="1.9" y2="22.39"/><line class="cls-2" x1="4.2" y1="22.39" x2="9.93" y2="22.39"/><line class="cls-2" x1="12.22" y1="22.39" x2="17.95" y2="22.39"/><line class="cls-2" x1="20.25" y1="22.39" x2="25.98" y2="22.39"/><line class="cls-2" x1="28.27" y1="22.39" x2="34" y2="22.39"/><line class="cls-2" x1="36.3" y1="22.39" x2="38.22" y2="22.39"/><line class="cls-2" x1="7.21" y1="25.6" x2="1.47" y2="25.6"/><line class="cls-2" x1="10.83" y1="25.6" x2="9.5" y2="25.6"/><line class="cls-2" x1="15.23" y1="25.6" x2="10.83" y2="25.6"/><line class="cls-2" x1="23.26" y1="25.6" x2="17.52" y2="25.6"/><line class="cls-2" x1="26.91" y1="25.6" x2="25.55" y2="25.6"/><line class="cls-2" x1="31.28" y1="25.6" x2="26.91" y2="25.6"/><line class="cls-2" x1="33.57" y1="25.6" x2="38.22" y2="25.6"/><line class="cls-2" x1="10.13" y1="18.59" x2="10.13" y2="18.62"/><line class="cls-2" x1="10.13" y1="16.99" x2="10.13" y2="18.59"/><line class="cls-2" x1="27.01" y1="18.59" x2="27.01" y2="16.99"/><line class="cls-2" x1="27.01" y1="18.59" x2="27.01" y2="18.62"/><line class="cls-2" x1="10.83" y1="25.6" x2="10.83" y2="25.61"/><line class="cls-2" x1="10.83" y1="25.6" x2="10.83" y2="23.98"/><line class="cls-2" x1="26.91" y1="25.6" x2="26.91" y2="23.98"/><line class="cls-2" x1="26.91" y1="25.6" x2="26.91" y2="25.61"/><line class="cls-2" x1="5.55" y1="20.76" x2="5.55" y2="22.39"/><line class="cls-2" x1="21.49" y1="20.76" x2="21.49" y2="22.39"/><line class="cls-2" x1="37.45" y1="22.39" x2="37.45" y2="20.76"/><rect class="cls-1" x="-10.49" y="-16.63" width="48.71" height="48.71"/><rect class="cls-1" x="-10.49" y="32.08" width="48.71" height="48.71"/><line class="cls-2" x1="0.23" y1="42.42" x2="5.96" y2="42.42"/><line class="cls-2" x1="9.28" y1="42.42" x2="13.99" y2="42.42"/><line class="cls-2" x1="8.25" y1="42.42" x2="9.28" y2="42.42"/><line class="cls-2" x1="16.28" y1="42.42" x2="22.01" y2="42.42"/><line class="cls-2" x1="26.16" y1="42.42" x2="30.66" y2="42.42"/><line class="cls-2" x1="24.93" y1="42.42" x2="26.16" y2="42.42"/><line class="cls-2" x1="32.84" y1="42.42" x2="38.22" y2="42.42"/><line class="cls-2" x1="-4.68" y1="46.22" x2="1.05" y2="46.22"/><line class="cls-2" x1="3.35" y1="46.22" x2="9.08" y2="46.22"/><line class="cls-2" x1="17.1" y1="46.22" x2="11.37" y2="46.22"/><line class="cls-2" x1="19.4" y1="46.22" x2="25.13" y2="46.22"/><line class="cls-2" x1="33.15" y1="46.22" x2="27.42" y2="46.22"/><line class="cls-2" x1="35.45" y1="46.22" x2="38.22" y2="46.22"/><line class="cls-2" x1="0.85" y1="35.46" x2="6.32" y2="35.46"/><line class="cls-2" x1="14.24" y1="35.46" x2="6.32" y2="35.46"/><line class="cls-2" x1="14.24" y1="35.46" x2="18.47" y2="35.46"/><line class="cls-2" x1="31.4" y1="35.46" x2="38.04" y2="35.46"/><line class="cls-2" x1="26.5" y1="35.46" x2="18.47" y2="35.46"/><line class="cls-2" x1="38.04" y1="35.46" x2="38.22" y2="35.46"/><line class="cls-2" x1="31.4" y1="35.46" x2="26.5" y2="35.46"/><line class="cls-2" x1="0.85" y1="35.46" x2="-5.16" y2="35.46"/><line class="cls-2" x1="-10.49" y1="39.21" x2="38.22" y2="39.21"/><line class="cls-2" x1="6.32" y1="32.08" x2="6.32" y2="35.46"/><line class="cls-2" x1="18.47" y1="32.08" x2="18.47" y2="35.46"/><line class="cls-2" x1="31.4" y1="35.46" x2="31.4" y2="32.08"/><line class="cls-2" x1="0.85" y1="35.46" x2="0.85" y2="39.2"/><line class="cls-2" x1="0.85" y1="35.46" x2="0.85" y2="35.4"/><line class="cls-2" x1="14.24" y1="35.46" x2="14.24" y2="39.2"/><line class="cls-2" x1="14.24" y1="35.46" x2="14.24" y2="35.4"/><line class="cls-2" x1="26.5" y1="35.46" x2="26.5" y2="39.2"/><line class="cls-2" x1="26.5" y1="35.4" x2="26.5" y2="35.46"/><line class="cls-2" x1="38.04" y1="39.2" x2="38.04" y2="35.46"/><line class="cls-2" x1="9.28" y1="42.45" x2="9.28" y2="42.42"/><line class="cls-2" x1="9.28" y1="42.42" x2="9.28" y2="40.82"/><line class="cls-2" x1="26.16" y1="42.45" x2="26.16" y2="42.42"/><line class="cls-2" x1="26.16" y1="42.42" x2="26.16" y2="40.82"/><line class="cls-2" x1="9.98" y1="47.82" x2="9.98" y2="49.43"/><line class="cls-2" x1="26.06" y1="49.43" x2="26.06" y2="47.82"/><line class="cls-2" x1="4.7" y1="44.6" x2="4.7" y2="46.22"/><line class="cls-2" x1="20.64" y1="44.6" x2="20.64" y2="46.22"/><line class="cls-2" x1="36.59" y1="46.22" x2="36.59" y2="44.6"/><rect class="cls-1" x="-10.49" y="32.08" width="48.71" height="48.71"/><rect class="cls-1" width="48.71" height="48.71"/></svg>