<svg id="Layer_1" data-name="Layer 1" xmlns="http://www.w3.org/2000/svg" width="54.13" height="54.13" viewBox="0 0 54.13 54.13"><defs><style>.cls-1,.cls-2,.cls-4,.cls-5{fill:none;}.cls-2,.cls-3{stroke:#000;}.cls-2{stroke-width:0.43px;}.cls-3{stroke-width:0;}.cls-4,.cls-5{stroke:#231f20;}.cls-4{stroke-linecap:round;stroke-width:0.7px;}.cls-5{stroke-width:0.3px;}</style></defs><title>Artboard 37</title><rect class="cls-1" x="32.33" y="-9.47" width="54.13" height="54.13"/><path class="cls-2" d="M39.34,30.92a1,1,0,1,0,1-1A1,1,0,0,0,39.34,30.92Z"/><path class="cls-2" d="M46.26,41.87a1,1,0,0,0,2,0,1,1,0,1,0-2,0Z"/><path class="cls-2" d="M54.74,32a1,1,0,0,0-2,0,1,1,0,1,0,2,0Z"/><path class="cls-2" d="M41.52,37.9c-.8-.16,2.71-1.27,3.34-2.07"/><path class="cls-2" d="M53.72,37.93c-3.08,0-3-.62-4.61-1.12"/><line class="cls-2" x1="33.04" y1="7.23" x2="37.81" y2="7.55"/><path class="cls-2" d="M37.57,43.68c-1,0-3.5-1.28-3.66-2.07"/><path class="cls-2" d="M49.9,30.66c.16-.67-3,1.24-2.76,1.9"/><path class="cls-2" d="M42.25,7.09a1,1,0,0,0,2,0,1,1,0,1,0-2,0Z"/><path class="cls-2" d="M47.41,14.43a1,1,0,1,0-1,1A1,1,0,0,0,47.41,14.43Z"/><path class="cls-2" d="M55.26,18.83s-4,2.55-4.94,2.55"/><path class="cls-2" d="M45.86,28.83a4.65,4.65,0,0,1-3.44-1.9"/><path class="cls-2" d="M38.21,14.93s2.88-1.51,3-2.46"/><path class="cls-2" d="M54.06,9c-.17-.28,4.5-1.28,4.5-1.83"/><path class="cls-2" d="M46.67,1a1,1,0,1,0-1,1A1,1,0,0,0,46.67,1Z"/><path class="cls-2" d="M56.34,2.1c-.87,0-.59.11-4.61-1.11"/><path class="cls-2" d="M41.66,1.63c-1-.16-2.87-.48-3.34-1.11"/><path class="cls-3" d="M50.34,2.8a.44.44,0,0,0-.44-.44.43.43,0,0,0-.44.44.44.44,0,0,0,.44.44A.44.44,0,0,0,50.34,2.8Z"/><path class="cls-3" d="M48.86,7.51a.44.44,0,1,0-.44.44A.44.44,0,0,0,48.86,7.51Z"/><path class="cls-3" d="M49.26,16.56a.44.44,0,0,0-.44-.44.44.44,0,0,0,0,.88A.44.44,0,0,0,49.26,16.56Z"/><path class="cls-3" d="M35.48,26.19a.44.44,0,1,0,.44-.44A.44.44,0,0,0,35.48,26.19Z"/><path class="cls-3" d="M43.25,23.69a.44.44,0,1,0-.44.44A.44.44,0,0,0,43.25,23.69Z"/><path class="cls-3" d="M43,16.77a.44.44,0,0,0-.44-.44.44.44,0,1,0,0,.88A.44.44,0,0,0,43,16.77Z"/><path class="cls-3" d="M36.34,18.69a.44.44,0,1,0,.44-.44A.44.44,0,0,0,36.34,18.69Z"/><path class="cls-3" d="M50.07,19.23a.44.44,0,1,0-.44.44A.44.44,0,0,0,50.07,19.23Z"/><path class="cls-3" d="M50.73,11.12a.44.44,0,0,0-.44-.44.44.44,0,0,0,0,.88A.44.44,0,0,0,50.73,11.12Z"/><path class="cls-3" d="M40.29,11a.44.44,0,1,0-.88,0,.44.44,0,0,0,.88,0Z"/><path class="cls-3" d="M36,13.51a.44.44,0,0,0-.88,0,.44.44,0,0,0,.88,0Z"/><path class="cls-3" d="M33.85,21.83a.44.44,0,1,0-.44.44A.44.44,0,0,0,33.85,21.83Z"/><path class="cls-3" d="M36.43,4.35a.44.44,0,0,0-.88,0,.44.44,0,1,0,.88,0Z"/><path class="cls-3" d="M51.8,41.17a.44.44,0,0,0-.44.44.43.43,0,0,0,.44.44.44.44,0,0,0,.44-.44A.44.44,0,0,0,51.8,41.17Z"/><path class="cls-3" d="M43.35,34a.44.44,0,1,0,.44-.44A.44.44,0,0,0,43.35,34Z"/><path class="cls-3" d="M46.62,35a.44.44,0,0,0,.44.44.44.44,0,0,0,0-.88A.44.44,0,0,0,46.62,35Z"/><path class="cls-3" d="M34.47,37a.44.44,0,0,0,.44.44.43.43,0,0,0,.44-.44.44.44,0,0,0-.44-.44A.44.44,0,0,0,34.47,37Z"/><path class="cls-3" d="M39.9,36a.44.44,0,1,0,0,.88.44.44,0,1,0,0-.88Z"/><path class="cls-3" d="M54.2,22.05a.44.44,0,0,0-.44-.44.43.43,0,0,0-.44.44.44.44,0,0,0,.44.44A.44.44,0,0,0,54.2,22.05Z"/><path class="cls-3" d="M50,24.66a.44.44,0,0,0-.44-.44.44.44,0,0,0,0,.88A.44.44,0,0,0,50,24.66Z"/><path class="cls-3" d="M51.29,28.87a.44.44,0,0,0,.44.44.44.44,0,0,0,.44-.44.43.43,0,0,0-.44-.44A.44.44,0,0,0,51.29,28.87Z"/><path class="cls-3" d="M36.58,29.65a.44.44,0,0,0,.44-.44.44.44,0,1,0-.88,0A.44.44,0,0,0,36.58,29.65Z"/><rect class="cls-1" x="32.33" y="-9.47" width="54.13" height="54.13"/><line class="cls-4" x1="33.77" y1="4.98" x2="33.77" y2="4.98"/><line class="cls-4" x1="38.82" y1="4.04" x2="38.82" y2="4.04"/><line class="cls-4" x1="45.97" y1="6.38" x2="45.97" y2="6.38"/><line class="cls-4" x1="50.8" y1="5.85" x2="50.8" y2="5.85"/><line class="cls-4" x1="51.14" y1="8.55" x2="51.14" y2="8.55"/><line class="cls-4" x1="47.29" y1="9.98" x2="47.29" y2="9.98"/><line class="cls-4" x1="44.17" y1="9.75" x2="44.17" y2="9.75"/><line class="cls-4" x1="39.28" y1="8.56" x2="39.28" y2="8.56"/><line class="cls-4" x1="37.39" y1="13.39" x2="37.39" y2="13.39"/><line class="cls-4" x1="33.65" y1="13.06" x2="33.65" y2="13.06"/><line class="cls-4" x1="42.01" y1="3.55" x2="42.01" y2="3.55"/><line class="cls-4" x1="35.36" y1="1.79" x2="35.36" y2="1.79"/><line class="cls-4" x1="34.02" y1="19.38" x2="34.02" y2="19.38"/><line class="cls-4" x1="39.37" y1="17.46" x2="39.37" y2="17.46"/><line class="cls-4" x1="43.88" y1="14.82" x2="43.88" y2="14.82"/><line class="cls-4" x1="46.85" y1="17.46" x2="46.85" y2="17.46"/><line class="cls-4" x1="50.59" y1="14.82" x2="50.59" y2="14.82"/><line class="cls-4" x1="53.67" y1="11.19" x2="53.67" y2="11.19"/><line class="cls-4" x1="54.18" y1="6.79" x2="54.18" y2="6.79"/><line class="cls-4" x1="51.96" y1="18.16" x2="51.96" y2="18.16"/><line class="cls-4" x1="52.35" y1="23.95" x2="52.35" y2="23.95"/><line class="cls-4" x1="48.94" y1="21.97" x2="48.94" y2="21.97"/><line class="cls-4" x1="45.53" y1="22.3" x2="45.53" y2="22.3"/><line class="cls-4" x1="41.9" y1="21.2" x2="41.9" y2="21.2"/><line class="cls-4" x1="39.51" y1="26.46" x2="39.51" y2="26.46"/><line class="cls-4" x1="49.05" y1="27.69" x2="49.05" y2="27.69"/><line class="cls-4" x1="46.85" y1="30.22" x2="46.85" y2="30.22"/><line class="cls-4" x1="42.56" y1="30" x2="42.56" y2="30"/><line class="cls-4" x1="39.51" y1="28.68" x2="39.51" y2="28.68"/><line class="cls-4" x1="37.5" y1="31.43" x2="37.5" y2="31.43"/><line class="cls-4" x1="33.77" y1="28" x2="33.77" y2="28"/><line class="cls-4" x1="34.13" y1="31.35" x2="34.13" y2="31.35"/><line class="cls-4" x1="37.39" y1="36.6" x2="37.39" y2="36.6"/><line class="cls-4" x1="49.05" y1="0.28" x2="49.05" y2="0.28"/><line class="cls-4" x1="41.22" y1="34.76" x2="41.22" y2="34.76"/><line class="cls-4" x1="45.71" y1="37.78" x2="45.71" y2="37.78"/><line class="cls-4" x1="47.3" y1="38.52" x2="47.3" y2="38.52"/><line class="cls-4" x1="49.6" y1="33.85" x2="49.6" y2="33.85"/><line class="cls-4" x1="53.34" y1="44.19" x2="53.34" y2="44.19"/><line class="cls-4" x1="49.16" y1="43.42" x2="49.16" y2="43.42"/><line class="cls-4" x1="45.64" y1="40.45" x2="45.64" y2="40.45"/><line class="cls-4" x1="45.42" y1="43.75" x2="45.42" y2="43.75"/><line class="cls-4" x1="39.96" y1="44.2" x2="39.96" y2="44.2"/><line class="cls-4" x1="36.65" y1="41.45" x2="36.65" y2="41.45"/><line class="cls-4" x1="32.96" y1="44.03" x2="32.96" y2="44.03"/><line class="cls-4" x1="34.09" y1="39.13" x2="34.09" y2="39.13"/><path class="cls-5" d="M53.23,14.13a3.36,3.36,0,0,1,3.47-1.24c.82.25,1.15.66,1.65.58s1.73,1.15.57,2S56,17,55.46,16.69a17,17,0,0,0-1.65-.83A1.71,1.71,0,0,1,53.23,14.13Z"/><path class="cls-5" d="M38.55,21.47c1.23.25,1.89.74,2,1.73s-.58,2-2.89,1.82-3.8-.58-2.48-2.15c.83-.08,1.16-.24,1.49-.9S38,21.31,38.55,21.47Z"/><path class="cls-5" d="M35.16,8.6c1.74-.66,3.3,1.4,1.24,2S33.35,9,35.16,8.6Z"/><path class="cls-5" d="M41.6,39c2.06.41,3,1.4,1.57,2.23s-1.41.66-3,.16-3-1.07-2-1.81A3.63,3.63,0,0,1,41.6,39Z"/><line class="cls-5" x1="38.72" y1="6.37" x2="45.97" y2="3.68"/><line class="cls-5" x1="49.71" y1="12.62" x2="42.75" y2="12.09"/><line class="cls-5" x1="39.37" y1="19.22" x2="46.78" y2="19.67"/><line class="cls-5" x1="56.29" y1="27.81" x2="49.71" y2="26.48"/><line class="cls-5" x1="36.24" y1="33.71" x2="44.46" y2="32.42"/><line class="cls-5" x1="57.34" y1="39" x2="50.08" y2="40.07"/><path class="cls-5" d="M53.51,3.16c1.48.08,1.32,1.57.08,1.65S52.19,3.32,53.51,3.16Z"/><path class="cls-5" d="M51.91,34.84c1.38.11,1.16,1.48.17,1.54S50.48,34.84,51.91,34.84Z"/><path class="cls-5" d="M46.52,24.61c1.38.93.11,1.92-.88,1.32S45.48,24.11,46.52,24.61Z"/><path class="cls-5" d="M34.47,33.79c.82.83-.22,1.6-.88,1S33.31,33.08,34.47,33.79Z"/><path class="cls-5" d="M36.31,17c0,1.26-1.43,1.15-1.49.22S36.2,15.79,36.31,17Z"/><rect class="cls-1" x="32.33" y="44.66" width="54.13" height="54.13"/><line class="cls-2" x1="34.57" y1="50.48" x2="36.48" y2="47.61"/><path class="cls-2" d="M46.67,55.16a1,1,0,0,0-2,0,1,1,0,1,0,2,0Z"/><path class="cls-2" d="M53.83,50c-.79-.16,2.71-1.28,3.34-2.07"/><line class="cls-2" x1="45.86" y1="47.9" x2="47.77" y2="45.04"/><path class="cls-3" d="M43.36,47.55a.44.44,0,0,0-.44-.44.43.43,0,0,0-.44.44.44.44,0,0,0,.44.44A.44.44,0,0,0,43.36,47.55Z"/><path class="cls-3" d="M46.93,51a.44.44,0,0,0-.88,0,.44.44,0,0,0,.88,0Z"/><path class="cls-3" d="M51.74,47.73a.44.44,0,0,0-.88,0,.44.44,0,0,0,.88,0Z"/><path class="cls-3" d="M34.53,45.86a.44.44,0,0,0-.44-.44.44.44,0,0,0,0,.88A.44.44,0,0,0,34.53,45.86Z"/><rect class="cls-1" x="32.33" y="44.66" width="54.13" height="54.13"/><line class="cls-4" x1="49.96" y1="49.66" x2="49.96" y2="49.66"/><line class="cls-4" x1="33.71" y1="48.53" x2="33.71" y2="48.53"/><line class="cls-4" x1="40.21" y1="47.03" x2="40.21" y2="47.03"/><line class="cls-4" x1="45.83" y1="48.91" x2="45.83" y2="48.91"/><line class="cls-4" x1="54.21" y1="48.03" x2="54.21" y2="48.03"/><line class="cls-4" x1="49.05" y1="54.41" x2="49.05" y2="54.41"/><line class="cls-4" x1="52.98" y1="53.77" x2="52.98" y2="53.77"/><line class="cls-5" x1="36.12" y1="45" x2="44.36" y2="46.15"/><line class="cls-5" x1="52.66" y1="51.79" x2="46.29" y2="53.04"/><path class="cls-5" d="M49.29,46c1.65,0,1.4,1.65.17,1.65S47.89,46,49.29,46Z"/><path class="cls-5" d="M35.35,52.85a.8.8,0,1,1-1.59,0C33.7,52,35.13,51.48,35.35,52.85Z"/><path class="cls-5" d="M37.83,49.78c.63-.75,1.63-.75,3.13-.25s1.62,1,2.12,1,1.38,2,.13,2.25-4.38.5-4.75-.37A13.84,13.84,0,0,1,37.83,49.78Z"/><path class="cls-3" d="M52.86,44.78a.44.44,0,0,0-.44.44.43.43,0,0,0,.44.44.44.44,0,0,0,.44-.44A.44.44,0,0,0,52.86,44.78Z"/><rect class="cls-1" x="-21.79" y="-9.47" width="54.13" height="54.13"/><path class="cls-2" d="M18.71,42.56a1,1,0,0,0,2,0,1,1,0,1,0-2,0Z"/><path class="cls-2" d="M.62,32a1,1,0,0,0-1-1,1,1,0,0,0-1,1,1,1,0,0,0,1,1A1,1,0,0,0,.62,32Z"/><path class="cls-2" d="M14.34,36.81a1,1,0,1,0-2,0,1,1,0,0,0,2,0Z"/><path class="cls-2" d="M18,31.25a1,1,0,1,0,2,0,1,1,0,0,0-2,0Z"/><path class="cls-2" d="M30.07,25.85a1,1,0,0,0,2,0,1,1,0,1,0-2,0Z"/><path class="cls-2" d="M6.58,29.31a1,1,0,0,0,2,0,1,1,0,1,0-2,0Z"/><path class="cls-2" d="M9.76,30.27s2.93-2.55,2.61-3.51"/><line class="cls-2" x1="18.92" y1="28.47" x2="17.81" y2="25.12"/><path class="cls-2" d="M24.34,35.59c-.8-.16,2.71-1.27,3.34-2.07"/><path class="cls-2" d="M11.4,4.71c-1,0-3.5-1.28-3.66-2.07"/><path class="cls-2" d="M11.15,13.08a1,1,0,1,0,0,2,1,1,0,0,0,0-2Z"/><path class="cls-2" d="M31.59,7.1a1,1,0,1,0-1,1A1,1,0,0,0,31.59,7.1Z"/><path class="cls-2" d="M13,11.17s3.47-1.36,3.66-2.35"/><path class="cls-2" d="M27,25.89c-.16-1.27,1.91-3.5,1.27-3.18"/><path class="cls-2" d="M22.28,17.64c-.8-.16,2.7-1.28,3.34-2.07"/><path class="cls-2" d="M1.13,18.83s-4,2.55-4.93,2.55"/><path class="cls-2" d="M-.06,9c-.17-.28,4.49-1.28,4.49-1.83"/><path class="cls-2" d="M9.25,22.33c.16.8,3-1.43,4-1.43"/><path class="cls-2" d="M24.14,2.21a1,1,0,1,0,1,1A1,1,0,0,0,24.14,2.21Z"/><path class="cls-2" d="M6.72-1.11a1,1,0,0,0-1-1,1,1,0,0,0-1,1,1,1,0,0,0,1,1A1,1,0,0,0,6.72-1.11Z"/><path class="cls-2" d="M2.22,2.1c-.88,0-.6.11-4.62-1.11"/><path class="cls-2" d="M.31,26.15c.47.63,2.86-1.28,3.81-1.12"/><path class="cls-3" d="M14.21,2.19a.44.44,0,1,0-.88,0,.44.44,0,1,0,.88,0Z"/><path class="cls-3" d="M18.7,3.22a.44.44,0,0,0-.88,0,.44.44,0,0,0,.88,0Z"/><path class="cls-3" d="M12,.22a.44.44,0,0,0-.44-.44.44.44,0,0,0-.44.44.44.44,0,0,0,.44.44A.44.44,0,0,0,12,.22Z"/><path class="cls-3" d="M32.07.27a.44.44,0,0,0-.88,0,.44.44,0,0,0,.88,0Z"/><path class="cls-3" d="M15.9,14.08a.44.44,0,0,0-.88,0,.44.44,0,1,0,.88,0Z"/><path class="cls-3" d="M7.66,16.7a.44.44,0,1,0-.44.44A.44.44,0,0,0,7.66,16.7Z"/><path class="cls-3" d="M2,10.35a.44.44,0,0,0-.88,0,.44.44,0,0,0,.88,0Z"/><path class="cls-3" d="M18.4,21.8a.44.44,0,0,0-.44-.44.43.43,0,0,0-.44.44.44.44,0,0,0,.44.44A.44.44,0,0,0,18.4,21.8Z"/><path class="cls-3" d="M16.13,19.88a.44.44,0,0,0-.44-.44.44.44,0,0,0-.44.44.43.43,0,0,0,.44.44A.44.44,0,0,0,16.13,19.88Z"/><path class="cls-3" d="M6.88,11.47A.44.44,0,1,0,7.32,11,.44.44,0,0,0,6.88,11.47Z"/><path class="cls-3" d="M14.52,6.22a.44.44,0,0,0,.44.44.44.44,0,0,0,.44-.44A.44.44,0,0,0,15,5.78.43.43,0,0,0,14.52,6.22Z"/><path class="cls-3" d="M25.42,18.06a.44.44,0,0,0,.44.44.44.44,0,1,0,0-.88A.44.44,0,0,0,25.42,18.06Z"/><path class="cls-3" d="M20.23,16a.44.44,0,0,0-.88,0,.44.44,0,0,0,.88,0Z"/><path class="cls-3" d="M23.32,11.18a.44.44,0,1,0,.44-.44A.45.45,0,0,0,23.32,11.18Z"/><path class="cls-3" d="M28.29,9.94a.44.44,0,0,0-.44-.45.45.45,0,0,0,0,.89A.44.44,0,0,0,28.29,9.94Z"/><path class="cls-3" d="M29.63,15.29a.44.44,0,0,0,.44.44.44.44,0,0,0,.44-.44.43.43,0,0,0-.44-.44A.44.44,0,0,0,29.63,15.29Z"/><path class="cls-3" d="M12.4,40.91a.44.44,0,1,0,0,.88.44.44,0,1,0,0-.88Z"/><path class="cls-3" d="M7.37,37.63a.44.44,0,0,0,.44.44.44.44,0,0,0,.44-.44.44.44,0,0,0-.44-.44A.43.43,0,0,0,7.37,37.63Z"/><path class="cls-3" d="M3.1,29.11a.44.44,0,0,0,.44.44A.44.44,0,0,0,4,29.11a.43.43,0,0,0-.44-.44A.44.44,0,0,0,3.1,29.11Z"/><path class="cls-3" d="M1.88,43.43a.44.44,0,0,0-.44.44.44.44,0,1,0,.88,0A.44.44,0,0,0,1.88,43.43Z"/><path class="cls-3" d="M18.81,38.1a.44.44,0,1,0,.44-.44A.44.44,0,0,0,18.81,38.1Z"/><path class="cls-3" d="M16.52,35.18a.44.44,0,0,0,.44.44.44.44,0,0,0,.44-.44.43.43,0,0,0-.44-.44A.44.44,0,0,0,16.52,35.18Z"/><path class="cls-3" d="M12.8,30.29a.44.44,0,0,0,.44.44.44.44,0,0,0,.44-.44.43.43,0,0,0-.44-.44A.44.44,0,0,0,12.8,30.29Z"/><path class="cls-3" d="M12.8,24.32a.44.44,0,0,0,.44.44.44.44,0,0,0,.44-.44.43.43,0,0,0-.44-.44A.44.44,0,0,0,12.8,24.32Z"/><path class="cls-3" d="M4.56,21.87a.43.43,0,0,0,.44.44.44.44,0,0,0,.44-.44A.44.44,0,0,0,5,21.43.44.44,0,0,0,4.56,21.87Z"/><path class="cls-3" d="M.07,22.05a.43.43,0,0,0-.44-.44.44.44,0,0,0-.44.44.44.44,0,0,0,.44.44A.44.44,0,0,0,.07,22.05Z"/><path class="cls-3" d="M26.31,36.79a.44.44,0,0,0,.44.44.44.44,0,1,0,0-.88A.44.44,0,0,0,26.31,36.79Z"/><path class="cls-3" d="M28.55,38.25a.44.44,0,1,0,.44-.43A.44.44,0,0,0,28.55,38.25Z"/><path class="cls-3" d="M22.57,29.23a.44.44,0,1,0,.44-.44A.44.44,0,0,0,22.57,29.23Z"/><path class="cls-3" d="M25.71,21.53a.43.43,0,0,0,.44.44.44.44,0,0,0,.44-.44.44.44,0,0,0-.44-.44A.44.44,0,0,0,25.71,21.53Z"/><path class="cls-3" d="M30.59,32.62a.44.44,0,0,0,.44.44.44.44,0,0,0,0-.88A.44.44,0,0,0,30.59,32.62Z"/><rect class="cls-1" x="-21.79" y="-9.47" width="54.13" height="54.13"/><line class="cls-4" x1="3.51" y1="0.73" x2="3.51" y2="0.73"/><line class="cls-4" x1="25.22" y1="0.43" x2="25.22" y2="0.43"/><line class="cls-4" x1="8.33" y1="-0.24" x2="8.33" y2="-0.24"/><line class="cls-4" x1="27.55" y1="14.44" x2="27.55" y2="14.44"/><line class="cls-4" x1="18.33" y1="14.16" x2="18.33" y2="14.16"/><line class="cls-4" x1="3.71" y1="11.16" x2="3.71" y2="11.16"/><line class="cls-4" x1="0.06" y1="6.79" x2="0.06" y2="6.79"/><line class="cls-4" x1="6.33" y1="8.53" x2="6.33" y2="8.53"/><line class="cls-4" x1="6.07" y1="4.09" x2="6.07" y2="4.09"/><line class="cls-4" x1="11.2" y1="2.64" x2="11.2" y2="2.64"/><line class="cls-4" x1="11.21" y1="7.56" x2="11.21" y2="7.56"/><line class="cls-4" x1="15.17" y1="8.66" x2="15.17" y2="8.66"/><line class="cls-4" x1="15.8" y1="3.67" x2="15.8" y2="3.67"/><line class="cls-4" x1="21.21" y1="2.28" x2="21.21" y2="2.28"/><line class="cls-4" x1="26.84" y1="3.79" x2="26.84" y2="3.79"/><line class="cls-4" x1="31.78" y1="3.05" x2="31.78" y2="3.05"/><line class="cls-4" x1="27.82" y1="7.89" x2="27.82" y2="7.89"/><line class="cls-4" x1="24.3" y1="8.99" x2="24.3" y2="8.99"/><line class="cls-4" x1="26.39" y1="12.07" x2="26.39" y2="12.07"/><line class="cls-4" x1="31.12" y1="9.76" x2="31.12" y2="9.76"/><line class="cls-4" x1="19.9" y1="11.08" x2="19.9" y2="11.08"/><line class="cls-4" x1="28.92" y1="17.46" x2="28.92" y2="17.46"/><line class="cls-4" x1="22.87" y1="15.37" x2="22.87" y2="15.37"/><line class="cls-4" x1="16.93" y1="17.9" x2="16.93" y2="17.9"/><line class="cls-4" x1="13.47" y1="15.89" x2="13.47" y2="15.89"/><line class="cls-4" x1="8.9" y1="14.38" x2="8.9" y2="14.38"/><line class="cls-4" x1="10.88" y1="18.01" x2="10.88" y2="18.01"/><line class="cls-4" x1="20.5" y1="21.81" x2="20.5" y2="21.81"/><line class="cls-4" x1="23.75" y1="21.09" x2="23.75" y2="21.09"/><line class="cls-4" x1="24.95" y1="23.34" x2="24.95" y2="23.34"/><line class="cls-4" x1="29.69" y1="21.86" x2="29.69" y2="21.86"/><line class="cls-4" x1="29.36" y1="27.36" x2="29.36" y2="27.36"/><line class="cls-4" x1="25.96" y1="30.84" x2="25.96" y2="30.84"/><line class="cls-4" x1="22.79" y1="31.64" x2="22.79" y2="31.64"/><line class="cls-4" x1="16.31" y1="29.36" x2="16.31" y2="29.36"/><line class="cls-4" x1="14.39" y1="27.69" x2="14.39" y2="27.69"/><line class="cls-4" x1="8.19" y1="26.69" x2="8.19" y2="26.69"/><line class="cls-4" x1="14.1" y1="22.14" x2="14.1" y2="22.14"/><line class="cls-4" x1="16.27" y1="24.5" x2="16.27" y2="24.5"/><line class="cls-4" x1="30.24" y1="35.2" x2="30.24" y2="35.2"/><line class="cls-4" x1="27.31" y1="28.31" x2="27.31" y2="28.31"/><line class="cls-4" x1="22" y1="35.45" x2="22" y2="35.45"/><line class="cls-4" x1="19.35" y1="35.72" x2="19.35" y2="35.72"/><line class="cls-4" x1="15.39" y1="38.03" x2="15.39" y2="38.03"/><line class="cls-4" x1="22.54" y1="43.42" x2="22.54" y2="43.42"/><line class="cls-4" x1="30.79" y1="42.87" x2="30.79" y2="42.87"/><line class="cls-4" x1="31.23" y1="38.47" x2="31.23" y2="38.47"/><line class="cls-4" x1="16.05" y1="41.77" x2="16.05" y2="41.77"/><line class="cls-4" x1="9.78" y1="42.1" x2="9.78" y2="42.1"/><line class="cls-4" x1="10.77" y1="36.49" x2="10.77" y2="36.49"/><line class="cls-4" x1="9.34" y1="32.42" x2="9.34" y2="32.42"/><line class="cls-4" x1="4.28" y1="26.7" x2="4.28" y2="26.7"/><line class="cls-4" x1="8.57" y1="20.81" x2="8.57" y2="20.81"/><line class="cls-4" x1="5.6" y1="18.23" x2="5.6" y2="18.23"/><line class="cls-4" x1="2.41" y1="20.98" x2="2.41" y2="20.98"/><line class="cls-4" x1="1.37" y1="23.68" x2="1.37" y2="23.68"/><line class="cls-4" x1="0.65" y1="17.9" x2="0.65" y2="17.9"/><line class="cls-4" x1="31.17" y1="18.41" x2="31.17" y2="18.41"/><line class="cls-4" x1="0.65" y1="34.29" x2="0.65" y2="34.29"/><line class="cls-4" x1="1.71" y1="37.53" x2="1.71" y2="37.53"/><line class="cls-4" x1="5.71" y1="39.13" x2="5.71" y2="39.13"/><line class="cls-4" x1="3.51" y1="42.1" x2="3.51" y2="42.1"/><line class="cls-4" x1="0.62" y1="41.83" x2="0.62" y2="41.83"/><path class="cls-5" d="M-.89,14.13a3.35,3.35,0,0,1,3.46-1.24c.83.25,1.16.66,1.65.58s1.73,1.15.58,2S1.91,17,1.33,16.69a15,15,0,0,0-1.65-.83A1.7,1.7,0,0,1-.89,14.13Z"/><path class="cls-5" d="M19.57,5.88a2.2,2.2,0,0,1,2.06,1.24,1.54,1.54,0,0,1-2.56,1.4C17.17,7.28,17.92,5.71,19.57,5.88Z"/><path class="cls-5" d="M24,24.69c2.23,1.4,2.06,3.63-.41,2.89s-2.39-1-3.47-2.64S22.54,23.78,24,24.69Z"/><path class="cls-5" d="M7.11,33.43c1.73.91,1.4,2.64-.58,2.23S3.81,34.42,3.4,33.52s1-2,2.55-1A9.86,9.86,0,0,0,7.11,33.43Z"/><path class="cls-5" d="M27.82,40.28c1.48-1.15,2.72.33,1.73,1.16s-2.39,2-3.3,1.32a1.07,1.07,0,0,1,.33-2A2.47,2.47,0,0,0,27.82,40.28Z"/><line class="cls-5" x1="2.88" y1="5.23" x2="11.18" y2="6.15"/><line class="cls-5" x1="24.19" y1="5.8" x2="30.3" y2="5"/><line class="cls-5" x1="23.47" y1="13.27" x2="15.13" y2="12.59"/><line class="cls-5" x1="5.53" y1="19.78" x2="13.27" y2="18.73"/><line class="cls-5" x1="25.07" y1="19.44" x2="31.78" y2="21.1"/><line class="cls-5" x1="16.93" y1="26.26" x2="10.71" y2="25.71"/><line class="cls-5" x1="2.16" y1="27.81" x2="-4.41" y2="26.48"/><line class="cls-5" x1="16.93" y1="33.08" x2="24.9" y2="33.86"/><line class="cls-5" x1="17.15" y1="39.99" x2="8.82" y2="39.33"/><line class="cls-5" x1="3.22" y1="39" x2="-4.04" y2="40.07"/><path class="cls-5" d="M-.62,3.16C.87,3.24.7,4.73-.54,4.81S-1.94,3.32-.62,3.16Z"/><path class="cls-5" d="M10.49,8.85c1.65,0,1.4,1.65.17,1.65S9.09,8.85,10.49,8.85Z"/><path class="cls-5" d="M31,12.81c0,1.32-1.4,1.15-1.48,0S31,11.82,31,12.81Z"/><path class="cls-5" d="M20.72,18.42c1.4,0,1.32,1.4.17,1.4S19,18.5,20.72,18.42Z"/><path class="cls-5" d="M30.13,29.39c1.21,0,1.37,1.43.27,1.49S28.7,29.5,30.13,29.39Z"/><path class="cls-5" d="M14.89,33a.73.73,0,1,1-1.43.05C13.46,32,14.89,31.7,14.89,33Z"/><path class="cls-5" d="M7.19,24.5a.8.8,0,1,1-1.59.05C5.54,23.62,7,23.12,7.19,24.5Z"/><path class="cls-5" d="M23.91,38.44c.82.61.33,1.71-.83,1.05S22.59,37.67,23.91,38.44Z"/><path class="cls-5" d="M6.53,42.7c1.13.42.77,1.87-.44,1.43S5.49,42.32,6.53,42.7Z"/><path class="cls-5" d="M19.57-.17c.06,1.26-1.43,1.15-1.48.22S19.46-1.33,19.57-.17Z"/><line class="cls-2" x1="12.85" y1="44.44" x2="14.76" y2="41.58"/><path class="cls-3" d="M9.78,23.71a.44.44,0,1,0,.43.44A.44.44,0,0,0,9.78,23.71Z"/><rect class="cls-1" x="-21.79" y="44.66" width="54.13" height="54.13"/><path class="cls-2" d="M23.06,49.08c.63-.31-1.44,1.91-1.28,3.19"/><path class="cls-2" d="M6.72,53a1,1,0,0,0-2,0,1,1,0,1,0,2,0Z"/><path class="cls-2" d="M20.78,47.48a1,1,0,1,0-1,1A1,1,0,0,0,20.78,47.48Z"/><path class="cls-2" d="M31.7,46.3a1,1,0,1,0-1,1A1,1,0,0,0,31.7,46.3Z"/><path class="cls-2" d="M-.29,50c-.8-.16,2.7-1.28,3.34-2.07"/><path class="cls-2" d="M13.35,48.35c.16.8,2.71,2.07,3.66,2.07"/><path class="cls-3" d="M4.59,49.71a.43.43,0,0,0-.44-.44.44.44,0,0,0-.44.44.44.44,0,0,0,.44.44A.44.44,0,0,0,4.59,49.71Z"/><path class="cls-3" d="M19.8,51.87a.44.44,0,0,0-.44-.44.44.44,0,1,0,0,.88A.44.44,0,0,0,19.8,51.87Z"/><path class="cls-3" d="M12,54.34a.44.44,0,0,0-.44-.44.44.44,0,0,0-.44.44.44.44,0,0,0,.44.44A.43.43,0,0,0,12,54.34Z"/><path class="cls-3" d="M27.49,51.41a.44.44,0,1,0-.88,0,.44.44,0,1,0,.88,0Z"/><path class="cls-3" d="M32.07,54.4a.44.44,0,1,0-.44.43A.44.44,0,0,0,32.07,54.4Z"/><path class="cls-3" d="M30,50.83a.44.44,0,0,0-.44-.44.44.44,0,1,0,0,.88A.44.44,0,0,0,30,50.83Z"/><rect class="cls-1" x="-21.79" y="44.66" width="54.13" height="54.13"/><line class="cls-4" x1="2.83" y1="51.28" x2="2.83" y2="51.28"/><line class="cls-4" x1="0.08" y1="48.03" x2="0.08" y2="48.03"/><line class="cls-4" x1="4.21" y1="46.91" x2="4.21" y2="46.91"/><line class="cls-4" x1="12.46" y1="45.26" x2="12.46" y2="45.26"/><line class="cls-4" x1="24.58" y1="50.53" x2="24.58" y2="50.53"/><line class="cls-4" x1="31.71" y1="50.16" x2="31.71" y2="50.16"/><line class="cls-4" x1="28.33" y1="48.41" x2="28.33" y2="48.41"/><line class="cls-4" x1="23.21" y1="47.16" x2="23.21" y2="47.16"/><line class="cls-4" x1="8.33" y1="53.88" x2="8.33" y2="53.88"/><line class="cls-4" x1="28.58" y1="53.28" x2="28.58" y2="53.28"/><line class="cls-4" x1="11.96" y1="49.53" x2="11.96" y2="49.53"/><line class="cls-4" x1="17.62" y1="48.98" x2="17.62" y2="48.98"/><line class="cls-4" x1="16.08" y1="47.03" x2="16.08" y2="47.03"/><line class="cls-4" x1="15.06" y1="53.7" x2="15.06" y2="53.7"/><line class="cls-5" x1="21.06" y1="45.15" x2="28.12" y2="46.23"/><line class="cls-5" x1="17.59" y1="51.69" x2="11.08" y2="52.24"/><line class="cls-5" x1="0.79" y1="45.9" x2="9.2" y2="45.03"/><path class="cls-5" d="M19.57,54c.06,1.27-1.43,1.16-1.48.22S19.46,52.8,19.57,54Z"/><path class="cls-5" d="M9.08,48.1c1,.61,1.25,2,.5,2.5a3.94,3.94,0,0,1-3.37-.13c-.5-.5-1-1.5.25-2.12S8.46,47.72,9.08,48.1Z"/><path class="cls-3" d="M15.15,45a.44.44,0,1,0,.44.44A.44.44,0,0,0,15.15,45Z"/><path class="cls-3" d="M10.53,46a.44.44,0,1,0,.44.44A.44.44,0,0,0,10.53,46Z"/><rect class="cls-1" width="54.12" height="54.13"/></svg>