<svg id="Layer_1" data-name="Layer 1" xmlns="http://www.w3.org/2000/svg" width="54.13" height="54.13" viewBox="0 0 54.13 54.13"><defs><style>.cls-1,.cls-2,.cls-3{fill:none;}.cls-1,.cls-2{stroke:#000;}.cls-1{stroke-linecap:round;stroke-width:0.7px;}.cls-2{stroke-width:0.3px;}</style></defs><title>Artboard 37</title><line class="cls-1" x1="20.12" y1="14.5" x2="20.12" y2="14.5"/><line class="cls-1" x1="24.85" y1="12.74" x2="24.85" y2="12.74"/><line class="cls-1" x1="32.01" y1="15.08" x2="32.01" y2="15.08"/><line class="cls-1" x1="35.19" y1="13.4" x2="35.19" y2="13.4"/><line class="cls-1" x1="37.17" y1="17.25" x2="37.17" y2="17.25"/><line class="cls-1" x1="33.32" y1="18.68" x2="33.32" y2="18.68"/><line class="cls-1" x1="29.25" y1="18.24" x2="29.25" y2="18.24"/><line class="cls-1" x1="24.74" y1="17.58" x2="24.74" y2="17.58"/><line class="cls-1" x1="23.42" y1="22.09" x2="23.42" y2="22.09"/><line class="cls-1" x1="19.68" y1="21.76" x2="19.68" y2="21.76"/><line class="cls-1" x1="35.99" y1="4.23" x2="35.99" y2="4.23"/><line class="cls-1" x1="27.99" y1="9.61" x2="27.99" y2="9.61"/><line class="cls-1" x1="22.06" y1="10.3" x2="22.06" y2="10.3"/><line class="cls-1" x1="19.74" y1="3.11" x2="19.74" y2="3.11"/><line class="cls-1" x1="26.24" y1="1.61" x2="26.24" y2="1.61"/><line class="cls-1" x1="31.86" y1="3.48" x2="31.86" y2="3.48"/><line class="cls-1" x1="43.67" y1="9.43" x2="43.67" y2="9.43"/><line class="cls-1" x1="42.99" y1="5.86" x2="42.99" y2="5.86"/><line class="cls-1" x1="40.24" y1="2.61" x2="40.24" y2="2.61"/><line class="cls-1" x1="44.36" y1="1.48" x2="44.36" y2="1.48"/><line class="cls-1" x1="52.61" y1="-0.17" x2="52.61" y2="-0.17"/><line class="cls-1" x1="48.49" y1="8.46" x2="48.49" y2="8.46"/><line class="cls-1" x1="43.86" y1="19.86" x2="43.86" y2="19.86"/><line class="cls-1" x1="52.11" y1="4.11" x2="52.11" y2="4.11"/><line class="cls-1" x1="54.39" y1="9.85" x2="54.39" y2="9.85"/><line class="cls-1" x1="19.72" y1="28.68" x2="19.72" y2="28.68"/><line class="cls-1" x1="25.4" y1="26.16" x2="25.4" y2="26.16"/><line class="cls-1" x1="29.91" y1="23.52" x2="29.91" y2="23.52"/><line class="cls-1" x1="32.88" y1="26.16" x2="32.88" y2="26.16"/><line class="cls-1" x1="36.62" y1="23.52" x2="36.62" y2="23.52"/><line class="cls-1" x1="39.7" y1="19.89" x2="39.7" y2="19.89"/><line class="cls-1" x1="41.35" y1="16.26" x2="41.35" y2="16.26"/><line class="cls-1" x1="46.49" y1="17.23" x2="46.49" y2="17.23"/><line class="cls-1" x1="46.22" y1="12.79" x2="46.22" y2="12.79"/><line class="cls-1" x1="50.07" y1="11.11" x2="50.07" y2="11.11"/><line class="cls-1" x1="51.36" y1="16.26" x2="51.36" y2="16.26"/><line class="cls-1" x1="54" y1="23.85" x2="54" y2="23.85"/><line class="cls-1" x1="49.05" y1="23.08" x2="49.05" y2="23.08"/><line class="cls-1" x1="51.03" y1="26.71" x2="51.03" y2="26.71"/><line class="cls-1" x1="52.9" y1="38.37" x2="52.9" y2="38.37"/><line class="cls-1" x1="48.72" y1="36.06" x2="48.72" y2="36.06"/><line class="cls-1" x1="52.35" y1="30.89" x2="52.35" y2="30.89"/><line class="cls-1" x1="49.93" y1="50.8" x2="49.93" y2="50.8"/><line class="cls-1" x1="50.92" y1="45.19" x2="50.92" y2="45.19"/><line class="cls-1" x1="49.49" y1="41.12" x2="49.49" y2="41.12"/><line class="cls-1" x1="45.75" y1="38.81" x2="45.75" y2="38.81"/><line class="cls-1" x1="44.43" y1="35.4" x2="44.43" y2="35.4"/><line class="cls-1" x1="41.46" y1="39.03" x2="41.46" y2="39.03"/><line class="cls-1" x1="47.51" y1="31.44" x2="47.51" y2="31.44"/><line class="cls-1" x1="45.75" y1="26.93" x2="45.75" y2="26.93"/><line class="cls-1" x1="42.56" y1="29.68" x2="42.56" y2="29.68"/><line class="cls-1" x1="41.68" y1="33.31" x2="41.68" y2="33.31"/><line class="cls-1" x1="40.8" y1="26.6" x2="40.8" y2="26.6"/><line class="cls-1" x1="37.83" y1="28.47" x2="37.83" y2="28.47"/><line class="cls-1" x1="38.38" y1="32.65" x2="38.38" y2="32.65"/><line class="cls-1" x1="34.97" y1="30.67" x2="34.97" y2="30.67"/><line class="cls-1" x1="31.56" y1="31" x2="31.56" y2="31"/><line class="cls-1" x1="27.93" y1="29.9" x2="27.93" y2="29.9"/><line class="cls-1" x1="28.15" y1="34.74" x2="28.15" y2="34.74"/><line class="cls-1" x1="35.08" y1="36.39" x2="35.08" y2="36.39"/><line class="cls-1" x1="37.72" y1="39.58" x2="37.72" y2="39.58"/><line class="cls-1" x1="32.88" y1="38.92" x2="32.88" y2="38.92"/><line class="cls-1" x1="28.59" y1="38.7" x2="28.59" y2="38.7"/><line class="cls-1" x1="25.18" y1="37.49" x2="25.18" y2="37.49"/><line class="cls-1" x1="23.53" y1="40.13" x2="23.53" y2="40.13"/><line class="cls-1" x1="20.78" y1="36.5" x2="20.78" y2="36.5"/><line class="cls-1" x1="18.8" y1="33.75" x2="18.8" y2="33.75"/><line class="cls-1" x1="20.16" y1="40.05" x2="20.16" y2="40.05"/><line class="cls-1" x1="23.42" y1="45.3" x2="23.42" y2="45.3"/><line class="cls-1" x1="34.03" y1="10.14" x2="34.03" y2="10.14"/><line class="cls-1" x1="27.86" y1="44.23" x2="27.86" y2="44.23"/><line class="cls-1" x1="31.86" y1="45.11" x2="31.86" y2="45.11"/><line class="cls-1" x1="34.86" y1="46.62" x2="34.86" y2="46.62"/><line class="cls-1" x1="35.63" y1="42.55" x2="35.63" y2="42.55"/><line class="cls-1" x1="40.8" y1="42.99" x2="40.8" y2="42.99"/><line class="cls-1" x1="39.01" y1="8.35" x2="39.01" y2="8.35"/><line class="cls-1" x1="41.86" y1="46.23" x2="41.86" y2="46.23"/><line class="cls-1" x1="45.86" y1="47.83" x2="45.86" y2="47.83"/><line class="cls-1" x1="43.66" y1="50.8" x2="43.66" y2="50.8"/><line class="cls-1" x1="39.37" y1="52.89" x2="39.37" y2="52.89"/><line class="cls-1" x1="40.3" y1="49.83" x2="40.3" y2="49.83"/><line class="cls-1" x1="35.19" y1="52.12" x2="35.19" y2="52.12"/><line class="cls-1" x1="31.67" y1="49.15" x2="31.67" y2="49.15"/><line class="cls-1" x1="31.45" y1="52.45" x2="31.45" y2="52.45"/><line class="cls-1" x1="25.95" y1="53.11" x2="25.95" y2="53.11"/><line class="cls-1" x1="23.31" y1="51.02" x2="23.31" y2="51.02"/><line class="cls-1" x1="18.99" y1="52.73" x2="18.99" y2="52.73"/><line class="cls-1" x1="20.12" y1="47.83" x2="20.12" y2="47.83"/><path class="cls-2" d="M39.26,22.83a3.36,3.36,0,0,1,3.47-1.24c.82.25,1.15.66,1.65.58s1.73,1.15.58,2-2.89,1.57-3.47,1.24a17,17,0,0,0-1.65-.83A1.73,1.73,0,0,1,39.26,22.83Z"/><path class="cls-2" d="M47.27,42.13c1.73.91,1.4,2.64-.58,2.23S44,43.12,43.55,42.22s1-2,2.56-1A9.06,9.06,0,0,0,47.27,42.13Z"/><path class="cls-2" d="M24.58,30.17c1.23.25,1.89.74,2,1.73s-.58,2-2.89,1.82-3.8-.58-2.48-2.15c.83-.08,1.16-.24,1.49-.9S24,30,24.58,30.17Z"/><path class="cls-2" d="M21.19,17.3c1.74-.66,3.3,1.4,1.24,2S19.38,17.71,21.19,17.3Z"/><path class="cls-2" d="M27.63,47.66c2.06.41,3,1.4,1.57,2.23s-1.41.66-3,.16-3-1.07-2-1.81A3.63,3.63,0,0,1,27.63,47.66Z"/><line class="cls-2" x1="24.75" y1="15.07" x2="32.01" y2="12.38"/><line class="cls-2" x1="22.15" y1="0.15" x2="30.39" y2="0.72"/><line class="cls-2" x1="44.66" y1="13.99" x2="52.96" y2="14.91"/><line class="cls-2" x1="62.31" y1="21.47" x2="53.97" y2="20.78"/><line class="cls-2" x1="35.74" y1="21.32" x2="28.78" y2="20.79"/><line class="cls-2" x1="38.69" y1="6.36" x2="32.32" y2="7.62"/><line class="cls-2" x1="57.75" y1="6.26" x2="51.24" y2="6.82"/><line class="cls-2" x1="25.4" y1="27.92" x2="32.81" y2="28.37"/><line class="cls-2" x1="46.76" y1="28.85" x2="54.49" y2="27.8"/><line class="cls-2" x1="40.95" y1="0.48" x2="49.35" y2="0.04"/><line class="cls-2" x1="57.08" y1="34.96" x2="50.87" y2="34.41"/><line class="cls-2" x1="42.32" y1="36.51" x2="35.74" y2="35.18"/><line class="cls-2" x1="24.02" y1="42.47" x2="32.25" y2="41.18"/><line class="cls-2" x1="57.31" y1="48.69" x2="48.98" y2="48.03"/><line class="cls-2" x1="42" y1="47.63" x2="34.74" y2="48.71"/><path class="cls-2" d="M39.54,11.86c1.48.08,1.32,1.57.08,1.65S38.22,12,39.54,11.86Z"/><path class="cls-2" d="M50.65,17.55c1.65,0,1.4,1.65.16,1.65S49.25,17.55,50.65,17.55Z"/><path class="cls-2" d="M35.32.58c1.65,0,1.41,1.65.17,1.65S33.92.58,35.32.58Z"/><path class="cls-2" d="M55.05,41.67a.73.73,0,1,1-1.43,0C53.62,40.73,55.05,40.4,55.05,41.67Z"/><path class="cls-2" d="M46.63,33.36a.8.8,0,1,1-1.59.06C45,32.48,46.41,32,46.63,33.36Z"/><path class="cls-2" d="M21.38,7.42a.8.8,0,1,1-1.59.06C19.73,6.54,21.16,6.05,21.38,7.42Z"/><path class="cls-2" d="M46.69,51.4c1.13.42.77,1.87-.44,1.43S45.64,51,46.69,51.4Z"/><path class="cls-2" d="M37.94,43.54c1.38.11,1.16,1.48.17,1.54S36.51,43.54,37.94,43.54Z"/><path class="cls-2" d="M32.55,33.31c1.38.93.11,1.92-.88,1.32S31.51,32.81,32.55,33.31Z"/><path class="cls-2" d="M20.5,42.49c.83.83-.22,1.6-.88,1S19.35,41.78,20.5,42.49Z"/><path class="cls-2" d="M22.34,25.65c.05,1.26-1.43,1.15-1.49.22S22.23,24.49,22.34,25.65Z"/><path class="cls-2" d="M49.24,2.67c1,.61,1.25,2,.5,2.5a4,4,0,0,1-3.38-.12c-.5-.5-1-1.5.25-2.13S48.61,2.3,49.24,2.67Z"/><path class="cls-2" d="M23.86,4.36c.63-.75,1.63-.75,3.13-.25s1.62,1,2.12,1,1.38,2,.13,2.25-4.38.5-4.75-.38A13.62,13.62,0,0,1,23.86,4.36Z"/><rect class="cls-3" x="18.36" y="-0.77" width="54.13" height="54.13"/><line class="cls-1" x1="52.61" y1="53.96" x2="52.61" y2="53.96"/><line class="cls-2" x1="40.95" y1="54.6" x2="49.35" y2="54.17"/><rect class="cls-3" x="18.36" y="53.36" width="54.13" height="54.13"/><line class="cls-1" x1="10.61" y1="5.11" x2="10.61" y2="5.11"/><line class="cls-1" x1="17.74" y1="4.73" x2="17.74" y2="4.73"/><line class="cls-1" x1="14.36" y1="2.98" x2="14.36" y2="2.98"/><line class="cls-1" x1="11.25" y1="9.13" x2="11.25" y2="9.13"/><line class="cls-1" x1="9.24" y1="1.73" x2="9.24" y2="1.73"/><line class="cls-1" x1="12.61" y1="24.48" x2="12.61" y2="24.48"/><line class="cls-1" x1="4.36" y1="22.86" x2="4.36" y2="22.86"/><line class="cls-1" x1="14.61" y1="7.86" x2="14.61" y2="7.86"/><line class="cls-1" x1="5.61" y1="4.11" x2="5.61" y2="4.11"/><line class="cls-1" x1="2.11" y1="1.61" x2="2.11" y2="1.61"/><line class="cls-1" x1="0.26" y1="9.85" x2="0.26" y2="9.85"/><line class="cls-1" x1="1.2" y1="17.36" x2="1.2" y2="17.36"/><line class="cls-1" x1="2.41" y1="12.41" x2="2.41" y2="12.41"/><line class="cls-1" x1="7.24" y1="10.98" x2="7.24" y2="10.98"/><line class="cls-1" x1="12.87" y1="12.49" x2="12.87" y2="12.49"/><line class="cls-1" x1="17.81" y1="11.75" x2="17.81" y2="11.75"/><line class="cls-1" x1="13.85" y1="16.59" x2="13.85" y2="16.59"/><line class="cls-1" x1="10.33" y1="17.69" x2="10.33" y2="17.69"/><line class="cls-1" x1="12.42" y1="20.77" x2="12.42" y2="20.77"/><line class="cls-1" x1="17.15" y1="18.46" x2="17.15" y2="18.46"/><line class="cls-1" x1="5.93" y1="19.78" x2="5.93" y2="19.78"/><line class="cls-1" x1="14.95" y1="26.16" x2="14.95" y2="26.16"/><line class="cls-1" x1="8.9" y1="24.07" x2="8.9" y2="24.07"/><line class="cls-1" x1="2.96" y1="26.6" x2="2.96" y2="26.6"/><line class="cls-1" x1="-0.12" y1="23.85" x2="-0.12" y2="23.85"/><line class="cls-1" x1="6.04" y1="31.22" x2="6.04" y2="31.22"/><line class="cls-1" x1="9.78" y1="29.79" x2="9.78" y2="29.79"/><line class="cls-1" x1="12.53" y1="32.65" x2="12.53" y2="32.65"/><line class="cls-1" x1="15.72" y1="30.56" x2="15.72" y2="30.56"/><line class="cls-1" x1="15.39" y1="36.06" x2="15.39" y2="36.06"/><line class="cls-1" x1="11.65" y1="39.69" x2="11.65" y2="39.69"/><line class="cls-1" x1="7.03" y1="38.59" x2="7.03" y2="38.59"/><line class="cls-1" x1="2.96" y1="39.36" x2="2.96" y2="39.36"/><line class="cls-1" x1="2.3" y1="33.2" x2="2.3" y2="33.2"/><line class="cls-1" x1="16.6" y1="42.44" x2="16.6" y2="42.44"/><line class="cls-1" x1="14.18" y1="44.97" x2="14.18" y2="44.97"/><line class="cls-1" x1="9.78" y1="44.97" x2="9.78" y2="44.97"/><line class="cls-1" x1="5.38" y1="44.42" x2="5.38" y2="44.42"/><line class="cls-1" x1="1.42" y1="46.73" x2="1.42" y2="46.73"/><line class="cls-1" x1="6.04" y1="48.82" x2="6.04" y2="48.82"/><line class="cls-1" x1="8.57" y1="52.12" x2="8.57" y2="52.12"/><line class="cls-1" x1="16.82" y1="51.57" x2="16.82" y2="51.57"/><line class="cls-1" x1="17.26" y1="47.17" x2="17.26" y2="47.17"/><line class="cls-1" x1="4.83" y1="53" x2="4.83" y2="53"/><line class="cls-1" x1="2.08" y1="50.47" x2="2.08" y2="50.47"/><path class="cls-2" d="M5.6,14.58a2.2,2.2,0,0,1,2.06,1.24,1.54,1.54,0,0,1-2.56,1.4C3.21,16,4,14.41,5.6,14.58Z"/><path class="cls-2" d="M10.05,33.39c2.23,1.4,2.07,3.63-.41,2.89s-2.39-1-3.47-2.64S8.57,32.48,10.05,33.39Z"/><path class="cls-2" d="M13.85,49c1.48-1.15,2.72.33,1.73,1.16s-2.39,2-3.3,1.32a1.07,1.07,0,0,1,.33-2A2.47,2.47,0,0,0,13.85,49Z"/><line class="cls-2" x1="10.22" y1="14.5" x2="16.33" y2="13.7"/><line class="cls-2" x1="7.09" x2="14.15" y2="0.8"/><line class="cls-2" x1="8.19" y1="21.47" x2="-0.15" y2="20.78"/><line class="cls-2" x1="3.62" y1="6.26" x2="-2.89" y2="6.82"/><line class="cls-2" x1="-7.37" y1="28.85" x2="0.37" y2="27.8"/><line class="cls-2" x1="11.1" y1="28.14" x2="17.81" y2="29.8"/><line class="cls-2" x1="2.96" y1="34.96" x2="-3.26" y2="34.41"/><line class="cls-2" x1="2.96" y1="41.78" x2="10.93" y2="42.55"/><line class="cls-2" x1="3.18" y1="48.69" x2="-5.15" y2="48.03"/><path class="cls-2" d="M17,21.51c0,1.32-1.4,1.15-1.48,0S17,20.52,17,21.51Z"/><path class="cls-2" d="M6.75,27.12c1.41,0,1.32,1.4.17,1.4S5,27.2,6.75,27.12Z"/><path class="cls-2" d="M16.16,38.09c1.21,0,1.37,1.43.27,1.49S14.73,38.2,16.16,38.09Z"/><path class="cls-2" d="M.92,41.67a.73.73,0,1,1-1.43,0C-.51,40.73.92,40.4.92,41.67Z"/><path class="cls-2" d="M9.94,47.14c.83.61.33,1.71-.82,1S8.62,46.37,9.94,47.14Z"/><path class="cls-2" d="M5.61,8.53c0,1.26-1.43,1.15-1.49.22S5.5,7.37,5.61,8.53Z"/><rect class="cls-3" x="-35.76" y="-0.77" width="54.13" height="54.13"/><line class="cls-2" x1="7.09" y1="54.12" x2="14.15" y2="54.92"/><rect class="cls-3" x="-35.76" y="53.36" width="54.13" height="54.13"/><rect class="cls-3" width="54.12" height="54.13"/></svg>