<svg id="Layer_1" data-name="Layer 1" xmlns="http://www.w3.org/2000/svg" width="54.14" height="54.13" viewBox="0 0 54.14 54.13"><defs><style>.cls-1,.cls-2,.cls-3{fill:none;}.cls-1,.cls-2{stroke:#000;}.cls-1{stroke-linecap:round;stroke-width:0.7px;}.cls-2{stroke-width:0.3px;}</style></defs><title>Artboard 37</title><line class="cls-1" x1="51.83" y1="1.52" x2="51.83" y2="1.52"/><line class="cls-1" x1="32.25" y1="1.41" x2="32.25" y2="1.41"/><line class="cls-1" x1="28.07" y1="0.64" x2="28.07" y2="0.64"/><line class="cls-1" x1="24.33" y1="0.97" x2="24.33" y2="0.97"/><line class="cls-1" x1="18.83" y1="1.63" x2="18.83" y2="1.63"/><line class="cls-1" x1="11.86" y1="1.26" x2="11.86" y2="1.26"/><path class="cls-2" d="M39.56-.07c1.13.41.77,1.87-.44,1.43S38.52-.46,39.56-.07Z"/><line class="cls-2" x1="49.42" y1="1.32" x2="43.26" y2="1.32"/><rect class="cls-3" x="11.24" y="-52.24" width="54.13" height="54.13"/><line class="cls-1" x1="13.51" y1="15.98" x2="13.51" y2="15.98"/><line class="cls-1" x1="17.73" y1="15.39" x2="17.73" y2="15.39"/><line class="cls-1" x1="23.34" y1="15.06" x2="23.34" y2="15.06"/><line class="cls-1" x1="28.07" y1="16.05" x2="28.07" y2="16.05"/><line class="cls-1" x1="30.05" y1="19.9" x2="30.05" y2="19.9"/><line class="cls-1" x1="26.2" y1="21.33" x2="26.2" y2="21.33"/><line class="cls-1" x1="22.13" y1="20.89" x2="22.13" y2="20.89"/><line class="cls-1" x1="17.62" y1="20.23" x2="17.62" y2="20.23"/><line class="cls-1" x1="16.3" y1="24.74" x2="16.3" y2="24.74"/><line class="cls-1" x1="12.56" y1="24.41" x2="12.56" y2="24.41"/><line class="cls-1" x1="28.86" y1="6.88" x2="28.86" y2="6.88"/><line class="cls-1" x1="20.86" y1="12.26" x2="20.86" y2="12.26"/><line class="cls-1" x1="15.49" y1="11.76" x2="15.49" y2="11.76"/><line class="cls-1" x1="12.61" y1="5.76" x2="12.61" y2="5.76"/><line class="cls-1" x1="19.31" y1="4.87" x2="19.31" y2="4.87"/><line class="cls-1" x1="24.74" y1="6.13" x2="24.74" y2="6.13"/><line class="cls-1" x1="37.35" y1="11.37" x2="37.35" y2="11.37"/><line class="cls-1" x1="35.86" y1="8.51" x2="35.86" y2="8.51"/><line class="cls-1" x1="33.11" y1="5.26" x2="33.11" y2="5.26"/><line class="cls-1" x1="36.58" y1="4.75" x2="36.58" y2="4.75"/><line class="cls-1" x1="45.49" y1="2.48" x2="45.49" y2="2.48"/><line class="cls-1" x1="43.88" y1="11.57" x2="43.88" y2="11.57"/><line class="cls-1" x1="51.36" y1="25.51" x2="51.36" y2="25.51"/><line class="cls-1" x1="36.74" y1="22.51" x2="36.74" y2="22.51"/><line class="cls-1" x1="44.99" y1="6.76" x2="44.99" y2="6.76"/><line class="cls-1" x1="52.61" y1="6.76" x2="52.61" y2="6.76"/><line class="cls-1" x1="49.11" y1="4.26" x2="49.11" y2="4.26"/><line class="cls-1" x1="48.26" y1="12.39" x2="48.26" y2="12.39"/><line class="cls-1" x1="12.66" y1="31.7" x2="12.66" y2="31.7"/><line class="cls-1" x1="18.28" y1="28.81" x2="18.28" y2="28.81"/><line class="cls-1" x1="22.79" y1="26.17" x2="22.79" y2="26.17"/><line class="cls-1" x1="25.76" y1="28.81" x2="25.76" y2="28.81"/><line class="cls-1" x1="29.5" y1="26.17" x2="29.5" y2="26.17"/><line class="cls-1" x1="32.58" y1="22.54" x2="32.58" y2="22.54"/><line class="cls-1" x1="34.23" y1="18.91" x2="34.23" y2="18.91"/><line class="cls-1" x1="39.36" y1="19.88" x2="39.36" y2="19.88"/><line class="cls-1" x1="38.19" y1="15.61" x2="38.19" y2="15.61"/><line class="cls-1" x1="44.13" y1="15.5" x2="44.13" y2="15.5"/><line class="cls-1" x1="44.24" y1="18.91" x2="44.24" y2="18.91"/><line class="cls-1" x1="48.2" y1="20.01" x2="48.2" y2="20.01"/><line class="cls-1" x1="49.41" y1="15.06" x2="49.41" y2="15.06"/><line class="cls-1" x1="54.24" y1="13.63" x2="54.24" y2="13.63"/><line class="cls-1" x1="52.93" y1="22.43" x2="52.93" y2="22.43"/><line class="cls-1" x1="49.96" y1="29.25" x2="49.96" y2="29.25"/><line class="cls-1" x1="46.88" y1="26.5" x2="46.88" y2="26.5"/><line class="cls-1" x1="41.93" y1="25.73" x2="41.93" y2="25.73"/><line class="cls-1" x1="43.91" y1="29.36" x2="43.91" y2="29.36"/><line class="cls-1" x1="53.04" y1="33.87" x2="53.04" y2="33.87"/><line class="cls-1" x1="54.03" y1="41.24" x2="54.03" y2="41.24"/><line class="cls-1" x1="49.96" y1="42.01" x2="49.96" y2="42.01"/><line class="cls-1" x1="45.78" y1="41.02" x2="45.78" y2="41.02"/><line class="cls-1" x1="41.6" y1="38.71" x2="41.6" y2="38.71"/><line class="cls-1" x1="45.23" y1="33.54" x2="45.23" y2="33.54"/><line class="cls-1" x1="49.3" y1="35.85" x2="49.3" y2="35.85"/><line class="cls-1" x1="52.38" y1="47.07" x2="52.38" y2="47.07"/><line class="cls-1" x1="48.42" y1="49.38" x2="48.42" y2="49.38"/><line class="cls-1" x1="53.04" y1="51.47" x2="53.04" y2="51.47"/><line class="cls-1" x1="49.08" y1="53.12" x2="49.08" y2="53.12"/><line class="cls-1" x1="42.81" y1="53.45" x2="42.81" y2="53.45"/><line class="cls-1" x1="43.8" y1="47.84" x2="43.8" y2="47.84"/><line class="cls-1" x1="42.37" y1="43.77" x2="42.37" y2="43.77"/><line class="cls-1" x1="38.63" y1="41.46" x2="38.63" y2="41.46"/><line class="cls-1" x1="37.31" y1="38.05" x2="37.31" y2="38.05"/><line class="cls-1" x1="34.34" y1="41.68" x2="34.34" y2="41.68"/><line class="cls-1" x1="40.39" y1="34.09" x2="40.39" y2="34.09"/><line class="cls-1" x1="38.63" y1="29.58" x2="38.63" y2="29.58"/><line class="cls-1" x1="35.44" y1="32.33" x2="35.44" y2="32.33"/><line class="cls-1" x1="34.56" y1="35.96" x2="34.56" y2="35.96"/><line class="cls-1" x1="33.68" y1="29.25" x2="33.68" y2="29.25"/><line class="cls-1" x1="30.71" y1="31.12" x2="30.71" y2="31.12"/><line class="cls-1" x1="31.26" y1="35.3" x2="31.26" y2="35.3"/><line class="cls-1" x1="27.85" y1="33.32" x2="27.85" y2="33.32"/><line class="cls-1" x1="24.44" y1="33.65" x2="24.44" y2="33.65"/><line class="cls-1" x1="20.81" y1="32.55" x2="20.81" y2="32.55"/><line class="cls-1" x1="21.03" y1="37.39" x2="21.03" y2="37.39"/><line class="cls-1" x1="27.96" y1="39.04" x2="27.96" y2="39.04"/><line class="cls-1" x1="30.6" y1="42.23" x2="30.6" y2="42.23"/><line class="cls-1" x1="23.88" y1="40.94" x2="23.88" y2="40.94"/><line class="cls-1" x1="19.59" y1="40.72" x2="19.59" y2="40.72"/><line class="cls-1" x1="16.45" y1="40.05" x2="16.45" y2="40.05"/><line class="cls-1" x1="19.34" y1="45.15" x2="19.34" y2="45.15"/><line class="cls-1" x1="13.66" y1="39.15" x2="13.66" y2="39.15"/><line class="cls-1" x1="11.68" y1="36.4" x2="11.68" y2="36.4"/><line class="cls-1" x1="13" y1="46.3" x2="13" y2="46.3"/><line class="cls-1" x1="16.3" y1="47.95" x2="16.3" y2="47.95"/><line class="cls-1" x1="26.54" y1="12.49" x2="26.54" y2="12.49"/><line class="cls-1" x1="20.74" y1="46.88" x2="20.74" y2="46.88"/><line class="cls-1" x1="24.74" y1="47.76" x2="24.74" y2="47.76"/><line class="cls-1" x1="27.74" y1="49.27" x2="27.74" y2="49.27"/><line class="cls-1" x1="28.51" y1="45.2" x2="28.51" y2="45.2"/><line class="cls-1" x1="33.68" y1="45.64" x2="33.68" y2="45.64"/><line class="cls-1" x1="31.74" y1="11.17" x2="31.74" y2="11.17"/><line class="cls-1" x1="34.74" y1="48.88" x2="34.74" y2="48.88"/><line class="cls-1" x1="38.74" y1="50.48" x2="38.74" y2="50.48"/><line class="cls-1" x1="36.54" y1="53.45" x2="36.54" y2="53.45"/><line class="cls-1" x1="30.6" y1="52.35" x2="30.6" y2="52.35"/><line class="cls-1" x1="24.55" y1="51.8" x2="24.55" y2="51.8"/><line class="cls-1" x1="16.19" y1="53.67" x2="16.19" y2="53.67"/><line class="cls-1" x1="13" y1="50.48" x2="13" y2="50.48"/><path class="cls-2" d="M32.14,25.48a3.35,3.35,0,0,1,3.46-1.24c.83.25,1.16.66,1.65.58s1.73,1.15.58,2S34.94,28.37,34.36,28a15,15,0,0,0-1.65-.83A1.7,1.7,0,0,1,32.14,25.48Z"/><path class="cls-2" d="M52.6,17.23a2.2,2.2,0,0,1,2.06,1.24,1.54,1.54,0,0,1-2.56,1.4C50.2,18.63,51,17.06,52.6,17.23Z"/><path class="cls-2" d="M57.05,36c2.23,1.4,2.06,3.63-.41,2.89s-2.39-1-3.47-2.64S55.57,35.13,57.05,36Z"/><path class="cls-2" d="M40.14,44.78c1.73.91,1.4,2.64-.58,2.23s-2.72-1.24-3.13-2.14,1-2,2.55-1A9.86,9.86,0,0,0,40.14,44.78Z"/><path class="cls-2" d="M17.45,32.82c1.24.25,1.9.74,2,1.73s-.58,2-2.89,1.82-3.79-.58-2.47-2.15c.82-.08,1.15-.24,1.48-.9S16.87,32.66,17.45,32.82Z"/><path class="cls-2" d="M14.07,20c1.73-.66,3.3,1.4,1.24,2S12.25,20.36,14.07,20Z"/><path class="cls-2" d="M20.5,50.31c2.07.41,3,1.4,1.57,2.23s-1.4.66-3,.16-3-1.07-2-1.81A3.63,3.63,0,0,1,20.5,50.31Z"/><line class="cls-2" x1="15.86" y1="18.04" x2="29.48" y2="18.04"/><line class="cls-2" x1="13.19" y1="3.77" x2="24.53" y2="3.77"/><line class="cls-2" x1="36.7" y1="17.15" x2="48.95" y2="17.15"/><line class="cls-2" x1="11.23" y1="17.15" x2="14.02" y2="17.15"/><line class="cls-2" x1="51.96" y1="2.85" x2="63.3" y2="2.85"/><line class="cls-2" x1="55.44" y1="23.89" x2="39.54" y2="23.89"/><line class="cls-2" x1="28.26" y1="23.61" x2="17.24" y2="23.61"/><line class="cls-2" x1="33.98" y1="8.93" x2="25.03" y2="8.93"/><line class="cls-2" x1="50.49" y1="9.47" x2="39.83" y2="9.47"/><line class="cls-2" x1="15.2" y1="30.57" x2="25.54" y2="30.57"/><line class="cls-2" x1="38.5" y1="31.08" x2="49.84" y2="31.01"/><line class="cls-2" x1="30.44" y1="3.09" x2="43.19" y2="3.09"/><line class="cls-2" x1="51.96" y1="37.61" x2="43.8" y2="37.61"/><line class="cls-2" x1="35.88" y1="37.47" x2="27.77" y2="37.47"/><line class="cls-2" x1="11.23" y1="42.24" x2="24.53" y2="42.24"/><line class="cls-2" x1="49.96" y1="44.43" x2="57.88" y2="44.43"/><line class="cls-2" x1="51.72" y1="50.69" x2="40.91" y2="50.69"/><line class="cls-2" x1="36.46" y1="50.63" x2="24.32" y2="50.63"/><path class="cls-2" d="M32.22,14.92c1.48.08,1.32,1.57.08,1.65S30.9,15.08,32.22,14.92Z"/><path class="cls-2" d="M43.52,20.2c1.65,0,1.4,1.65.17,1.65S42.12,20.2,43.52,20.2Z"/><path class="cls-2" d="M28.2,3.23c1.65,0,1.4,1.65.16,1.65S26.8,3.23,28.2,3.23Z"/><path class="cls-2" d="M53.75,29.77c1.4,0,1.32,1.4.17,1.4S52,29.85,53.75,29.77Z"/><path class="cls-2" d="M47.92,44.32a.73.73,0,1,1-1.43,0C46.49,43.38,47.92,43.05,47.92,44.32Z"/><path class="cls-2" d="M39.51,36a.8.8,0,1,1-1.6.06C37.86,35.13,39.29,34.64,39.51,36Z"/><path class="cls-2" d="M14.26,10.07a.8.8,0,1,1-1.6.06C12.61,9.19,14,8.7,14.26,10.07Z"/><path class="cls-2" d="M39.56,54.05c1.13.42.77,1.87-.44,1.43S38.52,53.67,39.56,54.05Z"/><path class="cls-2" d="M30.82,46.19c1.37.11,1.15,1.48.16,1.54S29.39,46.19,30.82,46.19Z"/><path class="cls-2" d="M25.43,36c1.37.93.11,1.92-.88,1.32S24.38,35.46,25.43,36Z"/><path class="cls-2" d="M17.2,44.33c.82.82-.22,1.59-.88,1S16,43.61,17.2,44.33Z"/><path class="cls-2" d="M14.34,28.72c.05,1.27-1.43,1.16-1.49.22S14.23,27.57,14.34,28.72Z"/><path class="cls-2" d="M54.55,10c.05,1.26-1.43,1.15-1.49.22S54.44,8.85,54.55,10Z"/><path class="cls-2" d="M42.11,5.32c1,.61,1.25,2,.5,2.5a3.94,3.94,0,0,1-3.37-.12c-.5-.5-1-1.5.25-2.13S41.49,5,42.11,5.32Z"/><path class="cls-2" d="M16.74,7c.62-.75,1.62-.75,3.12-.25s1.63,1,2.13,1,1.37,2,.12,2.25-4.37.5-4.75-.38A14.14,14.14,0,0,1,16.74,7Z"/><line class="cls-2" x1="19.39" y1="13.61" x2="12.59" y2="13.61"/><line class="cls-2" x1="41.91" y1="13.61" x2="31.94" y2="13.61"/><rect class="cls-3" x="11.24" y="1.88" width="54.13" height="54.13"/><line class="cls-1" x1="1.44" y1="0.64" x2="1.44" y2="0.64"/><line class="cls-1" x1="9.69" y1="0.09" x2="9.69" y2="0.09"/><path class="cls-2" d="M6.72-2.49c1.49-1.16,2.72.33,1.73,1.15S6.06.64,5.15,0a1.07,1.07,0,0,1,.33-2A2.42,2.42,0,0,0,6.72-2.49Z"/><rect class="cls-3" x="-42.89" y="-52.24" width="54.13" height="54.13"/><line class="cls-1" x1="3.49" y1="7.76" x2="3.49" y2="7.76"/><line class="cls-1" x1="10.61" y1="7.38" x2="10.61" y2="7.38"/><line class="cls-1" x1="7.24" y1="5.63" x2="7.24" y2="5.63"/><line class="cls-1" x1="3.74" y1="11.13" x2="3.74" y2="11.13"/><line class="cls-1" x1="2.11" y1="4.38" x2="2.11" y2="4.38"/><line class="cls-1" x1="5.49" y1="27.13" x2="5.49" y2="27.13"/><line class="cls-1" x1="7.49" y1="11.68" x2="7.49" y2="11.68"/><line class="cls-1" x1="0.11" y1="13.63" x2="0.11" y2="13.63"/><line class="cls-1" x1="4.41" y1="15.17" x2="4.41" y2="15.17"/><line class="cls-1" x1="10.68" y1="14.4" x2="10.68" y2="14.4"/><line class="cls-1" x1="6.72" y1="19.24" x2="6.72" y2="19.24"/><line class="cls-1" x1="3.2" y1="20.34" x2="3.2" y2="20.34"/><line class="cls-1" x1="5.29" y1="23.42" x2="5.29" y2="23.42"/><line class="cls-1" x1="10.02" y1="21.11" x2="10.02" y2="21.11"/><line class="cls-1" x1="7.82" y1="28.81" x2="7.82" y2="28.81"/><line class="cls-1" x1="1.77" y1="26.72" x2="1.77" y2="26.72"/><line class="cls-1" x1="2.65" y1="32.44" x2="2.65" y2="32.44"/><line class="cls-1" x1="5.4" y1="35.3" x2="5.4" y2="35.3"/><line class="cls-1" x1="8.59" y1="33.21" x2="8.59" y2="33.21"/><line class="cls-1" x1="8.26" y1="38.71" x2="8.26" y2="38.71"/><line class="cls-1" x1="4.52" y1="42.34" x2="4.52" y2="42.34"/><line class="cls-1" x1="-0.1" y1="41.24" x2="-0.1" y2="41.24"/><line class="cls-1" x1="9.47" y1="45.09" x2="9.47" y2="45.09"/><line class="cls-1" x1="7.05" y1="47.62" x2="7.05" y2="47.62"/><line class="cls-1" x1="2.65" y1="47.62" x2="2.65" y2="47.62"/><line class="cls-1" x1="9.69" y1="54.22" x2="9.69" y2="54.22"/><line class="cls-1" x1="10.13" y1="49.82" x2="10.13" y2="49.82"/><path class="cls-2" d="M-1.53,17.23A2.19,2.19,0,0,1,.53,18.47,1.53,1.53,0,0,1-2,19.87C-3.92,18.63-3.18,17.06-1.53,17.23Z"/><path class="cls-2" d="M2.93,36c2.22,1.4,2.06,3.63-.42,2.89s-2.39-1-3.46-2.64S1.44,35.13,2.93,36Z"/><path class="cls-2" d="M6.72,51.63c1.49-1.15,2.72.33,1.73,1.16s-2.39,2-3.3,1.32a1.07,1.07,0,0,1,.33-2A2.47,2.47,0,0,0,6.72,51.63Z"/><line class="cls-2" x1="2.09" y1="17.15" x2="11.23" y2="17.15"/><line class="cls-2" x1="-2.16" y1="2.85" x2="9.18" y2="2.85"/><line class="cls-2" x1="1.31" y1="23.89" x2="-14.59" y2="23.89"/><line class="cls-2" x1="3.97" y1="30.79" x2="10.79" y2="30.79"/><line class="cls-2" x1="10.14" y1="42.24" x2="11.23" y2="42.24"/><line class="cls-2" x1="-4.17" y1="44.43" x2="3.75" y2="44.43"/><path class="cls-2" d="M9.86,24.16c0,1.32-1.41,1.15-1.49,0S9.86,23.17,9.86,24.16Z"/><path class="cls-2" d="M-.37,29.77c1.4,0,1.32,1.4.16,1.4S-2.11,29.85-.37,29.77Z"/><path class="cls-2" d="M7.3,40.45c1.21,0,1.37,1.43.27,1.49S5.87,40.56,7.3,40.45Z"/><path class="cls-2" d="M3.22,49.62c.82.61.33,1.71-.83,1.05S1.9,48.85,3.22,49.62Z"/><path class="cls-2" d="M.42,10c.06,1.26-1.43,1.15-1.48.22S.31,8.85.42,10Z"/><line class="cls-2" x1="10.97" y1="9.29" x2="4.81" y2="9.29"/><rect class="cls-3" x="-42.89" y="1.88" width="54.13" height="54.13"/><rect class="cls-3" width="54.12" height="54.13"/></svg>