<svg id="Layer_1" data-name="Layer 1" xmlns="http://www.w3.org/2000/svg" width="41.88" height="41.88" viewBox="0 0 41.88 41.88"><defs><style>.cls-1,.cls-2{fill:none;}.cls-2{stroke:#000;stroke-width:0.3px;}</style></defs><title>Artboard 37</title><rect class="cls-1" x="27.15" y="-16.25" width="41.88" height="41.88"/><path class="cls-2" d="M40-5c.47,2.08.92,3.76.63,5.25a9.73,9.73,0,0,0-.35,1.79"/><path class="cls-2" d="M40.6,3.44A25.06,25.06,0,0,1,41,6.8"/><path class="cls-2" d="M38.46-3.5A9.41,9.41,0,0,1,38.54.84a8.5,8.5,0,0,0,.26,4.73"/><path class="cls-2" d="M36.41,1.05a7.39,7.39,0,0,0,.47,5.35"/><path class="cls-2" d="M34.41-4A9.12,9.12,0,0,1,34.5-.18a4.93,4.93,0,0,0-.26,1.7"/><path class="cls-2" d="M32.89-2.93c-.21,1.36-.49,3.86-.74,4.79s-.64,2.77,0,3.83"/><path class="cls-2" d="M30.73-4.82a9,9,0,0,1,.17,3.54A9.7,9.7,0,0,0,30.69.55"/><path class="cls-2" d="M30.22,2.8a4.48,4.48,0,0,0-.08,2.34,12.84,12.84,0,0,0,.78,1.59"/><path class="cls-2" d="M28.56-2.95a10,10,0,0,1,.21,4.64c-.38,1.36-.64,3.15-.08,4.26"/><path class="cls-2" d="M34,3.48a16.28,16.28,0,0,0,1.6,4.25"/><path class="cls-2" d="M28.24,8.59a6.08,6.08,0,0,1,0,3.7,6,6,0,0,0-.21,3.7"/><path class="cls-2" d="M29.82,7.31a7.09,7.09,0,0,1,.59,2.89c-.08.86-.3,1.32-.25,1.45"/><path class="cls-2" d="M29.9,12.8a8,8,0,0,0,.59,4.35"/><path class="cls-2" d="M31.94,8.37a4.83,4.83,0,0,1-.08,3.2,5.72,5.72,0,0,0-.13,3.66"/><path class="cls-2" d="M33.58,6.92a8,8,0,0,1,.25,3.32"/><path class="cls-2" d="M34,12.08a9.63,9.63,0,0,0,0,4.44"/><path class="cls-2" d="M36,9.82a6.06,6.06,0,0,1-.26,2.43c-.34,1.4-.75,3.85-.28,4.74"/><path class="cls-2" d="M38,8.08a6.13,6.13,0,0,1,0,3.53c-.42,1.36-.76,2.59,0,4.08"/><path class="cls-2" d="M39.75,6.91c.3,1.24.88,2.1.62,3s-.47,1.36-.55,1.83"/><path class="cls-2" d="M39.84,13a6.93,6.93,0,0,0,.26,2.6"/><path class="cls-2" d="M41.78,8c.38,1.62.8,2.34.25,3.7a12.38,12.38,0,0,0-.3,5.06"/><path class="cls-2" d="M28.93,17.57a8,8,0,0,1,.25,3"/><path class="cls-2" d="M28.66,21.74c-.34,1.06-.92,2.9-.62,3.62"/><path class="cls-2" d="M30.75,18.55a7.84,7.84,0,0,1-.35,3.06,8.4,8.4,0,0,0,0,3.56"/><path class="cls-2" d="M32.73,16.12A36.83,36.83,0,0,1,32,23.91"/><path class="cls-2" d="M34.33,19.26a4.68,4.68,0,0,1-.3,2,18.92,18.92,0,0,0-.46,4.39"/><path class="cls-2" d="M38.36,18.55c.09,1.49.26,1.83-.25,3.15s-.64,1.48-.43,2.37"/><path class="cls-2" d="M39.83,16.89A10.75,10.75,0,0,1,40.6,20"/><path class="cls-2" d="M39.85,21.19a10.92,10.92,0,0,0-.73,3.86"/><path class="cls-2" d="M41.79,18.42c.39,1.57.49,2.23,0,3.36a12.6,12.6,0,0,0-.34,3.84"/><path class="cls-2" d="M36.91,16.31A12,12,0,0,1,36.1,21a8,8,0,0,0-.18,4.32"/><rect class="cls-1" x="27.15" y="-16.25" width="41.88" height="41.88"/><rect class="cls-1" x="27.15" y="25.63" width="41.88" height="41.88"/><path class="cls-2" d="M40,36.92c.47,2.09.92,3.76.63,5.25A9.73,9.73,0,0,0,40.27,44"/><path class="cls-2" d="M38.46,38.38a9.41,9.41,0,0,1,.08,4.34,8.49,8.49,0,0,0,.26,4.73"/><path class="cls-2" d="M36,36.62a14,14,0,0,1,.76,3.68"/><path class="cls-2" d="M34.41,37.83a9.12,9.12,0,0,1,.09,3.87,5,5,0,0,0-.26,1.7"/><path class="cls-2" d="M32.89,39c-.21,1.36-.49,3.86-.74,4.79s-.64,2.77,0,3.83"/><path class="cls-2" d="M30.73,37.06a9,9,0,0,1,.17,3.54,9.7,9.7,0,0,0-.21,1.83"/><path class="cls-2" d="M28.56,38.94a10,10,0,0,1,.21,4.63c-.38,1.37-.64,3.15-.08,4.26"/><path class="cls-2" d="M28.55,26.55a6,6,0,0,1,0,2.74c-.09.85-.3,1.32-.26,1.45"/><path class="cls-2" d="M28,32.39a8.78,8.78,0,0,0,.68,4.54"/><path class="cls-2" d="M30,27.3A7,7,0,0,1,30,31.15a5.72,5.72,0,0,0-.13,3.66"/><path class="cls-2" d="M31.61,26.52a6.09,6.09,0,0,1,.26,2.89"/><path class="cls-2" d="M32,31.34a16.34,16.34,0,0,0,.13,5.77"/><path class="cls-2" d="M34.13,29.41a6,6,0,0,1-.26,2.42,8.24,8.24,0,0,0,.34,4.53"/><path class="cls-2" d="M36.13,26.87a9.29,9.29,0,0,1,0,4.33c-.43,1.36-.77,2.59,0,4.08"/><path class="cls-2" d="M37.79,26.08A4.25,4.25,0,0,1,38,28.66c-.25.94-.47,1.37-.55,1.84"/><path class="cls-2" d="M37.7,31.74a24.64,24.64,0,0,0,1,5"/><path class="cls-2" d="M39.87,26.74c.39,1.62.81,2.51.26,3.87A6.27,6.27,0,0,0,39.4,34"/><path class="cls-2" d="M41.28,32.68a9.52,9.52,0,0,0-.3,3.66"/><path class="cls-2" d="M33.57,25.64A2.85,2.85,0,0,0,34,27.45"/><path class="cls-2" d="M41.45,25.65a2.7,2.7,0,0,1-.07.86"/><rect class="cls-1" x="27.15" y="25.63" width="41.88" height="41.88"/><rect class="cls-1" x="-14.73" y="-16.25" width="41.88" height="41.88"/><path class="cls-2" d="M26.5.77a12,12,0,0,0,.08,4.34"/><path class="cls-2" d="M24.63-3.11A8.14,8.14,0,0,1,24.46.38a5.48,5.48,0,0,0,0,3.32"/><path class="cls-2" d="M22.24.67c0,.89-.17.55-.26,1.53a10.19,10.19,0,0,0,1.33,4.18"/><path class="cls-2" d="M19.73-3.88a7.41,7.41,0,0,1-.17,4A3.69,3.69,0,0,0,20,3.68"/><path class="cls-2" d="M17.43-.14c-.26,1.75-.95,5.12.33,6.52"/><path class="cls-2" d="M15.17-1.94a13.67,13.67,0,0,1-.25,3.76,11.42,11.42,0,0,0,1,5"/><path class="cls-2" d="M13-4.78a15.13,15.13,0,0,1,0,5.2"/><path class="cls-2" d="M12.66,2a6.86,6.86,0,0,0,.13,3.62"/><path class="cls-2" d="M11.09-2.35a8.32,8.32,0,0,1-.43,4,6.74,6.74,0,0,0-.13,4.17"/><path class="cls-2" d="M8.7-4.91a13.91,13.91,0,0,1,0,5"/><path class="cls-2" d="M8.39,1.93c-.57,2.68-.7,5.15-.31,5.77"/><path class="cls-2" d="M6.7-3a10.48,10.48,0,0,1-.17,4.08,8.67,8.67,0,0,0-.29,3.41"/><path class="cls-2" d="M4.57.63a11,11,0,0,1-.21,1.45,7.2,7.2,0,0,0,.21,3.66"/><path class="cls-2" d="M2.5-3.51a24.1,24.1,0,0,1,0,5.29,9.77,9.77,0,0,0,.13,3.83"/><path class="cls-2" d="M.47,1C.21,2.2,0,4.5.76,5.69"/><path class="cls-2" d="M-.11,8c.39,1.62.81,2.34.26,3.7a12.38,12.38,0,0,0-.3,5.06"/><path class="cls-2" d="M1.51,7.14a8,8,0,0,1,.64,3.28"/><path class="cls-2" d="M1.85,12.29a11.9,11.9,0,0,0,0,4.25"/><path class="cls-2" d="M3.09,8c.46,1.57.72,2.17.38,3.57A9.83,9.83,0,0,0,3,15.23"/><path class="cls-2" d="M5.33,6.82a14.74,14.74,0,0,1-.2,2.92"/><path class="cls-2" d="M4.93,11.57a6,6,0,0,1-.25,1.57c-.22.81.52,4.84.73,5.43"/><path class="cls-2" d="M6.7,8.33c.47,2,.81,2.94.51,4a7.87,7.87,0,0,0-.25,3"/><path class="cls-2" d="M8.58,8.54a6.11,6.11,0,0,0,.25,2.05,4.25,4.25,0,0,1,0,2.55A5.38,5.38,0,0,0,9,15.89"/><path class="cls-2" d="M10.67,7.31a17.42,17.42,0,0,0,.3,2.81"/><path class="cls-2" d="M11.06,11.4a11.23,11.23,0,0,1-.22,2.12,12.92,12.92,0,0,0,0,3.39"/><path class="cls-2" d="M14.07,6.44a10.13,10.13,0,0,1,.65,3.81"/><path class="cls-2" d="M14.47,11.78a12.24,12.24,0,0,0-.26,3.32,12.3,12.3,0,0,1,.12,2.24"/><path class="cls-2" d="M16.52,8.12a6.47,6.47,0,0,1-.17,3.06,9.45,9.45,0,0,0,.2,4.7"/><path class="cls-2" d="M19.45,5.08c.77,1.25,1.06,4.78.72,6.44a7.06,7.06,0,0,0,.26,4.09"/><path class="cls-2" d="M21.38,5.94a25.25,25.25,0,0,1,.81,4.92"/><path class="cls-2" d="M22,12.59a14.76,14.76,0,0,0,.43,4.24"/><path class="cls-2" d="M23.84,8.08a8.07,8.07,0,0,1,.38,3.66A11.68,11.68,0,0,0,24.05,15"/><path class="cls-2" d="M25.53,6.4a5.36,5.36,0,0,1,.6,3"/><path class="cls-2" d="M26.18,11.48c-.17,1-.76,3.64.05,5.3"/><path class="cls-2" d="M-.09,18.42c.39,1.57.49,2.23,0,3.36a12.6,12.6,0,0,0-.34,3.84"/><path class="cls-2" d="M3.42,17.1a8.41,8.41,0,0,1,.16,4.3,8.68,8.68,0,0,0-.4,3.85"/><path class="cls-2" d="M5.46,20c-.08.73-.87,3.51-.7,4.06"/><path class="cls-2" d="M6.85,16.62a7.4,7.4,0,0,1-.06,4.06,21.57,21.57,0,0,0-.44,4.93"/><path class="cls-2" d="M10.08,18.25a5,5,0,0,1,0,3.23c-.34,1.28-.55,1.61-.3,2.46"/><path class="cls-2" d="M12.34,17.15a9.44,9.44,0,0,1-.24,2.56"/><path class="cls-2" d="M12.26,20.78a15,15,0,0,0-.84,3.91"/><path class="cls-2" d="M13.56,18.33c.34,1.83.38,2.6-.13,3.71A5.1,5.1,0,0,0,13,25.4"/><path class="cls-2" d="M17.61,18c.59,1.58.35,2.27-.44,3.7a9.65,9.65,0,0,0-.63,3.91"/><path class="cls-2" d="M18.62,16.18c.56.56.9,3.13.81,3.56"/><path class="cls-2" d="M18.88,21.33a17.8,17.8,0,0,1-.82,3.91"/><path class="cls-2" d="M20.9,17.8c.13.81-.28.58.06,1.85a3.58,3.58,0,0,1-.26,2.73,4.08,4.08,0,0,0-.05,2.16"/><path class="cls-2" d="M22.83,18.33a6.49,6.49,0,0,1,.22,3,27.22,27.22,0,0,0-.4,4.26"/><path class="cls-2" d="M26.71,18.08a5.23,5.23,0,0,1-.13,2.25,12.62,12.62,0,0,0-.21,4.57"/><path class="cls-2" d="M12.46,8.08c.13,1.55.51,1.81.25,3.74s-.51,2.84-.25,3.61"/><path class="cls-2" d="M15.55,17.25a4.83,4.83,0,0,1-.08,3.2c-.39,1.19-.91,2.73-.49,3.93"/><path class="cls-2" d="M18.34,7.79A4.8,4.8,0,0,1,18.26,11a5.72,5.72,0,0,0-.13,3.66"/><path class="cls-2" d="M8.75,17.35A6.58,6.58,0,0,1,8.46,21,7.2,7.2,0,0,0,8,25"/><path class="cls-2" d="M1.48,18a5.08,5.08,0,0,1,0,3.3,4.57,4.57,0,0,0-.25,3.2"/><path class="cls-2" d="M24.65,16.94c.21,1.06.79,2.55.28,4.12a4.62,4.62,0,0,0-.13,3.26"/><rect class="cls-1" x="-14.73" y="-16.25" width="41.88" height="41.88"/><rect class="cls-1" x="-14.73" y="25.63" width="41.88" height="41.88"/><path class="cls-2" d="M26.28,37a11.91,11.91,0,0,1,.08,3.57"/><path class="cls-2" d="M24.63,38.77a8.14,8.14,0,0,1-.17,3.49,5.48,5.48,0,0,0,0,3.32"/><path class="cls-2" d="M22.44,36.58a8.91,8.91,0,0,1-.16,4.19"/><path class="cls-2" d="M19.73,38a7.41,7.41,0,0,1-.17,4A3.69,3.69,0,0,0,20,45.56"/><path class="cls-2" d="M16.87,36.77a9.3,9.3,0,0,1,.64,3.49"/><path class="cls-2" d="M17.43,41.74c-.26,1.75-.95,5.12.33,6.52"/><path class="cls-2" d="M16.23,33.27a13.13,13.13,0,0,1,.25,2"/><path class="cls-2" d="M15.17,40a13.59,13.59,0,0,1-.25,3.75,11.42,11.42,0,0,0,1,5"/><path class="cls-2" d="M13,37.11a15.07,15.07,0,0,1,0,5.19"/><path class="cls-2" d="M11.09,39.53a8.31,8.31,0,0,1-.43,4,6.74,6.74,0,0,0-.13,4.17"/><path class="cls-2" d="M8.7,37a13.91,13.91,0,0,1,0,5"/><path class="cls-2" d="M6.7,38.85a10.54,10.54,0,0,1-.17,4.09,8.61,8.61,0,0,0-.29,3.4"/><path class="cls-2" d="M5,36.34a12.7,12.7,0,0,1-.22,4.47"/><path class="cls-2" d="M2.5,38.37a24.1,24.1,0,0,1,0,5.29,9.75,9.75,0,0,0,.13,3.83"/><path class="cls-2" d="M.3,37.23a10,10,0,0,1,.64,3.54"/><path class="cls-2" d="M12.07,27.49C12.8,28.42,13,35,13,35"/><path class="cls-2" d="M.18,28.06a7.55,7.55,0,0,1,.18,3.48"/><path class="cls-2" d="M1.18,26.08a8.84,8.84,0,0,1,.39,4.53,18.63,18.63,0,0,0-.27,5.44"/><path class="cls-2" d="M3.29,27a8.4,8.4,0,0,1,0,3.68"/><path class="cls-2" d="M3.68,32a14,14,0,0,1-.58,2.4,5.85,5.85,0,0,0,.08,2.72"/><path class="cls-2" d="M4.8,26.11c.47,2,.81,4.12.51,5.22a7.67,7.67,0,0,0-.25,3"/><path class="cls-2" d="M6.67,28.47a4.37,4.37,0,0,0,.26,1.7,4.29,4.29,0,0,1,0,2.56,11.69,11.69,0,0,0-.09,3.83"/><path class="cls-2" d="M8.58,26.4a24.58,24.58,0,0,0-.3,2.81"/><path class="cls-2" d="M8.72,31a13.28,13.28,0,0,1-.22,2.13,6.14,6.14,0,0,0,.09,2.47"/><path class="cls-2" d="M10.23,25.88c.47,1.58.1,5.7-.07,7.15"/><path class="cls-2" d="M11.59,32.88c-.17,1.32-.91,3-.74,3.8a10.26,10.26,0,0,0,.29,1.15"/><path class="cls-2" d="M14.31,26.05a11.67,11.67,0,0,1-.17,4.09A4.91,4.91,0,0,0,14,33.46"/><path class="cls-2" d="M16.49,28.52a4.28,4.28,0,0,1,.09,1.94c-.17.89-.39,1.4-.43,1.74"/><path class="cls-2" d="M18.42,26.63a7.64,7.64,0,0,1,.09,3.83,13,13,0,0,0-.08,5.4"/><path class="cls-2" d="M20.56,25.92a18.59,18.59,0,0,1,.09,4.34"/><path class="cls-2" d="M20.1,32.18a20.38,20.38,0,0,0,.41,5"/><path class="cls-2" d="M22.11,28.17c.38,1.66.59,1.71.38,3.15a11.75,11.75,0,0,0-.17,3.28"/><path class="cls-2" d="M24.24,26a16.22,16.22,0,0,1,.21,3"/><path class="cls-2" d="M24.49,31.07c-.17,1-.86,3.44,0,5.1"/><path class="cls-2" d="M26,26.37a17.89,17.89,0,0,1,0,4.74,7.25,7.25,0,0,0,.13,3.7"/><path class="cls-2" d="M6.35,25.64a14,14,0,0,0,.05,1.52"/><path class="cls-2" d="M16.54,25.64a7,7,0,0,0,.14,1.72"/><path class="cls-2" d="M22.65,25.64c0,.37,0,1.14,0,1.25"/><path class="cls-2" d="M14.78,34.58A12.78,12.78,0,0,0,15.16,38"/><rect class="cls-1" x="-14.73" y="25.63" width="41.88" height="41.88"/><rect class="cls-1" width="41.88" height="41.88"/></svg>