<svg id="Layer_1" data-name="Layer 1" xmlns="http://www.w3.org/2000/svg" width="54.13" height="54.13" viewBox="0 0 54.13 54.13"><defs><style>.cls-1,.cls-2{fill:none;}.cls-2{stroke:#000;stroke-width:0.3px;}</style></defs><title>Artboard 37</title><rect class="cls-1" x="48.89" y="-51.46" width="54.13" height="54.13"/><path class="cls-2" d="M50.85-2.36C50.41-1,49.66,1.39,50,2.32"/><path class="cls-2" d="M53.54-6.49a10.22,10.22,0,0,1-.44,4,10.89,10.89,0,0,0-.05,4.61"/><rect class="cls-1" x="48.89" y="-51.46" width="54.13" height="54.13"/><rect class="cls-1" x="48.89" y="2.66" width="54.13" height="54.13"/><path class="cls-2" d="M53.53,17.45A11.88,11.88,0,0,1,53.75,22a13.27,13.27,0,0,0-.28,2.36"/><path class="cls-2" d="M52.87,27.29a5.61,5.61,0,0,0-.11,3,16.92,16.92,0,0,0,1,2.06"/><path class="cls-2" d="M50.72,19.86a12.84,12.84,0,0,1,.27,6c-.49,1.76-.82,4.07-.11,5.5"/><path class="cls-2" d="M50.31,34.77c.44,2.2.6,2.86,0,4.78s-.77,3.3-.27,4.79"/><path class="cls-2" d="M52.34,33.12a9.28,9.28,0,0,1,.77,3.74c-.11,1.1-.38,1.7-.33,1.87"/><path class="cls-2" d="M52.45,40.21c-.44,1.32.15,4.42.76,5.63"/><path class="cls-2" d="M50.7,3.86c.44,1.15.06,2.44-.05,3.54s-.38,1.71-.33,1.87"/><path class="cls-2" d="M50,11.4c-.44,1.32.28,4.67.89,5.88"/><path class="cls-2" d="M52.63,4.83a9,9,0,0,1-.11,5,7.33,7.33,0,0,0-.16,4.72"/><path class="cls-2" d="M51.19,46.37a10.07,10.07,0,0,1,.33,3.91"/><path class="cls-2" d="M50.85,51.76c-.44,1.38-1.19,3.75-.81,4.69"/><path class="cls-2" d="M53.54,47.64a10.26,10.26,0,0,1-.44,4,10.84,10.84,0,0,0-.05,4.6"/><rect class="cls-1" x="48.89" y="2.67" width="54.13" height="54.13"/><rect class="cls-1" x="-5.23" y="-51.46" width="54.13" height="54.13"/><path class="cls-2" d="M2-9.62A48.15,48.15,0,0,1,1,.45"/><path class="cls-2" d="M4.05-5.57A5.94,5.94,0,0,1,3.66-3a25.73,25.73,0,0,0-.6,5.68"/><path class="cls-2" d="M9.26-6.49c.11,1.93.33,2.37-.33,4.07S8.11-.5,8.38.66"/><path class="cls-2" d="M11.18-3.08a14.55,14.55,0,0,0-.94,5"/><path class="cls-2" d="M13.7-6.65c.49,2,.62,2.89,0,4.34-.51,1.19-.43,3.52-.44,5"/><path class="cls-2" d="M18.23-8.36c.49,2,.7,4.29.2,5.56a11.09,11.09,0,0,0-.51,5"/><path class="cls-2" d="M20.87-4.62c-.11.94-1.13,4.53-.91,5.25"/><path class="cls-2" d="M22.66-9a9.67,9.67,0,0,1-.07,5.25A28.17,28.17,0,0,0,22,2.64"/><path class="cls-2" d="M26.83-6.87a6.37,6.37,0,0,1,.06,4.18C26.45-1,26.17-.62,26.5.48"/><path class="cls-2" d="M29.65-3.6c-.38,1.1-1.24,4.29-1.08,5.06"/><path class="cls-2" d="M31.33-6.76c.44,2.36.49,3.35-.17,4.78a6.5,6.5,0,0,0-.49,4.35"/><path class="cls-2" d="M36.57-7.19c.77,2,.45,2.93-.57,4.77a12.6,12.6,0,0,0-.82,5.06"/><path class="cls-2" d="M38.21-2.89a23.47,23.47,0,0,1-1.06,5.06"/><path class="cls-2" d="M40.82-7.45c.16,1-.36.74.08,2.39a4.66,4.66,0,0,1-.33,3.52,5.53,5.53,0,0,0-.08,2.81"/><path class="cls-2" d="M43.32-6.76a8.47,8.47,0,0,1,.27,3.9,35.59,35.59,0,0,0-.5,5.5"/><path class="cls-2" d="M48.32-7.09a6.57,6.57,0,0,1-.16,2.91,16.41,16.41,0,0,0-.27,5.91"/><path class="cls-2" d="M33.91-8.16A6.32,6.32,0,0,1,33.8-4c-.5,1.54-1.18,3.53-.64,5.08"/><path class="cls-2" d="M25.12-8a8.65,8.65,0,0,1-.37,4.74c-.66,2-.94,4-.55,5.1"/><path class="cls-2" d="M15.72-7.25a6.55,6.55,0,0,1,0,4.26c-.66,2-.71,3-.33,4.13"/><path class="cls-2" d="M7.38-9.37c.28,1.37-.38,4-1,6A10.46,10.46,0,0,0,6.1,2.23"/><path class="cls-2" d="M45.66-8.56c.28,1.37,1,3.29.37,5.32A6,6,0,0,0,45.86,1"/><rect class="cls-1" x="-5.23" y="-51.46" width="54.13" height="54.13"/><rect class="cls-1" x="-5.23" y="2.66" width="54.13" height="54.13"/><path class="cls-2" d="M47.77,17.3a15.39,15.39,0,0,1,.11,4.62"/><path class="cls-2" d="M48.05,24.67a15.52,15.52,0,0,0,.11,5.61"/><path class="cls-2" d="M45.63,19.65a10.51,10.51,0,0,1-.22,4.51,7.07,7.07,0,0,0,0,4.29"/><path class="cls-2" d="M42.81,16.82a11.48,11.48,0,0,1-.21,5.41"/><path class="cls-2" d="M42.55,24.54c-.06,1.15-.22.71-.33,2s.94,4.08,1.71,5.4"/><path class="cls-2" d="M39.3,18.65a9.54,9.54,0,0,1-.22,5.23c-.55,2.14-.39,3.06.55,4.55"/><path class="cls-2" d="M35.62,17.06a12.28,12.28,0,0,1,.82,4.51"/><path class="cls-2" d="M36.33,23.49c-.33,2.26-1.22,6.61.43,8.43"/><path class="cls-2" d="M34.78,12.54a17.16,17.16,0,0,1,.33,2.6"/><path class="cls-2" d="M33.42,21.17A17.59,17.59,0,0,1,33.09,26c-.33,1.43.63,5.36,1.24,6.46"/><path class="cls-2" d="M30.61,17.5a19.62,19.62,0,0,1,0,6.71"/><path class="cls-2" d="M30.17,26.24c-.33,1.32-.33,3.91.17,4.68"/><path class="cls-2" d="M28.14,20.63a10.84,10.84,0,0,1-.55,5.12,8.65,8.65,0,0,0-.17,5.39"/><path class="cls-2" d="M25.06,17.32a18.64,18.64,0,0,1,0,6.5"/><path class="cls-2" d="M24.66,26.17c-.75,3.46-.91,6.65-.41,7.45"/><path class="cls-2" d="M22.47,19.75A13.62,13.62,0,0,1,22.25,25a11.17,11.17,0,0,0-.38,4.4"/><path class="cls-2" d="M20.29,16.51c.44,1.7-.07,4.56-.29,5.77"/><path class="cls-2" d="M19.72,24.48a15,15,0,0,1-.27,1.87c-.22,1.27-.33,3.58.27,4.73"/><path class="cls-2" d="M17,19.13A31.49,31.49,0,0,1,17.1,26a12.79,12.79,0,0,0,.16,5"/><path class="cls-2" d="M14.19,17.66A12.61,12.61,0,0,1,15,22.23"/><path class="cls-2" d="M14.41,25c-.33,1.54-.55,4.51.39,6.05"/><path class="cls-2" d="M11.37,17.26c.6,2.69,1.19,4.86.8,6.78a12.73,12.73,0,0,0-.44,2.31"/><path class="cls-2" d="M12.15,28.12a34.09,34.09,0,0,1,.5,4.33"/><path class="cls-2" d="M9.39,19.15a12.15,12.15,0,0,1,.11,5.61,10.85,10.85,0,0,0,.33,6.1"/><path class="cls-2" d="M6.15,16.87a18.17,18.17,0,0,1,1,4.75"/><path class="cls-2" d="M6.74,25c-.5,1.93-.66,4.87.6,6.91"/><path class="cls-2" d="M4.16,18.43a12,12,0,0,1,.11,5,6.23,6.23,0,0,0-.33,2.2"/><path class="cls-2" d="M29.4,5.07c1,1.21,1.2,9.68,1.2,9.68"/><path class="cls-2" d="M2.2,19.88c-.28,1.76-.64,5-1,6.2s-.83,3.57,0,5"/><path class="cls-2" d="M3.55,28.17a21.2,21.2,0,0,0,2.08,5.5"/><path class="cls-2" d="M1,34.49a6.32,6.32,0,0,1-.11,4.13,7.45,7.45,0,0,0-.17,4.73"/><path class="cls-2" d="M3.08,32.61a10.44,10.44,0,0,1,.33,4.29"/><path class="cls-2" d="M3.61,39.28a12.62,12.62,0,0,0,0,5.74"/><path class="cls-2" d="M6.25,36.36a7.8,7.8,0,0,1-.33,3.14c-.44,1.81-1,5-.37,6.13"/><path class="cls-2" d="M8.83,34.11a8,8,0,0,1,.06,4.56c-.55,1.76-1,3.36,0,5.28"/><path class="cls-2" d="M11.05,32.61c.39,1.59,1.14,2.71.81,3.92s-.61,1.76-.72,2.36"/><path class="cls-2" d="M11.17,40.44a9,9,0,0,0,.34,3.36"/><path class="cls-2" d="M13.67,33.94c.5,2.09,1.05,3,.33,4.79a16,16,0,0,0-.39,6.54"/><path class="cls-2" d="M15.76,32.9a10.15,10.15,0,0,1,.83,4.23"/><path class="cls-2" d="M16.2,39.55a15.39,15.39,0,0,0,0,5.5"/><path class="cls-2" d="M17.8,33.94c.6,2,.93,2.81.49,4.62s-.88,3.74-.6,4.79"/><path class="cls-2" d="M20.7,32.49a18.87,18.87,0,0,1-.26,3.76"/><path class="cls-2" d="M20.18,38.62a7.63,7.63,0,0,1-.33,2c-.27,1.05.68,6.26,1,7"/><path class="cls-2" d="M22.47,34.44c.61,2.53,1.05,3.79.66,5.22a10.23,10.23,0,0,0-.33,3.85"/><path class="cls-2" d="M24.89,34.71a8.21,8.21,0,0,0,.33,2.64,5.51,5.51,0,0,1,0,3.3,6.84,6.84,0,0,0,.21,3.55"/><path class="cls-2" d="M27.6,33.12A22.43,22.43,0,0,0,28,36.75"/><path class="cls-2" d="M28.1,38.4a16.66,16.66,0,0,1-.28,2.75,15.93,15.93,0,0,0,0,4.37"/><path class="cls-2" d="M32,32a13.21,13.21,0,0,1,.85,4.91"/><path class="cls-2" d="M32.51,38.89a15.77,15.77,0,0,0-.33,4.29,15.75,15.75,0,0,1,.15,2.9"/><path class="cls-2" d="M35.15,34.16c.17,2.26.22,2.31-.22,4a12.41,12.41,0,0,0,.26,6.07"/><path class="cls-2" d="M38.94,30.23c1,1.63,1.38,6.19.94,8.33a9.15,9.15,0,0,0,.33,5.28"/><path class="cls-2" d="M41.44,31.34a32.81,32.81,0,0,1,1.05,6.37"/><path class="cls-2" d="M42.24,39.94a19.11,19.11,0,0,0,.55,5.48"/><path class="cls-2" d="M44.61,34.11c.5,2.14.77,2.86.5,4.73a14.72,14.72,0,0,0-.22,4.23"/><path class="cls-2" d="M46.8,31.94a7,7,0,0,1,.78,3.87"/><path class="cls-2" d="M47.64,38.51c-.22,1.32-1,4.7.07,6.85"/><path class="cls-2" d="M.54,3.82A7.84,7.84,0,0,1,.87,7.56"/><path class="cls-2" d="M1.09,10c-.49,1.38-.22,6.37.17,7.47"/><path class="cls-2" d="M3.79,7.55a7.81,7.81,0,0,1-.33,3.14,10.62,10.62,0,0,0,.44,5.85"/><path class="cls-2" d="M6.37,4.28a11.92,11.92,0,0,1,.06,5.58c-.55,1.76-1,3.36.05,5.28"/><path class="cls-2" d="M8.52,3.25c.39,1.6.61,2.13.28,3.34S8.19,8.35,8.08,9"/><path class="cls-2" d="M8.41,10.56A32.19,32.19,0,0,0,9.68,17"/><path class="cls-2" d="M11.21,4.11c.5,2.09,1,3.23.33,5s-1.15,3.08-.93,4.35"/><path class="cls-2" d="M14.05,5.81c.6,1.32.34,3.67.23,4.49"/><path class="cls-2" d="M13,11.78a12.26,12.26,0,0,0-.39,4.73"/><path class="cls-2" d="M15.34,3.25a11.5,11.5,0,0,1,.49,5.86,24.5,24.5,0,0,0-.35,7"/><path class="cls-2" d="M18.06,4.49c.53,2.69,0,5.47,0,4.76"/><path class="cls-2" d="M18.57,10.93A17.9,17.9,0,0,1,17.81,14a7.62,7.62,0,0,0,.11,3.52"/><path class="cls-2" d="M20,3.28c.61,2.54,1,5.33.66,6.76a10.23,10.23,0,0,0-.33,3.85"/><path class="cls-2" d="M22.43,6.34a5.69,5.69,0,0,0,.33,2.2,5.51,5.51,0,0,1,0,3.3,15.23,15.23,0,0,0-.11,4.95"/><path class="cls-2" d="M24.9,3.66c0,1-.55,2.92-.39,3.63"/><path class="cls-2" d="M25.07,9.59a15.61,15.61,0,0,1-.27,2.75,7.92,7.92,0,0,0,.11,3.19"/><path class="cls-2" d="M27,3c.6,2,.13,7.37-.09,9.24"/><path class="cls-2" d="M28.79,12c-.22,1.7-1.18,3.87-1,4.91a10.27,10.27,0,0,0,.38,1.49"/><path class="cls-2" d="M32.3,3.21a15,15,0,0,1-.22,5.29c-.44,1.65-.72,3-.17,4.29"/><path class="cls-2" d="M35.12,6.4a5.5,5.5,0,0,1,.11,2.51c-.22,1.15-.49,1.81-.55,2.25"/><path class="cls-2" d="M37.62,4a10,10,0,0,1,.11,5c-.44,2.14-.65,5.54-.1,7"/><path class="cls-2" d="M40.38,3a24,24,0,0,1,.12,5.61"/><path class="cls-2" d="M39.79,11.13a26.4,26.4,0,0,0,.52,6.41"/><path class="cls-2" d="M42.38,6c.5,2.14.77,2.21.5,4.08a14.72,14.72,0,0,0-.22,4.23"/><path class="cls-2" d="M45.13,3.17A20.4,20.4,0,0,1,45.41,7"/><path class="cls-2" d="M45.46,9.7c-.22,1.32-1.11,4.44-.06,6.59"/><path class="cls-2" d="M47.39,3.62a22.85,22.85,0,0,1,0,6.13,9.33,9.33,0,0,0,.17,4.78"/><path class="cls-2" d="M2,44.51A48,48,0,0,1,1,54.57"/><path class="cls-2" d="M4.05,48.56a6,6,0,0,1-.39,2.53,25.57,25.57,0,0,0-.6,5.67"/><path class="cls-2" d="M9.26,47.64c.11,1.92.33,2.36-.33,4.07s-.82,1.92-.55,3.07"/><path class="cls-2" d="M11.16,45.5c.33,1,1.1,3.07,1,4"/><path class="cls-2" d="M11.18,51.05a14.54,14.54,0,0,0-.94,5"/><path class="cls-2" d="M13.7,47.47c.49,2,.62,2.89,0,4.35-.51,1.19-.43,3.52-.44,5"/><path class="cls-2" d="M18.23,45.77c.49,2,.7,4.29.2,5.55a11.13,11.13,0,0,0-.51,5"/><path class="cls-2" d="M20.87,49.51c-.11.93-1.13,4.53-.91,5.24"/><path class="cls-2" d="M22.66,45.15a9.67,9.67,0,0,1-.07,5.25A28.14,28.14,0,0,0,22,56.76"/><path class="cls-2" d="M26.83,47.25a6.37,6.37,0,0,1,.06,4.18c-.44,1.65-.72,2.08-.39,3.18"/><path class="cls-2" d="M29.75,45.84a11.94,11.94,0,0,1-.31,3.31"/><path class="cls-2" d="M29.65,50.53c-.38,1.1-1.24,4.28-1.08,5"/><path class="cls-2" d="M31.33,47.36c.44,2.37.49,3.36-.17,4.79a6.47,6.47,0,0,0-.49,4.34"/><path class="cls-2" d="M36.57,46.94c.77,2,.45,2.93-.57,4.77a12.55,12.55,0,0,0-.82,5"/><path class="cls-2" d="M37.87,44.58c.72.72,1.16,4.05,1.05,4.6"/><path class="cls-2" d="M38.21,51.24a23.51,23.51,0,0,1-1.06,5"/><path class="cls-2" d="M40.82,46.68c.16,1-.36.74.08,2.39a4.66,4.66,0,0,1-.33,3.52,5.49,5.49,0,0,0-.08,2.8"/><path class="cls-2" d="M3.06,2.68A3.68,3.68,0,0,0,3.61,5"/><path class="cls-2" d="M13.26,2.69a4.08,4.08,0,0,1-.1,1.12"/><path class="cls-2" d="M22,2.68a17.34,17.34,0,0,0,.07,2"/><path class="cls-2" d="M35.18,2.68a9.91,9.91,0,0,0,.18,2.22"/><path class="cls-2" d="M43.09,2.68a14.72,14.72,0,0,0,0,1.62"/><path class="cls-2" d="M43.32,47.36a8.5,8.5,0,0,1,.27,3.91,35.45,35.45,0,0,0-.5,5.49"/><path class="cls-2" d="M48.32,47A6.61,6.61,0,0,1,48.16,50c-.33,1.32-.66,4.64-.27,5.9"/><path class="cls-2" d="M29.91,34.12c.16,2,.66,2.33.33,4.83s-.67,3.67-.33,4.67"/><path class="cls-2" d="M32.91,14.24a16.07,16.07,0,0,0,.5,4.46"/><path class="cls-2" d="M33.91,46a6.29,6.29,0,0,1-.11,4.12c-.5,1.55-1.18,3.53-.64,5.08"/><path class="cls-2" d="M37.52,33.74a6.29,6.29,0,0,1-.11,4.12,7.45,7.45,0,0,0-.17,4.73"/><path class="cls-2" d="M25.12,46.09a8.66,8.66,0,0,1-.37,4.74c-.66,2-.94,4-.55,5.1"/><path class="cls-2" d="M15.72,46.87a6.56,6.56,0,0,1,0,4.26c-.66,2-.71,3-.33,4.14"/><path class="cls-2" d="M7.38,44.75c.28,1.38-.38,4-1,6a10.46,10.46,0,0,0-.24,5.59"/><path class="cls-2" d="M45.66,45.56c.28,1.38,1,3.29.37,5.33a6,6,0,0,0-.17,4.22"/><rect class="cls-1" x="-5.23" y="2.67" width="54.13" height="54.13"/><rect class="cls-1" width="54.13" height="54.13"/></svg>