<svg id="Layer_1" data-name="Layer 1" xmlns="http://www.w3.org/2000/svg" width="54.16" height="54.13" viewBox="0 0 54.16 54.13"><defs><style>.cls-1,.cls-2,.cls-3{fill:none;}.cls-1,.cls-2{stroke:#000;}.cls-1{stroke-width:0.5px;}.cls-2{stroke-width:0.3px;}</style></defs><title>Artboard 108</title><line class="cls-1" x1="42.77" y1="13.95" x2="50.62" y2="13.95"/><line class="cls-1" x1="53.98" y1="13.95" x2="61.82" y2="13.95"/><line class="cls-1" x1="40.51" y1="29.46" x2="45.83" y2="29.46"/><line class="cls-1" x1="49.19" y1="29.46" x2="57.04" y2="29.46"/><line class="cls-1" x1="40.49" y1="42.66" x2="41.71" y2="42.66"/><line class="cls-1" x1="45.07" y1="42.66" x2="52.91" y2="42.66"/><path class="cls-2" d="M52.27,15.16a10.76,10.76,0,0,1,.61,3.8"/><path class="cls-2" d="M52.49,22.37c-.49,1.92-1.26,4.07,0,6.1"/><path class="cls-2" d="M49.91,15.77a11.83,11.83,0,0,1,.11,5,6.53,6.53,0,0,0-.33,2.2"/><path class="cls-2" d="M47,15.05a18.6,18.6,0,0,1,.55,2"/><path class="cls-2" d="M47.81,19.62A29.86,29.86,0,0,1,47,23.41c-.33,1.21-.82,3.58,0,4.95"/><path class="cls-2" d="M44.94,15.77a11.89,11.89,0,0,1,.22,4.56,13.34,13.34,0,0,0-.28,2.37"/><path class="cls-2" d="M44.5,24.62a5.65,5.65,0,0,0-.11,3c.27.77.44,1.32.44,1.32"/><path class="cls-2" d="M42.34,17.2a12.93,12.93,0,0,1,.28,6c-.5,1.76-.83,4.07-.11,5.5"/><path class="cls-2" d="M49.31,25.5a6.54,6.54,0,0,0,.93,3.08"/><path class="cls-2" d="M41.94,32.1c.44,2.2.6,2.86.05,4.79s-.77,3.3-.27,4.78"/><path class="cls-2" d="M44,30.45a9.32,9.32,0,0,1,.77,3.74c-.11,1.1-.38,1.71-.33,1.87"/><path class="cls-2" d="M44.08,37.55a5.92,5.92,0,0,0,.11,4.23"/><path class="cls-2" d="M46.72,31.83A6.22,6.22,0,0,1,46.61,36a7.36,7.36,0,0,0-.16,4.73"/><path class="cls-2" d="M49.42,31a10.41,10.41,0,0,1,.33,4.29"/><path class="cls-2" d="M49.36,36.61A8.79,8.79,0,0,0,49,41.29"/><path class="cls-2" d="M52,33.7a7.58,7.58,0,0,1-.33,3.13c-.44,1.82-.55,3.85.06,5"/><path class="cls-2" d="M54.59,31.44a8,8,0,0,1,0,4.57c-.55,1.76-1,3.35.06,5.28"/><line class="cls-1" x1="40.51" y1="0.65" x2="43.37" y2="0.65"/><line class="cls-1" x1="46.73" y1="0.65" x2="54.58" y2="0.65"/><path class="cls-2" d="M41.51,1.64a9.28,9.28,0,0,1,.77,3.74c-.11,1.1-.38,1.7-.33,1.87"/><path class="cls-2" d="M41.62,8.73A6,6,0,0,0,41.73,13"/><path class="cls-2" d="M44.26,3a6.25,6.25,0,0,1-.11,4.13A7.36,7.36,0,0,0,44,11.87"/><path class="cls-2" d="M47,2.13a10.44,10.44,0,0,1,.33,4.29"/><path class="cls-2" d="M46.9,7.8a8.74,8.74,0,0,0-.33,4.67"/><path class="cls-2" d="M49.54,4.88A7.62,7.62,0,0,1,49.21,8c-.44,1.81-.55,3.85.06,5"/><path class="cls-2" d="M52.13,2.63a8,8,0,0,1,0,4.56c-.55,1.76-1,3.36.06,5.28"/><path class="cls-2" d="M54.16,9.17a11.2,11.2,0,0,0,.44,3.74"/><path class="cls-2" d="M42.64,43.71a10.41,10.41,0,0,1,.33,3.9"/><path class="cls-2" d="M42.75,49.1c-.44,1.37-.83,3.9-.44,4.84"/><path class="cls-2" d="M45.17,45a10.22,10.22,0,0,1-.44,4,9.23,9.23,0,0,0,0,4.24"/><path class="cls-2" d="M47.65,44a7.72,7.72,0,0,1-.44,4"/><path class="cls-2" d="M46.83,49.76A9.11,9.11,0,0,0,46.88,53"/><path class="cls-2" d="M49.8,45.89a6.3,6.3,0,0,1-.38,2.53,10.82,10.82,0,0,0,.11,4.84"/><path class="cls-2" d="M52.16,43.6a5.53,5.53,0,0,1,.27,3.63"/><path class="cls-2" d="M52,48.77a17.68,17.68,0,0,0-.53,3.85"/><path class="cls-2" d="M55,45c.11,1.93.33,2.37-.33,4.07a7.14,7.14,0,0,0-.55,4.24"/><rect class="cls-3" x="40.52" width="54.13" height="54.13"/><line class="cls-1" x1="-0.15" y1="13.95" x2="7.7" y2="13.95"/><line class="cls-1" x1="10.99" y1="13.95" x2="18.83" y2="13.95"/><line class="cls-1" x1="21.98" y1="13.95" x2="29.82" y2="13.95"/><line class="cls-1" x1="32.79" y1="13.95" x2="40.49" y2="13.95"/><line class="cls-1" x1="-4.93" y1="29.46" x2="2.91" y2="29.46"/><line class="cls-1" x1="6.2" y1="29.46" x2="14.05" y2="29.46"/><line class="cls-1" x1="17.19" y1="29.46" x2="25.04" y2="29.46"/><line class="cls-1" x1="28" y1="29.46" x2="35.85" y2="29.46"/><line class="cls-1" x1="2.08" y1="42.66" x2="9.93" y2="42.66"/><line class="cls-1" x1="13.07" y1="42.66" x2="20.91" y2="42.66"/><line class="cls-1" x1="23.88" y1="42.66" x2="31.72" y2="42.66"/><line class="cls-1" x1="38.81" y1="29.46" x2="40.52" y2="29.46"/><line class="cls-1" x1="34.68" y1="42.66" x2="40.53" y2="42.66"/><path class="cls-2" d="M39.07,15.16a15.39,15.39,0,0,1,.11,4.62"/><path class="cls-2" d="M39,21.87a15.52,15.52,0,0,0,.11,5.61"/><path class="cls-2" d="M36.87,16.59a10.51,10.51,0,0,1-.22,4.51,7.07,7.07,0,0,0,0,4.29"/><path class="cls-2" d="M34,15.16a7.26,7.26,0,0,1,.22,4.4"/><path class="cls-2" d="M34.18,21.87c-.06,1.16-.22.72-.33,2a7.15,7.15,0,0,0,.49,4.24"/><path class="cls-2" d="M30.93,16a9.5,9.5,0,0,1-.22,5.22c-.55,2.15-.71,4.46.22,5.94"/><path class="cls-2" d="M27.25,14.39a12.28,12.28,0,0,1,.82,4.51"/><path class="cls-2" d="M28,20.83c-.33,2.25-1.54,5.44.11,7.26"/><path class="cls-2" d="M24.66,14.83A13.63,13.63,0,0,1,25,17"/><path class="cls-2" d="M25.05,19.45a11.41,11.41,0,0,1-.33,3.91c-.33,1.43-.66,4-.06,5.06"/><path class="cls-2" d="M22.24,14.83a19.62,19.62,0,0,1,0,6.71"/><path class="cls-2" d="M21.8,23.58c-.33,1.32-.33,3.9.17,4.67"/><path class="cls-2" d="M19.77,18a10.8,10.8,0,0,1-.55,5.11,8.65,8.65,0,0,0-.17,5.39"/><path class="cls-2" d="M16.69,15.05a16.48,16.48,0,0,1,0,6.11"/><path class="cls-2" d="M16,23.74a9.43,9.43,0,0,0,.27,4.79"/><path class="cls-2" d="M14.1,17.09a13.62,13.62,0,0,1-.22,5.28,11.16,11.16,0,0,0-.38,4.4"/><path class="cls-2" d="M11.35,15.16a10.64,10.64,0,0,1,.28,4.46"/><path class="cls-2" d="M11.35,21.82a15.52,15.52,0,0,1-.27,1.87c-.22,1.26-.33,3.57.27,4.73"/><path class="cls-2" d="M9,17.42a22.28,22.28,0,0,1-.22,5.88,12.79,12.79,0,0,0,.16,4.95"/><path class="cls-2" d="M5.82,15a12.56,12.56,0,0,1,.83,4.56"/><path class="cls-2" d="M6,22.31c-.33,1.54-.55,4.51.39,6.05"/><path class="cls-2" d="M3.25,15.55c.61,2.69.94,3.9.55,5.83a12.58,12.58,0,0,0-.44,2.31"/><path class="cls-2" d="M3.09,25.83a26.77,26.77,0,0,1,.82,2.7"/><path class="cls-2" d="M1,16.48a12,12,0,0,1,.12,5.61,10.79,10.79,0,0,0,.33,6.11"/><path class="cls-2" d="M.46,31.44A8,8,0,0,1,.52,36c-.55,1.76-1,3.35,0,5.28"/><path class="cls-2" d="M3.21,30.34c.39,1.6.61,2.31.28,3.52s-.61,1.76-.72,2.37"/><path class="cls-2" d="M2.5,38a11,11,0,0,0,.44,3.74"/><path class="cls-2" d="M5.3,31.28c.5,2.09,1,3,.33,4.78s-1.15,3.08-.93,4.35"/><path class="cls-2" d="M7.39,30.23a10.16,10.16,0,0,1,.83,4.24"/><path class="cls-2" d="M7.83,36.89a12.23,12.23,0,0,0-.38,4.73"/><path class="cls-2" d="M9.43,31.28c.6,2,.93,2.8.49,4.62s-.88,3.74-.6,4.78"/><path class="cls-2" d="M11.74,30.51a18.41,18.41,0,0,1,.33,3.08"/><path class="cls-2" d="M12.07,36a8.14,8.14,0,0,1-.33,2,7.36,7.36,0,0,0,.11,3.52"/><path class="cls-2" d="M14.1,31.77c.61,2.53,1.05,3.8.66,5.23a10.23,10.23,0,0,0-.33,3.85"/><path class="cls-2" d="M16.52,32.05a8.24,8.24,0,0,0,.33,2.64,5.5,5.5,0,0,1,0,3.3,6.73,6.73,0,0,0-.16,3.24"/><path class="cls-2" d="M19.23,30.45a22.31,22.31,0,0,0,.39,3.63"/><path class="cls-2" d="M19.73,35.73a16.55,16.55,0,0,1-.28,2.75,8.09,8.09,0,0,0,.11,3.19"/><path class="cls-2" d="M24.08,30.12a8.92,8.92,0,0,1,.39,4.13"/><path class="cls-2" d="M24.14,36.23a15.72,15.72,0,0,0-.33,4.29A12.46,12.46,0,0,0,24.19,42"/><path class="cls-2" d="M26.78,31.5c.17,2.25.22,2.31-.22,4s-.71,3-.16,4.29"/><path class="cls-2" d="M28.37,37.77a11,11,0,0,0,.49,3.74"/><path class="cls-2" d="M29.36,30.4a7.86,7.86,0,0,1,.11,3c-.22,1.15-.5,1.81-.55,2.25"/><path class="cls-2" d="M31.4,31a10,10,0,0,1,.11,4.95,9.16,9.16,0,0,0,.33,5.28"/><path class="cls-2" d="M34,30.45a10.38,10.38,0,0,1,.39,3.63"/><path class="cls-2" d="M33.87,37.27a7.94,7.94,0,0,0,.06,3.47"/><path class="cls-2" d="M36.24,31.44c.5,2.15.77,2.86.5,4.73a14.79,14.79,0,0,0-.22,4.24"/><path class="cls-2" d="M38.94,30.45a11.23,11.23,0,0,1,.27,2.7"/><path class="cls-2" d="M39.27,35.84c-.22,1.32-1.32,3.47-.28,5.61"/><line class="cls-1" x1="-7.39" y1="0.65" x2="0.45" y2="0.65"/><line class="cls-1" x1="3.75" y1="0.65" x2="11.59" y2="0.65"/><line class="cls-1" x1="14.73" y1="0.65" x2="22.58" y2="0.65"/><line class="cls-1" x1="25.54" y1="0.65" x2="33.39" y2="0.65"/><line class="cls-1" x1="36.35" y1="0.65" x2="40.51" y2="0.65"/><path class="cls-2" d="M.75,1.53c.39,1.59.61,2.31.28,3.52S.42,6.81.31,7.41"/><path class="cls-2" d="M0,9.17a11,11,0,0,0,.44,3.74"/><path class="cls-2" d="M2.84,2.46c.5,2.09,1.05,3,.33,4.79S2,10.33,2.24,11.59"/><path class="cls-2" d="M4.93,1.42a10.15,10.15,0,0,1,.83,4.23"/><path class="cls-2" d="M5.37,8.07A12.23,12.23,0,0,0,5,12.8"/><path class="cls-2" d="M7,2.46c.6,2,.93,2.81.49,4.62s-.88,3.74-.6,4.79"/><path class="cls-2" d="M9.28,1.69a18.41,18.41,0,0,1,.33,3.08"/><path class="cls-2" d="M9.61,7.14a8.06,8.06,0,0,1-.33,2,7.36,7.36,0,0,0,.11,3.52"/><path class="cls-2" d="M11.64,3c.61,2.53,1,3.79.66,5.22A10.23,10.23,0,0,0,12,12"/><path class="cls-2" d="M14.06,3.23a8.21,8.21,0,0,0,.33,2.64,5.51,5.51,0,0,1,0,3.3,6.77,6.77,0,0,0-.16,3.25"/><path class="cls-2" d="M16.21,1.64a23.69,23.69,0,0,0,.38,3.63"/><path class="cls-2" d="M16.7,6.92a15.61,15.61,0,0,1-.27,2.75,7.92,7.92,0,0,0,.11,3.19"/><path class="cls-2" d="M18.08,4a13.09,13.09,0,0,1,.49,5.56"/><path class="cls-2" d="M20.77,1.31a8.87,8.87,0,0,1,.39,4.12"/><path class="cls-2" d="M20.83,7.41a15.77,15.77,0,0,0-.33,4.29,12.39,12.39,0,0,0,.38,1.49"/><path class="cls-2" d="M23.93,2.68c.16,2.26.22,2.31-.22,4s-.72,3-.17,4.29"/><path class="cls-2" d="M25.74,9a10.88,10.88,0,0,0,.5,3.74"/><path class="cls-2" d="M26.73,1.58a7.67,7.67,0,0,1,.11,3c-.22,1.16-.49,1.82-.55,2.26"/><path class="cls-2" d="M28.88,2.13a9.86,9.86,0,0,1,.11,5,9.15,9.15,0,0,0,.33,5.28"/><path class="cls-2" d="M31.52,1.64a10.36,10.36,0,0,1,.39,3.63"/><path class="cls-2" d="M31.41,8.46a7.89,7.89,0,0,0,.06,3.46"/><path class="cls-2" d="M34,2.63c.5,2.14.77,2.86.5,4.73a14.72,14.72,0,0,0-.22,4.23"/><path class="cls-2" d="M36.76,1.64A10.77,10.77,0,0,1,37,4.33"/><path class="cls-2" d="M37.09,7c-.22,1.32-1.32,3.46-.27,5.61"/><path class="cls-2" d="M39,2.74a11.49,11.49,0,0,1,0,4.34,9.37,9.37,0,0,0,.17,4.79"/><path class="cls-2" d="M.89,45C1,46.9,1.22,47.34.56,49A7.22,7.22,0,0,0,0,53.28"/><path class="cls-2" d="M2.8,44.26a5.54,5.54,0,0,1,.5,2.58"/><path class="cls-2" d="M3.08,48.38A11,11,0,0,0,2,52.79"/><path class="cls-2" d="M5.33,44.81c.49,2,.55,2.86,0,4.34A7.23,7.23,0,0,0,5,53.44"/><path class="cls-2" d="M7.19,43.93a10.35,10.35,0,0,1,.61,3.19"/><path class="cls-2" d="M7.52,49.54a18.84,18.84,0,0,1-.47,3.25"/><path class="cls-2" d="M9.9,44.37c.49,2,.66,3,.16,4.29A8.58,8.58,0,0,0,9.62,53"/><path class="cls-2" d="M11.87,44.15a7.84,7.84,0,0,1,.33,3.3"/><path class="cls-2" d="M11.65,50a6.9,6.9,0,0,0-.05,2.59"/><path class="cls-2" d="M14.44,43.55a6.71,6.71,0,0,1-.22,4.18A14.3,14.3,0,0,0,14,53.45"/><path class="cls-2" d="M16.54,44.09A5.56,5.56,0,0,1,16.82,47"/><path class="cls-2" d="M16,50a6.92,6.92,0,0,0-.33,3.14"/><path class="cls-2" d="M18.46,44.59a6.37,6.37,0,0,1,.06,4.18,10,10,0,0,0-.39,4.62"/><path class="cls-2" d="M20.43,44.42A9.9,9.9,0,0,1,20.81,47"/><path class="cls-2" d="M20.43,49.15a10.85,10.85,0,0,0-.23,4.14"/><path class="cls-2" d="M23,44.7c.44,2.36.49,3.35-.17,4.78a6.5,6.5,0,0,0-.49,4.35"/><path class="cls-2" d="M25.21,44.15a3.39,3.39,0,0,1,.55,2.58"/><path class="cls-2" d="M24.94,49.43a6.29,6.29,0,0,0-.28,3"/><path class="cls-2" d="M27.63,44.42a5.05,5.05,0,0,1,0,4.62c-.71,2-1.15,3.63-.88,4.73"/><path class="cls-2" d="M29.94,44a7.69,7.69,0,0,1,.39,2.53"/><path class="cls-2" d="M29.84,49a17.1,17.1,0,0,1-.8,4.31"/><path class="cls-2" d="M31.92,44a17.49,17.49,0,0,0,.61,2.36,4.66,4.66,0,0,1-.33,3.52,5.51,5.51,0,0,0-.39,2.59"/><path class="cls-2" d="M35,44.7a8.47,8.47,0,0,1,.27,3.9,16.41,16.41,0,0,0-.71,4.79"/><path class="cls-2" d="M37.7,43.87a9.26,9.26,0,0,1,.38,2.31"/><path class="cls-2" d="M37.86,47.83A12.28,12.28,0,0,0,37.31,50a15.58,15.58,0,0,0,.06,3.31"/><path class="cls-2" d="M40,44.37a6.57,6.57,0,0,1-.16,2.91,15.9,15.9,0,0,0-.11,5.83"/><path class="cls-2" d="M21.54,31.45c.16,2,.66,2.34.33,4.84S21.2,40,21.54,41"/><rect class="cls-3" x="-13.6" width="54.13" height="54.13"/><rect class="cls-3" y="42.94" width="54.12" height="54.13"/></svg>