<svg id="Layer_1" data-name="Layer 1" xmlns="http://www.w3.org/2000/svg" width="85.88" height="85.88" viewBox="0 0 85.88 85.88"><defs><style>.cls-1,.cls-2{fill:none;}.cls-2{stroke:#000;stroke-width:0.3px;}</style></defs><title>Artboard 37</title><rect class="cls-1" x="70.45" y="-55.13" width="85.88" height="85.88"/><line class="cls-2" x1="73.23" y1="1.47" x2="74.35" y2="5.09"/><line class="cls-2" x1="74.98" y1="8.09" x2="71.98" y2="10.47"/><line class="cls-2" x1="74.99" y1="13.75" x2="74.61" y2="17.38"/><line class="cls-2" x1="72.23" y1="20.59" x2="75.1" y2="22.59"/><line class="cls-2" x1="72.6" y1="26.34" x2="70.98" y2="29.34"/><line class="cls-2" x1="79.06" y1="30.57" x2="77.94" y2="27.07"/><line class="cls-2" x1="84.08" y1="28.78" x2="87.21" y2="26.66"/><line class="cls-2" x1="79.1" y1="22.72" x2="82.48" y2="22.09"/><line class="cls-2" x1="83.1" y1="15.47" x2="80.45" y2="18.13"/><line class="cls-2" x1="77.23" y1="12.73" x2="80.85" y2="12.85"/><line class="cls-2" x1="81.35" y1="2.22" x2="77.23" y2="2.47"/><line class="cls-2" x1="81.85" y1="5.34" x2="79.85" y2="8.34"/><line class="cls-2" x1="84.85" y1="8.97" x2="87.35" y2="10.97"/><line class="cls-2" x1="84.85" y1="1.34" x2="85.98" y2="5.09"/><line class="cls-2" x1="85.48" y1="18.97" x2="87.85" y2="22.09"/><rect class="cls-1" x="70.45" y="30.75" width="85.88" height="85.88"/><line class="cls-2" x1="79.82" y1="38.72" x2="82.07" y2="41.34"/><line class="cls-2" x1="79.95" y1="34.97" x2="83.32" y2="35.09"/><line class="cls-2" x1="87.32" y1="37.09" x2="85.2" y2="39.84"/><line class="cls-2" x1="76.7" y1="35.35" x2="74.32" y2="37.85"/><line class="cls-2" x1="74.2" y1="40.59" x2="78.2" y2="41.72"/><line class="cls-2" x1="73.2" y1="44.34" x2="74.32" y2="47.97"/><line class="cls-2" x1="74.95" y1="50.97" x2="71.95" y2="53.34"/><line class="cls-2" x1="74.95" y1="56.62" x2="74.58" y2="60.25"/><line class="cls-2" x1="72.2" y1="63.47" x2="75.07" y2="65.47"/><line class="cls-2" x1="72.57" y1="69.22" x2="70.95" y2="72.22"/><line class="cls-2" x1="70.82" y1="31.84" x2="74.07" y2="32.59"/><line class="cls-2" x1="78.95" y1="72.84" x2="77.82" y2="69.34"/><line class="cls-2" x1="82.53" y1="73.26" x2="85.65" y2="71.13"/><line class="cls-2" x1="79.07" y1="65.59" x2="82.45" y2="64.97"/><line class="cls-2" x1="77.2" y1="54.47" x2="80.82" y2="54.59"/><line class="cls-2" x1="81.32" y1="45.09" x2="77.2" y2="45.34"/><line class="cls-2" x1="81.82" y1="48.22" x2="79.82" y2="51.22"/><line class="cls-2" x1="84.82" y1="51.84" x2="87.32" y2="53.84"/><line class="cls-2" x1="84.82" y1="44.22" x2="85.95" y2="47.97"/><line class="cls-2" x1="85.61" y1="63.01" x2="87.99" y2="66.13"/><line class="cls-2" x1="79.38" y1="58.63" x2="82.63" y2="60.01"/><line class="cls-2" x1="79.85" y1="81.72" x2="82.1" y2="84.34"/><line class="cls-2" x1="79.98" y1="77.97" x2="83.35" y2="78.09"/><line class="cls-2" x1="87.35" y1="80.09" x2="85.23" y2="82.84"/><line class="cls-2" x1="76.73" y1="77.22" x2="74.35" y2="79.72"/><line class="cls-2" x1="74.23" y1="83.59" x2="78.23" y2="84.72"/><line class="cls-2" x1="70.85" y1="74.84" x2="74.1" y2="75.59"/><rect class="cls-1" x="-15.43" y="-55.13" width="85.88" height="85.88"/><line class="cls-2" x1="27.1" y1="-1.28" x2="24.98" y2="1.34"/><line class="cls-2" x1="23.6" y1="5.09" x2="26.98" y2="6.22"/><line class="cls-2" x1="19.65" y1="1.73" x2="15.69" y2="2.9"/><line class="cls-2" x1="15.85" y1="5.84" x2="12.98" y2="7.22"/><line class="cls-2" x1="19.85" y1="6.97" x2="18.85" y2="10.34"/><line class="cls-2" x1="24.6" y1="10.09" x2="26.35" y2="12.84"/><line class="cls-2" x1="26.6" y1="17.47" x2="23.85" y2="19.09"/><line class="cls-2" x1="22.1" y1="14.72" x2="18.6" y2="14.22"/><line class="cls-2" x1="23.48" y1="23.72" x2="27.1" y2="23.97"/><line class="cls-2" x1="22.86" y1="27.23" x2="24.11" y2="30.23"/><line class="cls-2" x1="-1.79" y1="28.78" x2="1.33" y2="26.66"/><line class="cls-2" x1="-1.02" y1="8.97" x2="1.48" y2="10.97"/><line class="cls-2" x1="-1.02" y1="1.34" x2="0.1" y2="5.09"/><line class="cls-2" x1="2.85" y1="0.34" x2="5.99" y2="2.02"/><line class="cls-2" x1="10.94" y1="1.21" x2="9.08" y2="4.32"/><line class="cls-2" x1="4.42" y1="4.04" x2="3.48" y2="7.72"/><line class="cls-2" x1="6.6" y1="9.97" x2="9.98" y2="9.47"/><line class="cls-2" x1="12.73" y1="10.84" x2="15.98" y2="12.84"/><line class="cls-2" x1="14.6" y1="17.2" x2="12.48" y2="20.07"/><line class="cls-2" x1="19.6" y1="22.59" x2="18.1" y2="19.34"/><line class="cls-2" x1="16.13" y1="29.41" x2="18.88" y2="26.28"/><line class="cls-2" x1="14.98" y1="24.07" x2="10.98" y2="24.07"/><line class="cls-2" x1="11.08" y1="29.78" x2="9.33" y2="26.78"/><line class="cls-2" x1="4.35" y1="28.45" x2="5.47" y2="25.33"/><line class="cls-2" x1="4.96" y1="19.32" x2="8.21" y2="20.7"/><line class="cls-2" x1="8.6" y1="17.14" x2="9.87" y2="13.61"/><line class="cls-2" x1="4.48" y1="12.97" x2="1.35" y2="15.09"/><line class="cls-2" x1="-0.4" y1="18.97" x2="1.98" y2="22.09"/><line class="cls-2" x1="70.16" y1="-1.31" x2="68.04" y2="1.31"/><line class="cls-2" x1="66.66" y1="5.06" x2="70.04" y2="6.19"/><line class="cls-2" x1="62.79" y1="2.31" x2="58.66" y2="2.19"/><line class="cls-2" x1="58.91" y1="5.81" x2="56.04" y2="7.19"/><line class="cls-2" x1="62.91" y1="6.94" x2="61.91" y2="10.31"/><line class="cls-2" x1="67.66" y1="10.06" x2="69.41" y2="12.81"/><line class="cls-2" x1="69.66" y1="17.44" x2="66.91" y2="19.06"/><line class="cls-2" x1="65.16" y1="14.69" x2="61.66" y2="14.19"/><line class="cls-2" x1="66.54" y1="23.69" x2="70.16" y2="23.94"/><line class="cls-2" x1="66.13" y1="27.03" x2="67.38" y2="30.03"/><line class="cls-2" x1="30.41" y1="1.44" x2="31.54" y2="5.06"/><line class="cls-2" x1="32.16" y1="8.06" x2="29.16" y2="10.44"/><line class="cls-2" x1="32.17" y1="13.72" x2="31.8" y2="17.34"/><line class="cls-2" x1="29.41" y1="20.56" x2="32.29" y2="22.56"/><line class="cls-2" x1="29.79" y1="26.31" x2="28.16" y2="29.31"/><line class="cls-2" x1="36.29" y1="30.46" x2="35.16" y2="26.96"/><line class="cls-2" x1="41.1" y1="29.64" x2="44.23" y2="27.52"/><line class="cls-2" x1="36.29" y1="22.69" x2="39.66" y2="22.06"/><line class="cls-2" x1="39.44" y1="15.44" x2="36.69" y2="18.01"/><line class="cls-2" x1="34.41" y1="11.56" x2="38.04" y2="11.69"/><line class="cls-2" x1="38.54" y1="2.19" x2="34.41" y2="2.44"/><line class="cls-2" x1="39.04" y1="5.31" x2="37.04" y2="8.31"/><line class="cls-2" x1="42.04" y1="8.94" x2="44.54" y2="10.94"/><line class="cls-2" x1="42.04" y1="1.31" x2="43.16" y2="5.06"/><line class="cls-2" x1="45.91" y1="0.31" x2="49.41" y2="0.94"/><line class="cls-2" x1="52.94" y1="0.33" x2="53.98" y2="3.81"/><line class="cls-2" x1="49.16" y1="4.94" x2="46.54" y2="7.69"/><line class="cls-2" x1="49.66" y1="9.94" x2="53.04" y2="9.44"/><line class="cls-2" x1="55.79" y1="10.81" x2="59.04" y2="12.81"/><line class="cls-2" x1="57.66" y1="16.31" x2="55.54" y2="19.19"/><line class="cls-2" x1="62.66" y1="22.56" x2="61.16" y2="19.31"/><line class="cls-2" x1="59.12" y1="28.89" x2="61.87" y2="25.77"/><line class="cls-2" x1="57.81" y1="24.09" x2="54.27" y2="22.23"/><line class="cls-2" x1="54.12" y1="30.42" x2="52.37" y2="27.42"/><line class="cls-2" x1="47.91" y1="26.81" x2="49.04" y2="23.69"/><line class="cls-2" x1="47.66" y1="18.06" x2="50.91" y2="19.44"/><line class="cls-2" x1="50.46" y1="16.14" x2="53.81" y2="14.45"/><line class="cls-2" x1="47.54" y1="12.94" x2="44.41" y2="15.06"/><line class="cls-2" x1="42.75" y1="20.14" x2="45.12" y2="23.27"/><rect class="cls-1" x="-15.43" y="30.75" width="85.88" height="85.88"/><line class="cls-2" x1="4.95" y1="38.15" x2="7.63" y2="40.2"/><line class="cls-2" x1="1.45" y1="37.09" x2="-0.68" y2="39.84"/><line class="cls-2" x1="3.07" y1="34.34" x2="0.32" y2="32.59"/><line class="cls-2" x1="8.32" y1="31.59" x2="6.07" y2="33.09"/><line class="cls-2" x1="9.95" y1="34.97" x2="10.07" y2="38.09"/><line class="cls-2" x1="13.32" y1="32.4" x2="15.82" y2="33.65"/><line class="cls-2" x1="19.7" y1="34.03" x2="21.7" y2="31.66"/><line class="cls-2" x1="24.45" y1="34.97" x2="27.2" y2="37.22"/><line class="cls-2" x1="20.32" y1="38.59" x2="20.95" y2="41.59"/><line class="cls-2" x1="16.07" y1="38.59" x2="13.57" y2="41.22"/><line class="cls-2" x1="27.07" y1="41.59" x2="24.95" y2="44.22"/><line class="cls-2" x1="23.57" y1="47.97" x2="26.95" y2="49.09"/><line class="cls-2" x1="19.27" y1="46.31" x2="15.97" y2="43.83"/><line class="cls-2" x1="15.82" y1="48.72" x2="12.95" y2="50.09"/><line class="cls-2" x1="19.82" y1="49.84" x2="18.82" y2="53.22"/><line class="cls-2" x1="24.57" y1="52.97" x2="26.32" y2="55.72"/><line class="cls-2" x1="26.57" y1="60.34" x2="23.82" y2="61.97"/><line class="cls-2" x1="22.07" y1="57.59" x2="18.57" y2="57.09"/><line class="cls-2" x1="23.45" y1="66.59" x2="27.07" y2="66.84"/><line class="cls-2" x1="21.97" y1="68.58" x2="23.22" y2="71.58"/><line class="cls-2" x1="-1.05" y1="51.84" x2="1.45" y2="53.84"/><line class="cls-2" x1="-1.05" y1="44.22" x2="0.07" y2="47.97"/><line class="cls-2" x1="10.67" y1="65.72" x2="14.43" y2="66.79"/><line class="cls-2" x1="3.03" y1="42.5" x2="6.32" y2="43.84"/><line class="cls-2" x1="10.2" y1="43.84" x2="11.78" y2="47.11"/><line class="cls-2" x1="6.07" y1="47.84" x2="3.45" y2="50.59"/><line class="cls-2" x1="6.57" y1="52.84" x2="9.95" y2="52.34"/><line class="cls-2" x1="12.7" y1="53.72" x2="15.95" y2="55.72"/><line class="cls-2" x1="14.57" y1="59.22" x2="12.45" y2="62.09"/><line class="cls-2" x1="19.57" y1="65.47" x2="18.07" y2="62.22"/><line class="cls-2" x1="16.14" y1="72.51" x2="18.89" y2="69.38"/><line class="cls-2" x1="10.95" y1="71.72" x2="9.2" y2="68.72"/><line class="cls-2" x1="4.78" y1="71.6" x2="5.9" y2="68.47"/><line class="cls-2" x1="4.57" y1="62.38" x2="7.82" y2="63.76"/><line class="cls-2" x1="8.44" y1="60.56" x2="9.74" y2="57.04"/><line class="cls-2" x1="4.45" y1="55.84" x2="1.32" y2="57.97"/><line class="cls-2" x1="-0.26" y1="63.01" x2="2.11" y2="66.13"/><line class="cls-2" x1="36.98" y1="38.72" x2="39.23" y2="41.34"/><line class="cls-2" x1="37.11" y1="34.97" x2="40.48" y2="35.09"/><line class="cls-2" x1="47.98" y1="38.15" x2="50.67" y2="40.2"/><line class="cls-2" x1="44.48" y1="37.09" x2="42.36" y2="39.84"/><line class="cls-2" x1="46.11" y1="34.34" x2="43.36" y2="32.59"/><line class="cls-2" x1="51.36" y1="31.59" x2="49.11" y2="33.09"/><line class="cls-2" x1="52.98" y1="34.97" x2="53.11" y2="38.09"/><line class="cls-2" x1="56.36" y1="32.4" x2="58.86" y2="33.65"/><line class="cls-2" x1="62.73" y1="34.03" x2="64.73" y2="31.66"/><line class="cls-2" x1="67.48" y1="34.97" x2="70.23" y2="37.22"/><line class="cls-2" x1="63.36" y1="38.59" x2="63.98" y2="41.59"/><line class="cls-2" x1="59.11" y1="38.59" x2="56.61" y2="41.22"/><line class="cls-2" x1="70.11" y1="41.59" x2="67.98" y2="44.22"/><line class="cls-2" x1="66.61" y1="47.97" x2="69.98" y2="49.09"/><line class="cls-2" x1="62.73" y1="45.22" x2="58.61" y2="45.09"/><line class="cls-2" x1="58.86" y1="48.72" x2="55.98" y2="50.09"/><line class="cls-2" x1="62.86" y1="49.84" x2="61.86" y2="53.22"/><line class="cls-2" x1="67.61" y1="52.97" x2="69.36" y2="55.72"/><line class="cls-2" x1="69.61" y1="60.34" x2="66.86" y2="61.97"/><line class="cls-2" x1="65.11" y1="57.59" x2="61.61" y2="57.09"/><line class="cls-2" x1="66.48" y1="66.59" x2="70.11" y2="66.84"/><line class="cls-2" x1="65.01" y1="68.58" x2="66.26" y2="71.58"/><line class="cls-2" x1="33.86" y1="34.22" x2="31.48" y2="36.72"/><line class="cls-2" x1="31.36" y1="40.59" x2="35.36" y2="41.72"/><line class="cls-2" x1="30.36" y1="44.34" x2="31.48" y2="47.97"/><line class="cls-2" x1="32.11" y1="50.97" x2="29.11" y2="53.34"/><line class="cls-2" x1="31.55" y1="58.04" x2="33.24" y2="61.27"/><line class="cls-2" x1="29.36" y1="63.47" x2="32.23" y2="65.47"/><line class="cls-2" x1="31.43" y1="69.22" x2="29.81" y2="72.22"/><line class="cls-2" x1="27.98" y1="31.84" x2="31.23" y2="32.59"/><line class="cls-2" x1="36.96" y1="74.26" x2="35.83" y2="70.76"/><line class="cls-2" x1="40.86" y1="70.97" x2="43.98" y2="68.84"/><line class="cls-2" x1="36.23" y1="65.59" x2="39.61" y2="64.97"/><line class="cls-2" x1="39.1" y1="58.34" x2="38.1" y2="61.97"/><line class="cls-2" x1="34.52" y1="55.34" x2="37.87" y2="53.93"/><line class="cls-2" x1="38.48" y1="45.09" x2="34.36" y2="45.34"/><line class="cls-2" x1="38.98" y1="48.22" x2="36.98" y2="51.22"/><line class="cls-2" x1="41.98" y1="51.84" x2="44.48" y2="53.84"/><line class="cls-2" x1="41.98" y1="44.22" x2="43.11" y2="47.97"/><line class="cls-2" x1="45.9" y1="44" x2="49.35" y2="43.12"/><line class="cls-2" x1="53.93" y1="44.08" x2="52.09" y2="47.21"/><line class="cls-2" x1="49.11" y1="47.84" x2="46.48" y2="50.59"/><line class="cls-2" x1="49.61" y1="52.84" x2="52.98" y2="52.34"/><line class="cls-2" x1="55.73" y1="53.72" x2="58.98" y2="55.72"/><line class="cls-2" x1="58.8" y1="59.49" x2="56.67" y2="62.36"/><line class="cls-2" x1="62.61" y1="65.47" x2="61.11" y2="62.22"/><line class="cls-2" x1="59.46" y1="72.22" x2="62.21" y2="69.1"/><line class="cls-2" x1="57.98" y1="66.09" x2="53.98" y2="66.09"/><line class="cls-2" x1="53.98" y1="71.72" x2="52.23" y2="68.72"/><line class="cls-2" x1="47.95" y1="71.97" x2="49.07" y2="68.84"/><line class="cls-2" x1="48.95" y1="62.97" x2="52.2" y2="64.34"/><line class="cls-2" x1="53.06" y1="60.42" x2="51.36" y2="57.07"/><line class="cls-2" x1="47.48" y1="55.84" x2="44.36" y2="57.97"/><line class="cls-2" x1="42.61" y1="61.84" x2="44.98" y2="64.97"/><line class="cls-2" x1="4.98" y1="81.16" x2="7.67" y2="83.2"/><line class="cls-2" x1="1.48" y1="80.09" x2="-0.65" y2="82.84"/><line class="cls-2" x1="3.1" y1="76.49" x2="0.35" y2="74.74"/><line class="cls-2" x1="8.35" y1="74.59" x2="6.1" y2="76.09"/><line class="cls-2" x1="11.11" y1="77.97" x2="9.48" y2="80.63"/><line class="cls-2" x1="13.35" y1="75.4" x2="15.85" y2="76.65"/><line class="cls-2" x1="19.73" y1="77.04" x2="21.73" y2="74.66"/><line class="cls-2" x1="24.48" y1="77.97" x2="27.23" y2="80.22"/><line class="cls-2" x1="20.35" y1="81.59" x2="20.98" y2="84.59"/><line class="cls-2" x1="16.1" y1="81.59" x2="13.6" y2="84.22"/><line class="cls-2" x1="27.1" y1="84.59" x2="24.98" y2="87.22"/><line class="cls-2" x1="37.04" y1="81.69" x2="39.29" y2="84.31"/><line class="cls-2" x1="37.16" y1="77.94" x2="40.54" y2="78.06"/><line class="cls-2" x1="48.04" y1="81.12" x2="50.73" y2="83.17"/><line class="cls-2" x1="44.54" y1="80.06" x2="42.41" y2="82.81"/><line class="cls-2" x1="46.16" y1="76.18" x2="43.41" y2="74.43"/><line class="cls-2" x1="51.41" y1="74.56" x2="49.16" y2="76.06"/><line class="cls-2" x1="54.67" y1="78.32" x2="53.16" y2="81.06"/><line class="cls-2" x1="56.41" y1="75.37" x2="58.91" y2="76.62"/><line class="cls-2" x1="62.79" y1="77" x2="64.79" y2="74.63"/><line class="cls-2" x1="67.54" y1="77.94" x2="70.29" y2="80.19"/><line class="cls-2" x1="63.41" y1="81.56" x2="64.04" y2="84.56"/><line class="cls-2" x1="59.16" y1="81.56" x2="56.66" y2="84.19"/><line class="cls-2" x1="70.16" y1="84.56" x2="68.04" y2="87.19"/><line class="cls-2" x1="33.91" y1="77.19" x2="31.54" y2="79.69"/><line class="cls-2" x1="31.41" y1="83.56" x2="35.41" y2="84.69"/><line class="cls-2" x1="28.04" y1="74.81" x2="31.29" y2="75.56"/><rect class="cls-1" width="85.87" height="85.88"/></svg>