<svg id="Layer_1" data-name="Layer 1" xmlns="http://www.w3.org/2000/svg" width="54" height="54" viewBox="0 0 54 54"><defs><style>.cls-1,.cls-2,.cls-3,.cls-4,.cls-5,.cls-6{fill:none;}.cls-2,.cls-3,.cls-4,.cls-5,.cls-6{stroke:#000;stroke-linecap:round;}.cls-2{stroke-width:0.6px;}.cls-3{stroke-width:0.8px;}.cls-4{stroke-width:0.9px;}.cls-5{stroke-width:0.7px;}.cls-6{stroke-width:0.65px;}</style></defs><title>Artboard 37</title><rect class="cls-1" x="7.93" y="-25.71" width="54" height="54"/><line class="cls-2" x1="43.01" y1="0.29" x2="43.01" y2="0.29"/><line class="cls-2" x1="48.01" y1="0.04" x2="48.01" y2="0.04"/><line class="cls-2" x1="52.93" y1="0.13" x2="52.93" y2="0.13"/><line class="cls-2" x1="50.1" y1="1.46" x2="50.1" y2="1.46"/><line class="cls-2" x1="48.1" y1="4.13" x2="48.1" y2="4.13"/><line class="cls-2" x1="47.64" y1="6.54" x2="47.64" y2="6.54"/><line class="cls-2" x1="51.14" y1="7.79" x2="51.14" y2="7.79"/><line class="cls-2" x1="53.64" y1="5.17" x2="53.64" y2="5.17"/><line class="cls-2" x1="54.01" y1="7.79" x2="54.01" y2="7.79"/><line class="cls-2" x1="53.89" y1="19.67" x2="53.89" y2="19.67"/><line class="cls-2" x1="51.14" y1="19.67" x2="51.14" y2="19.67"/><line class="cls-2" x1="43.76" y1="27.79" x2="43.76" y2="27.79"/><line class="cls-2" x1="51.89" y1="24.79" x2="51.89" y2="24.79"/><line class="cls-2" x1="49.26" y1="22.67" x2="49.26" y2="22.67"/><line class="cls-2" x1="48.89" y1="25.29" x2="48.89" y2="25.29"/><line class="cls-2" x1="48.01" y1="27.54" x2="48.01" y2="27.54"/><line class="cls-2" x1="46.51" y1="24.04" x2="46.51" y2="24.04"/><line class="cls-2" x1="45.76" y1="26.17" x2="45.76" y2="26.17"/><line class="cls-2" x1="51.76" y1="27.04" x2="51.76" y2="27.04"/><line class="cls-2" x1="52.64" y1="21.92" x2="52.64" y2="21.92"/><line class="cls-2" x1="17.51" y1="11.04" x2="17.51" y2="11.04"/><line class="cls-2" x1="53.14" y1="10.42" x2="53.14" y2="10.42"/><line class="cls-2" x1="49.26" y1="10.92" x2="49.26" y2="10.92"/><line class="cls-2" x1="48.01" y1="8.67" x2="48.01" y2="8.67"/><line class="cls-2" x1="44.89" y1="12.92" x2="44.89" y2="12.92"/><line class="cls-2" x1="52.64" y1="12.92" x2="52.64" y2="12.92"/><line class="cls-2" x1="49.89" y1="13.67" x2="49.89" y2="13.67"/><line class="cls-2" x1="49.51" y1="16.42" x2="49.51" y2="16.42"/><line class="cls-2" x1="47.51" y1="14.79" x2="47.51" y2="14.79"/><line class="cls-2" x1="46.51" y1="17.42" x2="46.51" y2="17.42"/><line class="cls-2" x1="43.64" y1="15.54" x2="43.64" y2="15.54"/><line class="cls-2" x1="43.76" y1="18.29" x2="43.76" y2="18.29"/><line class="cls-2" x1="42.01" y1="13.17" x2="42.01" y2="13.17"/><line class="cls-2" x1="43.64" y1="10.54" x2="43.64" y2="10.54"/><line class="cls-2" x1="40.89" y1="10.42" x2="40.89" y2="10.42"/><line class="cls-2" x1="42.14" y1="7.92" x2="42.14" y2="7.92"/><line class="cls-2" x1="43.89" y1="5.92" x2="43.89" y2="5.92"/><line class="cls-2" x1="40.89" y1="4.79" x2="40.89" y2="4.79"/><line class="cls-2" x1="43.14" y1="3.42" x2="43.14" y2="3.42"/><line class="cls-2" x1="40.76" y1="1.67" x2="40.76" y2="1.67"/><line class="cls-2" x1="38.26" y1="3.04" x2="38.26" y2="3.04"/><line class="cls-2" x1="35.14" y1="1.17" x2="35.14" y2="1.17"/><line class="cls-2" x1="31.39" y1="0.92" x2="31.39" y2="0.92"/><line class="cls-2" x1="27.76" y1="0.92" x2="27.76" y2="0.92"/><line class="cls-2" x1="26.26" y1="3.17" x2="26.26" y2="3.17"/><line class="cls-2" x1="29.76" y1="3.04" x2="29.76" y2="3.04"/><line class="cls-2" x1="28.14" y1="5.04" x2="28.14" y2="5.04"/><line class="cls-2" x1="33.39" y1="3.17" x2="33.39" y2="3.17"/><line class="cls-2" x1="31.64" y1="5.17" x2="31.64" y2="5.17"/><line class="cls-2" x1="35.39" y1="4.79" x2="35.39" y2="4.79"/><line class="cls-2" x1="38.14" y1="6.29" x2="38.14" y2="6.29"/><line class="cls-2" x1="35.51" y1="7.04" x2="35.51" y2="7.04"/><line class="cls-2" x1="38.39" y1="8.67" x2="38.39" y2="8.67"/><line class="cls-2" x1="35.76" y1="9.54" x2="35.76" y2="9.54"/><line class="cls-2" x1="38.14" y1="11.29" x2="38.14" y2="11.29"/><line class="cls-2" x1="24.51" y1="-0.02" x2="24.51" y2="-0.02"/><line class="cls-2" x1="22.95" y1="2.79" x2="22.95" y2="2.79"/><line class="cls-2" x1="20.7" y1="1.42" x2="20.7" y2="1.42"/><line class="cls-2" x1="19.64" y1="3.29" x2="19.64" y2="3.29"/><line class="cls-2" x1="21.14" y1="5.17" x2="21.14" y2="5.17"/><line class="cls-2" x1="24.51" y1="5.42" x2="24.51" y2="5.42"/><line class="cls-2" x1="23.01" y1="7.42" x2="23.01" y2="7.42"/><line class="cls-2" x1="26.39" y1="7.29" x2="26.39" y2="7.29"/><line class="cls-2" x1="25.14" y1="9.79" x2="25.14" y2="9.79"/><line class="cls-2" x1="29.51" y1="6.92" x2="29.51" y2="6.92"/><line class="cls-2" x1="32.76" y1="7.92" x2="32.76" y2="7.92"/><line class="cls-2" x1="30.26" y1="9.29" x2="30.26" y2="9.29"/><line class="cls-2" x1="27.51" y1="10.67" x2="27.51" y2="10.67"/><line class="cls-2" x1="31.51" y1="11.29" x2="31.51" y2="11.29"/><line class="cls-2" x1="29.14" y1="12.67" x2="29.14" y2="12.67"/><line class="cls-2" x1="25.64" y1="12.67" x2="25.64" y2="12.67"/><line class="cls-2" x1="27.76" y1="14.67" x2="27.76" y2="14.67"/><line class="cls-2" x1="24.76" y1="15.67" x2="24.76" y2="15.67"/><line class="cls-2" x1="22.39" y1="14.42" x2="22.39" y2="14.42"/><line class="cls-2" x1="35.39" y1="13.04" x2="35.39" y2="13.04"/><line class="cls-2" x1="39.01" y1="13.67" x2="39.01" y2="13.67"/><line class="cls-2" x1="36.89" y1="14.92" x2="36.89" y2="14.92"/><line class="cls-2" x1="40.76" y1="16.04" x2="40.76" y2="16.04"/><line class="cls-2" x1="40.51" y1="18.42" x2="40.51" y2="18.42"/><line class="cls-2" x1="42.51" y1="20.92" x2="42.51" y2="20.92"/><line class="cls-2" x1="45.76" y1="20.17" x2="45.76" y2="20.17"/><line class="cls-2" x1="41.1" y1="23.13" x2="41.1" y2="23.13"/><line class="cls-2" x1="39.14" y1="21.29" x2="39.14" y2="21.29"/><line class="cls-2" x1="37.64" y1="17.54" x2="37.64" y2="17.54"/><line class="cls-2" x1="34.76" y1="16.29" x2="34.76" y2="16.29"/><line class="cls-2" x1="35.89" y1="19.42" x2="35.89" y2="19.42"/><line class="cls-2" x1="36.51" y1="22.17" x2="36.51" y2="22.17"/><line class="cls-2" x1="38.39" y1="24.36" x2="38.39" y2="24.36"/><line class="cls-2" x1="42.45" y1="25.23" x2="42.45" y2="25.23"/><line class="cls-2" x1="37.39" y1="26.54" x2="37.39" y2="26.54"/><line class="cls-2" x1="35.01" y1="25.17" x2="35.01" y2="25.17"/><line class="cls-2" x1="32.14" y1="23.17" x2="32.14" y2="23.17"/><line class="cls-2" x1="31.89" y1="19.79" x2="31.89" y2="19.79"/><line class="cls-2" x1="29.76" y1="21.92" x2="29.76" y2="21.92"/><line class="cls-2" x1="30.01" y1="24.42" x2="30.01" y2="24.42"/><line class="cls-2" x1="32.6" y1="27.13" x2="32.6" y2="27.13"/><line class="cls-2" x1="29.64" y1="26.79" x2="29.64" y2="26.79"/><line class="cls-2" x1="27.14" y1="25.42" x2="27.14" y2="25.42"/><line class="cls-2" x1="24.89" y1="27.42" x2="24.89" y2="27.42"/><line class="cls-2" x1="27.39" y1="17.67" x2="27.39" y2="17.67"/><line class="cls-2" x1="26.39" y1="20.04" x2="26.39" y2="20.04"/><line class="cls-2" x1="23.89" y1="18.29" x2="23.89" y2="18.29"/><line class="cls-2" x1="21.26" y1="16.54" x2="21.26" y2="16.54"/><line class="cls-2" x1="19.64" y1="13.54" x2="19.64" y2="13.54"/><line class="cls-2" x1="19.89" y1="9.79" x2="19.89" y2="9.79"/><line class="cls-2" x1="17.51" y1="8.04" x2="17.51" y2="8.04"/><line class="cls-2" x1="15.01" y1="9.17" x2="15.01" y2="9.17"/><line class="cls-2" x1="15.26" y1="5.54" x2="15.26" y2="5.54"/><line class="cls-2" x1="12.89" y1="6.79" x2="12.89" y2="6.79"/><line class="cls-2" x1="11.14" y1="3.92" x2="11.14" y2="3.92"/><line class="cls-2" x1="13.64" y1="3.04" x2="13.64" y2="3.04"/><line class="cls-2" x1="12.39" y1="0.29" x2="12.39" y2="0.29"/><line class="cls-2" x1="10.14" y1="1.17" x2="10.14" y2="1.17"/><line class="cls-2" x1="8.51" y1="3.79" x2="8.51" y2="3.79"/><line class="cls-2" x1="11.39" y1="9.04" x2="11.39" y2="9.04"/><line class="cls-2" x1="9.36" y1="10.83" x2="9.36" y2="10.83"/><line class="cls-2" x1="13.51" y1="11.17" x2="13.51" y2="11.17"/><line class="cls-2" x1="11.51" y1="12.67" x2="11.51" y2="12.67"/><line class="cls-2" x1="15.89" y1="13.17" x2="15.89" y2="13.17"/><line class="cls-2" x1="17.89" y1="15.67" x2="17.89" y2="15.67"/><line class="cls-2" x1="10.26" y1="16.63" x2="10.26" y2="16.63"/><line class="cls-2" x1="13.42" y1="14.46" x2="13.42" y2="14.46"/><line class="cls-2" x1="9.41" y1="14.39" x2="9.41" y2="14.39"/><line class="cls-2" x1="12.46" y1="16.99" x2="12.46" y2="16.99"/><line class="cls-2" x1="8.67" y1="19.23" x2="8.67" y2="19.23"/><line class="cls-2" x1="11.26" y1="19.29" x2="11.26" y2="19.29"/><line class="cls-2" x1="9.76" y1="22.3" x2="9.76" y2="22.3"/><line class="cls-2" x1="9.2" y1="24.52" x2="9.2" y2="24.52"/><line class="cls-2" x1="18.76" y1="17.54" x2="18.76" y2="17.54"/><line class="cls-2" x1="16.26" y1="18.79" x2="16.26" y2="18.79"/><line class="cls-2" x1="18.76" y1="20.04" x2="18.76" y2="20.04"/><line class="cls-2" x1="21.39" y1="19.54" x2="21.39" y2="19.54"/><line class="cls-2" x1="23.76" y1="21.17" x2="23.76" y2="21.17"/><line class="cls-2" x1="24.6" y1="23.29" x2="24.6" y2="23.29"/><line class="cls-2" x1="17.01" y1="21.67" x2="17.01" y2="21.67"/><line class="cls-2" x1="14.14" y1="21.92" x2="14.14" y2="21.92"/><line class="cls-2" x1="20.64" y1="22.35" x2="20.64" y2="22.35"/><line class="cls-2" x1="18.1" y1="23.79" x2="18.1" y2="23.79"/><line class="cls-2" x1="22.76" y1="24.63" x2="22.76" y2="24.63"/><line class="cls-2" x1="20.4" y1="25.79" x2="20.4" y2="25.79"/><line class="cls-2" x1="22.1" y1="26.89" x2="22.1" y2="26.89"/><line class="cls-2" x1="18.11" y1="27.29" x2="18.11" y2="27.29"/><line class="cls-2" x1="15.6" y1="24.96" x2="15.6" y2="24.96"/><line class="cls-2" x1="12.93" y1="24.89" x2="12.93" y2="24.89"/><line class="cls-2" x1="14.4" y1="27.46" x2="14.4" y2="27.46"/><line class="cls-2" x1="9.76" y1="26.96" x2="9.76" y2="26.96"/><line class="cls-2" x1="22.26" y1="12.04" x2="22.26" y2="12.04"/><line class="cls-2" x1="17.83" y1="0.61" x2="17.83" y2="0.61"/><line class="cls-3" x1="47.39" y1="12.54" x2="47.39" y2="12.54"/><line class="cls-3" x1="25.26" y1="25.54" x2="25.26" y2="25.54"/><line class="cls-3" x1="46.82" y1="11.35" x2="46.82" y2="11.35"/><line class="cls-3" x1="26.11" y1="24.27" x2="26.11" y2="24.27"/><line class="cls-4" x1="46.39" y1="9.99" x2="46.39" y2="9.99"/><line class="cls-3" x1="26.97" y1="22.92" x2="26.97" y2="22.92"/><line class="cls-3" x1="46.05" y1="8.65" x2="46.05" y2="8.65"/><line class="cls-3" x1="27.91" y1="21.65" x2="27.91" y2="21.65"/><line class="cls-3" x1="45.85" y1="7.18" x2="45.85" y2="7.18"/><line class="cls-3" x1="28.77" y1="20.22" x2="28.77" y2="20.22"/><line class="cls-5" x1="45.76" y1="5.54" x2="45.76" y2="5.54"/><line class="cls-3" x1="10.89" y1="25.42" x2="10.89" y2="25.42"/><line class="cls-3" x1="11.22" y1="24.14" x2="11.22" y2="24.14"/><line class="cls-3" x1="11.77" y1="22.82" x2="11.77" y2="22.82"/><line class="cls-3" x1="12.37" y1="21.58" x2="12.37" y2="21.58"/><line class="cls-3" x1="13.17" y1="20.32" x2="13.17" y2="20.32"/><line class="cls-5" x1="14.16" y1="19.02" x2="14.16" y2="19.02"/><line class="cls-5" x1="14.96" y1="17.72" x2="14.96" y2="17.72"/><line class="cls-5" x1="15.8" y1="16.28" x2="15.8" y2="16.28"/><line class="cls-5" x1="29.64" y1="18.7" x2="29.64" y2="18.7"/><line class="cls-5" x1="45.82" y1="3.91" x2="45.82" y2="3.91"/><line class="cls-5" x1="30.59" y1="17.26" x2="30.59" y2="17.26"/><line class="cls-5" x1="31.26" y1="16.04" x2="31.26" y2="16.04"/><line class="cls-5" x1="32.21" y1="14.61" x2="32.21" y2="14.61"/><line class="cls-3" x1="52.81" y1="3.44" x2="52.81" y2="3.44"/><line class="cls-3" x1="51.35" y1="4.54" x2="51.35" y2="4.54"/><line class="cls-3" x1="49.93" y1="5.63" x2="49.93" y2="5.63"/><line class="cls-3" x1="54.2" y1="2.51" x2="54.2" y2="2.51"/><line class="cls-3" x1="36.51" y1="-0.38" x2="36.51" y2="-0.38"/><line class="cls-3" x1="38.26" y1="-0.08" x2="38.26" y2="-0.08"/><line class="cls-5" x1="32.93" y1="13.38" x2="32.93" y2="13.38"/><line class="cls-5" x1="33.61" y1="12.16" x2="33.61" y2="12.16"/><line class="cls-5" x1="34.55" y1="10.73" x2="34.55" y2="10.73"/><line class="cls-5" x1="34.6" y1="22.79" x2="34.6" y2="22.79"/><line class="cls-5" x1="34.18" y1="21.43" x2="34.18" y2="21.43"/><line class="cls-5" x1="33.75" y1="20.1" x2="33.75" y2="20.1"/><line class="cls-5" x1="33.34" y1="18.43" x2="33.34" y2="18.43"/><line class="cls-5" x1="33.01" y1="16.88" x2="33.01" y2="16.88"/><line class="cls-6" x1="45.86" y1="2.05" x2="45.86" y2="2.05"/><line class="cls-6" x1="46.03" y1="0.15" x2="46.03" y2="0.15"/><line class="cls-5" x1="43.58" y1="24.17" x2="43.58" y2="24.17"/><line class="cls-5" x1="44.7" y1="23.11" x2="44.7" y2="23.11"/><line class="cls-5" x1="40.08" y1="27.42" x2="40.08" y2="27.42"/><line class="cls-5" x1="41.26" y1="26.29" x2="41.26" y2="26.29"/><line class="cls-6" x1="45.91" y1="22.13" x2="45.91" y2="22.13"/><line class="cls-6" x1="47.44" y1="21.01" x2="47.44" y2="21.01"/><line class="cls-5" x1="48.79" y1="19.8" x2="48.79" y2="19.8"/><line class="cls-6" x1="50.21" y1="18.6" x2="50.21" y2="18.6"/><line class="cls-6" x1="51.74" y1="17.47" x2="51.74" y2="17.47"/><line class="cls-6" x1="52.99" y1="16.34" x2="52.99" y2="16.34"/><line class="cls-6" x1="54.17" y1="15.4" x2="54.17" y2="15.4"/><line class="cls-6" x1="8.76" y1="7.84" x2="8.76" y2="7.84"/><line class="cls-6" x1="9.96" y1="6.65" x2="9.96" y2="6.65"/><line class="cls-3" x1="23.58" y1="9.67" x2="23.58" y2="9.67"/><line class="cls-3" x1="22.41" y1="9.05" x2="22.41" y2="9.05"/><line class="cls-3" x1="21.25" y1="8.22" x2="21.25" y2="8.22"/><line class="cls-3" x1="20.17" y1="7.35" x2="20.17" y2="7.35"/><line class="cls-3" x1="19.13" y1="6.29" x2="19.13" y2="6.29"/><line class="cls-5" x1="18.24" y1="5.13" x2="18.24" y2="5.13"/><line class="cls-5" x1="17.15" y1="3.69" x2="17.15" y2="3.69"/><line class="cls-6" x1="16.07" y1="2.18" x2="16.07" y2="2.18"/><line class="cls-6" x1="15.07" y1="0.56" x2="15.07" y2="0.56"/><rect class="cls-1" x="7.93" y="28.29" width="54" height="54"/><line class="cls-2" x1="14.01" y1="39.29" x2="14.01" y2="39.29"/><line class="cls-2" x1="12.26" y1="34.13" x2="12.26" y2="34.13"/><line class="cls-2" x1="9.64" y1="31.67" x2="9.64" y2="31.67"/><line class="cls-2" x1="12.26" y1="31.63" x2="12.26" y2="31.63"/><line class="cls-2" x1="12.11" y1="29.6" x2="12.11" y2="29.6"/><line class="cls-2" x1="15.01" y1="32.43" x2="15.01" y2="32.43"/><line class="cls-2" x1="15.82" y1="29.89" x2="15.82" y2="29.89"/><line class="cls-2" x1="18.43" y1="31.46" x2="18.43" y2="31.46"/><line class="cls-2" x1="20.51" y1="29.86" x2="20.51" y2="29.86"/><line class="cls-2" x1="23.14" y1="29.49" x2="23.14" y2="29.49"/><line class="cls-2" x1="8.76" y1="29.04" x2="8.76" y2="29.04"/><line class="cls-2" x1="11.2" y1="38.29" x2="11.2" y2="38.29"/><line class="cls-2" x1="10.89" y1="41.42" x2="10.89" y2="41.42"/><line class="cls-2" x1="9.1" y1="39.96" x2="9.1" y2="39.96"/><line class="cls-2" x1="9.8" y1="34.45" x2="9.8" y2="34.45"/><line class="cls-2" x1="9.26" y1="44.36" x2="9.26" y2="44.36"/><line class="cls-2" x1="12.33" y1="45.17" x2="12.33" y2="45.17"/><line class="cls-2" x1="14.26" y1="47.92" x2="14.26" y2="47.92"/><line class="cls-2" x1="11.76" y1="49.17" x2="11.76" y2="49.17"/><line class="cls-2" x1="15.39" y1="45.11" x2="15.39" y2="45.11"/><line class="cls-2" x1="10.14" y1="47.11" x2="10.14" y2="47.11"/><line class="cls-2" x1="13.26" y1="42.17" x2="13.26" y2="42.17"/><line class="cls-2" x1="15.01" y1="36.42" x2="15.01" y2="36.42"/><line class="cls-2" x1="18.1" y1="35.46" x2="18.1" y2="35.46"/><line class="cls-2" x1="23.64" y1="32.79" x2="23.64" y2="32.79"/><line class="cls-2" x1="23.01" y1="35.54" x2="23.01" y2="35.54"/><line class="cls-2" x1="25.64" y1="34.42" x2="25.64" y2="34.42"/><line class="cls-2" x1="25.01" y1="37.29" x2="25.01" y2="37.29"/><line class="cls-2" x1="22.01" y1="38.17" x2="22.01" y2="38.17"/><line class="cls-2" x1="23.89" y1="39.54" x2="23.89" y2="39.54"/><line class="cls-2" x1="20.51" y1="40.67" x2="20.51" y2="40.67"/><line class="cls-2" x1="18.39" y1="42.29" x2="18.39" y2="42.29"/><line class="cls-2" x1="22.64" y1="42.17" x2="22.64" y2="42.17"/><line class="cls-2" x1="25.64" y1="41.67" x2="25.64" y2="41.67"/><line class="cls-2" x1="26.39" y1="39.17" x2="26.39" y2="39.17"/><line class="cls-2" x1="28.14" y1="40.67" x2="28.14" y2="40.67"/><line class="cls-2" x1="28.89" y1="38.29" x2="28.89" y2="38.29"/><line class="cls-2" x1="31.26" y1="37.04" x2="31.26" y2="37.04"/><line class="cls-2" x1="31.14" y1="39.54" x2="31.14" y2="39.54"/><line class="cls-2" x1="33.89" y1="38.42" x2="33.89" y2="38.42"/><line class="cls-2" x1="33.51" y1="40.92" x2="33.51" y2="40.92"/><line class="cls-2" x1="31.39" y1="42.29" x2="31.39" y2="42.29"/><line class="cls-2" x1="33.01" y1="44.48" x2="33.01" y2="44.48"/><line class="cls-2" x1="36.39" y1="40.04" x2="36.39" y2="40.04"/><line class="cls-2" x1="35.89" y1="42.29" x2="35.89" y2="42.29"/><line class="cls-2" x1="38.39" y1="42.42" x2="38.39" y2="42.42"/><line class="cls-2" x1="36.39" y1="44.29" x2="36.39" y2="44.29"/><line class="cls-2" x1="33.95" y1="49.36" x2="33.95" y2="49.36"/><line class="cls-2" x1="35.08" y1="46.86" x2="35.08" y2="46.86"/><line class="cls-2" x1="37.14" y1="48.86" x2="37.14" y2="48.86"/><line class="cls-2" x1="38.7" y1="46.67" x2="38.7" y2="46.67"/><line class="cls-2" x1="40.64" y1="44.29" x2="40.64" y2="44.29"/><line class="cls-2" x1="42.08" y1="41.36" x2="42.08" y2="41.36"/><line class="cls-2" x1="43.89" y1="44.17" x2="43.89" y2="44.17"/><line class="cls-2" x1="46.64" y1="43.86" x2="46.64" y2="43.86"/><line class="cls-2" x1="48.58" y1="40.86" x2="48.58" y2="40.86"/><line class="cls-2" x1="45.33" y1="40.92" x2="45.33" y2="40.92"/><line class="cls-2" x1="42.83" y1="38.23" x2="42.83" y2="38.23"/><line class="cls-2" x1="50.64" y1="31.67" x2="50.64" y2="31.67"/><line class="cls-2" x1="54.26" y1="46.54" x2="54.26" y2="46.54"/><line class="cls-2" x1="51.01" y1="44.29" x2="51.01" y2="44.29"/><line class="cls-2" x1="51.1" y1="47.29" x2="51.1" y2="47.29"/><line class="cls-2" x1="48.6" y1="48.13" x2="48.6" y2="48.13"/><line class="cls-2" x1="53.14" y1="48.79" x2="53.14" y2="48.79"/><line class="cls-2" x1="53.6" y1="51.46" x2="53.6" y2="51.46"/><line class="cls-2" x1="52.26" y1="30.17" x2="52.26" y2="30.17"/><line class="cls-2" x1="49.64" y1="29.04" x2="49.64" y2="29.04"/><line class="cls-2" x1="53.76" y1="36.79" x2="53.76" y2="36.79"/><line class="cls-2" x1="52.89" y1="39.17" x2="52.89" y2="39.17"/><line class="cls-2" x1="53.14" y1="41.54" x2="53.14" y2="41.54"/><line class="cls-2" x1="46.89" y1="37.98" x2="46.89" y2="37.98"/><line class="cls-2" x1="45.45" y1="35.04" x2="45.45" y2="35.04"/><line class="cls-2" x1="42.08" y1="35.17" x2="42.08" y2="35.17"/><line class="cls-2" x1="36.39" y1="36.61" x2="36.39" y2="36.61"/><line class="cls-2" x1="35.14" y1="33.86" x2="35.14" y2="33.86"/><line class="cls-2" x1="32.39" y1="34.48" x2="32.39" y2="34.48"/><line class="cls-2" x1="29.58" y1="32.79" x2="29.58" y2="32.79"/><line class="cls-2" x1="26.89" y1="31.79" x2="26.89" y2="31.79"/><line class="cls-2" x1="28.01" y1="29.23" x2="28.01" y2="29.23"/><line class="cls-2" x1="30.76" y1="29.98" x2="30.76" y2="29.98"/><line class="cls-2" x1="33.26" y1="31.67" x2="33.26" y2="31.67"/><line class="cls-2" x1="37.2" y1="31.54" x2="37.2" y2="31.54"/><line class="cls-2" x1="42.83" y1="29.67" x2="42.83" y2="29.67"/><line class="cls-2" x1="46.14" y1="29.23" x2="46.14" y2="29.23"/><line class="cls-2" x1="39.89" y1="37.61" x2="39.89" y2="37.61"/><line class="cls-2" x1="38.45" y1="34.79" x2="38.45" y2="34.79"/><line class="cls-2" x1="40.51" y1="33.17" x2="40.51" y2="33.17"/><line class="cls-2" x1="53.14" y1="33.04" x2="53.14" y2="33.04"/><line class="cls-2" x1="47.39" y1="31.42" x2="47.39" y2="31.42"/><line class="cls-2" x1="44.2" y1="47.42" x2="44.2" y2="47.42"/><line class="cls-2" x1="41.33" y1="47.17" x2="41.33" y2="47.17"/><line class="cls-2" x1="41.45" y1="50.17" x2="41.45" y2="50.17"/><line class="cls-2" x1="40.76" y1="52.79" x2="40.76" y2="52.79"/><line class="cls-2" x1="43.64" y1="52.04" x2="43.64" y2="52.04"/><line class="cls-2" x1="43.01" y1="54.29" x2="43.01" y2="54.29"/><line class="cls-2" x1="46.39" y1="52.17" x2="46.39" y2="52.17"/><line class="cls-2" x1="47.76" y1="50.79" x2="47.76" y2="50.79"/><line class="cls-2" x1="48.01" y1="54.04" x2="48.01" y2="54.04"/><line class="cls-2" x1="49.93" y1="52.46" x2="49.93" y2="52.46"/><line class="cls-2" x1="50.93" y1="49.96" x2="50.93" y2="49.96"/><line class="cls-2" x1="52.93" y1="54.13" x2="52.93" y2="54.13"/><line class="cls-2" x1="38.89" y1="50.73" x2="38.89" y2="50.73"/><line class="cls-2" x1="35.83" y1="51.48" x2="35.83" y2="51.48"/><line class="cls-2" x1="32.26" y1="51.23" x2="32.26" y2="51.23"/><line class="cls-2" x1="30.14" y1="44.42" x2="30.14" y2="44.42"/><line class="cls-2" x1="28.64" y1="46.73" x2="28.64" y2="46.73"/><line class="cls-2" x1="31.64" y1="47.42" x2="31.64" y2="47.42"/><line class="cls-2" x1="30.01" y1="49.67" x2="30.01" y2="49.67"/><line class="cls-2" x1="26.83" y1="48.67" x2="26.83" y2="48.67"/><line class="cls-2" x1="24.2" y1="50.73" x2="24.2" y2="50.73"/><line class="cls-2" x1="20.58" y1="47.42" x2="20.58" y2="47.42"/><line class="cls-2" x1="20.83" y1="50.04" x2="20.83" y2="50.04"/><line class="cls-2" x1="18.39" y1="51.86" x2="18.39" y2="51.86"/><line class="cls-2" x1="21.45" y1="52.79" x2="21.45" y2="52.79"/><line class="cls-2" x1="24.51" y1="53.98" x2="24.51" y2="53.98"/><line class="cls-2" x1="12.39" y1="54.29" x2="12.39" y2="54.29"/><line class="cls-2" x1="11.21" y1="51.79" x2="11.21" y2="51.79"/><line class="cls-2" x1="8.58" y1="52.46" x2="8.58" y2="52.46"/><line class="cls-2" x1="8.89" y1="49.54" x2="8.89" y2="49.54"/><line class="cls-2" x1="15.58" y1="51.79" x2="15.58" y2="51.79"/><line class="cls-2" x1="25.89" y1="45.04" x2="25.89" y2="45.04"/><line class="cls-2" x1="27.01" y1="36.42" x2="27.01" y2="36.42"/><line class="cls-2" x1="17.14" y1="38.61" x2="17.14" y2="38.61"/><line class="cls-2" x1="16.2" y1="41.48" x2="16.2" y2="41.48"/><line class="cls-2" x1="17.39" y1="47.17" x2="17.39" y2="47.17"/><line class="cls-2" x1="16.89" y1="49.42" x2="16.89" y2="49.42"/><line class="cls-2" x1="35.14" y1="28.79" x2="35.14" y2="28.79"/><line class="cls-3" x1="28.26" y1="35.13" x2="28.26" y2="35.13"/><line class="cls-3" x1="29.57" y1="35.29" x2="29.57" y2="35.29"/><line class="cls-3" x1="30.95" y1="35.67" x2="30.95" y2="35.67"/><line class="cls-3" x1="32.26" y1="36.11" x2="32.26" y2="36.11"/><line class="cls-3" x1="33.61" y1="36.73" x2="33.61" y2="36.73"/><line class="cls-5" x1="34.85" y1="37.51" x2="34.85" y2="37.51"/><line class="cls-5" x1="36.37" y1="38.48" x2="36.37" y2="38.48"/><line class="cls-2" x1="37.92" y1="39.51" x2="37.92" y2="39.51"/><line class="cls-2" x1="39.42" y1="40.68" x2="39.42" y2="40.68"/><line class="cls-3" x1="51.26" y1="33.79" x2="51.26" y2="33.79"/><line class="cls-3" x1="49.94" y1="33.84" x2="49.94" y2="33.84"/><line class="cls-3" x1="48.52" y1="33.69" x2="48.52" y2="33.69"/><line class="cls-3" x1="47.15" y1="33.46" x2="47.15" y2="33.46"/><line class="cls-3" x1="45.73" y1="33.06" x2="45.73" y2="33.06"/><line class="cls-5" x1="44.38" y1="32.49" x2="44.38" y2="32.49"/><line class="cls-5" x1="42.72" y1="31.77" x2="42.72" y2="31.77"/><line class="cls-2" x1="41.03" y1="31" x2="41.03" y2="31"/><line class="cls-2" x1="39.36" y1="30.08" x2="39.36" y2="30.08"/><line class="cls-3" x1="29.26" y1="41.92" x2="29.26" y2="41.92"/><line class="cls-3" x1="28.13" y1="42.58" x2="28.13" y2="42.58"/><line class="cls-3" x1="26.8" y1="43.13" x2="26.8" y2="43.13"/><line class="cls-3" x1="25.5" y1="43.58" x2="25.5" y2="43.58"/><line class="cls-3" x1="24.05" y1="43.91" x2="24.05" y2="43.91"/><line class="cls-5" x1="22.6" y1="44.04" x2="22.6" y2="44.04"/><line class="cls-5" x1="20.79" y1="44.21" x2="20.79" y2="44.21"/><line class="cls-5" x1="21.76" y1="45.34" x2="21.76" y2="45.34"/><line class="cls-5" x1="22.51" y1="46.42" x2="22.51" y2="46.42"/><line class="cls-5" x1="23.26" y1="47.5" x2="23.26" y2="47.5"/><line class="cls-5" x1="23.85" y1="48.42" x2="23.85" y2="48.42"/><line class="cls-2" x1="18.94" y1="44.32" x2="18.94" y2="44.32"/><line class="cls-2" x1="17.03" y1="44.31" x2="17.03" y2="44.31"/><line class="cls-3" x1="34.71" y1="53.3" x2="34.71" y2="53.3"/><line class="cls-3" x1="36.51" y1="53.62" x2="36.51" y2="53.62"/><line class="cls-3" x1="38.26" y1="53.92" x2="38.26" y2="53.92"/><line class="cls-3" x1="33.07" y1="52.92" x2="33.07" y2="52.92"/><line class="cls-5" x1="31.36" y1="52.56" x2="31.36" y2="52.56"/><line class="cls-5" x1="28.02" y1="51.95" x2="28.02" y2="51.95"/><line class="cls-5" x1="29.71" y1="52.3" x2="29.71" y2="52.3"/><line class="cls-5" x1="26.33" y1="51.47" x2="26.33" y2="51.47"/><line class="cls-3" x1="46.53" y1="46.91" x2="46.53" y2="46.91"/><line class="cls-3" x1="45.42" y1="48.37" x2="45.42" y2="48.37"/><line class="cls-3" x1="44.35" y1="49.79" x2="44.35" y2="49.79"/><line class="cls-3" x1="47.61" y1="45.64" x2="47.61" y2="45.64"/><line class="cls-5" x1="48.72" y1="44.28" x2="48.72" y2="44.28"/><line class="cls-5" x1="50.78" y1="41.58" x2="50.78" y2="41.58"/><line class="cls-5" x1="50.43" y1="39.91" x2="50.43" y2="39.91"/><line class="cls-5" x1="50.18" y1="38.13" x2="50.18" y2="38.13"/><line class="cls-5" x1="50.01" y1="36.21" x2="50.01" y2="36.21"/><line class="cls-5" x1="49.69" y1="42.93" x2="49.69" y2="42.93"/><line class="cls-5" x1="51.76" y1="42.46" x2="51.76" y2="42.46"/><line class="cls-5" x1="52.68" y1="43.54" x2="52.68" y2="43.54"/><line class="cls-5" x1="53.76" y1="44.54" x2="53.76" y2="44.54"/><line class="cls-5" x1="8.93" y1="37.46" x2="8.93" y2="37.46"/><line class="cls-5" x1="10.35" y1="36.88" x2="10.35" y2="36.88"/><line class="cls-5" x1="11.82" y1="36.24" x2="11.82" y2="36.24"/><line class="cls-5" x1="13.3" y1="35.71" x2="13.3" y2="35.71"/><line class="cls-5" x1="14.82" y1="35.01" x2="14.82" y2="35.01"/><line class="cls-5" x1="16.39" y1="34.23" x2="16.39" y2="34.23"/><line class="cls-5" x1="17.97" y1="33.58" x2="17.97" y2="33.58"/><line class="cls-5" x1="19.22" y1="32.95" x2="19.22" y2="32.95"/><line class="cls-5" x1="20.8" y1="32.29" x2="20.8" y2="32.29"/><line class="cls-5" x1="22.09" y1="31.67" x2="22.09" y2="31.67"/><line class="cls-5" x1="23.34" y1="31.04" x2="23.34" y2="31.04"/><line class="cls-5" x1="24.92" y1="30.38" x2="24.92" y2="30.38"/><line class="cls-5" x1="19.45" y1="39.11" x2="19.45" y2="39.11"/><line class="cls-5" x1="19.87" y1="37.75" x2="19.87" y2="37.75"/><line class="cls-5" x1="20.26" y1="36.4" x2="20.26" y2="36.4"/><line class="cls-5" x1="20.85" y1="34.79" x2="20.85" y2="34.79"/><line class="cls-5" x1="21.45" y1="33.32" x2="21.45" y2="33.32"/><line class="cls-6" x1="46.03" y1="54.15" x2="46.03" y2="54.15"/><line class="cls-6" x1="14.08" y1="52.93" x2="14.08" y2="52.93"/><line class="cls-6" x1="13.08" y1="51.31" x2="13.08" y2="51.31"/><rect class="cls-1" x="-46.07" y="-25.71" width="54" height="54"/><line class="cls-2" x1="0.01" y1="7.79" x2="0.01" y2="7.79"/><line class="cls-2" x1="2.14" y1="6.04" x2="2.14" y2="6.04"/><line class="cls-2" x1="2.64" y1="3.17" x2="2.64" y2="3.17"/><line class="cls-2" x1="4.76" y1="1.96" x2="4.76" y2="1.96"/><line class="cls-2" x1="7.1" y1="0.63" x2="7.1" y2="0.63"/><line class="cls-2" x1="4.76" y1="4.29" x2="4.76" y2="4.29"/><line class="cls-2" x1="4.39" y1="7.42" x2="4.39" y2="7.42"/><line class="cls-2" x1="6.76" y1="5.79" x2="6.76" y2="5.79"/><line class="cls-2" x1="2.14" y1="9.67" x2="2.14" y2="9.67"/><line class="cls-2" x1="6.64" y1="12.29" x2="6.64" y2="12.29"/><line class="cls-2" x1="5.01" y1="14.29" x2="5.01" y2="14.29"/><line class="cls-2" x1="2.89" y1="15.54" x2="2.89" y2="15.54"/><line class="cls-2" x1="4.76" y1="16.79" x2="4.76" y2="16.79"/><line class="cls-2" x1="5.64" y1="19.42" x2="5.64" y2="19.42"/><line class="cls-2" x1="7.01" y1="16.5" x2="7.01" y2="16.5"/><line class="cls-2" x1="0.64" y1="17.17" x2="0.64" y2="17.17"/><line class="cls-2" x1="-0.11" y1="19.67" x2="-0.11" y2="19.67"/><line class="cls-2" x1="2.26" y1="21.04" x2="2.26" y2="21.04"/><line class="cls-2" x1="1.01" y1="23.42" x2="1.01" y2="23.42"/><line class="cls-2" x1="4.51" y1="22.04" x2="4.51" y2="22.04"/><line class="cls-2" x1="3.51" y1="24.29" x2="3.51" y2="24.29"/><line class="cls-2" x1="0.89" y1="26.29" x2="0.89" y2="26.29"/><line class="cls-2" x1="4.01" y1="26.92" x2="4.01" y2="26.92"/><line class="cls-2" x1="6.26" y1="24.42" x2="6.26" y2="24.42"/><line class="cls-2" x1="7.01" y1="21.29" x2="7.01" y2="21.29"/><line class="cls-2" x1="6.89" y1="26.67" x2="6.89" y2="26.67"/><line class="cls-2" x1="2.89" y1="18.79" x2="2.89" y2="18.79"/><line class="cls-3" x1="0.2" y1="2.51" x2="0.2" y2="2.51"/><line class="cls-5" x1="1.63" y1="1.49" x2="1.63" y2="1.49"/><line class="cls-5" x1="2.93" y1="0.46" x2="2.93" y2="0.46"/><line class="cls-6" x1="0.17" y1="15.4" x2="0.17" y2="15.4"/><line class="cls-6" x1="1.37" y1="14.22" x2="1.37" y2="14.22"/><line class="cls-6" x1="2.59" y1="13.24" x2="2.59" y2="13.24"/><line class="cls-6" x1="3.78" y1="12.06" x2="3.78" y2="12.06"/><line class="cls-6" x1="5.04" y1="10.93" x2="5.04" y2="10.93"/><line class="cls-6" x1="6.22" y1="10" x2="6.22" y2="10"/><line class="cls-6" x1="7.41" y1="8.81" x2="7.41" y2="8.81"/><rect class="cls-1" x="-46.07" y="28.29" width="54" height="54"/><line class="cls-2" x1="4.64" y1="41.17" x2="4.64" y2="41.17"/><line class="cls-2" x1="5.64" y1="45.54" x2="5.64" y2="45.54"/><line class="cls-2" x1="4.01" y1="43.67" x2="4.01" y2="43.67"/><line class="cls-2" x1="2.26" y1="45.54" x2="2.26" y2="45.54"/><line class="cls-2" x1="3.26" y1="47.46" x2="3.26" y2="47.46"/><line class="cls-2" x1="6.89" y1="47.67" x2="6.89" y2="47.67"/><line class="cls-2" x1="5.14" y1="48.92" x2="5.14" y2="48.92"/><line class="cls-2" x1="1.93" y1="49.63" x2="1.93" y2="49.63"/><line class="cls-2" x1="0.26" y1="46.54" x2="0.26" y2="46.54"/><line class="cls-2" x1="3.64" y1="50.92" x2="3.64" y2="50.92"/><line class="cls-2" x1="2.26" y1="52.96" x2="2.26" y2="52.96"/><line class="cls-2" x1="6.51" y1="31.04" x2="6.51" y2="31.04"/><line class="cls-2" x1="3.89" y1="32.04" x2="3.89" y2="32.04"/><line class="cls-2" x1="4.39" y1="29.29" x2="4.39" y2="29.29"/><line class="cls-2" x1="1.14" y1="29.29" x2="1.14" y2="29.29"/><line class="cls-2" x1="0.76" y1="31.54" x2="0.76" y2="31.54"/><line class="cls-2" x1="6.76" y1="50.42" x2="6.76" y2="50.42"/><line class="cls-2" x1="6.89" y1="40.67" x2="6.89" y2="40.67"/><line class="cls-2" x1="6.51" y1="43.54" x2="6.51" y2="43.54"/><line class="cls-2" x1="-0.24" y1="36.79" x2="-0.24" y2="36.79"/><line class="cls-2" x1="1.14" y1="34.67" x2="1.14" y2="34.67"/><line class="cls-2" x1="2.26" y1="37.79" x2="2.26" y2="37.79"/><line class="cls-2" x1="1.26" y1="42.92" x2="1.26" y2="42.92"/><line class="cls-2" x1="1.26" y1="40.79" x2="1.26" y2="40.79"/><line class="cls-2" x1="4.1" y1="38.96" x2="4.1" y2="38.96"/><line class="cls-2" x1="4.51" y1="35.29" x2="4.51" y2="35.29"/><line class="cls-2" x1="6.51" y1="37.04" x2="6.51" y2="37.04"/><line class="cls-2" x1="7.01" y1="34.67" x2="7.01" y2="34.67"/><line class="cls-5" x1="4.35" y1="53.46" x2="4.35" y2="53.46"/><line class="cls-5" x1="5.85" y1="52.54" x2="5.85" y2="52.54"/><line class="cls-5" x1="-0.24" y1="44.54" x2="-0.24" y2="44.54"/><rect class="cls-1" width="54" height="54"/></svg>