<svg id="Layer_1" data-name="Layer 1" xmlns="http://www.w3.org/2000/svg" width="72.7" height="72.7" viewBox="0 0 72.7 72.7"><defs><style>.cls-1,.cls-2,.cls-3{fill:none;}.cls-1,.cls-2{stroke:#000;stroke-linecap:square;}.cls-1{stroke-width:0.5px;}.cls-2{stroke-width:0.3px;}</style></defs><title>Artboard 37</title><path class="cls-1" d="M57.09-4.2c-1.22,2.58-8.57,9-11.2,12.55"/><path class="cls-1" d="M76.48-7.84C74.82-4.47,68.85,3.8,65.1,8.35"/><path class="cls-2" d="M57.83,4.59c.33-.44.65-.86.94-1.26"/><path class="cls-2" d="M54.79,8.3c.54-.63,1.07-1.25,1.57-1.87"/><path class="cls-2" d="M56.36,6.43c.52-.63,1-1.25,1.47-1.84"/><line class="cls-2" x1="89.16" y1="8.35" x2="61.29" y2="-19.52"/><line class="cls-2" x1="85.66" y1="8.35" x2="59.72" y2="-17.58"/><line class="cls-2" x1="82.22" y1="8.35" x2="58.18" y2="-15.7"/><line class="cls-2" x1="78.78" y1="8.35" x2="56.6" y2="-13.83"/><line class="cls-2" x1="75.41" y1="8.35" x2="55.03" y2="-12.03"/><line class="cls-2" x1="72.03" y1="8.35" x2="43.58" y2="-20.1"/><line class="cls-2" x1="68.53" y1="8.35" x2="42.03" y2="-18.16"/><line class="cls-2" x1="40.46" y1="-16.29" x2="65.09" y2="8.35"/><line class="cls-2" x1="38.82" y1="-14.42" x2="57.83" y2="4.59"/><line class="cls-2" x1="61.59" y1="8.35" x2="57.83" y2="4.59"/><line class="cls-2" x1="37.23" y1="-12.7" x2="56.36" y2="6.43"/><line class="cls-2" x1="58.28" y1="8.35" x2="56.36" y2="6.43"/><line class="cls-2" x1="30.82" y1="-15.68" x2="54.79" y2="8.3"/><line class="cls-2" x1="30.82" y1="-12.18" x2="51.34" y2="8.35"/><line class="cls-2" x1="30.82" y1="-8.81" x2="47.97" y2="8.35"/><line class="cls-2" x1="30.82" y1="-5.37" x2="44.53" y2="8.35"/><line class="cls-2" x1="30.82" y1="-1.93" x2="41.09" y2="8.35"/><line class="cls-2" x1="30.82" y1="1.51" x2="37.66" y2="8.35"/><line class="cls-2" x1="30.82" y1="4.94" x2="34.22" y2="8.35"/><line class="cls-2" x1="37.72" y1="-63.65" x2="102.82" y2="1.44"/><rect class="cls-3" x="30.82" y="-63.65" width="72" height="72"/><path class="cls-1" d="M30.82,29.07a102.66,102.66,0,0,0,8-12.48"/><path class="cls-1" d="M41.44,13.73a54,54,0,0,0,4.4-5.38"/><path class="cls-1" d="M48.5,30.48a83.67,83.67,0,0,0,11-15.75"/><path class="cls-1" d="M54.07,49.1C56.82,46.35,65.15,36.28,67.15,32"/><path class="cls-1" d="M69.78,26.46c2.45-2.45,10-12.87,13-18.11"/><path class="cls-1" d="M46.7,34.2A83.84,83.84,0,0,1,34,48.64"/><path class="cls-1" d="M30.82,54.4c.84-1.1,1.56-2.11,2.07-2.94"/><path class="cls-1" d="M62.76,10.93a33.77,33.77,0,0,0,2.29-2.58"/><path class="cls-1" d="M53,53.2c-2.2,3.58-11.59,15.14-15.53,18.28"/><path class="cls-1" d="M72.25,51.07c-1.57,3.33-6.66,7.83-9.72,11.63-.84,1-1.59,1.91-2.18,2.51"/><path class="cls-1" d="M57.09,67.8c-1.22,2.58-8.57,9-11.2,12.55"/><path class="cls-1" d="M76.48,64.16C74.82,67.53,68.85,75.8,65.1,80.35"/><path class="cls-2" d="M54.69,8.35c-.5.59-1,1.17-1.53,1.74"/><path class="cls-2" d="M50.72,12.72l.82-.87"/><path class="cls-2" d="M51.54,11.85c.53-.56,1.07-1.15,1.62-1.76"/><path class="cls-2" d="M32.74,37.68c.39-.49.76-1,1.09-1.43"/><path class="cls-2" d="M30.82,40.07l.42-.51"/><path class="cls-2" d="M31.24,39.56c.53-.64,1-1.27,1.5-1.88"/><path class="cls-2" d="M50.25,41.44c.5-.58,1-1.2,1.54-1.83"/><path class="cls-2" d="M48.63,43.32c.5-.56,1-1.2,1.62-1.88"/><path class="cls-2" d="M56.33,34c-.45.59-.94,1.21-1.46,1.85"/><path class="cls-2" d="M51.79,39.61c.52-.62,1-1.26,1.55-1.89"/><path class="cls-2" d="M53.34,37.72c.52-.64,1-1.28,1.53-1.91"/><path class="cls-2" d="M57.88,31.94l.53-.71"/><path class="cls-2" d="M57.88,31.94c-.43.58-1,1.26-1.55,2"/><path class="cls-2" d="M47.44,44.61c.35-.36.75-.79,1.19-1.29"/><path class="cls-2" d="M73,12.7c-.49.64-1,1.28-1.52,1.92"/><path class="cls-2" d="M68.23,18.3c.55-.59,1.09-1.19,1.63-1.81"/><path class="cls-2" d="M71.43,14.62c-.51.63-1,1.25-1.57,1.87"/><path class="cls-2" d="M68.23,18.3l-.64.68"/><path class="cls-2" d="M46.17,20.23q-.75,1-1.59,2"/><path class="cls-2" d="M43.06,24l1.52-1.8"/><path class="cls-2" d="M47.14,18.93c-.3.42-.63.85-1,1.3"/><path class="cls-2" d="M41.45,25.83c-.55.62-1.11,1.22-1.65,1.79"/><path class="cls-2" d="M43.06,24c-.53.61-1.07,1.22-1.61,1.82"/><path class="cls-2" d="M39.8,27.62l-.66.7"/><path class="cls-2" d="M36.39,60.2c.27-.29.56-.59.84-.9"/><path class="cls-2" d="M38.82,57.57c.55-.61,1.1-1.23,1.64-1.86"/><path class="cls-2" d="M37.23,59.3c.53-.55,1.06-1.13,1.59-1.73"/><path class="cls-2" d="M40.46,55.71c.54-.62,1.06-1.25,1.57-1.87"/><path class="cls-2" d="M44.39,50.81c-.25.35-.52.71-.81,1.09"/><path class="cls-2" d="M42,53.84c.55-.66,1.07-1.32,1.55-1.94"/><path class="cls-2" d="M55,60c-.31.35-.61.67-.86.93"/><path class="cls-2" d="M56.6,58.17c.51-.59,1-1.21,1.58-1.87"/><path class="cls-2" d="M58.18,56.3c.51-.61,1-1.25,1.54-1.88"/><path class="cls-2" d="M64.28,48.65c.42-.55.78-1,1.06-1.42"/><path class="cls-2" d="M56.6,58.17C56,58.84,55.5,59.44,55,60"/><path class="cls-2" d="M59.72,54.42l1.57-1.94"/><path class="cls-2" d="M61.29,52.48l1.49-1.89"/><path class="cls-2" d="M62.78,50.59c.55-.7,1.06-1.36,1.5-1.94"/><line class="cls-2" x1="30.82" y1="8.44" x2="44.58" y2="22.21"/><line class="cls-2" x1="56.33" y1="33.96" x2="44.58" y2="22.21"/><line class="cls-2" x1="87.57" y1="65.19" x2="56.33" y2="33.96"/><line class="cls-2" x1="43.06" y1="24.01" x2="54.87" y2="35.81"/><line class="cls-2" x1="54.87" y1="35.81" x2="86.06" y2="67"/><line class="cls-2" x1="30.82" y1="11.76" x2="43.06" y2="24.01"/><line class="cls-2" x1="30.82" y1="15.19" x2="41.45" y2="25.83"/><line class="cls-2" x1="53.34" y1="37.72" x2="41.45" y2="25.83"/><line class="cls-2" x1="53.34" y1="37.72" x2="64.28" y2="48.65"/><line class="cls-2" x1="84.46" y1="68.84" x2="64.28" y2="48.65"/><line class="cls-2" x1="51.79" y1="39.61" x2="39.8" y2="27.62"/><line class="cls-2" x1="51.79" y1="39.61" x2="62.78" y2="50.59"/><line class="cls-2" x1="62.78" y1="50.59" x2="82.82" y2="70.64"/><line class="cls-2" x1="30.82" y1="18.63" x2="39.8" y2="27.62"/><line class="cls-2" x1="50.25" y1="41.44" x2="61.29" y2="52.48"/><line class="cls-2" x1="50.25" y1="41.44" x2="30.82" y2="22.01"/><line class="cls-2" x1="89.16" y1="80.35" x2="61.29" y2="52.48"/><line class="cls-2" x1="48.63" y1="43.32" x2="59.72" y2="54.42"/><line class="cls-2" x1="85.66" y1="80.35" x2="59.72" y2="54.42"/><line class="cls-2" x1="30.82" y1="25.51" x2="48.63" y2="43.32"/><line class="cls-2" x1="30.82" y1="28.94" x2="58.18" y2="56.3"/><line class="cls-2" x1="82.22" y1="80.35" x2="58.18" y2="56.3"/><line class="cls-2" x1="78.78" y1="80.35" x2="56.6" y2="58.17"/><line class="cls-2" x1="30.82" y1="32.38" x2="56.6" y2="58.17"/><line class="cls-2" x1="30.82" y1="35.76" x2="32.74" y2="37.68"/><line class="cls-2" x1="55.03" y1="59.97" x2="32.74" y2="37.68"/><line class="cls-2" x1="75.41" y1="80.35" x2="55.03" y2="59.97"/><line class="cls-2" x1="31.24" y1="39.56" x2="43.58" y2="51.9"/><line class="cls-2" x1="30.82" y1="39.13" x2="31.24" y2="39.56"/><line class="cls-2" x1="72.03" y1="80.35" x2="43.58" y2="51.9"/><line class="cls-2" x1="68.53" y1="80.35" x2="42.03" y2="53.84"/><line class="cls-2" x1="30.82" y1="42.63" x2="42.03" y2="53.84"/><line class="cls-2" x1="40.46" y1="55.71" x2="65.09" y2="80.35"/><line class="cls-2" x1="30.82" y1="46.07" x2="40.46" y2="55.71"/><line class="cls-2" x1="38.82" y1="57.57" x2="57.83" y2="76.59"/><line class="cls-2" x1="30.82" y1="49.57" x2="38.82" y2="57.57"/><line class="cls-2" x1="37.23" y1="59.3" x2="56.36" y2="78.43"/><line class="cls-2" x1="30.82" y1="52.88" x2="37.23" y2="59.3"/><line class="cls-2" x1="30.82" y1="56.32" x2="54.79" y2="80.29"/><line class="cls-2" x1="30.82" y1="59.82" x2="51.34" y2="80.35"/><line class="cls-2" x1="30.82" y1="63.19" x2="47.97" y2="80.35"/><line class="cls-2" x1="30.82" y1="66.63" x2="44.53" y2="80.35"/><line class="cls-2" x1="30.82" y1="70.07" x2="41.09" y2="80.35"/><line class="cls-2" x1="72.04" y1="8.35" x2="74.44" y2="10.75"/><line class="cls-2" x1="72.95" y1="12.7" x2="68.6" y2="8.35"/><line class="cls-2" x1="81.34" y1="24.53" x2="71.43" y2="14.62"/><line class="cls-2" x1="65.16" y1="8.35" x2="71.43" y2="14.62"/><line class="cls-2" x1="61.72" y1="8.35" x2="69.86" y2="16.49"/><line class="cls-2" x1="79.88" y1="26.5" x2="69.86" y2="16.49"/><line class="cls-2" x1="68.23" y1="18.3" x2="58.29" y2="8.35"/><line class="cls-2" x1="68.23" y1="18.3" x2="78.4" y2="28.47"/><line class="cls-2" x1="76.91" y1="30.41" x2="54.85" y2="8.35"/><line class="cls-2" x1="53.16" y1="10.09" x2="75.37" y2="32.31"/><line class="cls-2" x1="51.41" y1="8.35" x2="53.16" y2="10.09"/><line class="cls-2" x1="51.54" y1="11.85" x2="84.47" y2="44.79"/><line class="cls-2" x1="48.04" y1="8.35" x2="51.54" y2="11.85"/><line class="cls-2" x1="44.54" y1="8.35" x2="82.83" y2="46.65"/><line class="cls-2" x1="41.16" y1="8.35" x2="81.21" y2="48.4"/><line class="cls-2" x1="37.72" y1="8.35" x2="102.82" y2="73.44"/><line class="cls-2" x1="34.29" y1="8.35" x2="46.17" y2="20.23"/><line class="cls-2" x1="57.88" y1="31.94" x2="89.13" y2="63.2"/><line class="cls-2" x1="57.88" y1="31.94" x2="46.17" y2="20.23"/><rect class="cls-3" x="30.82" y="8.35" width="72" height="72"/><path class="cls-1" d="M15.94.32c-.36.77-4.87,6.78-5.62,8v0"/><path class="cls-1" d="M4.48-7.84C2.82-4.47-3.15,3.8-6.9,8.35"/><path class="cls-1" d="M30-2.68c-1.63,2.25-6,7.55-9.14,11"/><path class="cls-2" d="M10.82-1.36,9.7-.18"/><line class="cls-2" x1="15.57" y1="-6.81" x2="30.72" y2="8.35"/><line class="cls-2" x1="27.41" y1="8.35" x2="14.06" y2="-5"/><line class="cls-2" x1="23.97" y1="8.35" x2="12.46" y2="-3.16"/><line class="cls-2" x1="20.53" y1="8.35" x2="10.82" y2="-1.36"/><line class="cls-2" x1="17.16" y1="8.35" x2="-10.71" y2="-19.52"/><line class="cls-2" x1="13.66" y1="8.35" x2="-12.28" y2="-17.58"/><line class="cls-2" x1="10.22" y1="8.35" x2="-13.82" y2="-15.7"/><line class="cls-2" x1="6.78" y1="8.35" x2="-15.4" y2="-13.83"/><line class="cls-2" x1="3.41" y1="8.35" x2="-16.97" y2="-12.03"/><line class="cls-2" x1="0.03" y1="8.35" x2="-28.42" y2="-20.1"/><line class="cls-2" x1="-34.28" y1="-63.65" x2="30.82" y2="1.44"/><line class="cls-2" x1="17.13" y1="-8.8" x2="30.82" y2="4.88"/><rect class="cls-3" x="-41.18" y="-63.65" width="72" height="72"/><path class="cls-1" d="M-2.22,26.46c2.45-2.45,10-12.87,13-18.11"/><path class="cls-1" d="M.25,51.07C-1.32,54.4-6.41,58.9-9.47,62.7c-.84,1-1.59,1.91-2.18,2.51"/><path class="cls-1" d="M14.23,32c-1.57,3.34-6.66,7.84-9.72,11.64-.84,1-1.59,1.91-2.18,2.5"/><path class="cls-1" d="M8.7,59.81c.59-.59,1.35-1.46,2.19-2.5,3-3.81,8.15-8.3,9.72-11.64"/><path class="cls-1" d="M17.2,25.6c.59-.59,1.35-1.46,2.19-2.5,3.05-3.81,8.15-8.3,9.72-11.64"/><path class="cls-1" d="M26.13,34.67a60.06,60.06,0,0,0,4.69-5.86"/><path class="cls-1" d="M30.82,54.16l0,0c-3.19,4.18-8,12.47-10.44,14.43"/><path class="cls-1" d="M15.94,72.32c-.36.77-4.87,6.78-5.62,8v0"/><path class="cls-1" d="M4.48,64.16C2.82,67.53-3.15,75.8-6.9,80.35"/><path class="cls-1" d="M30,69.32c-1.63,2.25-6,7.55-9.14,11"/><path class="cls-1" d="M19.08,10.21l-.34.36"/><path class="cls-1" d="M20.69,8.44c-.6.68-1.14,1.27-1.61,1.77"/><path class="cls-2" d="M1,12.7C.46,13.34,0,14-.57,14.62"/><path class="cls-2" d="M2.44,10.75l.66-.9"/><path class="cls-2" d="M1,12.7c.52-.66,1-1.32,1.49-1.95"/><path class="cls-2" d="M29.57,41.32l1.25-1.47"/><path class="cls-2" d="M26.3,44.93l-.66.7"/><path class="cls-2" d="M28,43.14l1.62-1.82"/><path class="cls-2" d="M26.3,44.93c.55-.57,1.1-1.17,1.65-1.79"/><path class="cls-2" d="M9.34,24.53l1.45-2"/><path class="cls-2" d="M4.91,30.41,6.4,28.47"/><path class="cls-2" d="M12.24,20.55l1.41-2"/><path class="cls-2" d="M9.34,24.53c-.48.65-1,1.32-1.46,2"/><path class="cls-2" d="M10.79,22.54l1.45-2"/><path class="cls-2" d="M13.65,18.59l.44-.61"/><path class="cls-2" d="M7.88,26.5c-.5.67-1,1.33-1.48,2"/><path class="cls-2" d="M4.91,30.41c-.56.7-1.07,1.34-1.54,1.9"/><path class="cls-2" d="M3.37,32.31c-.44.53-.84,1-1.17,1.32"/><path class="cls-2" d="M8.57,49.07l.64-.67"/><path class="cls-2" d="M9.21,48.4c.53-.56,1.07-1.15,1.62-1.75"/><path class="cls-2" d="M14,43c-.5.6-1,1.22-1.55,1.83"/><path class="cls-2" d="M14,43c.54-.65,1.05-1.29,1.53-1.91"/><path class="cls-2" d="M12.47,44.79c-.54.62-1.09,1.25-1.64,1.86"/><path class="cls-2" d="M16.58,39.68c-.32.44-.67.9-1,1.37"/><path class="cls-2" d="M10.82,70.64,9.7,71.82"/><path class="cls-2" d="M17.13,63.2c-.48.63-1,1.3-1.56,2"/><path class="cls-2" d="M17.13,63.2c.2-.26.4-.52.57-.77"/><path class="cls-2" d="M12.46,68.84c-.55.61-1.1,1.22-1.64,1.8"/><path class="cls-2" d="M14.06,67c-.52.62-1.06,1.23-1.6,1.84"/><path class="cls-2" d="M15.57,65.19c-.49.6-1,1.2-1.51,1.81"/><line class="cls-2" x1="15.57" y1="65.19" x2="-15.67" y2="33.96"/><line class="cls-2" x1="15.57" y1="65.19" x2="30.72" y2="80.35"/><line class="cls-2" x1="27.41" y1="80.35" x2="14.06" y2="67"/><line class="cls-2" x1="-17.13" y1="35.81" x2="14.06" y2="67"/><line class="cls-2" x1="23.97" y1="80.35" x2="12.46" y2="68.84"/><line class="cls-2" x1="12.46" y1="68.84" x2="-7.72" y2="48.65"/><line class="cls-2" x1="20.53" y1="80.35" x2="10.82" y2="70.64"/><line class="cls-2" x1="-9.22" y1="50.59" x2="10.82" y2="70.64"/><line class="cls-2" x1="17.16" y1="80.35" x2="-10.71" y2="52.48"/><line class="cls-2" x1="13.66" y1="80.35" x2="-12.28" y2="54.42"/><line class="cls-2" x1="10.22" y1="80.35" x2="-13.82" y2="56.3"/><line class="cls-2" x1="6.78" y1="80.35" x2="-15.4" y2="58.17"/><line class="cls-2" x1="3.41" y1="80.35" x2="-16.97" y2="59.97"/><line class="cls-2" x1="0.03" y1="80.35" x2="-28.42" y2="51.9"/><line class="cls-2" x1="30.82" y1="11.82" x2="27.35" y2="8.35"/><line class="cls-2" x1="30.82" y1="15.07" x2="24.1" y2="8.35"/><line class="cls-2" x1="30.82" y1="18.57" x2="20.69" y2="8.44"/><line class="cls-2" x1="17.22" y1="8.35" x2="19.08" y2="10.21"/><line class="cls-2" x1="30.82" y1="21.94" x2="19.08" y2="10.21"/><line class="cls-2" x1="30.82" y1="25.44" x2="13.72" y2="8.35"/><line class="cls-2" x1="30.82" y1="28.88" x2="10.29" y2="8.35"/><line class="cls-2" x1="6.85" y1="8.35" x2="30.82" y2="32.32"/><line class="cls-2" x1="3.41" y1="8.35" x2="13.65" y2="18.59"/><line class="cls-2" x1="13.65" y1="18.59" x2="30.82" y2="35.75"/><line class="cls-2" x1="12.24" y1="20.55" x2="30.82" y2="39.13"/><line class="cls-2" x1="2.44" y1="10.75" x2="12.24" y2="20.55"/><line class="cls-2" x1="0.04" y1="8.35" x2="2.44" y2="10.75"/><line class="cls-2" x1="0.95" y1="12.7" x2="-3.4" y2="8.35"/><line class="cls-2" x1="10.79" y1="22.54" x2="0.95" y2="12.7"/><line class="cls-2" x1="10.79" y1="22.54" x2="29.57" y2="41.32"/><line class="cls-2" x1="30.82" y1="42.57" x2="29.57" y2="41.32"/><line class="cls-2" x1="9.34" y1="24.53" x2="-0.57" y2="14.62"/><line class="cls-2" x1="30.82" y1="46" x2="27.95" y2="43.14"/><line class="cls-2" x1="9.34" y1="24.53" x2="27.95" y2="43.14"/><line class="cls-2" x1="7.88" y1="26.5" x2="-2.14" y2="16.49"/><line class="cls-2" x1="30.82" y1="49.44" x2="26.3" y2="44.93"/><line class="cls-2" x1="26.3" y1="44.93" x2="7.88" y2="26.5"/><line class="cls-2" x1="30.82" y1="52.88" x2="6.4" y2="28.47"/><line class="cls-2" x1="-3.77" y1="18.3" x2="6.4" y2="28.47"/><line class="cls-2" x1="4.91" y1="30.41" x2="-17.15" y2="8.35"/><line class="cls-2" x1="15.55" y1="41.05" x2="4.91" y2="30.41"/><line class="cls-2" x1="30.82" y1="56.32" x2="15.55" y2="41.05"/><line class="cls-2" x1="-18.84" y1="10.09" x2="3.37" y2="32.31"/><line class="cls-2" x1="30.82" y1="59.75" x2="14.02" y2="42.96"/><line class="cls-2" x1="14.02" y1="42.96" x2="3.37" y2="32.31"/><line class="cls-2" x1="-20.46" y1="11.85" x2="12.47" y2="44.79"/><line class="cls-2" x1="30.82" y1="63.13" x2="12.47" y2="44.79"/><line class="cls-2" x1="30.82" y1="66.63" x2="10.83" y2="46.65"/><line class="cls-2" x1="-27.46" y1="8.35" x2="10.83" y2="46.65"/><line class="cls-2" x1="30.82" y1="70" x2="9.21" y2="48.4"/><line class="cls-2" x1="-30.84" y1="8.35" x2="9.21" y2="48.4"/><line class="cls-2" x1="-34.28" y1="8.35" x2="30.82" y2="73.44"/><line class="cls-2" x1="17.13" y1="63.2" x2="30.82" y2="76.88"/><line class="cls-2" x1="-14.12" y1="31.94" x2="17.13" y2="63.2"/><rect class="cls-3" x="-41.18" y="8.35" width="72" height="72"/><rect class="cls-3" width="72.7" height="72.7"/></svg>