<!-- Generator: Adobe Illustrator 22.1.0, SVG Export Plug-In  -->
<svg version="1.1"
     xmlns="http://www.w3.org/2000/svg" xmlns:xlink="http://www.w3.org/1999/xlink" xmlns:a="http://ns.adobe.com/AdobeSVGViewerExtensions/3.0/"
     x="0px" y="0px" width="72.7px" height="72.7px" viewBox="0 0 72.7 72.7" style="enable-background:new 0 0 72.7 72.7;"
     xml:space="preserve">
<style type="text/css">
    .st0{clip-path:url(#SVGID_2_);fill:none;stroke:#000000;stroke-width:0.5;stroke-linecap:square;}
    .st1{clip-path:url(#SVGID_2_);fill:none;stroke:#000000;stroke-width:0.3;stroke-linecap:square;}
    .st2{clip-path:url(#SVGID_4_);fill:none;stroke:#000000;stroke-width:0.5;stroke-linecap:square;}
    .st3{clip-path:url(#SVGID_4_);fill:none;stroke:#000000;stroke-width:0.3;stroke-linecap:square;}
</style>
<defs>
</defs>
<g>
    <defs>
        <rect id="SVGID_1_" x="0.4" y="0.4" width="72" height="72"/>
    </defs>
    <clipPath id="SVGID_2_">
        <use xlink:href="#SVGID_1_"  style="overflow:visible;"/>
    </clipPath>
    <path class="st0" d="M0.4,21.1c3.2-4.3,6.8-9.8,8-12.5"/>
    <path class="st0" d="M11,5.7c1.1-1.1,2.7-3.1,4.4-5.4"/>
    <path class="st0" d="M18,22.5c2.8-2.8,9-11.5,11-15.8"/>
    <path class="st0" d="M23.6,41.1c2.8-2.8,11.1-12.8,13.1-17.1"/>
    <path class="st0" d="M39.3,18.5c2.5-2.5,10-12.9,13-18.1"/>
    <path class="st0" d="M16.2,26.2c-2.5,4-9.6,12-12.7,14.4"/>
    <path class="st0" d="M0.4,46.4c0.8-1.1,1.6-2.1,2.1-2.9"/>
    <path class="st0" d="M32.3,2.9c0.6-0.5,1.4-1.4,2.3-2.6"/>
    <path class="st0" d="M22.5,45.2C20.3,48.8,10.9,60.3,7,63.5"/>
    <path class="st0" d="M41.8,43.1c-1.6,3.3-6.7,7.8-9.7,11.6c-0.8,1-1.6,1.9-2.2,2.5"/>
    <path class="st0" d="M55.8,24c-1.6,3.3-6.7,7.8-9.7,11.6c-0.8,1-1.6,1.9-2.2,2.5"/>
    <path class="st0" d="M50.2,51.8c0.6-0.6,1.3-1.5,2.2-2.5c3.1-3.8,8.2-8.3,9.7-11.6"/>
    <path class="st0" d="M58.7,17.6c0.6-0.6,1.3-1.5,2.2-2.5c3.1-3.8,8.2-8.3,9.7-11.6"/>
    <path class="st0" d="M67.7,26.7c1-1,2.8-3.3,4.7-5.9"/>
    <path class="st0" d="M72.4,46.2C72.3,46.2,72.3,46.2,72.4,46.2c-3.2,4.2-8,12.5-10.5,14.5"/>
    <path class="st0" d="M26.6,59.8c-1.2,2.6-8.6,9-11.2,12.6"/>
    <path class="st0" d="M57.5,64.3c-0.4,0.8-4.9,6.8-5.6,8c0,0,0,0,0,0"/>
    <path class="st0" d="M46,56.2c-1.7,3.4-7.6,11.6-11.4,16.2"/>
    <path class="st0" d="M71.5,61.3c-1.6,2.3-6,7.5-9.1,11"/>
    <path class="st1" d="M24.2,0.4c-0.5,0.6-1,1.2-1.5,1.7"/>
    <path class="st1" d="M20.3,4.7c0.3-0.3,0.5-0.6,0.8-0.9"/>
    <path class="st1" d="M21.1,3.9c0.5-0.6,1.1-1.2,1.6-1.8"/>
    <path class="st0" d="M60.6,2.2c-0.1,0.1-0.2,0.3-0.3,0.4"/>
    <path class="st0" d="M62.2,0.4c-0.6,0.7-1.1,1.3-1.6,1.8"/>
    <path class="st1" d="M2.3,29.7c0.4-0.5,0.8-1,1.1-1.4"/>
    <path class="st1" d="M0.4,32.1c0.1-0.2,0.3-0.3,0.4-0.5"/>
    <path class="st1" d="M0.8,31.6c0.5-0.6,1-1.3,1.5-1.9"/>
    <path class="st1" d="M19.8,33.4c0.5-0.6,1-1.2,1.5-1.8"/>
    <path class="st1" d="M18.2,35.3c0.5-0.6,1-1.2,1.6-1.9"/>
    <path class="st1" d="M25.9,26c-0.5,0.6-0.9,1.2-1.5,1.9"/>
    <path class="st1" d="M21.3,31.6c0.5-0.6,1-1.3,1.5-1.9"/>
    <path class="st1" d="M22.9,29.7c0.5-0.6,1-1.3,1.5-1.9"/>
    <path class="st1" d="M27.4,23.9c0.2-0.3,0.4-0.5,0.5-0.7"/>
    <path class="st1" d="M27.4,23.9c-0.4,0.6-1,1.3-1.5,2"/>
    <path class="st1" d="M17,36.6c0.3-0.4,0.7-0.8,1.2-1.3"/>
    <path class="st1" d="M42.5,4.7C42,5.3,41.5,6,41,6.6"/>
    <path class="st1" d="M37.8,10.3c0.5-0.6,1.1-1.2,1.6-1.8"/>
    <path class="st1" d="M41,6.6c-0.5,0.6-1,1.3-1.6,1.9"/>
    <path class="st1" d="M37.8,10.3c-0.2,0.2-0.4,0.5-0.6,0.7"/>
    <path class="st1" d="M44,2.8c0.2-0.3,0.4-0.6,0.7-0.9"/>
    <path class="st1" d="M42.5,4.7c0.5-0.7,1-1.3,1.5-2"/>
    <path class="st1" d="M71.1,33.3c0.4-0.5,0.8-1,1.2-1.5"/>
    <path class="st1" d="M67.8,36.9c-0.2,0.2-0.5,0.5-0.7,0.7"/>
    <path class="st1" d="M69.5,35.1c0.5-0.6,1.1-1.2,1.6-1.8"/>
    <path class="st1" d="M67.8,36.9c0.5-0.6,1.1-1.2,1.7-1.8"/>
    <path class="st1" d="M15.7,12.2c-0.5,0.6-1,1.3-1.6,2"/>
    <path class="st1" d="M12.6,16c0.5-0.6,1-1.2,1.5-1.8"/>
    <path class="st1" d="M16.7,10.9c-0.3,0.4-0.6,0.8-1,1.3"/>
    <path class="st1" d="M11,17.8c-0.6,0.6-1.1,1.2-1.7,1.8"/>
    <path class="st1" d="M12.6,16c-0.5,0.6-1.1,1.2-1.6,1.8"/>
    <path class="st1" d="M9.3,19.6c-0.2,0.2-0.4,0.5-0.7,0.7"/>
    <path class="st1" d="M50.9,16.5c0.5-0.7,1-1.3,1.5-2"/>
    <path class="st1" d="M46.4,22.4c0.5-0.6,1-1.3,1.5-1.9"/>
    <path class="st1" d="M53.8,12.6c0.5-0.8,1-1.4,1.4-2"/>
    <path class="st1" d="M50.9,16.5c-0.5,0.7-1,1.3-1.5,2"/>
    <path class="st1" d="M52.3,14.5c0.5-0.7,1-1.4,1.4-2"/>
    <path class="st1" d="M55.2,10.6c0.2-0.2,0.3-0.4,0.4-0.6"/>
    <path class="st1" d="M49.4,18.5c-0.5,0.7-1,1.3-1.5,2"/>
    <path class="st1" d="M46.4,22.4c-0.6,0.7-1.1,1.3-1.5,1.9"/>
    <path class="st1" d="M44.9,24.3c-0.4,0.5-0.8,1-1.2,1.3"/>
    <path class="st1" d="M50.1,41.1c0.2-0.2,0.4-0.4,0.6-0.7"/>
    <path class="st1" d="M50.7,40.4c0.5-0.6,1.1-1.1,1.6-1.8"/>
    <path class="st1" d="M55.6,35c-0.5,0.6-1,1.2-1.5,1.8"/>
    <path class="st1" d="M55.6,35c0.5-0.7,1.1-1.3,1.5-1.9"/>
    <path class="st1" d="M54,36.8c-0.5,0.6-1.1,1.3-1.6,1.9"/>
    <path class="st1" d="M58.1,31.7c-0.3,0.4-0.7,0.9-1,1.4"/>
    <path class="st1" d="M52.4,62.6c-0.4,0.4-0.8,0.8-1.1,1.2"/>
    <path class="st1" d="M58.7,55.2c-0.5,0.6-1,1.3-1.6,2"/>
    <path class="st1" d="M58.7,55.2c0.2-0.3,0.4-0.5,0.6-0.8"/>
    <path class="st1" d="M54,60.8c-0.5,0.6-1.1,1.2-1.6,1.8"/>
    <path class="st1" d="M55.6,59c-0.5,0.6-1.1,1.2-1.6,1.8"/>
    <path class="st1" d="M57.1,57.2c-0.5,0.6-1,1.2-1.5,1.8"/>
    <path class="st1" d="M5.9,52.2c0.3-0.3,0.6-0.6,0.8-0.9"/>
    <path class="st1" d="M8.4,49.6c0.5-0.6,1.1-1.2,1.6-1.9"/>
    <path class="st1" d="M6.8,51.3c0.5-0.6,1.1-1.1,1.6-1.7"/>
    <path class="st1" d="M10,47.7c0.5-0.6,1.1-1.3,1.6-1.9"/>
    <path class="st1" d="M13.9,42.8c-0.3,0.3-0.5,0.7-0.8,1.1"/>
    <path class="st1" d="M11.6,45.8c0.5-0.7,1.1-1.3,1.6-1.9"/>
    <path class="st1" d="M27.4,68.6c0.3-0.4,0.7-0.9,0.9-1.3"/>
    <path class="st1" d="M24.3,72.3c0.5-0.6,1.1-1.2,1.6-1.9"/>
    <path class="st1" d="M25.9,70.4c0.5-0.6,1-1.2,1.5-1.8"/>
    <path class="st1" d="M24.6,52c-0.3,0.3-0.6,0.7-0.9,0.9"/>
    <path class="st1" d="M26.1,50.2c0.5-0.6,1-1.2,1.6-1.9"/>
    <path class="st1" d="M27.7,48.3c0.5-0.6,1-1.2,1.5-1.9"/>
    <path class="st1" d="M33.8,40.7c0.4-0.6,0.8-1,1.1-1.4"/>
    <path class="st1" d="M26.1,50.2c-0.6,0.7-1.1,1.3-1.6,1.8"/>
    <path class="st1" d="M29.3,46.4c0.5-0.7,1.1-1.3,1.6-1.9"/>
    <path class="st1" d="M30.8,44.5c0.5-0.7,1-1.3,1.5-1.9"/>
    <path class="st1" d="M32.3,42.6c0.6-0.7,1.1-1.4,1.5-1.9"/>
    <line class="st1" x1="0.4" y1="0.4" x2="14.1" y2="14.2"/>
    <line class="st1" x1="25.9" y1="26" x2="14.1" y2="14.2"/>
    <line class="st1" x1="57.1" y1="57.2" x2="25.9" y2="26"/>
    <line class="st1" x1="57.1" y1="57.2" x2="72.3" y2="72.4"/>
    <line class="st1" x1="68.9" y1="72.4" x2="55.6" y2="59"/>
    <line class="st1" x1="12.6" y1="16" x2="24.4" y2="27.8"/>
    <line class="st1" x1="24.4" y1="27.8" x2="55.6" y2="59"/>
    <line class="st1" x1="0.4" y1="3.8" x2="12.6" y2="16"/>
    <line class="st1" x1="65.5" y1="72.4" x2="54" y2="60.8"/>
    <line class="st1" x1="0.4" y1="7.2" x2="11" y2="17.8"/>
    <line class="st1" x1="22.9" y1="29.7" x2="11" y2="17.8"/>
    <line class="st1" x1="22.9" y1="29.7" x2="33.8" y2="40.7"/>
    <line class="st1" x1="54" y1="60.8" x2="33.8" y2="40.7"/>
    <line class="st1" x1="21.3" y1="31.6" x2="9.3" y2="19.6"/>
    <line class="st1" x1="21.3" y1="31.6" x2="32.3" y2="42.6"/>
    <line class="st1" x1="62.1" y1="72.4" x2="52.4" y2="62.6"/>
    <line class="st1" x1="32.3" y1="42.6" x2="52.4" y2="62.6"/>
    <line class="st1" x1="0.4" y1="10.6" x2="9.3" y2="19.6"/>
    <line class="st1" x1="19.8" y1="33.4" x2="30.8" y2="44.5"/>
    <line class="st1" x1="19.8" y1="33.4" x2="0.4" y2="14"/>
    <line class="st1" x1="58.7" y1="72.4" x2="30.8" y2="44.5"/>
    <line class="st1" x1="18.2" y1="35.3" x2="29.3" y2="46.4"/>
    <line class="st1" x1="55.2" y1="72.4" x2="29.3" y2="46.4"/>
    <line class="st1" x1="0.4" y1="17.5" x2="18.2" y2="35.3"/>
    <line class="st1" x1="0.4" y1="20.9" x2="27.7" y2="48.3"/>
    <line class="st1" x1="51.8" y1="72.4" x2="27.7" y2="48.3"/>
    <line class="st1" x1="48.3" y1="72.4" x2="26.1" y2="50.2"/>
    <line class="st1" x1="0.4" y1="24.4" x2="26.1" y2="50.2"/>
    <line class="st1" x1="0.4" y1="27.8" x2="2.3" y2="29.7"/>
    <line class="st1" x1="24.6" y1="52" x2="2.3" y2="29.7"/>
    <line class="st1" x1="44.9" y1="72.4" x2="24.6" y2="52"/>
    <line class="st1" x1="0.8" y1="31.6" x2="13.1" y2="43.9"/>
    <line class="st1" x1="0.4" y1="31.1" x2="0.8" y2="31.6"/>
    <line class="st1" x1="41.6" y1="72.4" x2="13.1" y2="43.9"/>
    <line class="st1" x1="38.1" y1="72.4" x2="11.6" y2="45.8"/>
    <line class="st1" x1="0.4" y1="34.6" x2="11.6" y2="45.8"/>
    <line class="st1" x1="10" y1="47.7" x2="34.6" y2="72.4"/>
    <line class="st1" x1="0.4" y1="38.1" x2="10" y2="47.7"/>
    <line class="st1" x1="8.4" y1="49.6" x2="27.4" y2="68.6"/>
    <line class="st1" x1="31.1" y1="72.4" x2="27.4" y2="68.6"/>
    <line class="st1" x1="0.4" y1="41.6" x2="8.4" y2="49.6"/>
    <line class="st1" x1="6.8" y1="51.3" x2="25.9" y2="70.4"/>
    <line class="st1" x1="0.4" y1="44.9" x2="6.8" y2="51.3"/>
    <line class="st1" x1="27.8" y1="72.4" x2="25.9" y2="70.4"/>
    <line class="st1" x1="0.4" y1="48.3" x2="24.3" y2="72.3"/>
    <line class="st1" x1="0.4" y1="51.8" x2="20.9" y2="72.4"/>
    <line class="st1" x1="0.4" y1="55.2" x2="17.5" y2="72.4"/>
    <line class="st1" x1="0.4" y1="58.6" x2="14.1" y2="72.4"/>
    <line class="st1" x1="0.4" y1="62.1" x2="10.6" y2="72.4"/>
    <line class="st1" x1="0.4" y1="65.5" x2="7.2" y2="72.4"/>
    <line class="st1" x1="0.4" y1="68.9" x2="3.8" y2="72.4"/>
    <line class="st1" x1="72.4" y1="3.8" x2="68.9" y2="0.4"/>
    <line class="st1" x1="72.4" y1="7.1" x2="65.6" y2="0.4"/>
    <line class="st1" x1="72.4" y1="10.6" x2="62.2" y2="0.4"/>
    <line class="st1" x1="58.8" y1="0.4" x2="60.6" y2="2.2"/>
    <line class="st1" x1="72.4" y1="13.9" x2="60.6" y2="2.2"/>
    <line class="st1" x1="72.4" y1="17.4" x2="55.3" y2="0.4"/>
    <line class="st1" x1="72.4" y1="20.9" x2="51.8" y2="0.4"/>
    <line class="st1" x1="48.4" y1="0.4" x2="72.4" y2="24.3"/>
    <line class="st1" x1="44.9" y1="0.4" x2="55.2" y2="10.6"/>
    <line class="st1" x1="55.2" y1="10.6" x2="72.4" y2="27.8"/>
    <line class="st1" x1="53.8" y1="12.6" x2="72.4" y2="31.1"/>
    <line class="st1" x1="44" y1="2.8" x2="53.8" y2="12.6"/>
    <line class="st1" x1="41.6" y1="0.4" x2="44" y2="2.8"/>
    <line class="st1" x1="42.5" y1="4.7" x2="38.1" y2="0.4"/>
    <line class="st1" x1="52.3" y1="14.5" x2="42.5" y2="4.7"/>
    <line class="st1" x1="52.3" y1="14.5" x2="71.1" y2="33.3"/>
    <line class="st1" x1="72.4" y1="34.6" x2="71.1" y2="33.3"/>
    <line class="st1" x1="50.9" y1="16.5" x2="41" y2="6.6"/>
    <line class="st1" x1="72.4" y1="38" x2="69.5" y2="35.1"/>
    <line class="st1" x1="34.7" y1="0.4" x2="41" y2="6.6"/>
    <line class="st1" x1="50.9" y1="16.5" x2="69.5" y2="35.1"/>
    <line class="st1" x1="31.3" y1="0.4" x2="39.4" y2="8.5"/>
    <line class="st1" x1="49.4" y1="18.5" x2="39.4" y2="8.5"/>
    <line class="st1" x1="72.4" y1="41.4" x2="67.8" y2="36.9"/>
    <line class="st1" x1="67.8" y1="36.9" x2="49.4" y2="18.5"/>
    <line class="st1" x1="37.8" y1="10.3" x2="27.8" y2="0.4"/>
    <line class="st1" x1="72.4" y1="44.9" x2="47.9" y2="20.5"/>
    <line class="st1" x1="37.8" y1="10.3" x2="47.9" y2="20.5"/>
    <line class="st1" x1="46.4" y1="22.4" x2="24.4" y2="0.4"/>
    <line class="st1" x1="57.1" y1="33.1" x2="46.4" y2="22.4"/>
    <line class="st1" x1="72.4" y1="48.3" x2="57.1" y2="33.1"/>
    <line class="st1" x1="22.7" y1="2.1" x2="44.9" y2="24.3"/>
    <line class="st1" x1="20.9" y1="0.4" x2="22.7" y2="2.1"/>
    <line class="st1" x1="72.4" y1="51.8" x2="55.6" y2="35"/>
    <line class="st1" x1="55.6" y1="35" x2="44.9" y2="24.3"/>
    <line class="st1" x1="21.1" y1="3.9" x2="54" y2="36.8"/>
    <line class="st1" x1="17.6" y1="0.4" x2="21.1" y2="3.9"/>
    <line class="st1" x1="72.4" y1="55.1" x2="54" y2="36.8"/>
    <line class="st1" x1="72.4" y1="58.6" x2="52.4" y2="38.7"/>
    <line class="st1" x1="14.1" y1="0.4" x2="52.4" y2="38.7"/>
    <line class="st1" x1="72.4" y1="62" x2="50.7" y2="40.4"/>
    <line class="st1" x1="10.7" y1="0.4" x2="50.7" y2="40.4"/>
    <line class="st1" x1="7.3" y1="0.4" x2="72.4" y2="65.4"/>
    <line class="st1" x1="3.8" y1="0.4" x2="15.7" y2="12.2"/>
    <line class="st1" x1="58.7" y1="55.2" x2="72.4" y2="68.9"/>
    <line class="st1" x1="27.4" y1="23.9" x2="58.7" y2="55.2"/>
    <line class="st1" x1="27.4" y1="23.9" x2="15.7" y2="12.2"/>
</g>
</svg>
