<!-- Generator: Adobe Illustrator 22.1.0, SVG Export Plug-In  -->
<svg version="1.1"
     xmlns="http://www.w3.org/2000/svg" xmlns:xlink="http://www.w3.org/1999/xlink" xmlns:a="http://ns.adobe.com/AdobeSVGViewerExtensions/3.0/"
     x="0px" y="0px" width="59.1px" height="59px" viewBox="0 0 59.1 59" style="enable-background:new 0 0 59.1 59;"
     xml:space="preserve">
<style type="text/css">
    .st0{clip-path:url(#SVGID_2_);fill:none;stroke:#000000;stroke-width:0.3;}
    .st1{clip-path:url(#SVGID_4_);fill:none;stroke:#000000;stroke-width:0.3;}
</style>
<defs>
</defs>
<g>
    <defs>
        <rect id="SVGID_1_" x="0.1" y="0.1" width="58.9" height="58.9"/>
    </defs>
    <clipPath id="SVGID_2_">
        <use xlink:href="#SVGID_1_"  style="overflow:visible;"/>
    </clipPath>
    <path class="st0" d="M2.1,0.1C2.9,2.2,5,4.8,7.8,6.2c3.1,1.6,4.7,4.4,5.5,5.9c0.9,1.7,4.2,4.4,6.5,5.5c2.3,1.1,5.4,4.3,5.9,5.9
        c0.5,1.6,4.1,5.1,5.9,6c1.8,1,5.1,4.1,5.8,5.6c0.7,1.5,3.2,4.4,5.9,5.9c2.8,1.5,5.2,4.3,5.9,5.9c0.7,1.6,3.4,4.8,5.9,5.9
        c1.3,0.6,2.7,1.8,3.8,3.1"/>
    <path class="st0" d="M8.5,0.1c0.9,2.1,2.9,4.8,5.7,6.2c3.1,1.6,4.7,4.4,5.5,5.9c0.9,1.7,4.2,4.4,6.5,5.5c2.3,1.1,5.4,4.3,5.9,5.9
        c0.5,1.6,4.1,5.1,5.9,6c1.8,1,5.1,4.1,5.8,5.6c0.7,1.5,3.2,4.4,5.9,5.9c2.8,1.5,5.2,4.3,5.9,5.9c0.5,1.1,1.8,2.8,3.4,4.2"/>
    <path class="st0" d="M15,0.1c0.9,2.1,2.9,4.8,5.7,6.2c3.1,1.6,4.7,4.4,5.5,5.9c0.9,1.7,4.2,4.4,6.5,5.5c2.3,1.1,5.4,4.3,5.9,5.9
        c0.6,1.6,4.1,5.1,5.9,6c1.8,1,5.1,4.1,5.8,5.6c0.7,1.5,3.2,4.4,5.9,5.9c1,0.5,1.9,1.2,2.7,1.9"/>
    <path class="st0" d="M21.6,0.1c0.9,2.1,2.9,4.8,5.7,6.2c3.1,1.6,4.7,4.4,5.5,5.9c0.9,1.7,4.2,4.4,6.5,5.5c2.3,1.1,5.4,4.3,5.9,5.9
        c0.5,1.6,4.1,5.1,5.9,6c1.8,1,5.1,4.1,5.8,5.6C57.2,36,58,37,59,38.1"/>
    <path class="st0" d="M28.1,0.1c0.9,2.1,2.9,4.8,5.7,6.2c3.1,1.6,4.7,4.4,5.5,5.9c0.9,1.7,4.2,4.4,6.5,5.5c2.3,1.1,5.4,4.3,5.9,5.9
        c0.6,1.6,4.1,5.1,5.9,6c0.4,0.2,0.8,0.5,1.3,0.9"/>
    <path class="st0" d="M34.7,0.1c0.9,2.1,2.9,4.8,5.7,6.2c3.1,1.6,4.7,4.4,5.5,5.9c0.9,1.7,4.2,4.4,6.5,5.5c2.3,1.1,5.4,4.3,5.9,5.9
        c0.1,0.3,0.3,0.7,0.7,1.2"/>
    <path class="st0" d="M41.2,0.1c0.9,2.1,2.9,4.8,5.7,6.2c3.1,1.6,4.7,4.4,5.5,5.9c0.9,1.7,4.2,4.4,6.5,5.5c0,0,0,0,0,0"/>
    <path class="st0" d="M47.8,0.1c0.9,2.1,2.9,4.8,5.7,6.2c3.1,1.6,4.7,4.3,5.5,5.9"/>
    <path class="st0" d="M54.4,0.1c0.7,1.8,2.4,4.1,4.6,5.6"/>
    <path class="st0" d="M0.1,56c0.8,1,1.5,2,2,2.9"/>
    <path class="st0" d="M0.1,51.2C1,52,1.8,52.6,2.7,53c2.3,1,4.7,3.8,5.9,5.9"/>
    <path class="st0" d="M0.1,43.1c1.5,1.4,2.7,2.9,3.2,4C4,48.7,6.8,51.9,9.2,53c2.3,1,4.7,3.8,5.9,5.9"/>
    <path class="st0" d="M0.1,38.1c1.1,1.1,2.4,2.3,3.8,3.1c2.8,1.5,5.2,4.3,5.9,5.9c0.7,1.6,3.4,4.8,5.9,5.9c2.3,1,4.7,3.8,5.9,5.9"/>
    <path class="st0" d="M0.1,30.5c1.8,1.4,3.9,3.6,4.5,4.8c0.7,1.5,3.2,4.4,5.9,5.9c2.8,1.5,5.2,4.3,5.9,5.9c0.7,1.6,3.4,4.8,5.9,5.9
        c2.3,1,4.7,3.8,5.9,5.9"/>
    <path class="st0" d="M0.1,24.7c1.3,1.8,3.8,4.1,5.2,4.9c1.8,1,5.1,4.1,5.8,5.6c0.7,1.5,3.2,4.4,5.9,5.9c2.8,1.5,5.2,4.3,5.9,5.9
        c0.7,1.6,3.4,4.8,5.9,5.9c2.3,1,4.7,3.8,5.9,5.9"/>
    <path class="st0" d="M0.1,17.6c2.3,1.1,5.3,4.3,5.9,5.9c0.6,1.6,4.1,5.1,5.9,6c1.8,1,5.1,4.1,5.8,5.6c0.7,1.5,3.2,4.4,5.9,5.9
        c2.8,1.5,5.2,4.3,5.9,5.9c0.7,1.6,3.4,4.8,5.9,5.9c2.3,1,4.7,3.8,5.9,5.9"/>
    <path class="st0" d="M0.1,12.1C0.1,12.1,0.2,12.1,0.1,12.1c0.9,1.8,4.2,4.4,6.5,5.5c2.3,1.1,5.4,4.3,5.9,5.9c0.5,1.6,4.1,5.1,5.9,6
        c1.8,1,5.1,4.1,5.8,5.6c0.7,1.5,3.2,4.4,5.9,5.9c2.8,1.5,5.2,4.3,5.9,5.9c0.7,1.6,3.4,4.8,5.9,5.9c2.3,1,4.7,3.8,5.9,5.9"/>
    <path class="st0" d="M0.1,5.6c0.3,0.2,0.7,0.4,1.1,0.6c3.1,1.6,4.7,4.4,5.5,5.9c0.9,1.7,4.2,4.4,6.5,5.5c2.3,1.1,5.4,4.3,5.9,5.9
        c0.6,1.6,4.1,5.1,5.9,6c1.8,1,5.1,4.1,5.8,5.6c0.7,1.5,3.2,4.4,5.9,5.9c2.8,1.5,5.2,4.3,5.9,5.9c0.7,1.6,3.4,4.8,5.9,5.9
        c2.3,1,4.7,3.8,5.9,5.9"/>
    <line class="st0" x1="12.7" y1="7.2" x2="10.1" y2="6.1"/>
    <line class="st0" x1="11.7" y1="13.1" x2="9.1" y2="12"/>
    <line class="st0" x1="17.2" y1="11.3" x2="17.1" y2="14"/>
    <line class="st0" x1="27.1" y1="20.7" x2="24.2" y2="19.4"/>
    <line class="st0" x1="33.7" y1="27.9" x2="30.7" y2="27"/>
    <line class="st0" x1="24.6" y1="31" x2="22.2" y2="30.3"/>
    <line class="st0" x1="40.3" y1="33.6" x2="39.6" y2="36.5"/>
    <line class="st0" x1="48.8" y1="43.3" x2="46.2" y2="41.3"/>
    <line class="st0" x1="54.8" y1="48.8" x2="52.4" y2="47.9"/>
    <line class="st0" x1="12.9" y1="2.8" x2="12" y2="0.5"/>
    <line class="st0" x1="20.7" y1="7.4" x2="18.6" y2="8.5"/>
    <line class="st0" x1="26.1" y1="13.8" x2="23.1" y2="14"/>
    <line class="st0" x1="12.8" y1="18.7" x2="10.4" y2="18.5"/>
    <line class="st0" x1="33.7" y1="20.6" x2="33.3" y2="23.6"/>
    <line class="st0" x1="40.2" y1="29.4" x2="38.9" y2="26.7"/>
    <line class="st0" x1="47.3" y1="34.4" x2="45.9" y2="36.8"/>
    <line class="st0" x1="33.8" y1="33.2" x2="32.8" y2="34.8"/>
    <line class="st0" x1="21.7" y1="2.8" x2="20.1" y2="4.1"/>
    <line class="st0" x1="41.1" y1="21.1" x2="38.4" y2="19.7"/>
    <line class="st0" x1="26.1" y1="26.9" x2="23" y2="25.1"/>
    <line class="st0" x1="30.3" y1="11.3" x2="29.9" y2="13.8"/>
    <line class="st0" x1="47.7" y1="28.2" x2="44.6" y2="27.9"/>
    <line class="st0" x1="55.1" y1="36.7" x2="52.7" y2="36.3"/>
    <line class="st0" x1="55.4" y1="44.1" x2="54.6" y2="41.7"/>
    <line class="st0" x1="3.9" y1="10.4" x2="2.2" y2="11.7"/>
    <line class="st0" x1="16.6" y1="22.7" x2="16.2" y2="25.2"/>
    <line class="st0" x1="29.7" y1="37.7" x2="28.9" y2="35.7"/>
    <line class="st0" x1="40.5" y1="48.4" x2="39.8" y2="46"/>
    <line class="st0" x1="5.2" y1="6" x2="2.2" y2="4.3"/>
    <line class="st0" x1="41.9" y1="41.9" x2="39.8" y2="41.3"/>
    <line class="st0" x1="47.6" y1="49.9" x2="45.9" y2="47.7"/>
    <line class="st0" x1="49" y1="55" x2="48" y2="56.9"/>
    <line class="st0" x1="54.4" y1="55.8" x2="53.8" y2="53.8"/>
    <line class="st0" x1="35.7" y1="41.8" x2="34.1" y2="42.9"/>
    <line class="st0" x1="19" y1="20.8" x2="18" y2="18.1"/>
    <line class="st0" x1="47.3" y1="2.3" x2="44.7" y2="1.2"/>
    <line class="st0" x1="55.2" y1="9.3" x2="54.9" y2="12.8"/>
    <line class="st0" x1="48.4" y1="8.9" x2="45.1" y2="8.5"/>
    <line class="st0" x1="55.1" y1="3.9" x2="52" y2="4.1"/>
    <line class="st0" x1="39.9" y1="9.7" x2="38.6" y2="6.8"/>
    <line class="st0" x1="56.7" y1="18.4" x2="54.2" y2="17"/>
    <line class="st0" x1="33.1" y1="1.4" x2="31.5" y2="2.6"/>
    <line class="st0" x1="47.7" y1="15.5" x2="47.3" y2="17.9"/>
    <line class="st0" x1="55.2" y1="31.6" x2="54.9" y2="28.8"/>
    <line class="st0" x1="33.2" y1="7.3" x2="30.3" y2="6.6"/>
    <line class="st0" x1="48.4" y1="22.5" x2="46.3" y2="22.5"/>
    <line class="st0" x1="24.3" y1="51.1" x2="21.4" y2="50.3"/>
    <line class="st0" x1="5.2" y1="52.8" x2="7.3" y2="52.7"/>
    <line class="st0" x1="4.3" y1="36.7" x2="1.4" y2="35.9"/>
    <line class="st0" x1="23.1" y1="36.3" x2="21.6" y2="37.4"/>
    <line class="st0" x1="5.4" y1="47.3" x2="4.6" y2="44"/>
    <line class="st0" x1="25.6" y1="56.6" x2="23" y2="57.9"/>
    <line class="st0" x1="16.5" y1="55.5" x2="14" y2="54"/>
    <line class="st0" x1="18.2" y1="45.3" x2="16.8" y2="42.9"/>
    <line class="st0" x1="11.6" y1="32.5" x2="10.4" y2="30.4"/>
    <line class="st0" x1="9.4" y1="23.5" x2="8.1" y2="25.2"/>
    <line class="st0" x1="3.1" y1="16.1" x2="2.7" y2="18.2"/>
    <line class="st0" x1="9.2" y1="35.7" x2="8.3" y2="37.9"/>
    <line class="st0" x1="17.1" y1="31.8" x2="16.1" y2="30.1"/>
    <line class="st0" x1="17.3" y1="36.9" x2="15.6" y2="38.5"/>
    <line class="st0" x1="29.6" y1="49.3" x2="28.7" y2="51.2"/>
    <line class="st0" x1="23.9" y1="45" x2="23.1" y2="42.6"/>
    <line class="st0" x1="15.7" y1="48.5" x2="15.3" y2="51.4"/>
    <line class="st0" x1="37.7" y1="51.1" x2="35.7" y2="52"/>
    <line class="st0" x1="4.1" y1="55.5" x2="3.2" y2="57.8"/>
    <line class="st0" x1="3.1" y1="29.6" x2="0.9" y2="28.8"/>
    <line class="st0" x1="3.7" y1="23.7" x2="1.7" y2="24.2"/>
    <line class="st0" x1="12.3" y1="44.6" x2="9.6" y2="43.8"/>
    <line class="st0" x1="31.1" y1="43.8" x2="30.3" y2="45.7"/>
    <line class="st0" x1="39.8" y1="14.8" x2="37" y2="14.1"/>
    <line class="st0" x1="36.4" y1="55.2" x2="35.6" y2="57"/>
</g>
</svg>
