<svg id="Layer_1" data-name="Layer 1" xmlns="http://www.w3.org/2000/svg" width="59.12" height="58.98" viewBox="0 0 59.12 58.98"><defs><style>.cls-1,.cls-2{fill:none;}.cls-1{stroke:#000;stroke-width:0.3px;}</style></defs><title>Artboard 37</title><path class="cls-1" d="M8.51-51.46a12.74,12.74,0,0,0,5.71,6.19,13.15,13.15,0,0,1,5.5,5.91c.9,1.72,4.16,4.37,6.5,5.47s5.36,4.26,5.91,5.91,4.13,5.09,5.92,6.05,5.08,4.12,5.77,5.64a16,16,0,0,0,5.91,5.91,15.08,15.08,0,0,1,5.92,5.91,14.24,14.24,0,0,0,5.91,5.91,12.21,12.21,0,0,1,3.85,3.07"/><path class="cls-1" d="M6.55,4.51a14.25,14.25,0,0,1,2,2.88"/><path class="cls-1" d="M6.55-.27A10.26,10.26,0,0,0,9.1,1.44,14.54,14.54,0,0,1,15,7.39"/><path class="cls-1" d="M6.55-8.43a12.71,12.71,0,0,1,3.19,4,14.36,14.36,0,0,0,5.91,5.91,14.54,14.54,0,0,1,5.86,5.95"/><path class="cls-1" d="M6.55-13.44a16.38,16.38,0,0,0,3.83,3.06,15,15,0,0,1,5.91,5.91,14.33,14.33,0,0,0,5.92,5.91,14.51,14.51,0,0,1,5.85,5.95"/><path class="cls-1" d="M6.55-21A18,18,0,0,1,11-16.29a16,16,0,0,0,5.92,5.91,15,15,0,0,1,5.91,5.91,14.36,14.36,0,0,0,5.91,5.91,14.54,14.54,0,0,1,5.86,5.95"/><path class="cls-1" d="M6.55-26.79a20.7,20.7,0,0,0,5.25,4.86c1.79,1,5.09,4.12,5.78,5.64a15.92,15.92,0,0,0,5.91,5.91A15,15,0,0,1,29.4-4.47a14.36,14.36,0,0,0,5.91,5.91,14.54,14.54,0,0,1,5.86,5.95"/><path class="cls-1" d="M6.55-33.88c2.34,1.11,5.34,4.26,5.89,5.9s4.13,5.09,5.91,6.05,5.09,4.12,5.78,5.64A16,16,0,0,0,30-10.38,15,15,0,0,1,36-4.47a14.33,14.33,0,0,0,5.92,5.91,14.51,14.51,0,0,1,5.85,5.95"/><path class="cls-1" d="M6.55-39.42l0,.06c.89,1.72,4.15,4.37,6.49,5.47S18.44-29.63,19-28s4.13,5.09,5.92,6.05,5.08,4.12,5.77,5.64a16,16,0,0,0,5.91,5.91,15.08,15.08,0,0,1,5.92,5.91,14.24,14.24,0,0,0,5.91,5.91,14.45,14.45,0,0,1,5.85,5.95"/><path class="cls-1" d="M6.55-45.91a10.73,10.73,0,0,0,1.09.64,13.21,13.21,0,0,1,5.5,5.91c.89,1.72,4.16,4.37,6.5,5.47S25-29.63,25.55-28s4.12,5.09,5.91,6.05,5.09,4.12,5.78,5.64a15.92,15.92,0,0,0,5.91,5.91,15,15,0,0,1,5.91,5.91A14.36,14.36,0,0,0,55,1.44a14.54,14.54,0,0,1,5.86,5.95"/><line class="cls-1" x1="55.41" y1="3.53" x2="54.41" y2="5.36"/><line class="cls-1" x1="11.66" y1="1.32" x2="13.69" y2="1.14"/><line class="cls-1" x1="32.06" y1="5.12" x2="29.41" y2="6.41"/><line class="cls-1" x1="22.91" y1="3.94" x2="20.45" y2="2.49"/><line class="cls-1" x1="44.14" y1="-0.37" x2="42.12" y2="0.5"/><line class="cls-1" x1="10.51" y1="4.03" x2="9.66" y2="6.25"/><line class="cls-1" x1="42.81" y1="3.68" x2="42" y2="5.51"/><rect class="cls-2" x="6.55" y="-51.46" width="58.85" height="58.85"/><path class="cls-1" d="M8.51,7.39a12.74,12.74,0,0,0,5.71,6.19,13.15,13.15,0,0,1,5.5,5.91c.9,1.72,4.16,4.37,6.5,5.47s5.36,4.26,5.91,5.91,4.13,5.09,5.92,6.05,5.08,4.12,5.77,5.64a16,16,0,0,0,5.91,5.91,15.08,15.08,0,0,1,5.92,5.91,14.18,14.18,0,0,0,5.91,5.91,12.35,12.35,0,0,1,3.85,3.07"/><path class="cls-1" d="M14.9,7.39a12.76,12.76,0,0,0,5.72,6.19,13.27,13.27,0,0,1,5.5,5.91c.89,1.72,4.16,4.37,6.49,5.47s5.37,4.26,5.92,5.91,4.12,5.09,5.91,6.05,5.09,4.12,5.77,5.64a16,16,0,0,0,5.92,5.91A15,15,0,0,1,62,54.38a13.6,13.6,0,0,0,3.37,4.2"/><path class="cls-1" d="M21.45,7.39a12.81,12.81,0,0,0,5.72,6.19,13.21,13.21,0,0,1,5.5,5.91c.89,1.72,4.16,4.37,6.5,5.47s5.36,4.26,5.91,5.91S49.2,36,51,36.92s5.09,4.12,5.78,5.64a15.92,15.92,0,0,0,5.91,5.91,15.64,15.64,0,0,1,2.73,2"/><path class="cls-1" d="M28,7.39a12.74,12.74,0,0,0,5.71,6.19,13.15,13.15,0,0,1,5.5,5.91c.9,1.72,4.16,4.37,6.5,5.47s5.36,4.26,5.91,5.91,4.13,5.09,5.91,6.05,5.09,4.12,5.78,5.64a11.89,11.89,0,0,0,2.09,2.85"/><path class="cls-1" d="M34.56,7.39a12.76,12.76,0,0,0,5.72,6.19,13.27,13.27,0,0,1,5.5,5.91c.89,1.72,4.16,4.37,6.49,5.47s5.37,4.26,5.92,5.91S62.31,36,64.1,36.92a9.67,9.67,0,0,1,1.31.88"/><path class="cls-1" d="M41.11,7.39a12.81,12.81,0,0,0,5.72,6.19,13.21,13.21,0,0,1,5.5,5.91c.89,1.72,4.16,4.37,6.5,5.47s5.36,4.26,5.91,5.91a5,5,0,0,0,.67,1.19"/><path class="cls-1" d="M47.67,7.39a12.74,12.74,0,0,0,5.71,6.19,13.15,13.15,0,0,1,5.5,5.91c.9,1.72,4.16,4.37,6.5,5.47h0"/><path class="cls-1" d="M54.22,7.39a12.76,12.76,0,0,0,5.72,6.19,13.23,13.23,0,0,1,5.47,5.85"/><path class="cls-1" d="M6.55,58.58A10.26,10.26,0,0,0,9.1,60.29,14.54,14.54,0,0,1,15,66.24"/><path class="cls-1" d="M6.55,50.42a12.82,12.82,0,0,1,3.19,4,14.3,14.3,0,0,0,5.91,5.91,14.54,14.54,0,0,1,5.86,5.95"/><path class="cls-1" d="M6.55,45.41a16.38,16.38,0,0,0,3.83,3.06,15,15,0,0,1,5.91,5.91,14.27,14.27,0,0,0,5.92,5.91,14.51,14.51,0,0,1,5.85,5.95"/><path class="cls-1" d="M6.55,37.8A18,18,0,0,1,11,42.56a16,16,0,0,0,5.92,5.91,15,15,0,0,1,5.91,5.91,14.3,14.3,0,0,0,5.91,5.91,14.54,14.54,0,0,1,5.86,5.95"/><path class="cls-1" d="M6.55,32.06a20.7,20.7,0,0,0,5.25,4.86c1.79,1,5.09,4.12,5.78,5.64a15.92,15.92,0,0,0,5.91,5.91,15,15,0,0,1,5.91,5.91,14.3,14.3,0,0,0,5.91,5.91,14.54,14.54,0,0,1,5.86,5.95"/><path class="cls-1" d="M6.55,25c2.34,1.11,5.34,4.26,5.89,5.9s4.13,5.09,5.91,6.05,5.09,4.12,5.78,5.64A16,16,0,0,0,30,48.47,15,15,0,0,1,36,54.38a14.27,14.27,0,0,0,5.92,5.91,14.51,14.51,0,0,1,5.85,5.95"/><path class="cls-1" d="M6.55,19.43l0,.06c.89,1.72,4.15,4.37,6.49,5.47s5.36,4.26,5.91,5.91,4.13,5.09,5.92,6.05S30,41,30.68,42.56a16,16,0,0,0,5.91,5.91,15.08,15.08,0,0,1,5.92,5.91,14.18,14.18,0,0,0,5.91,5.91,14.45,14.45,0,0,1,5.85,5.95"/><path class="cls-1" d="M6.55,12.94a10.73,10.73,0,0,0,1.09.64,13.21,13.21,0,0,1,5.5,5.91c.89,1.72,4.16,4.37,6.5,5.47s5.36,4.26,5.91,5.91,4.12,5.09,5.91,6.05,5.09,4.12,5.78,5.64a15.92,15.92,0,0,0,5.91,5.91,15,15,0,0,1,5.91,5.91A14.3,14.3,0,0,0,55,60.29a14.54,14.54,0,0,1,5.86,5.95"/><line class="cls-1" x1="19.11" y1="14.54" x2="16.51" y2="13.43"/><line class="cls-1" x1="18.14" y1="20.41" x2="15.54" y2="19.29"/><line class="cls-1" x1="23.6" y1="18.62" x2="23.47" y2="21.34"/><line class="cls-1" x1="33.51" y1="28.05" x2="30.6" y2="26.75"/><line class="cls-1" x1="40.17" y1="35.27" x2="37.16" y2="34.34"/><line class="cls-1" x1="31" y1="38.36" x2="28.59" y2="37.65"/><line class="cls-1" x1="46.77" y1="40.95" x2="46.02" y2="43.8"/><line class="cls-1" x1="55.18" y1="50.61" x2="52.64" y2="48.61"/><line class="cls-1" x1="61.18" y1="56.12" x2="58.79" y2="55.22"/><line class="cls-1" x1="19.3" y1="10.13" x2="18.45" y2="7.84"/><line class="cls-1" x1="27.11" y1="14.74" x2="25" y2="15.84"/><line class="cls-1" x1="32.56" y1="21.17" x2="29.5" y2="21.36"/><line class="cls-1" x1="19.19" y1="26.05" x2="16.83" y2="25.84"/><line class="cls-1" x1="40.09" y1="27.93" x2="39.72" y2="30.9"/><line class="cls-1" x1="46.6" y1="36.69" x2="45.31" y2="34.05"/><line class="cls-1" x1="53.75" y1="41.72" x2="52.3" y2="44.18"/><line class="cls-1" x1="40.27" y1="40.55" x2="39.25" y2="42.12"/><line class="cls-1" x1="28.12" y1="10.17" x2="26.51" y2="11.41"/><line class="cls-1" x1="47.48" y1="28.45" x2="44.8" y2="27.05"/><line class="cls-1" x1="32.5" y1="34.28" x2="29.46" y2="32.43"/><line class="cls-1" x1="36.73" y1="18.63" x2="36.35" y2="21.11"/><line class="cls-1" x1="54.12" y1="35.57" x2="51.03" y2="35.2"/><line class="cls-1" x1="61.54" y1="44.05" x2="59.11" y2="43.6"/><line class="cls-1" x1="10.27" y1="17.77" x2="8.66" y2="19.01"/><line class="cls-1" x1="23.03" y1="30.01" x2="22.66" y2="32.49"/><line class="cls-1" x1="36.09" y1="44.99" x2="35.33" y2="43.01"/><line class="cls-1" x1="46.94" y1="55.77" x2="46.2" y2="53.29"/><line class="cls-1" x1="11.62" y1="13.38" x2="8.65" y2="11.65"/><line class="cls-1" x1="48.37" y1="49.26" x2="46.19" y2="48.62"/><line class="cls-1" x1="54" y1="57.19" x2="52.33" y2="55.01"/><line class="cls-1" x1="42.16" y1="49.17" x2="40.52" y2="50.21"/><line class="cls-1" x1="25.38" y1="28.16" x2="24.39" y2="25.43"/><line class="cls-1" x1="53.75" y1="9.67" x2="51.15" y2="8.56"/><line class="cls-1" x1="54.85" y1="16.28" x2="51.5" y2="15.79"/><line class="cls-1" x1="61.51" y1="11.24" x2="58.46" y2="11.43"/><line class="cls-1" x1="46.33" y1="17.01" x2="45" y2="14.17"/><line class="cls-1" x1="39.54" y1="8.71" x2="37.93" y2="9.94"/><line class="cls-1" x1="54.11" y1="22.8" x2="53.74" y2="25.27"/><line class="cls-1" x1="39.6" y1="14.59" x2="36.77" y2="13.92"/><line class="cls-1" x1="54.83" y1="29.84" x2="52.69" y2="29.84"/><line class="cls-1" x1="30.71" y1="58.42" x2="27.86" y2="57.68"/><line class="cls-1" x1="10.77" y1="44.03" x2="7.8" y2="43.29"/><line class="cls-1" x1="29.5" y1="43.67" x2="27.98" y2="44.77"/><line class="cls-1" x1="11.81" y1="54.66" x2="11.06" y2="51.31"/><line class="cls-1" x1="24.6" y1="52.65" x2="23.19" y2="50.21"/><line class="cls-1" x1="17.98" y1="39.88" x2="16.81" y2="37.71"/><line class="cls-1" x1="15.83" y1="30.84" x2="14.57" y2="32.57"/><line class="cls-1" x1="9.48" y1="23.48" x2="9.16" y2="25.51"/><line class="cls-1" x1="15.66" y1="43.01" x2="14.71" y2="45.26"/><line class="cls-1" x1="23.5" y1="39.17" x2="22.56" y2="37.47"/><line class="cls-1" x1="23.71" y1="44.22" x2="22" y2="45.84"/><line class="cls-1" x1="36.04" y1="56.65" x2="35.14" y2="58.52"/><line class="cls-1" x1="30.33" y1="52.34" x2="29.51" y2="49.98"/><line class="cls-1" x1="22.16" y1="55.84" x2="21.75" y2="58.77"/><line class="cls-1" x1="44.14" y1="58.49" x2="42.12" y2="59.35"/><line class="cls-1" x1="9.48" y1="36.94" x2="7.3" y2="36.13"/><line class="cls-1" x1="10.16" y1="31.01" x2="8.11" y2="31.5"/><line class="cls-1" x1="18.71" y1="51.99" x2="16.04" y2="51.18"/><line class="cls-1" x1="37.5" y1="51.17" x2="36.68" y2="53.01"/><line class="cls-1" x1="46.24" y1="22.14" x2="43.4" y2="21.4"/><rect class="cls-2" x="6.55" y="7.39" width="58.85" height="58.85"/><path class="cls-1" d="M-50.34-51.46a12.74,12.74,0,0,0,5.71,6.19,13.15,13.15,0,0,1,5.5,5.91c.9,1.72,4.16,4.37,6.5,5.47s5.36,4.26,5.91,5.91,4.13,5.09,5.92,6.05,5.08,4.12,5.77,5.64a16,16,0,0,0,5.91,5.91A15.08,15.08,0,0,1-3.2-4.47,14.24,14.24,0,0,0,2.71,1.44,12.07,12.07,0,0,1,6.55,4.51"/><path class="cls-1" d="M-52.3-45.91a10.73,10.73,0,0,0,1.09.64,13.21,13.21,0,0,1,5.5,5.91c.89,1.72,4.16,4.37,6.49,5.47s5.37,4.26,5.92,5.91,4.12,5.09,5.91,6.05,5.09,4.12,5.77,5.64a16,16,0,0,0,5.92,5.91A15,15,0,0,1-9.79-4.47,14.36,14.36,0,0,0-3.88,1.44,14.54,14.54,0,0,1,2,7.39"/><line class="cls-1" x1="2" y1="4.29" x2="1.35" y2="2.26"/><rect class="cls-2" x="-52.3" y="-51.46" width="58.85" height="58.85"/><path class="cls-1" d="M-50.34,7.39a12.74,12.74,0,0,0,5.71,6.19,13.15,13.15,0,0,1,5.5,5.91c.9,1.72,4.16,4.37,6.5,5.47s5.36,4.26,5.91,5.91,4.13,5.09,5.92,6.05S-15.72,41-15,42.56a16,16,0,0,0,5.91,5.91A15.08,15.08,0,0,1-3.2,54.38a14.18,14.18,0,0,0,5.91,5.91,12.21,12.21,0,0,1,3.84,3.07"/><path class="cls-1" d="M-43.95,7.39a12.76,12.76,0,0,0,5.72,6.19,13.27,13.27,0,0,1,5.5,5.91c.89,1.72,4.16,4.37,6.49,5.47s5.37,4.26,5.92,5.91,4.12,5.09,5.91,6.05S-9.32,41-8.64,42.56a16,16,0,0,0,5.92,5.91,15,15,0,0,1,5.91,5.91,13.69,13.69,0,0,0,3.36,4.2"/><path class="cls-1" d="M-37.4,7.39a12.81,12.81,0,0,0,5.72,6.19,13.21,13.21,0,0,1,5.5,5.91c.89,1.72,4.16,4.37,6.5,5.47s5.36,4.26,5.91,5.91S-9.65,36-7.86,36.92-2.77,41-2.08,42.56a15.92,15.92,0,0,0,5.91,5.91,15.2,15.2,0,0,1,2.72,2"/><path class="cls-1" d="M-30.84,7.39a12.74,12.74,0,0,0,5.71,6.19,13.15,13.15,0,0,1,5.5,5.91c.9,1.72,4.16,4.37,6.5,5.47s5.36,4.26,5.91,5.91S-3.09,36-1.31,36.92,3.78,41,4.47,42.56a11.8,11.8,0,0,0,2.08,2.85"/><path class="cls-1" d="M-24.29,7.39a12.76,12.76,0,0,0,5.72,6.19,13.27,13.27,0,0,1,5.5,5.91c.89,1.72,4.16,4.37,6.49,5.47s5.37,4.26,5.92,5.91S3.46,36,5.25,36.92a9.05,9.05,0,0,1,1.3.88"/><path class="cls-1" d="M-17.74,7.39A12.81,12.81,0,0,0-12,13.58a13.21,13.21,0,0,1,5.5,5.91C-5.63,21.21-2.36,23.86,0,25s5.36,4.26,5.91,5.91a5.25,5.25,0,0,0,.66,1.19"/><path class="cls-1" d="M-11.18,7.39a12.74,12.74,0,0,0,5.71,6.19A13.15,13.15,0,0,1,0,19.49c.9,1.72,4.16,4.37,6.5,5.47h0"/><path class="cls-1" d="M-4.63,7.39a12.76,12.76,0,0,0,5.72,6.19,13.14,13.14,0,0,1,5.46,5.85"/><path class="cls-1" d="M1.92,7.39a12.86,12.86,0,0,0,4.63,5.55"/><path class="cls-1" d="M-52.3,12.94a10.73,10.73,0,0,0,1.09.64,13.21,13.21,0,0,1,5.5,5.91c.89,1.72,4.16,4.37,6.49,5.47s5.37,4.26,5.92,5.91,4.12,5.09,5.91,6.05,5.09,4.12,5.77,5.64a16,16,0,0,0,5.92,5.91,15,15,0,0,1,5.91,5.91,14.3,14.3,0,0,0,5.91,5.91A14.54,14.54,0,0,1,2,66.24"/><line class="cls-1" x1="2.33" y1="56.12" x2="-0.06" y2="55.22"/><line class="cls-1" x1="2.69" y1="44.05" x2="0.26" y2="43.6"/><line class="cls-1" x1="2.92" y1="51.47" x2="2.18" y2="49"/><line class="cls-1" x1="2.81" y1="16.67" x2="2.48" y2="20.17"/><line class="cls-1" x1="2.66" y1="11.24" x2="-0.39" y2="11.43"/><line class="cls-1" x1="4.25" y1="25.71" x2="1.76" y2="24.37"/><line class="cls-1" x1="2.81" y1="38.98" x2="2.44" y2="36.13"/><rect class="cls-2" x="-52.3" y="7.39" width="58.85" height="58.85"/><rect class="cls-2" width="58.98" height="58.98"/></svg>