<!-- Generator: Adobe Illustrator 22.1.0, SVG Export Plug-In  -->
<svg version="1.1"
     xmlns="http://www.w3.org/2000/svg" xmlns:xlink="http://www.w3.org/1999/xlink" xmlns:a="http://ns.adobe.com/AdobeSVGViewerExtensions/3.0/"
     x="0px" y="0px" width="53.7px" height="53.8px" viewBox="0 0 53.7 53.8" style="enable-background:new 0 0 53.7 53.8;"
     xml:space="preserve">
<style type="text/css">
    .st0{clip-path:url(#SVGID_2_);fill:none;stroke:#000000;stroke-width:0.3;}
    .st1{clip-path:url(#SVGID_4_);fill:none;stroke:#000000;stroke-width:0.3;}
</style>
<defs>
</defs>
<g>
    <defs>
        <rect id="SVGID_1_" x="0.1" y="0.1" width="53.5" height="53.5"/>
    </defs>
    <clipPath id="SVGID_2_">
        <use xlink:href="#SVGID_1_"  style="overflow:visible;"/>
    </clipPath>
    <path class="st0" d="M0.1,7.5C2,5.8,4.6,2.9,5.7,1.6l0.8-1"/>
    <path class="st0" d="M4.2,5.4C3.2,6.5,1.8,8.5,1,9.3c-0.2,0.2-0.6,0.6-0.9,1"/>
    <path class="st0" d="M8.8,1.9c-1.8,2-4.2,4.3-4.8,6c-0.5,1.3-2.3,3.8-3.8,5.6"/>
    <path class="st0" d="M9.1,10.6c-2.2,2-3.7,4.2-4.7,5.6c-0.9,1.2-2.3,2.5-4.3,4"/>
    <path class="st0" d="M12.9,14.4c-1,1.1-6.8,8.2-8.4,10c-1.2,1.3-2.9,2.8-4.4,4.1"/>
    <path class="st0" d="M8.4,22.4c-1.4,1.3-4,4.2-5,5.6c-0.7,1-2.1,2.8-3.2,4.2"/>
    <path class="st0" d="M6.9,26.1c-1.6,1.9-4.1,5-4.8,6.5c-0.5,1.1-0.9,1.8-1.9,2.9"/>
    <path class="st0" d="M15.2,19.4c-2.1,2.9-5.5,5.9-7.3,8.6s-3.2,4.9-5,7.4c-1.3,1.8-2,3-2.8,3.9"/>
    <path class="st0" d="M12.9,28.4c-1.8,2.4-6.8,7.2-8.5,8.8c-1.3,1.2-2.9,3.2-4.3,4.7"/>
    <path class="st0" d="M8.4,35.1c-0.9,0.7-3.2,3.3-5.8,6.1c-0.9,1-1.8,1.8-2.5,2.6"/>
    <path class="st0" d="M15.9,27.1c-1.7,1.8-4.8,5.7-6.2,8.1c-1.4,2.4-4.8,7.2-6.5,8.8c-1,0.9-2,1.4-3.2,2.3"/>
    <path class="st0" d="M25.3,21.3c-2.1,2.2-8.6,11.2-11.2,13.3c-2.7,2.1-6.8,7.1-8.4,9.2c-1.5,2-3.3,4.3-5.5,6.7"/>
    <path class="st0" d="M3.4,1.9C2.7,2.8,1.5,3.2,1,4.1C0.8,4.6,0.4,4.9,0.1,5.2"/>
    <path class="st0" d="M46,15.1c0.8-0.8,2.4-2.8,3.7-3.9s2.9-2.7,2.9-2.7c0.3-0.2,0.6-0.5,1-0.9"/>
    <path class="st0" d="M34.2,31.4c1.8-1.6,4.6-5.1,6.9-8s5.4-6.3,7.3-7.7s2.6-2.3,2.6-2.3c0.7-1,1.8-2.2,2.6-3.1"/>
    <path class="st0" d="M36.9,36.4c0.8-0.6,3.5-3.5,4.4-5.1c0.8-1.4,4.8-9.3,6.2-11.2s5-5.4,5-5.4c0.3-0.3,0.7-0.7,1.1-1.2"/>
    <path class="st0" d="M52.6,20.9c0.3-0.2,0.7-0.5,1-0.7"/>
    <path class="st0" d="M45.7,32.2c1.2-1.4,3.6-3.6,4.4-4.9s1.9-2.7,1.9-2.7c0.4-0.6,0.9-1.2,1.5-1.8"/>
    <path class="st0" d="M44.9,35.4c0.8-1.2,2.8-3,4.2-4.5s2-1.8,2-1.8c0.9-0.9,1.7-1.7,2.5-2.5"/>
    <path class="st0" d="M35.3,53.1l1.2-1.5c0.6-0.8,1.9-2.8,3.5-5.2s2.9-5.5,4.4-7.4s4.1-4.3,5.3-6.2s2.3-2.9,2.3-2.9
        c0.5-0.4,1-0.8,1.6-1.3"/>
    <path class="st0" d="M49,36.2c1.6-1.6,3.5-2.6,3.5-2.6c0.3-0.3,0.7-0.8,1.2-1.3"/>
    <path class="st0" d="M52,37.2c0.7-0.7,1.2-1.2,1.6-1.7"/>
    <path class="st0" d="M42.3,51.5c2-2.5,5.8-6.4,6.7-7.3s3.7-4,3.7-4c0.3-0.3,0.6-0.6,0.9-0.9"/>
    <path class="st0" d="M45.3,53.6c0.2-0.2,0.3-0.4,0.5-0.6c0,0,1.2-1.6,2.3-3.5s2.2-2.8,2.2-2.8c0.9-0.6,2-1.6,3.3-3"/>
    <path class="st0" d="M47.9,53.6c0.2-0.2,0.4-0.5,0.7-0.7c0,0,0.6-0.9,1.1-2.1s1-1.9,1-1.9c1.1-1.2,2.1-2,3-2.6"/>
    <path class="st0" d="M50.7,53.6c0.3-0.3,0.5-0.5,0.8-0.7l1.6-1.7c0.2-0.2,0.4-0.4,0.6-0.6"/>
    <path class="st0" d="M37.1,26c0.6-1.1,3.4-5.3,4.6-7.2s7.2-9.2,8.2-10.4s2.9-2.5,2.9-2.5c0.2-0.2,0.5-0.5,0.7-0.7"/>
    <path class="st0" d="M10,23.3c0.7-0.8,2.7-3.1,4.4-5c1.8-1.9,4.4-6.4,5.7-8.4s5.6-7.3,7-8.8"/>
    <path class="st0" d="M10.3,27.8c1.5-1.9,4.3-5.5,5.7-6.9c1.3-1.4,4.6-5.2,6.8-8c2.2-2.8,8.5-8.5,10.8-11"/>
    <path class="st0" d="M23.8,18.4c1.7-2.2,11.4-12.3,14.2-15.5"/>
    <path class="st0" d="M22.9,15.1c-2.5,3.2-8.4,9.8-10.2,12c-1.8,2.2-5,5.2-6.3,6.3"/>
    <path class="st0" d="M36.6,6.9c-0.6,0.7-1.8,2.1-3.2,3.3c-1.3,1.2-3.9,3.9-5.6,5.8c-1.7,1.8-5,5.5-6.8,7.7S14.5,31.4,12,34"/>
    <path class="st0" d="M33.8,12.4c-1.2,1.6-3.9,4.4-5.4,6.6c-1.5,2.2-5.2,7.2-6.7,9.2c-1.4,2-2.6,3.2-3.2,3.9"/>
    <path class="st0" d="M25.9,24.6c2.3-2.3,7.7-7.8,9.9-9.6c2.2-1.8,4.8-4.8,6.1-6.5"/>
    <path class="st0" d="M52.9,53.6c0.2-0.1,0.5-0.3,0.7-0.5"/>
    <path class="st0" d="M49.6,2.9c-0.4,0.4-0.8,0.8-1.1,1.2c-0.6,0.8-2.1,3.1-3.2,4.4"/>
    <path class="st0" d="M16.7,37.2c-1.1,0.9-4.6,4.6-5.4,5.6s-2.1,3.8-3.2,5.1S5,50.7,4.5,51.2l-1,1.2c-0.4,0.5-0.7,0.9-0.9,1.2"/>
    <path class="st0" d="M29.9,31.5c-2.5,2.6-8.9,9.4-11.3,11.9s-5.6,5.9-6.9,7.7c0,0,0,0.4-1.3,1.6C10,53,9.7,53.3,9.5,53.6"/>
    <path class="st0" d="M18.6,53.6c0.3-0.4,0.6-0.8,0.9-1.2c0,0,1-1.7,2.6-4.2s7-8.6,8.7-10"/>
    <path class="st0" d="M23.1,53.6c0.5-1.1,1.3-2.5,2-3.2"/>
    <path class="st0" d="M12.4,53.6c0.2-0.2,0.3-0.5,0.5-0.7c0,0,1.2-2.2,2.9-3.9s4.7-4.8,6.1-6.6s8.7-9.5,10.4-12.1s4.4-6.2,5.4-8.1"
        />
    <path class="st0" d="M39.3,30.5c-0.9,1.4-4,4.9-6.9,8.1s-7.2,8.4-8.1,9.9s-3,4.5-3,4.5c-0.2,0.2-0.4,0.4-0.6,0.6"/>
    <path class="st0" d="M51.9,21.5c-0.9,0.9-2.8,3.4-4.8,5.8s-2.9,4.8-3.7,6.5s-3.8,6.2-5.1,7.9s-3.4,4.2-5.1,6.8S29.9,53,29.9,53
        c-0.2,0.2-0.4,0.4-0.5,0.6"/>
    <path class="st0" d="M38.4,53.6c0.5-0.5,0.9-1,1.3-1.5c0,0,3.5-3.9,5.2-6.3s5.9-9.1,7.8-11.1"/>
    <path class="st0" d="M42.4,53.6c0.3-0.3,0.5-0.6,0.8-0.8c0,0,1.4-1.6,3.4-4.3s5.7-5.4,5.7-5.4c0.4-0.3,0.9-0.7,1.3-1.2"/>
    <path class="st0" d="M27.4,24.6c-0.9,1-3.6,4-5.2,5.8s-3.9,3.8-5.7,5.1s-7,6.6-8.2,8"/>
    <path class="st0" d="M34,21.4c-1.4,1.1-8.8,11.8-10.6,13.9s-3.8,4.2-5.9,5.8s-5.2,4.4-6.6,5.8S7.8,52,6.8,53.1"/>
    <path class="st0" d="M38,15.4c-1.1,1.3-5,5-6.3,6.1s-4.4,4.6-6,6.9s-5.2,6.5-6.6,7.4"/>
    <path class="st0" d="M27.4,32.5c1.1-1.2,10.2-13.4,11.6-15.2"/>
    <path class="st0" d="M40.2,18c1.9-2.9,6.9-8.9,8.6-10.6s2.6-2.7,4.3-4.3"/>
    <path class="st0" d="M48.8,16.7c-1.4,1.5-4.2,4.6-5.4,7.1s-2.2,4.1-3,5.1"/>
    <path class="st0" d="M15.5,53.6c0.6-0.6,1.2-1.2,1.7-1.8c0,0,0.8-1.1,1.8-2.6s2.1-2.9,3.6-4.6s6.8-7.2,9.6-9.4s7.2-7.3,8.5-8.9"/>
    <path class="st0" d="M27.1,47.7c2.8-3.4,5.1-5.3,8.6-8.4c0.1-0.1,0.3-0.2,0.4-0.4"/>
    <path class="st0" d="M42,33.6c-1.6,2.9-5.3,6.8-7.3,9S32.2,45,31.1,47s-1.2,2.7-1.9,3.6s-1.9,2.2-1.9,2.2c-0.4,0.3-0.7,0.6-1,0.9"
        />
    <path class="st0" d="M43.6,30.7c1.3-2.8,4.7-7.4,6.3-8.9s2-2.2,3.1-4.1"/>
    <path class="st0" d="M44.1,36.4c-1.9,2.8-5.6,8.2-6.7,10.1s-2.4,3.2-3.2,4.3s-1.2,1.7-1.2,1.7c-0.3,0.3-0.6,0.7-0.9,1.1"/>
    <path class="st0" d="M46.7,38.5c-1.4,1.6-3.1,6.2-4.7,8.1s-1.4,1.8-2.6,3"/>
    <path class="st0" d="M29.9,46.2c-1.9,3.1-3.4,4.8-4.8,6.5"/>
    <path class="st0" d="M11.1,49.1c1.6-1.9,2.9-3.2,5.4-5.5"/>
    <path class="st0" d="M21.3,35.4c-1.2,1.4-5.4,4.6-7.1,6.3"/>
    <path class="st0" d="M7.8,44.6c-1.7,2.4-3.8,5.3-6,7.2c-0.6,0.5-1.2,0.9-1.7,1.3"/>
    <path class="st0" d="M40.9,5.3c1.6-1.7,3.1-3.7,4.4-5.2"/>
    <path class="st0" d="M32.5,16.6c2.7-3.4,6.2-7.9,8.8-10.1c2.3-2,4-3.5,6.6-6.4"/>
    <path class="st0" d="M50.7,0.1c-2.3,2.2-5.1,5.3-6.5,7.4c-1.6,2.3-2.9,5.8-3.8,6.8"/>
    <path class="st0" d="M50.2,2.3c0.7-0.9,1.7-1.5,2.7-2.1"/>
    <path class="st0" d="M2.5,0.1c-0.7,1-0.9,1.2-1.7,1.9"/>
    <path class="st0" d="M9.5,0.1C9.3,0.5,9.1,0.9,9,1.3"/>
    <path class="st0" d="M18.6,0.1c-2.5,3.4-4.8,6-6.3,7.5c-1.8,1.8-3.5,4.8-3.5,4.8c-1.8,2.8-3.9,5.6-5.4,7.2c-1,1.1-2.2,2.1-3.2,3.2"
        />
    <path class="st0" d="M23.1,0.1c-0.5,0.9-0.8,1.7-0.8,1.7c-0.8,0.8-2.4,2.8-3.7,4.7c-1.2,1.9-2.6,3.7-4.6,5.5
        c-2,1.8-6.3,5.5-7.3,6.4c-1.9,1.8-3.3,3.3-4.6,5.3c-0.6,1-1.4,1.9-2.2,2.8"/>
    <path class="st0" d="M5.8,8.1C7.5,5.8,9.2,4,10.3,2.8c0.9-1,1.2-1.4,2.1-2.7"/>
    <path class="st0" d="M8,15.8c1.8-1.6,6.6-7.2,8.8-10.2c1.8-2.5,2.8-4.3,3.8-5.5"/>
    <path class="st0" d="M17.4,17c1.8-2,6.9-9.2,8.5-11.5c1.4-2.1,2-3.5,3.5-5.4"/>
    <path class="st0" d="M17.7,24.7c1.2-1.3,3.2-4.5,5-7.2c1.8-2.8,8.5-10.3,10.1-11.9c1.3-1.3,3.5-3.2,5.6-5.4"/>
    <path class="st0" d="M35.7,9.7c1.8-2.2,4.6-7.2,6.7-9.6"/>
    <path class="st0" d="M15.5,0.1c-1.5,1.6-2.9,3-3.9,4c-1.3,1.3-4.8,5-6.3,7s-2.8,3.9-3.7,4.9"/>
    <path class="st0" d="M11.3,19.1c1.9-2.1,3.8-4.9,5.4-7.1c1.6-2.2,5.2-7.4,6.6-8.8c1.1-1.1,1.8-2,3-3"/>
    <path class="st0" d="M32,0.1c-2,2.5-5,6.5-6.2,7.8"/>
</g>
</svg>
