<svg id="Layer_1" data-name="Layer 1" xmlns="http://www.w3.org/2000/svg" width="53.73" height="53.74" viewBox="0 0 53.73 53.74"><defs><style>.cls-1,.cls-2{fill:none;}.cls-1{stroke:#000;stroke-width:0.3px;}</style></defs><title>Artboard 37</title><path class="cls-1" d="M1.8,3.83C3.65,2.07,6.27-.85,7.38-2.11l.75-1"/><path class="cls-1" d="M5.88,1.64c-1,1.17-2.42,3.17-3.17,3.92-.23.23-.55.58-.91,1"/><path class="cls-1" d="M10.46-1.77c-1.75,2-4.16,4.33-4.83,6A26.33,26.33,0,0,1,1.8,9.8"/><path class="cls-1" d="M10.8,6.89a36.72,36.72,0,0,0-4.67,5.59,20.45,20.45,0,0,1-4.33,4"/><path class="cls-1" d="M14.63,10.73c-1,1.08-6.83,8.16-8.42,10A39.07,39.07,0,0,1,1.8,24.84"/><path class="cls-1" d="M10.05,18.73a50.23,50.23,0,0,0-5,5.58c-.74,1-2.09,2.83-3.25,4.21"/><path class="cls-1" d="M8.55,22.39a51.53,51.53,0,0,0-4.84,6.5A11.62,11.62,0,0,1,1.8,31.81"/><path class="cls-1" d="M16.88,15.64c-2.08,2.92-5.5,5.92-7.33,8.59s-3.25,4.91-5,7.41c-1.28,1.83-2,3-2.75,3.9"/><path class="cls-1" d="M14.63,24.73C12.88,27.14,7.8,32,6.13,33.56c-1.27,1.2-2.87,3.22-4.33,4.71"/><path class="cls-1" d="M10.13,31.39c-.92.67-3.25,3.34-5.83,6.09-.93,1-1.76,1.85-2.5,2.6"/><path class="cls-1" d="M17.63,23.39a62.75,62.75,0,0,0-6.17,8.09A57.19,57.19,0,0,1,5,40.31,23.66,23.66,0,0,1,1.8,42.57"/><path class="cls-1" d="M27,17.56c-2.08,2.25-8.58,11.25-11.25,13.33S9,38,7.3,40.14c-1.53,2-3.3,4.33-5.5,6.7"/><path class="cls-1" d="M5.05-1.86C4.38-.94,3.21-.52,2.71.39A4.22,4.22,0,0,1,1.8,1.51"/><path class="cls-1" d="M47.67,11.39c.75-.81,2.44-2.81,3.69-3.93S54.3,4.73,54.3,4.73c.29-.24.63-.54,1-.89"/><path class="cls-1" d="M35.86,27.71a89.17,89.17,0,0,0,6.94-8A55.23,55.23,0,0,1,50.11,12a18.27,18.27,0,0,0,2.61-2.32c.74-1,1.76-2.18,2.58-3.09"/><path class="cls-1" d="M38.63,32.64a28.54,28.54,0,0,0,4.42-5.08c.81-1.37,4.75-9.29,6.18-11.23a62.09,62.09,0,0,1,5-5.35c.33-.34.7-.75,1.08-1.18"/><path class="cls-1" d="M47.43,28.53a64.36,64.36,0,0,0,4.44-4.94c.87-1.31,1.92-2.71,1.92-2.71a11.64,11.64,0,0,1,1.51-1.77"/><path class="cls-1" d="M46.55,31.71a56.76,56.76,0,0,1,4.25-4.5,12.64,12.64,0,0,1,2-1.83c.9-.86,1.74-1.68,2.51-2.53"/><path class="cls-1" d="M37,49.39l1.21-1.5c.56-.75,1.94-2.81,3.5-5.25s2.88-5.5,4.44-7.37S50.17,31,51.42,29a15.2,15.2,0,0,1,2.3-2.88l1.58-1.29"/><path class="cls-1" d="M50.67,32.46a17.74,17.74,0,0,1,3.46-2.65c.34-.33.74-.79,1.17-1.29"/><path class="cls-1" d="M53.72,33.48c.67-.67,1.17-1.21,1.58-1.67"/><path class="cls-1" d="M44,47.83c2-2.5,5.75-6.37,6.69-7.31s3.71-4,3.71-4a9,9,0,0,0,.92-.93"/><path class="cls-1" d="M47,49.92q.25-.3.51-.57s1.21-1.58,2.34-3.46A13.56,13.56,0,0,1,52,43.06a27.78,27.78,0,0,0,3.33-3"/><path class="cls-1" d="M49.56,49.92l.65-.73a15.42,15.42,0,0,0,1.09-2.11,12.7,12.7,0,0,1,1-1.94,17.67,17.67,0,0,1,3-2.57"/><path class="cls-1" d="M52.34,49.92c.27-.26.54-.51.79-.73l1.59-1.71.58-.63"/><path class="cls-1" d="M38.73,22.33c.63-1.06,3.44-5.31,4.63-7.19s7.19-9.25,8.25-10.37a28.33,28.33,0,0,1,2.94-2.54,5.77,5.77,0,0,1,.75-.71"/><path class="cls-1" d="M11.71,19.56c.67-.75,2.67-3.08,4.42-5s4.42-6.42,5.67-8.42a95.41,95.41,0,0,1,7-8.83"/><path class="cls-1" d="M12,24.06c1.5-1.92,4.34-5.5,5.67-6.92s4.58-5.16,6.83-8,8.5-8.5,10.75-11"/><path class="cls-1" d="M25.46,14.73C27.13,12.48,36.88,2.39,39.63-.77"/><path class="cls-1" d="M24.55,11.39c-2.5,3.17-8.42,9.84-10.25,12A64.85,64.85,0,0,1,8,29.73"/><path class="cls-1" d="M38.3,3.14a35.91,35.91,0,0,1-3.17,3.25c-1.33,1.17-3.92,3.92-5.58,5.75s-5,5.5-6.75,7.75-6.59,7.75-9.09,10.42"/><path class="cls-1" d="M35.46,8.73c-1.25,1.58-3.91,4.41-5.41,6.58s-5.25,7.17-6.67,9.17a29.33,29.33,0,0,1-3.25,3.91"/><path class="cls-1" d="M27.63,20.89c2.33-2.33,7.67-7.75,9.92-9.58a42.44,42.44,0,0,0,6.08-6.5"/><path class="cls-1" d="M51.26-.77A13.72,13.72,0,0,0,50.17.46c-.56.75-2.06,3.06-3.25,4.43"/><path class="cls-1" d="M18.36,33.46A55,55,0,0,0,13,39c-.75,1-2.06,3.75-3.25,5.06S6.67,47,6.17,47.52l-1,1.17-.9,1.23"/><path class="cls-1" d="M31.55,27.83c-2.5,2.63-8.94,9.38-11.32,11.94s-5.62,5.94-6.93,7.69c0,0,0,.43-1.34,1.6a4.14,4.14,0,0,0-.74.86"/><path class="cls-1" d="M20.3,49.92l.91-1.23s1-1.67,2.59-4.23a73.73,73.73,0,0,1,8.68-10"/><path class="cls-1" d="M24.8,49.92a12.59,12.59,0,0,1,2-3.19"/><path class="cls-1" d="M14.1,49.92l.53-.73a22.33,22.33,0,0,1,2.85-3.86c1.63-1.69,4.69-4.81,6.13-6.56S32.3,29.27,34,26.64s4.44-6.25,5.44-8.06"/><path class="cls-1" d="M41,26.77a105.89,105.89,0,0,1-6.93,8.12,123.31,123.31,0,0,0-8.13,9.88c-.94,1.44-3,4.5-3,4.5a6.16,6.16,0,0,0-.57.65"/><path class="cls-1" d="M53.55,17.83c-.94.88-2.82,3.44-4.75,5.81a27.51,27.51,0,0,0-3.69,6.5A59.87,59.87,0,0,1,40,38a70.18,70.18,0,0,0-5.06,6.81,31.88,31.88,0,0,1-3.29,4.44c-.2.22-.38.44-.55.65"/><path class="cls-1" d="M40,49.92c.45-.48.9-1,1.34-1.48a71.42,71.42,0,0,0,5.17-6.3c1.62-2.43,5.93-9.06,7.75-11.06"/><path class="cls-1" d="M44,49.92a7.8,7.8,0,0,1,.76-.82s1.37-1.58,3.43-4.27A33.23,33.23,0,0,1,54,39.48a15.23,15.23,0,0,0,1.33-1.21"/><path class="cls-1" d="M29.05,20.89c-.94,1-3.63,4-5.19,5.75a38.82,38.82,0,0,1-5.69,5.07,83,83,0,0,0-8.19,8"/><path class="cls-1" d="M35.67,17.71c-1.44,1.12-8.81,11.81-10.56,13.93a31.9,31.9,0,0,1-5.94,5.75,63.82,63.82,0,0,0-6.62,5.82c-1.38,1.37-3.07,5.12-4.07,6.18"/><path class="cls-1" d="M39.67,11.71a72.24,72.24,0,0,1-6.31,6.06,43.94,43.94,0,0,0-6,6.94c-1.56,2.31-5.25,6.5-6.56,7.37"/><path class="cls-1" d="M29.05,28.83c1.12-1.19,10.18-13.37,11.62-15.25"/><path class="cls-1" d="M41.92,14.33A123.63,123.63,0,0,1,50.48,3.71C52.17,2,53.05,1,54.8-.61"/><path class="cls-1" d="M50.48,13c-1.37,1.5-4.25,4.56-5.37,7.12a22,22,0,0,1-3,5.06"/><path class="cls-1" d="M17.22,49.92,19,48.1S19.8,47,20.8,45.52A39.29,39.29,0,0,1,24.36,41,107.64,107.64,0,0,1,34,31.52c2.88-2.25,7.19-7.31,8.5-8.94"/><path class="cls-1" d="M28.8,44a67.36,67.36,0,0,1,8.56-8.38l.41-.37"/><path class="cls-1" d="M43.67,29.89c-1.62,2.94-5.31,6.82-7.31,9s-2.5,2.38-3.63,4.38S31.48,46,30.86,46.83A25.66,25.66,0,0,1,29,49c-.39.32-.72.61-1,.9"/><path class="cls-1" d="M45.23,27a39.17,39.17,0,0,1,6.32-8.88A12.73,12.73,0,0,0,54.67,14"/><path class="cls-1" d="M45.8,32.71c-1.88,2.81-5.63,8.18-6.69,10.06a33.36,33.36,0,0,1-3.25,4.31c-.81,1.06-1.23,1.69-1.23,1.69-.27.32-.58.72-.92,1.15"/><path class="cls-1" d="M48.42,34.77c-1.37,1.56-3.06,6.25-4.69,8.12s-1.37,1.75-2.56,3"/><path class="cls-1" d="M31.55,42.52A53.62,53.62,0,0,1,26.8,49"/><path class="cls-1" d="M12.8,45.39a53.75,53.75,0,0,1,5.37-5.5"/><path class="cls-1" d="M23,31.71c-1.25,1.43-5.37,4.56-7.06,6.31"/><path class="cls-1" d="M9.5,40.89a41.25,41.25,0,0,1-6,7.25,15.34,15.34,0,0,1-1.7,1.31"/><path class="cls-1" d="M42.55,1.6C44.17-.1,45.6-2.06,47-3.58"/><path class="cls-1" d="M34.21,12.85C36.88,9.43,40.46,4.93,43,2.77a64.3,64.3,0,0,0,6.6-6.35"/><path class="cls-1" d="M52.34-3.58A52.09,52.09,0,0,0,45.8,3.77C44.21,6.1,42.88,9.52,42,10.6"/><path class="cls-1" d="M20.3-3.58A72.71,72.71,0,0,1,14,3.93a28.36,28.36,0,0,0-3.5,4.75,61.35,61.35,0,0,1-5.41,7.25C4.07,17,2.85,18,1.8,19.09"/><path class="cls-1" d="M24.8-3.58c-.45.93-.75,1.68-.75,1.68a41.09,41.09,0,0,0-3.67,4.67,27.55,27.55,0,0,1-4.58,5.5c-2,1.83-6.25,5.5-7.25,6.41A25,25,0,0,0,4,20,19.77,19.77,0,0,1,1.8,22.83"/><path class="cls-1" d="M7.46,4.43A67.28,67.28,0,0,1,12-.9,22.64,22.64,0,0,0,14.1-3.58"/><path class="cls-1" d="M9.71,12.1A106.1,106.1,0,0,0,18.46,1.93c1.83-2.46,2.83-4.26,3.85-5.51"/><path class="cls-1" d="M19.05,13.27c1.75-2,6.91-9.17,8.5-11.5a61.12,61.12,0,0,1,3.53-5.35"/><path class="cls-1" d="M19.38,21c1.17-1.34,3.17-4.5,5-7.25A143.61,143.61,0,0,1,34.46,1.85C35.77.55,37.92-1.33,40-3.58"/><path class="cls-1" d="M37.38,6C39.22,3.8,42-1.15,44-3.58"/><path class="cls-1" d="M17.21-3.58c-1.53,1.58-2.94,3-3.91,4a91.52,91.52,0,0,0-6.25,7c-1.5,2-2.84,3.92-3.67,4.92"/><path class="cls-1" d="M13,15.35a83.23,83.23,0,0,0,5.42-7.08C20,6.1,23.55.85,25-.57c1.12-1.11,1.83-2,3-3"/><path class="cls-1" d="M33.71-3.58c-2,2.52-5,6.48-6.25,7.76"/><rect class="cls-2" x="1.8" y="-3.58" width="53.5" height="53.5"/><path class="cls-1" d="M1.8,57.33c1.85-1.76,4.47-4.68,5.58-5.94l.75-1"/><path class="cls-1" d="M10.46,51.73c-1.75,2-4.16,4.33-4.83,6A26.33,26.33,0,0,1,1.8,63.3"/><path class="cls-1" d="M5.05,51.64c-.67.92-1.84,1.34-2.34,2.25A4.22,4.22,0,0,1,1.8,55"/><path class="cls-1" d="M11.71,73.06c.67-.75,2.67-3.08,4.42-5s4.42-6.42,5.67-8.42a95.41,95.41,0,0,1,7-8.83"/><path class="cls-1" d="M12,77.56c1.5-1.92,4.34-5.5,5.67-6.92s4.58-5.16,6.83-8,8.5-8.5,10.75-11"/><path class="cls-1" d="M25.46,68.23C27.13,66,36.88,55.89,39.63,52.73"/><path class="cls-1" d="M51.26,52.73A13.72,13.72,0,0,0,50.17,54c-.56.75-2.06,3.06-3.25,4.43"/><path class="cls-1" d="M41.92,67.83a123.63,123.63,0,0,1,8.56-10.62c1.69-1.75,2.57-2.69,4.32-4.32"/><path class="cls-1" d="M42.55,55.1c1.62-1.7,3.05-3.66,4.4-5.18"/><path class="cls-1" d="M34.21,66.35c2.67-3.42,6.25-7.92,8.75-10.08a64.3,64.3,0,0,0,6.6-6.35"/><path class="cls-1" d="M52.34,49.92a52.09,52.09,0,0,0-6.54,7.35C44.21,59.6,42.88,63,42,64.1"/><path class="cls-1" d="M51.84,52.06a9.71,9.71,0,0,1,2.73-2.14"/><path class="cls-1" d="M4.23,49.92a14.36,14.36,0,0,1-1.68,1.93"/><path class="cls-1" d="M11.23,49.92a4.22,4.22,0,0,0-.54,1.13"/><path class="cls-1" d="M20.3,49.92A72.71,72.71,0,0,1,14,57.43a28.36,28.36,0,0,0-3.5,4.75,61.35,61.35,0,0,1-5.41,7.25c-1,1.09-2.2,2.1-3.25,3.16"/><path class="cls-1" d="M24.8,49.92c-.45.93-.75,1.68-.75,1.68a41.09,41.09,0,0,0-3.67,4.67,27.55,27.55,0,0,1-4.58,5.5c-2,1.83-6.25,5.5-7.25,6.41A25,25,0,0,0,4,73.52,19.77,19.77,0,0,1,1.8,76.33"/><path class="cls-1" d="M7.46,57.93A67.28,67.28,0,0,1,12,52.6a22.64,22.64,0,0,0,2.14-2.68"/><path class="cls-1" d="M9.71,65.6a106.1,106.1,0,0,0,8.75-10.17c1.83-2.46,2.83-4.26,3.85-5.51"/><path class="cls-1" d="M19.05,66.77c1.75-2,6.91-9.17,8.5-11.5a61.12,61.12,0,0,1,3.53-5.35"/><path class="cls-1" d="M19.38,74.52c1.17-1.34,3.17-4.5,5-7.25A143.61,143.61,0,0,1,34.46,55.35c1.31-1.3,3.46-3.18,5.58-5.43"/><path class="cls-1" d="M37.38,59.52c1.84-2.22,4.6-7.17,6.65-9.6"/><path class="cls-1" d="M17.21,49.92c-1.53,1.58-2.94,3-3.91,4a91.52,91.52,0,0,0-6.25,7c-1.5,2-2.84,3.92-3.67,4.92"/><path class="cls-1" d="M13,68.85a83.23,83.23,0,0,0,5.42-7.08C20,59.6,23.55,54.35,25,52.93c1.12-1.11,1.83-2,3-3"/><path class="cls-1" d="M33.71,49.92c-2,2.52-5,6.48-6.25,7.76"/><rect class="cls-2" x="1.8" y="49.92" width="53.5" height="53.5"/><path class="cls-1" d="M-5.83,11.39c.75-.81,2.44-2.81,3.69-3.93S.8,4.73.8,4.73c.29-.24.63-.54,1-.89"/><path class="cls-1" d="M-17.64,27.71a89.17,89.17,0,0,0,6.94-8A55.23,55.23,0,0,1-3.39,12,18.27,18.27,0,0,0-.78,9.64C0,8.67,1,7.46,1.8,6.55"/><path class="cls-1" d="M-14.87,32.64a28.54,28.54,0,0,0,4.42-5.08c.81-1.37,4.75-9.29,6.18-11.23A62.09,62.09,0,0,1,.72,11c.33-.34.7-.75,1.08-1.18"/><path class="cls-1" d="M.8,17.14c.35-.23.68-.46,1-.69"/><path class="cls-1" d="M-6.07,28.53a64.36,64.36,0,0,0,4.44-4.94C-.76,22.28.29,20.88.29,20.88A11.64,11.64,0,0,1,1.8,19.11"/><path class="cls-1" d="M-6.95,31.71a56.76,56.76,0,0,1,4.25-4.5,12.64,12.64,0,0,1,2-1.83C.19,24.52,1,23.7,1.8,22.85"/><path class="cls-1" d="M-16.54,49.39l1.21-1.5c.56-.75,1.94-2.81,3.5-5.25s2.88-5.5,4.44-7.37S-3.33,31-2.08,29a15.2,15.2,0,0,1,2.3-2.88L1.8,24.85"/><path class="cls-1" d="M-2.83,32.46A17.74,17.74,0,0,1,.63,29.81c.34-.33.74-.79,1.17-1.29"/><path class="cls-1" d="M.22,33.48c.67-.67,1.17-1.21,1.58-1.67"/><path class="cls-1" d="M-9.52,47.83c2-2.5,5.75-6.37,6.69-7.31s3.71-4,3.71-4a9,9,0,0,0,.92-.93"/><path class="cls-1" d="M-6.55,49.92q.25-.3.51-.57s1.21-1.58,2.34-3.46a13.56,13.56,0,0,1,2.17-2.83,27.78,27.78,0,0,0,3.33-3"/><path class="cls-1" d="M-3.94,49.92l.65-.73A15.42,15.42,0,0,0-2.2,47.08a12.7,12.7,0,0,1,1-1.94,17.67,17.67,0,0,1,3-2.57"/><path class="cls-1" d="M-1.16,49.92c.27-.26.54-.51.79-.73l1.59-1.71.58-.63"/><path class="cls-1" d="M-14.77,22.33c.63-1.06,3.44-5.31,4.63-7.19S-2.95,5.89-1.89,4.77A28.33,28.33,0,0,1,1.05,2.23a5.77,5.77,0,0,1,.75-.71"/><path class="cls-1" d="M1.08,49.92l.72-.47"/><path class="cls-1" d="M.05,17.83c-.94.88-2.82,3.44-4.75,5.81a27.51,27.51,0,0,0-3.69,6.5A59.87,59.87,0,0,1-13.52,38a70.18,70.18,0,0,0-5.06,6.81,31.88,31.88,0,0,1-3.29,4.44c-.2.22-.38.44-.55.65"/><path class="cls-1" d="M-13.46,49.92c.45-.48.9-1,1.34-1.48a71.42,71.42,0,0,0,5.17-6.3C-5.33,39.71-1,33.08.8,31.08"/><path class="cls-1" d="M-9.46,49.92a7.8,7.8,0,0,1,.76-.82s1.37-1.58,3.43-4.27A33.23,33.23,0,0,1,.47,39.48,15.23,15.23,0,0,0,1.8,38.27"/><path class="cls-1" d="M-11.58,14.33A123.63,123.63,0,0,1-3,3.71C-1.33,2-.45,1,1.3-.61"/><path class="cls-1" d="M-8.27,27a39.17,39.17,0,0,1,6.32-8.88A12.73,12.73,0,0,0,1.17,14"/><rect class="cls-2" x="-51.7" y="-3.58" width="53.5" height="53.5"/><path class="cls-1" d="M-11.58,67.83A123.63,123.63,0,0,1-3,57.21c1.69-1.75,2.57-2.69,4.32-4.32"/><path class="cls-1" d="M-1.66,52.06a9.71,9.71,0,0,1,2.73-2.14"/><rect class="cls-2" x="-51.7" y="49.92" width="53.5" height="53.5"/><rect class="cls-2" width="53.74" height="53.74"/></svg>