<svg id="Layer_1" data-name="Layer 1" xmlns="http://www.w3.org/2000/svg" width="53.73" height="53.78" viewBox="0 0 53.73 53.78"><defs><style>.cls-1,.cls-2{fill:none;}.cls-1{stroke:#231f20;stroke-width:0.3px;}</style></defs><title>Artboard 37</title><path class="cls-1" d="M39.18,6.75a19.75,19.75,0,0,0,1.06-1.87s.13-.44.44-1.38A19,19,0,0,1,42.3-.18C42.93-1.12,47-2,47.87-2.37s2.12-2.56,3-4,.06-2.25-.38-2.94a2.93,2.93,0,0,1-.69-2.44c.25-1.06,3.07-2.12,3.94-2.18a19.38,19.38,0,0,0,3.56-1.44c1.13-.44,5.07-.19,6.13-.13a5.44,5.44,0,0,0,2.31-.06,19.12,19.12,0,0,1,3.44-.31,8.19,8.19,0,0,0,3.94-2c.75-.63.12-1-.38-1.19s-2.12.31-3.06.5a4.65,4.65,0,0,1-3.38-.62c-.81-.69-1.43-.5-2.87-.57s-1.5-1.56-1.5-2.25a2.37,2.37,0,0,0-.75-1.87c-.63-.63-.5-1.69-.56-2.75s1.25-1.63,2.18-2.13.44-.25.44-.25c1.25-.87.38-.87-.37-1.12A2.76,2.76,0,0,1,61-31.25c-.62-.87-3.12-1.75-4.75-2.5s-1.5-2.25-2-3.25-1.25-1.12-1-2,3.63-2.62,5.13-3.62c1.07-.72,1.76-2.26,2.15-4.13"/><path class="cls-1" d="M32.14-2.65c-.68.63.5,1.75.63,2.63a1.88,1.88,0,0,1-.65,1.52C30.27,3.25,28.68,3.14,27,4.15"/><path class="cls-1" d="M30,1a1.49,1.49,0,0,0,.56-2c-.31-.44-1.09-.1-1.09-.1C28.17-.5,27.72,0,27,.34"/><path class="cls-1" d="M27,5.05c.3-.35.72-.5,2-.67C31.74,4,32.24,3.88,33.87,2s1.87-2.87,1-3.87c0,0-1.3-.38-.55-1a17,17,0,0,1,2.75-1.42,7.74,7.74,0,0,1,3.17-.83c1.08-.09,3.58-.92,2.92-2.25a9.62,9.62,0,0,1-1-3.09,11.23,11.23,0,0,0-.42-1.75c-.25-.91.67-3.33,1.58-4.5A11.54,11.54,0,0,1,48.41-20c1.75-.41,3.41-.58,4-1.33a2.27,2.27,0,0,0,.33-2.42,10.2,10.2,0,0,1-.33-2.5c-.16-1.17,1.36-1.35,1.71-2.5s-.13-1.5-1.88-2.5-2-1.37-2.25-3.12-.12-.75-.87-1.5a5.7,5.7,0,0,1-2.13-3c-.37-1.63,1.38-2,2.25-2.88s3.38-2.12,5.13-3.25c1.09-.7,1.5-1.06,1.71-1.75"/><path class="cls-1" d="M31.52,6.75c.93-.35,2-.68,3.1-1.12l.62-.54c.42-.17.75-.67,1.42-1.5s.41-1.67.58-3.25S38-1.5,39.66-2.91,43.57-4,44.49-4.16a2.42,2.42,0,0,0,1.83-1.25c.5-.75-.5-1.84-1.58-2.59s-1.42-3.58-1.33-4.66,2.41-3.92,3.66-4.92,4.75-1.5,6.34-2a2.12,2.12,0,0,0,1.41-3.17,3.28,3.28,0,0,1-.5-2.66,4.06,4.06,0,0,1,1.3-2A2.11,2.11,0,0,0,56-30.12c-.5-1.13-2-1.75-3.5-2.88s-1.25-1.5-1.37-2.62-.13-1-1.5-2.25-.38-1.75.37-2.63,1.88-1.37,4.13-2.37a5.22,5.22,0,0,0,3.47-3.88"/><path class="cls-1" d="M35.72,6.75a10.68,10.68,0,0,0,2-1.25,2.48,2.48,0,0,0,1.19-2c0-1.31.81-4.37,2.37-5.06S46.18-2.62,47-3.81s1.63-2.87.19-4.37S43.74-12,45.74-14.5A9.41,9.41,0,0,1,52.05-18c1.32,0,4.32-.25,5.13-1.5s.81-2.43.06-3.12l-1-1.13c-.87-1.37.5-3.25,1.13-4.5a3,3,0,0,0,.37-2.87C57.37-32.25,56-32.75,54.87-33s-1.5-1.62-1.63-2.75S52-37.5,51-38.37s.13-1.75,1.5-2.25a29.18,29.18,0,0,0,4-2.25,5.58,5.58,0,0,0,2.71-3.88"/><path class="cls-1" d="M57.05-13.87c-.87.56-3,.62-4.62,1.12s-1,2.25.06,4.13S51.24-3.68,50.43-2.5,47-.06,46,.25,44.8,1.69,44.68,3.32s-.81,1.93-.81,1.93c-.53.53-1,1-1.42,1.5"/><path class="cls-1" d="M65.12-25.81A5,5,0,0,1,65-25c-.12.63-.25,1.38-.5,2.57s.5,1.25,1,1.18.69.07,1.25.57a1.48,1.48,0,0,0,1.88.31,4,4,0,0,1,2.81.06,3.79,3.79,0,0,0,2.81-.37,4.29,4.29,0,0,1,3.63.5c.75.62.18,1.31-.69,2a27,27,0,0,0-2.88,2.56c-.75.81-2.93,1.19-4.31,1.37a18,18,0,0,0-4.06.88c-.75.37-3.25,0-5,0a6.4,6.4,0,0,0-3.88.81c-1,.69-1.43.31-2.93.44s-1.25,1.5-.57,2.5a4.7,4.7,0,0,1,.82,4.06c-.5,1.56-3.13,4-3.82,5.13s-.31,2.25-.68,3.37a5.93,5.93,0,0,1-1.75,2.19c-.63.67-1.13,1.2-1.58,1.62"/><path class="cls-1" d="M52.24-.06c-.19.88.13,1.69.25,3.31s-.75,2.13-.75,2.13a11.76,11.76,0,0,1-1,1.37"/><path class="cls-1" d="M54.8-10.81c-.93.63,1.32,2.25,1.5,3.75s-1.43,2.69-1.43,2.69A8,8,0,0,0,53.8-1.06a10.23,10.23,0,0,0,.69,3.94,6.18,6.18,0,0,1-.37,2.75,9.71,9.71,0,0,1-.49,1.12"/><path class="cls-1" d="M37.65,6.75c.06-.2.12-.45.22-.75,0,0,1-.87,1.5-1.37s.5-1.63,1-3.5a3,3,0,0,1,2.12-2.5"/><rect class="cls-2" x="26.99" y="-46.75" width="53.5" height="53.5"/><path class="cls-1" d="M27,12.2c1.88-.89,1.67-1.44,1.88-3.07C29,7.92,30.09,7.3,31.52,6.75"/><path class="cls-1" d="M27,19.13c1.67-1.75,1.25-2.48,1.25-3.63s.25-1.75,1.88-2.12S31.87,10.25,32.37,9c.33-.83,1.87-1.49,3.35-2.25"/><path class="cls-1" d="M30.49,14.25c1.13-.5,1.5-2,2.25-3.87s1.88-1.75,3.38-2.25c1.22-.41,1.28-.48,1.53-1.38"/><path class="cls-1" d="M28.37,18.5A2.83,2.83,0,0,1,27,21.08"/><path class="cls-1" d="M27,38.41c.89-.51,1.67-.25,2.75-.16A2.14,2.14,0,0,0,32,37.38,7.2,7.2,0,0,1,33.74,36c1-.62.88-1-.12-1.75a7.78,7.78,0,0,0-3.88-2c-2.5-.62-.5-1.62.75-1.87a6.66,6.66,0,0,0,3.5-1.5c1.13-1,4-1.75,5.25-2.63s.25-2.25-1.12-2.12-.88-1.13-2.63-1.5-4.25,2.5-6.5,2.87-1-3.25-.25-4.5a2.67,2.67,0,0,0,.5-2.5c-.12-1.25,1.25-3,2.38-3.87s1-1,1.25-2.38,2.37-2.75,3.75-3.12a5.19,5.19,0,0,0,2.56-2.38"/><path class="cls-1" d="M27,35.89a5.73,5.73,0,0,1,.88,0c1,0,1.12.12,1.75-.63s0-1-.88-1.12A3.82,3.82,0,0,1,27,32.81"/><path class="cls-1" d="M27,29.14a12.43,12.43,0,0,1,4-1.51,4.59,4.59,0,0,0,2.75-1.88c.88-1-1.37-.25-3,.63A6.7,6.7,0,0,1,27,27"/><path class="cls-1" d="M28.12,30.25c.5-.87,1.75-1,2.75-1.12a4.85,4.85,0,0,0,2.75-1.63,6.79,6.79,0,0,1,3-1.5c1.12-.37.87-.87-.25-1.12s-.75.12-.75-.75-1.13-.63-2.5.25"/><path class="cls-1" d="M28.87,32.88c1.62.37,3.62.62,3.37,1.75s-.12,1-1,1.62a2.54,2.54,0,0,1-2.25.63A2.82,2.82,0,0,0,27,37"/><path class="cls-1" d="M27,40.42A6.88,6.88,0,0,1,31.37,40c1.25.38,3.12-1.5,3.75-2.5s.62-1.5,2-1.87-.75-2.5-3-3.13-.13-1.62,1-1.87a8.79,8.79,0,0,0,2.5-1,6,6,0,0,1,2.87-.88c1.13,0,1.13-.25,1.75-1.25a2,2,0,0,0,0-2.62A2.13,2.13,0,0,1,41.37,23c0-1-1-1.12-1.75-1.12a4.3,4.3,0,0,1-2.38-.38c-1-.5-1.87-.5-4.75.63s-2.75.12-2.37-.5a2.46,2.46,0,0,0,.12-2.13c-.25-1,2-3.25,3.38-4.75s2.75-3.87,4.37-4c1.34-.1,2.43-1.74,4.46-4"/><path class="cls-1" d="M33.74,40.63c-1.25,1.12-2.12,1.75-3.62,1.5A4.72,4.72,0,0,0,27,42.7"/><path class="cls-1" d="M27,44.44c1.67-.79,3.08-.31,4.5-.31,1.63,0,3.38-2.13,3.88-3.5s2.87-2.88,4.37-4.13-.37-2.25-1.5-3.25.25-1.5,1.25-2.37,2.63-1,4.75-1.25,2-1.75,1.63-2.5a2.59,2.59,0,0,1-.25-2.25c.25-1.25,0-1.13-1.38-2s-.87-1.38-1.37-2.25-2.25-.5-3-.5a3.42,3.42,0,0,1-2.13-.75c-.62-.5-2-.25-3.5.37s-1.75-.12-1.62-.87.75-1.25,2-1.88.75-1.12,1.12-2A7.8,7.8,0,0,1,39,12.25a5.21,5.21,0,0,0,2.5-1.87,5.7,5.7,0,0,1,2.75-2.13,6.08,6.08,0,0,0,2.3-1.5"/><path class="cls-1" d="M39.12,39.38c-.75.87-.25.87-1.13,1.75s-1.5,1-2.12,2.25-1.75,2.25-4.13,2.5c-2,.21-3.5.06-4.75.79"/><path class="cls-1" d="M27,49.23c2.13-1,1.89-1.24,3.63-1.35,2-.13,3.25-.38,4.37-1.38s.25-.25,2-.87,1.75-1,2.13-2.25a6.79,6.79,0,0,1,0-1.29,3,3,0,0,1,.91-1.5c.59-.59.34-1.17.5-2.17a3.12,3.12,0,0,1,1.09-1.92c.5-.5.71-.25.71-.25.87-.5.5-.5.87-1.37a3.51,3.51,0,0,1,1.38-1.63c.75-.62,3.5-1.25,5.12-1.75s1.13-2,.63-3.25,0-1.12.75-2.62-1-3-2.13-3.75a8.38,8.38,0,0,1-2.5-2.63c-.75-1.12-2.37-1.5-4.37-1.75a2.38,2.38,0,0,1-2.38-2.62c0-1.13,1.88-2.5,3.13-3s1.25-.38,1.87-1.38.88-1,2.5-1.37a6.42,6.42,0,0,0,3.53-2.38"/><path class="cls-1" d="M48.62,19.75a16.84,16.84,0,0,1-2.13-2.87c-.5-.88-2.12-.5-3.12-.88s-.63-1.75,0-2.37.87-.38,1.12-1.13,1.38-1,2.5-1.37,1-.5,1.75-1.13a8.67,8.67,0,0,1,2.63-1.5c1-.4,1.61-.48,2.26-1.75"/><path class="cls-1" d="M39.18,60.25a19.75,19.75,0,0,0,1.06-1.87s.13-.44.44-1.38a19,19,0,0,1,1.62-3.68c.63-.94,4.69-1.82,5.57-2.19s2.12-2.56,3-4,.06-2.25-.38-2.94a2.93,2.93,0,0,1-.69-2.44c.25-1.06,3.07-2.12,3.94-2.18a19.38,19.38,0,0,0,3.56-1.44c1.13-.44,5.07-.19,6.13-.13a5.44,5.44,0,0,0,2.31-.06,19.12,19.12,0,0,1,3.44-.31,8.19,8.19,0,0,0,3.94-2c.75-.63.12-1-.38-1.19s-2.12.31-3.06.5a4.65,4.65,0,0,1-3.38-.62c-.81-.69-1.43-.5-2.87-.57s-1.5-1.56-1.5-2.25a2.37,2.37,0,0,0-.75-1.87c-.63-.63-.5-1.69-.56-2.75s1.25-1.63,2.18-2.13.44-.25.44-.25c1.25-.87.38-.87-.37-1.12A2.76,2.76,0,0,1,61,22.25c-.62-.87-3.12-1.75-4.75-2.5s-1.5-2.25-2-3.25-1.25-1.12-1-2,3.63-2.62,5.13-3.62c1.07-.72,1.76-2.26,2.15-4.13"/><path class="cls-1" d="M40.49,41.5a4.23,4.23,0,0,0,0,2.34,2.9,2.9,0,0,1-.83,2.75,2.75,2.75,0,0,1-2.17.66c-1.62.13-1.25.5-2.87,1.25a15.87,15.87,0,0,1-3.88,1.13C29.18,50,28.31,50.94,27,52.1"/><path class="cls-1" d="M32.14,50.85c-.68.63.5,1.75.63,2.63A1.88,1.88,0,0,1,32.12,55c-1.85,1.75-3.44,1.64-5.13,2.65"/><path class="cls-1" d="M30,54.48a1.49,1.49,0,0,0,.56-2c-.31-.44-1.09-.1-1.09-.1-1.32.62-1.77,1.1-2.5,1.46"/><path class="cls-1" d="M27,58.55c.3-.35.72-.5,2-.67,2.75-.38,3.25-.5,4.88-2.38s1.87-2.87,1-3.87c0,0-1.3-.38-.55-1a17,17,0,0,1,2.75-1.42,7.74,7.74,0,0,1,3.17-.83c1.08-.09,3.58-.92,2.92-2.25a9.62,9.62,0,0,1-1-3.09,11.23,11.23,0,0,0-.42-1.75c-.25-.91.67-3.33,1.58-4.5a11.54,11.54,0,0,1,5.09-3.25c1.75-.41,3.41-.58,4-1.33a2.27,2.27,0,0,0,.33-2.42,10.2,10.2,0,0,1-.33-2.5c-.16-1.17,1.36-1.35,1.71-2.5s-.13-1.5-1.88-2.5-2-1.37-2.25-3.12-.12-.75-.87-1.5a5.7,5.7,0,0,1-2.13-3c-.37-1.63,1.38-2,2.25-2.88s3.38-2.12,5.13-3.25c1.09-.7,1.5-1.06,1.71-1.75"/><path class="cls-1" d="M31.52,60.25c.93-.35,2-.68,3.1-1.12l.62-.54c.42-.17.75-.67,1.42-1.5s.41-1.67.58-3.25S38,52,39.66,50.59s3.91-1.09,4.83-1.25a2.42,2.42,0,0,0,1.83-1.25c.5-.75-.5-1.84-1.58-2.59s-1.42-3.58-1.33-4.66,2.41-3.92,3.66-4.92,4.75-1.5,6.34-2a2.12,2.12,0,0,0,1.41-3.17,3.28,3.28,0,0,1-.5-2.66,4.06,4.06,0,0,1,1.3-2A2.11,2.11,0,0,0,56,23.38c-.5-1.13-2-1.75-3.5-2.88s-1.25-1.5-1.37-2.62-.13-1-1.5-2.25S49.24,13.88,50,13s1.88-1.37,4.13-2.37a5.22,5.22,0,0,0,3.47-3.88"/><path class="cls-1" d="M35.72,60.25a10.68,10.68,0,0,0,2-1.25,2.48,2.48,0,0,0,1.19-2c0-1.31.81-4.37,2.37-5.06s4.88-1.06,5.69-2.25,1.63-2.87.19-4.37S43.74,41.5,45.74,39a9.41,9.41,0,0,1,6.31-3.5c1.32,0,4.32-.25,5.13-1.5s.81-2.43.06-3.12l-1-1.13c-.87-1.37.5-3.25,1.13-4.5a3,3,0,0,0,.37-2.87c-.37-1.13-1.75-1.63-2.87-1.88s-1.5-1.62-1.63-2.75S52,16,51,15.13s.13-1.75,1.5-2.25a29.18,29.18,0,0,0,4-2.25A5.58,5.58,0,0,0,59.2,6.75"/><path class="cls-1" d="M57.05,39.63c-.87.56-3,.62-4.62,1.12s-1,2.25.06,4.13S51.24,49.82,50.43,51,47,53.44,46,53.75s-1.19,1.44-1.31,3.07-.81,1.93-.81,1.93c-.53.53-1,1-1.42,1.5"/><path class="cls-1" d="M65.12,27.69a5,5,0,0,1-.13.81c-.12.63-.25,1.38-.5,2.57s.5,1.25,1,1.18.69.07,1.25.57a1.48,1.48,0,0,0,1.88.31,4,4,0,0,1,2.81.06,3.79,3.79,0,0,0,2.81-.37,4.29,4.29,0,0,1,3.63.5c.75.62.18,1.31-.69,2a27,27,0,0,0-2.88,2.56c-.75.81-2.93,1.19-4.31,1.37a18,18,0,0,0-4.06.88c-.75.37-3.25,0-5,0a6.4,6.4,0,0,0-3.88.81c-1,.69-1.43.31-2.93.44s-1.25,1.5-.57,2.5a4.7,4.7,0,0,1,.82,4.06c-.5,1.56-3.13,4-3.82,5.13s-.31,2.25-.68,3.37a5.93,5.93,0,0,1-1.75,2.19c-.63.67-1.13,1.2-1.58,1.62"/><path class="cls-1" d="M52.24,53.44c-.19.88.13,1.69.25,3.31s-.75,2.13-.75,2.13a11.76,11.76,0,0,1-1,1.37"/><path class="cls-1" d="M54.8,42.69c-.93.63,1.32,2.25,1.5,3.75s-1.43,2.69-1.43,2.69a8,8,0,0,0-1.07,3.31,10.23,10.23,0,0,0,.69,3.94,6.18,6.18,0,0,1-.37,2.75,9.71,9.71,0,0,1-.49,1.12"/><path class="cls-1" d="M38.66,14.25c-.84.84-2,1.67-1.75,2.75s.33,1.42,1.33,1.42.42-.17,1.33.17a2.38,2.38,0,0,0,1.67.08,7.14,7.14,0,0,1,4.17,1.83c.75,1,.58,1.25,1.83,2s1.83,1.42,1.5,2.09a2.44,2.44,0,0,0-.33,2.16c.33.84.91,3-.09,3.25s-3.75.92-4.75,1.34-2.5.91-2.16,2.16.66,1.67.33,2.09"/><path class="cls-1" d="M59.12,22.19c1.06.88,1.81,1.19,1.31,1.81s-2.25,1.69-2.06,2.88.5,2,.62,2.69-.06.68.38,1.25.5.56.43,1.18a2.31,2.31,0,0,0,1.75,2.5c1.69.57,2.25.75,1.88,1.32s-.75.06-2.31.12a13.7,13.7,0,0,0-4.32.69,18.47,18.47,0,0,1-3.56.81,15.5,15.5,0,0,0-3.44.88c-1.12.5-2.31,1.12-2.43,1.93a2.74,2.74,0,0,0,.37,2.44c.69,1.06.5,1.25.5,1.63a2.29,2.29,0,0,1,1.13,2.18A5.47,5.47,0,0,1,48,49.75"/><path class="cls-1" d="M37.65,60.25c.06-.2.12-.45.22-.75,0,0,1-.87,1.5-1.37s.5-1.63,1-3.5a3,3,0,0,1,2.12-2.5"/><rect class="cls-2" x="26.99" y="6.75" width="53.5" height="53.5"/><path class="cls-1" d="M-14.32,6.75a19.75,19.75,0,0,0,1.06-1.87s.13-.44.44-1.38A19,19,0,0,1-11.2-.18c.63-.94,4.69-1.82,5.57-2.19s2.12-2.56,3-4S-2.57-8.62-3-9.31a2.93,2.93,0,0,1-.69-2.44c.25-1.06,3.07-2.12,3.94-2.18A19.38,19.38,0,0,0,3.8-15.37c1.13-.44,5.07-.19,6.13-.13a5.44,5.44,0,0,0,2.31-.06,19.12,19.12,0,0,1,3.44-.31,8.19,8.19,0,0,0,3.94-2c.75-.63.12-1-.38-1.19s-2.12.31-3.06.5a4.65,4.65,0,0,1-3.38-.62c-.81-.69-1.43-.5-2.87-.57S8.43-21.31,8.43-22a2.37,2.37,0,0,0-.75-1.87c-.63-.63-.5-1.69-.56-2.75s1.25-1.63,2.18-2.13.44-.25.44-.25c1.25-.87.38-.87-.37-1.12a2.76,2.76,0,0,1-1.88-1.13c-.62-.87-3.12-1.75-4.75-2.5S1.24-36,.74-37s-1.25-1.12-1-2,3.63-2.62,5.13-3.62c1.07-.72,1.76-2.26,2.15-4.13"/><path class="cls-1" d="M2.58,6.75A11,11,0,0,0,2.87,5s0-.37-.07-1.06a5.48,5.48,0,0,0-.43-2.56,7.72,7.72,0,0,1-.32-4.5C2.37-4.43,4.19-5.78,4.43-6.5c.62-1.87-.63-2.06-1.19-3s.13-1.37,1.69-2,2.5-.37,4.5-.18a7.79,7.79,0,0,0,4.37-.88c.82-.44,1.32-.31,2.69-.31a9.61,9.61,0,0,0,3.94-.88,3.48,3.48,0,0,0,1.87-1.56,6.35,6.35,0,0,1,1.88-1.62,4.7,4.7,0,0,0,1.75-2.38c.37-.87-.63-1.87-1.56-2.37a6.88,6.88,0,0,0-3.88-.19c-.87.25-.87.06-1.81-.31a4.22,4.22,0,0,0-3.25.25c-1,.5-1.31-.19-1.44-.44s-.31-.31-1.12-.19-.19-1.12.06-1.44.12-.5.19-.87c.24-1.44,2.5-1.5,3.87-2.25s.88-2.38.88-3.5a3.12,3.12,0,0,0-2.63-2.75c-1.62-.38-1.5.12-2-.25s-1.12-1-1.75-1a3.53,3.53,0,0,1-2.12-1.13C8.49-36.5,7.62-37,7.49-37.87s1.88-2,3.88-3.13c1.71-1,1.13-3.47.93-5.75"/><path class="cls-1" d="M-26.51,5.05c.3-.35.72-.5,2-.67,2.75-.38,3.25-.5,4.88-2.38s1.87-2.87,1-3.87c0,0-1.3-.38-.55-1a17,17,0,0,1,2.75-1.42,7.74,7.74,0,0,1,3.17-.83c1.08-.09,3.58-.92,2.92-2.25a9.62,9.62,0,0,1-1-3.09,11.23,11.23,0,0,0-.42-1.75c-.25-.91.67-3.33,1.58-4.5A11.54,11.54,0,0,1-5.09-20c1.75-.41,3.41-.58,4-1.33a2.27,2.27,0,0,0,.33-2.42,10.2,10.2,0,0,1-.33-2.5C-1.25-27.42.27-27.6.62-28.75s-.13-1.5-1.88-2.5-2-1.37-2.25-3.12-.12-.75-.87-1.5a5.7,5.7,0,0,1-2.13-3c-.37-1.63,1.38-2,2.25-2.88S-.88-43.87.87-45c1.09-.7,1.5-1.06,1.71-1.75"/><path class="cls-1" d="M-22,6.75c.93-.35,2-.68,3.1-1.12l.62-.54c.42-.17.75-.67,1.42-1.5s.41-1.67.58-3.25.75-1.84,2.42-3.25S-9.93-4-9-4.16A2.42,2.42,0,0,0-7.18-5.41c.5-.75-.5-1.84-1.58-2.59s-1.42-3.58-1.33-4.66,2.41-3.92,3.66-4.92,4.75-1.5,6.34-2a2.12,2.12,0,0,0,1.41-3.17,3.28,3.28,0,0,1-.5-2.66,4.06,4.06,0,0,1,1.3-2,2.11,2.11,0,0,0,.37-2.75C2-31.25.49-31.87-1-33s-1.25-1.5-1.37-2.62-.13-1-1.5-2.25-.38-1.75.37-2.63,1.88-1.37,4.13-2.37a5.22,5.22,0,0,0,3.47-3.88"/><path class="cls-1" d="M-17.78,6.75a10.68,10.68,0,0,0,2-1.25,2.48,2.48,0,0,0,1.19-2c0-1.31.81-4.37,2.37-5.06s4.88-1.06,5.69-2.25,1.63-2.87.19-4.37S-9.76-12-7.76-14.5A9.41,9.41,0,0,1-1.45-18c1.32,0,4.32-.25,5.13-1.5s.81-2.43.06-3.12l-1-1.13c-.87-1.37.5-3.25,1.13-4.5a3,3,0,0,0,.37-2.87C3.87-32.25,2.49-32.75,1.37-33s-1.5-1.62-1.63-2.75-1.25-1.75-2.25-2.62.13-1.75,1.5-2.25a29.18,29.18,0,0,0,4-2.25A5.58,5.58,0,0,0,5.7-46.75"/><path class="cls-1" d="M3.55-13.87c-.87.56-3,.62-4.62,1.12s-1,2.25.06,4.13S-2.26-3.68-3.07-2.5-6.51-.06-7.51.25-8.7,1.69-8.82,3.32s-.81,1.93-.81,1.93c-.53.53-1,1-1.42,1.5"/><path class="cls-1" d="M11.62-25.81a5,5,0,0,1-.13.81c-.12.63-.25,1.38-.5,2.57s.5,1.25,1,1.18.69.07,1.25.57a1.48,1.48,0,0,0,1.88.31,4,4,0,0,1,2.81.06,3.79,3.79,0,0,0,2.81-.37,4.29,4.29,0,0,1,3.63.5c.75.62.18,1.31-.69,2a27,27,0,0,0-2.88,2.56c-.75.81-2.93,1.19-4.31,1.37a18,18,0,0,0-4.06.88c-.75.37-3.25,0-5,0a6.4,6.4,0,0,0-3.88.81c-1,.69-1.43.31-2.93.44s-1.25,1.5-.57,2.5A4.7,4.7,0,0,1,.87-5.56C.37-4-2.26-1.56-2.95-.43s-.31,2.25-.68,3.37A5.93,5.93,0,0,1-5.38,5.13C-6,5.8-6.51,6.33-7,6.75"/><path class="cls-1" d="M1.3-10.81c-.93.63,1.32,2.25,1.5,3.75S1.37-4.37,1.37-4.37A8,8,0,0,0,.3-1.06,10.23,10.23,0,0,0,1,2.88,6.18,6.18,0,0,1,.62,5.63,9.71,9.71,0,0,1,.13,6.75"/><path class="cls-1" d="M4.37,5.75c-.1.37-.19.7-.28,1"/><path class="cls-1" d="M5.7,6.75A8.74,8.74,0,0,0,5.87,5.5a5.33,5.33,0,0,0,0-1.62A7.74,7.74,0,0,1,6.93.07c.87-1.57.56-1.82.19-3s-.25-1.63.18-2,.38-.88.57-1.88,2-1,3.68-1.06,2.63.25,3.57-.19a3.77,3.77,0,0,1,1.81-.56,26.35,26.35,0,0,0,4.37-.56,8.4,8.4,0,0,0,3.19-2.13,5.22,5.22,0,0,1,1.61-1.17,3.63,3.63,0,0,1,.89-.59"/><path class="cls-1" d="M7,6.75a21.42,21.42,0,0,0,.35-2.37,5.48,5.48,0,0,1,.21-2A9.57,9.57,0,0,1,8.37.69,3,3,0,0,0,8.3-2.37a1.36,1.36,0,0,1,.25-1.75c.38-.44.19-.94.13-1.63A4.19,4.19,0,0,1,11.8-6.87c1.82.19,2.75.25,3.38-.06a6.2,6.2,0,0,1,3-.63,8,8,0,0,0,4.12-.81c1.13-.69,1.13-1.13,2.38-1.25S25.85-10,25.85-10A5.85,5.85,0,0,1,27-10.8"/><path class="cls-1" d="M8.17,6.75c.09-.52.15-1.06.2-1.62a5.51,5.51,0,0,1,.4-1.53c.25-.37,1.41-1.72,1.41-1.72,1-1.13-.13-2.63-.44-3.75a2.16,2.16,0,0,1,.19-2.06c.31-.5-.25-.63.44-1.44a2.33,2.33,0,0,1,2.68-.31,2.07,2.07,0,0,0,2.19-.19c.56-.5,2-.56,3.94-.31a3.14,3.14,0,0,0,3.31-1.19,4.2,4.2,0,0,1,2.94-1.31c.75.12.8.07.8.07A5.48,5.48,0,0,1,27-9"/><path class="cls-1" d="M10.71,6.75q-.06-.75-.09-1.62a3.6,3.6,0,0,1,.15-1.72,16.9,16.9,0,0,0,.78-1.59A6.89,6.89,0,0,0,11-2.06,1.47,1.47,0,0,1,11.49-4s1.75-.12,3.06-.18.88-.07,1.38-.69,1.62-.38,2.87.06a3.1,3.1,0,0,0,2.69-.12,9.84,9.84,0,0,1,3.19-.82c1.56-.12,1.67-.61,1.67-.61A3.88,3.88,0,0,1,27-6.83"/><path class="cls-1" d="M13-.68a5.52,5.52,0,0,1-.25,3.87,8.44,8.44,0,0,0-.5,2.44,10.79,10.79,0,0,0,.06,1.12"/><path class="cls-1" d="M17.8,6.75c-.19-.4-.38-.82-.56-1.25-1-2.37-.31-1.5-.31-2.43a26.19,26.19,0,0,0-.44-3.44c-.12-.75.06-1.44,1.56-.94,0,0,1.94-.5,2.88-.69s2.19.57,3.19,1.38,1.61.26,1.61.26c.47-.36.88-.71,1.26-1"/><path class="cls-1" d="M22.3,6.75c-.2-.38-.43-.79-.68-1.25"/><path class="cls-1" d="M20.8,3.57c-.25-.75.82-.69,1.5-.82s1.25.5,2.25,1.5,1.3.77,1.3.77A6.91,6.91,0,0,1,27,4.15"/><path class="cls-1" d="M19.36,6.75a13.42,13.42,0,0,1-.49-1.37s-.5-1.38-.25-1.81a3.54,3.54,0,0,0,.43-2.13c-.18-.56.44-.94,1.57-1a5.41,5.41,0,0,1,2.56.31c.75.32-.45.52,1.92.14A6.12,6.12,0,0,0,27,.35"/><path class="cls-1" d="M4.3,5.57a18.3,18.3,0,0,0-.18-3.32,15.52,15.52,0,0,1-.63-4.68c.06-2.32.94-1.94,1.56-2.69s.63-1.75.44-3.06.19-1.07,1.06-1.5,1.07-.38,2.5-.25,2.13.12,2.94-.44.94-.31,2.06-.25a8.92,8.92,0,0,0,3.94-.5,5.92,5.92,0,0,1,2.81-.75,3.34,3.34,0,0,0,2.82-1.5,5,5,0,0,1,2-1.94,1.58,1.58,0,0,0,.61-.67,4.57,4.57,0,0,1,.76-.51"/><path class="cls-1" d="M15,6.75c-.07-.5-.15-1-.25-1.62V3.69A22.39,22.39,0,0,1,14.8,1C15-.12,13.62-1.37,13.12-2.18s1.68-.5,2.25-.69a4.24,4.24,0,0,1,2-.31,2.27,2.27,0,0,0,2.12-.25c.94-.63,3.5.43,4.81.31s1.55-.61,1.55-.61L27-4.26"/><path class="cls-1" d="M27,5.05c-.29.33-.47.83-1.2,1.7"/><rect class="cls-2" x="-26.51" y="-46.75" width="53.5" height="53.5"/><path class="cls-1" d="M-4.88,19.75A16.84,16.84,0,0,1-7,16.88c-.5-.88-2.12-.5-3.12-.88s-.63-1.75,0-2.37.87-.38,1.12-1.13,1.38-1,2.5-1.37,1-.5,1.75-1.13A8.67,8.67,0,0,1-2.13,8.5c1-.4,1.61-.48,2.26-1.75"/><path class="cls-1" d="M-14.32,60.25a19.75,19.75,0,0,0,1.06-1.87s.13-.44.44-1.38a19,19,0,0,1,1.62-3.68c.63-.94,4.69-1.82,5.57-2.19s2.12-2.56,3-4,.06-2.25-.38-2.94a2.93,2.93,0,0,1-.69-2.44c.25-1.06,3.07-2.12,3.94-2.18A19.38,19.38,0,0,0,3.8,38.13c1.13-.44,5.07-.19,6.13-.13a5.44,5.44,0,0,0,2.31-.06,19.12,19.12,0,0,1,3.44-.31,8.19,8.19,0,0,0,3.94-2c.75-.63.12-1-.38-1.19s-2.12.31-3.06.5a4.65,4.65,0,0,1-3.38-.62c-.81-.69-1.43-.5-2.87-.57s-1.5-1.56-1.5-2.25a2.37,2.37,0,0,0-.75-1.87c-.63-.63-.5-1.69-.56-2.75s1.25-1.63,2.18-2.13.44-.25.44-.25c1.25-.87.38-.87-.37-1.12a2.76,2.76,0,0,1-1.88-1.13c-.62-.87-3.12-1.75-4.75-2.5s-1.5-2.25-2-3.25-1.25-1.12-1-2,3.63-2.62,5.13-3.62C5.94,10.16,6.63,8.62,7,6.75"/><path class="cls-1" d="M10.12,32.38c-1.13-.75-.38-5-.25-6s1.12-1,2.37-1.5.88-.88.5-1.63-.62-.62-1.37-.75a5.8,5.8,0,0,1-2.88-.87C7,20.75,7.12,20.25,5,20a2.35,2.35,0,0,1-2.37-2.62c0-1,.12-.63-.63-1.63s-.5-1,.13-1.5a15.42,15.42,0,0,1,3-2.12c1.74-1,2.64-3,3.05-5.38"/><path class="cls-1" d="M11.62,27.88c.25-.88,2.25-2.13,4.25-3.13s-.13-1.87-.75-2.75-2.63-1.12-3.63-1.12S9.24,20.63,9,19.75s-1.25-1-2.37-1.12-2-1.13-1.63-2,.38-.63,0-1.38S6,13.38,8.74,12c2.31-1.15,2.15-2.65,2-5.25"/><path class="cls-1" d="M2.58,60.25a11,11,0,0,0,.29-1.75s0-.37-.07-1.06a5.48,5.48,0,0,0-.43-2.56,7.72,7.72,0,0,1-.32-4.5c.32-1.31,2.14-2.66,2.38-3.38.62-1.87-.63-2.06-1.19-3s.13-1.37,1.69-2,2.5-.37,4.5-.18a7.79,7.79,0,0,0,4.37-.88c.82-.44,1.32-.31,2.69-.31a9.61,9.61,0,0,0,3.94-.88,3.48,3.48,0,0,0,1.87-1.56,6.35,6.35,0,0,1,1.88-1.62,4.7,4.7,0,0,0,1.75-2.38c.37-.87-.63-1.87-1.56-2.37a6.88,6.88,0,0,0-3.88-.19c-.87.25-.87.06-1.81-.31a4.22,4.22,0,0,0-3.25.25c-1,.5-1.31-.19-1.44-.44s-.31-.31-1.12-.19-.19-1.12.06-1.44.12-.5.19-.87c.24-1.44,2.5-1.5,3.87-2.25s.88-2.38.88-3.5a3.12,3.12,0,0,0-2.63-2.75c-1.62-.38-1.5.12-2-.25s-1.12-1-1.75-1a3.53,3.53,0,0,1-2.12-1.13C8.49,17,7.62,16.5,7.49,15.63s1.88-2,3.88-3.13c1.71-1,1.13-3.47.93-5.75"/><path class="cls-1" d="M23.87,30.5c-.32-.31-.63-.81-1.25-.56s-1.19-.12-1.82-.5-1.18.06-2.37.13-1.19-.75-.88-1.32a36.13,36.13,0,0,1,2.69-2.75c1.13-1.18-.12-2.75-.12-2.75-.38-.37-.38-1.37-.88-2.37s-.87-1.13-2.37-1.38a28.08,28.08,0,0,1-3.5-.87c-1.88-.5-1.88-2-2-3.13s1-1.12,2.5-2.12c1.3-.87,1.57-2.69,1.12-6.13"/><path class="cls-1" d="M20.87,26.75a2.81,2.81,0,0,0,.68-2.18,1.51,1.51,0,0,1,.38-1.13c.75-.75.44-3.31-.06-4.44s-2.63-1.37-4.63-1.75S15.37,16,15.24,15s1.88-2.25,3.13-3.62c1-1.13.28-2.76-.57-4.63"/><path class="cls-1" d="M24.43,29.69c-.19-.5.87-.5,1.37-1.12s-1.43-.5-2.62-.63S22.12,26,22.3,25.07a2,2,0,0,1,.94-1.32c.63-.87,1.5-1.25.88-2.25s-.13-.87-.25-1.75-.5-1.25-1.38-2.25-1.75-1.25-4.25-1.62-.62-1.75,1.38-3.88c1.71-1.82.76-2.73-.26-5.25"/><path class="cls-1" d="M-26.51,58.55c.3-.35.72-.5,2-.67,2.75-.38,3.25-.5,4.88-2.38s1.87-2.87,1-3.87c0,0-1.3-.38-.55-1a17,17,0,0,1,2.75-1.42,7.74,7.74,0,0,1,3.17-.83c1.08-.09,3.58-.92,2.92-2.25a9.62,9.62,0,0,1-1-3.09,11.23,11.23,0,0,0-.42-1.75c-.25-.91.67-3.33,1.58-4.5A11.54,11.54,0,0,1-5.09,33.5c1.75-.41,3.41-.58,4-1.33a2.27,2.27,0,0,0,.33-2.42,10.2,10.2,0,0,1-.33-2.5C-1.25,26.08.27,25.9.62,24.75s-.13-1.5-1.88-2.5-2-1.37-2.25-3.12-.12-.75-.87-1.5a5.7,5.7,0,0,1-2.13-3c-.37-1.63,1.38-2,2.25-2.88S-.88,9.63.87,8.5C2,7.8,2.37,7.44,2.58,6.75"/><path class="cls-1" d="M-22,60.25c.93-.35,2-.68,3.1-1.12l.62-.54c.42-.17.75-.67,1.42-1.5s.41-1.67.58-3.25.75-1.84,2.42-3.25S-9.93,49.5-9,49.34a2.42,2.42,0,0,0,1.83-1.25c.5-.75-.5-1.84-1.58-2.59s-1.42-3.58-1.33-4.66,2.41-3.92,3.66-4.92,4.75-1.5,6.34-2a2.12,2.12,0,0,0,1.41-3.17,3.28,3.28,0,0,1-.5-2.66,4.06,4.06,0,0,1,1.3-2,2.11,2.11,0,0,0,.37-2.75C2,22.25.49,21.63-1,20.5S-2.26,19-2.38,17.88s-.13-1-1.5-2.25-.38-1.75.37-2.63,1.88-1.37,4.13-2.37A5.22,5.22,0,0,0,4.09,6.75"/><path class="cls-1" d="M-17.78,60.25a10.68,10.68,0,0,0,2-1.25,2.48,2.48,0,0,0,1.19-2c0-1.31.81-4.37,2.37-5.06s4.88-1.06,5.69-2.25,1.63-2.87.19-4.37S-9.76,41.5-7.76,39a9.41,9.41,0,0,1,6.31-3.5c1.32,0,4.32-.25,5.13-1.5s.81-2.43.06-3.12l-1-1.13c-.87-1.37.5-3.25,1.13-4.5a3,3,0,0,0,.37-2.87c-.37-1.13-1.75-1.63-2.87-1.88s-1.5-1.62-1.63-2.75S-1.51,16-2.51,15.13s.13-1.75,1.5-2.25a29.18,29.18,0,0,0,4-2.25A5.58,5.58,0,0,0,5.7,6.75"/><path class="cls-1" d="M3.55,39.63c-.87.56-3,.62-4.62,1.12s-1,2.25.06,4.13S-2.26,49.82-3.07,51s-3.44,2.44-4.44,2.75-1.19,1.44-1.31,3.07-.81,1.93-.81,1.93c-.53.53-1,1-1.42,1.5"/><path class="cls-1" d="M11.62,27.69a5,5,0,0,1-.13.81c-.12.63-.25,1.38-.5,2.57s.5,1.25,1,1.18.69.07,1.25.57a1.48,1.48,0,0,0,1.88.31,4,4,0,0,1,2.81.06,3.79,3.79,0,0,0,2.81-.37,4.29,4.29,0,0,1,3.63.5c.75.62.18,1.31-.69,2a27,27,0,0,0-2.88,2.56c-.75.81-2.93,1.19-4.31,1.37a18,18,0,0,0-4.06.88c-.75.37-3.25,0-5,0a6.4,6.4,0,0,0-3.88.81c-1,.69-1.43.31-2.93.44s-1.25,1.5-.57,2.5a4.7,4.7,0,0,1,.82,4.06c-.5,1.56-3.13,4-3.82,5.13s-.31,2.25-.68,3.37a5.93,5.93,0,0,1-1.75,2.19C-6,59.3-6.51,59.83-7,60.25"/><path class="cls-1" d="M1.3,42.69c-.93.63,1.32,2.25,1.5,3.75s-1.43,2.69-1.43,2.69A8,8,0,0,0,.3,52.44,10.23,10.23,0,0,0,1,56.38a6.18,6.18,0,0,1-.37,2.75,9.71,9.71,0,0,1-.49,1.12"/><path class="cls-1" d="M5.7,60.25A8.74,8.74,0,0,0,5.87,59a5.33,5.33,0,0,0,0-1.62,7.74,7.74,0,0,1,1.06-3.81c.87-1.57.56-1.82.19-3s-.25-1.63.18-2,.38-.88.57-1.88,2-1,3.68-1.06,2.63.25,3.57-.19a3.77,3.77,0,0,1,1.81-.56,26.35,26.35,0,0,0,4.37-.56,8.4,8.4,0,0,0,3.19-2.13A5.22,5.22,0,0,1,26.1,41a3.63,3.63,0,0,1,.89-.59"/><path class="cls-1" d="M7,60.25a21.42,21.42,0,0,0,.35-2.37,5.48,5.48,0,0,1,.21-2,9.57,9.57,0,0,1,.79-1.72,3,3,0,0,0-.07-3.06,1.36,1.36,0,0,1,.25-1.75c.38-.44.19-.94.13-1.63a4.19,4.19,0,0,1,3.12-1.12c1.82.19,2.75.25,3.38-.06a6.2,6.2,0,0,1,3-.63,8,8,0,0,0,4.12-.81c1.13-.69,1.13-1.13,2.38-1.25s1.17-.36,1.17-.36A5.85,5.85,0,0,1,27,42.7"/><path class="cls-1" d="M8.17,60.25c.09-.52.15-1.06.2-1.62a5.51,5.51,0,0,1,.4-1.53c.25-.37,1.41-1.72,1.41-1.72,1-1.13-.13-2.63-.44-3.75a2.16,2.16,0,0,1,.19-2.06c.31-.5-.25-.63.44-1.44a2.33,2.33,0,0,1,2.68-.31,2.07,2.07,0,0,0,2.19-.19c.56-.5,2-.56,3.94-.31a3.14,3.14,0,0,0,3.31-1.19,4.2,4.2,0,0,1,2.94-1.31c.75.12.8.07.8.07a5.48,5.48,0,0,1,.76-.44"/><path class="cls-1" d="M10.71,60.25q-.06-.75-.09-1.62a3.6,3.6,0,0,1,.15-1.72,16.9,16.9,0,0,0,.78-1.59A6.89,6.89,0,0,0,11,51.44a1.47,1.47,0,0,1,.5-1.94s1.75-.12,3.06-.18.88-.07,1.38-.69,1.62-.38,2.87.06a3.1,3.1,0,0,0,2.69-.12,9.84,9.84,0,0,1,3.19-.82c1.56-.12,1.67-.61,1.67-.61a3.88,3.88,0,0,1,.64-.47"/><path class="cls-1" d="M13,52.82a5.52,5.52,0,0,1-.25,3.87,8.44,8.44,0,0,0-.5,2.44,10.79,10.79,0,0,0,.06,1.12"/><path class="cls-1" d="M17.8,60.25c-.19-.4-.38-.82-.56-1.25-1-2.37-.31-1.5-.31-2.43a26.19,26.19,0,0,0-.44-3.44c-.12-.75.06-1.44,1.56-.94,0,0,1.94-.5,2.88-.69s2.19.57,3.19,1.38,1.61.26,1.61.26c.47-.36.88-.71,1.26-1"/><path class="cls-1" d="M19.36,60.25a13.42,13.42,0,0,1-.49-1.37s-.5-1.38-.25-1.81a3.54,3.54,0,0,0,.43-2.13c-.18-.56.44-.94,1.57-1a5.41,5.41,0,0,1,2.56.31c.75.32-.45.52,1.92.14A6.12,6.12,0,0,0,27,53.85"/><path class="cls-1" d="M5.62,22.19c1.06.88,1.81,1.19,1.31,1.81s-2.25,1.69-2.06,2.88.5,2,.62,2.69-.06.68.38,1.25.5.56.43,1.18a2.31,2.31,0,0,0,1.75,2.5c1.69.57,2.25.75,1.88,1.32s-.75.06-2.31.12a13.7,13.7,0,0,0-4.32.69,18.47,18.47,0,0,1-3.56.81,15.5,15.5,0,0,0-3.44.88c-1.12.5-2.31,1.12-2.43,1.93a2.74,2.74,0,0,0,.37,2.44c.69,1.06.5,1.25.5,1.63A2.29,2.29,0,0,1-4.13,46.5a5.47,5.47,0,0,1-1.38,3.25"/><path class="cls-1" d="M21.43,33.69c1.5-.12.37,1.38-1.5,3.06a9.08,9.08,0,0,1-5.75,1.94,52.45,52.45,0,0,1-6.31.25c-2.57-.19-1-.31-2.25.13"/><path class="cls-1" d="M27,19.13q-.22.24-.51.51l-.74.18-.87-.69c-.82-1.13,0-2.13-.25-3.5s-2.25-.88-3.75-1.25.62-2.25,1.75-3.5c.94-1.05.74-2.11-.32-4.13"/><path class="cls-1" d="M18.3,43.32c.82-.19,2.44-.25,3.57-.57a7.57,7.57,0,0,0,3.06-2.31c.69-.81,1.3-1.42,1.3-1.42a3.42,3.42,0,0,1,.76-.6"/><path class="cls-1" d="M27,29.14a3.59,3.59,0,0,0-1.26,1.25s-1-.12,0,1c.41.46.84,1,1.26,1.45"/><path class="cls-1" d="M27,21.08c-.34.24-.76.49-1.26.81,0,0-1.05,1-.74,1.74s.41.86-.31,1.44-.75,1-.31,1.25a5.18,5.18,0,0,0,.61.32,13.08,13.08,0,0,0,1.95.35H27"/><path class="cls-1" d="M26,36.52c.55-.42.76-.57,1-.61"/><path class="cls-1" d="M4.3,59.07a18.3,18.3,0,0,0-.18-3.32,15.52,15.52,0,0,1-.63-4.68c.06-2.32.94-1.94,1.56-2.69s.63-1.75.44-3.06.19-1.07,1.06-1.5,1.07-.38,2.5-.25,2.13.12,2.94-.44.94-.31,2.06-.25a8.92,8.92,0,0,0,3.94-.5,5.92,5.92,0,0,1,2.81-.75,3.34,3.34,0,0,0,2.82-1.5,5,5,0,0,1,2-1.94,1.58,1.58,0,0,0,.61-.67A4.57,4.57,0,0,1,27,37"/><path class="cls-1" d="M15,60.25c-.07-.5-.15-1-.25-1.62V57.19a22.39,22.39,0,0,1,.06-2.69c.19-1.12-1.18-2.37-1.68-3.18s1.68-.5,2.25-.69a4.24,4.24,0,0,1,2-.31,2.27,2.27,0,0,0,2.12-.25c.94-.63,3.5.43,4.81.31s1.55-.61,1.55-.61L27,49.24"/><path class="cls-1" d="M25.79,6.75c-.16.2-.34.41-.56.64,0,0-1,.43-.74,1s.87,1.43.31,2.31c-1.93,3.07.55,2.14.55,2.14.68-.25,1.21-.48,1.64-.68"/><rect class="cls-2" x="-26.51" y="6.75" width="53.5" height="53.5"/><rect class="cls-2" width="53.73" height="53.73"/></svg>