<!-- Generator: Adobe Illustrator 22.1.0, SVG Export Plug-In  -->
<svg version="1.1"
     xmlns="http://www.w3.org/2000/svg" xmlns:xlink="http://www.w3.org/1999/xlink" xmlns:a="http://ns.adobe.com/AdobeSVGViewerExtensions/3.0/"
     x="0px" y="0px" width="53.7px" height="53.8px" viewBox="0 0 53.7 53.8" style="enable-background:new 0 0 53.7 53.8;"
     xml:space="preserve">
<style type="text/css">
    .st0{clip-path:url(#SVGID_2_);fill:none;stroke:#000000;stroke-width:0.3;}
    .st1{clip-path:url(#SVGID_4_);fill:none;stroke:#000000;stroke-width:0.3;}
</style>
<defs>
</defs>
<g>
    <defs>
        <rect id="SVGID_1_" x="0.1" y="0.1" width="53.5" height="53.5"/>
    </defs>
    <clipPath id="SVGID_2_">
        <use xlink:href="#SVGID_1_"  style="overflow:visible;"/>
    </clipPath>
    <path class="st0" d="M0.1,5.6C2,4.7,1.8,4.1,2,2.5c0.2-1.2,1.2-1.8,2.7-2.4"/>
    <path class="st0" d="M0.1,12.5c1.7-1.8,1.2-2.5,1.2-3.6c0-1.2,0.2-1.7,1.9-2.1S5,3.6,5.5,2.4c0.3-0.8,1.9-1.5,3.4-2.2"/>
    <path class="st0" d="M3.6,7.6c1.1-0.5,1.5-2,2.2-3.9S7.7,2,9.2,1.5c1.2-0.4,1.3-0.5,1.5-1.4"/>
    <path class="st0" d="M1.5,11.9c-0.1,1.4-0.5,2-1.4,2.6"/>
    <path class="st0" d="M0.1,31.8c0.9-0.5,1.7-0.3,2.8-0.2c1.4,0.1,1.6-0.2,2.2-0.9s0.8-0.8,1.8-1.4s0.9-1-0.1-1.8s-1.4-1.4-3.9-2
        S2.4,24,3.6,23.8s2.4-0.5,3.5-1.5s4-1.8,5.3-2.6s0.2-2.2-1.1-2.1s-0.9-1.1-2.6-1.5c-1.8-0.4-4.3,2.5-6.5,2.9s-1-3.3-0.2-4.5
        s0.6-1.2,0.5-2.5s1.2-3,2.4-3.9s1-1,1.2-2.4s2.4-2.8,3.8-3.1c0.9-0.3,1.8-1.2,2.6-2.4"/>
    <path class="st0" d="M0.1,29.3c0.2,0,0.4,0,0.9,0c1,0,1.1,0.1,1.8-0.6s0-1-0.9-1.1c-0.5-0.1-1.1-0.6-1.8-1.3"/>
    <path class="st0" d="M0.1,22.5c1.3-0.8,3.1-1.3,4-1.5c1.2-0.2,1.9-0.9,2.8-1.9s-1.4-0.2-3,0.6c-1.1,0.6-2.4,0.7-3.8,0.6"/>
    <path class="st0" d="M1.2,23.6c0.5-0.9,1.7-1,2.8-1.1s2.1-0.9,2.8-1.6s1.9-1.1,3-1.5s0.9-0.9-0.2-1.1s-0.8,0.1-0.8-0.8
        s-1.1-0.6-2.5,0.2"/>
    <path class="st0" d="M2,26.3c1.6,0.4,3.6,0.6,3.4,1.8s-0.1,1-1,1.6s-1.2,0.8-2.2,0.6c-0.8-0.1-1.2-0.3-2,0.1"/>
    <path class="st0" d="M0.1,33.8c1.4-0.7,3.4-0.7,4.4-0.4c1.2,0.4,3.1-1.5,3.8-2.5s0.6-1.5,2-1.9s-0.8-2.5-3-3.1s-0.1-1.6,1-1.9
        s1.5-0.5,2.5-1s1.8-0.9,2.9-0.9s1.1-0.2,1.8-1.2s0.6-2,0-2.6s-0.9-0.9-0.9-1.9s-1-1.1-1.8-1.1s-1.4,0.1-2.4-0.4s-1.9-0.5-4.8,0.6
        S2.9,15.6,3.2,15s0.4-1.1,0.1-2.1s2-3.2,3.4-4.8s2.8-3.9,4.4-4c1.3-0.1,2.4-1.7,4.5-4"/>
    <path class="st0" d="M6.9,34c-1.2,1.1-2.1,1.8-3.6,1.5c-1.1-0.2-2.1,0-3.1,0.6"/>
    <path class="st0" d="M0.1,37.8c1.7-0.8,3.1-0.3,4.5-0.3c1.6,0,3.4-2.1,3.9-3.5s2.9-2.9,4.4-4.1s-0.4-2.2-1.5-3.2s0.2-1.5,1.2-2.4
        s2.6-1,4.7-1.2s2-1.8,1.6-2.5s-0.5-1-0.2-2.2s0-1.1-1.4-2C16,15.4,16.5,14.9,16,14c-0.5-0.9-2.2-0.5-3-0.5s-1.5-0.2-2.1-0.8
        s-2-0.2-3.5,0.4S5.6,13,5.7,12.3s0.8-1.2,2-1.9s0.8-1.1,1.1-2s2.4-2.5,3.2-2.7s1.5-0.8,2.5-1.9s1.4-1.6,2.7-2.1
        c0.9-0.3,1.5-0.7,2.3-1.5"/>
    <path class="st0" d="M12.2,32.8c-0.8,0.9-0.2,0.9-1.1,1.8s-1.5,1-2.1,2.2S7.2,39,4.9,39.3c-2,0.2-3.5,0.1-4.8,0.8"/>
    <path class="st0" d="M0.1,42.6c2.1-1,1.9-1.2,3.6-1.4c2-0.1,3.2-0.4,4.4-1.4s0.2-0.2,2-0.9s1.8-1,2.1-2.2c0,0,0-0.9,0-1.3
        c0.1-0.4,0.3-0.9,0.9-1.5c0.6-0.6,0.3-1.2,0.5-2.2c0.2-1,0.6-1.4,1.1-1.9s0.7-0.2,0.7-0.2c0.9-0.5,0.5-0.5,0.9-1.4
        c0.4-0.9,0.6-1,1.4-1.6s3.5-1.2,5.1-1.8s1.1-2,0.6-3.2s0-1.1,0.8-2.6s-1-3-2.1-3.8c-1.1-0.8-1.8-1.5-2.5-2.6s-2.4-1.5-4.4-1.8
        s-2.4-1.5-2.4-2.6s1.9-2.5,3.1-3s1.2-0.4,1.9-1.4s0.9-1,2.5-1.4c1.3-0.3,2.4-1,3.5-2.4"/>
    <path class="st0" d="M21.7,13.1c-0.6-0.6-1.6-2-2.1-2.9s-2.1-0.5-3.1-0.9s-0.6-1.7,0-2.4c0.6-0.6,0.9-0.4,1.1-1.1s1.4-1,2.5-1.4
        s1-0.5,1.8-1.1s1.4-1,2.6-1.5c1-0.4,1.6-0.5,2.3-1.8"/>
    <path class="st0" d="M12.3,53.6c0.4-0.6,0.7-1.2,1.1-1.9c0,0,0.1-0.4,0.4-1.4s1-2.8,1.6-3.7c0.6-0.9,4.7-1.8,5.6-2.2s2.1-2.6,3-4
        s0.1-2.2-0.4-2.9s-0.9-1.4-0.7-2.4S26,33,26.9,33s2.4-1,3.6-1.4s5.1-0.2,6.1-0.1s1.6,0.2,2.3-0.1s1.9-0.2,3.4-0.3s3.2-1.4,3.9-2
        s0.1-1-0.4-1.2s-2.1,0.3-3.1,0.5s-2.6,0.1-3.4-0.6s-1.4-0.5-2.9-0.6s-1.5-1.6-1.5-2.2s-0.1-1.2-0.8-1.9s-0.5-1.7-0.6-2.8
        s1.2-1.6,2.2-2.1s0.4-0.2,0.4-0.2c1.2-0.9,0.4-0.9-0.4-1.1s-1.2-0.2-1.9-1.1c-0.6-0.9-3.1-1.8-4.8-2.5s-1.5-2.2-2-3.2s-1.2-1.1-1-2
        s3.6-2.6,5.1-3.6c1.1-0.7,1.8-2.3,2.2-4.1"/>
    <path class="st0" d="M36.7,25.8c-1.1-0.8-0.4-5-0.2-6s1.1-1,2.4-1.5s0.9-0.9,0.5-1.6C39,15.9,38.7,16,38,15.9
        c-0.8-0.1-1.4,0-2.9-0.9s-1.4-1.4-3.5-1.6s-2.4-1.6-2.4-2.6s0.1-0.6-0.6-1.6s-0.5-1,0.1-1.5s0.9-0.9,3-2.1c1.7-1,2.6-3,3.1-5.4"/>
    <path class="st0" d="M38.2,21.3c0.2-0.9,2.2-2.1,4.2-3.1s-0.1-1.9-0.8-2.8c-0.6-0.9-2.6-1.1-3.6-1.1s-2.2-0.2-2.5-1.1
        s-1.2-1-2.4-1.1s-2-1.1-1.6-2s0.4-0.6,0-1.4s1-1.9,3.8-3.2c2.3-1.2,2.2-2.7,2-5.2"/>
    <path class="st0" d="M29.2,53.6c0.1-0.4,0.2-0.9,0.3-1.8c0,0,0-0.4-0.1-1.1s0.2-0.8-0.4-2.6s-0.6-3.2-0.3-4.5
        c0.3-1.3,2.1-2.7,2.4-3.4c0.6-1.9-0.6-2.1-1.2-3s0.1-1.4,1.7-2s2.5-0.4,4.5-0.2s3.6-0.4,4.4-0.9s1.3-0.3,2.7-0.3s2.6-0.3,3.9-0.9
        s1.5-1.1,1.9-1.6s0.9-1.1,1.9-1.6s1.4-1.5,1.8-2.4s-0.6-1.9-1.6-2.4s-3-0.4-3.9-0.2s-0.9,0.1-1.8-0.3s-2.2-0.2-3.2,0.2
        s-1.3-0.2-1.4-0.4s-0.3-0.3-1.1-0.2s-0.2-1.1,0.1-1.4s0.1-0.5,0.2-0.9c0.2-1.4,2.5-1.5,3.9-2.2s0.9-2.4,0.9-3.5s-1-2.4-2.6-2.8
        s-1.5,0.1-2-0.2s-1.1-1-1.8-1s-1.2-0.4-2.1-1.1S34.2,9.9,34.1,9S36,7,38,5.9c1.7-1,1.1-3.5,0.9-5.8"/>
    <path class="st0" d="M50.5,23.9c-0.3-0.3-0.6-0.8-1.2-0.6s-1.2-0.1-1.8-0.5s-1.2,0.1-2.4,0.1s-1.2-0.8-0.9-1.3s1.6-1.6,2.7-2.8
        s-0.1-2.8-0.1-2.8c-0.4-0.4-0.4-1.4-0.9-2.4s-0.9-1.1-2.4-1.4S41.9,12,40,11.5s-1.9-2-2-3.1s1-1.1,2.5-2.1c1.3-0.9,1.6-2.7,1.1-6.1
        "/>
    <path class="st0" d="M47.5,20.1c0.6-0.6,0.8-1.6,0.7-2.2s0.4-1.1,0.4-1.1c0.8-0.8,0.4-3.3-0.1-4.4s-2.6-1.4-4.6-1.8s-1.9-1.2-2-2.2
        s1.9-2.2,3.1-3.6c1-1.1,0.3-2.8-0.6-4.6"/>
    <path class="st0" d="M51.1,23.1c-0.2-0.5,0.9-0.5,1.4-1.1s-1.4-0.5-2.6-0.6s-1.1-1.9-0.9-2.9s0.9-1.3,0.9-1.3
        c0.6-0.9,1.5-1.3,0.9-2.3s-0.1-0.9-0.2-1.8s-0.5-1.2-1.4-2.2s-1.8-1.2-4.2-1.6s-0.6-1.7,1.4-3.9C48,3.6,47,2.7,46,0.1"/>
    <path class="st0" d="M13.6,34.9c-0.2,0.7-0.2,1,0,2.3s-0.2,1.9-0.8,2.8c-0.7,0.8-2.2,0.7-2.2,0.7c-1.6,0.1-1.2,0.5-2.9,1.2
        S5.9,42.5,3.9,43c-1.6,0.4-2.4,1.3-3.8,2.5"/>
    <path class="st0" d="M5.3,44.2c-0.7,0.6,0.5,1.8,0.6,2.6s-0.7,1.5-0.7,1.5C3.4,50.1,1.8,50,0.1,51"/>
    <path class="st0" d="M3.1,47.9c0.9-0.6,0.9-1.6,0.6-2s-1.1-0.1-1.1-0.1c-1.3,0.6-1.8,1.1-2.5,1.5"/>
    <path class="st0" d="M0.1,51.9c0.3-0.4,0.7-0.5,2-0.7c2.8-0.4,3.2-0.5,4.9-2.4S8.9,46,8,45c0,0-1.3-0.4-0.5-1s1.9-0.9,2.7-1.4
        c0.8-0.5,2.1-0.8,3.2-0.8c1.1-0.1,3.6-0.9,2.9-2.2c-0.7-1.3-0.9-2.4-1-3.1c-0.1-0.7-0.2-0.8-0.4-1.8c-0.2-0.9,0.7-3.3,1.6-4.5
        c0.9-1.2,3.3-2.8,5.1-3.2c1.8-0.4,3.4-0.6,4-1.3s0.7-1.3,0.3-2.4c-0.3-1.1-0.3-2.5-0.3-2.5c-0.2-1.2,1.4-1.3,1.7-2.5
        c0.4-1.2-0.1-1.5-1.9-2.5s-2-1.4-2.2-3.1S23,11.8,22.2,11s-1.8-1.4-2.1-3s1.4-2,2.2-2.9s3.4-2.1,5.1-3.2c1.1-0.7,1.5-1.1,1.7-1.8"
        />
    <path class="st0" d="M4.6,53.6c0.9-0.4,2-0.7,3.1-1.1L8.4,52c0.4-0.2,0.8-0.7,1.4-1.5c0.7-0.8,0.4-1.7,0.6-3.2
        c0.2-1.6,0.8-1.8,2.4-3.2s3.9-1.1,4.8-1.2c0.9-0.2,1.3-0.5,1.8-1.2s-0.5-1.8-1.6-2.6c-1.1-0.8-1.4-3.6-1.3-4.7s2.4-3.9,3.7-4.9
        s4.8-1.5,6.3-2s2.2-2,1.4-3.2c-0.8-1.2-0.6-1.8-0.5-2.7c0.1-0.9,1.3-2,1.3-2c0.9-0.9,0.9-1.6,0.4-2.8s-2-1.8-3.5-2.9
        s-1.2-1.5-1.4-2.6s-0.1-1-1.5-2.2s-0.4-1.7,0.4-2.6S25,5,27.2,4c2-0.9,2.8-1.7,3.5-3.9"/>
    <path class="st0" d="M8.8,53.6c0.7-0.4,1.5-0.8,2-1.2c0,0,1.2-0.7,1.2-2s0.8-4.4,2.4-5.1s4.9-1.1,5.7-2.2s1.6-2.9,0.2-4.4
        s-3.4-3.8-1.4-6.3s5-3.5,6.3-3.5s4.3-0.2,5.1-1.5s0.8-2.4,0.1-3.1l-1-1.1c-0.9-1.4,0.5-3.2,1.1-4.5s0.8-1.8,0.4-2.9
        s-1.8-1.6-2.9-1.9s-1.5-1.6-1.6-2.8s-1.2-1.8-2.2-2.6s0.1-1.7,1.5-2.2s2-1.1,4-2.2c1.6-0.9,2.4-2.3,2.7-3.9"/>
    <path class="st0" d="M30.2,33c-0.9,0.6-3,0.6-4.6,1.1s-1,2.2,0.1,4.1s-1.2,4.9-2.1,6.1s-3.4,2.4-4.4,2.8s-1.2,1.4-1.3,3.1
        S17,52.1,17,52.1c-0.5,0.5-1,1-1.4,1.5"/>
    <path class="st0" d="M38.2,21.1c0,0,0,0.2-0.1,0.8s-0.2,1.4-0.5,2.6s0.5,1.2,1,1.2s0.7,0.1,1.2,0.6s0.9,0.7,1.9,0.3
        s1.8-0.2,2.8,0.1s1.8,0.1,2.8-0.4s2.9-0.1,3.6,0.5s0.2,1.3-0.7,2s-2.1,1.8-2.9,2.6s-2.9,1.2-4.3,1.4s-3.3,0.5-4.1,0.9s-3.2,0-5,0
        s-2.9,0.1-3.9,0.8s-1.4,0.3-2.9,0.4s-1.2,1.5-0.6,2.5s1.3,2.5,0.8,4.1s-3.1,4-3.8,5.1s-0.3,2.2-0.7,3.4S21.2,52,21.2,52
        c-0.6,0.7-1.1,1.2-1.6,1.6"/>
    <path class="st0" d="M25.4,46.8c-0.2,0.9,0.1,1.7,0.2,3.3s-0.8,2.1-0.8,2.1c-0.3,0.5-0.6,1-1,1.4"/>
    <path class="st0" d="M27.9,36.1c-0.9,0.6,1.3,2.2,1.5,3.8S28,42.5,28,42.5c-0.5,0.9-0.9,1.7-1.1,3.3s0.4,2.9,0.7,3.9
        s-0.4,2.8-0.4,2.8c-0.2,0.5-0.3,0.8-0.5,1.1"/>
    <path class="st0" d="M31,52.6c-0.1,0.4-0.2,0.7-0.3,1"/>
    <path class="st0" d="M32.3,53.6c0.1-0.4,0.1-0.8,0.2-1.2c0.1-2,0-0.8,0-1.6s0.2-2.2,1.1-3.8s0.6-1.8,0.2-3s-0.2-1.6,0.2-2
        s0.4-0.9,0.6-1.9s2-1,3.7-1.1s2.6,0.2,3.6-0.2s1.2-0.6,1.8-0.6s3.3-0.2,4.4-0.6s2.6-1.4,3.2-2.1s1.6-1.2,1.6-1.2
        c0.3-0.2,0.6-0.4,0.9-0.6"/>
    <path class="st0" d="M33.6,53.6c0.2-0.7,0.3-1.6,0.3-2.4c0,0-0.1-1,0.2-2s0.8-1.7,0.8-1.7c0.7-1.3,0.4-2.2-0.1-3.1
        s-0.1-1.3,0.2-1.8s0.2-0.9,0.1-1.6c0,0,1.3-1.3,3.1-1.1s2.8,0.2,3.4-0.1s1.5-0.6,3-0.6s3-0.1,4.1-0.8s1.1-1.1,2.4-1.2
        s1.2-0.4,1.2-0.4c0.4-0.3,0.7-0.6,1.1-0.8"/>
    <path class="st0" d="M34.8,53.6c0.1-0.5,0.2-1.1,0.2-1.6c0,0,0.2-1.2,0.4-1.5s1.4-1.7,1.4-1.7c1-1.1-0.1-2.6-0.4-3.8
        s-0.1-1.6,0.2-2.1s-0.2-0.6,0.4-1.4s1.8-0.6,2.7-0.3s1.6,0.3,2.2-0.2s2-0.6,3.9-0.3s2.7-0.4,3.3-1.2s2.2-1.4,2.9-1.3
        s0.8,0.1,0.8,0.1c0.3-0.2,0.5-0.3,0.8-0.4"/>
    <path class="st0" d="M37.3,53.6c0-0.5-0.1-1-0.1-1.6c0,0-0.2-1.2,0.2-1.7s0.8-1.6,0.8-1.6c0.3-1.4-0.2-2.9-0.6-3.9
        s-0.1-1.4,0.5-1.9c0,0,1.8-0.1,3.1-0.2s0.9-0.1,1.4-0.7s1.6-0.4,2.9,0.1s1.6,0.2,2.7-0.1s1.6-0.7,3.2-0.8s1.7-0.6,1.7-0.6
        c0.2-0.2,0.4-0.3,0.6-0.5"/>
    <path class="st0" d="M39.6,46.2c0.5,1.1,0.2,2.8-0.2,3.9s-0.5,2.4-0.5,2.4c0,0.4,0,0.7,0.1,1.1"/>
    <path class="st0" d="M44.4,53.6c-0.2-0.4-0.4-0.8-0.6-1.2c-1-2.4-0.3-1.5-0.3-2.4s-0.3-2.7-0.4-3.4s0.1-1.4,1.6-0.9
        c0,0,1.9-0.5,2.9-0.7s2.2,0.6,3.2,1.4s1.6,0.3,1.6,0.3c0.5-0.4,0.9-0.7,1.3-1"/>
    <path class="st0" d="M48.9,53.6c-0.2-0.4-0.4-0.8-0.7-1.2"/>
    <path class="st0" d="M47.4,50.5c-0.2-0.8,0.8-0.7,1.5-0.8s1.2,0.5,2.2,1.5s1.3,0.8,1.3,0.8c0.4-0.4,0.8-0.6,1.1-0.9"/>
    <path class="st0" d="M46,53.6c-0.2-0.4-0.3-0.9-0.5-1.4c0,0-0.5-1.4-0.2-1.8s0.6-1.6,0.4-2.1s0.4-0.9,1.6-1s1.8,0,2.6,0.3
        s-0.5,0.5,1.9,0.1c0.9-0.1,1.4-0.3,1.9-0.5"/>
    <path class="st0" d="M11.8,7.6c-0.8,0.8-2,1.7-1.8,2.7c0.2,1.1,0.3,1.4,1.3,1.4s0.4-0.2,1.3,0.2c0.9,0.3,0.9,0.2,1.7,0.1
        c0.8-0.1,3.4,0.8,4.2,1.8s0.6,1.2,1.8,2c1.2,0.8,1.8,1.4,1.5,2.1c-0.3,0.7-0.7,1.3-0.3,2.2c0.3,0.8,0.9,3-0.1,3.2s-3.8,0.9-4.8,1.3
        s-2.5,0.9-2.2,2.2c0.3,1.2,0.7,1.7,0.3,2.1"/>
    <path class="st0" d="M32.2,15.6c1.1,0.9,1.8,1.2,1.3,1.8s-2.2,1.7-2.1,2.9s0.5,2,0.6,2.7s-0.1,0.7,0.4,1.2s0.5,0.6,0.4,1.2
        s0.1,1.9,1.8,2.5s2.2,0.8,1.9,1.3s-0.8,0.1-2.3,0.1s-3.3,0.2-4.3,0.7s-2.3,0.6-3.6,0.8s-2.3,0.4-3.4,0.9s-2.3,1.1-2.4,1.9
        s-0.3,1.4,0.4,2.4s0.5,1.2,0.5,1.6c0,0,1.4,0.8,1.1,2.2s-0.5,2.4-1.4,3.2"/>
    <path class="st0" d="M48.1,27.1c1.5-0.1,0.4,1.4-1.5,3.1s-4.6,1.9-5.8,1.9s-3.8,0.4-6.3,0.2s-1-0.3-2.2,0.1"/>
    <path class="st0" d="M10.8,53.6c0.1-0.2,0.1-0.4,0.2-0.8c0,0,1-0.9,1.5-1.4s0.5-1.6,1-3.5s1.1-2,2.1-2.5"/>
    <path class="st0" d="M53.6,12.5c-0.2,0.2-0.3,0.3-0.5,0.5l-0.7,0.2l-0.9-0.7c-0.8-1.1,0-2.1-0.2-3.5S49,8.1,47.5,7.8
        c-1.5-0.4,0.6-2.2,1.8-3.5c0.9-1.1,0.7-2.1-0.3-4.1"/>
    <path class="st0" d="M44.9,36.7c0.8-0.2,2.4-0.2,3.6-0.6s2.4-1.5,3.1-2.3s1.3-1.4,1.3-1.4c0.3-0.3,0.5-0.5,0.8-0.6"/>
    <path class="st0" d="M53.6,22.5c-0.5,0.4-1,0.8-1.3,1.2c0,0-1-0.1,0,1c0.4,0.5,0.8,1,1.3,1.4"/>
    <path class="st0" d="M53.6,14.5c-0.3,0.2-0.8,0.5-1.3,0.8c0,0-1,1-0.7,1.7s0.4,0.9-0.3,1.4c-0.6,0.5-0.8,1-0.3,1.2s0.6,0.3,0.6,0.3
        c0.6,0.2,1.3,0.3,2,0.3c0,0,0,0,0.1,0"/>
    <path class="st0" d="M52.6,29.9c0.6-0.4,0.8-0.6,1-0.6"/>
    <path class="st0" d="M30.9,52.5c0,0,0.1-2.2-0.2-3.3s-0.7-2.4-0.6-4.7s0.9-1.9,1.6-2.7s0.6-1.8,0.4-3.1s0.2-1.1,1.1-1.5
        s1.1-0.4,2.5-0.2s2.1,0.1,2.9-0.4s0.9-0.3,2.1-0.2s3.1,0,3.9-0.5s2-0.8,2.8-0.8s2.2-0.4,2.8-1.5s1.6-1.7,2-1.9s0.6-0.7,0.6-0.7
        c0.3-0.2,0.5-0.4,0.8-0.5"/>
    <path class="st0" d="M41.6,53.6c-0.1-0.5-0.1-1-0.2-1.6v-1.4c0.1-0.4-0.1-1.6,0.1-2.7s-1.2-2.4-1.7-3.2s1.7-0.5,2.2-0.7
        s1.4-0.4,2-0.3s1.2,0.4,2.1-0.2s3.5,0.4,4.8,0.3s1.5-0.6,1.5-0.6c0.4-0.2,0.8-0.4,1.1-0.5"/>
    <path class="st0" d="M53.6,51.9c-0.3,0.3-0.5,0.8-1.2,1.7"/>
    <path class="st0" d="M52.4,0.1c-0.2,0.2-0.3,0.4-0.6,0.6c0,0-1,0.4-0.7,1s0.9,1.4,0.3,2.3C49.5,7.2,52,6.3,52,6.3
        c0.7-0.3,1.2-0.5,1.6-0.7"/>
</g>
</svg>
