<!-- Generator: Adobe Illustrator 22.1.0, SVG Export Plug-In  -->
<svg version="1.1"
     xmlns="http://www.w3.org/2000/svg" xmlns:xlink="http://www.w3.org/1999/xlink" xmlns:a="http://ns.adobe.com/AdobeSVGViewerExtensions/3.0/"
     x="0px" y="0px" width="54.4px" height="54.4px" viewBox="0 0 54.4 54.4" style="enable-background:new 0 0 54.4 54.4;"
     xml:space="preserve">
<style type="text/css">
    .st0{clip-path:url(#SVGID_2_);fill:none;stroke:#000000;stroke-width:0.3;}
    .st1{clip-path:url(#SVGID_4_);fill:none;stroke:#000000;stroke-width:0.3;}
</style>
<defs>
</defs>
<g>
    <defs>
        <rect id="SVGID_1_" x="0.1" y="0.1" width="54.2" height="54.2"/>
    </defs>
    <clipPath id="SVGID_2_">
        <use xlink:href="#SVGID_1_"  style="overflow:visible;"/>
    </clipPath>
    <path class="st0" d="M54.3,2.2c-4.1,3.7-7,6-6.2,6.7c0.8,0.8-1,2.2-3.5,4.7s-7.3,6.9-6.7,8.6c0,0,0.6,0.9,0.1,1.3s-8.7,9.2-9.3,9.8
        s-1.2,1.7-1.1,2.2s0.1,1.4-0.6,2.1s-6.2,6.4-7.1,7.3"/>
    <path class="st0" d="M54.3,4.1c-2.3,2-4.5,3.4-4.4,4.1c0.1,0.8,0.8,1-0.5,2.3c-0.1,0.1-0.3,0.3-0.5,0.5"/>
    <path class="st0" d="M48.9,11.1c-1.7,1.7-5.7,5.8-7.1,7.1"/>
    <path class="st0" d="M41.7,18.3c-0.1,0.1-0.2,0.2-0.3,0.3c-1.2,1.1-2.1,2.5-1.8,3.3c0.2,0.8,0.3,1.2-0.5,2.1c0,0-7,7.2-7.8,8
        c-0.8,0.8-1.7,2.1-1.6,2.8s0.3,1.3-0.2,1.9c-0.1,0.1-0.5,0.6-1.1,1.2"/>
    <path class="st0" d="M23,43.4c-1.3,1.3-2.3,2.4-2.6,2.7c-0.8,0.9-1.2,1.2-1.1,1.9s0.5,1.2,0.1,1.6s-2.8,3-2.8,3"/>
    <path class="st0" d="M49.2,0.9C48,2.2,43.9,5.1,44,6.1s0.5,1.3-0.1,1.9"/>
    <path class="st0" d="M39.9,2.9c-1.5,1.6-2.8,3-3.1,3.3s-0.5,0.7-0.3,1.5c0.2,0.8-0.1,0.6-0.9,1.4c-0.8,0.8-3.6,3.8-3.6,3.8"/>
    <path class="st0" d="M36.6,2c-1.4,1.5-3.4,3.4-4,3.9c-0.6,0.5-0.8,0.6-0.8,1.3s-0.6,1.8-1.7,2.9"/>
    <path class="st0" d="M14.9,25.2c0.4-0.3,2.8-2.8,3.2-3.4s0.4-1,0.4-1.7s0.6-1.5,1.4-2.2s8.4-8.6,8.4-8.6c0.9-0.9,1-1.4,1-2.1
        s0-0.8,0.6-1.5c0.5-0.6,3-3.1,5.5-5.7"/>
    <path class="st0" d="M26.5,9.3c0.9-0.9,1.1-1.2,0.8-2.1c-0.2-0.9,0-1.8,0.8-2.4c0.7-0.6,3.2-3,4.8-4.7"/>
    <path class="st0" d="M20.9,10.2c0,0,0.7-0.7,1.5-1.6c0.8-0.9,0.9-1.3,0.6-2.2c-0.3-0.9,0.2-0.9,0.8-1.7C24.3,4,26.3,1.8,28,0.1"/>
    <path class="st0" d="M0.1,26.9c2-2.2,6.7-7.3,7.3-8c0,0,0.6-0.6,1-1.1s0.4-0.4,0.2-1.1s-0.4-0.9-0.1-1.2s0.6-0.7,0.6-0.7
        c0.3-0.3,5.4-4.9,6.2-5.5s1.1-1.2,0.9-2.2c-0.2-0.9-0.1-1,0.6-1.6c0.6-0.5,3.7-3.4,5.8-5.4"/>
    <path class="st0" d="M4.6,19.7c1-1,1.7-1.8,1.7-2.9s0.7-1.8,1.7-2.7c1-0.8,4.7-4.5,5.7-5.4c1.1-0.9,1-1.5,1-2.2s0.1-0.7,0.9-1.6
        c0.7-0.8,3.2-3.1,5-4.8"/>
    <path class="st0" d="M15.6,2.9c0.5-0.5,1.5-1.5,2.8-2.8"/>
    <path class="st0" d="M12.7,6.5c-1.6,1.7-4.9,5-6.3,6.3c-1.4,1.3-2.1,1.9-2.2,2.7l-0.2,1.3c-0.1,0.9-0.1,1.2-1.1,2.4
        c-0.6,0.6-1.8,1.6-2.7,2.2"/>
    <line class="st0" x1="0.6" y1="1.8" x2="2.3" y2="0.1"/>
    <path class="st0" d="M3.3,1.4L0.7,3.6C0.5,3.8,0.3,4,0.1,4.2"/>
    <path class="st0" d="M0.1,6.2C0.3,6,0.6,5.7,0.8,5.5L7,0.1"/>
    <path class="st0" d="M0.1,10.2C0.8,9.6,1.3,9,1.6,8.7C3,7.3,3,7.1,2.9,6.3c-0.2-0.8,1.8-2.2,3-3.4l3.2-2.8"/>
    <path class="st0" d="M11.6,0.1L7.4,3.8C6.2,5,4.3,6.4,4.4,7.2c0.2,0.8,0.2,1-1.2,2.4c-0.6,0.6-1.8,1.8-3.1,3.1"/>
    <path class="st0" d="M20.5,54.3c0.3-0.3,0.7-0.7,0.9-1c0,0,1.2-1.5,2.1-2.3s1.1-1.1,0.8-2.1s-0.8-1.8,2.4-4.9s4.6-5.1,4.6-5.1
        s2.2-2.2,3-3.2c0.8-1,0.2-1.5,0.2-2.3c0-0.8,0.8-1.5,1.8-2.5s9.7-9.6,9.7-9.6c0.8-0.8,1.1-1.5,0.8-2.2c-0.2-0.7,0.3-1.6,1.2-2.6
        c0.7-0.8,4.1-4.2,6.2-6.3"/>
    <path class="st0" d="M54.3,44.2c-0.5,0.4-0.8,0.7-1,0.9c0,0-0.4,0.3-0.4,0.7s0.5,0.8,0.1,1.3s-3.2,3.2-3.8,3.6s-0.9,1-0.8,1.4
        s0.5,0.5,0.3,0.9s-0.4,0.7-0.4,0.7c-0.2,0.1-0.4,0.3-0.7,0.5"/>
    <path class="st0" d="M45.9,53.5c-0.2,0.2-0.5,0.5-0.8,0.8"/>
    <path class="st0" d="M53.6,30.3c-0.9,0.9-3.2,3.4-3.8,4.1s-1.3,1.3-1.3,2s0.5,1.2,0.1,1.8s-4.3,4.7-4.3,4.7
        c-0.8,0.8-2.8,2.6-3.6,3.5s-0.9,0.7-0.8,1.5s0.6,1.2-0.2,2.2s-0.8,0.6-3.6,3.5c-0.2,0.2-0.5,0.5-0.7,0.7"/>
    <path class="st0" d="M32.9,54.3c0.2-0.3,0.5-0.5,0.6-0.7"/>
    <path class="st0" d="M30.9,53.4c-0.2,0.2-0.5,0.5-0.8,0.9"/>
    <path class="st0" d="M54.3,21.4c-0.7,0.5-1.3,0.9-1.3,0.9s-0.9,0.8-1.1,1.2s-0.1,1-0.1,1.5s-1.3,2.2-1.3,2.2
        c-1,1.1-5.6,5.5-6.3,6.1s-1.2,1.2-1.2,1.9s0.4,1.7-0.2,2.2s-5.8,5.8-6.8,6.6s-1.5,1.5-1.5,2.1s0.5,1.1-0.1,1.8s-3.9,3.4-4.9,4.5
        s0.7-0.6-1,1.1c-0.2,0.2-0.3,0.4-0.5,0.5"/>
    <path class="st0" d="M32.4,40.2c0,0-3.6,3.8-4.7,4.9c-1.1,1.2-0.9,2.5-0.8,3.7c0.1,1.2-0.8,1.9-1.4,2.7c-0.7,0.8-1.8,2-1.8,2
        c-0.3,0.3-0.6,0.6-1,0.9"/>
    <path class="st0" d="M54.3,6.2c-1.2,1.1-2.5,2.1-2.3,2.8c0.2,0.8,0.2,1-1.2,2.4c-1.4,1.4-6.8,6.8-7.7,7.8s-1.5,1.9-1.2,2.6
        c0.2,0.7-0.1,1.4-0.8,2.2c0,0-6.7,6.8-7.5,7.7s-1.4,2-1.2,2.5s0.5,1.4-0.1,2c-0.6,0.6-8.1,9-8.5,9.4s-1.8,1.8-1.8,2.3
        s0.6,1.2,0.6,1.8s-1.8,2.3-2.4,2.9l-0.6,0.7c-0.4,0.4-0.7,0.7-1,1"/>
    <path class="st0" d="M45.1,0.1c-2,1.9-4.9,4.5-5.7,5.2c-0.8,0.8-0.8,1.1-0.7,2.2c0.2,1.1-0.8,2.2-1.9,3.2c0,0-8.7,8.8-9.3,9.4
        s-0.4,1-0.3,1.8c0.1,0.8-0.8,1.4-1.2,2.1c-0.5,0.7-7,7.2-8.2,8.2s-0.9,1.2-0.8,2.1c0.1,0.8-0.5,1.6-1.6,2.7
        c-1.1,1.1-6.5,6.8-7.6,7.9s-0.5,1.2,0,2.1c0.5,0.8,0.4,1.7-0.3,2.3c-0.8,0.7-3.5,3.5-3.5,3.5l-1.7,1.6"/>
    <line class="st0" x1="8.4" y1="53" x2="7" y2="54.3"/>
    <path class="st0" d="M9,54.3l4.5-3.9c0,0,0.9-0.9,1.3-1.4s0.4-1.2,0.2-1.7s1.7-2.2,3.9-4.4s4.6-4.6,5.1-5s1-0.7,0.6-1.4
        c-0.2-0.5,0.4-1.4,1.8-3"/>
    <line class="st0" x1="15.1" y1="51.2" x2="11.6" y2="54.3"/>
    <path class="st0" d="M47.8,0.1c-1.9,1.6-5.8,4.8-6,5.5c-0.2,0.8,0.6,1.8-0.2,2.6c-0.8,0.8-3.6,3.7-4.6,4.5c0,0-5.7,5.6-6.5,6.4
        s-1,1.4-0.8,2.2s0.3,0.9-1.2,2.6s-8.2,8.4-8.9,9.1s-0.7,1.1-0.5,1.9s-0.3,1.3-1.4,2.4s-5.8,6.1-7,7.4s-0.9,1.9-0.6,2.5
        s0.6,1.1,0,1.8s-4.1,3.8-4.9,4.6"/>
    <path class="st0" d="M23.4,32.1c0.9-0.9,8.6-8.9,8.6-8.9c0.7-0.7,1.4-1.4,1.2-2.1s-0.2-1.2,0.5-1.8s7.3-7.1,7.8-7.6"/>
    <path class="st0" d="M32.9,39.7c0,0,3.6-3.6,4.2-4.3s0.8-1.1,0.6-1.9s0.4-1.4,0.9-2s3.1-3.5,4.4-4.8l1.4-1.5
        c0.8-0.8,3.1-3.1,3.1-3.1c0.8-0.8,1.1-1.5,0.8-2.2c-0.2-0.7,0.3-1.6,1.2-2.6c0.6-0.6,2.7-2.8,4.6-4.7"/>
    <path class="st0" d="M27.9,16.6c-1.8,2.1-2.8,3.4-3.2,3.9s-0.6,0.9-0.4,1.5c0.2,0.6-0.2,0.9-0.7,1.4s-2.6,2.4-2.6,2.4"/>
    <path class="st0" d="M13.7,0.4c-1.8,2.1-6.5,5.9-6.9,6.4C6.4,7.3,6.2,7.7,6.4,8.3c0.2,0.6-0.2,0.9-0.7,1.4s-4.1,4-4.1,4"/>
    <path class="st0" d="M19.2,28c0,0-4,4.5-4.4,4.9c-0.4,0.4-0.8,0.8-0.7,1.6c0.1,0.8,0.1,0.9-0.3,1.3c-0.4,0.4-2.8,2.8-2.8,2.8"/>
    <path class="st0" d="M41.9,32.6c-0.8,1-1.5,1.6-1.4,2.3s0.2,1.6-0.4,2.2s-4.7,4.4-5.3,5.1s-1.8,1.9-1.6,2.7s0.2,1.2-0.4,2
        s-4.9,4.9-5.6,5.6"/>
    <path class="st0" d="M10.3,40c0,0-3.4,3.2-3.8,3.4c-0.4,0.2-1.6,1.8-0.8,3.1c0.3,0.5,0,0.6-0.5,1.2c-0.3,0.4-3.3,3.1-5.1,4.6"/>
    <path class="st0" d="M13.3,29.7c-1.5,1.5-2.6,2.6-3.4,3.4s-1.4,1.2-1.2,2s-0.5,1.8-1.7,3c-1,1-5,4.5-6.8,6.2"/>
    <path class="st0" d="M13.8,26.6c-2.5,2.5-4.2,3.9-5,4.9s-1.5,1.2-1.6,2.6s-0.2,1.2-1.2,2.2c-0.7,0.7-4.1,3.6-5.8,5.1"/>
    <path class="st0" d="M0.1,39.1c1.5-1.3,4.1-3.6,4.7-4.1c0.9-0.6,0.8-1.6,0.8-2.5s0.5-1.1,1.8-2.2s5.5-5,7.1-6.6c0,0,1.3-1.6,1.7-2
        s0.4-0.7,0.4-1.5s-0.1-1.1,0.8-2.1s7.4-7.1,8.2-7.9"/>
    <path class="st0" d="M0.1,37c0.7-0.7,1.7-1.6,2.3-2.3c1-1.1,1.1-0.6,1.1-2s1-1.9,1.9-2.9s3.2-2.9,4.6-4.5c0.9-1.1,1.6-1.4,2.3-2.2
        s1.6-1.4,2.1-2s0.4-1.5,0.4-2.2s0.4-1,0.9-1.6c0,0,1.2-1.2,2.4-2.3s6-6,6-6c0.9-0.9,1.2-1.3,0.8-2.1c-0.3-0.8,0-1.1,0.5-1.8
        c0.4-0.6,3-3.3,4.5-5.1"/>
    <path class="st0" d="M7.3,25.5c-1.8,1.9-3.1,3.4-4,4.2S1.9,31,1.8,31.9s-0.1,1.2-0.6,1.6c-0.3,0.2-0.7,0.5-1.1,0.7"/>
    <path class="st0" d="M4.1,20.1c-1.2,1.5-2.7,3-4,4.1"/>
    <path class="st0" d="M18.7,12.1c-1.9,1.9-3.6,3.5-4.4,4.2s-1.1,1.5-1.2,2.1s-0.1,1.2-0.9,2s-2.1,2.1-2.1,2.1"/>
    <path class="st0" d="M54.3,52.3c-0.4,0.4-0.8,0.7-1.1,1"/>
    <path class="st0" d="M46.3,53.1c0,0,0.6-0.3,0.8-0.6s0.1-0.7,0.1-1.1s0.5-0.8,1.1-1.5s2.7-2.4,2.9-3s0-0.5-0.2-1s-0.4-1,0.1-1.4
        s2-2,2-2s0.4-0.4,1.1-0.9"/>
    <path class="st0" d="M54.3,39c-0.6,0.6-1.1,1-1.1,1s-0.9,0.3-0.9,0.8s-0.1,0.9-0.6,1.6s-1.2,1.2-2.8,2.6s-3.9,3.4-4,4.2
        s0.4,1.1-0.2,1.6s-2.4,2.5-2.4,2.5"/>
    <path class="st0" d="M53.3,37.9c0,0,0.4-0.4,1-0.9"/>
    <path class="st0" d="M54.3,34.2c-0.4,0.2-0.7,0.4-0.7,0.4s-1.2,1.1-1.5,1.6s-0.2,1.2-0.2,1.8s-0.3,1.1-1.1,1.8s-6.3,5.4-7.2,6.5
        c0,0-0.8,0.9-1.1,1.2s-0.8,0.9-0.6,1.4s0.3,1.4-0.1,1.8s-2.8,2.7-3.3,3.2"/>
    <path class="st0" d="M32.4,51.9c0.9-1,3.8-3.2,4.2-3.9s-0.2-1.1-0.2-1.8s0.8-1.1,2.3-2.8s5.9-6.1,6.6-7s0.3-1.3,0.1-1.7
        s0.6-1.2,1.1-1.9s1.1-1.2,2.2-2.2c1.1-1,2.6-2.5,3.5-3.2c0.7-0.6,1.5-2.6,1.5-2.6c0.2-0.2,0.4-0.3,0.6-0.5"/>
    <path class="st0" d="M53.4,27.7c0.2-0.2,0.5-0.5,0.8-0.9"/>
    <path class="st0" d="M17.6,24.4c0,0,1.7-1.5,2.2-2.1s0.8-1.3,0.9-2.2s0.6-1,1.4-2s2.5-2.6,4.6-4.8"/>
    <path class="st0" d="M53.6,18.7c-1.2,1.4-3.3,3.9-3.9,4.4s-0.6,0.8-0.6,1.4s0.1,0.9-0.7,1.6s-4,3.9-4,3.9"/>
</g>
</svg>
