<svg id="Layer_1" data-name="Layer 1" xmlns="http://www.w3.org/2000/svg" width="54.39" height="54.4" viewBox="0 0 54.39 54.4"><defs><style>.cls-1,.cls-2{fill:none;}.cls-1{stroke:#000;stroke-width:0.3px;}</style></defs><title>Artboard 37</title><path class="cls-1" d="M88.42-43.55c-2,1.92-4.94,4.51-5.67,5.16s-.84,1.09-.67,2.17S81.33-34,80.16-33c0,0-8.66,8.75-9.33,9.41s-.42,1-.33,1.84-.75,1.41-1.25,2.08-7,7.17-8.17,8.17-.92,1.25-.83,2.08-.5,1.58-1.59,2.67S52.16,0,51.08,1.11s-.5,1.25,0,2.09a1.7,1.7,0,0,1-.33,2.33C50,6.2,47.25,9,47.25,9l-1.66,1.62"/><line class="cls-1" x1="51.75" y1="9.32" x2="50.27" y2="10.61"/><path class="cls-1" d="M52.32,10.61l4.51-3.93s.92-.92,1.29-1.36a1.81,1.81,0,0,0,.25-1.68c-.18-.44,1.69-2.25,3.88-4.44s4.62-4.56,5.12-5,1-.71.63-1.44c-.25-.5.4-1.37,1.81-3"/><path class="cls-1" d="M91.14-43.55c-1.91,1.58-5.83,4.83-6,5.5s.59,1.75-.16,2.58S81.41-31.8,80.41-31l-6.47,6.42a2.1,2.1,0,0,0-.82,2.19c.19.81.32.87-1.25,2.62S63.69-11.36,63-10.68a1.66,1.66,0,0,0-.5,1.94c.19.88-.31,1.31-1.38,2.38s-5.75,6.12-7,7.43S53.25,3,53.5,3.57s.62,1.13,0,1.82S49.44,9.14,48.56,10"/><path class="cls-1" d="M53.58-3.64S50.16-.47,49.75-.22,48.16,1.61,49,2.86c.31.47,0,.59-.5,1.17-.35.41-3.31,3.06-5.09,4.65"/><path class="cls-1" d="M56.62-13.93l-3.37,3.38c-.75.75-1.38,1.25-1.25,2s-.5,1.75-1.75,3c-1,1-5,4.47-6.84,6.15"/><rect class="cls-2" x="43.41" y="-43.55" width="54.17" height="54.17"/><path class="cls-1" d="M43.41,37.37c2.05-2.23,6.7-7.26,7.34-8a7.47,7.47,0,0,0,1-1.12c.37-.56.44-.44.25-1.06s-.38-.88-.06-1.19.64-.71.64-.71c.33-.33,5.42-4.92,6.17-5.5a2.07,2.07,0,0,0,.91-2.17c-.16-.91-.08-1,.59-1.58s3.65-3.45,5.82-5.42"/><path class="cls-1" d="M47.91,30.2c1-1,1.67-1.75,1.67-2.92s.67-1.83,1.67-2.67,4.66-4.5,5.75-5.41A2.25,2.25,0,0,0,58,17c0-.67.08-.67.91-1.58s3.24-3.08,5-4.84"/><path class="cls-1" d="M56,17c-1.59,1.67-4.92,5-6.34,6.33s-2.08,1.86-2.16,2.69l-.25,1.31a3.44,3.44,0,0,1-1.13,2.38A19.45,19.45,0,0,1,43.41,32"/><line class="cls-1" x1="43.94" y1="12.28" x2="45.63" y2="10.61"/><path class="cls-1" d="M46.58,11.86,44,14.11l-.61.55"/><path class="cls-1" d="M43.41,16.68c.24-.22.48-.43.69-.65l6.21-5.42"/><path class="cls-1" d="M43.41,20.74l1.53-1.52c1.41-1.42,1.41-1.58,1.25-2.42s1.75-2.16,3-3.41l3.17-2.78"/><path class="cls-1" d="M55,10.61l-4.2,3.67c-1.25,1.25-3.17,2.58-3,3.42s.16,1-1.25,2.41c-.57.58-1.79,1.79-3.09,3.09"/><path class="cls-1" d="M88.42,10.61c-2,1.92-4.94,4.51-5.67,5.17s-.84,1.08-.67,2.17-.75,2.16-1.92,3.16l-9.33,9.42c-.67.67-.42,1-.33,1.83s-.75,1.42-1.25,2.09-7,7.16-8.17,8.16-.92,1.25-.83,2.09-.5,1.58-1.59,2.66-6.5,6.84-7.58,7.92-.5,1.25,0,2.08a1.71,1.71,0,0,1-.33,2.34c-.75.66-3.5,3.46-3.5,3.46l-1.66,1.62"/><path class="cls-1" d="M52.32,64.78l4.51-3.94s.92-.91,1.29-1.35a1.83,1.83,0,0,0,.25-1.69c-.18-.44,1.69-2.25,3.88-4.44s4.62-4.56,5.12-5,1-.71.63-1.43c-.25-.5.4-1.38,1.81-3"/><path class="cls-1" d="M91.14,10.61c-1.91,1.59-5.83,4.84-6,5.5s.59,1.75-.16,2.59-3.59,3.66-4.59,4.5l-6.47,6.41a2.11,2.11,0,0,0-.82,2.19c.19.81.32.88-1.25,2.63S63.69,42.8,63,43.49a1.66,1.66,0,0,0-.5,1.94c.19.87-.31,1.31-1.38,2.37s-5.75,6.13-7,7.44-.87,1.87-.62,2.5.62,1.12,0,1.81-4.06,3.75-4.94,4.56"/><path class="cls-1" d="M57,11C55.19,13,50.52,16.8,50.1,17.3a1.5,1.5,0,0,0-.41,1.5c.16.59-.17.92-.67,1.42s-4.08,4-4.08,4"/><path class="cls-1" d="M62.5,38.53s-4,4.5-4.42,4.92A1.76,1.76,0,0,0,57.41,45c.09.75.09.92-.33,1.33s-2.83,2.75-2.83,2.75"/><path class="cls-1" d="M53.58,50.53S50.16,53.7,49.75,54,48.16,55.78,49,57c.31.47,0,.58-.5,1.17-.35.4-3.31,3.06-5.09,4.64"/><path class="cls-1" d="M56.62,40.24l-3.37,3.37c-.75.75-1.38,1.25-1.25,2s-.5,1.75-1.75,3c-1,1-5,4.47-6.84,6.16"/><path class="cls-1" d="M57.12,37.11c-2.5,2.5-4.25,3.88-5,4.88s-1.5,1.25-1.62,2.62-.25,1.25-1.25,2.25c-.74.74-4.1,3.63-5.84,5.11"/><path class="cls-1" d="M43.41,49.56c1.49-1.32,4.1-3.63,4.71-4.07.88-.63.75-1.63.75-2.5s.5-1.13,1.75-2.25,5.5-5,7.13-6.63c0,0,1.31-1.62,1.69-2s.37-.68.43-1.5a2.3,2.3,0,0,1,.82-2.06c.93-1,7.43-7.12,8.25-7.87"/><path class="cls-1" d="M43.41,47.53c.74-.68,1.75-1.63,2.34-2.29,1-1.13,1.12-.63,1.12-2s1-1.88,1.88-2.88,3.21-2.9,4.62-4.5c.94-1.06,1.57-1.43,2.32-2.25s1.56-1.37,2.12-2a3.16,3.16,0,0,0,.44-2.25c0-.75.44-1,.94-1.56,0,0,1.25-1.25,2.37-2.31s6-6,6-6c.92-.92,1.17-1.33.83-2.08s0-1.09.5-1.75,3-3.34,4.54-5.09"/><path class="cls-1" d="M50.62,36c-1.75,1.87-3.12,3.37-4,4.25s-1.37,1.25-1.5,2.12S45,43.61,44.5,44c-.26.19-.71.48-1.09.72"/><path class="cls-1" d="M47.37,30.61a35.59,35.59,0,0,1-4,4.13"/><path class="cls-1" d="M62,22.61c-1.88,1.88-3.63,3.5-4.38,4.25A4.31,4.31,0,0,0,56.37,29a3.07,3.07,0,0,1-.87,2l-2.13,2.12"/><rect class="cls-2" x="43.41" y="10.61" width="54.17" height="54.17"/><path class="cls-1" d="M43.41-41.44c-4.09,3.67-7,6-6.25,6.72s-1,2.17-3.5,4.67S26.33-23.14,27-21.47c0,0,.58.86.08,1.29S18.39-11,17.77-10.43a3.12,3.12,0,0,0-1.06,2.25A2.21,2.21,0,0,1,16.08-6C15.33-5.3,9.89.39,9,1.26"/><path class="cls-1" d="M12.13-.25,9.58,2.45c-.81.87-1.19,1.25-1.06,1.87S9,5.51,8.64,6,5.83,9,5.83,9"/><path class="cls-1" d="M9.67,10.61c.34-.34.65-.67.91-.95,0,0,1.25-1.46,2.08-2.3s1.09-1.08.84-2.08S12.75,3.53,15.91.36A50.93,50.93,0,0,0,20.5-4.72S22.66-7,23.5-8s.16-1.5.16-2.33.84-1.5,1.75-2.5,9.71-9.65,9.71-9.65c.75-.75,1.09-1.5.84-2.16s.33-1.59,1.25-2.59c.71-.77,4.07-4.15,6.2-6.29"/><path class="cls-1" d="M43.41.57c-.46.41-.81.73-.95.88a1.06,1.06,0,0,0-.38.69c0,.37.5.81.13,1.31S39,6.64,38.46,7.07s-.94,1-.75,1.44.5.5.31.88a4.51,4.51,0,0,1-.44.68l-.65.54"/><path class="cls-1" d="M35,9.82l-.79.79"/><path class="cls-1" d="M42.77-13.36c-.94.93-3.19,3.43-3.81,4.12s-1.32,1.31-1.32,2,.5,1.19.13,1.75S33.46-.8,33.46-.8c-.82.81-2.75,2.62-3.57,3.5s-.87.69-.81,1.5.63,1.25-.19,2.25-.81.62-3.56,3.46l-.69.7"/><path class="cls-1" d="M22,10.61c.24-.25.45-.49.63-.7"/><path class="cls-1" d="M20,9.74c-.2.24-.46.54-.76.87"/><path class="cls-1" d="M43.41-22.23c-.74.54-1.33.93-1.33.93A5,5,0,0,0,41-20.11a3.93,3.93,0,0,0-.07,1.5,8.29,8.29,0,0,1-1.31,2.18c-1,1.07-5.56,5.5-6.31,6.13S32-9,32.08-8.36s.44,1.68-.25,2.25S26-.36,25.08.51s-1.5,1.5-1.5,2.13.5,1.12-.06,1.81S19.58,7.82,18.58,9s.67-.63-1,1.12c-.16.18-.34.36-.51.54"/><path class="cls-1" d="M21.5-3.47S17.91.28,16.83,1.45,15.91,4,16,5.11,15.25,7,14.58,7.78l-1.75,2-1,.87"/><path class="cls-1" d="M43.41-37.51c-1.16,1-2.47,2.1-2.33,2.79s.17,1-1.25,2.42-6.75,6.75-7.67,7.75-1.5,1.91-1.25,2.58-.08,1.42-.83,2.17c0,0-6.69,6.75-7.5,7.69s-1.44,2-1.25,2.5a1.82,1.82,0,0,1-.12,2c-.63.62-8.07,9-8.5,9.43a8.88,8.88,0,0,0-1.82,2.32c-.06.5.57,1.18.57,1.81S9.64,8.26,9.08,8.89l-.58.68-1,1"/><path class="cls-1" d="M34.25-43.55c-2,1.92-4.94,4.51-5.67,5.16s-.83,1.09-.67,2.17S27.16-34,26-33c0,0-8.67,8.75-9.34,9.41s-.41,1-.33,1.84-.75,1.41-1.25,2.08-7,7.17-8.17,8.17S6-10.3,6.08-9.47,5.58-7.89,4.5-6.8-2,0-3.09,1.11s-.5,1.25,0,2.09a1.7,1.7,0,0,1-.33,2.33C-4.17,6.2-6.92,9-6.92,9l-1.66,1.62"/><path class="cls-1" d="M-1.85,10.61,2.66,6.68S3.58,5.76,4,5.32a1.87,1.87,0,0,0,.25-1.68C4,3.2,5.89,1.39,8.08-.8s4.63-4.56,5.13-5,1-.71.62-1.44c-.25-.5.41-1.37,1.81-3"/><line class="cls-1" x1="4.23" y1="7.57" x2="0.74" y2="10.61"/><path class="cls-1" d="M37-43.55C35.06-42,31.15-38.72,31-38s.58,1.75-.17,2.58S27.25-31.8,26.25-31l-6.48,6.42A2.09,2.09,0,0,0,19-22.36c.18.81.31.87-1.25,2.62s-8.19,8.38-8.88,9.06a1.66,1.66,0,0,0-.5,1.94C8.52-7.86,8-7.43,7-6.36S1.21-.24,0,1.07-.92,3-.67,3.57,0,4.7-.67,5.39-4.73,9.14-5.61,10"/><path class="cls-1" d="M31-11.11c-.81,1-1.5,1.62-1.38,2.31a2.48,2.48,0,0,1-.37,2.25c-.63.69-4.69,4.44-5.31,5.12S22.21.45,22.33,1.26a2,2,0,0,1-.37,2c-.63.81-4.94,4.94-5.57,5.63"/><path class="cls-1" d="M2.46-13.93-.92-10.55c-.75.75-1.37,1.25-1.25,2s-.5,1.75-1.75,3c-1,1-5,4.47-6.83,6.15"/><path class="cls-1" d="M43.41,8.64l-1.06.95"/><path class="cls-1" d="M35.46,9.39a3.56,3.56,0,0,0,.81-.63c.25-.31.12-.69.06-1.12s.5-.82,1.13-1.5,2.68-2.38,2.93-3,0-.5-.18-1-.38-1,.12-1.44,2-2,2-2l1.08-.93"/><path class="cls-1" d="M43.41-4.64l-1.08,1s-.87.32-.94.82a2.63,2.63,0,0,1-.62,1.56A31,31,0,0,1,38,1.32c-1.56,1.44-3.94,3.38-4,4.25s.37,1.13-.19,1.63-2.37,2.5-2.37,2.5"/><path class="cls-1" d="M43.41-9.49l-.7.44a10.18,10.18,0,0,0-1.5,1.62A3.61,3.61,0,0,0,41-5.61c0,.56-.32,1.06-1.07,1.81s-6.31,5.44-7.18,6.5c0,0-.82.94-1.13,1.19A1.63,1.63,0,0,0,31,5.32c.12.57.31,1.38-.07,1.82s-2.81,2.68-3.31,3.18"/><path class="cls-1" d="M21.52,8.26c.94-1,3.75-3.25,4.19-3.87s-.25-1.07-.19-1.82.75-1.12,2.31-2.81,5.94-6.12,6.56-7a1.23,1.23,0,0,0,.07-1.69c-.25-.37.56-1.25,1.12-1.87S36.71-12,37.83-13s2.64-2.47,3.5-3.25a10.18,10.18,0,0,0,1.5-2.63l.58-.53"/><rect class="cls-2" x="-10.75" y="-43.55" width="54.17" height="54.17"/><path class="cls-1" d="M43.41,12.73c-4.09,3.66-7,6-6.25,6.72s-1,2.16-3.5,4.66S26.33,31,27,32.7c0,0,.58.85.08,1.29s-8.69,9.19-9.31,9.75A3.1,3.1,0,0,0,16.71,46a2.2,2.2,0,0,1-.63,2.12c-.75.75-6.19,6.44-7.06,7.32"/><path class="cls-1" d="M43.41,14.64c-2.3,2-4.49,3.37-4.41,4.14s.75,1-.5,2.33l-.51.54"/><path class="cls-1" d="M38,21.65c-1.69,1.74-5.72,5.77-7.13,7.12"/><path class="cls-1" d="M30.86,28.77l-.28.26c-1.17,1.08-2.08,2.5-1.83,3.33a1.65,1.65,0,0,1-.5,2.09s-7,7.23-7.79,8a4.76,4.76,0,0,0-1.63,2.75c.06.68.31,1.31-.25,1.93-.11.13-.51.56-1.09,1.16"/><path class="cls-1" d="M12.13,53.92,9.58,56.61c-.81.88-1.19,1.25-1.06,1.88s.5,1.19.12,1.62-2.81,3-2.81,3"/><path class="cls-1" d="M38.33,11.45c-1.17,1.25-5.33,4.16-5.17,5.16s.5,1.34-.08,1.92"/><path class="cls-1" d="M29,13.45c-1.5,1.58-2.75,3-3.09,3.33a1.39,1.39,0,0,0-.33,1.5c.17.83-.08.58-.92,1.42s-3.58,3.75-3.58,3.75"/><path class="cls-1" d="M25.75,12.53c-1.42,1.5-3.42,3.42-4,3.92s-.84.58-.84,1.33a5.08,5.08,0,0,1-1.66,2.92"/><path class="cls-1" d="M4.08,35.74c.44-.31,2.75-2.81,3.25-3.38a2.05,2.05,0,0,0,.44-1.68,3.85,3.85,0,0,1,1.37-2.25c.75-.75,8.44-8.57,8.44-8.57a2.5,2.5,0,0,0,1-2.08,1.68,1.68,0,0,1,.58-1.5c.54-.61,3-3.07,5.52-5.67"/><path class="cls-1" d="M15.66,19.78c.92-.92,1.09-1.17.84-2.08a2.27,2.27,0,0,1,.75-2.42c.66-.58,3.24-3,4.82-4.67"/><path class="cls-1" d="M10,20.7s.66-.67,1.5-1.59.91-1.33.58-2.25.25-.91.83-1.66,2.58-2.88,4.2-4.59"/><path class="cls-1" d="M-10.75,37.37c2.05-2.23,6.69-7.26,7.33-8a6.92,6.92,0,0,0,1-1.12c.38-.56.44-.44.25-1.06s-.37-.88-.06-1.19.64-.71.64-.71c.34-.33,5.42-4.92,6.17-5.5a2.09,2.09,0,0,0,.92-2.17c-.17-.91-.09-1,.58-1.58s3.65-3.45,5.82-5.42"/><path class="cls-1" d="M-6.25,30.2c1-1,1.66-1.75,1.66-2.92s.67-1.83,1.67-2.67,4.67-4.5,5.75-5.41a2.25,2.25,0,0,0,1-2.17c0-.67.08-.67.92-1.58s3.23-3.08,5-4.84"/><path class="cls-1" d="M4.75,13.45C5.29,13,6.22,12,7.54,10.61"/><path class="cls-1" d="M1.83,17C.25,18.7-3.09,22-4.5,23.36s-2.09,1.86-2.17,2.69l-.25,1.31A3.38,3.38,0,0,1-8,29.74,20.05,20.05,0,0,1-10.75,32"/><path class="cls-1" d="M.79,10.61l-4.21,3.67c-1.25,1.25-3.17,2.58-3,3.42s.17,1-1.25,2.41l-3.08,3.09"/><path class="cls-1" d="M9.67,64.78c.34-.34.65-.67.91-1,0,0,1.25-1.46,2.08-2.29s1.09-1.08.84-2.08-.75-1.75,2.41-4.92a52.37,52.37,0,0,0,4.59-5.08s2.16-2.25,3-3.25.16-1.5.16-2.34.84-1.5,1.75-2.5,9.71-9.64,9.71-9.64c.75-.75,1.09-1.5.84-2.17S36.29,28,37.21,27c.71-.78,4.07-4.15,6.2-6.29"/><path class="cls-1" d="M42.77,40.8c-.94.94-3.19,3.44-3.81,4.13s-1.32,1.31-1.32,2,.5,1.18.13,1.75-4.31,4.68-4.31,4.68c-.82.82-2.75,2.63-3.57,3.5s-.87.69-.81,1.5.63,1.25-.19,2.25-.81.63-3.56,3.46l-.69.71"/><path class="cls-1" d="M43.41,31.94c-.74.53-1.33.92-1.33.92A5,5,0,0,0,41,34.05a3.94,3.94,0,0,0-.07,1.5,8.37,8.37,0,0,1-1.31,2.19c-1,1.06-5.56,5.5-6.31,6.12S32,45.11,32.08,45.8s.44,1.69-.25,2.25S26,53.8,25.08,54.68s-1.5,1.5-1.5,2.12.5,1.13-.06,1.81-3.94,3.38-4.94,4.5.67-.62-1,1.13l-.51.54"/><path class="cls-1" d="M21.5,50.7s-3.59,3.75-4.67,4.91-.92,2.5-.83,3.67S15.25,61.2,14.58,62l-1.75,2c-.29.25-.62.55-1,.87"/><path class="cls-1" d="M43.41,16.66c-1.16,1.05-2.47,2.09-2.33,2.79s.17,1-1.25,2.41-6.75,6.75-7.67,7.75-1.5,1.92-1.25,2.59-.08,1.41-.83,2.16c0,0-6.69,6.75-7.5,7.69s-1.44,2-1.25,2.5a1.81,1.81,0,0,1-.12,2c-.63.63-8.07,9-8.5,9.44a8.84,8.84,0,0,0-1.82,2.31c-.06.5.57,1.19.57,1.81s-1.82,2.32-2.38,2.94l-.58.69-1,1"/><path class="cls-1" d="M34.25,10.61c-2,1.92-4.94,4.51-5.67,5.17s-.83,1.08-.67,2.17-.75,2.16-1.91,3.16l-9.34,9.42c-.66.67-.41,1-.33,1.83s-.75,1.42-1.25,2.09-7,7.16-8.17,8.16S6,43.86,6.08,44.7s-.5,1.58-1.58,2.66S-2,54.2-3.09,55.28s-.5,1.25,0,2.08a1.71,1.71,0,0,1-.33,2.34c-.75.66-3.5,3.46-3.5,3.46l-1.66,1.62"/><path class="cls-1" d="M-1.85,64.78l4.51-3.94s.92-.91,1.3-1.35a1.89,1.89,0,0,0,.25-1.69c-.19-.44,1.68-2.25,3.87-4.44s4.63-4.56,5.13-5,1-.71.62-1.43c-.25-.5.41-1.38,1.81-3"/><path class="cls-1" d="M37,10.61c-1.92,1.59-5.83,4.84-6,5.5s.58,1.75-.17,2.59-3.58,3.66-4.58,4.5l-6.48,6.41A2.1,2.1,0,0,0,19,31.8c.18.81.31.88-1.25,2.63S9.52,42.8,8.83,43.49a1.66,1.66,0,0,0-.5,1.94C8.52,46.3,8,46.74,7,47.8s-5.75,6.13-7,7.44-.88,1.87-.63,2.5.63,1.12,0,1.81-4.06,3.75-4.94,4.56"/><path class="cls-1" d="M12.52,42.61c.87-.87,8.56-8.93,8.56-8.93.69-.69,1.38-1.38,1.19-2.13a1.48,1.48,0,0,1,.5-1.81c.69-.56,7.31-7.13,7.81-7.63"/><path class="cls-1" d="M22,50.24s3.62-3.56,4.25-4.31A1.82,1.82,0,0,0,26.83,44c-.19-.88.44-1.44.94-2s3.06-3.5,4.37-4.81l1.44-1.5c.75-.82,3.11-3.07,3.11-3.07.75-.75,1.08-1.5.83-2.16s.33-1.59,1.25-2.59c.55-.6,2.71-2.78,4.64-4.72"/><path class="cls-1" d="M17.08,27.11c-1.83,2.09-2.75,3.42-3.17,3.92a1.5,1.5,0,0,0-.41,1.5c.16.58-.17.92-.67,1.42s-2.58,2.41-2.58,2.41"/><path class="cls-1" d="M2.85,11C1,13-3.65,16.8-4.06,17.3a1.48,1.48,0,0,0-.42,1.5c.17.59-.17.92-.67,1.42s-4.08,4-4.08,4"/><path class="cls-1" d="M8.33,38.53s-4,4.5-4.42,4.92A1.76,1.76,0,0,0,3.25,45c.08.75.08.92-.34,1.33S.08,49.11.08,49.11"/><path class="cls-1" d="M31,43.05c-.81,1-1.5,1.63-1.38,2.31a2.47,2.47,0,0,1-.37,2.25c-.63.69-4.69,4.44-5.31,5.13s-1.75,1.87-1.63,2.69a2,2,0,0,1-.37,2c-.63.81-4.94,4.93-5.57,5.62"/><path class="cls-1" d="M2.46,40.24-.92,43.61c-.75.75-1.37,1.25-1.25,2s-.5,1.75-1.75,3c-1,1-5,4.47-6.83,6.16"/><path class="cls-1" d="M3,37.11C.46,39.61-1.29,41-2,42s-1.5,1.25-1.63,2.62-.25,1.25-1.25,2.25c-.73.74-4.1,3.63-5.83,5.11"/><path class="cls-1" d="M-10.75,49.56c1.48-1.32,4.09-3.63,4.71-4.07.87-.63.75-1.63.75-2.5s.5-1.13,1.75-2.25,5.5-5,7.12-6.63c0,0,1.31-1.62,1.69-2s.37-.68.44-1.5a2.27,2.27,0,0,1,.81-2.06c.94-1,7.44-7.12,8.25-7.87"/><path class="cls-1" d="M-10.75,47.53C-10,46.85-9,45.9-8.42,45.24c1-1.13,1.13-.63,1.13-2s1-1.88,1.87-2.88,3.22-2.9,4.63-4.5C.14,34.8.77,34.43,1.52,33.61s1.56-1.37,2.12-2a3.11,3.11,0,0,0,.44-2.25c0-.75.44-1,.94-1.56,0,0,1.25-1.25,2.37-2.31s6-6,6-6c.92-.92,1.17-1.33.84-2.08s0-1.09.5-1.75,3-3.34,4.53-5.09"/><path class="cls-1" d="M7.83,22.61C6,24.49,4.21,26.11,3.46,26.86A4.24,4.24,0,0,0,2.21,29a3.14,3.14,0,0,1-.88,2L-.79,33.11"/><path class="cls-1" d="M35.46,63.55a3.4,3.4,0,0,0,.81-.62c.25-.32.12-.69.06-1.13s.5-.81,1.13-1.5,2.68-2.37,2.93-3,0-.5-.18-1-.38-1,.12-1.44,2-2,2-2l1.08-.92"/><path class="cls-1" d="M43.41,49.52l-1.08,1s-.87.31-.94.81a2.61,2.61,0,0,1-.62,1.56A30.57,30.57,0,0,1,38,55.49c-1.56,1.44-3.94,3.37-4,4.25s.37,1.12-.19,1.62-2.37,2.5-2.37,2.5"/><path class="cls-1" d="M42.46,48.36s.41-.36.95-.87"/><path class="cls-1" d="M43.41,44.68l-.7.43a10.38,10.38,0,0,0-1.5,1.63A3.57,3.57,0,0,0,41,48.55c0,.56-.32,1.06-1.07,1.81s-6.31,5.44-7.18,6.5c0,0-.82.94-1.13,1.19A1.65,1.65,0,0,0,31,59.49c.12.56.31,1.37-.07,1.81S28.08,64,27.58,64.49"/><path class="cls-1" d="M21.52,62.43c.94-1,3.75-3.25,4.19-3.88s-.25-1.06-.19-1.81.75-1.13,2.31-2.81,5.94-6.13,6.56-7a1.22,1.22,0,0,0,.07-1.69c-.25-.38.56-1.25,1.12-1.88s1.13-1.18,2.25-2.25l3.5-3.25a10,10,0,0,0,1.5-2.62l.58-.53"/><path class="cls-1" d="M42.58,38.24l.83-.91"/><path class="cls-1" d="M6.77,34.86S8.46,33.36,9,32.74A3.93,3.93,0,0,0,10,30.55c.12-.87.56-1,1.43-2s2.5-2.62,4.63-4.81"/><path class="cls-1" d="M42.71,29.24c-1.19,1.37-3.32,3.87-3.88,4.44a1.6,1.6,0,0,0-.62,1.43,1.7,1.7,0,0,1-.69,1.63c-.75.75-4,3.94-4,3.94"/><rect class="cls-2" x="-10.75" y="10.61" width="54.17" height="54.17"/><rect class="cls-2" width="54.39" height="54.39"/></svg>