<!-- Generator: Adobe Illustrator 22.1.0, SVG Export Plug-In  -->
<svg version="1.1"
     xmlns="http://www.w3.org/2000/svg" xmlns:xlink="http://www.w3.org/1999/xlink" xmlns:a="http://ns.adobe.com/AdobeSVGViewerExtensions/3.0/"
     x="0px" y="0px" width="53px" height="52.9px" viewBox="0 0 53 52.9" style="enable-background:new 0 0 53 52.9;"
     xml:space="preserve">
<style type="text/css">
    .st0{clip-path:url(#SVGID_2_);fill:none;stroke:#000000;stroke-width:0.3;}
    .st1{clip-path:url(#SVGID_4_);fill:none;stroke:#000000;stroke-width:0.3;}
</style>
<defs>
</defs>
<g>
    <defs>
        <rect id="SVGID_1_" x="0.1" y="0.1" width="52.8" height="52.8"/>
    </defs>
    <clipPath id="SVGID_2_">
        <use xlink:href="#SVGID_1_"  style="overflow:visible;"/>
    </clipPath>
    <path class="st0" d="M0.1,11.4C2,8.7,3.5,8.1,5.5,7.8c2.2-0.4,2.1-2.2,3-3.9s2-1.9,3.4-2.5C12.7,1,13,0.6,13.3,0.1"/>
    <path class="st0" d="M0.1,14.2c0.3-0.5,0.6-0.9,0.7-1.3c0.8-1.4,3.5-2.9,5.2-3.4s2.5-1.1,3.8-3.1s2-2.8,3.5-3.3
        c1.3-0.4,1.7-1.4,2.5-3.1"/>
    <path class="st0" d="M0.1,16.8c1-1,1.8-2,2.2-2.9c0.9-1.6,1.4-1.5,3.5-2.4s3.8-1.9,4.4-3.1s2.1-2.5,3.8-3.6c1.4-1,2.8-2.6,3.9-4.7"
        />
    <path class="st0" d="M0.1,27.9c1-1.6,3.2-4,5-4.9c2-1,3.1-2.6,4-4.6s3.6-4.3,6.1-5.5S19,8.5,19.9,7s5.1-3.5,6.8-4.4
        C27.8,2,28.2,1,28.4,0.1"/>
    <path class="st0" d="M0.1,30.6c0.9-1.1,1.7-2.2,2.1-3.1c0.9-1.6,3-2.9,5-4.4s2.8-3.8,3.4-4.8s3.4-3.3,5.6-4.4s4.1-4.8,4.9-6
        s3.1-2.6,5.6-3.6c1.9-0.8,2.8-2.7,3.3-4.3"/>
    <path class="st0" d="M0.1,43.2c1.6-0.9,3.3-1.7,4.4-2.5c1.4-0.9,3.6-3.2,4.1-4.9s3.4-3.1,4.8-3.6c1.9-0.7,3.4-3.5,3.9-4.9
        s2.4-3.2,5-4.2s5.2-5.6,6-7.1s3.9-3.8,5.6-4.4s3.4-3.5,3.9-4.9s2.2-3.5,4-4.2C43,2,43.6,1,44,0.1"/>
    <path class="st0" d="M0.1,45.1c1.4-1.1,3.5-2.6,4.9-2.7c2.7-0.3,3.7-2.5,4.4-4.4s2.5-2.8,3.8-3.5c1.7-1,3.9-2.6,5.2-6.3
        c1.1-3.2,4.6-3.4,7.3-5.8c1.9-1.6,2.7-3.6,4.2-5.9c1.5-2.3,3.7-3.2,5.7-4.2s3.4-4.6,4.1-6.1s1.8-1.5,3.2-2.5
        c1.2-0.8,2.6-2.1,3.2-3.7"/>
    <path class="st0" d="M0.1,47.6c1.6-1.2,4.3-3.6,7-4.2c3.1-0.7,3.9-3.2,4.5-4.9s2-1.8,4.1-2.6s3.4-4.9,3.9-5.9
        c0.9-1.8,1.3-1.6,2.9-2.6s2.2-1.4,3.1-2.7s2.1-2.5,3.3-3.4s1.3-1.6,2.1-3.1s4.8-3.4,6.2-4.6s2.2-2,2.7-4.2s3.4-3.4,5.2-4.6
        c1.5-1,2.8-2.7,3.2-4.6"/>
    <path class="st0" d="M0.1,49.4c1.7-1.2,6.3-3.5,9-4.9c2.1-1.1,3.6-3.2,4-4.6s0.6-1,1.2-1.5s0.8-0.6,1.8-1.6s2.6-1.6,3.9-3
        c0.8-0.9,0.8-2.2,1.2-3.3s1.1-1.1,2.8-2.2s2.5-2.6,3.4-3.9s2.1-2.1,3.5-3s1.5-2.1,2.2-3.2s3.9-2.3,5.3-3.1s2.5-2.7,2.9-4.9
        s2.3-2.8,3.6-3.3s1.6-1,3.2-2.4c1.4-1.2,2.2-2.9,2.4-4.4"/>
    <path class="st0" d="M0.1,33.6c1.1-1,1.8-2.3,2.4-4c0.8-2.1,2.6-3,5.1-4.4s3.5-3.6,4.5-5.6s2.2-2.8,4.8-3.6
        c2.5-0.9,3.8-3.6,4.8-5.8s2.6-2.6,5.6-3.9c2.5-1,3.9-4.2,4.7-6.3"/>
    <path class="st0" d="M52.9,11.4c-0.2,0.2-0.3,0.5-0.5,0.7c-1,1.6-1.9,3.5-4.5,4.3c-0.8,0.2,0,0-1,0.4c-1,0.4-2.8,2.2-3.6,4
        s-2,2.8-5.1,4.1s-3.1,2.8-3.9,4.5s-2.8,3-4.2,3.7s-2.9,1.9-3.4,3.5s-2.1,3.1-4.6,5s-4.2,3.4-5.8,4.9l-2.4,5
        c-0.2,0.5-0.4,0.9-0.6,1.3"/>
    <path class="st0" d="M52.9,33.7c-0.3,0.3-0.6,0.5-1,0.7c0,0-0.7,0.5-1.7,1.2S47.9,36,47,37.3s-2.1,2.8-3.1,3.1s-2.3,0.9-3.6,2.2
        s-1.8,1.9-3.6,3.5s-3.4,3.1-3.7,3.8s-0.6,1.8-0.6,1.8c-0.1,0.3-0.3,0.7-0.4,1.2"/>
    <path class="st0" d="M52.9,14.2c-0.9,1.4-2.3,3-4.7,3.6L46,18.9c-1,1-1.4,3.5-3.2,4.9S37.3,27,35.9,29s-1.8,4.9-4.1,5.6
        s-3,1.5-4.1,3.5s-2.2,3.5-4.8,5.2s-5.4,6-6.5,8.4c-0.2,0.4-0.3,0.7-0.5,1"/>
    <path class="st0" d="M52.9,16.8c-0.9,0.9-1.8,1.6-2.7,2l-2.6,1.9c-0.9,1.1-3.2,4.8-5.1,5.6s-4.2,1.8-5,3.1s-3.5,6.1-5.6,7.1
        s-3.2,2.9-4.2,4.4s-0.9,3.2-3.1,4.2s-4.8,3.9-5.9,6.5c-0.2,0.4-0.4,0.8-0.6,1.2"/>
    <path class="st0" d="M28.4,52.8c0.1-0.4,0.1-0.7,0.2-1c0.2-1.1,0.6-4.2,1.5-5.4s3.6-2.4,5.1-3.1s3.4-3.5,4.2-4.8s3.2-2.1,4.4-3.3
        s1.2-1.4,1.8-2.2l1.8-0.9c1.9-0.5,4.4-2.1,5.1-3.7c0.1-0.1,0.1-0.3,0.2-0.4"/>
    <path class="st0" d="M30,52.8c0.1-0.5,0.2-0.9,0.3-1.3c0.4-1.6,1.2-3.1,2.2-4.1s3-2.5,4.3-3.6s2.9-2.6,3.8-3.9s1.4-1.1,2.8-1.7
        s1.6-1.3,2.2-2.2s1.8-1.4,3.1-2.1l1.7-0.9c0.8-0.5,1.7-1.4,2.5-2.4"/>
    <path class="st0" d="M44,52.8c0.2-0.4,0.2-0.8,0.3-1c0,0,0.4-3.2,1.1-4.1s1.2-1.2,3.2-2.2s2.9-1.4,2.9-1.4l0.6-0.4
        c0.3-0.2,0.6-0.3,0.9-0.5"/>
    <path class="st0" d="M46.2,52.8c0.1-0.4,0.2-0.7,0.3-1.1c0,0,0.8-2.2,1.6-3s2.7-1.9,3.8-2.8c0.3-0.2,0.6-0.5,1.1-0.8"/>
    <path class="st0" d="M48.5,52.8c0.1-0.4,0.1-0.7,0.1-1.1c0,0,0.4-1.3,1.5-2.2s0.3-0.3,2.2-1.5c0.2-0.1,0.4-0.2,0.6-0.4"/>
    <path class="st0" d="M52.9,49.4c-0.2,0.1-0.3,0.2-0.4,0.3c-1.3,1.1-0.7,0.5-1.1,1s-0.6,1.4-0.6,1.4c0,0.2,0,0.4-0.1,0.7"/>
    <line class="st0" x1="3.6" y1="2.3" x2="1.2" y2="1.7"/>
    <line class="st0" x1="2" y1="5.6" x2="1.3" y2="7.7"/>
    <line class="st0" x1="16.9" y1="4.2" x2="14.9" y2="4.9"/>
    <line class="st0" x1="19" y1="7.2" x2="18.6" y2="5.4"/>
    <line class="st0" x1="46.9" y1="23.7" x2="47.3" y2="25.5"/>
    <line class="st0" x1="21" y1="1.1" x2="19.9" y2="3.8"/>
    <line class="st0" x1="51.5" y1="23.8" x2="49.7" y2="25"/>
    <line class="st0" x1="12" y1="8.3" x2="14.2" y2="9.4"/>
    <line class="st0" x1="16.3" y1="8.2" x2="16.1" y2="10.4"/>
    <line class="st0" x1="45.7" y1="41.5" x2="47.6" y2="40.3"/>
    <line class="st0" x1="49.6" y1="41.4" x2="49.9" y2="43.3"/>
    <line class="st0" x1="12.4" y1="12.6" x2="10.5" y2="13.4"/>
    <line class="st0" x1="6.8" y1="2" x2="8.8" y2="1.2"/>
    <line class="st0" x1="9.3" y1="10.8" x2="8.6" y2="12.8"/>
    <line class="st0" x1="4" y1="13.9" x2="6.4" y2="13.8"/>
    <line class="st0" x1="4.6" y1="17.9" x2="6.1" y2="16.4"/>
    <line class="st0" x1="4.7" y1="32.3" x2="3.2" y2="33.8"/>
    <line class="st0" x1="8.5" y1="15.2" x2="8.5" y2="17.3"/>
    <line class="st0" x1="24.7" y1="36.7" x2="22.8" y2="37.5"/>
    <line class="st0" x1="21.6" y1="35" x2="20.8" y2="37"/>
    <line class="st0" x1="18.7" y1="38" x2="16.3" y2="38"/>
    <line class="st0" x1="18.4" y1="40.5" x2="16.9" y2="42"/>
    <line class="st0" x1="20.8" y1="39.3" x2="20.8" y2="41.4"/>
    <line class="st0" x1="5.4" y1="3.9" x2="5.4" y2="6"/>
    <line class="st0" x1="2.1" y1="18.7" x2="2.1" y2="16.5"/>
    <line class="st0" x1="5.5" y1="21" x2="3.6" y2="20.3"/>
    <line class="st0" x1="1.6" y1="24.4" x2="0.9" y2="21.9"/>
    <line class="st0" x1="40.4" y1="2.3" x2="38.4" y2="1.2"/>
    <line class="st0" x1="35.5" y1="1.2" x2="33.4" y2="1.8"/>
    <line class="st0" x1="35.3" y1="5.4" x2="35.9" y2="3.7"/>
    <line class="st0" x1="36.3" y1="7.3" x2="33.9" y2="7.6"/>
    <line class="st0" x1="31.6" y1="4.5" x2="31.7" y2="6.6"/>
    <line class="st0" x1="32" y1="11.1" x2="31.6" y2="8.7"/>
    <line class="st0" x1="29.3" y1="8.8" x2="26.8" y2="7.9"/>
    <line class="st0" x1="24.9" y1="9.7" x2="23.2" y2="10.9"/>
    <line class="st0" x1="26.6" y1="13.7" x2="24.3" y2="13.5"/>
    <line class="st0" x1="25.9" y1="18" x2="25.5" y2="15.8"/>
    <line class="st0" x1="20.5" y1="14.7" x2="22" y2="16.4"/>
    <line class="st0" x1="21.8" y1="18.5" x2="19.6" y2="19.8"/>
    <line class="st0" x1="23" y1="21.6" x2="21.3" y2="21"/>
    <line class="st0" x1="17.7" y1="25.2" x2="17.5" y2="22.5"/>
    <line class="st0" x1="12.7" y1="21.8" x2="15.1" y2="21.2"/>
    <line class="st0" x1="46.5" y1="43.4" x2="46.1" y2="45.5"/>
    <line class="st0" x1="42" y1="46.8" x2="44.5" y2="46.8"/>
    <line class="st0" x1="38" y1="47.5" x2="39.5" y2="45.2"/>
    <line class="st0" x1="42.9" y1="49.3" x2="41.5" y2="51.1"/>
    <line class="st0" x1="39" y1="51.8" x2="38.9" y2="49.5"/>
    <line class="st0" x1="36.4" y1="51.8" x2="35.2" y2="49.7"/>
    <line class="st0" x1="12.9" y1="25.6" x2="14.9" y2="26.8"/>
    <line class="st0" x1="11" y1="27.5" x2="9.6" y2="25.7"/>
    <line class="st0" x1="4.1" y1="52.4" x2="2.7" y2="50.5"/>
    <line class="st0" x1="13.3" y1="29.8" x2="11.1" y2="30.6"/>
    <line class="st0" x1="7.7" y1="32.2" x2="7.8" y2="30"/>
    <line class="st0" x1="5" y1="34.5" x2="7.8" y2="34.7"/>
    <line class="st0" x1="3.8" y1="29.8" x2="5.7" y2="28.8"/>
    <line class="st0" x1="5.2" y1="38.8" x2="3.8" y2="36.7"/>
    <line class="st0" x1="12" y1="50.3" x2="9.8" y2="48.6"/>
    <line class="st0" x1="11.5" y1="45.9" x2="9.4" y2="45.7"/>
    <line class="st0" x1="7.6" y1="49.8" x2="6.5" y2="52.3"/>
    <line class="st0" x1="1.1" y1="37.2" x2="1.2" y2="35.3"/>
    <line class="st0" x1="2.4" y1="39.8" x2="0.7" y2="40.9"/>
    <line class="st0" x1="50" y1="4.1" x2="52.4" y2="5"/>
    <line class="st0" x1="48.6" y1="6.6" x2="47.7" y2="8.9"/>
    <line class="st0" x1="51.1" y1="10.2" x2="48.8" y2="10"/>
    <line class="st0" x1="48.5" y1="14.3" x2="48.1" y2="12.1"/>
    <line class="st0" x1="43.9" y1="9.3" x2="45.7" y2="10.2"/>
    <line class="st0" x1="46.8" y1="15.5" x2="44.3" y2="15.5"/>
    <line class="st0" x1="45" y1="12.6" x2="42.3" y2="13.3"/>
    <line class="st0" x1="40.9" y1="20.5" x2="39.5" y2="22.3"/>
    <line class="st0" x1="41.6" y1="18.4" x2="41.4" y2="15.7"/>
    <line class="st0" x1="36.4" y1="18.3" x2="38.8" y2="17.7"/>
    <line class="st0" x1="37.2" y1="21.6" x2="35.2" y2="20.4"/>
    <line class="st0" x1="35.1" y1="24.8" x2="33.8" y2="23"/>
    <line class="st0" x1="42.6" y1="42.2" x2="43.9" y2="44"/>
    <line class="st0" x1="14.1" y1="44" x2="12.8" y2="42.2"/>
    <line class="st0" x1="33.5" y1="28" x2="31.3" y2="28.8"/>
    <line class="st0" x1="30.5" y1="25.3" x2="30.6" y2="23.1"/>
    <line class="st0" x1="30.7" y1="31" x2="27.9" y2="30.7"/>
    <line class="st0" x1="26.7" y1="28.7" x2="28.5" y2="27.8"/>
    <line class="st0" x1="26.9" y1="33.9" x2="25.6" y2="31.8"/>
    <line class="st0" x1="22.8" y1="30.8" x2="22.7" y2="32.7"/>
    <line class="st0" x1="43" y1="27" x2="45.6" y2="27.5"/>
    <line class="st0" x1="47.1" y1="28.3" x2="46.5" y2="30.8"/>
    <line class="st0" x1="50.7" y1="27.7" x2="48.8" y2="27.9"/>
    <line class="st0" x1="37.6" y1="35.7" x2="37" y2="38.5"/>
    <line class="st0" x1="50.1" y1="20.2" x2="51.9" y2="21.3"/>
    <line class="st0" x1="43.8" y1="29.9" x2="42.1" y2="31.8"/>
    <line class="st0" x1="15" y1="46.3" x2="13.4" y2="48.3"/>
    <line class="st0" x1="39.9" y1="31.7" x2="40.1" y2="29.3"/>
    <line class="st0" x1="39.3" y1="34.5" x2="41.6" y2="35.1"/>
    <line class="st0" x1="23.6" y1="47.2" x2="26.3" y2="46.7"/>
    <line class="st0" x1="26.1" y1="51.4" x2="26.7" y2="48.9"/>
    <line class="st0" x1="36.1" y1="33.4" x2="38" y2="33.2"/>
    <line class="st0" x1="28.2" y1="45" x2="28.8" y2="42.2"/>
    <line class="st0" x1="33.2" y1="43" x2="31.2" y2="41.3"/>
    <line class="st0" x1="6.4" y1="47.4" x2="4.8" y2="49.3"/>
    <line class="st0" x1="22.8" y1="51.6" x2="21.6" y2="49.4"/>
    <line class="st0" x1="31.5" y1="38.8" x2="33.9" y2="39.5"/>
    <line class="st0" x1="50.6" y1="37.4" x2="51" y2="39.3"/>
    <line class="st0" x1="17" y1="17.4" x2="17" y2="19.6"/>
    <line class="st0" x1="29.1" y1="10.9" x2="28.5" y2="12.6"/>
    <line class="st0" x1="24" y1="0.8" x2="25.4" y2="2.6"/>
</g>
</svg>
