<svg id="Layer_1" data-name="Layer 1" xmlns="http://www.w3.org/2000/svg" width="53.01" height="52.89" viewBox="0 0 53.01 52.89"><defs><style>.cls-1,.cls-2{fill:none;}.cls-1{stroke:#000;stroke-width:0.3px;}</style></defs><title>Artboard 37</title><path class="cls-1" d="M29.2,1.58a20.77,20.77,0,0,0,2.12-3.1c.88-1.63,3-2.88,5-4.38s2.75-3.75,3.38-4.75A18.44,18.44,0,0,1,45.32-15c2.25-1.13,4.13-4.75,4.88-6s3.12-2.63,5.62-3.63c1.93-.77,2.82-2.73,3.29-4.33"/><path class="cls-1" d="M29.2,14.2c1.62-.86,3.27-1.73,4.44-2.47A11.91,11.91,0,0,0,37.7,6.85c.5-1.62,3.37-3.12,4.75-3.62,1.9-.69,3.37-3.5,3.87-4.88s2.38-3.25,5-4.25,5.25-5.62,6-7.12S61.2-16.77,63-17.4s3.37-3.5,3.87-4.87a8.69,8.69,0,0,1,4-4.25A4.24,4.24,0,0,0,73-29"/><path class="cls-1" d="M29.2,16.08c1.41-1.09,3.5-2.59,4.94-2.73,2.72-.27,3.68-2.5,4.43-4.37s2.5-2.75,3.75-3.5A10.83,10.83,0,0,0,47.51-.84c1.08-3.24,4.59-3.39,7.31-5.75C56.7-8.21,57.55-10.2,59-12.46s3.69-3.19,5.69-4.19,3.37-4.62,4.12-6.12,1.75-1.5,3.25-2.5A8.11,8.11,0,0,0,75.24-29"/><path class="cls-1" d="M29.2,18.57c1.59-1.2,4.29-3.61,7-4.22,3.11-.7,3.87-3.25,4.5-4.87s2-1.75,4.12-2.63S48.2,2,48.76.91C49.7-.87,50.07-.71,51.7-1.65a7.31,7.31,0,0,0,3.06-2.69,15.6,15.6,0,0,1,3.31-3.43c1.19-.94,1.32-1.63,2.13-3.13s4.75-3.44,6.19-4.62a6.46,6.46,0,0,0,2.68-4.25c.5-2.25,3.44-3.44,5.25-4.63A7.53,7.53,0,0,0,77.56-29"/><path class="cls-1" d="M29.2,20.39c1.75-1.19,6.28-3.45,9-4.85a8.54,8.54,0,0,0,4-4.56c.37-1.38.62-1,1.25-1.5A17.19,17.19,0,0,0,45.2,7.85c1-1,2.62-1.62,3.94-3C50,4,50,2.6,50.39,1.54S51.45.41,53.2-.65a10.73,10.73,0,0,0,3.37-3.87,10.25,10.25,0,0,1,3.5-3c1.44-.88,1.5-2.07,2.25-3.25s3.94-2.32,5.32-3.13a7.35,7.35,0,0,0,2.93-4.94c.44-2.25,2.32-2.81,3.57-3.31s1.62-1,3.25-2.44A7.7,7.7,0,0,0,79.82-29"/><path class="cls-1" d="M29.2,4.58a9.59,9.59,0,0,0,2.37-4c.75-2.12,2.63-3,5.13-4.37S40.2-7.4,41.2-9.4,43.45-12.15,46-13s3.75-3.63,4.75-5.75,2.62-2.63,5.62-3.88c2.5-1,3.87-4.16,4.69-6.33"/><path class="cls-1" d="M82-17.63c-.16.23-.32.47-.48.73-1,1.61-1.89,3.47-4.5,4.25a7,7,0,0,0-1,.38c-1,.37-2.75,2.25-3.63,4s-2,2.75-5.12,4.12S64.07-1.4,63.32.35s-2.75,3-4.25,3.75A6.19,6.19,0,0,0,55.7,7.6c-.5,1.63-2.13,3.13-4.63,5a52.59,52.59,0,0,0-5.75,4.88l-2.37,5c-.21.47-.36.9-.56,1.29"/><path class="cls-1" d="M82-14.84a7.79,7.79,0,0,1-4.73,3.57l-2.15,1.12c-1,1-1.37,3.5-3.25,4.88S66.32-2,65,0,63.2,4.85,60.82,5.6s-3,1.5-4.12,3.5A14.26,14.26,0,0,1,52,14.35c-2.5,1.75-5.38,6-6.5,8.38-.18.37-.34.72-.49,1"/><path class="cls-1" d="M82-12.24a9.1,9.1,0,0,1-2.73,2L76.57-8.4c-.87,1.13-3.25,4.75-5.12,5.63S67.2-1,66.45.35,63,6.48,60.82,7.48s-3.25,2.87-4.25,4.37-.87,3.25-3.12,4.25S48.7,20,47.57,22.6c-.17.4-.36.79-.55,1.17"/><line class="cls-1" x1="33.74" y1="3.23" x2="32.24" y2="4.73"/><line class="cls-1" x1="53.76" y1="7.66" x2="51.82" y2="8.48"/><line class="cls-1" x1="50.64" y1="5.91" x2="49.89" y2="7.91"/><line class="cls-1" x1="47.76" y1="8.91" x2="45.32" y2="8.98"/><line class="cls-1" x1="47.45" y1="11.48" x2="45.95" y2="12.98"/><line class="cls-1" x1="49.82" y1="10.23" x2="49.82" y2="12.35"/><line class="cls-1" x1="33.14" y1="23.31" x2="31.76" y2="21.5"/><line class="cls-1" x1="42.39" y1="0.73" x2="40.14" y2="1.54"/><line class="cls-1" x1="36.78" y1="3.1" x2="36.84" y2="0.91"/><line class="cls-1" x1="34.07" y1="5.41" x2="36.82" y2="5.66"/><line class="cls-1" x1="32.91" y1="0.7" x2="34.78" y2="-0.23"/><line class="cls-1" x1="34.26" y1="9.79" x2="32.89" y2="7.66"/><line class="cls-1" x1="41.06" y1="21.26" x2="38.91" y2="19.53"/><line class="cls-1" x1="40.55" y1="16.89" x2="38.47" y2="16.64"/><line class="cls-1" x1="36.68" y1="20.75" x2="35.61" y2="23.27"/><line class="cls-1" x1="30.14" y1="8.1" x2="30.26" y2="6.23"/><line class="cls-1" x1="31.51" y1="10.73" x2="29.76" y2="11.85"/><line class="cls-1" x1="43.2" y1="14.98" x2="41.82" y2="13.16"/><line class="cls-1" x1="51.89" y1="1.73" x2="51.76" y2="3.6"/><line class="cls-1" x1="44.07" y1="17.29" x2="42.45" y2="19.23"/><line class="cls-1" x1="52.7" y1="18.16" x2="55.39" y2="17.6"/><line class="cls-1" x1="35.45" y1="18.35" x2="33.82" y2="20.29"/><line class="cls-1" x1="51.82" y1="22.54" x2="50.7" y2="20.35"/><rect class="cls-2" x="29.2" y="-28.98" width="52.75" height="52.75"/><path class="cls-1" d="M29.2,35.09c1.89-2.71,3.42-3.27,5.37-3.61,2.2-.39,2.13-2.25,3-3.88s2-1.87,3.38-2.5a2.74,2.74,0,0,0,1.44-1.33"/><path class="cls-1" d="M29.2,37.88c.31-.48.56-.93.75-1.28.75-1.37,3.5-2.87,5.25-3.37S37.7,32.1,39,30.1s2-2.75,3.5-3.25c1.26-.42,1.73-1.37,2.51-3.08"/><path class="cls-1" d="M29.2,40.49a13.4,13.4,0,0,0,2.25-2.89c.87-1.62,1.37-1.5,3.5-2.37s3.75-1.88,4.37-3.13a11.65,11.65,0,0,1,3.75-3.62,13.57,13.57,0,0,0,4-4.71"/><path class="cls-1" d="M29.2,51.62a14.72,14.72,0,0,1,5-4.89,8.59,8.59,0,0,0,4-4.63c.87-2,3.62-4.25,6.12-5.5s3.75-4.37,4.63-5.87,5.12-3.5,6.75-4.38a3.58,3.58,0,0,0,1.78-2.58"/><path class="cls-1" d="M29.2,54.33a20.77,20.77,0,0,0,2.12-3.1c.88-1.63,3-2.88,5-4.38s2.75-3.75,3.38-4.75a18.44,18.44,0,0,1,5.62-4.37c2.25-1.13,4.13-4.75,4.88-6s3.12-2.63,5.62-3.63c1.93-.77,2.82-2.73,3.29-4.33"/><path class="cls-1" d="M29.2,67c1.62-.86,3.27-1.73,4.44-2.47A11.91,11.91,0,0,0,37.7,59.6c.5-1.62,3.37-3.12,4.75-3.62,1.9-.69,3.37-3.5,3.87-4.88s2.38-3.25,5-4.25,5.25-5.62,6-7.12S61.2,36,63,35.35s3.37-3.5,3.87-4.87a8.69,8.69,0,0,1,4-4.25A4.24,4.24,0,0,0,73,23.77"/><path class="cls-1" d="M29.2,68.83c1.41-1.09,3.5-2.59,4.94-2.73,2.72-.27,3.68-2.5,4.43-4.37s2.5-2.75,3.75-3.5a10.83,10.83,0,0,0,5.19-6.32c1.08-3.24,4.59-3.39,7.31-5.75,1.88-1.62,2.73-3.61,4.19-5.87S62.7,37.1,64.7,36.1s3.37-4.62,4.12-6.12,1.75-1.5,3.25-2.5a8.11,8.11,0,0,0,3.17-3.71"/><path class="cls-1" d="M29.2,71.32c1.59-1.2,4.29-3.61,7-4.22,3.11-.7,3.87-3.25,4.5-4.87s2-1.75,4.12-2.63,3.38-4.87,3.94-5.94c.94-1.78,1.31-1.62,2.94-2.56a7.31,7.31,0,0,0,3.06-2.69A15.6,15.6,0,0,1,58.07,45c1.19-.94,1.32-1.63,2.13-3.13s4.75-3.44,6.19-4.62A6.46,6.46,0,0,0,69.07,33c.5-2.25,3.44-3.44,5.25-4.63a7.53,7.53,0,0,0,3.24-4.58"/><path class="cls-1" d="M29.2,73.14c1.75-1.19,6.28-3.45,9-4.85a8.54,8.54,0,0,0,4-4.56c.37-1.38.62-1,1.25-1.5A17.19,17.19,0,0,0,45.2,60.6c1-1,2.62-1.62,3.94-3,.82-.86.81-2.25,1.25-3.31s1.06-1.13,2.81-2.19a10.73,10.73,0,0,0,3.37-3.87,10.25,10.25,0,0,1,3.5-3c1.44-.88,1.5-2.07,2.25-3.25s3.94-2.32,5.32-3.13a7.35,7.35,0,0,0,2.93-4.94c.44-2.25,2.32-2.81,3.57-3.31s1.62-1,3.25-2.44a7.7,7.7,0,0,0,2.43-4.39"/><path class="cls-1" d="M29.2,57.33a9.59,9.59,0,0,0,2.37-4c.75-2.12,2.63-3,5.13-4.37s3.5-3.63,4.5-5.63S43.45,40.6,46,39.73,49.7,36.1,50.7,34s2.62-2.63,5.62-3.88c2.5-1,3.87-4.16,4.69-6.33"/><path class="cls-1" d="M82,35.12c-.16.23-.32.47-.48.73-1,1.61-1.89,3.47-4.5,4.25a7,7,0,0,0-1,.38c-1,.37-2.75,2.25-3.63,4s-2,2.75-5.12,4.12-3.13,2.75-3.88,4.5-2.75,3-4.25,3.75a6.19,6.19,0,0,0-3.37,3.5c-.5,1.63-2.13,3.13-4.63,5a52.59,52.59,0,0,0-5.75,4.88l-2.37,5c-.21.47-.36.9-.56,1.29"/><path class="cls-1" d="M82,37.91a7.79,7.79,0,0,1-4.73,3.57L75.07,42.6c-1,1-1.37,3.5-3.25,4.88s-5.5,3.25-6.87,5.25-1.75,4.87-4.13,5.62-3,1.5-4.12,3.5A14.26,14.26,0,0,1,52,67.1c-2.5,1.75-5.38,6-6.5,8.38-.18.37-.34.72-.49,1"/><path class="cls-1" d="M82,40.51a9.1,9.1,0,0,1-2.73,2l-2.65,1.87c-.87,1.13-3.25,4.75-5.12,5.63s-4.25,1.75-5,3.12-3.5,6.13-5.63,7.13-3.25,2.87-4.25,4.37-.87,3.25-3.12,4.25-4.75,3.88-5.88,6.5c-.17.4-.36.79-.55,1.17"/><line class="cls-1" x1="32.64" y1="26.04" x2="30.26" y2="25.41"/><line class="cls-1" x1="31.07" y1="29.29" x2="30.32" y2="31.41"/><line class="cls-1" x1="45.95" y1="27.85" x2="43.93" y2="28.58"/><line class="cls-1" x1="48.09" y1="30.93" x2="47.72" y2="29.06"/><line class="cls-1" x1="50.07" y1="24.77" x2="48.95" y2="27.48"/><line class="cls-1" x1="41.05" y1="32.02" x2="43.3" y2="33.08"/><line class="cls-1" x1="45.34" y1="31.85" x2="45.22" y2="34.1"/><line class="cls-1" x1="41.51" y1="36.29" x2="39.57" y2="37.1"/><line class="cls-1" x1="35.89" y1="25.66" x2="37.82" y2="24.85"/><line class="cls-1" x1="38.39" y1="34.54" x2="37.64" y2="36.54"/><line class="cls-1" x1="33.07" y1="37.6" x2="35.51" y2="37.54"/><line class="cls-1" x1="33.7" y1="41.6" x2="35.2" y2="40.1"/><line class="cls-1" x1="37.57" y1="38.85" x2="37.57" y2="40.98"/><line class="cls-1" x1="34.45" y1="27.6" x2="34.45" y2="29.73"/><line class="cls-1" x1="31.2" y1="42.41" x2="31.14" y2="40.16"/><line class="cls-1" x1="34.57" y1="44.73" x2="32.7" y2="43.98"/><line class="cls-1" x1="30.64" y1="48.1" x2="29.95" y2="45.6"/><line class="cls-1" x1="53.95" y1="33.35" x2="52.26" y2="34.6"/><line class="cls-1" x1="49.55" y1="38.39" x2="51.05" y2="40.08"/><line class="cls-1" x1="50.84" y1="42.2" x2="48.72" y2="43.52"/><line class="cls-1" x1="52.07" y1="45.33" x2="50.39" y2="44.75"/><line class="cls-1" x1="46.8" y1="48.89" x2="46.61" y2="46.2"/><line class="cls-1" x1="41.76" y1="45.54" x2="44.2" y2="44.91"/><line class="cls-1" x1="41.95" y1="49.33" x2="43.95" y2="50.52"/><line class="cls-1" x1="40.07" y1="51.16" x2="38.7" y2="49.35"/><line class="cls-1" x1="32.91" y1="53.45" x2="34.78" y2="52.52"/><line class="cls-1" x1="46.11" y1="41.14" x2="46.11" y2="43.27"/><line class="cls-1" x1="53.09" y1="24.48" x2="54.47" y2="26.29"/><rect class="cls-2" x="29.2" y="23.77" width="52.75" height="52.75"/><path class="cls-1" d="M-23.55,1.58a20.77,20.77,0,0,0,2.12-3.1c.88-1.63,3-2.88,5-4.38s2.75-3.75,3.38-4.75A18.44,18.44,0,0,1-7.43-15c2.25-1.13,4.13-4.75,4.88-6s3.12-2.63,5.62-3.63C5-25.42,5.89-27.38,6.36-29"/><path class="cls-1" d="M-23.55,14.2c1.62-.86,3.27-1.73,4.44-2.47A11.91,11.91,0,0,0-15,6.85c.5-1.62,3.37-3.12,4.75-3.62,1.9-.69,3.37-3.5,3.87-4.88S-4-4.9-1.43-5.9s5.25-5.62,6-7.12,3.88-3.75,5.63-4.38,3.37-3.5,3.87-4.87a8.69,8.69,0,0,1,4-4.25A4.24,4.24,0,0,0,20.29-29"/><path class="cls-1" d="M-23.55,16.08c1.41-1.09,3.5-2.59,4.94-2.73,2.72-.27,3.68-2.5,4.43-4.37s2.5-2.75,3.75-3.5A10.83,10.83,0,0,0-5.24-.84C-4.16-4.08-.65-4.23,2.07-6.59,4-8.21,4.8-10.2,6.26-12.46S10-15.65,12-16.65s3.37-4.62,4.12-6.12,1.75-1.5,3.25-2.5A8.11,8.11,0,0,0,22.49-29"/><path class="cls-1" d="M-23.55,18.57c1.59-1.2,4.29-3.61,7-4.22,3.11-.7,3.87-3.25,4.5-4.87s2-1.75,4.12-2.63S-4.55,2-4,.91C-3-.87-2.68-.71-1-1.65A7.31,7.31,0,0,0,2-4.34,15.6,15.6,0,0,1,5.32-7.77C6.51-8.71,6.64-9.4,7.45-10.9s4.75-3.44,6.19-4.62a6.46,6.46,0,0,0,2.68-4.25c.5-2.25,3.44-3.44,5.25-4.63A7.53,7.53,0,0,0,24.81-29"/><path class="cls-1" d="M-23.55,20.39c1.75-1.19,6.28-3.45,9-4.85a8.54,8.54,0,0,0,4-4.56c.37-1.38.62-1,1.25-1.5A17.19,17.19,0,0,0-7.55,7.85c1-1,2.62-1.62,3.94-3C-2.79,4-2.8,2.6-2.36,1.54S-1.3.41.45-.65A10.73,10.73,0,0,0,3.82-4.52a10.25,10.25,0,0,1,3.5-3c1.44-.88,1.5-2.07,2.25-3.25s3.94-2.32,5.32-3.13a7.35,7.35,0,0,0,2.93-4.94c.44-2.25,2.32-2.81,3.57-3.31s1.62-1,3.25-2.44A7.7,7.7,0,0,0,27.07-29"/><path class="cls-1" d="M-23.55,4.58a9.59,9.59,0,0,0,2.37-4c.75-2.12,2.63-3,5.13-4.37s3.5-3.63,4.5-5.63S-9.3-12.15-6.8-13-3-16.65-2-18.77.57-21.4,3.57-22.65c2.5-1,3.87-4.16,4.69-6.33"/><path class="cls-1" d="M29.2-17.63c-.16.23-.32.47-.48.73-1,1.61-1.89,3.47-4.5,4.25a7,7,0,0,0-1,.38c-1,.37-2.75,2.25-3.63,4s-2,2.75-5.12,4.12S11.32-1.4,10.57.35s-2.75,3-4.25,3.75A6.19,6.19,0,0,0,3,7.6c-.5,1.63-2.13,3.13-4.63,5a52.59,52.59,0,0,0-5.75,4.88l-2.37,5c-.21.47-.36.9-.56,1.29"/><path class="cls-1" d="M29.2,4.6a6.05,6.05,0,0,1-1,.75L26.51,6.54c-1,.69-2.25.44-3.19,1.75s-2.06,2.81-3.12,3.06a7,7,0,0,0-3.56,2.25A31.82,31.82,0,0,1,13,17.1a19.32,19.32,0,0,0-3.69,3.75c-.25.63-.62,1.75-.62,1.75-.13.33-.27.73-.44,1.17"/><path class="cls-1" d="M29.2-14.84a7.79,7.79,0,0,1-4.73,3.57l-2.15,1.12c-1,1-1.37,3.5-3.25,4.88S13.57-2,12.2,0,10.45,4.85,8.07,5.6,5.07,7.1,4,9.1A14.26,14.26,0,0,1-.8,14.35c-2.5,1.75-5.38,6-6.5,8.38-.18.37-.34.72-.49,1"/><path class="cls-1" d="M29.2-12.24a9.1,9.1,0,0,1-2.73,2L23.82-8.4C23-7.27,20.57-3.65,18.7-2.77S14.45-1,13.7.35,10.2,6.48,8.07,7.48s-3.25,2.87-4.25,4.37S3,15.1.7,16.1-4,20-5.18,22.6c-.17.4-.36.79-.55,1.17"/><path class="cls-1" d="M4.73,23.77c.09-.37.15-.73.22-1,.25-1.13.62-4.19,1.5-5.38S10,15,11.57,14.29s3.44-3.5,4.19-4.75S19,7.41,20.2,6.23A10.7,10.7,0,0,0,22,4l1.83-.88C25.72,2.6,28.22,1,29-.65a4.83,4.83,0,0,1,.23-.45"/><path class="cls-1" d="M6.36,23.77c.15-.48.25-.92.34-1.29a9.25,9.25,0,0,1,2.19-4.13,53.15,53.15,0,0,1,4.31-3.56A18.06,18.06,0,0,0,17,10.91c.81-1.31,1.37-1.12,2.75-1.68S21.26,7.91,22,7A9.78,9.78,0,0,1,25,4.91L26.72,4A12.11,12.11,0,0,0,29.2,1.61"/><path class="cls-1" d="M20.29,23.77a4.67,4.67,0,0,0,.28-1s.38-3.25,1.07-4.13,1.18-1.19,3.25-2.19S27.76,15,27.76,15l.57-.38.87-.46"/><path class="cls-1" d="M22.49,23.77a4.62,4.62,0,0,0,.27-1.11,9.76,9.76,0,0,1,1.56-3c.82-.75,2.7-1.87,3.82-2.75l1.06-.83"/><path class="cls-1" d="M24.81,23.77A5.81,5.81,0,0,0,25,22.66a5.38,5.38,0,0,1,1.5-2.18A12.35,12.35,0,0,1,28.64,19c.17-.11.36-.25.56-.41"/><path class="cls-1" d="M29.2,20.4a4.71,4.71,0,0,0-.43.33c-1.29,1.08-.7.5-1.07,1a4.1,4.1,0,0,0-.56,1.37c0,.21,0,.44-.07.67"/><line class="cls-1" x1="22.01" y1="12.48" x2="23.95" y2="11.23"/><line class="cls-1" x1="25.89" y1="12.35" x2="26.26" y2="14.23"/><line class="cls-1" x1="1.01" y1="7.66" x2="-0.93" y2="8.48"/><line class="cls-1" x1="22.82" y1="14.35" x2="22.45" y2="16.48"/><line class="cls-1" x1="18.32" y1="17.73" x2="20.82" y2="17.73"/><line class="cls-1" x1="14.36" y1="18.43" x2="15.86" y2="16.1"/><line class="cls-1" x1="19.22" y1="20.27" x2="17.84" y2="22.02"/><line class="cls-1" x1="15.36" y1="22.77" x2="15.2" y2="20.43"/><line class="cls-1" x1="12.7" y1="22.77" x2="11.53" y2="20.6"/><line class="cls-1" x1="18.89" y1="13.16" x2="20.26" y2="14.98"/><line class="cls-1" x1="7.01" y1="1.91" x2="4.26" y2="1.66"/><line class="cls-1" x1="3.26" y1="4.85" x2="1.89" y2="2.73"/><line class="cls-1" x1="23.39" y1="-0.77" x2="22.82" y2="1.73"/><line class="cls-1" x1="13.95" y1="6.66" x2="13.32" y2="9.48"/><line class="cls-1" x1="20.07" y1="0.85" x2="18.45" y2="2.79"/><line class="cls-1" x1="16.26" y1="2.6" x2="16.45" y2="0.29"/><line class="cls-1" x1="15.57" y1="5.41" x2="17.95" y2="6.04"/><line class="cls-1" x1="-0.05" y1="18.16" x2="2.64" y2="17.6"/><line class="cls-1" x1="2.45" y1="22.35" x2="3.01" y2="19.85"/><line class="cls-1" x1="12.45" y1="4.35" x2="14.32" y2="4.1"/><line class="cls-1" x1="4.51" y1="15.98" x2="5.14" y2="13.16"/><line class="cls-1" x1="9.53" y1="13.93" x2="7.53" y2="12.27"/><line class="cls-1" x1="7.82" y1="9.79" x2="10.2" y2="10.41"/><line class="cls-1" x1="26.95" y1="8.35" x2="27.32" y2="10.23"/><rect class="cls-2" x="-23.55" y="-28.98" width="52.75" height="52.75"/><path class="cls-1" d="M-23.55,51.62a14.72,14.72,0,0,1,5-4.89,8.59,8.59,0,0,0,4-4.63c.87-2,3.62-4.25,6.12-5.5s3.75-4.37,4.63-5.87S1.32,27.23,3,26.35a3.58,3.58,0,0,0,1.78-2.58"/><path class="cls-1" d="M-23.55,54.33a20.77,20.77,0,0,0,2.12-3.1c.88-1.63,3-2.88,5-4.38S-13.68,43.1-13,42.1a18.44,18.44,0,0,1,5.62-4.37c2.25-1.13,4.13-4.75,4.88-6S.57,29.1,3.07,28.1c1.93-.77,2.82-2.73,3.29-4.33"/><path class="cls-1" d="M-23.55,67c1.62-.86,3.27-1.73,4.44-2.47A11.91,11.91,0,0,0-15,59.6c.5-1.62,3.37-3.12,4.75-3.62,1.9-.69,3.37-3.5,3.87-4.88s2.38-3.25,5-4.25,5.25-5.62,6-7.12S8.45,36,10.2,35.35s3.37-3.5,3.87-4.87a8.69,8.69,0,0,1,4-4.25,4.24,4.24,0,0,0,2.22-2.46"/><path class="cls-1" d="M-23.55,68.83c1.41-1.09,3.5-2.59,4.94-2.73,2.72-.27,3.68-2.5,4.43-4.37s2.5-2.75,3.75-3.5a10.83,10.83,0,0,0,5.19-6.32c1.08-3.24,4.59-3.39,7.31-5.75C4,44.54,4.8,42.55,6.26,40.29S10,37.1,12,36.1s3.37-4.62,4.12-6.12,1.75-1.5,3.25-2.5a8.11,8.11,0,0,0,3.17-3.71"/><path class="cls-1" d="M-23.55,71.32c1.59-1.2,4.29-3.61,7-4.22,3.11-.7,3.87-3.25,4.5-4.87s2-1.75,4.12-2.63S-4.55,54.73-4,53.66C-3,51.88-2.68,52-1,51.1A7.31,7.31,0,0,0,2,48.41,15.6,15.6,0,0,1,5.32,45c1.19-.94,1.32-1.63,2.13-3.13s4.75-3.44,6.19-4.62A6.46,6.46,0,0,0,16.32,33c.5-2.25,3.44-3.44,5.25-4.63a7.53,7.53,0,0,0,3.24-4.58"/><path class="cls-1" d="M-23.55,73.14c1.75-1.19,6.28-3.45,9-4.85a8.54,8.54,0,0,0,4-4.56c.37-1.38.62-1,1.25-1.5A17.19,17.19,0,0,0-7.55,60.6c1-1,2.62-1.62,3.94-3,.82-.86.81-2.25,1.25-3.31S-1.3,53.16.45,52.1a10.73,10.73,0,0,0,3.37-3.87,10.25,10.25,0,0,1,3.5-3c1.44-.88,1.5-2.07,2.25-3.25s3.94-2.32,5.32-3.13a7.35,7.35,0,0,0,2.93-4.94c.44-2.25,2.32-2.81,3.57-3.31s1.62-1,3.25-2.44a7.7,7.7,0,0,0,2.43-4.39"/><path class="cls-1" d="M-23.55,57.33a9.59,9.59,0,0,0,2.37-4c.75-2.12,2.63-3,5.13-4.37s3.5-3.63,4.5-5.63S-9.3,40.6-6.8,39.73-3,36.1-2,34,.57,31.35,3.57,30.1c2.5-1,3.87-4.16,4.69-6.33"/><path class="cls-1" d="M29.2,35.12c-.16.23-.32.47-.48.73-1,1.61-1.89,3.47-4.5,4.25a7,7,0,0,0-1,.38c-1,.37-2.75,2.25-3.63,4s-2,2.75-5.12,4.12-3.13,2.75-3.88,4.5-2.75,3-4.25,3.75A6.19,6.19,0,0,0,3,60.35c-.5,1.63-2.13,3.13-4.63,5a52.59,52.59,0,0,0-5.75,4.88l-2.37,5c-.21.47-.36.9-.56,1.29"/><path class="cls-1" d="M29.2,37.91a7.79,7.79,0,0,1-4.73,3.57L22.32,42.6c-1,1-1.37,3.5-3.25,4.88s-5.5,3.25-6.87,5.25-1.75,4.87-4.13,5.62-3,1.5-4.12,3.5A14.26,14.26,0,0,1-.8,67.1c-2.5,1.75-5.38,6-6.5,8.38-.18.37-.34.72-.49,1"/><path class="cls-1" d="M29.2,40.51a9.1,9.1,0,0,1-2.73,2l-2.65,1.87C23,45.48,20.57,49.1,18.7,50s-4.25,1.75-5,3.12-3.5,6.13-5.63,7.13S4.82,63.1,3.82,64.6,3,67.85.7,68.85-4,72.73-5.18,75.35c-.17.4-.36.79-.55,1.17"/><path class="cls-1" d="M4.73,76.52c.09-.37.15-.73.22-1,.25-1.13.62-4.19,1.5-5.38S10,67.73,11.57,67s3.44-3.5,4.19-4.75S19,60.16,20.2,59A10.7,10.7,0,0,0,22,56.73l1.83-.88c1.88-.5,4.38-2.12,5.13-3.75a4.83,4.83,0,0,1,.23-.45"/><line class="cls-1" x1="23.26" y1="47.35" x2="23.64" y2="49.23"/><line class="cls-1" x1="27.82" y1="47.48" x2="26.01" y2="48.66"/><line class="cls-1" x1="16.7" y1="26.02" x2="14.7" y2="24.85"/><line class="cls-1" x1="11.86" y1="24.85" x2="9.7" y2="25.52"/><line class="cls-1" x1="11.64" y1="29.1" x2="12.2" y2="27.35"/><line class="cls-1" x1="12.57" y1="30.98" x2="10.26" y2="31.29"/><line class="cls-1" x1="7.97" y1="28.2" x2="8.03" y2="30.33"/><line class="cls-1" x1="8.32" y1="34.79" x2="7.95" y2="32.41"/><line class="cls-1" x1="5.57" y1="32.48" x2="3.14" y2="31.6"/><line class="cls-1" x1="1.2" y1="33.35" x2="-0.49" y2="34.6"/><line class="cls-1" x1="2.93" y1="37.37" x2="0.61" y2="37.18"/><line class="cls-1" x1="2.22" y1="41.73" x2="1.78" y2="39.54"/><line class="cls-1" x1="26.28" y1="27.79" x2="28.72" y2="28.66"/><line class="cls-1" x1="24.97" y1="30.31" x2="24.03" y2="32.56"/><line class="cls-1" x1="27.45" y1="33.85" x2="25.14" y2="33.66"/><line class="cls-1" x1="24.82" y1="37.98" x2="24.39" y2="35.79"/><line class="cls-1" x1="20.2" y1="32.98" x2="22.03" y2="33.85"/><line class="cls-1" x1="23.14" y1="39.23" x2="20.64" y2="39.23"/><line class="cls-1" x1="21.34" y1="36.27" x2="18.64" y2="37.04"/><line class="cls-1" x1="17.18" y1="44.23" x2="15.8" y2="45.98"/><line class="cls-1" x1="17.89" y1="42.1" x2="17.7" y2="39.41"/><line class="cls-1" x1="12.7" y1="41.98" x2="15.14" y2="41.35"/><line class="cls-1" x1="13.55" y1="45.33" x2="11.55" y2="44.14"/><line class="cls-1" x1="11.45" y1="48.52" x2="10.07" y2="46.7"/><line class="cls-1" x1="9.86" y1="51.68" x2="7.61" y2="52.5"/><line class="cls-1" x1="6.86" y1="49.02" x2="6.93" y2="46.83"/><line class="cls-1" x1="2.99" y1="52.41" x2="4.86" y2="51.48"/><line class="cls-1" x1="19.32" y1="50.73" x2="21.89" y2="51.16"/><line class="cls-1" x1="23.39" y1="51.98" x2="22.82" y2="54.48"/><line class="cls-1" x1="27.01" y1="51.35" x2="25.14" y2="51.6"/><line class="cls-1" x1="26.45" y1="43.85" x2="28.2" y2="44.98"/><line class="cls-1" x1="5.39" y1="34.56" x2="4.82" y2="36.31"/><line class="cls-1" x1="0.34" y1="24.48" x2="1.72" y2="26.29"/><rect class="cls-2" x="-23.55" y="23.77" width="52.75" height="52.75"/><rect class="cls-2" width="52.89" height="52.89"/></svg>