<!-- Generator: Adobe Illustrator 22.1.0, SVG Export Plug-In  -->
<svg version="1.1"
     xmlns="http://www.w3.org/2000/svg" xmlns:xlink="http://www.w3.org/1999/xlink" xmlns:a="http://ns.adobe.com/AdobeSVGViewerExtensions/3.0/"
     x="0px" y="0px" width="54px" height="54px" viewBox="0 0 54 54" style="enable-background:new 0 0 54 54;" xml:space="preserve">
<style type="text/css">
    .st0{clip-path:url(#SVGID_2_);fill:none;stroke:#000000;stroke-width:0.3;}
    .st1{clip-path:url(#SVGID_4_);fill:none;stroke:#000000;stroke-width:0.3;}
</style>
<defs>
</defs>
<g>
    <defs>
        <rect id="SVGID_1_" x="0.1" y="0.1" width="53.8" height="53.8"/>
    </defs>
    <clipPath id="SVGID_2_">
        <use xlink:href="#SVGID_1_"  style="overflow:visible;"/>
    </clipPath>
    <path class="st0" d="M53.9,4.4c-0.7,0.4-1.3,1-1.4,2c-0.1,1.7,0,3.6-1.1,4.5s-2.1,0.2-2.2,1.6s-0.4,5.1-2.9,5.5s-3,0.2-3.9,1
        s-1.1,1.1-2,1.1s-1.2,1.4-0.1,2.4s1.6,1.1,1.6,2.2s1,1.2,2.1,1.6s5,0.6,1.6,2s-4.2,1.9-5.1,3.4s-0.6,2.8-1.9,3.2s-1.6-0.1-2.1,0.9
        s-0.5,1.4-1.4,1.4s-1.8,1.1,0.2,1.4s2.2,0.2,2.9,1.2s0.4,1.1,1.8,0.8s1.8-1.6,2.9-0.1s2.4,2.5,3.1,4.2s1.1,2.2-0.2,3.6
        s-2.6,2.2-3.4,2.6c-0.7,0.4-0.7,1.5-2.2,2.9"/>
    <path class="st0" d="M53.9,15.2c0,0-0.1,0-0.1,0.1c-1.8,0.9-1.5,1.9-1.9,2.8s-0.5,3-2.5,3.5S45.9,22,47.8,23s3.9,4.2,3.1,5.6
        s-1.5,1.4-1.8,2.1s0.1,2.1-1.5,1.6s-2.1-0.5-2.6,1s-1.4,2.9,0,3.6s4,1.8,4,3s0.1,1.6,1.2,2.2s1.5,2.1,1.6,2.9s0.2,3.4-1.1,4.4
        s-2.9,1.2-3.8,2.2s-0.7,0.5-1.8,2.2"/>
    <path class="st0" d="M53.9,7.5c-0.2,0.5-0.4,1.1-0.5,1.7c-0.4,1.9-0.5,4.1-1.4,4c-0.8-0.1-1.2-0.5-1.6,0.9s-1.2,4.5-3,4.9
        s-3.1-0.4-4,0.4s-2.2,1.9-1.2,3s1.2,1,1.2,1.9s0,1,1.4,1s3.1,0.2,3.4,1.4s0.1,2.4-1.2,2.8s-3,0.1-3.9,1.1s-1.2,1.8-1.5,3.1
        s-0.8,2.2-1.8,2.1s-0.9,0.2-1.6,0.9s-0.9,1,0,1.2s1.4,0.1,1.4,0.9s-0.4,0.5,1.1,0.6s2.5-0.9,4.2,1.2s2.4,1.4,3,3.8s1.2,2.9,0,4
        s-3.9,2.5-4.6,3s-0.5-0.1-0.5,1.2c0,0.6-0.3,1-0.7,1.2"/>
    <path class="st0" d="M53.9,13.7c-0.2,0.3-0.4,0.5-0.8,0.6c-1.1,0.2-1.9,1.2-2.2,2.2s-1.5,3.5-2.6,3.8s-3.5,0.5-4,1
        s-0.2,0.9,0.1,1.5s0,1.2,1.2,1.4s4.2,0.8,4,2.8s-1.8,4.5-3.5,4.1s-2.5,0.4-2.6,1.6s-0.2,2.4-1.1,3.2s-3,1.6-0.8,1.9
        s2.5,0.2,3.8,1.2s1.6,0.4,2,1.6s-0.1,0.6,1.1,1.8s2.4,1.5,2.1,3.4s0,2.9-1.4,3.5S46.8,50.4,46,51s-1.8,0.5-1.4,1.8
        c0.2,0.6-0.2,0.8-0.7,1.1"/>
    <path class="st0" d="M45.1,0.1c-1.2,1.7-1,2.3-2,4.8c0,0-1.1,0.9-0.7,3.1s1.1,3.2-0.4,4s-2.1,1.4-3.1,1.6s-1.7,0.3-1.7,0.3
        c-0.1,0-0.1,0-0.2,0c-1,0.1-0.9,0.6-0.9,1.6s-0.5,1.1-1.8,1.6s-2.2,0.5-3,0.3c-0.8-0.2-0.9,0.4-1.1,1s-0.6,1.1-2.1,1.5
        s0.9,1.9,1.9,2.3s1.9,1.1,2.2,2.1c0.4,0.9,0.6,0.7,1.5,0.7s1.2,0.4,1.3,0.8s0.4,0.8,1.2,1.1s1.1,0.7,0.9,1.2s-0.3,0.6-0.8,0.8
        s-1.1,0.6-1.4,1.2s-0.4,0.6-1.2,1s-1.4,1.2-1.9,2.6c-0.5,1.4-2.2,1.8-3.8,1.9s-1.2,0.3-1.6,1s-0.4,0.6-1.2,1s-0.8,0.3-0.4,1.1
        s1.2,0.8,3.1,1s1.4,0.6,2.1,1.4s0.8,0.7,1.9,1.1c1.1,0.4,1.9,2.5,3,4.2s-0.1,2.6-1.6,4.4s-1.6,2.4-1.6,2.4
        c-0.2,0.2-0.3,0.5-0.4,0.7"/>
    <path class="st0" d="M42.1,0.1c-0.5,0.3-1,0.5-1.1,0.9c0,0,0.2,0.6,0.1,1.7s-0.3,1.4-0.8,2.4S39.6,6.6,40,7.9s0.3,2.4-1.4,2.9
        s-4.4,0.8-4.8,1.8s-0.8,2.2-2,2.3c-1.2,0.1-2.9-0.4-3.7,0.8s-1.1,1.6-1.7,1.6s-1.9,0.2-2.1,0.9c0,0,0,1,0.9,2s0.9,0.9,0.9,1.5
        s-0.3,1,1,1.5s2.5,0.4,2.9,1.8s0.4,1.2,1.6,1.5c1.2,0.3,1.8,1.2,1.1,2.1c-0.7,0.9-2.9,1.4-2.9,2.4s-0.6,2.1-2.2,2.3
        s-3.4,0.3-3.3,0.9s-0.4,1.4-1.3,1.9c0,0-0.2,0.1-0.9,0.2s-1.2,0.5-1.2,0.5c-0.9,0.2-0.8,0.9-0.2,1.5s0.6,0.7,1,1.3s0.4,0.8,2.7,1.3
        s2.9,2.9,3.2,4.2s1.4,1.6,2.9,2.1C32,48,31,50.1,30,51.1s-1.4,1.9-1.4,1.9c-0.3,0.3-0.5,0.6-0.6,0.9"/>
    <path class="st0" d="M43.9,0.1c-0.6,0.4-1.4,0.8-1.5,1.8c0,0,0.2,1-0.2,1.8s-1.4,2-0.9,3.8s0.4,3.2-0.8,3.8s-2.6,1.2-3.5,1.3
        s-1.7,0.1-1.9,0.8s-1.1,1.7-1.9,2.1s-0.8,0.4-2,0.6c0,0-1.2-0.1-1.8,0.9s-0.4,0.9-1.6,1.3s-2.1,0.4-1.4,1.5s0.8,1.3,0.9,1.8
        s0.2,0.8,1.4,1.1s1.9,0.2,2.5,1.4s0.6,1.3,1.4,1.6c0.8,0.2,2.2,0.6,2.1,1.6s0.4,1.8-1.1,2.6c-1.5,0.8-2.4,1.4-2.6,2.2
        s-0.5,2.1-2,2.3s-3,0-3.4,0.8s-0.2,1-1.1,1.4s-1.4,0.6-1.4,0.6c-1.3,0.2-0.9,0.6-0.5,1.6s1.3,1,2.8,1.2s3.4,2,4,2.8
        s1.1,2.2,3.1,3.6s0.2,3.5-0.7,4.4c-0.9,0.9-1.6,2.3-1.6,2.3c-0.1,0.2-0.3,0.5-0.4,0.7"/>
    <path class="st0" d="M0.1,4.4C0.7,4.1,1.4,3.8,2,3.6c1.5-0.5,1.8-0.5,2.9-1.9s1.6,0,5.5-1.5c0,0,0.1,0,0.4-0.1"/>
    <path class="st0" d="M0.1,15.2c1.6-0.8,1.8-1.1,2.2-2.2c0,0,0.1-0.5,0.4-2.6s0.6-3.5,2-3.6S8,6.1,7.9,5.1c-0.1-1-0.8-1.1,1.4-1
        s3.1-0.8,4.8-1.9c0.9-0.6,1.7-1.3,2.4-2.1"/>
    <path class="st0" d="M0.1,7.5c0.4-0.9,1-1.6,2-2c1.5-0.6,2-1,2.6-1.8s1-1,2.5-1.5s3.2-0.6,4.6-1.2c0.4-0.2,0.8-0.5,1.2-0.9"/>
    <path class="st0" d="M0.1,13.7c0.5-0.7,0.6-2.1,0.8-3.3C1.1,8.6,1.4,8.5,2,7.6s2.5-1.8,3.8-2.4S6.5,4.1,7,3.5s2.5-0.6,4-0.8
        c1.2-0.1,2.8-1.4,3.9-2.6"/>
    <path class="st0" d="M10.8,53.9c0.3-0.2,0.8-0.6,1.5-1.6c1.2-1.9,2.1-2.9,2.6-3.5c0,0,1.9-3.5-1.2-3.2S8,44.3,7.3,43.4
        s-1.9-0.9-2.1-2.2S4.9,39.8,4,39.3s-5.1-3.1,0.1-5.2s4.1-2.5,4.4-3.4s0.6-1.6,2.6-1.8s3.4-0.4,2.4-1.8S12.6,25,12.6,25
        s-0.4-1-2.4-1.5s-3.6-1.4-3.4-2.6s0.1-1.4-1-2.2s-1.9-2.8-1.4-4s3.7-3.2,5.6-3.9s2.4-0.5,2.5-1.4s2.9-1.5,4.6-1.9s3.9-0.4,3.9-1.5
        s1.2-2,3-2.6s2.5-0.6,2.5-1.7c0-0.5,0-1,0.1-1.5"/>
    <path class="st0" d="M31.4,0.1c-0.4,0.8-0.7,1.6-0.8,2.9c-0.2,1.6-2.2,2.6-3.5,3.2s-1.7,0.8-1.6,1.9s-2.7,2.1-5.4,2.4
        s-2.8,1-3.1,1.9s-2.9,1.4-5.4,2.2s-1.2,2-0.3,2.4s0.6,1.1,0.6,2.2s2.2,1.4,5.3,1.9s1.4,2.8,0.8,3.9s0.3,1.8,1,2.9s-1.2,3.4-3.2,3.9
        s-2.7,0.6-3.2,1.8s-1.2,1.4-2.6,1.9s-1.7,0.6-1,1.2s0.4,0.6,0.4,1.4s-0.3,1.2,1,1.5s2.2,0.5,2.8,1.4s1.1,1.3,3.8,1.4
        s2.1,1.9,2.2,3.6s0.7,1.9,0.1,2.9S18,51.6,18,51.6c-0.4,0.8-1,1.5-1.6,2.2"/>
    <path class="st0" d="M13.1,53.9c1.1-1,2.2-2.7,3.1-3.8c0,0,1-0.9,1-2.5s0.1-2.8-2.1-3.1s-3.9-1.2-4.9-1.8s-1.9-1.2-2.6-1.6
        s-1.1-0.3-1.1-1.5S5.8,38.3,5,38.1s-3-1.8-0.7-2.9s4.6-2.4,4.8-2.8s-0.5-1.6,2.2-2.1s5.6-1.4,4.3-3s-1.2-1.8-0.9-2.6
        s-1.6-1.8-3.9-2.6s-2.6-1.2-2.3-2.2s-0.1-1.6-1.4-2.3s-2.7-3,0.7-4.4s5.2-2,5.6-2.8s1.9-1.5,3.7-1.8s5.4-1.1,5.4-2.1
        s0.3-1.6,1.7-1.8s3.1-0.8,3.3-2.1c0.2-1,0.2-1.7,0.5-2.4"/>
    <path class="st0" d="M14.9,53.9c0.3-0.3,0.5-0.6,0.7-0.9c0,0,1-1.6,1.8-2.8s1.5-1.8,1-3.6s-0.1-2.8-1.9-3.1s-3.2,0.4-3.9-0.8
        s-2.1-1.8-3.2-2.1s-1.8-0.1-1.7-1.2s0.8-1.6-0.7-2s-2-1.4-0.5-2.1s2.7-1.7,3.4-1.8s0.9-0.3,1.3-1s0.8-1.2,2.1-1.4s2.9-1,3.6-1.7
        s0.9-1.4,0.1-2.4s-1.4-1.3-0.9-1.9c0.5-0.6,1.6-2.7-1.1-3.1s-5.1-1.2-4.8-2.4s0.2-1.3-0.9-2s-2.9-2.3-0.7-3.1s3.8-1.6,4.4-1.7
        s1.7-0.8,2.1-1.5S15,9.8,17.6,9.6s6.2-0.9,6.4-2.1s0.1-1.8,1.9-2.2s2.3-0.8,2.8-1.9c0.4-0.9,0.3-2.1,0.7-3.2"/>
    <path class="st0" d="M40.2,0.1c-0.1,0.1-0.2,0.2-0.3,0.2c-0.9,0.8-0.1,0.5-0.2,2.2s-0.2,2-0.9,2.9c0,0-2.1,1.4-1.1,2.4
        s1.4,1.5-0.1,2.1s-5.4,1.4-5.7,1.8c-0.3,0.4-0.4,0.2-0.2,0.9s-0.2,1.2-1.4,1.2s-2.8,0.2-3.4,1.1s-1.2,1.4-2.5,1.4s-2.8,0.2-2.3,1.2
        s2.1,1.6,1.9,2.4s0.3,1.1,0.9,2.1s0.9,2.7,2.2,2.9s1.6-0.4,1.9,0.9s0.6,1.4,1.4,1.5s1.1,0.5,0,0.9s-1.9,0.2-2,1.5s-0.4,2.1-1.7,2.3
        S23,32.4,23,33.3s-0.3,1.8-1.7,2.2l-3.2,1.2c-1.4,0.4-0.4,1.4,0.7,1.6s0.8,0.9,1.6,2.5s2.6,1.6,3.9,1.6s2.1,2.7,2.3,3.9
        s1.8,1.2,2.8,2.4s-1.7,3.4-1.7,3.4c-0.6,0.5-0.9,1-0.9,1.6"/>
    <line class="st0" x1="3.1" y1="2" x2="1.1" y2="0.9"/>
    <line class="st0" x1="7.1" y1="10.7" x2="7.1" y2="8.4"/>
    <line class="st0" x1="10.7" y1="8.2" x2="9.8" y2="6.1"/>
    <line class="st0" x1="5.4" y1="12.6" x2="3.1" y2="12.6"/>
    <line class="st0" x1="14.8" y1="5.4" x2="12.9" y2="4.8"/>
    <line class="st0" x1="18.1" y1="1.8" x2="16" y2="2.5"/>
    <line class="st0" x1="18.4" y1="6.1" x2="17.4" y2="4.2"/>
    <line class="st0" x1="23.5" y1="2.5" x2="21.5" y2="1.7"/>
    <line class="st0" x1="1.6" y1="19" x2="2.5" y2="17"/>
    <line class="st0" x1="3.8" y1="20.7" x2="5.6" y2="22.1"/>
    <line class="st0" x1="4.2" y1="24" x2="2.1" y2="24.4"/>
    <line class="st0" x1="7.1" y1="26.2" x2="7.9" y2="24.1"/>
    <line class="st0" x1="1.6" y1="41.4" x2="2.4" y2="39.3"/>
    <line class="st0" x1="11.8" y1="27.8" x2="9.6" y2="26.6"/>
    <line class="st0" x1="7.3" y1="30.8" x2="6.3" y2="28.6"/>
    <line class="st0" x1="5.3" y1="31.4" x2="2.6" y2="31.8"/>
    <line class="st0" x1="3.5" y1="29.3" x2="1.6" y2="27.3"/>
    <line class="st0" x1="11.3" y1="38.3" x2="13.5" y2="37.7"/>
    <line class="st0" x1="15.6" y1="41.2" x2="15.9" y2="39"/>
    <line class="st0" x1="20.2" y1="42.3" x2="18" y2="41.3"/>
    <line class="st0" x1="14.9" y1="33.8" x2="15.7" y2="36.3"/>
    <line class="st0" x1="20.6" y1="33.8" x2="18" y2="32.9"/>
    <line class="st0" x1="20.9" y1="28.2" x2="20.9" y2="30.7"/>
    <line class="st0" x1="26.1" y1="30.8" x2="23.6" y2="29.8"/>
    <line class="st0" x1="27.3" y1="26.3" x2="27.2" y2="28.8"/>
    <line class="st0" x1="24.8" y1="25.7" x2="22.8" y2="27.1"/>
    <line class="st0" x1="23.2" y1="24.9" x2="21.4" y2="23.5"/>
    <line class="st0" x1="19.8" y1="20.8" x2="21" y2="18.8"/>
    <line class="st0" x1="14.1" y1="18.5" x2="15.6" y2="19.7"/>
    <line class="st0" x1="14.1" y1="16.5" x2="15.1" y2="14.5"/>
    <line class="st0" x1="19.1" y1="17.1" x2="17.1" y2="17.8"/>
    <line class="st0" x1="18.6" y1="12.2" x2="19.9" y2="14"/>
    <line class="st0" x1="52.6" y1="53.1" x2="51.3" y2="51.3"/>
    <line class="st0" x1="24" y1="14.8" x2="25.9" y2="14"/>
    <line class="st0" x1="22.9" y1="12.7" x2="23.5" y2="10.7"/>
    <line class="st0" x1="28.4" y1="11.8" x2="26.9" y2="10.3"/>
    <line class="st0" x1="28.2" y1="8" x2="31" y2="7.3"/>
    <line class="st0" x1="33.5" y1="7.7" x2="33.2" y2="10.1"/>
    <line class="st0" x1="37.3" y1="4.8" x2="35" y2="6"/>
    <line class="st0" x1="32.8" y1="4.4" x2="32.5" y2="2"/>
    <line class="st0" x1="35.5" y1="1.8" x2="37.9" y2="1"/>
    <line class="st0" x1="48.8" y1="2" x2="51.6" y2="1.5"/>
    <line class="st0" x1="47.1" y1="4.6" x2="45.3" y2="3.3"/>
    <line class="st0" x1="48" y1="7.2" x2="49" y2="9.1"/>
    <line class="st0" x1="51.3" y1="4.4" x2="51.1" y2="6.8"/>
    <line class="st0" x1="44.4" y1="11.8" x2="44.8" y2="9.3"/>
    <line class="st0" x1="46.3" y1="13" x2="48.2" y2="12"/>
    <line class="st0" x1="46.4" y1="16.6" x2="45.4" y2="14.4"/>
    <line class="st0" x1="41.4" y1="14" x2="43.6" y2="14.3"/>
    <line class="st0" x1="42.1" y1="18.2" x2="40.9" y2="16.2"/>
    <line class="st0" x1="37.5" y1="17.9" x2="38.5" y2="15.3"/>
    <line class="st0" x1="30.9" y1="20.3" x2="32.9" y2="18.9"/>
    <line class="st0" x1="38.2" y1="20.8" x2="35.8" y2="20.5"/>
    <line class="st0" x1="33.7" y1="23.8" x2="33.9" y2="21.8"/>
    <line class="st0" x1="37.1" y1="25.3" x2="38.9" y2="23.6"/>
    <line class="st0" x1="40.9" y1="27.4" x2="39.6" y2="25.6"/>
    <line class="st0" x1="45" y1="27.6" x2="42.6" y2="27.8"/>
    <line class="st0" x1="37.6" y1="31.1" x2="39.2" y2="29.2"/>
    <line class="st0" x1="34.7" y1="32.1" x2="36" y2="34.1"/>
    <line class="st0" x1="31.6" y1="36" x2="34.4" y2="35.6"/>
    <line class="st0" x1="30.6" y1="37.8" x2="31.3" y2="40.1"/>
    <line class="st0" x1="27.1" y1="38.3" x2="28.7" y2="36.8"/>
    <line class="st0" x1="35.9" y1="41" x2="33.1" y2="41.3"/>
    <line class="st0" x1="39.1" y1="44.2" x2="39.6" y2="46.3"/>
    <line class="st0" x1="40.3" y1="42.4" x2="42.9" y2="42.6"/>
    <line class="st0" x1="46.5" y1="33.4" x2="46.6" y2="36.2"/>
    <line class="st0" x1="48.8" y1="37" x2="51.1" y2="35.9"/>
    <line class="st0" x1="51.2" y1="33.1" x2="53.5" y2="34"/>
    <line class="st0" x1="52.6" y1="41.7" x2="51.2" y2="39.6"/>
    <path class="st0" d="M52.5,28.1c0,0-0.1,2.2-0.1,2.5"/>
    <line class="st0" x1="53" y1="25.3" x2="51.1" y2="24.3"/>
    <line class="st0" x1="51.4" y1="22" x2="53.1" y2="20"/>
    <line class="st0" x1="35.9" y1="46.6" x2="36.6" y2="43.5"/>
    <line class="st0" x1="42.1" y1="45.5" x2="44.2" y2="46.3"/>
    <line class="st0" x1="42.6" y1="48.9" x2="39.9" y2="49.1"/>
    <line class="st0" x1="39.3" y1="52.9" x2="38.1" y2="50.8"/>
    <line class="st0" x1="36.1" y1="51" x2="33.9" y2="52.4"/>
    <line class="st0" x1="21.2" y1="44.8" x2="23.8" y2="44"/>
    <line class="st0" x1="21" y1="46.8" x2="22.9" y2="48.7"/>
    <line class="st0" x1="28.5" y1="49.2" x2="25.7" y2="49.2"/>
    <line class="st0" x1="25.2" y1="53.1" x2="24.6" y2="50.7"/>
    <line class="st0" x1="21.6" y1="51.4" x2="18.6" y2="52.7"/>
    <line class="st0" x1="3.1" y1="44.3" x2="5.8" y2="43.2"/>
    <line class="st0" x1="2.6" y1="49.1" x2="0.7" y2="46.8"/>
    <line class="st0" x1="7.4" y1="47.6" x2="4.4" y2="46.9"/>
    <line class="st0" x1="13.9" y1="46.8" x2="11.8" y2="48.2"/>
    <line class="st0" x1="8.5" y1="52.3" x2="8.3" y2="49.6"/>
    <line class="st0" x1="4.1" y1="51.4" x2="1.2" y2="52.9"/>
</g>
</svg>
