<svg id="Layer_1" data-name="Layer 1" xmlns="http://www.w3.org/2000/svg" width="54.03" height="54.01" viewBox="0 0 54.03 54.01"><defs><style>.cls-1,.cls-2{fill:none;}.cls-1{stroke:#000;stroke-width:0.3px;}</style></defs><title>Artboard 37</title><path class="cls-1" d="M67.55-22.78a2.39,2.39,0,0,0-1.37,2c-.13,1.75,0,3.63-1.13,4.5s-2.12.25-2.25,1.63-.37,5.12-2.87,5.5-3,.25-3.88,1S54.93-7,54.05-7s-1.25,1.38-.12,2.38,1.62,1.12,1.62,2.25,1,1.25,2.13,1.62,5,.63,1.62,2S55.05,3.1,54.18,4.6s-.63,2.75-1.88,3.25-1.62-.13-2.12.87-.5,1.38-1.38,1.38-1.75,1.12.25,1.37,2.25.25,2.88,1.25.37,1.13,1.75.75,1.75-1.62,2.87-.12,2.38,2.5,3.13,4.25,1.12,2.25-.25,3.62a14.7,14.7,0,0,1-3.38,2.63c-.7.35-.73,1.48-2.22,2.87"/><path class="cls-1" d="M67.55-19.61a8.69,8.69,0,0,0-.5,1.71c-.37,1.87-.51,4.14-1.37,4s-1.25-.5-1.63.87-1.25,4.5-3,4.88-3.12-.38-4,.37-2.25,1.88-1.25,3,1.25,1,1.25,1.88,0,1,1.38,1,3.12.25,3.37,1.37.13,2.38-1.25,2.75-3,.13-3.87,1.13a5.62,5.62,0,0,0-1.5,3.12c-.25,1.38-.75,2.25-1.75,2.13s-.88.25-1.63.87-.87,1,0,1.25,1.38.13,1.38.88-.38.5,1.12.62,2.5-.87,4.25,1.25,2.38,1.38,3,3.75,1.25,2.88,0,4a39.12,39.12,0,0,1-4.62,3c-.75.5-.5-.12-.5,1.25a1.44,1.44,0,0,1-.7,1.25"/><path class="cls-1" d="M58.8-27c-1.17,1.73-1,2.29-2,4.82a3.18,3.18,0,0,0-.68,3.12c.43,2.19,1.06,3.25-.44,4s-2.13,1.38-3.06,1.56-1.75.29-1.75.29l-.19,0c-1,.12-.88.62-.88,1.56s-.5,1.06-1.81,1.56a4.8,4.8,0,0,1-3,.31c-.81-.18-.87.38-1.12,1s-.57,1.07-2.07,1.5S42.68-5.34,43.74-5A3.66,3.66,0,0,1,46-2.9c.38.94.56.69,1.5.69s1.19.37,1.31.81.38.75,1.25,1.06,1.07.69.88,1.25-.31.56-.75.81A3.37,3.37,0,0,0,48.74,3c-.37.69-.37.57-1.25,1a4.05,4.05,0,0,0-1.87,2.57c-.5,1.37-2.25,1.75-3.75,1.93s-1.25.32-1.63,1-.44.57-1.25,1-.81.32-.37,1.13,1.18.81,3.12,1,1.38.62,2.06,1.44.75.68,1.88,1.06,1.94,2.5,3,4.19-.13,2.56-1.56,4.37A10.81,10.81,0,0,0,45.49,26a7.58,7.58,0,0,0-.43.68"/><path class="cls-1" d="M55.73-27c-.45.33-1,.53-1.11.94a3.92,3.92,0,0,1,.12,1.75A5.32,5.32,0,0,1,53.93-22a2.79,2.79,0,0,0-.25,2.75c.44,1.37.31,2.43-1.44,2.93s-4.37.82-4.81,1.82-.75,2.25-2,2.31-2.94-.38-3.69.75-1.06,1.56-1.69,1.62-1.93.19-2.12.94a3.19,3.19,0,0,0,.94,2c.93,1,.93.88.93,1.5s-.31,1,1,1.5,2.5.44,2.88,1.75.37,1.19,1.56,1.5S47.05.66,46.3,1.54,43.37,3,43.37,3.91a2.37,2.37,0,0,1-2.19,2.31c-1.56.25-3.38.32-3.31.94A2.21,2.21,0,0,1,36.55,9l-.87.25a4.59,4.59,0,0,0-1.19.5c-.87.25-.75.93-.19,1.5a4.53,4.53,0,0,1,1,1.31c.38.62.38.75,2.69,1.31s2.94,2.94,3.19,4.25,1.37,1.56,2.94,2.13.5,2.62-.44,3.62a11,11,0,0,0-1.44,1.88,3.33,3.33,0,0,0-.63.93"/><path class="cls-1" d="M57.6-27a2.52,2.52,0,0,0-1.55,1.82,2.62,2.62,0,0,1-.25,1.81,4.14,4.14,0,0,0-.87,3.75c.56,1.75.44,3.19-.81,3.81a12.69,12.69,0,0,1-3.5,1.31c-.94.13-1.69.07-1.88.82a4,4,0,0,1-1.94,2.12,5.3,5.3,0,0,1-2,.63A2.06,2.06,0,0,0,43-10c-.56,1-.44.94-1.62,1.32S39.3-8.28,40-7.21a4.87,4.87,0,0,1,.88,1.81c.12.5.25.75,1.37,1.12s1.88.19,2.5,1.38.56,1.31,1.38,1.56S48.3-.71,48.18.22,48.55,2,47.05,2.79,44.68,4.22,44.43,5s-.5,2.06-2,2.31-3,0-3.44.81-.19,1-1.12,1.38a12,12,0,0,0-1.38.62c-1.31.19-.87.63-.5,1.63s1.31,1,2.75,1.18,3.44,2,4,2.75a11,11,0,0,0,3.06,3.63c2,1.44.19,3.5-.68,4.44A13.64,13.64,0,0,0,43.49,26a4,4,0,0,0-.36.68"/><path class="cls-1" d="M24.45,26.72a5.05,5.05,0,0,0,1.48-1.62,38.65,38.65,0,0,1,2.62-3.5s1.88-3.5-1.25-3.25a8.25,8.25,0,0,1-6.37-2.13c-.75-.87-1.88-.87-2.13-2.25s-.25-1.37-1.12-1.87S12.55,9,17.8,6.85s4.13-2.5,4.38-3.38.62-1.62,2.62-1.75S28.18,1.35,27.18,0s-.88-2.12-.88-2.12-.37-1-2.37-1.5S20.3-5,20.55-6.28s.13-1.37-1-2.25a3.91,3.91,0,0,1-1.37-4c.5-1.25,3.75-3.25,5.62-3.87s2.38-.5,2.5-1.38,2.88-1.5,4.63-1.87,3.87-.38,3.87-1.5,1.25-2,3-2.63,2.5-.62,2.5-1.75a10.69,10.69,0,0,1,.05-1.5"/><path class="cls-1" d="M45.05-27a7.35,7.35,0,0,0-.81,2.88c-.19,1.62-2.19,2.56-3.5,3.19s-1.69.75-1.62,1.93S36.43-17,33.68-16.65s-2.81,1-3.06,1.94-2.88,1.37-5.44,2.18-1.19,2-.31,2.44.56,1.06.62,2.19S27.74-6.46,30.8-6s1.38,2.81.82,3.87.31,1.75,1,2.88-1.25,3.37-3.19,3.87-2.69.63-3.19,1.81S25,7.91,23.68,8.41,22,9,22.68,9.66s.44.56.44,1.44-.32,1.19,1,1.5,2.25.5,2.81,1.44,1.06,1.31,3.81,1.37S32.8,17.29,33,19s.69,1.87.13,2.93-1.44,2.5-1.44,2.5a11.53,11.53,0,0,1-1.61,2.25"/><path class="cls-1" d="M26.73,26.72c1.06-1,2.17-2.66,3.07-3.75a3.61,3.61,0,0,0,1-2.5c0-1.56.07-2.75-2.06-3.06a14.25,14.25,0,0,1-4.87-1.81C22.87,15,22,14.35,21.24,14s-1.06-.32-1.12-1.5-.69-1.38-1.44-1.57-3-1.75-.69-2.87A27,27,0,0,0,22.8,5.35C23,5,22.3,3.72,25,3.22s5.56-1.43,4.31-3-1.25-1.81-.87-2.62S26.87-4.15,24.55-5,22-6.28,22.24-7.28,22.18-8.9,20.8-9.59s-2.68-3,.69-4.44,5.19-2,5.56-2.81,1.88-1.5,3.69-1.81,5.38-1.06,5.38-2.06.31-1.57,1.68-1.75,3.07-.75,3.32-2.13A10.22,10.22,0,0,1,41.61-27"/><path class="cls-1" d="M28.59,26.72a7.81,7.81,0,0,0,.71-.87s1-1.56,1.75-2.75,1.5-1.81,1-3.56-.06-2.82-1.87-3.07-3.19.44-3.88-.75a5.21,5.21,0,0,0-3.18-2.12c-1.13-.31-1.82-.13-1.75-1.25s.81-1.56-.69-2-2-1.38-.5-2.13,2.69-1.68,3.37-1.75.94-.31,1.32-1A2.35,2.35,0,0,1,26.93,4a7,7,0,0,0,3.56-1.69,1.64,1.64,0,0,0,.13-2.44c-.82-1-1.38-1.31-.88-1.94s1.63-2.68-1.06-3.12-5.06-1.19-4.75-2.38.19-1.31-.94-2-2.87-2.31-.69-3.12,3.82-1.63,4.38-1.69a3.34,3.34,0,0,0,2.06-1.5c.38-.75-.06-1.5,2.56-1.75s6.19-.87,6.44-2.12.06-1.75,1.94-2.25,2.31-.75,2.75-1.88c.36-.93.25-2.08.7-3.19"/><path class="cls-1" d="M53.83-27l-.28.25c-.87.75-.12.5-.25,2.25s-.25,2-.87,2.88c0,0-2.13,1.37-1.06,2.44s1.37,1.5-.13,2.06-5.37,1.37-5.69,1.81-.37.25-.18.94-.25,1.19-1.44,1.25-2.75.25-3.38,1.12a2.9,2.9,0,0,1-2.5,1.44c-1.25.06-2.75.25-2.31,1.19S37.87-7.78,37.62-7s.31,1.12.93,2.12S39.49-2.15,40.8-2s1.63-.44,1.94.87S43.3.35,44.18.41s1.12.5,0,.94-1.94.25-2,1.5-.38,2.06-1.69,2.31-3.81.06-3.81.94A2.07,2.07,0,0,1,35,8.29L31.8,9.54c-1.37.43-.37,1.37.69,1.62s.81.94,1.56,2.5,2.57,1.63,3.88,1.63S40,18,40.24,19.22s1.81,1.19,2.75,2.44S41.3,25.1,41.3,25.1a2.42,2.42,0,0,0-.94,1.62"/><line class="cls-1" x1="15.26" y1="14.22" x2="16.1" y2="12.14"/><line class="cls-1" x1="25.47" y1="0.6" x2="23.3" y2="-0.57"/><line class="cls-1" x1="20.97" y1="3.6" x2="19.97" y2="1.43"/><line class="cls-1" x1="18.97" y1="4.27" x2="16.22" y2="4.6"/><line class="cls-1" x1="17.14" y1="2.18" x2="15.22" y2="0.18"/><line class="cls-1" x1="24.97" y1="11.1" x2="27.14" y2="10.52"/><line class="cls-1" x1="29.22" y1="14.02" x2="29.55" y2="11.85"/><line class="cls-1" x1="33.89" y1="15.1" x2="31.64" y2="14.1"/><line class="cls-1" x1="28.55" y1="6.68" x2="29.39" y2="9.18"/><line class="cls-1" x1="34.22" y1="6.6" x2="31.64" y2="5.77"/><line class="cls-1" x1="34.55" y1="1.02" x2="34.55" y2="3.52"/><line class="cls-1" x1="39.72" y1="3.6" x2="37.22" y2="2.68"/><line class="cls-1" x1="40.97" y1="-0.82" x2="40.89" y2="1.68"/><line class="cls-1" x1="38.47" y1="-1.48" x2="36.47" y2="-0.07"/><line class="cls-1" x1="54.55" y1="0.27" x2="53.3" y2="-1.57"/><line class="cls-1" x1="51.22" y1="3.93" x2="52.89" y2="2.02"/><line class="cls-1" x1="48.39" y1="4.93" x2="49.64" y2="6.93"/><line class="cls-1" x1="45.22" y1="8.85" x2="48.05" y2="8.43"/><line class="cls-1" x1="44.3" y1="10.68" x2="44.97" y2="12.93"/><line class="cls-1" x1="40.72" y1="11.18" x2="42.39" y2="9.68"/><line class="cls-1" x1="49.55" y1="13.85" x2="46.72" y2="14.18"/><line class="cls-1" x1="52.8" y1="17.02" x2="53.3" y2="19.1"/><line class="cls-1" x1="53.97" y1="15.27" x2="56.55" y2="15.43"/><line class="cls-1" x1="49.55" y1="19.43" x2="50.3" y2="16.35"/><line class="cls-1" x1="56.3" y1="21.77" x2="53.55" y2="21.93"/><line class="cls-1" x1="52.97" y1="25.77" x2="51.8" y2="23.6"/><line class="cls-1" x1="49.8" y1="23.85" x2="47.55" y2="25.27"/><line class="cls-1" x1="34.89" y1="17.68" x2="37.47" y2="16.85"/><line class="cls-1" x1="34.64" y1="19.68" x2="36.55" y2="21.52"/><line class="cls-1" x1="42.14" y1="22.02" x2="39.39" y2="22.02"/><line class="cls-1" x1="38.89" y1="25.93" x2="38.3" y2="23.52"/><line class="cls-1" x1="35.22" y1="24.27" x2="32.22" y2="25.52"/><line class="cls-1" x1="16.72" y1="17.18" x2="19.47" y2="16.02"/><line class="cls-1" x1="16.22" y1="21.93" x2="14.39" y2="19.68"/><line class="cls-1" x1="21.05" y1="20.43" x2="18.05" y2="19.77"/><line class="cls-1" x1="27.55" y1="19.6" x2="25.47" y2="21.02"/><line class="cls-1" x1="22.16" y1="25.18" x2="21.99" y2="22.43"/><line class="cls-1" x1="17.74" y1="24.29" x2="14.91" y2="25.7"/><rect class="cls-2" x="13.8" y="-27.03" width="53.75" height="53.75"/><path class="cls-1" d="M67.55,31a2.39,2.39,0,0,0-1.37,2c-.13,1.75,0,3.63-1.13,4.5s-2.12.25-2.25,1.63-.37,5.12-2.87,5.5-3,.25-3.88,1-1.12,1.12-2,1.12-1.25,1.38-.12,2.38,1.62,1.12,1.62,2.25,1,1.25,2.13,1.62,5,.63,1.62,2-4.25,1.88-5.12,3.38-.63,2.75-1.88,3.25-1.62-.13-2.12.87-.5,1.38-1.38,1.38-1.75,1.12.25,1.37,2.25.25,2.88,1.25.37,1.13,1.75.75,1.75-1.62,2.87-.12,2.38,2.5,3.13,4.25S60.8,73.6,59.43,75a14.7,14.7,0,0,1-3.38,2.63c-.7.35-.73,1.48-2.22,2.87"/><path class="cls-1" d="M67.55,34.14a8.69,8.69,0,0,0-.5,1.71c-.37,1.87-.51,4.14-1.37,4s-1.25-.5-1.63.87-1.25,4.5-3,4.88-3.12-.38-4,.37-2.25,1.88-1.25,3,1.25,1,1.25,1.88,0,1,1.38,1,3.12.25,3.37,1.37.13,2.38-1.25,2.75-3,.13-3.87,1.13a5.62,5.62,0,0,0-1.5,3.12c-.25,1.38-.75,2.25-1.75,2.13s-.88.25-1.63.87-.87,1,0,1.25,1.38.13,1.38.88-.38.5,1.12.62,2.5-.87,4.25,1.25,2.38,1.38,3,3.75,1.25,2.88,0,4a39.12,39.12,0,0,1-4.62,3c-.75.5-.5-.12-.5,1.25a1.44,1.44,0,0,1-.7,1.25"/><path class="cls-1" d="M58.8,26.72c-1.17,1.73-1,2.29-2,4.82a3.18,3.18,0,0,0-.68,3.12c.43,2.19,1.06,3.25-.44,4S53.55,40,52.62,40.22s-1.75.29-1.75.29l-.19,0c-1,.12-.88.62-.88,1.56s-.5,1.06-1.81,1.56A4.8,4.8,0,0,1,45,44c-.81-.18-.87.38-1.12,1S43.3,46,41.8,46.47s.88,1.94,1.94,2.32A3.66,3.66,0,0,1,46,50.85c.38.94.56.69,1.5.69s1.19.37,1.31.81.38.75,1.25,1.06,1.07.69.88,1.25-.31.56-.75.81a3.37,3.37,0,0,0-1.44,1.25c-.37.69-.37.57-1.25,1a4.05,4.05,0,0,0-1.87,2.57c-.5,1.37-2.25,1.75-3.75,1.93s-1.25.32-1.63,1-.44.57-1.25,1-.81.32-.37,1.13,1.18.81,3.12,1,1.38.62,2.06,1.44.75.68,1.88,1.06,1.94,2.5,3,4.19-.13,2.56-1.56,4.37a10.81,10.81,0,0,0-1.63,2.38,7.58,7.58,0,0,0-.43.68"/><path class="cls-1" d="M55.73,26.72c-.45.33-1,.53-1.11.94a3.92,3.92,0,0,1,.12,1.75,5.32,5.32,0,0,1-.81,2.38,2.79,2.79,0,0,0-.25,2.75c.44,1.37.31,2.43-1.44,2.93s-4.37.82-4.81,1.82-.75,2.25-2,2.31-2.94-.38-3.69.75S40.68,43.91,40.05,44s-1.93.19-2.12.94a3.19,3.19,0,0,0,.94,2c.93,1,.93.88.93,1.5s-.31,1,1,1.5,2.5.44,2.88,1.75.37,1.19,1.56,1.5,1.81,1.25,1.06,2.13-2.93,1.43-2.93,2.37A2.37,2.37,0,0,1,41.18,60c-1.56.25-3.38.32-3.31.94a2.21,2.21,0,0,1-1.32,1.88l-.87.25a4.59,4.59,0,0,0-1.19.5c-.87.25-.75.93-.19,1.5a4.53,4.53,0,0,1,1,1.31c.38.62.38.75,2.69,1.31s2.94,2.94,3.19,4.25,1.37,1.56,2.94,2.13.5,2.62-.44,3.62a11,11,0,0,0-1.44,1.88,3.33,3.33,0,0,0-.63.93"/><path class="cls-1" d="M57.6,26.72a2.52,2.52,0,0,0-1.55,1.82,2.62,2.62,0,0,1-.25,1.81,4.14,4.14,0,0,0-.87,3.75c.56,1.75.44,3.19-.81,3.81a12.69,12.69,0,0,1-3.5,1.31c-.94.13-1.69.07-1.88.82a4,4,0,0,1-1.94,2.12,5.3,5.3,0,0,1-2,.63,2.06,2.06,0,0,0-1.81.93c-.56,1-.44.94-1.62,1.32s-2.07.43-1.38,1.5a4.87,4.87,0,0,1,.88,1.81c.12.5.25.75,1.37,1.12s1.88.19,2.5,1.38.56,1.31,1.38,1.56S48.3,53,48.18,54s.37,1.75-1.13,2.57S44.68,58,44.43,58.79s-.5,2.06-2,2.31-3,0-3.44.81-.19,1-1.12,1.38a12,12,0,0,0-1.38.62c-1.31.19-.87.63-.5,1.63s1.31,1,2.75,1.18,3.44,2,4,2.75A11,11,0,0,0,45.8,73.1c2,1.44.19,3.5-.68,4.44a13.64,13.64,0,0,0-1.63,2.25,4,4,0,0,0-.36.68"/><path class="cls-1" d="M13.8,31a11.17,11.17,0,0,1,1.88-.75,4.35,4.35,0,0,0,2.87-1.87c1.13-1.38,1.63,0,5.5-1.5a.73.73,0,0,0,.4-.13"/><path class="cls-1" d="M13.8,41.79c1.63-.83,1.77-1.09,2.25-2.19A26.12,26.12,0,0,0,16.43,37c.25-2.12.62-3.5,2-3.62s3.25-.63,3.12-1.63-.75-1.12,1.38-1,3.12-.75,4.75-1.87a13.76,13.76,0,0,0,2.39-2.13"/><path class="cls-1" d="M13.8,34.14a3.61,3.61,0,0,1,2-2,5.69,5.69,0,0,0,2.63-1.75,4.27,4.27,0,0,1,2.5-1.5c1.5-.5,3.25-.63,4.62-1.25a4.34,4.34,0,0,0,1.18-.88"/><path class="cls-1" d="M13.8,40.27a9.63,9.63,0,0,0,.75-3.3,4.33,4.33,0,0,1,1.13-2.75c.62-.87,2.5-1.75,3.75-2.37s.75-1.13,1.25-1.75,2.5-.63,4-.75c1.18-.1,2.84-1.45,3.91-2.63"/><path class="cls-1" d="M24.45,80.47a5.05,5.05,0,0,0,1.48-1.62,38.65,38.65,0,0,1,2.62-3.5s1.88-3.5-1.25-3.25A8.25,8.25,0,0,1,20.93,70c-.75-.87-1.88-.87-2.13-2.25s-.25-1.37-1.12-1.87-5.13-3.13.12-5.25,4.13-2.5,4.38-3.38.62-1.62,2.62-1.75,3.38-.37,2.38-1.75-.88-2.12-.88-2.12-.37-1-2.37-1.5-3.63-1.38-3.38-2.63.13-1.37-1-2.25a3.91,3.91,0,0,1-1.37-4c.5-1.25,3.75-3.25,5.62-3.87s2.38-.5,2.5-1.38,2.88-1.5,4.63-1.87,3.87-.38,3.87-1.5,1.25-2,3-2.63,2.5-.62,2.5-1.75a10.69,10.69,0,0,1,.05-1.5"/><path class="cls-1" d="M45.05,26.72a7.35,7.35,0,0,0-.81,2.88c-.19,1.62-2.19,2.56-3.5,3.19s-1.69.75-1.62,1.93-2.69,2.07-5.44,2.38-2.81,1-3.06,1.94-2.88,1.37-5.44,2.18-1.19,2-.31,2.44.56,1.06.62,2.19,2.25,1.44,5.31,1.94,1.38,2.81.82,3.87.31,1.75,1,2.88-1.25,3.37-3.19,3.87-2.69.63-3.19,1.81S25,61.66,23.68,62.16s-1.69.63-1,1.25.44.56.44,1.44-.32,1.19,1,1.5,2.25.5,2.81,1.44S28,69.1,30.74,69.16,32.8,71,33,72.79s.69,1.87.13,2.93-1.44,2.5-1.44,2.5a11.53,11.53,0,0,1-1.61,2.25"/><path class="cls-1" d="M26.73,80.47c1.06-1,2.17-2.66,3.07-3.75a3.61,3.61,0,0,0,1-2.5c0-1.56.07-2.75-2.06-3.06a14.25,14.25,0,0,1-4.87-1.81c-1-.56-1.88-1.25-2.63-1.56s-1.06-.32-1.12-1.5-.69-1.38-1.44-1.57-3-1.75-.69-2.87A27,27,0,0,0,22.8,59.1C23,58.79,22.3,57.47,25,57s5.56-1.43,4.31-3-1.25-1.81-.87-2.62-1.56-1.75-3.88-2.63S22,47.47,22.24,46.47s-.06-1.62-1.44-2.31-2.68-3,.69-4.44,5.19-2,5.56-2.81,1.88-1.5,3.69-1.81S36.12,34,36.12,33s.31-1.57,1.68-1.75,3.07-.75,3.32-2.13a10.22,10.22,0,0,1,.49-2.44"/><path class="cls-1" d="M28.59,80.47a7.81,7.81,0,0,0,.71-.87s1-1.56,1.75-2.75,1.5-1.81,1-3.56-.06-2.82-1.87-3.07-3.19.44-3.88-.75a5.21,5.21,0,0,0-3.18-2.12C22,67,21.3,67.22,21.37,66.1s.81-1.56-.69-2-2-1.38-.5-2.13,2.69-1.68,3.37-1.75.94-.31,1.32-1a2.35,2.35,0,0,1,2.06-1.43,7,7,0,0,0,3.56-1.69,1.64,1.64,0,0,0,.13-2.44c-.82-1-1.38-1.31-.88-1.94S31.37,49,28.68,48.6s-5.06-1.19-4.75-2.38.19-1.31-.94-2-2.87-2.31-.69-3.12,3.82-1.63,4.38-1.69a3.34,3.34,0,0,0,2.06-1.5c.38-.75-.06-1.5,2.56-1.75s6.19-.87,6.44-2.12.06-1.75,1.94-2.25S42,31,42.43,29.91c.36-.93.25-2.08.7-3.19"/><path class="cls-1" d="M53.83,26.72l-.28.25c-.87.75-.12.5-.25,2.25s-.25,2-.87,2.88c0,0-2.13,1.37-1.06,2.44s1.37,1.5-.13,2.06S45.87,38,45.55,38.41s-.37.25-.18.94-.25,1.19-1.44,1.25-2.75.25-3.38,1.12a2.9,2.9,0,0,1-2.5,1.44c-1.25.06-2.75.25-2.31,1.19s2.13,1.62,1.88,2.44.31,1.12.93,2.12.94,2.69,2.25,2.88,1.63-.44,1.94.87.56,1.44,1.44,1.5,1.12.5,0,.94-1.94.25-2,1.5-.38,2.06-1.69,2.31-3.81.06-3.81.94A2.07,2.07,0,0,1,35,62L31.8,63.29c-1.37.43-.37,1.37.69,1.62s.81.94,1.56,2.5S36.62,69,37.93,69,40,71.72,40.24,73s1.81,1.19,2.75,2.44-1.69,3.44-1.69,3.44a2.42,2.42,0,0,0-.94,1.62"/><line class="cls-1" x1="16.8" y1="28.6" x2="14.8" y2="27.47"/><line class="cls-1" x1="20.81" y1="37.27" x2="20.74" y2="34.97"/><line class="cls-1" x1="24.37" y1="34.79" x2="23.43" y2="32.66"/><line class="cls-1" x1="19.05" y1="39.16" x2="16.8" y2="39.22"/><line class="cls-1" x1="28.47" y1="32.02" x2="26.55" y2="31.35"/><line class="cls-1" x1="31.8" y1="28.35" x2="29.64" y2="29.1"/><line class="cls-1" x1="32.05" y1="32.68" x2="31.05" y2="30.77"/><line class="cls-1" x1="37.14" y1="29.1" x2="35.14" y2="28.27"/><line class="cls-1" x1="15.3" y1="45.6" x2="16.14" y2="43.6"/><line class="cls-1" x1="17.47" y1="47.27" x2="19.3" y2="48.68"/><line class="cls-1" x1="17.89" y1="50.6" x2="15.72" y2="51.02"/><line class="cls-1" x1="20.72" y1="52.77" x2="21.55" y2="50.68"/><line class="cls-1" x1="25.47" y1="54.35" x2="23.3" y2="53.18"/><line class="cls-1" x1="17.14" y1="55.93" x2="15.22" y2="53.93"/><line class="cls-1" x1="40.97" y1="52.93" x2="40.89" y2="55.43"/><line class="cls-1" x1="38.47" y1="52.27" x2="36.47" y2="53.68"/><line class="cls-1" x1="36.89" y1="51.52" x2="35.05" y2="50.1"/><line class="cls-1" x1="33.47" y1="47.35" x2="34.64" y2="45.35"/><line class="cls-1" x1="27.72" y1="45.1" x2="29.22" y2="46.27"/><line class="cls-1" x1="27.8" y1="43.1" x2="28.72" y2="41.1"/><line class="cls-1" x1="32.8" y1="43.68" x2="30.8" y2="44.35"/><line class="cls-1" x1="32.3" y1="38.77" x2="33.55" y2="40.6"/><line class="cls-1" x1="37.64" y1="41.43" x2="39.55" y2="40.6"/><line class="cls-1" x1="36.55" y1="39.27" x2="37.14" y2="37.27"/><line class="cls-1" x1="42.05" y1="38.35" x2="40.55" y2="36.85"/><line class="cls-1" x1="41.89" y1="34.6" x2="44.64" y2="33.85"/><line class="cls-1" x1="47.14" y1="34.27" x2="46.89" y2="36.68"/><line class="cls-1" x1="50.97" y1="31.35" x2="48.64" y2="32.6"/><line class="cls-1" x1="46.47" y1="31.02" x2="46.14" y2="28.6"/><line class="cls-1" x1="49.14" y1="28.43" x2="51.55" y2="27.6"/><line class="cls-1" x1="51.14" y1="44.52" x2="52.14" y2="41.85"/><line class="cls-1" x1="44.55" y1="46.85" x2="46.55" y2="45.52"/><line class="cls-1" x1="51.89" y1="47.35" x2="49.47" y2="47.1"/><line class="cls-1" x1="47.39" y1="50.43" x2="47.55" y2="48.35"/><line class="cls-1" x1="50.8" y1="51.93" x2="52.55" y2="50.18"/><line class="cls-1" x1="54.55" y1="54.02" x2="53.3" y2="52.18"/><rect class="cls-2" x="13.8" y="26.72" width="53.75" height="53.75"/><path class="cls-1" d="M13.8-22.78a2.39,2.39,0,0,0-1.37,2c-.13,1.75,0,3.63-1.13,4.5S9.18-16,9.05-14.65s-.37,5.12-2.87,5.5-3,.25-3.88,1S1.18-7,.3-7-.95-5.65.18-4.65,1.8-3.53,1.8-2.4s1,1.25,2.13,1.62,5,.63,1.62,2S1.3,3.1.43,4.6-.2,7.35-1.45,7.85s-1.62-.13-2.12.87-.5,1.38-1.38,1.38-1.75,1.12.25,1.37,2.25.25,2.88,1.25.37,1.13,1.75.75,1.75-1.62,2.87-.12,2.38,2.5,3.13,4.25,1.12,2.25-.25,3.62A14.7,14.7,0,0,1,2.3,23.85c-.7.35-.73,1.48-2.22,2.87"/><path class="cls-1" d="M13.8-12l-.12.06C11.93-11,12.18-10,11.8-9.15s-.5,3-2.5,3.5-3.5.5-1.62,1.5S11.55.1,10.8,1.47,9.3,2.85,9.05,3.6s.13,2.12-1.5,1.62-2.12-.5-2.62,1-1.38,2.88,0,3.63,4,1.75,4,3,.12,1.62,1.25,2.25A4,4,0,0,1,11.8,18c.13.75.25,3.38-1.12,4.38s-2.94,1.19-3.81,2.19a11.41,11.41,0,0,0-1.82,2.18"/><path class="cls-1" d="M13.8-19.61a8.69,8.69,0,0,0-.5,1.71c-.37,1.87-.51,4.14-1.37,4s-1.25-.5-1.63.87-1.25,4.5-3,4.88-3.12-.38-4,.37-2.25,1.88-1.25,3S3.3-3.78,3.3-2.9s0,1,1.38,1S7.8-1.65,8.05-.53,8.18,1.85,6.8,2.22s-3,.13-3.87,1.13a5.62,5.62,0,0,0-1.5,3.12C1.18,7.85.68,8.72-.32,8.6s-.88.25-1.63.87-.87,1,0,1.25,1.38.13,1.38.88-.38.5,1.12.62,2.5-.87,4.25,1.25,2.38,1.38,3,3.75,1.25,2.88,0,4a39.12,39.12,0,0,1-4.62,3c-.75.5-.5-.12-.5,1.25A1.44,1.44,0,0,1,2,26.72"/><path class="cls-1" d="M13.8-13.48a1.15,1.15,0,0,1-.75.58,3.4,3.4,0,0,0-2.25,2.25c-.37,1-1.5,3.5-2.62,3.75s-3.5.5-4,1S3.93-5,4.3-4.4,4.3-3.15,5.55-3s4.25.75,4,2.75S7.8,4.22,6.05,3.85s-2.5.37-2.62,1.62A4.89,4.89,0,0,1,2.3,8.72c-.87.88-3,1.63-.75,1.88s2.5.25,3.75,1.25,1.63.37,2,1.62-.12.63,1.13,1.75,2.37,1.5,2.12,3.38,0,2.87-1.37,3.5a14.64,14.64,0,0,0-3.25,1.75c-.75.62-1.75.5-1.38,1.75.17.56-.21.83-.7,1.12"/><path class="cls-1" d="M5.05-27c-1.17,1.73-1,2.29-2,4.82a3.18,3.18,0,0,0-.68,3.12c.43,2.19,1.06,3.25-.44,4S-.2-13.71-1.13-13.53s-1.75.29-1.75.29l-.19,0c-1,.12-.88.62-.88,1.56s-.5,1.06-1.81,1.56a4.8,4.8,0,0,1-3,.31c-.81-.18-.87.38-1.12,1s-.57,1.07-2.07,1.5S-11.07-5.34-10-5A3.66,3.66,0,0,1-7.76-2.9c.38.94.56.69,1.5.69s1.19.37,1.31.81.38.75,1.25,1.06,1.07.69.88,1.25-.31.56-.75.81A3.37,3.37,0,0,0-5,3c-.37.69-.37.57-1.25,1A4.05,4.05,0,0,0-8.13,6.54c-.5,1.37-2.25,1.75-3.75,1.93s-1.25.32-1.63,1-.44.57-1.25,1-.81.32-.37,1.13,1.18.81,3.12,1,1.38.62,2.06,1.44.75.68,1.88,1.06,1.94,2.5,3,4.19-.13,2.56-1.56,4.37A10.81,10.81,0,0,0-8.26,26a7.58,7.58,0,0,0-.43.68"/><path class="cls-1" d="M2-27c-.45.33-1,.53-1.11.94A3.92,3.92,0,0,1,1-24.34,5.32,5.32,0,0,1,.18-22a2.79,2.79,0,0,0-.25,2.75c.44,1.37.31,2.43-1.44,2.93s-4.37.82-4.81,1.82-.75,2.25-2,2.31-2.94-.38-3.69.75-1.06,1.56-1.69,1.62-1.93.19-2.12.94a3.19,3.19,0,0,0,.94,2c.93,1,.93.88.93,1.5s-.31,1,1,1.5,2.5.44,2.88,1.75S-9.7-.9-8.51-.59-6.7.66-7.45,1.54-10.38,3-10.38,3.91a2.37,2.37,0,0,1-2.19,2.31c-1.56.25-3.38.32-3.31.94A2.21,2.21,0,0,1-17.2,9l-.87.25a4.59,4.59,0,0,0-1.19.5c-.87.25-.75.93-.19,1.5a4.53,4.53,0,0,1,1,1.31c.38.62.38.75,2.69,1.31s2.94,2.94,3.19,4.25,1.37,1.56,2.94,2.13.5,2.62-.44,3.62a11,11,0,0,0-1.44,1.88,3.33,3.33,0,0,0-.63.93"/><path class="cls-1" d="M3.85-27A2.52,2.52,0,0,0,2.3-25.21a2.62,2.62,0,0,1-.25,1.81,4.14,4.14,0,0,0-.87,3.75c.56,1.75.44,3.19-.81,3.81a12.69,12.69,0,0,1-3.5,1.31c-.94.13-1.69.07-1.88.82a4,4,0,0,1-1.94,2.12,5.3,5.3,0,0,1-2,.63,2.06,2.06,0,0,0-1.81.93c-.56,1-.44.94-1.62,1.32s-2.07.43-1.38,1.5a4.87,4.87,0,0,1,.88,1.81c.12.5.25.75,1.37,1.12S-9.63-4.09-9-2.9s.56,1.31,1.38,1.56S-5.45-.71-5.57.22-5.2,2-6.7,2.79-9.07,4.22-9.32,5s-.5,2.06-2,2.31-3,0-3.44.81-.19,1-1.12,1.38a12,12,0,0,0-1.38.62c-1.31.19-.87.63-.5,1.63s1.31,1,2.75,1.18,3.44,2,4,2.75a11,11,0,0,0,3.06,3.63c2,1.44.19,3.5-.68,4.44A13.64,13.64,0,0,0-10.26,26a4,4,0,0,0-.36.68"/><path class="cls-1" d="M.08-27l-.28.25c-.87.75-.12.5-.25,2.25s-.25,2-.87,2.88c0,0-2.13,1.37-1.06,2.44s1.37,1.5-.13,2.06-5.37,1.37-5.69,1.81-.37.25-.18.94-.25,1.19-1.44,1.25-2.75.25-3.38,1.12a2.9,2.9,0,0,1-2.5,1.44c-1.25.06-2.75.25-2.31,1.19S-15.88-7.78-16.13-7s.31,1.12.93,2.12.94,2.69,2.25,2.88,1.63-.44,1.94.87S-10.45.35-9.57.41s1.12.5,0,.94-1.94.25-2,1.5-.38,2.06-1.69,2.31-3.81.06-3.81.94a2.07,2.07,0,0,1-1.69,2.19l-3.19,1.25c-1.37.43-.37,1.37.69,1.62s.81.94,1.56,2.5,2.57,1.63,3.88,1.63,2.06,2.68,2.31,3.93,1.81,1.19,2.75,2.44-1.69,3.44-1.69,3.44a2.42,2.42,0,0,0-.94,1.62"/><line class="cls-1" x1="12.49" y1="25.93" x2="11.24" y2="24.1"/><line class="cls-1" x1="0.8" y1="0.27" x2="-0.45" y2="-1.57"/><line class="cls-1" x1="4.89" y1="0.43" x2="2.55" y2="0.6"/><line class="cls-1" x1="0.22" y1="15.27" x2="2.8" y2="15.43"/><line class="cls-1" x1="6.39" y1="6.27" x2="6.55" y2="9.02"/><line class="cls-1" x1="8.72" y1="9.85" x2="11.05" y2="8.77"/><line class="cls-1" x1="11.12" y1="5.95" x2="13.37" y2="6.87"/><line class="cls-1" x1="12.47" y1="14.52" x2="11.14" y2="12.43"/><path class="cls-1" d="M12.39.93s-.09,2.17-.09,2.5"/><line class="cls-1" x1="2.05" y1="18.35" x2="4.14" y2="19.1"/><line class="cls-1" x1="2.55" y1="21.77" x2="-0.2" y2="21.93"/><rect class="cls-2" x="-39.95" y="-27.03" width="53.75" height="53.75"/><path class="cls-1" d="M13.8,31a2.39,2.39,0,0,0-1.37,2c-.13,1.75,0,3.63-1.13,4.5s-2.12.25-2.25,1.63-.37,5.12-2.87,5.5-3,.25-3.88,1-1.12,1.12-2,1.12S-.95,48.1.18,49.1,1.8,50.22,1.8,51.35,2.8,52.6,3.93,53s5,.63,1.62,2S1.3,56.85.43,58.35-.2,61.1-1.45,61.6s-1.62-.13-2.12.87-.5,1.38-1.38,1.38S-6.7,65-4.7,65.22s2.25.25,2.88,1.25.37,1.13,1.75.75S1.68,65.6,2.8,67.1s2.38,2.5,3.13,4.25S7.05,73.6,5.68,75A14.7,14.7,0,0,1,2.3,77.6c-.7.35-.73,1.48-2.22,2.87"/><path class="cls-1" d="M13.8,41.79l-.12.06c-1.75.87-1.5,1.87-1.88,2.75s-.5,3-2.5,3.5-3.5.5-1.62,1.5,3.87,4.25,3.12,5.62S9.3,56.6,9.05,57.35s.13,2.12-1.5,1.62-2.12-.5-2.62,1-1.38,2.88,0,3.63,4,1.75,4,3,.12,1.62,1.25,2.25a4,4,0,0,1,1.62,2.87c.13.75.25,3.38-1.12,4.38s-2.94,1.19-3.81,2.19a11.41,11.41,0,0,0-1.82,2.18"/><path class="cls-1" d="M13.8,34.14a8.69,8.69,0,0,0-.5,1.71c-.37,1.87-.51,4.14-1.37,4s-1.25-.5-1.63.87-1.25,4.5-3,4.88-3.12-.38-4,.37-2.25,1.88-1.25,3S3.3,50,3.3,50.85s0,1,1.38,1,3.12.25,3.37,1.37S8.18,55.6,6.8,56s-3,.13-3.87,1.13a5.62,5.62,0,0,0-1.5,3.12C1.18,61.6.68,62.47-.32,62.35s-.88.25-1.63.87-.87,1,0,1.25,1.38.13,1.38.88-.38.5,1.12.62,2.5-.87,4.25,1.25S7.18,68.6,7.8,71s1.25,2.88,0,4a39.12,39.12,0,0,1-4.62,3c-.75.5-.5-.12-.5,1.25A1.44,1.44,0,0,1,2,80.47"/><path class="cls-1" d="M13.8,40.27a1.15,1.15,0,0,1-.75.58A3.4,3.4,0,0,0,10.8,43.1c-.37,1-1.5,3.5-2.62,3.75s-3.5.5-4,1-.25.87.12,1.5,0,1.25,1.25,1.37,4.25.75,4,2.75S7.8,58,6.05,57.6s-2.5.37-2.62,1.62A4.89,4.89,0,0,1,2.3,62.47c-.87.88-3,1.63-.75,1.88s2.5.25,3.75,1.25,1.63.37,2,1.62-.12.63,1.13,1.75,2.37,1.5,2.12,3.38,0,2.87-1.37,3.5A14.64,14.64,0,0,0,5.93,77.6c-.75.62-1.75.5-1.38,1.75.17.56-.21.83-.7,1.12"/><path class="cls-1" d="M5.05,26.72c-1.17,1.73-1,2.29-2,4.82a3.18,3.18,0,0,0-.68,3.12c.43,2.19,1.06,3.25-.44,4S-.2,40-1.13,40.22s-1.75.29-1.75.29l-.19,0c-1,.12-.88.62-.88,1.56s-.5,1.06-1.81,1.56a4.8,4.8,0,0,1-3,.31c-.81-.18-.87.38-1.12,1s-.57,1.07-2.07,1.5.88,1.94,1.94,2.32a3.66,3.66,0,0,1,2.25,2.06c.38.94.56.69,1.5.69s1.19.37,1.31.81.38.75,1.25,1.06,1.07.69.88,1.25-.31.56-.75.81A3.37,3.37,0,0,0-5,56.72c-.37.69-.37.57-1.25,1a4.05,4.05,0,0,0-1.87,2.57c-.5,1.37-2.25,1.75-3.75,1.93s-1.25.32-1.63,1-.44.57-1.25,1-.81.32-.37,1.13,1.18.81,3.12,1,1.38.62,2.06,1.44.75.68,1.88,1.06,1.94,2.5,3,4.19-.13,2.56-1.56,4.37a10.81,10.81,0,0,0-1.63,2.38,7.58,7.58,0,0,0-.43.68"/><path class="cls-1" d="M2,26.72c-.45.33-1,.53-1.11.94A3.92,3.92,0,0,1,1,29.41a5.32,5.32,0,0,1-.81,2.38,2.79,2.79,0,0,0-.25,2.75C.37,35.91.24,37-1.51,37.47s-4.37.82-4.81,1.82-.75,2.25-2,2.31-2.94-.38-3.69.75S-13.07,43.91-13.7,44s-1.93.19-2.12.94a3.19,3.19,0,0,0,.94,2c.93,1,.93.88.93,1.5s-.31,1,1,1.5,2.5.44,2.88,1.75.37,1.19,1.56,1.5,1.81,1.25,1.06,2.13-2.93,1.43-2.93,2.37A2.37,2.37,0,0,1-12.57,60c-1.56.25-3.38.32-3.31.94a2.21,2.21,0,0,1-1.32,1.88l-.87.25a4.59,4.59,0,0,0-1.19.5c-.87.25-.75.93-.19,1.5a4.53,4.53,0,0,1,1,1.31c.38.62.38.75,2.69,1.31s2.94,2.94,3.19,4.25S-11.2,73.47-9.63,74s.5,2.62-.44,3.62a11,11,0,0,0-1.44,1.88,3.33,3.33,0,0,0-.63.93"/><path class="cls-1" d="M3.85,26.72A2.52,2.52,0,0,0,2.3,28.54a2.62,2.62,0,0,1-.25,1.81,4.14,4.14,0,0,0-.87,3.75c.56,1.75.44,3.19-.81,3.81a12.69,12.69,0,0,1-3.5,1.31c-.94.13-1.69.07-1.88.82a4,4,0,0,1-1.94,2.12,5.3,5.3,0,0,1-2,.63,2.06,2.06,0,0,0-1.81.93c-.56,1-.44.94-1.62,1.32s-2.07.43-1.38,1.5a4.87,4.87,0,0,1,.88,1.81c.12.5.25.75,1.37,1.12s1.88.19,2.5,1.38.56,1.31,1.38,1.56S-5.45,53-5.57,54s.37,1.75-1.13,2.57S-9.07,58-9.32,58.79s-.5,2.06-2,2.31-3,0-3.44.81-.19,1-1.12,1.38a12,12,0,0,0-1.38.62c-1.31.19-.87.63-.5,1.63s1.31,1,2.75,1.18,3.44,2,4,2.75A11,11,0,0,0-7.95,73.1c2,1.44.19,3.5-.68,4.44a13.64,13.64,0,0,0-1.63,2.25,4,4,0,0,0-.36.68"/><path class="cls-1" d="M.08,26.72-.2,27c-.87.75-.12.5-.25,2.25s-.25,2-.87,2.88c0,0-2.13,1.37-1.06,2.44S-1,36-2.51,36.6-7.88,38-8.2,38.41s-.37.25-.18.94-.25,1.19-1.44,1.25-2.75.25-3.38,1.12a2.9,2.9,0,0,1-2.5,1.44c-1.25.06-2.75.25-2.31,1.19s2.13,1.62,1.88,2.44.31,1.12.93,2.12.94,2.69,2.25,2.88,1.63-.44,1.94.87.56,1.44,1.44,1.5,1.12.5,0,.94-1.94.25-2,1.5-.38,2.06-1.69,2.31-3.81.06-3.81.94A2.07,2.07,0,0,1-18.76,62l-3.19,1.25c-1.37.43-.37,1.37.69,1.62s.81.94,1.56,2.5S-17.13,69-15.82,69s2.06,2.68,2.31,3.93,1.81,1.19,2.75,2.44-1.69,3.44-1.69,3.44a2.42,2.42,0,0,0-.94,1.62"/><line class="cls-1" x1="8.72" y1="28.6" x2="11.47" y2="28.1"/><line class="cls-1" x1="7.05" y1="31.18" x2="5.22" y2="29.85"/><line class="cls-1" x1="7.89" y1="33.77" x2="8.89" y2="35.68"/><line class="cls-1" x1="11.22" y1="31.02" x2="11.05" y2="33.35"/><line class="cls-1" x1="4.3" y1="38.35" x2="4.72" y2="35.93"/><line class="cls-1" x1="6.22" y1="39.6" x2="8.14" y2="38.6"/><line class="cls-1" x1="6.3" y1="43.18" x2="5.3" y2="41.02"/><line class="cls-1" x1="1.3" y1="40.6" x2="3.47" y2="40.93"/><line class="cls-1" x1="1.97" y1="44.77" x2="0.8" y2="42.77"/><line class="cls-1" x1="0.8" y1="54.02" x2="-0.45" y2="52.18"/><line class="cls-1" x1="12.89" y1="51.85" x2="11.05" y2="50.85"/><line class="cls-1" x1="11.3" y1="48.6" x2="12.97" y2="46.6"/><rect class="cls-2" x="-39.95" y="26.72" width="53.75" height="53.75"/><rect class="cls-2" width="54.03" height="54.03"/></svg>