<svg id="Layer_1" data-name="Layer 1" xmlns="http://www.w3.org/2000/svg" width="49.71" height="49.71" viewBox="0 0 49.71 49.71"><defs><style>.cls-1,.cls-2{fill:none;}.cls-1{stroke:#000;stroke-width:0.3px;}</style></defs><title>Artboard 37</title><path class="cls-1" d="M23.25-2.67c-.56.25-.93.56-.5,1.38s.38,1.12-.06,1.62"/><path class="cls-1" d="M23.13,1.89a3.51,3.51,0,0,0,.44-3.5"/><path class="cls-1" d="M17.75,5.21c.44-.5.5-.82.07-1.63s-.07-1.12.5-1.37"/><path class="cls-1" d="M17.75,1.08a2.46,2.46,0,0,0-.87,3.13"/><path class="cls-1" d="M18.19,6.77a3.51,3.51,0,0,0,.44-3.5"/><path class="cls-1" d="M22.75,10.14c.44-.5.5-.81.07-1.62s-.07-1.13.5-1.38"/><path class="cls-1" d="M22.75,6a2.44,2.44,0,0,0-.87,3.12"/><path class="cls-1" d="M23.19,11.71a3.51,3.51,0,0,0,.44-3.5"/><path class="cls-1" d="M18.32,12.14c-.57.25-.94.57-.5,1.38s.37,1.12-.07,1.62"/><path class="cls-1" d="M17.75,11a2.44,2.44,0,0,0-.87,3.12"/><path class="cls-1" d="M18.19,16.71a3.51,3.51,0,0,0,.44-3.5"/><path class="cls-1" d="M22.69,20.14c.44-.5.5-.81.06-1.62s-.06-1.13.5-1.38"/><path class="cls-1" d="M22.69,16a2.43,2.43,0,0,0-.87,3.12"/><path class="cls-1" d="M23.13,21.71a3.51,3.51,0,0,0,.44-3.5"/><path class="cls-1" d="M18.32,22.08c-.57.25-.94.56-.5,1.38s.37,1.12-.07,1.62"/><path class="cls-1" d="M17.75,21a2.44,2.44,0,0,0-.87,3.12"/><path class="cls-1" d="M18.19,26.64a3.51,3.51,0,0,0,.44-3.5"/><path class="cls-1" d="M22.69,30c.44-.5.5-.81.06-1.63s-.06-1.12.5-1.37"/><path class="cls-1" d="M22.69,25.89A2.45,2.45,0,0,0,21.82,29"/><path class="cls-1" d="M23.13,31.58a3.51,3.51,0,0,0,.44-3.5"/><path class="cls-1" d="M18.32,32.08c-.57.25-.94.56-.5,1.38s.37,1.12-.07,1.62"/><path class="cls-1" d="M17.75,31a2.44,2.44,0,0,0-.87,3.12"/><path class="cls-1" d="M18.63,33.14a3.51,3.51,0,0,1-.44,3.5"/><path class="cls-1" d="M23.25,37c-.56.25-.93.56-.5,1.37s.38,1.13-.06,1.63"/><path class="cls-1" d="M22.69,35.83A2.45,2.45,0,0,0,21.82,39"/><path class="cls-1" d="M23.57,38a3.59,3.59,0,0,1,.18,2.27"/><path class="cls-1" d="M33.19-2.67c-.56.25-.94.56-.5,1.38s.38,1.12-.06,1.62"/><path class="cls-1" d="M33.07,1.89a3.5,3.5,0,0,0,.43-3.5"/><path class="cls-1" d="M27.69,5.21c.44-.5.5-.82.06-1.63s-.06-1.12.5-1.37"/><path class="cls-1" d="M27.69,1.08a2.45,2.45,0,0,0-.87,3.13"/><path class="cls-1" d="M28.13,6.77a3.51,3.51,0,0,0,.44-3.5"/><path class="cls-1" d="M32.69,10.14c.44-.5.5-.81.06-1.62s-.06-1.13.5-1.38"/><path class="cls-1" d="M32.69,6a2.43,2.43,0,0,0-.87,3.12"/><path class="cls-1" d="M33.13,11.71a3.51,3.51,0,0,0,.44-3.5"/><path class="cls-1" d="M28.25,12.14c-.56.25-.93.57-.5,1.38s.38,1.12-.06,1.62"/><path class="cls-1" d="M27.69,11a2.43,2.43,0,0,0-.87,3.12"/><path class="cls-1" d="M28.13,16.71a3.51,3.51,0,0,0,.44-3.5"/><path class="cls-1" d="M32.63,20.14c.44-.5.5-.81.06-1.62s-.06-1.13.5-1.38"/><path class="cls-1" d="M32.63,16a2.44,2.44,0,0,0-.88,3.12"/><path class="cls-1" d="M33.07,21.71a3.5,3.5,0,0,0,.43-3.5"/><path class="cls-1" d="M28.25,22.08c-.56.25-.93.56-.5,1.38s.38,1.12-.06,1.62"/><path class="cls-1" d="M27.69,21a2.43,2.43,0,0,0-.87,3.12"/><path class="cls-1" d="M28.13,26.64a3.51,3.51,0,0,0,.44-3.5"/><path class="cls-1" d="M32.63,30c.44-.5.5-.81.06-1.63s-.06-1.12.5-1.37"/><path class="cls-1" d="M32.63,25.89A2.46,2.46,0,0,0,31.75,29"/><path class="cls-1" d="M33.07,31.58a3.5,3.5,0,0,0,.43-3.5"/><path class="cls-1" d="M28.25,32.08c-.56.25-.93.56-.5,1.38s.38,1.12-.06,1.62"/><path class="cls-1" d="M27.69,31a2.43,2.43,0,0,0-.87,3.12"/><path class="cls-1" d="M28.57,33.14a3.51,3.51,0,0,1-.44,3.5"/><path class="cls-1" d="M33.19,37c-.56.25-.94.56-.5,1.37s.38,1.13-.06,1.63"/><path class="cls-1" d="M32.63,35.83A2.46,2.46,0,0,0,31.75,39"/><path class="cls-1" d="M33.44,38a3.51,3.51,0,0,1,.19,2.27"/><path class="cls-1" d="M43.07-2.67c-.57.25-.94.56-.5,1.38S42.94-.17,42.5.33"/><path class="cls-1" d="M42.94,1.89a3.51,3.51,0,0,0,.44-3.5"/><path class="cls-1" d="M37.57,5.21c.43-.5.5-.82.06-1.63s-.06-1.12.5-1.37"/><path class="cls-1" d="M37.57,1.08a2.45,2.45,0,0,0-.88,3.13"/><path class="cls-1" d="M38,6.77a3.48,3.48,0,0,0,.44-3.5"/><path class="cls-1" d="M42.57,10.14c.43-.5.5-.81.06-1.62s-.06-1.13.5-1.38"/><path class="cls-1" d="M42.57,6a2.43,2.43,0,0,0-.88,3.12"/><path class="cls-1" d="M43,11.71a3.48,3.48,0,0,0,.44-3.5"/><path class="cls-1" d="M38.13,12.14c-.56.25-.94.57-.5,1.38s.37,1.12-.06,1.62"/><path class="cls-1" d="M37.57,11a2.43,2.43,0,0,0-.88,3.12"/><path class="cls-1" d="M38,16.71a3.48,3.48,0,0,0,.44-3.5"/><path class="cls-1" d="M42.5,20.14c.44-.5.5-.81.07-1.62s-.07-1.13.5-1.38"/><path class="cls-1" d="M42.5,16a2.44,2.44,0,0,0-.87,3.12"/><path class="cls-1" d="M42.94,21.71a3.51,3.51,0,0,0,.44-3.5"/><path class="cls-1" d="M38.13,22.08c-.56.25-.94.56-.5,1.38s.37,1.12-.06,1.62"/><path class="cls-1" d="M37.57,21a2.43,2.43,0,0,0-.88,3.12"/><path class="cls-1" d="M38,26.64a3.48,3.48,0,0,0,.44-3.5"/><path class="cls-1" d="M42.5,30c.44-.5.5-.81.07-1.63s-.07-1.12.5-1.37"/><path class="cls-1" d="M42.5,25.89A2.46,2.46,0,0,0,41.63,29"/><path class="cls-1" d="M42.94,31.58a3.51,3.51,0,0,0,.44-3.5"/><path class="cls-1" d="M38.13,32.08c-.56.25-.94.56-.5,1.38s.37,1.12-.06,1.62"/><path class="cls-1" d="M37.57,31a2.43,2.43,0,0,0-.88,3.12"/><path class="cls-1" d="M38.44,33.14a3.48,3.48,0,0,1-.44,3.5"/><path class="cls-1" d="M43.07,37c-.57.25-.94.56-.5,1.37s.37,1.13-.07,1.63"/><path class="cls-1" d="M42.5,35.83A2.46,2.46,0,0,0,41.63,39"/><path class="cls-1" d="M43.38,38a3.52,3.52,0,0,1,.18,2.27"/><path class="cls-1" d="M47.55,5.21c.43-.5.5-.82.06-1.63s-.06-1.12.5-1.37"/><path class="cls-1" d="M47.55,1.08a2.45,2.45,0,0,0-.88,3.13"/><path class="cls-1" d="M48,6.77a3.48,3.48,0,0,0,.44-3.5"/><path class="cls-1" d="M48.11,12.14c-.56.25-.94.57-.5,1.38s.37,1.12-.06,1.62"/><path class="cls-1" d="M47.55,11a2.43,2.43,0,0,0-.88,3.12"/><path class="cls-1" d="M48,16.71a3.48,3.48,0,0,0,.44-3.5"/><path class="cls-1" d="M48.11,22.08c-.56.25-.94.56-.5,1.38s.37,1.12-.06,1.62"/><path class="cls-1" d="M47.55,21a2.43,2.43,0,0,0-.88,3.12"/><path class="cls-1" d="M48,26.64a3.48,3.48,0,0,0,.44-3.5"/><path class="cls-1" d="M48.11,32.08c-.56.25-.94.56-.5,1.38s.37,1.12-.06,1.62"/><path class="cls-1" d="M47.55,31a2.43,2.43,0,0,0-.88,3.12"/><path class="cls-1" d="M48.42,33.14a3.48,3.48,0,0,1-.44,3.5"/><rect class="cls-2" x="15.77" y="-9.42" width="49.71" height="49.71"/><path class="cls-1" d="M17.75,45c.44-.5.5-.82.07-1.63s-.07-1.12.5-1.37"/><path class="cls-1" d="M16.88,44a2.46,2.46,0,0,1,.87-3.13"/><path class="cls-1" d="M18.19,46.54a3.51,3.51,0,0,0,.44-3.5"/><path class="cls-1" d="M23.25,47c-.56.25-.93.56-.5,1.37s.38,1.13-.06,1.63"/><path class="cls-1" d="M21.82,49a2.45,2.45,0,0,1,.87-3.13"/><path class="cls-1" d="M23.13,51.6a3.51,3.51,0,0,0,.44-3.5"/><path class="cls-1" d="M27.69,45c.44-.5.5-.82.06-1.63s-.06-1.12.5-1.37"/><path class="cls-1" d="M26.82,44a2.45,2.45,0,0,1,.87-3.13"/><path class="cls-1" d="M28.13,46.54a3.51,3.51,0,0,0,.44-3.5"/><path class="cls-1" d="M33.19,47c-.56.25-.94.56-.5,1.37s.38,1.13-.06,1.63"/><path class="cls-1" d="M31.75,49a2.46,2.46,0,0,1,.88-3.13"/><path class="cls-1" d="M33.07,51.6a3.5,3.5,0,0,0,.43-3.5"/><path class="cls-1" d="M37.57,45c.43-.5.5-.82.06-1.63s-.06-1.12.5-1.37"/><path class="cls-1" d="M36.69,44a2.45,2.45,0,0,1,.88-3.13"/><path class="cls-1" d="M38,46.54a3.48,3.48,0,0,0,.44-3.5"/><path class="cls-1" d="M43.07,47c-.57.25-.94.56-.5,1.37s.37,1.13-.07,1.63"/><path class="cls-1" d="M41.63,49a2.46,2.46,0,0,1,.87-3.13"/><path class="cls-1" d="M42.94,51.6a3.51,3.51,0,0,0,.44-3.5"/><path class="cls-1" d="M47.55,45c.43-.5.5-.82.06-1.63s-.06-1.12.5-1.37"/><path class="cls-1" d="M46.67,44a2.45,2.45,0,0,1,.88-3.13"/><path class="cls-1" d="M48,46.54a3.48,3.48,0,0,0,.44-3.5"/><path class="cls-1" d="M23.13,41.54a2.65,2.65,0,0,0,.63-1.25"/><path class="cls-1" d="M33.07,41.54a2.55,2.55,0,0,0,.62-1.25"/><path class="cls-1" d="M42.94,41.54a2.57,2.57,0,0,0,.63-1.25"/><rect class="cls-2" x="15.77" y="40.29" width="49.71" height="49.71"/><path class="cls-1" d="M3.34-2.67c-.57.25-.94.56-.5,1.38S3.21-.17,2.77.33"/><path class="cls-1" d="M3.21,1.89a3.51,3.51,0,0,0,.44-3.5"/><path class="cls-1" d="M2.84,10.14c.43-.5.5-.81.06-1.62s-.06-1.13.5-1.38"/><path class="cls-1" d="M2.84,6A2.43,2.43,0,0,0,2,9.14"/><path class="cls-1" d="M3.27,11.71a3.48,3.48,0,0,0,.44-3.5"/><path class="cls-1" d="M2.77,20.14c.44-.5.5-.81.07-1.62s-.07-1.13.5-1.38"/><path class="cls-1" d="M2.77,16a2.44,2.44,0,0,0-.87,3.12"/><path class="cls-1" d="M3.21,21.71a3.51,3.51,0,0,0,.44-3.5"/><path class="cls-1" d="M2.77,30c.44-.5.5-.81.07-1.63s-.07-1.12.5-1.37"/><path class="cls-1" d="M2.77,25.89A2.46,2.46,0,0,0,1.9,29"/><path class="cls-1" d="M3.21,31.58a3.51,3.51,0,0,0,.44-3.5"/><path class="cls-1" d="M3.34,37c-.57.25-.94.56-.5,1.37s.37,1.13-.07,1.63"/><path class="cls-1" d="M2.77,35.83A2.46,2.46,0,0,0,1.9,39"/><path class="cls-1" d="M3.65,38a3.45,3.45,0,0,1,.18,2.27"/><path class="cls-1" d="M13.27-2.67c-.56.25-.93.56-.5,1.38s.38,1.12-.06,1.62"/><path class="cls-1" d="M13.15,1.89a3.51,3.51,0,0,0,.44-3.5"/><path class="cls-1" d="M7.77,5.21c.44-.5.5-.82.07-1.63s-.07-1.12.5-1.37"/><path class="cls-1" d="M7.77,1.08A2.46,2.46,0,0,0,6.9,4.21"/><path class="cls-1" d="M8.21,6.77a3.51,3.51,0,0,0,.44-3.5"/><path class="cls-1" d="M12.77,10.14c.44-.5.5-.81.07-1.62s-.07-1.13.5-1.38"/><path class="cls-1" d="M12.77,6a2.44,2.44,0,0,0-.87,3.12"/><path class="cls-1" d="M13.21,11.71a3.51,3.51,0,0,0,.44-3.5"/><path class="cls-1" d="M8.34,12.14c-.57.25-.94.57-.5,1.38s.37,1.12-.07,1.62"/><path class="cls-1" d="M7.77,11a2.44,2.44,0,0,0-.87,3.12"/><path class="cls-1" d="M8.21,16.71a3.51,3.51,0,0,0,.44-3.5"/><path class="cls-1" d="M12.71,20.14c.44-.5.5-.81.06-1.62s-.06-1.13.5-1.38"/><path class="cls-1" d="M12.71,16a2.43,2.43,0,0,0-.87,3.12"/><path class="cls-1" d="M13.15,21.71a3.51,3.51,0,0,0,.44-3.5"/><path class="cls-1" d="M8.34,22.08c-.57.25-.94.56-.5,1.38s.37,1.12-.07,1.62"/><path class="cls-1" d="M7.77,21a2.44,2.44,0,0,0-.87,3.12"/><path class="cls-1" d="M8.21,26.64a3.51,3.51,0,0,0,.44-3.5"/><path class="cls-1" d="M12.71,30c.44-.5.5-.81.06-1.63s-.06-1.12.5-1.37"/><path class="cls-1" d="M12.71,25.89A2.45,2.45,0,0,0,11.84,29"/><path class="cls-1" d="M13.15,31.58a3.51,3.51,0,0,0,.44-3.5"/><path class="cls-1" d="M8.34,32.08c-.57.25-.94.56-.5,1.38s.37,1.12-.07,1.62"/><path class="cls-1" d="M7.77,31a2.44,2.44,0,0,0-.87,3.12"/><path class="cls-1" d="M8.65,33.14a3.51,3.51,0,0,1-.44,3.5"/><path class="cls-1" d="M13.27,37c-.56.25-.93.56-.5,1.37s.38,1.13-.06,1.63"/><path class="cls-1" d="M12.71,35.83A2.45,2.45,0,0,0,11.84,39"/><path class="cls-1" d="M13.59,38a3.59,3.59,0,0,1,.18,2.27"/><rect class="cls-2" x="-33.94" y="-9.42" width="49.71" height="49.71"/><path class="cls-1" d="M3.34,47c-.57.25-.94.56-.5,1.37s.37,1.13-.07,1.63"/><path class="cls-1" d="M1.9,49a2.46,2.46,0,0,1,.87-3.13"/><path class="cls-1" d="M3.21,51.6a3.51,3.51,0,0,0,.44-3.5"/><path class="cls-1" d="M7.77,45c.44-.5.5-.82.07-1.63s-.07-1.12.5-1.37"/><path class="cls-1" d="M6.9,44a2.46,2.46,0,0,1,.87-3.13"/><path class="cls-1" d="M8.21,46.54A3.51,3.51,0,0,0,8.65,43"/><path class="cls-1" d="M13.27,47c-.56.25-.93.56-.5,1.37s.38,1.13-.06,1.63"/><path class="cls-1" d="M11.84,49a2.45,2.45,0,0,1,.87-3.13"/><path class="cls-1" d="M13.15,51.6a3.51,3.51,0,0,0,.44-3.5"/><path class="cls-1" d="M3.21,41.54a2.57,2.57,0,0,0,.63-1.25"/><path class="cls-1" d="M13.15,41.54a2.57,2.57,0,0,0,.63-1.25"/><rect class="cls-2" x="-33.94" y="40.29" width="49.71" height="49.71"/><rect class="cls-2" width="49.71" height="49.71"/></svg>