<!-- Generator: Adobe Illustrator 22.1.0, SVG Export Plug-In  -->
<svg version="1.1"
     xmlns="http://www.w3.org/2000/svg" xmlns:xlink="http://www.w3.org/1999/xlink" xmlns:a="http://ns.adobe.com/AdobeSVGViewerExtensions/3.0/"
     x="0px" y="0px" width="44.9px" height="41.3px" viewBox="0 0 44.9 41.3" style="enable-background:new 0 0 44.9 41.3;"
     xml:space="preserve">
<style type="text/css">
    .st0{fill:none;stroke:#000000;stroke-width:0.3;}
</style>
<defs>
</defs>
<polyline class="st0" points="6.4,0.1 5.3,2 5.3,3.3 "/>
<line class="st0" x1="5.3" y1="2" x2="4.1" y2="0.1"/>
<polyline class="st0" points="14.1,0.1 12.9,2 12.9,3.3 "/>
<line class="st0" x1="12.9" y1="2" x2="11.8" y2="0.1"/>
<polyline class="st0" points="21.7,0.1 20.5,2 20.5,3.3 "/>
<line class="st0" x1="20.5" y1="2" x2="19.3" y2="0.1"/>
<polyline class="st0" points="29.3,0.1 28.1,2 28.1,3.3 "/>
<line class="st0" x1="28.1" y1="2" x2="26.9" y2="0.1"/>
<polyline class="st0" points="37,0.1 35.8,2 35.8,3.3 "/>
<line class="st0" x1="35.8" y1="2" x2="34.6" y2="0.1"/>
<polyline class="st0" points="44.8,0.1 43.6,2 43.6,3.3 "/>
<line class="st0" x1="43.6" y1="2" x2="42.4" y2="0.1"/>
<polyline class="st0" points="40.8,10.5 39.6,8.6 39.6,7.2 "/>
<line class="st0" x1="39.6" y1="8.6" x2="38.4" y2="10.5"/>
<polyline class="st0" points="33.1,10.5 31.9,8.6 31.9,7.2 "/>
<line class="st0" x1="31.9" y1="8.6" x2="30.7" y2="10.5"/>
<polyline class="st0" points="25.4,10.5 24.2,8.6 24.2,7.2 "/>
<line class="st0" x1="24.2" y1="8.6" x2="23" y2="10.5"/>
<polyline class="st0" points="17.8,10.5 16.6,8.6 16.6,7.2 "/>
<line class="st0" x1="16.6" y1="8.6" x2="15.4" y2="10.5"/>
<polyline class="st0" points="10.2,10.5 9,8.6 9,7.2 "/>
<line class="st0" x1="9" y1="8.6" x2="7.8" y2="10.5"/>
<polyline class="st0" points="2.5,10.5 1.3,8.6 1.3,7.2 "/>
<line class="st0" x1="1.3" y1="8.6" x2="0.1" y2="10.5"/>
<polyline class="st0" points="6.4,15.5 5.3,17.4 5.3,18.8 "/>
<line class="st0" x1="5.3" y1="17.4" x2="4.1" y2="15.5"/>
<polyline class="st0" points="14.1,15.5 12.9,17.4 12.9,18.8 "/>
<line class="st0" x1="12.9" y1="17.4" x2="11.8" y2="15.5"/>
<polyline class="st0" points="21.7,15.5 20.5,17.4 20.5,18.8 "/>
<line class="st0" x1="20.5" y1="17.4" x2="19.3" y2="15.5"/>
<polyline class="st0" points="29.3,15.5 28.1,17.4 28.1,18.8 "/>
<line class="st0" x1="28.1" y1="17.4" x2="26.9" y2="15.5"/>
<polyline class="st0" points="37,15.5 35.8,17.4 35.8,18.8 "/>
<line class="st0" x1="35.8" y1="17.4" x2="34.6" y2="15.5"/>
<polyline class="st0" points="44.8,15.5 43.6,17.4 43.6,18.8 "/>
<line class="st0" x1="43.6" y1="17.4" x2="42.4" y2="15.5"/>
<polyline class="st0" points="40.8,25.9 39.6,24 39.6,22.7 "/>
<line class="st0" x1="39.6" y1="24" x2="38.4" y2="25.9"/>
<polyline class="st0" points="33.1,25.9 31.9,24 31.9,22.7 "/>
<line class="st0" x1="31.9" y1="24" x2="30.7" y2="25.9"/>
<polyline class="st0" points="25.4,25.9 24.2,24 24.2,22.7 "/>
<line class="st0" x1="24.2" y1="24" x2="23" y2="25.9"/>
<polyline class="st0" points="17.8,25.9 16.6,24 16.6,22.7 "/>
<line class="st0" x1="16.6" y1="24" x2="15.4" y2="25.9"/>
<polyline class="st0" points="10.2,25.9 9,24 9,22.7 "/>
<line class="st0" x1="9" y1="24" x2="7.8" y2="25.9"/>
<polyline class="st0" points="2.5,25.9 1.3,24 1.3,22.7 "/>
<line class="st0" x1="1.3" y1="24" x2="0.1" y2="25.9"/>
<polyline class="st0" points="6.4,30.9 5.3,32.8 5.3,34.1 "/>
<line class="st0" x1="5.3" y1="32.8" x2="4.1" y2="30.9"/>
<polyline class="st0" points="14.1,30.9 12.9,32.8 12.9,34.1 "/>
<line class="st0" x1="12.9" y1="32.8" x2="11.8" y2="30.9"/>
<polyline class="st0" points="21.7,30.9 20.5,32.8 20.5,34.1 "/>
<line class="st0" x1="20.5" y1="32.8" x2="19.3" y2="30.9"/>
<polyline class="st0" points="29.3,30.9 28.1,32.8 28.1,34.1 "/>
<line class="st0" x1="28.1" y1="32.8" x2="26.9" y2="30.9"/>
<polyline class="st0" points="37,30.9 35.8,32.8 35.8,34.1 "/>
<line class="st0" x1="35.8" y1="32.8" x2="34.6" y2="30.9"/>
<polyline class="st0" points="44.8,30.9 43.6,32.8 43.6,34.1 "/>
<line class="st0" x1="43.6" y1="32.8" x2="42.4" y2="30.9"/>
<polyline class="st0" points="40.8,41.2 39.6,39.3 39.6,38 "/>
<line class="st0" x1="39.6" y1="39.3" x2="38.4" y2="41.2"/>
<polyline class="st0" points="33.1,41.2 31.9,39.3 31.9,38 "/>
<line class="st0" x1="31.9" y1="39.3" x2="30.7" y2="41.2"/>
<polyline class="st0" points="25.4,41.2 24.2,39.3 24.2,38 "/>
<line class="st0" x1="24.2" y1="39.3" x2="23" y2="41.2"/>
<polyline class="st0" points="17.8,41.2 16.6,39.3 16.6,38 "/>
<line class="st0" x1="16.6" y1="39.3" x2="15.4" y2="41.2"/>
<polyline class="st0" points="10.2,41.2 9,39.3 9,38 "/>
<line class="st0" x1="9" y1="39.3" x2="7.8" y2="41.2"/>
<polyline class="st0" points="2.5,41.2 1.3,39.3 1.3,38 "/>
<line class="st0" x1="1.3" y1="39.3" x2="0.1" y2="41.2"/>
</svg>
