<!-- Generator: Adobe Illustrator 22.1.0, SVG Export Plug-In  -->
<svg version="1.1"
     xmlns="http://www.w3.org/2000/svg" xmlns:xlink="http://www.w3.org/1999/xlink" xmlns:a="http://ns.adobe.com/AdobeSVGViewerExtensions/3.0/"
     x="0px" y="0px" width="45px" height="41.8px" viewBox="0 0 45 41.8" style="enable-background:new 0 0 45 41.8;"
     xml:space="preserve">
<style type="text/css">
    .st0{fill:none;stroke:#000000;stroke-width:0.3;}
</style>
<defs>
</defs>
<line class="st0" x1="4.2" y1="0.1" x2="6.5" y2="3.3"/>
<line class="st0" x1="6.6" y1="0.1" x2="4.2" y2="3.3"/>
<line class="st0" x1="11.9" y1="0.1" x2="14.2" y2="3.3"/>
<line class="st0" x1="14.2" y1="0.1" x2="11.9" y2="3.3"/>
<line class="st0" x1="19.4" y1="0.1" x2="21.7" y2="3.3"/>
<line class="st0" x1="21.8" y1="0.1" x2="19.4" y2="3.3"/>
<line class="st0" x1="27.1" y1="0.1" x2="29.4" y2="3.3"/>
<line class="st0" x1="29.4" y1="0.1" x2="27.1" y2="3.3"/>
<line class="st0" x1="34.7" y1="0.1" x2="37.1" y2="3.3"/>
<line class="st0" x1="37.1" y1="0.1" x2="34.7" y2="3.3"/>
<line class="st0" x1="42.5" y1="0.1" x2="44.8" y2="3.3"/>
<line class="st0" x1="44.9" y1="0.1" x2="42.5" y2="3.3"/>
<line class="st0" x1="0.3" y1="7.8" x2="2.6" y2="11"/>
<line class="st0" x1="2.7" y1="7.8" x2="0.3" y2="11"/>
<line class="st0" x1="8" y1="7.8" x2="10.3" y2="11"/>
<line class="st0" x1="10.4" y1="7.8" x2="8" y2="11"/>
<line class="st0" x1="15.5" y1="7.8" x2="17.9" y2="11"/>
<line class="st0" x1="17.9" y1="7.8" x2="15.5" y2="11"/>
<line class="st0" x1="23.2" y1="7.8" x2="25.5" y2="11"/>
<line class="st0" x1="25.5" y1="7.8" x2="23.2" y2="11"/>
<line class="st0" x1="30.9" y1="7.8" x2="33.2" y2="11"/>
<line class="st0" x1="33.2" y1="7.8" x2="30.9" y2="11"/>
<line class="st0" x1="38.6" y1="7.8" x2="40.9" y2="11"/>
<line class="st0" x1="41" y1="7.8" x2="38.6" y2="11"/>
<line class="st0" x1="4.2" y1="15.5" x2="6.5" y2="18.7"/>
<line class="st0" x1="6.6" y1="15.5" x2="4.2" y2="18.8"/>
<line class="st0" x1="11.9" y1="15.5" x2="14.2" y2="18.7"/>
<line class="st0" x1="14.3" y1="15.5" x2="11.9" y2="18.8"/>
<line class="st0" x1="19.5" y1="15.5" x2="21.8" y2="18.7"/>
<line class="st0" x1="21.8" y1="15.5" x2="19.5" y2="18.8"/>
<line class="st0" x1="27.1" y1="15.5" x2="29.4" y2="18.7"/>
<line class="st0" x1="29.5" y1="15.5" x2="27.1" y2="18.8"/>
<line class="st0" x1="34.8" y1="15.5" x2="37.1" y2="18.7"/>
<line class="st0" x1="37.1" y1="15.5" x2="34.8" y2="18.8"/>
<line class="st0" x1="42.5" y1="15.5" x2="44.8" y2="18.7"/>
<line class="st0" x1="44.9" y1="15.5" x2="42.5" y2="18.8"/>
<line class="st0" x1="0.1" y1="23.3" x2="2.4" y2="26.5"/>
<line class="st0" x1="2.5" y1="23.3" x2="0.1" y2="26.5"/>
<line class="st0" x1="7.8" y1="23.3" x2="10.1" y2="26.5"/>
<line class="st0" x1="10.2" y1="23.3" x2="7.8" y2="26.5"/>
<line class="st0" x1="15.4" y1="23.3" x2="17.7" y2="26.5"/>
<line class="st0" x1="17.7" y1="23.3" x2="15.4" y2="26.5"/>
<line class="st0" x1="23" y1="23.3" x2="25.3" y2="26.5"/>
<line class="st0" x1="25.4" y1="23.3" x2="23" y2="26.5"/>
<line class="st0" x1="30.7" y1="23.3" x2="33" y2="26.5"/>
<line class="st0" x1="33.1" y1="23.3" x2="30.7" y2="26.5"/>
<line class="st0" x1="38.4" y1="23.3" x2="40.7" y2="26.5"/>
<line class="st0" x1="40.8" y1="23.3" x2="38.4" y2="26.5"/>
<line class="st0" x1="4.1" y1="30.8" x2="6.4" y2="34"/>
<line class="st0" x1="6.5" y1="30.8" x2="4.1" y2="34"/>
<line class="st0" x1="11.8" y1="30.8" x2="14.1" y2="34"/>
<line class="st0" x1="14.2" y1="30.8" x2="11.8" y2="34"/>
<line class="st0" x1="19.4" y1="30.8" x2="21.7" y2="34"/>
<line class="st0" x1="21.7" y1="30.8" x2="19.4" y2="34"/>
<line class="st0" x1="27" y1="30.8" x2="29.3" y2="34"/>
<line class="st0" x1="29.4" y1="30.8" x2="27" y2="34"/>
<line class="st0" x1="34.7" y1="30.8" x2="37" y2="34"/>
<line class="st0" x1="37.1" y1="30.8" x2="34.7" y2="34"/>
<line class="st0" x1="42.4" y1="30.8" x2="44.7" y2="34"/>
<line class="st0" x1="44.8" y1="30.8" x2="42.4" y2="34"/>
<line class="st0" x1="0.3" y1="38.4" x2="2.6" y2="41.6"/>
<line class="st0" x1="2.7" y1="38.4" x2="0.3" y2="41.7"/>
<line class="st0" x1="8" y1="38.4" x2="10.3" y2="41.6"/>
<line class="st0" x1="10.4" y1="38.4" x2="8" y2="41.7"/>
<line class="st0" x1="15.5" y1="38.4" x2="17.9" y2="41.6"/>
<line class="st0" x1="17.9" y1="38.4" x2="15.5" y2="41.7"/>
<line class="st0" x1="23.2" y1="38.4" x2="25.5" y2="41.6"/>
<line class="st0" x1="25.5" y1="38.4" x2="23.2" y2="41.7"/>
<line class="st0" x1="30.9" y1="38.4" x2="33.2" y2="41.6"/>
<line class="st0" x1="33.2" y1="38.4" x2="30.9" y2="41.7"/>
<line class="st0" x1="38.6" y1="38.4" x2="40.9" y2="41.6"/>
<line class="st0" x1="41" y1="38.4" x2="38.6" y2="41.7"/>
</svg>
