<svg id="Layer_1" data-name="Layer 1" xmlns="http://www.w3.org/2000/svg" width="46" height="46" viewBox="0 0 46 46"><defs><style>.cls-1,.cls-2{fill:none;}.cls-2{stroke:#000;stroke-width:0.3px;}</style></defs><title>Artboard 37</title><rect class="cls-1" x="19.79" y="-12.78" width="46" height="46"/><line class="cls-2" x1="20.9" y1="-1.06" x2="23.22" y2="2.13"/><line class="cls-2" x1="23.28" y1="-1.06" x2="20.9" y2="2.19"/><line class="cls-2" x1="28.59" y1="-1.06" x2="30.9" y2="2.13"/><line class="cls-2" x1="30.97" y1="-1.06" x2="28.59" y2="2.19"/><line class="cls-2" x1="36.15" y1="-1.06" x2="38.47" y2="2.13"/><line class="cls-2" x1="38.53" y1="-1.06" x2="36.15" y2="2.19"/><line class="cls-2" x1="43.78" y1="-1.06" x2="46.09" y2="2.13"/><line class="cls-2" x1="46.15" y1="-1.06" x2="43.78" y2="2.19"/><line class="cls-2" x1="24.82" y1="6.69" x2="27.13" y2="9.88"/><line class="cls-2" x1="27.19" y1="6.69" x2="24.82" y2="9.94"/><line class="cls-2" x1="32.51" y1="6.69" x2="34.82" y2="9.88"/><line class="cls-2" x1="34.88" y1="6.69" x2="32.51" y2="9.94"/><line class="cls-2" x1="40.07" y1="6.69" x2="42.38" y2="9.88"/><line class="cls-2" x1="42.44" y1="6.69" x2="40.07" y2="9.94"/><line class="cls-2" x1="20.74" y1="14.44" x2="23.05" y2="17.63"/><line class="cls-2" x1="23.11" y1="14.44" x2="20.74" y2="17.69"/><line class="cls-2" x1="28.42" y1="14.44" x2="30.74" y2="17.63"/><line class="cls-2" x1="30.8" y1="14.44" x2="28.42" y2="17.69"/><line class="cls-2" x1="35.99" y1="14.44" x2="38.3" y2="17.63"/><line class="cls-2" x1="38.36" y1="14.44" x2="35.99" y2="17.69"/><line class="cls-2" x1="43.61" y1="14.44" x2="45.92" y2="17.63"/><line class="cls-2" x1="45.99" y1="14.44" x2="43.61" y2="17.69"/><line class="cls-2" x1="24.74" y1="21.94" x2="27.05" y2="25.13"/><line class="cls-2" x1="27.11" y1="21.94" x2="24.74" y2="25.19"/><line class="cls-2" x1="32.42" y1="21.94" x2="34.74" y2="25.13"/><line class="cls-2" x1="34.8" y1="21.94" x2="32.42" y2="25.19"/><line class="cls-2" x1="39.99" y1="21.94" x2="42.3" y2="25.13"/><line class="cls-2" x1="42.36" y1="21.94" x2="39.99" y2="25.19"/><line class="cls-2" x1="20.9" y1="29.61" x2="23.22" y2="32.79"/><line class="cls-2" x1="23.28" y1="29.61" x2="20.9" y2="32.86"/><line class="cls-2" x1="28.59" y1="29.61" x2="30.9" y2="32.79"/><line class="cls-2" x1="30.97" y1="29.61" x2="28.59" y2="32.86"/><line class="cls-2" x1="36.15" y1="29.61" x2="38.47" y2="32.79"/><line class="cls-2" x1="38.53" y1="29.61" x2="36.15" y2="32.86"/><line class="cls-2" x1="43.78" y1="29.61" x2="46.09" y2="32.79"/><line class="cls-2" x1="46.15" y1="29.61" x2="43.78" y2="32.86"/><rect class="cls-1" x="19.79" y="33.22" width="46" height="46"/><line class="cls-2" x1="24.8" y1="37.25" x2="27.11" y2="40.44"/><line class="cls-2" x1="27.17" y1="37.25" x2="24.8" y2="40.5"/><line class="cls-2" x1="32.49" y1="37.25" x2="34.8" y2="40.44"/><line class="cls-2" x1="34.86" y1="37.25" x2="32.49" y2="40.5"/><line class="cls-2" x1="40.05" y1="37.25" x2="42.36" y2="40.44"/><line class="cls-2" x1="42.42" y1="37.25" x2="40.05" y2="40.5"/><line class="cls-2" x1="20.9" y1="44.94" x2="23.22" y2="48.13"/><line class="cls-2" x1="23.28" y1="44.94" x2="20.9" y2="48.19"/><line class="cls-2" x1="28.59" y1="44.94" x2="30.9" y2="48.13"/><line class="cls-2" x1="30.97" y1="44.94" x2="28.59" y2="48.19"/><line class="cls-2" x1="36.15" y1="44.94" x2="38.47" y2="48.13"/><line class="cls-2" x1="38.53" y1="44.94" x2="36.15" y2="48.19"/><line class="cls-2" x1="43.78" y1="44.94" x2="46.09" y2="48.13"/><line class="cls-2" x1="46.15" y1="44.94" x2="43.78" y2="48.19"/><rect class="cls-1" x="-26.21" y="-12.78" width="46" height="46"/><line class="cls-2" x1="-2.22" y1="-1.06" x2="0.09" y2="2.13"/><line class="cls-2" x1="0.15" y1="-1.06" x2="-2.22" y2="2.19"/><line class="cls-2" x1="5.47" y1="-1.06" x2="7.78" y2="2.13"/><line class="cls-2" x1="7.84" y1="-1.06" x2="5.47" y2="2.19"/><line class="cls-2" x1="13.22" y1="-1.06" x2="15.53" y2="2.13"/><line class="cls-2" x1="15.59" y1="-1.06" x2="13.22" y2="2.19"/><line class="cls-2" x1="1.69" y1="6.69" x2="4.01" y2="9.88"/><line class="cls-2" x1="4.07" y1="6.69" x2="1.69" y2="9.94"/><line class="cls-2" x1="9.38" y1="6.69" x2="11.69" y2="9.88"/><line class="cls-2" x1="11.76" y1="6.69" x2="9.38" y2="9.94"/><line class="cls-2" x1="17.13" y1="6.69" x2="19.44" y2="9.88"/><line class="cls-2" x1="19.51" y1="6.69" x2="17.13" y2="9.94"/><line class="cls-2" x1="-2.39" y1="14.44" x2="-0.08" y2="17.63"/><line class="cls-2" x1="-0.01" y1="14.44" x2="-2.39" y2="17.69"/><line class="cls-2" x1="5.3" y1="14.44" x2="7.61" y2="17.63"/><line class="cls-2" x1="7.67" y1="14.44" x2="5.3" y2="17.69"/><line class="cls-2" x1="13.05" y1="14.44" x2="15.36" y2="17.63"/><line class="cls-2" x1="15.42" y1="14.44" x2="13.05" y2="17.69"/><line class="cls-2" x1="1.61" y1="21.94" x2="3.92" y2="25.13"/><line class="cls-2" x1="3.99" y1="21.94" x2="1.61" y2="25.19"/><line class="cls-2" x1="9.3" y1="21.94" x2="11.61" y2="25.13"/><line class="cls-2" x1="11.67" y1="21.94" x2="9.3" y2="25.19"/><line class="cls-2" x1="17.05" y1="21.94" x2="19.36" y2="25.13"/><line class="cls-2" x1="19.42" y1="21.94" x2="17.05" y2="25.19"/><line class="cls-2" x1="-2.22" y1="29.61" x2="0.09" y2="32.79"/><line class="cls-2" x1="0.15" y1="29.61" x2="-2.22" y2="32.86"/><line class="cls-2" x1="5.47" y1="29.61" x2="7.78" y2="32.79"/><line class="cls-2" x1="7.84" y1="29.61" x2="5.47" y2="32.86"/><line class="cls-2" x1="13.22" y1="29.61" x2="15.53" y2="32.79"/><line class="cls-2" x1="15.59" y1="29.61" x2="13.22" y2="32.86"/><rect class="cls-1" x="-26.21" y="33.22" width="46" height="46"/><line class="cls-2" x1="1.67" y1="37.25" x2="3.99" y2="40.44"/><line class="cls-2" x1="4.05" y1="37.25" x2="1.67" y2="40.5"/><line class="cls-2" x1="9.36" y1="37.25" x2="11.67" y2="40.44"/><line class="cls-2" x1="11.74" y1="37.25" x2="9.36" y2="40.5"/><line class="cls-2" x1="17.11" y1="37.25" x2="19.42" y2="40.44"/><line class="cls-2" x1="19.49" y1="37.25" x2="17.11" y2="40.5"/><line class="cls-2" x1="-2.22" y1="44.94" x2="0.09" y2="48.13"/><line class="cls-2" x1="0.15" y1="44.94" x2="-2.22" y2="48.19"/><line class="cls-2" x1="5.47" y1="44.94" x2="7.78" y2="48.13"/><line class="cls-2" x1="7.84" y1="44.94" x2="5.47" y2="48.19"/><line class="cls-2" x1="13.22" y1="44.94" x2="15.53" y2="48.13"/><line class="cls-2" x1="15.59" y1="44.94" x2="13.22" y2="48.19"/><rect class="cls-1" width="46" height="46"/></svg>