<svg id="Layer_1" data-name="Layer 1" xmlns="http://www.w3.org/2000/svg" width="68.98" height="68.98" viewBox="0 0 68.98 68.98"><defs><style>.cls-1,.cls-2{fill:none;}.cls-2{stroke:#000;stroke-width:0.3px;}</style></defs><title>Artboard 37</title><rect class="cls-1" x="46.39" y="-19.94" width="68.98" height="68.98"/><line class="cls-2" x1="61.47" y1="6.54" x2="56.78" y2="6.54"/><line class="cls-2" x1="52.15" y1="6.54" x2="56.78" y2="6.54"/><line class="cls-2" x1="56.78" y1="8.23" x2="56.78" y2="6.54"/><line class="cls-2" x1="56.78" y1="6.54" x2="56.78" y2="5.04"/><line class="cls-2" x1="46.39" y1="0.79" x2="48.13" y2="0.79"/><line class="cls-2" x1="52.82" y1="0.79" x2="48.13" y2="0.79"/><line class="cls-2" x1="48.13" y1="0.79" x2="48.13" y2="-0.71"/><line class="cls-2" x1="48.13" y1="2.48" x2="48.13" y2="0.79"/><line class="cls-2" x1="70.07" y1="0.79" x2="65.38" y2="0.79"/><line class="cls-2" x1="60.76" y1="0.79" x2="65.38" y2="0.79"/><line class="cls-2" x1="65.38" y1="0.79" x2="65.38" y2="-0.71"/><line class="cls-2" x1="65.38" y1="0.79" x2="65.38" y2="2.48"/><line class="cls-2" x1="52.82" y1="12.33" x2="48.13" y2="12.33"/><line class="cls-2" x1="48.13" y1="12.33" x2="46.39" y2="12.33"/><line class="cls-2" x1="48.13" y1="12.33" x2="48.13" y2="10.83"/><line class="cls-2" x1="48.13" y1="12.33" x2="48.13" y2="14.02"/><line class="cls-2" x1="60.76" y1="12.33" x2="65.38" y2="12.33"/><line class="cls-2" x1="70.07" y1="12.33" x2="65.38" y2="12.33"/><line class="cls-2" x1="65.38" y1="14.02" x2="65.38" y2="12.33"/><line class="cls-2" x1="65.38" y1="12.33" x2="65.38" y2="10.83"/><line class="cls-2" x1="52.15" y1="41.08" x2="56.78" y2="41.08"/><line class="cls-2" x1="61.47" y1="41.08" x2="56.78" y2="41.08"/><line class="cls-2" x1="56.78" y1="41.08" x2="56.78" y2="39.58"/><line class="cls-2" x1="56.78" y1="42.77" x2="56.78" y2="41.08"/><line class="cls-2" x1="48.13" y1="35.33" x2="46.39" y2="35.33"/><line class="cls-2" x1="52.82" y1="35.33" x2="48.13" y2="35.33"/><line class="cls-2" x1="48.13" y1="35.33" x2="48.13" y2="37.02"/><line class="cls-2" x1="48.13" y1="35.33" x2="48.13" y2="33.83"/><line class="cls-2" x1="60.76" y1="35.33" x2="65.38" y2="35.33"/><line class="cls-2" x1="70.07" y1="35.33" x2="65.38" y2="35.33"/><line class="cls-2" x1="65.38" y1="35.33" x2="65.38" y2="37.02"/><line class="cls-2" x1="65.38" y1="35.33" x2="65.38" y2="33.83"/><line class="cls-2" x1="61.47" y1="29.6" x2="56.78" y2="29.6"/><line class="cls-2" x1="52.15" y1="29.6" x2="56.78" y2="29.6"/><line class="cls-2" x1="56.78" y1="31.29" x2="56.78" y2="29.6"/><line class="cls-2" x1="56.78" y1="29.6" x2="56.78" y2="28.1"/><line class="cls-2" x1="46.39" y1="23.85" x2="48.13" y2="23.85"/><line class="cls-2" x1="52.82" y1="23.85" x2="48.13" y2="23.85"/><line class="cls-2" x1="48.13" y1="25.54" x2="48.13" y2="23.85"/><line class="cls-2" x1="48.13" y1="22.35" x2="48.13" y2="23.85"/><line class="cls-2" x1="60.76" y1="23.85" x2="65.38" y2="23.85"/><line class="cls-2" x1="70.07" y1="23.85" x2="65.38" y2="23.85"/><line class="cls-2" x1="65.38" y1="25.54" x2="65.38" y2="23.85"/><line class="cls-2" x1="65.38" y1="23.85" x2="65.38" y2="22.35"/><line class="cls-2" x1="48.13" y1="46.88" x2="46.39" y2="46.88"/><line class="cls-2" x1="52.82" y1="46.88" x2="48.13" y2="46.88"/><line class="cls-2" x1="48.13" y1="48.56" x2="48.13" y2="46.88"/><line class="cls-2" x1="48.13" y1="45.38" x2="48.13" y2="46.88"/><line class="cls-2" x1="70.07" y1="46.88" x2="65.38" y2="46.88"/><line class="cls-2" x1="65.38" y1="46.88" x2="60.76" y2="46.88"/><line class="cls-2" x1="65.38" y1="45.38" x2="65.38" y2="46.88"/><line class="cls-2" x1="65.38" y1="46.88" x2="65.38" y2="48.56"/><line class="cls-2" x1="52.15" y1="18.13" x2="56.78" y2="18.13"/><line class="cls-2" x1="61.47" y1="18.13" x2="56.78" y2="18.13"/><line class="cls-2" x1="56.78" y1="18.13" x2="56.78" y2="16.63"/><line class="cls-2" x1="56.78" y1="19.81" x2="56.78" y2="18.13"/><rect class="cls-1" x="46.39" y="49.04" width="68.98" height="68.98"/><line class="cls-2" x1="48.13" y1="69.77" x2="48.13" y2="68.27"/><line class="cls-2" x1="65.38" y1="69.77" x2="65.38" y2="68.27"/><line class="cls-2" x1="61.47" y1="64.05" x2="56.78" y2="64.05"/><line class="cls-2" x1="52.15" y1="64.05" x2="56.78" y2="64.05"/><line class="cls-2" x1="56.78" y1="64.05" x2="56.78" y2="62.55"/><line class="cls-2" x1="56.78" y1="65.73" x2="56.78" y2="64.05"/><line class="cls-2" x1="46.39" y1="58.3" x2="48.13" y2="58.3"/><line class="cls-2" x1="52.82" y1="58.3" x2="48.13" y2="58.3"/><line class="cls-2" x1="48.13" y1="56.8" x2="48.13" y2="58.3"/><line class="cls-2" x1="48.13" y1="59.98" x2="48.13" y2="58.3"/><line class="cls-2" x1="70.07" y1="58.3" x2="65.38" y2="58.3"/><line class="cls-2" x1="60.76" y1="58.3" x2="65.38" y2="58.3"/><line class="cls-2" x1="65.38" y1="58.3" x2="65.38" y2="56.8"/><line class="cls-2" x1="65.38" y1="59.98" x2="65.38" y2="58.3"/><line class="cls-2" x1="56.78" y1="52.57" x2="61.47" y2="52.57"/><line class="cls-2" x1="52.15" y1="52.57" x2="56.78" y2="52.57"/><line class="cls-2" x1="56.78" y1="54.25" x2="56.78" y2="52.57"/><line class="cls-2" x1="56.78" y1="52.57" x2="56.78" y2="51.07"/><rect class="cls-1" x="-22.59" y="-19.94" width="68.98" height="68.98"/><line class="cls-2" x1="0.42" y1="6.54" x2="5.05" y2="6.54"/><line class="cls-2" x1="9.73" y1="6.54" x2="5.05" y2="6.54"/><line class="cls-2" x1="5.05" y1="6.54" x2="5.05" y2="5.04"/><line class="cls-2" x1="5.05" y1="8.23" x2="5.05" y2="6.54"/><line class="cls-2" x1="1.09" y1="0.79" x2="-3.6" y2="0.79"/><line class="cls-2" x1="1.09" y1="12.33" x2="-3.6" y2="12.33"/><line class="cls-2" x1="9.73" y1="41.08" x2="5.05" y2="41.08"/><line class="cls-2" x1="0.42" y1="41.08" x2="5.05" y2="41.08"/><line class="cls-2" x1="5.05" y1="41.08" x2="5.05" y2="42.77"/><line class="cls-2" x1="5.05" y1="39.58" x2="5.05" y2="41.08"/><line class="cls-2" x1="1.09" y1="35.33" x2="-3.6" y2="35.33"/><line class="cls-2" x1="9.73" y1="29.6" x2="5.05" y2="29.6"/><line class="cls-2" x1="0.42" y1="29.6" x2="5.05" y2="29.6"/><line class="cls-2" x1="5.05" y1="29.6" x2="5.05" y2="31.29"/><line class="cls-2" x1="5.05" y1="29.6" x2="5.05" y2="28.1"/><line class="cls-2" x1="1.09" y1="23.85" x2="-3.6" y2="23.85"/><line class="cls-2" x1="1.09" y1="46.88" x2="-3.6" y2="46.88"/><line class="cls-2" x1="0.42" y1="18.13" x2="5.05" y2="18.13"/><line class="cls-2" x1="9.73" y1="18.13" x2="5.05" y2="18.13"/><line class="cls-2" x1="5.05" y1="18.13" x2="5.05" y2="16.63"/><line class="cls-2" x1="5.05" y1="18.13" x2="5.05" y2="19.81"/><line class="cls-2" x1="17.65" y1="6.54" x2="22.28" y2="6.54"/><line class="cls-2" x1="26.97" y1="6.54" x2="22.28" y2="6.54"/><line class="cls-2" x1="22.28" y1="6.54" x2="22.28" y2="5.04"/><line class="cls-2" x1="22.28" y1="8.23" x2="22.28" y2="6.54"/><line class="cls-2" x1="39.53" y1="6.54" x2="44.22" y2="6.54"/><line class="cls-2" x1="34.9" y1="6.54" x2="39.53" y2="6.54"/><line class="cls-2" x1="39.53" y1="6.54" x2="39.53" y2="5.04"/><line class="cls-2" x1="39.53" y1="6.54" x2="39.53" y2="8.23"/><line class="cls-2" x1="18.32" y1="0.79" x2="13.63" y2="0.79"/><line class="cls-2" x1="9.01" y1="0.79" x2="13.63" y2="0.79"/><line class="cls-2" x1="13.63" y1="0.79" x2="13.63" y2="2.48"/><line class="cls-2" x1="13.63" y1="0.79" x2="13.63" y2="-0.71"/><line class="cls-2" x1="35.57" y1="0.79" x2="30.88" y2="0.79"/><line class="cls-2" x1="26.26" y1="0.79" x2="30.88" y2="0.79"/><line class="cls-2" x1="30.88" y1="0.79" x2="30.88" y2="2.48"/><line class="cls-2" x1="30.88" y1="0.79" x2="30.88" y2="-0.71"/><line class="cls-2" x1="46.39" y1="0.79" x2="43.51" y2="0.79"/><line class="cls-2" x1="18.32" y1="12.33" x2="13.63" y2="12.33"/><line class="cls-2" x1="9.01" y1="12.33" x2="13.63" y2="12.33"/><line class="cls-2" x1="13.63" y1="12.33" x2="13.63" y2="14.02"/><line class="cls-2" x1="13.63" y1="12.33" x2="13.63" y2="10.83"/><line class="cls-2" x1="26.26" y1="12.33" x2="30.88" y2="12.33"/><line class="cls-2" x1="35.57" y1="12.33" x2="30.88" y2="12.33"/><line class="cls-2" x1="30.88" y1="12.33" x2="30.88" y2="14.02"/><line class="cls-2" x1="30.88" y1="12.33" x2="30.88" y2="10.83"/><line class="cls-2" x1="43.51" y1="12.33" x2="46.39" y2="12.33"/><line class="cls-2" x1="26.97" y1="41.08" x2="22.28" y2="41.08"/><line class="cls-2" x1="17.65" y1="41.08" x2="22.28" y2="41.08"/><line class="cls-2" x1="22.28" y1="39.58" x2="22.28" y2="41.08"/><line class="cls-2" x1="22.28" y1="41.08" x2="22.28" y2="42.77"/><line class="cls-2" x1="39.53" y1="41.08" x2="44.22" y2="41.08"/><line class="cls-2" x1="34.9" y1="41.08" x2="39.53" y2="41.08"/><line class="cls-2" x1="39.53" y1="41.08" x2="39.53" y2="42.77"/><line class="cls-2" x1="39.53" y1="41.08" x2="39.53" y2="39.58"/><line class="cls-2" x1="9.01" y1="35.33" x2="13.63" y2="35.33"/><line class="cls-2" x1="18.32" y1="35.33" x2="13.63" y2="35.33"/><line class="cls-2" x1="13.63" y1="35.33" x2="13.63" y2="37.02"/><line class="cls-2" x1="13.63" y1="35.33" x2="13.63" y2="33.83"/><line class="cls-2" x1="30.88" y1="35.33" x2="35.57" y2="35.33"/><line class="cls-2" x1="26.26" y1="35.33" x2="30.88" y2="35.33"/><line class="cls-2" x1="30.88" y1="35.33" x2="30.88" y2="37.02"/><line class="cls-2" x1="30.88" y1="35.33" x2="30.88" y2="33.83"/><line class="cls-2" x1="43.51" y1="35.33" x2="46.39" y2="35.33"/><line class="cls-2" x1="26.97" y1="29.6" x2="22.28" y2="29.6"/><line class="cls-2" x1="17.65" y1="29.6" x2="22.28" y2="29.6"/><line class="cls-2" x1="22.28" y1="29.6" x2="22.28" y2="31.29"/><line class="cls-2" x1="22.28" y1="29.6" x2="22.28" y2="28.1"/><line class="cls-2" x1="39.53" y1="29.6" x2="44.22" y2="29.6"/><line class="cls-2" x1="39.53" y1="29.6" x2="34.9" y2="29.6"/><line class="cls-2" x1="39.53" y1="29.6" x2="39.53" y2="28.1"/><line class="cls-2" x1="39.53" y1="29.6" x2="39.53" y2="31.29"/><line class="cls-2" x1="18.32" y1="23.85" x2="13.63" y2="23.85"/><line class="cls-2" x1="9.01" y1="23.85" x2="13.63" y2="23.85"/><line class="cls-2" x1="13.63" y1="22.35" x2="13.63" y2="23.85"/><line class="cls-2" x1="13.63" y1="23.85" x2="13.63" y2="25.54"/><line class="cls-2" x1="30.88" y1="23.85" x2="35.57" y2="23.85"/><line class="cls-2" x1="26.26" y1="23.85" x2="30.88" y2="23.85"/><line class="cls-2" x1="30.88" y1="23.85" x2="30.88" y2="22.35"/><line class="cls-2" x1="30.88" y1="23.85" x2="30.88" y2="25.54"/><line class="cls-2" x1="43.51" y1="23.85" x2="46.39" y2="23.85"/><line class="cls-2" x1="18.32" y1="46.88" x2="13.63" y2="46.88"/><line class="cls-2" x1="13.63" y1="46.88" x2="9.01" y2="46.88"/><line class="cls-2" x1="13.63" y1="45.38" x2="13.63" y2="46.88"/><line class="cls-2" x1="13.63" y1="46.88" x2="13.63" y2="48.56"/><line class="cls-2" x1="35.57" y1="46.88" x2="30.88" y2="46.88"/><line class="cls-2" x1="30.88" y1="46.88" x2="26.26" y2="46.88"/><line class="cls-2" x1="30.88" y1="45.38" x2="30.88" y2="46.88"/><line class="cls-2" x1="30.88" y1="46.88" x2="30.88" y2="48.56"/><line class="cls-2" x1="43.51" y1="46.88" x2="46.39" y2="46.88"/><line class="cls-2" x1="17.65" y1="18.13" x2="22.28" y2="18.13"/><line class="cls-2" x1="26.97" y1="18.13" x2="22.28" y2="18.13"/><line class="cls-2" x1="22.28" y1="18.13" x2="22.28" y2="16.63"/><line class="cls-2" x1="22.28" y1="18.13" x2="22.28" y2="19.81"/><line class="cls-2" x1="34.9" y1="18.13" x2="39.53" y2="18.13"/><line class="cls-2" x1="44.22" y1="18.13" x2="39.53" y2="18.13"/><line class="cls-2" x1="39.53" y1="18.13" x2="39.53" y2="19.81"/><line class="cls-2" x1="39.53" y1="16.63" x2="39.53" y2="18.13"/><rect class="cls-1" x="-22.59" y="49.04" width="68.98" height="68.98"/><line class="cls-2" x1="0.42" y1="64.05" x2="5.05" y2="64.05"/><line class="cls-2" x1="9.73" y1="64.05" x2="5.05" y2="64.05"/><line class="cls-2" x1="5.05" y1="64.05" x2="5.05" y2="62.55"/><line class="cls-2" x1="5.05" y1="64.05" x2="5.05" y2="65.73"/><line class="cls-2" x1="1.09" y1="58.3" x2="-3.6" y2="58.3"/><line class="cls-2" x1="5.05" y1="52.57" x2="9.73" y2="52.57"/><line class="cls-2" x1="0.42" y1="52.57" x2="5.05" y2="52.57"/><line class="cls-2" x1="5.05" y1="54.25" x2="5.05" y2="52.57"/><line class="cls-2" x1="5.05" y1="52.57" x2="5.05" y2="51.07"/><line class="cls-2" x1="13.63" y1="69.77" x2="13.63" y2="68.27"/><line class="cls-2" x1="30.88" y1="69.77" x2="30.88" y2="68.27"/><line class="cls-2" x1="17.65" y1="64.05" x2="22.28" y2="64.05"/><line class="cls-2" x1="26.97" y1="64.05" x2="22.28" y2="64.05"/><line class="cls-2" x1="22.28" y1="64.05" x2="22.28" y2="62.55"/><line class="cls-2" x1="22.28" y1="64.05" x2="22.28" y2="65.73"/><line class="cls-2" x1="34.9" y1="64.05" x2="39.53" y2="64.05"/><line class="cls-2" x1="39.53" y1="64.05" x2="44.22" y2="64.05"/><line class="cls-2" x1="39.53" y1="64.05" x2="39.53" y2="65.73"/><line class="cls-2" x1="39.53" y1="64.05" x2="39.53" y2="62.55"/><line class="cls-2" x1="18.32" y1="58.3" x2="13.63" y2="58.3"/><line class="cls-2" x1="9.01" y1="58.3" x2="13.63" y2="58.3"/><line class="cls-2" x1="13.63" y1="59.98" x2="13.63" y2="58.3"/><line class="cls-2" x1="13.63" y1="58.3" x2="13.63" y2="56.8"/><line class="cls-2" x1="26.26" y1="58.3" x2="30.88" y2="58.3"/><line class="cls-2" x1="35.57" y1="58.3" x2="30.88" y2="58.3"/><line class="cls-2" x1="30.88" y1="59.98" x2="30.88" y2="58.3"/><line class="cls-2" x1="30.88" y1="58.3" x2="30.88" y2="56.8"/><line class="cls-2" x1="43.51" y1="58.3" x2="46.39" y2="58.3"/><line class="cls-2" x1="22.28" y1="52.57" x2="26.97" y2="52.57"/><line class="cls-2" x1="17.65" y1="52.57" x2="22.28" y2="52.57"/><line class="cls-2" x1="22.28" y1="52.57" x2="22.28" y2="51.07"/><line class="cls-2" x1="22.28" y1="54.25" x2="22.28" y2="52.57"/><line class="cls-2" x1="34.9" y1="52.57" x2="39.53" y2="52.57"/><line class="cls-2" x1="39.53" y1="52.57" x2="44.22" y2="52.57"/><line class="cls-2" x1="39.53" y1="52.57" x2="39.53" y2="51.07"/><line class="cls-2" x1="39.53" y1="54.25" x2="39.53" y2="52.57"/><rect class="cls-1" width="68.98" height="68.98"/></svg>