<!-- Generator: Adobe Illustrator 22.1.0, SVG Export Plug-In  -->
<svg version="1.1"
     xmlns="http://www.w3.org/2000/svg" xmlns:xlink="http://www.w3.org/1999/xlink" xmlns:a="http://ns.adobe.com/AdobeSVGViewerExtensions/3.0/"
     x="0px" y="0px" width="53.5px" height="53.5px" viewBox="0 0 53.5 53.5" style="enable-background:new 0 0 53.5 53.5;"
     xml:space="preserve">
<style type="text/css">
    .st0{fill:none;stroke:#000000;stroke-width:0.3;stroke-linejoin:bevel;}
    .st1{fill:none;stroke:#000000;stroke-width:0.8;stroke-linecap:round;stroke-linejoin:bevel;}
</style>
<defs>
</defs>
<polygon class="st0" points="1.5,0.8 0.4,2.4 2.4,3.2 "/>
<polygon class="st0" points="4,1.6 5.8,1.8 6,3.4 4.7,3.5 "/>
<polygon class="st0" points="0.9,5.6 2.3,4.7 3.5,6.5 2.2,6.9 "/>
<polygon class="st0" points="5.8,5.4 8.5,5.1 8.6,6.9 "/>
<polygon class="st0" points="9.2,1.2 9.2,2.7 10.7,3.8 11.6,2.2 "/>
<polygon class="st0" points="14.3,2.6 15.7,1.1 16.7,3.3 "/>
<polygon class="st0" points="18.4,1.6 19.8,3.2 21.7,2 21,0.8 "/>
<polygon class="st0" points="23.3,2.9 22.4,4.2 24.2,5.7 25.1,4.3 "/>
<polygon class="st0" points="19.7,4.8 20.1,7.2 17.6,6.9 "/>
<polygon class="st0" points="12,5.7 13.2,4.7 14.7,5.1 14.2,6.9 "/>
<polygon class="st0" points="26.2,1.2 27.2,2.7 29.1,2.7 28.2,1.1 "/>
<polygon class="st0" points="30.3,3.3 31.9,3.3 31.6,5.2 29.6,4.2 "/>
<polygon class="st0" points="27.9,5.2 28.2,7.4 25.8,6.8 "/>
<polygon class="st0" points="32.8,1.5 35.1,0.6 35.1,2.8 "/>
<polygon class="st0" points="37.6,2.2 38.7,1.1 40,2.5 39.6,3.3 38.2,3.2 "/>
<polygon class="st0" points="42.2,3.7 43,4.8 44.7,3.9 43.3,2.5 "/>
<polygon class="st0" points="37.7,5.3 39.5,4.8 41,6.1 38.8,7.1 "/>
<polygon class="st0" points="34.7,5.3 35.4,7.5 33.2,7.3 "/>
<polygon class="st0" points="45.6,1.5 47.8,1.3 48.6,2.5 46.5,3 "/>
<polygon class="st0" points="49.5,3.4 51,4.2 50,5.5 48.9,4.9 "/>
<polygon class="st0" points="50.8,1.8 50.9,1.1 52,0.5 52.8,2.8 "/>
<polygon class="st0" points="51.7,5.8 52.8,7 51.2,7.6 "/>
<polygon class="st0" points="45.2,5.7 46.7,5.8 47.4,7.1 44.5,7.2 "/>
<polygon class="st0" points="0.2,35.1 1.6,34.2 2.8,36 1.6,36.4 "/>
<polygon class="st0" points="4.7,35 7.4,34.7 7.5,36.5 "/>
<polygon class="st0" points="19.8,34.1 20.1,36.5 17.6,36.2 "/>
<polygon class="st0" points="11.5,35.2 12.6,34.2 14.2,34.5 13.6,36.3 "/>
<polygon class="st0" points="28.3,34.4 28.6,36.7 26.2,36.1 "/>
<polygon class="st0" points="32,35.7 33.8,35.2 35.3,36.4 33.1,37.4 "/>
<polygon class="st0" points="37.8,32.9 38.5,35.1 36.3,34.9 "/>
<polygon class="st0" points="51.7,35.1 52.8,36.2 51.2,36.8 "/>
<polygon class="st0" points="45.3,34.8 46.8,34.9 47.6,36.2 44.7,36.3 "/>
<polygon class="st0" points="2.4,13.9 4.8,14.1 4.6,15.9 2.5,15.8 "/>
<polygon class="st0" points="7.2,13.7 9.4,14.1 8.7,15.9 "/>
<polygon class="st0" points="11.1,16.6 14.1,16.1 13.6,18.6 "/>
<polygon class="st0" points="16,14.1 19.1,14.6 18.3,15.5 18.1,17.2 "/>
<polygon class="st0" points="22.6,15 23.8,16.6 21.6,17.7 20.3,17.4 "/>
<polygon class="st0" points="26.7,14.2 27.1,16.1 29.6,14.8 "/>
<polygon class="st0" points="32.7,14.7 35.2,14.3 35.4,16.1 "/>
<polygon class="st0" points="40.7,13.9 40.9,15.9 43.3,14.8 "/>
<polygon class="st0" points="47.2,14.4 48.1,16.1 49.5,14.7 48.7,13.8 "/>
<polygon class="st0" points="51.7,14 52.7,14.9 51,15.7 "/>
<polygon class="st0" points="6.3,16.9 6,18.1 7.6,19.3 8.1,17.6 "/>
<polygon class="st0" points="10,19.8 9.2,21.1 11.5,22.1 11.8,20.4 "/>
<polygon class="st0" points="14.5,20.6 14.4,21.7 16.4,22 16.4,20.4 "/>
<polygon class="st0" points="21.2,20.4 19.8,21.9 22.1,22.8 "/>
<polygon class="st0" points="24.6,19.3 25.9,18.6 27.5,18.6 26.8,21 "/>
<polygon class="st0" points="29.1,21.1 28,22.9 30.2,23 "/>
<polygon class="st0" points="30.2,18 32.9,17.9 31.8,20.1 "/>
<polygon class="st0" points="38.4,16.7 38.6,19.4 36.3,18.9 "/>
<polygon class="st0" points="11.8,37.5 12,40.2 9.7,39.7 "/>
<polygon class="st0" points="40.5,20.7 40.4,22.6 42.7,22.3 41.7,20.8 "/>
<polygon class="st0" points="43.2,18.1 45.8,17.3 45.5,19.6 "/>
<polygon class="st0" points="47.3,21 48.5,20.7 49.5,22.6 47.2,23 "/>
<polygon class="st0" points="51.7,17.1 51,19.1 52.6,19.6 53.3,17.9 "/>
<polygon class="st0" points="51.9,21.1 51.2,21.8 52.1,23.1 53.2,22.1 "/>
<polygon class="st0" points="34.7,21 33.7,22.8 36.4,22.7 "/>
<polygon class="st0" points="3.1,19.1 1.7,20.6 3.9,21.4 "/>
<polygon class="st0" points="5.7,50.4 5.4,51.6 7,52.8 7.5,51.2 "/>
<polygon class="st0" points="14.6,51.5 14.5,52.6 16.5,52.8 16.5,51.2 "/>
<polygon class="st0" points="21.2,50.4 19.8,51.9 22.1,52.8 "/>
<polygon class="st0" points="23.2,50 24.6,49.2 26.1,49.2 25.5,51.7 "/>
<polygon class="st0" points="29.1,51.2 28,52.9 30.2,53 "/>
<polygon class="st0" points="36.6,49.6 39.2,49.5 38.2,51.7 "/>
<polygon class="st0" points="11.5,50.5 11.6,53.2 9.4,52.7 "/>
<polygon class="st0" points="40.5,50.7 40.4,52.6 42.7,52.3 41.7,50.8 "/>
<polygon class="st0" points="42.7,49.7 45.3,49 45,51.3 "/>
<polygon class="st0" points="47.3,51 48.5,50.7 49.5,52.7 47.2,53 "/>
<polygon class="st0" points="31.8,49.4 31.1,51.3 32.7,51.8 33.4,50.2 "/>
<polygon class="st0" points="51.9,51.2 51.2,51.8 52.1,53.1 53.2,52.1 "/>
<polygon class="st0" points="34.7,51 33.7,52.8 36.4,52.7 "/>
<polygon class="st0" points="2.1,50.6 0.8,52.1 2.9,52.8 "/>
<polygon class="st0" points="2.9,30.4 4,32.3 1.5,32.4 "/>
<polygon class="st0" points="5.1,30.7 7.4,30.6 6.4,32.5 "/>
<polygon class="st0" points="7.6,33 9.7,31.9 10,33.9 "/>
<polygon class="st0" points="11.7,31 12.8,32.4 14.6,30.7 "/>
<polygon class="st0" points="16.3,31.6 16.4,33 18.1,33.7 18.4,32 "/>
<polygon class="st0" points="19.1,30.4 20.9,29.9 21,32 "/>
<polygon class="st0" points="21.8,33.3 22.8,35 24.3,33.3 "/>
<polygon class="st0" points="25,32 25.7,33.1 27.9,31.3 26.2,30.6 "/>
<polygon class="st0" points="30.2,32 28.8,33.3 31.8,33.5 "/>
<polygon class="st0" points="32,31.1 33.5,32.7 35,30.8 32.6,30.5 "/>
<polygon class="st0" points="38.2,31.1 39.8,31 40.9,31.7 40.1,32.9 "/>
<polygon class="st0" points="41.2,34.2 40.2,35.5 42.2,36.2 43.6,35.2 "/>
<polygon class="st0" points="44.8,31 47.6,30.8 46.3,32.5 "/>
<polygon class="st0" points="49,33.1 50.5,33.7 50.4,34.8 47.9,34.4 "/>
<polygon class="st0" points="53,32.5 50.4,31.9 51.8,30.3 "/>
<polygon class="st0" points="0.9,38.2 3.3,38.4 3.1,40.2 1,40.1 "/>
<polygon class="st0" points="5.7,38 7.9,38.3 7.2,40.2 "/>
<polygon class="st0" points="15.2,37.4 18.3,37.9 17.6,38.8 17.3,40.6 "/>
<polygon class="st0" points="23.2,37.3 24.4,38.9 22.2,40 20.9,39.7 "/>
<polygon class="st0" points="26.3,38.6 26.7,40.4 29.2,39.2 "/>
<polygon class="st0" points="33.1,38.6 35.6,38.2 35.8,40 "/>
<polygon class="st0" points="39.2,38.2 39.4,40.2 41.8,39.1 "/>
<polygon class="st0" points="44.3,38.2 45.2,39.9 46.6,38.5 45.8,37.6 "/>
<polygon class="st0" points="50,37.7 51.5,39.7 49,40.1 "/>
<line class="st1" x1="4" y1="4.5" x2="4" y2="4.5"/>
<line class="st1" x1="8.4" y1="3.7" x2="8.4" y2="3.7"/>
<line class="st1" x1="12.8" y1="1.5" x2="12.8" y2="1.5"/>
<line class="st1" x1="13.2" y1="3.8" x2="13.2" y2="3.8"/>
<line class="st1" x1="16.8" y1="4.8" x2="16.8" y2="4.8"/>
<line class="st1" x1="18.1" y1="3" x2="18.1" y2="3"/>
<line class="st1" x1="17.1" y1="0.8" x2="17.1" y2="0.8"/>
<line class="st1" x1="10.2" y1="6.5" x2="10.2" y2="6.5"/>
<line class="st1" x1="12.6" y1="7.7" x2="12.6" y2="7.7"/>
<line class="st1" x1="16" y1="7.5" x2="16" y2="7.5"/>
<line class="st1" x1="19.1" y1="8.7" x2="19.1" y2="8.7"/>
<line class="st1" x1="21.2" y1="4.7" x2="21.2" y2="4.7"/>
<line class="st1" x1="23.1" y1="1.3" x2="23.1" y2="1.3"/>
<line class="st1" x1="26" y1="3.4" x2="26" y2="3.4"/>
<line class="st1" x1="29.8" y1="0.5" x2="29.8" y2="0.5"/>
<line class="st1" x1="31.3" y1="2.2" x2="31.3" y2="2.2"/>
<line class="st1" x1="29.8" y1="5.7" x2="29.8" y2="5.7"/>
<line class="st1" x1="23.4" y1="6.8" x2="23.4" y2="6.8"/>
<line class="st1" x1="22.4" y1="9.6" x2="22.4" y2="9.6"/>
<line class="st1" x1="26.8" y1="8.8" x2="26.8" y2="8.8"/>
<line class="st1" x1="30.2" y1="8.1" x2="30.2" y2="8.1"/>
<line class="st1" x1="33.9" y1="8.6" x2="33.9" y2="8.6"/>
<line class="st1" x1="36.8" y1="8.4" x2="36.8" y2="8.4"/>
<line class="st1" x1="36.6" y1="5.3" x2="36.6" y2="5.3"/>
<line class="st1" x1="33.8" y1="3.8" x2="33.8" y2="3.8"/>
<line class="st1" x1="36.6" y1="2.3" x2="36.6" y2="2.3"/>
<line class="st1" x1="40.8" y1="0.5" x2="40.8" y2="0.5"/>
<line class="st1" x1="41.1" y1="4.1" x2="41.1" y2="4.1"/>
<line class="st1" x1="42.7" y1="6.8" x2="42.7" y2="6.8"/>
<line class="st1" x1="46.4" y1="4.5" x2="46.4" y2="4.5"/>
<line class="st1" x1="43.9" y1="1.3" x2="43.9" y2="1.3"/>
<line class="st1" x1="49.6" y1="0.5" x2="49.6" y2="0.5"/>
<line class="st1" x1="51.2" y1="3.2" x2="51.2" y2="3.2"/>
<line class="st1" x1="52.8" y1="5.2" x2="52.8" y2="5.2"/>
<line class="st1" x1="49.2" y1="6.9" x2="49.2" y2="6.9"/>
<line class="st1" x1="52.6" y1="9.1" x2="52.6" y2="9.1"/>
<line class="st1" x1="49.4" y1="9.3" x2="49.4" y2="9.3"/>
<line class="st1" x1="45.5" y1="8.9" x2="45.5" y2="8.9"/>
<line class="st1" x1="5.6" y1="7" x2="5.6" y2="7"/>
<line class="st1" x1="0.9" y1="7.7" x2="0.9" y2="7.7"/>
<line class="st1" x1="3.7" y1="8.7" x2="3.7" y2="8.7"/>
<line class="st1" x1="8.2" y1="9.3" x2="8.2" y2="9.3"/>
<line class="st1" x1="11.6" y1="10.6" x2="11.6" y2="10.6"/>
<line class="st1" x1="8.5" y1="11.8" x2="8.5" y2="11.8"/>
<line class="st1" x1="5.7" y1="10.2" x2="5.7" y2="10.2"/>
<line class="st1" x1="3.9" y1="12.5" x2="3.9" y2="12.5"/>
<line class="st1" x1="2.1" y1="10.8" x2="2.1" y2="10.8"/>
<line class="st1" x1="0.8" y1="15.1" x2="0.8" y2="15.1"/>
<line class="st1" x1="14.9" y1="9.8" x2="14.9" y2="9.8"/>
<line class="st1" x1="14" y1="12.9" x2="14" y2="12.9"/>
<line class="st1" x1="11.6" y1="14.5" x2="11.6" y2="14.5"/>
<line class="st1" x1="18.1" y1="11.1" x2="18.1" y2="11.1"/>
<line class="st1" x1="6.4" y1="0.4" x2="6.4" y2="0.4"/>
<line class="st1" x1="20.8" y1="12.4" x2="20.8" y2="12.4"/>
<line class="st1" x1="24.6" y1="12.2" x2="24.6" y2="12.2"/>
<line class="st1" x1="28.8" y1="11.1" x2="28.8" y2="11.1"/>
<line class="st1" x1="32.3" y1="11.1" x2="32.3" y2="11.1"/>
<line class="st1" x1="30.7" y1="14" x2="30.7" y2="14"/>
<line class="st1" x1="24.9" y1="15.4" x2="24.9" y2="15.4"/>
<line class="st1" x1="19.7" y1="15.6" x2="19.7" y2="15.6"/>
<line class="st1" x1="15.6" y1="16.2" x2="15.6" y2="16.2"/>
<line class="st1" x1="9.7" y1="18.1" x2="9.7" y2="18.1"/>
<line class="st1" x1="4.5" y1="17.1" x2="4.5" y2="17.1"/>
<line class="st1" x1="1.2" y1="18.1" x2="1.2" y2="18.1"/>
<line class="st1" x1="18.2" y1="19.1" x2="18.2" y2="19.1"/>
<line class="st1" x1="13.1" y1="20.9" x2="13.1" y2="20.9"/>
<line class="st1" x1="22.8" y1="18.7" x2="22.8" y2="18.7"/>
<line class="st1" x1="24.4" y1="21.5" x2="24.4" y2="21.5"/>
<line class="st1" x1="27.4" y1="24.6" x2="27.4" y2="24.6"/>
<line class="st1" x1="29.4" y1="19.6" x2="29.4" y2="19.6"/>
<line class="st1" x1="28.7" y1="17.1" x2="28.7" y2="17.1"/>
<line class="st1" x1="34" y1="16.6" x2="34" y2="16.6"/>
<line class="st1" x1="34.8" y1="12.5" x2="34.8" y2="12.5"/>
<line class="st1" x1="36.6" y1="10.5" x2="36.6" y2="10.5"/>
<line class="st1" x1="39.7" y1="8.9" x2="39.7" y2="8.9"/>
<line class="st1" x1="39.3" y1="11.2" x2="39.3" y2="11.2"/>
<line class="st1" x1="37.7" y1="13.7" x2="37.7" y2="13.7"/>
<line class="st1" x1="34.7" y1="19.4" x2="34.7" y2="19.4"/>
<line class="st1" x1="31.9" y1="22.6" x2="31.9" y2="22.6"/>
<line class="st1" x1="38" y1="21.5" x2="38" y2="21.5"/>
<line class="st1" x1="40.7" y1="18.7" x2="40.7" y2="18.7"/>
<line class="st1" x1="39.4" y1="15.7" x2="39.4" y2="15.7"/>
<line class="st1" x1="43.2" y1="16.4" x2="43.2" y2="16.4"/>
<line class="st1" x1="46" y1="14.6" x2="46" y2="14.6"/>
<line class="st1" x1="43.1" y1="12.9" x2="43.1" y2="12.9"/>
<line class="st1" x1="43" y1="10.1" x2="43" y2="10.1"/>
<line class="st1" x1="46.2" y1="11.8" x2="46.2" y2="11.8"/>
<line class="st1" x1="50" y1="13.1" x2="50" y2="13.1"/>
<line class="st1" x1="51.7" y1="11.3" x2="51.7" y2="11.3"/>
<line class="st1" x1="48.6" y1="18.1" x2="48.6" y2="18.1"/>
<line class="st1" x1="50.2" y1="20.9" x2="50.2" y2="20.9"/>
<line class="st1" x1="44.1" y1="20.7" x2="44.1" y2="20.7"/>
<line class="st1" x1="45.7" y1="23.6" x2="45.7" y2="23.6"/>
<line class="st1" x1="49" y1="24" x2="49" y2="24"/>
<line class="st1" x1="52.1" y1="24.7" x2="52.1" y2="24.7"/>
<line class="st1" x1="41.8" y1="23.6" x2="41.8" y2="23.6"/>
<line class="st1" x1="38" y1="24.1" x2="38" y2="24.1"/>
<line class="st1" x1="35" y1="24" x2="35" y2="24"/>
<line class="st1" x1="30.8" y1="25.5" x2="30.8" y2="25.5"/>
<line class="st1" x1="36.9" y1="27.6" x2="36.9" y2="27.6"/>
<line class="st1" x1="23.3" y1="23.9" x2="23.3" y2="23.9"/>
<line class="st1" x1="18.1" y1="22.3" x2="18.1" y2="22.3"/>
<line class="st1" x1="15.1" y1="18.6" x2="15.1" y2="18.6"/>
<line class="st1" x1="15.1" y1="24" x2="15.1" y2="24"/>
<line class="st1" x1="9.6" y1="23.3" x2="9.6" y2="23.3"/>
<line class="st1" x1="5.8" y1="20.6" x2="5.8" y2="20.6"/>
<line class="st1" x1="1" y1="22.1" x2="1" y2="22.1"/>
<line class="st1" x1="3.9" y1="22.8" x2="3.9" y2="22.8"/>
<line class="st1" x1="3.5" y1="33.7" x2="3.5" y2="33.7"/>
<line class="st1" x1="8" y1="41.1" x2="8" y2="41.1"/>
<line class="st1" x1="16" y1="35" x2="16" y2="35"/>
<line class="st1" x1="12.8" y1="41.2" x2="12.8" y2="41.2"/>
<line class="st1" x1="16.4" y1="42.2" x2="16.4" y2="42.2"/>
<line class="st1" x1="19.4" y1="38.8" x2="19.4" y2="38.8"/>
<line class="st1" x1="23.2" y1="30.1" x2="23.2" y2="30.1"/>
<line class="st1" x1="9.8" y1="43.8" x2="9.8" y2="43.8"/>
<line class="st1" x1="12.7" y1="44.2" x2="12.7" y2="44.2"/>
<line class="st1" x1="15.6" y1="44.8" x2="15.6" y2="44.8"/>
<line class="st1" x1="18.9" y1="44.8" x2="18.9" y2="44.8"/>
<line class="st1" x1="20.8" y1="42" x2="20.8" y2="42"/>
<line class="st1" x1="29.8" y1="27.6" x2="29.8" y2="27.6"/>
<line class="st1" x1="25.6" y1="40.7" x2="25.6" y2="40.7"/>
<line class="st1" x1="29.4" y1="37.8" x2="29.4" y2="37.8"/>
<line class="st1" x1="30.9" y1="39.5" x2="30.9" y2="39.5"/>
<line class="st1" x1="29.4" y1="43.1" x2="29.4" y2="43.1"/>
<line class="st1" x1="23" y1="44.2" x2="23" y2="44.2"/>
<line class="st1" x1="22" y1="47" x2="22" y2="47"/>
<line class="st1" x1="26.4" y1="46.2" x2="26.4" y2="46.2"/>
<line class="st1" x1="29.8" y1="45.5" x2="29.8" y2="45.5"/>
<line class="st1" x1="32.9" y1="44.1" x2="32.9" y2="44.1"/>
<line class="st1" x1="36.4" y1="45.7" x2="36.4" y2="45.7"/>
<line class="st1" x1="36.2" y1="42.7" x2="36.2" y2="42.7"/>
<line class="st1" x1="33.4" y1="41.2" x2="33.4" y2="41.2"/>
<line class="st1" x1="45.5" y1="26.4" x2="45.5" y2="26.4"/>
<line class="st1" x1="37.8" y1="37.1" x2="37.8" y2="37.1"/>
<line class="st1" x1="40.7" y1="41.4" x2="40.7" y2="41.4"/>
<line class="st1" x1="42.2" y1="44.2" x2="42.2" y2="44.2"/>
<line class="st1" x1="46" y1="41.8" x2="46" y2="41.8"/>
<line class="st1" x1="42.3" y1="37.7" x2="42.3" y2="37.7"/>
<line class="st1" x1="47.8" y1="39.2" x2="47.8" y2="39.2"/>
<line class="st1" x1="53.2" y1="37.9" x2="53.2" y2="37.9"/>
<line class="st1" x1="51.4" y1="43.5" x2="51.4" y2="43.5"/>
<line class="st1" x1="47.1" y1="44.2" x2="47.1" y2="44.2"/>
<line class="st1" x1="52.2" y1="46.4" x2="52.2" y2="46.4"/>
<line class="st1" x1="49" y1="46.7" x2="49" y2="46.7"/>
<line class="st1" x1="45.1" y1="46.2" x2="45.1" y2="46.2"/>
<line class="st1" x1="6.3" y1="43.6" x2="6.3" y2="43.6"/>
<line class="st1" x1="0.5" y1="45.1" x2="0.5" y2="45.1"/>
<line class="st1" x1="3.2" y1="46.1" x2="3.2" y2="46.1"/>
<line class="st1" x1="8.6" y1="46.1" x2="8.6" y2="46.1"/>
<line class="st1" x1="11.2" y1="48" x2="11.2" y2="48"/>
<line class="st1" x1="8.1" y1="49.2" x2="8.1" y2="49.2"/>
<line class="st1" x1="5.2" y1="47.6" x2="5.2" y2="47.6"/>
<line class="st1" x1="3.5" y1="49.8" x2="3.5" y2="49.8"/>
<line class="st1" x1="1.6" y1="48.2" x2="1.6" y2="48.2"/>
<line class="st1" x1="0.4" y1="50.7" x2="0.4" y2="50.7"/>
<line class="st1" x1="14.5" y1="47.2" x2="14.5" y2="47.2"/>
<line class="st1" x1="13.6" y1="50.2" x2="13.6" y2="50.2"/>
<line class="st1" x1="4.2" y1="37" x2="4.2" y2="37"/>
<line class="st1" x1="17.6" y1="48.5" x2="17.6" y2="48.5"/>
<line class="st1" x1="9.5" y1="35.9" x2="9.5" y2="35.9"/>
<line class="st1" x1="20.4" y1="49.7" x2="20.4" y2="49.7"/>
<line class="st1" x1="2.4" y1="42.2" x2="2.4" y2="42.2"/>
<line class="st1" x1="28.4" y1="48.4" x2="28.4" y2="48.4"/>
<line class="st1" x1="31.9" y1="48.4" x2="31.9" y2="48.4"/>
<line class="st1" x1="27.5" y1="50.9" x2="27.5" y2="50.9"/>
<line class="st1" x1="24.5" y1="52.7" x2="24.5" y2="52.7"/>
<line class="st1" x1="19.3" y1="52.9" x2="19.3" y2="52.9"/>
<line class="st1" x1="30.9" y1="35" x2="30.9" y2="35"/>
<line class="st1" x1="35.2" y1="33.5" x2="35.2" y2="33.5"/>
<line class="st1" x1="4.8" y1="29.1" x2="4.8" y2="29.1"/>
<line class="st1" x1="5.2" y1="41" x2="5.2" y2="41"/>
<line class="st1" x1="17.6" y1="25.9" x2="17.6" y2="25.9"/>
<line class="st1" x1="11.5" y1="26.1" x2="11.5" y2="26.1"/>
<line class="st1" x1="24.4" y1="36.2" x2="24.4" y2="36.2"/>
<line class="st1" x1="22.7" y1="26.7" x2="22.7" y2="26.7"/>
<line class="st1" x1="20.6" y1="24.7" x2="20.6" y2="24.7"/>
<line class="st1" x1="20.1" y1="28.3" x2="20.1" y2="28.3"/>
<line class="st1" x1="26.3" y1="26.6" x2="26.3" y2="26.6"/>
<line class="st1" x1="34.2" y1="46.9" x2="34.2" y2="46.9"/>
<line class="st1" x1="35.2" y1="49.2" x2="35.2" y2="49.2"/>
<line class="st1" x1="39.2" y1="44" x2="39.2" y2="44"/>
<line class="st1" x1="38.9" y1="48.6" x2="38.9" y2="48.6"/>
<line class="st1" x1="39.9" y1="46.3" x2="39.9" y2="46.3"/>
<line class="st1" x1="42.5" y1="31" x2="42.5" y2="31"/>
<line class="st1" x1="33.2" y1="29.3" x2="33.2" y2="29.3"/>
<line class="st1" x1="34" y1="26.3" x2="34" y2="26.3"/>
<line class="st1" x1="39.3" y1="26.2" x2="39.3" y2="26.2"/>
<line class="st1" x1="44.5" y1="33.6" x2="44.5" y2="33.6"/>
<line class="st1" x1="39" y1="53.1" x2="39" y2="53.1"/>
<line class="st1" x1="45.6" y1="51.9" x2="45.6" y2="51.9"/>
<line class="st1" x1="41.1" y1="49.5" x2="41.1" y2="49.5"/>
<line class="st1" x1="42.6" y1="47.5" x2="42.6" y2="47.5"/>
<line class="st1" x1="47.2" y1="48.6" x2="47.2" y2="48.6"/>
<line class="st1" x1="49.6" y1="50.4" x2="49.6" y2="50.4"/>
<line class="st1" x1="51.3" y1="48.7" x2="51.3" y2="48.7"/>
<line class="st1" x1="26.2" y1="43.3" x2="26.2" y2="43.3"/>
<line class="st1" x1="51.7" y1="27.3" x2="51.7" y2="27.3"/>
<line class="st1" x1="48.6" y1="26.1" x2="48.6" y2="26.1"/>
<line class="st1" x1="42.4" y1="26" x2="42.4" y2="26"/>
<line class="st1" x1="44.1" y1="28.9" x2="44.1" y2="28.9"/>
<line class="st1" x1="47.3" y1="29.2" x2="47.3" y2="29.2"/>
<line class="st1" x1="50.4" y1="30" x2="50.4" y2="30"/>
<line class="st1" x1="40.6" y1="29.1" x2="40.6" y2="29.1"/>
<line class="st1" x1="36.7" y1="30.6" x2="36.7" y2="30.6"/>
<line class="st1" x1="26.6" y1="29" x2="26.6" y2="29"/>
<line class="st1" x1="29.1" y1="30.8" x2="29.1" y2="30.8"/>
<line class="st1" x1="16.3" y1="29.6" x2="16.3" y2="29.6"/>
<line class="st1" x1="14.5" y1="27.1" x2="14.5" y2="27.1"/>
<line class="st1" x1="14" y1="37.9" x2="14" y2="37.9"/>
<line class="st1" x1="11.3" y1="29.6" x2="11.3" y2="29.6"/>
<line class="st1" x1="7.9" y1="28.6" x2="7.9" y2="28.6"/>
<line class="st1" x1="4.2" y1="25.9" x2="4.2" y2="25.9"/>
<line class="st1" x1="7.2" y1="25.1" x2="7.2" y2="25.1"/>
<line class="st1" x1="2.2" y1="28.1" x2="2.2" y2="28.1"/>
<line class="st1" x1="0.7" y1="12.2" x2="0.7" y2="12.2"/>
<line class="st1" x1="52.4" y1="40.5" x2="52.4" y2="40.5"/>
<line class="st1" x1="49" y1="36.4" x2="49" y2="36.4"/>
<line class="st1" x1="0.9" y1="25.9" x2="0.9" y2="25.9"/>
<line class="st1" x1="0.5" y1="30" x2="0.5" y2="30"/>
</svg>
