<svg id="Layer_1" data-name="Layer 1" xmlns="http://www.w3.org/2000/svg" width="53.75" height="53.75" viewBox="0 0 53.75 53.75"><defs><style>.cls-1,.cls-2,.cls-3{fill:none;}.cls-2,.cls-3{stroke:#000;stroke-linejoin:bevel;}.cls-2{stroke-width:0.3px;}.cls-3{stroke-linecap:round;stroke-width:0.8px;}</style></defs><title>Artboard 37</title><rect class="cls-1" x="38.72" y="-47.53" width="53.75" height="53.75"/><polygon class="cls-2" points="44.56 2.97 44.22 4.14 45.81 5.39 46.31 3.72 44.56 2.97"/><polygon class="cls-2" points="53.39 4.05 53.31 5.14 55.31 5.39 55.31 3.81 53.39 4.05"/><polygon class="cls-2" points="50.31 3.05 50.47 5.72 48.22 5.22 50.31 3.05"/><polygon class="cls-2" points="40.93 3.16 39.6 4.66 41.77 5.41 40.93 3.16"/><line class="cls-3" x1="50.06" y1="0.55" x2="50.06" y2="0.55"/><line class="cls-3" x1="46.89" y1="1.72" x2="46.89" y2="1.72"/><line class="cls-3" x1="44.06" y1="0.14" x2="44.06" y2="0.14"/><line class="cls-3" x1="42.31" y1="2.39" x2="42.31" y2="2.39"/><line class="cls-3" x1="40.47" y1="0.72" x2="40.47" y2="0.72"/><line class="cls-3" x1="39.22" y1="3.22" x2="39.22" y2="3.22"/><line class="cls-3" x1="53.31" y1="-0.28" x2="53.31" y2="-0.28"/><line class="cls-3" x1="52.39" y1="2.8" x2="52.39" y2="2.8"/><rect class="cls-1" x="38.72" y="6.22" width="53.75" height="53.75"/><polygon class="cls-2" points="40.33 7.08 39.22 8.72 41.22 9.55 40.33 7.08"/><polygon class="cls-2" points="42.81 7.97 44.64 8.14 44.81 9.72 43.47 9.8 42.81 7.97"/><polygon class="cls-2" points="39.72 11.89 41.14 11.05 42.31 12.8 41.06 13.22 39.72 11.89"/><polygon class="cls-2" points="44.64 11.72 47.31 11.39 47.39 13.22 44.64 11.72"/><polygon class="cls-2" points="48.06 7.55 48.06 9.05 49.56 10.14 50.39 8.55 48.06 7.55"/><polygon class="cls-2" points="53.14 8.89 54.47 7.47 55.56 9.64 53.14 8.89"/><polygon class="cls-2" points="50.81 12.05 51.97 11.05 53.56 11.39 52.97 13.22 50.81 12.05"/><polygon class="cls-2" points="39.06 41.39 40.47 40.55 41.64 42.3 40.39 42.72 39.06 41.39"/><polygon class="cls-2" points="43.56 41.3 46.22 40.97 46.31 42.8 43.56 41.3"/><polygon class="cls-2" points="50.31 41.47 51.47 40.47 53.06 40.8 52.47 42.64 50.31 41.47"/><polygon class="cls-2" points="41.22 20.22 43.64 20.47 43.39 22.22 41.31 22.14 41.22 20.22"/><polygon class="cls-2" points="46.06 20.05 48.22 20.39 47.56 22.22 46.06 20.05"/><polygon class="cls-2" points="49.89 22.97 52.97 22.39 52.39 24.97 49.89 22.97"/><polygon class="cls-2" points="45.14 23.22 44.81 24.39 46.39 25.64 46.89 23.97 45.14 23.22"/><polygon class="cls-2" points="48.81 26.14 48.06 27.47 50.31 28.47 50.64 26.72 48.81 26.14"/><polygon class="cls-2" points="53.31 26.97 53.22 28.05 55.22 28.3 55.22 26.72 53.31 26.97"/><polygon class="cls-2" points="50.64 43.8 50.81 46.47 48.56 45.97 50.64 43.8"/><polygon class="cls-2" points="41.89 25.47 40.56 26.97 42.72 27.72 41.89 25.47"/><polygon class="cls-2" points="41.68 36.76 42.85 38.6 40.35 38.76 41.68 36.76"/><polygon class="cls-2" points="43.93 37.03 46.18 36.95 45.18 38.78 43.93 37.03"/><polygon class="cls-2" points="46.39 39.35 48.56 38.18 48.81 40.26 46.39 39.35"/><polygon class="cls-2" points="50.52 37.28 51.6 38.7 53.43 37.03 50.52 37.28"/><polygon class="cls-2" points="39.72 44.47 42.14 44.72 41.89 46.47 39.81 46.39 39.72 44.47"/><polygon class="cls-2" points="44.56 44.3 46.72 44.64 46.06 46.47 44.56 44.3"/><line class="cls-3" x1="42.81" y1="10.8" x2="42.81" y2="10.8"/><line class="cls-3" x1="47.22" y1="10.05" x2="47.22" y2="10.05"/><line class="cls-3" x1="51.64" y1="7.8" x2="51.64" y2="7.8"/><line class="cls-3" x1="52.06" y1="10.14" x2="52.06" y2="10.14"/><line class="cls-3" x1="49.06" y1="12.8" x2="49.06" y2="12.8"/><line class="cls-3" x1="51.39" y1="14.05" x2="51.39" y2="14.05"/><line class="cls-3" x1="44.39" y1="13.3" x2="44.39" y2="13.3"/><line class="cls-3" x1="39.72" y1="14.05" x2="39.72" y2="14.05"/><line class="cls-3" x1="42.47" y1="15.05" x2="42.47" y2="15.05"/><line class="cls-3" x1="47.06" y1="15.64" x2="47.06" y2="15.64"/><line class="cls-3" x1="50.47" y1="16.97" x2="50.47" y2="16.97"/><line class="cls-3" x1="47.31" y1="18.14" x2="47.31" y2="18.14"/><line class="cls-3" x1="44.47" y1="16.55" x2="44.47" y2="16.55"/><line class="cls-3" x1="42.72" y1="18.8" x2="42.72" y2="18.8"/><line class="cls-3" x1="40.89" y1="17.14" x2="40.89" y2="17.14"/><line class="cls-3" x1="39.64" y1="21.47" x2="39.64" y2="21.47"/><line class="cls-3" x1="53.72" y1="16.14" x2="53.72" y2="16.14"/><line class="cls-3" x1="52.81" y1="19.22" x2="52.81" y2="19.22"/><line class="cls-3" x1="50.39" y1="20.8" x2="50.39" y2="20.8"/><line class="cls-3" x1="45.22" y1="6.72" x2="45.22" y2="6.72"/><line class="cls-3" x1="48.56" y1="24.39" x2="48.56" y2="24.39"/><line class="cls-3" x1="43.29" y1="23.47" x2="43.29" y2="23.47"/><line class="cls-3" x1="40.04" y1="24.47" x2="40.04" y2="24.47"/><line class="cls-3" x1="51.97" y1="27.22" x2="51.97" y2="27.22"/><line class="cls-3" x1="53.97" y1="24.89" x2="53.97" y2="24.89"/><line class="cls-3" x1="53.97" y1="30.3" x2="53.97" y2="30.3"/><line class="cls-3" x1="48.39" y1="29.64" x2="48.39" y2="29.64"/><line class="cls-3" x1="44.64" y1="26.97" x2="44.64" y2="26.97"/><line class="cls-3" x1="39.81" y1="28.39" x2="39.81" y2="28.39"/><line class="cls-3" x1="42.72" y1="29.14" x2="42.72" y2="29.14"/><line class="cls-3" x1="42.31" y1="39.97" x2="42.31" y2="39.97"/><line class="cls-3" x1="46.81" y1="47.39" x2="46.81" y2="47.39"/><line class="cls-3" x1="51.64" y1="47.47" x2="51.64" y2="47.47"/><line class="cls-3" x1="48.64" y1="50.14" x2="48.64" y2="50.14"/><line class="cls-3" x1="51.56" y1="50.55" x2="51.56" y2="50.55"/><line class="cls-3" x1="45.14" y1="49.89" x2="45.14" y2="49.89"/><line class="cls-3" x1="39.31" y1="51.39" x2="39.31" y2="51.39"/><line class="cls-3" x1="42.06" y1="52.39" x2="42.06" y2="52.39"/><line class="cls-3" x1="47.39" y1="52.39" x2="47.39" y2="52.39"/><line class="cls-3" x1="44.06" y1="53.89" x2="44.06" y2="53.89"/><line class="cls-3" x1="53.31" y1="53.47" x2="53.31" y2="53.47"/><line class="cls-3" x1="42.97" y1="43.3" x2="42.97" y2="43.3"/><line class="cls-3" x1="48.31" y1="42.22" x2="48.31" y2="42.22"/><line class="cls-3" x1="41.22" y1="48.47" x2="41.22" y2="48.47"/><line class="cls-3" x1="43.64" y1="35.47" x2="43.64" y2="35.47"/><line class="cls-3" x1="44.06" y1="47.3" x2="44.06" y2="47.3"/><line class="cls-3" x1="50.31" y1="32.47" x2="50.31" y2="32.47"/><line class="cls-3" x1="53.31" y1="33.39" x2="53.31" y2="33.39"/><line class="cls-3" x1="52.81" y1="44.22" x2="52.81" y2="44.22"/><line class="cls-3" x1="50.14" y1="35.97" x2="50.14" y2="35.97"/><line class="cls-3" x1="46.72" y1="34.89" x2="46.72" y2="34.89"/><line class="cls-3" x1="42.97" y1="32.22" x2="42.97" y2="32.22"/><line class="cls-3" x1="46.06" y1="31.39" x2="46.06" y2="31.39"/><line class="cls-3" x1="41.06" y1="34.39" x2="41.06" y2="34.39"/><line class="cls-3" x1="39.52" y1="18.51" x2="39.52" y2="18.51"/><line class="cls-3" x1="39.77" y1="32.22" x2="39.77" y2="32.22"/><line class="cls-3" x1="39.35" y1="36.35" x2="39.35" y2="36.35"/><rect class="cls-1" x="-15.03" y="-47.53" width="53.75" height="53.75"/><polygon class="cls-2" points="-0.36 4.05 -0.44 5.14 1.56 5.39 1.56 3.81 -0.36 4.05"/><polygon class="cls-2" points="6.31 2.97 4.89 4.47 7.22 5.39 6.31 2.97"/><polygon class="cls-2" points="8.31 2.56 9.64 1.8 11.22 1.8 10.56 4.22 8.31 2.56"/><polygon class="cls-2" points="14.14 3.72 13.06 5.47 15.31 5.55 14.14 3.72"/><polygon class="cls-2" points="21.64 2.14 24.31 2.05 23.22 4.22 21.64 2.14"/><polygon class="cls-2" points="25.56 3.3 25.47 5.14 27.81 4.89 26.81 3.39 25.56 3.3"/><polygon class="cls-2" points="27.81 2.31 30.39 1.55 30.06 3.89 27.81 2.31"/><polygon class="cls-2" points="32.39 3.55 33.56 3.3 34.56 5.22 32.31 5.55 32.39 3.55"/><polygon class="cls-2" points="16.89 1.97 16.14 3.89 17.72 4.39 18.47 2.72 16.89 1.97"/><polygon class="cls-2" points="36.97 3.72 36.22 4.39 37.14 5.64 38.22 4.64 36.97 3.72"/><polygon class="cls-2" points="19.72 3.55 18.81 5.39 21.47 5.3 19.72 3.55"/><line class="cls-3" x1="2.72" y1="1.05" x2="2.72" y2="1.05"/><line class="cls-3" x1="5.47" y1="2.3" x2="5.47" y2="2.3"/><line class="cls-3" x1="13.47" y1="0.97" x2="13.47" y2="0.97"/><line class="cls-3" x1="16.97" y1="0.97" x2="16.97" y2="0.97"/><line class="cls-3" x1="12.56" y1="3.47" x2="12.56" y2="3.47"/><line class="cls-3" x1="9.56" y1="5.3" x2="9.56" y2="5.3"/><line class="cls-3" x1="4.39" y1="5.47" x2="4.39" y2="5.47"/><line class="cls-3" x1="20.22" y1="1.72" x2="20.22" y2="1.72"/><line class="cls-3" x1="23.97" y1="1.14" x2="23.97" y2="1.14"/><line class="cls-3" x1="24.06" y1="5.64" x2="24.06" y2="5.64"/><line class="cls-3" x1="30.64" y1="4.47" x2="30.64" y2="4.47"/><line class="cls-3" x1="26.14" y1="2.05" x2="26.14" y2="2.05"/><line class="cls-3" x1="27.64" y1="0.05" x2="27.64" y2="0.05"/><line class="cls-3" x1="32.22" y1="1.14" x2="32.22" y2="1.14"/><line class="cls-3" x1="34.64" y1="2.97" x2="34.64" y2="2.97"/><line class="cls-3" x1="36.39" y1="1.22" x2="36.39" y2="1.22"/><rect class="cls-1" x="-15.03" y="6.22" width="53.75" height="53.75"/><polygon class="cls-2" points="-0.61 8.89 0.72 7.47 1.81 9.64 -0.61 8.89"/><polygon class="cls-2" points="3.47 7.97 4.89 9.55 6.81 8.3 6.06 7.14 3.47 7.97"/><polygon class="cls-2" points="8.39 9.22 7.47 10.55 9.22 11.97 10.14 10.64 8.39 9.22"/><polygon class="cls-2" points="4.81 11.14 5.14 13.55 2.64 13.22 4.81 11.14"/><polygon class="cls-2" points="11.31 7.55 12.22 9.05 14.14 9.05 13.31 7.47 11.31 7.55"/><polygon class="cls-2" points="15.39 9.64 16.97 9.64 16.64 11.55 14.64 10.55 15.39 9.64"/><polygon class="cls-2" points="12.97 11.47 13.31 13.72 10.89 13.14 12.97 11.47"/><polygon class="cls-2" points="17.89 7.8 20.14 6.97 20.14 9.14 17.89 7.8"/><polygon class="cls-2" points="22.64 8.47 23.72 7.47 25.06 8.8 24.64 9.64 23.31 9.55 22.64 8.47"/><polygon class="cls-2" points="27.31 10.05 28.06 11.14 29.72 10.22 28.39 8.8 27.31 10.05"/><polygon class="cls-2" points="22.81 11.64 24.56 11.14 26.06 12.39 23.89 13.39 22.81 11.64"/><polygon class="cls-2" points="19.72 11.64 20.47 13.8 18.22 13.64 19.72 11.64"/><polygon class="cls-2" points="30.64 7.8 32.89 7.64 33.64 8.8 31.56 9.3 30.64 7.8"/><polygon class="cls-2" points="34.56 9.72 36.06 10.47 35.06 11.8 33.97 11.22 34.56 9.72"/><polygon class="cls-2" points="35.89 8.14 35.97 7.47 37.06 6.8 37.89 9.14 35.89 8.14"/><polygon class="cls-2" points="36.81 12.14 37.89 13.3 36.22 13.89 36.81 12.14"/><polygon class="cls-2" points="30.22 12.05 31.72 12.14 32.47 13.39 29.56 13.55 30.22 12.05"/><polygon class="cls-2" points="4.89 40.39 5.22 42.8 2.72 42.47 4.89 40.39"/><polygon class="cls-2" points="13.39 40.72 13.72 42.97 11.31 42.39 13.39 40.72"/><polygon class="cls-2" points="17.08 41.99 18.83 41.49 20.33 42.74 18.16 43.74 17.08 41.99"/><polygon class="cls-2" points="22.85 39.24 23.6 41.41 21.35 41.24 22.85 39.24"/><polygon class="cls-2" points="36.81 41.39 37.89 42.55 36.22 43.14 36.81 41.39"/><polygon class="cls-2" points="30.41 41.14 31.91 41.22 32.66 42.47 29.75 42.64 30.41 41.14"/><polygon class="cls-2" points="1.06 20.39 4.14 20.89 3.39 21.8 3.14 23.55 1.06 20.39"/><polygon class="cls-2" points="7.72 21.3 8.89 22.89 6.72 24.05 5.39 23.72 7.72 21.3"/><polygon class="cls-2" points="11.81 20.55 12.14 22.39 14.64 21.14 11.81 20.55"/><polygon class="cls-2" points="17.72 21.05 20.22 20.64 20.47 22.39 17.72 21.05"/><polygon class="cls-2" points="25.72 20.22 25.97 22.22 28.39 21.14 25.72 20.22"/><polygon class="cls-2" points="32.22 20.72 33.14 22.47 34.56 21.05 33.81 20.14 32.22 20.72"/><polygon class="cls-2" points="36.81 20.3 37.72 21.22 36.06 22.05 36.81 20.3"/><polygon class="cls-2" points="-0.44 26.97 -0.53 28.05 1.47 28.3 1.47 26.72 -0.44 26.97"/><polygon class="cls-2" points="6.31 26.72 4.89 28.22 7.22 29.14 6.31 26.72"/><polygon class="cls-2" points="9.64 25.64 10.97 24.89 12.56 24.89 11.89 27.3 9.64 25.64"/><polygon class="cls-2" points="14.14 27.47 13.06 29.22 15.31 29.3 14.14 27.47"/><polygon class="cls-2" points="15.31 24.3 17.97 24.22 16.89 26.39 15.31 24.3"/><polygon class="cls-2" points="23.47 23.05 23.64 25.72 21.39 25.22 23.47 23.05"/><polygon class="cls-2" points="25.56 27.05 25.47 28.89 27.81 28.64 26.81 27.14 25.56 27.05"/><polygon class="cls-2" points="28.31 24.39 30.89 23.64 30.56 25.97 28.31 24.39"/><polygon class="cls-2" points="32.39 27.3 33.56 27.05 34.56 28.97 32.31 29.3 32.39 27.3"/><polygon class="cls-2" points="36.81 23.47 36.06 25.39 37.64 25.89 38.39 24.22 36.81 23.47"/><polygon class="cls-2" points="36.97 27.47 36.22 28.14 37.14 29.39 38.22 28.39 36.97 27.47"/><polygon class="cls-2" points="19.72 27.3 18.81 29.14 21.47 29.05 19.72 27.3"/><polygon class="cls-2" points="1.35 37.93 1.43 39.35 3.18 40.01 3.52 38.35 1.35 37.93"/><polygon class="cls-2" points="4.18 36.7 5.93 36.2 6.1 38.28 4.18 36.7"/><polygon class="cls-2" points="6.87 39.6 7.87 41.35 9.37 39.6 6.87 39.6"/><polygon class="cls-2" points="10.1 38.28 10.77 39.45 13.02 37.62 11.27 36.95 10.1 38.28"/><polygon class="cls-2" points="15.31 38.35 13.89 39.6 16.89 39.85 15.31 38.35"/><polygon class="cls-2" points="17.1 37.45 18.6 39.03 20.1 37.12 17.68 36.87 17.1 37.45"/><polygon class="cls-2" points="23.27 37.45 24.85 37.28 26.02 38.03 25.18 39.2 23.27 37.45"/><polygon class="cls-2" points="26.31 40.47 25.31 41.8 27.22 42.47 28.64 41.47 26.31 40.47"/><polygon class="cls-2" points="29.85 37.28 32.68 37.12 31.35 38.87 29.85 37.28"/><polygon class="cls-2" points="34.1 39.39 35.6 40.05 35.43 41.14 33.02 40.72 34.1 39.39"/><polygon class="cls-2" points="38.04 38.85 35.47 38.22 36.85 36.6 38.04 38.85"/><polygon class="cls-2" points="0.31 43.72 3.39 44.22 2.64 45.14 2.39 46.89 0.31 43.72"/><polygon class="cls-2" points="8.27 43.6 9.43 45.18 7.27 46.35 5.93 46.01 8.27 43.6"/><polygon class="cls-2" points="11.41 44.91 11.74 46.74 14.24 45.49 11.41 44.91"/><polygon class="cls-2" points="18.14 44.97 20.64 44.55 20.89 46.3 18.14 44.97"/><polygon class="cls-2" points="24.22 44.47 24.47 46.47 26.89 45.39 24.22 44.47"/><polygon class="cls-2" points="29.33 44.51 30.25 46.26 31.66 44.85 30.91 43.93 29.33 44.51"/><polygon class="cls-2" points="35.04 44.03 36.6 45.97 34.04 46.41 35.04 44.03"/><line class="cls-3" x1="1.89" y1="11.14" x2="1.89" y2="11.14"/><line class="cls-3" x1="3.14" y1="9.3" x2="3.14" y2="9.3"/><line class="cls-3" x1="2.22" y1="7.14" x2="2.22" y2="7.14"/><line class="cls-3" x1="1.06" y1="13.8" x2="1.06" y2="13.8"/><line class="cls-3" x1="4.22" y1="15.05" x2="4.22" y2="15.05"/><line class="cls-3" x1="6.31" y1="10.97" x2="6.31" y2="10.97"/><line class="cls-3" x1="8.22" y1="7.64" x2="8.22" y2="7.64"/><line class="cls-3" x1="11.06" y1="9.72" x2="11.06" y2="9.72"/><line class="cls-3" x1="14.89" y1="6.8" x2="14.89" y2="6.8"/><line class="cls-3" x1="16.39" y1="8.47" x2="16.39" y2="8.47"/><line class="cls-3" x1="14.89" y1="12.05" x2="14.89" y2="12.05"/><line class="cls-3" x1="8.47" y1="13.14" x2="8.47" y2="13.14"/><line class="cls-3" x1="7.47" y1="15.97" x2="7.47" y2="15.97"/><line class="cls-3" x1="11.89" y1="15.14" x2="11.89" y2="15.14"/><line class="cls-3" x1="15.31" y1="14.47" x2="15.31" y2="14.47"/><line class="cls-3" x1="18.97" y1="14.97" x2="18.97" y2="14.97"/><line class="cls-3" x1="21.89" y1="14.72" x2="21.89" y2="14.72"/><line class="cls-3" x1="21.64" y1="11.64" x2="21.64" y2="11.64"/><line class="cls-3" x1="18.89" y1="10.14" x2="18.89" y2="10.14"/><line class="cls-3" x1="21.64" y1="8.64" x2="21.64" y2="8.64"/><line class="cls-3" x1="25.85" y1="6.78" x2="25.85" y2="6.78"/><line class="cls-3" x1="26.14" y1="10.39" x2="26.14" y2="10.39"/><line class="cls-3" x1="27.72" y1="13.14" x2="27.72" y2="13.14"/><line class="cls-3" x1="31.47" y1="10.8" x2="31.47" y2="10.8"/><line class="cls-3" x1="28.97" y1="7.64" x2="28.97" y2="7.64"/><line class="cls-3" x1="34.64" y1="6.8" x2="34.64" y2="6.8"/><line class="cls-3" x1="36.31" y1="9.47" x2="36.31" y2="9.47"/><line class="cls-3" x1="37.89" y1="11.47" x2="37.89" y2="11.47"/><line class="cls-3" x1="34.22" y1="13.22" x2="34.22" y2="13.22"/><line class="cls-3" x1="37.64" y1="15.39" x2="37.64" y2="15.39"/><line class="cls-3" x1="34.47" y1="15.64" x2="34.47" y2="15.64"/><line class="cls-3" x1="30.56" y1="15.22" x2="30.56" y2="15.22"/><line class="cls-3" x1="-0.03" y1="16.14" x2="-0.03" y2="16.14"/><line class="cls-3" x1="3.14" y1="17.47" x2="3.14" y2="17.47"/><line class="cls-3" x1="5.89" y1="18.72" x2="5.89" y2="18.72"/><line class="cls-3" x1="9.72" y1="18.55" x2="9.72" y2="18.55"/><line class="cls-3" x1="13.89" y1="17.39" x2="13.89" y2="17.39"/><line class="cls-3" x1="17.39" y1="17.39" x2="17.39" y2="17.39"/><line class="cls-3" x1="15.81" y1="20.3" x2="15.81" y2="20.3"/><line class="cls-3" x1="9.97" y1="21.72" x2="9.97" y2="21.72"/><line class="cls-3" x1="4.81" y1="21.89" x2="4.81" y2="21.89"/><line class="cls-3" x1="0.64" y1="22.55" x2="0.64" y2="22.55"/><line class="cls-3" x1="3.31" y1="25.39" x2="3.31" y2="25.39"/><line class="cls-3" x1="7.89" y1="25.05" x2="7.89" y2="25.05"/><line class="cls-3" x1="9.47" y1="27.8" x2="9.47" y2="27.8"/><line class="cls-3" x1="12.47" y1="30.89" x2="12.47" y2="30.89"/><line class="cls-3" x1="14.47" y1="25.97" x2="14.47" y2="25.97"/><line class="cls-3" x1="13.81" y1="23.39" x2="13.81" y2="23.39"/><line class="cls-3" x1="19.06" y1="22.97" x2="19.06" y2="22.97"/><line class="cls-3" x1="19.89" y1="18.8" x2="19.89" y2="18.8"/><line class="cls-3" x1="21.64" y1="16.8" x2="21.64" y2="16.8"/><line class="cls-3" x1="24.72" y1="15.22" x2="24.72" y2="15.22"/><line class="cls-3" x1="24.39" y1="17.55" x2="24.39" y2="17.55"/><line class="cls-3" x1="22.72" y1="20.05" x2="22.72" y2="20.05"/><line class="cls-3" x1="19.72" y1="25.72" x2="19.72" y2="25.72"/><line class="cls-3" x1="16.97" y1="28.97" x2="16.97" y2="28.97"/><line class="cls-3" x1="23.06" y1="27.8" x2="23.06" y2="27.8"/><line class="cls-3" x1="25.81" y1="25.05" x2="25.81" y2="25.05"/><line class="cls-3" x1="24.47" y1="22.05" x2="24.47" y2="22.05"/><line class="cls-3" x1="28.31" y1="22.72" x2="28.31" y2="22.72"/><line class="cls-3" x1="31.06" y1="20.89" x2="31.06" y2="20.89"/><line class="cls-3" x1="28.14" y1="19.22" x2="28.14" y2="19.22"/><line class="cls-3" x1="28.06" y1="16.47" x2="28.06" y2="16.47"/><line class="cls-3" x1="31.31" y1="18.14" x2="31.31" y2="18.14"/><line class="cls-3" x1="35.06" y1="19.39" x2="35.06" y2="19.39"/><line class="cls-3" x1="36.81" y1="17.64" x2="36.81" y2="17.64"/><line class="cls-3" x1="33.64" y1="24.39" x2="33.64" y2="24.39"/><line class="cls-3" x1="35.31" y1="27.22" x2="35.31" y2="27.22"/><line class="cls-3" x1="29.14" y1="27.05" x2="29.14" y2="27.05"/><line class="cls-3" x1="30.81" y1="29.97" x2="30.81" y2="29.97"/><line class="cls-3" x1="34.06" y1="30.3" x2="34.06" y2="30.3"/><line class="cls-3" x1="37.14" y1="31.05" x2="37.14" y2="31.05"/><line class="cls-3" x1="26.85" y1="29.91" x2="26.85" y2="29.91"/><line class="cls-3" x1="23.06" y1="30.39" x2="23.06" y2="30.39"/><line class="cls-3" x1="20.06" y1="30.3" x2="20.06" y2="30.3"/><line class="cls-3" x1="15.89" y1="31.8" x2="15.89" y2="31.8"/><line class="cls-3" x1="21.97" y1="33.91" x2="21.97" y2="33.91"/><line class="cls-3" x1="8.39" y1="30.22" x2="8.39" y2="30.22"/><line class="cls-3" x1="3.14" y1="28.64" x2="3.14" y2="28.64"/><line class="cls-3" x1="0.22" y1="24.89" x2="0.22" y2="24.89"/><line class="cls-3" x1="0.22" y1="30.3" x2="0.22" y2="30.3"/><line class="cls-3" x1="1.06" y1="41.3" x2="1.06" y2="41.3"/><line class="cls-3" x1="1.47" y1="48.47" x2="1.47" y2="48.47"/><line class="cls-3" x1="4.47" y1="45.14" x2="4.47" y2="45.14"/><line class="cls-3" x1="8.31" y1="36.47" x2="8.31" y2="36.47"/><line class="cls-3" x1="0.64" y1="51.14" x2="0.64" y2="51.14"/><line class="cls-3" x1="3.97" y1="51.14" x2="3.97" y2="51.14"/><line class="cls-3" x1="5.89" y1="48.3" x2="5.89" y2="48.3"/><line class="cls-3" x1="14.89" y1="33.97" x2="14.89" y2="33.97"/><line class="cls-3" x1="10.64" y1="47.05" x2="10.64" y2="47.05"/><line class="cls-3" x1="14.47" y1="44.14" x2="14.47" y2="44.14"/><line class="cls-3" x1="15.97" y1="45.8" x2="15.97" y2="45.8"/><line class="cls-3" x1="14.47" y1="49.39" x2="14.47" y2="49.39"/><line class="cls-3" x1="8.06" y1="50.47" x2="8.06" y2="50.47"/><line class="cls-3" x1="7.06" y1="53.3" x2="7.06" y2="53.3"/><line class="cls-3" x1="11.47" y1="52.47" x2="11.47" y2="52.47"/><line class="cls-3" x1="14.89" y1="51.8" x2="14.89" y2="51.8"/><line class="cls-3" x1="17.97" y1="50.39" x2="17.97" y2="50.39"/><line class="cls-3" x1="21.47" y1="52.05" x2="21.47" y2="52.05"/><line class="cls-3" x1="21.22" y1="48.97" x2="21.22" y2="48.97"/><line class="cls-3" x1="18.47" y1="47.47" x2="18.47" y2="47.47"/><line class="cls-3" x1="30.56" y1="32.72" x2="30.56" y2="32.72"/><line class="cls-3" x1="22.89" y1="43.39" x2="22.89" y2="43.39"/><line class="cls-3" x1="25.72" y1="47.72" x2="25.72" y2="47.72"/><line class="cls-3" x1="27.31" y1="50.47" x2="27.31" y2="50.47"/><line class="cls-3" x1="31.06" y1="48.14" x2="31.06" y2="48.14"/><line class="cls-3" x1="27.41" y1="44.03" x2="27.41" y2="44.03"/><line class="cls-3" x1="32.89" y1="45.47" x2="32.89" y2="45.47"/><line class="cls-3" x1="38.22" y1="44.22" x2="38.22" y2="44.22"/><line class="cls-3" x1="36.52" y1="49.8" x2="36.52" y2="49.8"/><line class="cls-3" x1="32.18" y1="50.55" x2="32.18" y2="50.55"/><line class="cls-3" x1="37.22" y1="52.72" x2="37.22" y2="52.72"/><line class="cls-3" x1="34.06" y1="52.97" x2="34.06" y2="52.97"/><line class="cls-3" x1="30.14" y1="52.55" x2="30.14" y2="52.55"/><line class="cls-3" x1="15.97" y1="41.3" x2="15.97" y2="41.3"/><line class="cls-3" x1="20.22" y1="39.8" x2="20.22" y2="39.8"/><line class="cls-3" x1="2.72" y1="32.22" x2="2.72" y2="32.22"/><line class="cls-3" x1="9.47" y1="42.47" x2="9.47" y2="42.47"/><line class="cls-3" x1="7.81" y1="33.05" x2="7.81" y2="33.05"/><line class="cls-3" x1="5.64" y1="31.05" x2="5.64" y2="31.05"/><line class="cls-3" x1="5.14" y1="34.64" x2="5.14" y2="34.64"/><line class="cls-3" x1="11.39" y1="32.97" x2="11.39" y2="32.97"/><line class="cls-3" x1="19.31" y1="53.22" x2="19.31" y2="53.22"/><line class="cls-3" x1="24.31" y1="50.3" x2="24.31" y2="50.3"/><line class="cls-3" x1="24.97" y1="52.64" x2="24.97" y2="52.64"/><line class="cls-3" x1="27.6" y1="37.35" x2="27.6" y2="37.35"/><line class="cls-3" x1="18.31" y1="35.64" x2="18.31" y2="35.64"/><line class="cls-3" x1="19.06" y1="32.64" x2="19.06" y2="32.64"/><line class="cls-3" x1="24.35" y1="32.53" x2="24.35" y2="32.53"/><line class="cls-3" x1="29.54" y1="39.91" x2="29.54" y2="39.91"/><line class="cls-3" x1="27.64" y1="53.8" x2="27.64" y2="53.8"/><line class="cls-3" x1="11.31" y1="49.64" x2="11.31" y2="49.64"/><line class="cls-3" x1="36.72" y1="33.64" x2="36.72" y2="33.64"/><line class="cls-3" x1="33.64" y1="32.47" x2="33.64" y2="32.47"/><line class="cls-3" x1="27.47" y1="32.3" x2="27.47" y2="32.3"/><line class="cls-3" x1="29.14" y1="35.22" x2="29.14" y2="35.22"/><line class="cls-3" x1="32.39" y1="35.55" x2="32.39" y2="35.55"/><line class="cls-3" x1="35.47" y1="36.3" x2="35.47" y2="36.3"/><line class="cls-3" x1="25.64" y1="35.39" x2="25.64" y2="35.39"/><line class="cls-3" x1="21.79" y1="36.91" x2="21.79" y2="36.91"/><line class="cls-3" x1="11.72" y1="35.3" x2="11.72" y2="35.3"/><line class="cls-3" x1="14.22" y1="37.14" x2="14.22" y2="37.14"/><line class="cls-3" x1="1.39" y1="35.89" x2="1.39" y2="35.89"/><line class="cls-3" x1="37.52" y1="46.8" x2="37.52" y2="46.8"/><line class="cls-3" x1="34.1" y1="42.72" x2="34.1" y2="42.72"/><rect class="cls-1" width="53.75" height="53.75"/></svg>