<!-- Generator: Adobe Illustrator 22.1.0, SVG Export Plug-In  -->
<svg version="1.1"
     xmlns="http://www.w3.org/2000/svg" xmlns:xlink="http://www.w3.org/1999/xlink" xmlns:a="http://ns.adobe.com/AdobeSVGViewerExtensions/3.0/"
     x="0px" y="0px" width="53.9px" height="54.1px" viewBox="0 0 53.9 54.1" style="enable-background:new 0 0 53.9 54.1;"
     xml:space="preserve">
<style type="text/css">
    .st0{fill:none;stroke:#000000;stroke-width:0.3;}
    .st1{fill:none;stroke:#000000;stroke-width:0.3;stroke-linejoin:round;}
    .st2{fill:none;stroke:#000000;stroke-width:0.8;stroke-linecap:round;stroke-linejoin:round;}
</style>
<defs>
</defs>
<path class="st0" d="M0.2,1.1c0,0,2.2,0.2,2.8,0.6S0.5,2.6,0.5,2.6L0.2,1.1z"/>
<path class="st1" d="M14.8,0.9c-0.5,2.2,2.4,3.3,3.1,3.5c0.2,0-2.4,2.2-2.4,2.2c-0.8-0.8-5.4-1-6.4-0.8c0,0,1.6-1.1,1.2-2.2
    c0,0,2.8-0.7,2.8-1.8L14.8,0.9z"/>
<path class="st1" d="M17.4,1.1c0.8,0.7,1.8,1.1,2.7,1.4c0,0,0.8-0.9,0.9-1.8L17.4,1.1z"/>
<path class="st1" d="M24.1,1.4c0.1,0.9,0.5,1.7,0.8,2.2c0,0,1.4-1.7,2.3-2L24.1,1.4z"/>
<polygon class="st1" points="0.3,6.4 2.8,3.5 6.5,3.8 6,6.1 6.5,7.3 5.1,8 4.8,9.1 2.4,9.5 1.3,7.8 "/>
<polygon class="st1" points="18.8,7.2 19.4,9.2 18.5,10.9 21.3,12.9 23.5,12 25.3,9.5 26.7,8.4 24.9,6.5 24.6,5.3 21.4,4.9
    20.1,6.2 "/>
<polygon class="st1" points="0.6,11.9 0.4,14.5 1.8,13.7 2.6,13.5 2.7,11.2 "/>
<polygon class="st1" points="6.7,12.2 7.7,10.8 7.7,9.5 9,8.4 11.6,9 14,8.7 16.3,10.2 15.4,11.2 13.1,10.5 12.5,11.5 11.5,11.9
    10.2,13.7 9.1,12.7 "/>
<polygon class="st1" points="14.3,13.8 17,13.9 17.1,14.5 18.7,15.9 18.2,16.6 17.5,16.9 16.9,17.9 14.1,18.8 14.8,16 "/>
<polygon class="st1" points="19.7,14 21,13.8 22.1,14.7 23.8,15.3 22.2,15.7 20.9,16.4 20.3,14.9 "/>
<polygon class="st1" points="4.3,15.9 7.5,15.2 8.6,16.5 11,17.5 9,19.3 10.1,21.4 8.6,21.4 5.7,22.4 5,22.4 4.5,19.7 5.3,17.2 "/>
<polygon class="st1" points="0.9,17.4 2,17.3 1.9,20 0.2,20.2 "/>
<polygon class="st1" points="24.8,14.1 26.1,12.3 27.1,12.2 29,10.1 30,11.6 31.4,12.6 29.9,14 29.3,15.7 26.3,14.3 "/>
<polygon class="st1" points="20,18.7 23.3,17.9 24.8,16.6 27,17.9 28.8,18.2 31.8,21.1 29.3,23.4 26.9,21.5 23.3,21.5 21.3,19.7 "/>
<polygon class="st1" points="14.1,22.5 15.6,21.3 17.6,23 16,24.4 "/>
<path class="st1" d="M1.5,25.9c0,0,1.4-2.1,1.8-2.1l0.1,2.9L1.5,25.9z"/>
<polygon class="st1" points="5.7,26.1 8,25 9.4,25.4 12.2,24.3 12.6,26.2 15.2,28.2 13.8,28.4 12.8,30.1 10.8,28 8,28 6.9,28.3 "/>
<polygon class="st1" points="17.8,27.2 19.3,25.4 21.8,26.3 20.5,26.9 "/>
<polygon class="st1" points="23.8,25.4 24.9,24.1 26.9,25 28.8,25.5 28.9,27.6 27,27.8 25.8,26.6 "/>
<polygon class="st1" points="32.8,24 33.2,22.1 35.5,22.1 34.9,23.5 "/>
<path class="st1" d="M32.3,18c0,0,1.8-0.1,2.6,0.1s0.8,0.4,0.8,0.4l1.8-1.1l1.4-0.4c0,0,0-0.6,0.3-1c0.3-0.4,1.3-0.7,1.3-0.7
    s-1.5-1.1-1.8-1.6S36.4,14,36.4,14L34.3,14l-1.2,1c0,0,0.4,0.5,0,1.4C32.7,17.2,32.3,18,32.3,18z"/>
<polygon class="st1" points="36.5,10.9 39,8.7 39.2,11.2 "/>
<path class="st1" d="M43.3,5.8c1.1,0.5,2.6,0.7,2.6,0.7l0.2,5c-1.1-0.6-2.9-0.9-3.2-0.6s-1-2.1-1.4-2.2s0.8-0.9,1-1.4
    S43.3,5.8,43.3,5.8z"/>
<path class="st1" d="M49.1,7.3c0.4-0.6,1-1,1-1L53.2,9l-1.4,1.8c0,0-2.1-0.1-2.4-0.4s0.1-2.4,0.1-2.4L49.1,7.3z"/>
<path class="st1" d="M48.7,13.7c0,0,0.9,0.7,1.6,0.8s2.2-0.1,2.2-0.1l0.2,2.9c0,0-0.6,0.2-1.8,0.4s-1.6,0.1-2.2,1.1S47.8,20,47.8,20
    L46.3,20c0,0-1.2-1-1.8-1.1s0.1-1.4,0-2.3c-0.1-0.9-0.3-1.4-0.3-1.4s1.6-0.1,2.3-0.2S48.7,13.7,48.7,13.7z"/>
<path class="st1" d="M42,18l-1.6,1.2l-1-0.8c0,0,0.7-0.9,1.2-1.1S42,18,42,18z"/>
<path class="st1" d="M41.7,21.4c0.6,0,2.4-0.1,2.4-0.1s0.2,0.9,0.1,1.4s-1.4,0-1.4,0L41.7,21.4z"/>
<polygon class="st1" points="50,19.2 50.5,20.4 52.5,20.9 52.3,19.4 "/>
<polygon class="st1" points="49.3,22.5 52.9,22.5 52.1,24.2 47.7,23.4 "/>
<path class="st1" d="M46.2,25.6c1.6-0.4,1.3-0.6,2.3-0.2s2,0.9,2.7,1.1s1.9,0.4,1.9,0.4s-0.2,0.9-0.4,1.4s1.1,3.1,1.1,3.1L50,31
    c0,0-0.3-0.8-1.2-1.1s-1.2-0.4-1.7-1.3S44.8,27,44.8,27L46.2,25.6z"/>
<path class="st1" d="M36.7,25.2c1.9-0.2,3.3-0.1,3.3-0.1s0.4,0.6,0.4,0.8s-1.2,0.9-1.7,1.4s-0.4,1.6-0.3,2s0.8,1.7,0.8,1.7l-1.3,1.1
    c0,0-1.2-1.1-1.7-1.6s-1.3-1.1-2.5-1.2s-1.2-0.6-0.8-1.1s0.2-1.2,1.1-1.3S36.7,25.2,36.7,25.2z"/>
<path class="st1" d="M41.1,30c0,0,1.8-0.5,2.3-0.2s3.9,2.4,3.9,2.4l-0.8,0.7c0,0-0.6-0.6-1.2-0.8s-1.8,0.1-1.8,0.1L42.2,33
    c0,0-0.3-1.9-0.4-2.1S41.1,30,41.1,30z"/>
<path class="st1" d="M48.5,35.5c0,0,1.3-0.8,1.9-0.8s0.5,0,1,0.3s1.6,0.4,1.6,0.4l-0.6,2.2c0,0-1.1-0.9-1.4-1.1s-2.5,0.2-2.5,0.2
    V35.5z"/>
<path class="st1" d="M37.9,33.9l1.2,0.2c0,0-0.9,1.1-0.8,1.7s-0.2-0.2-0.6-0.6S37.9,33.9,37.9,33.9z"/>
<path class="st1" d="M29.9,30.7l1.1-0.1c0,0,0.1,0.6,0.6,0.9c0.6,0.3,2.2,1.2,2.2,1.2l-1.7,2c0,0-2.3-0.6-2.6-0.4s-1-0.6-1-0.6
    s0.9-1.6,1-1.8S29.9,30.7,29.9,30.7z"/>
<path class="st1" d="M35.2,36c0,0,2.6,1.9,2.8,2.3s-0.4,0.9-0.7,1.5s-0.8,1.4-0.8,1.4s-2.9,0-3.6,0s-1.3,0.4-1.3,0.4l-1-0.3l0.4-2.1
    l0.7-1c0,0,0.2,0.1,0.9-0.2c0.7-0.3,1.3-1.1,1.5-1.4L35.2,36z"/>
<path class="st1" d="M41.9,34.7c0,0,1.9,0.6,2.5,1c0.5,0.5,1.1,0.7,1,1.2c-0.1,0.5-0.1,0.8-0.2,1.1c0,0.3,0.7,2,0.7,2
    s-1.3,0.3-1.7,0.6c-0.4,0.3-1,0.8-1,0.8l-3.8-2l1.4-1.3l1.2-2.1L41.9,34.7z"/>
<path class="st1" d="M48.7,39.2l1.5,0.5L50.1,41c0,0-1-0.1-1.3-0.2s-1.1-0.3-1.3-0.2S48.7,39.2,48.7,39.2z"/>
<path class="st1" d="M8,1.5L9.5,2L9.4,3.4c0,0-1-0.1-1.3-0.2C7.8,3,7,2.8,6.8,2.9S8,1.5,8,1.5z"/>
<path class="st1" d="M28.5,36.2l1.9-0.2c0,0-0.8,1.4-0.6,2.1s-0.7-0.4-0.7-0.4L28.5,36.2z"/>
<path class="st1" d="M18,30.5c0,0,1.9-0.3,3.2-1s2.4-1.4,2.4-1.4s1.1,0.9,1.2,1.4s1.2,1,1.8,1.2s0,1.6,0,1.6s-0.6,0.1-1,0.2
    s-0.9,2.1-1,2.3s-1.7,0-2.1,0s-1.8-0.4-1.8-0.4s-0.7-0.2-0.2-1.1s-0.7-1.5-1.2-1.7s-1.2-0.6-1.2-0.6L18,30.5z"/>
<polygon class="st1" points="22.1,37.4 26.6,37.5 25.7,40.2 23,40.4 22.8,38.9 "/>
<polygon class="st1" points="27.7,40.1 29.2,40.8 28.9,42 27.2,42.2 27.5,41 "/>
<polygon class="st1" points="18.3,36.4 20.5,36.4 20,37.1 20,38.4 19.2,38.3 "/>
<polygon class="st1" points="19.3,39.5 20.9,39.5 21.1,41.2 21.7,41.9 21,42.4 20,42 18.8,42.3 "/>
<polygon class="st1" points="13.7,37.5 15.8,37.7 15.6,38.9 15.6,40.7 13.6,40.5 11.7,41.2 12.8,39 "/>
<polygon class="st1" points="10,32.2 13,31.4 14,32.7 16.3,33.4 15.6,34.8 12.9,35.2 9.6,33.2 "/>
<polygon class="st1" points="0.3,29.9 4.8,29.8 5.2,30.6 5.8,31.5 4.3,32.2 2.2,33.5 1.3,34.1 1.1,31.9 0.3,30.4 "/>
<polygon class="st1" points="4.2,34.9 5.9,35.4 9.4,36.6 8.3,39.7 3.5,41.7 0.9,41 2.8,37.4 "/>
<polygon class="st1" points="32.2,3.2 34.7,4.5 38.8,3.2 39.4,6.4 35.8,7.5 32.7,10 30.5,6.5 29,5.6 29.1,4.1 "/>
<polygon class="st1" points="34.5,1 34.8,2.2 36.7,1.4 "/>
<polygon class="st1" points="41,1.9 42.5,3.7 44.1,3.2 45.2,3.6 46.3,2.4 45.8,1.4 43.9,0.7 41.6,1.4 "/>
<path class="st1" d="M47.5,1.7c0,0,1.9,1.1,2.2,1.5s0.8,1.2,0.8,1.2l1.8-0.3c0,0-0.6-0.9-0.8-1.1s-0.3-1.3-0.3-1.3l-2.4-0.3
    L47.5,1.7z"/>
<path class="st1" d="M36,52.3c0.8,0.7,1.8,1.1,2.7,1.4c0,0,0.8-0.9,0.9-1.8L36,52.3z"/>
<polygon class="st1" points="39.4,43 40.7,42.8 41.8,43.7 43.5,44.3 41.9,44.7 40.6,45.4 40,43.9 "/>
<path class="st1" d="M1.1,52.8c0,0,1.4-2.1,1.8-2.1L3,53.6L1.1,52.8z"/>
<polygon class="st1" points="27.1,51.6 28.3,50.3 30.3,51.2 32.2,51.6 32.3,53.8 30.4,53.9 29.2,52.8 "/>
<path class="st1" d="M40,47.7L38.4,49l-1-0.8c0,0,0.7-0.9,1.2-1.1S40,47.7,40,47.7z"/>
<path class="st1" d="M0.6,43.3c0.6,0,2.4-0.1,2.4-0.1s0.2,0.9,0.1,1.4s-1.4,0-1.4,0L0.6,43.3z"/>
<path class="st1" d="M47.2,50.7c0,0,1.8-0.5,2.3-0.2s3.9,2.4,3.9,2.4l-0.8,0.7c0,0-0.6-0.6-1.2-0.8s-1.8,0.1-1.8,0.1l-1.4,0.8
    c0,0-0.3-1.9-0.4-2.1S47.2,50.7,47.2,50.7z"/>
<path class="st1" d="M41.8,48.1l1.1-0.1c0,0,0.1,0.6,0.6,0.9s2.2,1.2,2.2,1.2l-1.7,2c0,0-2.2-0.6-2.6-0.4s-1-0.6-1-0.6
    s0.9-1.6,1-1.8S41.8,48.1,41.8,48.1z"/>
<polygon class="st1" points="4.8,44.7 7.1,43.6 8.5,44 11.3,42.9 11.7,44.8 14.3,46.8 12.9,46.9 11.9,48.7 10,46.6 7.2,46.6 6,46.9
    "/>
<polygon class="st1" points="16.9,45.8 18.4,43.9 21,44.9 19.6,45.4 "/>
<polygon class="st1" points="22.9,44 24,42.7 26,43.6 28,44.1 28,46.2 26.1,46.4 25,45.2 "/>
<polygon class="st1" points="1.8,47.9 5.4,48 4.6,49.7 0.2,48.9 "/>
<path class="st1" d="M46,43c1.6-0.4,1.3-0.6,2.3-0.2s2,0.9,2.7,1.1s1.9,0.4,1.9,0.4s-0.2,0.9-0.4,1.4s1.1,3.1,1.1,3.1l-3.8-0.4
    c0,0-0.3-0.8-1.2-1.1S47.4,46.9,47,46s-2.4-1.6-2.4-1.6L46,43z"/>
<path class="st1" d="M33.2,44.2c1.9-0.2,3.3-0.1,3.3-0.1s0.4,0.6,0.4,0.8s-1.2,0.9-1.7,1.4s-0.4,1.6-0.3,2s0.8,1.7,0.8,1.7l-1.3,1.1
    c0,0-1.2-1.1-1.7-1.6s-1.3-1.1-2.5-1.2s-1.2-0.6-0.8-1.1s0.2-1.2,1.1-1.3S33.2,44.2,33.2,44.2z"/>
<path class="st1" d="M17.1,49.1c0,0,1.9-0.3,3.2-1s2.4-1.4,2.4-1.4s1.1,0.9,1.2,1.4s1.2,1,1.8,1.2s0,1.6,0,1.6s-0.6,0.1-1,0.2
    s-0.9,2.1-1,2.3s-1.7,0-2.1,0s-1.8-0.4-1.8-0.4S19,52.8,19.5,52s-0.7-1.5-1.2-1.7S17,49.8,17,49.8L17.1,49.1z"/>
<polygon class="st1" points="6.7,50.9 9.6,50.2 10.6,51.4 12.9,52.2 12.3,53.6 9.5,53.9 6.3,51.9 "/>
<line class="st1" x1="1.6" y1="39.9" x2="1.7" y2="41.1"/>
<line class="st1" x1="2.1" y1="38.8" x2="2.5" y2="41.4"/>
<line class="st1" x1="2.8" y1="37.4" x2="3.5" y2="41.7"/>
<line class="st1" x1="3.3" y1="36.6" x2="4.4" y2="41.3"/>
<line class="st1" x1="3.9" y1="35.6" x2="5.5" y2="41"/>
<line class="st1" x1="4.6" y1="35" x2="6.4" y2="40.5"/>
<line class="st1" x1="5.6" y1="35.3" x2="7.1" y2="40.3"/>
<line class="st1" x1="6.7" y1="35.7" x2="7.9" y2="39.9"/>
<line class="st1" x1="7.5" y1="36" x2="8.5" y2="39.1"/>
<line class="st1" x1="8.4" y1="36.3" x2="9" y2="38"/>
<line class="st1" x1="17.9" y1="31.2" x2="24.1" y2="28.6"/>
<line class="st1" x1="19.1" y1="31.7" x2="24.5" y2="29.1"/>
<line class="st1" x1="20.1" y1="32.4" x2="24.8" y2="29.7"/>
<line class="st1" x1="20.3" y1="33.4" x2="25.3" y2="30.2"/>
<path class="st1" d="M20.6,34.5c0-0.2,5.2-4.1,5.2-4.1"/>
<line class="st1" x1="21.6" y1="34.7" x2="26.5" y2="30.7"/>
<line class="st1" x1="22.9" y1="34.9" x2="26.7" y2="31.4"/>
<line class="st1" x1="42.7" y1="34.8" x2="40.4" y2="39.8"/>
<line class="st1" x1="46.1" y1="27.5" x2="52.7" y2="28"/>
<line class="st1" x1="24.4" y1="21.6" x2="27.6" y2="18.2"/>
<line class="st1" x1="45.5" y1="15.1" x2="49" y2="18.4"/>
<line class="st1" x1="33.9" y1="4.2" x2="35.3" y2="7.7"/>
<line class="st1" x1="14.1" y1="1.4" x2="14.2" y2="6"/>
<line class="st1" x1="49.7" y1="3.2" x2="51.5" y2="2.6"/>
<line class="st1" x1="46.5" y1="14.9" x2="49.6" y2="18"/>
<line class="st1" x1="47.4" y1="14.5" x2="50.4" y2="17.9"/>
<line class="st1" x1="48.3" y1="14" x2="51" y2="17.7"/>
<line class="st1" x1="49.8" y1="14.4" x2="51.5" y2="17.5"/>
<line class="st1" x1="51.7" y1="14.4" x2="52.1" y2="17.4"/>
<line class="st1" x1="44.4" y1="15.9" x2="48.5" y2="19.1"/>
<line class="st1" x1="44.5" y1="17.4" x2="48" y2="19.7"/>
<line class="st1" x1="35.2" y1="4.4" x2="36.3" y2="7.3"/>
<line class="st1" x1="36.3" y1="4" x2="37.3" y2="7"/>
<line class="st1" x1="37.3" y1="3.7" x2="38.2" y2="6.7"/>
<line class="st1" x1="38.2" y1="3.5" x2="38.8" y2="6.5"/>
<line class="st1" x1="32.2" y1="3.2" x2="34.6" y2="8.4"/>
<line class="st1" x1="31" y1="3.7" x2="33.9" y2="9"/>
<line class="st1" x1="29.6" y1="4" x2="33.3" y2="9.4"/>
<line class="st1" x1="47.2" y1="28.6" x2="52.7" y2="28.9"/>
<line class="st1" x1="45.3" y1="26.5" x2="52.8" y2="27.4"/>
<line class="st1" x1="46.2" y1="25.6" x2="50.3" y2="26.2"/>
<line class="st1" x1="48.8" y1="29.9" x2="53" y2="29.7"/>
<line class="st1" x1="51.7" y1="31.2" x2="53.5" y2="30.7"/>
<line class="st1" x1="28.9" y1="18.4" x2="26.1" y2="21.5"/>
<line class="st1" x1="29.6" y1="19.1" x2="27.5" y2="21.9"/>
<line class="st1" x1="30.4" y1="19.8" x2="28.1" y2="22.4"/>
<line class="st1" x1="31" y1="20.5" x2="28.8" y2="23"/>
<line class="st1" x1="26.5" y1="17.7" x2="23.1" y2="21.3"/>
<line class="st1" x1="25.7" y1="17.2" x2="22.1" y2="20.5"/>
<line class="st1" x1="23.1" y1="18" x2="21.3" y2="19.7"/>
<line class="st1" x1="21.2" y1="18.5" x2="20.6" y2="19.2"/>
<line class="st1" x1="43.5" y1="35.2" x2="41.3" y2="40.3"/>
<line class="st1" x1="44.4" y1="35.7" x2="42" y2="40.7"/>
<line class="st1" x1="45.3" y1="36.5" x2="42.8" y2="41.1"/>
<line class="st1" x1="45.3" y1="38.4" x2="43.9" y2="40.8"/>
<line class="st1" x1="45.6" y1="39.4" x2="45.3" y2="40.1"/>
<line class="st1" x1="15.3" y1="2.8" x2="15.1" y2="6.4"/>
<line class="st1" x1="16.4" y1="3.7" x2="16.5" y2="5.8"/>
<line class="st1" x1="12.8" y1="2.7" x2="13" y2="5.9"/>
<line class="st1" x1="11.7" y1="3.3" x2="11.8" y2="5.7"/>
<line class="st1" x1="10.4" y1="4.4" x2="10.6" y2="5.7"/>
<line class="st1" x1="6.5" y1="15.5" x2="10.1" y2="18.2"/>
<line class="st1" x1="5.3" y1="15.8" x2="9.3" y2="19"/>
<line class="st1" x1="5.2" y1="17.7" x2="9.3" y2="20.1"/>
<line class="st1" x1="4.8" y1="18.6" x2="9.3" y2="21.4"/>
<line class="st1" x1="4.5" y1="19.7" x2="7.5" y2="21.7"/>
<line class="st1" x1="4.8" y1="21.3" x2="6.3" y2="22.2"/>
<line class="st1" x1="49" y1="2.6" x2="51.2" y2="2"/>
<line class="st1" x1="50.2" y1="4" x2="51.8" y2="3.4"/>
<line class="st1" x1="48.2" y1="2.1" x2="49.8" y2="1.5"/>
<line class="st1" x1="35.7" y1="44" x2="36.3" y2="45.4"/>
<line class="st1" x1="34.3" y1="44.2" x2="35.6" y2="46"/>
<line class="st1" x1="32.8" y1="44.5" x2="35.1" y2="46.5"/>
<line class="st1" x1="31.8" y1="45.1" x2="34.8" y2="47.4"/>
<line class="st1" x1="29.8" y1="46.2" x2="35.2" y2="50.4"/>
<line class="st1" x1="30.9" y1="45.5" x2="35.3" y2="49.1"/>
<line class="st1" x1="29.3" y1="47.2" x2="30.6" y2="48.3"/>
<line class="st1" x1="4.5" y1="48" x2="3.8" y2="49.5"/>
<line class="st1" x1="3.5" y1="48" x2="3" y2="49.4"/>
<line class="st1" x1="2.5" y1="47.9" x2="2" y2="49.1"/>
<line class="st1" x1="1.3" y1="48.3" x2="1" y2="49"/>
<line class="st2" x1="5.1" y1="42.4" x2="5.1" y2="42.4"/>
<line class="st2" x1="11.6" y1="36.6" x2="11.6" y2="36.6"/>
<line class="st2" x1="9.9" y1="41.1" x2="9.9" y2="41.1"/>
<line class="st2" x1="15.1" y1="44.1" x2="15.1" y2="44.1"/>
<line class="st2" x1="8.3" y1="48.9" x2="8.3" y2="48.9"/>
<line class="st2" x1="15.1" y1="50.9" x2="15.1" y2="50.9"/>
<line class="st2" x1="4.3" y1="52.1" x2="4.3" y2="52.1"/>
<line class="st2" x1="24.3" y1="41.4" x2="24.3" y2="41.4"/>
<line class="st2" x1="26.9" y1="48.2" x2="26.9" y2="48.2"/>
<line class="st2" x1="34.6" y1="52.9" x2="34.6" y2="52.9"/>
<line class="st2" x1="44.1" y1="46.4" x2="44.1" y2="46.4"/>
<line class="st2" x1="30.9" y1="43.4" x2="30.9" y2="43.4"/>
<line class="st2" x1="37.6" y1="41.9" x2="37.6" y2="41.9"/>
<line class="st2" x1="32.2" y1="36.1" x2="32.2" y2="36.1"/>
<line class="st2" x1="50.7" y1="42.7" x2="50.7" y2="42.7"/>
<line class="st2" x1="45.9" y1="34.7" x2="45.9" y2="34.7"/>
<line class="st2" x1="41" y1="27.5" x2="41" y2="27.5"/>
<line class="st2" x1="29.7" y1="28.9" x2="29.7" y2="28.9"/>
<line class="st2" x1="46.3" y1="51.7" x2="46.3" y2="51.7"/>
<line class="st2" x1="49.7" y1="24.8" x2="49.7" y2="24.8"/>
<line class="st2" x1="47.7" y1="21.2" x2="47.7" y2="21.2"/>
<line class="st2" x1="39" y1="22.5" x2="39" y2="22.5"/>
<line class="st2" x1="33.1" y1="19.7" x2="33.1" y2="19.7"/>
<line class="st2" x1="27.8" y1="16.6" x2="27.8" y2="16.6"/>
<line class="st2" x1="42.8" y1="15" x2="42.8" y2="15"/>
<line class="st2" x1="27" y1="23.2" x2="27" y2="23.2"/>
<line class="st2" x1="19.8" y1="24" x2="19.8" y2="24"/>
<line class="st2" x1="18.2" y1="33.7" x2="18.2" y2="33.7"/>
<line class="st2" x1="17.5" y1="40" x2="17.5" y2="40"/>
<line class="st2" x1="50.7" y1="12.5" x2="50.7" y2="12.5"/>
<line class="st2" x1="47.5" y1="8.6" x2="47.5" y2="8.6"/>
<line class="st2" x1="47.7" y1="3.7" x2="47.7" y2="3.7"/>
<line class="st2" x1="51.8" y1="6" x2="51.8" y2="6"/>
<line class="st2" x1="41.4" y1="5.7" x2="41.4" y2="5.7"/>
<line class="st2" x1="36.5" y1="2.6" x2="36.5" y2="2.6"/>
<line class="st2" x1="26.9" y1="6.5" x2="26.9" y2="6.5"/>
<line class="st2" x1="33" y1="11.9" x2="33" y2="11.9"/>
<line class="st2" x1="18.1" y1="13" x2="18.1" y2="13"/>
<line class="st2" x1="17.6" y1="6.7" x2="17.6" y2="6.7"/>
<line class="st2" x1="7.7" y1="6.2" x2="7.7" y2="6.2"/>
<line class="st2" x1="10.8" y1="15.5" x2="10.8" y2="15.5"/>
<line class="st2" x1="2.1" y1="22.1" x2="2.1" y2="22.1"/>
<line class="st2" x1="4.4" y1="13.5" x2="4.4" y2="13.5"/>
<line class="st2" x1="19.5" y1="21.1" x2="19.5" y2="21.1"/>
<line class="st2" x1="11.4" y1="22.3" x2="11.4" y2="22.3"/>
<line class="st2" x1="9" y1="30.1" x2="9" y2="30.1"/>
<line class="st2" x1="17.3" y1="28.4" x2="17.3" y2="28.4"/>
<line class="st2" x1="2.8" y1="35.2" x2="2.8" y2="35.2"/>
<line class="st2" x1="4.7" y1="27.2" x2="4.7" y2="27.2"/>
<line class="st2" x1="13.8" y1="11.9" x2="13.8" y2="11.9"/>
<line class="st2" x1="31.6" y1="25.4" x2="31.6" y2="25.4"/>
<line class="st2" x1="11.9" y1="7.1" x2="11.9" y2="7.1"/>
<line class="st2" x1="30.4" y1="2.2" x2="30.4" y2="2.2"/>
<line class="st2" x1="21.3" y1="3.2" x2="21.3" y2="3.2"/>
<line class="st2" x1="43.6" y1="25.2" x2="43.6" y2="25.2"/>
<line class="st2" x1="46.4" y1="29.7" x2="46.4" y2="29.7"/>
<line class="st2" x1="40.4" y1="32.4" x2="40.4" y2="32.4"/>
<line class="st2" x1="49.8" y1="32.9" x2="49.8" y2="32.9"/>
<line class="st2" x1="35.3" y1="31.9" x2="35.3" y2="31.9"/>
<line class="st2" x1="6.9" y1="23.2" x2="6.9" y2="23.2"/>
<line class="st2" x1="12.4" y1="18.7" x2="12.4" y2="18.7"/>
<line class="st2" x1="6.6" y1="33.4" x2="6.6" y2="33.4"/>
<line class="st2" x1="26.4" y1="34.4" x2="26.4" y2="34.4"/>
<line class="st2" x1="25.3" y1="27.6" x2="25.3" y2="27.6"/>
<line class="st2" x1="44.4" y1="42.4" x2="44.4" y2="42.4"/>
<line class="st2" x1="16.4" y1="36.7" x2="16.4" y2="36.7"/>
<line class="st2" x1="47.3" y1="48.6" x2="47.3" y2="48.6"/>
<line class="st2" x1="39.1" y1="50.4" x2="39.1" y2="50.4"/>
<line class="st2" x1="15.3" y1="47.7" x2="15.3" y2="47.7"/>
<line class="st2" x1="31.6" y1="50.2" x2="31.6" y2="50.2"/>
<line class="st2" x1="26.1" y1="52.9" x2="26.1" y2="52.9"/>
<line class="st2" x1="37.6" y1="19.2" x2="37.6" y2="19.2"/>
<line class="st2" x1="40.8" y1="11.7" x2="40.8" y2="11.7"/>
<line class="st2" x1="0.4" y1="27.7" x2="0.4" y2="27.7"/>
<line class="st2" x1="4.9" y1="0.4" x2="4.9" y2="0.4"/>
<line class="st2" x1="52.8" y1="39.2" x2="52.8" y2="39.2"/>
<line class="st2" x1="53.3" y1="50.6" x2="53.3" y2="50.6"/>
<line class="st2" x1="17.8" y1="53.6" x2="17.8" y2="53.6"/>
<line class="st2" x1="53.1" y1="0.9" x2="53.1" y2="0.9"/>
<line class="st2" x1="0.4" y1="45.9" x2="0.4" y2="45.9"/>
</svg>
