<svg id="Layer_1" data-name="Layer 1" xmlns="http://www.w3.org/2000/svg" width="54.25" height="54.25" viewBox="0 0 54.25 54.25"><defs><style>.cls-1,.cls-2,.cls-3,.cls-4{fill:none;}.cls-2,.cls-3,.cls-4{stroke:#000;}.cls-2,.cls-3{stroke-linejoin:round;}.cls-2,.cls-4{stroke-width:0.3px;}.cls-3{stroke-linecap:round;stroke-width:0.8px;}</style></defs><title>Artboard 37</title><rect class="cls-1" x="0.3" y="-51.33" width="54.25" height="54.25"/><path class="cls-2" d="M36.42,1a8.93,8.93,0,0,0,2.69,1.44A3.6,3.6,0,0,0,40,.7Z"/><path class="cls-2" d="M1.57,1.53S3-.53,3.38-.6l.13,2.88Z"/><polygon class="cls-2" points="27.61 0.26 28.74 -1.05 30.74 -0.12 32.67 0.32 32.74 2.44 30.86 2.63 29.68 1.45 27.61 0.26"/><path class="cls-2" d="M47.7-.64s1.81-.5,2.31-.19l3.87,2.44-.75.69A3.74,3.74,0,0,0,52,1.49a4.28,4.28,0,0,0-1.75.12l-1.38.75A20.27,20.27,0,0,0,48.38.24,6.89,6.89,0,0,0,47.7-.64Z"/><path class="cls-2" d="M42.26-3.18l1.12-.06a1.25,1.25,0,0,0,.63.87c.56.32,2.19,1.19,2.19,1.19l-1.69,2A13.11,13.11,0,0,0,42,.38c-.32.13-1-.56-1-.56s.93-1.56,1-1.75S42.26-3.18,42.26-3.18Z"/><path class="cls-2" d="M17.55-2.24a12.67,12.67,0,0,0,3.19-1c1.31-.69,2.37-1.38,2.37-1.38s1.06.88,1.19,1.38,1.19,1,1.81,1.19,0,1.62,0,1.62a3.51,3.51,0,0,0-1,.25c-.37.19-.94,2.13-1,2.31s-1.69,0-2.12,0a12.74,12.74,0,0,1-1.82-.37s-.68-.25-.25-1.06S19.24-.8,18.67-1a7.38,7.38,0,0,1-1.18-.56Z"/><polygon class="cls-2" points="7.11 -0.37 10.05 -1.12 11.05 0.13 13.36 0.88 12.74 2.26 9.99 2.63 6.74 0.63 7.11 -0.37"/><line class="cls-3" x1="4.72" y1="0.76" x2="4.72" y2="0.76"/><line class="cls-3" x1="35.05" y1="1.59" x2="35.05" y2="1.59"/><line class="cls-3" x1="46.72" y1="0.42" x2="46.72" y2="0.42"/><line class="cls-3" x1="26.55" y1="1.59" x2="26.55" y2="1.59"/><line class="cls-3" x1="18.22" y1="2.26" x2="18.22" y2="2.26"/><rect class="cls-1" x="0.3" y="2.92" width="54.25" height="54.25"/><path class="cls-4" d="M.67,4a10.36,10.36,0,0,1,2.75.62c.5.38-2.5.88-2.5.88Z"/><path class="cls-2" d="M15.3,3.8c-.5,2.25,2.37,3.31,3.12,3.5a20.48,20.48,0,0,1-2.37,2.25c-.75-.75-5.38-1-6.38-.75,0,0,1.63-1.13,1.25-2.19,0,0,2.75-.69,2.82-1.75Z"/><path class="cls-2" d="M17.86,4.05a8.7,8.7,0,0,0,2.69,1.44,3.53,3.53,0,0,0,.87-1.75Z"/><path class="cls-2" d="M24.61,4.36a6.68,6.68,0,0,0,.75,2.25,8,8,0,0,1,2.31-2Z"/><polygon class="cls-2" points="0.74 9.34 3.24 6.47 6.99 6.72 6.42 9.03 6.92 10.22 5.55 10.9 5.3 12.03 2.86 12.47 1.8 10.72 0.74 9.34"/><polygon class="cls-2" points="19.3 10.18 19.86 12.11 18.93 13.8 21.8 15.8 23.99 14.93 25.8 12.49 27.18 11.36 25.36 9.49 25.05 8.24 21.86 7.8 20.55 9.11 19.3 10.18"/><polygon class="cls-2" points="1.11 14.8 0.86 17.43 2.3 16.68 3.05 16.49 3.11 14.18 1.11 14.8"/><polygon class="cls-2" points="7.17 15.11 8.18 13.74 8.11 12.43 9.43 11.36 12.05 11.99 14.49 11.68 16.8 13.18 15.86 14.11 13.61 13.43 12.93 14.49 11.93 14.8 10.68 16.61 9.61 15.68 7.17 15.11"/><polygon class="cls-2" points="14.8 16.74 17.43 16.8 17.55 17.49 19.18 18.86 18.68 19.55 17.93 19.8 17.36 20.86 14.55 21.74 15.24 18.93 14.8 16.74"/><polygon class="cls-2" points="20.18 16.99 21.49 16.74 22.55 17.68 24.24 18.24 22.68 18.68 21.36 19.36 20.74 17.86 20.18 16.99"/><polygon class="cls-2" points="4.74 18.86 7.92 18.18 9.11 19.49 11.49 20.43 9.43 22.24 10.61 24.3 9.05 24.3 6.17 25.36 5.49 25.3 4.99 22.61 5.8 20.18 4.74 18.86"/><polygon class="cls-2" points="1.36 20.36 2.49 20.24 2.36 22.93 0.61 23.18 1.36 20.36"/><polygon class="cls-2" points="25.24 17.05 26.61 15.24 27.55 15.11 29.43 13.05 30.49 14.55 31.86 15.55 30.36 16.99 29.8 18.68 26.8 17.24 25.24 17.05"/><polygon class="cls-2" points="20.43 21.61 23.8 20.86 25.3 19.55 27.43 20.86 29.24 21.11 32.24 24.05 29.8 26.3 27.36 24.49 23.8 24.49 21.74 22.68 20.43 21.61"/><polygon class="cls-2" points="14.55 25.43 16.11 24.24 18.11 25.99 16.43 27.3 14.55 25.43"/><path class="cls-2" d="M2,28.86S3.36,26.8,3.8,26.74l.12,2.87Z"/><polygon class="cls-2" points="6.17 29.05 8.43 27.93 9.86 28.36 12.68 27.24 13.05 29.18 15.68 31.18 14.24 31.3 13.24 33.05 11.3 30.99 8.49 30.99 7.36 31.24 6.17 29.05"/><polygon class="cls-2" points="18.24 30.18 19.74 28.3 22.3 29.24 20.99 29.8 18.24 30.18"/><polygon class="cls-2" points="24.24 28.36 25.36 27.05 27.36 27.99 29.3 28.43 29.36 30.55 27.49 30.74 26.3 29.55 24.24 28.36"/><polygon class="cls-2" points="33.3 26.93 33.61 25.05 35.92 25.05 35.36 26.43 33.3 26.93"/><path class="cls-2" d="M32.74,21a13.49,13.49,0,0,1,2.56.12c.75.19.81.38.81.38l1.75-1.07,1.44-.37a2,2,0,0,1,.31-1,3.19,3.19,0,0,1,1.31-.75,10.49,10.49,0,0,1-1.81-1.56c-.31-.5-2.25.25-2.25.25l-2.12-.07-1.19,1a1.24,1.24,0,0,1,0,1.38C33.11,20.17,32.74,21,32.74,21Z"/><polygon class="cls-2" points="36.99 13.86 39.42 11.68 39.67 14.18 36.99 13.86"/><path class="cls-2" d="M43.8,8.74a10,10,0,0,0,2.56.68l.25,5c-1.06-.56-2.87-.87-3.25-.56s-1-2.06-1.44-2.19.82-.93,1-1.43A10.74,10.74,0,0,1,43.8,8.74Z"/><path class="cls-2" d="M49.55,10.24a4.16,4.16,0,0,1,1-1L53.67,12l-1.43,1.75a8.14,8.14,0,0,1-2.44-.44c-.31-.31.06-2.44.06-2.44Z"/><path class="cls-2" d="M49.11,16.67a3.89,3.89,0,0,0,1.56.75,18.12,18.12,0,0,0,2.25-.06l.25,2.88s-.56.18-1.75.43-1.56.13-2.25,1.07S48.3,23,48.3,23l-1.5-.07A6.18,6.18,0,0,0,45,21.86c-.57-.06.12-1.37,0-2.31a7.26,7.26,0,0,0-.32-1.44A15,15,0,0,0,47,17.86,11.29,11.29,0,0,0,49.11,16.67Z"/><path class="cls-2" d="M42.42,20.92l-1.56,1.25-1-.81s.69-.94,1.19-1.06S42.42,20.92,42.42,20.92Z"/><path class="cls-2" d="M42.11,24.3c.63,0,2.38-.13,2.38-.13a5.78,5.78,0,0,1,.12,1.38c-.06.5-1.44,0-1.44,0Z"/><polygon class="cls-2" points="50.42 22.18 50.99 23.3 52.92 23.8 52.8 22.36 50.42 22.18"/><polygon class="cls-2" points="49.74 25.43 53.36 25.49 52.55 27.18 48.11 26.36 49.74 25.43"/><path class="cls-2" d="M46.61,28.55c1.56-.44,1.31-.56,2.31-.25s2,.94,2.69,1.12,1.88.38,1.88.38-.25.87-.38,1.44,1.13,3.06,1.13,3.06l-3.75-.38a2.13,2.13,0,0,0-1.19-1.06c-.88-.31-1.25-.44-1.69-1.31s-2.37-1.63-2.37-1.63Z"/><path class="cls-2" d="M37.11,28.17a26.92,26.92,0,0,1,3.31-.12s.44.56.44.81-1.25.88-1.69,1.38a3,3,0,0,0-.31,2,9.12,9.12,0,0,0,.75,1.68L38.3,35.05s-1.25-1.13-1.69-1.63a4,4,0,0,0-2.5-1.25c-1.19-.12-1.19-.56-.81-1.06s.25-1.19,1.12-1.31A9.27,9.27,0,0,0,37.11,28.17Z"/><path class="cls-2" d="M41.55,32.92s1.81-.5,2.31-.18l3.88,2.43-.75.69a4,4,0,0,0-1.19-.81,4.3,4.3,0,0,0-1.75.12l-1.38.75s-.31-1.87-.43-2.12A7.76,7.76,0,0,0,41.55,32.92Z"/><path class="cls-2" d="M48.92,38.42a6.38,6.38,0,0,1,1.88-.75c.56,0,.5,0,1,.32a4.93,4.93,0,0,0,1.56.43l-.56,2.19a9.94,9.94,0,0,0-1.38-1.06,13.06,13.06,0,0,0-2.5.25Z"/><path class="cls-2" d="M38.36,36.8l1.19.25s-.94,1.06-.81,1.69-.19-.25-.63-.57S38.36,36.8,38.36,36.8Z"/><path class="cls-2" d="M30.36,33.67l1.13-.06a1.25,1.25,0,0,0,.62.88l2.19,1.18-1.69,2a12.46,12.46,0,0,0-2.56-.43c-.31.12-1-.57-1-.57s.94-1.56,1-1.75S30.36,33.67,30.36,33.67Z"/><path class="cls-2" d="M35.61,38.92s2.63,1.88,2.75,2.32-.37.87-.69,1.5-.75,1.43-.75,1.43H33.3a2.84,2.84,0,0,0-1.31.38l-1-.31.37-2.07.69-1s.19.07.87-.25a4.06,4.06,0,0,0,1.5-1.43Z"/><path class="cls-2" d="M42.38,37.6a10.78,10.78,0,0,1,2.5,1c.54.46,1,.69,1,1.2a7.78,7.78,0,0,0-.17,1.09,11.78,11.78,0,0,0,.74,2,7.92,7.92,0,0,0-1.75.64l-1,.76-3.81-2L41.23,41l1.17-2.07Z"/><path class="cls-2" d="M49.11,42.11l1.5.5L50.55,44a9.6,9.6,0,0,1-1.31-.25,2.51,2.51,0,0,0-1.32-.19A18.55,18.55,0,0,1,49.11,42.11Z"/><path class="cls-2" d="M8.42,4.45l1.5.5L9.86,6.32a8.24,8.24,0,0,1-1.31-.25,2.69,2.69,0,0,0-1.31-.19A17.82,17.82,0,0,1,8.42,4.45Z"/><path class="cls-2" d="M29,39.11l1.87-.25s-.75,1.44-.56,2.06-.69-.37-.69-.37Z"/><path class="cls-2" d="M18.42,33.42a12.55,12.55,0,0,0,3.19-1c1.31-.68,2.38-1.37,2.38-1.37s1.06.87,1.18,1.37,1.19,1,1.82,1.19,0,1.63,0,1.63a3.44,3.44,0,0,0-1,.25c-.38.18-.94,2.12-1,2.31s-1.69,0-2.13,0a12.25,12.25,0,0,1-1.81-.38s-.69-.25-.25-1.06-.69-1.5-1.25-1.69a6.8,6.8,0,0,1-1.19-.56Z"/><polygon class="cls-2" points="22.61 40.36 27.05 40.42 26.18 43.17 23.49 43.3 23.3 41.8 22.61 40.36"/><polygon class="cls-2" points="28.18 43.05 29.68 43.74 29.36 44.99 27.68 45.11 27.93 43.99 28.18 43.05"/><polygon class="cls-2" points="18.8 39.36 20.93 39.3 20.49 40.05 20.49 41.3 19.68 41.24 18.8 39.36"/><polygon class="cls-2" points="19.74 42.49 21.36 42.42 21.61 44.11 22.18 44.8 21.43 45.36 20.43 44.99 19.3 45.24 19.74 42.49"/><polygon class="cls-2" points="14.18 40.42 16.3 40.67 16.05 41.8 16.11 43.61 14.11 43.49 12.18 44.11 13.24 41.99 14.18 40.42"/><polygon class="cls-2" points="10.49 35.11 13.43 34.36 14.43 35.61 16.74 36.36 16.11 37.74 13.36 38.11 10.11 36.11 10.49 35.11"/><polygon class="cls-2" points="0.8 32.88 5.24 32.7 5.61 33.57 6.3 34.45 4.8 35.13 2.61 36.45 1.74 37.01 1.61 34.82 0.8 33.38 0.8 32.88"/><polygon class="cls-2" points="4.65 37.85 6.34 38.3 9.86 39.55 8.74 42.68 3.99 44.61 1.4 43.89 3.24 40.36 4.65 37.85"/><polygon class="cls-2" points="32.67 6.11 35.11 7.49 39.3 6.11 39.86 9.3 36.24 10.43 33.17 12.93 30.99 9.49 29.43 8.55 29.61 7.05 32.67 6.11"/><polygon class="cls-2" points="34.92 3.99 35.3 5.11 37.17 4.36 34.92 3.99"/><polygon class="cls-2" points="41.49 4.86 42.92 6.61 44.55 6.11 45.67 6.55 46.8 5.36 46.3 4.3 44.36 3.67 42.05 4.3 41.49 4.86"/><path class="cls-2" d="M47.92,4.67a17.67,17.67,0,0,1,2.25,1.5,9,9,0,0,1,.75,1.19l1.82-.31L52,5.92a7.17,7.17,0,0,1-.32-1.31L49.3,4.3Z"/><polygon class="cls-2" points="39.88 45.99 41.2 45.74 42.26 46.67 43.95 47.24 42.38 47.67 41.07 48.36 40.45 46.86 39.88 45.99"/><path class="cls-2" d="M1.57,55.78S3,53.72,3.38,53.65l.13,2.88Z"/><polygon class="cls-2" points="27.61 54.51 28.74 53.2 30.74 54.13 32.67 54.57 32.74 56.7 30.86 56.88 29.68 55.7 27.61 54.51"/><path class="cls-2" d="M40.47,50.65,38.9,51.9l-1-.81s.69-.94,1.19-1.06S40.47,50.65,40.47,50.65Z"/><path class="cls-2" d="M1.11,46.26c.63,0,2.38-.13,2.38-.13a5.78,5.78,0,0,1,.12,1.38c-.06.5-1.44,0-1.44,0Z"/><path class="cls-2" d="M47.7,53.61s1.81-.5,2.31-.19l3.87,2.44-.75.69A3.74,3.74,0,0,0,52,55.74a4.28,4.28,0,0,0-1.75.12l-1.38.75a20.27,20.27,0,0,0-.44-2.12A6.89,6.89,0,0,0,47.7,53.61Z"/><path class="cls-2" d="M42.26,51.07,43.38,51a1.25,1.25,0,0,0,.63.87c.56.32,2.19,1.19,2.19,1.19l-1.69,2A13.11,13.11,0,0,0,42,54.63c-.32.13-1-.56-1-.56s.93-1.56,1-1.75S42.26,51.07,42.26,51.07Z"/><polygon class="cls-2" points="5.3 47.63 7.55 46.51 8.99 46.95 11.8 45.82 12.18 47.76 14.8 49.76 13.36 49.88 12.36 51.63 10.43 49.57 7.61 49.57 6.49 49.82 5.3 47.63"/><polygon class="cls-2" points="17.36 48.76 18.86 46.88 21.43 47.82 20.11 48.38 17.36 48.76"/><polygon class="cls-2" points="23.36 46.95 24.49 45.63 26.49 46.57 28.43 47.01 28.49 49.13 26.61 49.32 25.43 48.13 23.36 46.95"/><polygon class="cls-2" points="2.24 50.88 5.86 50.95 5.05 52.63 0.61 51.82 2.24 50.88"/><path class="cls-2" d="M46.42,45.92c1.57-.43,1.32-.56,2.32-.25s2,.94,2.68,1.13,1.88.37,1.88.37-.25.88-.38,1.44,1.13,3.06,1.13,3.06L50.3,51.3a2.09,2.09,0,0,0-1.19-1.06c-.87-.32-1.25-.44-1.69-1.32s-2.37-1.62-2.37-1.62Z"/><path class="cls-2" d="M33.61,47.13A26.92,26.92,0,0,1,36.92,47s.44.56.44.81-1.25.88-1.69,1.38a3,3,0,0,0-.31,2,9.12,9.12,0,0,0,.75,1.68L34.8,54s-1.25-1.13-1.69-1.63a4,4,0,0,0-2.5-1.25c-1.19-.12-1.19-.56-.81-1.06s.25-1.19,1.12-1.31A9.27,9.27,0,0,0,33.61,47.13Z"/><path class="cls-2" d="M17.55,52a12.67,12.67,0,0,0,3.19-1c1.31-.69,2.37-1.38,2.37-1.38s1.06.88,1.19,1.38,1.19,1,1.81,1.19,0,1.62,0,1.62a3.51,3.51,0,0,0-1,.25c-.37.19-.94,2.13-1,2.31s-1.69,0-2.12,0A12.74,12.74,0,0,1,20.17,56s-.68-.25-.25-1.06-.68-1.5-1.25-1.69a7.38,7.38,0,0,1-1.18-.56Z"/><polygon class="cls-2" points="7.11 53.88 10.05 53.13 11.05 54.38 13.36 55.13 12.74 56.51 9.99 56.88 6.74 54.88 7.11 53.88"/><line class="cls-2" x1="2.02" y1="42.87" x2="2.13" y2="44.09"/><line class="cls-2" x1="2.54" y1="41.74" x2="2.95" y2="44.32"/><line class="cls-2" x1="3.24" y1="40.36" x2="3.99" y2="44.61"/><line class="cls-2" x1="3.79" y1="39.5" x2="4.9" y2="44.21"/><line class="cls-2" x1="4.32" y1="38.57" x2="5.92" y2="43.91"/><line class="cls-2" x1="5.09" y1="37.96" x2="6.82" y2="43.45"/><line class="cls-2" x1="6.05" y1="38.21" x2="7.61" y2="43.23"/><line class="cls-2" x1="7.12" y1="38.61" x2="8.39" y2="42.81"/><line class="cls-2" x1="7.96" y1="38.91" x2="8.98" y2="42.06"/><line class="cls-2" x1="8.82" y1="39.26" x2="9.42" y2="40.9"/><line class="cls-2" x1="18.36" y1="34.11" x2="24.55" y2="31.55"/><line class="cls-2" x1="19.55" y1="34.67" x2="24.99" y2="32.05"/><line class="cls-2" x1="20.61" y1="35.3" x2="25.3" y2="32.67"/><line class="cls-2" x1="20.8" y1="36.36" x2="25.8" y2="33.11"/><path class="cls-2" d="M21.05,37.42c0-.25,5.25-4.06,5.25-4.06"/><line class="cls-2" x1="22.11" y1="37.67" x2="26.99" y2="33.61"/><line class="cls-2" x1="23.36" y1="37.8" x2="27.17" y2="34.3"/><line class="cls-2" x1="43.14" y1="37.75" x2="40.89" y2="42.77"/><line class="cls-2" x1="46.55" y1="30.49" x2="53.11" y2="30.92"/><line class="cls-2" x1="24.86" y1="24.55" x2="28.11" y2="21.11"/><line class="cls-2" x1="45.92" y1="18.05" x2="49.42" y2="21.36"/><line class="cls-2" x1="34.36" y1="7.17" x2="35.8" y2="10.67"/><line class="cls-2" x1="14.55" y1="4.3" x2="14.67" y2="8.99"/><line class="cls-2" x1="50.17" y1="6.17" x2="51.92" y2="5.55"/><line class="cls-2" x1="46.99" y1="17.86" x2="50.05" y2="20.92"/><line class="cls-2" x1="47.86" y1="17.42" x2="50.86" y2="20.8"/><line class="cls-2" x1="48.8" y1="16.92" x2="51.42" y2="20.67"/><line class="cls-2" x1="50.3" y1="17.3" x2="51.92" y2="20.49"/><line class="cls-2" x1="52.11" y1="17.36" x2="52.55" y2="20.3"/><line class="cls-2" x1="44.86" y1="18.86" x2="48.92" y2="22.05"/><line class="cls-2" x1="44.92" y1="20.3" x2="48.42" y2="22.67"/><line class="cls-2" x1="35.61" y1="7.3" x2="36.74" y2="10.24"/><line class="cls-2" x1="36.8" y1="6.92" x2="37.74" y2="9.92"/><line class="cls-2" x1="37.8" y1="6.61" x2="38.61" y2="9.67"/><line class="cls-2" x1="38.61" y1="6.42" x2="39.3" y2="9.49"/><line class="cls-2" x1="32.67" y1="6.11" x2="35.05" y2="11.36"/><line class="cls-2" x1="31.49" y1="6.67" x2="34.36" y2="11.92"/><line class="cls-2" x1="30.11" y1="6.92" x2="33.8" y2="12.36"/><line class="cls-2" x1="47.61" y1="31.55" x2="53.17" y2="31.8"/><line class="cls-2" x1="45.8" y1="29.49" x2="53.3" y2="30.36"/><line class="cls-2" x1="46.61" y1="28.55" x2="50.8" y2="29.11"/><line class="cls-2" x1="49.3" y1="32.86" x2="53.42" y2="32.67"/><line class="cls-2" x1="52.17" y1="34.11" x2="53.92" y2="33.67"/><line class="cls-2" x1="29.36" y1="21.36" x2="26.61" y2="24.49"/><line class="cls-2" x1="30.11" y1="22.05" x2="27.92" y2="24.86"/><line class="cls-2" x1="30.86" y1="22.74" x2="28.55" y2="25.36"/><line class="cls-2" x1="31.49" y1="23.42" x2="29.24" y2="25.92"/><line class="cls-2" x1="26.99" y1="20.61" x2="23.55" y2="24.24"/><line class="cls-2" x1="26.17" y1="20.11" x2="22.61" y2="23.42"/><line class="cls-2" x1="23.55" y1="20.92" x2="21.74" y2="22.67"/><line class="cls-2" x1="21.67" y1="21.42" x2="21.05" y2="22.17"/><line class="cls-2" x1="44" y1="38.14" x2="41.77" y2="43.24"/><line class="cls-2" x1="44.88" y1="38.62" x2="42.49" y2="43.64"/><line class="cls-2" x1="45.8" y1="39.46" x2="43.25" y2="44.06"/><line class="cls-2" x1="45.8" y1="41.39" x2="44.39" y2="43.69"/><line class="cls-2" x1="46.11" y1="42.36" x2="45.79" y2="43.04"/><line class="cls-2" x1="15.74" y1="5.74" x2="15.61" y2="9.36"/><line class="cls-2" x1="16.86" y1="6.61" x2="16.92" y2="8.74"/><line class="cls-2" x1="13.3" y1="5.61" x2="13.42" y2="8.86"/><line class="cls-2" x1="12.17" y1="6.24" x2="12.3" y2="8.67"/><line class="cls-2" x1="10.86" y1="7.3" x2="11.11" y2="8.67"/><line class="cls-2" x1="6.99" y1="18.42" x2="10.55" y2="21.17"/><line class="cls-2" x1="5.74" y1="18.74" x2="9.8" y2="21.92"/><line class="cls-2" x1="5.67" y1="20.61" x2="9.8" y2="23.05"/><line class="cls-2" x1="5.3" y1="21.55" x2="9.8" y2="24.3"/><line class="cls-2" x1="4.99" y1="22.61" x2="7.99" y2="24.67"/><line class="cls-2" x1="5.3" y1="24.24" x2="6.74" y2="25.11"/><line class="cls-2" x1="49.42" y1="5.55" x2="51.67" y2="4.92"/><line class="cls-2" x1="50.67" y1="6.92" x2="52.24" y2="6.3"/><line class="cls-2" x1="48.61" y1="5.05" x2="50.24" y2="4.42"/><line class="cls-2" x1="36.11" y1="46.99" x2="36.8" y2="48.3"/><line class="cls-2" x1="34.74" y1="47.17" x2="36.05" y2="48.92"/><line class="cls-2" x1="33.3" y1="47.42" x2="35.55" y2="49.49"/><line class="cls-2" x1="32.3" y1="48.05" x2="35.3" y2="50.36"/><line class="cls-2" x1="30.3" y1="49.17" x2="35.61" y2="53.36"/><line class="cls-2" x1="31.36" y1="48.49" x2="35.74" y2="52.05"/><line class="cls-2" x1="29.8" y1="50.17" x2="31.11" y2="51.24"/><line class="cls-2" x1="4.99" y1="50.99" x2="4.24" y2="52.42"/><line class="cls-2" x1="3.92" y1="50.92" x2="3.42" y2="52.3"/><line class="cls-2" x1="2.99" y1="50.86" x2="2.42" y2="52.05"/><line class="cls-2" x1="1.74" y1="51.24" x2="1.49" y2="51.99"/><line class="cls-3" x1="5.55" y1="45.3" x2="5.55" y2="45.3"/><line class="cls-3" x1="12.05" y1="39.51" x2="12.05" y2="39.51"/><line class="cls-3" x1="10.38" y1="44.01" x2="10.38" y2="44.01"/><line class="cls-3" x1="15.55" y1="47.01" x2="15.55" y2="47.01"/><line class="cls-3" x1="8.72" y1="51.84" x2="8.72" y2="51.84"/><line class="cls-3" x1="15.55" y1="53.84" x2="15.55" y2="53.84"/><line class="cls-3" x1="24.72" y1="44.34" x2="24.72" y2="44.34"/><line class="cls-3" x1="27.38" y1="51.17" x2="27.38" y2="51.17"/><line class="cls-3" x1="44.55" y1="49.34" x2="44.55" y2="49.34"/><line class="cls-3" x1="31.38" y1="46.34" x2="31.38" y2="46.34"/><line class="cls-3" x1="38.05" y1="44.84" x2="38.05" y2="44.84"/><line class="cls-3" x1="32.67" y1="39.05" x2="32.67" y2="39.05"/><line class="cls-3" x1="51.11" y1="45.61" x2="51.11" y2="45.61"/><line class="cls-3" x1="46.36" y1="37.67" x2="46.36" y2="37.67"/><line class="cls-3" x1="41.49" y1="30.49" x2="41.49" y2="30.49"/><line class="cls-3" x1="30.17" y1="31.86" x2="30.17" y2="31.86"/><line class="cls-3" x1="50.11" y1="27.74" x2="50.11" y2="27.74"/><line class="cls-3" x1="48.17" y1="24.11" x2="48.17" y2="24.11"/><line class="cls-3" x1="39.42" y1="25.49" x2="39.42" y2="25.49"/><line class="cls-3" x1="33.55" y1="22.67" x2="33.55" y2="22.67"/><line class="cls-3" x1="28.3" y1="19.55" x2="28.3" y2="19.55"/><line class="cls-3" x1="43.3" y1="17.92" x2="43.3" y2="17.92"/><line class="cls-3" x1="27.42" y1="26.17" x2="27.42" y2="26.17"/><line class="cls-3" x1="20.3" y1="26.92" x2="20.3" y2="26.92"/><line class="cls-3" x1="18.67" y1="36.61" x2="18.67" y2="36.61"/><line class="cls-3" x1="17.99" y1="42.92" x2="17.99" y2="42.92"/><line class="cls-3" x1="51.11" y1="15.49" x2="51.11" y2="15.49"/><line class="cls-3" x1="47.99" y1="11.55" x2="47.99" y2="11.55"/><line class="cls-3" x1="48.17" y1="6.67" x2="48.17" y2="6.67"/><line class="cls-3" x1="52.3" y1="8.99" x2="52.3" y2="8.99"/><line class="cls-3" x1="41.86" y1="8.67" x2="41.86" y2="8.67"/><line class="cls-3" x1="36.92" y1="5.55" x2="36.92" y2="5.55"/><line class="cls-3" x1="27.36" y1="9.49" x2="27.36" y2="9.49"/><line class="cls-3" x1="33.42" y1="14.8" x2="33.42" y2="14.8"/><line class="cls-3" x1="18.55" y1="15.92" x2="18.55" y2="15.92"/><line class="cls-3" x1="18.11" y1="9.61" x2="18.11" y2="9.61"/><line class="cls-3" x1="8.13" y1="9.17" x2="8.13" y2="9.17"/><line class="cls-3" x1="11.22" y1="18.42" x2="11.22" y2="18.42"/><line class="cls-3" x1="2.55" y1="25.01" x2="2.55" y2="25.01"/><line class="cls-3" x1="4.88" y1="16.42" x2="4.88" y2="16.42"/><line class="cls-3" x1="19.97" y1="24.01" x2="19.97" y2="24.01"/><line class="cls-3" x1="11.88" y1="25.26" x2="11.88" y2="25.26"/><line class="cls-3" x1="9.47" y1="33.01" x2="9.47" y2="33.01"/><line class="cls-3" x1="17.72" y1="31.34" x2="17.72" y2="31.34"/><line class="cls-3" x1="3.22" y1="38.09" x2="3.22" y2="38.09"/><line class="cls-3" x1="5.13" y1="30.17" x2="5.13" y2="30.17"/><line class="cls-3" x1="14.22" y1="14.84" x2="14.22" y2="14.84"/><line class="cls-3" x1="32.05" y1="28.34" x2="32.05" y2="28.34"/><line class="cls-3" x1="12.38" y1="10.01" x2="12.38" y2="10.01"/><line class="cls-3" x1="30.88" y1="5.17" x2="30.88" y2="5.17"/><line class="cls-3" x1="21.72" y1="6.17" x2="21.72" y2="6.17"/><line class="cls-3" x1="44.05" y1="28.17" x2="44.05" y2="28.17"/><line class="cls-3" x1="46.88" y1="32.67" x2="46.88" y2="32.67"/><line class="cls-3" x1="40.88" y1="35.34" x2="40.88" y2="35.34"/><line class="cls-3" x1="50.22" y1="35.84" x2="50.22" y2="35.84"/><line class="cls-3" x1="35.72" y1="34.84" x2="35.72" y2="34.84"/><line class="cls-3" x1="7.38" y1="26.17" x2="7.38" y2="26.17"/><line class="cls-3" x1="12.88" y1="21.67" x2="12.88" y2="21.67"/><line class="cls-3" x1="7.05" y1="36.34" x2="7.05" y2="36.34"/><line class="cls-3" x1="26.88" y1="37.34" x2="26.88" y2="37.34"/><line class="cls-3" x1="25.72" y1="30.51" x2="25.72" y2="30.51"/><line class="cls-3" x1="44.88" y1="45.34" x2="44.88" y2="45.34"/><line class="cls-3" x1="16.88" y1="39.67" x2="16.88" y2="39.67"/><line class="cls-3" x1="47.72" y1="51.51" x2="47.72" y2="51.51"/><line class="cls-3" x1="39.55" y1="53.34" x2="39.55" y2="53.34"/><line class="cls-3" x1="15.72" y1="50.67" x2="15.72" y2="50.67"/><line class="cls-3" x1="32.05" y1="53.17" x2="32.05" y2="53.17"/><line class="cls-3" x1="38.05" y1="22.17" x2="38.05" y2="22.17"/><line class="cls-3" x1="41.22" y1="14.67" x2="41.22" y2="14.67"/><line class="cls-3" x1="0.88" y1="30.67" x2="0.88" y2="30.67"/><line class="cls-3" x1="5.38" y1="3.34" x2="5.38" y2="3.34"/><line class="cls-3" x1="53.22" y1="42.17" x2="53.22" y2="42.17"/><line class="cls-3" x1="53.72" y1="53.51" x2="53.72" y2="53.51"/><line class="cls-3" x1="53.55" y1="3.84" x2="53.55" y2="3.84"/><line class="cls-3" x1="0.88" y1="48.84" x2="0.88" y2="48.84"/><rect class="cls-1" x="-53.95" y="-51.33" width="54.25" height="54.25"/><rect class="cls-1" x="-53.95" y="2.92" width="54.25" height="54.25"/><path class="cls-2" d="M-7.64,28.55c1.56-.44,1.31-.56,2.31-.25s2,.94,2.69,1.12,1.88.38,1.88.38-.25.87-.38,1.44S0,34.3,0,34.3l-3.75-.38a2.13,2.13,0,0,0-1.19-1.06c-.88-.31-1.25-.44-1.69-1.31S-9,29.92-9,29.92Z"/><rect class="cls-1" width="54.25" height="54.25"/></svg>