<!-- Generator: Adobe Illustrator 22.1.0, SVG Export Plug-In  -->
<svg version="1.1"
     xmlns="http://www.w3.org/2000/svg" xmlns:xlink="http://www.w3.org/1999/xlink" xmlns:a="http://ns.adobe.com/AdobeSVGViewerExtensions/3.0/"
     x="0px" y="0px" width="45.2px" height="41.8px" viewBox="0 0 45.2 41.8" style="enable-background:new 0 0 45.2 41.8;"
     xml:space="preserve">
<style type="text/css">
    .st0{fill:none;stroke:#000000;stroke-width:0.3;}
</style>
<defs>
</defs>
<polyline class="st0" points="4.5,0.2 6.6,0.2 4.3,3.3 6.6,3.3 "/>
<polyline class="st0" points="19.8,0.2 21.8,0.2 19.5,3.3 21.8,3.3 "/>
<polyline class="st0" points="35.1,0.2 37.2,0.2 34.8,3.3 37.2,3.3 "/>
<polyline class="st0" points="42.8,0.2 44.9,0.2 42.6,3.3 44.9,3.3 "/>
<polyline class="st0" points="27.4,0.2 29.5,0.2 27.1,3.3 29.5,3.3 "/>
<polyline class="st0" points="12.2,0.2 14.3,0.2 12,3.3 14.3,3.3 "/>
<polyline class="st0" points="0.5,7.9 2.6,7.9 0.3,11 2.6,11 "/>
<polyline class="st0" points="15.8,7.9 17.9,7.9 15.5,11 17.9,11 "/>
<polyline class="st0" points="31.1,7.9 33.2,7.9 30.9,11 33.2,11 "/>
<polyline class="st0" points="38.9,7.9 40.9,7.9 38.6,11 40.9,11 "/>
<polyline class="st0" points="23.4,7.9 25.5,7.9 23.2,11 25.5,11 "/>
<polyline class="st0" points="8.2,7.9 10.3,7.9 8,11 10.3,11 "/>
<polyline class="st0" points="4.5,15.5 6.6,15.5 4.3,18.7 6.6,18.7 "/>
<polyline class="st0" points="19.8,15.5 21.8,15.5 19.5,18.7 21.8,18.7 "/>
<polyline class="st0" points="35.1,15.5 37.2,15.5 34.8,18.7 37.2,18.7 "/>
<polyline class="st0" points="42.8,15.5 44.9,15.5 42.6,18.7 44.9,18.7 "/>
<polyline class="st0" points="27.4,15.5 29.5,15.5 27.1,18.7 29.5,18.7 "/>
<polyline class="st0" points="12.2,15.5 14.3,15.5 12,18.7 14.3,18.7 "/>
<polyline class="st0" points="0.5,23.3 2.6,23.3 0.3,26.4 2.6,26.4 "/>
<polyline class="st0" points="15.8,23.3 17.9,23.3 15.5,26.4 17.9,26.4 "/>
<polyline class="st0" points="31.1,23.3 33.2,23.3 30.9,26.4 33.2,26.4 "/>
<polyline class="st0" points="38.9,23.3 40.9,23.3 38.6,26.4 40.9,26.4 "/>
<polyline class="st0" points="23.4,23.3 25.5,23.3 23.2,26.4 25.5,26.4 "/>
<polyline class="st0" points="8.2,23.3 10.3,23.3 8,26.4 10.3,26.4 "/>
<polyline class="st0" points="4.5,30.8 6.6,30.8 4.3,34 6.6,34 "/>
<polyline class="st0" points="19.8,30.8 21.8,30.8 19.5,34 21.8,34 "/>
<polyline class="st0" points="35.1,30.8 37.2,30.8 34.8,34 37.2,34 "/>
<polyline class="st0" points="42.8,30.8 44.9,30.8 42.6,34 44.9,34 "/>
<polyline class="st0" points="27.4,30.8 29.5,30.8 27.1,34 29.5,34 "/>
<polyline class="st0" points="12.2,30.8 14.3,30.8 12,34 14.3,34 "/>
<polyline class="st0" points="0.5,38.5 2.6,38.5 0.3,41.7 2.6,41.7 "/>
<polyline class="st0" points="15.8,38.5 17.9,38.5 15.5,41.7 17.9,41.7 "/>
<polyline class="st0" points="31.1,38.5 33.2,38.5 30.9,41.7 33.2,41.7 "/>
<polyline class="st0" points="38.9,38.5 40.9,38.5 38.6,41.7 40.9,41.7 "/>
<polyline class="st0" points="23.4,38.5 25.5,38.5 23.2,41.7 25.5,41.7 "/>
<polyline class="st0" points="8.2,38.5 10.3,38.5 8,41.7 10.3,41.7 "/>
</svg>
