<svg id="Layer_1" data-name="Layer 1" xmlns="http://www.w3.org/2000/svg" width="46" height="46" viewBox="0 0 46 46"><defs><style>.cls-1,.cls-2{fill:none;}.cls-2{stroke:#000;stroke-width:0.3px;}</style></defs><title>Artboard 37</title><rect class="cls-1" x="45.74" y="-34.22" width="46" height="46"/><rect class="cls-1" x="45.74" y="11.78" width="46" height="46"/><rect class="cls-1" x="-0.26" y="-34.22" width="46" height="46"/><polyline class="cls-2" points="5.03 0.56 7.12 0.56 4.78 3.73 7.12 3.73"/><polyline class="cls-2" points="20.28 0.56 22.37 0.56 20.03 3.73 22.37 3.73"/><polyline class="cls-2" points="35.6 0.56 37.68 0.56 35.35 3.73 37.68 3.73"/><polyline class="cls-2" points="43.35 0.56 45.43 0.56 43.1 3.73 45.43 3.73"/><polyline class="cls-2" points="27.91 0.56 29.99 0.56 27.66 3.73 29.99 3.73"/><polyline class="cls-2" points="12.72 0.56 14.8 0.56 12.47 3.73 14.8 3.73"/><polyline class="cls-2" points="1.06 8.27 3.15 8.27 0.81 11.44 3.15 11.44"/><polyline class="cls-2" points="16.32 8.27 18.4 8.27 16.07 11.44 18.4 11.44"/><polyline class="cls-2" points="31.63 8.27 33.71 8.27 31.38 11.44 33.71 11.44"/><polyline class="cls-2" points="39.38 8.27 41.46 8.27 39.13 11.44 41.46 11.44"/><polyline class="cls-2" points="23.94 8.27 26.02 8.27 23.69 11.44 26.02 11.44"/><polyline class="cls-2" points="8.75 8.27 10.84 8.27 8.5 11.44 10.84 11.44"/><rect class="cls-1" x="-0.26" y="11.78" width="46" height="46"/><polyline class="cls-2" points="5.03 15.89 7.12 15.89 4.78 19.06 7.12 19.06"/><polyline class="cls-2" points="20.28 15.89 22.37 15.89 20.03 19.06 22.37 19.06"/><polyline class="cls-2" points="35.6 15.89 37.68 15.89 35.35 19.06 37.68 19.06"/><polyline class="cls-2" points="43.35 15.89 45.43 15.89 43.1 19.06 45.43 19.06"/><polyline class="cls-2" points="27.91 15.89 29.99 15.89 27.66 19.06 29.99 19.06"/><polyline class="cls-2" points="12.72 15.89 14.8 15.89 12.47 19.06 14.8 19.06"/><polyline class="cls-2" points="1.06 23.6 3.15 23.6 0.81 26.77 3.15 26.77"/><polyline class="cls-2" points="16.32 23.6 18.4 23.6 16.07 26.77 18.4 26.77"/><polyline class="cls-2" points="31.63 23.6 33.71 23.6 31.38 26.77 33.71 26.77"/><polyline class="cls-2" points="39.38 23.6 41.46 23.6 39.13 26.77 41.46 26.77"/><polyline class="cls-2" points="23.94 23.6 26.02 23.6 23.69 26.77 26.02 26.77"/><polyline class="cls-2" points="8.75 23.6 10.84 23.6 8.5 26.77 10.84 26.77"/><polyline class="cls-2" points="5.03 31.29 7.12 31.29 4.78 34.46 7.12 34.46"/><polyline class="cls-2" points="20.28 31.29 22.37 31.29 20.03 34.46 22.37 34.46"/><polyline class="cls-2" points="35.6 31.29 37.68 31.29 35.35 34.46 37.68 34.46"/><polyline class="cls-2" points="43.35 31.29 45.43 31.29 43.1 34.46 45.43 34.46"/><polyline class="cls-2" points="27.91 31.29 29.99 31.29 27.66 34.46 29.99 34.46"/><polyline class="cls-2" points="12.72 31.29 14.8 31.29 12.47 34.46 14.8 34.46"/><polyline class="cls-2" points="1.06 39 3.15 39 0.81 42.16 3.15 42.16"/><polyline class="cls-2" points="16.32 39 18.4 39 16.07 42.16 18.4 42.16"/><polyline class="cls-2" points="31.63 39 33.71 39 31.38 42.16 33.71 42.16"/><polyline class="cls-2" points="39.38 39 41.46 39 39.13 42.16 41.46 42.16"/><polyline class="cls-2" points="23.94 39 26.02 39 23.69 42.16 26.02 42.16"/><polyline class="cls-2" points="8.75 39 10.84 39 8.5 42.16 10.84 42.16"/><rect class="cls-1" width="46" height="46"/></svg>