<svg id="Layer_1" data-name="Layer 1" xmlns="http://www.w3.org/2000/svg" width="65.29" height="65.25" viewBox="0 0 65.29 65.25"><defs><style>.cls-1,.cls-2,.cls-3{fill:none;}.cls-1,.cls-2{stroke:#000;}.cls-1{stroke-width:0.6px;}.cls-2{stroke-width:0.3px;}</style></defs><title>Artboard 37</title><path class="cls-1" d="M77.53.27c-3.8.44-10.4.08-15.75-.15"/><path class="cls-1" d="M61.78,5.8c7.78-.28,19.47-.33,22.1,0A51.44,51.44,0,0,0,94.53,6a23.53,23.53,0,0,1,3.18-.23"/><line class="cls-2" x1="64.56" y1="6.39" x2="64.56" y2="10.2"/><line class="cls-2" x1="62.91" y1="6.46" x2="62.91" y2="10.2"/><line class="cls-2" x1="65.38" y1="6.39" x2="65.38" y2="10.2"/><line class="cls-2" x1="63.66" y1="-6.07" x2="63.66" y2="0.15"/><line class="cls-2" x1="62.53" y1="0.61" x2="62.53" y2="5.29"/><line class="cls-2" x1="64.81" y1="1.09" x2="64.81" y2="5.44"/><line class="cls-2" x1="63.98" y1="0.94" x2="63.98" y2="5.29"/><rect class="cls-3" x="61.79" y="-55.04" width="65.24" height="65.24"/><path class="cls-1" d="M61.78,12.76l3.6.05"/><path class="cls-1" d="M69,20.2c-2.43-.07-5-.19-7.26-.29"/><path class="cls-1" d="M61.78,27c7.77-.3,20-.36,22.65,0l.76.09"/><path class="cls-1" d="M72.49,32.32c-.64.09-1.4.17-2.38.22-2.85.15-5.63-.3-6.53-.15a11.46,11.46,0,0,1-1.8,0"/><path class="cls-1" d="M67.29,41.25h-.71c-1.48,0-3.24,0-4.8.06"/><path class="cls-1" d="M65.36,45.84c-1.39,0-2.57-.08-3.58-.11"/><path class="cls-1" d="M63.54,58.23l-1.45,0"/><path class="cls-1" d="M64.36,58.24h-.82"/><path class="cls-1" d="M64.36,58.24c6.13.1,15,.29,17.52.4l1.13,0"/><path class="cls-1" d="M77.53,65.51c-3.8.44-10.4.08-15.75-.15"/><path class="cls-1" d="M69,52.61c-2-.09-4.79-.34-7.26-.49"/><line class="cls-2" x1="63.66" y1="59.17" x2="63.66" y2="65.39"/><line class="cls-2" x1="64.56" y1="12.75" x2="64.56" y2="10.19"/><line class="cls-2" x1="62.91" y1="12.75" x2="62.91" y2="10.19"/><line class="cls-2" x1="65.38" y1="10.19" x2="65.38" y2="12.81"/><line class="cls-1" x1="65.38" y1="12.83" x2="65.38" y2="12.81"/><line class="cls-2" x1="64.11" y1="40.82" x2="64.11" y2="32.73"/><line class="cls-2" x1="62.46" y1="32.81" x2="62.46" y2="40.82"/><line class="cls-2" x1="64.94" y1="40.9" x2="64.94" y2="32.73"/><line class="cls-2" x1="63.21" y1="26.84" x2="63.21" y2="20.62"/><line class="cls-2" x1="65.04" y1="26.76" x2="65.04" y2="20.62"/><line class="cls-2" x1="63.21" y1="46.26" x2="63.21" y2="52.13"/><line class="cls-2" x1="65.04" y1="52.05" x2="65.04" y2="46.26"/><line class="cls-2" x1="64.36" y1="32.13" x2="64.36" y2="27.09"/><line class="cls-2" x1="63.54" y1="31.98" x2="63.54" y2="26.94"/><line class="cls-2" x1="63.09" y1="12.97" x2="63.09" y2="19.72"/><line class="cls-2" x1="65.36" y1="13.45" x2="65.36" y2="19.87"/><line class="cls-2" x1="64.54" y1="13.3" x2="64.54" y2="19.72"/><line class="cls-1" x1="64.36" y1="58.24" x2="64.36" y2="58.46"/><line class="cls-2" x1="64.36" y1="58.24" x2="64.36" y2="52.72"/><line class="cls-1" x1="63.54" y1="58.23" x2="63.54" y2="58.31"/><line class="cls-2" x1="63.54" y1="52.57" x2="63.54" y2="58.23"/><line class="cls-2" x1="63.09" y1="45.7" x2="63.09" y2="41.71"/><line class="cls-2" x1="65.36" y1="45.84" x2="65.36" y2="41.5"/><line class="cls-2" x1="64.54" y1="45.7" x2="64.54" y2="41.35"/><line class="cls-2" x1="62.08" y1="52.33" x2="62.08" y2="57.99"/><rect class="cls-3" x="61.79" y="10.2" width="65.24" height="65.24"/><path class="cls-1" d="M41.47,6c2.63,0,7,.36,8.47.48a69.26,69.26,0,0,0,7.5-.3"/><path class="cls-1" d="M41.47,6c-.67,0-1.22,0-1.58,0"/><path class="cls-1" d="M60.67.07l-2-.06"/><path class="cls-1" d="M60.67.07l1.12,0"/><path class="cls-1" d="M57.52-.07a29.22,29.22,0,0,0-4-.08c-1.65.15-7.35-.45-8.1-.3"/><path class="cls-1" d="M58.72,0h-.36l-.84-.07"/><path class="cls-1" d="M57.81,6c1.11-.07,2.47-.14,4-.2"/><path class="cls-1" d="M20.39-.65a40.45,40.45,0,0,0-7.2.8q-.42.08-.9.12"/><path class="cls-1" d="M12.29.27C8.48.71,1.89.35-3.46.12"/><path class="cls-1" d="M32.47,5.77l1.57,0"/><path class="cls-1" d="M-3.46,5.8c7.78-.28,19.46-.33,22.1,0A51.44,51.44,0,0,0,29.29,6a23.39,23.39,0,0,1,3.18-.23"/><path class="cls-1" d="M34,5.75a23.19,23.19,0,0,1,2.6.1"/><line class="cls-2" x1="0.14" y1="6.39" x2="0.14" y2="10.2"/><line class="cls-2" x1="0.89" y1="6.31" x2="0.89" y2="10.2"/><line class="cls-2" x1="1.87" y1="6.31" x2="1.87" y2="10.2"/><line class="cls-2" x1="22.79" y1="6.76" x2="22.79" y2="10.2"/><line class="cls-2" x1="23.62" y1="6.91" x2="23.62" y2="10.2"/><line class="cls-2" x1="24.37" y1="6.84" x2="24.37" y2="10.2"/><line class="cls-2" x1="25.34" y1="6.84" x2="25.34" y2="10.2"/><line class="cls-2" x1="4.19" y1="6.31" x2="4.19" y2="10.2"/><line class="cls-2" x1="6.02" y1="6.24" x2="6.02" y2="10.2"/><line class="cls-2" x1="8.47" y1="6.24" x2="8.47" y2="10.2"/><line class="cls-2" x1="39.37" y1="6.69" x2="39.37" y2="10.2"/><line class="cls-2" x1="42.19" y1="6.61" x2="42.19" y2="10.2"/><line class="cls-2" x1="43.19" y1="6.44" x2="43.19" y2="10.2"/><line class="cls-2" x1="37.84" y1="6.61" x2="37.84" y2="10.2"/><line class="cls-2" x1="35.57" y1="6.46" x2="35.57" y2="10.2"/><line class="cls-2" x1="48.06" y1="6.64" x2="48.06" y2="10.2"/><line class="cls-2" x1="45.88" y1="6.57" x2="45.88" y2="10.2"/><line class="cls-2" x1="44.85" y1="6.49" x2="44.85" y2="10.2"/><line class="cls-2" x1="43.99" y1="6.27" x2="43.99" y2="10.2"/><line class="cls-2" x1="50.31" y1="6.79" x2="50.31" y2="10.2"/><line class="cls-2" x1="52.09" y1="6.79" x2="52.09" y2="10.2"/><line class="cls-2" x1="48.97" y1="6.72" x2="48.97" y2="10.2"/><line class="cls-2" x1="21.22" y1="6.76" x2="21.22" y2="10.2"/><line class="cls-2" x1="31.94" y1="6.46" x2="31.94" y2="10.2"/><line class="cls-2" x1="32.77" y1="6.39" x2="32.77" y2="10.2"/><line class="cls-2" x1="33.52" y1="6.39" x2="33.52" y2="10.2"/><line class="cls-2" x1="34.49" y1="6.46" x2="34.49" y2="10.2"/><line class="cls-2" x1="27.22" y1="6.84" x2="27.22" y2="10.2"/><line class="cls-2" x1="30.37" y1="6.54" x2="30.37" y2="10.2"/><line class="cls-2" x1="56.62" y1="6.84" x2="56.62" y2="10.2"/><line class="cls-2" x1="58.56" y1="6.69" x2="58.56" y2="10.2"/><line class="cls-2" x1="0.24" y1="-6.07" x2="0.24" y2="0.07"/><line class="cls-2" x1="2.69" y1="-6.07" x2="2.69" y2="0.07"/><line class="cls-1" x1="12.29" y1="0.27" x2="12.29" y2="0.3"/><line class="cls-2" x1="12.57" y1="-6.46" x2="12.57" y2="0.27"/><line class="cls-2" x1="10.72" y1="-6.38" x2="10.72" y2="0.22"/><line class="cls-2" x1="11.69" y1="-6.53" x2="11.69" y2="0.3"/><line class="cls-2" x1="55.42" y1="6.99" x2="55.42" y2="10.2"/><line class="cls-2" x1="54.62" y1="7.06" x2="54.62" y2="10.2"/><line class="cls-2" x1="11.09" y1="6.25" x2="11.09" y2="10.2"/><line class="cls-2" x1="15.79" y1="6.03" x2="15.79" y2="10.2"/><line class="cls-2" x1="12.89" y1="6.18" x2="12.89" y2="10.2"/><line class="cls-2" x1="14.89" y1="6.1" x2="14.89" y2="10.2"/><line class="cls-2" x1="18.06" y1="6.48" x2="18.06" y2="10.2"/><line class="cls-2" x1="16.91" y1="5.8" x2="16.91" y2="10.2"/><line class="cls-2" x1="27.06" y1="-0.5" x2="27.06" y2="5.79"/><line class="cls-2" x1="27.87" y1="-0.55" x2="27.87" y2="5.82"/><line class="cls-2" x1="28.64" y1="-0.35" x2="28.64" y2="5.87"/><line class="cls-2" x1="29.62" y1="-0.5" x2="29.62" y2="5.87"/><line class="cls-2" x1="25.49" y1="-0.42" x2="25.49" y2="5.79"/><line class="cls-2" x1="31.49" y1="-0.27" x2="31.49" y2="5.52"/><line class="cls-2" x1="9.8" y1="0.75" x2="9.8" y2="5.24"/><line class="cls-2" x1="11.34" y1="0.75" x2="11.34" y2="5.16"/><line class="cls-2" x1="16.42" y1="0.06" x2="16.42" y2="5.16"/><line class="cls-2" x1="19.49" y1="-0.62" x2="19.49" y2="5.78"/><line class="cls-2" x1="18.22" y1="-0.14" x2="18.22" y2="5.78"/><line class="cls-2" x1="5.89" y1="0.97" x2="5.89" y2="5.39"/><line class="cls-2" x1="8.97" y1="0.64" x2="8.97" y2="5.31"/><line class="cls-2" x1="7.69" y1="1.12" x2="7.69" y2="5.31"/><line class="cls-2" x1="13.79" y1="0.06" x2="13.79" y2="5.16"/><line class="cls-2" x1="23.39" y1="-0.33" x2="23.39" y2="6.08"/><line class="cls-2" x1="21.81" y1="-0.26" x2="21.81" y2="6"/><line class="cls-2" x1="22.79" y1="-0.41" x2="22.79" y2="6.08"/><line class="cls-1" x1="41.47" y1="5.97" x2="41.47" y2="6.03"/><line class="cls-2" x1="41.47" y1="5.97" x2="41.47" y2="-0.12"/><line class="cls-2" x1="44.29" y1="0.24" x2="44.29" y2="5.96"/><line class="cls-2" x1="39.94" y1="5.96" x2="39.94" y2="-0.27"/><line class="cls-2" x1="37.67" y1="-0.04" x2="37.67" y2="5.81"/><line class="cls-2" x1="49.79" y1="0.11" x2="49.79" y2="6.06"/><line class="cls-2" x1="49.18" y1="0.08" x2="49.18" y2="5.91"/><line class="cls-2" x1="48.33" y1="0.11" x2="48.33" y2="5.84"/><line class="cls-2" x1="47.6" y1="0.03" x2="47.6" y2="6.11"/><line class="cls-2" x1="45.74" y1="-0.12" x2="45.74" y2="5.96"/><line class="cls-2" x1="52.42" y1="0.03" x2="52.42" y2="6.14"/><line class="cls-2" x1="54.19" y1="0.06" x2="54.19" y2="6.14"/><line class="cls-2" x1="50.72" y1="0.26" x2="50.72" y2="6.06"/><line class="cls-2" x1="3.17" y1="0.75" x2="3.17" y2="5.32"/><line class="cls-2" x1="2.37" y1="0.77" x2="2.37" y2="5.25"/><line class="cls-2" x1="1.49" y1="0.8" x2="1.49" y2="5.25"/><line class="cls-2" x1="0.64" y1="1.17" x2="0.64" y2="5.52"/><line class="cls-2" x1="4.07" y1="0.97" x2="4.07" y2="5.4"/><line class="cls-2" x1="34.04" y1="5.75" x2="34.04" y2="-0.57"/><line class="cls-1" x1="34.04" y1="5.75" x2="34.04" y2="5.81"/><line class="cls-2" x1="34.87" y1="-0.15" x2="34.87" y2="5.73"/><line class="cls-2" x1="35.62" y1="-0.08" x2="35.62" y2="5.73"/><line class="cls-2" x1="36.59" y1="-0.23" x2="36.59" y2="5.81"/><line class="cls-1" x1="32.47" y1="5.77" x2="32.47" y2="5.88"/><line class="cls-2" x1="32.47" y1="5.77" x2="32.47" y2="-0.5"/><line class="cls-1" x1="58.72" y1="-0.04" x2="58.72" y2="0.01"/><line class="cls-2" x1="58.72" y1="0.01" x2="58.72" y2="5.84"/><line class="cls-1" x1="60.67" y1="0.07" x2="60.67" y2="-0.02"/><line class="cls-2" x1="60.67" y1="0.07" x2="60.67" y2="5.69"/><line class="cls-2" x1="57.52" y1="-0.07" x2="57.52" y2="5.99"/><line class="cls-2" x1="56.72" y1="-0.06" x2="56.72" y2="6.06"/><rect class="cls-3" x="-3.45" y="-55.04" width="65.24" height="65.24"/><path class="cls-1" d="M49,12.67c-1.86,0-3.63.06-5,.14"/><path class="cls-1" d="M44,12.81a15.32,15.32,0,0,0-2.15.23c-.37.09-.83.16-1.35.23"/><path class="cls-1" d="M40.49,13.27c-3.07.41-8.29.52-9.45.52"/><path class="cls-1" d="M54.62,12.68c-1.73,0-3.74,0-5.65,0"/><path class="cls-1" d="M56.62,12.7l1.94,0"/><path class="cls-1" d="M54.62,12.68l2,0"/><path class="cls-1" d="M58.56,12.73h.7l2.53,0"/><path class="cls-1" d="M48.16,19.44c.9,0,2,0,3.11,0"/><path class="cls-1" d="M45.89,19.49c.47,0,1.26,0,2.27,0"/><path class="cls-1" d="M58.3,19.79c-.38,0-2.71-.15-5.33-.28"/><path class="cls-1" d="M51.27,19.44l1.37,0,.33,0"/><path class="cls-1" d="M58.3,19.79h.06l3.43.12"/><path class="cls-1" d="M56.74,27.08c-1,0-2.48,0-4,.06-2.85.15-7.2-.15-8.85,0"/><path class="cls-1" d="M56.74,27.08c1,0,1.62.06,1.62.06,1-.07,2.14-.12,3.43-.17"/><path class="cls-1" d="M39.49,32.25l5.2.14c4.65.15,13.37-.15,13.37-.15,1.15.09,2.58.18,3.73.2"/><path class="cls-1" d="M31.19,32.39a73,73,0,0,1,8.3-.14"/><path class="cls-1" d="M20.05,40.13c1.05-.15,6.11-.16,9.41-.46s10.73.22,16,.37c.69,0,1.43.05,2.18.1"/><path class="cls-1" d="M48.52,40.2l-.9-.06"/><path class="cls-1" d="M57.27,41.1c-1.75-.23-5.35-.66-8.75-.9"/><path class="cls-1" d="M61.22,41.3c-.73,0-1.4,0-1.95,0"/><path class="cls-1" d="M58.07,41.2l-.8-.1"/><path class="cls-1" d="M59.27,41.29l-.91,0-.29,0"/><path class="cls-1" d="M61.22,41.3h.57"/><path class="cls-1" d="M36.44,45.44c1.05-.15,4.5-.15,6.15-.3s6.15.15,8.7.3,7.67.3,7.67.3a25.93,25.93,0,0,1,2.83,0"/><path class="cls-1" d="M32.09,59.24c.9-.15,2.85.15,6.15,0s8.7-.45,12.15-.75,8.87-.3,8.87-.3l2.53,0"/><path class="cls-1" d="M60.67,65.32l-2-.07"/><path class="cls-1" d="M60.67,65.32l1.12,0"/><path class="cls-1" d="M57.52,65.17a29.22,29.22,0,0,0-4-.08c-1.65.15-7.35-.45-8.1-.3"/><path class="cls-1" d="M58.72,65.25h-.36l-.84-.07"/><path class="cls-1" d="M51.14,52.49h2.55c1.05,0,4.37-.45,4.37-.45,1,0,2.29,0,3.73.08"/><path class="cls-1" d="M21.22,13.32l-2.45-.06"/><path class="cls-1" d="M18.77,13.26l-2.13-.07c-1.89-.08-7.29-.21-12.45-.31"/><path class="cls-1" d="M27.59,13.64a30.2,30.2,0,0,0-3.22-.23"/><path class="cls-1" d="M24.37,13.41c-1,0-2.06-.06-3.15-.09"/><path class="cls-1" d="M4.19,12.88l-3.3-.06"/><path class="cls-1" d="M-3.46,12.76l3.6.05"/><path class="cls-1" d="M.89,12.82H.14"/><path class="cls-1" d="M35.42,19.12a34.66,34.66,0,0,0,5.82.07"/><path class="cls-1" d="M3.8,20.2c-2.44-.07-5-.19-7.26-.29"/><path class="cls-1" d="M33,18.89a12.26,12.26,0,0,1,1.92.15l.48.08"/><path class="cls-1" d="M33,18.89c-2.92,0-7.38.42-10.23.3a36.85,36.85,0,0,0-9.6.75,55.52,55.52,0,0,1-9.39.26"/><path class="cls-1" d="M-3.46,27c7.77-.3,20-.36,22.65,0l.75.09"/><path class="cls-1" d="M37.19,27a41.29,41.29,0,0,0-7.35.15,51.13,51.13,0,0,1-9.9-.06"/><path class="cls-1" d="M7.24,32.32c-.64.09-1.4.17-2.37.22-2.85.15-5.63-.3-6.53-.15a11.46,11.46,0,0,1-1.8,0"/><path class="cls-1" d="M26.24,32.39c-6.3.3-11.25.45-14.55-.15a12,12,0,0,0-4.45.08"/><path class="cls-1" d="M9.52,41.39A40.94,40.94,0,0,0,14.35,41"/><path class="cls-1" d="M2.92,41.27l.8,0"/><path class="cls-1" d="M2.05,41.25l.87,0"/><path class="cls-1" d="M14.35,41l.59-.1"/><path class="cls-1" d="M6.44,41.4c1,0,2,0,3.08,0"/><path class="cls-1" d="M3.72,41.31c.83,0,1.74.07,2.72.09"/><path class="cls-1" d="M2.05,41.25H1.34c-1.48,0-3.24,0-4.8.06"/><path class="cls-1" d="M31,45.44c-3.36,0-9.64-.28-14.07-.31"/><path class="cls-1" d="M1.19,45.87l2.25,0a42,42,0,0,0,9-.6A30.19,30.19,0,0,1,17,45.13"/><path class="cls-1" d="M.12,45.84c-1.39,0-2.58-.08-3.58-.11"/><path class="cls-1" d="M.12,45.84l1.07,0"/><path class="cls-1" d="M27.59,59.09c-1.42-.24-5.28-.29-8.54-.37"/><path class="cls-1" d="M17.77,58.68l1.28,0"/><path class="cls-1" d="M-.88,58.24c6.12.1,15,.29,17.52.4l1.13,0"/><path class="cls-1" d="M20.39,64.59a40.45,40.45,0,0,0-7.2.8q-.42.08-.9.12"/><path class="cls-1" d="M12.29,65.51c-3.81.44-10.4.08-15.75-.15"/><path class="cls-1" d="M20.39,64.59c.73,0,1.5,0,2.4,0,3.6.15,9.75-.6,12.15-.15a30.13,30.13,0,0,0,6.3.15"/><path class="cls-1" d="M23.32,51.92h-.83"/><path class="cls-1" d="M26.12,52c.93,0,1.71.11,2.22.19A61.22,61.22,0,0,0,42.14,52c3.25-.42,3.94-.4,5-.2"/><path class="cls-1" d="M3.8,52.61l1.14,0a55.24,55.24,0,0,0,7.35-.45c1.48-.19,6.17-.31,10.2-.28"/><path class="cls-1" d="M49,52.19c-.86-.14-1.4-.26-1.87-.35"/><path class="cls-1" d="M3.8,52.61c-2-.09-4.79-.34-7.26-.49"/><path class="cls-1" d="M25.05,52l-1.73,0"/><path class="cls-1" d="M26.12,52l-1.07,0"/><line class="cls-2" x1="16.31" y1="64.56" x2="16.31" y2="59.31"/><line class="cls-2" x1="16.97" y1="64.64" x2="16.97" y2="59.46"/><line class="cls-2" x1="17.82" y1="59.31" x2="17.82" y2="64.64"/><line class="cls-2" x1="14.39" y1="64.56" x2="14.39" y2="59.38"/><line class="cls-2" x1="20.39" y1="64.59" x2="20.39" y2="59.53"/><line class="cls-1" x1="20.39" y1="64.59" x2="20.39" y2="64.64"/><line class="cls-2" x1="18.59" y1="59.26" x2="18.59" y2="64.36"/><line class="cls-2" x1="0.24" y1="59.17" x2="0.24" y2="65.31"/><line class="cls-2" x1="4.17" y1="58.5" x2="4.17" y2="65.24"/><line class="cls-2" x1="3.51" y1="58.8" x2="3.51" y2="64.71"/><line class="cls-2" x1="2.69" y1="59.17" x2="2.69" y2="65.31"/><line class="cls-2" x1="12.57" y1="58.78" x2="12.57" y2="65.51"/><line class="cls-2" x1="10.72" y1="58.86" x2="10.72" y2="65.46"/><line class="cls-2" x1="8.52" y1="59.27" x2="8.52" y2="65.19"/><line class="cls-2" x1="5.89" y1="58.97" x2="5.89" y2="64.89"/><line class="cls-2" x1="4.97" y1="59.12" x2="4.97" y2="65.04"/><line class="cls-2" x1="57.74" y1="64.97" x2="57.74" y2="58.83"/><line class="cls-2" x1="58.45" y1="64.82" x2="58.45" y2="58.64"/><line class="cls-2" x1="57.19" y1="64.97" x2="57.19" y2="58.83"/><line class="cls-2" x1="60.69" y1="64.54" x2="60.69" y2="58.63"/><line class="cls-2" x1="59.92" y1="64.84" x2="59.92" y2="58.93"/><line class="cls-2" x1="59.24" y1="64.94" x2="59.24" y2="59.03"/><line class="cls-2" x1="11.69" y1="58.71" x2="11.69" y2="65.54"/><line class="cls-2" x1="30.37" y1="60.03" x2="30.37" y2="64.11"/><line class="cls-2" x1="33.19" y1="59.36" x2="33.19" y2="64.04"/><line class="cls-2" x1="28.84" y1="59.88" x2="28.84" y2="64.04"/><line class="cls-2" x1="26.57" y1="60.11" x2="26.57" y2="63.89"/><line class="cls-2" x1="39.06" y1="59.84" x2="39.06" y2="64.41"/><line class="cls-2" x1="38.27" y1="59.86" x2="38.27" y2="64.34"/><line class="cls-2" x1="36.54" y1="59.91" x2="36.54" y2="64.26"/><line class="cls-2" x1="35.47" y1="59.84" x2="35.47" y2="64.19"/><line class="cls-2" x1="34.64" y1="59.69" x2="34.64" y2="64.04"/><line class="cls-2" x1="41.31" y1="59.15" x2="41.31" y2="64.56"/><line class="cls-2" x1="43.09" y1="59.17" x2="43.09" y2="64.56"/><line class="cls-2" x1="39.97" y1="60.06" x2="39.97" y2="64.49"/><line class="cls-2" x1="22.94" y1="59.23" x2="22.94" y2="63.89"/><line class="cls-2" x1="23.77" y1="59.31" x2="23.77" y2="63.81"/><line class="cls-2" x1="24.52" y1="59.38" x2="24.52" y2="63.81"/><line class="cls-2" x1="25.49" y1="59.23" x2="25.49" y2="63.89"/><line class="cls-2" x1="21.37" y1="59.31" x2="21.37" y2="63.96"/><line class="cls-2" x1="47.62" y1="64.26" x2="47.62" y2="59.07"/><line class="cls-2" x1="49.56" y1="64.11" x2="49.56" y2="59.1"/><line class="cls-2" x1="46.42" y1="64.41" x2="46.42" y2="59.02"/><line class="cls-2" x1="45.62" y1="64.49" x2="45.62" y2="59.05"/><line class="cls-2" x1="53.02" y1="64.26" x2="53.02" y2="59.07"/><line class="cls-2" x1="54.97" y1="64.11" x2="54.97" y2="59.1"/><line class="cls-2" x1="51.81" y1="64.41" x2="51.81" y2="59.02"/><line class="cls-2" x1="51.02" y1="64.49" x2="51.02" y2="59.05"/><line class="cls-2" x1="0.14" y1="10.19" x2="0.14" y2="12.81"/><line class="cls-1" x1="0.14" y1="12.83" x2="0.14" y2="12.81"/><line class="cls-1" x1="0.89" y1="12.9" x2="0.89" y2="12.82"/><line class="cls-2" x1="0.89" y1="12.82" x2="0.89" y2="10.19"/><line class="cls-2" x1="1.87" y1="12.75" x2="1.87" y2="10.19"/><line class="cls-2" x1="22.79" y1="13.28" x2="22.79" y2="10.19"/><line class="cls-2" x1="23.62" y1="13.35" x2="23.62" y2="10.19"/><line class="cls-1" x1="24.37" y1="13.41" x2="24.37" y2="13.43"/><line class="cls-2" x1="24.37" y1="13.41" x2="24.37" y2="10.19"/><line class="cls-2" x1="25.34" y1="13.28" x2="25.34" y2="10.19"/><line class="cls-1" x1="4.19" y1="12.88" x2="4.19" y2="12.9"/><line class="cls-2" x1="4.19" y1="12.88" x2="4.19" y2="10.19"/><line class="cls-2" x1="6.02" y1="12.9" x2="6.02" y2="10.19"/><line class="cls-2" x1="11.09" y1="12.9" x2="11.09" y2="10.19"/><line class="cls-2" x1="15.79" y1="12.98" x2="15.79" y2="10.19"/><line class="cls-2" x1="12.89" y1="13.05" x2="12.89" y2="10.19"/><line class="cls-2" x1="14.89" y1="12.98" x2="14.89" y2="10.19"/><line class="cls-2" x1="8.47" y1="12.9" x2="8.47" y2="10.19"/><line class="cls-2" x1="18.06" y1="13.2" x2="18.06" y2="10.19"/><line class="cls-2" x1="39.37" y1="13.28" x2="39.37" y2="10.19"/><line class="cls-2" x1="42.19" y1="12.6" x2="42.19" y2="10.19"/><line class="cls-2" x1="43.19" y1="12.43" x2="43.19" y2="10.19"/><line class="cls-2" x1="37.84" y1="13.13" x2="37.84" y2="10.19"/><line class="cls-2" x1="35.57" y1="13.35" x2="35.57" y2="10.19"/><line class="cls-2" x1="48.06" y1="12.45" x2="48.06" y2="10.19"/><line class="cls-2" x1="45.88" y1="12.48" x2="45.88" y2="10.19"/><line class="cls-2" x1="44.85" y1="12.53" x2="44.85" y2="10.19"/><line class="cls-1" x1="43.99" y1="12.81" x2="43.99" y2="12.9"/><line class="cls-2" x1="43.99" y1="12.81" x2="43.99" y2="10.19"/><line class="cls-2" x1="50.31" y1="12.45" x2="50.31" y2="10.19"/><line class="cls-2" x1="52.09" y1="12.48" x2="52.09" y2="10.19"/><line class="cls-2" x1="48.97" y1="12.67" x2="48.97" y2="10.19"/><line class="cls-2" x1="21.22" y1="13.32" x2="21.22" y2="10.19"/><line class="cls-1" x1="21.22" y1="13.32" x2="21.22" y2="13.35"/><line class="cls-2" x1="31.94" y1="13.58" x2="31.94" y2="10.19"/><line class="cls-2" x1="32.77" y1="13.65" x2="32.77" y2="10.19"/><line class="cls-2" x1="33.52" y1="13.73" x2="33.52" y2="10.19"/><line class="cls-2" x1="34.49" y1="13.58" x2="34.49" y2="10.19"/><line class="cls-2" x1="27.22" y1="13.5" x2="27.22" y2="10.19"/><line class="cls-2" x1="30.37" y1="13.65" x2="30.37" y2="10.19"/><line class="cls-2" x1="56.62" y1="12.7" x2="56.62" y2="10.19"/><line class="cls-1" x1="56.62" y1="12.73" x2="56.62" y2="12.7"/><line class="cls-1" x1="58.56" y1="12.75" x2="58.56" y2="12.73"/><line class="cls-2" x1="58.56" y1="12.73" x2="58.56" y2="10.19"/><line class="cls-2" x1="16.91" y1="12.68" x2="16.91" y2="10.19"/><line class="cls-2" x1="55.42" y1="12.68" x2="55.42" y2="10.19"/><line class="cls-2" x1="54.62" y1="12.68" x2="54.62" y2="10.19"/><line class="cls-1" x1="54.62" y1="12.68" x2="54.62" y2="12.7"/><line class="cls-2" x1="0.44" y1="40.97" x2="0.44" y2="32.66"/><line class="cls-2" x1="1.42" y1="40.82" x2="1.42" y2="32.66"/><line class="cls-2" x1="22.35" y1="33.45" x2="22.35" y2="39.62"/><line class="cls-2" x1="23.17" y1="33.6" x2="23.17" y2="39.69"/><line class="cls-2" x1="23.92" y1="33.53" x2="23.92" y2="39.77"/><line class="cls-2" x1="24.9" y1="33.53" x2="24.9" y2="39.62"/><line class="cls-2" x1="4.44" y1="40.62" x2="4.44" y2="32.66"/><line class="cls-2" x1="6.26" y1="40.62" x2="6.26" y2="32.58"/><line class="cls-2" x1="11.34" y1="40.62" x2="11.34" y2="32.93"/><line class="cls-2" x1="15.49" y1="40.5" x2="15.49" y2="32.85"/><line class="cls-2" x1="13.14" y1="40.77" x2="13.14" y2="32.85"/><line class="cls-2" x1="14.44" y1="40.35" x2="14.44" y2="32.78"/><line class="cls-2" x1="8.71" y1="40.62" x2="8.71" y2="32.24"/><line class="cls-2" x1="17.62" y1="40.23" x2="17.62" y2="33.15"/><line class="cls-2" x1="38.92" y1="33.38" x2="38.92" y2="38.93"/><line class="cls-2" x1="41.74" y1="39.29" x2="41.74" y2="33.3"/><line class="cls-2" x1="42.74" y1="39.11" x2="42.74" y2="33.13"/><line class="cls-2" x1="37.4" y1="33.3" x2="37.4" y2="38.78"/><line class="cls-2" x1="35.12" y1="33.15" x2="35.12" y2="39"/><line class="cls-1" x1="47.62" y1="40.14" x2="47.62" y2="40.17"/><line class="cls-2" x1="47.62" y1="33.33" x2="47.62" y2="40.14"/><line class="cls-2" x1="45.74" y1="39.46" x2="45.74" y2="33.56"/><line class="cls-2" x1="44.91" y1="39.19" x2="44.91" y2="33.26"/><line class="cls-2" x1="44.18" y1="39.51" x2="44.18" y2="33.48"/><line class="cls-2" x1="43.54" y1="39.59" x2="43.54" y2="32.96"/><line class="cls-2" x1="49.87" y1="40.17" x2="49.87" y2="33.48"/><line class="cls-2" x1="51.65" y1="40.2" x2="51.65" y2="33.48"/><line class="cls-2" x1="48.52" y1="33.41" x2="48.52" y2="40.2"/><line class="cls-1" x1="48.52" y1="40.2" x2="48.52" y2="40.4"/><line class="cls-2" x1="20.77" y1="33.45" x2="20.77" y2="39.69"/><line class="cls-2" x1="31.49" y1="33.15" x2="31.49" y2="39.23"/><line class="cls-2" x1="32.32" y1="33.08" x2="32.32" y2="39.3"/><line class="cls-2" x1="33.07" y1="33.08" x2="33.07" y2="39.38"/><line class="cls-2" x1="34.05" y1="33.15" x2="34.05" y2="39.23"/><line class="cls-2" x1="15.87" y1="26.36" x2="15.87" y2="20.07"/><line class="cls-2" x1="16.75" y1="26.43" x2="16.75" y2="20.22"/><line class="cls-2" x1="17.38" y1="26.43" x2="17.38" y2="20.07"/><line class="cls-2" x1="13.94" y1="26.01" x2="13.94" y2="20.83"/><line class="cls-1" x1="19.94" y1="27.12" x2="19.94" y2="27.08"/><line class="cls-2" x1="19.94" y1="27.08" x2="19.94" y2="19.95"/><line class="cls-2" x1="18.15" y1="26.16" x2="18.15" y2="20.02"/><line class="cls-2" x1="26.77" y1="33.53" x2="26.77" y2="39.15"/><line class="cls-2" x1="29.92" y1="33.23" x2="29.92" y2="39.3"/><line class="cls-2" x1="56.17" y1="40.45" x2="56.17" y2="32.84"/><line class="cls-2" x1="58.12" y1="41.17" x2="58.12" y2="32.69"/><line class="cls-2" x1="16.39" y1="40.31" x2="16.39" y2="33.08"/><line class="cls-2" x1="3.14" y1="26.76" x2="3.14" y2="20.62"/><line class="cls-1" x1="3.8" y1="20.2" x2="3.8" y2="19.95"/><line class="cls-2" x1="3.8" y1="20.2" x2="3.8" y2="26.69"/><line class="cls-2" x1="2.24" y1="26.76" x2="2.24" y2="20.62"/><line class="cls-2" x1="12.13" y1="26.64" x2="12.13" y2="20.92"/><line class="cls-2" x1="10.27" y1="26.57" x2="10.27" y2="21"/><line class="cls-2" x1="8.07" y1="26.64" x2="8.07" y2="20.72"/><line class="cls-2" x1="5.74" y1="26.34" x2="5.74" y2="20.42"/><line class="cls-2" x1="4.97" y1="26.64" x2="4.97" y2="20.72"/><line class="cls-2" x1="58.3" y1="19.79" x2="58.3" y2="27.03"/><line class="cls-1" x1="58.3" y1="19.79" x2="58.3" y2="19.6"/><line class="cls-2" x1="57.49" y1="20.28" x2="57.49" y2="26.88"/><line class="cls-1" x1="56.74" y1="27.08" x2="56.74" y2="27.11"/><line class="cls-2" x1="56.74" y1="27.08" x2="56.74" y2="20.28"/><line class="cls-2" x1="60.25" y1="26.68" x2="60.25" y2="20.08"/><line class="cls-2" x1="59.47" y1="20.38" x2="59.47" y2="26.98"/><line class="cls-2" x1="11.24" y1="26.64" x2="11.24" y2="20.85"/><line class="cls-2" x1="54.97" y1="40.4" x2="54.97" y2="32.99"/><line class="cls-2" x1="29.92" y1="26.94" x2="29.92" y2="19.75"/><line class="cls-2" x1="32.74" y1="26.52" x2="32.74" y2="19.43"/><line class="cls-2" x1="28.4" y1="26.87" x2="28.4" y2="19.61"/><line class="cls-2" x1="26.12" y1="26.72" x2="26.12" y2="19.83"/><line class="cls-2" x1="38.62" y1="26.9" x2="38.62" y2="19.56"/><line class="cls-2" x1="37.82" y1="19.58" x2="37.82" y2="26.82"/><line class="cls-2" x1="36.94" y1="26.82" x2="36.94" y2="19.61"/><line class="cls-2" x1="35.02" y1="26.67" x2="35.02" y2="19.56"/><line class="cls-2" x1="34.19" y1="19.75" x2="34.19" y2="26.52"/><line class="cls-2" x1="40.87" y1="19.9" x2="40.87" y2="26.7"/><line class="cls-2" x1="42.65" y1="19.93" x2="42.65" y2="26.7"/><line class="cls-2" x1="39.52" y1="19.78" x2="39.52" y2="26.97"/><line class="cls-2" x1="22.49" y1="26.72" x2="22.49" y2="19.65"/><line class="cls-2" x1="23.32" y1="26.65" x2="23.32" y2="19.72"/><line class="cls-2" x1="24.07" y1="26.65" x2="24.07" y2="19.8"/><line class="cls-2" x1="25.05" y1="26.72" x2="25.05" y2="19.65"/><line class="cls-2" x1="20.92" y1="26.45" x2="20.92" y2="19.72"/><line class="cls-2" x1="47.17" y1="19.83" x2="47.17" y2="26.75"/><line class="cls-2" x1="49.12" y1="19.86" x2="49.12" y2="26.6"/><line class="cls-2" x1="45.97" y1="19.78" x2="45.97" y2="26.9"/><line class="cls-2" x1="45.17" y1="26.97" x2="45.17" y2="19.81"/><line class="cls-2" x1="52.57" y1="19.83" x2="52.57" y2="26.75"/><line class="cls-2" x1="54.52" y1="26.6" x2="54.52" y2="19.86"/><line class="cls-2" x1="51.37" y1="19.78" x2="51.37" y2="26.9"/><line class="cls-2" x1="50.57" y1="19.81" x2="50.57" y2="26.97"/><line class="cls-2" x1="15.87" y1="45.7" x2="15.87" y2="51.65"/><line class="cls-2" x1="16.45" y1="45.7" x2="16.45" y2="51.57"/><line class="cls-2" x1="17.38" y1="45.7" x2="17.38" y2="51.72"/><line class="cls-2" x1="13.94" y1="45.78" x2="13.94" y2="51.99"/><line class="cls-2" x1="19.94" y1="45.93" x2="19.94" y2="51.72"/><line class="cls-2" x1="18.15" y1="45.65" x2="18.15" y2="51.45"/><line class="cls-1" x1="3.8" y1="52.61" x2="3.8" y2="52.67"/><line class="cls-2" x1="3.8" y1="52.61" x2="3.8" y2="46.27"/><line class="cls-2" x1="2.99" y1="46.48" x2="2.99" y2="52.05"/><line class="cls-2" x1="2.24" y1="46.26" x2="2.24" y2="52.05"/><line class="cls-2" x1="12.13" y1="46.21" x2="12.13" y2="51.93"/><line class="cls-2" x1="10.27" y1="46.28" x2="10.27" y2="51.86"/><line class="cls-2" x1="8.07" y1="46.01" x2="8.07" y2="51.93"/><line class="cls-2" x1="5.74" y1="46.06" x2="5.74" y2="52.32"/><line class="cls-2" x1="4.97" y1="46.36" x2="4.97" y2="52.62"/><line class="cls-2" x1="58.3" y1="45.93" x2="58.3" y2="51.98"/><line class="cls-2" x1="57.42" y1="46.23" x2="57.42" y2="51.45"/><line class="cls-2" x1="56.74" y1="46.6" x2="56.74" y2="52.05"/><line class="cls-2" x1="60.25" y1="51.62" x2="60.25" y2="46.4"/><line class="cls-2" x1="59.47" y1="46.7" x2="59.47" y2="51.93"/><line class="cls-2" x1="11.24" y1="46.13" x2="11.24" y2="51.93"/><line class="cls-2" x1="29.92" y1="46.08" x2="29.92" y2="52.23"/><line class="cls-2" x1="32.74" y1="45.75" x2="32.74" y2="51.81"/><line class="cls-2" x1="28.4" y1="45.93" x2="28.4" y2="52.16"/><line class="cls-2" x1="26.12" y1="52" x2="26.12" y2="45.81"/><line class="cls-1" x1="26.12" y1="52" x2="26.12" y2="52.01"/><line class="cls-2" x1="38.62" y1="52.19" x2="38.62" y2="45.88"/><line class="cls-2" x1="37.82" y1="52.11" x2="37.82" y2="45.91"/><line class="cls-2" x1="36.1" y1="45.96" x2="36.1" y2="52.04"/><line class="cls-2" x1="35.02" y1="45.88" x2="35.02" y2="51.96"/><line class="cls-2" x1="34.19" y1="46.08" x2="34.19" y2="51.81"/><line class="cls-2" x1="40.87" y1="51.3" x2="40.87" y2="46.23"/><line class="cls-2" x1="42.65" y1="51.3" x2="42.65" y2="46.25"/><line class="cls-2" x1="39.52" y1="52.26" x2="39.52" y2="46.11"/><line class="cls-1" x1="22.49" y1="51.91" x2="22.49" y2="52.01"/><line class="cls-2" x1="22.49" y1="51.91" x2="22.49" y2="45.63"/><line class="cls-2" x1="23.32" y1="45.7" x2="23.32" y2="51.92"/><line class="cls-1" x1="23.32" y1="51.92" x2="23.32" y2="51.93"/><line class="cls-2" x1="24.07" y1="51.93" x2="24.07" y2="45.78"/><line class="cls-1" x1="25.05" y1="51.96" x2="25.05" y2="52.01"/><line class="cls-2" x1="25.05" y1="45.63" x2="25.05" y2="51.96"/><line class="cls-2" x1="20.92" y1="45.7" x2="20.92" y2="51.74"/><line class="cls-2" x1="47.17" y1="46.16" x2="47.17" y2="51.84"/><line class="cls-1" x1="47.17" y1="51.84" x2="47.17" y2="52.04"/><line class="cls-2" x1="49.12" y1="46.18" x2="49.12" y2="51.89"/><line class="cls-2" x1="45.97" y1="51.5" x2="45.97" y2="46.11"/><line class="cls-2" x1="45.17" y1="51.57" x2="45.17" y2="46.13"/><line class="cls-2" x1="52.57" y1="46.16" x2="52.57" y2="52.38"/><line class="cls-2" x1="54.52" y1="46.18" x2="54.52" y2="52.23"/><line class="cls-2" x1="51.37" y1="46.11" x2="51.37" y2="52.19"/><line class="cls-2" x1="50.57" y1="46.13" x2="50.57" y2="52.26"/><line class="cls-2" x1="54.17" y1="40.42" x2="54.17" y2="33.06"/><line class="cls-2" x1="61.19" y1="40.45" x2="61.19" y2="32.84"/><line class="cls-2" x1="59.99" y1="40.4" x2="59.99" y2="32.99"/><line class="cls-2" x1="59.19" y1="40.42" x2="59.19" y2="33.06"/><line class="cls-2" x1="3.09" y1="40.85" x2="3.09" y2="32.88"/><line class="cls-2" x1="27.06" y1="64.74" x2="27.06" y2="71.03"/><line class="cls-2" x1="27.87" y1="64.69" x2="27.87" y2="71.06"/><line class="cls-2" x1="28.64" y1="64.89" x2="28.64" y2="71.11"/><line class="cls-2" x1="29.62" y1="64.74" x2="29.62" y2="71.11"/><line class="cls-2" x1="25.49" y1="64.82" x2="25.49" y2="71.03"/><line class="cls-2" x1="31.49" y1="64.97" x2="31.49" y2="70.76"/><line class="cls-2" x1="19.49" y1="64.62" x2="19.49" y2="71.02"/><line class="cls-2" x1="18.22" y1="65.1" x2="18.22" y2="71.02"/><line class="cls-2" x1="23.39" y1="64.91" x2="23.39" y2="71.32"/><line class="cls-2" x1="21.81" y1="64.98" x2="21.81" y2="71.24"/><line class="cls-2" x1="22.79" y1="64.83" x2="22.79" y2="71.32"/><line class="cls-2" x1="41.47" y1="71.21" x2="41.47" y2="65.12"/><line class="cls-2" x1="39.94" y1="71.2" x2="39.94" y2="64.97"/><line class="cls-2" x1="37.67" y1="65.2" x2="37.67" y2="71.05"/><line class="cls-2" x1="45.74" y1="65.12" x2="45.74" y2="71.2"/><line class="cls-2" x1="34.04" y1="70.99" x2="34.04" y2="64.67"/><line class="cls-2" x1="34.87" y1="65.09" x2="34.87" y2="70.98"/><line class="cls-2" x1="35.62" y1="65.16" x2="35.62" y2="70.98"/><line class="cls-2" x1="36.59" y1="65.01" x2="36.59" y2="71.05"/><line class="cls-2" x1="32.47" y1="71.01" x2="32.47" y2="64.74"/><line class="cls-1" x1="58.72" y1="65.2" x2="58.72" y2="65.25"/><line class="cls-2" x1="58.72" y1="65.25" x2="58.72" y2="71.08"/><line class="cls-1" x1="60.67" y1="65.32" x2="60.67" y2="65.23"/><line class="cls-2" x1="57.52" y1="65.17" x2="57.52" y2="71.23"/><line class="cls-1" x1="57.52" y1="65.15" x2="57.52" y2="65.17"/><line class="cls-2" x1="56.72" y1="65.18" x2="56.72" y2="71.3"/><line class="cls-2" x1="26.62" y1="27.57" x2="26.62" y2="32.14"/><line class="cls-2" x1="27.47" y1="27.6" x2="27.47" y2="32.16"/><line class="cls-2" x1="28.19" y1="27.73" x2="28.19" y2="32.21"/><line class="cls-2" x1="29.17" y1="27.57" x2="29.17" y2="32.21"/><line class="cls-2" x1="25.05" y1="32.14" x2="25.05" y2="27.65"/><line class="cls-2" x1="31.05" y1="27.45" x2="31.05" y2="31.87"/><line class="cls-2" x1="9.35" y1="27.09" x2="9.35" y2="31.93"/><line class="cls-2" x1="10.9" y1="27.44" x2="10.9" y2="31.85"/><line class="cls-2" x1="15.97" y1="27.09" x2="15.97" y2="32.54"/><line class="cls-2" x1="19.05" y1="27.11" x2="19.05" y2="32.47"/><line class="cls-2" x1="17.77" y1="27.59" x2="17.77" y2="32.47"/><line class="cls-2" x1="5.44" y1="32.42" x2="5.44" y2="26.97"/><line class="cls-2" x1="8.52" y1="26.99" x2="8.52" y2="32"/><line class="cls-2" x1="7.24" y1="32.32" x2="7.24" y2="27.12"/><line class="cls-1" x1="7.24" y1="32.32" x2="7.24" y2="32.35"/><line class="cls-2" x1="13.35" y1="26.75" x2="13.35" y2="31.85"/><line class="cls-2" x1="22.94" y1="32.42" x2="22.94" y2="27.74"/><line class="cls-2" x1="21.37" y1="32.35" x2="21.37" y2="27.81"/><line class="cls-2" x1="22.35" y1="32.42" x2="22.35" y2="27.66"/><line class="cls-2" x1="41.02" y1="27.26" x2="41.02" y2="31.69"/><line class="cls-2" x1="43.85" y1="27.62" x2="43.85" y2="31.61"/><line class="cls-1" x1="39.49" y1="32.25" x2="39.49" y2="32.3"/><line class="cls-2" x1="39.49" y1="32.25" x2="39.49" y2="27.11"/><line class="cls-2" x1="37.22" y1="27.68" x2="37.22" y2="32.15"/><line class="cls-2" x1="49.56" y1="27.59" x2="49.56" y2="31.72"/><line class="cls-2" x1="48.74" y1="27.46" x2="48.74" y2="31.57"/><line class="cls-2" x1="47.89" y1="27.49" x2="47.89" y2="31.49"/><line class="cls-2" x1="47.16" y1="27.41" x2="47.16" y2="31.76"/><line class="cls-2" x1="45.3" y1="27.26" x2="45.3" y2="31.61"/><line class="cls-2" x1="51.97" y1="27.41" x2="51.97" y2="31.79"/><line class="cls-2" x1="53.74" y1="27.44" x2="53.74" y2="31.79"/><line class="cls-2" x1="50.27" y1="27.64" x2="50.27" y2="31.72"/><line class="cls-2" x1="2.72" y1="32.36" x2="2.72" y2="27.09"/><line class="cls-2" x1="1.92" y1="32.28" x2="1.92" y2="27.12"/><line class="cls-2" x1="1.05" y1="32.28" x2="1.05" y2="27.14"/><line class="cls-2" x1="0.19" y1="31.52" x2="0.19" y2="27.51"/><line class="cls-2" x1="3.62" y1="32.43" x2="3.62" y2="27.32"/><line class="cls-2" x1="33.6" y1="27.15" x2="33.6" y2="32.15"/><line class="cls-2" x1="34.42" y1="27.57" x2="34.42" y2="32.08"/><line class="cls-2" x1="35.17" y1="27.65" x2="35.17" y2="32.08"/><line class="cls-2" x1="36.15" y1="27.5" x2="36.15" y2="32.15"/><line class="cls-2" x1="32.02" y1="27.23" x2="32.02" y2="32.23"/><line class="cls-2" x1="58.27" y1="27.34" x2="58.27" y2="31.49"/><line class="cls-2" x1="60.22" y1="27.37" x2="60.22" y2="32.38"/><line class="cls-2" x1="57.07" y1="27.29" x2="57.07" y2="31.64"/><line class="cls-2" x1="56.27" y1="27.32" x2="56.27" y2="31.72"/><line class="cls-2" x1="27.62" y1="13.93" x2="27.62" y2="18.84"/><line class="cls-2" x1="28.47" y1="13.95" x2="28.47" y2="18.86"/><line class="cls-2" x1="29.19" y1="14.08" x2="29.19" y2="18.91"/><line class="cls-2" x1="30.17" y1="18.91" x2="30.17" y2="13.93"/><line class="cls-2" x1="26.05" y1="14" x2="26.05" y2="18.84"/><line class="cls-2" x1="32.05" y1="18.57" x2="32.05" y2="14.15"/><line class="cls-2" x1="10.35" y1="13.1" x2="10.35" y2="19.66"/><line class="cls-2" x1="11.9" y1="13.1" x2="11.9" y2="19.59"/><line class="cls-2" x1="16.97" y1="13.45" x2="16.97" y2="19.24"/><line class="cls-2" x1="20.05" y1="13.81" x2="20.05" y2="18.82"/><line class="cls-1" x1="18.77" y1="13.25" x2="18.77" y2="13.26"/><line class="cls-2" x1="18.77" y1="13.26" x2="18.77" y2="19.17"/><line class="cls-2" x1="6.44" y1="13.33" x2="6.44" y2="19.81"/><line class="cls-2" x1="9.52" y1="13" x2="9.52" y2="19.74"/><line class="cls-2" x1="8.24" y1="13.48" x2="8.24" y2="19.74"/><line class="cls-2" x1="14.35" y1="13.45" x2="14.35" y2="19.59"/><line class="cls-2" x1="23.94" y1="14.09" x2="23.94" y2="19.12"/><line class="cls-2" x1="22.37" y1="14.17" x2="22.37" y2="19.05"/><line class="cls-2" x1="23.35" y1="14.02" x2="23.35" y2="19.12"/><line class="cls-2" x1="42.02" y1="13.27" x2="42.02" y2="19.08"/><line class="cls-2" x1="44.85" y1="19.35" x2="44.85" y2="13.29"/><line class="cls-1" x1="40.49" y1="13.27" x2="40.49" y2="13.12"/><line class="cls-2" x1="40.49" y1="13.27" x2="40.49" y2="19"/><line class="cls-2" x1="38.22" y1="19.2" x2="38.22" y2="14.38"/><line class="cls-2" x1="50.42" y1="19.3" x2="50.42" y2="13"/><line class="cls-2" x1="49.74" y1="19.3" x2="49.74" y2="13.13"/><line class="cls-2" x1="48.89" y1="19.23" x2="48.89" y2="13.15"/><line class="cls-2" x1="48.16" y1="19.44" x2="48.16" y2="13.07"/><line class="cls-1" x1="48.16" y1="19.5" x2="48.16" y2="19.44"/><line class="cls-2" x1="46.3" y1="19.35" x2="46.3" y2="12.93"/><line class="cls-2" x1="52.97" y1="19.51" x2="52.97" y2="13.07"/><line class="cls-1" x1="52.97" y1="19.51" x2="52.97" y2="19.53"/><line class="cls-2" x1="54.74" y1="19.53" x2="54.74" y2="13.1"/><line class="cls-1" x1="51.27" y1="19.45" x2="51.27" y2="19.44"/><line class="cls-2" x1="51.27" y1="19.44" x2="51.27" y2="13.3"/><line class="cls-2" x1="3.72" y1="19.75" x2="3.72" y2="13.1"/><line class="cls-2" x1="2.92" y1="19.68" x2="2.92" y2="13.13"/><line class="cls-2" x1="2.05" y1="19.68" x2="2.05" y2="13.15"/><line class="cls-2" x1="1.19" y1="19.94" x2="1.19" y2="13.52"/><line class="cls-2" x1="0.12" y1="13.45" x2="0.12" y2="19.87"/><line class="cls-2" x1="4.62" y1="13.32" x2="4.62" y2="19.82"/><line class="cls-2" x1="34.6" y1="18.85" x2="34.6" y2="13.86"/><line class="cls-1" x1="35.42" y1="19.12" x2="35.42" y2="19.12"/><line class="cls-2" x1="35.42" y1="19.12" x2="35.42" y2="14.27"/><line class="cls-2" x1="36.17" y1="19.12" x2="36.17" y2="14.35"/><line class="cls-2" x1="37.15" y1="19.2" x2="37.15" y2="14.2"/><line class="cls-2" x1="33.02" y1="18.89" x2="33.02" y2="13.93"/><line class="cls-1" x1="33.02" y1="18.89" x2="33.02" y2="18.93"/><line class="cls-2" x1="59.27" y1="13" x2="59.27" y2="19.23"/><line class="cls-2" x1="61.22" y1="13.03" x2="61.22" y2="19.08"/><line class="cls-2" x1="58.07" y1="19.38" x2="58.07" y2="12.95"/><line class="cls-2" x1="57.27" y1="19.45" x2="57.27" y2="12.98"/><line class="cls-2" x1="26.62" y1="52.86" x2="26.62" y2="58.46"/><line class="cls-2" x1="27.35" y1="52.89" x2="27.35" y2="58.56"/><line class="cls-2" x1="28.19" y1="53.01" x2="28.19" y2="58.54"/><line class="cls-2" x1="29.17" y1="52.86" x2="29.17" y2="58.54"/><line class="cls-2" x1="25.05" y1="52.59" x2="25.05" y2="58.46"/><line class="cls-2" x1="31.05" y1="53.78" x2="31.05" y2="58.19"/><line class="cls-2" x1="9.07" y1="53.07" x2="9.07" y2="58.25"/><line class="cls-2" x1="10.9" y1="52.73" x2="10.9" y2="58.18"/><line class="cls-2" x1="15.97" y1="52.38" x2="15.97" y2="58.18"/><line class="cls-2" x1="19.05" y1="52.4" x2="19.05" y2="58.72"/><line class="cls-1" x1="19.05" y1="58.79" x2="19.05" y2="58.72"/><line class="cls-1" x1="17.77" y1="58.68" x2="17.77" y2="58.79"/><line class="cls-2" x1="17.77" y1="58.68" x2="17.77" y2="52.88"/><line class="cls-2" x1="5.44" y1="53.3" x2="5.44" y2="57.71"/><line class="cls-2" x1="8.52" y1="52.97" x2="8.52" y2="57.98"/><line class="cls-2" x1="7.24" y1="53.1" x2="7.24" y2="57.98"/><line class="cls-2" x1="13.35" y1="53.07" x2="13.35" y2="58.18"/><line class="cls-2" x1="22.94" y1="52.34" x2="22.94" y2="58.75"/><line class="cls-2" x1="21.37" y1="52.41" x2="21.37" y2="58.67"/><line class="cls-2" x1="22.35" y1="58.75" x2="22.35" y2="52.26"/><line class="cls-2" x1="41.02" y1="53.58" x2="41.02" y2="58.01"/><line class="cls-2" x1="43.85" y1="52.56" x2="43.85" y2="57.94"/><line class="cls-2" x1="39.49" y1="53.43" x2="39.49" y2="58.63"/><line class="cls-2" x1="37.22" y1="53.31" x2="37.22" y2="58.48"/><line class="cls-2" x1="49.42" y1="53.36" x2="49.42" y2="57.59"/><line class="cls-2" x1="48.74" y1="52.75" x2="48.74" y2="57.89"/><line class="cls-2" x1="47.89" y1="52.77" x2="47.89" y2="57.82"/><line class="cls-2" x1="47.16" y1="52.7" x2="47.16" y2="58.09"/><line class="cls-2" x1="45.3" y1="52.55" x2="45.3" y2="57.94"/><line class="cls-2" x1="51.97" y1="53.04" x2="51.97" y2="58.12"/><line class="cls-2" x1="53.74" y1="53.07" x2="53.74" y2="58.12"/><line class="cls-2" x1="50.27" y1="53.27" x2="50.27" y2="58.04"/><line class="cls-2" x1="2.72" y1="52.72" x2="2.72" y2="57.65"/><line class="cls-2" x1="1.92" y1="52.75" x2="1.92" y2="57.57"/><line class="cls-2" x1="1.05" y1="52.77" x2="1.05" y2="57.57"/><line class="cls-2" x1="0.19" y1="53.14" x2="0.19" y2="57.84"/><line class="cls-2" x1="3.62" y1="52.95" x2="3.62" y2="57.72"/><line class="cls-2" x1="33.6" y1="53.48" x2="33.6" y2="58.48"/><line class="cls-2" x1="34.42" y1="53.9" x2="34.42" y2="58.4"/><line class="cls-2" x1="35.17" y1="53.28" x2="35.17" y2="58.4"/><line class="cls-2" x1="36.15" y1="53.13" x2="36.15" y2="58.48"/><line class="cls-2" x1="32.02" y1="53.55" x2="32.02" y2="58.55"/><line class="cls-2" x1="58.27" y1="52.63" x2="58.27" y2="57.82"/><line class="cls-2" x1="60.22" y1="52.65" x2="60.22" y2="57.67"/><line class="cls-2" x1="57.07" y1="52.92" x2="57.07" y2="57.97"/><line class="cls-2" x1="56.27" y1="52.95" x2="56.27" y2="58.04"/><line class="cls-2" x1="27.62" y1="44.82" x2="27.62" y2="39.91"/><line class="cls-2" x1="28.47" y1="44.84" x2="28.47" y2="39.93"/><line class="cls-2" x1="29.14" y1="44.99" x2="29.14" y2="40.01"/><line class="cls-2" x1="30.17" y1="44.89" x2="30.17" y2="39.91"/><line class="cls-2" x1="26.05" y1="44.82" x2="26.05" y2="39.98"/><line class="cls-2" x1="32.05" y1="40.13" x2="32.05" y2="44.55"/><line class="cls-2" x1="10.35" y1="41.5" x2="10.35" y2="44.95"/><line class="cls-2" x1="11.9" y1="41.5" x2="11.9" y2="44.87"/><line class="cls-1" x1="16.97" y1="45.13" x2="16.97" y2="45.22"/><line class="cls-2" x1="16.97" y1="40.81" x2="16.97" y2="45.13"/><line class="cls-2" x1="20.05" y1="40.13" x2="20.05" y2="44.8"/><line class="cls-2" x1="18.77" y1="45.15" x2="18.77" y2="40.61"/><line class="cls-2" x1="6.44" y1="45.79" x2="6.44" y2="41.4"/><line class="cls-1" x1="6.44" y1="41.4" x2="6.44" y2="41.38"/><line class="cls-2" x1="9.52" y1="45.02" x2="9.52" y2="41.39"/><line class="cls-2" x1="8.24" y1="41.53" x2="8.24" y2="45.72"/><line class="cls-2" x1="14.35" y1="44.87" x2="14.35" y2="41"/><line class="cls-1" x1="14.35" y1="41" x2="14.35" y2="40.81"/><line class="cls-2" x1="23.94" y1="45.1" x2="23.94" y2="40.07"/><line class="cls-2" x1="22.37" y1="45.02" x2="22.37" y2="40.15"/><line class="cls-2" x1="23.35" y1="45.1" x2="23.35" y2="40"/><line class="cls-2" x1="42.02" y1="40.63" x2="42.02" y2="45.06"/><line class="cls-2" x1="44.85" y1="40.65" x2="44.85" y2="44.64"/><line class="cls-2" x1="40.49" y1="40.48" x2="40.49" y2="44.98"/><line class="cls-2" x1="38.22" y1="40.36" x2="38.22" y2="45.18"/><line class="cls-2" x1="50.57" y1="40.88" x2="50.57" y2="45.01"/><line class="cls-2" x1="49.74" y1="40.83" x2="49.74" y2="44.94"/><line class="cls-2" x1="48.96" y1="40.68" x2="48.96" y2="44.68"/><line class="cls-2" x1="48.08" y1="40.45" x2="48.08" y2="44.8"/><line class="cls-2" x1="46.3" y1="40.28" x2="46.3" y2="44.64"/><line class="cls-2" x1="52.97" y1="41.12" x2="52.97" y2="45.51"/><line class="cls-2" x1="54.74" y1="41.15" x2="54.74" y2="45.51"/><line class="cls-2" x1="51.27" y1="41" x2="51.27" y2="45.09"/><line class="cls-2" x1="3.72" y1="45.73" x2="3.72" y2="41.31"/><line class="cls-1" x1="3.72" y1="41.31" x2="3.72" y2="41.15"/><line class="cls-1" x1="2.92" y1="41.27" x2="2.92" y2="41.18"/><line class="cls-2" x1="2.92" y1="45.65" x2="2.92" y2="41.27"/><line class="cls-2" x1="2.05" y1="41.25" x2="2.05" y2="45.65"/><line class="cls-1" x1="2.05" y1="41.25" x2="2.05" y2="41.2"/><line class="cls-1" x1="1.19" y1="45.92" x2="1.19" y2="45.87"/><line class="cls-2" x1="1.19" y1="45.87" x2="1.19" y2="41.57"/><line class="cls-2" x1="0.12" y1="45.84" x2="0.12" y2="41.5"/><line class="cls-2" x1="4.62" y1="41.38" x2="4.62" y2="45.8"/><line class="cls-2" x1="34.6" y1="39.83" x2="34.6" y2="44.83"/><line class="cls-2" x1="36.17" y1="45.1" x2="36.17" y2="40.33"/><line class="cls-2" x1="37.15" y1="40.18" x2="37.15" y2="45.18"/><line class="cls-2" x1="33.02" y1="39.91" x2="33.02" y2="44.91"/><line class="cls-2" x1="59.27" y1="41.29" x2="59.27" y2="45.21"/><line class="cls-1" x1="59.27" y1="41.05" x2="59.27" y2="41.29"/><line class="cls-1" x1="61.22" y1="41.3" x2="61.22" y2="41.08"/><line class="cls-2" x1="61.22" y1="41.3" x2="61.22" y2="45.06"/><line class="cls-2" x1="58.07" y1="41.2" x2="58.07" y2="45.36"/><line class="cls-1" x1="58.07" y1="41" x2="58.07" y2="41.2"/><line class="cls-1" x1="57.27" y1="41.03" x2="57.27" y2="41.1"/><line class="cls-2" x1="57.27" y1="41.1" x2="57.27" y2="45.43"/><rect class="cls-3" x="-3.45" y="10.2" width="65.24" height="65.24"/><rect class="cls-3" width="65.25" height="65.25"/></svg>