<svg id="Layer_1" data-name="Layer 1" xmlns="http://www.w3.org/2000/svg" width="85.88" height="85.88" viewBox="0 0 85.88 85.88"><defs><style>.cls-1,.cls-2,.cls-3{fill:none;}.cls-2,.cls-3{stroke:#000;}.cls-2{stroke-linecap:round;stroke-width:0.7px;}.cls-3{stroke-width:0.3px;}</style></defs><title>Artboard 37</title><rect class="cls-1" x="82.79" y="-68.16" width="85.88" height="85.88"/><line class="cls-2" x1="84.16" y1="1.55" x2="84.16" y2="1.55"/><line class="cls-2" x1="83.91" y1="9.8" x2="83.91" y2="9.8"/><line class="cls-3" x1="84.57" y1="7.56" x2="87.45" y2="9.56"/><line class="cls-3" x1="84.95" y1="13.31" x2="83.32" y2="16.31"/><rect class="cls-1" x="82.79" y="17.71" width="85.88" height="85.88"/><line class="cls-2" x1="85.29" y1="65.9" x2="85.29" y2="65.9"/><line class="cls-2" x1="83.91" y1="79.68" x2="83.91" y2="79.68"/><line class="cls-2" x1="83.66" y1="52.93" x2="83.66" y2="52.93"/><line class="cls-2" x1="84.16" y1="28.43" x2="84.16" y2="28.43"/><line class="cls-2" x1="84.09" y1="44.78" x2="84.09" y2="44.78"/><line class="cls-3" x1="85.54" y1="31.3" x2="86.66" y2="34.93"/><line class="cls-3" x1="87.29" y1="37.93" x2="84.29" y2="40.3"/><line class="cls-3" x1="84.54" y1="50.43" x2="87.41" y2="52.43"/><line class="cls-3" x1="84.91" y1="56.18" x2="83.29" y2="59.18"/><line class="cls-3" x1="83.16" y1="18.8" x2="86.41" y2="19.55"/><line class="cls-3" x1="85.57" y1="74.31" x2="86.7" y2="77.93"/><line class="cls-3" x1="87.32" y1="80.93" x2="84.32" y2="83.31"/><line class="cls-3" x1="83.2" y1="61.81" x2="86.45" y2="62.56"/><rect class="cls-1" x="-3.09" y="-68.16" width="85.88" height="85.88"/><line class="cls-2" x1="17.54" y1="3.3" x2="17.54" y2="3.3"/><line class="cls-2" x1="11.29" y1="4.05" x2="11.29" y2="4.05"/><line class="cls-2" x1="11.04" y1="11.3" x2="11.04" y2="11.3"/><line class="cls-2" x1="7.66" y1="17.23" x2="7.66" y2="17.23"/><line class="cls-2" x1="26.29" y1="13.55" x2="26.29" y2="13.55"/><line class="cls-2" x1="33.04" y1="11.8" x2="33.04" y2="11.8"/><line class="cls-2" x1="33.29" y1="5.55" x2="33.29" y2="5.55"/><line class="cls-2" x1="76.79" y1="5.3" x2="76.79" y2="5.3"/><line class="cls-2" x1="71.04" y1="7.55" x2="71.04" y2="7.55"/><line class="cls-2" x1="65.54" y1="4.8" x2="65.54" y2="4.8"/><line class="cls-2" x1="46.29" y1="6.05" x2="46.29" y2="6.05"/><line class="cls-2" x1="38.54" y1="8.05" x2="38.54" y2="8.05"/><line class="cls-2" x1="23.79" y1="2.55" x2="23.79" y2="2.55"/><line class="cls-2" x1="15.79" y1="10.05" x2="15.79" y2="10.05"/><line class="cls-2" x1="44.6" y1="15.99" x2="44.6" y2="15.99"/><line class="cls-2" x1="72.29" y1="2.05" x2="72.29" y2="2.05"/><line class="cls-2" x1="76.54" y1="12.05" x2="76.54" y2="12.05"/><line class="cls-2" x1="51.29" y1="12.55" x2="51.29" y2="12.55"/><line class="cls-2" x1="44.29" y1="11.3" x2="44.29" y2="11.3"/><line class="cls-2" x1="20.04" y1="10.3" x2="20.04" y2="10.3"/><line class="cls-2" x1="1.97" y1="14.89" x2="1.97" y2="14.89"/><line class="cls-2" x1="3.54" y1="5.05" x2="3.54" y2="5.05"/><line class="cls-2" x1="28.54" y1="2.05" x2="28.54" y2="2.05"/><line class="cls-2" x1="40.54" y1="2.55" x2="40.54" y2="2.55"/><line class="cls-2" x1="47.79" y1="1.8" x2="47.79" y2="1.8"/><line class="cls-2" x1="63.97" y1="9.57" x2="63.97" y2="9.57"/><line class="cls-2" x1="68.37" y1="13.97" x2="68.37" y2="13.97"/><line class="cls-2" x1="59.45" y1="16.55" x2="59.45" y2="16.55"/><line class="cls-2" x1="58.54" y1="7.3" x2="58.54" y2="7.3"/><line class="cls-2" x1="53.54" y1="4.8" x2="53.54" y2="4.8"/><line class="cls-3" x1="38.95" y1="4.43" x2="36.2" y2="6.06"/><line class="cls-3" x1="34.45" y1="1.68" x2="30.95" y2="1.18"/><line class="cls-3" x1="35.82" y1="10.68" x2="39.45" y2="10.93"/><line class="cls-3" x1="35.2" y1="14.19" x2="36.45" y2="17.19"/><line class="cls-3" x1="1.45" y1="0.72" x2="1.08" y2="4.34"/><line class="cls-3" x1="-1.3" y1="7.56" x2="1.57" y2="9.56"/><line class="cls-3" x1="5.53" y1="17.54" x2="4.4" y2="14.04"/><line class="cls-3" x1="10.55" y1="15.74" x2="13.67" y2="13.62"/><line class="cls-3" x1="5.57" y1="9.68" x2="8.95" y2="9.06"/><line class="cls-3" x1="9.57" y1="2.43" x2="6.91" y2="5.09"/><line class="cls-3" x1="26.95" y1="4.16" x2="24.82" y2="7.03"/><line class="cls-3" x1="31.95" y1="9.56" x2="30.45" y2="6.31"/><line class="cls-3" x1="28.47" y1="16.37" x2="31.22" y2="13.24"/><line class="cls-3" x1="27.32" y1="11.03" x2="23.32" y2="11.03"/><line class="cls-3" x1="23.42" y1="16.74" x2="21.67" y2="13.74"/><line class="cls-3" x1="16.69" y1="15.42" x2="17.81" y2="12.29"/><line class="cls-3" x1="17.3" y1="6.29" x2="20.55" y2="7.66"/><line class="cls-3" x1="20.94" y1="4.1" x2="22.21" y2="0.57"/><line class="cls-3" x1="16.82" y1="-0.07" x2="13.7" y2="2.06"/><line class="cls-3" x1="11.95" y1="5.93" x2="14.32" y2="9.06"/><line class="cls-3" x1="82" y1="4.4" x2="79.25" y2="6.02"/><line class="cls-3" x1="77.5" y1="1.65" x2="74" y2="1.15"/><line class="cls-3" x1="78.88" y1="10.65" x2="82.5" y2="10.9"/><line class="cls-3" x1="78.47" y1="13.99" x2="79.72" y2="16.99"/><line class="cls-3" x1="44.51" y1="0.68" x2="44.14" y2="4.31"/><line class="cls-3" x1="41.75" y1="7.52" x2="44.63" y2="9.52"/><line class="cls-3" x1="42.13" y1="13.27" x2="40.5" y2="16.27"/><line class="cls-3" x1="48.63" y1="17.42" x2="47.5" y2="13.92"/><line class="cls-3" x1="53.44" y1="16.61" x2="56.57" y2="14.48"/><line class="cls-3" x1="48.63" y1="9.65" x2="52" y2="9.02"/><line class="cls-3" x1="51.78" y1="2.4" x2="49.03" y2="4.97"/><line class="cls-3" x1="70" y1="3.27" x2="67.88" y2="6.15"/><line class="cls-3" x1="75" y1="9.52" x2="73.5" y2="6.27"/><line class="cls-3" x1="71.46" y1="15.86" x2="74.21" y2="12.73"/><line class="cls-3" x1="70.15" y1="11.06" x2="66.61" y2="9.19"/><line class="cls-3" x1="66.46" y1="17.38" x2="64.71" y2="14.38"/><line class="cls-3" x1="60.25" y1="13.77" x2="61.38" y2="10.65"/><line class="cls-3" x1="60" y1="5.02" x2="63.25" y2="6.4"/><line class="cls-3" x1="62.8" y1="3.1" x2="66.15" y2="1.41"/><line class="cls-3" x1="59.88" y1="-0.1" x2="56.75" y2="2.02"/><line class="cls-3" x1="55.09" y1="7.11" x2="57.46" y2="10.23"/><rect class="cls-1" x="-3.09" y="17.71" width="85.88" height="85.88"/><line class="cls-2" x1="21.79" y1="28.18" x2="21.79" y2="28.18"/><line class="cls-2" x1="33.79" y1="31.93" x2="33.79" y2="31.93"/><line class="cls-2" x1="33.45" y1="22.76" x2="33.45" y2="22.76"/><line class="cls-2" x1="41.54" y1="26.43" x2="41.54" y2="26.43"/><line class="cls-2" x1="65.29" y1="28.43" x2="65.29" y2="28.43"/><line class="cls-2" x1="77.54" y1="31.93" x2="77.54" y2="31.93"/><line class="cls-2" x1="72.54" y1="22.93" x2="72.54" y2="22.93"/><line class="cls-2" x1="50.54" y1="19.18" x2="50.54" y2="19.18"/><line class="cls-2" x1="26.29" y1="23.09" x2="26.29" y2="23.09"/><line class="cls-2" x1="10.54" y1="28.93" x2="10.54" y2="28.93"/><line class="cls-2" x1="10.29" y1="43.18" x2="10.29" y2="43.18"/><line class="cls-2" x1="29.04" y1="45.43" x2="29.04" y2="45.43"/><line class="cls-2" x1="32.29" y1="54.43" x2="32.29" y2="54.43"/><line class="cls-2" x1="40.29" y1="44.43" x2="40.29" y2="44.43"/><line class="cls-2" x1="46.04" y1="54.18" x2="46.04" y2="54.18"/><line class="cls-2" x1="52.29" y1="42.68" x2="52.29" y2="42.68"/><line class="cls-2" x1="59.54" y1="46.68" x2="59.54" y2="46.68"/><line class="cls-2" x1="53.54" y1="46.93" x2="53.54" y2="46.93"/><line class="cls-2" x1="47.79" y1="47.43" x2="47.79" y2="47.43"/><line class="cls-2" x1="38.29" y1="50.68" x2="38.29" y2="50.68"/><line class="cls-2" x1="27.79" y1="50.93" x2="27.79" y2="50.93"/><line class="cls-2" x1="26.29" y1="57.43" x2="26.29" y2="57.43"/><line class="cls-2" x1="24.79" y1="42.93" x2="24.79" y2="42.93"/><line class="cls-2" x1="33.79" y1="40.93" x2="33.79" y2="40.93"/><line class="cls-2" x1="26.29" y1="33.18" x2="26.29" y2="33.18"/><line class="cls-2" x1="13.54" y1="55.43" x2="13.54" y2="55.43"/><line class="cls-2" x1="16.04" y1="60.68" x2="16.04" y2="60.68"/><line class="cls-2" x1="1.54" y1="57.93" x2="1.54" y2="57.93"/><line class="cls-2" x1="19.79" y1="72.43" x2="19.79" y2="72.43"/><line class="cls-2" x1="3.54" y1="80.68" x2="3.54" y2="80.68"/><line class="cls-2" x1="19.54" y1="79.18" x2="19.54" y2="79.18"/><line class="cls-2" x1="33.79" y1="82.68" x2="33.79" y2="82.68"/><line class="cls-2" x1="26.04" y1="74.18" x2="26.04" y2="74.18"/><line class="cls-2" x1="25.04" y1="68.43" x2="25.04" y2="68.43"/><line class="cls-2" x1="23.04" y1="62.93" x2="23.04" y2="62.93"/><line class="cls-2" x1="30.54" y1="60.68" x2="30.54" y2="60.68"/><line class="cls-2" x1="35.79" y1="68.68" x2="35.79" y2="68.68"/><line class="cls-2" x1="39.29" y1="56.93" x2="39.29" y2="56.93"/><line class="cls-2" x1="51.54" y1="55.18" x2="51.54" y2="55.18"/><line class="cls-2" x1="45.54" y1="59.93" x2="45.54" y2="59.93"/><line class="cls-2" x1="41.29" y1="64.43" x2="41.29" y2="64.43"/><line class="cls-2" x1="46.54" y1="67.68" x2="46.54" y2="67.68"/><line class="cls-2" x1="52.79" y1="67.68" x2="52.79" y2="67.68"/><line class="cls-2" x1="52.54" y1="61.68" x2="52.54" y2="61.68"/><line class="cls-2" x1="57.54" y1="58.68" x2="57.54" y2="58.68"/><line class="cls-2" x1="66.29" y1="61.68" x2="66.29" y2="61.68"/><line class="cls-2" x1="66.79" y1="50.18" x2="66.79" y2="50.18"/><line class="cls-2" x1="64.04" y1="36.68" x2="64.04" y2="36.68"/><line class="cls-2" x1="58.04" y1="33.68" x2="58.04" y2="33.68"/><line class="cls-2" x1="60.29" y1="23.18" x2="60.29" y2="23.18"/><line class="cls-2" x1="79.79" y1="26.18" x2="79.79" y2="26.18"/><line class="cls-2" x1="71.79" y1="28.93" x2="71.79" y2="28.93"/><line class="cls-2" x1="77.79" y1="38.18" x2="77.79" y2="38.18"/><line class="cls-2" x1="69.04" y1="33.68" x2="69.04" y2="33.68"/><line class="cls-2" x1="71.79" y1="39.93" x2="71.79" y2="39.93"/><line class="cls-2" x1="75.04" y1="46.93" x2="75.04" y2="46.93"/><line class="cls-2" x1="80.04" y1="68.93" x2="80.04" y2="68.93"/><line class="cls-2" x1="72.29" y1="71.18" x2="72.29" y2="71.18"/><line class="cls-2" x1="68.79" y1="67.18" x2="68.79" y2="67.18"/><line class="cls-2" x1="64.54" y1="70.68" x2="64.54" y2="70.68"/><line class="cls-2" x1="59.04" y1="70.43" x2="59.04" y2="70.43"/><line class="cls-2" x1="58.54" y1="76.18" x2="58.54" y2="76.18"/><line class="cls-2" x1="64.79" y1="78.93" x2="64.79" y2="78.93"/><line class="cls-2" x1="72.04" y1="80.93" x2="72.04" y2="80.93"/><line class="cls-2" x1="68.29" y1="73.93" x2="68.29" y2="73.93"/><line class="cls-2" x1="77.04" y1="84.18" x2="77.04" y2="84.18"/><line class="cls-2" x1="64.79" y1="85.18" x2="64.79" y2="85.18"/><line class="cls-2" x1="27.79" y1="81.43" x2="27.79" y2="81.43"/><line class="cls-2" x1="16.29" y1="83.18" x2="16.29" y2="83.18"/><line class="cls-2" x1="9.54" y1="79.43" x2="9.54" y2="79.43"/><line class="cls-2" x1="1.79" y1="74.43" x2="1.79" y2="74.43"/><line class="cls-2" x1="79.04" y1="80.18" x2="79.04" y2="80.18"/><line class="cls-2" x1="80.04" y1="61.43" x2="80.04" y2="61.43"/><line class="cls-2" x1="74.04" y1="60.93" x2="74.04" y2="60.93"/><line class="cls-2" x1="81.04" y1="18.93" x2="81.04" y2="18.93"/><line class="cls-2" x1="77.29" y1="22.43" x2="77.29" y2="22.43"/><line class="cls-2" x1="3.04" y1="53.18" x2="3.04" y2="53.18"/><line class="cls-2" x1="1.04" y1="83.93" x2="1.04" y2="83.93"/><line class="cls-2" x1="60.04" y1="53.18" x2="60.04" y2="53.18"/><line class="cls-2" x1="69.54" y1="55.68" x2="69.54" y2="55.68"/><line class="cls-2" x1="77.29" y1="51.18" x2="77.29" y2="51.18"/><line class="cls-2" x1="67.79" y1="44.18" x2="67.79" y2="44.18"/><line class="cls-2" x1="59.54" y1="40.43" x2="59.54" y2="40.43"/><line class="cls-2" x1="46.54" y1="36.68" x2="46.54" y2="36.68"/><line class="cls-2" x1="53.79" y1="29.18" x2="53.79" y2="29.18"/><line class="cls-2" x1="20.29" y1="36.18" x2="20.29" y2="36.18"/><line class="cls-2" x1="15.04" y1="32.43" x2="15.04" y2="32.43"/><line class="cls-2" x1="3.79" y1="36.43" x2="3.79" y2="36.43"/><line class="cls-2" x1="8.29" y1="55.43" x2="8.29" y2="55.43"/><line class="cls-2" x1="4.54" y1="47.68" x2="4.54" y2="47.68"/><line class="cls-2" x1="11.54" y1="47.43" x2="11.54" y2="47.43"/><line class="cls-2" x1="18.79" y1="53.18" x2="18.79" y2="53.18"/><line class="cls-2" x1="19.54" y1="43.68" x2="19.54" y2="43.68"/><line class="cls-2" x1="16.04" y1="46.68" x2="16.04" y2="46.68"/><line class="cls-2" x1="10.79" y1="36.93" x2="10.79" y2="36.93"/><line class="cls-2" x1="4.04" y1="25.68" x2="4.04" y2="25.68"/><line class="cls-2" x1="10.29" y1="23.93" x2="10.29" y2="23.93"/><line class="cls-2" x1="18.04" y1="22.18" x2="18.04" y2="22.18"/><line class="cls-2" x1="30.29" y1="65.68" x2="30.29" y2="65.68"/><line class="cls-2" x1="16.29" y1="65.18" x2="16.29" y2="65.18"/><line class="cls-2" x1="5.54" y1="62.18" x2="5.54" y2="62.18"/><line class="cls-2" x1="10.29" y1="71.93" x2="10.29" y2="71.93"/><line class="cls-2" x1="34.29" y1="74.68" x2="34.29" y2="74.68"/><line class="cls-2" x1="41.04" y1="68.93" x2="41.04" y2="68.93"/><line class="cls-2" x1="53.79" y1="72.18" x2="53.79" y2="72.18"/><line class="cls-2" x1="59.29" y1="65.18" x2="59.29" y2="65.18"/><line class="cls-2" x1="73.79" y1="66.18" x2="73.79" y2="66.18"/><line class="cls-2" x1="76.79" y1="76.18" x2="76.79" y2="76.18"/><line class="cls-2" x1="59.54" y1="82.68" x2="59.54" y2="82.68"/><line class="cls-2" x1="10.54" y1="84.93" x2="10.54" y2="84.93"/><line class="cls-2" x1="42.29" y1="79.43" x2="42.29" y2="79.43"/><line class="cls-2" x1="53.04" y1="84.93" x2="53.04" y2="84.93"/><line class="cls-2" x1="49.04" y1="77.18" x2="49.04" y2="77.18"/><line class="cls-2" x1="37.79" y1="61.18" x2="37.79" y2="61.18"/><line class="cls-2" x1="34.29" y1="47.68" x2="34.29" y2="47.68"/><line class="cls-2" x1="28.29" y1="38.93" x2="28.29" y2="38.93"/><line class="cls-2" x1="35.04" y1="37.18" x2="35.04" y2="37.18"/><line class="cls-2" x1="40.29" y1="32.68" x2="40.29" y2="32.68"/><line class="cls-2" x1="28.04" y1="28.93" x2="28.04" y2="28.93"/><line class="cls-2" x1="40.04" y1="21.18" x2="40.04" y2="21.18"/><line class="cls-3" x1="6.29" y1="25.68" x2="8.54" y2="28.3"/><line class="cls-3" x1="6.41" y1="21.93" x2="9.79" y2="22.05"/><line class="cls-3" x1="17.29" y1="25.12" x2="19.97" y2="27.16"/><line class="cls-3" x1="13.79" y1="24.05" x2="11.66" y2="26.8"/><line class="cls-3" x1="15.41" y1="21.3" x2="12.66" y2="19.55"/><line class="cls-3" x1="20.66" y1="18.55" x2="18.41" y2="20.05"/><line class="cls-3" x1="22.29" y1="21.93" x2="22.41" y2="25.05"/><line class="cls-3" x1="25.66" y1="19.36" x2="28.16" y2="20.61"/><line class="cls-3" x1="32.04" y1="20.99" x2="34.04" y2="18.62"/><line class="cls-3" x1="36.79" y1="21.93" x2="39.54" y2="24.18"/><line class="cls-3" x1="32.66" y1="25.55" x2="33.29" y2="28.55"/><line class="cls-3" x1="28.41" y1="25.55" x2="25.91" y2="28.18"/><line class="cls-3" x1="39.41" y1="28.55" x2="37.29" y2="31.18"/><line class="cls-3" x1="35.91" y1="34.93" x2="39.29" y2="36.05"/><line class="cls-3" x1="31.61" y1="33.27" x2="28.31" y2="30.79"/><line class="cls-3" x1="28.16" y1="35.68" x2="25.29" y2="37.05"/><line class="cls-3" x1="32.16" y1="36.8" x2="31.16" y2="40.18"/><line class="cls-3" x1="36.91" y1="39.93" x2="38.66" y2="42.68"/><line class="cls-3" x1="38.91" y1="47.3" x2="36.16" y2="48.93"/><line class="cls-3" x1="34.41" y1="44.55" x2="30.91" y2="44.05"/><line class="cls-3" x1="35.79" y1="53.55" x2="39.41" y2="53.8"/><line class="cls-3" x1="34.31" y1="55.54" x2="35.56" y2="58.54"/><line class="cls-3" x1="3.16" y1="22.31" x2="0.79" y2="24.81"/><line class="cls-3" x1="0.66" y1="27.55" x2="4.66" y2="28.68"/><line class="cls-3" x1="-0.34" y1="31.3" x2="0.79" y2="34.93"/><line class="cls-3" x1="1.41" y1="37.93" x2="-1.59" y2="40.3"/><line class="cls-3" x1="1.42" y1="43.59" x2="1.05" y2="47.21"/><line class="cls-3" x1="-1.34" y1="50.43" x2="1.54" y2="52.43"/><line class="cls-3" x1="-2.71" y1="18.8" x2="0.54" y2="19.55"/><line class="cls-3" x1="5.41" y1="59.8" x2="4.29" y2="56.3"/><line class="cls-3" x1="8.99" y1="60.22" x2="12.12" y2="58.09"/><line class="cls-3" x1="5.54" y1="52.55" x2="8.91" y2="51.93"/><line class="cls-3" x1="3.66" y1="41.43" x2="7.29" y2="41.55"/><line class="cls-3" x1="7.79" y1="32.05" x2="3.66" y2="32.3"/><line class="cls-3" x1="8.29" y1="35.18" x2="6.29" y2="38.18"/><line class="cls-3" x1="11.29" y1="38.8" x2="13.79" y2="40.8"/><line class="cls-3" x1="11.29" y1="31.18" x2="12.41" y2="34.93"/><line class="cls-3" x1="23.01" y1="52.68" x2="26.78" y2="53.75"/><line class="cls-3" x1="15.37" y1="29.46" x2="18.66" y2="30.8"/><line class="cls-3" x1="22.54" y1="30.8" x2="24.12" y2="34.07"/><line class="cls-3" x1="18.41" y1="34.8" x2="15.79" y2="37.55"/><line class="cls-3" x1="18.91" y1="39.8" x2="22.29" y2="39.3"/><line class="cls-3" x1="25.04" y1="40.68" x2="28.29" y2="42.68"/><line class="cls-3" x1="26.91" y1="46.18" x2="24.79" y2="49.05"/><line class="cls-3" x1="31.91" y1="52.43" x2="30.41" y2="49.18"/><line class="cls-3" x1="28.48" y1="59.47" x2="31.23" y2="56.34"/><line class="cls-3" x1="23.29" y1="58.68" x2="21.54" y2="55.68"/><line class="cls-3" x1="17.12" y1="58.56" x2="18.24" y2="55.44"/><line class="cls-3" x1="16.91" y1="49.34" x2="20.16" y2="50.72"/><line class="cls-3" x1="20.78" y1="47.52" x2="22.08" y2="44"/><line class="cls-3" x1="16.79" y1="42.8" x2="13.66" y2="44.93"/><line class="cls-3" x1="12.08" y1="49.97" x2="14.45" y2="53.09"/><line class="cls-3" x1="49.32" y1="25.68" x2="51.57" y2="28.3"/><line class="cls-3" x1="49.45" y1="21.93" x2="52.82" y2="22.05"/><line class="cls-3" x1="60.32" y1="25.12" x2="63.01" y2="27.16"/><line class="cls-3" x1="56.82" y1="24.05" x2="54.7" y2="26.8"/><line class="cls-3" x1="58.45" y1="21.3" x2="55.7" y2="19.55"/><line class="cls-3" x1="63.7" y1="18.55" x2="61.45" y2="20.05"/><line class="cls-3" x1="65.32" y1="21.93" x2="65.45" y2="25.05"/><line class="cls-3" x1="68.7" y1="19.36" x2="71.2" y2="20.61"/><line class="cls-3" x1="75.07" y1="20.99" x2="77.07" y2="18.62"/><line class="cls-3" x1="79.82" y1="21.93" x2="82.57" y2="24.18"/><line class="cls-3" x1="75.7" y1="25.55" x2="76.32" y2="28.55"/><line class="cls-3" x1="71.45" y1="25.55" x2="68.95" y2="28.18"/><line class="cls-3" x1="82.45" y1="28.55" x2="80.32" y2="31.18"/><line class="cls-3" x1="78.95" y1="34.93" x2="82.32" y2="36.05"/><line class="cls-3" x1="75.07" y1="32.18" x2="70.95" y2="32.05"/><line class="cls-3" x1="71.2" y1="35.68" x2="68.32" y2="37.05"/><line class="cls-3" x1="75.2" y1="36.8" x2="74.2" y2="40.18"/><line class="cls-3" x1="79.95" y1="39.93" x2="81.7" y2="42.68"/><line class="cls-3" x1="81.95" y1="47.3" x2="79.2" y2="48.93"/><line class="cls-3" x1="77.45" y1="44.55" x2="73.95" y2="44.05"/><line class="cls-3" x1="78.82" y1="53.55" x2="82.45" y2="53.8"/><line class="cls-3" x1="77.35" y1="55.54" x2="78.6" y2="58.54"/><line class="cls-3" x1="46.2" y1="21.18" x2="43.82" y2="23.68"/><line class="cls-3" x1="43.7" y1="27.55" x2="47.7" y2="28.68"/><line class="cls-3" x1="42.7" y1="31.3" x2="43.82" y2="34.93"/><line class="cls-3" x1="44.45" y1="37.93" x2="41.45" y2="40.3"/><line class="cls-3" x1="43.89" y1="45" x2="45.58" y2="48.23"/><line class="cls-3" x1="41.7" y1="50.43" x2="44.57" y2="52.43"/><line class="cls-3" x1="43.78" y1="56.18" x2="42.15" y2="59.18"/><line class="cls-3" x1="40.32" y1="18.8" x2="43.57" y2="19.55"/><line class="cls-3" x1="49.3" y1="61.22" x2="48.17" y2="57.72"/><line class="cls-3" x1="53.2" y1="57.93" x2="56.32" y2="55.8"/><line class="cls-3" x1="48.57" y1="52.55" x2="51.95" y2="51.93"/><line class="cls-3" x1="51.44" y1="45.3" x2="50.44" y2="48.93"/><line class="cls-3" x1="46.86" y1="42.3" x2="50.21" y2="40.89"/><line class="cls-3" x1="50.82" y1="32.05" x2="46.7" y2="32.3"/><line class="cls-3" x1="51.32" y1="35.18" x2="49.32" y2="38.18"/><line class="cls-3" x1="54.32" y1="38.8" x2="56.82" y2="40.8"/><line class="cls-3" x1="54.32" y1="31.18" x2="55.45" y2="34.93"/><line class="cls-3" x1="58.24" y1="30.97" x2="61.69" y2="30.08"/><line class="cls-3" x1="66.27" y1="31.04" x2="64.43" y2="34.18"/><line class="cls-3" x1="61.45" y1="34.8" x2="58.82" y2="37.55"/><line class="cls-3" x1="61.95" y1="39.8" x2="65.32" y2="39.3"/><line class="cls-3" x1="68.07" y1="40.68" x2="71.32" y2="42.68"/><line class="cls-3" x1="71.14" y1="46.45" x2="69.01" y2="49.32"/><line class="cls-3" x1="74.95" y1="52.43" x2="73.45" y2="49.18"/><line class="cls-3" x1="71.8" y1="59.19" x2="74.55" y2="56.06"/><line class="cls-3" x1="70.32" y1="53.05" x2="66.32" y2="53.05"/><line class="cls-3" x1="66.32" y1="58.68" x2="64.57" y2="55.68"/><line class="cls-3" x1="60.29" y1="58.93" x2="61.41" y2="55.8"/><line class="cls-3" x1="61.29" y1="49.93" x2="64.54" y2="51.3"/><line class="cls-3" x1="5.84" y1="45.59" x2="9.09" y2="46.97"/><line class="cls-3" x1="65.4" y1="47.38" x2="63.7" y2="44.04"/><line class="cls-3" x1="59.82" y1="42.8" x2="56.7" y2="44.93"/><line class="cls-3" x1="54.95" y1="48.8" x2="57.32" y2="51.93"/><line class="cls-3" x1="6.32" y1="68.68" x2="8.57" y2="71.31"/><line class="cls-3" x1="6.45" y1="64.93" x2="9.82" y2="65.06"/><line class="cls-3" x1="17.32" y1="68.12" x2="20.01" y2="70.16"/><line class="cls-3" x1="13.82" y1="67.06" x2="11.7" y2="69.81"/><line class="cls-3" x1="15.45" y1="63.46" x2="12.7" y2="61.71"/><line class="cls-3" x1="20.7" y1="61.56" x2="18.45" y2="63.06"/><line class="cls-3" x1="23.45" y1="64.93" x2="21.82" y2="67.6"/><line class="cls-3" x1="25.7" y1="62.37" x2="28.2" y2="63.62"/><line class="cls-3" x1="32.07" y1="64" x2="34.07" y2="61.62"/><line class="cls-3" x1="36.82" y1="64.93" x2="39.57" y2="67.18"/><line class="cls-3" x1="32.7" y1="68.56" x2="33.32" y2="71.56"/><line class="cls-3" x1="28.45" y1="68.56" x2="25.95" y2="71.18"/><line class="cls-3" x1="39.45" y1="71.56" x2="37.32" y2="74.18"/><line class="cls-3" x1="35.95" y1="77.93" x2="39.32" y2="79.06"/><line class="cls-3" x1="31.99" y1="74.56" x2="28.03" y2="75.73"/><line class="cls-3" x1="28.2" y1="78.68" x2="25.32" y2="80.06"/><line class="cls-3" x1="32.2" y1="79.81" x2="31.2" y2="83.18"/><line class="cls-3" x1="36.95" y1="82.93" x2="38.7" y2="85.68"/><line class="cls-3" x1="3.2" y1="64.18" x2="0.82" y2="66.68"/><line class="cls-3" x1="0.7" y1="70.56" x2="4.7" y2="71.68"/><line class="cls-3" x1="-0.3" y1="74.31" x2="0.82" y2="77.93"/><line class="cls-3" x1="1.45" y1="80.93" x2="-1.55" y2="83.31"/><line class="cls-3" x1="-2.68" y1="61.81" x2="0.57" y2="62.56"/><line class="cls-3" x1="3.7" y1="85.57" x2="7.32" y2="85.69"/><line class="cls-3" x1="7.82" y1="75.06" x2="3.7" y2="75.31"/><line class="cls-3" x1="8.32" y1="78.18" x2="6.32" y2="81.18"/><line class="cls-3" x1="11.32" y1="81.81" x2="13.82" y2="83.81"/><line class="cls-3" x1="11.32" y1="74.18" x2="12.45" y2="77.93"/><line class="cls-3" x1="15.2" y1="73.18" x2="18.33" y2="74.85"/><line class="cls-3" x1="23.28" y1="74.04" x2="21.42" y2="77.16"/><line class="cls-3" x1="16.76" y1="76.87" x2="15.82" y2="80.56"/><line class="cls-3" x1="18.95" y1="82.81" x2="22.32" y2="82.31"/><line class="cls-3" x1="25.07" y1="83.68" x2="28.32" y2="85.68"/><line class="cls-3" x1="16.82" y1="85.81" x2="13.7" y2="87.93"/><line class="cls-3" x1="49.38" y1="68.65" x2="51.63" y2="71.27"/><line class="cls-3" x1="49.5" y1="64.9" x2="52.88" y2="65.02"/><line class="cls-3" x1="60.38" y1="68.09" x2="63.07" y2="70.13"/><line class="cls-3" x1="56.88" y1="67.02" x2="54.75" y2="69.77"/><line class="cls-3" x1="58.5" y1="63.14" x2="55.75" y2="61.39"/><line class="cls-3" x1="63.75" y1="61.52" x2="61.5" y2="63.02"/><line class="cls-3" x1="67.01" y1="65.29" x2="65.5" y2="68.02"/><line class="cls-3" x1="68.75" y1="62.33" x2="71.25" y2="63.58"/><line class="cls-3" x1="75.13" y1="63.97" x2="77.13" y2="61.59"/><line class="cls-3" x1="79.88" y1="64.9" x2="82.63" y2="67.15"/><line class="cls-3" x1="75.75" y1="68.52" x2="76.38" y2="71.52"/><line class="cls-3" x1="71.5" y1="68.52" x2="69" y2="71.15"/><line class="cls-3" x1="82.5" y1="71.52" x2="80.38" y2="74.15"/><line class="cls-3" x1="79" y1="77.9" x2="82.38" y2="79.02"/><line class="cls-3" x1="75.13" y1="75.15" x2="71" y2="75.02"/><line class="cls-3" x1="71.25" y1="78.65" x2="68.38" y2="80.02"/><line class="cls-3" x1="75.25" y1="79.77" x2="74.25" y2="83.15"/><line class="cls-3" x1="80" y1="82.9" x2="81.75" y2="85.65"/><line class="cls-3" x1="46.25" y1="64.15" x2="43.88" y2="66.65"/><line class="cls-3" x1="43.75" y1="70.52" x2="47.75" y2="71.65"/><line class="cls-3" x1="42.75" y1="74.27" x2="43.88" y2="77.9"/><line class="cls-3" x1="44.5" y1="80.9" x2="41.5" y2="83.27"/><line class="cls-3" x1="40.38" y1="61.77" x2="43.63" y2="62.52"/><line class="cls-3" x1="46.75" y1="84.4" x2="50.38" y2="84.52"/><line class="cls-3" x1="50.88" y1="75.02" x2="46.75" y2="75.27"/><line class="cls-3" x1="51.38" y1="78.15" x2="49.38" y2="81.15"/><line class="cls-3" x1="54.38" y1="81.77" x2="56.88" y2="83.77"/><line class="cls-3" x1="54.38" y1="74.15" x2="55.5" y2="77.9"/><line class="cls-3" x1="58.25" y1="73.15" x2="61.75" y2="73.77"/><line class="cls-3" x1="65.28" y1="73.17" x2="66.32" y2="76.65"/><line class="cls-3" x1="61.5" y1="77.77" x2="58.88" y2="80.52"/><line class="cls-3" x1="62" y1="82.77" x2="65.38" y2="82.27"/><line class="cls-3" x1="68.13" y1="83.65" x2="71.38" y2="85.65"/><line class="cls-3" x1="59.88" y1="85.77" x2="56.75" y2="87.9"/><rect class="cls-1" width="85.88" height="85.88"/></svg>