<!-- Generator: Adobe Illustrator 22.1.0, SVG Export Plug-In  -->
<svg version="1.1"
     xmlns="http://www.w3.org/2000/svg" xmlns:xlink="http://www.w3.org/1999/xlink" xmlns:a="http://ns.adobe.com/AdobeSVGViewerExtensions/3.0/"
     x="0px" y="0px" width="54.8px" height="54.8px" viewBox="0 0 54.8 54.8" style="enable-background:new 0 0 54.8 54.8;"
     xml:space="preserve">
<style type="text/css">
    .st0{clip-path:url(#SVGID_2_);fill:none;stroke:#000000;stroke-width:0.3;stroke-linecap:square;}
    .st1{clip-path:url(#SVGID_2_);fill:none;stroke:#000000;stroke-width:0.3;stroke-linejoin:round;}
    .st2{clip-path:url(#SVGID_4_);fill:none;stroke:#000000;stroke-width:0.3;stroke-linecap:square;}
    .st3{clip-path:url(#SVGID_4_);fill:none;stroke:#000000;stroke-width:0.3;stroke-linejoin:round;}
</style>
<defs>
</defs>
<g>
    <defs>
        <rect id="SVGID_1_" x="0.2" y="0.2" width="54.3" height="54.3"/>
    </defs>
    <clipPath id="SVGID_2_">
        <use xlink:href="#SVGID_1_"  style="overflow:visible;"/>
    </clipPath>
    <path class="st0" d="M41.1,0.4c0.2,0.1,0.4,0.1,0.6,0.2c5.9,1.5,8.6,5.6,10.1,10.2"/>
    <path class="st0" d="M40.2,0.2c0.2,0.1,0.6,0.1,0.8,0.2"/>
    <path class="st0" d="M52.4,12.2c-0.2-0.4-0.4-0.9-0.5-1.4"/>
    <path class="st0" d="M53.4,14c-0.3-0.5-0.7-1.1-1-1.8"/>
    <path class="st0" d="M53.4,14c0.2,0.3,0.4,0.6,0.6,0.8c0.2,0.2,0.4,0.4,0.5,0.6"/>
    <path class="st0" d="M51.3,18.2c0.5,0.6,1.1,1.2,1.8,1.7c0.4,0.3,0.9,0.5,1.4,0.8"/>
    <path class="st0" d="M32.4,0.2c0.2,0.1,0.4,0.3,0.6,0.4c2.4,1.7,5,3.3,7.6,4.2"/>
    <path class="st0" d="M46.9,9.5c-0.5-1-1-1.8-1.8-2.4"/>
    <path class="st0" d="M45.1,7.1c-1-0.9-2.3-1.5-4.4-2.2c-0.1,0-0.1,0-0.2-0.1"/>
    <path class="st0" d="M49.6,15.7c0.5,0.9,1,1.7,1.7,2.5"/>
    <path class="st0" d="M47.6,10.9c-0.2-0.5-0.4-0.9-0.6-1.3"/>
    <path class="st0" d="M49.6,15.7c-0.4-0.8-0.8-1.6-1.1-2.5c-0.3-0.9-0.6-1.7-0.9-2.4"/>
    <path class="st0" d="M4.3,22c-1.9-0.8-3.6-1.2-4.1-1.3"/>
    <path class="st0" d="M25,48.1c2.6,2.7,5.1,5,6.8,6.1c0.2,0.1,0.3,0.2,0.4,0.2c0.1,0.1,0.2,0.1,0.3,0.2"/>
    <path class="st0" d="M16.3,37.1c0.4,0.7,0.9,1.4,1.4,2.1"/>
    <path class="st0" d="M16.3,37.1c-1.5-2.3-2.7-4.6-3.3-6.6c0-0.1,0-0.1-0.1-0.2"/>
    <path class="st0" d="M25,48.1c-2-2.2-4.2-4.7-6.1-7.2"/>
    <path class="st0" d="M17.7,39.2c0.4,0.6,0.8,1.1,1.2,1.7"/>
    <path class="st0" d="M10.1,25.7c-0.9-0.9-2-1.7-3.1-2.4"/>
    <path class="st0" d="M13,30.3c-0.6-1.8-1.6-3.3-2.9-4.6"/>
    <path class="st0" d="M7.1,23.4c-0.9-0.6-1.9-1-2.8-1.4"/>
    <path class="st0" d="M18.4,30c-0.1-0.2-0.1-0.3-0.2-0.5c-2-5.5-5.3-10.1-10.8-11.2C7,18.2,6.7,18.1,6.4,18"/>
    <path class="st0" d="M40.3,54.5c-0.2-0.1-0.3-0.1-0.4-0.2"/>
    <path class="st0" d="M18.4,30c0.7,1.8,2.2,4.4,4.2,7.2"/>
    <path class="st0" d="M39.9,54.4c-0.2-0.1-0.5-0.3-0.7-0.4c-0.5-0.2-0.9-0.5-1.4-0.8"/>
    <path class="st0" d="M28.5,44.9c2.3,2.6,4.8,5.1,7.2,6.9"/>
    <path class="st0" d="M26.8,42.9c-0.7-0.8-1.4-1.7-2-2.5"/>
    <path class="st0" d="M26.8,42.9c0.6,0.7,1.1,1.4,1.7,2"/>
    <path class="st0" d="M22.5,37.2c0.7,1,1.5,2.1,2.3,3.2"/>
    <path class="st0" d="M35.7,51.8c0.7,0.5,1.4,1,2,1.4"/>
    <path class="st1" d="M6.4,18c-3.9-0.9-5.6-2.1-6-2.4c-0.1-0.1-0.1-0.1-0.1-0.1c0,0,0,0,0,0"/>
    <line class="st0" x1="3.7" y1="5.8" x2="3.8" y2="5.8"/>
    <line class="st0" x1="10.3" y1="0.6" x2="10.8" y2="0.2"/>
    <line class="st0" x1="10.3" y1="0.6" x2="3.8" y2="5.8"/>
    <line class="st0" x1="10.3" y1="0.6" x2="10.3" y2="0.5"/>
    <line class="st0" x1="14.9" y1="9.1" x2="14.8" y2="9.1"/>
    <line class="st0" x1="14.9" y1="9.1" x2="19.3" y2="5"/>
    <line class="st0" x1="19.3" y1="5" x2="10.3" y2="0.6"/>
    <line class="st0" x1="33.5" y1="16.9" x2="33.6" y2="12.6"/>
    <line class="st0" x1="26.1" y1="13.9" x2="23.7" y2="10.1"/>
    <line class="st0" x1="15.5" y1="9.5" x2="15.5" y2="9.5"/>
    <line class="st0" x1="29" y1="18.5" x2="26.1" y2="13.9"/>
    <line class="st0" x1="29" y1="18.5" x2="33.2" y2="17"/>
    <line class="st0" x1="33.5" y1="16.9" x2="33.2" y2="17"/>
    <line class="st0" x1="15.5" y1="9.5" x2="23.7" y2="10.1"/>
    <line class="st0" x1="26.1" y1="13.9" x2="21.5" y2="17"/>
    <line class="st0" x1="21.5" y1="17" x2="21.5" y2="17"/>
    <line class="st0" x1="26.1" y1="13.9" x2="26.1" y2="13.9"/>
    <line class="st0" x1="25" y1="7.3" x2="26.1" y2="5"/>
    <line class="st0" x1="25" y1="7.3" x2="23.7" y2="10.1"/>
    <line class="st0" x1="26.1" y1="5" x2="26.1" y2="5"/>
    <line class="st0" x1="25" y1="7.3" x2="21.4" y2="5.8"/>
    <line class="st0" x1="25" y1="7.3" x2="25" y2="7.4"/>
    <line class="st0" x1="19.3" y1="5" x2="19.7" y2="0.2"/>
    <line class="st0" x1="19.3" y1="5" x2="21.4" y2="5.8"/>
    <line class="st0" x1="36.6" y1="21.7" x2="33.5" y2="16.9"/>
    <polyline class="st0" points="36.6,21.7 36.8,22 40.1,24.4   "/>
    <line class="st0" x1="28.8" y1="24.7" x2="28.9" y2="23.1"/>
    <line class="st0" x1="29" y1="18.5" x2="28.9" y2="23.1"/>
    <line class="st0" x1="40.3" y1="44.5" x2="40.3" y2="44.4"/>
    <line class="st0" x1="40.3" y1="44.4" x2="40.4" y2="42"/>
    <line class="st0" x1="28.8" y1="24.7" x2="28.8" y2="26.2"/>
    <line class="st0" x1="29.7" y1="28.4" x2="28.8" y2="26.2"/>
    <line class="st0" x1="38" y1="34.9" x2="35.5" y2="30.8"/>
    <line class="st0" x1="38" y1="34.9" x2="40.5" y2="39.3"/>
    <line class="st0" x1="40.5" y1="39.3" x2="40.4" y2="42"/>
    <line class="st0" x1="30.4" y1="30.2" x2="29.7" y2="28.4"/>
    <line class="st0" x1="35.5" y1="30.8" x2="30.4" y2="30.2"/>
    <line class="st0" x1="28.8" y1="23.1" x2="28.9" y2="23.1"/>
    <polyline class="st0" points="36.6,21.7 36.5,21.9 28.9,23.1     "/>
    <line class="st0" x1="36.6" y1="21.7" x2="39.8" y2="18.5"/>
    <line class="st0" x1="37" y1="26.7" x2="39.6" y2="25.6"/>
    <line class="st0" x1="37" y1="26.7" x2="30.9" y2="26.3"/>
    <line class="st0" x1="30.9" y1="26.3" x2="28.8" y2="26.2"/>
    <line class="st0" x1="37" y1="26.7" x2="35.5" y2="30.8"/>
    <line class="st0" x1="32.8" y1="37.9" x2="26.9" y2="36.8"/>
    <line class="st0" x1="38" y1="34.9" x2="32.8" y2="37.9"/>
    <polyline class="st0" points="38,34.9 38,34.9 39.9,33.4     "/>
    <line class="st0" x1="28.7" y1="24.7" x2="22.9" y2="21.3"/>
    <line class="st0" x1="26.7" y1="30.5" x2="24.7" y2="30.7"/>
    <line class="st0" x1="30.4" y1="30.2" x2="30" y2="37.4"/>
    <line class="st0" x1="30.4" y1="30.2" x2="26.7" y2="30.5"/>
    <line class="st0" x1="47.4" y1="40.7" x2="49.6" y2="43.6"/>
    <line class="st0" x1="45.3" y1="37.9" x2="47.4" y2="40.7"/>
    <line class="st0" x1="45.3" y1="37.9" x2="40.5" y2="39.3"/>
    <line class="st0" x1="54.5" y1="42.6" x2="53.2" y2="43.4"/>
    <line class="st0" x1="49.6" y1="43.6" x2="53.2" y2="43.4"/>
    <line class="st0" x1="35.3" y1="40.7" x2="32.8" y2="37.9"/>
    <line class="st0" x1="35.3" y1="40.7" x2="38.8" y2="44.5"/>
    <line class="st0" x1="38.8" y1="44.5" x2="35.2" y2="45.4"/>
    <line class="st0" x1="49.7" y1="34.7" x2="45.3" y2="37.9"/>
    <line class="st0" x1="45.4" y1="34.9" x2="45.3" y2="37.9"/>
    <line class="st0" x1="54.5" y1="40.3" x2="49.5" y2="43.4"/>
    <line class="st0" x1="12" y1="1.4" x2="7.3" y2="6.2"/>
    <line class="st0" x1="7.2" y1="6.3" x2="7.3" y2="6.2"/>
    <line class="st0" x1="13.7" y1="2.3" x2="9.6" y2="6.7"/>
    <line class="st0" x1="9.6" y1="6.7" x2="9.5" y2="6.8"/>
    <line class="st0" x1="11.8" y1="7.5" x2="11.8" y2="7.5"/>
    <line class="st0" x1="11.8" y1="7.5" x2="15.4" y2="3.1"/>
    <line class="st0" x1="13.6" y1="8.3" x2="17" y2="3.9"/>
    <line class="st0" x1="13.6" y1="8.3" x2="13.6" y2="8.3"/>
    <line class="st0" x1="19.5" y1="2.7" x2="15.3" y2="0.2"/>
    <line class="st0" x1="18.6" y1="0.2" x2="19.6" y2="1"/>
    <line class="st0" x1="3.6" y1="0.2" x2="6.6" y2="3.5"/>
    <line class="st0" x1="6.3" y1="0.2" x2="7.9" y2="2.3"/>
    <line class="st0" x1="21.4" y1="5.8" x2="22" y2="0.2"/>
    <line class="st0" x1="21.4" y1="5.8" x2="21.4" y2="5.9"/>
    <polyline class="st0" points="15,51.8 11.9,53.7 10.7,54.6   "/>
    <line class="st0" x1="15" y1="51.8" x2="18.6" y2="54.5"/>
    <polyline class="st0" points="22,54.5 22.3,51.8 20,51.8     "/>
    <line class="st0" x1="20" y1="51.8" x2="19.7" y2="54.5"/>
    <line class="st0" x1="15.3" y1="54.5" x2="12.9" y2="53.1"/>
    <polyline class="st0" points="8.6,54.5 7.5,52.9 6.5,51.5    "/>
    <line class="st0" x1="5.6" y1="50.2" x2="9.7" y2="46.8"/>
    <line class="st0" x1="13" y1="48.4" x2="11.3" y2="47.5"/>
    <line class="st0" x1="9.7" y1="46.8" x2="11.3" y2="47.5"/>
    <line class="st0" x1="6.5" y1="51.5" x2="5.6" y2="50.2"/>
    <line class="st0" x1="15.9" y1="49.7" x2="13" y2="48.4"/>
    <line class="st0" x1="8.6" y1="0.2" x2="9.4" y2="1.3"/>
    <line class="st0" x1="24" y1="1.5" x2="23.4" y2="6.5"/>
    <line class="st0" x1="17.4" y1="6.9" x2="24.3" y2="8.7"/>
    <line class="st0" x1="18.6" y1="12" x2="24.7" y2="11.8"/>
    <line class="st0" x1="25.4" y1="14.3" x2="20.3" y2="14.5"/>
    <line class="st0" x1="20.3" y1="14.5" x2="20.3" y2="14.5"/>
    <line class="st0" x1="24.1" y1="15.4" x2="28.9" y2="21.2"/>
    <line class="st0" x1="27.9" y1="24.2" x2="22.1" y2="16.7"/>
    <line class="st0" x1="25.1" y1="12.3" x2="27.5" y2="7"/>
    <line class="st0" x1="26.8" y1="14.9" x2="28.4" y2="11.2"/>
    <line class="st0" x1="28.4" y1="11.2" x2="29.4" y2="9"/>
    <line class="st0" x1="27.7" y1="16.4" x2="33.5" y2="14.5"/>
    <line class="st0" x1="27.5" y1="13.3" x2="33.2" y2="12.3"/>
    <line class="st0" x1="28.4" y1="11.2" x2="31.4" y2="10.9"/>
    <line class="st0" x1="28.4" y1="11.2" x2="28.3" y2="11.2"/>
    <line class="st0" x1="31.2" y1="22.6" x2="31" y2="17.8"/>
    <line class="st0" x1="33.2" y1="17" x2="33.2" y2="17"/>
    <line class="st0" x1="33.2" y1="17" x2="33.6" y2="22.2"/>
    <line class="st0" x1="35.6" y1="20" x2="38.3" y2="16.5"/>
    <line class="st0" x1="34.5" y1="18.3" x2="36.5" y2="15.1"/>
    <line class="st0" x1="38.6" y1="23.2" x2="40.7" y2="20.9"/>
    <line class="st0" x1="39" y1="23.6" x2="29" y2="23.6"/>
    <line class="st0" x1="30.9" y1="26.3" x2="32" y2="30.3"/>
    <line class="st0" x1="30.9" y1="26.3" x2="30.9" y2="26.3"/>
    <line class="st0" x1="33" y1="26.5" x2="33.9" y2="30.5"/>
    <line class="st0" x1="35.9" y1="29.8" x2="35.1" y2="26.6"/>
    <line class="st0" x1="37.3" y1="33.6" x2="38.9" y2="32.1"/>
    <line class="st0" x1="36.2" y1="31.7" x2="38.8" y2="29.7"/>
    <line class="st0" x1="36.1" y1="29.3" x2="39.3" y2="27.3"/>
    <line class="st0" x1="29.7" y1="28.4" x2="29.7" y2="28.4"/>
    <line class="st0" x1="29.7" y1="28.4" x2="24.4" y2="29"/>
    <line class="st0" x1="29" y1="26.8" x2="23.9" y2="27.3"/>
    <line class="st0" x1="28.7" y1="24.7" x2="23.4" y2="25"/>
    <line class="st0" x1="28.8" y1="24.7" x2="39.8" y2="25.3"/>
    <line class="st0" x1="28.8" y1="24.7" x2="28.7" y2="24.7"/>
    <line class="st0" x1="25.7" y1="23" x2="23.1" y2="23.3"/>
    <line class="st0" x1="26.7" y1="30.5" x2="26.7" y2="30.5"/>
    <line class="st0" x1="26.7" y1="30.5" x2="26.3" y2="35.7"/>
    <line class="st0" x1="28" y1="37" x2="28.5" y2="30.4"/>
    <line class="st0" x1="32.2" y1="30.4" x2="31.7" y2="37.7"/>
    <line class="st0" x1="33.9" y1="30.7" x2="33.5" y2="37.4"/>
    <line class="st0" x1="35.5" y1="36" x2="35.8" y2="31.3"/>
    <line class="st0" x1="38.5" y1="36" x2="34" y2="39.1"/>
    <line class="st0" x1="39.4" y1="37.3" x2="35.3" y2="40.7"/>
    <line class="st0" x1="35.3" y1="40.7" x2="35.3" y2="40.7"/>
    <line class="st0" x1="36.7" y1="42.1" x2="40.4" y2="39.1"/>
    <line class="st0" x1="38" y1="43.6" x2="40.4" y2="42"/>
    <line class="st0" x1="40.4" y1="42" x2="40.4" y2="42"/>
    <line class="st0" x1="42.3" y1="44.2" x2="42.1" y2="39"/>
    <line class="st0" x1="43.9" y1="38.4" x2="44.4" y2="44"/>
    <line class="st0" x1="46.4" y1="43.9" x2="46.4" y2="43.9"/>
    <line class="st0" x1="46.4" y1="43.9" x2="45.9" y2="38.7"/>
    <line class="st0" x1="48.5" y1="42" x2="54.5" y2="37.9"/>
    <line class="st0" x1="47.4" y1="40.7" x2="54.5" y2="36.1"/>
    <line class="st0" x1="47.4" y1="40.7" x2="47.4" y2="40.7"/>
    <line class="st0" x1="1.7" y1="39.4" x2="1.5" y2="39.6"/>
    <line class="st0" x1="1.5" y1="39.6" x2="0.2" y2="40.3"/>
    <line class="st0" x1="1.4" y1="37.1" x2="0.2" y2="37.9"/>
    <line class="st0" x1="1.3" y1="42" x2="0.2" y2="42.6"/>
    <line class="st0" x1="0.2" y1="36.1" x2="0.6" y2="35.9"/>
    <line class="st0" x1="46.4" y1="39.4" x2="52.8" y2="34.9"/>
    <line class="st0" x1="48.1" y1="41.7" x2="48.2" y2="43.7"/>
    <line class="st0" x1="39.4" y1="33.8" x2="42.4" y2="38.6"/>
    <line class="st0" x1="42.1" y1="34.3" x2="44.4" y2="38.1"/>
    <line class="st0" x1="34.6" y1="40" x2="27.9" y2="38.7"/>
    <line class="st0" x1="36" y1="41.5" x2="29.4" y2="41"/>
    <line class="st0" x1="37.5" y1="43.3" x2="31.7" y2="43.4"/>
    <line class="st0" x1="35.2" y1="2" x2="34.7" y2="0.2"/>
    <line class="st0" x1="37.4" y1="3.3" x2="36.5" y2="0.2"/>
    <line class="st0" x1="38.9" y1="4.1" x2="38" y2="0.2"/>
    <line class="st0" x1="40.5" y1="4.8" x2="40.1" y2="1.5"/>
    <line class="st0" x1="39.9" y1="0.2" x2="40.1" y2="1.5"/>
    <line class="st0" x1="40.5" y1="4.8" x2="40.5" y2="4.8"/>
    <line class="st0" x1="43.5" y1="1.2" x2="40.1" y2="1.5"/>
    <line class="st0" x1="40.1" y1="1.5" x2="40.1" y2="1.5"/>
    <line class="st0" x1="40.4" y1="3.2" x2="45.9" y2="2.5"/>
    <line class="st0" x1="40.5" y1="4.5" x2="47.9" y2="4.1"/>
    <line class="st0" x1="44.3" y1="4.4" x2="43.4" y2="5.9"/>
    <line class="st0" x1="46.6" y1="4.2" x2="45.1" y2="7.1"/>
    <line class="st0" x1="45.1" y1="7.1" x2="45.1" y2="7.1"/>
    <line class="st0" x1="46.3" y1="8.4" x2="48.4" y2="4.5"/>
    <line class="st0" x1="46.9" y1="9.5" x2="49.5" y2="5.9"/>
    <line class="st0" x1="46.9" y1="9.5" x2="46.9" y2="9.5"/>
    <line class="st0" x1="48.4" y1="7.5" x2="50.4" y2="7.7"/>
    <line class="st0" x1="47.4" y1="9" x2="51.2" y2="9.2"/>
    <line class="st0" x1="47.6" y1="10.9" x2="51.9" y2="10.9"/>
    <line class="st0" x1="47.6" y1="10.9" x2="47.5" y2="10.9"/>
    <line class="st0" x1="52.4" y1="12.2" x2="52.4" y2="12.2"/>
    <line class="st0" x1="52.4" y1="12.2" x2="51.4" y2="12.3"/>
    <line class="st0" x1="48.3" y1="12.5" x2="51.4" y2="12.3"/>
    <line class="st0" x1="49.6" y1="15.7" x2="49.7" y2="12.4"/>
    <line class="st0" x1="49.6" y1="15.7" x2="49.6" y2="15.8"/>
    <line class="st0" x1="51.4" y1="12.2" x2="51.4" y2="12.3"/>
    <line class="st0" x1="51.3" y1="18.2" x2="51.3" y2="18.2"/>
    <line class="st0" x1="51.3" y1="18.2" x2="51.4" y2="12.3"/>
    <line class="st0" x1="53" y1="18.4" x2="52.9" y2="19.7"/>
    <line class="st0" x1="53.4" y1="14" x2="53.1" y2="16.8"/>
    <line class="st0" x1="53.4" y1="14" x2="53.4" y2="14"/>
    <line class="st0" x1="53.1" y1="16.8" x2="53" y2="18.4"/>
    <line class="st0" x1="53.1" y1="16.8" x2="53.1" y2="16.8"/>
    <line class="st0" x1="54.5" y1="16.9" x2="53.1" y2="16.8"/>
    <line class="st0" x1="53" y1="18.4" x2="54.5" y2="18.5"/>
    <line class="st0" x1="52.9" y1="18.4" x2="53" y2="18.4"/>
    <polyline class="st0" points="33.7,50.2 34,52.1 34.7,54.5   "/>
    <line class="st0" x1="35.7" y1="51.8" x2="35.7" y2="51.7"/>
    <polyline class="st0" points="35.7,51.8 35.8,52.1 36.5,54.5     "/>
    <line class="st0" x1="37.8" y1="53.2" x2="38.1" y2="54.5"/>
    <line class="st0" x1="37.8" y1="53.2" x2="37.8" y2="53.2"/>
    <line class="st0" x1="39.9" y1="54.4" x2="39.9" y2="54.5"/>
    <line class="st0" x1="39.9" y1="54.4" x2="39.9" y2="54.4"/>
    <line class="st0" x1="2.7" y1="17" x2="0.2" y2="16.9"/>
    <line class="st0" x1="2.7" y1="18.7" x2="0.2" y2="18.6"/>
    <line class="st0" x1="32" y1="54.2" x2="34.3" y2="53.4"/>
    <line class="st0" x1="30.4" y1="53" x2="33.9" y2="51.7"/>
    <line class="st0" x1="33.5" y1="50" x2="29" y2="51.9"/>
    <line class="st0" x1="29.6" y1="46.1" x2="32.5" y2="50.4"/>
    <line class="st0" x1="28.5" y1="44.9" x2="25.5" y2="48.5"/>
    <line class="st0" x1="28.5" y1="44.9" x2="28.5" y2="44.9"/>
    <line class="st0" x1="31" y1="51" x2="27.5" y2="46.2"/>
    <line class="st0" x1="29.3" y1="51.8" x2="26.4" y2="47.5"/>
    <line class="st0" x1="4.3" y1="22" x2="4.3" y2="22"/>
    <line class="st0" x1="4.5" y1="17.5" x2="4.3" y2="22"/>
    <line class="st0" x1="5.6" y1="22.5" x2="6.4" y2="18"/>
    <line class="st0" x1="6.4" y1="18" x2="6.4" y2="18"/>
    <line class="st0" x1="6.2" y1="19.5" x2="10.4" y2="19.4"/>
    <line class="st0" x1="5.9" y1="21.2" x2="13" y2="21.2"/>
    <line class="st0" x1="14.6" y1="23.3" x2="7.1" y2="23.4"/>
    <line class="st0" x1="14.6" y1="23.3" x2="14.9" y2="23.3"/>
    <line class="st0" x1="7.1" y1="23.4" x2="7" y2="23.4"/>
    <line class="st0" x1="10.1" y1="25.7" x2="9.8" y2="23.4"/>
    <line class="st0" x1="10.1" y1="25.7" x2="10.1" y2="25.7"/>
    <line class="st0" x1="13" y1="30.3" x2="13" y2="30.3"/>
    <line class="st0" x1="12.2" y1="23.4" x2="13" y2="30.3"/>
    <line class="st0" x1="14.8" y1="26.2" x2="15.2" y2="34.4"/>
    <line class="st0" x1="15.2" y1="35.1" x2="15.2" y2="34.4"/>
    <line class="st0" x1="14.6" y1="23.3" x2="14.8" y2="26.2"/>
    <line class="st0" x1="14.6" y1="23.3" x2="14.6" y2="23.3"/>
    <line class="st0" x1="14.8" y1="26.2" x2="17.3" y2="27.4"/>
    <line class="st0" x1="14.7" y1="26.2" x2="14.8" y2="26.2"/>
    <line class="st0" x1="14.9" y1="28.6" x2="18.4" y2="30"/>
    <line class="st0" x1="18.4" y1="30" x2="18.4" y2="30"/>
    <line class="st0" x1="20.4" y1="33.9" x2="15" y2="31.2"/>
    <line class="st0" x1="15.2" y1="34.4" x2="15.2" y2="34.4"/>
    <line class="st0" x1="22.5" y1="37.2" x2="18.5" y2="35.6"/>
    <line class="st0" x1="15.2" y1="34.4" x2="18.5" y2="35.6"/>
    <line class="st0" x1="22.5" y1="37.2" x2="22.5" y2="37.2"/>
    <line class="st0" x1="18.5" y1="35.6" x2="16.3" y2="37.1"/>
    <line class="st0" x1="18.5" y1="35.6" x2="18.5" y2="35.6"/>
    <line class="st0" x1="16.3" y1="37.1" x2="16.3" y2="37.1"/>
    <line class="st0" x1="17.7" y1="39.2" x2="17.7" y2="39.2"/>
    <line class="st0" x1="21.2" y1="36.7" x2="17.7" y2="39.2"/>
    <line class="st0" x1="18.9" y1="40.9" x2="18.9" y2="40.8"/>
    <line class="st0" x1="23" y1="38" x2="18.9" y2="40.8"/>
    <line class="st0" x1="20.3" y1="39.9" x2="20.7" y2="43"/>
    <line class="st0" x1="22.4" y1="38.4" x2="22.9" y2="45.7"/>
    <line class="st0" x1="24.8" y1="40.3" x2="24.8" y2="40.3"/>
    <line class="st0" x1="25" y1="48.1" x2="25" y2="48.1"/>
    <line class="st0" x1="25" y1="48.1" x2="24.8" y2="40.3"/>
    <line class="st0" x1="26.8" y1="42.9" x2="27.1" y2="46.5"/>
    <line class="st0" x1="26.8" y1="42.9" x2="26.8" y2="42.9"/>
    <path class="st0" d="M26.1,5c-0.9-1.4-1.8-2.9-2.4-4.6c0,0,0-0.1-0.1-0.1"/>
    <path class="st0" d="M26.1,5c6.2,9.1,16.7,11,14.3,18.6c-2.8,8.8-2.2,10,3.2,11c4.6,0.8,6.8-1,10.3,0.7c0.2,0.1,0.4,0.2,0.6,0.3"/>
    <path class="st0" d="M48.6,0.7c-0.2-0.2-0.5-0.3-0.7-0.5"/>
    <path class="st0" d="M54.5,4.5c-2.1-1-4.1-2.4-6-3.8"/>
    <path class="st0" d="M7.3,6.2c0.7,0.1,1.4,0.3,2.3,0.5"/>
    <path class="st0" d="M11.8,7.5C11,7.2,10.3,6.9,9.6,6.7"/>
    <path class="st0" d="M21.5,17c0.5,1.2,0.9,2.5,1.1,3.9l0.3,1.4c1,6.2,3,20.7,13.6,23.7c1.3,0.4,2.6,1.1,3.9,2.2"/>
    <path class="st0" d="M15.5,9.5c-0.2-0.2-0.4-0.3-0.7-0.4"/>
    <path class="st0" d="M14.9,9.1c-0.4-0.3-0.9-0.5-1.3-0.7"/>
    <path class="st0" d="M40.4,48.2c0.5,0.4,1,0.8,1.5,1.2"/>
    <path class="st0" d="M15.5,9.5c1.8,1.2,3.4,2.8,4.7,5"/>
    <path class="st0" d="M11.8,7.5C12.4,7.7,13,8,13.6,8.3"/>
    <path class="st0" d="M20.3,14.5c0.5,0.8,0.9,1.6,1.3,2.5"/>
    <path class="st0" d="M3.8,5.8C4.1,5.9,4.5,5.9,4.9,6c0,0,0.9,0,2.4,0.3"/>
    <path class="st0" d="M41.9,49.4c1.7,1.4,3.6,3.2,5.5,4.8c0.1,0.1,0.4,0.2,0.6,0.4"/>
    <path class="st0" d="M0.2,4.6c1.1,0.5,2.3,0.9,3.5,1.2"/>
    <path class="st0" d="M0.2,35.6c0.5,0.3,1,0.6,1.6,1c0,0,2.3,3.2,7.4,5.9s6.4,3.2,6.4,3.2c3,1.2,5.7,3.2,7.9,8.8"/>
    <line class="st0" x1="15" y1="51.8" x2="17.4" y2="46.7"/>
    <line class="st0" x1="1.5" y1="39.6" x2="1.4" y2="43"/>
    <line class="st0" x1="1.5" y1="39.6" x2="1.5" y2="36.4"/>
    <line class="st0" x1="1.4" y1="43.9" x2="1.4" y2="43"/>
    <line class="st0" x1="1.4" y1="43.9" x2="5.6" y2="50.2"/>
    <line class="st0" x1="2.7" y1="53.5" x2="5.6" y2="50.2"/>
    <line class="st0" x1="7.5" y1="41.5" x2="2.6" y2="45.4"/>
    <line class="st0" x1="1.5" y1="38.3" x2="3" y2="38"/>
    <line class="st0" x1="1.5" y1="40.1" x2="4.5" y2="39.4"/>
    <line class="st0" x1="1.5" y1="41.7" x2="6.6" y2="40.9"/>
    <line class="st0" x1="5.9" y1="42.8" x2="1.4" y2="43"/>
    <line class="st0" x1="1.4" y1="43" x2="1.4" y2="43"/>
    <line class="st0" x1="5" y1="43.5" x2="7" y2="44.9"/>
    <line class="st0" x1="9.7" y1="46.8" x2="11.6" y2="43.7"/>
    <line class="st0" x1="7" y1="44.9" x2="9.7" y2="46.8"/>
    <line class="st0" x1="6.7" y1="42.3" x2="10.6" y2="45.2"/>
    <line class="st0" x1="13" y1="44.5" x2="11.3" y2="47.5"/>
    <line class="st0" x1="11.3" y1="47.5" x2="11.3" y2="47.5"/>
    <line class="st0" x1="13" y1="48.4" x2="14.4" y2="45.2"/>
    <line class="st0" x1="13" y1="48.4" x2="13" y2="48.4"/>
    <line class="st0" x1="14.7" y1="49.1" x2="15.9" y2="45.9"/>
    <line class="st0" x1="5" y1="49.2" x2="8.3" y2="45.9"/>
    <line class="st0" x1="7" y1="44.9" x2="4.1" y2="47.8"/>
    <line class="st0" x1="7" y1="44.9" x2="7" y2="44.9"/>
    <line class="st0" x1="5.7" y1="44.1" x2="3.4" y2="46.5"/>
    <line class="st0" x1="12" y1="47.9" x2="8.1" y2="48.2"/>
    <path class="st0" d="M14,49c0,0-7.4,0.6-7.6,0.6"/>
    <line class="st0" x1="6.5" y1="51.5" x2="6.4" y2="51.5"/>
    <line class="st0" x1="6.5" y1="51.5" x2="15.4" y2="50.9"/>
    <line class="st0" x1="12.3" y1="53.4" x2="7.8" y2="53.4"/>
    <line class="st0" x1="16.2" y1="52.6" x2="19" y2="47.9"/>
    <line class="st0" x1="18.2" y1="49.2" x2="20.7" y2="49.5"/>
    <line class="st0" x1="16.7" y1="51.9" x2="20" y2="51.8"/>
    <line class="st0" x1="17.8" y1="53.9" x2="18.5" y2="51.9"/>
    <line class="st0" x1="0.9" y1="0.2" x2="4.9" y2="4.8"/>
    <line class="st0" x1="0.2" y1="2.7" x2="2.5" y2="5.3"/>
    <line class="st0" x1="54.5" y1="2.7" x2="52.2" y2="0.2"/>
    <polyline class="st0" points="54.5,53.8 54,53.2 51.2,50.2   "/>
    <line class="st0" x1="48.5" y1="49.9" x2="48.5" y2="49.9"/>
    <polyline class="st0" points="52.3,54.5 51.6,53.8 48.5,49.9     "/>
    <line class="st0" x1="2.7" y1="53.5" x2="3.6" y2="54.5"/>
    <polyline class="st0" points="4.2,51.9 5,52.9 6.3,54.5  "/>
    <line class="st0" x1="0.2" y1="53.8" x2="0.9" y2="54.5"/>
    <line class="st0" x1="46.4" y1="43.9" x2="49.6" y2="43.6"/>
    <line class="st0" x1="38.8" y1="44.5" x2="40.3" y2="44.4"/>
    <line class="st0" x1="38.8" y1="44.5" x2="38.3" y2="46.7"/>
    <line class="st0" x1="46.4" y1="43.9" x2="40.3" y2="44.4"/>
    <line class="st0" x1="41.9" y1="49.4" x2="48.5" y2="49.9"/>
    <line class="st0" x1="41.9" y1="49.4" x2="41.9" y2="49.4"/>
    <line class="st0" x1="48.5" y1="49.9" x2="53.2" y2="50.3"/>
    <line class="st0" x1="46.9" y1="49.9" x2="47.2" y2="53.9"/>
    <line class="st0" x1="45" y1="52" x2="44.9" y2="49.7"/>
    <line class="st0" x1="38.5" y1="45.8" x2="53.2" y2="45.6"/>
    <line class="st0" x1="40.4" y1="48.2" x2="53.2" y2="48.2"/>
    <line class="st0" x1="40.4" y1="48.2" x2="40.4" y2="48.2"/>
    <line class="st0" x1="1.4" y1="43.9" x2="0.2" y2="44.4"/>
    <line class="st0" x1="2.4" y1="45.4" x2="0.2" y2="46.5"/>
    <line class="st0" x1="4.5" y1="48.5" x2="3" y2="53.1"/>
    <line class="st0" x1="1.1" y1="52.1" x2="3.2" y2="46.7"/>
    <line class="st0" x1="0.2" y1="48.6" x2="1.2" y2="46"/>
    <line class="st0" x1="2.6" y1="53.5" x2="0.2" y2="51.5"/>
    <line class="st0" x1="53.2" y1="45" x2="54.5" y2="44.4"/>
    <line class="st0" x1="53.4" y1="47.1" x2="54.5" y2="46.5"/>
    <line class="st0" x1="53.8" y1="50.7" x2="54.5" y2="48.6"/>
    <line class="st0" x1="53.2" y1="45.6" x2="53.2" y2="45"/>
    <line class="st0" x1="54.5" y1="51.5" x2="53.2" y2="50.3"/>
    <line class="st0" x1="53.2" y1="45" x2="53.2" y2="43.4"/>
    <line class="st0" x1="53.2" y1="45.6" x2="53.2" y2="50.3"/>
    <line class="st0" x1="2.7" y1="16.9" x2="2.5" y2="21.3"/>
</g>
</svg>
