<svg id="Layer_1" data-name="Layer 1" xmlns="http://www.w3.org/2000/svg" width="54.76" height="54.76" viewBox="0 0 54.76 54.76"><defs><style>.cls-1,.cls-2,.cls-3{fill:none;}.cls-1,.cls-3{stroke:#000;stroke-width:0.3px;}.cls-1{stroke-linecap:square;}.cls-3{stroke-linejoin:round;}</style></defs><title>Artboard 37</title><path class="cls-1" d="M45.62-4.51a44.42,44.42,0,0,0,6.75,6.06l.36.23L53,2"/><polyline class="cls-1" points="35.54 -0.81 32.5 1.11 31.33 1.98"/><line class="cls-1" x1="35.54" y1="-0.81" x2="39.21" y2="1.97"/><polyline class="cls-1" points="42.56 1.98 42.87 -0.73 40.54 -0.73"/><line class="cls-1" x1="40.54" y1="-0.73" x2="40.28" y2="1.98"/><line class="cls-1" x1="35.92" y1="1.98" x2="33.46" y2="0.52"/><polyline class="cls-1" points="29.17 1.98 28.04 0.36 27.05 -1.08"/><polyline class="cls-1" points="54.31 -2.39 54.56 -0.5 55.27 1.98"/><line class="cls-1" x1="52.62" y1="1.67" x2="54.87" y2="0.86"/><line class="cls-1" x1="50.93" y1="0.48" x2="54.5" y2="-0.83"/><path class="cls-1" d="M20.79-17a11.83,11.83,0,0,1,1.58,1,22.69,22.69,0,0,0,7.44,5.87c5.12,2.69,6.44,3.25,6.44,3.25,3,1.24,5.69,3.21,7.93,8.81"/><line class="cls-1" x1="23.27" y1="0.92" x2="26.18" y2="-2.33"/><line class="cls-1" x1="32.87" y1="0.8" x2="28.37" y2="0.8"/><line class="cls-1" x1="36.75" y1="0.05" x2="39.56" y2="-4.7"/><line class="cls-1" x1="38.37" y1="1.3" x2="39.06" y2="-0.64"/><line class="cls-1" x1="23.27" y1="0.92" x2="24.21" y2="1.98"/><polyline class="cls-1" points="24.75 -0.64 25.54 0.32 26.85 1.98"/><line class="cls-1" x1="20.79" y1="1.25" x2="21.43" y2="1.98"/><line class="cls-1" x1="25.06" y1="-4.02" x2="23.56" y2="0.55"/><line class="cls-1" x1="23.18" y1="0.92" x2="20.79" y2="-1.12"/><rect class="cls-2" x="20.79" y="-52.35" width="54.33" height="54.33"/><path class="cls-1" d="M53,2c.17.13.44.26.61.38a29.67,29.67,0,0,0,7.55,4.21"/><path class="cls-1" d="M24.87,23.74a23.1,23.1,0,0,0-4.08-1.29"/><path class="cls-1" d="M45.62,49.82a43.88,43.88,0,0,0,6.75,6.06l.36.24c.08.06.21.13.31.19"/><path class="cls-1" d="M36.91,38.85c.44.7.91,1.39,1.4,2.09"/><path class="cls-1" d="M36.91,38.85a29.1,29.1,0,0,1-3.29-6.6l-.06-.19"/><path class="cls-1" d="M45.62,49.82a83.18,83.18,0,0,1-6.1-7.21"/><path class="cls-1" d="M38.31,40.94c.39.56.8,1.12,1.21,1.67"/><path class="cls-1" d="M30.68,27.49a16,16,0,0,0-3.05-2.36"/><path class="cls-1" d="M33.56,32.06a11.6,11.6,0,0,0-2.88-4.57"/><path class="cls-1" d="M27.63,25.13a21,21,0,0,0-2.76-1.39"/><path class="cls-1" d="M38.93,31.73q-.1-.26-.18-.48C36.75,25.75,33.5,21.13,28,20c-.38-.07-.73-.15-1.07-.23"/><path class="cls-1" d="M38.93,31.73a43.72,43.72,0,0,0,4.16,7.2"/><path class="cls-1" d="M49.1,46.66a51,51,0,0,0,7.22,6.91"/><path class="cls-1" d="M47.37,44.63c-.69-.84-1.36-1.69-2-2.53"/><path class="cls-1" d="M47.37,44.63c.56.68,1.14,1.36,1.73,2"/><path class="cls-1" d="M43.09,38.93c.7,1,1.47,2.09,2.28,3.17"/><path class="cls-3" d="M26.93,19.77c-3.89-.93-5.56-2.08-6-2.44a.54.54,0,0,1-.13-.14v0"/><line class="cls-1" x1="24.31" y1="7.57" x2="24.34" y2="7.54"/><line class="cls-1" x1="30.9" y1="2.33" x2="31.38" y2="2"/><line class="cls-1" x1="30.9" y1="2.33" x2="24.34" y2="7.54"/><line class="cls-1" x1="30.9" y1="2.33" x2="30.87" y2="2.32"/><line class="cls-1" x1="35.46" y1="10.82" x2="35.42" y2="10.86"/><line class="cls-1" x1="35.46" y1="10.82" x2="39.87" y2="6.73"/><line class="cls-1" x1="39.87" y1="6.73" x2="30.9" y2="2.33"/><line class="cls-1" x1="54.12" y1="18.65" x2="54.21" y2="14.4"/><line class="cls-1" x1="46.67" y1="15.68" x2="44.29" y2="11.9"/><line class="cls-1" x1="36.12" y1="11.26" x2="36.06" y2="11.25"/><line class="cls-1" x1="49.54" y1="20.23" x2="46.67" y2="15.68"/><line class="cls-1" x1="49.54" y1="20.23" x2="53.79" y2="18.76"/><line class="cls-1" x1="54.12" y1="18.65" x2="53.79" y2="18.76"/><line class="cls-1" x1="36.12" y1="11.26" x2="44.29" y2="11.9"/><line class="cls-1" x1="46.67" y1="15.68" x2="42.13" y2="18.75"/><line class="cls-1" x1="42.13" y1="18.75" x2="42.12" y2="18.75"/><line class="cls-1" x1="46.67" y1="15.68" x2="46.71" y2="15.65"/><line class="cls-1" x1="45.59" y1="9.12" x2="46.69" y2="6.76"/><line class="cls-1" x1="45.59" y1="9.12" x2="44.29" y2="11.9"/><line class="cls-1" x1="46.69" y1="6.76" x2="46.71" y2="6.73"/><line class="cls-1" x1="45.59" y1="9.12" x2="41.94" y2="7.59"/><line class="cls-1" x1="45.59" y1="9.12" x2="45.62" y2="9.13"/><line class="cls-1" x1="39.87" y1="6.73" x2="40.29" y2="1.98"/><line class="cls-1" x1="39.87" y1="6.73" x2="41.94" y2="7.59"/><line class="cls-1" x1="57.21" y1="23.48" x2="54.12" y2="18.65"/><line class="cls-1" x1="49.4" y1="26.49" x2="49.44" y2="24.89"/><line class="cls-1" x1="49.54" y1="20.23" x2="49.44" y2="24.89"/><line class="cls-1" x1="49.4" y1="26.49" x2="49.37" y2="27.98"/><line class="cls-1" x1="50.25" y1="30.19" x2="49.37" y2="27.98"/><line class="cls-1" x1="50.96" y1="31.98" x2="50.25" y2="30.19"/><line class="cls-1" x1="56.12" y1="32.57" x2="50.96" y2="31.98"/><line class="cls-1" x1="49.37" y1="24.9" x2="49.44" y2="24.89"/><polyline class="cls-1" points="57.21 23.48 57.04 23.65 49.44 24.89"/><line class="cls-1" x1="57.54" y1="28.48" x2="51.47" y2="28.11"/><line class="cls-1" x1="51.47" y1="28.11" x2="49.37" y2="27.98"/><line class="cls-1" x1="53.37" y1="39.65" x2="47.43" y2="38.57"/><line class="cls-1" x1="58.53" y1="36.66" x2="53.37" y2="39.65"/><line class="cls-1" x1="49.29" y1="26.48" x2="43.46" y2="23.07"/><line class="cls-1" x1="47.31" y1="32.31" x2="45.29" y2="32.48"/><line class="cls-1" x1="50.96" y1="31.98" x2="50.56" y2="39.13"/><line class="cls-1" x1="50.96" y1="31.98" x2="47.31" y2="32.31"/><line class="cls-1" x1="55.88" y1="42.44" x2="53.37" y2="39.65"/><line class="cls-1" x1="32.54" y1="3.15" x2="27.85" y2="8.01"/><line class="cls-1" x1="27.8" y1="8.06" x2="27.85" y2="8.01"/><line class="cls-1" x1="34.29" y1="4.07" x2="30.13" y2="8.51"/><line class="cls-1" x1="30.13" y1="8.51" x2="30.1" y2="8.54"/><line class="cls-1" x1="32.34" y1="9.26" x2="32.33" y2="9.27"/><line class="cls-1" x1="32.34" y1="9.26" x2="35.96" y2="4.9"/><line class="cls-1" x1="34.17" y1="10.09" x2="37.62" y2="5.65"/><line class="cls-1" x1="34.17" y1="10.09" x2="34.17" y2="10.09"/><line class="cls-1" x1="40.04" y1="4.48" x2="35.84" y2="2"/><line class="cls-1" x1="39.17" y1="1.98" x2="40.21" y2="2.73"/><line class="cls-1" x1="24.23" y1="1.98" x2="27.14" y2="5.27"/><line class="cls-1" x1="26.85" y1="1.98" x2="28.52" y2="4.11"/><line class="cls-1" x1="41.94" y1="7.59" x2="42.58" y2="1.98"/><line class="cls-1" x1="41.94" y1="7.59" x2="41.93" y2="7.63"/><polyline class="cls-1" points="35.54 53.52 32.5 55.44 31.33 56.32"/><line class="cls-1" x1="35.54" y1="53.52" x2="39.21" y2="56.31"/><polyline class="cls-1" points="42.56 56.31 42.87 53.61 40.54 53.61"/><line class="cls-1" x1="40.54" y1="53.61" x2="40.28" y2="56.31"/><line class="cls-1" x1="35.92" y1="56.31" x2="33.46" y2="54.86"/><polyline class="cls-1" points="29.17 56.32 28.04 54.69 27.05 53.25"/><line class="cls-1" x1="26.18" y1="52" x2="30.31" y2="48.57"/><line class="cls-1" x1="33.56" y1="50.13" x2="31.87" y2="49.32"/><line class="cls-1" x1="30.31" y1="48.57" x2="31.87" y2="49.32"/><line class="cls-1" x1="27.04" y1="53.25" x2="26.18" y2="52"/><line class="cls-1" x1="36.43" y1="51.5" x2="33.56" y2="50.13"/><line class="cls-1" x1="29.16" y1="2" x2="29.96" y2="3.07"/><line class="cls-1" x1="44.62" y1="3.23" x2="43.96" y2="8.32"/><line class="cls-1" x1="37.96" y1="8.65" x2="44.87" y2="10.48"/><line class="cls-1" x1="39.18" y1="13.82" x2="45.29" y2="13.57"/><line class="cls-1" x1="45.96" y1="16.07" x2="40.87" y2="16.25"/><line class="cls-1" x1="40.87" y1="16.25" x2="40.87" y2="16.25"/><line class="cls-1" x1="44.71" y1="17.15" x2="49.46" y2="22.98"/><line class="cls-1" x1="48.46" y1="25.98" x2="42.71" y2="18.48"/><line class="cls-1" x1="45.71" y1="14.07" x2="48.12" y2="8.82"/><line class="cls-1" x1="47.37" y1="16.63" x2="48.97" y2="12.97"/><line class="cls-1" x1="48.97" y1="12.97" x2="49.96" y2="10.73"/><line class="cls-1" x1="48.29" y1="18.15" x2="54.12" y2="16.32"/><line class="cls-1" x1="48.12" y1="15.07" x2="53.79" y2="14.07"/><line class="cls-1" x1="48.97" y1="12.97" x2="51.96" y2="12.65"/><line class="cls-1" x1="48.97" y1="12.97" x2="48.87" y2="12.98"/><line class="cls-1" x1="51.79" y1="24.4" x2="51.54" y2="19.57"/><line class="cls-1" x1="53.79" y1="18.76" x2="53.79" y2="18.73"/><line class="cls-1" x1="53.79" y1="18.76" x2="54.21" y2="23.98"/><line class="cls-1" x1="59.62" y1="25.4" x2="49.54" y2="25.4"/><line class="cls-1" x1="51.47" y1="28.11" x2="52.54" y2="32.07"/><line class="cls-1" x1="51.46" y1="28.07" x2="51.47" y2="28.11"/><line class="cls-1" x1="53.62" y1="28.32" x2="54.46" y2="32.32"/><line class="cls-1" x1="50.25" y1="30.19" x2="50.25" y2="30.19"/><line class="cls-1" x1="50.25" y1="30.19" x2="44.93" y2="30.82"/><line class="cls-1" x1="49.56" y1="28.57" x2="44.5" y2="29.07"/><line class="cls-1" x1="49.29" y1="26.48" x2="44" y2="26.82"/><line class="cls-1" x1="49.4" y1="26.49" x2="60.37" y2="27.07"/><line class="cls-1" x1="49.4" y1="26.49" x2="49.29" y2="26.48"/><line class="cls-1" x1="46.25" y1="24.82" x2="43.68" y2="25.07"/><line class="cls-1" x1="47.31" y1="32.25" x2="47.31" y2="32.31"/><line class="cls-1" x1="47.31" y1="32.31" x2="46.87" y2="37.44"/><line class="cls-1" x1="48.62" y1="38.75" x2="49.06" y2="32.19"/><line class="cls-1" x1="52.75" y1="32.19" x2="52.31" y2="39.44"/><line class="cls-1" x1="54.5" y1="32.5" x2="54.12" y2="39.13"/><line class="cls-1" x1="59.12" y1="37.75" x2="54.56" y2="40.88"/><line class="cls-1" x1="22.23" y1="41.21" x2="22.03" y2="41.33"/><line class="cls-1" x1="22.03" y1="41.33" x2="20.79" y2="42.1"/><line class="cls-1" x1="21.96" y1="38.88" x2="20.79" y2="39.68"/><line class="cls-1" x1="21.9" y1="43.75" x2="20.79" y2="44.38"/><line class="cls-1" x1="20.79" y1="37.86" x2="21.15" y2="37.63"/><line class="cls-1" x1="55.18" y1="41.75" x2="48.43" y2="40.44"/><line class="cls-1" x1="56.56" y1="43.25" x2="50" y2="42.82"/><line class="cls-1" x1="58.12" y1="45.07" x2="52.25" y2="45.13"/><polyline class="cls-1" points="54.31 51.94 54.56 53.83 55.27 56.31"/><line class="cls-1" x1="23.29" y1="18.73" x2="20.79" y2="18.65"/><line class="cls-1" x1="23.23" y1="20.48" x2="20.79" y2="20.32"/><line class="cls-1" x1="50.93" y1="54.82" x2="54.5" y2="53.5"/><line class="cls-1" x1="54.06" y1="51.75" x2="49.62" y2="53.69"/><line class="cls-1" x1="50.18" y1="47.88" x2="53.12" y2="52.13"/><line class="cls-1" x1="49.1" y1="46.66" x2="46.06" y2="50.25"/><line class="cls-1" x1="49.1" y1="46.66" x2="49.12" y2="46.63"/><line class="cls-1" x1="51.62" y1="52.82" x2="48.06" y2="47.94"/><line class="cls-1" x1="49.87" y1="53.57" x2="46.93" y2="49.25"/><line class="cls-1" x1="24.87" y1="23.74" x2="24.87" y2="23.75"/><line class="cls-1" x1="25.06" y1="19.32" x2="24.87" y2="23.74"/><line class="cls-1" x1="26.18" y1="24.32" x2="26.93" y2="19.77"/><line class="cls-1" x1="26.93" y1="19.77" x2="26.93" y2="19.75"/><line class="cls-1" x1="26.75" y1="21.25" x2="30.93" y2="21.13"/><line class="cls-1" x1="26.43" y1="22.94" x2="33.56" y2="22.94"/><line class="cls-1" x1="35.18" y1="25.07" x2="27.63" y2="25.13"/><line class="cls-1" x1="35.18" y1="25.07" x2="35.5" y2="25.07"/><line class="cls-1" x1="27.63" y1="25.13" x2="27.62" y2="25.13"/><line class="cls-1" x1="30.68" y1="27.49" x2="30.37" y2="25.13"/><line class="cls-1" x1="30.68" y1="27.49" x2="30.68" y2="27.5"/><line class="cls-1" x1="33.56" y1="32.06" x2="33.56" y2="32.07"/><line class="cls-1" x1="32.75" y1="25.13" x2="33.56" y2="32.06"/><line class="cls-1" x1="35.34" y1="27.95" x2="35.77" y2="36.14"/><line class="cls-1" x1="35.81" y1="36.88" x2="35.77" y2="36.14"/><line class="cls-1" x1="35.18" y1="25.07" x2="35.34" y2="27.95"/><line class="cls-1" x1="35.18" y1="25.07" x2="35.18" y2="25.07"/><line class="cls-1" x1="35.34" y1="27.95" x2="37.87" y2="29.13"/><line class="cls-1" x1="35.31" y1="27.94" x2="35.34" y2="27.95"/><line class="cls-1" x1="35.5" y1="30.38" x2="38.93" y2="31.73"/><line class="cls-1" x1="38.93" y1="31.73" x2="39" y2="31.75"/><line class="cls-1" x1="41" y1="35.69" x2="35.62" y2="33"/><line class="cls-1" x1="35.75" y1="36.13" x2="35.77" y2="36.14"/><line class="cls-1" x1="43.09" y1="38.93" x2="39.05" y2="37.39"/><line class="cls-1" x1="35.77" y1="36.14" x2="39.05" y2="37.39"/><line class="cls-1" x1="43.09" y1="38.93" x2="43.12" y2="38.94"/><line class="cls-1" x1="39.05" y1="37.39" x2="36.91" y2="38.85"/><line class="cls-1" x1="39.05" y1="37.39" x2="39.06" y2="37.38"/><line class="cls-1" x1="36.91" y1="38.85" x2="36.87" y2="38.88"/><line class="cls-1" x1="38.31" y1="40.94" x2="38.31" y2="40.94"/><line class="cls-1" x1="41.81" y1="38.5" x2="38.31" y2="40.94"/><line class="cls-1" x1="39.5" y1="42.63" x2="39.52" y2="42.61"/><line class="cls-1" x1="43.62" y1="39.75" x2="39.52" y2="42.61"/><line class="cls-1" x1="40.87" y1="41.69" x2="41.25" y2="44.82"/><line class="cls-1" x1="43" y1="40.19" x2="43.5" y2="47.44"/><line class="cls-1" x1="45.37" y1="42.07" x2="45.37" y2="42.1"/><line class="cls-1" x1="45.62" y1="49.88" x2="45.62" y2="49.82"/><line class="cls-1" x1="45.62" y1="49.82" x2="45.37" y2="42.1"/><line class="cls-1" x1="47.37" y1="44.63" x2="47.68" y2="48.32"/><line class="cls-1" x1="47.37" y1="44.63" x2="47.37" y2="44.63"/><path class="cls-1" d="M46.69,6.76a23,23,0,0,1-2.44-4.63L44.19,2"/><path class="cls-1" d="M46.69,6.76c6.21,9.13,16.7,11,14.31,18.62-2.75,8.75-2.25,10,3.25,11,4.62.84,6.77-1,10.31.66.18.08.37.21.56.32"/><path class="cls-1" d="M27.85,8a22.41,22.41,0,0,1,2.28.5"/><path class="cls-1" d="M32.34,9.26a22.22,22.22,0,0,0-2.21-.75"/><path class="cls-1" d="M42.13,18.75a20.59,20.59,0,0,1,1.12,3.88l.25,1.44c1,6.2,3,20.67,13.56,23.68A12.52,12.52,0,0,1,61,49.94"/><path class="cls-1" d="M36.12,11.26l-.66-.44"/><path class="cls-1" d="M35.46,10.82c-.43-.26-.86-.51-1.29-.73"/><path class="cls-1" d="M36.12,11.26a16.18,16.18,0,0,1,4.75,5"/><path class="cls-1" d="M32.34,9.26a19.59,19.59,0,0,1,1.83.83"/><path class="cls-1" d="M40.87,16.25a17.7,17.7,0,0,1,1.26,2.5"/><path class="cls-1" d="M24.34,7.54a11.27,11.27,0,0,0,1.16.21A18.11,18.11,0,0,1,27.85,8"/><path class="cls-1" d="M20.79,6.32a17.12,17.12,0,0,0,3.55,1.22"/><path class="cls-1" d="M20.79,37.35a12.75,12.75,0,0,1,1.58,1,22.54,22.54,0,0,0,7.44,5.87c5.12,2.69,6.44,3.25,6.44,3.25,3,1.24,5.69,3.21,7.93,8.82"/><line class="cls-1" x1="35.54" y1="53.52" x2="37.93" y2="48.44"/><line class="cls-1" x1="22.03" y1="41.33" x2="22" y2="44.82"/><line class="cls-1" x1="22.03" y1="41.33" x2="22.06" y2="38.19"/><line class="cls-1" x1="22" y1="45.63" x2="22" y2="44.82"/><line class="cls-1" x1="22" y1="45.63" x2="26.18" y2="52"/><line class="cls-1" x1="23.27" y1="55.25" x2="26.18" y2="52"/><line class="cls-1" x1="28.12" y1="43.32" x2="23.18" y2="47.19"/><line class="cls-1" x1="22.06" y1="40.07" x2="23.62" y2="39.82"/><line class="cls-1" x1="22.06" y1="41.88" x2="25.12" y2="41.19"/><line class="cls-1" x1="22.06" y1="43.44" x2="27.18" y2="42.69"/><line class="cls-1" x1="26.43" y1="44.57" x2="22" y2="44.82"/><line class="cls-1" x1="22" y1="44.82" x2="22" y2="44.82"/><line class="cls-1" x1="25.62" y1="45.32" x2="27.54" y2="46.65"/><line class="cls-1" x1="30.31" y1="48.57" x2="32.18" y2="45.5"/><line class="cls-1" x1="27.54" y1="46.65" x2="30.31" y2="48.57"/><line class="cls-1" x1="27.25" y1="44.07" x2="31.18" y2="47"/><line class="cls-1" x1="33.56" y1="46.25" x2="31.87" y2="49.32"/><line class="cls-1" x1="31.87" y1="49.32" x2="31.87" y2="49.32"/><line class="cls-1" x1="33.56" y1="50.13" x2="35" y2="47"/><line class="cls-1" x1="33.56" y1="50.13" x2="33.56" y2="50.13"/><line class="cls-1" x1="35.25" y1="50.88" x2="36.5" y2="47.63"/><line class="cls-1" x1="25.56" y1="51" x2="28.87" y2="47.69"/><line class="cls-1" x1="27.54" y1="46.65" x2="24.68" y2="49.57"/><line class="cls-1" x1="27.54" y1="46.65" x2="27.56" y2="46.63"/><line class="cls-1" x1="26.31" y1="45.88" x2="23.93" y2="48.32"/><line class="cls-1" x1="32.56" y1="49.69" x2="28.68" y2="50"/><path class="cls-1" d="M34.62,50.75s-7.44.63-7.62.63"/><line class="cls-1" x1="27.04" y1="53.25" x2="27" y2="53.25"/><line class="cls-1" x1="27.04" y1="53.25" x2="35.93" y2="52.63"/><line class="cls-1" x1="36.75" y1="54.38" x2="39.56" y2="49.63"/><line class="cls-1" x1="38.81" y1="51" x2="41.31" y2="51.32"/><line class="cls-1" x1="37.25" y1="53.69" x2="40.54" y2="53.61"/><line class="cls-1" x1="38.37" y1="55.63" x2="39.06" y2="53.69"/><line class="cls-1" x1="21.44" y1="1.98" x2="25.52" y2="6.59"/><line class="cls-1" x1="20.79" y1="4.51" x2="23.08" y2="7.1"/><polyline class="cls-1" points="24.75 53.69 25.54 54.65 26.85 56.32"/><line class="cls-1" x1="21.93" y1="45.63" x2="20.79" y2="46.17"/><line class="cls-1" x1="22.93" y1="47.13" x2="20.79" y2="48.25"/><line class="cls-1" x1="25.06" y1="50.32" x2="23.56" y2="54.88"/><line class="cls-1" x1="21.68" y1="53.88" x2="23.75" y2="48.44"/><line class="cls-1" x1="20.79" y1="50.39" x2="21.81" y2="47.75"/><line class="cls-1" x1="23.18" y1="55.25" x2="20.79" y2="53.22"/><line class="cls-1" x1="23.3" y1="18.65" x2="23.12" y2="23.07"/><rect class="cls-2" x="20.79" y="1.98" width="54.33" height="54.33"/><path class="cls-1" d="M6.58,2l-.44-.19"/><path class="cls-1" d="M6.14,1.79l-.73-.37C5,1.19,4.49.93,4,.64"/><path class="cls-1" d="M2-.76A23.89,23.89,0,0,0,4,.64"/><polyline class="cls-1" points="-0.02 -2.39 0.23 -0.5 0.94 1.98"/><polyline class="cls-1" points="1.99 -0.76 2.04 -0.5 2.73 1.98"/><line class="cls-1" x1="4.02" y1="0.64" x2="4.31" y2="1.98"/><line class="cls-1" x1="4.02" y1="0.64" x2="4.01" y2="0.61"/><line class="cls-1" x1="6.14" y1="1.79" x2="6.17" y2="1.98"/><line class="cls-1" x1="6.14" y1="1.79" x2="6.14" y2="1.79"/><line class="cls-1" x1="-1.71" y1="1.67" x2="0.54" y2="0.86"/><line class="cls-1" x1="-3.4" y1="0.48" x2="0.16" y2="-0.83"/><path class="cls-1" d="M8.14-3.2C9.86-1.75,11.69,0,13.65,1.61c.12.09.38.24.57.37"/><polyline class="cls-1" points="20.79 1.24 20.29 0.67 17.48 -2.39"/><polyline class="cls-1" points="18.55 1.98 17.85 1.23 14.77 -2.65"/><line class="cls-1" x1="13.16" y1="-2.7" x2="13.41" y2="1.36"/><rect class="cls-2" x="-33.54" y="-52.35" width="54.33" height="54.33"/><path class="cls-1" d="M7.33,2.21,8,2.38C13.91,3.88,16.53,8,18.1,12.63"/><path class="cls-1" d="M6.49,2c.22.07.61.14.84.21"/><path class="cls-1" d="M18.64,14q-.29-.64-.54-1.38"/><path class="cls-1" d="M19.6,15.77a11.58,11.58,0,0,1-1-1.76"/><path class="cls-1" d="M19.6,15.77a9.92,9.92,0,0,0,.64.85c.18.2.36.44.54.61"/><path class="cls-1" d="M17.54,20a11.78,11.78,0,0,0,1.83,1.68,13.11,13.11,0,0,0,1.4.76"/><path class="cls-1" d="M-1.37,2c.17.13.43.26.6.38A29.89,29.89,0,0,0,6.79,6.57"/><path class="cls-1" d="M13.18,11.29a7.48,7.48,0,0,0-1.81-2.44"/><path class="cls-1" d="M11.37,8.85A12.44,12.44,0,0,0,7,6.63l-.19-.06"/><path class="cls-1" d="M15.85,17.52A13.87,13.87,0,0,0,17.54,20"/><path class="cls-1" d="M13.79,12.63c-.2-.49-.4-.93-.61-1.34"/><path class="cls-1" d="M15.85,17.52A23.77,23.77,0,0,1,14.73,15c-.35-.89-.64-1.67-.94-2.37"/><path class="cls-1" d="M-5.24,46.66A51.55,51.55,0,0,0,2,53.57"/><path class="cls-1" d="M2,53.57A23.89,23.89,0,0,0,4,55"/><line class="cls-1" x1="-0.21" y1="18.65" x2="-0.13" y2="14.4"/><line class="cls-1" x1="2.87" y1="23.48" x2="-0.21" y2="18.65"/><polyline class="cls-1" points="2.88 23.48 3.04 23.73 6.37 26.15"/><line class="cls-1" x1="6.54" y1="46.23" x2="6.54" y2="46.19"/><line class="cls-1" x1="6.54" y1="46.19" x2="6.66" y2="43.76"/><line class="cls-1" x1="4.19" y1="36.66" x2="1.79" y2="32.57"/><line class="cls-1" x1="4.19" y1="36.66" x2="6.79" y2="41.07"/><line class="cls-1" x1="6.79" y1="41.07" x2="6.66" y2="43.76"/><line class="cls-1" x1="1.79" y1="32.57" x2="-3.38" y2="31.98"/><polyline class="cls-1" points="2.88 23.48 2.71 23.65 -4.89 24.89"/><line class="cls-1" x1="2.87" y1="23.48" x2="6.04" y2="20.23"/><line class="cls-1" x1="3.21" y1="28.48" x2="5.87" y2="27.4"/><line class="cls-1" x1="3.21" y1="28.48" x2="-2.87" y2="28.11"/><line class="cls-1" x1="3.21" y1="28.48" x2="1.79" y2="32.57"/><line class="cls-1" x1="4.19" y1="36.66" x2="-0.96" y2="39.65"/><polyline class="cls-1" points="4.2 36.66 4.21 36.65 6.12 35.15"/><line class="cls-1" x1="13.68" y1="42.49" x2="15.87" y2="45.4"/><line class="cls-1" x1="11.54" y1="39.65" x2="13.68" y2="42.49"/><line class="cls-1" x1="11.54" y1="39.65" x2="6.79" y2="41.07"/><line class="cls-1" x1="20.79" y1="44.36" x2="19.48" y2="45.13"/><line class="cls-1" x1="15.87" y1="45.4" x2="19.48" y2="45.13"/><line class="cls-1" x1="1.55" y1="42.44" x2="-0.96" y2="39.65"/><line class="cls-1" x1="1.55" y1="42.44" x2="5.04" y2="46.32"/><line class="cls-1" x1="5.04" y1="46.32" x2="1.41" y2="47.19"/><line class="cls-1" x1="15.91" y1="36.44" x2="11.54" y2="39.65"/><line class="cls-1" x1="11.62" y1="36.65" x2="11.54" y2="39.65"/><line class="cls-1" x1="20.79" y1="42.09" x2="15.75" y2="45.21"/><line class="cls-1" x1="-0.54" y1="18.76" x2="-0.13" y2="23.98"/><line class="cls-1" x1="1.87" y1="21.73" x2="4.54" y2="18.32"/><line class="cls-1" x1="0.79" y1="20.07" x2="2.79" y2="16.9"/><line class="cls-1" x1="4.87" y1="24.98" x2="6.96" y2="22.65"/><line class="cls-1" x1="5.29" y1="25.4" x2="-4.79" y2="25.4"/><line class="cls-1" x1="-0.71" y1="28.32" x2="0.12" y2="32.32"/><line class="cls-1" x1="2.12" y1="31.57" x2="1.37" y2="28.4"/><line class="cls-1" x1="3.54" y1="35.4" x2="5.12" y2="33.9"/><line class="cls-1" x1="2.48" y1="33.5" x2="5.04" y2="31.48"/><line class="cls-1" x1="2.37" y1="31.07" x2="5.54" y2="29.07"/><line class="cls-1" x1="-4.93" y1="26.49" x2="6.04" y2="27.07"/><line class="cls-1" x1="0.16" y1="32.5" x2="-0.21" y2="39.13"/><line class="cls-1" x1="1.79" y1="37.82" x2="2.04" y2="33.07"/><line class="cls-1" x1="4.79" y1="37.75" x2="0.23" y2="40.88"/><line class="cls-1" x1="5.6" y1="39.07" x2="1.55" y2="42.44"/><line class="cls-1" x1="1.55" y1="42.44" x2="1.54" y2="42.44"/><line class="cls-1" x1="2.91" y1="43.88" x2="6.6" y2="40.88"/><line class="cls-1" x1="4.29" y1="45.38" x2="6.66" y2="43.76"/><line class="cls-1" x1="6.66" y1="43.76" x2="6.66" y2="43.75"/><line class="cls-1" x1="8.54" y1="45.94" x2="8.35" y2="40.75"/><line class="cls-1" x1="10.1" y1="40.13" x2="10.66" y2="45.82"/><line class="cls-1" x1="12.66" y1="45.69" x2="12.66" y2="45.67"/><line class="cls-1" x1="12.66" y1="45.67" x2="12.16" y2="40.5"/><line class="cls-1" x1="14.73" y1="43.82" x2="20.79" y2="39.69"/><line class="cls-1" x1="13.68" y1="42.49" x2="20.78" y2="37.85"/><line class="cls-1" x1="13.68" y1="42.49" x2="13.66" y2="42.5"/><line class="cls-1" x1="12.66" y1="41.13" x2="19.04" y2="36.63"/><line class="cls-1" x1="14.35" y1="43.44" x2="14.48" y2="45.5"/><line class="cls-1" x1="5.66" y1="35.57" x2="8.66" y2="40.38"/><line class="cls-1" x1="8.35" y1="36.07" x2="10.6" y2="39.88"/><line class="cls-1" x1="0.85" y1="41.75" x2="-5.9" y2="40.44"/><line class="cls-1" x1="2.23" y1="43.25" x2="-4.34" y2="42.82"/><line class="cls-1" x1="3.79" y1="45.07" x2="-2.09" y2="45.13"/><line class="cls-1" x1="1.48" y1="3.82" x2="0.93" y2="1.98"/><line class="cls-1" x1="3.6" y1="5.07" x2="2.71" y2="1.98"/><line class="cls-1" x1="5.16" y1="5.88" x2="4.28" y2="1.98"/><line class="cls-1" x1="6.79" y1="6.57" x2="6.35" y2="3.32"/><line class="cls-1" x1="6.18" y1="1.98" x2="6.35" y2="3.32"/><line class="cls-1" x1="6.79" y1="6.57" x2="6.79" y2="6.57"/><line class="cls-1" x1="9.73" y1="2.94" x2="6.35" y2="3.32"/><line class="cls-1" x1="6.35" y1="3.32" x2="6.35" y2="3.32"/><line class="cls-1" x1="6.6" y1="5" x2="12.16" y2="4.25"/><line class="cls-1" x1="6.79" y1="6.32" x2="14.16" y2="5.88"/><line class="cls-1" x1="10.54" y1="6.13" x2="9.66" y2="7.69"/><line class="cls-1" x1="12.85" y1="6" x2="11.37" y2="8.85"/><line class="cls-1" x1="11.37" y1="8.85" x2="11.35" y2="8.88"/><line class="cls-1" x1="12.54" y1="10.13" x2="14.66" y2="6.32"/><line class="cls-1" x1="13.18" y1="11.29" x2="15.73" y2="7.69"/><line class="cls-1" x1="13.18" y1="11.29" x2="13.16" y2="11.32"/><line class="cls-1" x1="14.66" y1="9.25" x2="16.66" y2="9.44"/><line class="cls-1" x1="13.6" y1="10.75" x2="17.48" y2="11"/><line class="cls-1" x1="13.79" y1="12.63" x2="18.1" y2="12.63"/><line class="cls-1" x1="13.79" y1="12.63" x2="13.73" y2="12.63"/><line class="cls-1" x1="18.66" y1="14" x2="18.64" y2="14.01"/><line class="cls-1" x1="18.64" y1="14.01" x2="17.66" y2="14.06"/><line class="cls-1" x1="14.54" y1="14.25" x2="17.66" y2="14.06"/><line class="cls-1" x1="15.85" y1="17.52" x2="15.98" y2="14.19"/><line class="cls-1" x1="15.85" y1="17.52" x2="15.85" y2="17.57"/><line class="cls-1" x1="17.66" y1="14" x2="17.66" y2="14.06"/><line class="cls-1" x1="17.54" y1="20" x2="17.54" y2="20"/><line class="cls-1" x1="17.54" y1="20" x2="17.66" y2="14.06"/><line class="cls-1" x1="19.21" y1="20.19" x2="19.1" y2="21.44"/><line class="cls-1" x1="19.6" y1="15.77" x2="19.35" y2="18.57"/><line class="cls-1" x1="19.6" y1="15.77" x2="19.6" y2="15.75"/><line class="cls-1" x1="19.35" y1="18.57" x2="19.21" y2="20.19"/><line class="cls-1" x1="19.35" y1="18.57" x2="19.35" y2="18.57"/><line class="cls-1" x1="20.79" y1="18.65" x2="19.36" y2="18.61"/><line class="cls-1" x1="19.21" y1="20.19" x2="20.78" y2="20.31"/><line class="cls-1" x1="19.16" y1="20.19" x2="19.21" y2="20.19"/><polyline class="cls-1" points="-0.02 51.94 0.23 53.83 0.94 56.31"/><line class="cls-1" x1="1.99" y1="53.57" x2="1.98" y2="53.5"/><polyline class="cls-1" points="1.99 53.58 2.04 53.83 2.73 56.32"/><line class="cls-1" x1="-3.4" y1="54.82" x2="0.16" y2="53.5"/><path class="cls-1" d="M-7.64,6.76c6.2,9.13,16.7,11,14.3,18.62-2.75,8.75-2.25,10,3.25,11,4.63.84,6.78-1,10.32.66.18.08.36.21.55.32"/><path class="cls-1" d="M14.84,2.47c-.21-.16-.54-.32-.74-.49"/><path class="cls-1" d="M20.79,6.3a30,30,0,0,1-5.95-3.83"/><path class="cls-1" d="M-12.21,18.75a19.21,19.21,0,0,1,1.12,3.88l.26,1.44c1,6.2,3,20.67,13.56,23.68a12.63,12.63,0,0,1,3.93,2.19"/><path class="cls-1" d="M6.66,49.94c.48.37,1,.77,1.48,1.19"/><path class="cls-1" d="M8.14,51.13c1.72,1.45,3.55,3.16,5.51,4.81.12.1.38.25.57.37"/><line class="cls-1" x1="20.79" y1="4.51" x2="18.49" y2="1.98"/><polyline class="cls-1" points="20.79 55.57 20.29 55 17.48 51.94"/><line class="cls-1" x1="14.73" y1="51.63" x2="14.77" y2="51.68"/><polyline class="cls-1" points="18.55 56.31 17.85 55.57 14.77 51.68"/><line class="cls-1" x1="12.66" y1="45.67" x2="15.87" y2="45.4"/><line class="cls-1" x1="5.04" y1="46.32" x2="6.54" y2="46.19"/><line class="cls-1" x1="5.04" y1="46.32" x2="4.54" y2="48.44"/><line class="cls-1" x1="12.66" y1="45.67" x2="6.54" y2="46.19"/><line class="cls-1" x1="8.14" y1="51.13" x2="14.77" y2="51.68"/><line class="cls-1" x1="8.1" y1="51.13" x2="8.14" y2="51.13"/><line class="cls-1" x1="14.77" y1="51.68" x2="19.48" y2="52.07"/><line class="cls-1" x1="13.16" y1="51.63" x2="13.41" y2="55.69"/><line class="cls-1" x1="11.23" y1="53.82" x2="11.1" y2="51.44"/><line class="cls-1" x1="4.79" y1="47.57" x2="19.48" y2="47.38"/><line class="cls-1" x1="6.66" y1="49.94" x2="19.41" y2="50"/><line class="cls-1" x1="6.66" y1="49.94" x2="6.6" y2="49.94"/><line class="cls-1" x1="19.48" y1="46.82" x2="20.79" y2="46.19"/><line class="cls-1" x1="19.6" y1="48.85" x2="20.79" y2="48.23"/><line class="cls-1" x1="20.04" y1="52.44" x2="20.78" y2="50.39"/><line class="cls-1" x1="19.48" y1="47.38" x2="19.48" y2="46.82"/><line class="cls-1" x1="20.78" y1="53.25" x2="19.48" y2="52.07"/><line class="cls-1" x1="19.48" y1="46.82" x2="19.48" y2="45.13"/><line class="cls-1" x1="19.48" y1="47.38" x2="19.48" y2="52.07"/><rect class="cls-2" x="-33.54" y="1.98" width="54.33" height="54.33"/><rect class="cls-2" width="54.76" height="54.76"/></svg>