<!-- Generator: Adobe Illustrator 22.1.0, SVG Export Plug-In  -->
<svg version="1.1"
     xmlns="http://www.w3.org/2000/svg" xmlns:xlink="http://www.w3.org/1999/xlink" xmlns:a="http://ns.adobe.com/AdobeSVGViewerExtensions/3.0/"
     x="0px" y="0px" width="76.6px" height="76.8px" viewBox="0 0 76.6 76.8" style="enable-background:new 0 0 76.6 76.8;"
     xml:space="preserve">
<style type="text/css">
    .st0{fill:none;stroke:#000000;stroke-width:0.3;}
</style>
<defs>
</defs>
<line class="st0" x1="6.6" y1="1.5" x2="9.4" y2="1.5"/>
<line class="st0" x1="8" y1="0" x2="8" y2="3"/>
<line class="st0" x1="6.6" y1="14.9" x2="9.4" y2="14.9"/>
<line class="st0" x1="8" y1="13.4" x2="8" y2="16.4"/>
<line class="st0" x1="20.1" y1="14.9" x2="22.9" y2="14.9"/>
<line class="st0" x1="21.4" y1="13.4" x2="21.4" y2="16.4"/>
<line class="st0" x1="33.5" y1="14.9" x2="36.3" y2="14.9"/>
<line class="st0" x1="34.9" y1="13.4" x2="34.9" y2="16.4"/>
<line class="st0" x1="33.5" y1="1.6" x2="36.3" y2="1.6"/>
<line class="st0" x1="34.9" y1="0.1" x2="34.9" y2="3.1"/>
<line class="st0" x1="20.1" y1="1.6" x2="22.9" y2="1.6"/>
<line class="st0" x1="21.5" y1="0.1" x2="21.5" y2="3.1"/>
<line class="st0" x1="26.8" y1="8.3" x2="29.6" y2="8.3"/>
<line class="st0" x1="28.2" y1="6.8" x2="28.2" y2="9.8"/>
<line class="st0" x1="0" y1="8.2" x2="2.8" y2="8.2"/>
<line class="st0" x1="1.4" y1="6.7" x2="1.4" y2="9.7"/>
<line class="st0" x1="13.4" y1="8.2" x2="16.2" y2="8.2"/>
<line class="st0" x1="14.8" y1="6.7" x2="14.8" y2="9.7"/>
<line class="st0" x1="6.6" y1="28.3" x2="9.4" y2="28.3"/>
<line class="st0" x1="8" y1="26.8" x2="8" y2="29.8"/>
<line class="st0" x1="33.5" y1="28.3" x2="36.3" y2="28.3"/>
<line class="st0" x1="34.9" y1="26.8" x2="34.9" y2="29.8"/>
<line class="st0" x1="20.1" y1="28.3" x2="22.9" y2="28.3"/>
<line class="st0" x1="21.5" y1="26.8" x2="21.5" y2="29.8"/>
<line class="st0" x1="26.8" y1="35" x2="29.6" y2="35"/>
<line class="st0" x1="28.2" y1="33.5" x2="28.2" y2="36.5"/>
<line class="st0" x1="0" y1="35" x2="2.8" y2="35"/>
<line class="st0" x1="1.4" y1="33.5" x2="1.4" y2="36.5"/>
<line class="st0" x1="0" y1="21.6" x2="2.8" y2="21.6"/>
<line class="st0" x1="1.4" y1="20.1" x2="1.4" y2="23.1"/>
<line class="st0" x1="13.4" y1="21.6" x2="16.2" y2="21.6"/>
<line class="st0" x1="14.8" y1="20.1" x2="14.8" y2="23.1"/>
<line class="st0" x1="26.8" y1="21.6" x2="29.6" y2="21.6"/>
<line class="st0" x1="28.2" y1="20.1" x2="28.2" y2="23.1"/>
<line class="st0" x1="13.4" y1="35" x2="16.2" y2="35"/>
<line class="st0" x1="14.8" y1="33.5" x2="14.8" y2="36.5"/>
<line class="st0" x1="46.9" y1="1.5" x2="49.8" y2="1.5"/>
<line class="st0" x1="48.3" y1="0" x2="48.3" y2="3"/>
<line class="st0" x1="46.9" y1="14.9" x2="49.8" y2="14.9"/>
<line class="st0" x1="48.3" y1="13.4" x2="48.3" y2="16.4"/>
<line class="st0" x1="60.4" y1="14.9" x2="63.2" y2="14.9"/>
<line class="st0" x1="61.8" y1="13.4" x2="61.8" y2="16.4"/>
<line class="st0" x1="73.8" y1="14.9" x2="76.6" y2="14.9"/>
<line class="st0" x1="75.2" y1="13.4" x2="75.2" y2="16.4"/>
<line class="st0" x1="73.8" y1="1.6" x2="76.6" y2="1.6"/>
<line class="st0" x1="75.2" y1="0.1" x2="75.2" y2="3.1"/>
<line class="st0" x1="60.4" y1="1.6" x2="63.2" y2="1.6"/>
<line class="st0" x1="61.8" y1="0.1" x2="61.8" y2="3.1"/>
<line class="st0" x1="67.1" y1="8.3" x2="69.9" y2="8.3"/>
<line class="st0" x1="68.5" y1="6.8" x2="68.5" y2="9.8"/>
<line class="st0" x1="40.3" y1="8.2" x2="43.1" y2="8.2"/>
<line class="st0" x1="41.7" y1="6.7" x2="41.7" y2="9.7"/>
<line class="st0" x1="53.7" y1="8.2" x2="56.5" y2="8.2"/>
<line class="st0" x1="55.1" y1="6.7" x2="55.1" y2="9.7"/>
<line class="st0" x1="46.9" y1="28.3" x2="49.8" y2="28.3"/>
<line class="st0" x1="48.3" y1="26.8" x2="48.3" y2="29.8"/>
<line class="st0" x1="73.8" y1="28.3" x2="76.6" y2="28.3"/>
<line class="st0" x1="75.2" y1="26.8" x2="75.2" y2="29.8"/>
<line class="st0" x1="60.4" y1="28.3" x2="63.2" y2="28.3"/>
<line class="st0" x1="61.8" y1="26.8" x2="61.8" y2="29.8"/>
<line class="st0" x1="67.1" y1="35" x2="69.9" y2="35"/>
<line class="st0" x1="68.5" y1="33.5" x2="68.5" y2="36.5"/>
<line class="st0" x1="40.3" y1="35" x2="43.1" y2="35"/>
<line class="st0" x1="41.7" y1="33.5" x2="41.7" y2="36.5"/>
<line class="st0" x1="40.3" y1="21.6" x2="43.1" y2="21.6"/>
<line class="st0" x1="41.7" y1="20.1" x2="41.7" y2="23.1"/>
<line class="st0" x1="53.7" y1="21.6" x2="56.5" y2="21.6"/>
<line class="st0" x1="55.1" y1="20.1" x2="55.1" y2="23.1"/>
<line class="st0" x1="67.1" y1="21.6" x2="70" y2="21.6"/>
<line class="st0" x1="68.5" y1="20.1" x2="68.5" y2="23.1"/>
<line class="st0" x1="53.7" y1="35" x2="56.5" y2="35"/>
<line class="st0" x1="55.1" y1="33.5" x2="55.1" y2="36.5"/>
<line class="st0" x1="6.6" y1="41.8" x2="9.4" y2="41.8"/>
<line class="st0" x1="8" y1="40.2" x2="8" y2="43.2"/>
<line class="st0" x1="6.6" y1="55.1" x2="9.4" y2="55.1"/>
<line class="st0" x1="8" y1="53.6" x2="8" y2="56.6"/>
<line class="st0" x1="20.1" y1="55.1" x2="22.9" y2="55.1"/>
<line class="st0" x1="21.4" y1="53.6" x2="21.4" y2="56.6"/>
<line class="st0" x1="33.5" y1="55.1" x2="36.3" y2="55.1"/>
<line class="st0" x1="34.9" y1="53.6" x2="34.9" y2="56.6"/>
<line class="st0" x1="33.5" y1="41.8" x2="36.3" y2="41.8"/>
<line class="st0" x1="34.9" y1="40.3" x2="34.9" y2="43.3"/>
<line class="st0" x1="20.1" y1="41.8" x2="22.9" y2="41.8"/>
<line class="st0" x1="21.5" y1="40.3" x2="21.5" y2="43.3"/>
<line class="st0" x1="26.8" y1="48.5" x2="29.6" y2="48.5"/>
<line class="st0" x1="28.2" y1="47" x2="28.2" y2="50"/>
<line class="st0" x1="0" y1="48.4" x2="2.8" y2="48.4"/>
<line class="st0" x1="1.4" y1="46.9" x2="1.4" y2="49.9"/>
<line class="st0" x1="13.4" y1="48.4" x2="16.2" y2="48.4"/>
<line class="st0" x1="14.8" y1="46.9" x2="14.8" y2="49.9"/>
<line class="st0" x1="6.6" y1="68.5" x2="9.4" y2="68.5"/>
<line class="st0" x1="8" y1="67" x2="8" y2="70"/>
<line class="st0" x1="33.5" y1="68.6" x2="36.3" y2="68.6"/>
<line class="st0" x1="34.9" y1="67.1" x2="34.9" y2="70.1"/>
<line class="st0" x1="20.1" y1="68.6" x2="22.9" y2="68.6"/>
<line class="st0" x1="21.5" y1="67.1" x2="21.5" y2="70.1"/>
<line class="st0" x1="26.8" y1="75.3" x2="29.6" y2="75.3"/>
<line class="st0" x1="28.2" y1="73.8" x2="28.2" y2="76.8"/>
<line class="st0" x1="0" y1="75.2" x2="2.8" y2="75.2"/>
<line class="st0" x1="1.4" y1="73.7" x2="1.4" y2="76.7"/>
<line class="st0" x1="0" y1="61.9" x2="2.8" y2="61.9"/>
<line class="st0" x1="1.4" y1="60.4" x2="1.4" y2="63.4"/>
<line class="st0" x1="13.4" y1="61.9" x2="16.2" y2="61.9"/>
<line class="st0" x1="14.8" y1="60.4" x2="14.8" y2="63.4"/>
<line class="st0" x1="26.8" y1="61.9" x2="29.6" y2="61.9"/>
<line class="st0" x1="28.2" y1="60.4" x2="28.2" y2="63.4"/>
<line class="st0" x1="13.4" y1="75.2" x2="16.2" y2="75.2"/>
<line class="st0" x1="14.8" y1="73.7" x2="14.8" y2="76.7"/>
<line class="st0" x1="46.9" y1="41.8" x2="49.8" y2="41.8"/>
<line class="st0" x1="48.3" y1="40.2" x2="48.3" y2="43.2"/>
<line class="st0" x1="46.9" y1="55.1" x2="49.8" y2="55.1"/>
<line class="st0" x1="48.3" y1="53.6" x2="48.3" y2="56.6"/>
<line class="st0" x1="60.4" y1="55.1" x2="63.2" y2="55.1"/>
<line class="st0" x1="61.8" y1="53.6" x2="61.8" y2="56.6"/>
<line class="st0" x1="73.8" y1="55.1" x2="76.6" y2="55.1"/>
<line class="st0" x1="75.2" y1="53.6" x2="75.2" y2="56.6"/>
<line class="st0" x1="73.8" y1="41.8" x2="76.6" y2="41.8"/>
<line class="st0" x1="75.2" y1="40.3" x2="75.2" y2="43.3"/>
<line class="st0" x1="60.4" y1="41.8" x2="63.2" y2="41.8"/>
<line class="st0" x1="61.8" y1="40.3" x2="61.8" y2="43.3"/>
<line class="st0" x1="67.1" y1="48.5" x2="69.9" y2="48.5"/>
<line class="st0" x1="68.5" y1="47" x2="68.5" y2="50"/>
<line class="st0" x1="40.3" y1="48.4" x2="43.1" y2="48.4"/>
<line class="st0" x1="41.7" y1="46.9" x2="41.7" y2="49.9"/>
<line class="st0" x1="53.7" y1="48.4" x2="56.5" y2="48.4"/>
<line class="st0" x1="55.1" y1="46.9" x2="55.1" y2="49.9"/>
<line class="st0" x1="46.9" y1="68.5" x2="49.8" y2="68.5"/>
<line class="st0" x1="48.3" y1="67" x2="48.3" y2="70"/>
<line class="st0" x1="73.8" y1="68.6" x2="76.6" y2="68.6"/>
<line class="st0" x1="75.2" y1="67.1" x2="75.2" y2="70.1"/>
<line class="st0" x1="60.4" y1="68.6" x2="63.2" y2="68.6"/>
<line class="st0" x1="61.8" y1="67.1" x2="61.8" y2="70.1"/>
<line class="st0" x1="67.1" y1="75.3" x2="69.9" y2="75.3"/>
<line class="st0" x1="68.5" y1="73.8" x2="68.5" y2="76.8"/>
<line class="st0" x1="40.3" y1="75.2" x2="43.1" y2="75.2"/>
<line class="st0" x1="41.7" y1="73.7" x2="41.7" y2="76.7"/>
<line class="st0" x1="40.3" y1="61.9" x2="43.1" y2="61.9"/>
<line class="st0" x1="41.7" y1="60.4" x2="41.7" y2="63.4"/>
<line class="st0" x1="53.7" y1="61.9" x2="56.5" y2="61.9"/>
<line class="st0" x1="55.1" y1="60.4" x2="55.1" y2="63.4"/>
<line class="st0" x1="67.1" y1="61.9" x2="70" y2="61.9"/>
<line class="st0" x1="68.5" y1="60.4" x2="68.5" y2="63.4"/>
<line class="st0" x1="53.7" y1="75.2" x2="56.5" y2="75.2"/>
<line class="st0" x1="55.1" y1="73.7" x2="55.1" y2="76.7"/>
</svg>
