<svg id="Layer_1" data-name="Layer 1" xmlns="http://www.w3.org/2000/svg" width="80.56" height="80.5" viewBox="0 0 80.56 80.5"><defs><style>.cls-1,.cls-2{fill:none;}.cls-2{stroke:#000;stroke-width:0.3px;}</style></defs><title>Artboard 37</title><rect class="cls-1" x="59.7" y="-18.36" width="80.56" height="80.5"/><line class="cls-2" x1="68.33" y1="11.66" x2="71.14" y2="11.66"/><line class="cls-2" x1="69.7" y1="10.16" x2="69.7" y2="13.16"/><line class="cls-2" x1="61.7" y1="18.35" x2="64.51" y2="18.35"/><line class="cls-2" x1="63.07" y1="16.85" x2="63.07" y2="19.85"/><line class="cls-2" x1="61.7" y1="5.03" x2="64.51" y2="5.03"/><line class="cls-2" x1="63.07" y1="3.53" x2="63.07" y2="6.53"/><line class="cls-2" x1="75.09" y1="5.03" x2="77.9" y2="5.03"/><line class="cls-2" x1="76.47" y1="3.53" x2="76.47" y2="6.53"/><line class="cls-2" x1="75.1" y1="18.35" x2="77.91" y2="18.35"/><line class="cls-2" x1="76.48" y1="16.85" x2="76.48" y2="19.85"/><line class="cls-2" x1="68.33" y1="25.14" x2="71.14" y2="25.14"/><line class="cls-2" x1="69.7" y1="23.64" x2="69.7" y2="26.64"/><line class="cls-2" x1="68.33" y1="38.51" x2="71.14" y2="38.51"/><line class="cls-2" x1="69.7" y1="37.01" x2="69.7" y2="40.01"/><line class="cls-2" x1="61.7" y1="31.82" x2="64.51" y2="31.82"/><line class="cls-2" x1="63.07" y1="30.32" x2="63.07" y2="33.32"/><line class="cls-2" x1="75.1" y1="31.82" x2="77.91" y2="31.82"/><line class="cls-2" x1="76.48" y1="30.32" x2="76.48" y2="33.32"/><line class="cls-2" x1="68.33" y1="51.91" x2="71.14" y2="51.91"/><line class="cls-2" x1="69.7" y1="50.41" x2="69.7" y2="53.41"/><line class="cls-2" x1="61.7" y1="58.6" x2="64.51" y2="58.6"/><line class="cls-2" x1="63.07" y1="57.1" x2="63.07" y2="60.1"/><line class="cls-2" x1="61.7" y1="45.28" x2="64.51" y2="45.28"/><line class="cls-2" x1="63.07" y1="43.78" x2="63.07" y2="46.78"/><line class="cls-2" x1="75.09" y1="45.28" x2="77.9" y2="45.28"/><line class="cls-2" x1="76.47" y1="43.78" x2="76.47" y2="46.78"/><line class="cls-2" x1="75.1" y1="58.6" x2="77.91" y2="58.6"/><line class="cls-2" x1="76.48" y1="57.1" x2="76.48" y2="60.1"/><rect class="cls-1" x="59.7" y="62.14" width="80.56" height="80.5"/><line class="cls-2" x1="68.33" y1="65.39" x2="71.14" y2="65.39"/><line class="cls-2" x1="69.7" y1="63.89" x2="69.7" y2="66.89"/><line class="cls-2" x1="68.33" y1="78.76" x2="71.14" y2="78.76"/><line class="cls-2" x1="69.7" y1="77.26" x2="69.7" y2="80.26"/><line class="cls-2" x1="61.7" y1="72.07" x2="64.51" y2="72.07"/><line class="cls-2" x1="63.07" y1="70.57" x2="63.07" y2="73.57"/><line class="cls-2" x1="75.1" y1="72.07" x2="77.91" y2="72.07"/><line class="cls-2" x1="76.48" y1="70.57" x2="76.48" y2="73.57"/><rect class="cls-1" x="-20.86" y="-18.36" width="80.56" height="80.5"/><line class="cls-2" x1="14.62" y1="11.72" x2="17.43" y2="11.72"/><line class="cls-2" x1="16" y1="10.22" x2="16" y2="13.22"/><line class="cls-2" x1="1.23" y1="11.72" x2="4.04" y2="11.72"/><line class="cls-2" x1="2.6" y1="10.22" x2="2.6" y2="13.22"/><line class="cls-2" x1="7.92" y1="18.42" x2="10.74" y2="18.42"/><line class="cls-2" x1="9.3" y1="16.92" x2="9.3" y2="19.92"/><line class="cls-2" x1="7.97" y1="5.03" x2="10.78" y2="5.03"/><line class="cls-2" x1="9.35" y1="3.53" x2="9.35" y2="6.53"/><line class="cls-2" x1="28.08" y1="11.66" x2="30.89" y2="11.66"/><line class="cls-2" x1="29.45" y1="10.16" x2="29.45" y2="13.16"/><line class="cls-2" x1="54.93" y1="11.72" x2="57.74" y2="11.72"/><line class="cls-2" x1="56.31" y1="10.22" x2="56.31" y2="13.22"/><line class="cls-2" x1="41.53" y1="11.72" x2="44.35" y2="11.72"/><line class="cls-2" x1="42.91" y1="10.22" x2="42.91" y2="13.22"/><line class="cls-2" x1="48.23" y1="18.42" x2="51.04" y2="18.42"/><line class="cls-2" x1="49.61" y1="16.92" x2="49.61" y2="19.92"/><line class="cls-2" x1="21.45" y1="18.35" x2="24.26" y2="18.35"/><line class="cls-2" x1="22.82" y1="16.85" x2="22.82" y2="19.85"/><line class="cls-2" x1="21.45" y1="5.03" x2="24.26" y2="5.03"/><line class="cls-2" x1="22.82" y1="3.53" x2="22.82" y2="6.53"/><line class="cls-2" x1="34.84" y1="5.03" x2="37.65" y2="5.03"/><line class="cls-2" x1="36.22" y1="3.53" x2="36.22" y2="6.53"/><line class="cls-2" x1="48.28" y1="5.03" x2="51.09" y2="5.03"/><line class="cls-2" x1="49.65" y1="3.53" x2="49.65" y2="6.53"/><line class="cls-2" x1="34.85" y1="18.35" x2="37.66" y2="18.35"/><line class="cls-2" x1="36.23" y1="16.85" x2="36.23" y2="19.85"/><line class="cls-2" x1="1.2" y1="38.51" x2="4.02" y2="38.51"/><line class="cls-2" x1="2.58" y1="37.01" x2="2.58" y2="40.01"/><line class="cls-2" x1="14.62" y1="38.51" x2="17.43" y2="38.51"/><line class="cls-2" x1="16" y1="37.01" x2="16" y2="40.01"/><line class="cls-2" x1="14.62" y1="25.2" x2="17.43" y2="25.2"/><line class="cls-2" x1="16" y1="23.7" x2="16" y2="26.7"/><line class="cls-2" x1="1.23" y1="25.2" x2="4.04" y2="25.2"/><line class="cls-2" x1="2.6" y1="23.7" x2="2.6" y2="26.7"/><line class="cls-2" x1="7.92" y1="31.9" x2="10.74" y2="31.9"/><line class="cls-2" x1="9.3" y1="30.4" x2="9.3" y2="33.4"/><line class="cls-2" x1="14.62" y1="51.97" x2="17.43" y2="51.97"/><line class="cls-2" x1="16" y1="50.47" x2="16" y2="53.47"/><line class="cls-2" x1="1.23" y1="51.97" x2="4.04" y2="51.97"/><line class="cls-2" x1="2.6" y1="50.47" x2="2.6" y2="53.47"/><line class="cls-2" x1="7.92" y1="58.67" x2="10.74" y2="58.67"/><line class="cls-2" x1="9.3" y1="57.17" x2="9.3" y2="60.17"/><line class="cls-2" x1="7.97" y1="45.28" x2="10.78" y2="45.28"/><line class="cls-2" x1="9.35" y1="43.78" x2="9.35" y2="46.78"/><line class="cls-2" x1="28.08" y1="25.14" x2="30.89" y2="25.14"/><line class="cls-2" x1="29.45" y1="23.64" x2="29.45" y2="26.64"/><line class="cls-2" x1="28.08" y1="38.51" x2="30.89" y2="38.51"/><line class="cls-2" x1="29.45" y1="37.01" x2="29.45" y2="40.01"/><line class="cls-2" x1="41.51" y1="38.51" x2="44.33" y2="38.51"/><line class="cls-2" x1="42.89" y1="37.01" x2="42.89" y2="40.01"/><line class="cls-2" x1="54.93" y1="38.51" x2="57.74" y2="38.51"/><line class="cls-2" x1="56.31" y1="37.01" x2="56.31" y2="40.01"/><line class="cls-2" x1="54.93" y1="25.2" x2="57.74" y2="25.2"/><line class="cls-2" x1="56.31" y1="23.7" x2="56.31" y2="26.7"/><line class="cls-2" x1="41.53" y1="25.2" x2="44.35" y2="25.2"/><line class="cls-2" x1="42.91" y1="23.7" x2="42.91" y2="26.7"/><line class="cls-2" x1="48.23" y1="31.9" x2="51.04" y2="31.9"/><line class="cls-2" x1="49.61" y1="30.4" x2="49.61" y2="33.4"/><line class="cls-2" x1="21.45" y1="31.82" x2="24.26" y2="31.82"/><line class="cls-2" x1="22.82" y1="30.32" x2="22.82" y2="33.32"/><line class="cls-2" x1="34.85" y1="31.82" x2="37.66" y2="31.82"/><line class="cls-2" x1="36.23" y1="30.32" x2="36.23" y2="33.32"/><line class="cls-2" x1="28.08" y1="51.91" x2="30.89" y2="51.91"/><line class="cls-2" x1="29.45" y1="50.41" x2="29.45" y2="53.41"/><line class="cls-2" x1="54.93" y1="51.97" x2="57.74" y2="51.97"/><line class="cls-2" x1="56.31" y1="50.47" x2="56.31" y2="53.47"/><line class="cls-2" x1="41.53" y1="51.97" x2="44.35" y2="51.97"/><line class="cls-2" x1="42.91" y1="50.47" x2="42.91" y2="53.47"/><line class="cls-2" x1="48.23" y1="58.67" x2="51.04" y2="58.67"/><line class="cls-2" x1="49.61" y1="57.17" x2="49.61" y2="60.17"/><line class="cls-2" x1="21.45" y1="58.6" x2="24.26" y2="58.6"/><line class="cls-2" x1="22.82" y1="57.1" x2="22.82" y2="60.1"/><line class="cls-2" x1="21.45" y1="45.28" x2="24.26" y2="45.28"/><line class="cls-2" x1="22.82" y1="43.78" x2="22.82" y2="46.78"/><line class="cls-2" x1="34.84" y1="45.28" x2="37.65" y2="45.28"/><line class="cls-2" x1="36.22" y1="43.78" x2="36.22" y2="46.78"/><line class="cls-2" x1="48.28" y1="45.28" x2="51.09" y2="45.28"/><line class="cls-2" x1="49.65" y1="43.78" x2="49.65" y2="46.78"/><line class="cls-2" x1="34.85" y1="58.6" x2="37.66" y2="58.6"/><line class="cls-2" x1="36.23" y1="57.1" x2="36.23" y2="60.1"/><rect class="cls-1" x="-20.86" y="62.14" width="80.56" height="80.5"/><line class="cls-2" x1="1.2" y1="78.76" x2="4.02" y2="78.76"/><line class="cls-2" x1="2.58" y1="77.26" x2="2.58" y2="80.26"/><line class="cls-2" x1="14.62" y1="78.76" x2="17.43" y2="78.76"/><line class="cls-2" x1="16" y1="77.26" x2="16" y2="80.26"/><line class="cls-2" x1="14.62" y1="65.45" x2="17.43" y2="65.45"/><line class="cls-2" x1="16" y1="63.95" x2="16" y2="66.95"/><line class="cls-2" x1="1.23" y1="65.45" x2="4.04" y2="65.45"/><line class="cls-2" x1="2.6" y1="63.95" x2="2.6" y2="66.95"/><line class="cls-2" x1="7.92" y1="72.15" x2="10.74" y2="72.15"/><line class="cls-2" x1="9.3" y1="70.65" x2="9.3" y2="73.65"/><line class="cls-2" x1="28.08" y1="65.39" x2="30.89" y2="65.39"/><line class="cls-2" x1="29.45" y1="63.89" x2="29.45" y2="66.89"/><line class="cls-2" x1="28.08" y1="78.76" x2="30.89" y2="78.76"/><line class="cls-2" x1="29.45" y1="77.26" x2="29.45" y2="80.26"/><line class="cls-2" x1="41.51" y1="78.76" x2="44.33" y2="78.76"/><line class="cls-2" x1="42.89" y1="77.26" x2="42.89" y2="80.26"/><line class="cls-2" x1="54.93" y1="78.76" x2="57.74" y2="78.76"/><line class="cls-2" x1="56.31" y1="77.26" x2="56.31" y2="80.26"/><line class="cls-2" x1="54.93" y1="65.45" x2="57.74" y2="65.45"/><line class="cls-2" x1="56.31" y1="63.95" x2="56.31" y2="66.95"/><line class="cls-2" x1="41.53" y1="65.45" x2="44.35" y2="65.45"/><line class="cls-2" x1="42.91" y1="63.95" x2="42.91" y2="66.95"/><line class="cls-2" x1="48.23" y1="72.15" x2="51.04" y2="72.15"/><line class="cls-2" x1="49.61" y1="70.65" x2="49.61" y2="73.65"/><line class="cls-2" x1="21.45" y1="72.07" x2="24.26" y2="72.07"/><line class="cls-2" x1="22.82" y1="70.57" x2="22.82" y2="73.57"/><line class="cls-2" x1="34.85" y1="72.07" x2="37.66" y2="72.07"/><line class="cls-2" x1="36.23" y1="70.57" x2="36.23" y2="73.57"/><rect class="cls-1" width="80.5" height="80.5"/></svg>