<svg id="Layer_1" data-name="Layer 1" xmlns="http://www.w3.org/2000/svg" width="80.56" height="80.5" viewBox="0 0 80.56 80.5"><defs><style>.cls-1,.cls-2{fill:none;}.cls-2{stroke:#000;stroke-width:0.3px;}</style></defs><title>Artboard 37</title><rect class="cls-1" x="38.12" y="-14.46" width="80.56" height="80.5"/><line class="cls-2" x1="40.58" y1="-0.73" x2="39.27" y2="0.73"/><line class="cls-2" x1="50.44" y1="-1.63" x2="49.61" y2="0.15"/><line class="cls-2" x1="44.37" y1="56.65" x2="45.65" y2="58.14"/><line class="cls-2" x1="58.99" y1="0.91" x2="57.33" y2="1.77"/><line class="cls-2" x1="52.58" y1="30.27" x2="50.91" y2="31.13"/><line class="cls-2" x1="65.83" y1="0.52" x2="63.95" y2="0.16"/><line class="cls-2" x1="67.54" y1="2.19" x2="67.62" y2="4.15"/><line class="cls-2" x1="77.54" y1="5.94" x2="77.62" y2="7.9"/><line class="cls-2" x1="45.62" y1="1.43" x2="43.85" y2="0.8"/><line class="cls-2" x1="48.58" y1="7.27" x2="47.56" y2="5.65"/><line class="cls-2" x1="55.12" y1="5.15" x2="53.89" y2="6.68"/><line class="cls-2" x1="71.86" y1="3.38" x2="70.62" y2="4.9"/><line class="cls-2" x1="53.09" y1="9.3" x2="51.22" y2="9.4"/><line class="cls-2" x1="56.37" y1="13.4" x2="54.81" y2="12.3"/><line class="cls-2" x1="49.05" y1="11.35" x2="48.84" y2="13.3"/><line class="cls-2" x1="46.94" y1="18" x2="45.7" y2="19.52"/><line class="cls-2" x1="45.22" y1="15.36" x2="43.35" y2="15.46"/><line class="cls-2" x1="51.89" y1="20.38" x2="50.33" y2="19.27"/><line class="cls-2" x1="53.81" y1="3.67" x2="52.03" y2="2.97"/><line class="cls-2" x1="43.83" y1="5.02" x2="41.96" y2="5.42"/><line class="cls-2" x1="72.87" y1="7.72" x2="74.12" y2="9.4"/><line class="cls-2" x1="53.47" y1="15.15" x2="52.16" y2="16.61"/><line class="cls-2" x1="64.45" y1="17.13" x2="63.14" y2="18.59"/><line class="cls-2" x1="40.33" y1="12.77" x2="39.02" y2="14.23"/><line class="cls-2" x1="68.33" y1="12.28" x2="70.37" y2="11.9"/><line class="cls-2" x1="68.33" y1="15.27" x2="66.45" y2="15.27"/><line class="cls-2" x1="64.62" y1="6.4" x2="63.68" y2="8.24"/><line class="cls-2" x1="64.52" y1="13.02" x2="63.14" y2="11.77"/><line class="cls-2" x1="61.12" y1="5.9" x2="59.75" y2="4.65"/><line class="cls-2" x1="73.77" y1="18.84" x2="72.27" y2="17.65"/><line class="cls-2" x1="70.02" y1="16.72" x2="69.19" y2="18.5"/><line class="cls-2" x1="79.7" y1="12.38" x2="78.87" y2="14.15"/><line class="cls-2" x1="64.37" y1="21.55" x2="62.6" y2="20.93"/><line class="cls-2" x1="66.58" y1="28.02" x2="65.56" y2="26.4"/><line class="cls-2" x1="75.87" y1="25.15" x2="74.64" y2="26.68"/><line class="cls-2" x1="71.84" y1="29.43" x2="69.97" y2="29.52"/><line class="cls-2" x1="75.14" y1="32.88" x2="73.58" y2="31.77"/><line class="cls-2" x1="65.12" y1="36.9" x2="63.89" y2="38.43"/><line class="cls-2" x1="52.36" y1="39.88" x2="51.12" y2="41.4"/><line class="cls-2" x1="72.65" y1="22.7" x2="70.78" y2="23.09"/><line class="cls-2" x1="58.83" y1="9.52" x2="60.89" y2="9.96"/><line class="cls-2" x1="68.39" y1="36.96" x2="68.12" y2="38.9"/><line class="cls-2" x1="80" y1="39.65" x2="78.12" y2="39.65"/><line class="cls-2" x1="77.56" y1="34.32" x2="76.62" y2="36.15"/><line class="cls-2" x1="75.81" y1="61.9" x2="75.39" y2="60.04"/><line class="cls-2" x1="77.66" y1="50.34" x2="78.13" y2="52.24"/><line class="cls-2" x1="57.9" y1="50.25" x2="58.37" y2="52.15"/><line class="cls-2" x1="77.18" y1="48.13" x2="75.42" y2="47.5"/><line class="cls-2" x1="46.91" y1="38.85" x2="47.36" y2="37.03"/><line class="cls-2" x1="74.01" y1="50.8" x2="72.21" y2="51.31"/><line class="cls-2" x1="82.16" y1="55.55" x2="80.29" y2="55.65"/><line class="cls-2" x1="45.83" y1="23.27" x2="44.27" y2="22.17"/><line class="cls-2" x1="78.05" y1="64.05" x2="76.81" y2="65.58"/><line class="cls-2" x1="67.81" y1="56" x2="66.22" y2="57"/><line class="cls-2" x1="78.93" y1="58.26" x2="77.37" y2="57.15"/><line class="cls-2" x1="80.45" y1="30.83" x2="82.39" y2="31.64"/><line class="cls-2" x1="70.56" y1="35.22" x2="72.62" y2="35.65"/><line class="cls-2" x1="78.62" y1="17.65" x2="79.87" y2="19.34"/><line class="cls-2" x1="73.26" y1="65.08" x2="71.76" y2="63.96"/><line class="cls-2" x1="60.37" y1="34.65" x2="58.81" y2="33.55"/><line class="cls-2" x1="78.37" y1="44.65" x2="77.36" y2="43.03"/><line class="cls-2" x1="40.7" y1="26.41" x2="41.95" y2="28.1"/><line class="cls-2" x1="40.63" y1="30.64" x2="39.32" y2="32.1"/><line class="cls-2" x1="44.28" y1="29.85" x2="46.32" y2="29.47"/><line class="cls-2" x1="42.87" y1="39.24" x2="41.37" y2="38.05"/><line class="cls-2" x1="46.68" y1="32.02" x2="45.85" y2="33.79"/><line class="cls-2" x1="76.12" y1="21.9" x2="75.67" y2="20.08"/><line class="cls-2" x1="41.08" y1="19.52" x2="40.06" y2="17.9"/><line class="cls-2" x1="66.23" y1="44.92" x2="64.51" y2="45.77"/><line class="cls-2" x1="39.42" y1="4.55" x2="40.3" y2="6.3"/><line class="cls-2" x1="45.33" y1="10.36" x2="43.43" y2="10.15"/><line class="cls-2" x1="42.87" y1="44.15" x2="41.64" y2="45.68"/><line class="cls-2" x1="40.46" y1="48.38" x2="38.59" y2="48.47"/><line class="cls-2" x1="41.91" y1="53.62" x2="40.35" y2="52.52"/><line class="cls-2" x1="41.33" y1="56.27" x2="40.09" y2="57.8"/><line class="cls-2" x1="41.82" y1="64.16" x2="40.59" y2="65.68"/><line class="cls-2" x1="40.11" y1="61.52" x2="38.23" y2="61.62"/><line class="cls-2" x1="48.15" y1="65.12" x2="46.59" y2="64.02"/><line class="cls-2" x1="41.27" y1="41.65" x2="39.39" y2="42.04"/><line class="cls-2" x1="56.33" y1="31.77" x2="55.5" y2="33.55"/><line class="cls-2" x1="51.33" y1="34.77" x2="49.56" y2="34.15"/><line class="cls-2" x1="70.62" y1="26.15" x2="68.86" y2="25.53"/><line class="cls-2" x1="57.29" y1="41.24" x2="56.27" y2="39.62"/><line class="cls-2" x1="61.57" y1="38.26" x2="59.69" y2="38.65"/><line class="cls-2" x1="57.01" y1="16.95" x2="56.87" y2="18.9"/><line class="cls-2" x1="50.62" y1="24.15" x2="48.75" y2="24.2"/><line class="cls-2" x1="56.36" y1="27.92" x2="54.83" y2="26.77"/><line class="cls-2" x1="59.59" y1="21.33" x2="57.98" y2="22.37"/><line class="cls-2" x1="63.37" y1="32.4" x2="61.77" y2="33.44"/><line class="cls-2" x1="73.53" y1="38.05" x2="72.54" y2="39.74"/><line class="cls-2" x1="62.62" y1="24.15" x2="61.63" y2="25.85"/><line class="cls-2" x1="67.87" y1="42.65" x2="66.17" y2="41.87"/><line class="cls-2" x1="71.77" y1="46.4" x2="70.91" y2="44.7"/><line class="cls-2" x1="59.45" y1="46.53" x2="60.7" y2="48.22"/><line class="cls-2" x1="76.47" y1="53.73" x2="75.16" y2="55.19"/><line class="cls-2" x1="71.68" y1="59.65" x2="70.37" y2="61.11"/><line class="cls-2" x1="63.03" y1="49.97" x2="65.07" y2="49.6"/><line class="cls-2" x1="45.63" y1="53.85" x2="46.98" y2="52.27"/><line class="cls-2" x1="55.7" y1="54.35" x2="53.82" y2="54.35"/><line class="cls-2" x1="50.62" y1="45.15" x2="49.68" y2="46.99"/><line class="cls-2" x1="51.88" y1="52.1" x2="50.51" y2="50.85"/><line class="cls-2" x1="64.08" y1="60.02" x2="62.58" y2="58.84"/><line class="cls-2" x1="57.39" y1="55.79" x2="56.56" y2="57.57"/><line class="cls-2" x1="69.16" y1="52" x2="68.33" y2="53.77"/><line class="cls-2" x1="50.26" y1="58.99" x2="48.84" y2="60.21"/><line class="cls-2" x1="55.67" y1="65.81" x2="54.65" y2="64.18"/><line class="cls-2" x1="63.33" y1="64.19" x2="62.09" y2="65.71"/><line class="cls-2" x1="60.04" y1="61.13" x2="58.16" y2="61.52"/><line class="cls-2" x1="53.76" y1="43.97" x2="55.7" y2="44.78"/><line class="cls-2" x1="46.13" y1="47.85" x2="48.2" y2="48.28"/><line class="cls-2" x1="72.36" y1="1.17" x2="70.59" y2="0.54"/><line class="cls-2" x1="76.23" y1="12.48" x2="74.5" y2="11.75"/><line class="cls-2" x1="80.64" y1="2.32" x2="78.77" y2="2.71"/><polyline class="cls-2" points="75.86 1.5 76.14 3.5 74.23 2.86"/><polyline class="cls-2" points="61.75 0.57 62.77 2.31 60.75 2.44"/><polyline class="cls-2" points="53.71 60.22 54.73 61.96 52.71 62.09"/><polyline class="cls-2" points="55.22 22.06 55.45 24.07 53.55 23.38"/><polyline class="cls-2" points="80.72 59.55 80.95 61.55 79.05 60.87"/><polyline class="cls-2" points="41.88 24.89 40.04 24.07 41.6 22.78"/><polyline class="cls-2" points="69.55 9.23 67.58 8.81 68.83 7.23"/><polyline class="cls-2" points="74.34 16.44 75.45 14.75 76.47 16.5"/><polyline class="cls-2" points="68.08 30.92 68.14 32.94 66.31 32.09"/><polyline class="cls-2" points="54.61 9.72 56.27 8.56 56.56 10.56"/><polyline class="cls-2" points="47.26 14.65 48.95 15.75 47.22 16.78"/><polyline class="cls-2" points="67.7 47.72 69.39 48.81 67.65 49.84"/><polyline class="cls-2" points="62.67 15.32 61.08 16.57 60.68 14.59"/><polyline class="cls-2" points="40.74 33.36 40.64 35.38 38.88 34.39"/><polyline class="cls-2" points="47.14 43.48 45.18 42.99 46.49 41.46"/><polyline class="cls-2" points="55.55 49.92 53.83 48.88 55.53 47.8"/><polyline class="cls-2" points="59.95 42.07 61.94 41.72 61.37 43.65"/><polyline class="cls-2" points="42.4 47.62 43.39 49.38 41.38 49.49"/><polyline class="cls-2" points="76.18 29.03 77.71 27.71 78.21 29.66"/><polyline class="cls-2" points="59.33 29.75 59.87 27.81 61.37 29.15"/><polyline class="cls-2" points="71.33 57.75 71.87 55.81 73.37 57.15"/><polyline class="cls-2" points="79.88 23.22 81.27 21.75 81.96 23.65"/><polyline class="cls-2" points="47.59 26.72 49.52 27.32 48.13 28.78"/><polyline class="cls-2" points="61.46 54.47 63.39 55.06 62 56.53"/><polyline class="cls-2" points="46.69 2.03 48.7 2 47.83 3.82"/><polyline class="cls-2" points="39.69 8.03 41.7 8 40.83 9.82"/><polyline class="cls-2" points="55.2 35.17 55.89 37.06 53.89 36.83"/><polyline class="cls-2" points="74.78 43.45 72.77 43.31 73.78 41.57"/><polyline class="cls-2" points="68.06 63.25 66.04 63.12 67.06 61.38"/><polyline class="cls-2" points="44.69 61.87 42.67 61.74 43.69 59.99"/><polyline class="cls-2" points="69.09 22.66 67.08 22.82 67.83 20.94"/><polyline class="cls-2" points="50.9 56.47 48.89 56.63 49.65 54.76"/><rect class="cls-1" x="38.12" y="66.04" width="80.56" height="80.5"/><line class="cls-2" x1="54.97" y1="68.81" x2="53.69" y2="70.47"/><line class="cls-2" x1="49.49" y1="73.27" x2="49.7" y2="71.32"/><line class="cls-2" x1="45.7" y1="77.5" x2="44.39" y2="78.96"/><line class="cls-2" x1="40.58" y1="79.77" x2="39.27" y2="81.23"/><line class="cls-2" x1="57.85" y1="72.38" x2="59.89" y2="72"/><line class="cls-2" x1="49.58" y1="75.65" x2="47.7" y2="75.65"/><line class="cls-2" x1="45.77" y1="67.63" x2="44.83" y2="69.46"/><line class="cls-2" x1="45.77" y1="73.4" x2="44.39" y2="72.15"/><line class="cls-2" x1="55.02" y1="79.21" x2="53.52" y2="78.02"/><line class="cls-2" x1="50.44" y1="78.87" x2="49.61" y2="80.65"/><line class="cls-2" x1="63.18" y1="76.83" x2="61.45" y2="77.66"/><line class="cls-2" x1="59.12" y1="76.18" x2="58.29" y2="77.96"/><line class="cls-2" x1="65.08" y1="74.27" x2="64.09" y2="72.68"/><line class="cls-2" x1="40.08" y1="69.9" x2="42.14" y2="70.34"/><line class="cls-2" x1="80.07" y1="67.58" x2="81.32" y2="69.27"/><line class="cls-2" x1="80.37" y1="72.4" x2="79.06" y2="73.86"/><line class="cls-2" x1="72.44" y1="77.25" x2="71.13" y2="78.7"/><line class="cls-2" x1="76.32" y1="75.39" x2="74.44" y2="75.39"/><line class="cls-2" x1="68.94" y1="66.97" x2="69.56" y2="68.94"/><line class="cls-2" x1="72.51" y1="73.14" x2="71.13" y2="71.89"/><line class="cls-2" x1="78.01" y1="76.84" x2="77.18" y2="78.61"/><line class="cls-2" x1="64.66" y1="69.36" x2="66.6" y2="70.17"/><polyline class="cls-2" points="59.44 69.61 58.81 67.69 60.81 67.98"/><polyline class="cls-2" points="67.64 75 69.39 76 67.71 77.12"/><polyline class="cls-2" points="55.12 74.42 53.95 76.06 53 74.28"/><polyline class="cls-2" points="82.62 76.15 81.03 77.39 80.63 75.41"/><polyline class="cls-2" points="73.41 70.1 74.93 68.77 75.44 70.73"/><polyline class="cls-2" points="41.43 74.89 42.2 76.75 40.19 76.62"/><polyline class="cls-2" points="49.35 68.46 50.16 66.61 51.46 68.15"/><rect class="cls-1" x="-42.44" y="-14.46" width="80.56" height="80.5"/><line class="cls-2" x1="6.27" y1="-0.73" x2="8.21" y2="0.09"/><line class="cls-2" x1="5.24" y1="34.11" x2="5.3" y2="36.2"/><line class="cls-2" x1="8.68" y1="37.99" x2="10.73" y2="37.62"/><line class="cls-2" x1="15.15" y1="43.52" x2="13.27" y2="43.52"/><line class="cls-2" x1="9.81" y1="44.15" x2="8.31" y2="42.97"/><line class="cls-2" x1="1.56" y1="42.65" x2="0.73" y2="44.43"/><line class="cls-2" x1="34.92" y1="32.06" x2="36.3" y2="33.45"/><line class="cls-2" x1="18.14" y1="39.13" x2="17.31" y2="40.9"/><line class="cls-2" x1="2.81" y1="52.15" x2="3.83" y2="50.53"/><line class="cls-2" x1="1.6" y1="55.55" x2="-0.27" y2="55.65"/><line class="cls-2" x1="9.27" y1="59.52" x2="7.71" y2="58.42"/><line class="cls-2" x1="3.56" y1="57.4" x2="2.33" y2="58.93"/><line class="cls-2" x1="11.25" y1="62.25" x2="10.02" y2="63.77"/><line class="cls-2" x1="4.5" y1="64.97" x2="2.94" y2="63.87"/><line class="cls-2" x1="23.17" y1="46.16" x2="21.93" y2="47.62"/><line class="cls-2" x1="7.81" y1="51.65" x2="5.94" y2="52.05"/><line class="cls-2" x1="-0.11" y1="30.83" x2="1.83" y2="31.64"/><line class="cls-2" x1="11.64" y1="56.47" x2="12.89" y2="58.16"/><line class="cls-2" x1="24.27" y1="57.74" x2="22.95" y2="59.2"/><line class="cls-2" x1="17.06" y1="64.15" x2="15.75" y2="65.61"/><line class="cls-2" x1="27.56" y1="58.15" x2="29.46" y2="57.3"/><line class="cls-2" x1="20.58" y1="61.33" x2="18.7" y2="61.33"/><line class="cls-2" x1="17.06" y1="53.9" x2="16.13" y2="55.74"/><line class="cls-2" x1="18.52" y1="59.02" x2="17.15" y2="57.77"/><line class="cls-2" x1="26.02" y1="65.83" x2="24.52" y2="64.64"/><line class="cls-2" x1="22.27" y1="62.77" x2="21.44" y2="64.55"/><line class="cls-2" x1="31.06" y1="58.4" x2="31.53" y2="60.31"/><line class="cls-2" x1="35.19" y1="59.09" x2="33.95" y2="60.5"/><line class="cls-2" x1="7.69" y1="61.11" x2="7.22" y2="62.93"/><line class="cls-2" x1="36.78" y1="56.94" x2="35.22" y2="55.83"/><line class="cls-2" x1="30.66" y1="62.41" x2="28.9" y2="63.16"/><line class="cls-2" x1="3.75" y1="45.97" x2="5.81" y2="46.4"/><line class="cls-2" x1="17.99" y1="47.81" x2="18.79" y2="46.02"/><line class="cls-2" x1="9.46" y1="49.65" x2="9.64" y2="47.75"/><line class="cls-2" x1="4.02" y1="14.02" x2="4.2" y2="12.12"/><line class="cls-2" x1="11.52" y1="1.77" x2="11.7" y2="-0.13"/><line class="cls-2" x1="18.14" y1="6.91" x2="19.39" y2="8.6"/><line class="cls-2" x1="18.08" y1="11.14" x2="16.76" y2="12.6"/><line class="cls-2" x1="10.51" y1="16.58" x2="9.2" y2="18.03"/><line class="cls-2" x1="4.56" y1="18.9" x2="3.25" y2="20.36"/><line class="cls-2" x1="21.72" y1="10.35" x2="23.76" y2="9.97"/><line class="cls-2" x1="14.39" y1="14.72" x2="12.51" y2="14.72"/><line class="cls-2" x1="10.58" y1="6.7" x2="9.64" y2="8.53"/><line class="cls-2" x1="10.58" y1="12.47" x2="9.2" y2="11.22"/><line class="cls-2" x1="19.83" y1="18.28" x2="18.33" y2="17.1"/><line class="cls-2" x1="15.25" y1="17.95" x2="14.42" y2="19.72"/><line class="cls-2" x1="26.97" y1="12.07" x2="26.14" y2="13.85"/><line class="cls-2" x1="10.43" y1="21" x2="8.66" y2="20.38"/><line class="cls-2" x1="14.36" y1="26.18" x2="13.34" y2="24.56"/><line class="cls-2" x1="22.3" y1="21.63" x2="21.06" y2="23.15"/><line class="cls-2" x1="17.9" y1="28.88" x2="16.03" y2="28.97"/><line class="cls-2" x1="21.56" y1="32.66" x2="20.54" y2="31.04"/><line class="cls-2" x1="14.5" y1="30" x2="13.27" y2="31.52"/><line class="cls-2" x1="13.31" y1="39.65" x2="12.08" y2="41.18"/><line class="cls-2" x1="9.81" y1="33.19" x2="9.34" y2="31.37"/><line class="cls-2" x1="19.02" y1="35.77" x2="17.46" y2="34.67"/><line class="cls-2" x1="18.71" y1="22.15" x2="16.83" y2="22.54"/><line class="cls-2" x1="26.64" y1="24.96" x2="24.77" y2="25.35"/><line class="cls-2" x1="12.45" y1="4.35" x2="14.39" y2="5.16"/><line class="cls-2" x1="4.89" y1="8.97" x2="6.95" y2="9.41"/><line class="cls-2" x1="37.68" y1="25.85" x2="35.91" y2="26.98"/><line class="cls-2" x1="30.6" y1="36.95" x2="29.28" y2="38.41"/><line class="cls-2" x1="34.33" y1="35.26" x2="32.45" y2="35.26"/><line class="cls-2" x1="29.33" y1="26.83" x2="28.39" y2="28.66"/><line class="cls-2" x1="29.33" y1="32.6" x2="27.95" y2="31.35"/><line class="cls-2" x1="26.44" y1="44.65" x2="25.06" y2="43.4"/><line class="cls-2" x1="35.62" y1="38.48" x2="36.95" y2="37.1"/><line class="cls-2" x1="31.2" y1="41.75" x2="30.37" y2="43.53"/><line class="cls-2" x1="27.79" y1="41.9" x2="26.02" y2="41.27"/><line class="cls-2" x1="34" y1="48.58" x2="32.99" y2="46.96"/><line class="cls-2" x1="30.07" y1="46.15" x2="28.15" y2="46.56"/><line class="cls-2" x1="22.83" y1="37" x2="21.6" y2="38.52"/><line class="cls-2" x1="36.84" y1="50" x2="35.89" y2="51.62"/><line class="cls-2" x1="24.69" y1="52.8" x2="22.81" y2="52.9"/><line class="cls-2" x1="30.27" y1="50.4" x2="28.71" y2="49.29"/><line class="cls-2" x1="14.06" y1="52.9" x2="12.5" y2="51.8"/><line class="cls-2" x1="28.56" y1="53.15" x2="27.33" y2="54.68"/><line class="cls-2" x1="36.71" y1="45.35" x2="35.11" y2="44.31"/><line class="cls-2" x1="31.2" y1="24.47" x2="33.14" y2="25.28"/><line class="cls-2" x1="23.64" y1="29.1" x2="25.7" y2="29.53"/><line class="cls-2" x1="35.41" y1="12.69" x2="36.77" y2="14.1"/><line class="cls-2" x1="22.94" y1="5.67" x2="24.3" y2="4.33"/><line class="cls-2" x1="2.06" y1="27.15" x2="1.05" y2="25.53"/><line class="cls-2" x1="6.16" y1="22.5" x2="7.03" y2="24.25"/><line class="cls-2" x1="6.4" y1="30.16" x2="4.81" y2="31.15"/><line class="cls-2" x1="25.36" y1="17.78" x2="23.77" y2="18.77"/><line class="cls-2" x1="12.06" y1="28.3" x2="10.16" y2="28.1"/><line class="cls-2" x1="20.08" y1="51.03" x2="18.31" y2="50.4"/><line class="cls-2" x1="16.27" y1="0.27" x2="14.9" y2="-0.98"/><line class="cls-2" x1="34.26" y1="-1.63" x2="33.42" y2="0.15"/><line class="cls-2" x1="29.43" y1="1.43" x2="27.67" y2="0.8"/><line class="cls-2" x1="33.37" y1="6.61" x2="32.35" y2="4.98"/><line class="cls-2" x1="36.91" y1="9.3" x2="35.04" y2="9.4"/><line class="cls-2" x1="32.53" y1="11.59" x2="31.3" y2="13.12"/><line class="cls-2" x1="31.55" y1="19.13" x2="30.31" y2="20.65"/><line class="cls-2" x1="29.04" y1="15.36" x2="27.16" y2="15.46"/><line class="cls-2" x1="33.09" y1="17.53" x2="31.53" y2="16.42"/><line class="cls-2" x1="36.99" y1="2.95" x2="35.11" y2="3.34"/><line class="cls-2" x1="36.34" y1="22.03" x2="34.47" y2="22.42"/><line class="cls-2" x1="4.06" y1="1.15" x2="2.56" y2="-0.03"/><line class="cls-2" x1="2.77" y1="5.27" x2="1.54" y2="6.8"/><line class="cls-2" x1="2.19" y1="16.44" x2="0.31" y2="16.54"/><line class="cls-2" x1="0.08" y1="2.32" x2="-1.79" y2="2.71"/><line class="cls-2" x1="29.41" y1="4.61" x2="27.54" y2="4.71"/><line class="cls-2" x1="24.4" y1="0.2" x2="22.84" y2="-0.91"/><polyline class="cls-2" points="15.17 8.19 16.18 9.94 14.17 10.07"/><polyline class="cls-2" points="26.63 20.76 27.64 22.5 25.63 22.63"/><polyline class="cls-2" points="2.13 47.26 3.15 49 1.13 49.13"/><polyline class="cls-2" points="28.51 8.06 28.75 10.07 26.84 9.39"/><polyline class="cls-2" points="0.16 59.55 0.4 61.55 -1.51 60.87"/><polyline class="cls-2" points="20.32 25.15 20.56 27.15 18.66 26.47"/><polyline class="cls-2" points="21.16 14 21.39 16 19.49 15.32"/><polyline class="cls-2" points="6.33 14.4 6.56 16.4 4.66 15.72"/><polyline class="cls-2" points="26.84 60.98 26.89 63 25.06 62.15"/><polyline class="cls-2" points="34.4 1.5 32.8 2.74 32.4 0.76"/><polyline class="cls-2" points="8.61 26.78 7.02 28.02 6.62 26.04"/><polyline class="cls-2" points="6.91 39.89 6.81 41.9 5.05 40.92"/><polyline class="cls-2" points="15.31 62.65 13.36 62.16 14.67 60.63"/><polyline class="cls-2" points="33.54 54.45 31.81 53.4 33.52 52.33"/><polyline class="cls-2" points="14.87 36.55 13.14 35.5 14.85 34.42"/><polyline class="cls-2" points="36.82 18.52 35.65 16.88 37.64 16.55"/><polyline class="cls-2" points="36.1 41.95 34.1 42.23 34.74 40.31"/><polyline class="cls-2" points="23.55 49.62 25.08 48.3 25.58 50.25"/><polyline class="cls-2" points="12.68 22.82 14.21 21.5 14.71 23.46"/><polyline class="cls-2" points="0.14 9.75 1.67 8.43 2.17 10.38"/><polyline class="cls-2" points="18.86 3.5 19.39 1.55 20.89 2.9"/><polyline class="cls-2" points="-0.68 23.22 0.71 21.75 1.4 23.65"/><polyline class="cls-2" points="5.96 54.66 7.89 55.25 6.5 56.72"/><polyline class="cls-2" points="33.34 63.27 35.27 63.86 33.88 65.32"/><polyline class="cls-2" points="25.96 34.1 26.64 36 24.64 35.77"/><polyline class="cls-2" points="21.21 40.88 21.89 42.77 19.89 42.54"/><polyline class="cls-2" points="14.91 48.88 12.89 48.75 13.91 47.01"/><polyline class="cls-2" points="7.56 4.9 5.55 5.06 6.31 3.19"/><polyline class="cls-2" points="34.65 29.5 32.63 29.66 33.39 27.79"/><polyline class="cls-2" points="22.81 56.04 20.8 56.19 21.55 54.32"/><polyline class="cls-2" points="0.35 34.93 2.31 35.4 1.02 36.95"/><rect class="cls-1" x="-42.44" y="66.04" width="80.56" height="80.5"/><line class="cls-2" x1="6.27" y1="79.77" x2="8.21" y2="80.59"/><line class="cls-2" x1="21.27" y1="73.02" x2="20.25" y2="71.45"/><line class="cls-2" x1="11.52" y1="82.27" x2="11.7" y2="80.37"/><line class="cls-2" x1="14.85" y1="68.95" x2="13.5" y2="67.65"/><line class="cls-2" x1="19.27" y1="76.52" x2="21.33" y2="76.96"/><line class="cls-2" x1="11.77" y1="71.02" x2="10.46" y2="72.48"/><line class="cls-2" x1="16.38" y1="72.37" x2="15.44" y2="74.2"/><line class="cls-2" x1="16.27" y1="80.77" x2="14.9" y2="79.52"/><line class="cls-2" x1="7.21" y1="76.34" x2="9.27" y2="76.77"/><line class="cls-2" x1="36.58" y1="67.4" x2="37.83" y2="69.09"/><line class="cls-2" x1="37.85" y1="72.84" x2="36.54" y2="74.29"/><line class="cls-2" x1="29.52" y1="77.5" x2="28.21" y2="78.96"/><line class="cls-2" x1="33.4" y1="75.65" x2="31.52" y2="75.65"/><line class="cls-2" x1="29.02" y1="67.06" x2="28.08" y2="68.89"/><line class="cls-2" x1="29.58" y1="73.4" x2="28.21" y2="72.15"/><line class="cls-2" x1="37.71" y1="78.15" x2="36.21" y2="76.96"/><line class="cls-2" x1="34.26" y1="78.87" x2="33.42" y2="80.65"/><line class="cls-2" x1="32.15" y1="67.82" x2="34.08" y2="68.63"/><line class="cls-2" x1="23.9" y1="69.9" x2="25.96" y2="70.34"/><line class="cls-2" x1="-0.49" y1="67.58" x2="0.76" y2="69.27"/><line class="cls-2" x1="3.09" y1="71.02" x2="5.14" y2="70.64"/><line class="cls-2" x1="4.06" y1="81.65" x2="2.56" y2="80.47"/><line class="cls-2" x1="5.06" y1="73.9" x2="4.23" y2="75.68"/><line class="cls-2" x1="24.4" y1="80.7" x2="22.84" y2="79.59"/><polyline class="cls-2" points="12.49 75.34 14.24 76.34 12.56 77.46"/><polyline class="cls-2" points="8.09 67.23 8.14 69.25 6.31 68.4"/><polyline class="cls-2" points="2.06 76.15 0.47 77.39 0.07 75.41"/><polyline class="cls-2" points="18.96 67.66 20.89 68.25 19.5 69.72"/><polyline class="cls-2" points="34.28 72.53 32.4 73.27 32.58 71.26"/><polyline class="cls-2" points="26.53 76.75 24.52 76.91 25.27 75.04"/><rect class="cls-1" width="80.56" height="80.56"/></svg>