<!-- Generator: Adobe Illustrator 22.1.0, SVG Export Plug-In  -->
<svg version="1.1"
     xmlns="http://www.w3.org/2000/svg" xmlns:xlink="http://www.w3.org/1999/xlink" xmlns:a="http://ns.adobe.com/AdobeSVGViewerExtensions/3.0/"
     x="0px" y="0px" width="80.3px" height="80.1px" viewBox="0 0 80.3 80.1" style="enable-background:new 0 0 80.3 80.1;"
     xml:space="preserve">
<style type="text/css">
    .st0{fill:none;stroke:#000000;stroke-width:0.3;}
</style>
<defs>
</defs>
<line class="st0" x1="16.7" y1="2.5" x2="15.5" y2="4.1"/>
<line class="st0" x1="11.3" y1="6.9" x2="11.5" y2="5"/>
<line class="st0" x1="7.5" y1="11.2" x2="6.2" y2="12.6"/>
<line class="st0" x1="2.4" y1="13.4" x2="1" y2="14.9"/>
<line class="st0" x1="19.6" y1="6.1" x2="21.7" y2="5.7"/>
<line class="st0" x1="11.4" y1="9.3" x2="9.5" y2="9.3"/>
<line class="st0" x1="7.5" y1="1.3" x2="6.6" y2="3.1"/>
<line class="st0" x1="7.5" y1="7.1" x2="6.2" y2="5.8"/>
<line class="st0" x1="16.8" y1="12.9" x2="15.3" y2="11.7"/>
<line class="st0" x1="12.2" y1="12.5" x2="11.4" y2="14.3"/>
<line class="st0" x1="6.1" y1="70.8" x2="7.4" y2="72.3"/>
<line class="st0" x1="20.8" y1="15.1" x2="19.1" y2="15.9"/>
<line class="st0" x1="14.4" y1="44.4" x2="12.7" y2="45.3"/>
<line class="st0" x1="27.6" y1="14.7" x2="25.7" y2="14.3"/>
<line class="st0" x1="25" y1="10.5" x2="23.2" y2="11.3"/>
<line class="st0" x1="29.3" y1="16.4" x2="29.4" y2="18.3"/>
<line class="st0" x1="39.3" y1="20.1" x2="39.4" y2="22.1"/>
<line class="st0" x1="20.9" y1="9.9" x2="20.1" y2="11.6"/>
<line class="st0" x1="7.4" y1="15.6" x2="5.6" y2="15"/>
<line class="st0" x1="26.9" y1="7.9" x2="25.9" y2="6.4"/>
<line class="st0" x1="10.4" y1="21.4" x2="9.3" y2="19.8"/>
<line class="st0" x1="16.9" y1="19.3" x2="15.7" y2="20.9"/>
<line class="st0" x1="33.6" y1="17.6" x2="32.4" y2="19.1"/>
<line class="st0" x1="14.9" y1="23.5" x2="13" y2="23.6"/>
<line class="st0" x1="18.1" y1="27.6" x2="16.6" y2="26.5"/>
<line class="st0" x1="10.8" y1="25.5" x2="10.6" y2="27.5"/>
<line class="st0" x1="8.7" y1="32.2" x2="7.5" y2="33.7"/>
<line class="st0" x1="7" y1="29.5" x2="5.1" y2="29.6"/>
<line class="st0" x1="13.7" y1="34.6" x2="12.1" y2="33.4"/>
<line class="st0" x1="15.6" y1="17.8" x2="13.8" y2="17.1"/>
<line class="st0" x1="5.6" y1="19.2" x2="3.7" y2="19.6"/>
<line class="st0" x1="48.6" y1="13.4" x2="50.5" y2="14.3"/>
<line class="st0" x1="1.9" y1="3.6" x2="3.9" y2="4"/>
<line class="st0" x1="34.6" y1="21.9" x2="35.9" y2="23.6"/>
<line class="st0" x1="15.2" y1="29.3" x2="13.9" y2="30.8"/>
<line class="st0" x1="26.2" y1="31.3" x2="24.9" y2="32.8"/>
<line class="st0" x1="2.1" y1="26.9" x2="0.8" y2="28.4"/>
<line class="st0" x1="30.1" y1="26.5" x2="32.1" y2="26.1"/>
<line class="st0" x1="30.1" y1="29.4" x2="28.2" y2="29.4"/>
<line class="st0" x1="26.4" y1="20.6" x2="25.5" y2="22.4"/>
<line class="st0" x1="26.3" y1="27.2" x2="24.9" y2="25.9"/>
<line class="st0" x1="22.9" y1="20.1" x2="21.5" y2="18.8"/>
<line class="st0" x1="35.5" y1="33" x2="34" y2="31.8"/>
<line class="st0" x1="31.8" y1="30.9" x2="31" y2="32.7"/>
<line class="st0" x1="41.5" y1="26.6" x2="40.6" y2="28.3"/>
<line class="st0" x1="26.1" y1="35.7" x2="24.4" y2="35.1"/>
<line class="st0" x1="28.4" y1="42.2" x2="27.3" y2="40.6"/>
<line class="st0" x1="37.6" y1="39.3" x2="36.4" y2="40.9"/>
<line class="st0" x1="33.6" y1="43.6" x2="31.7" y2="43.7"/>
<line class="st0" x1="36.9" y1="47.1" x2="35.4" y2="45.9"/>
<line class="st0" x1="26.9" y1="51.1" x2="25.7" y2="52.6"/>
<line class="st0" x1="14.1" y1="54.1" x2="12.9" y2="55.6"/>
<line class="st0" x1="34.4" y1="36.9" x2="32.6" y2="37.3"/>
<line class="st0" x1="20.6" y1="23.7" x2="22.7" y2="24.1"/>
<line class="st0" x1="47.6" y1="48.3" x2="47.6" y2="50.4"/>
<line class="st0" x1="30.2" y1="51.1" x2="29.9" y2="53.1"/>
<line class="st0" x1="51" y1="52.2" x2="53.1" y2="51.8"/>
<line class="st0" x1="41.8" y1="53.8" x2="39.9" y2="53.8"/>
<line class="st0" x1="57.5" y1="57.7" x2="55.6" y2="57.7"/>
<line class="st0" x1="39.3" y1="48.5" x2="38.4" y2="50.3"/>
<line class="st0" x1="52.1" y1="58.3" x2="50.6" y2="57.1"/>
<line class="st0" x1="37.6" y1="76.1" x2="37.2" y2="74.2"/>
<line class="st0" x1="43.9" y1="56.8" x2="43.1" y2="58.6"/>
<line class="st0" x1="77.3" y1="46.2" x2="78.6" y2="47.6"/>
<line class="st0" x1="39.4" y1="64.5" x2="39.9" y2="66.4"/>
<line class="st0" x1="19.7" y1="64.4" x2="20.1" y2="66.3"/>
<line class="st0" x1="60.5" y1="53.3" x2="59.6" y2="55.1"/>
<line class="st0" x1="39" y1="62.3" x2="37.2" y2="61.7"/>
<line class="st0" x1="8.7" y1="53" x2="9.1" y2="51.2"/>
<line class="st0" x1="35.8" y1="65" x2="34" y2="65.5"/>
<line class="st0" x1="45.1" y1="66.3" x2="46.2" y2="64.7"/>
<line class="st0" x1="43.9" y1="69.7" x2="42.1" y2="69.8"/>
<line class="st0" x1="51.6" y1="73.7" x2="50" y2="72.6"/>
<line class="st0" x1="7.6" y1="37.4" x2="6" y2="36.3"/>
<line class="st0" x1="45.9" y1="71.6" x2="44.7" y2="73.1"/>
<line class="st0" x1="53.6" y1="76.4" x2="52.4" y2="77.9"/>
<line class="st0" x1="39.8" y1="78.2" x2="38.6" y2="79.8"/>
<line class="st0" x1="29.6" y1="70.2" x2="28" y2="71.2"/>
<line class="st0" x1="46.8" y1="79.1" x2="45.3" y2="78"/>
<line class="st0" x1="40.7" y1="72.4" x2="39.1" y2="71.3"/>
<line class="st0" x1="65.5" y1="60.3" x2="64.3" y2="61.8"/>
<line class="st0" x1="50.1" y1="65.8" x2="48.3" y2="66.2"/>
<line class="st0" x1="42.2" y1="45" x2="44.2" y2="45.8"/>
<line class="st0" x1="32.3" y1="49.4" x2="34.4" y2="49.8"/>
<line class="st0" x1="54" y1="70.6" x2="55.2" y2="72.3"/>
<line class="st0" x1="40.4" y1="31.8" x2="41.6" y2="33.5"/>
<line class="st0" x1="66.6" y1="71.9" x2="65.3" y2="73.4"/>
<line class="st0" x1="59.4" y1="78.3" x2="58.1" y2="79.8"/>
<line class="st0" x1="69.9" y1="72.3" x2="71.8" y2="71.5"/>
<line class="st0" x1="62.9" y1="75.5" x2="61" y2="75.5"/>
<line class="st0" x1="59.4" y1="68.1" x2="58.5" y2="69.9"/>
<line class="st0" x1="60.9" y1="73.2" x2="59.5" y2="71.9"/>
<line class="st0" x1="68.4" y1="80" x2="66.9" y2="78.8"/>
<line class="st0" x1="64.6" y1="76.9" x2="63.8" y2="78.7"/>
<line class="st0" x1="73.4" y1="72.6" x2="73.9" y2="74.5"/>
<line class="st0" x1="77.5" y1="73.3" x2="76.3" y2="74.7"/>
<line class="st0" x1="50" y1="75.3" x2="49.5" y2="77.1"/>
<line class="st0" x1="35" y1="79.3" x2="33.5" y2="78.1"/>
<line class="st0" x1="79.1" y1="71.1" x2="77.6" y2="70"/>
<line class="st0" x1="73" y1="76.6" x2="71.2" y2="77.3"/>
<line class="st0" x1="46.1" y1="60.1" x2="48.1" y2="60.6"/>
<line class="st0" x1="60.3" y1="62" x2="61.1" y2="60.2"/>
<line class="st0" x1="63.6" y1="6.7" x2="62.6" y2="5.1"/>
<line class="st0" x1="51.8" y1="63.8" x2="52" y2="61.9"/>
<line class="st0" x1="46.4" y1="28.2" x2="46.5" y2="26.3"/>
<line class="st0" x1="53.9" y1="15.9" x2="54" y2="14"/>
<line class="st0" x1="60.5" y1="21.1" x2="61.7" y2="22.8"/>
<line class="st0" x1="60.4" y1="25.3" x2="59.1" y2="26.8"/>
<line class="st0" x1="52.8" y1="30.8" x2="51.5" y2="32.2"/>
<line class="st0" x1="46.9" y1="33.1" x2="45.6" y2="34.5"/>
<line class="st0" x1="64.1" y1="24.5" x2="66.1" y2="24.1"/>
<line class="st0" x1="56.7" y1="28.9" x2="54.8" y2="28.9"/>
<line class="st0" x1="52.9" y1="20.9" x2="52" y2="22.7"/>
<line class="st0" x1="52.9" y1="26.6" x2="51.5" y2="25.4"/>
<line class="st0" x1="62.2" y1="32.5" x2="60.7" y2="31.3"/>
<line class="st0" x1="57.6" y1="32.1" x2="56.8" y2="33.9"/>
<line class="st0" x1="69.3" y1="26.2" x2="68.5" y2="28"/>
<line class="st0" x1="52.8" y1="35.2" x2="51" y2="34.5"/>
<line class="st0" x1="57.2" y1="2.6" x2="55.8" y2="1.3"/>
<line class="st0" x1="56.7" y1="40.4" x2="55.7" y2="38.7"/>
<line class="st0" x1="64.6" y1="35.8" x2="63.4" y2="37.3"/>
<line class="st0" x1="60.2" y1="43.1" x2="58.4" y2="43.1"/>
<line class="st0" x1="63.9" y1="46.8" x2="62.9" y2="45.2"/>
<line class="st0" x1="56.8" y1="44.2" x2="55.6" y2="45.7"/>
<line class="st0" x1="55.6" y1="53.8" x2="54.4" y2="55.4"/>
<line class="st0" x1="52.1" y1="47.4" x2="51.7" y2="45.5"/>
<line class="st0" x1="61.4" y1="49.9" x2="59.8" y2="48.8"/>
<line class="st0" x1="22.1" y1="48.8" x2="20.6" y2="47.7"/>
<line class="st0" x1="61" y1="36.3" x2="59.2" y2="36.7"/>
<line class="st0" x1="69" y1="39.1" x2="67.1" y2="39.5"/>
<line class="st0" x1="54.8" y1="18.5" x2="56.7" y2="19.3"/>
<line class="st0" x1="47.2" y1="23.1" x2="49.3" y2="23.6"/>
<line class="st0" x1="61.6" y1="10.2" x2="63.7" y2="10.6"/>
<line class="st0" x1="80" y1="40" x2="78.2" y2="41.2"/>
<line class="st0" x1="54.1" y1="4.7" x2="52.8" y2="6.2"/>
<line class="st0" x1="72.9" y1="51.1" x2="71.6" y2="52.6"/>
<line class="st0" x1="76.7" y1="49.4" x2="74.8" y2="49.4"/>
<line class="st0" x1="71.7" y1="41" x2="70.7" y2="42.8"/>
<line class="st0" x1="71.7" y1="46.8" x2="70.3" y2="45.5"/>
<line class="st0" x1="68.8" y1="58.8" x2="67.4" y2="57.6"/>
<line class="st0" x1="78" y1="52.7" x2="79.3" y2="51.3"/>
<line class="st0" x1="73.5" y1="55.9" x2="72.7" y2="57.7"/>
<line class="st0" x1="70.1" y1="56.1" x2="68.4" y2="55.4"/>
<line class="st0" x1="76.3" y1="62.8" x2="75.3" y2="61.1"/>
<line class="st0" x1="40.1" y1="58.8" x2="39.1" y2="57.2"/>
<line class="st0" x1="72.4" y1="60.3" x2="70.5" y2="60.7"/>
<line class="st0" x1="65.2" y1="51.2" x2="63.9" y2="52.7"/>
<line class="st0" x1="79.2" y1="64.2" x2="78.2" y2="65.8"/>
<line class="st0" x1="67" y1="67" x2="65.1" y2="67.1"/>
<line class="st0" x1="72.6" y1="64.6" x2="71" y2="63.5"/>
<line class="st0" x1="56.4" y1="67.1" x2="54.8" y2="66"/>
<line class="st0" x1="70.9" y1="67.3" x2="69.7" y2="68.9"/>
<line class="st0" x1="79" y1="59.5" x2="77.4" y2="58.5"/>
<line class="st0" x1="73.5" y1="38.6" x2="75.5" y2="39.5"/>
<line class="st0" x1="66" y1="43.3" x2="68" y2="43.7"/>
<line class="st0" x1="77.7" y1="26.9" x2="79.1" y2="28.3"/>
<line class="st0" x1="65.3" y1="19.8" x2="66.6" y2="18.5"/>
<line class="st0" x1="2.5" y1="40.6" x2="3.7" y2="42.3"/>
<line class="st0" x1="2.4" y1="44.8" x2="1.1" y2="46.3"/>
<line class="st0" x1="6.1" y1="44" x2="8.1" y2="43.6"/>
<line class="st0" x1="4.6" y1="53.4" x2="3.1" y2="52.2"/>
<line class="st0" x1="8.5" y1="46.2" x2="7.6" y2="48"/>
<line class="st0" x1="37.9" y1="36.1" x2="37.4" y2="34.3"/>
<line class="st0" x1="44.4" y1="41.3" x2="43.4" y2="39.7"/>
<line class="st0" x1="2.9" y1="33.7" x2="1.8" y2="32.1"/>
<line class="st0" x1="48.5" y1="36.7" x2="49.4" y2="38.4"/>
<line class="st0" x1="48.7" y1="44.3" x2="47.1" y2="45.3"/>
<line class="st0" x1="67.7" y1="32" x2="66.1" y2="32.9"/>
<line class="st0" x1="54.4" y1="42.5" x2="52.5" y2="42.3"/>
<line class="st0" x1="28" y1="59.1" x2="26.3" y2="59.9"/>
<line class="st0" x1="1.2" y1="18.7" x2="2.1" y2="20.5"/>
<line class="st0" x1="7.1" y1="24.5" x2="5.2" y2="24.3"/>
<line class="st0" x1="4.6" y1="58.3" x2="3.4" y2="59.9"/>
<line class="st0" x1="2.2" y1="62.6" x2="0.4" y2="62.6"/>
<line class="st0" x1="3.7" y1="67.8" x2="2.1" y2="66.7"/>
<line class="st0" x1="3.1" y1="70.4" x2="1.9" y2="72"/>
<line class="st0" x1="3.6" y1="78.3" x2="2.4" y2="79.9"/>
<line class="st0" x1="1.9" y1="75.7" x2="0" y2="75.8"/>
<line class="st0" x1="9.9" y1="79.3" x2="8.4" y2="78.2"/>
<line class="st0" x1="3" y1="55.8" x2="1.2" y2="56.2"/>
<line class="st0" x1="18.1" y1="45.9" x2="17.3" y2="47.7"/>
<line class="st0" x1="13.1" y1="48.9" x2="11.3" y2="48.3"/>
<line class="st0" x1="62.4" y1="65.2" x2="60.6" y2="64.6"/>
<line class="st0" x1="32.4" y1="40.3" x2="30.6" y2="39.7"/>
<line class="st0" x1="19.1" y1="55.4" x2="18" y2="53.8"/>
<line class="st0" x1="23.3" y1="52.4" x2="21.5" y2="52.8"/>
<line class="st0" x1="18.8" y1="31.1" x2="18.6" y2="33.1"/>
<line class="st0" x1="12.4" y1="38.3" x2="10.5" y2="38.4"/>
<line class="st0" x1="18.1" y1="42.1" x2="16.6" y2="40.9"/>
<line class="st0" x1="21.4" y1="35.5" x2="19.8" y2="36.5"/>
<line class="st0" x1="25.1" y1="46.6" x2="23.5" y2="47.6"/>
<line class="st0" x1="35.3" y1="52.2" x2="34.3" y2="53.9"/>
<line class="st0" x1="24.4" y1="38.3" x2="23.4" y2="40"/>
<line class="st0" x1="29.6" y1="56.8" x2="27.9" y2="56"/>
<line class="st0" x1="33.5" y1="60.6" x2="32.7" y2="58.9"/>
<line class="st0" x1="58.7" y1="6" x2="57.8" y2="7.9"/>
<line class="st0" x1="58.6" y1="14.4" x2="57.2" y2="13.2"/>
<line class="st0" x1="49.5" y1="10" x2="51.6" y2="10.4"/>
<line class="st0" x1="21.2" y1="60.7" x2="22.5" y2="62.4"/>
<line class="st0" x1="38.2" y1="67.9" x2="36.9" y2="69.4"/>
<line class="st0" x1="33.5" y1="73.8" x2="32.1" y2="75.3"/>
<line class="st0" x1="24.8" y1="64.1" x2="26.8" y2="63.8"/>
<line class="st0" x1="7.4" y1="68" x2="8.8" y2="66.4"/>
<line class="st0" x1="17.5" y1="68.5" x2="15.6" y2="68.5"/>
<line class="st0" x1="12.4" y1="59.3" x2="11.5" y2="61.2"/>
<line class="st0" x1="13.7" y1="66.3" x2="12.3" y2="65"/>
<line class="st0" x1="25.9" y1="74.2" x2="24.4" y2="73"/>
<line class="st0" x1="19.2" y1="70" x2="18.3" y2="71.7"/>
<line class="st0" x1="30.9" y1="66.2" x2="30.1" y2="67.9"/>
<line class="st0" x1="12" y1="73.2" x2="10.6" y2="74.4"/>
<line class="st0" x1="17.4" y1="80" x2="16.4" y2="78.4"/>
<line class="st0" x1="25.1" y1="78.4" x2="23.9" y2="79.9"/>
<line class="st0" x1="21.8" y1="75.3" x2="19.9" y2="75.7"/>
<line class="st0" x1="15.5" y1="58.1" x2="17.5" y2="59"/>
<line class="st0" x1="7.9" y1="62" x2="10" y2="62.5"/>
<line class="st0" x1="78.9" y1="1.1" x2="80.2" y2="2.8"/>
<line class="st0" x1="80.2" y1="6.5" x2="78.9" y2="8"/>
<line class="st0" x1="71.9" y1="11.2" x2="70.5" y2="12.6"/>
<line class="st0" x1="75.7" y1="9.3" x2="73.9" y2="9.3"/>
<line class="st0" x1="71.3" y1="0.7" x2="70.4" y2="2.6"/>
<line class="st0" x1="71.9" y1="7.1" x2="70.5" y2="5.8"/>
<line class="st0" x1="80" y1="11.8" x2="78.5" y2="10.6"/>
<line class="st0" x1="76.6" y1="12.5" x2="75.8" y2="14.3"/>
<line class="st0" x1="71.8" y1="15.6" x2="70" y2="15"/>
<line class="st0" x1="75.7" y1="20.8" x2="74.7" y2="19.2"/>
<line class="st0" x1="79.2" y1="23.5" x2="77.4" y2="23.6"/>
<line class="st0" x1="74.9" y1="25.8" x2="73.6" y2="27.3"/>
<line class="st0" x1="73.9" y1="33.3" x2="72.6" y2="34.8"/>
<line class="st0" x1="71.4" y1="29.5" x2="69.5" y2="29.6"/>
<line class="st0" x1="75.4" y1="31.7" x2="73.9" y2="30.6"/>
<line class="st0" x1="79.3" y1="17.1" x2="77.4" y2="17.5"/>
<line class="st0" x1="74.5" y1="1.5" x2="76.4" y2="2.3"/>
<line class="st0" x1="66.2" y1="3.6" x2="68.3" y2="4"/>
<line class="st0" x1="78.7" y1="36.2" x2="76.8" y2="36.6"/>
<line class="st0" x1="41.8" y1="1.3" x2="43.1" y2="2.9"/>
<line class="st0" x1="42.1" y1="6.1" x2="40.8" y2="7.5"/>
<line class="st0" x1="34.2" y1="10.9" x2="32.9" y2="12.4"/>
<line class="st0" x1="45.4" y1="4.7" x2="47.5" y2="4.3"/>
<line class="st0" x1="38.1" y1="9.1" x2="36.2" y2="9.1"/>
<line class="st0" x1="30.7" y1="0.6" x2="31.3" y2="2.6"/>
<line class="st0" x1="34.3" y1="6.8" x2="32.9" y2="5.6"/>
<line class="st0" x1="46.4" y1="15.3" x2="44.9" y2="14.1"/>
<line class="st0" x1="39.8" y1="10.5" x2="39" y2="12.3"/>
<line class="st0" x1="47.4" y1="7.6" x2="46.6" y2="9.4"/>
<line class="st0" x1="34.1" y1="15.3" x2="32.4" y2="14.7"/>
<line class="st0" x1="45.1" y1="19.4" x2="43.9" y2="21"/>
<line class="st0" x1="38" y1="26.7" x2="36.3" y2="25.9"/>
<line class="st0" x1="44.5" y1="30.6" x2="42.6" y2="30.7"/>
<line class="st0" x1="42.4" y1="16.5" x2="40.5" y2="16.9"/>
<line class="st0" x1="26.4" y1="3" x2="28.4" y2="3.8"/>
<line class="st0" x1="71.7" y1="18.8" x2="69.9" y2="18.9"/>
<line class="st0" x1="66.7" y1="14.4" x2="65.2" y2="13.3"/>
<polyline class="st0" points="37.6,15.7 37.9,17.7 36,17 "/>
<polyline class="st0" points="23.5,14.7 24.5,16.5 22.5,16.6 "/>
<polyline class="st0" points="57.5,22.4 58.5,24.1 56.5,24.2 "/>
<polyline class="st0" points="15.5,74.4 16.5,76.1 14.5,76.3 "/>
<polyline class="st0" points="69,34.9 70,36.7 68,36.8 "/>
<polyline class="st0" points="44.5,61.4 45.5,63.2 43.5,63.3 "/>
<polyline class="st0" points="21.2,3.3 20.6,1.4 22.6,1.7 "/>
<polyline class="st0" points="29.4,8.7 31.2,9.7 29.5,10.8 "/>
<polyline class="st0" points="54.8,9 56.6,10 54.9,11.1 "/>
<polyline class="st0" points="17,36.2 17.2,38.2 15.3,37.6 "/>
<polyline class="st0" points="70.8,22.2 71.1,24.2 69.2,23.6 "/>
<polyline class="st0" points="42.5,73.7 42.7,75.7 40.8,75 "/>
<polyline class="st0" points="62.7,39.3 62.9,41.3 61,40.6 "/>
<polyline class="st0" points="63.5,28.2 63.7,30.2 61.8,29.5 "/>
<polyline class="st0" points="48.7,28.6 48.9,30.6 47,29.9 "/>
<polyline class="st0" points="3.7,39.1 1.8,38.2 3.4,37 "/>
<polyline class="st0" points="16.9,8.1 15.7,9.7 14.8,8 "/>
<polyline class="st0" points="31.3,23.4 29.4,23 30.6,21.4 "/>
<polyline class="st0" points="36.1,30.6 37.2,28.9 38.2,30.7 "/>
<polyline class="st0" points="29.9,45.1 29.9,47.1 28.1,46.3 "/>
<polyline class="st0" points="50.4,0.9 50.5,2.9 48.6,2.1 "/>
<polyline class="st0" points="69.2,75.2 69.2,77.2 67.4,76.3 "/>
<polyline class="st0" points="16.4,23.9 18,22.7 18.3,24.7 "/>
<polyline class="st0" points="9,28.8 10.7,29.9 9,31 "/>
<polyline class="st0" points="29.5,61.9 31.2,63 29.4,64 "/>
<polyline class="st0" points="24.4,29.5 22.9,30.7 22.5,28.8 "/>
<polyline class="st0" points="76.7,15.7 75.1,16.9 74.7,14.9 "/>
<polyline class="st0" points="50.9,41 49.4,42.2 49,40.2 "/>
<polyline class="st0" points="44.4,9.8 42.8,11.1 42.4,9.1 "/>
<polyline class="st0" points="2.5,47.5 2.4,49.6 0.7,48.6 "/>
<polyline class="st0" points="49.2,54.1 49.1,56.1 47.4,55.1 "/>
<polyline class="st0" points="8.9,57.7 7,57.2 8.3,55.6 "/>
<polyline class="st0" points="57.6,76.8 55.7,76.3 57,74.8 "/>
<polyline class="st0" points="17.3,64.1 15.6,63.1 17.3,62 "/>
<polyline class="st0" points="75.9,68.6 74.1,67.6 75.9,66.5 "/>
<polyline class="st0" points="57.2,50.7 55.5,49.7 57.2,48.6 "/>
<polyline class="st0" points="21.7,56.2 23.7,55.9 23.1,57.8 "/>
<polyline class="st0" points="79.2,32.7 78,31.1 80,30.7 "/>
<polyline class="st0" points="4.2,61.8 5.2,63.6 3.2,63.7 "/>
<polyline class="st0" points="78.4,56.1 76.4,56.4 77.1,54.5 "/>
<polyline class="st0" points="38,43.2 39.5,41.9 40,43.8 "/>
<polyline class="st0" points="65.9,63.8 67.4,62.5 67.9,64.4 "/>
<polyline class="st0" points="55,37 56.5,35.7 57,37.6 "/>
<polyline class="st0" points="42.5,23.9 44,22.6 44.5,24.6 "/>
<polyline class="st0" points="35.2,3.8 36.7,2.4 37.2,4.4 "/>
<polyline class="st0" points="21.1,43.9 21.6,42 23.1,43.3 "/>
<polyline class="st0" points="61.2,17.7 61.7,15.7 63.2,17.1 "/>
<polyline class="st0" points="33.1,71.9 33.6,70 35.1,71.3 "/>
<polyline class="st0" points="41.7,37.4 43,35.9 43.7,37.8 "/>
<polyline class="st0" points="9.4,40.9 11.3,41.5 9.9,43 "/>
<polyline class="st0" points="61.3,1.3 63.2,1.9 61.8,3.4 "/>
<polyline class="st0" points="76.6,6.2 74.7,6.9 74.9,4.9 "/>
<polyline class="st0" points="48.3,68.8 50.2,69.4 48.8,70.9 "/>
<polyline class="st0" points="23.2,68.6 25.2,69.2 23.8,70.7 "/>
<polyline class="st0" points="75.7,77.4 77.6,78 76.2,79.5 "/>
<polyline class="st0" points="3.2,8.6 4,10.4 2,10.3 "/>
<polyline class="st0" points="8.5,16.2 10.5,16.2 9.6,18 "/>
<polyline class="st0" points="1.5,22.2 3.5,22.2 2.6,24 "/>
<polyline class="st0" points="17,49.3 17.7,51.2 15.7,51 "/>
<polyline class="st0" points="68.3,48.3 69,50.2 67,49.9 "/>
<polyline class="st0" points="63.5,55 64.2,56.9 62.2,56.7 "/>
<polyline class="st0" points="36.6,57.6 34.5,57.5 35.6,55.7 "/>
<polyline class="st0" points="29.8,77.4 27.8,77.3 28.8,75.6 "/>
<polyline class="st0" points="57.2,63.1 55.2,62.9 56.2,61.2 "/>
<polyline class="st0" points="6.5,76 4.4,75.9 5.5,74.2 "/>
<polyline class="st0" points="30.9,36.8 28.9,37 29.6,35.1 "/>
<polyline class="st0" points="68.9,10.4 66.9,10.6 67.6,8.7 "/>
<polyline class="st0" points="49.9,19.1 47.9,19.2 48.6,17.4 "/>
<polyline class="st0" points="12.7,70.6 10.7,70.8 11.4,68.9 "/>
<polyline class="st0" points="77,43.7 75,43.8 75.7,42 "/>
<polyline class="st0" points="65.1,70.2 63.1,70.4 63.9,68.5 "/>
<polyline class="st0" points="42.7,49.1 44.6,49.6 43.3,51.1 "/>
<polyline class="st0" points="11.1,2.1 11.9,0.3 13.2,1.8 "/>
</svg>
