<!-- Generator: Adobe Illustrator 22.1.0, SVG Export Plug-In  -->
<svg version="1.1"
     xmlns="http://www.w3.org/2000/svg" xmlns:xlink="http://www.w3.org/1999/xlink" xmlns:a="http://ns.adobe.com/AdobeSVGViewerExtensions/3.0/"
     x="0px" y="0px" width="79.6px" height="79.7px" viewBox="0 0 79.6 79.7" style="enable-background:new 0 0 79.6 79.7;"
     xml:space="preserve">
<style type="text/css">
    .st0{fill:none;stroke:#000000;stroke-width:0.6;stroke-linecap:round;}
    .st1{fill:none;stroke:#000000;stroke-width:0.3;}
</style>
<defs>
</defs>
<line class="st0" x1="6.8" y1="9.6" x2="6.8" y2="9.6"/>
<line class="st0" x1="6.8" y1="12.9" x2="6.8" y2="12.9"/>
<line class="st0" x1="2.1" y1="13" x2="2.1" y2="13"/>
<line class="st0" x1="10.8" y1="12.6" x2="10.8" y2="12.6"/>
<line class="st0" x1="13.5" y1="14.4" x2="13.5" y2="14.4"/>
<line class="st0" x1="16.9" y1="15.1" x2="16.9" y2="15.1"/>
<line class="st0" x1="23.4" y1="6.6" x2="23.4" y2="6.6"/>
<line class="st0" x1="20.4" y1="12.3" x2="20.4" y2="12.3"/>
<line class="st0" x1="13.9" y1="17.7" x2="13.9" y2="17.7"/>
<line class="st0" x1="16" y1="11.7" x2="16" y2="11.7"/>
<line class="st0" x1="16.5" y1="5.9" x2="16.5" y2="5.9"/>
<line class="st0" x1="20" y1="8.3" x2="20" y2="8.3"/>
<line class="st0" x1="23.6" y1="9.7" x2="23.6" y2="9.7"/>
<line class="st0" x1="19.6" y1="3.3" x2="19.6" y2="3.3"/>
<line class="st0" x1="11.4" y1="8.5" x2="11.4" y2="8.5"/>
<line class="st0" x1="4.6" y1="6.7" x2="4.6" y2="6.7"/>
<line class="st0" x1="6" y1="2" x2="6" y2="2"/>
<line class="st0" x1="12.6" y1="0.4" x2="12.6" y2="0.4"/>
<line class="st0" x1="15.9" y1="2.2" x2="15.9" y2="2.2"/>
<line class="st0" x1="2.1" y1="2.9" x2="2.1" y2="2.9"/>
<line class="st0" x1="0.6" y1="7.1" x2="0.6" y2="7.1"/>
<line class="st0" x1="13.4" y1="4.6" x2="13.4" y2="4.6"/>
<line class="st0" x1="8.1" y1="6.1" x2="8.1" y2="6.1"/>
<line class="st0" x1="6.8" y1="27.3" x2="6.8" y2="27.3"/>
<line class="st0" x1="3" y1="27.5" x2="3" y2="27.5"/>
<line class="st0" x1="6.8" y1="30.6" x2="6.8" y2="30.6"/>
<line class="st0" x1="2.1" y1="30.7" x2="2.1" y2="30.7"/>
<line class="st0" x1="12.1" y1="29.7" x2="12.1" y2="29.7"/>
<line class="st0" x1="14.1" y1="32.3" x2="14.1" y2="32.3"/>
<line class="st0" x1="9.4" y1="33.4" x2="9.4" y2="33.4"/>
<line class="st0" x1="4.4" y1="33.7" x2="4.4" y2="33.7"/>
<line class="st0" x1="6.6" y1="36.4" x2="6.6" y2="36.4"/>
<line class="st0" x1="10.5" y1="37.8" x2="10.5" y2="37.8"/>
<line class="st0" x1="17.1" y1="32.7" x2="17.1" y2="32.7"/>
<line class="st0" x1="12.2" y1="35.5" x2="12.2" y2="35.5"/>
<line class="st0" x1="16" y1="28.6" x2="16" y2="28.6"/>
<line class="st0" x1="15.8" y1="26" x2="15.8" y2="26"/>
<line class="st0" x1="20" y1="26" x2="20" y2="26"/>
<line class="st0" x1="19.6" y1="21" x2="19.6" y2="21"/>
<line class="st0" x1="19.3" y1="16.6" x2="19.3" y2="16.6"/>
<line class="st0" x1="11.4" y1="26.2" x2="11.4" y2="26.2"/>
<line class="st0" x1="4.6" y1="24.4" x2="4.6" y2="24.4"/>
<line class="st0" x1="4" y1="16.1" x2="4" y2="16.1"/>
<line class="st0" x1="6" y1="19.8" x2="6" y2="19.8"/>
<line class="st0" x1="10" y1="20" x2="10" y2="20"/>
<line class="st0" x1="15.9" y1="19.9" x2="15.9" y2="19.9"/>
<line class="st0" x1="2.4" y1="19.6" x2="2.4" y2="19.6"/>
<line class="st0" x1="0.6" y1="24.8" x2="0.6" y2="24.8"/>
<line class="st0" x1="13.4" y1="22.3" x2="13.4" y2="22.3"/>
<line class="st0" x1="8.1" y1="23.8" x2="8.1" y2="23.8"/>
<line class="st0" x1="33.6" y1="9.6" x2="33.6" y2="9.6"/>
<line class="st0" x1="33.5" y1="12.9" x2="33.5" y2="12.9"/>
<line class="st0" x1="28.9" y1="13" x2="28.9" y2="13"/>
<line class="st0" x1="25.4" y1="12.8" x2="25.4" y2="12.8"/>
<line class="st0" x1="27" y1="16.2" x2="27" y2="16.2"/>
<line class="st0" x1="22.7" y1="19.4" x2="22.7" y2="19.4"/>
<line class="st0" x1="22.5" y1="22.8" x2="22.5" y2="22.8"/>
<line class="st0" x1="23.9" y1="26.2" x2="23.9" y2="26.2"/>
<line class="st0" x1="25.6" y1="21.2" x2="25.6" y2="21.2"/>
<line class="st0" x1="37.6" y1="12.6" x2="37.6" y2="12.6"/>
<line class="st0" x1="40.3" y1="14.4" x2="40.3" y2="14.4"/>
<line class="st0" x1="44.1" y1="14.9" x2="44.1" y2="14.9"/>
<line class="st0" x1="40.6" y1="17.7" x2="40.6" y2="17.7"/>
<line class="st0" x1="42.8" y1="11.7" x2="42.8" y2="11.7"/>
<line class="st0" x1="42.4" y1="5.9" x2="42.4" y2="5.9"/>
<line class="st0" x1="46.7" y1="9.9" x2="46.7" y2="9.9"/>
<line class="st0" x1="46.1" y1="6.6" x2="46.1" y2="6.6"/>
<line class="st0" x1="46.4" y1="3.3" x2="46.4" y2="3.3"/>
<line class="st0" x1="38.1" y1="8.5" x2="38.1" y2="8.5"/>
<line class="st0" x1="31.4" y1="6.7" x2="31.4" y2="6.7"/>
<line class="st0" x1="32.8" y1="2" x2="32.8" y2="2"/>
<line class="st0" x1="39.3" y1="0.4" x2="39.3" y2="0.4"/>
<line class="st0" x1="42.6" y1="2.2" x2="42.6" y2="2.2"/>
<line class="st0" x1="49.9" y1="78.9" x2="49.9" y2="78.9"/>
<line class="st0" x1="28.8" y1="2.9" x2="28.8" y2="2.9"/>
<line class="st0" x1="25.5" y1="3.9" x2="25.5" y2="3.9"/>
<line class="st0" x1="24.6" y1="0.3" x2="24.6" y2="0.3"/>
<line class="st0" x1="27.3" y1="7.1" x2="27.3" y2="7.1"/>
<line class="st0" x1="38.7" y1="3.5" x2="38.7" y2="3.5"/>
<line class="st0" x1="34.9" y1="6.1" x2="34.9" y2="6.1"/>
<line class="st0" x1="33.6" y1="27.3" x2="33.6" y2="27.3"/>
<line class="st0" x1="29.6" y1="26.7" x2="29.6" y2="26.7"/>
<line class="st0" x1="26" y1="27.8" x2="26" y2="27.8"/>
<line class="st0" x1="19.1" y1="30.4" x2="19.1" y2="30.4"/>
<line class="st0" x1="33.5" y1="30.6" x2="33.5" y2="30.6"/>
<line class="st0" x1="25.5" y1="31.7" x2="25.5" y2="31.7"/>
<line class="st0" x1="24.7" y1="35" x2="24.7" y2="35"/>
<line class="st0" x1="19.7" y1="35.9" x2="19.7" y2="35.9"/>
<line class="st0" x1="21.4" y1="38.5" x2="21.4" y2="38.5"/>
<line class="st0" x1="55.4" y1="33.2" x2="55.4" y2="33.2"/>
<line class="st0" x1="51.9" y1="35.5" x2="51.9" y2="35.5"/>
<line class="st0" x1="60.2" y1="35.4" x2="60.2" y2="35.4"/>
<line class="st0" x1="77.8" y1="37.1" x2="77.8" y2="37.1"/>
<line class="st0" x1="21.3" y1="32.8" x2="21.3" y2="32.8"/>
<line class="st0" x1="29.5" y1="30.1" x2="29.5" y2="30.1"/>
<line class="st0" x1="40.1" y1="28.8" x2="40.1" y2="28.8"/>
<line class="st0" x1="40.3" y1="32.1" x2="40.3" y2="32.1"/>
<line class="st0" x1="36.1" y1="33.4" x2="36.1" y2="33.4"/>
<line class="st0" x1="30.6" y1="33.6" x2="30.6" y2="33.6"/>
<line class="st0" x1="33.4" y1="36.4" x2="33.4" y2="36.4"/>
<line class="st0" x1="37.3" y1="37.8" x2="37.3" y2="37.8"/>
<line class="st0" x1="44.1" y1="34.2" x2="44.1" y2="34.2"/>
<line class="st0" x1="39.2" y1="35.5" x2="39.2" y2="35.5"/>
<line class="st0" x1="43.4" y1="30.3" x2="43.4" y2="30.3"/>
<line class="st0" x1="42.5" y1="26" x2="42.5" y2="26"/>
<line class="st0" x1="45.5" y1="28.7" x2="45.5" y2="28.7"/>
<line class="st0" x1="48.5" y1="26.2" x2="48.5" y2="26.2"/>
<line class="st0" x1="51.3" y1="23.7" x2="51.3" y2="23.7"/>
<line class="st0" x1="51.8" y1="27.2" x2="51.8" y2="27.2"/>
<line class="st0" x1="54.5" y1="25.6" x2="54.5" y2="25.6"/>
<line class="st0" x1="55.1" y1="29.3" x2="55.1" y2="29.3"/>
<line class="st0" x1="58" y1="30.1" x2="58" y2="30.1"/>
<line class="st0" x1="52.4" y1="30.8" x2="52.4" y2="30.8"/>
<line class="st0" x1="49" y1="33.4" x2="49" y2="33.4"/>
<line class="st0" x1="53.6" y1="20.8" x2="53.6" y2="20.8"/>
<line class="st0" x1="46.1" y1="20" x2="46.1" y2="20"/>
<line class="st0" x1="46" y1="16.6" x2="46" y2="16.6"/>
<line class="st0" x1="38.1" y1="26.2" x2="38.1" y2="26.2"/>
<line class="st0" x1="32.2" y1="24.5" x2="32.2" y2="24.5"/>
<line class="st0" x1="46.4" y1="36.2" x2="46.4" y2="36.2"/>
<line class="st0" x1="31.3" y1="16.2" x2="31.3" y2="16.2"/>
<line class="st0" x1="32.8" y1="19.8" x2="32.8" y2="19.8"/>
<line class="st0" x1="36.8" y1="20" x2="36.8" y2="20"/>
<line class="st0" x1="42.6" y1="19.9" x2="42.6" y2="19.9"/>
<line class="st0" x1="28.6" y1="19.7" x2="28.6" y2="19.7"/>
<line class="st0" x1="26.2" y1="24.7" x2="26.2" y2="24.7"/>
<line class="st0" x1="40.1" y1="22.3" x2="40.1" y2="22.3"/>
<line class="st0" x1="35.7" y1="23.5" x2="35.7" y2="23.5"/>
<line class="st0" x1="79.3" y1="11" x2="79.3" y2="11"/>
<line class="st0" x1="79.3" y1="28.7" x2="79.3" y2="28.7"/>
<line class="st0" x1="79" y1="17.5" x2="79" y2="17.5"/>
<line class="st0" x1="71.5" y1="9.1" x2="71.5" y2="9.1"/>
<line class="st0" x1="71.5" y1="12.4" x2="71.5" y2="12.4"/>
<line class="st0" x1="75" y1="9.7" x2="75" y2="9.7"/>
<line class="st0" x1="76.1" y1="12.4" x2="76.1" y2="12.4"/>
<line class="st0" x1="67.5" y1="12" x2="67.5" y2="12"/>
<line class="st0" x1="64.8" y1="13.9" x2="64.8" y2="13.9"/>
<line class="st0" x1="59.4" y1="12.6" x2="59.4" y2="12.6"/>
<line class="st0" x1="63.4" y1="7.9" x2="63.4" y2="7.9"/>
<line class="st0" x1="62.3" y1="11.1" x2="62.3" y2="11.1"/>
<line class="st0" x1="61.8" y1="5.4" x2="61.8" y2="5.4"/>
<line class="st0" x1="58.1" y1="6.6" x2="58.1" y2="6.6"/>
<line class="st0" x1="58.6" y1="2.7" x2="58.6" y2="2.7"/>
<line class="st0" x1="54.9" y1="0.9" x2="54.9" y2="0.9"/>
<line class="st0" x1="52.3" y1="2.9" x2="52.3" y2="2.9"/>
<line class="st0" x1="55.4" y1="3.8" x2="55.4" y2="3.8"/>
<line class="st0" x1="53.2" y1="6.1" x2="53.2" y2="6.1"/>
<line class="st0" x1="50.1" y1="7.4" x2="50.1" y2="7.4"/>
<line class="st0" x1="51.7" y1="10.6" x2="51.7" y2="10.6"/>
<line class="st0" x1="65.1" y1="18.3" x2="65.1" y2="18.3"/>
<line class="st0" x1="47.7" y1="13.1" x2="47.7" y2="13.1"/>
<line class="st0" x1="52.2" y1="14.1" x2="52.2" y2="14.1"/>
<line class="st0" x1="58.7" y1="8.9" x2="58.7" y2="8.9"/>
<line class="st0" x1="56.3" y1="13.6" x2="56.3" y2="13.6"/>
<line class="st0" x1="55.3" y1="16.9" x2="55.3" y2="16.9"/>
<line class="st0" x1="51.5" y1="18" x2="51.5" y2="18"/>
<line class="st0" x1="49.6" y1="20.9" x2="49.6" y2="20.9"/>
<line class="st0" x1="46.4" y1="24.2" x2="46.4" y2="24.2"/>
<line class="st0" x1="66.9" y1="7.9" x2="66.9" y2="7.9"/>
<line class="st0" x1="77.5" y1="1.1" x2="77.5" y2="1.1"/>
<line class="st0" x1="72.3" y1="1.5" x2="72.3" y2="1.5"/>
<line class="st0" x1="65.6" y1="0.3" x2="65.6" y2="0.3"/>
<line class="st0" x1="68" y1="2.5" x2="68" y2="2.5"/>
<line class="st0" x1="77" y1="6.6" x2="77" y2="6.6"/>
<line class="st0" x1="75.1" y1="3.4" x2="75.1" y2="3.4"/>
<line class="st0" x1="64.9" y1="4.1" x2="64.9" y2="4.1"/>
<line class="st0" x1="21.4" y1="78.1" x2="21.4" y2="78.1"/>
<line class="st0" x1="8.9" y1="79.4" x2="8.9" y2="79.4"/>
<line class="st0" x1="0.6" y1="79.1" x2="0.6" y2="79.1"/>
<line class="st0" x1="16.7" y1="78.7" x2="16.7" y2="78.7"/>
<line class="st0" x1="29.2" y1="56.5" x2="29.2" y2="56.5"/>
<line class="st0" x1="42.9" y1="78.2" x2="42.9" y2="78.2"/>
<line class="st0" x1="28.6" y1="78.9" x2="28.6" y2="78.9"/>
<line class="st0" x1="42.7" y1="70.2" x2="42.7" y2="70.2"/>
<line class="st0" x1="56.6" y1="78.7" x2="56.6" y2="78.7"/>
<line class="st0" x1="45.9" y1="79.4" x2="45.9" y2="79.4"/>
<line class="st0" x1="69.6" y1="79.2" x2="69.6" y2="79.2"/>
<line class="st0" x1="61.6" y1="79.1" x2="61.6" y2="79.1"/>
<line class="st0" x1="70.1" y1="5.6" x2="70.1" y2="5.6"/>
<line class="st0" x1="71.5" y1="26.8" x2="71.5" y2="26.8"/>
<line class="st0" x1="75.3" y1="27" x2="75.3" y2="27"/>
<line class="st0" x1="71.9" y1="31.7" x2="71.9" y2="31.7"/>
<line class="st0" x1="77.4" y1="32.8" x2="77.4" y2="32.8"/>
<line class="st0" x1="65.8" y1="28.9" x2="65.8" y2="28.9"/>
<line class="st0" x1="64.8" y1="31.6" x2="64.8" y2="31.6"/>
<line class="st0" x1="68.9" y1="32.9" x2="68.9" y2="32.9"/>
<line class="st0" x1="75" y1="34.1" x2="75" y2="34.1"/>
<line class="st0" x1="72.9" y1="36.1" x2="72.9" y2="36.1"/>
<line class="st0" x1="66.5" y1="38.3" x2="66.5" y2="38.3"/>
<line class="st0" x1="60" y1="32.1" x2="60" y2="32.1"/>
<line class="st0" x1="64.4" y1="34.8" x2="64.4" y2="34.8"/>
<line class="st0" x1="67.4" y1="15.8" x2="67.4" y2="15.8"/>
<line class="st0" x1="62.5" y1="25.5" x2="62.5" y2="25.5"/>
<line class="st0" x1="61.1" y1="22.4" x2="61.1" y2="22.4"/>
<line class="st0" x1="58.3" y1="25.4" x2="58.3" y2="25.4"/>
<line class="st0" x1="58.6" y1="20.4" x2="58.6" y2="20.4"/>
<line class="st0" x1="59" y1="16.1" x2="59" y2="16.1"/>
<line class="st0" x1="66.9" y1="25.6" x2="66.9" y2="25.6"/>
<line class="st0" x1="73.6" y1="23.8" x2="73.6" y2="23.8"/>
<line class="st0" x1="68.9" y1="28.9" x2="68.9" y2="28.9"/>
<line class="st0" x1="72.3" y1="19.2" x2="72.3" y2="19.2"/>
<line class="st0" x1="68.3" y1="19.5" x2="68.3" y2="19.5"/>
<line class="st0" x1="62.4" y1="19.4" x2="62.4" y2="19.4"/>
<line class="st0" x1="76.2" y1="20.1" x2="76.2" y2="20.1"/>
<line class="st0" x1="77.7" y1="24.3" x2="77.7" y2="24.3"/>
<line class="st0" x1="64.9" y1="21.8" x2="64.9" y2="21.8"/>
<line class="st0" x1="70.8" y1="15.7" x2="70.8" y2="15.7"/>
<line class="st0" x1="6.8" y1="70.1" x2="6.8" y2="70.1"/>
<line class="st0" x1="6.8" y1="66.8" x2="6.8" y2="66.8"/>
<line class="st0" x1="2.1" y1="66.7" x2="2.1" y2="66.7"/>
<line class="st0" x1="10.8" y1="67.1" x2="10.8" y2="67.1"/>
<line class="st0" x1="13.5" y1="65.3" x2="13.5" y2="65.3"/>
<line class="st0" x1="17.4" y1="56.3" x2="17.4" y2="56.3"/>
<line class="st0" x1="22.7" y1="64.1" x2="22.7" y2="64.1"/>
<line class="st0" x1="22.3" y1="72.9" x2="22.3" y2="72.9"/>
<line class="st0" x1="24.5" y1="75.1" x2="24.5" y2="75.1"/>
<line class="st0" x1="20.4" y1="67.4" x2="20.4" y2="67.4"/>
<line class="st0" x1="12.6" y1="62.2" x2="12.6" y2="62.2"/>
<line class="st0" x1="16.9" y1="66.4" x2="16.9" y2="66.4"/>
<line class="st0" x1="16.4" y1="71.4" x2="16.4" y2="71.4"/>
<line class="st0" x1="20" y1="71.4" x2="20" y2="71.4"/>
<line class="st0" x1="28.4" y1="42.7" x2="28.4" y2="42.7"/>
<line class="st0" x1="19.6" y1="75.2" x2="19.6" y2="75.2"/>
<line class="st0" x1="9.2" y1="71.9" x2="9.2" y2="71.9"/>
<line class="st0" x1="4.6" y1="73" x2="4.6" y2="73"/>
<line class="st0" x1="5.6" y1="78.4" x2="5.6" y2="78.4"/>
<line class="st0" x1="13.9" y1="69.4" x2="13.9" y2="69.4"/>
<line class="st0" x1="2.7" y1="69.7" x2="2.7" y2="69.7"/>
<line class="st0" x1="0.6" y1="72.6" x2="0.6" y2="72.6"/>
<line class="st0" x1="13.1" y1="73.6" x2="13.1" y2="73.6"/>
<line class="st0" x1="11.9" y1="76.7" x2="11.9" y2="76.7"/>
<line class="st0" x1="6.8" y1="52.4" x2="6.8" y2="52.4"/>
<line class="st0" x1="3" y1="52.1" x2="3" y2="52.1"/>
<line class="st0" x1="6.8" y1="49.1" x2="6.8" y2="49.1"/>
<line class="st0" x1="17.6" y1="39.7" x2="17.6" y2="39.7"/>
<line class="st0" x1="12.5" y1="50.3" x2="12.5" y2="50.3"/>
<line class="st0" x1="13.5" y1="47.6" x2="13.5" y2="47.6"/>
<line class="st0" x1="9.4" y1="46.3" x2="9.4" y2="46.3"/>
<line class="st0" x1="4.4" y1="46" x2="4.4" y2="46"/>
<line class="st0" x1="6.6" y1="43.3" x2="6.6" y2="43.3"/>
<line class="st0" x1="12.6" y1="40.9" x2="12.6" y2="40.9"/>
<line class="st0" x1="17.1" y1="47" x2="17.1" y2="47"/>
<line class="st0" x1="12.2" y1="44.1" x2="12.2" y2="44.1"/>
<line class="st0" x1="15.7" y1="43.5" x2="15.7" y2="43.5"/>
<line class="st0" x1="15.8" y1="53.6" x2="15.8" y2="53.6"/>
<line class="st0" x1="20" y1="53.7" x2="20" y2="53.7"/>
<line class="st0" x1="19.6" y1="58.7" x2="19.6" y2="58.7"/>
<line class="st0" x1="19.3" y1="63.1" x2="19.3" y2="63.1"/>
<line class="st0" x1="11.4" y1="53.5" x2="11.4" y2="53.5"/>
<line class="st0" x1="4.6" y1="55.3" x2="4.6" y2="55.3"/>
<line class="st0" x1="0.9" y1="44" x2="0.9" y2="44"/>
<line class="st0" x1="6" y1="59.9" x2="6" y2="59.9"/>
<line class="st0" x1="10" y1="59.6" x2="10" y2="59.6"/>
<line class="st0" x1="15.9" y1="59.7" x2="15.9" y2="59.7"/>
<line class="st0" x1="2.1" y1="59.1" x2="2.1" y2="59.1"/>
<line class="st0" x1="0.6" y1="54.9" x2="0.6" y2="54.9"/>
<line class="st0" x1="13.4" y1="57.4" x2="13.4" y2="57.4"/>
<line class="st0" x1="8.6" y1="63.5" x2="8.6" y2="63.5"/>
<line class="st0" x1="32.7" y1="68.2" x2="32.7" y2="68.2"/>
<line class="st0" x1="32.4" y1="64.6" x2="32.4" y2="64.6"/>
<line class="st0" x1="28.9" y1="66.7" x2="28.9" y2="66.7"/>
<line class="st0" x1="25.4" y1="66.9" x2="25.4" y2="66.9"/>
<line class="st0" x1="26.4" y1="63.5" x2="26.4" y2="63.5"/>
<line class="st0" x1="22.7" y1="60.3" x2="22.7" y2="60.3"/>
<line class="st0" x1="22.6" y1="49.9" x2="22.6" y2="49.9"/>
<line class="st0" x1="25.6" y1="58.5" x2="25.6" y2="58.5"/>
<line class="st0" x1="37.6" y1="67.1" x2="37.6" y2="67.1"/>
<line class="st0" x1="40.3" y1="65.3" x2="40.3" y2="65.3"/>
<line class="st0" x1="44.9" y1="65.3" x2="44.9" y2="65.3"/>
<line class="st0" x1="40.6" y1="62" x2="40.6" y2="62"/>
<line class="st0" x1="41.1" y1="67.6" x2="41.1" y2="67.6"/>
<line class="st0" x1="43.3" y1="73.8" x2="43.3" y2="73.8"/>
<line class="st0" x1="46.1" y1="68.6" x2="46.1" y2="68.6"/>
<line class="st0" x1="46.1" y1="73.1" x2="46.1" y2="73.1"/>
<line class="st0" x1="48.1" y1="75.9" x2="48.1" y2="75.9"/>
<line class="st0" x1="38.1" y1="71.2" x2="38.1" y2="71.2"/>
<line class="st0" x1="31.4" y1="73" x2="31.4" y2="73"/>
<line class="st0" x1="32.8" y1="77.6" x2="32.8" y2="77.6"/>
<line class="st0" x1="37.4" y1="78.1" x2="37.4" y2="78.1"/>
<line class="st0" x1="29.1" y1="69.6" x2="29.1" y2="69.6"/>
<line class="st0" x1="25.2" y1="77.9" x2="25.2" y2="77.9"/>
<line class="st0" x1="27.3" y1="72.6" x2="27.3" y2="72.6"/>
<line class="st0" x1="38.4" y1="74.9" x2="38.4" y2="74.9"/>
<line class="st0" x1="34.4" y1="74.6" x2="34.4" y2="74.6"/>
<line class="st0" x1="33.6" y1="52.4" x2="33.6" y2="52.4"/>
<line class="st0" x1="29.8" y1="52.1" x2="29.8" y2="52.1"/>
<line class="st0" x1="26.4" y1="51.4" x2="26.4" y2="51.4"/>
<line class="st0" x1="19.3" y1="50.3" x2="19.3" y2="50.3"/>
<line class="st0" x1="33.5" y1="49.1" x2="33.5" y2="49.1"/>
<line class="st0" x1="25.5" y1="48" x2="25.5" y2="48"/>
<line class="st0" x1="24.7" y1="44.6" x2="24.7" y2="44.6"/>
<line class="st0" x1="19.7" y1="43.8" x2="19.7" y2="43.8"/>
<line class="st0" x1="25.1" y1="39.4" x2="25.1" y2="39.4"/>
<line class="st0" x1="55.4" y1="46.5" x2="55.4" y2="46.5"/>
<line class="st0" x1="51.3" y1="44.1" x2="51.3" y2="44.1"/>
<line class="st0" x1="60.2" y1="44.3" x2="60.2" y2="44.3"/>
<line class="st0" x1="74.6" y1="39" x2="74.6" y2="39"/>
<line class="st0" x1="70.7" y1="40.2" x2="70.7" y2="40.2"/>
<line class="st0" x1="54.7" y1="38.7" x2="54.7" y2="38.7"/>
<line class="st0" x1="49.7" y1="38.7" x2="49.7" y2="38.7"/>
<line class="st0" x1="32.9" y1="39.7" x2="32.9" y2="39.7"/>
<line class="st0" x1="29.1" y1="39.2" x2="29.1" y2="39.2"/>
<line class="st0" x1="6.9" y1="39.5" x2="6.9" y2="39.5"/>
<line class="st0" x1="3.7" y1="41.5" x2="3.7" y2="41.5"/>
<line class="st0" x1="0.5" y1="34.6" x2="0.5" y2="34.6"/>
<line class="st0" x1="78.7" y1="41.3" x2="78.7" y2="41.3"/>
<line class="st0" x1="21.3" y1="46.9" x2="21.3" y2="46.9"/>
<line class="st0" x1="28.9" y1="49" x2="28.9" y2="49"/>
<line class="st0" x1="39.3" y1="50.3" x2="39.3" y2="50.3"/>
<line class="st0" x1="40.3" y1="47.6" x2="40.3" y2="47.6"/>
<line class="st0" x1="36.1" y1="46.3" x2="36.1" y2="46.3"/>
<line class="st0" x1="31.1" y1="46" x2="31.1" y2="46"/>
<line class="st0" x1="33.4" y1="43.3" x2="33.4" y2="43.3"/>
<line class="st0" x1="39.1" y1="40.9" x2="39.1" y2="40.9"/>
<line class="st0" x1="45" y1="47" x2="45" y2="47"/>
<line class="st0" x1="39.2" y1="44.1" x2="39.2" y2="44.1"/>
<line class="st0" x1="42.7" y1="43.2" x2="42.7" y2="43.2"/>
<line class="st0" x1="42.5" y1="53.6" x2="42.5" y2="53.6"/>
<line class="st0" x1="47.4" y1="49.9" x2="47.4" y2="49.9"/>
<line class="st0" x1="46.7" y1="52.5" x2="46.7" y2="52.5"/>
<line class="st0" x1="51.3" y1="56" x2="51.3" y2="56"/>
<line class="st0" x1="51.8" y1="52.5" x2="51.8" y2="52.5"/>
<line class="st0" x1="55.1" y1="53.4" x2="55.1" y2="53.4"/>
<line class="st0" x1="54.4" y1="42.2" x2="54.4" y2="42.2"/>
<line class="st0" x1="57.9" y1="41.9" x2="57.9" y2="41.9"/>
<line class="st0" x1="58.7" y1="51" x2="58.7" y2="51"/>
<line class="st0" x1="52.4" y1="48.9" x2="52.4" y2="48.9"/>
<line class="st0" x1="48.7" y1="46.8" x2="48.7" y2="46.8"/>
<line class="st0" x1="53.6" y1="58.9" x2="53.6" y2="58.9"/>
<line class="st0" x1="46.1" y1="59.6" x2="46.1" y2="59.6"/>
<line class="st0" x1="47.7" y1="62.9" x2="47.7" y2="62.9"/>
<line class="st0" x1="38.1" y1="53.5" x2="38.1" y2="53.5"/>
<line class="st0" x1="32.2" y1="55.1" x2="32.2" y2="55.1"/>
<line class="st0" x1="46.4" y1="43.5" x2="46.4" y2="43.5"/>
<line class="st0" x1="36.1" y1="63.5" x2="36.1" y2="63.5"/>
<line class="st0" x1="32.8" y1="59.9" x2="32.8" y2="59.9"/>
<line class="st0" x1="36.8" y1="59.6" x2="36.8" y2="59.6"/>
<line class="st0" x1="42.6" y1="59.7" x2="42.6" y2="59.7"/>
<line class="st0" x1="28.6" y1="60" x2="28.6" y2="60"/>
<line class="st0" x1="26.2" y1="55" x2="26.2" y2="55"/>
<line class="st0" x1="40.1" y1="57.4" x2="40.1" y2="57.4"/>
<line class="st0" x1="36.1" y1="50.7" x2="36.1" y2="50.7"/>
<line class="st0" x1="79.3" y1="68.7" x2="79.3" y2="68.7"/>
<line class="st0" x1="79.3" y1="51" x2="79.3" y2="51"/>
<line class="st0" x1="79" y1="62.1" x2="79" y2="62.1"/>
<line class="st0" x1="71.5" y1="70.6" x2="71.5" y2="70.6"/>
<line class="st0" x1="71.5" y1="67.3" x2="71.5" y2="67.3"/>
<line class="st0" x1="76.6" y1="66.3" x2="76.6" y2="66.3"/>
<line class="st0" x1="67.5" y1="67.7" x2="67.5" y2="67.7"/>
<line class="st0" x1="64.8" y1="65.8" x2="64.8" y2="65.8"/>
<line class="st0" x1="59.4" y1="67.1" x2="59.4" y2="67.1"/>
<line class="st0" x1="63.4" y1="71.8" x2="63.4" y2="71.8"/>
<line class="st0" x1="8.2" y1="75.9" x2="8.2" y2="75.9"/>
<line class="st0" x1="62.6" y1="74.6" x2="62.6" y2="74.6"/>
<line class="st0" x1="58.3" y1="71.9" x2="58.3" y2="71.9"/>
<line class="st0" x1="59.2" y1="76.1" x2="59.2" y2="76.1"/>
<line class="st0" x1="52.3" y1="76.8" x2="52.3" y2="76.8"/>
<line class="st0" x1="56.4" y1="69.9" x2="56.4" y2="69.9"/>
<line class="st0" x1="53.2" y1="73.6" x2="53.2" y2="73.6"/>
<line class="st0" x1="50.1" y1="72.3" x2="50.1" y2="72.3"/>
<line class="st0" x1="44.1" y1="39.4" x2="44.1" y2="39.4"/>
<line class="st0" x1="65.1" y1="61.4" x2="65.1" y2="61.4"/>
<line class="st0" x1="52.1" y1="67.2" x2="52.1" y2="67.2"/>
<line class="st0" x1="48.7" y1="65.6" x2="48.7" y2="65.6"/>
<line class="st0" x1="52.9" y1="70.1" x2="52.9" y2="70.1"/>
<line class="st0" x1="56.3" y1="66.1" x2="56.3" y2="66.1"/>
<line class="st0" x1="61.2" y1="38.9" x2="61.2" y2="38.9"/>
<line class="st0" x1="51.7" y1="62.9" x2="51.7" y2="62.9"/>
<line class="st0" x1="49.6" y1="58.8" x2="49.6" y2="58.8"/>
<line class="st0" x1="44.4" y1="56.2" x2="44.4" y2="56.2"/>
<line class="st0" x1="66.9" y1="71.8" x2="66.9" y2="71.8"/>
<line class="st0" x1="73.6" y1="73.6" x2="73.6" y2="73.6"/>
<line class="st0" x1="78.2" y1="75.9" x2="78.2" y2="75.9"/>
<line class="st0" x1="72.6" y1="76.9" x2="72.6" y2="76.9"/>
<line class="st0" x1="75.2" y1="63.9" x2="75.2" y2="63.9"/>
<line class="st0" x1="67.7" y1="43.5" x2="67.7" y2="43.5"/>
<line class="st0" x1="77.7" y1="73.1" x2="77.7" y2="73.1"/>
<line class="st0" x1="65.2" y1="77.1" x2="65.2" y2="77.1"/>
<line class="st0" x1="69.4" y1="73.2" x2="69.4" y2="73.2"/>
<line class="st0" x1="71.5" y1="52.9" x2="71.5" y2="52.9"/>
<line class="st0" x1="75.3" y1="52.7" x2="75.3" y2="52.7"/>
<line class="st0" x1="71.5" y1="49.6" x2="71.5" y2="49.6"/>
<line class="st0" x1="77.4" y1="46.9" x2="77.4" y2="46.9"/>
<line class="st0" x1="65.8" y1="50.8" x2="65.8" y2="50.8"/>
<line class="st0" x1="63.7" y1="47.9" x2="63.7" y2="47.9"/>
<line class="st0" x1="68.9" y1="46.8" x2="68.9" y2="46.8"/>
<line class="st0" x1="73.9" y1="46.6" x2="73.9" y2="46.6"/>
<line class="st0" x1="71.6" y1="43.8" x2="71.6" y2="43.8"/>
<line class="st0" x1="66.5" y1="41.4" x2="66.5" y2="41.4"/>
<line class="st0" x1="60" y1="47.6" x2="60" y2="47.6"/>
<line class="st0" x1="64.4" y1="44.9" x2="64.4" y2="44.9"/>
<line class="st0" x1="62.7" y1="63.5" x2="62.7" y2="63.5"/>
<line class="st0" x1="62.4" y1="51.9" x2="62.4" y2="51.9"/>
<line class="st0" x1="56.6" y1="56.5" x2="56.6" y2="56.5"/>
<line class="st0" x1="59.5" y1="54.6" x2="59.5" y2="54.6"/>
<line class="st0" x1="58.6" y1="59.2" x2="58.6" y2="59.2"/>
<line class="st0" x1="59" y1="63.6" x2="59" y2="63.6"/>
<line class="st0" x1="66.9" y1="54.1" x2="66.9" y2="54.1"/>
<line class="st0" x1="75.1" y1="49.2" x2="75.1" y2="49.2"/>
<line class="st0" x1="70.6" y1="56.6" x2="70.6" y2="56.6"/>
<line class="st0" x1="72.3" y1="60.5" x2="72.3" y2="60.5"/>
<line class="st0" x1="71" y1="63.9" x2="71" y2="63.9"/>
<line class="st0" x1="69.3" y1="59.7" x2="69.3" y2="59.7"/>
<line class="st0" x1="62.4" y1="60.3" x2="62.4" y2="60.3"/>
<line class="st0" x1="76.2" y1="59.6" x2="76.2" y2="59.6"/>
<line class="st0" x1="77.7" y1="55.4" x2="77.7" y2="55.4"/>
<line class="st0" x1="66.3" y1="58.4" x2="66.3" y2="58.4"/>
<line class="st0" x1="9.7" y1="49.4" x2="9.7" y2="49.4"/>
<polyline class="st1" points="37.1,15.6 37.3,17.5 35.4,16.9 "/>
<polyline class="st1" points="22.9,14.6 24,16.4 21.9,16.5 "/>
<polyline class="st1" points="56.1,22.2 57.1,24 55.1,24.1 "/>
<polyline class="st1" points="16,74.8 17.1,76.6 15,76.7 "/>
<polyline class="st1" points="68.4,34.8 69.4,36.5 67.4,36.7 "/>
<polyline class="st1" points="43.9,61.3 44.9,63 42.9,63.2 "/>
<polyline class="st1" points="23.7,3.3 21.7,2.7 23.1,1.2 "/>
<polyline class="st1" points="28.8,8.5 30.6,9.6 28.9,10.7 "/>
<polyline class="st1" points="54.2,8.9 56,9.9 54.3,11 "/>
<polyline class="st1" points="16.4,36.1 16.6,38.1 14.7,37.4 "/>
<polyline class="st1" points="69.4,21.5 69.6,23.5 67.7,22.9 "/>
<polyline class="st1" points="41.9,75.3 42.1,77.3 40.2,76.6 "/>
<polyline class="st1" points="62.2,40.5 62.4,42.5 60.5,41.9 "/>
<polyline class="st1" points="62.9,28 63.1,30 61.2,29.4 "/>
<polyline class="st1" points="49.4,29.5 49.6,31.5 47.7,30.9 "/>
<polyline class="st1" points="4.5,38.9 2.6,38.1 4.2,36.8 "/>
<polyline class="st1" points="16.3,8 15.1,9.6 14.2,7.8 "/>
<polyline class="st1" points="30.7,23.3 28.8,22.9 30,21.3 "/>
<polyline class="st1" points="35.5,30.5 36.6,28.8 37.7,30.5 "/>
<polyline class="st1" points="29.3,45 29.3,47 27.5,46.1 "/>
<polyline class="st1" points="49.8,0.8 49.9,2.8 48.1,2 "/>
<polyline class="st1" points="68.6,75 68.6,77.1 66.8,76.2 "/>
<polyline class="st1" points="15.8,23.8 17.5,22.6 17.8,24.6 "/>
<polyline class="st1" points="8.5,28.7 10.1,29.8 8.4,30.8 "/>
<polyline class="st1" points="28.9,61.8 30.6,62.9 28.8,63.9 "/>
<polyline class="st1" points="23.9,29.4 22.3,30.6 21.9,28.6 "/>
<polyline class="st1" points="76.1,15.6 74.6,16.8 74.2,14.8 "/>
<polyline class="st1" points="50.4,40.8 48.8,42.1 48.4,40.1 "/>
<polyline class="st1" points="42.5,8.8 40.9,10 40.5,8.1 "/>
<polyline class="st1" points="1.9,47.4 1.8,49.4 0.1,48.4 "/>
<polyline class="st1" points="48.7,54.3 48.6,56.3 46.9,55.3 "/>
<polyline class="st1" points="9.6,56.9 7.6,56.4 9,54.9 "/>
<polyline class="st1" points="57.6,75.5 55.6,75.1 57,73.5 "/>
<polyline class="st1" points="16.7,64 15,62.9 16.7,61.8 "/>
<polyline class="st1" points="75.4,70.3 73.7,69.3 75.4,68.2 "/>
<polyline class="st1" points="56.6,50.6 54.9,49.5 56.6,48.5 "/>
<polyline class="st1" points="21.8,54.8 23.8,54.4 23.2,56.3 "/>
<polyline class="st1" points="74,29.5 76,29.1 75.4,31 "/>
<polyline class="st1" points="3.6,61.7 4.6,63.4 2.6,63.5 "/>
<polyline class="st1" points="77.1,57.5 75.1,57.8 75.8,55.9 "/>
<polyline class="st1" points="35.6,43.4 37.2,42.1 37.7,44 "/>
<polyline class="st1" points="66.1,64.2 67.6,62.8 68.1,64.8 "/>
<polyline class="st1" points="54.4,36.9 56,35.5 56.5,37.5 "/>
<polyline class="st1" points="41.9,23.8 43.4,22.5 43.9,24.4 "/>
<polyline class="st1" points="34.6,3.6 36.1,2.3 36.6,4.3 "/>
<polyline class="st1" points="21.3,42.7 21.9,40.8 23.4,42.1 "/>
<polyline class="st1" points="60.6,17.5 61.1,15.6 62.6,16.9 "/>
<polyline class="st1" points="34.1,72.3 34.6,70.3 36.1,71.7 "/>
<polyline class="st1" points="41.1,37.3 42.5,35.8 43.1,37.7 "/>
<polyline class="st1" points="8.8,40.8 10.7,41.4 9.3,42.8 "/>
<polyline class="st1" points="60.7,1.2 62.6,1.8 61.3,3.3 "/>
<polyline class="st1" points="74.9,6.1 73,6.8 73.2,4.8 "/>
<polyline class="st1" points="47.7,68.7 49.6,69.3 48.3,70.8 "/>
<polyline class="st1" points="22.7,68.5 24.6,69.1 23.2,70.6 "/>
<polyline class="st1" points="75.1,77.3 77,77.9 75.6,79.4 "/>
<polyline class="st1" points="2.6,8.4 3.4,10.3 1.4,10.2 "/>
<polyline class="st1" points="7.9,16.1 9.9,16 9,17.9 "/>
<polyline class="st1" points="0.9,22.1 2.9,22 2,23.9 "/>
<polyline class="st1" points="16.4,49.2 17.1,51.1 15.1,50.9 "/>
<polyline class="st1" points="67.7,48.2 68.4,50 66.4,49.8 "/>
<polyline class="st1" points="63,54.9 63.6,56.8 61.6,56.6 "/>
<polyline class="st1" points="36,57.5 34,57.4 35,55.6 "/>
<polyline class="st1" points="29.9,77.1 27.9,76.9 28.9,75.2 "/>
<polyline class="st1" points="56.7,62.9 54.6,62.8 55.7,61.1 "/>
<polyline class="st1" points="4.1,76.6 2,76.4 3.1,74.7 "/>
<polyline class="st1" points="30.3,36.7 28.3,36.9 29,35 "/>
<polyline class="st1" points="67.1,10.3 65.1,10.5 65.9,8.6 "/>
<polyline class="st1" points="49.7,17.9 47.6,18 48.4,16.2 "/>
<polyline class="st1" points="12.1,70.5 10.1,70.7 10.8,68.8 "/>
<polyline class="st1" points="76.4,43.5 74.4,43.7 75.1,41.8 "/>
<polyline class="st1" points="63.1,69.8 61.1,70 61.9,68.1 "/>
<polyline class="st1" points="42.4,49.1 44.4,49.5 43.1,51.1 "/>
<polyline class="st1" points="9.1,3.8 10,1.9 11.2,3.5 "/>
</svg>
