<svg id="Layer_1" data-name="Layer 1" xmlns="http://www.w3.org/2000/svg" width="80.56" height="80.5" viewBox="0 0 80.56 80.5"><defs><style>.cls-1,.cls-2,.cls-3{fill:none;}.cls-2,.cls-3{stroke:#000;}.cls-2{stroke-linecap:round;stroke-width:0.6px;}.cls-3{stroke-width:0.3px;}</style></defs><title>Artboard 37</title><rect class="cls-1" x="64.45" y="-10.83" width="80.56" height="80.5"/><line class="cls-2" x1="71.9" y1="2.51" x2="71.9" y2="2.51"/><line class="cls-2" x1="67.28" y1="2.57" x2="67.28" y2="2.57"/><line class="cls-2" x1="75.97" y1="2.13" x2="75.97" y2="2.13"/><line class="cls-2" x1="78.65" y1="4.01" x2="78.65" y2="4.01"/><line class="cls-2" x1="79.03" y1="7.26" x2="79.03" y2="7.26"/><line class="cls-2" x1="71.97" y1="16.9" x2="71.97" y2="16.9"/><line class="cls-2" x1="68.15" y1="17.13" x2="68.15" y2="17.13"/><line class="cls-2" x1="71.9" y1="20.21" x2="71.9" y2="20.21"/><line class="cls-2" x1="67.28" y1="20.28" x2="67.28" y2="20.28"/><line class="cls-2" x1="77.28" y1="19.28" x2="77.28" y2="19.28"/><line class="cls-2" x1="79.28" y1="21.9" x2="79.28" y2="21.9"/><line class="cls-2" x1="74.53" y1="23.01" x2="74.53" y2="23.01"/><line class="cls-2" x1="69.53" y1="23.26" x2="69.53" y2="23.26"/><line class="cls-2" x1="71.78" y1="26.01" x2="71.78" y2="26.01"/><line class="cls-2" x1="75.65" y1="27.38" x2="75.65" y2="27.38"/><line class="cls-2" x1="77.36" y1="25.13" x2="77.36" y2="25.13"/><line class="cls-2" x1="76.53" y1="15.78" x2="76.53" y2="15.78"/><line class="cls-2" x1="69.78" y1="13.96" x2="69.78" y2="13.96"/><line class="cls-2" x1="69.09" y1="5.65" x2="69.09" y2="5.65"/><line class="cls-2" x1="71.15" y1="9.34" x2="71.15" y2="9.34"/><line class="cls-2" x1="75.15" y1="9.63" x2="75.15" y2="9.63"/><line class="cls-2" x1="67.53" y1="9.15" x2="67.53" y2="9.15"/><line class="cls-2" x1="65.72" y1="14.4" x2="65.72" y2="14.4"/><line class="cls-2" x1="78.53" y1="11.9" x2="78.53" y2="11.9"/><line class="cls-2" x1="73.28" y1="13.4" x2="73.28" y2="13.4"/><line class="cls-2" x1="74.03" y1="68.96" x2="74.03" y2="68.96"/><line class="cls-2" x1="65.7" y1="68.63" x2="65.7" y2="68.63"/><line class="cls-2" x1="71.97" y1="59.65" x2="71.97" y2="59.65"/><line class="cls-2" x1="71.9" y1="56.34" x2="71.9" y2="56.34"/><line class="cls-2" x1="67.28" y1="56.28" x2="67.28" y2="56.28"/><line class="cls-2" x1="75.97" y1="56.72" x2="75.97" y2="56.72"/><line class="cls-2" x1="78.65" y1="54.84" x2="78.65" y2="54.84"/><line class="cls-2" x1="77.7" y1="51.8" x2="77.7" y2="51.8"/><line class="cls-2" x1="74.36" y1="61.46" x2="74.36" y2="61.46"/><line class="cls-2" x1="69.78" y1="62.59" x2="69.78" y2="62.59"/><line class="cls-2" x1="70.7" y1="67.96" x2="70.7" y2="67.96"/><line class="cls-2" x1="79.03" y1="58.96" x2="79.03" y2="58.96"/><line class="cls-2" x1="67.86" y1="59.3" x2="67.86" y2="59.3"/><line class="cls-2" x1="65.72" y1="62.15" x2="65.72" y2="62.15"/><line class="cls-2" x1="78.2" y1="63.13" x2="78.2" y2="63.13"/><line class="cls-2" x1="77.03" y1="66.3" x2="77.03" y2="66.3"/><line class="cls-2" x1="71.97" y1="41.95" x2="71.97" y2="41.95"/><line class="cls-2" x1="68.15" y1="41.72" x2="68.15" y2="41.72"/><line class="cls-2" x1="71.9" y1="38.63" x2="71.9" y2="38.63"/><line class="cls-2" x1="77.65" y1="39.84" x2="77.65" y2="39.84"/><line class="cls-2" x1="78.65" y1="37.13" x2="78.65" y2="37.13"/><line class="cls-2" x1="74.53" y1="35.84" x2="74.53" y2="35.84"/><line class="cls-2" x1="69.53" y1="35.59" x2="69.53" y2="35.59"/><line class="cls-2" x1="71.78" y1="32.84" x2="71.78" y2="32.84"/><line class="cls-2" x1="77.7" y1="30.46" x2="77.7" y2="30.46"/><line class="cls-2" x1="77.36" y1="33.72" x2="77.36" y2="33.72"/><line class="cls-2" x1="76.53" y1="43.07" x2="76.53" y2="43.07"/><line class="cls-2" x1="69.78" y1="44.88" x2="69.78" y2="44.88"/><line class="cls-2" x1="66.03" y1="33.63" x2="66.03" y2="33.63"/><line class="cls-2" x1="71.15" y1="49.51" x2="71.15" y2="49.51"/><line class="cls-2" x1="75.15" y1="49.22" x2="75.15" y2="49.22"/><line class="cls-2" x1="67.22" y1="48.63" x2="67.22" y2="48.63"/><line class="cls-2" x1="65.72" y1="44.45" x2="65.72" y2="44.45"/><line class="cls-2" x1="78.53" y1="46.95" x2="78.53" y2="46.95"/><line class="cls-2" x1="73.7" y1="53.13" x2="73.7" y2="53.13"/><line class="cls-2" x1="72.03" y1="29.13" x2="72.03" y2="29.13"/><line class="cls-2" x1="68.86" y1="31.13" x2="68.86" y2="31.13"/><line class="cls-2" x1="65.65" y1="24.15" x2="65.65" y2="24.15"/><line class="cls-2" x1="73.36" y1="65.46" x2="73.36" y2="65.46"/><line class="cls-2" x1="74.86" y1="38.96" x2="74.86" y2="38.96"/><polyline class="cls-3" points="81.18 64.39 82.19 66.13 80.18 66.26"/><polyline class="cls-3" points="81.54 25.69 81.78 27.69 79.88 27.01"/><polyline class="cls-3" points="69.62 28.52 67.78 27.69 69.34 26.41"/><polyline class="cls-3" points="73.58 18.28 75.28 19.38 73.54 20.41"/><polyline class="cls-3" points="67.06 36.99 66.97 39.01 65.2 38.02"/><polyline class="cls-3" points="74.74 46.49 72.78 46.01 74.09 44.47"/><polyline class="cls-3" points="81.88 53.55 80.15 52.51 81.86 51.43"/><polyline class="cls-3" points="68.72 51.25 69.72 53.01 67.7 53.11"/><polyline class="cls-3" points="73.91 30.35 75.84 30.94 74.45 32.41"/><polyline class="cls-3" points="67.75 -1.98 68.53 -0.12 66.52 -0.26"/><polyline class="cls-3" points="73.01 5.66 75.03 5.63 74.15 7.45"/><polyline class="cls-3" points="66.01 11.65 68.03 11.63 67.15 13.45"/><polyline class="cls-3" points="81.53 38.8 82.22 40.69 80.21 40.46"/><polyline class="cls-3" points="69.19 66.13 67.18 66 68.2 64.25"/><polyline class="cls-3" points="77.23 60.1 75.22 60.26 75.97 58.38"/><rect class="cls-1" x="64.45" y="69.67" width="80.56" height="80.5"/><line class="cls-2" x1="71.97" y1="79.69" x2="71.97" y2="79.69"/><line class="cls-2" x1="76.53" y1="78.57" x2="76.53" y2="78.57"/><line class="cls-2" x1="69.78" y1="76.76" x2="69.78" y2="76.76"/><line class="cls-2" x1="71.15" y1="72.13" x2="71.15" y2="72.13"/><line class="cls-2" x1="77.72" y1="70.44" x2="77.72" y2="70.44"/><line class="cls-2" x1="67.22" y1="73.01" x2="67.22" y2="73.01"/><line class="cls-2" x1="65.72" y1="77.19" x2="65.72" y2="77.19"/><line class="cls-2" x1="78.53" y1="74.69" x2="78.53" y2="74.69"/><line class="cls-2" x1="73.28" y1="76.19" x2="73.28" y2="76.19"/><polyline class="cls-3" points="81.45 78.05 80.28 79.69 79.33 77.91"/><polyline class="cls-3" points="67.75 78.52 68.53 80.38 66.52 80.24"/><polyline class="cls-3" points="74.28 73.88 75.08 72.03 76.38 73.58"/><rect class="cls-1" x="-16.11" y="-10.83" width="80.56" height="80.5"/><line class="cls-2" x1="1.47" y1="4.63" x2="1.47" y2="4.63"/><line class="cls-2" x1="4.97" y1="1.88" x2="4.97" y2="1.88"/><line class="cls-2" x1="0.59" y1="1.26" x2="0.59" y2="1.26"/><line class="cls-2" x1="1.72" y1="22.26" x2="1.72" y2="22.26"/><line class="cls-2" x1="0.59" y1="18.15" x2="0.59" y2="18.15"/><line class="cls-2" x1="0.34" y1="15.63" x2="0.34" y2="15.63"/><line class="cls-2" x1="4.59" y1="15.59" x2="4.59" y2="15.59"/><line class="cls-2" x1="4.22" y1="10.59" x2="4.22" y2="10.59"/><line class="cls-2" x1="3.84" y1="6.21" x2="3.84" y2="6.21"/><line class="cls-2" x1="0.47" y1="9.53" x2="0.47" y2="9.53"/><line class="cls-2" x1="18.09" y1="2.51" x2="18.09" y2="2.51"/><line class="cls-2" x1="13.47" y1="2.57" x2="13.47" y2="2.57"/><line class="cls-2" x1="9.97" y1="2.38" x2="9.97" y2="2.38"/><line class="cls-2" x1="11.54" y1="5.76" x2="11.54" y2="5.76"/><line class="cls-2" x1="7.3" y1="8.96" x2="7.3" y2="8.96"/><line class="cls-2" x1="7.09" y1="12.38" x2="7.09" y2="12.38"/><line class="cls-2" x1="8.47" y1="15.76" x2="8.47" y2="15.76"/><line class="cls-2" x1="10.22" y1="10.76" x2="10.22" y2="10.76"/><line class="cls-2" x1="22.15" y1="2.13" x2="22.15" y2="2.13"/><line class="cls-2" x1="24.84" y1="4.01" x2="24.84" y2="4.01"/><line class="cls-2" x1="28.64" y1="4.46" x2="28.64" y2="4.46"/><line class="cls-2" x1="25.22" y1="7.26" x2="25.22" y2="7.26"/><line class="cls-2" x1="27.34" y1="1.26" x2="27.34" y2="1.26"/><line class="cls-2" x1="34.47" y1="68.46" x2="34.47" y2="68.46"/><line class="cls-2" x1="18.15" y1="16.9" x2="18.15" y2="16.9"/><line class="cls-2" x1="14.22" y1="16.28" x2="14.22" y2="16.28"/><line class="cls-2" x1="10.59" y1="17.4" x2="10.59" y2="17.4"/><line class="cls-2" x1="3.72" y1="20.03" x2="3.72" y2="20.03"/><line class="cls-2" x1="18.09" y1="20.21" x2="18.09" y2="20.21"/><line class="cls-2" x1="10.09" y1="21.26" x2="10.09" y2="21.26"/><line class="cls-2" x1="9.3" y1="24.63" x2="9.3" y2="24.63"/><line class="cls-2" x1="4.3" y1="25.46" x2="4.3" y2="25.46"/><line class="cls-2" x1="5.97" y1="28.13" x2="5.97" y2="28.13"/><line class="cls-2" x1="39.97" y1="22.8" x2="39.97" y2="22.8"/><line class="cls-2" x1="36.47" y1="25.13" x2="36.47" y2="25.13"/><line class="cls-2" x1="44.8" y1="24.96" x2="44.8" y2="24.96"/><line class="cls-2" x1="62.34" y1="26.65" x2="62.34" y2="26.65"/><line class="cls-2" x1="5.84" y1="22.38" x2="5.84" y2="22.38"/><line class="cls-2" x1="14.09" y1="19.65" x2="14.09" y2="19.65"/><line class="cls-2" x1="24.72" y1="18.4" x2="24.72" y2="18.4"/><line class="cls-2" x1="24.84" y1="21.71" x2="24.84" y2="21.71"/><line class="cls-2" x1="20.72" y1="23.01" x2="20.72" y2="23.01"/><line class="cls-2" x1="15.22" y1="23.15" x2="15.22" y2="23.15"/><line class="cls-2" x1="17.97" y1="26.01" x2="17.97" y2="26.01"/><line class="cls-2" x1="21.84" y1="27.38" x2="21.84" y2="27.38"/><line class="cls-2" x1="28.72" y1="23.78" x2="28.72" y2="23.78"/><line class="cls-2" x1="23.8" y1="25.13" x2="23.8" y2="25.13"/><line class="cls-2" x1="27.97" y1="19.9" x2="27.97" y2="19.9"/><line class="cls-2" x1="27.09" y1="15.63" x2="27.09" y2="15.63"/><line class="cls-2" x1="30.09" y1="18.28" x2="30.09" y2="18.28"/><line class="cls-2" x1="33.09" y1="15.76" x2="33.09" y2="15.76"/><line class="cls-2" x1="35.84" y1="13.26" x2="35.84" y2="13.26"/><line class="cls-2" x1="36.34" y1="16.76" x2="36.34" y2="16.76"/><line class="cls-2" x1="39.09" y1="15.15" x2="39.09" y2="15.15"/><line class="cls-2" x1="39.72" y1="18.9" x2="39.72" y2="18.9"/><line class="cls-2" x1="42.59" y1="19.65" x2="42.59" y2="19.65"/><line class="cls-2" x1="36.97" y1="20.38" x2="36.97" y2="20.38"/><line class="cls-2" x1="33.59" y1="23.01" x2="33.59" y2="23.01"/><line class="cls-2" x1="38.22" y1="10.38" x2="38.22" y2="10.38"/><line class="cls-2" x1="30.72" y1="9.63" x2="30.72" y2="9.63"/><line class="cls-2" x1="30.59" y1="6.21" x2="30.59" y2="6.21"/><line class="cls-2" x1="22.72" y1="15.78" x2="22.72" y2="15.78"/><line class="cls-2" x1="16.8" y1="14.13" x2="16.8" y2="14.13"/><line class="cls-2" x1="30.97" y1="25.76" x2="30.97" y2="25.76"/><line class="cls-2" x1="15.85" y1="5.77" x2="15.85" y2="5.77"/><line class="cls-2" x1="17.34" y1="9.34" x2="17.34" y2="9.34"/><line class="cls-2" x1="21.34" y1="9.63" x2="21.34" y2="9.63"/><line class="cls-2" x1="27.22" y1="9.53" x2="27.22" y2="9.53"/><line class="cls-2" x1="13.14" y1="9.3" x2="13.14" y2="9.3"/><line class="cls-2" x1="10.8" y1="14.3" x2="10.8" y2="14.3"/><line class="cls-2" x1="24.72" y1="11.9" x2="24.72" y2="11.9"/><line class="cls-2" x1="20.3" y1="13.13" x2="20.3" y2="13.13"/><line class="cls-2" x1="63.88" y1="0.57" x2="63.88" y2="0.57"/><line class="cls-2" x1="63.88" y1="18.28" x2="63.88" y2="18.28"/><line class="cls-2" x1="63.59" y1="7.13" x2="63.59" y2="7.13"/><line class="cls-2" x1="56.09" y1="1.94" x2="56.09" y2="1.94"/><line class="cls-2" x1="60.72" y1="2.01" x2="60.72" y2="2.01"/><line class="cls-2" x1="52.03" y1="1.57" x2="52.03" y2="1.57"/><line class="cls-2" x1="49.34" y1="3.44" x2="49.34" y2="3.44"/><line class="cls-2" x1="43.97" y1="2.13" x2="43.97" y2="2.13"/><line class="cls-2" x1="46.84" y1="0.69" x2="46.84" y2="0.69"/><line class="cls-2" x1="36.3" y1="0.13" x2="36.3" y2="0.13"/><line class="cls-2" x1="49.72" y1="7.88" x2="49.72" y2="7.88"/><line class="cls-2" x1="32.3" y1="2.63" x2="32.3" y2="2.63"/><line class="cls-2" x1="36.8" y1="3.63" x2="36.8" y2="3.63"/><line class="cls-2" x1="40.84" y1="3.13" x2="40.84" y2="3.13"/><line class="cls-2" x1="39.84" y1="6.51" x2="39.84" y2="6.51"/><line class="cls-2" x1="36.09" y1="7.63" x2="36.09" y2="7.63"/><line class="cls-2" x1="34.22" y1="10.51" x2="34.22" y2="10.51"/><line class="cls-2" x1="30.97" y1="13.76" x2="30.97" y2="13.76"/><line class="cls-2" x1="5.97" y1="67.63" x2="5.97" y2="67.63"/><line class="cls-2" x1="1.3" y1="68.3" x2="1.3" y2="68.3"/><line class="cls-2" x1="13.8" y1="46.13" x2="13.8" y2="46.13"/><line class="cls-2" x1="27.47" y1="67.8" x2="27.47" y2="67.8"/><line class="cls-2" x1="13.14" y1="68.46" x2="13.14" y2="68.46"/><line class="cls-2" x1="27.3" y1="59.8" x2="27.3" y2="59.8"/><line class="cls-2" x1="41.14" y1="68.3" x2="41.14" y2="68.3"/><line class="cls-2" x1="30.47" y1="68.96" x2="30.47" y2="68.96"/><line class="cls-2" x1="54.14" y1="68.8" x2="54.14" y2="68.8"/><line class="cls-2" x1="46.14" y1="68.63" x2="46.14" y2="68.63"/><line class="cls-2" x1="56.03" y1="16.34" x2="56.03" y2="16.34"/><line class="cls-2" x1="59.84" y1="16.57" x2="59.84" y2="16.57"/><line class="cls-2" x1="56.47" y1="21.28" x2="56.47" y2="21.28"/><line class="cls-2" x1="61.97" y1="22.38" x2="61.97" y2="22.38"/><line class="cls-2" x1="50.34" y1="18.44" x2="50.34" y2="18.44"/><line class="cls-2" x1="49.34" y1="21.15" x2="49.34" y2="21.15"/><line class="cls-2" x1="53.47" y1="22.44" x2="53.47" y2="22.44"/><line class="cls-2" x1="59.59" y1="23.65" x2="59.59" y2="23.65"/><line class="cls-2" x1="57.47" y1="25.65" x2="57.47" y2="25.65"/><line class="cls-2" x1="51.09" y1="27.88" x2="51.09" y2="27.88"/><line class="cls-2" x1="44.59" y1="21.69" x2="44.59" y2="21.69"/><line class="cls-2" x1="48.97" y1="24.4" x2="48.97" y2="24.4"/><line class="cls-2" x1="51.97" y1="5.38" x2="51.97" y2="5.38"/><line class="cls-2" x1="47.09" y1="15.07" x2="47.09" y2="15.07"/><line class="cls-2" x1="45.64" y1="11.96" x2="45.64" y2="11.96"/><line class="cls-2" x1="42.84" y1="15.03" x2="42.84" y2="15.03"/><line class="cls-2" x1="43.22" y1="10.03" x2="43.22" y2="10.03"/><line class="cls-2" x1="43.59" y1="5.65" x2="43.59" y2="5.65"/><line class="cls-2" x1="51.47" y1="15.21" x2="51.47" y2="15.21"/><line class="cls-2" x1="58.22" y1="13.4" x2="58.22" y2="13.4"/><line class="cls-2" x1="53.47" y1="18.51" x2="53.47" y2="18.51"/><line class="cls-2" x1="56.84" y1="8.78" x2="56.84" y2="8.78"/><line class="cls-2" x1="52.84" y1="9.07" x2="52.84" y2="9.07"/><line class="cls-2" x1="46.97" y1="8.96" x2="46.97" y2="8.96"/><line class="cls-2" x1="60.78" y1="9.65" x2="60.78" y2="9.65"/><line class="cls-2" x1="62.28" y1="13.84" x2="62.28" y2="13.84"/><line class="cls-2" x1="49.47" y1="11.34" x2="49.47" y2="11.34"/><line class="cls-2" x1="55.34" y1="5.26" x2="55.34" y2="5.26"/><line class="cls-2" x1="1.97" y1="45.88" x2="1.97" y2="45.88"/><line class="cls-2" x1="7.3" y1="53.63" x2="7.3" y2="53.63"/><line class="cls-2" x1="6.84" y1="62.48" x2="6.84" y2="62.48"/><line class="cls-2" x1="9.09" y1="64.65" x2="9.09" y2="64.65"/><line class="cls-2" x1="4.97" y1="56.97" x2="4.97" y2="56.97"/><line class="cls-2" x1="1.47" y1="55.96" x2="1.47" y2="55.96"/><line class="cls-2" x1="0.97" y1="60.96" x2="0.97" y2="60.96"/><line class="cls-2" x1="4.59" y1="60.97" x2="4.59" y2="60.97"/><line class="cls-2" x1="12.97" y1="32.3" x2="12.97" y2="32.3"/><line class="cls-2" x1="4.14" y1="64.8" x2="4.14" y2="64.8"/><line class="cls-2" x1="2.14" y1="29.3" x2="2.14" y2="29.3"/><line class="cls-2" x1="1.72" y1="36.59" x2="1.72" y2="36.59"/><line class="cls-2" x1="0.3" y1="33.13" x2="0.3" y2="33.13"/><line class="cls-2" x1="0.34" y1="43.22" x2="0.34" y2="43.22"/><line class="cls-2" x1="4.59" y1="43.26" x2="4.59" y2="43.26"/><line class="cls-2" x1="4.22" y1="48.26" x2="4.22" y2="48.26"/><line class="cls-2" x1="3.84" y1="52.63" x2="3.84" y2="52.63"/><line class="cls-2" x1="0.47" y1="49.32" x2="0.47" y2="49.32"/><line class="cls-2" x1="17.3" y1="57.8" x2="17.3" y2="57.8"/><line class="cls-2" x1="16.97" y1="54.13" x2="16.97" y2="54.13"/><line class="cls-2" x1="13.47" y1="56.28" x2="13.47" y2="56.28"/><line class="cls-2" x1="9.97" y1="56.47" x2="9.97" y2="56.47"/><line class="cls-2" x1="10.97" y1="53.09" x2="10.97" y2="53.09"/><line class="cls-2" x1="7.3" y1="49.88" x2="7.3" y2="49.88"/><line class="cls-2" x1="7.14" y1="39.46" x2="7.14" y2="39.46"/><line class="cls-2" x1="10.22" y1="48.09" x2="10.22" y2="48.09"/><line class="cls-2" x1="22.15" y1="56.72" x2="22.15" y2="56.72"/><line class="cls-2" x1="24.84" y1="54.84" x2="24.84" y2="54.84"/><line class="cls-2" x1="29.47" y1="54.84" x2="29.47" y2="54.84"/><line class="cls-2" x1="25.22" y1="51.59" x2="25.22" y2="51.59"/><line class="cls-2" x1="25.64" y1="57.13" x2="25.64" y2="57.13"/><line class="cls-2" x1="27.84" y1="63.34" x2="27.84" y2="63.34"/><line class="cls-2" x1="30.64" y1="58.13" x2="30.64" y2="58.13"/><line class="cls-2" x1="30.64" y1="62.72" x2="30.64" y2="62.72"/><line class="cls-2" x1="32.64" y1="65.46" x2="32.64" y2="65.46"/><line class="cls-2" x1="22.72" y1="60.78" x2="22.72" y2="60.78"/><line class="cls-2" x1="15.97" y1="62.59" x2="15.97" y2="62.59"/><line class="cls-2" x1="17.34" y1="67.22" x2="17.34" y2="67.22"/><line class="cls-2" x1="21.97" y1="67.63" x2="21.97" y2="67.63"/><line class="cls-2" x1="13.64" y1="59.13" x2="13.64" y2="59.13"/><line class="cls-2" x1="9.76" y1="67.48" x2="9.76" y2="67.48"/><line class="cls-2" x1="11.9" y1="62.15" x2="11.9" y2="62.15"/><line class="cls-2" x1="22.97" y1="64.46" x2="22.97" y2="64.46"/><line class="cls-2" x1="18.97" y1="64.13" x2="18.97" y2="64.13"/><line class="cls-2" x1="18.15" y1="41.95" x2="18.15" y2="41.95"/><line class="cls-2" x1="14.34" y1="41.72" x2="14.34" y2="41.72"/><line class="cls-2" x1="10.97" y1="40.97" x2="10.97" y2="40.97"/><line class="cls-2" x1="3.84" y1="39.84" x2="3.84" y2="39.84"/><line class="cls-2" x1="18.09" y1="38.63" x2="18.09" y2="38.63"/><line class="cls-2" x1="10.09" y1="37.59" x2="10.09" y2="37.59"/><line class="cls-2" x1="9.3" y1="34.22" x2="9.3" y2="34.22"/><line class="cls-2" x1="4.3" y1="33.38" x2="4.3" y2="33.38"/><line class="cls-2" x1="9.64" y1="28.96" x2="9.64" y2="28.96"/><line class="cls-2" x1="39.97" y1="36.05" x2="39.97" y2="36.05"/><line class="cls-2" x1="35.9" y1="33.72" x2="35.9" y2="33.72"/><line class="cls-2" x1="44.8" y1="33.88" x2="44.8" y2="33.88"/><line class="cls-2" x1="59.14" y1="28.63" x2="59.14" y2="28.63"/><line class="cls-2" x1="55.3" y1="29.8" x2="55.3" y2="29.8"/><line class="cls-2" x1="39.3" y1="28.3" x2="39.3" y2="28.3"/><line class="cls-2" x1="34.3" y1="28.3" x2="34.3" y2="28.3"/><line class="cls-2" x1="17.47" y1="29.3" x2="17.47" y2="29.3"/><line class="cls-2" x1="13.64" y1="28.8" x2="13.64" y2="28.8"/><line class="cls-2" x1="63.3" y1="30.88" x2="63.3" y2="30.88"/><line class="cls-2" x1="5.84" y1="36.47" x2="5.84" y2="36.47"/><line class="cls-2" x1="13.47" y1="38.57" x2="13.47" y2="38.57"/><line class="cls-2" x1="23.84" y1="39.84" x2="23.84" y2="39.84"/><line class="cls-2" x1="24.84" y1="37.13" x2="24.84" y2="37.13"/><line class="cls-2" x1="20.72" y1="35.84" x2="20.72" y2="35.84"/><line class="cls-2" x1="15.72" y1="35.59" x2="15.72" y2="35.59"/><line class="cls-2" x1="17.97" y1="32.84" x2="17.97" y2="32.84"/><line class="cls-2" x1="23.64" y1="30.46" x2="23.64" y2="30.46"/><line class="cls-2" x1="29.59" y1="36.59" x2="29.59" y2="36.59"/><line class="cls-2" x1="23.8" y1="33.72" x2="23.8" y2="33.72"/><line class="cls-2" x1="27.3" y1="32.8" x2="27.3" y2="32.8"/><line class="cls-2" x1="27.09" y1="43.22" x2="27.09" y2="43.22"/><line class="cls-2" x1="31.97" y1="39.46" x2="31.97" y2="39.46"/><line class="cls-2" x1="31.3" y1="42.13" x2="31.3" y2="42.13"/><line class="cls-2" x1="35.84" y1="45.59" x2="35.84" y2="45.59"/><line class="cls-2" x1="36.34" y1="42.09" x2="36.34" y2="42.09"/><line class="cls-2" x1="39.72" y1="42.97" x2="39.72" y2="42.97"/><line class="cls-2" x1="38.94" y1="31.75" x2="38.94" y2="31.75"/><line class="cls-2" x1="42.47" y1="31.43" x2="42.47" y2="31.43"/><line class="cls-2" x1="43.3" y1="40.55" x2="43.3" y2="40.55"/><line class="cls-2" x1="36.97" y1="38.47" x2="36.97" y2="38.47"/><line class="cls-2" x1="33.31" y1="36.41" x2="33.31" y2="36.41"/><line class="cls-2" x1="38.22" y1="48.47" x2="38.22" y2="48.47"/><line class="cls-2" x1="30.72" y1="49.22" x2="30.72" y2="49.22"/><line class="cls-2" x1="32.3" y1="52.46" x2="32.3" y2="52.46"/><line class="cls-2" x1="22.72" y1="43.07" x2="22.72" y2="43.07"/><line class="cls-2" x1="16.8" y1="44.72" x2="16.8" y2="44.72"/><line class="cls-2" x1="30.97" y1="33.09" x2="30.97" y2="33.09"/><line class="cls-2" x1="20.64" y1="53.13" x2="20.64" y2="53.13"/><line class="cls-2" x1="17.34" y1="49.51" x2="17.34" y2="49.51"/><line class="cls-2" x1="21.34" y1="49.22" x2="21.34" y2="49.22"/><line class="cls-2" x1="27.22" y1="49.32" x2="27.22" y2="49.32"/><line class="cls-2" x1="13.14" y1="49.55" x2="13.14" y2="49.55"/><line class="cls-2" x1="10.8" y1="44.55" x2="10.8" y2="44.55"/><line class="cls-2" x1="24.72" y1="46.95" x2="24.72" y2="46.95"/><line class="cls-2" x1="20.64" y1="40.3" x2="20.64" y2="40.3"/><line class="cls-2" x1="63.88" y1="58.28" x2="63.88" y2="58.28"/><line class="cls-2" x1="63.88" y1="40.57" x2="63.88" y2="40.57"/><line class="cls-2" x1="63.59" y1="51.72" x2="63.59" y2="51.72"/><line class="cls-2" x1="56.03" y1="60.22" x2="56.03" y2="60.22"/><line class="cls-2" x1="56.09" y1="56.9" x2="56.09" y2="56.9"/><line class="cls-2" x1="61.22" y1="55.88" x2="61.22" y2="55.88"/><line class="cls-2" x1="52.03" y1="57.28" x2="52.03" y2="57.28"/><line class="cls-2" x1="49.34" y1="55.4" x2="49.34" y2="55.4"/><line class="cls-2" x1="43.97" y1="56.72" x2="43.97" y2="56.72"/><line class="cls-2" x1="47.97" y1="61.34" x2="47.97" y2="61.34"/><line class="cls-2" x1="47.14" y1="64.13" x2="47.14" y2="64.13"/><line class="cls-2" x1="42.84" y1="61.53" x2="42.84" y2="61.53"/><line class="cls-2" x1="43.8" y1="65.63" x2="43.8" y2="65.63"/><line class="cls-2" x1="36.84" y1="66.34" x2="36.84" y2="66.34"/><line class="cls-2" x1="40.97" y1="59.46" x2="40.97" y2="59.46"/><line class="cls-2" x1="37.8" y1="63.22" x2="37.8" y2="63.22"/><line class="cls-2" x1="34.72" y1="61.84" x2="34.72" y2="61.84"/><line class="cls-2" x1="28.64" y1="28.96" x2="28.64" y2="28.96"/><line class="cls-2" x1="49.72" y1="50.97" x2="49.72" y2="50.97"/><line class="cls-2" x1="36.64" y1="56.8" x2="36.64" y2="56.8"/><line class="cls-2" x1="33.3" y1="55.13" x2="33.3" y2="55.13"/><line class="cls-2" x1="37.47" y1="59.72" x2="37.47" y2="59.72"/><line class="cls-2" x1="40.84" y1="55.72" x2="40.84" y2="55.72"/><line class="cls-2" x1="45.8" y1="28.46" x2="45.8" y2="28.46"/><line class="cls-2" x1="36.3" y1="52.46" x2="36.3" y2="52.46"/><line class="cls-2" x1="34.22" y1="48.34" x2="34.22" y2="48.34"/><line class="cls-2" x1="28.97" y1="45.8" x2="28.97" y2="45.8"/><line class="cls-2" x1="51.47" y1="61.34" x2="51.47" y2="61.34"/><line class="cls-2" x1="58.22" y1="63.15" x2="58.22" y2="63.15"/><line class="cls-2" x1="62.8" y1="65.46" x2="62.8" y2="65.46"/><line class="cls-2" x1="57.14" y1="66.46" x2="57.14" y2="66.46"/><line class="cls-2" x1="59.8" y1="53.46" x2="59.8" y2="53.46"/><line class="cls-2" x1="52.3" y1="33.13" x2="52.3" y2="33.13"/><line class="cls-2" x1="62.28" y1="62.72" x2="62.28" y2="62.72"/><line class="cls-2" x1="49.8" y1="66.63" x2="49.8" y2="66.63"/><line class="cls-2" x1="53.97" y1="62.8" x2="53.97" y2="62.8"/><line class="cls-2" x1="56.03" y1="42.51" x2="56.03" y2="42.51"/><line class="cls-2" x1="59.84" y1="42.28" x2="59.84" y2="42.28"/><line class="cls-2" x1="56.09" y1="39.2" x2="56.09" y2="39.2"/><line class="cls-2" x1="61.97" y1="36.47" x2="61.97" y2="36.47"/><line class="cls-2" x1="50.34" y1="40.4" x2="50.34" y2="40.4"/><line class="cls-2" x1="48.3" y1="37.46" x2="48.3" y2="37.46"/><line class="cls-2" x1="53.47" y1="36.4" x2="53.47" y2="36.4"/><line class="cls-2" x1="58.47" y1="36.15" x2="58.47" y2="36.15"/><line class="cls-2" x1="56.22" y1="33.4" x2="56.22" y2="33.4"/><line class="cls-2" x1="51.09" y1="30.97" x2="51.09" y2="30.97"/><line class="cls-2" x1="44.59" y1="37.15" x2="44.59" y2="37.15"/><line class="cls-2" x1="48.97" y1="34.45" x2="48.97" y2="34.45"/><line class="cls-2" x1="47.3" y1="53.13" x2="47.3" y2="53.13"/><line class="cls-2" x1="46.97" y1="41.46" x2="46.97" y2="41.46"/><line class="cls-2" x1="41.14" y1="46.13" x2="41.14" y2="46.13"/><line class="cls-2" x1="44.09" y1="44.15" x2="44.09" y2="44.15"/><line class="cls-2" x1="43.22" y1="48.82" x2="43.22" y2="48.82"/><line class="cls-2" x1="43.59" y1="53.2" x2="43.59" y2="53.2"/><line class="cls-2" x1="51.47" y1="43.63" x2="51.47" y2="43.63"/><line class="cls-2" x1="59.64" y1="38.8" x2="59.64" y2="38.8"/><line class="cls-2" x1="55.22" y1="46.15" x2="55.22" y2="46.15"/><line class="cls-2" x1="56.84" y1="50.07" x2="56.84" y2="50.07"/><line class="cls-2" x1="55.59" y1="53.53" x2="55.59" y2="53.53"/><line class="cls-2" x1="53.84" y1="49.28" x2="53.84" y2="49.28"/><line class="cls-2" x1="46.97" y1="49.88" x2="46.97" y2="49.88"/><line class="cls-2" x1="60.78" y1="49.2" x2="60.78" y2="49.2"/><line class="cls-2" x1="62.28" y1="45.01" x2="62.28" y2="45.01"/><line class="cls-2" x1="50.84" y1="48.03" x2="50.84" y2="48.03"/><polyline class="cls-3" points="21.63 5.13 21.91 7.13 19.99 6.49"/><polyline class="cls-3" points="7.52 4.2 8.53 5.94 6.52 6.07"/><polyline class="cls-3" points="40.64 11.82 41.66 13.57 39.64 13.7"/><polyline class="cls-3" points="0.62 64.39 1.64 66.13 -0.38 66.26"/><polyline class="cls-3" points="52.95 24.39 53.97 26.13 51.95 26.26"/><polyline class="cls-3" points="28.45 50.88 29.47 52.63 27.45 52.76"/><polyline class="cls-3" points="13.4 -1.87 15.16 -0.87 13.48 0.25"/><polyline class="cls-3" points="38.81 -1.53 40.56 -0.53 38.89 0.59"/><polyline class="cls-3" points="0.98 25.69 1.22 27.69 -0.68 27.01"/><polyline class="cls-3" points="53.98 11.13 54.22 13.13 52.32 12.45"/><polyline class="cls-3" points="26.48 64.88 26.72 66.88 24.82 66.2"/><polyline class="cls-3" points="46.73 30.13 46.97 32.13 45.07 31.45"/><polyline class="cls-3" points="47.48 17.63 47.72 19.63 45.82 18.95"/><polyline class="cls-3" points="33.98 19.13 34.22 21.13 32.32 20.45"/><polyline class="cls-3" points="15.32 12.86 13.35 12.44 14.6 10.86"/><polyline class="cls-3" points="20.11 20.07 21.22 18.38 22.23 20.13"/><polyline class="cls-3" points="13.85 34.55 13.91 36.57 12.08 35.72"/><polyline class="cls-3" points="53.16 64.61 53.22 66.63 51.39 65.78"/><polyline class="cls-3" points="0.37 13.34 2.03 12.19 2.32 14.19"/><polyline class="cls-3" points="13.46 51.34 15.16 52.44 13.42 53.47"/><polyline class="cls-3" points="8.44 18.95 6.84 20.19 6.45 18.21"/><polyline class="cls-3" points="60.72 5.13 59.13 6.37 58.73 4.39"/><polyline class="cls-3" points="34.94 30.41 33.34 31.65 32.95 29.67"/><polyline class="cls-3" points="33.32 43.86 33.22 45.88 31.46 44.89"/><polyline class="cls-3" points="42.18 65.12 40.22 64.63 41.53 63.1"/><polyline class="cls-3" points="1.32 53.55 -0.41 52.51 1.3 51.43"/><polyline class="cls-3" points="59.97 59.88 58.24 58.83 59.95 57.76"/><polyline class="cls-3" points="41.2 40.18 39.47 39.13 41.18 38.05"/><polyline class="cls-3" points="6.4 44.34 8.39 43.98 7.82 45.92"/><polyline class="cls-3" points="58.55 19.05 60.54 18.69 59.97 20.63"/><polyline class="cls-3" points="61.72 47.12 59.72 47.4 60.36 45.48"/><polyline class="cls-3" points="20.2 32.97 21.72 31.65 22.23 33.6"/><polyline class="cls-3" points="50.69 53.75 52.22 52.43 52.72 54.38"/><polyline class="cls-3" points="39.01 26.45 40.53 25.13 41.04 27.09"/><polyline class="cls-3" points="26.47 13.38 27.99 12.06 28.5 14.01"/><polyline class="cls-3" points="5.9 32.3 6.43 30.35 7.94 31.7"/><polyline class="cls-3" points="45.18 7.13 45.72 5.18 47.22 6.53"/><polyline class="cls-3" points="18.68 61.85 19.22 59.91 20.72 61.26"/><polyline class="cls-3" points="25.64 26.84 27.03 25.38 27.72 27.28"/><polyline class="cls-3" points="32.29 58.29 34.22 58.88 32.83 60.34"/><polyline class="cls-3" points="7.23 58.1 9.16 58.69 7.77 60.16"/><polyline class="cls-3" points="59.66 66.89 61.59 67.48 60.2 68.95"/><polyline class="cls-3" points="0.97 38.8 1.66 40.69 -0.35 40.46"/><polyline class="cls-3" points="52.28 37.73 52.97 39.63 50.97 39.4"/><polyline class="cls-3" points="47.53 44.5 48.22 46.4 46.22 46.17"/><polyline class="cls-3" points="20.55 47.07 18.53 46.94 19.55 45.2"/><polyline class="cls-3" points="14.47 66.63 12.46 66.5 13.47 64.75"/><polyline class="cls-3" points="41.23 52.51 39.22 52.38 40.23 50.63"/><polyline class="cls-3" points="14.86 26.28 12.85 26.44 13.6 24.57"/><polyline class="cls-3" points="51.72 -0.12 49.71 0.04 50.46 -1.83"/><polyline class="cls-3" points="34.23 7.47 32.22 7.63 32.98 5.76"/><polyline class="cls-3" points="60.97 33.13 58.96 33.29 59.71 31.42"/><polyline class="cls-3" points="47.72 59.38 45.71 59.54 46.46 57.67"/><polyline class="cls-3" points="27.01 38.66 28.97 39.13 27.67 40.68"/><rect class="cls-1" x="-16.11" y="69.67" width="80.56" height="80.5"/><line class="cls-2" x1="7.97" y1="76.63" x2="7.97" y2="76.63"/><line class="cls-2" x1="1.09" y1="76.01" x2="1.09" y2="76.01"/><line class="cls-2" x1="4.59" y1="78.38" x2="4.59" y2="78.38"/><line class="cls-2" x1="8.22" y1="79.76" x2="8.22" y2="79.76"/><line class="cls-2" x1="4.22" y1="73.38" x2="4.22" y2="73.38"/><line class="cls-2" x1="0.47" y1="72.32" x2="0.47" y2="72.32"/><line class="cls-2" x1="18.15" y1="79.69" x2="18.15" y2="79.69"/><line class="cls-2" x1="26.97" y1="75.96" x2="26.97" y2="75.96"/><line class="cls-2" x1="31.3" y1="79.96" x2="31.3" y2="79.96"/><line class="cls-2" x1="30.64" y1="76.63" x2="30.64" y2="76.63"/><line class="cls-2" x1="30.97" y1="73.38" x2="30.97" y2="73.38"/><line class="cls-2" x1="22.72" y1="78.57" x2="22.72" y2="78.57"/><line class="cls-2" x1="15.97" y1="76.76" x2="15.97" y2="76.76"/><line class="cls-2" x1="17.34" y1="72.13" x2="17.34" y2="72.13"/><line class="cls-2" x1="23.9" y1="70.44" x2="23.9" y2="70.44"/><line class="cls-2" x1="27.22" y1="72.32" x2="27.22" y2="72.32"/><line class="cls-2" x1="13.4" y1="73.01" x2="13.4" y2="73.01"/><line class="cls-2" x1="10.09" y1="74.01" x2="10.09" y2="74.01"/><line class="cls-2" x1="9.22" y1="70.38" x2="9.22" y2="70.38"/><line class="cls-2" x1="11.9" y1="77.19" x2="11.9" y2="77.19"/><line class="cls-2" x1="23.3" y1="73.63" x2="23.3" y2="73.63"/><line class="cls-2" x1="19.47" y1="76.19" x2="19.47" y2="76.19"/><line class="cls-2" x1="56.03" y1="79.13" x2="56.03" y2="79.13"/><line class="cls-2" x1="59.59" y1="79.78" x2="59.59" y2="79.78"/><line class="cls-2" x1="47.97" y1="78.01" x2="47.97" y2="78.01"/><line class="cls-2" x1="46.34" y1="75.44" x2="46.34" y2="75.44"/><line class="cls-2" x1="42.64" y1="76.63" x2="42.64" y2="76.63"/><line class="cls-2" x1="43.22" y1="72.82" x2="43.22" y2="72.82"/><line class="cls-2" x1="39.47" y1="71.01" x2="39.47" y2="71.01"/><line class="cls-2" x1="36.84" y1="73.01" x2="36.84" y2="73.01"/><line class="cls-2" x1="39.97" y1="73.88" x2="39.97" y2="73.88"/><line class="cls-2" x1="37.8" y1="76.13" x2="37.8" y2="76.13"/><line class="cls-2" x1="34.72" y1="77.51" x2="34.72" y2="77.51"/><line class="cls-2" x1="36.3" y1="80.63" x2="36.3" y2="80.63"/><line class="cls-2" x1="43.3" y1="78.96" x2="43.3" y2="78.96"/><line class="cls-2" x1="51.47" y1="78.01" x2="51.47" y2="78.01"/><line class="cls-2" x1="62.09" y1="71.15" x2="62.09" y2="71.15"/><line class="cls-2" x1="56.84" y1="71.57" x2="56.84" y2="71.57"/><line class="cls-2" x1="50.22" y1="70.38" x2="50.22" y2="70.38"/><line class="cls-2" x1="52.59" y1="72.63" x2="52.59" y2="72.63"/><line class="cls-2" x1="61.59" y1="76.65" x2="61.59" y2="76.65"/><line class="cls-2" x1="59.72" y1="73.53" x2="59.72" y2="73.53"/><line class="cls-2" x1="49.47" y1="74.13" x2="49.47" y2="74.13"/><line class="cls-2" x1="54.72" y1="75.63" x2="54.72" y2="75.63"/><polyline class="cls-3" points="8.23 73.35 6.28 72.82 7.63 71.31"/><polyline class="cls-3" points="13.4 78.63 15.16 79.63 13.48 80.75"/><polyline class="cls-3" points="38.81 78.97 40.56 79.97 38.89 81.09"/><polyline class="cls-3" points="0.89 78.05 -0.28 79.69 -1.23 77.91"/><polyline class="cls-3" points="34.41 70.86 34.47 72.88 32.64 72.03"/><polyline class="cls-3" points="27.11 78.89 25.51 80.13 25.11 78.15"/><polyline class="cls-3" points="19.18 73.72 20.7 72.4 21.2 74.36"/><polyline class="cls-3" points="45.29 71.29 47.22 71.88 45.83 73.34"/><polyline class="cls-3" points="59.47 76.16 57.59 76.9 57.77 74.89"/><polyline class="cls-3" points="51.72 80.38 49.71 80.54 50.46 78.67"/><rect class="cls-1" width="80.5" height="80.5"/></svg>