<svg id="Layer_1" data-name="Layer 1" xmlns="http://www.w3.org/2000/svg" width="80.56" height="80.5" viewBox="0 0 80.56 80.5"><defs><style>.cls-1,.cls-2{fill:none;}.cls-2{stroke:#000;stroke-width:0.3px;}</style></defs><title>Artboard 37</title><rect class="cls-1" x="52.63" y="-12.5" width="80.56" height="80.5"/><polyline class="cls-2" points="76.26 2.52 77.28 4.27 75.26 4.4"/><polyline class="cls-2" points="68.22 62.17 69.24 63.91 67.22 64.04"/><polyline class="cls-2" points="69.73 24.01 69.97 26.02 68.06 25.34"/><polyline class="cls-2" points="56.39 26.84 54.55 26.02 56.11 24.74"/><polyline class="cls-2" points="82.33 34.59 82.38 36.61 80.55 35.76"/><polyline class="cls-2" points="69.12 11.67 70.78 10.52 71.07 12.52"/><polyline class="cls-2" points="61.77 16.61 63.47 17.71 61.73 18.73"/><polyline class="cls-2" points="77.18 17.28 75.59 18.52 75.19 16.54"/><polyline class="cls-2" points="55.25 35.31 55.15 37.33 53.39 36.34"/><polyline class="cls-2" points="63.35 44.02 61.4 43.53 62.71 41.99"/><polyline class="cls-2" points="70.07 50.74 68.34 49.7 70.05 48.62"/><polyline class="cls-2" points="74.47 44.02 76.45 43.67 75.88 45.61"/><polyline class="cls-2" points="56.91 49.58 57.9 51.33 55.89 51.44"/><polyline class="cls-2" points="73.84 31.71 74.38 29.76 75.88 31.11"/><polyline class="cls-2" points="61.53 30.09 63.46 30.68 62.07 32.15"/><polyline class="cls-2" points="75.97 56.43 77.9 57.02 76.51 58.48"/><polyline class="cls-2" points="61.2 3.98 63.22 3.96 62.34 5.77"/><polyline class="cls-2" points="54.2 9.98 56.22 9.96 55.34 11.77"/><polyline class="cls-2" points="69.72 37.12 70.4 39.02 68.4 38.79"/><polyline class="cls-2" points="82.57 65.21 80.56 65.08 81.57 63.33"/><polyline class="cls-2" points="58.35 60.99 56.34 60.86 57.35 59.11"/><polyline class="cls-2" points="65.98 56.72 63.97 56.88 64.72 55.01"/><rect class="cls-1" x="52.63" y="68" width="80.56" height="80.5"/><polyline class="cls-2" points="73.95 71.56 73.32 69.64 75.32 69.94"/><polyline class="cls-2" points="68.22 77.22 67.05 78.87 66.09 77.09"/><polyline class="cls-2" points="55.94 76.84 56.72 78.71 54.7 78.57"/><polyline class="cls-2" points="62.45 70.41 63.25 68.56 64.55 70.11"/><rect class="cls-1" x="-27.93" y="-12.5" width="80.56" height="80.5"/><polyline class="cls-2" points="9.81 3.46 10.09 5.46 8.18 4.82"/><polyline class="cls-2" points="29.68 10.15 30.7 11.89 28.68 12.02"/><polyline class="cls-2" points="41.14 22.71 42.16 24.46 40.14 24.59"/><polyline class="cls-2" points="15.31 49.61 16.32 51.36 14.31 51.49"/><polyline class="cls-2" points="43.02 10.02 43.26 12.02 41.36 11.34"/><polyline class="cls-2" points="14.67 61.5 14.91 63.51 13.01 62.82"/><polyline class="cls-2" points="34.84 27.1 35.08 29.11 33.17 28.43"/><polyline class="cls-2" points="35.67 15.95 35.91 17.96 34.01 17.27"/><polyline class="cls-2" points="20.84 16.35 21.07 18.36 19.18 17.68"/><polyline class="cls-2" points="3.51 11.18 1.53 10.77 2.79 9.19"/><polyline class="cls-2" points="8.3 18.39 9.41 16.71 10.42 18.45"/><polyline class="cls-2" points="1.77 34.59 1.82 36.61 -0.01 35.76"/><polyline class="cls-2" points="41.35 62.94 41.41 64.96 39.58 64.11"/><polyline class="cls-2" points="2.38 49.01 4.08 50.11 2.34 51.13"/><polyline class="cls-2" points="48.91 3.46 47.31 4.7 46.91 2.72"/><polyline class="cls-2" points="23.13 30.15 21.53 31.39 21.13 29.41"/><polyline class="cls-2" points="21.42 41.84 21.32 43.86 19.56 42.87"/><polyline class="cls-2" points="29.82 64.61 27.87 64.12 29.18 62.58"/><polyline class="cls-2" points="48.05 56.4 46.33 55.36 48.03 54.28"/><polyline class="cls-2" points="29.38 38.5 27.66 37.46 29.36 36.38"/><polyline class="cls-2" points="51.34 20.47 50.16 18.83 52.15 18.51"/><polyline class="cls-2" points="50.61 43.9 48.62 44.19 49.25 42.27"/><polyline class="cls-2" points="8.3 30.98 9.82 29.65 10.32 31.61"/><polyline class="cls-2" points="39.77 50.72 41.29 49.4 41.8 51.35"/><polyline class="cls-2" points="27.2 23.36 28.72 22.04 29.22 23.99"/><polyline class="cls-2" points="14.66 11.71 16.18 10.38 16.68 12.34"/><polyline class="cls-2" points="33.37 5.45 33.9 3.5 35.41 4.85"/><polyline class="cls-2" points="6.29 58.21 6.82 56.26 8.32 57.61"/><polyline class="cls-2" points="13.83 25.17 15.22 23.71 15.91 25.6"/><polyline class="cls-2" points="20.48 56.61 22.41 57.21 21.02 58.67"/><polyline class="cls-2" points="49.84 65.22 51.77 65.81 50.38 67.27"/><polyline class="cls-2" points="40.47 36.06 41.16 37.96 39.15 37.72"/><polyline class="cls-2" points="35.72 42.83 36.41 44.73 34.4 44.49"/><polyline class="cls-2" points="8.57 42.86 6.56 42.73 7.58 40.98"/><polyline class="cls-2" points="2.01 65.21 0 65.08 1.01 63.33"/><polyline class="cls-2" points="29.42 50.84 27.41 50.71 28.42 48.96"/><polyline class="cls-2" points="3.04 24.61 1.03 24.77 1.79 22.9"/><polyline class="cls-2" points="22.07 6.86 20.06 7.02 20.82 5.14"/><polyline class="cls-2" points="49.16 31.46 47.14 31.61 47.9 29.74"/><polyline class="cls-2" points="37.32 57.99 35.31 58.15 36.07 56.28"/><polyline class="cls-2" points="14.86 36.88 16.82 37.36 15.53 38.9"/><rect class="cls-1" x="-27.93" y="68" width="80.56" height="80.5"/><polyline class="cls-2" points="1.59 76.95 3.34 77.96 1.67 79.08"/><polyline class="cls-2" points="27 77.29 28.75 78.29 27.07 79.41"/><polyline class="cls-2" points="22.6 69.19 22.66 71.21 20.82 70.36"/><polyline class="cls-2" points="16.57 78.11 14.98 79.35 14.58 77.37"/><polyline class="cls-2" points="7.36 72.05 8.89 70.73 9.39 72.68"/><polyline class="cls-2" points="33.48 69.61 35.41 70.21 34.02 71.67"/><polyline class="cls-2" points="48.79 74.49 46.91 75.23 47.09 73.22"/><polyline class="cls-2" points="41.04 78.71 39.03 78.86 39.78 76.99"/><rect class="cls-1" width="80.5" height="80.5"/></svg>