<svg id="Layer_1" data-name="Layer 1" xmlns="http://www.w3.org/2000/svg" width="80.56" height="80.5" viewBox="0 0 80.56 80.5"><defs><style>.cls-1,.cls-2,.cls-3{fill:none;}.cls-2,.cls-3{stroke:#000;}.cls-2{stroke-width:0.3px;}.cls-3{stroke-linecap:round;stroke-width:0.6px;}</style></defs><title>Artboard 37</title><rect class="cls-1" x="70.86" y="-16.97" width="80.56" height="80.5"/><line class="cls-2" x1="79.81" y1="11.98" x2="81.83" y2="14"/><line class="cls-2" x1="81.83" y1="11.98" x2="79.81" y2="14"/><line class="cls-2" x1="73.25" y1="18.67" x2="75.27" y2="20.69"/><line class="cls-2" x1="75.27" y1="18.67" x2="73.25" y2="20.69"/><line class="cls-2" x1="79.81" y1="-1.33" x2="81.83" y2="0.69"/><line class="cls-2" x1="81.83" y1="-1.33" x2="79.81" y2="0.69"/><line class="cls-2" x1="73.25" y1="5.35" x2="75.27" y2="7.38"/><line class="cls-2" x1="75.27" y1="5.35" x2="73.25" y2="7.38"/><line class="cls-2" x1="79.81" y1="38.54" x2="81.83" y2="40.57"/><line class="cls-2" x1="81.83" y1="38.54" x2="79.81" y2="40.57"/><line class="cls-2" x1="73.25" y1="45.23" x2="75.27" y2="47.25"/><line class="cls-2" x1="75.27" y1="45.23" x2="73.25" y2="47.25"/><line class="cls-2" x1="79.81" y1="25.23" x2="81.83" y2="27.25"/><line class="cls-2" x1="81.83" y1="25.23" x2="79.81" y2="27.25"/><line class="cls-2" x1="73.25" y1="31.92" x2="75.27" y2="33.94"/><line class="cls-2" x1="75.27" y1="31.92" x2="73.25" y2="33.94"/><line class="cls-2" x1="79.81" y1="51.84" x2="81.83" y2="53.87"/><line class="cls-2" x1="81.83" y1="51.84" x2="79.81" y2="53.87"/><line class="cls-2" x1="73.25" y1="58.53" x2="75.27" y2="60.55"/><line class="cls-2" x1="75.27" y1="58.53" x2="73.25" y2="60.55"/><line class="cls-3" x1="78.38" y1="10.76" x2="78.38" y2="10.76"/><line class="cls-3" x1="74.57" y1="10.99" x2="74.57" y2="10.99"/><line class="cls-3" x1="78.32" y1="14.07" x2="78.32" y2="14.07"/><line class="cls-3" x1="73.7" y1="14.14" x2="73.7" y2="14.14"/><line class="cls-3" x1="75.95" y1="17.12" x2="75.95" y2="17.12"/><line class="cls-3" x1="78.2" y1="19.87" x2="78.2" y2="19.87"/><line class="cls-3" x1="76.2" y1="7.82" x2="76.2" y2="7.82"/><line class="cls-3" x1="74.95" y1="0.2" x2="74.95" y2="0.2"/><line class="cls-3" x1="77.57" y1="3.2" x2="77.57" y2="3.2"/><line class="cls-3" x1="73.63" y1="4.07" x2="73.63" y2="4.07"/><line class="cls-3" x1="72.13" y1="8.26" x2="72.13" y2="8.26"/><line class="cls-3" x1="79.7" y1="7.26" x2="79.7" y2="7.26"/><line class="cls-3" x1="80.45" y1="62.82" x2="80.45" y2="62.82"/><line class="cls-3" x1="72.11" y1="62.49" x2="72.11" y2="62.49"/><line class="cls-3" x1="78.38" y1="53.51" x2="78.38" y2="53.51"/><line class="cls-3" x1="78.32" y1="50.2" x2="78.32" y2="50.2"/><line class="cls-3" x1="73.7" y1="50.14" x2="73.7" y2="50.14"/><line class="cls-3" x1="80.78" y1="55.32" x2="80.78" y2="55.32"/><line class="cls-3" x1="76.2" y1="56.45" x2="76.2" y2="56.45"/><line class="cls-3" x1="77.11" y1="61.82" x2="77.11" y2="61.82"/><line class="cls-3" x1="74.28" y1="53.16" x2="74.28" y2="53.16"/><line class="cls-3" x1="72.13" y1="56.01" x2="72.13" y2="56.01"/><line class="cls-3" x1="78.38" y1="35.81" x2="78.38" y2="35.81"/><line class="cls-3" x1="74.57" y1="35.58" x2="74.57" y2="35.58"/><line class="cls-3" x1="78.32" y1="32.49" x2="78.32" y2="32.49"/><line class="cls-3" x1="75.95" y1="29.45" x2="75.95" y2="29.45"/><line class="cls-3" x1="78.2" y1="26.7" x2="78.2" y2="26.7"/><line class="cls-3" x1="76.2" y1="38.74" x2="76.2" y2="38.74"/><line class="cls-3" x1="72.45" y1="27.49" x2="72.45" y2="27.49"/><line class="cls-3" x1="77.57" y1="43.37" x2="77.57" y2="43.37"/><line class="cls-3" x1="73.63" y1="42.49" x2="73.63" y2="42.49"/><line class="cls-3" x1="72.13" y1="38.31" x2="72.13" y2="38.31"/><line class="cls-3" x1="80.11" y1="46.99" x2="80.11" y2="46.99"/><line class="cls-3" x1="78.45" y1="22.99" x2="78.45" y2="22.99"/><line class="cls-3" x1="75.28" y1="24.99" x2="75.28" y2="24.99"/><line class="cls-3" x1="71.95" y1="21.99" x2="71.95" y2="21.99"/><line class="cls-3" x1="79.78" y1="59.32" x2="79.78" y2="59.32"/><rect class="cls-1" x="70.86" y="63.53" width="80.56" height="80.5"/><line class="cls-2" x1="79.81" y1="65.85" x2="81.83" y2="67.88"/><line class="cls-2" x1="81.83" y1="65.85" x2="79.81" y2="67.88"/><line class="cls-2" x1="73.25" y1="72.54" x2="75.27" y2="74.57"/><line class="cls-2" x1="75.27" y1="72.54" x2="73.25" y2="74.57"/><line class="cls-2" x1="79.81" y1="79.17" x2="81.83" y2="81.19"/><line class="cls-2" x1="81.83" y1="79.17" x2="79.81" y2="81.19"/><line class="cls-3" x1="78.38" y1="73.55" x2="78.38" y2="73.55"/><line class="cls-3" x1="78.32" y1="76.87" x2="78.32" y2="76.87"/><line class="cls-3" x1="73.7" y1="76.93" x2="73.7" y2="76.93"/><line class="cls-3" x1="76.2" y1="70.62" x2="76.2" y2="70.62"/><line class="cls-3" x1="77.57" y1="65.99" x2="77.57" y2="65.99"/><line class="cls-3" x1="73.63" y1="66.87" x2="73.63" y2="66.87"/><line class="cls-3" x1="72.13" y1="71.05" x2="72.13" y2="71.05"/><line class="cls-3" x1="79.7" y1="70.05" x2="79.7" y2="70.05"/><line class="cls-3" x1="74.95" y1="80.7" x2="74.95" y2="80.7"/><rect class="cls-1" x="-9.69" y="-16.97" width="80.56" height="80.5"/><line class="cls-2" x1="-0.75" y1="11.98" x2="1.28" y2="14"/><line class="cls-2" x1="1.28" y1="11.98" x2="-0.75" y2="14"/><line class="cls-2" x1="6" y1="18.67" x2="8.03" y2="20.69"/><line class="cls-2" x1="8.03" y1="18.67" x2="6" y2="20.69"/><line class="cls-2" x1="-0.75" y1="-1.33" x2="1.28" y2="0.69"/><line class="cls-2" x1="1.28" y1="-1.33" x2="-0.75" y2="0.69"/><line class="cls-2" x1="6" y1="5.35" x2="8.03" y2="7.38"/><line class="cls-2" x1="8.03" y1="5.35" x2="6" y2="7.38"/><line class="cls-2" x1="12.56" y1="11.98" x2="14.59" y2="14"/><line class="cls-2" x1="14.59" y1="11.98" x2="12.56" y2="14"/><line class="cls-2" x1="19.31" y1="18.67" x2="21.34" y2="20.69"/><line class="cls-2" x1="21.34" y1="18.67" x2="19.31" y2="20.69"/><line class="cls-2" x1="12.56" y1="-1.33" x2="14.59" y2="0.69"/><line class="cls-2" x1="14.59" y1="-1.33" x2="12.56" y2="0.69"/><line class="cls-2" x1="19.31" y1="5.35" x2="21.34" y2="7.38"/><line class="cls-2" x1="21.34" y1="5.35" x2="19.31" y2="7.38"/><line class="cls-2" x1="25.88" y1="11.98" x2="27.9" y2="14"/><line class="cls-2" x1="27.9" y1="11.98" x2="25.88" y2="14"/><line class="cls-2" x1="32.63" y1="18.67" x2="34.65" y2="20.69"/><line class="cls-2" x1="34.65" y1="18.67" x2="32.63" y2="20.69"/><line class="cls-2" x1="25.88" y1="-1.33" x2="27.9" y2="0.69"/><line class="cls-2" x1="27.9" y1="-1.33" x2="25.88" y2="0.69"/><line class="cls-2" x1="32.63" y1="5.35" x2="34.65" y2="7.38"/><line class="cls-2" x1="34.65" y1="5.35" x2="32.63" y2="7.38"/><line class="cls-2" x1="39.19" y1="11.98" x2="41.21" y2="14"/><line class="cls-2" x1="41.21" y1="11.98" x2="39.19" y2="14"/><line class="cls-2" x1="39.19" y1="-1.33" x2="41.21" y2="0.69"/><line class="cls-2" x1="41.21" y1="-1.33" x2="39.19" y2="0.69"/><line class="cls-2" x1="45.96" y1="18.67" x2="47.98" y2="20.69"/><line class="cls-2" x1="47.98" y1="18.67" x2="45.96" y2="20.69"/><line class="cls-2" x1="45.96" y1="5.35" x2="47.98" y2="7.38"/><line class="cls-2" x1="47.98" y1="5.35" x2="45.96" y2="7.38"/><line class="cls-2" x1="52.52" y1="11.98" x2="54.54" y2="14"/><line class="cls-2" x1="54.54" y1="11.98" x2="52.52" y2="14"/><line class="cls-2" x1="59.27" y1="18.67" x2="61.29" y2="20.69"/><line class="cls-2" x1="61.29" y1="18.67" x2="59.27" y2="20.69"/><line class="cls-2" x1="52.52" y1="-1.33" x2="54.54" y2="0.69"/><line class="cls-2" x1="54.54" y1="-1.33" x2="52.52" y2="0.69"/><line class="cls-2" x1="59.27" y1="5.35" x2="61.29" y2="7.38"/><line class="cls-2" x1="61.29" y1="5.35" x2="59.27" y2="7.38"/><line class="cls-2" x1="65.83" y1="11.98" x2="67.85" y2="14"/><line class="cls-2" x1="67.85" y1="11.98" x2="65.83" y2="14"/><line class="cls-2" x1="65.83" y1="-1.33" x2="67.85" y2="0.69"/><line class="cls-2" x1="67.85" y1="-1.33" x2="65.83" y2="0.69"/><line class="cls-2" x1="-0.75" y1="38.54" x2="1.28" y2="40.57"/><line class="cls-2" x1="1.28" y1="38.54" x2="-0.75" y2="40.57"/><line class="cls-2" x1="6" y1="45.23" x2="8.03" y2="47.25"/><line class="cls-2" x1="8.03" y1="45.23" x2="6" y2="47.25"/><line class="cls-2" x1="-0.75" y1="25.23" x2="1.28" y2="27.25"/><line class="cls-2" x1="1.28" y1="25.23" x2="-0.75" y2="27.25"/><line class="cls-2" x1="6" y1="31.92" x2="8.03" y2="33.94"/><line class="cls-2" x1="8.03" y1="31.92" x2="6" y2="33.94"/><line class="cls-2" x1="12.56" y1="38.54" x2="14.59" y2="40.57"/><line class="cls-2" x1="14.59" y1="38.54" x2="12.56" y2="40.57"/><line class="cls-2" x1="19.31" y1="45.23" x2="21.34" y2="47.25"/><line class="cls-2" x1="21.34" y1="45.23" x2="19.31" y2="47.25"/><line class="cls-2" x1="12.56" y1="25.23" x2="14.59" y2="27.25"/><line class="cls-2" x1="14.59" y1="25.23" x2="12.56" y2="27.25"/><line class="cls-2" x1="19.31" y1="31.92" x2="21.34" y2="33.94"/><line class="cls-2" x1="21.34" y1="31.92" x2="19.31" y2="33.94"/><line class="cls-2" x1="25.88" y1="38.54" x2="27.9" y2="40.57"/><line class="cls-2" x1="27.9" y1="38.54" x2="25.88" y2="40.57"/><line class="cls-2" x1="32.63" y1="45.23" x2="34.65" y2="47.25"/><line class="cls-2" x1="34.65" y1="45.23" x2="32.63" y2="47.25"/><line class="cls-2" x1="25.88" y1="25.23" x2="27.9" y2="27.25"/><line class="cls-2" x1="27.9" y1="25.23" x2="25.88" y2="27.25"/><line class="cls-2" x1="32.63" y1="31.92" x2="34.65" y2="33.94"/><line class="cls-2" x1="34.65" y1="31.92" x2="32.63" y2="33.94"/><line class="cls-2" x1="39.19" y1="38.54" x2="41.21" y2="40.57"/><line class="cls-2" x1="41.21" y1="38.54" x2="39.19" y2="40.57"/><line class="cls-2" x1="39.19" y1="25.23" x2="41.21" y2="27.25"/><line class="cls-2" x1="41.21" y1="25.23" x2="39.19" y2="27.25"/><line class="cls-2" x1="45.96" y1="45.23" x2="47.98" y2="47.25"/><line class="cls-2" x1="47.98" y1="45.23" x2="45.96" y2="47.25"/><line class="cls-2" x1="45.96" y1="31.92" x2="47.98" y2="33.94"/><line class="cls-2" x1="47.98" y1="31.92" x2="45.96" y2="33.94"/><line class="cls-2" x1="52.52" y1="38.54" x2="54.54" y2="40.57"/><line class="cls-2" x1="54.54" y1="38.54" x2="52.52" y2="40.57"/><line class="cls-2" x1="59.27" y1="45.23" x2="61.29" y2="47.25"/><line class="cls-2" x1="61.29" y1="45.23" x2="59.27" y2="47.25"/><line class="cls-2" x1="52.52" y1="25.23" x2="54.54" y2="27.25"/><line class="cls-2" x1="54.54" y1="25.23" x2="52.52" y2="27.25"/><line class="cls-2" x1="59.27" y1="31.92" x2="61.29" y2="33.94"/><line class="cls-2" x1="61.29" y1="31.92" x2="59.27" y2="33.94"/><line class="cls-2" x1="65.83" y1="38.54" x2="67.85" y2="40.57"/><line class="cls-2" x1="67.85" y1="38.54" x2="65.83" y2="40.57"/><line class="cls-2" x1="65.83" y1="25.23" x2="67.85" y2="27.25"/><line class="cls-2" x1="67.85" y1="25.23" x2="65.83" y2="27.25"/><line class="cls-2" x1="-0.75" y1="51.84" x2="1.28" y2="53.87"/><line class="cls-2" x1="1.28" y1="51.84" x2="-0.75" y2="53.87"/><line class="cls-2" x1="6" y1="58.53" x2="8.03" y2="60.55"/><line class="cls-2" x1="8.03" y1="58.53" x2="6" y2="60.55"/><line class="cls-2" x1="12.56" y1="51.84" x2="14.59" y2="53.87"/><line class="cls-2" x1="14.59" y1="51.84" x2="12.56" y2="53.87"/><line class="cls-2" x1="19.31" y1="58.53" x2="21.34" y2="60.55"/><line class="cls-2" x1="21.34" y1="58.53" x2="19.31" y2="60.55"/><line class="cls-2" x1="25.88" y1="51.84" x2="27.9" y2="53.87"/><line class="cls-2" x1="27.9" y1="51.84" x2="25.88" y2="53.87"/><line class="cls-2" x1="32.63" y1="58.53" x2="34.65" y2="60.55"/><line class="cls-2" x1="34.65" y1="58.53" x2="32.63" y2="60.55"/><line class="cls-2" x1="39.19" y1="51.84" x2="41.21" y2="53.87"/><line class="cls-2" x1="41.21" y1="51.84" x2="39.19" y2="53.87"/><line class="cls-2" x1="45.96" y1="58.53" x2="47.98" y2="60.55"/><line class="cls-2" x1="47.98" y1="58.53" x2="45.96" y2="60.55"/><line class="cls-2" x1="52.52" y1="51.84" x2="54.54" y2="53.87"/><line class="cls-2" x1="54.54" y1="51.84" x2="52.52" y2="53.87"/><line class="cls-2" x1="59.27" y1="58.53" x2="61.29" y2="60.55"/><line class="cls-2" x1="61.29" y1="58.53" x2="59.27" y2="60.55"/><line class="cls-2" x1="65.83" y1="51.84" x2="67.85" y2="53.87"/><line class="cls-2" x1="67.85" y1="51.84" x2="65.83" y2="53.87"/><line class="cls-3" x1="4.89" y1="1.12" x2="4.89" y2="1.12"/><line class="cls-3" x1="3.51" y1="12.87" x2="3.51" y2="12.87"/><line class="cls-3" x1="4.51" y1="15.57" x2="4.51" y2="15.57"/><line class="cls-3" x1="0.39" y1="16.87" x2="0.39" y2="16.87"/><line class="cls-3" x1="1.51" y1="21.24" x2="1.51" y2="21.24"/><line class="cls-3" x1="8.14" y1="16.12" x2="8.14" y2="16.12"/><line class="cls-3" x1="3.22" y1="18.99" x2="3.22" y2="18.99"/><line class="cls-3" x1="7.01" y1="12.82" x2="7.01" y2="12.82"/><line class="cls-3" x1="6.76" y1="9.49" x2="6.76" y2="9.49"/><line class="cls-3" x1="11.01" y1="9.45" x2="11.01" y2="9.45"/><line class="cls-3" x1="10.64" y1="4.45" x2="10.64" y2="4.45"/><line class="cls-3" x1="10.26" y1="0.07" x2="10.26" y2="0.07"/><line class="cls-3" x1="2.39" y1="9.64" x2="2.39" y2="9.64"/><line class="cls-3" x1="1.01" y1="3.49" x2="1.01" y2="3.49"/><line class="cls-3" x1="6.89" y1="3.39" x2="6.89" y2="3.39"/><line class="cls-3" x1="4.39" y1="5.76" x2="4.39" y2="5.76"/><line class="cls-3" x1="13.72" y1="2.82" x2="13.72" y2="2.82"/><line class="cls-3" x1="13.51" y1="6.24" x2="13.51" y2="6.24"/><line class="cls-3" x1="14.89" y1="9.62" x2="14.89" y2="9.62"/><line class="cls-3" x1="16.64" y1="4.62" x2="16.64" y2="4.62"/><line class="cls-3" x1="31.63" y1="1.12" x2="31.63" y2="1.12"/><line class="cls-3" x1="40.89" y1="62.32" x2="40.89" y2="62.32"/><line class="cls-3" x1="24.57" y1="10.76" x2="24.57" y2="10.76"/><line class="cls-3" x1="20.76" y1="10.99" x2="20.76" y2="10.99"/><line class="cls-3" x1="17.39" y1="11.74" x2="17.39" y2="11.74"/><line class="cls-3" x1="10.26" y1="12.87" x2="10.26" y2="12.87"/><line class="cls-3" x1="24.51" y1="14.07" x2="24.51" y2="14.07"/><line class="cls-3" x1="16.51" y1="15.12" x2="16.51" y2="15.12"/><line class="cls-3" x1="15.72" y1="18.49" x2="15.72" y2="18.49"/><line class="cls-3" x1="10.72" y1="19.32" x2="10.72" y2="19.32"/><line class="cls-3" x1="13.22" y1="20.82" x2="13.22" y2="20.82"/><line class="cls-3" x1="46.39" y1="16.66" x2="46.39" y2="16.66"/><line class="cls-3" x1="42.89" y1="18.99" x2="42.89" y2="18.99"/><line class="cls-3" x1="51.22" y1="18.82" x2="51.22" y2="18.82"/><line class="cls-3" x1="66.56" y1="19.16" x2="66.56" y2="19.16"/><line class="cls-3" x1="69.72" y1="21.82" x2="69.72" y2="21.82"/><line class="cls-3" x1="12.26" y1="16.24" x2="12.26" y2="16.24"/><line class="cls-3" x1="19.88" y1="14.14" x2="19.88" y2="14.14"/><line class="cls-3" x1="30.26" y1="12.87" x2="30.26" y2="12.87"/><line class="cls-3" x1="31.26" y1="15.57" x2="31.26" y2="15.57"/><line class="cls-3" x1="27.13" y1="16.87" x2="27.13" y2="16.87"/><line class="cls-3" x1="22.13" y1="17.12" x2="22.13" y2="17.12"/><line class="cls-3" x1="24.38" y1="19.87" x2="24.38" y2="19.87"/><line class="cls-3" x1="28.26" y1="21.24" x2="28.26" y2="21.24"/><line class="cls-3" x1="36.01" y1="16.12" x2="36.01" y2="16.12"/><line class="cls-3" x1="30.22" y1="18.99" x2="30.22" y2="18.99"/><line class="cls-3" x1="33.76" y1="12.82" x2="33.76" y2="12.82"/><line class="cls-3" x1="33.51" y1="9.49" x2="33.51" y2="9.49"/><line class="cls-3" x1="37.14" y1="12.49" x2="37.14" y2="12.49"/><line class="cls-3" x1="39.51" y1="9.62" x2="39.51" y2="9.62"/><line class="cls-3" x1="42.26" y1="7.12" x2="42.26" y2="7.12"/><line class="cls-3" x1="42.76" y1="10.62" x2="42.76" y2="10.62"/><line class="cls-3" x1="46.14" y1="9.74" x2="46.14" y2="9.74"/><line class="cls-3" x1="46.06" y1="13.16" x2="46.06" y2="13.16"/><line class="cls-3" x1="49.72" y1="12.16" x2="49.72" y2="12.16"/><line class="cls-3" x1="43.39" y1="14.24" x2="43.39" y2="14.24"/><line class="cls-3" x1="40.01" y1="16.87" x2="40.01" y2="16.87"/><line class="cls-3" x1="44.64" y1="4.24" x2="44.64" y2="4.24"/><line class="cls-3" x1="37.14" y1="3.49" x2="37.14" y2="3.49"/><line class="cls-3" x1="37.01" y1="0.07" x2="37.01" y2="0.07"/><line class="cls-3" x1="29.13" y1="9.64" x2="29.13" y2="9.64"/><line class="cls-3" x1="23.22" y1="7.99" x2="23.22" y2="7.99"/><line class="cls-3" x1="37.39" y1="19.62" x2="37.39" y2="19.62"/><line class="cls-3" x1="21.13" y1="0.2" x2="21.13" y2="0.2"/><line class="cls-3" x1="23.76" y1="3.2" x2="23.76" y2="3.2"/><line class="cls-3" x1="27.76" y1="3.49" x2="27.76" y2="3.49"/><line class="cls-3" x1="33.63" y1="3.39" x2="33.63" y2="3.39"/><line class="cls-3" x1="19.56" y1="3.16" x2="19.56" y2="3.16"/><line class="cls-3" x1="17.22" y1="8.16" x2="17.22" y2="8.16"/><line class="cls-3" x1="31.13" y1="5.76" x2="31.13" y2="5.76"/><line class="cls-3" x1="26.72" y1="6.99" x2="26.72" y2="6.99"/><line class="cls-3" x1="70.3" y1="12.14" x2="70.3" y2="12.14"/><line class="cls-3" x1="70.01" y1="0.99" x2="70.01" y2="0.99"/><line class="cls-3" x1="56.14" y1="1.74" x2="56.14" y2="1.74"/><line class="cls-3" x1="46.26" y1="0.37" x2="46.26" y2="0.37"/><line class="cls-3" x1="42.51" y1="1.49" x2="42.51" y2="1.49"/><line class="cls-3" x1="40.64" y1="4.37" x2="40.64" y2="4.37"/><line class="cls-3" x1="37.39" y1="7.62" x2="37.39" y2="7.62"/><line class="cls-3" x1="12.39" y1="61.49" x2="12.39" y2="61.49"/><line class="cls-3" x1="-0.11" y1="62.82" x2="-0.11" y2="62.82"/><line class="cls-3" x1="7.72" y1="62.16" x2="7.72" y2="62.16"/><line class="cls-3" x1="20.22" y1="39.99" x2="20.22" y2="39.99"/><line class="cls-3" x1="33.89" y1="61.66" x2="33.89" y2="61.66"/><line class="cls-3" x1="19.56" y1="62.32" x2="19.56" y2="62.32"/><line class="cls-3" x1="32.72" y1="54.49" x2="32.72" y2="54.49"/><line class="cls-3" x1="47.56" y1="62.16" x2="47.56" y2="62.16"/><line class="cls-3" x1="36.89" y1="62.82" x2="36.89" y2="62.82"/><line class="cls-3" x1="66.72" y1="62.49" x2="66.72" y2="62.49"/><line class="cls-3" x1="60.56" y1="62.66" x2="60.56" y2="62.66"/><line class="cls-3" x1="52.56" y1="62.49" x2="52.56" y2="62.49"/><line class="cls-3" x1="62.45" y1="10.2" x2="62.45" y2="10.2"/><line class="cls-3" x1="66.26" y1="10.43" x2="66.26" y2="10.43"/><line class="cls-3" x1="62.51" y1="13.51" x2="62.51" y2="13.51"/><line class="cls-3" x1="68.39" y1="16.24" x2="68.39" y2="16.24"/><line class="cls-3" x1="56.76" y1="12.3" x2="56.76" y2="12.3"/><line class="cls-3" x1="55.76" y1="15.01" x2="55.76" y2="15.01"/><line class="cls-3" x1="59.89" y1="16.3" x2="59.89" y2="16.3"/><line class="cls-3" x1="64.89" y1="16.55" x2="64.89" y2="16.55"/><line class="cls-3" x1="62.64" y1="19.3" x2="62.64" y2="19.3"/><line class="cls-3" x1="57.51" y1="21.74" x2="57.51" y2="21.74"/><line class="cls-3" x1="51.01" y1="15.55" x2="51.01" y2="15.55"/><line class="cls-3" x1="55.39" y1="18.26" x2="55.39" y2="18.26"/><line class="cls-3" x1="53.51" y1="8.93" x2="53.51" y2="8.93"/><line class="cls-3" x1="52.06" y1="5.82" x2="52.06" y2="5.82"/><line class="cls-3" x1="49.26" y1="8.89" x2="49.26" y2="8.89"/><line class="cls-3" x1="49.64" y1="3.89" x2="49.64" y2="3.89"/><line class="cls-3" x1="57.89" y1="9.07" x2="57.89" y2="9.07"/><line class="cls-3" x1="64.64" y1="7.26" x2="64.64" y2="7.26"/><line class="cls-3" x1="59.89" y1="12.37" x2="59.89" y2="12.37"/><line class="cls-3" x1="63.26" y1="2.64" x2="63.26" y2="2.64"/><line class="cls-3" x1="59.26" y1="2.93" x2="59.26" y2="2.93"/><line class="cls-3" x1="53.39" y1="2.82" x2="53.39" y2="2.82"/><line class="cls-3" x1="67.2" y1="3.51" x2="67.2" y2="3.51"/><line class="cls-3" x1="68.7" y1="7.7" x2="68.7" y2="7.7"/><line class="cls-3" x1="55.89" y1="5.2" x2="55.89" y2="5.2"/><line class="cls-3" x1="1.83" y1="50.58" x2="1.83" y2="50.58"/><line class="cls-3" x1="4.51" y1="48.7" x2="4.51" y2="48.7"/><line class="cls-3" x1="8.39" y1="39.74" x2="8.39" y2="39.74"/><line class="cls-3" x1="13.72" y1="47.49" x2="13.72" y2="47.49"/><line class="cls-3" x1="14.39" y1="56.58" x2="14.39" y2="56.58"/><line class="cls-3" x1="11.39" y1="50.83" x2="11.39" y2="50.83"/><line class="cls-3" x1="3.56" y1="45.66" x2="3.56" y2="45.66"/><line class="cls-3" x1="7.89" y1="49.82" x2="7.89" y2="49.82"/><line class="cls-3" x1="7.39" y1="54.82" x2="7.39" y2="54.82"/><line class="cls-3" x1="11.01" y1="54.83" x2="11.01" y2="54.83"/><line class="cls-3" x1="19.39" y1="26.16" x2="19.39" y2="26.16"/><line class="cls-3" x1="10.56" y1="58.66" x2="10.56" y2="58.66"/><line class="cls-3" x1="0.22" y1="55.32" x2="0.22" y2="55.32"/><line class="cls-3" x1="4.89" y1="52.82" x2="4.89" y2="52.82"/><line class="cls-3" x1="4.06" y1="56.99" x2="4.06" y2="56.99"/><line class="cls-3" x1="2.89" y1="60.16" x2="2.89" y2="60.16"/><line class="cls-3" x1="8.56" y1="23.16" x2="8.56" y2="23.16"/><line class="cls-3" x1="3.51" y1="33.7" x2="3.51" y2="33.7"/><line class="cls-3" x1="4.51" y1="30.99" x2="4.51" y2="30.99"/><line class="cls-3" x1="0.39" y1="29.7" x2="0.39" y2="29.7"/><line class="cls-3" x1="3.56" y1="24.32" x2="3.56" y2="24.32"/><line class="cls-3" x1="8.14" y1="30.45" x2="8.14" y2="30.45"/><line class="cls-3" x1="3.22" y1="27.58" x2="3.22" y2="27.58"/><line class="cls-3" x1="6.72" y1="26.99" x2="6.72" y2="26.99"/><line class="cls-3" x1="6.76" y1="37.08" x2="6.76" y2="37.08"/><line class="cls-3" x1="11.01" y1="37.12" x2="11.01" y2="37.12"/><line class="cls-3" x1="10.64" y1="42.12" x2="10.64" y2="42.12"/><line class="cls-3" x1="10.26" y1="46.49" x2="10.26" y2="46.49"/><line class="cls-3" x1="2.39" y1="36.93" x2="2.39" y2="36.93"/><line class="cls-3" x1="1.01" y1="43.08" x2="1.01" y2="43.08"/><line class="cls-3" x1="6.89" y1="43.18" x2="6.89" y2="43.18"/><line class="cls-3" x1="4.39" y1="40.81" x2="4.39" y2="40.81"/><line class="cls-3" x1="24.57" y1="53.51" x2="24.57" y2="53.51"/><line class="cls-3" x1="24.51" y1="50.2" x2="24.51" y2="50.2"/><line class="cls-3" x1="19.88" y1="50.14" x2="19.88" y2="50.14"/><line class="cls-3" x1="16.39" y1="50.33" x2="16.39" y2="50.33"/><line class="cls-3" x1="17.39" y1="46.95" x2="17.39" y2="46.95"/><line class="cls-3" x1="13.72" y1="43.74" x2="13.72" y2="43.74"/><line class="cls-3" x1="13.56" y1="33.32" x2="13.56" y2="33.32"/><line class="cls-3" x1="14.89" y1="36.95" x2="14.89" y2="36.95"/><line class="cls-3" x1="16.64" y1="41.95" x2="16.64" y2="41.95"/><line class="cls-3" x1="28.57" y1="50.58" x2="28.57" y2="50.58"/><line class="cls-3" x1="31.26" y1="48.7" x2="31.26" y2="48.7"/><line class="cls-3" x1="35.89" y1="48.7" x2="35.89" y2="48.7"/><line class="cls-3" x1="31.63" y1="45.45" x2="31.63" y2="45.45"/><line class="cls-3" x1="33.76" y1="51.45" x2="33.76" y2="51.45"/><line class="cls-3" x1="34.26" y1="57.2" x2="34.26" y2="57.2"/><line class="cls-3" x1="36.76" y1="53.45" x2="36.76" y2="53.45"/><line class="cls-3" x1="37.06" y1="56.58" x2="37.06" y2="56.58"/><line class="cls-3" x1="38.22" y1="58.99" x2="38.22" y2="58.99"/><line class="cls-3" x1="29.13" y1="54.64" x2="29.13" y2="54.64"/><line class="cls-3" x1="22.38" y1="56.45" x2="22.38" y2="56.45"/><line class="cls-3" x1="23.76" y1="61.08" x2="23.76" y2="61.08"/><line class="cls-3" x1="28.39" y1="61.49" x2="28.39" y2="61.49"/><line class="cls-3" x1="20.06" y1="52.99" x2="20.06" y2="52.99"/><line class="cls-3" x1="16.51" y1="59.2" x2="16.51" y2="59.2"/><line class="cls-3" x1="18.32" y1="56.01" x2="18.32" y2="56.01"/><line class="cls-3" x1="31.13" y1="58.51" x2="31.13" y2="58.51"/><line class="cls-3" x1="26.89" y1="57.99" x2="26.89" y2="57.99"/><line class="cls-3" x1="24.57" y1="35.81" x2="24.57" y2="35.81"/><line class="cls-3" x1="20.76" y1="35.58" x2="20.76" y2="35.58"/><line class="cls-3" x1="17.39" y1="34.83" x2="17.39" y2="34.83"/><line class="cls-3" x1="10.26" y1="33.7" x2="10.26" y2="33.7"/><line class="cls-3" x1="24.51" y1="32.49" x2="24.51" y2="32.49"/><line class="cls-3" x1="16.51" y1="31.45" x2="16.51" y2="31.45"/><line class="cls-3" x1="15.72" y1="28.08" x2="15.72" y2="28.08"/><line class="cls-3" x1="10.72" y1="27.24" x2="10.72" y2="27.24"/><line class="cls-3" x1="16.06" y1="22.82" x2="16.06" y2="22.82"/><line class="cls-3" x1="46.39" y1="29.91" x2="46.39" y2="29.91"/><line class="cls-3" x1="42.89" y1="27.58" x2="42.89" y2="27.58"/><line class="cls-3" x1="51.22" y1="27.74" x2="51.22" y2="27.74"/><line class="cls-3" x1="65.56" y1="22.49" x2="65.56" y2="22.49"/><line class="cls-3" x1="61.72" y1="23.66" x2="61.72" y2="23.66"/><line class="cls-3" x1="45.72" y1="22.16" x2="45.72" y2="22.16"/><line class="cls-3" x1="40.72" y1="22.16" x2="40.72" y2="22.16"/><line class="cls-3" x1="23.89" y1="23.16" x2="23.89" y2="23.16"/><line class="cls-3" x1="20.06" y1="22.66" x2="20.06" y2="22.66"/><line class="cls-3" x1="69.72" y1="24.74" x2="69.72" y2="24.74"/><line class="cls-3" x1="12.26" y1="30.33" x2="12.26" y2="30.33"/><line class="cls-3" x1="19.88" y1="32.43" x2="19.88" y2="32.43"/><line class="cls-3" x1="30.26" y1="33.7" x2="30.26" y2="33.7"/><line class="cls-3" x1="31.26" y1="30.99" x2="31.26" y2="30.99"/><line class="cls-3" x1="27.13" y1="29.7" x2="27.13" y2="29.7"/><line class="cls-3" x1="22.13" y1="29.45" x2="22.13" y2="29.45"/><line class="cls-3" x1="24.38" y1="26.7" x2="24.38" y2="26.7"/><line class="cls-3" x1="30.06" y1="24.32" x2="30.06" y2="24.32"/><line class="cls-3" x1="36.01" y1="30.45" x2="36.01" y2="30.45"/><line class="cls-3" x1="30.22" y1="27.58" x2="30.22" y2="27.58"/><line class="cls-3" x1="33.72" y1="26.66" x2="33.72" y2="26.66"/><line class="cls-3" x1="33.51" y1="37.08" x2="33.51" y2="37.08"/><line class="cls-3" x1="37.14" y1="34.08" x2="37.14" y2="34.08"/><line class="cls-3" x1="39.51" y1="36.95" x2="39.51" y2="36.95"/><line class="cls-3" x1="42.26" y1="39.45" x2="42.26" y2="39.45"/><line class="cls-3" x1="42.76" y1="35.95" x2="42.76" y2="35.95"/><line class="cls-3" x1="46.14" y1="36.83" x2="46.14" y2="36.83"/><line class="cls-3" x1="47.06" y1="25.32" x2="47.06" y2="25.32"/><line class="cls-3" x1="49.72" y1="34.41" x2="49.72" y2="34.41"/><line class="cls-3" x1="43.39" y1="32.33" x2="43.39" y2="32.33"/><line class="cls-3" x1="40.01" y1="29.7" x2="40.01" y2="29.7"/><line class="cls-3" x1="44.64" y1="42.33" x2="44.64" y2="42.33"/><line class="cls-3" x1="37.14" y1="43.08" x2="37.14" y2="43.08"/><line class="cls-3" x1="37.01" y1="46.49" x2="37.01" y2="46.49"/><line class="cls-3" x1="29.13" y1="36.93" x2="29.13" y2="36.93"/><line class="cls-3" x1="23.22" y1="38.58" x2="23.22" y2="38.58"/><line class="cls-3" x1="37.39" y1="26.95" x2="37.39" y2="26.95"/><line class="cls-3" x1="26.06" y1="46.82" x2="26.06" y2="46.82"/><line class="cls-3" x1="23.76" y1="43.37" x2="23.76" y2="43.37"/><line class="cls-3" x1="27.76" y1="43.08" x2="27.76" y2="43.08"/><line class="cls-3" x1="33.63" y1="43.18" x2="33.63" y2="43.18"/><line class="cls-3" x1="19.56" y1="43.41" x2="19.56" y2="43.41"/><line class="cls-3" x1="17.22" y1="38.41" x2="17.22" y2="38.41"/><line class="cls-3" x1="31.13" y1="40.81" x2="31.13" y2="40.81"/><line class="cls-3" x1="27.06" y1="34.16" x2="27.06" y2="34.16"/><line class="cls-3" x1="70.3" y1="52.14" x2="70.3" y2="52.14"/><line class="cls-3" x1="70.3" y1="34.43" x2="70.3" y2="34.43"/><line class="cls-3" x1="70.01" y1="45.58" x2="70.01" y2="45.58"/><line class="cls-3" x1="62.45" y1="54.08" x2="62.45" y2="54.08"/><line class="cls-3" x1="62.51" y1="50.76" x2="62.51" y2="50.76"/><line class="cls-3" x1="67.14" y1="50.7" x2="67.14" y2="50.7"/><line class="cls-3" x1="58.45" y1="51.14" x2="58.45" y2="51.14"/><line class="cls-3" x1="55.76" y1="49.26" x2="55.76" y2="49.26"/><line class="cls-3" x1="50.39" y1="50.58" x2="50.39" y2="50.58"/><line class="cls-3" x1="54.39" y1="55.2" x2="54.39" y2="55.2"/><line class="cls-3" x1="53.56" y1="57.99" x2="53.56" y2="57.99"/><line class="cls-3" x1="49.26" y1="55.39" x2="49.26" y2="55.39"/><line class="cls-3" x1="50.22" y1="59.49" x2="50.22" y2="59.49"/><line class="cls-3" x1="43.26" y1="60.2" x2="43.26" y2="60.2"/><line class="cls-3" x1="47.39" y1="53.32" x2="47.39" y2="53.32"/><line class="cls-3" x1="44.22" y1="57.08" x2="44.22" y2="57.08"/><line class="cls-3" x1="41.14" y1="55.7" x2="41.14" y2="55.7"/><line class="cls-3" x1="35.06" y1="22.82" x2="35.06" y2="22.82"/><line class="cls-3" x1="56.14" y1="44.83" x2="56.14" y2="44.83"/><line class="cls-3" x1="38.72" y1="50.08" x2="38.72" y2="50.08"/><line class="cls-3" x1="43.22" y1="49.08" x2="43.22" y2="49.08"/><line class="cls-3" x1="43.89" y1="53.58" x2="43.89" y2="53.58"/><line class="cls-3" x1="47.26" y1="49.58" x2="47.26" y2="49.58"/><line class="cls-3" x1="52.22" y1="22.32" x2="52.22" y2="22.32"/><line class="cls-3" x1="42.51" y1="45.08" x2="42.51" y2="45.08"/><line class="cls-3" x1="40.64" y1="42.2" x2="40.64" y2="42.2"/><line class="cls-3" x1="35.39" y1="39.66" x2="35.39" y2="39.66"/><line class="cls-3" x1="57.89" y1="55.2" x2="57.89" y2="55.2"/><line class="cls-3" x1="64.64" y1="57.01" x2="64.64" y2="57.01"/><line class="cls-3" x1="69.22" y1="59.32" x2="69.22" y2="59.32"/><line class="cls-3" x1="63.56" y1="60.32" x2="63.56" y2="60.32"/><line class="cls-3" x1="66.22" y1="47.32" x2="66.22" y2="47.32"/><line class="cls-3" x1="58.72" y1="26.99" x2="58.72" y2="26.99"/><line class="cls-3" x1="68.7" y1="56.58" x2="68.7" y2="56.58"/><line class="cls-3" x1="56.22" y1="60.49" x2="56.22" y2="60.49"/><line class="cls-3" x1="60.39" y1="56.66" x2="60.39" y2="56.66"/><line class="cls-3" x1="62.45" y1="36.37" x2="62.45" y2="36.37"/><line class="cls-3" x1="66.26" y1="36.14" x2="66.26" y2="36.14"/><line class="cls-3" x1="62.51" y1="33.06" x2="62.51" y2="33.06"/><line class="cls-3" x1="68.39" y1="30.33" x2="68.39" y2="30.33"/><line class="cls-3" x1="56.76" y1="34.26" x2="56.76" y2="34.26"/><line class="cls-3" x1="55.76" y1="31.56" x2="55.76" y2="31.56"/><line class="cls-3" x1="59.89" y1="30.26" x2="59.89" y2="30.26"/><line class="cls-3" x1="64.89" y1="30.01" x2="64.89" y2="30.01"/><line class="cls-3" x1="62.64" y1="27.26" x2="62.64" y2="27.26"/><line class="cls-3" x1="57.51" y1="24.83" x2="57.51" y2="24.83"/><line class="cls-3" x1="51.01" y1="31.01" x2="51.01" y2="31.01"/><line class="cls-3" x1="55.39" y1="28.31" x2="55.39" y2="28.31"/><line class="cls-3" x1="58.39" y1="47.33" x2="58.39" y2="47.33"/><line class="cls-3" x1="53.51" y1="37.64" x2="53.51" y2="37.64"/><line class="cls-3" x1="47.56" y1="39.99" x2="47.56" y2="39.99"/><line class="cls-3" x1="49.26" y1="37.68" x2="49.26" y2="37.68"/><line class="cls-3" x1="49.64" y1="42.68" x2="49.64" y2="42.68"/><line class="cls-3" x1="50.01" y1="47.06" x2="50.01" y2="47.06"/><line class="cls-3" x1="57.89" y1="37.49" x2="57.89" y2="37.49"/><line class="cls-3" x1="64.64" y1="39.31" x2="64.64" y2="39.31"/><line class="cls-3" x1="60.56" y1="39.99" x2="60.56" y2="39.99"/><line class="cls-3" x1="63.26" y1="43.93" x2="63.26" y2="43.93"/><line class="cls-3" x1="59.26" y1="43.64" x2="59.26" y2="43.64"/><line class="cls-3" x1="53.39" y1="43.74" x2="53.39" y2="43.74"/><line class="cls-3" x1="67.2" y1="43.06" x2="67.2" y2="43.06"/><line class="cls-3" x1="68.7" y1="38.87" x2="68.7" y2="38.87"/><line class="cls-3" x1="55.89" y1="41.37" x2="55.89" y2="41.37"/><line class="cls-3" x1="0.72" y1="32.82" x2="0.72" y2="32.82"/><rect class="cls-1" x="-9.69" y="63.53" width="80.56" height="80.5"/><line class="cls-2" x1="-0.75" y1="65.85" x2="1.28" y2="67.88"/><line class="cls-2" x1="1.28" y1="65.85" x2="-0.75" y2="67.88"/><line class="cls-2" x1="6" y1="72.54" x2="8.03" y2="74.57"/><line class="cls-2" x1="8.03" y1="72.54" x2="6" y2="74.57"/><line class="cls-2" x1="12.56" y1="65.85" x2="14.59" y2="67.88"/><line class="cls-2" x1="14.59" y1="65.85" x2="12.56" y2="67.88"/><line class="cls-2" x1="19.31" y1="72.54" x2="21.34" y2="74.57"/><line class="cls-2" x1="21.34" y1="72.54" x2="19.31" y2="74.57"/><line class="cls-2" x1="25.88" y1="65.85" x2="27.9" y2="67.88"/><line class="cls-2" x1="27.9" y1="65.85" x2="25.88" y2="67.88"/><line class="cls-2" x1="32.63" y1="72.54" x2="34.65" y2="74.57"/><line class="cls-2" x1="34.65" y1="72.54" x2="32.63" y2="74.57"/><line class="cls-2" x1="39.19" y1="65.85" x2="41.21" y2="67.88"/><line class="cls-2" x1="41.21" y1="65.85" x2="39.19" y2="67.88"/><line class="cls-2" x1="45.96" y1="72.54" x2="47.98" y2="74.57"/><line class="cls-2" x1="47.98" y1="72.54" x2="45.96" y2="74.57"/><line class="cls-2" x1="52.52" y1="65.85" x2="54.54" y2="67.88"/><line class="cls-2" x1="54.54" y1="65.85" x2="52.52" y2="67.88"/><line class="cls-2" x1="59.27" y1="72.54" x2="61.29" y2="74.57"/><line class="cls-2" x1="61.29" y1="72.54" x2="59.27" y2="74.57"/><line class="cls-2" x1="65.83" y1="65.85" x2="67.85" y2="67.88"/><line class="cls-2" x1="67.85" y1="65.85" x2="65.83" y2="67.88"/><line class="cls-2" x1="-0.75" y1="79.17" x2="1.28" y2="81.19"/><line class="cls-2" x1="1.28" y1="79.17" x2="-0.75" y2="81.19"/><line class="cls-2" x1="12.56" y1="79.17" x2="14.59" y2="81.19"/><line class="cls-2" x1="14.59" y1="79.17" x2="12.56" y2="81.19"/><line class="cls-2" x1="25.88" y1="79.17" x2="27.9" y2="81.19"/><line class="cls-2" x1="27.9" y1="79.17" x2="25.88" y2="81.19"/><line class="cls-2" x1="39.19" y1="79.17" x2="41.21" y2="81.19"/><line class="cls-2" x1="41.21" y1="79.17" x2="39.19" y2="81.19"/><line class="cls-2" x1="52.52" y1="79.17" x2="54.54" y2="81.19"/><line class="cls-2" x1="54.54" y1="79.17" x2="52.52" y2="81.19"/><line class="cls-2" x1="65.83" y1="79.17" x2="67.85" y2="81.19"/><line class="cls-2" x1="67.85" y1="79.17" x2="65.83" y2="81.19"/><line class="cls-3" x1="1.83" y1="76.49" x2="1.83" y2="76.49"/><line class="cls-3" x1="4.51" y1="78.37" x2="4.51" y2="78.37"/><line class="cls-3" x1="7.89" y1="78.99" x2="7.89" y2="78.99"/><line class="cls-3" x1="14.39" y1="70.49" x2="14.39" y2="70.49"/><line class="cls-3" x1="11.39" y1="76.24" x2="11.39" y2="76.24"/><line class="cls-3" x1="7.01" y1="75.62" x2="7.01" y2="75.62"/><line class="cls-3" x1="7.51" y1="69.87" x2="7.51" y2="69.87"/><line class="cls-3" x1="11.01" y1="72.24" x2="11.01" y2="72.24"/><line class="cls-3" x1="14.64" y1="73.62" x2="14.64" y2="73.62"/><line class="cls-3" x1="10.64" y1="67.24" x2="10.64" y2="67.24"/><line class="cls-3" x1="2.39" y1="72.43" x2="2.39" y2="72.43"/><line class="cls-3" x1="3.58" y1="64.3" x2="3.58" y2="64.3"/><line class="cls-3" x1="6.89" y1="66.18" x2="6.89" y2="66.18"/><line class="cls-3" x1="4.39" y1="68.55" x2="4.39" y2="68.55"/><line class="cls-3" x1="10.26" y1="80.57" x2="10.26" y2="80.57"/><line class="cls-3" x1="24.57" y1="73.55" x2="24.57" y2="73.55"/><line class="cls-3" x1="24.51" y1="76.87" x2="24.51" y2="76.87"/><line class="cls-3" x1="19.88" y1="76.93" x2="19.88" y2="76.93"/><line class="cls-3" x1="16.39" y1="76.74" x2="16.39" y2="76.74"/><line class="cls-3" x1="17.39" y1="80.12" x2="17.39" y2="80.12"/><line class="cls-3" x1="28.57" y1="76.49" x2="28.57" y2="76.49"/><line class="cls-3" x1="31.26" y1="78.37" x2="31.26" y2="78.37"/><line class="cls-3" x1="35.89" y1="78.37" x2="35.89" y2="78.37"/><line class="cls-3" x1="33.76" y1="75.62" x2="33.76" y2="75.62"/><line class="cls-3" x1="34.26" y1="69.87" x2="34.26" y2="69.87"/><line class="cls-3" x1="36.76" y1="73.62" x2="36.76" y2="73.62"/><line class="cls-3" x1="37.06" y1="70.49" x2="37.06" y2="70.49"/><line class="cls-3" x1="37.38" y1="67.24" x2="37.38" y2="67.24"/><line class="cls-3" x1="29.13" y1="72.43" x2="29.13" y2="72.43"/><line class="cls-3" x1="22.38" y1="70.62" x2="22.38" y2="70.62"/><line class="cls-3" x1="23.76" y1="65.99" x2="23.76" y2="65.99"/><line class="cls-3" x1="30.32" y1="64.3" x2="30.32" y2="64.3"/><line class="cls-3" x1="33.63" y1="66.18" x2="33.63" y2="66.18"/><line class="cls-3" x1="19.82" y1="66.87" x2="19.82" y2="66.87"/><line class="cls-3" x1="16.51" y1="67.87" x2="16.51" y2="67.87"/><line class="cls-3" x1="15.64" y1="64.24" x2="15.64" y2="64.24"/><line class="cls-3" x1="18.32" y1="71.05" x2="18.32" y2="71.05"/><line class="cls-3" x1="31.13" y1="68.55" x2="31.13" y2="68.55"/><line class="cls-3" x1="25.88" y1="70.05" x2="25.88" y2="70.05"/><line class="cls-3" x1="37.01" y1="80.57" x2="37.01" y2="80.57"/><line class="cls-3" x1="21.13" y1="80.7" x2="21.13" y2="80.7"/><line class="cls-3" x1="70.3" y1="74.93" x2="70.3" y2="74.93"/><line class="cls-3" x1="62.45" y1="72.99" x2="62.45" y2="72.99"/><line class="cls-3" x1="62.51" y1="76.3" x2="62.51" y2="76.3"/><line class="cls-3" x1="67.14" y1="76.37" x2="67.14" y2="76.37"/><line class="cls-3" x1="58.45" y1="75.93" x2="58.45" y2="75.93"/><line class="cls-3" x1="55.76" y1="77.8" x2="55.76" y2="77.8"/><line class="cls-3" x1="50.39" y1="76.49" x2="50.39" y2="76.49"/><line class="cls-3" x1="54.39" y1="71.87" x2="54.39" y2="71.87"/><line class="cls-3" x1="53.26" y1="75.05" x2="53.26" y2="75.05"/><line class="cls-3" x1="52.76" y1="69.3" x2="52.76" y2="69.3"/><line class="cls-3" x1="49.26" y1="71.68" x2="49.26" y2="71.68"/><line class="cls-3" x1="49.64" y1="66.68" x2="49.64" y2="66.68"/><line class="cls-3" x1="45.89" y1="64.87" x2="45.89" y2="64.87"/><line class="cls-3" x1="43.26" y1="66.87" x2="43.26" y2="66.87"/><line class="cls-3" x1="46.39" y1="67.74" x2="46.39" y2="67.74"/><line class="cls-3" x1="44.22" y1="69.99" x2="44.22" y2="69.99"/><line class="cls-3" x1="41.14" y1="71.37" x2="41.14" y2="71.37"/><line class="cls-3" x1="40.26" y1="74.62" x2="40.26" y2="74.62"/><line class="cls-3" x1="38.72" y1="76.99" x2="38.72" y2="76.99"/><line class="cls-3" x1="43.22" y1="77.99" x2="43.22" y2="77.99"/><line class="cls-3" x1="43.89" y1="73.49" x2="43.89" y2="73.49"/><line class="cls-3" x1="47.26" y1="77.49" x2="47.26" y2="77.49"/><line class="cls-3" x1="57.89" y1="71.87" x2="57.89" y2="71.87"/><line class="cls-3" x1="64.64" y1="70.05" x2="64.64" y2="70.05"/><line class="cls-3" x1="63.26" y1="65.43" x2="63.26" y2="65.43"/><line class="cls-3" x1="56.64" y1="64.24" x2="56.64" y2="64.24"/><line class="cls-3" x1="59.01" y1="66.49" x2="59.01" y2="66.49"/><line class="cls-3" x1="66.64" y1="72.99" x2="66.64" y2="72.99"/><line class="cls-3" x1="68.7" y1="70.49" x2="68.7" y2="70.49"/><line class="cls-3" x1="55.89" y1="67.99" x2="55.89" y2="67.99"/><line class="cls-3" x1="61.14" y1="69.49" x2="61.14" y2="69.49"/><line class="cls-3" x1="58.39" y1="79.74" x2="58.39" y2="79.74"/><line class="cls-3" x1="50.01" y1="80.01" x2="50.01" y2="80.01"/><line class="cls-3" x1="61.76" y1="79.62" x2="61.76" y2="79.62"/><rect class="cls-1" width="80.5" height="80.5"/></svg>