<!-- Generator: Adobe Illustrator 22.1.0, SVG Export Plug-In  -->
<svg version="1.1"
     xmlns="http://www.w3.org/2000/svg" xmlns:xlink="http://www.w3.org/1999/xlink" xmlns:a="http://ns.adobe.com/AdobeSVGViewerExtensions/3.0/"
     x="0px" y="0px" width="79.5px" height="79.7px" viewBox="0 0 79.5 79.7" style="enable-background:new 0 0 79.5 79.7;"
     xml:space="preserve">
<style type="text/css">
    .st0{fill:none;stroke:#000000;stroke-width:0.3;}
    .st1{fill:none;stroke:#000000;stroke-width:0.6;stroke-linecap:round;}
</style>
<defs>
</defs>
<line class="st0" x1="8.2" y1="1.9" x2="10.2" y2="3.9"/>
<line class="st0" x1="10.2" y1="1.9" x2="8.2" y2="3.9"/>
<line class="st0" x1="14.9" y1="8.6" x2="16.9" y2="10.6"/>
<line class="st0" x1="16.9" y1="8.6" x2="14.9" y2="10.6"/>
<line class="st0" x1="1.6" y1="8.6" x2="3.6" y2="10.6"/>
<line class="st0" x1="3.6" y1="8.6" x2="1.6" y2="10.6"/>
<line class="st0" x1="21.5" y1="1.9" x2="23.5" y2="3.9"/>
<line class="st0" x1="23.5" y1="1.9" x2="21.5" y2="3.9"/>
<line class="st0" x1="28.2" y1="8.6" x2="30.2" y2="10.6"/>
<line class="st0" x1="30.2" y1="8.6" x2="28.2" y2="10.6"/>
<line class="st0" x1="34.8" y1="1.9" x2="36.8" y2="3.9"/>
<line class="st0" x1="36.8" y1="1.9" x2="34.8" y2="3.9"/>
<line class="st0" x1="41.5" y1="8.6" x2="43.6" y2="10.6"/>
<line class="st0" x1="43.6" y1="8.6" x2="41.5" y2="10.6"/>
<line class="st0" x1="48.1" y1="1.9" x2="50.1" y2="3.9"/>
<line class="st0" x1="50.1" y1="1.9" x2="48.1" y2="3.9"/>
<line class="st0" x1="54.9" y1="8.6" x2="56.9" y2="10.6"/>
<line class="st0" x1="56.9" y1="8.6" x2="54.9" y2="10.6"/>
<line class="st0" x1="61.4" y1="1.9" x2="63.5" y2="3.9"/>
<line class="st0" x1="63.5" y1="1.9" x2="61.4" y2="3.9"/>
<line class="st0" x1="68.2" y1="8.6" x2="70.2" y2="10.6"/>
<line class="st0" x1="70.2" y1="8.6" x2="68.2" y2="10.6"/>
<line class="st0" x1="74.7" y1="1.9" x2="76.8" y2="3.9"/>
<line class="st0" x1="76.8" y1="1.9" x2="74.7" y2="3.9"/>
<line class="st0" x1="8.2" y1="28.5" x2="10.2" y2="30.6"/>
<line class="st0" x1="10.2" y1="28.5" x2="8.2" y2="30.6"/>
<line class="st0" x1="14.9" y1="35.2" x2="16.9" y2="37.2"/>
<line class="st0" x1="16.9" y1="35.2" x2="14.9" y2="37.2"/>
<line class="st0" x1="1.6" y1="35.2" x2="3.6" y2="37.2"/>
<line class="st0" x1="3.6" y1="35.2" x2="1.6" y2="37.2"/>
<line class="st0" x1="8.2" y1="15.2" x2="10.2" y2="17.2"/>
<line class="st0" x1="10.2" y1="15.2" x2="8.2" y2="17.2"/>
<line class="st0" x1="14.9" y1="21.9" x2="16.9" y2="23.9"/>
<line class="st0" x1="16.9" y1="21.9" x2="14.9" y2="23.9"/>
<line class="st0" x1="1.6" y1="21.9" x2="3.6" y2="23.9"/>
<line class="st0" x1="3.6" y1="21.9" x2="1.6" y2="23.9"/>
<line class="st0" x1="21.5" y1="28.5" x2="23.5" y2="30.6"/>
<line class="st0" x1="23.5" y1="28.5" x2="21.5" y2="30.6"/>
<line class="st0" x1="28.2" y1="35.2" x2="30.2" y2="37.2"/>
<line class="st0" x1="30.2" y1="35.2" x2="28.2" y2="37.2"/>
<line class="st0" x1="21.5" y1="15.2" x2="23.5" y2="17.2"/>
<line class="st0" x1="23.5" y1="15.2" x2="21.5" y2="17.2"/>
<line class="st0" x1="28.2" y1="21.9" x2="30.2" y2="23.9"/>
<line class="st0" x1="30.2" y1="21.9" x2="28.2" y2="23.9"/>
<line class="st0" x1="34.8" y1="28.5" x2="36.8" y2="30.6"/>
<line class="st0" x1="36.8" y1="28.5" x2="34.8" y2="30.6"/>
<line class="st0" x1="41.5" y1="35.2" x2="43.6" y2="37.2"/>
<line class="st0" x1="43.6" y1="35.2" x2="41.5" y2="37.2"/>
<line class="st0" x1="34.8" y1="15.2" x2="36.8" y2="17.2"/>
<line class="st0" x1="36.8" y1="15.2" x2="34.8" y2="17.2"/>
<line class="st0" x1="41.5" y1="21.9" x2="43.6" y2="23.9"/>
<line class="st0" x1="43.6" y1="21.9" x2="41.5" y2="23.9"/>
<line class="st0" x1="48.1" y1="28.5" x2="50.1" y2="30.6"/>
<line class="st0" x1="50.1" y1="28.5" x2="48.1" y2="30.6"/>
<line class="st0" x1="48.1" y1="15.2" x2="50.1" y2="17.2"/>
<line class="st0" x1="50.1" y1="15.2" x2="48.1" y2="17.2"/>
<line class="st0" x1="54.9" y1="35.2" x2="56.9" y2="37.2"/>
<line class="st0" x1="56.9" y1="35.2" x2="54.9" y2="37.2"/>
<line class="st0" x1="54.9" y1="21.9" x2="56.9" y2="23.9"/>
<line class="st0" x1="56.9" y1="21.9" x2="54.9" y2="23.9"/>
<line class="st0" x1="61.4" y1="28.5" x2="63.5" y2="30.6"/>
<line class="st0" x1="63.5" y1="28.5" x2="61.4" y2="30.6"/>
<line class="st0" x1="68.2" y1="35.2" x2="70.2" y2="37.2"/>
<line class="st0" x1="70.2" y1="35.2" x2="68.2" y2="37.2"/>
<line class="st0" x1="61.4" y1="15.2" x2="63.5" y2="17.2"/>
<line class="st0" x1="63.5" y1="15.2" x2="61.4" y2="17.2"/>
<line class="st0" x1="68.2" y1="21.9" x2="70.2" y2="23.9"/>
<line class="st0" x1="70.2" y1="21.9" x2="68.2" y2="23.9"/>
<line class="st0" x1="74.7" y1="28.5" x2="76.8" y2="30.6"/>
<line class="st0" x1="76.8" y1="28.5" x2="74.7" y2="30.6"/>
<line class="st0" x1="74.7" y1="15.2" x2="76.8" y2="17.2"/>
<line class="st0" x1="76.8" y1="15.2" x2="74.7" y2="17.2"/>
<line class="st0" x1="8.2" y1="55.1" x2="10.2" y2="57.1"/>
<line class="st0" x1="10.2" y1="55.1" x2="8.2" y2="57.1"/>
<line class="st0" x1="14.9" y1="61.8" x2="16.9" y2="63.8"/>
<line class="st0" x1="16.9" y1="61.8" x2="14.9" y2="63.8"/>
<line class="st0" x1="1.6" y1="61.8" x2="3.6" y2="63.8"/>
<line class="st0" x1="3.6" y1="61.8" x2="1.6" y2="63.8"/>
<line class="st0" x1="8.2" y1="41.8" x2="10.2" y2="43.8"/>
<line class="st0" x1="10.2" y1="41.8" x2="8.2" y2="43.8"/>
<line class="st0" x1="14.9" y1="48.5" x2="16.9" y2="50.5"/>
<line class="st0" x1="16.9" y1="48.5" x2="14.9" y2="50.5"/>
<line class="st0" x1="1.6" y1="48.5" x2="3.6" y2="50.5"/>
<line class="st0" x1="3.6" y1="48.5" x2="1.6" y2="50.5"/>
<line class="st0" x1="21.5" y1="55.1" x2="23.5" y2="57.1"/>
<line class="st0" x1="23.5" y1="55.1" x2="21.5" y2="57.1"/>
<line class="st0" x1="28.2" y1="61.8" x2="30.2" y2="63.8"/>
<line class="st0" x1="30.2" y1="61.8" x2="28.2" y2="63.8"/>
<line class="st0" x1="21.5" y1="41.8" x2="23.5" y2="43.8"/>
<line class="st0" x1="23.5" y1="41.8" x2="21.5" y2="43.8"/>
<line class="st0" x1="28.2" y1="48.5" x2="30.2" y2="50.5"/>
<line class="st0" x1="30.2" y1="48.5" x2="28.2" y2="50.5"/>
<line class="st0" x1="34.8" y1="55.1" x2="36.8" y2="57.1"/>
<line class="st0" x1="36.8" y1="55.1" x2="34.8" y2="57.1"/>
<line class="st0" x1="41.5" y1="61.8" x2="43.6" y2="63.8"/>
<line class="st0" x1="43.6" y1="61.8" x2="41.5" y2="63.8"/>
<line class="st0" x1="34.8" y1="41.8" x2="36.8" y2="43.8"/>
<line class="st0" x1="36.8" y1="41.8" x2="34.8" y2="43.8"/>
<line class="st0" x1="41.5" y1="48.5" x2="43.6" y2="50.5"/>
<line class="st0" x1="43.6" y1="48.5" x2="41.5" y2="50.5"/>
<line class="st0" x1="48.1" y1="55.1" x2="50.1" y2="57.1"/>
<line class="st0" x1="50.1" y1="55.1" x2="48.1" y2="57.1"/>
<line class="st0" x1="48.1" y1="41.8" x2="50.1" y2="43.8"/>
<line class="st0" x1="50.1" y1="41.8" x2="48.1" y2="43.8"/>
<line class="st0" x1="54.9" y1="61.8" x2="56.9" y2="63.8"/>
<line class="st0" x1="56.9" y1="61.8" x2="54.9" y2="63.8"/>
<line class="st0" x1="54.9" y1="48.5" x2="56.9" y2="50.5"/>
<line class="st0" x1="56.9" y1="48.5" x2="54.9" y2="50.5"/>
<line class="st0" x1="61.4" y1="55.1" x2="63.5" y2="57.1"/>
<line class="st0" x1="63.5" y1="55.1" x2="61.4" y2="57.1"/>
<line class="st0" x1="68.2" y1="61.8" x2="70.2" y2="63.8"/>
<line class="st0" x1="70.2" y1="61.8" x2="68.2" y2="63.8"/>
<line class="st0" x1="61.4" y1="41.8" x2="63.5" y2="43.8"/>
<line class="st0" x1="63.5" y1="41.8" x2="61.4" y2="43.8"/>
<line class="st0" x1="68.2" y1="48.5" x2="70.2" y2="50.5"/>
<line class="st0" x1="70.2" y1="48.5" x2="68.2" y2="50.5"/>
<line class="st0" x1="74.7" y1="55.1" x2="76.8" y2="57.1"/>
<line class="st0" x1="76.8" y1="55.1" x2="74.7" y2="57.1"/>
<line class="st0" x1="74.7" y1="41.8" x2="76.8" y2="43.8"/>
<line class="st0" x1="76.8" y1="41.8" x2="74.7" y2="43.8"/>
<line class="st0" x1="8.2" y1="68.4" x2="10.2" y2="70.4"/>
<line class="st0" x1="10.2" y1="68.4" x2="8.2" y2="70.4"/>
<line class="st0" x1="14.9" y1="75.1" x2="16.9" y2="77.1"/>
<line class="st0" x1="16.9" y1="75.1" x2="14.9" y2="77.1"/>
<line class="st0" x1="1.6" y1="75.1" x2="3.6" y2="77.1"/>
<line class="st0" x1="3.6" y1="75.1" x2="1.6" y2="77.1"/>
<line class="st0" x1="21.5" y1="68.4" x2="23.5" y2="70.4"/>
<line class="st0" x1="23.5" y1="68.4" x2="21.5" y2="70.4"/>
<line class="st0" x1="28.2" y1="75.1" x2="30.2" y2="77.1"/>
<line class="st0" x1="30.2" y1="75.1" x2="28.2" y2="77.1"/>
<line class="st0" x1="34.8" y1="68.4" x2="36.8" y2="70.4"/>
<line class="st0" x1="36.8" y1="68.4" x2="34.8" y2="70.4"/>
<line class="st0" x1="41.5" y1="75.1" x2="43.6" y2="77.1"/>
<line class="st0" x1="43.6" y1="75.1" x2="41.5" y2="77.1"/>
<line class="st0" x1="48.1" y1="68.4" x2="50.1" y2="70.4"/>
<line class="st0" x1="50.1" y1="68.4" x2="48.1" y2="70.4"/>
<line class="st0" x1="54.9" y1="75.1" x2="56.9" y2="77.1"/>
<line class="st0" x1="56.9" y1="75.1" x2="54.9" y2="77.1"/>
<line class="st0" x1="61.4" y1="68.4" x2="63.5" y2="70.4"/>
<line class="st0" x1="63.5" y1="68.4" x2="61.4" y2="70.4"/>
<line class="st0" x1="68.2" y1="75.1" x2="70.2" y2="77.1"/>
<line class="st0" x1="70.2" y1="75.1" x2="68.2" y2="77.1"/>
<line class="st0" x1="74.7" y1="68.4" x2="76.8" y2="70.4"/>
<line class="st0" x1="76.8" y1="68.4" x2="74.7" y2="70.4"/>
<line class="st1" x1="6.7" y1="9.6" x2="6.7" y2="9.6"/>
<line class="st1" x1="6.7" y1="12.9" x2="6.7" y2="12.9"/>
<line class="st1" x1="2" y1="13" x2="2" y2="13"/>
<line class="st1" x1="10.7" y1="12.6" x2="10.7" y2="12.6"/>
<line class="st1" x1="13.4" y1="14.4" x2="13.4" y2="14.4"/>
<line class="st1" x1="16.8" y1="15.1" x2="16.8" y2="15.1"/>
<line class="st1" x1="23.3" y1="6.6" x2="23.3" y2="6.6"/>
<line class="st1" x1="20.3" y1="12.3" x2="20.3" y2="12.3"/>
<line class="st1" x1="13.8" y1="17.7" x2="13.8" y2="17.7"/>
<line class="st1" x1="15.9" y1="11.7" x2="15.9" y2="11.7"/>
<line class="st1" x1="16.4" y1="5.9" x2="16.4" y2="5.9"/>
<line class="st1" x1="19.9" y1="8.3" x2="19.9" y2="8.3"/>
<line class="st1" x1="23.5" y1="9.7" x2="23.5" y2="9.7"/>
<line class="st1" x1="19.5" y1="3.3" x2="19.5" y2="3.3"/>
<line class="st1" x1="11.3" y1="8.5" x2="11.3" y2="8.5"/>
<line class="st1" x1="4.6" y1="6.7" x2="4.6" y2="6.7"/>
<line class="st1" x1="5.9" y1="2" x2="5.9" y2="2"/>
<line class="st1" x1="12.5" y1="0.4" x2="12.5" y2="0.4"/>
<line class="st1" x1="15.8" y1="2.2" x2="15.8" y2="2.2"/>
<line class="st1" x1="2" y1="2.9" x2="2" y2="2.9"/>
<line class="st1" x1="0.5" y1="7.1" x2="0.5" y2="7.1"/>
<line class="st1" x1="13.3" y1="4.6" x2="13.3" y2="4.6"/>
<line class="st1" x1="8.1" y1="6.1" x2="8.1" y2="6.1"/>
<line class="st1" x1="6.7" y1="27.3" x2="6.7" y2="27.3"/>
<line class="st1" x1="2.9" y1="27.5" x2="2.9" y2="27.5"/>
<line class="st1" x1="6.7" y1="30.6" x2="6.7" y2="30.6"/>
<line class="st1" x1="2" y1="30.7" x2="2" y2="30.7"/>
<line class="st1" x1="12.4" y1="29.4" x2="12.4" y2="29.4"/>
<line class="st1" x1="13.4" y1="32.1" x2="13.4" y2="32.1"/>
<line class="st1" x1="9.3" y1="33.4" x2="9.3" y2="33.4"/>
<line class="st1" x1="4.3" y1="33.7" x2="4.3" y2="33.7"/>
<line class="st1" x1="6.6" y1="36.4" x2="6.6" y2="36.4"/>
<line class="st1" x1="10.4" y1="37.8" x2="10.4" y2="37.8"/>
<line class="st1" x1="17" y1="32.7" x2="17" y2="32.7"/>
<line class="st1" x1="12.1" y1="35.5" x2="12.1" y2="35.5"/>
<line class="st1" x1="15.9" y1="29.4" x2="15.9" y2="29.4"/>
<line class="st1" x1="15.7" y1="26" x2="15.7" y2="26"/>
<line class="st1" x1="19.9" y1="26" x2="19.9" y2="26"/>
<line class="st1" x1="19.5" y1="21" x2="19.5" y2="21"/>
<line class="st1" x1="19.2" y1="16.6" x2="19.2" y2="16.6"/>
<line class="st1" x1="11.3" y1="26.2" x2="11.3" y2="26.2"/>
<line class="st1" x1="4.6" y1="24.4" x2="4.6" y2="24.4"/>
<line class="st1" x1="3.3" y1="16.8" x2="3.3" y2="16.8"/>
<line class="st1" x1="5.9" y1="19.8" x2="5.9" y2="19.8"/>
<line class="st1" x1="9.9" y1="20" x2="9.9" y2="20"/>
<line class="st1" x1="15.8" y1="19.9" x2="15.8" y2="19.9"/>
<line class="st1" x1="2" y1="20.6" x2="2" y2="20.6"/>
<line class="st1" x1="0.5" y1="24.8" x2="0.5" y2="24.8"/>
<line class="st1" x1="13.3" y1="22.3" x2="13.3" y2="22.3"/>
<line class="st1" x1="8.1" y1="23.8" x2="8.1" y2="23.8"/>
<line class="st1" x1="33.5" y1="9.6" x2="33.5" y2="9.6"/>
<line class="st1" x1="33.4" y1="12.9" x2="33.4" y2="12.9"/>
<line class="st1" x1="28.8" y1="13" x2="28.8" y2="13"/>
<line class="st1" x1="25.3" y1="12.8" x2="25.3" y2="12.8"/>
<line class="st1" x1="26.3" y1="16.2" x2="26.3" y2="16.2"/>
<line class="st1" x1="22.6" y1="19.4" x2="22.6" y2="19.4"/>
<line class="st1" x1="22.4" y1="22.8" x2="22.4" y2="22.8"/>
<line class="st1" x1="23.8" y1="26.2" x2="23.8" y2="26.2"/>
<line class="st1" x1="25.5" y1="21.2" x2="25.5" y2="21.2"/>
<line class="st1" x1="37.5" y1="12.6" x2="37.5" y2="12.6"/>
<line class="st1" x1="40.2" y1="14.4" x2="40.2" y2="14.4"/>
<line class="st1" x1="44.8" y1="14.4" x2="44.8" y2="14.4"/>
<line class="st1" x1="40.5" y1="17.7" x2="40.5" y2="17.7"/>
<line class="st1" x1="42.7" y1="11.7" x2="42.7" y2="11.7"/>
<line class="st1" x1="43.2" y1="5.9" x2="43.2" y2="5.9"/>
<line class="st1" x1="45.7" y1="9.7" x2="45.7" y2="9.7"/>
<line class="st1" x1="46" y1="6.6" x2="46" y2="6.6"/>
<line class="st1" x1="46.3" y1="3.3" x2="46.3" y2="3.3"/>
<line class="st1" x1="38" y1="8.5" x2="38" y2="8.5"/>
<line class="st1" x1="31.3" y1="6.7" x2="31.3" y2="6.7"/>
<line class="st1" x1="32.7" y1="2" x2="32.7" y2="2"/>
<line class="st1" x1="39.2" y1="0.4" x2="39.2" y2="0.4"/>
<line class="st1" x1="42.5" y1="2.2" x2="42.5" y2="2.2"/>
<line class="st1" x1="49.8" y1="78.9" x2="49.8" y2="78.9"/>
<line class="st1" x1="28.7" y1="2.9" x2="28.7" y2="2.9"/>
<line class="st1" x1="25.4" y1="3.9" x2="25.4" y2="3.9"/>
<line class="st1" x1="24.5" y1="0.3" x2="24.5" y2="0.3"/>
<line class="st1" x1="27.2" y1="7.1" x2="27.2" y2="7.1"/>
<line class="st1" x1="40" y1="4.6" x2="40" y2="4.6"/>
<line class="st1" x1="34.8" y1="6.1" x2="34.8" y2="6.1"/>
<line class="st1" x1="33.5" y1="27.3" x2="33.5" y2="27.3"/>
<line class="st1" x1="29.7" y1="27.5" x2="29.7" y2="27.5"/>
<line class="st1" x1="26.3" y1="28.3" x2="26.3" y2="28.3"/>
<line class="st1" x1="19.2" y1="29.4" x2="19.2" y2="29.4"/>
<line class="st1" x1="33.4" y1="30.6" x2="33.4" y2="30.6"/>
<line class="st1" x1="25.4" y1="31.7" x2="25.4" y2="31.7"/>
<line class="st1" x1="24.6" y1="35" x2="24.6" y2="35"/>
<line class="st1" x1="19.6" y1="35.9" x2="19.6" y2="35.9"/>
<line class="st1" x1="22.1" y1="37.4" x2="22.1" y2="37.4"/>
<line class="st1" x1="55.3" y1="33.2" x2="55.3" y2="33.2"/>
<line class="st1" x1="51.8" y1="35.5" x2="51.8" y2="35.5"/>
<line class="st1" x1="60.1" y1="35.4" x2="60.1" y2="35.4"/>
<line class="st1" x1="75.5" y1="35.7" x2="75.5" y2="35.7"/>
<line class="st1" x1="78.6" y1="38.4" x2="78.6" y2="38.4"/>
<line class="st1" x1="21.2" y1="32.8" x2="21.2" y2="32.8"/>
<line class="st1" x1="28.8" y1="30.7" x2="28.8" y2="30.7"/>
<line class="st1" x1="39.2" y1="29.4" x2="39.2" y2="29.4"/>
<line class="st1" x1="40.2" y1="32.1" x2="40.2" y2="32.1"/>
<line class="st1" x1="36" y1="33.4" x2="36" y2="33.4"/>
<line class="st1" x1="31" y1="33.7" x2="31" y2="33.7"/>
<line class="st1" x1="33.3" y1="36.4" x2="33.3" y2="36.4"/>
<line class="st1" x1="37.2" y1="37.8" x2="37.2" y2="37.8"/>
<line class="st1" x1="44.9" y1="32.7" x2="44.9" y2="32.7"/>
<line class="st1" x1="39.1" y1="35.5" x2="39.1" y2="35.5"/>
<line class="st1" x1="42.7" y1="29.4" x2="42.7" y2="29.4"/>
<line class="st1" x1="42.4" y1="26" x2="42.4" y2="26"/>
<line class="st1" x1="46" y1="29" x2="46" y2="29"/>
<line class="st1" x1="48.4" y1="26.2" x2="48.4" y2="26.2"/>
<line class="st1" x1="51.2" y1="23.7" x2="51.2" y2="23.7"/>
<line class="st1" x1="51.7" y1="27.2" x2="51.7" y2="27.2"/>
<line class="st1" x1="55" y1="26.3" x2="55" y2="26.3"/>
<line class="st1" x1="55" y1="29.7" x2="55" y2="29.7"/>
<line class="st1" x1="58.6" y1="28.7" x2="58.6" y2="28.7"/>
<line class="st1" x1="52.3" y1="30.8" x2="52.3" y2="30.8"/>
<line class="st1" x1="48.9" y1="33.4" x2="48.9" y2="33.4"/>
<line class="st1" x1="53.5" y1="20.8" x2="53.5" y2="20.8"/>
<line class="st1" x1="46" y1="20" x2="46" y2="20"/>
<line class="st1" x1="45.9" y1="16.6" x2="45.9" y2="16.6"/>
<line class="st1" x1="38" y1="26.2" x2="38" y2="26.2"/>
<line class="st1" x1="32.1" y1="24.5" x2="32.1" y2="24.5"/>
<line class="st1" x1="46.3" y1="36.2" x2="46.3" y2="36.2"/>
<line class="st1" x1="30" y1="16.8" x2="30" y2="16.8"/>
<line class="st1" x1="32.7" y1="19.8" x2="32.7" y2="19.8"/>
<line class="st1" x1="36.7" y1="20" x2="36.7" y2="20"/>
<line class="st1" x1="42.5" y1="19.9" x2="42.5" y2="19.9"/>
<line class="st1" x1="28.5" y1="19.7" x2="28.5" y2="19.7"/>
<line class="st1" x1="26.1" y1="24.7" x2="26.1" y2="24.7"/>
<line class="st1" x1="40" y1="22.3" x2="40" y2="22.3"/>
<line class="st1" x1="35.6" y1="23.5" x2="35.6" y2="23.5"/>
<line class="st1" x1="79.2" y1="11" x2="79.2" y2="11"/>
<line class="st1" x1="79.2" y1="28.7" x2="79.2" y2="28.7"/>
<line class="st1" x1="78.9" y1="17.5" x2="78.9" y2="17.5"/>
<line class="st1" x1="71.4" y1="9.1" x2="71.4" y2="9.1"/>
<line class="st1" x1="71.4" y1="12.4" x2="71.4" y2="12.4"/>
<line class="st1" x1="76.1" y1="12.4" x2="76.1" y2="12.4"/>
<line class="st1" x1="67.4" y1="12" x2="67.4" y2="12"/>
<line class="st1" x1="64.7" y1="13.9" x2="64.7" y2="13.9"/>
<line class="st1" x1="59.3" y1="12.6" x2="59.3" y2="12.6"/>
<line class="st1" x1="63.3" y1="7.9" x2="63.3" y2="7.9"/>
<line class="st1" x1="62.2" y1="11.1" x2="62.2" y2="11.1"/>
<line class="st1" x1="61.7" y1="5.4" x2="61.7" y2="5.4"/>
<line class="st1" x1="58.2" y1="7.7" x2="58.2" y2="7.7"/>
<line class="st1" x1="58.5" y1="2.7" x2="58.5" y2="2.7"/>
<line class="st1" x1="54.8" y1="0.9" x2="54.8" y2="0.9"/>
<line class="st1" x1="52.2" y1="2.9" x2="52.2" y2="2.9"/>
<line class="st1" x1="55.3" y1="3.8" x2="55.3" y2="3.8"/>
<line class="st1" x1="53.1" y1="6.1" x2="53.1" y2="6.1"/>
<line class="st1" x1="50" y1="7.4" x2="50" y2="7.4"/>
<line class="st1" x1="49.2" y1="10.7" x2="49.2" y2="10.7"/>
<line class="st1" x1="65.1" y1="18.3" x2="65.1" y2="18.3"/>
<line class="st1" x1="47.6" y1="13.1" x2="47.6" y2="13.1"/>
<line class="st1" x1="52.1" y1="14.1" x2="52.1" y2="14.1"/>
<line class="st1" x1="52.8" y1="9.6" x2="52.8" y2="9.6"/>
<line class="st1" x1="56.2" y1="13.6" x2="56.2" y2="13.6"/>
<line class="st1" x1="55.2" y1="16.9" x2="55.2" y2="16.9"/>
<line class="st1" x1="51.4" y1="18" x2="51.4" y2="18"/>
<line class="st1" x1="49.5" y1="20.9" x2="49.5" y2="20.9"/>
<line class="st1" x1="46.3" y1="24.2" x2="46.3" y2="24.2"/>
<line class="st1" x1="66.8" y1="7.9" x2="66.8" y2="7.9"/>
<line class="st1" x1="73.6" y1="6.1" x2="73.6" y2="6.1"/>
<line class="st1" x1="72.2" y1="1.5" x2="72.2" y2="1.5"/>
<line class="st1" x1="65.6" y1="0.3" x2="65.6" y2="0.3"/>
<line class="st1" x1="67.9" y1="2.5" x2="67.9" y2="2.5"/>
<line class="st1" x1="75.6" y1="9.1" x2="75.6" y2="9.1"/>
<line class="st1" x1="77.6" y1="6.6" x2="77.6" y2="6.6"/>
<line class="st1" x1="64.8" y1="4.1" x2="64.8" y2="4.1"/>
<line class="st1" x1="21.3" y1="78.1" x2="21.3" y2="78.1"/>
<line class="st1" x1="8.8" y1="79.4" x2="8.8" y2="79.4"/>
<line class="st1" x1="0.5" y1="79.1" x2="0.5" y2="79.1"/>
<line class="st1" x1="16.6" y1="78.7" x2="16.6" y2="78.7"/>
<line class="st1" x1="29.1" y1="56.5" x2="29.1" y2="56.5"/>
<line class="st1" x1="42.8" y1="78.2" x2="42.8" y2="78.2"/>
<line class="st1" x1="28.5" y1="78.9" x2="28.5" y2="78.9"/>
<line class="st1" x1="41.6" y1="71.1" x2="41.6" y2="71.1"/>
<line class="st1" x1="56.5" y1="78.7" x2="56.5" y2="78.7"/>
<line class="st1" x1="45.8" y1="79.4" x2="45.8" y2="79.4"/>
<line class="st1" x1="75.6" y1="79.1" x2="75.6" y2="79.1"/>
<line class="st1" x1="69.5" y1="79.2" x2="69.5" y2="79.2"/>
<line class="st1" x1="61.5" y1="79.1" x2="61.5" y2="79.1"/>
<line class="st1" x1="70.1" y1="5.6" x2="70.1" y2="5.6"/>
<line class="st1" x1="71.4" y1="26.8" x2="71.4" y2="26.8"/>
<line class="st1" x1="75.2" y1="27" x2="75.2" y2="27"/>
<line class="st1" x1="71.4" y1="30.1" x2="71.4" y2="30.1"/>
<line class="st1" x1="77.3" y1="32.8" x2="77.3" y2="32.8"/>
<line class="st1" x1="65.7" y1="28.9" x2="65.7" y2="28.9"/>
<line class="st1" x1="64.7" y1="31.6" x2="64.7" y2="31.6"/>
<line class="st1" x1="68.8" y1="32.9" x2="68.8" y2="32.9"/>
<line class="st1" x1="73.8" y1="33.1" x2="73.8" y2="33.1"/>
<line class="st1" x1="71.6" y1="35.9" x2="71.6" y2="35.9"/>
<line class="st1" x1="66.4" y1="38.3" x2="66.4" y2="38.3"/>
<line class="st1" x1="59.9" y1="32.1" x2="59.9" y2="32.1"/>
<line class="st1" x1="64.3" y1="34.8" x2="64.3" y2="34.8"/>
<line class="st1" x1="67.3" y1="15.8" x2="67.3" y2="15.8"/>
<line class="st1" x1="62.4" y1="25.5" x2="62.4" y2="25.5"/>
<line class="st1" x1="61" y1="22.4" x2="61" y2="22.4"/>
<line class="st1" x1="58.2" y1="25.4" x2="58.2" y2="25.4"/>
<line class="st1" x1="58.5" y1="20.4" x2="58.5" y2="20.4"/>
<line class="st1" x1="58.9" y1="16.1" x2="58.9" y2="16.1"/>
<line class="st1" x1="66.8" y1="25.6" x2="66.8" y2="25.6"/>
<line class="st1" x1="73.6" y1="23.8" x2="73.6" y2="23.8"/>
<line class="st1" x1="68.8" y1="28.9" x2="68.8" y2="28.9"/>
<line class="st1" x1="72.2" y1="19.2" x2="72.2" y2="19.2"/>
<line class="st1" x1="68.2" y1="19.5" x2="68.2" y2="19.5"/>
<line class="st1" x1="62.3" y1="19.4" x2="62.3" y2="19.4"/>
<line class="st1" x1="76.1" y1="20.1" x2="76.1" y2="20.1"/>
<line class="st1" x1="77.6" y1="24.3" x2="77.6" y2="24.3"/>
<line class="st1" x1="64.8" y1="21.8" x2="64.8" y2="21.8"/>
<line class="st1" x1="70.7" y1="15.7" x2="70.7" y2="15.7"/>
<line class="st1" x1="6.7" y1="70.1" x2="6.7" y2="70.1"/>
<line class="st1" x1="6.7" y1="66.8" x2="6.7" y2="66.8"/>
<line class="st1" x1="2" y1="66.7" x2="2" y2="66.7"/>
<line class="st1" x1="10.7" y1="67.1" x2="10.7" y2="67.1"/>
<line class="st1" x1="13.4" y1="65.3" x2="13.4" y2="65.3"/>
<line class="st1" x1="17.3" y1="56.3" x2="17.3" y2="56.3"/>
<line class="st1" x1="22.6" y1="64.1" x2="22.6" y2="64.1"/>
<line class="st1" x1="23.3" y1="73.1" x2="23.3" y2="73.1"/>
<line class="st1" x1="20.3" y1="67.4" x2="20.3" y2="67.4"/>
<line class="st1" x1="12.5" y1="62.2" x2="12.5" y2="62.2"/>
<line class="st1" x1="16.8" y1="66.4" x2="16.8" y2="66.4"/>
<line class="st1" x1="16.3" y1="71.4" x2="16.3" y2="71.4"/>
<line class="st1" x1="19.9" y1="71.4" x2="19.9" y2="71.4"/>
<line class="st1" x1="28.3" y1="42.7" x2="28.3" y2="42.7"/>
<line class="st1" x1="19.5" y1="75.2" x2="19.5" y2="75.2"/>
<line class="st1" x1="9.1" y1="71.9" x2="9.1" y2="71.9"/>
<line class="st1" x1="4.6" y1="73" x2="4.6" y2="73"/>
<line class="st1" x1="5.5" y1="78.4" x2="5.5" y2="78.4"/>
<line class="st1" x1="13.8" y1="69.4" x2="13.8" y2="69.4"/>
<line class="st1" x1="2.6" y1="69.7" x2="2.6" y2="69.7"/>
<line class="st1" x1="0.5" y1="72.6" x2="0.5" y2="72.6"/>
<line class="st1" x1="13" y1="73.6" x2="13" y2="73.6"/>
<line class="st1" x1="11.8" y1="76.7" x2="11.8" y2="76.7"/>
<line class="st1" x1="6.7" y1="52.4" x2="6.7" y2="52.4"/>
<line class="st1" x1="2.9" y1="52.1" x2="2.9" y2="52.1"/>
<line class="st1" x1="6.7" y1="49.1" x2="6.7" y2="49.1"/>
<line class="st1" x1="17.5" y1="39.7" x2="17.5" y2="39.7"/>
<line class="st1" x1="12.4" y1="50.3" x2="12.4" y2="50.3"/>
<line class="st1" x1="13.4" y1="47.6" x2="13.4" y2="47.6"/>
<line class="st1" x1="9.3" y1="46.3" x2="9.3" y2="46.3"/>
<line class="st1" x1="4.3" y1="46" x2="4.3" y2="46"/>
<line class="st1" x1="6.6" y1="43.3" x2="6.6" y2="43.3"/>
<line class="st1" x1="12.5" y1="40.9" x2="12.5" y2="40.9"/>
<line class="st1" x1="17" y1="47" x2="17" y2="47"/>
<line class="st1" x1="12.1" y1="44.1" x2="12.1" y2="44.1"/>
<line class="st1" x1="15.6" y1="43.5" x2="15.6" y2="43.5"/>
<line class="st1" x1="15.7" y1="53.6" x2="15.7" y2="53.6"/>
<line class="st1" x1="19.9" y1="53.7" x2="19.9" y2="53.7"/>
<line class="st1" x1="19.5" y1="58.7" x2="19.5" y2="58.7"/>
<line class="st1" x1="19.2" y1="63.1" x2="19.2" y2="63.1"/>
<line class="st1" x1="11.3" y1="53.5" x2="11.3" y2="53.5"/>
<line class="st1" x1="4.6" y1="55.3" x2="4.6" y2="55.3"/>
<line class="st1" x1="0.8" y1="44" x2="0.8" y2="44"/>
<line class="st1" x1="5.9" y1="59.9" x2="5.9" y2="59.9"/>
<line class="st1" x1="9.9" y1="59.6" x2="9.9" y2="59.6"/>
<line class="st1" x1="15.8" y1="59.7" x2="15.8" y2="59.7"/>
<line class="st1" x1="2" y1="59.1" x2="2" y2="59.1"/>
<line class="st1" x1="0.5" y1="54.9" x2="0.5" y2="54.9"/>
<line class="st1" x1="13.3" y1="57.4" x2="13.3" y2="57.4"/>
<line class="st1" x1="8.5" y1="63.5" x2="8.5" y2="63.5"/>
<line class="st1" x1="33.5" y1="70.1" x2="33.5" y2="70.1"/>
<line class="st1" x1="33.4" y1="66.8" x2="33.4" y2="66.8"/>
<line class="st1" x1="28.8" y1="66.7" x2="28.8" y2="66.7"/>
<line class="st1" x1="25.3" y1="66.9" x2="25.3" y2="66.9"/>
<line class="st1" x1="26.3" y1="63.5" x2="26.3" y2="63.5"/>
<line class="st1" x1="22.6" y1="60.3" x2="22.6" y2="60.3"/>
<line class="st1" x1="22.5" y1="49.9" x2="22.5" y2="49.9"/>
<line class="st1" x1="23.8" y1="53.5" x2="23.8" y2="53.5"/>
<line class="st1" x1="25.5" y1="58.5" x2="25.5" y2="58.5"/>
<line class="st1" x1="37.5" y1="67.1" x2="37.5" y2="67.1"/>
<line class="st1" x1="40.2" y1="65.3" x2="40.2" y2="65.3"/>
<line class="st1" x1="44.8" y1="65.3" x2="44.8" y2="65.3"/>
<line class="st1" x1="40.5" y1="62" x2="40.5" y2="62"/>
<line class="st1" x1="42.7" y1="68" x2="42.7" y2="68"/>
<line class="st1" x1="43.2" y1="73.8" x2="43.2" y2="73.8"/>
<line class="st1" x1="45.7" y1="70" x2="45.7" y2="70"/>
<line class="st1" x1="46" y1="73.1" x2="46" y2="73.1"/>
<line class="st1" x1="47.1" y1="75.6" x2="47.1" y2="75.6"/>
<line class="st1" x1="38" y1="71.2" x2="38" y2="71.2"/>
<line class="st1" x1="31.3" y1="73" x2="31.3" y2="73"/>
<line class="st1" x1="32.7" y1="77.6" x2="32.7" y2="77.6"/>
<line class="st1" x1="37.3" y1="78.1" x2="37.3" y2="78.1"/>
<line class="st1" x1="29" y1="69.6" x2="29" y2="69.6"/>
<line class="st1" x1="25.4" y1="75.8" x2="25.4" y2="75.8"/>
<line class="st1" x1="27.2" y1="72.6" x2="27.2" y2="72.6"/>
<line class="st1" x1="40" y1="75.1" x2="40" y2="75.1"/>
<line class="st1" x1="35.8" y1="74.6" x2="35.8" y2="74.6"/>
<line class="st1" x1="33.5" y1="52.4" x2="33.5" y2="52.4"/>
<line class="st1" x1="29.7" y1="52.1" x2="29.7" y2="52.1"/>
<line class="st1" x1="26.3" y1="51.4" x2="26.3" y2="51.4"/>
<line class="st1" x1="19.2" y1="50.3" x2="19.2" y2="50.3"/>
<line class="st1" x1="33.4" y1="49.1" x2="33.4" y2="49.1"/>
<line class="st1" x1="25.4" y1="48" x2="25.4" y2="48"/>
<line class="st1" x1="24.6" y1="44.6" x2="24.6" y2="44.6"/>
<line class="st1" x1="19.6" y1="43.8" x2="19.6" y2="43.8"/>
<line class="st1" x1="25" y1="39.4" x2="25" y2="39.4"/>
<line class="st1" x1="55.3" y1="46.5" x2="55.3" y2="46.5"/>
<line class="st1" x1="51.8" y1="44.1" x2="51.8" y2="44.1"/>
<line class="st1" x1="60.1" y1="44.3" x2="60.1" y2="44.3"/>
<line class="st1" x1="74.5" y1="39" x2="74.5" y2="39"/>
<line class="st1" x1="70.6" y1="40.2" x2="70.6" y2="40.2"/>
<line class="st1" x1="54.6" y1="38.7" x2="54.6" y2="38.7"/>
<line class="st1" x1="49.6" y1="38.7" x2="49.6" y2="38.7"/>
<line class="st1" x1="32.8" y1="39.7" x2="32.8" y2="39.7"/>
<line class="st1" x1="29" y1="39.2" x2="29" y2="39.2"/>
<line class="st1" x1="6.8" y1="39.5" x2="6.8" y2="39.5"/>
<line class="st1" x1="3.6" y1="41.5" x2="3.6" y2="41.5"/>
<line class="st1" x1="0.3" y1="38.5" x2="0.3" y2="38.5"/>
<line class="st1" x1="78.6" y1="41.3" x2="78.6" y2="41.3"/>
<line class="st1" x1="21.2" y1="46.9" x2="21.2" y2="46.9"/>
<line class="st1" x1="28.8" y1="49" x2="28.8" y2="49"/>
<line class="st1" x1="39.2" y1="50.3" x2="39.2" y2="50.3"/>
<line class="st1" x1="40.2" y1="47.6" x2="40.2" y2="47.6"/>
<line class="st1" x1="36" y1="46.3" x2="36" y2="46.3"/>
<line class="st1" x1="31" y1="46" x2="31" y2="46"/>
<line class="st1" x1="33.3" y1="43.3" x2="33.3" y2="43.3"/>
<line class="st1" x1="39" y1="40.9" x2="39" y2="40.9"/>
<line class="st1" x1="44.9" y1="47" x2="44.9" y2="47"/>
<line class="st1" x1="39.1" y1="44.1" x2="39.1" y2="44.1"/>
<line class="st1" x1="42.6" y1="43.2" x2="42.6" y2="43.2"/>
<line class="st1" x1="42.4" y1="53.6" x2="42.4" y2="53.6"/>
<line class="st1" x1="46" y1="50.6" x2="46" y2="50.6"/>
<line class="st1" x1="48.4" y1="53.5" x2="48.4" y2="53.5"/>
<line class="st1" x1="51.2" y1="56" x2="51.2" y2="56"/>
<line class="st1" x1="51.7" y1="52.5" x2="51.7" y2="52.5"/>
<line class="st1" x1="55" y1="53.4" x2="55" y2="53.4"/>
<line class="st1" x1="56" y1="41.9" x2="56" y2="41.9"/>
<line class="st1" x1="58.6" y1="51" x2="58.6" y2="51"/>
<line class="st1" x1="52.3" y1="48.9" x2="52.3" y2="48.9"/>
<line class="st1" x1="48.9" y1="46.3" x2="48.9" y2="46.3"/>
<line class="st1" x1="53.5" y1="58.9" x2="53.5" y2="58.9"/>
<line class="st1" x1="46" y1="59.6" x2="46" y2="59.6"/>
<line class="st1" x1="45.9" y1="63.1" x2="45.9" y2="63.1"/>
<line class="st1" x1="38" y1="53.5" x2="38" y2="53.5"/>
<line class="st1" x1="32.1" y1="55.1" x2="32.1" y2="55.1"/>
<line class="st1" x1="46.3" y1="43.5" x2="46.3" y2="43.5"/>
<line class="st1" x1="35" y1="63.4" x2="35" y2="63.4"/>
<line class="st1" x1="32.7" y1="59.9" x2="32.7" y2="59.9"/>
<line class="st1" x1="36.7" y1="59.6" x2="36.7" y2="59.6"/>
<line class="st1" x1="42.5" y1="59.7" x2="42.5" y2="59.7"/>
<line class="st1" x1="28.5" y1="60" x2="28.5" y2="60"/>
<line class="st1" x1="26.1" y1="55" x2="26.1" y2="55"/>
<line class="st1" x1="40" y1="57.4" x2="40" y2="57.4"/>
<line class="st1" x1="36" y1="50.7" x2="36" y2="50.7"/>
<line class="st1" x1="79.2" y1="68.7" x2="79.2" y2="68.7"/>
<line class="st1" x1="79.2" y1="51" x2="79.2" y2="51"/>
<line class="st1" x1="78.9" y1="62.1" x2="78.9" y2="62.1"/>
<line class="st1" x1="71.4" y1="70.6" x2="71.4" y2="70.6"/>
<line class="st1" x1="71.4" y1="67.3" x2="71.4" y2="67.3"/>
<line class="st1" x1="76.1" y1="67.3" x2="76.1" y2="67.3"/>
<line class="st1" x1="67.4" y1="67.7" x2="67.4" y2="67.7"/>
<line class="st1" x1="64.7" y1="65.8" x2="64.7" y2="65.8"/>
<line class="st1" x1="59.3" y1="67.1" x2="59.3" y2="67.1"/>
<line class="st1" x1="63.3" y1="71.8" x2="63.3" y2="71.8"/>
<line class="st1" x1="8.1" y1="75.9" x2="8.1" y2="75.9"/>
<line class="st1" x1="62.5" y1="74.6" x2="62.5" y2="74.6"/>
<line class="st1" x1="58.2" y1="71.9" x2="58.2" y2="71.9"/>
<line class="st1" x1="59.1" y1="76.1" x2="59.1" y2="76.1"/>
<line class="st1" x1="52.2" y1="76.8" x2="52.2" y2="76.8"/>
<line class="st1" x1="56.3" y1="69.9" x2="56.3" y2="69.9"/>
<line class="st1" x1="53.1" y1="73.6" x2="53.1" y2="73.6"/>
<line class="st1" x1="50" y1="72.3" x2="50" y2="72.3"/>
<line class="st1" x1="44" y1="39.4" x2="44" y2="39.4"/>
<line class="st1" x1="65.1" y1="61.4" x2="65.1" y2="61.4"/>
<line class="st1" x1="47.6" y1="66.6" x2="47.6" y2="66.6"/>
<line class="st1" x1="52.1" y1="65.6" x2="52.1" y2="65.6"/>
<line class="st1" x1="52.8" y1="70.1" x2="52.8" y2="70.1"/>
<line class="st1" x1="56.2" y1="66.1" x2="56.2" y2="66.1"/>
<line class="st1" x1="61.1" y1="38.9" x2="61.1" y2="38.9"/>
<line class="st1" x1="51.4" y1="61.6" x2="51.4" y2="61.6"/>
<line class="st1" x1="49.5" y1="58.8" x2="49.5" y2="58.8"/>
<line class="st1" x1="44.3" y1="56.2" x2="44.3" y2="56.2"/>
<line class="st1" x1="66.8" y1="71.8" x2="66.8" y2="71.8"/>
<line class="st1" x1="73.6" y1="73.6" x2="73.6" y2="73.6"/>
<line class="st1" x1="78.1" y1="75.9" x2="78.1" y2="75.9"/>
<line class="st1" x1="72.5" y1="76.9" x2="72.5" y2="76.9"/>
<line class="st1" x1="75.1" y1="63.9" x2="75.1" y2="63.9"/>
<line class="st1" x1="67.6" y1="43.5" x2="67.6" y2="43.5"/>
<line class="st1" x1="77.6" y1="73.1" x2="77.6" y2="73.1"/>
<line class="st1" x1="65.1" y1="77.1" x2="65.1" y2="77.1"/>
<line class="st1" x1="69.3" y1="73.2" x2="69.3" y2="73.2"/>
<line class="st1" x1="71.4" y1="52.9" x2="71.4" y2="52.9"/>
<line class="st1" x1="75.2" y1="52.7" x2="75.2" y2="52.7"/>
<line class="st1" x1="71.4" y1="49.6" x2="71.4" y2="49.6"/>
<line class="st1" x1="77.3" y1="46.9" x2="77.3" y2="46.9"/>
<line class="st1" x1="65.7" y1="50.8" x2="65.7" y2="50.8"/>
<line class="st1" x1="64.7" y1="48.1" x2="64.7" y2="48.1"/>
<line class="st1" x1="68.8" y1="46.8" x2="68.8" y2="46.8"/>
<line class="st1" x1="73.8" y1="46.6" x2="73.8" y2="46.6"/>
<line class="st1" x1="71.6" y1="43.8" x2="71.6" y2="43.8"/>
<line class="st1" x1="66.4" y1="41.4" x2="66.4" y2="41.4"/>
<line class="st1" x1="59.9" y1="47.6" x2="59.9" y2="47.6"/>
<line class="st1" x1="64.3" y1="44.9" x2="64.3" y2="44.9"/>
<line class="st1" x1="67.3" y1="63.9" x2="67.3" y2="63.9"/>
<line class="st1" x1="62.4" y1="54.2" x2="62.4" y2="54.2"/>
<line class="st1" x1="56.5" y1="56.5" x2="56.5" y2="56.5"/>
<line class="st1" x1="58.2" y1="54.2" x2="58.2" y2="54.2"/>
<line class="st1" x1="58.5" y1="59.2" x2="58.5" y2="59.2"/>
<line class="st1" x1="58.9" y1="63.6" x2="58.9" y2="63.6"/>
<line class="st1" x1="66.8" y1="54.1" x2="66.8" y2="54.1"/>
<line class="st1" x1="73.6" y1="55.9" x2="73.6" y2="55.9"/>
<line class="st1" x1="69.5" y1="56.5" x2="69.5" y2="56.5"/>
<line class="st1" x1="72.2" y1="60.5" x2="72.2" y2="60.5"/>
<line class="st1" x1="68.2" y1="60.2" x2="68.2" y2="60.2"/>
<line class="st1" x1="62.3" y1="60.3" x2="62.3" y2="60.3"/>
<line class="st1" x1="76.1" y1="59.6" x2="76.1" y2="59.6"/>
<line class="st1" x1="77.6" y1="55.4" x2="77.6" y2="55.4"/>
<line class="st1" x1="64.8" y1="57.9" x2="64.8" y2="57.9"/>
<line class="st1" x1="9.6" y1="49.4" x2="9.6" y2="49.4"/>
</svg>
