<!-- Generator: Adobe Illustrator 22.1.0, SVG Export Plug-In  -->
<svg version="1.1"
     xmlns="http://www.w3.org/2000/svg" xmlns:xlink="http://www.w3.org/1999/xlink" xmlns:a="http://ns.adobe.com/AdobeSVGViewerExtensions/3.0/"
     x="0px" y="0px" width="85.5px" height="84.2px" viewBox="0 0 85.5 84.2" style="enable-background:new 0 0 85.5 84.2;"
     xml:space="preserve">
<style type="text/css">
    .st0{fill:none;stroke:#000000;stroke-width:0.3;}
</style>
<defs>
</defs>
<line class="st0" x1="11.8" y1="6.3" x2="15.7" y2="2"/>
<line class="st0" x1="13.1" y1="3.4" x2="14.6" y2="4.6"/>
<line class="st0" x1="4.8" y1="4.4" x2="0.8" y2="0.2"/>
<line class="st0" x1="2" y1="2.9" x2="3.3" y2="1.5"/>
<line class="st0" x1="0.1" y1="11.9" x2="5.5" y2="9.7"/>
<line class="st0" x1="2.6" y1="9.8" x2="3.3" y2="11.6"/>
<line class="st0" x1="19.1" y1="31.7" x2="24.5" y2="29.5"/>
<line class="st0" x1="21.6" y1="29.6" x2="22.4" y2="31.4"/>
<line class="st0" x1="8.6" y1="12.8" x2="14.3" y2="11.6"/>
<line class="st0" x1="11.5" y1="11.2" x2="11.9" y2="13.1"/>
<line class="st0" x1="17.3" y1="15.5" x2="21" y2="11"/>
<line class="st0" x1="18.5" y1="12.5" x2="20" y2="13.7"/>
<line class="st0" x1="9.5" y1="32.7" x2="13.2" y2="28.2"/>
<line class="st0" x1="10.7" y1="29.7" x2="12.2" y2="30.9"/>
<line class="st0" x1="30.9" y1="13.3" x2="27" y2="8.9"/>
<line class="st0" x1="28.1" y1="11.6" x2="29.5" y2="10.3"/>
<line class="st0" x1="6" y1="36.5" x2="0.9" y2="39.3"/>
<line class="st0" x1="3.8" y1="38.9" x2="2.8" y2="37.2"/>
<line class="st0" x1="30.3" y1="24.9" x2="32.4" y2="19.4"/>
<line class="st0" x1="30.5" y1="21.7" x2="32.3" y2="22.3"/>
<line class="st0" x1="19.5" y1="40.6" x2="21.6" y2="35.1"/>
<line class="st0" x1="19.7" y1="37.4" x2="21.5" y2="38"/>
<line class="st0" x1="41.3" y1="20.5" x2="35.5" y2="21"/>
<line class="st0" x1="38.3" y1="21.7" x2="38.1" y2="19.8"/>
<line class="st0" x1="14.7" y1="38.4" x2="8.9" y2="38.9"/>
<line class="st0" x1="11.7" y1="39.6" x2="11.5" y2="37.8"/>
<line class="st0" x1="5.9" y1="19" x2="1.6" y2="22.9"/>
<line class="st0" x1="4.3" y1="21.8" x2="3" y2="20.4"/>
<line class="st0" x1="13.2" y1="24.6" x2="10.7" y2="19.3"/>
<line class="st0" x1="11" y1="22.2" x2="12.7" y2="21.4"/>
<line class="st0" x1="39.6" y1="32.3" x2="37.1" y2="27"/>
<line class="st0" x1="37.4" y1="29.9" x2="39.1" y2="29"/>
<line class="st0" x1="31.4" y1="5.6" x2="29.7" y2="0"/>
<line class="st0" x1="29.5" y1="2.9" x2="31.4" y2="2.3"/>
<line class="st0" x1="36.8" y1="3.4" x2="42.2" y2="1"/>
<line class="st0" x1="39.3" y1="1.3" x2="40.1" y2="3"/>
<line class="st0" x1="37.1" y1="15.7" x2="39.6" y2="10.4"/>
<line class="st0" x1="37.5" y1="12.5" x2="39.3" y2="13.2"/>
<line class="st0" x1="22.8" y1="7.2" x2="19.8" y2="2.2"/>
<line class="st0" x1="20.4" y1="5.1" x2="22" y2="4.1"/>
<line class="st0" x1="33.5" y1="32.1" x2="28.7" y2="28.8"/>
<line class="st0" x1="30.4" y1="31.2" x2="31.4" y2="29.6"/>
<line class="st0" x1="39" y1="40" x2="34.2" y2="36.7"/>
<line class="st0" x1="35.9" y1="39.1" x2="37" y2="37.5"/>
<line class="st0" x1="23" y1="24.2" x2="17.2" y2="24.2"/>
<line class="st0" x1="19.9" y1="25.2" x2="19.9" y2="23.3"/>
<line class="st0" x1="30.8" y1="39" x2="24.9" y2="39.1"/>
<line class="st0" x1="27.7" y1="40" x2="27.6" y2="38.1"/>
<line class="st0" x1="6.2" y1="30.6" x2="0.3" y2="30.7"/>
<line class="st0" x1="3.1" y1="31.6" x2="3" y2="29.7"/>
<line class="st0" x1="54.4" y1="7.5" x2="58.4" y2="3.2"/>
<line class="st0" x1="55.8" y1="4.6" x2="57.2" y2="5.8"/>
<line class="st0" x1="48" y1="4.4" x2="44" y2="0.2"/>
<line class="st0" x1="45.2" y1="2.9" x2="46.6" y2="1.5"/>
<line class="st0" x1="43.2" y1="10.8" x2="48.7" y2="8.6"/>
<line class="st0" x1="45.7" y1="8.8" x2="46.5" y2="10.5"/>
<line class="st0" x1="61.8" y1="28.4" x2="67.2" y2="26.3"/>
<line class="st0" x1="64.3" y1="26.4" x2="65.1" y2="28.1"/>
<line class="st0" x1="54.5" y1="15" x2="58" y2="10.3"/>
<line class="st0" x1="55.6" y1="11.9" x2="57.1" y2="13"/>
<line class="st0" x1="62.7" y1="14.9" x2="66.5" y2="10.3"/>
<line class="st0" x1="64" y1="11.9" x2="65.5" y2="13"/>
<line class="st0" x1="52.1" y1="32.7" x2="55.9" y2="28.2"/>
<line class="st0" x1="53.4" y1="29.7" x2="54.9" y2="30.9"/>
<line class="st0" x1="74.1" y1="13.3" x2="70.3" y2="8.9"/>
<line class="st0" x1="71.4" y1="11.6" x2="72.8" y2="10.3"/>
<line class="st0" x1="46.8" y1="41.9" x2="46.4" y2="36"/>
<line class="st0" x1="45.6" y1="38.9" x2="47.5" y2="38.7"/>
<line class="st0" x1="26.7" y1="20.9" x2="22.9" y2="16.5"/>
<line class="st0" x1="24" y1="19.2" x2="25.4" y2="17.9"/>
<line class="st0" x1="72.7" y1="24.9" x2="74.8" y2="19.4"/>
<line class="st0" x1="72.9" y1="21.7" x2="74.7" y2="22.3"/>
<line class="st0" x1="65.4" y1="41.9" x2="67.4" y2="36.4"/>
<line class="st0" x1="65.5" y1="38.7" x2="67.3" y2="39.3"/>
<line class="st0" x1="84.6" y1="20.5" x2="78.8" y2="21"/>
<line class="st0" x1="81.6" y1="21.7" x2="81.4" y2="19.8"/>
<line class="st0" x1="55.6" y1="36.4" x2="54.7" y2="42.2"/>
<line class="st0" x1="56.1" y1="39.6" x2="54.2" y2="39.4"/>
<line class="st0" x1="49.2" y1="19" x2="44.9" y2="22.9"/>
<line class="st0" x1="47.5" y1="21.8" x2="46.2" y2="20.4"/>
<line class="st0" x1="56.4" y1="24.6" x2="53.9" y2="19.3"/>
<line class="st0" x1="54.2" y1="22.2" x2="55.9" y2="21.4"/>
<line class="st0" x1="82.9" y1="32.3" x2="80.4" y2="27"/>
<line class="st0" x1="80.7" y1="29.9" x2="82.4" y2="29"/>
<line class="st0" x1="74.6" y1="5.6" x2="72.9" y2="0"/>
<line class="st0" x1="72.8" y1="2.9" x2="74.6" y2="2.3"/>
<line class="st0" x1="80.1" y1="3.4" x2="85.4" y2="1"/>
<line class="st0" x1="82.5" y1="1.3" x2="83.3" y2="3"/>
<line class="st0" x1="80.3" y1="15.7" x2="82.8" y2="10.4"/>
<line class="st0" x1="80.8" y1="12.5" x2="82.5" y2="13.2"/>
<line class="st0" x1="66" y1="7.2" x2="63" y2="2.2"/>
<line class="st0" x1="63.6" y1="5.1" x2="65.2" y2="4.1"/>
<line class="st0" x1="74.4" y1="33.3" x2="69.6" y2="30"/>
<line class="st0" x1="71.3" y1="32.3" x2="72.3" y2="30.8"/>
<line class="st0" x1="84.7" y1="40.7" x2="79.9" y2="37.4"/>
<line class="st0" x1="81.6" y1="39.7" x2="82.6" y2="38.1"/>
<line class="st0" x1="67" y1="20.5" x2="61.2" y2="20.6"/>
<line class="st0" x1="63.9" y1="21.5" x2="63.9" y2="19.6"/>
<line class="st0" x1="76.5" y1="37" x2="70.7" y2="37.1"/>
<line class="st0" x1="73.4" y1="38" x2="73.4" y2="36.1"/>
<line class="st0" x1="49.4" y1="30.6" x2="43.6" y2="30.7"/>
<line class="st0" x1="46.3" y1="31.6" x2="46.3" y2="29.7"/>
<line class="st0" x1="11.7" y1="47.9" x2="15.7" y2="43.6"/>
<line class="st0" x1="13.1" y1="44.9" x2="14.6" y2="46.2"/>
<line class="st0" x1="4.8" y1="47.7" x2="0.8" y2="43.4"/>
<line class="st0" x1="2" y1="46.1" x2="3.3" y2="44.8"/>
<line class="st0" x1="0.1" y1="55.1" x2="5.5" y2="52.9"/>
<line class="st0" x1="2.6" y1="53.1" x2="3.3" y2="54.8"/>
<line class="st0" x1="19.1" y1="73.8" x2="24.5" y2="71.6"/>
<line class="st0" x1="21.6" y1="71.8" x2="22.4" y2="73.5"/>
<line class="st0" x1="7.3" y1="56.2" x2="13" y2="55"/>
<line class="st0" x1="10.1" y1="54.6" x2="10.5" y2="56.5"/>
<line class="st0" x1="16" y1="59.5" x2="19.8" y2="55"/>
<line class="st0" x1="17.3" y1="56.5" x2="18.8" y2="57.7"/>
<line class="st0" x1="9.5" y1="76" x2="13.2" y2="71.5"/>
<line class="st0" x1="10.7" y1="73" x2="12.2" y2="74.2"/>
<line class="st0" x1="29" y1="58.3" x2="25.2" y2="53.9"/>
<line class="st0" x1="26.2" y1="56.6" x2="27.6" y2="55.3"/>
<line class="st0" x1="5.1" y1="83.8" x2="1.3" y2="79.4"/>
<line class="st0" x1="2.4" y1="82.1" x2="3.8" y2="80.8"/>
<line class="st0" x1="28.5" y1="67.8" x2="30.6" y2="62.3"/>
<line class="st0" x1="28.7" y1="64.6" x2="30.5" y2="65.2"/>
<line class="st0" x1="19.5" y1="83.8" x2="21.6" y2="78.4"/>
<line class="st0" x1="19.7" y1="80.6" x2="21.5" y2="81.2"/>
<line class="st0" x1="38.3" y1="67.3" x2="35.7" y2="62.1"/>
<line class="st0" x1="36" y1="65" x2="37.7" y2="64.1"/>
<line class="st0" x1="14.7" y1="81.7" x2="8.9" y2="82.2"/>
<line class="st0" x1="11.7" y1="82.9" x2="11.5" y2="81"/>
<line class="st0" x1="5.9" y1="62.2" x2="1.6" y2="66.1"/>
<line class="st0" x1="4.3" y1="65" x2="3" y2="63.6"/>
<line class="st0" x1="13.2" y1="67.9" x2="10.7" y2="62.6"/>
<line class="st0" x1="11" y1="65.5" x2="12.7" y2="64.6"/>
<line class="st0" x1="37.5" y1="76.4" x2="39.1" y2="70.7"/>
<line class="st0" x1="37.4" y1="73.1" x2="39.2" y2="73.6"/>
<line class="st0" x1="38.5" y1="48.8" x2="36.8" y2="43.2"/>
<line class="st0" x1="36.7" y1="46.1" x2="38.5" y2="45.5"/>
<line class="st0" x1="27.4" y1="49.4" x2="32.8" y2="47"/>
<line class="st0" x1="29.9" y1="47.3" x2="30.7" y2="49"/>
<line class="st0" x1="33" y1="55.9" x2="38.7" y2="54.6"/>
<line class="st0" x1="35.8" y1="54.3" x2="36.3" y2="56.1"/>
<line class="st0" x1="32.3" y1="77" x2="27.5" y2="73.7"/>
<line class="st0" x1="29.2" y1="76.1" x2="30.2" y2="74.5"/>
<line class="st0" x1="63.3" y1="35" x2="58.5" y2="31.7"/>
<line class="st0" x1="60.2" y1="34.1" x2="61.2" y2="32.5"/>
<line class="st0" x1="41.4" y1="83.9" x2="36.6" y2="80.6"/>
<line class="st0" x1="38.3" y1="83" x2="39.4" y2="81.4"/>
<line class="st0" x1="23.8" y1="63.7" x2="17.9" y2="63.8"/>
<line class="st0" x1="20.7" y1="64.7" x2="20.6" y2="62.8"/>
<line class="st0" x1="32.7" y1="83.2" x2="26.9" y2="83.3"/>
<line class="st0" x1="29.6" y1="84.2" x2="29.6" y2="82.3"/>
<line class="st0" x1="6.2" y1="73.9" x2="0.3" y2="73.9"/>
<line class="st0" x1="3.1" y1="74.9" x2="3" y2="73"/>
<line class="st0" x1="52.4" y1="50" x2="56.3" y2="45.7"/>
<line class="st0" x1="53.8" y1="47.1" x2="55.2" y2="48.3"/>
<line class="st0" x1="48" y1="49.4" x2="44" y2="45.1"/>
<line class="st0" x1="45.2" y1="47.8" x2="46.5" y2="46.5"/>
<line class="st0" x1="43.1" y1="57.9" x2="45.8" y2="52.7"/>
<line class="st0" x1="43.6" y1="54.7" x2="45.4" y2="55.6"/>
<line class="st0" x1="62.3" y1="73.8" x2="67.8" y2="71.6"/>
<line class="st0" x1="64.9" y1="71.8" x2="65.6" y2="73.5"/>
<line class="st0" x1="54" y1="54.7" x2="59.7" y2="53.6"/>
<line class="st0" x1="56.8" y1="53.2" x2="57.2" y2="55"/>
<line class="st0" x1="62.7" y1="58.1" x2="66.4" y2="53.6"/>
<line class="st0" x1="63.9" y1="55.1" x2="65.4" y2="56.3"/>
<line class="st0" x1="52.7" y1="76" x2="56.4" y2="71.5"/>
<line class="st0" x1="53.9" y1="73" x2="55.4" y2="74.2"/>
<line class="st0" x1="74.1" y1="56.6" x2="70.2" y2="52.2"/>
<line class="st0" x1="71.3" y1="54.9" x2="72.7" y2="53.6"/>
<line class="st0" x1="48.3" y1="83.8" x2="44.5" y2="79.4"/>
<line class="st0" x1="45.6" y1="82.1" x2="47" y2="80.8"/>
<line class="st0" x1="72.7" y1="68.2" x2="74.7" y2="62.7"/>
<line class="st0" x1="72.9" y1="64.9" x2="74.7" y2="65.5"/>
<line class="st0" x1="62.8" y1="83.8" x2="64.8" y2="78.4"/>
<line class="st0" x1="62.9" y1="80.6" x2="64.7" y2="81.2"/>
<line class="st0" x1="84.5" y1="63.8" x2="78.7" y2="64.2"/>
<line class="st0" x1="81.5" y1="65" x2="81.3" y2="63.1"/>
<line class="st0" x1="57.9" y1="81.7" x2="52.1" y2="82.2"/>
<line class="st0" x1="54.9" y1="82.9" x2="54.7" y2="81"/>
<line class="st0" x1="48.3" y1="64.8" x2="43.9" y2="68.7"/>
<line class="st0" x1="46.6" y1="67.6" x2="45.3" y2="66.2"/>
<line class="st0" x1="57.6" y1="67.6" x2="55.1" y2="62.3"/>
<line class="st0" x1="55.4" y1="65.2" x2="57.1" y2="64.3"/>
<line class="st0" x1="82.8" y1="75.5" x2="80.3" y2="70.2"/>
<line class="st0" x1="80.6" y1="73.1" x2="82.3" y2="72.3"/>
<line class="st0" x1="74.6" y1="48.9" x2="72.9" y2="43.3"/>
<line class="st0" x1="72.8" y1="46.2" x2="74.6" y2="45.6"/>
<line class="st0" x1="80" y1="46.7" x2="85.4" y2="44.3"/>
<line class="st0" x1="82.5" y1="44.5" x2="83.3" y2="46.2"/>
<line class="st0" x1="80.3" y1="58.9" x2="82.8" y2="53.6"/>
<line class="st0" x1="80.7" y1="55.7" x2="82.5" y2="56.5"/>
<line class="st0" x1="66" y1="50.5" x2="63" y2="45.5"/>
<line class="st0" x1="63.6" y1="48.3" x2="65.2" y2="47.3"/>
<line class="st0" x1="21.1" y1="51.7" x2="19.7" y2="46"/>
<line class="st0" x1="19.4" y1="48.9" x2="21.3" y2="48.4"/>
<line class="st0" x1="76.7" y1="75.4" x2="71.9" y2="72.1"/>
<line class="st0" x1="73.6" y1="74.4" x2="74.6" y2="72.8"/>
<line class="st0" x1="84.6" y1="83.9" x2="79.8" y2="80.6"/>
<line class="st0" x1="81.5" y1="83" x2="82.6" y2="81.4"/>
<line class="st0" x1="67" y1="63.7" x2="61.1" y2="63.8"/>
<line class="st0" x1="63.9" y1="64.7" x2="63.8" y2="62.8"/>
<line class="st0" x1="53.5" y1="59.8" x2="47.6" y2="59.9"/>
<line class="st0" x1="50.4" y1="60.8" x2="50.3" y2="58.9"/>
<line class="st0" x1="75.9" y1="83.2" x2="70.1" y2="83.3"/>
<line class="st0" x1="72.8" y1="84.2" x2="72.8" y2="82.3"/>
<line class="st0" x1="49.4" y1="73.9" x2="43.5" y2="73.9"/>
<line class="st0" x1="46.3" y1="74.9" x2="46.2" y2="73"/>
</svg>
