<svg id="Layer_1" data-name="Layer 1" xmlns="http://www.w3.org/2000/svg" width="86.25" height="86.25" viewBox="0 0 86.25 86.25"><defs><style>.cls-1,.cls-2{fill:none;}.cls-2{stroke:#000;stroke-width:0.3px;}</style></defs><title>Artboard 37</title><rect class="cls-1" x="53.45" y="-53.67" width="86.25" height="86.25"/><line class="cls-2" x1="53.99" y1="2.17" x2="59.4" y2="-0.02"/><line class="cls-2" x1="56.5" y1="0.11" x2="57.26" y2="1.86"/><line class="cls-2" x1="73.07" y1="20.86" x2="78.48" y2="18.66"/><line class="cls-2" x1="75.58" y1="18.8" x2="76.34" y2="20.55"/><line class="cls-2" x1="61.22" y1="3.22" x2="66.95" y2="2.08"/><line class="cls-2" x1="64.07" y1="1.66" x2="64.48" y2="3.52"/><line class="cls-2" x1="69.98" y1="6.58" x2="73.7" y2="2.08"/><line class="cls-2" x1="71.2" y1="3.58" x2="72.7" y2="4.75"/><line class="cls-2" x1="63.39" y1="23.02" x2="67.1" y2="18.51"/><line class="cls-2" x1="64.61" y1="20.01" x2="66.11" y2="21.19"/><line class="cls-2" x1="82.95" y1="5.33" x2="79.09" y2="0.94"/><line class="cls-2" x1="80.18" y1="3.64" x2="81.57" y2="2.35"/><line class="cls-2" x1="59.07" y1="30.83" x2="55.21" y2="26.44"/><line class="cls-2" x1="56.3" y1="29.14" x2="57.7" y2="27.85"/><line class="cls-2" x1="82.45" y1="14.83" x2="84.49" y2="9.36"/><line class="cls-2" x1="82.63" y1="11.59" x2="84.43" y2="12.21"/><line class="cls-2" x1="73.48" y1="30.89" x2="75.53" y2="25.42"/><line class="cls-2" x1="73.66" y1="27.65" x2="75.46" y2="28.27"/><line class="cls-2" x1="68.63" y1="28.73" x2="62.81" y2="29.19"/><line class="cls-2" x1="65.62" y1="29.94" x2="65.43" y2="28.04"/><line class="cls-2" x1="59.86" y1="9.25" x2="55.54" y2="13.18"/><line class="cls-2" x1="58.22" y1="12.05" x2="56.9" y2="10.67"/><line class="cls-2" x1="67.12" y1="14.92" x2="64.62" y2="9.64"/><line class="cls-2" x1="64.92" y1="12.53" x2="66.63" y2="11.67"/><line class="cls-2" x1="86.2" y1="24.08" x2="81.4" y2="20.75"/><line class="cls-2" x1="83.1" y1="23.11" x2="84.15" y2="21.51"/><line class="cls-2" x1="77.71" y1="10.79" x2="71.87" y2="10.85"/><line class="cls-2" x1="74.63" y1="11.79" x2="74.56" y2="9.88"/><line class="cls-2" x1="86.65" y1="30.27" x2="80.81" y2="30.33"/><line class="cls-2" x1="83.56" y1="31.27" x2="83.5" y2="29.36"/><line class="cls-2" x1="60.11" y1="20.91" x2="54.27" y2="20.97"/><line class="cls-2" x1="57.03" y1="21.91" x2="56.96" y2="20"/><rect class="cls-1" x="53.45" y="32.58" width="86.25" height="86.25"/><line class="cls-2" x1="65.7" y1="39.58" x2="69.63" y2="35.26"/><line class="cls-2" x1="67.07" y1="36.64" x2="68.51" y2="37.89"/><line class="cls-2" x1="58.71" y1="37.73" x2="54.71" y2="33.48"/><line class="cls-2" x1="55.89" y1="36.14" x2="57.24" y2="34.8"/><line class="cls-2" x1="53.99" y1="45.17" x2="59.4" y2="42.98"/><line class="cls-2" x1="56.5" y1="43.11" x2="57.26" y2="44.86"/><line class="cls-2" x1="73.07" y1="65" x2="78.48" y2="62.8"/><line class="cls-2" x1="75.58" y1="62.94" x2="76.34" y2="64.68"/><line class="cls-2" x1="62.55" y1="46.07" x2="68.28" y2="44.93"/><line class="cls-2" x1="65.4" y1="44.52" x2="65.82" y2="46.38"/><line class="cls-2" x1="71.23" y1="48.83" x2="74.95" y2="44.33"/><line class="cls-2" x1="72.45" y1="45.83" x2="73.95" y2="47"/><line class="cls-2" x1="63.39" y1="66.02" x2="67.1" y2="61.51"/><line class="cls-2" x1="64.61" y1="63.01" x2="66.11" y2="64.19"/><line class="cls-2" x1="84.81" y1="46.61" x2="80.95" y2="42.23"/><line class="cls-2" x1="82.04" y1="44.92" x2="83.44" y2="43.63"/><line class="cls-2" x1="59.96" y1="69.79" x2="54.85" y2="72.62"/><line class="cls-2" x1="57.72" y1="72.14" x2="56.75" y2="70.5"/><line class="cls-2" x1="84.27" y1="58.2" x2="86.32" y2="52.73"/><line class="cls-2" x1="84.45" y1="54.96" x2="86.25" y2="55.59"/><line class="cls-2" x1="73.48" y1="73.89" x2="75.53" y2="68.42"/><line class="cls-2" x1="73.66" y1="70.65" x2="75.46" y2="71.27"/><line class="cls-2" x1="68.63" y1="71.73" x2="62.81" y2="72.19"/><line class="cls-2" x1="65.62" y1="72.94" x2="65.43" y2="71.04"/><line class="cls-2" x1="59.86" y1="52.25" x2="55.54" y2="56.18"/><line class="cls-2" x1="58.22" y1="55.05" x2="56.9" y2="53.67"/><line class="cls-2" x1="67.12" y1="57.92" x2="64.62" y2="52.64"/><line class="cls-2" x1="64.92" y1="55.53" x2="66.63" y2="54.67"/><line class="cls-2" x1="85.31" y1="38.92" x2="83.6" y2="33.33"/><line class="cls-2" x1="83.48" y1="36.24" x2="85.29" y2="35.64"/><line class="cls-2" x1="76.69" y1="40.53" x2="73.72" y2="35.5"/><line class="cls-2" x1="74.28" y1="38.35" x2="75.9" y2="37.34"/><line class="cls-2" x1="87.42" y1="65.42" x2="82.62" y2="62.09"/><line class="cls-2" x1="84.33" y1="64.45" x2="85.38" y2="62.85"/><line class="cls-2" x1="76.95" y1="57.46" x2="71.11" y2="57.52"/><line class="cls-2" x1="73.86" y1="58.46" x2="73.79" y2="56.56"/><line class="cls-2" x1="84.7" y1="72.33" x2="78.86" y2="72.39"/><line class="cls-2" x1="81.61" y1="73.33" x2="81.54" y2="71.42"/><line class="cls-2" x1="60.11" y1="63.91" x2="54.27" y2="63.97"/><line class="cls-2" x1="57.03" y1="64.91" x2="56.96" y2="63"/><line class="cls-2" x1="80.66" y1="54.14" x2="76.8" y2="49.76"/><line class="cls-2" x1="77.89" y1="52.46" x2="79.29" y2="51.16"/><line class="cls-2" x1="65.67" y1="81.16" x2="69.61" y2="76.85"/><line class="cls-2" x1="67.05" y1="78.22" x2="68.49" y2="79.47"/><line class="cls-2" x1="58.71" y1="80.98" x2="54.71" y2="76.73"/><line class="cls-2" x1="55.89" y1="79.39" x2="57.24" y2="78.05"/><line class="cls-2" x1="53.99" y1="88.42" x2="59.4" y2="86.23"/><line class="cls-2" x1="81.37" y1="82.72" x2="86.7" y2="80.33"/><line class="cls-2" x1="83.8" y1="80.57" x2="84.62" y2="82.29"/><line class="cls-2" x1="75" y1="84.94" x2="73.66" y2="79.26"/><line class="cls-2" x1="73.35" y1="82.15" x2="75.19" y2="81.67"/><rect class="cls-1" x="-32.8" y="-53.67" width="86.25" height="86.25"/><line class="cls-2" x1="5.95" y1="14.37" x2="3.4" y2="9.11"/><line class="cls-2" x1="3.73" y1="12" x2="5.42" y2="11.13"/><line class="cls-2" x1="5.17" y1="23.4" x2="6.77" y2="17.78"/><line class="cls-2" x1="5.09" y1="20.15" x2="6.93" y2="20.63"/><line class="cls-2" x1="0.7" y1="2.94" x2="6.4" y2="1.67"/><line class="cls-2" x1="3.51" y1="1.32" x2="3.97" y2="3.17"/><line class="cls-2" x1="-0.05" y1="24.08" x2="-4.85" y2="20.75"/><line class="cls-2" x1="9.11" y1="30.98" x2="4.31" y2="27.65"/><line class="cls-2" x1="6.02" y1="30.01" x2="7.06" y2="28.42"/><line class="cls-2" x1="0.4" y1="30.27" x2="-5.44" y2="30.33"/><line class="cls-2" x1="10.79" y1="4.98" x2="13.43" y2="-0.23"/><line class="cls-2" x1="11.33" y1="1.78" x2="13.05" y2="2.6"/><line class="cls-2" x1="30.03" y1="20.86" x2="35.44" y2="18.66"/><line class="cls-2" x1="32.54" y1="18.8" x2="33.3" y2="20.55"/><line class="cls-2" x1="21.63" y1="1.76" x2="27.36" y2="0.62"/><line class="cls-2" x1="24.48" y1="0.21" x2="24.9" y2="2.07"/><line class="cls-2" x1="30.39" y1="5.14" x2="34.1" y2="0.64"/><line class="cls-2" x1="31.61" y1="2.14" x2="33.11" y2="3.32"/><line class="cls-2" x1="20.35" y1="23.02" x2="24.06" y2="18.51"/><line class="cls-2" x1="21.57" y1="20.01" x2="23.07" y2="21.19"/><line class="cls-2" x1="41.77" y1="3.61" x2="37.91" y2="-0.77"/><line class="cls-2" x1="39" y1="1.92" x2="40.4" y2="0.63"/><line class="cls-2" x1="16.03" y1="30.83" x2="12.17" y2="26.44"/><line class="cls-2" x1="13.26" y1="29.14" x2="14.66" y2="27.85"/><line class="cls-2" x1="40.38" y1="15.2" x2="42.43" y2="9.73"/><line class="cls-2" x1="40.56" y1="11.96" x2="42.36" y2="12.59"/><line class="cls-2" x1="30.44" y1="30.89" x2="32.49" y2="25.42"/><line class="cls-2" x1="30.62" y1="27.65" x2="32.42" y2="28.27"/><line class="cls-2" x1="52.22" y1="10.8" x2="46.4" y2="11.25"/><line class="cls-2" x1="49.21" y1="12" x2="49.01" y2="10.11"/><line class="cls-2" x1="25.59" y1="28.73" x2="19.77" y2="29.19"/><line class="cls-2" x1="22.58" y1="29.94" x2="22.39" y2="28.04"/><line class="cls-2" x1="15.94" y1="11.81" x2="11.62" y2="15.74"/><line class="cls-2" x1="14.3" y1="14.61" x2="12.99" y2="13.23"/><line class="cls-2" x1="25.26" y1="14.6" x2="22.77" y2="9.32"/><line class="cls-2" x1="23.07" y1="12.22" x2="24.77" y2="11.36"/><line class="cls-2" x1="50.49" y1="22.54" x2="48" y2="17.26"/><line class="cls-2" x1="48.3" y1="20.15" x2="50" y2="19.3"/><line class="cls-2" x1="47.95" y1="5.95" x2="50.48" y2="0.68"/><line class="cls-2" x1="48.42" y1="2.74" x2="50.16" y2="3.52"/><line class="cls-2" x1="44.38" y1="22.42" x2="39.58" y2="19.09"/><line class="cls-2" x1="41.29" y1="21.45" x2="42.33" y2="19.85"/><line class="cls-2" x1="52.32" y1="30.98" x2="47.52" y2="27.65"/><line class="cls-2" x1="49.22" y1="30.01" x2="50.27" y2="28.42"/><line class="cls-2" x1="34.67" y1="10.79" x2="28.83" y2="10.85"/><line class="cls-2" x1="31.58" y1="11.79" x2="31.52" y2="9.88"/><line class="cls-2" x1="21.17" y1="6.85" x2="15.33" y2="6.91"/><line class="cls-2" x1="18.08" y1="7.85" x2="18.02" y2="5.95"/><line class="cls-2" x1="43.61" y1="30.27" x2="37.77" y2="30.33"/><line class="cls-2" x1="40.52" y1="31.27" x2="40.45" y2="29.36"/><line class="cls-2" x1="17.07" y1="20.91" x2="11.23" y2="20.97"/><line class="cls-2" x1="13.98" y1="21.91" x2="13.92" y2="20"/><rect class="cls-1" x="-32.8" y="32.58" width="86.25" height="86.25"/><line class="cls-2" x1="-1.98" y1="58.2" x2="0.07" y2="52.73"/><line class="cls-2" x1="-1.8" y1="54.96" y2="55.59"/><line class="cls-2" x1="9.01" y1="53.8" x2="3.19" y2="54.25"/><line class="cls-2" x1="6" y1="55" x2="5.8" y2="53.11"/><line class="cls-2" x1="7.29" y1="65.54" x2="4.79" y2="60.26"/><line class="cls-2" x1="5.09" y1="63.15" x2="6.79" y2="62.3"/><line class="cls-2" x1="4.52" y1="36.72" x2="9.85" y2="34.33"/><line class="cls-2" x1="6.95" y1="34.57" x2="7.77" y2="36.29"/><line class="cls-2" x1="4.74" y1="48.95" x2="7.27" y2="43.68"/><line class="cls-2" x1="5.21" y1="45.74" x2="6.95" y2="46.52"/><line class="cls-2" x1="1.17" y1="65.42" x2="-3.63" y2="62.09"/><line class="cls-2" x1="6.7" y1="73.33" x2="1.9" y2="70"/><line class="cls-2" x1="3.6" y1="72.36" x2="4.65" y2="70.76"/><line class="cls-2" x1="22.11" y1="40.78" x2="26.05" y2="36.47"/><line class="cls-2" x1="23.49" y1="37.85" x2="24.92" y2="39.1"/><line class="cls-2" x1="15.71" y1="37.73" x2="11.71" y2="33.48"/><line class="cls-2" x1="12.89" y1="36.14" x2="14.24" y2="34.8"/><line class="cls-2" x1="10.93" y1="44.11" x2="16.34" y2="41.91"/><line class="cls-2" x1="13.43" y1="42.05" x2="14.19" y2="43.8"/><line class="cls-2" x1="29.51" y1="61.74" x2="34.92" y2="59.54"/><line class="cls-2" x1="32.02" y1="59.68" x2="32.78" y2="61.42"/><line class="cls-2" x1="22.19" y1="48.26" x2="25.69" y2="43.59"/><line class="cls-2" x1="23.27" y1="45.21" x2="24.82" y2="46.31"/><line class="cls-2" x1="30.43" y1="48.14" x2="34.15" y2="43.64"/><line class="cls-2" x1="31.66" y1="45.14" x2="33.15" y2="46.32"/><line class="cls-2" x1="19.82" y1="66.02" x2="23.54" y2="61.51"/><line class="cls-2" x1="21.05" y1="63.01" x2="22.55" y2="64.19"/><line class="cls-2" x1="41.81" y1="46.61" x2="37.95" y2="42.23"/><line class="cls-2" x1="39.04" y1="44.92" x2="40.44" y2="43.63"/><line class="cls-2" x1="14.49" y1="75.15" x2="14.06" y2="69.33"/><line class="cls-2" x1="13.3" y1="72.14" x2="15.2" y2="71.95"/><line class="cls-2" x1="40.42" y1="58.2" x2="42.47" y2="52.73"/><line class="cls-2" x1="40.6" y1="54.96" x2="42.4" y2="55.59"/><line class="cls-2" x1="33.04" y1="75.2" x2="35.09" y2="69.73"/><line class="cls-2" x1="33.23" y1="71.96" x2="35.03" y2="72.59"/><line class="cls-2" x1="52.26" y1="53.8" x2="46.44" y2="54.25"/><line class="cls-2" x1="49.25" y1="55" x2="49.05" y2="53.11"/><line class="cls-2" x1="23.31" y1="69.73" x2="22.36" y2="75.49"/><line class="cls-2" x1="23.76" y1="72.94" x2="21.87" y2="72.67"/><line class="cls-2" x1="16.86" y1="52.25" x2="12.54" y2="56.18"/><line class="cls-2" x1="15.22" y1="55.05" x2="13.9" y2="53.67"/><line class="cls-2" x1="24.12" y1="57.92" x2="21.62" y2="52.64"/><line class="cls-2" x1="21.92" y1="55.53" x2="23.63" y2="54.67"/><line class="cls-2" x1="50.54" y1="65.54" x2="48.04" y2="60.26"/><line class="cls-2" x1="48.34" y1="63.15" x2="50.04" y2="62.3"/><line class="cls-2" x1="42.31" y1="38.92" x2="40.6" y2="33.33"/><line class="cls-2" x1="40.48" y1="36.24" x2="42.29" y2="35.64"/><line class="cls-2" x1="47.77" y1="36.72" x2="53.1" y2="34.33"/><line class="cls-2" x1="50.2" y1="34.57" x2="51.02" y2="36.29"/><line class="cls-2" x1="47.99" y1="48.95" x2="50.52" y2="43.68"/><line class="cls-2" x1="48.46" y1="45.74" x2="50.2" y2="46.52"/><line class="cls-2" x1="33.69" y1="40.53" x2="30.72" y2="35.5"/><line class="cls-2" x1="31.28" y1="38.35" x2="32.9" y2="37.34"/><line class="cls-2" x1="42.05" y1="66.6" x2="37.25" y2="63.28"/><line class="cls-2" x1="38.95" y1="65.63" x2="40" y2="64.04"/><line class="cls-2" x1="52.36" y1="73.98" x2="47.56" y2="70.65"/><line class="cls-2" x1="49.27" y1="73.01" x2="50.31" y2="71.42"/><line class="cls-2" x1="34.71" y1="53.79" x2="28.87" y2="53.85"/><line class="cls-2" x1="31.63" y1="54.79" x2="31.56" y2="52.88"/><line class="cls-2" x1="44.2" y1="70.33" x2="38.36" y2="70.39"/><line class="cls-2" x1="41.11" y1="71.33" x2="41.04" y2="69.42"/><line class="cls-2" x1="17.11" y1="63.91" x2="11.27" y2="63.97"/><line class="cls-2" x1="14.03" y1="64.91" x2="13.96" y2="63"/><line class="cls-2" x1="6.2" y1="82.08" x2="4.49" y2="76.49"/><line class="cls-2" x1="4.37" y1="79.4" x2="6.17" y2="78.8"/><line class="cls-2" x1="-4.88" y1="82.72" x2="0.45" y2="80.33"/><line class="cls-2" x1="30.95" y1="68.33" x2="26.15" y2="65"/><line class="cls-2" x1="27.85" y1="67.36" x2="28.9" y2="65.76"/><line class="cls-2" x1="20.07" y1="83.28" x2="24.01" y2="78.97"/><line class="cls-2" x1="21.45" y1="80.35" x2="22.88" y2="81.6"/><line class="cls-2" x1="15.67" y1="82.68" x2="11.67" y2="78.43"/><line class="cls-2" x1="12.84" y1="81.09" x2="14.2" y2="79.75"/><line class="cls-2" x1="10.79" y1="91.23" x2="13.43" y2="86.02"/><line class="cls-2" x1="41.77" y1="89.86" x2="37.91" y2="85.48"/><line class="cls-2" x1="42.27" y1="82.17" x2="40.56" y2="76.58"/><line class="cls-2" x1="40.44" y1="79.49" x2="42.25" y2="78.89"/><line class="cls-2" x1="47.73" y1="79.97" x2="53.06" y2="77.58"/><line class="cls-2" x1="50.16" y1="77.82" x2="50.98" y2="79.54"/><line class="cls-2" x1="33.65" y1="83.78" x2="30.68" y2="78.75"/><line class="cls-2" x1="31.24" y1="81.6" x2="32.86" y2="80.59"/><rect class="cls-1" width="86.25" height="86.25"/></svg>