<svg id="Layer_1" data-name="Layer 1" xmlns="http://www.w3.org/2000/svg" width="80.56" height="80.5" viewBox="0 0 80.56 80.5"><defs><style>.cls-1,.cls-2,.cls-3{fill:none;}.cls-2,.cls-3{stroke:#000;}.cls-2{stroke-linecap:round;stroke-width:0.6px;}.cls-3{stroke-width:0.3px;}</style></defs><title>Artboard 37</title><rect class="cls-1" x="68.91" y="-7.76" width="80.56" height="80.5"/><line class="cls-2" x1="76.43" y1="2.26" x2="76.43" y2="2.26"/><line class="cls-2" x1="76.37" y1="5.57" x2="76.37" y2="5.57"/><line class="cls-2" x1="71.74" y1="5.64" x2="71.74" y2="5.64"/><line class="cls-2" x1="80.43" y1="5.2" x2="80.43" y2="5.2"/><line class="cls-2" x1="70.18" y1="-0.24" x2="70.18" y2="-0.24"/><line class="cls-2" x1="76.43" y1="19.97" x2="76.43" y2="19.97"/><line class="cls-2" x1="72.62" y1="20.2" x2="72.62" y2="20.2"/><line class="cls-2" x1="76.37" y1="23.28" x2="76.37" y2="23.28"/><line class="cls-2" x1="71.74" y1="23.35" x2="71.74" y2="23.35"/><line class="cls-2" x1="78.99" y1="26.07" x2="78.99" y2="26.07"/><line class="cls-2" x1="73.99" y1="26.32" x2="73.99" y2="26.32"/><line class="cls-2" x1="76.24" y1="29.07" x2="76.24" y2="29.07"/><line class="cls-2" x1="80.12" y1="30.45" x2="80.12" y2="30.45"/><line class="cls-2" x1="74.24" y1="17.03" x2="74.24" y2="17.03"/><line class="cls-2" x1="73.56" y1="8.72" x2="73.56" y2="8.72"/><line class="cls-2" x1="75.62" y1="12.41" x2="75.62" y2="12.41"/><line class="cls-2" x1="79.62" y1="12.7" x2="79.62" y2="12.7"/><line class="cls-2" x1="71.99" y1="12.22" x2="71.99" y2="12.22"/><line class="cls-2" x1="70.18" y1="17.47" x2="70.18" y2="17.47"/><line class="cls-2" x1="77.74" y1="16.47" x2="77.74" y2="16.47"/><line class="cls-2" x1="78.49" y1="72.03" x2="78.49" y2="72.03"/><line class="cls-2" x1="70.16" y1="71.7" x2="70.16" y2="71.7"/><line class="cls-2" x1="76.43" y1="62.72" x2="76.43" y2="62.72"/><line class="cls-2" x1="76.37" y1="59.41" x2="76.37" y2="59.41"/><line class="cls-2" x1="71.74" y1="59.35" x2="71.74" y2="59.35"/><line class="cls-2" x1="78.83" y1="64.53" x2="78.83" y2="64.53"/><line class="cls-2" x1="75.16" y1="71.03" x2="75.16" y2="71.03"/><line class="cls-2" x1="72.33" y1="62.37" x2="72.33" y2="62.37"/><line class="cls-2" x1="70.18" y1="65.22" x2="70.18" y2="65.22"/><line class="cls-2" x1="76.43" y1="45.01" x2="76.43" y2="45.01"/><line class="cls-2" x1="72.62" y1="44.79" x2="72.62" y2="44.79"/><line class="cls-2" x1="76.37" y1="41.7" x2="76.37" y2="41.7"/><line class="cls-2" x1="78.99" y1="38.91" x2="78.99" y2="38.91"/><line class="cls-2" x1="73.99" y1="38.66" x2="73.99" y2="38.66"/><line class="cls-2" x1="76.24" y1="35.91" x2="76.24" y2="35.91"/><line class="cls-2" x1="74.24" y1="47.95" x2="74.24" y2="47.95"/><line class="cls-2" x1="70.49" y1="36.7" x2="70.49" y2="36.7"/><line class="cls-2" x1="75.62" y1="52.58" x2="75.62" y2="52.58"/><line class="cls-2" x1="79.62" y1="52.29" x2="79.62" y2="52.29"/><line class="cls-2" x1="71.68" y1="51.7" x2="71.68" y2="51.7"/><line class="cls-2" x1="70.18" y1="47.51" x2="70.18" y2="47.51"/><line class="cls-2" x1="78.16" y1="56.2" x2="78.16" y2="56.2"/><line class="cls-2" x1="76.49" y1="32.2" x2="76.49" y2="32.2"/><line class="cls-2" x1="73.33" y1="34.2" x2="73.33" y2="34.2"/><line class="cls-2" x1="70.12" y1="27.22" x2="70.12" y2="27.22"/><line class="cls-2" x1="77.83" y1="68.53" x2="77.83" y2="68.53"/><line class="cls-2" x1="79.33" y1="42.03" x2="79.33" y2="42.03"/><line class="cls-3" x1="78.12" y1="6.78" x2="76.99" y2="10.03"/><line class="cls-3" x1="79.5" y1="7.19" x2="78.42" y2="10.58"/><line class="cls-3" x1="73.7" y1="13.1" x2="70.77" y2="14.89"/><line class="cls-3" x1="74.51" y1="14.29" x2="71.52" y2="16.23"/><line class="cls-3" x1="74.5" y1="1.38" x2="71.12" y2="2.01"/><line class="cls-3" x1="74.83" y1="2.78" x2="71.35" y2="3.53"/><line class="cls-3" x1="77.12" y1="22.21" x2="80.46" y2="23.02"/><line class="cls-3" x1="77.39" y1="20.79" x2="80.87" y2="21.55"/><line class="cls-3" x1="71.34" y1="32.87" x2="73.51" y2="30.2"/><line class="cls-3" x1="70.18" y1="32.02" x2="72.35" y2="29.2"/><line class="cls-3" x1="80.45" y1="37.56" x2="80.15" y2="34.13"/><line class="cls-3" x1="79.03" y1="37.75" x2="78.62" y2="34.21"/><line class="cls-3" x1="69.62" y1="41.46" x2="72.96" y2="42.27"/><line class="cls-3" x1="69.89" y1="40.04" x2="73.37" y2="40.8"/><line class="cls-3" x1="72.82" y1="57.11" x2="76.23" y2="56.66"/><line class="cls-3" x1="72.56" y1="55.7" x2="76.08" y2="55.13"/><line class="cls-3" x1="79.77" y1="59.45" x2="79.71" y2="62.89"/><line class="cls-3" x1="71.97" y1="69.27" x2="75.12" y2="67.9"/><line class="cls-3" x1="71.33" y1="67.97" x2="74.56" y2="66.47"/><line class="cls-3" x1="79.73" y1="50.09" x2="79.26" y2="46.69"/><line class="cls-3" x1="78.31" y1="50.36" x2="77.73" y2="46.85"/><rect class="cls-1" x="68.91" y="72.74" width="80.56" height="80.5"/><line class="cls-2" x1="74.24" y1="79.82" x2="74.24" y2="79.82"/><line class="cls-2" x1="75.62" y1="75.2" x2="75.62" y2="75.2"/><line class="cls-2" x1="71.68" y1="76.07" x2="71.68" y2="76.07"/><line class="cls-2" x1="70.18" y1="80.26" x2="70.18" y2="80.26"/><line class="cls-2" x1="77.74" y1="79.26" x2="77.74" y2="79.26"/><line class="cls-3" x1="78.56" y1="74.72" x2="79.12" y2="77.97"/><line class="cls-3" x1="79.95" y1="74.47" x2="80.62" y2="77.97"/><rect class="cls-1" x="-11.65" y="-7.76" width="80.56" height="80.5"/><line class="cls-2" x1="-0.13" y1="5.2" x2="-0.13" y2="5.2"/><line class="cls-2" x1="2.56" y1="7.07" x2="2.56" y2="7.07"/><line class="cls-2" x1="5.93" y1="7.7" x2="5.93" y2="7.7"/><line class="cls-2" x1="9.43" y1="4.95" x2="9.43" y2="4.95"/><line class="cls-2" x1="2.93" y1="10.32" x2="2.93" y2="10.32"/><line class="cls-2" x1="5.06" y1="4.32" x2="5.06" y2="4.32"/><line class="cls-2" x1="9.06" y1="0.95" x2="9.06" y2="0.95"/><line class="cls-2" x1="12.68" y1="2.32" x2="12.68" y2="2.32"/><line class="cls-2" x1="0.43" y1="1.14" x2="0.43" y2="1.14"/><line class="cls-2" x1="1.18" y1="22.35" x2="1.18" y2="22.35"/><line class="cls-2" x1="3.18" y1="24.97" x2="3.18" y2="24.97"/><line class="cls-2" x1="6.18" y1="25.32" x2="6.18" y2="25.32"/><line class="cls-2" x1="1.27" y1="28.2" x2="1.27" y2="28.2"/><line class="cls-2" x1="5.06" y1="21.22" x2="5.06" y2="21.22"/><line class="cls-2" x1="4.81" y1="18.7" x2="4.81" y2="18.7"/><line class="cls-2" x1="9.06" y1="18.66" x2="9.06" y2="18.66"/><line class="cls-2" x1="8.68" y1="13.66" x2="8.68" y2="13.66"/><line class="cls-2" x1="8.31" y1="9.28" x2="8.31" y2="9.28"/><line class="cls-2" x1="0.43" y1="18.85" x2="0.43" y2="18.85"/><line class="cls-2" x1="4.93" y1="12.6" x2="4.93" y2="12.6"/><line class="cls-2" x1="2.43" y1="14.97" x2="2.43" y2="14.97"/><line class="cls-2" x1="22.62" y1="2.26" x2="22.62" y2="2.26"/><line class="cls-2" x1="22.56" y1="5.57" x2="22.56" y2="5.57"/><line class="cls-2" x1="17.93" y1="5.64" x2="17.93" y2="5.64"/><line class="cls-2" x1="14.43" y1="5.45" x2="14.43" y2="5.45"/><line class="cls-2" x1="16" y1="8.82" x2="16" y2="8.82"/><line class="cls-2" x1="11.77" y1="12.03" x2="11.77" y2="12.03"/><line class="cls-2" x1="11.56" y1="15.45" x2="11.56" y2="15.45"/><line class="cls-2" x1="12.93" y1="18.82" x2="12.93" y2="18.82"/><line class="cls-2" x1="14.68" y1="13.82" x2="14.68" y2="13.82"/><line class="cls-2" x1="26.62" y1="5.2" x2="26.62" y2="5.2"/><line class="cls-2" x1="29.31" y1="7.07" x2="29.31" y2="7.07"/><line class="cls-2" x1="33.1" y1="7.53" x2="33.1" y2="7.53"/><line class="cls-2" x1="29.68" y1="10.32" x2="29.68" y2="10.32"/><line class="cls-2" x1="31.81" y1="4.32" x2="31.81" y2="4.32"/><line class="cls-2" x1="35.77" y1="2.53" x2="35.77" y2="2.53"/><line class="cls-2" x1="27.18" y1="1.14" x2="27.18" y2="1.14"/><line class="cls-2" x1="38.93" y1="71.53" x2="38.93" y2="71.53"/><line class="cls-2" x1="16.37" y1="-0.24" x2="16.37" y2="-0.24"/><line class="cls-2" x1="22.62" y1="19.97" x2="22.62" y2="19.97"/><line class="cls-2" x1="18.68" y1="19.35" x2="18.68" y2="19.35"/><line class="cls-2" x1="15.06" y1="20.47" x2="15.06" y2="20.47"/><line class="cls-2" x1="8.18" y1="23.1" x2="8.18" y2="23.1"/><line class="cls-2" x1="22.56" y1="23.28" x2="22.56" y2="23.28"/><line class="cls-2" x1="14.56" y1="24.32" x2="14.56" y2="24.32"/><line class="cls-2" x1="13.77" y1="27.7" x2="13.77" y2="27.7"/><line class="cls-2" x1="8.77" y1="28.53" x2="8.77" y2="28.53"/><line class="cls-2" x1="10.43" y1="31.2" x2="10.43" y2="31.2"/><line class="cls-2" x1="44.43" y1="25.87" x2="44.43" y2="25.87"/><line class="cls-2" x1="40.93" y1="28.2" x2="40.93" y2="28.2"/><line class="cls-2" x1="49.27" y1="28.03" x2="49.27" y2="28.03"/><line class="cls-2" x1="66.81" y1="29.72" x2="66.81" y2="29.72"/><line class="cls-2" x1="10.31" y1="25.45" x2="10.31" y2="25.45"/><line class="cls-2" x1="18.56" y1="22.72" x2="18.56" y2="22.72"/><line class="cls-2" x1="29.18" y1="21.47" x2="29.18" y2="21.47"/><line class="cls-2" x1="29.31" y1="24.78" x2="29.31" y2="24.78"/><line class="cls-2" x1="25.18" y1="26.07" x2="25.18" y2="26.07"/><line class="cls-2" x1="19.68" y1="26.22" x2="19.68" y2="26.22"/><line class="cls-2" x1="22.43" y1="29.07" x2="22.43" y2="29.07"/><line class="cls-2" x1="26.31" y1="30.45" x2="26.31" y2="30.45"/><line class="cls-2" x1="33.18" y1="26.85" x2="33.18" y2="26.85"/><line class="cls-2" x1="28.27" y1="28.2" x2="28.27" y2="28.2"/><line class="cls-2" x1="32.43" y1="22.97" x2="32.43" y2="22.97"/><line class="cls-2" x1="31.56" y1="18.7" x2="31.56" y2="18.7"/><line class="cls-2" x1="34.56" y1="21.35" x2="34.56" y2="21.35"/><line class="cls-2" x1="37.56" y1="18.82" x2="37.56" y2="18.82"/><line class="cls-2" x1="40.31" y1="16.32" x2="40.31" y2="16.32"/><line class="cls-2" x1="40.81" y1="19.82" x2="40.81" y2="19.82"/><line class="cls-2" x1="43.56" y1="18.22" x2="43.56" y2="18.22"/><line class="cls-2" x1="44.18" y1="21.97" x2="44.18" y2="21.97"/><line class="cls-2" x1="47.06" y1="22.72" x2="47.06" y2="22.72"/><line class="cls-2" x1="41.43" y1="23.45" x2="41.43" y2="23.45"/><line class="cls-2" x1="38.06" y1="26.07" x2="38.06" y2="26.07"/><line class="cls-2" x1="42.68" y1="13.45" x2="42.68" y2="13.45"/><line class="cls-2" x1="35.18" y1="12.7" x2="35.18" y2="12.7"/><line class="cls-2" x1="35.06" y1="9.28" x2="35.06" y2="9.28"/><line class="cls-2" x1="27.18" y1="18.85" x2="27.18" y2="18.85"/><line class="cls-2" x1="21.27" y1="17.2" x2="21.27" y2="17.2"/><line class="cls-2" x1="35.43" y1="28.82" x2="35.43" y2="28.82"/><line class="cls-2" x1="20.31" y1="8.84" x2="20.31" y2="8.84"/><line class="cls-2" x1="21.81" y1="12.41" x2="21.81" y2="12.41"/><line class="cls-2" x1="25.81" y1="12.7" x2="25.81" y2="12.7"/><line class="cls-2" x1="31.68" y1="12.6" x2="31.68" y2="12.6"/><line class="cls-2" x1="17.6" y1="12.37" x2="17.6" y2="12.37"/><line class="cls-2" x1="15.27" y1="17.37" x2="15.27" y2="17.37"/><line class="cls-2" x1="29.18" y1="14.97" x2="29.18" y2="14.97"/><line class="cls-2" x1="24.77" y1="16.2" x2="24.77" y2="16.2"/><line class="cls-2" x1="68.34" y1="3.64" x2="68.34" y2="3.64"/><line class="cls-2" x1="68.34" y1="21.35" x2="68.34" y2="21.35"/><line class="cls-2" x1="68.06" y1="10.2" x2="68.06" y2="10.2"/><line class="cls-2" x1="60.5" y1="1.7" x2="60.5" y2="1.7"/><line class="cls-2" x1="60.56" y1="5.01" x2="60.56" y2="5.01"/><line class="cls-2" x1="64.06" y1="2.35" x2="64.06" y2="2.35"/><line class="cls-2" x1="65.18" y1="5.07" x2="65.18" y2="5.07"/><line class="cls-2" x1="56.5" y1="4.64" x2="56.5" y2="4.64"/><line class="cls-2" x1="53.81" y1="6.51" x2="53.81" y2="6.51"/><line class="cls-2" x1="48.43" y1="5.2" x2="48.43" y2="5.2"/><line class="cls-2" x1="52.43" y1="0.57" x2="52.43" y2="0.57"/><line class="cls-2" x1="51.31" y1="3.76" x2="51.31" y2="3.76"/><line class="cls-2" x1="39.18" y1="0.07" x2="39.18" y2="0.07"/><line class="cls-2" x1="40.77" y1="3.2" x2="40.77" y2="3.2"/><line class="cls-2" x1="54.18" y1="10.95" x2="54.18" y2="10.95"/><line class="cls-2" x1="36.77" y1="5.7" x2="36.77" y2="5.7"/><line class="cls-2" x1="41.27" y1="6.7" x2="41.27" y2="6.7"/><line class="cls-2" x1="47.77" y1="1.53" x2="47.77" y2="1.53"/><line class="cls-2" x1="45.31" y1="6.2" x2="45.31" y2="6.2"/><line class="cls-2" x1="44.31" y1="9.57" x2="44.31" y2="9.57"/><line class="cls-2" x1="40.56" y1="10.7" x2="40.56" y2="10.7"/><line class="cls-2" x1="38.68" y1="13.57" x2="38.68" y2="13.57"/><line class="cls-2" x1="35.43" y1="16.82" x2="35.43" y2="16.82"/><line class="cls-2" x1="55.93" y1="0.57" x2="55.93" y2="0.57"/><line class="cls-2" x1="10.43" y1="70.7" x2="10.43" y2="70.7"/><line class="cls-2" x1="5.77" y1="71.37" x2="5.77" y2="71.37"/><line class="cls-2" x1="18.27" y1="49.2" x2="18.27" y2="49.2"/><line class="cls-2" x1="31.93" y1="70.87" x2="31.93" y2="70.87"/><line class="cls-2" x1="17.6" y1="71.53" x2="17.6" y2="71.53"/><line class="cls-2" x1="34.89" y1="60.72" x2="34.89" y2="60.72"/><line class="cls-2" x1="45.6" y1="71.37" x2="45.6" y2="71.37"/><line class="cls-2" x1="34.93" y1="72.03" x2="34.93" y2="72.03"/><line class="cls-2" x1="58.6" y1="71.87" x2="58.6" y2="71.87"/><line class="cls-2" x1="50.6" y1="71.7" x2="50.6" y2="71.7"/><line class="cls-2" x1="60.5" y1="19.41" x2="60.5" y2="19.41"/><line class="cls-2" x1="64.31" y1="19.64" x2="64.31" y2="19.64"/><line class="cls-2" x1="60.93" y1="24.35" x2="60.93" y2="24.35"/><line class="cls-2" x1="66.43" y1="25.45" x2="66.43" y2="25.45"/><line class="cls-2" x1="54.81" y1="21.51" x2="54.81" y2="21.51"/><line class="cls-2" x1="53.81" y1="24.22" x2="53.81" y2="24.22"/><line class="cls-2" x1="57.93" y1="25.51" x2="57.93" y2="25.51"/><line class="cls-2" x1="64.06" y1="26.72" x2="64.06" y2="26.72"/><line class="cls-2" x1="61.93" y1="28.72" x2="61.93" y2="28.72"/><line class="cls-2" x1="55.56" y1="30.95" x2="55.56" y2="30.95"/><line class="cls-2" x1="49.06" y1="24.76" x2="49.06" y2="24.76"/><line class="cls-2" x1="53.43" y1="27.47" x2="53.43" y2="27.47"/><line class="cls-2" x1="56.43" y1="8.45" x2="56.43" y2="8.45"/><line class="cls-2" x1="51.56" y1="18.14" x2="51.56" y2="18.14"/><line class="cls-2" x1="50.1" y1="15.03" x2="50.1" y2="15.03"/><line class="cls-2" x1="47.31" y1="18.1" x2="47.31" y2="18.1"/><line class="cls-2" x1="47.68" y1="13.1" x2="47.68" y2="13.1"/><line class="cls-2" x1="48.06" y1="8.72" x2="48.06" y2="8.72"/><line class="cls-2" x1="55.93" y1="18.28" x2="55.93" y2="18.28"/><line class="cls-2" x1="62.68" y1="16.47" x2="62.68" y2="16.47"/><line class="cls-2" x1="57.93" y1="21.57" x2="57.93" y2="21.57"/><line class="cls-2" x1="61.31" y1="11.85" x2="61.31" y2="11.85"/><line class="cls-2" x1="57.31" y1="12.14" x2="57.31" y2="12.14"/><line class="cls-2" x1="51.43" y1="12.03" x2="51.43" y2="12.03"/><line class="cls-2" x1="65.25" y1="12.72" x2="65.25" y2="12.72"/><line class="cls-2" x1="66.75" y1="16.91" x2="66.75" y2="16.91"/><line class="cls-2" x1="53.93" y1="14.41" x2="53.93" y2="14.41"/><line class="cls-2" x1="59.81" y1="8.32" x2="59.81" y2="8.32"/><line class="cls-2" x1="2.56" y1="57.91" x2="2.56" y2="57.91"/><line class="cls-2" x1="6.43" y1="48.95" x2="6.43" y2="48.95"/><line class="cls-2" x1="11.77" y1="56.7" x2="11.77" y2="56.7"/><line class="cls-2" x1="11.31" y1="65.55" x2="11.31" y2="65.55"/><line class="cls-2" x1="13.56" y1="67.72" x2="13.56" y2="67.72"/><line class="cls-2" x1="9.43" y1="60.04" x2="9.43" y2="60.04"/><line class="cls-2" x1="1.6" y1="54.87" x2="1.6" y2="54.87"/><line class="cls-2" x1="5.93" y1="59.03" x2="5.93" y2="59.03"/><line class="cls-2" x1="5.43" y1="64.03" x2="5.43" y2="64.03"/><line class="cls-2" x1="9.06" y1="64.04" x2="9.06" y2="64.04"/><line class="cls-2" x1="17.43" y1="35.37" x2="17.43" y2="35.37"/><line class="cls-2" x1="8.6" y1="67.87" x2="8.6" y2="67.87"/><line class="cls-2" x1="2.93" y1="62.03" x2="2.93" y2="62.03"/><line class="cls-2" x1="2.1" y1="66.2" x2="2.1" y2="66.2"/><line class="cls-2" x1="0.93" y1="69.37" x2="0.93" y2="69.37"/><line class="cls-2" x1="6.6" y1="32.37" x2="6.6" y2="32.37"/><line class="cls-2" x1="1.56" y1="42.91" x2="1.56" y2="42.91"/><line class="cls-2" x1="2.56" y1="40.2" x2="2.56" y2="40.2"/><line class="cls-2" x1="1.6" y1="33.53" x2="1.6" y2="33.53"/><line class="cls-2" x1="6.18" y1="39.66" x2="6.18" y2="39.66"/><line class="cls-2" x1="1.27" y1="36.79" x2="1.27" y2="36.79"/><line class="cls-2" x1="4.77" y1="36.2" x2="4.77" y2="36.2"/><line class="cls-2" x1="4.81" y1="46.29" x2="4.81" y2="46.29"/><line class="cls-2" x1="9.06" y1="46.33" x2="9.06" y2="46.33"/><line class="cls-2" x1="8.68" y1="51.33" x2="8.68" y2="51.33"/><line class="cls-2" x1="8.31" y1="55.7" x2="8.31" y2="55.7"/><line class="cls-2" x1="0.43" y1="46.14" x2="0.43" y2="46.14"/><line class="cls-2" x1="4.93" y1="52.39" x2="4.93" y2="52.39"/><line class="cls-2" x1="2.43" y1="50.01" x2="2.43" y2="50.01"/><line class="cls-2" x1="22.73" y1="59.22" x2="22.73" y2="59.22"/><line class="cls-2" x1="22.73" y1="55.72" x2="22.73" y2="55.72"/><line class="cls-2" x1="17.93" y1="59.35" x2="17.93" y2="59.35"/><line class="cls-2" x1="14.43" y1="59.54" x2="14.43" y2="59.54"/><line class="cls-2" x1="15.43" y1="56.16" x2="15.43" y2="56.16"/><line class="cls-2" x1="11.77" y1="52.95" x2="11.77" y2="52.95"/><line class="cls-2" x1="11.6" y1="42.53" x2="11.6" y2="42.53"/><line class="cls-2" x1="14.68" y1="51.16" x2="14.68" y2="51.16"/><line class="cls-2" x1="26.62" y1="59.79" x2="26.62" y2="59.79"/><line class="cls-2" x1="33.06" y1="63.97" x2="33.06" y2="63.97"/><line class="cls-2" x1="29.31" y1="57.91" x2="29.31" y2="57.91"/><line class="cls-2" x1="33.93" y1="57.91" x2="33.93" y2="57.91"/><line class="cls-2" x1="29.68" y1="54.66" x2="29.68" y2="54.66"/><line class="cls-2" x1="30.1" y1="60.2" x2="30.1" y2="60.2"/><line class="cls-2" x1="32.31" y1="66.41" x2="32.31" y2="66.41"/><line class="cls-2" x1="35.1" y1="65.79" x2="35.1" y2="65.79"/><line class="cls-2" x1="37.1" y1="68.53" x2="37.1" y2="68.53"/><line class="cls-2" x1="28.81" y1="63.47" x2="28.81" y2="63.47"/><line class="cls-2" x1="20.43" y1="65.66" x2="20.43" y2="65.66"/><line class="cls-2" x1="21.81" y1="70.29" x2="21.81" y2="70.29"/><line class="cls-2" x1="26.43" y1="70.7" x2="26.43" y2="70.7"/><line class="cls-2" x1="20.89" y1="62.55" x2="20.89" y2="62.55"/><line class="cls-2" x1="14.23" y1="70.55" x2="14.23" y2="70.55"/><line class="cls-2" x1="16.37" y1="65.22" x2="16.37" y2="65.22"/><line class="cls-2" x1="27.43" y1="67.53" x2="27.43" y2="67.53"/><line class="cls-2" x1="23.43" y1="67.2" x2="23.43" y2="67.2"/><line class="cls-2" x1="22.62" y1="45.01" x2="22.62" y2="45.01"/><line class="cls-2" x1="18.81" y1="44.79" x2="18.81" y2="44.79"/><line class="cls-2" x1="15.43" y1="44.04" x2="15.43" y2="44.04"/><line class="cls-2" x1="8.31" y1="42.91" x2="8.31" y2="42.91"/><line class="cls-2" x1="22.56" y1="41.7" x2="22.56" y2="41.7"/><line class="cls-2" x1="14.56" y1="40.66" x2="14.56" y2="40.66"/><line class="cls-2" x1="13.77" y1="37.29" x2="13.77" y2="37.29"/><line class="cls-2" x1="14.1" y1="32.03" x2="14.1" y2="32.03"/><line class="cls-2" x1="44.43" y1="39.12" x2="44.43" y2="39.12"/><line class="cls-2" x1="40.37" y1="36.79" x2="40.37" y2="36.79"/><line class="cls-2" x1="49.27" y1="36.95" x2="49.27" y2="36.95"/><line class="cls-2" x1="63.6" y1="31.7" x2="63.6" y2="31.7"/><line class="cls-2" x1="59.77" y1="32.87" x2="59.77" y2="32.87"/><line class="cls-2" x1="43.77" y1="31.37" x2="43.77" y2="31.37"/><line class="cls-2" x1="38.31" y1="30.35" x2="38.31" y2="30.35"/><line class="cls-2" x1="21.93" y1="32.37" x2="21.93" y2="32.37"/><line class="cls-2" x1="18.1" y1="31.87" x2="18.1" y2="31.87"/><line class="cls-2" x1="67.77" y1="33.95" x2="67.77" y2="33.95"/><line class="cls-2" x1="10.31" y1="39.54" x2="10.31" y2="39.54"/><line class="cls-2" x1="17.93" y1="41.64" x2="17.93" y2="41.64"/><line class="cls-2" x1="28.31" y1="42.91" x2="28.31" y2="42.91"/><line class="cls-2" x1="29.31" y1="40.2" x2="29.31" y2="40.2"/><line class="cls-2" x1="25.18" y1="38.91" x2="25.18" y2="38.91"/><line class="cls-2" x1="20.18" y1="38.66" x2="20.18" y2="38.66"/><line class="cls-2" x1="21.06" y1="35.1" x2="21.06" y2="35.1"/><line class="cls-2" x1="28.1" y1="33.53" x2="28.1" y2="33.53"/><line class="cls-2" x1="34.06" y1="39.66" x2="34.06" y2="39.66"/><line class="cls-2" x1="29.31" y1="37.22" x2="29.31" y2="37.22"/><line class="cls-2" x1="31.77" y1="35.87" x2="31.77" y2="35.87"/><line class="cls-2" x1="31.56" y1="46.29" x2="31.56" y2="46.29"/><line class="cls-2" x1="36.43" y1="42.53" x2="36.43" y2="42.53"/><line class="cls-2" x1="35.77" y1="45.2" x2="35.77" y2="45.2"/><line class="cls-2" x1="40.31" y1="48.66" x2="40.31" y2="48.66"/><line class="cls-2" x1="40.81" y1="45.16" x2="40.81" y2="45.16"/><line class="cls-2" x1="44.18" y1="46.04" x2="44.18" y2="46.04"/><line class="cls-2" x1="43.4" y1="34.82" x2="43.4" y2="34.82"/><line class="cls-2" x1="46.93" y1="34.5" x2="46.93" y2="34.5"/><line class="cls-2" x1="47.77" y1="43.62" x2="47.77" y2="43.62"/><line class="cls-2" x1="41.43" y1="41.54" x2="41.43" y2="41.54"/><line class="cls-2" x1="37.78" y1="39.48" x2="37.78" y2="39.48"/><line class="cls-2" x1="42.68" y1="51.54" x2="42.68" y2="51.54"/><line class="cls-2" x1="35.18" y1="52.29" x2="35.18" y2="52.29"/><line class="cls-2" x1="36.77" y1="55.53" x2="36.77" y2="55.53"/><line class="cls-2" x1="27.18" y1="46.14" x2="27.18" y2="46.14"/><line class="cls-2" x1="21.27" y1="47.79" x2="21.27" y2="47.79"/><line class="cls-2" x1="35.43" y1="36.16" x2="35.43" y2="36.16"/><line class="cls-2" x1="26.39" y1="55.89" x2="26.39" y2="55.89"/><line class="cls-2" x1="21.81" y1="52.58" x2="21.81" y2="52.58"/><line class="cls-2" x1="25.81" y1="52.29" x2="25.81" y2="52.29"/><line class="cls-2" x1="31.68" y1="52.39" x2="31.68" y2="52.39"/><line class="cls-2" x1="17.6" y1="52.62" x2="17.6" y2="52.62"/><line class="cls-2" x1="15.27" y1="47.62" x2="15.27" y2="47.62"/><line class="cls-2" x1="29.18" y1="50.01" x2="29.18" y2="50.01"/><line class="cls-2" x1="25.1" y1="43.37" x2="25.1" y2="43.37"/><line class="cls-2" x1="68.34" y1="61.35" x2="68.34" y2="61.35"/><line class="cls-2" x1="68.34" y1="43.64" x2="68.34" y2="43.64"/><line class="cls-2" x1="68.06" y1="54.79" x2="68.06" y2="54.79"/><line class="cls-2" x1="60.5" y1="63.29" x2="60.5" y2="63.29"/><line class="cls-2" x1="60.56" y1="59.97" x2="60.56" y2="59.97"/><line class="cls-2" x1="65.68" y1="58.95" x2="65.68" y2="58.95"/><line class="cls-2" x1="56.5" y1="60.35" x2="56.5" y2="60.35"/><line class="cls-2" x1="53.81" y1="58.47" x2="53.81" y2="58.47"/><line class="cls-2" x1="48.43" y1="59.79" x2="48.43" y2="59.79"/><line class="cls-2" x1="51.6" y1="67.2" x2="51.6" y2="67.2"/><line class="cls-2" x1="47.31" y1="64.6" x2="47.31" y2="64.6"/><line class="cls-2" x1="48.27" y1="68.7" x2="48.27" y2="68.7"/><line class="cls-2" x1="41.31" y1="69.41" x2="41.31" y2="69.41"/><line class="cls-2" x1="45.43" y1="62.53" x2="45.43" y2="62.53"/><line class="cls-2" x1="40.56" y1="66.47" x2="40.56" y2="66.47"/><line class="cls-2" x1="33.1" y1="32.03" x2="33.1" y2="32.03"/><line class="cls-2" x1="54.18" y1="54.04" x2="54.18" y2="54.04"/><line class="cls-2" x1="41.1" y1="59.87" x2="41.1" y2="59.87"/><line class="cls-2" x1="37.77" y1="58.2" x2="37.77" y2="58.2"/><line class="cls-2" x1="41.93" y1="62.79" x2="41.93" y2="62.79"/><line class="cls-2" x1="45.31" y1="58.79" x2="45.31" y2="58.79"/><line class="cls-2" x1="50.27" y1="31.53" x2="50.27" y2="31.53"/><line class="cls-2" x1="40.77" y1="55.53" x2="40.77" y2="55.53"/><line class="cls-2" x1="38.68" y1="51.41" x2="38.68" y2="51.41"/><line class="cls-2" x1="33.43" y1="48.87" x2="33.43" y2="48.87"/><line class="cls-2" x1="55.93" y1="64.41" x2="55.93" y2="64.41"/><line class="cls-2" x1="62.68" y1="66.22" x2="62.68" y2="66.22"/><line class="cls-2" x1="67.27" y1="68.53" x2="67.27" y2="68.53"/><line class="cls-2" x1="61.6" y1="69.53" x2="61.6" y2="69.53"/><line class="cls-2" x1="64.27" y1="56.53" x2="64.27" y2="56.53"/><line class="cls-2" x1="56.77" y1="36.2" x2="56.77" y2="36.2"/><line class="cls-2" x1="66.75" y1="65.79" x2="66.75" y2="65.79"/><line class="cls-2" x1="54.27" y1="69.7" x2="54.27" y2="69.7"/><line class="cls-2" x1="58.43" y1="65.87" x2="58.43" y2="65.87"/><line class="cls-2" x1="60.5" y1="45.58" x2="60.5" y2="45.58"/><line class="cls-2" x1="64.31" y1="45.35" x2="64.31" y2="45.35"/><line class="cls-2" x1="60.56" y1="42.26" x2="60.56" y2="42.26"/><line class="cls-2" x1="66.43" y1="39.54" x2="66.43" y2="39.54"/><line class="cls-2" x1="54.81" y1="43.47" x2="54.81" y2="43.47"/><line class="cls-2" x1="52.77" y1="40.53" x2="52.77" y2="40.53"/><line class="cls-2" x1="57.93" y1="39.47" x2="57.93" y2="39.47"/><line class="cls-2" x1="62.93" y1="39.22" x2="62.93" y2="39.22"/><line class="cls-2" x1="60.68" y1="36.47" x2="60.68" y2="36.47"/><line class="cls-2" x1="55.56" y1="34.04" x2="55.56" y2="34.04"/><line class="cls-2" x1="49.06" y1="40.22" x2="49.06" y2="40.22"/><line class="cls-2" x1="53.43" y1="37.51" x2="53.43" y2="37.51"/><line class="cls-2" x1="51.77" y1="56.2" x2="51.77" y2="56.2"/><line class="cls-2" x1="51.43" y1="44.53" x2="51.43" y2="44.53"/><line class="cls-2" x1="45.6" y1="49.2" x2="45.6" y2="49.2"/><line class="cls-2" x1="48.56" y1="47.22" x2="48.56" y2="47.22"/><line class="cls-2" x1="47.68" y1="51.89" x2="47.68" y2="51.89"/><line class="cls-2" x1="48.06" y1="56.26" x2="48.06" y2="56.26"/><line class="cls-2" x1="55.93" y1="46.7" x2="55.93" y2="46.7"/><line class="cls-2" x1="64.1" y1="41.87" x2="64.1" y2="41.87"/><line class="cls-2" x1="59.68" y1="49.22" x2="59.68" y2="49.22"/><line class="cls-2" x1="61.31" y1="53.14" x2="61.31" y2="53.14"/><line class="cls-2" x1="60.06" y1="56.6" x2="60.06" y2="56.6"/><line class="cls-2" x1="58.31" y1="52.35" x2="58.31" y2="52.35"/><line class="cls-2" x1="51.43" y1="52.95" x2="51.43" y2="52.95"/><line class="cls-2" x1="65.25" y1="52.26" x2="65.25" y2="52.26"/><line class="cls-2" x1="66.75" y1="48.08" x2="66.75" y2="48.08"/><line class="cls-2" x1="55.31" y1="51.1" x2="55.31" y2="51.1"/><line class="cls-3" x1="2.12" y1="1.91" x2="5.5" y2="2.6"/><line class="cls-3" x1="2.21" y1="0.45" x2="5.72" y2="1.05"/><line class="cls-3" x1="4.25" y1="16.41" x2="7.62" y2="17.1"/><line class="cls-3" x1="4.33" y1="14.95" x2="7.85" y2="15.55"/><line class="cls-3" x1="11.43" y1="20.6" x2="10.31" y2="23.85"/><line class="cls-3" x1="12.82" y1="21" x2="11.74" y2="24.39"/><line class="cls-3" x1="10.79" y1="6.9" x2="11.68" y2="10.22"/><line class="cls-3" x1="12.16" y1="6.46" x2="13.18" y2="9.87"/><line class="cls-3" x1="19.34" y1="14.02" x2="16.78" y2="16.31"/><line class="cls-3" x1="20.36" y1="15.04" x2="17.76" y2="17.49"/><line class="cls-3" x1="30.97" y1="0.64" x2="28.41" y2="2.94"/><line class="cls-3" x1="31.98" y1="1.67" x2="29.39" y2="4.11"/><line class="cls-3" x1="62.66" y1="-2.93" x2="60.94" y2="0.05"/><line class="cls-3" x1="63.94" y1="-2.27" x2="62.24" y2="0.86"/><line class="cls-3" x1="63.52" y1="6.86" x2="62.96" y2="10.25"/><line class="cls-3" x1="64.95" y1="7.02" x2="64.46" y2="10.55"/><line class="cls-3" x1="56.96" y1="15.58" x2="58.87" y2="18.44"/><line class="cls-3" x1="58.11" y1="14.72" x2="60.17" y2="17.62"/><line class="cls-3" x1="65.49" y1="21.16" x2="62.78" y2="23.28"/><line class="cls-3" x1="66.43" y1="22.25" x2="63.69" y2="24.52"/><line class="cls-3" x1="19.66" y1="1.58" x2="16.22" y2="1.68"/><line class="cls-3" x1="19.77" y1="3.02" x2="16.21" y2="3.21"/><line class="cls-3" x1="26.78" y1="8.14" x2="23.34" y2="8.24"/><line class="cls-3" x1="26.89" y1="9.58" x2="23.33" y2="9.77"/><line class="cls-3" x1="46.32" y1="1.48" x2="42.9" y2="1.83"/><line class="cls-3" x1="46.54" y1="2.9" x2="43.01" y2="3.36"/><line class="cls-3" x1="49.68" y1="7.51" x2="50.07" y2="10.93"/><line class="cls-3" x1="51.1" y1="7.28" x2="51.6" y2="10.81"/><line class="cls-3" x1="36.75" y1="8.39" x2="37.13" y2="11.81"/><line class="cls-3" x1="38.17" y1="8.16" x2="38.66" y2="11.69"/><line class="cls-3" x1="43.31" y1="16.4" x2="46.65" y2="17.21"/><line class="cls-3" x1="43.58" y1="14.98" x2="47.06" y2="15.73"/><line class="cls-3" x1="32.16" y1="13.8" x2="31.11" y2="17.08"/><line class="cls-3" x1="33.55" y1="14.18" x2="32.55" y2="17.6"/><line class="cls-3" x1="36.68" y1="23.32" x2="39.18" y2="25.69"/><line class="cls-3" x1="37.62" y1="22.23" x2="40.27" y2="24.61"/><line class="cls-3" x1="25.29" y1="20.2" x2="25.02" y2="23.63"/><line class="cls-3" x1="26.73" y1="20.24" x2="26.55" y2="23.8"/><line class="cls-3" x1="44.51" y1="30.92" x2="46.19" y2="27.92"/><line class="cls-3" x1="43.22" y1="30.28" x2="44.88" y2="27.12"/><line class="cls-3" x1="31.02" y1="32.14" x2="32.32" y2="28.96"/><line class="cls-3" x1="29.66" y1="31.67" x2="30.92" y2="28.33"/><line class="cls-3" x1="16.9" y1="30" x2="19.86" y2="28.25"/><line class="cls-3" x1="16.11" y1="28.8" x2="19.12" y2="26.9"/><line class="cls-3" x1="-3.17" y1="20.79" x2="0.31" y2="21.55"/><line class="cls-3" x1="-0.11" y1="37.56" x2="-0.4" y2="34.13"/><line class="cls-3" x1="10.19" y1="34.35" x2="7.67" y2="36.69"/><line class="cls-3" x1="11.22" y1="35.35" x2="8.67" y2="37.85"/><line class="cls-3" x1="3.43" y1="43.71" x2="6.78" y2="44.52"/><line class="cls-3" x1="3.7" y1="42.29" x2="7.19" y2="43.05"/><line class="cls-3" x1="15.51" y1="37.36" x2="17.37" y2="40.25"/><line class="cls-3" x1="16.69" y1="36.52" x2="18.68" y2="39.47"/><line class="cls-3" x1="22.85" y1="49.71" x2="26.26" y2="50.17"/><line class="cls-3" x1="22.97" y1="48.28" x2="26.51" y2="48.66"/><line class="cls-3" x1="18.32" y1="54.25" x2="19.01" y2="57.61"/><line class="cls-3" x1="19.71" y1="53.89" x2="20.52" y2="57.36"/><line class="cls-3" x1="11.43" y1="61.14" x2="14.39" y2="62.89"/><line class="cls-3" x1="12.1" y1="59.86" x2="15.22" y2="61.59"/><line class="cls-3" x1="3.15" y1="56.1" x2="6.56" y2="56.55"/><line class="cls-3" x1="3.27" y1="54.66" x2="6.81" y2="55.04"/><line class="cls-3" x1="0.65" y1="59.4" x2="0.68" y2="62.97"/><line class="cls-3" x1="3.32" y1="69.1" x2="6.73" y2="69.55"/><line class="cls-3" x1="3.44" y1="67.66" x2="6.98" y2="68.04"/><line class="cls-3" x1="18.3" y1="66.32" x2="16.53" y2="69.27"/><line class="cls-3" x1="19.57" y1="66.99" x2="17.82" y2="70.1"/><line class="cls-3" x1="23.65" y1="64.3" x2="27.03" y2="63.64"/><line class="cls-3" x1="23.31" y1="62.9" x2="26.78" y2="62.13"/><line class="cls-3" x1="29.13" y1="67.1" x2="29.94" y2="70.44"/><line class="cls-3" x1="30.51" y1="66.69" x2="31.44" y2="70.13"/><line class="cls-3" x1="36.31" y1="63.71" x2="39.73" y2="64.02"/><line class="cls-3" x1="36.37" y1="62.27" x2="39.92" y2="62.5"/><line class="cls-3" x1="44.15" y1="53.24" x2="45.14" y2="56.53"/><line class="cls-3" x1="45.51" y1="52.76" x2="46.62" y2="56.14"/><line class="cls-3" x1="51.4" y1="50.49" x2="53.94" y2="48.17"/><line class="cls-3" x1="50.38" y1="49.48" x2="52.94" y2="47.01"/><line class="cls-3" x1="62.19" y1="48.78" x2="63.36" y2="52.02"/><line class="cls-3" x1="63.52" y1="48.23" x2="64.82" y2="51.55"/><line class="cls-3" x1="58.08" y1="58.69" x2="57.4" y2="55.32"/><line class="cls-3" x1="56.68" y1="59.04" x2="55.89" y2="55.57"/><line class="cls-3" x1="61.82" y1="62.43" x2="65.23" y2="62.89"/><line class="cls-3" x1="61.94" y1="61" x2="65.48" y2="61.38"/><line class="cls-3" x1="62.98" y1="71.26" x2="66.39" y2="71.72"/><line class="cls-3" x1="63.1" y1="69.83" x2="66.65" y2="70.21"/><line class="cls-3" x1="57.05" y1="65.88" x2="55.07" y2="68.69"/><line class="cls-3" x1="58.26" y1="66.65" x2="56.29" y2="69.62"/><line class="cls-3" x1="51.52" y1="64.41" x2="52.08" y2="61.02"/><line class="cls-3" x1="50.09" y1="64.25" x2="50.58" y2="60.72"/><line class="cls-3" x1="43.85" y1="66.54" x2="43.54" y2="69.97"/><line class="cls-3" x1="45.28" y1="66.6" x2="45.06" y2="70.15"/><line class="cls-3" x1="35.65" y1="48.26" x2="39.06" y2="48.72"/><line class="cls-3" x1="35.77" y1="46.83" x2="39.31" y2="47.21"/><line class="cls-3" x1="32.12" y1="53.96" x2="33.97" y2="56.86"/><line class="cls-3" x1="33.3" y1="53.13" x2="35.29" y2="56.08"/><line class="cls-3" x1="23.48" y1="36.25" x2="26.91" y2="36.5"/><line class="cls-3" x1="23.51" y1="34.81" x2="27.07" y2="34.97"/><line class="cls-3" x1="35.48" y1="34.67" x2="38.85" y2="35.38"/><line class="cls-3" x1="35.71" y1="33.25" x2="39.21" y2="33.89"/><line class="cls-3" x1="49.96" y1="33.96" x2="51.9" y2="36.79"/><line class="cls-3" x1="51.1" y1="33.08" x2="53.19" y2="35.97"/><line class="cls-3" x1="63.39" y1="37.62" x2="66.02" y2="35.4"/><line class="cls-3" x1="62.41" y1="36.56" x2="65.07" y2="34.19"/><line class="cls-3" x1="55.34" y1="42.28" x2="58.06" y2="44.39"/><line class="cls-3" x1="56.17" y1="41.1" x2="59.04" y2="43.21"/><line class="cls-3" x1="43.34" y1="43.29" x2="46.5" y2="41.91"/><line class="cls-3" x1="42.71" y1="42" x2="45.94" y2="40.49"/><line class="cls-3" x1="32.6" y1="44.76" x2="32.5" y2="41.32"/><line class="cls-3" x1="31.16" y1="44.87" x2="30.96" y2="41.31"/><line class="cls-3" x1="11.06" y1="49.54" x2="13.82" y2="47.48"/><line class="cls-3" x1="10.14" y1="48.43" x2="12.95" y2="46.23"/><line class="cls-3" x1="3.58" y1="28.53" x2="5.93" y2="31.04"/><line class="cls-3" x1="4.58" y1="27.49" x2="7.08" y2="30.03"/><line class="cls-3" x1="49.95" y1="20.89" x2="50.99" y2="24.17"/><line class="cls-3" x1="51.3" y1="20.39" x2="52.46" y2="23.76"/><line class="cls-3" x1="56" y1="28.04" x2="58.31" y2="30.6"/><line class="cls-3" x1="57.02" y1="27.03" x2="59.48" y2="29.61"/><line class="cls-3" x1="55.33" y1="1.29" x2="52.9" y2="3.72"/><line class="cls-3" x1="56.4" y1="2.26" x2="53.94" y2="4.84"/><rect class="cls-1" x="-11.65" y="72.74" width="80.56" height="80.5"/><line class="cls-2" x1="12.43" y1="79.7" x2="12.43" y2="79.7"/><line class="cls-2" x1="5.56" y1="79.07" x2="5.56" y2="79.07"/><line class="cls-2" x1="8.68" y1="76.45" x2="8.68" y2="76.45"/><line class="cls-2" x1="1.62" y1="73.51" x2="1.62" y2="73.51"/><line class="cls-2" x1="4.93" y1="75.39" x2="4.93" y2="75.39"/><line class="cls-2" x1="2.43" y1="77.76" x2="2.43" y2="77.76"/><line class="cls-2" x1="31.43" y1="79.03" x2="31.43" y2="79.03"/><line class="cls-2" x1="35.1" y1="79.7" x2="35.1" y2="79.7"/><line class="cls-2" x1="35.43" y1="76.45" x2="35.43" y2="76.45"/><line class="cls-2" x1="20.43" y1="79.82" x2="20.43" y2="79.82"/><line class="cls-2" x1="21.81" y1="75.2" x2="21.81" y2="75.2"/><line class="cls-2" x1="28.37" y1="73.51" x2="28.37" y2="73.51"/><line class="cls-2" x1="31.68" y1="75.39" x2="31.68" y2="75.39"/><line class="cls-2" x1="17.87" y1="76.07" x2="17.87" y2="76.07"/><line class="cls-2" x1="14.56" y1="77.07" x2="14.56" y2="77.07"/><line class="cls-2" x1="13.68" y1="73.45" x2="13.68" y2="73.45"/><line class="cls-2" x1="16.37" y1="80.26" x2="16.37" y2="80.26"/><line class="cls-2" x1="27.77" y1="76.7" x2="27.77" y2="76.7"/><line class="cls-2" x1="23.93" y1="79.26" x2="23.93" y2="79.26"/><line class="cls-2" x1="50.81" y1="78.51" x2="50.81" y2="78.51"/><line class="cls-2" x1="47.1" y1="79.7" x2="47.1" y2="79.7"/><line class="cls-2" x1="47.68" y1="75.89" x2="47.68" y2="75.89"/><line class="cls-2" x1="43.93" y1="74.07" x2="43.93" y2="74.07"/><line class="cls-2" x1="41.31" y1="76.07" x2="41.31" y2="76.07"/><line class="cls-2" x1="44.43" y1="76.95" x2="44.43" y2="76.95"/><line class="cls-2" x1="42.27" y1="79.2" x2="42.27" y2="79.2"/><line class="cls-2" x1="39.18" y1="80.57" x2="39.18" y2="80.57"/><line class="cls-2" x1="66.56" y1="74.22" x2="66.56" y2="74.22"/><line class="cls-2" x1="61.31" y1="74.64" x2="61.31" y2="74.64"/><line class="cls-2" x1="54.68" y1="73.45" x2="54.68" y2="73.45"/><line class="cls-2" x1="57.06" y1="75.7" x2="57.06" y2="75.7"/><line class="cls-2" x1="66.06" y1="79.72" x2="66.06" y2="79.72"/><line class="cls-2" x1="64.18" y1="76.6" x2="64.18" y2="76.6"/><line class="cls-2" x1="53.93" y1="77.2" x2="53.93" y2="77.2"/><line class="cls-2" x1="59.18" y1="78.7" x2="59.18" y2="78.7"/><line class="cls-3" x1="-0.61" y1="74.47" x2="0.06" y2="77.97"/><line class="cls-3" x1="62.66" y1="77.57" x2="60.94" y2="80.55"/><line class="cls-3" x1="63.94" y1="78.23" x2="62.24" y2="81.36"/><line class="cls-3" x1="27.01" y1="76.48" x2="23.98" y2="74.84"/><line class="cls-3" x1="26.38" y1="77.78" x2="23.21" y2="76.16"/><line class="cls-3" x1="12.72" y1="75.02" x2="10.16" y2="77.31"/><line class="cls-3" x1="13.73" y1="76.04" x2="11.14" y2="78.49"/><line class="cls-3" x1="40.38" y1="75.63" x2="37.97" y2="73.17"/><line class="cls-3" x1="39.4" y1="76.68" x2="36.84" y2="74.2"/><line class="cls-3" x1="52.11" y1="73.72" x2="49.09" y2="75.35"/><line class="cls-3" x1="52.86" y1="74.95" x2="49.77" y2="76.72"/><rect class="cls-1" width="80.5" height="80.5"/></svg>