<svg id="Layer_1" data-name="Layer 1" xmlns="http://www.w3.org/2000/svg" width="85.06" height="85.04" viewBox="0 0 85.06 85.04"><defs><style>.cls-1,.cls-2{fill:none;}.cls-2{stroke:#000;stroke-width:0.3px;}</style></defs><title>Artboard 37</title><rect class="cls-1" x="78.97" y="-44.61" width="85.06" height="85.04"/><line class="cls-2" x1="81.66" y1="16.53" x2="86.99" y2="11.28"/><line class="cls-2" x1="83.76" y1="12.55" x2="85.7" y2="14.55"/><line class="cls-2" x1="82.89" y1="13.49" x2="84.82" y2="15.43"/><line class="cls-2" x1="81.66" y1="5.91" x2="86.99" y2="0.66"/><line class="cls-2" x1="83.76" y1="1.93" x2="85.7" y2="3.93"/><line class="cls-2" x1="82.89" y1="2.87" x2="84.82" y2="4.8"/><line class="cls-2" x1="81.66" y1="27.2" x2="86.99" y2="21.95"/><line class="cls-2" x1="83.76" y1="23.22" x2="85.7" y2="25.22"/><line class="cls-2" x1="82.89" y1="24.16" x2="84.82" y2="26.1"/><line class="cls-2" x1="81.66" y1="37.7" x2="86.99" y2="32.45"/><line class="cls-2" x1="83.76" y1="33.72" x2="85.7" y2="35.72"/><line class="cls-2" x1="82.89" y1="34.66" x2="84.82" y2="36.6"/><rect class="cls-1" x="78.97" y="40.43" width="85.06" height="85.04"/><line class="cls-2" x1="81.66" y1="59.03" x2="86.99" y2="53.78"/><line class="cls-2" x1="83.76" y1="55.05" x2="85.7" y2="57.05"/><line class="cls-2" x1="82.89" y1="55.99" x2="84.82" y2="57.93"/><line class="cls-2" x1="81.66" y1="48.41" x2="86.99" y2="43.16"/><line class="cls-2" x1="83.76" y1="44.43" x2="85.7" y2="46.43"/><line class="cls-2" x1="82.89" y1="45.37" x2="84.82" y2="47.3"/><line class="cls-2" x1="81.66" y1="69.7" x2="86.99" y2="64.45"/><line class="cls-2" x1="83.76" y1="65.72" x2="85.7" y2="67.72"/><line class="cls-2" x1="82.89" y1="66.66" x2="84.82" y2="68.6"/><line class="cls-2" x1="81.66" y1="80.2" x2="86.99" y2="74.95"/><line class="cls-2" x1="83.76" y1="76.22" x2="85.7" y2="78.22"/><line class="cls-2" x1="82.89" y1="77.16" x2="84.82" y2="79.1"/><rect class="cls-1" x="-6.09" y="-44.61" width="85.06" height="85.04"/><line class="cls-2" x1="17.81" y1="16.53" x2="23.14" y2="11.28"/><line class="cls-2" x1="19.91" y1="12.55" x2="21.85" y2="14.55"/><line class="cls-2" x1="19.04" y1="13.49" x2="20.97" y2="15.43"/><line class="cls-2" x1="28.47" y1="16.53" x2="33.81" y2="11.28"/><line class="cls-2" x1="30.58" y1="12.55" x2="32.52" y2="14.55"/><line class="cls-2" x1="29.7" y1="13.49" x2="31.64" y2="15.43"/><line class="cls-2" x1="7.22" y1="16.53" x2="12.56" y2="11.28"/><line class="cls-2" x1="9.33" y1="12.55" x2="11.27" y2="14.55"/><line class="cls-2" x1="8.45" y1="13.49" x2="10.39" y2="15.43"/><line class="cls-2" x1="-3.4" y1="16.53" x2="1.93" y2="11.28"/><line class="cls-2" x1="-1.3" y1="12.55" x2="0.64" y2="14.55"/><line class="cls-2" x1="17.81" y1="5.91" x2="23.14" y2="0.66"/><line class="cls-2" x1="19.91" y1="1.93" x2="21.85" y2="3.93"/><line class="cls-2" x1="19.04" y1="2.87" x2="20.97" y2="4.8"/><line class="cls-2" x1="28.47" y1="5.91" x2="33.81" y2="0.66"/><line class="cls-2" x1="30.58" y1="1.93" x2="32.52" y2="3.93"/><line class="cls-2" x1="29.7" y1="2.87" x2="31.64" y2="4.8"/><line class="cls-2" x1="7.22" y1="5.91" x2="12.56" y2="0.66"/><line class="cls-2" x1="9.33" y1="1.93" x2="11.27" y2="3.93"/><line class="cls-2" x1="8.45" y1="2.87" x2="10.39" y2="4.8"/><line class="cls-2" x1="-3.4" y1="5.91" x2="1.93" y2="0.66"/><line class="cls-2" x1="-1.3" y1="1.93" x2="0.64" y2="3.93"/><line class="cls-2" x1="17.81" y1="27.2" x2="23.14" y2="21.95"/><line class="cls-2" x1="19.91" y1="23.22" x2="21.85" y2="25.22"/><line class="cls-2" x1="19.04" y1="24.16" x2="20.97" y2="26.1"/><line class="cls-2" x1="28.47" y1="27.2" x2="33.81" y2="21.95"/><line class="cls-2" x1="30.58" y1="23.22" x2="32.52" y2="25.22"/><line class="cls-2" x1="29.7" y1="24.16" x2="31.64" y2="26.1"/><line class="cls-2" x1="7.22" y1="27.2" x2="12.56" y2="21.95"/><line class="cls-2" x1="9.33" y1="23.22" x2="11.27" y2="25.22"/><line class="cls-2" x1="8.45" y1="24.16" x2="10.39" y2="26.1"/><line class="cls-2" x1="-3.4" y1="27.2" x2="1.93" y2="21.95"/><line class="cls-2" x1="-1.3" y1="23.22" x2="0.64" y2="25.22"/><line class="cls-2" x1="17.81" y1="37.7" x2="23.14" y2="32.45"/><line class="cls-2" x1="19.91" y1="33.72" x2="21.85" y2="35.72"/><line class="cls-2" x1="19.04" y1="34.66" x2="20.97" y2="36.6"/><line class="cls-2" x1="28.47" y1="37.7" x2="33.81" y2="32.45"/><line class="cls-2" x1="30.58" y1="33.72" x2="32.52" y2="35.72"/><line class="cls-2" x1="29.7" y1="34.66" x2="31.64" y2="36.6"/><line class="cls-2" x1="7.22" y1="37.7" x2="12.56" y2="32.45"/><line class="cls-2" x1="9.33" y1="33.72" x2="11.27" y2="35.72"/><line class="cls-2" x1="8.45" y1="34.66" x2="10.39" y2="36.6"/><line class="cls-2" x1="-3.4" y1="37.7" x2="1.93" y2="32.45"/><line class="cls-2" x1="-1.3" y1="33.72" x2="0.64" y2="35.72"/><line class="cls-2" x1="60.37" y1="16.53" x2="65.7" y2="11.28"/><line class="cls-2" x1="62.47" y1="12.55" x2="64.41" y2="14.55"/><line class="cls-2" x1="61.59" y1="13.49" x2="63.53" y2="15.43"/><line class="cls-2" x1="71.03" y1="16.53" x2="76.37" y2="11.28"/><line class="cls-2" x1="73.14" y1="12.55" x2="75.07" y2="14.55"/><line class="cls-2" x1="72.26" y1="13.49" x2="74.2" y2="15.43"/><line class="cls-2" x1="49.78" y1="16.53" x2="55.12" y2="11.28"/><line class="cls-2" x1="51.89" y1="12.55" x2="53.82" y2="14.55"/><line class="cls-2" x1="51.01" y1="13.49" x2="52.95" y2="15.43"/><line class="cls-2" x1="39.16" y1="16.53" x2="44.49" y2="11.28"/><line class="cls-2" x1="41.26" y1="12.55" x2="43.2" y2="14.55"/><line class="cls-2" x1="40.39" y1="13.49" x2="42.32" y2="15.43"/><line class="cls-2" x1="60.37" y1="5.91" x2="65.7" y2="0.66"/><line class="cls-2" x1="62.47" y1="1.93" x2="64.41" y2="3.93"/><line class="cls-2" x1="61.59" y1="2.87" x2="63.53" y2="4.8"/><line class="cls-2" x1="71.03" y1="5.91" x2="76.37" y2="0.66"/><line class="cls-2" x1="73.14" y1="1.93" x2="75.07" y2="3.93"/><line class="cls-2" x1="72.26" y1="2.87" x2="74.2" y2="4.8"/><line class="cls-2" x1="49.78" y1="5.91" x2="55.12" y2="0.66"/><line class="cls-2" x1="51.89" y1="1.93" x2="53.82" y2="3.93"/><line class="cls-2" x1="51.01" y1="2.87" x2="52.95" y2="4.8"/><line class="cls-2" x1="39.16" y1="5.91" x2="44.49" y2="0.66"/><line class="cls-2" x1="41.26" y1="1.93" x2="43.2" y2="3.93"/><line class="cls-2" x1="40.39" y1="2.87" x2="42.32" y2="4.8"/><line class="cls-2" x1="60.37" y1="27.2" x2="65.7" y2="21.95"/><line class="cls-2" x1="62.47" y1="23.22" x2="64.41" y2="25.22"/><line class="cls-2" x1="61.59" y1="24.16" x2="63.53" y2="26.1"/><line class="cls-2" x1="71.03" y1="27.2" x2="76.37" y2="21.95"/><line class="cls-2" x1="73.14" y1="23.22" x2="75.07" y2="25.22"/><line class="cls-2" x1="72.26" y1="24.16" x2="74.2" y2="26.1"/><line class="cls-2" x1="49.78" y1="27.2" x2="55.12" y2="21.95"/><line class="cls-2" x1="51.89" y1="23.22" x2="53.82" y2="25.22"/><line class="cls-2" x1="51.01" y1="24.16" x2="52.95" y2="26.1"/><line class="cls-2" x1="39.16" y1="27.2" x2="44.49" y2="21.95"/><line class="cls-2" x1="41.26" y1="23.22" x2="43.2" y2="25.22"/><line class="cls-2" x1="40.39" y1="24.16" x2="42.32" y2="26.1"/><line class="cls-2" x1="60.37" y1="37.7" x2="65.7" y2="32.45"/><line class="cls-2" x1="62.47" y1="33.72" x2="64.41" y2="35.72"/><line class="cls-2" x1="61.59" y1="34.66" x2="63.53" y2="36.6"/><line class="cls-2" x1="71.03" y1="37.7" x2="76.37" y2="32.45"/><line class="cls-2" x1="73.14" y1="33.72" x2="75.07" y2="35.72"/><line class="cls-2" x1="72.26" y1="34.66" x2="74.2" y2="36.6"/><line class="cls-2" x1="49.78" y1="37.7" x2="55.12" y2="32.45"/><line class="cls-2" x1="51.89" y1="33.72" x2="53.82" y2="35.72"/><line class="cls-2" x1="51.01" y1="34.66" x2="52.95" y2="36.6"/><line class="cls-2" x1="39.16" y1="37.7" x2="44.49" y2="32.45"/><line class="cls-2" x1="41.26" y1="33.72" x2="43.2" y2="35.72"/><line class="cls-2" x1="40.39" y1="34.66" x2="42.32" y2="36.6"/><rect class="cls-1" x="-6.09" y="40.43" width="85.06" height="85.04"/><line class="cls-2" x1="17.81" y1="59.03" x2="23.14" y2="53.78"/><line class="cls-2" x1="19.91" y1="55.05" x2="21.85" y2="57.05"/><line class="cls-2" x1="19.04" y1="55.99" x2="20.97" y2="57.93"/><line class="cls-2" x1="28.47" y1="59.03" x2="33.81" y2="53.78"/><line class="cls-2" x1="30.58" y1="55.05" x2="32.52" y2="57.05"/><line class="cls-2" x1="29.7" y1="55.99" x2="31.64" y2="57.93"/><line class="cls-2" x1="7.22" y1="59.03" x2="12.56" y2="53.78"/><line class="cls-2" x1="9.33" y1="55.05" x2="11.27" y2="57.05"/><line class="cls-2" x1="8.45" y1="55.99" x2="10.39" y2="57.93"/><line class="cls-2" x1="-3.4" y1="59.03" x2="1.93" y2="53.78"/><line class="cls-2" x1="-1.3" y1="55.05" x2="0.64" y2="57.05"/><line class="cls-2" x1="17.81" y1="48.41" x2="23.14" y2="43.16"/><line class="cls-2" x1="19.91" y1="44.43" x2="21.85" y2="46.43"/><line class="cls-2" x1="19.04" y1="45.37" x2="20.97" y2="47.3"/><line class="cls-2" x1="28.47" y1="48.41" x2="33.81" y2="43.16"/><line class="cls-2" x1="30.58" y1="44.43" x2="32.52" y2="46.43"/><line class="cls-2" x1="29.7" y1="45.37" x2="31.64" y2="47.3"/><line class="cls-2" x1="7.22" y1="48.41" x2="12.56" y2="43.16"/><line class="cls-2" x1="9.33" y1="44.43" x2="11.27" y2="46.43"/><line class="cls-2" x1="8.45" y1="45.37" x2="10.39" y2="47.3"/><line class="cls-2" x1="-3.4" y1="48.41" x2="1.93" y2="43.16"/><line class="cls-2" x1="-1.3" y1="44.43" x2="0.64" y2="46.43"/><line class="cls-2" x1="17.81" y1="69.7" x2="23.14" y2="64.45"/><line class="cls-2" x1="19.91" y1="65.72" x2="21.85" y2="67.72"/><line class="cls-2" x1="19.04" y1="66.66" x2="20.97" y2="68.6"/><line class="cls-2" x1="28.47" y1="69.7" x2="33.81" y2="64.45"/><line class="cls-2" x1="30.58" y1="65.72" x2="32.52" y2="67.72"/><line class="cls-2" x1="29.7" y1="66.66" x2="31.64" y2="68.6"/><line class="cls-2" x1="7.22" y1="69.7" x2="12.56" y2="64.45"/><line class="cls-2" x1="9.33" y1="65.72" x2="11.27" y2="67.72"/><line class="cls-2" x1="8.45" y1="66.66" x2="10.39" y2="68.6"/><line class="cls-2" x1="-3.4" y1="69.7" x2="1.93" y2="64.45"/><line class="cls-2" x1="-1.3" y1="65.72" x2="0.64" y2="67.72"/><line class="cls-2" x1="17.81" y1="80.2" x2="23.14" y2="74.95"/><line class="cls-2" x1="19.91" y1="76.22" x2="21.85" y2="78.22"/><line class="cls-2" x1="19.04" y1="77.16" x2="20.97" y2="79.1"/><line class="cls-2" x1="28.47" y1="80.2" x2="33.81" y2="74.95"/><line class="cls-2" x1="30.58" y1="76.22" x2="32.52" y2="78.22"/><line class="cls-2" x1="29.7" y1="77.16" x2="31.64" y2="79.1"/><line class="cls-2" x1="7.22" y1="80.2" x2="12.56" y2="74.95"/><line class="cls-2" x1="9.33" y1="76.22" x2="11.27" y2="78.22"/><line class="cls-2" x1="8.45" y1="77.16" x2="10.39" y2="79.1"/><line class="cls-2" x1="-3.4" y1="80.2" x2="1.93" y2="74.95"/><line class="cls-2" x1="-1.3" y1="76.22" x2="0.64" y2="78.22"/><line class="cls-2" x1="60.37" y1="59.03" x2="65.7" y2="53.78"/><line class="cls-2" x1="62.47" y1="55.05" x2="64.41" y2="57.05"/><line class="cls-2" x1="61.59" y1="55.99" x2="63.53" y2="57.93"/><line class="cls-2" x1="71.03" y1="59.03" x2="76.37" y2="53.78"/><line class="cls-2" x1="73.14" y1="55.05" x2="75.07" y2="57.05"/><line class="cls-2" x1="72.26" y1="55.99" x2="74.2" y2="57.93"/><line class="cls-2" x1="49.78" y1="59.03" x2="55.12" y2="53.78"/><line class="cls-2" x1="51.89" y1="55.05" x2="53.82" y2="57.05"/><line class="cls-2" x1="51.01" y1="55.99" x2="52.95" y2="57.93"/><line class="cls-2" x1="39.16" y1="59.03" x2="44.49" y2="53.78"/><line class="cls-2" x1="41.26" y1="55.05" x2="43.2" y2="57.05"/><line class="cls-2" x1="40.39" y1="55.99" x2="42.32" y2="57.93"/><line class="cls-2" x1="60.37" y1="48.41" x2="65.7" y2="43.16"/><line class="cls-2" x1="62.47" y1="44.43" x2="64.41" y2="46.43"/><line class="cls-2" x1="61.59" y1="45.37" x2="63.53" y2="47.3"/><line class="cls-2" x1="71.03" y1="48.41" x2="76.37" y2="43.16"/><line class="cls-2" x1="73.14" y1="44.43" x2="75.07" y2="46.43"/><line class="cls-2" x1="72.26" y1="45.37" x2="74.2" y2="47.3"/><line class="cls-2" x1="49.78" y1="48.41" x2="55.12" y2="43.16"/><line class="cls-2" x1="51.89" y1="44.43" x2="53.82" y2="46.43"/><line class="cls-2" x1="51.01" y1="45.37" x2="52.95" y2="47.3"/><line class="cls-2" x1="39.16" y1="48.41" x2="44.49" y2="43.16"/><line class="cls-2" x1="41.26" y1="44.43" x2="43.2" y2="46.43"/><line class="cls-2" x1="40.39" y1="45.37" x2="42.32" y2="47.3"/><line class="cls-2" x1="60.37" y1="69.7" x2="65.7" y2="64.45"/><line class="cls-2" x1="62.47" y1="65.72" x2="64.41" y2="67.72"/><line class="cls-2" x1="61.59" y1="66.66" x2="63.53" y2="68.6"/><line class="cls-2" x1="71.03" y1="69.7" x2="76.37" y2="64.45"/><line class="cls-2" x1="73.14" y1="65.72" x2="75.07" y2="67.72"/><line class="cls-2" x1="72.26" y1="66.66" x2="74.2" y2="68.6"/><line class="cls-2" x1="49.78" y1="69.7" x2="55.12" y2="64.45"/><line class="cls-2" x1="51.89" y1="65.72" x2="53.82" y2="67.72"/><line class="cls-2" x1="51.01" y1="66.66" x2="52.95" y2="68.6"/><line class="cls-2" x1="39.16" y1="69.7" x2="44.49" y2="64.45"/><line class="cls-2" x1="41.26" y1="65.72" x2="43.2" y2="67.72"/><line class="cls-2" x1="40.39" y1="66.66" x2="42.32" y2="68.6"/><line class="cls-2" x1="60.37" y1="80.2" x2="65.7" y2="74.95"/><line class="cls-2" x1="62.47" y1="76.22" x2="64.41" y2="78.22"/><line class="cls-2" x1="61.59" y1="77.16" x2="63.53" y2="79.1"/><line class="cls-2" x1="71.03" y1="80.2" x2="76.37" y2="74.95"/><line class="cls-2" x1="73.14" y1="76.22" x2="75.07" y2="78.22"/><line class="cls-2" x1="72.26" y1="77.16" x2="74.2" y2="79.1"/><line class="cls-2" x1="49.78" y1="80.2" x2="55.12" y2="74.95"/><line class="cls-2" x1="51.89" y1="76.22" x2="53.82" y2="78.22"/><line class="cls-2" x1="51.01" y1="77.16" x2="52.95" y2="79.1"/><line class="cls-2" x1="39.16" y1="80.2" x2="44.49" y2="74.95"/><line class="cls-2" x1="41.26" y1="76.22" x2="43.2" y2="78.22"/><line class="cls-2" x1="40.39" y1="77.16" x2="42.32" y2="79.1"/><rect class="cls-1" width="85.04" height="85.04"/></svg>