<!-- Generator: Adobe Illustrator 22.1.0, SVG Export Plug-In  -->
<svg version="1.1"
     xmlns="http://www.w3.org/2000/svg" xmlns:xlink="http://www.w3.org/1999/xlink" xmlns:a="http://ns.adobe.com/AdobeSVGViewerExtensions/3.0/"
     x="0px" y="0px" width="80px" height="79.8px" viewBox="0 0 80 79.8" style="enable-background:new 0 0 80 79.8;"
     xml:space="preserve">
<style type="text/css">
    .st0{fill:none;stroke:#000000;stroke-width:0.3;}
</style>
<defs>
</defs>
<line class="st0" x1="21.3" y1="16" x2="26.6" y2="10.7"/>
<line class="st0" x1="23.4" y1="12" x2="25.4" y2="14"/>
<line class="st0" x1="22.5" y1="12.9" x2="24.5" y2="14.9"/>
<line class="st0" x1="32" y1="16" x2="37.3" y2="10.7"/>
<line class="st0" x1="34.1" y1="12" x2="36" y2="14"/>
<line class="st0" x1="33.2" y1="12.9" x2="35.1" y2="14.9"/>
<line class="st0" x1="10.7" y1="16" x2="16.1" y2="10.7"/>
<line class="st0" x1="12.8" y1="12" x2="14.8" y2="14"/>
<line class="st0" x1="12" y1="12.9" x2="13.9" y2="14.9"/>
<line class="st0" x1="0.1" y1="16" x2="5.4" y2="10.7"/>
<line class="st0" x1="2.2" y1="12" x2="4.1" y2="14"/>
<line class="st0" x1="1.3" y1="12.9" x2="3.3" y2="14.9"/>
<line class="st0" x1="21.3" y1="5.4" x2="26.6" y2="0.1"/>
<line class="st0" x1="23.4" y1="1.4" x2="25.4" y2="3.4"/>
<line class="st0" x1="22.5" y1="2.3" x2="24.5" y2="4.3"/>
<line class="st0" x1="32" y1="5.4" x2="37.3" y2="0.1"/>
<line class="st0" x1="34.1" y1="1.4" x2="36" y2="3.4"/>
<line class="st0" x1="33.2" y1="2.3" x2="35.1" y2="4.3"/>
<line class="st0" x1="10.7" y1="5.4" x2="16.1" y2="0.1"/>
<line class="st0" x1="12.8" y1="1.4" x2="14.8" y2="3.4"/>
<line class="st0" x1="12" y1="2.3" x2="13.9" y2="4.3"/>
<line class="st0" x1="0.1" y1="5.4" x2="5.4" y2="0.1"/>
<line class="st0" x1="2.2" y1="1.4" x2="4.1" y2="3.4"/>
<line class="st0" x1="1.3" y1="2.3" x2="3.3" y2="4.3"/>
<line class="st0" x1="21.3" y1="26.6" x2="26.6" y2="21.4"/>
<line class="st0" x1="23.4" y1="22.7" x2="25.4" y2="24.7"/>
<line class="st0" x1="22.5" y1="23.6" x2="24.5" y2="25.5"/>
<line class="st0" x1="32" y1="26.6" x2="37.3" y2="21.4"/>
<line class="st0" x1="34.1" y1="22.7" x2="36" y2="24.7"/>
<line class="st0" x1="33.2" y1="23.6" x2="35.1" y2="25.5"/>
<line class="st0" x1="10.7" y1="26.6" x2="16.1" y2="21.4"/>
<line class="st0" x1="12.8" y1="22.7" x2="14.8" y2="24.7"/>
<line class="st0" x1="12" y1="23.6" x2="13.9" y2="25.5"/>
<line class="st0" x1="0.1" y1="26.6" x2="5.4" y2="21.4"/>
<line class="st0" x1="2.2" y1="22.7" x2="4.1" y2="24.7"/>
<line class="st0" x1="1.3" y1="23.6" x2="3.3" y2="25.5"/>
<line class="st0" x1="21.3" y1="37.1" x2="26.6" y2="31.9"/>
<line class="st0" x1="23.4" y1="33.2" x2="25.4" y2="35.2"/>
<line class="st0" x1="22.5" y1="34.1" x2="24.5" y2="36"/>
<line class="st0" x1="32" y1="37.1" x2="37.3" y2="31.9"/>
<line class="st0" x1="34.1" y1="33.2" x2="36" y2="35.2"/>
<line class="st0" x1="33.2" y1="34.1" x2="35.1" y2="36"/>
<line class="st0" x1="10.7" y1="37.1" x2="16.1" y2="31.9"/>
<line class="st0" x1="12.8" y1="33.2" x2="14.8" y2="35.2"/>
<line class="st0" x1="12" y1="34.1" x2="13.9" y2="36"/>
<line class="st0" x1="0.1" y1="37.1" x2="5.4" y2="31.9"/>
<line class="st0" x1="2.2" y1="33.2" x2="4.1" y2="35.2"/>
<line class="st0" x1="1.3" y1="34.1" x2="3.3" y2="36"/>
<line class="st0" x1="63.9" y1="16" x2="69.2" y2="10.7"/>
<line class="st0" x1="66" y1="12" x2="67.9" y2="14"/>
<line class="st0" x1="65.1" y1="12.9" x2="67" y2="14.9"/>
<line class="st0" x1="74.5" y1="16" x2="79.9" y2="10.7"/>
<line class="st0" x1="76.6" y1="12" x2="78.6" y2="14"/>
<line class="st0" x1="75.8" y1="12.9" x2="77.7" y2="14.9"/>
<line class="st0" x1="53.3" y1="16" x2="58.6" y2="10.7"/>
<line class="st0" x1="55.4" y1="12" x2="57.3" y2="14"/>
<line class="st0" x1="54.5" y1="12.9" x2="56.5" y2="14.9"/>
<line class="st0" x1="42.7" y1="16" x2="48" y2="10.7"/>
<line class="st0" x1="44.8" y1="12" x2="46.7" y2="14"/>
<line class="st0" x1="43.9" y1="12.9" x2="45.8" y2="14.9"/>
<line class="st0" x1="63.9" y1="5.4" x2="69.2" y2="0.1"/>
<line class="st0" x1="66" y1="1.4" x2="67.9" y2="3.4"/>
<line class="st0" x1="65.1" y1="2.3" x2="67" y2="4.3"/>
<line class="st0" x1="74.5" y1="5.4" x2="79.9" y2="0.1"/>
<line class="st0" x1="76.6" y1="1.4" x2="78.6" y2="3.4"/>
<line class="st0" x1="75.8" y1="2.3" x2="77.7" y2="4.3"/>
<line class="st0" x1="53.3" y1="5.4" x2="58.6" y2="0.1"/>
<line class="st0" x1="55.4" y1="1.4" x2="57.3" y2="3.4"/>
<line class="st0" x1="54.5" y1="2.3" x2="56.5" y2="4.3"/>
<line class="st0" x1="42.7" y1="5.4" x2="48" y2="0.1"/>
<line class="st0" x1="44.8" y1="1.4" x2="46.7" y2="3.4"/>
<line class="st0" x1="43.9" y1="2.3" x2="45.8" y2="4.3"/>
<line class="st0" x1="63.9" y1="26.6" x2="69.2" y2="21.4"/>
<line class="st0" x1="66" y1="22.7" x2="67.9" y2="24.7"/>
<line class="st0" x1="65.1" y1="23.6" x2="67" y2="25.5"/>
<line class="st0" x1="74.5" y1="26.6" x2="79.9" y2="21.4"/>
<line class="st0" x1="76.6" y1="22.7" x2="78.6" y2="24.7"/>
<line class="st0" x1="75.8" y1="23.6" x2="77.7" y2="25.5"/>
<line class="st0" x1="53.3" y1="26.6" x2="58.6" y2="21.4"/>
<line class="st0" x1="55.4" y1="22.7" x2="57.3" y2="24.7"/>
<line class="st0" x1="54.5" y1="23.6" x2="56.5" y2="25.5"/>
<line class="st0" x1="42.7" y1="26.6" x2="48" y2="21.4"/>
<line class="st0" x1="44.8" y1="22.7" x2="46.7" y2="24.7"/>
<line class="st0" x1="43.9" y1="23.6" x2="45.8" y2="25.5"/>
<line class="st0" x1="63.9" y1="37.1" x2="69.2" y2="31.9"/>
<line class="st0" x1="66" y1="33.2" x2="67.9" y2="35.2"/>
<line class="st0" x1="65.1" y1="34.1" x2="67" y2="36"/>
<line class="st0" x1="74.5" y1="37.1" x2="79.9" y2="31.9"/>
<line class="st0" x1="76.6" y1="33.2" x2="78.6" y2="35.2"/>
<line class="st0" x1="75.8" y1="34.1" x2="77.7" y2="36"/>
<line class="st0" x1="53.3" y1="37.1" x2="58.6" y2="31.9"/>
<line class="st0" x1="55.4" y1="33.2" x2="57.3" y2="35.2"/>
<line class="st0" x1="54.5" y1="34.1" x2="56.5" y2="36"/>
<line class="st0" x1="42.7" y1="37.1" x2="48" y2="31.9"/>
<line class="st0" x1="44.8" y1="33.2" x2="46.7" y2="35.2"/>
<line class="st0" x1="43.9" y1="34.1" x2="45.8" y2="36"/>
<line class="st0" x1="21.3" y1="58.5" x2="26.6" y2="53.3"/>
<line class="st0" x1="23.4" y1="54.5" x2="25.4" y2="56.5"/>
<line class="st0" x1="22.5" y1="55.5" x2="24.5" y2="57.4"/>
<line class="st0" x1="32" y1="58.5" x2="37.3" y2="53.3"/>
<line class="st0" x1="34.1" y1="54.5" x2="36" y2="56.5"/>
<line class="st0" x1="33.2" y1="55.5" x2="35.1" y2="57.4"/>
<line class="st0" x1="10.7" y1="58.5" x2="16.1" y2="53.3"/>
<line class="st0" x1="12.8" y1="54.5" x2="14.8" y2="56.5"/>
<line class="st0" x1="12" y1="55.5" x2="13.9" y2="57.4"/>
<line class="st0" x1="0.1" y1="58.5" x2="5.4" y2="53.3"/>
<line class="st0" x1="2.2" y1="54.5" x2="4.1" y2="56.5"/>
<line class="st0" x1="1.3" y1="55.5" x2="3.3" y2="57.4"/>
<line class="st0" x1="21.3" y1="47.9" x2="26.6" y2="42.6"/>
<line class="st0" x1="23.4" y1="43.9" x2="25.4" y2="45.9"/>
<line class="st0" x1="22.5" y1="44.9" x2="24.5" y2="46.8"/>
<line class="st0" x1="32" y1="47.9" x2="37.3" y2="42.6"/>
<line class="st0" x1="34.1" y1="43.9" x2="36" y2="45.9"/>
<line class="st0" x1="33.2" y1="44.9" x2="35.1" y2="46.8"/>
<line class="st0" x1="10.7" y1="47.9" x2="16.1" y2="42.6"/>
<line class="st0" x1="12.8" y1="43.9" x2="14.8" y2="45.9"/>
<line class="st0" x1="12" y1="44.9" x2="13.9" y2="46.8"/>
<line class="st0" x1="0.1" y1="47.9" x2="5.4" y2="42.6"/>
<line class="st0" x1="2.2" y1="43.9" x2="4.1" y2="45.9"/>
<line class="st0" x1="1.3" y1="44.9" x2="3.3" y2="46.8"/>
<line class="st0" x1="21.3" y1="69.2" x2="26.6" y2="63.9"/>
<line class="st0" x1="23.4" y1="65.2" x2="25.4" y2="67.2"/>
<line class="st0" x1="22.5" y1="66.1" x2="24.5" y2="68.1"/>
<line class="st0" x1="32" y1="69.2" x2="37.3" y2="63.9"/>
<line class="st0" x1="34.1" y1="65.2" x2="36" y2="67.2"/>
<line class="st0" x1="33.2" y1="66.1" x2="35.1" y2="68.1"/>
<line class="st0" x1="10.7" y1="69.2" x2="16.1" y2="63.9"/>
<line class="st0" x1="12.8" y1="65.2" x2="14.8" y2="67.2"/>
<line class="st0" x1="12" y1="66.1" x2="13.9" y2="68.1"/>
<line class="st0" x1="0.1" y1="69.2" x2="5.4" y2="63.9"/>
<line class="st0" x1="2.2" y1="65.2" x2="4.1" y2="67.2"/>
<line class="st0" x1="1.3" y1="66.1" x2="3.3" y2="68.1"/>
<line class="st0" x1="21.3" y1="79.7" x2="26.6" y2="74.4"/>
<line class="st0" x1="23.4" y1="75.7" x2="25.4" y2="77.7"/>
<line class="st0" x1="22.5" y1="76.6" x2="24.5" y2="78.6"/>
<line class="st0" x1="32" y1="79.7" x2="37.3" y2="74.4"/>
<line class="st0" x1="34.1" y1="75.7" x2="36" y2="77.7"/>
<line class="st0" x1="33.2" y1="76.6" x2="35.1" y2="78.6"/>
<line class="st0" x1="10.7" y1="79.7" x2="16.1" y2="74.4"/>
<line class="st0" x1="12.8" y1="75.7" x2="14.8" y2="77.7"/>
<line class="st0" x1="12" y1="76.6" x2="13.9" y2="78.6"/>
<line class="st0" x1="0.1" y1="79.7" x2="5.4" y2="74.4"/>
<line class="st0" x1="2.2" y1="75.7" x2="4.1" y2="77.7"/>
<line class="st0" x1="1.3" y1="76.6" x2="3.3" y2="78.6"/>
<line class="st0" x1="63.9" y1="58.5" x2="69.2" y2="53.3"/>
<line class="st0" x1="66" y1="54.5" x2="67.9" y2="56.5"/>
<line class="st0" x1="65.1" y1="55.5" x2="67" y2="57.4"/>
<line class="st0" x1="74.5" y1="58.5" x2="79.9" y2="53.3"/>
<line class="st0" x1="76.6" y1="54.5" x2="78.6" y2="56.5"/>
<line class="st0" x1="75.8" y1="55.5" x2="77.7" y2="57.4"/>
<line class="st0" x1="53.3" y1="58.5" x2="58.6" y2="53.3"/>
<line class="st0" x1="55.4" y1="54.5" x2="57.3" y2="56.5"/>
<line class="st0" x1="54.5" y1="55.5" x2="56.5" y2="57.4"/>
<line class="st0" x1="42.7" y1="58.5" x2="48" y2="53.3"/>
<line class="st0" x1="44.8" y1="54.5" x2="46.7" y2="56.5"/>
<line class="st0" x1="43.9" y1="55.5" x2="45.8" y2="57.4"/>
<line class="st0" x1="63.9" y1="47.9" x2="69.2" y2="42.6"/>
<line class="st0" x1="66" y1="43.9" x2="67.9" y2="45.9"/>
<line class="st0" x1="65.1" y1="44.9" x2="67" y2="46.8"/>
<line class="st0" x1="74.5" y1="47.9" x2="79.9" y2="42.6"/>
<line class="st0" x1="76.6" y1="43.9" x2="78.6" y2="45.9"/>
<line class="st0" x1="75.8" y1="44.9" x2="77.7" y2="46.8"/>
<line class="st0" x1="53.3" y1="47.9" x2="58.6" y2="42.6"/>
<line class="st0" x1="55.4" y1="43.9" x2="57.3" y2="45.9"/>
<line class="st0" x1="54.5" y1="44.9" x2="56.5" y2="46.8"/>
<line class="st0" x1="42.7" y1="47.9" x2="48" y2="42.6"/>
<line class="st0" x1="44.8" y1="43.9" x2="46.7" y2="45.9"/>
<line class="st0" x1="43.9" y1="44.9" x2="45.8" y2="46.8"/>
<line class="st0" x1="63.9" y1="69.2" x2="69.2" y2="63.9"/>
<line class="st0" x1="66" y1="65.2" x2="67.9" y2="67.2"/>
<line class="st0" x1="65.1" y1="66.1" x2="67" y2="68.1"/>
<line class="st0" x1="74.5" y1="69.2" x2="79.9" y2="63.9"/>
<line class="st0" x1="76.6" y1="65.2" x2="78.6" y2="67.2"/>
<line class="st0" x1="75.8" y1="66.1" x2="77.7" y2="68.1"/>
<line class="st0" x1="53.3" y1="69.2" x2="58.6" y2="63.9"/>
<line class="st0" x1="55.4" y1="65.2" x2="57.3" y2="67.2"/>
<line class="st0" x1="54.5" y1="66.1" x2="56.5" y2="68.1"/>
<line class="st0" x1="42.7" y1="69.2" x2="48" y2="63.9"/>
<line class="st0" x1="44.8" y1="65.2" x2="46.7" y2="67.2"/>
<line class="st0" x1="43.9" y1="66.1" x2="45.8" y2="68.1"/>
<line class="st0" x1="63.9" y1="79.7" x2="69.2" y2="74.4"/>
<line class="st0" x1="66" y1="75.7" x2="67.9" y2="77.7"/>
<line class="st0" x1="65.1" y1="76.6" x2="67" y2="78.6"/>
<line class="st0" x1="74.5" y1="79.7" x2="79.9" y2="74.4"/>
<line class="st0" x1="76.6" y1="75.7" x2="78.6" y2="77.7"/>
<line class="st0" x1="75.8" y1="76.6" x2="77.7" y2="78.6"/>
<line class="st0" x1="53.3" y1="79.7" x2="58.6" y2="74.4"/>
<line class="st0" x1="55.4" y1="75.7" x2="57.3" y2="77.7"/>
<line class="st0" x1="54.5" y1="76.6" x2="56.5" y2="78.6"/>
<line class="st0" x1="42.7" y1="79.7" x2="48" y2="74.4"/>
<line class="st0" x1="44.8" y1="75.7" x2="46.7" y2="77.7"/>
<line class="st0" x1="43.9" y1="76.6" x2="45.8" y2="78.6"/>
</svg>
