<svg id="Layer_1" data-name="Layer 1" xmlns="http://www.w3.org/2000/svg" width="54.25" height="54.5" viewBox="0 0 54.25 54.5"><defs><style>.cls-1,.cls-2{fill:none;}.cls-2{stroke:#231f20;stroke-width:0.3px;}</style></defs><title>Artboard 37</title><rect class="cls-1" x="53.6" y="-34.18" width="54.25" height="54.25"/><line class="cls-2" x1="55.09" y1="38.86" x2="54.08" y2="34.05"/><rect class="cls-1" x="53.6" y="20.07" width="54.25" height="54.25"/><line class="cls-2" x1="29.4" y1="14.74" x2="33.87" y2="16.94"/><line class="cls-2" x1="33.1" y1="18.07" x2="28.81" y2="15.79"/><line class="cls-2" x1="40.19" y1="0.93" x2="44.13" y2="-2.01"/><line class="cls-2" x1="40.96" y1="1.86" x2="44.98" y2="-0.88"/><line class="cls-2" x1="39.94" y1="5.8" x2="43.12" y2="9.2"/><line class="cls-2" x1="42.27" y1="10.24" x2="39.02" y2="6.82"/><line class="cls-2" x1="8.33" y1="15.17" x2="11.52" y2="18.58"/><line class="cls-2" x1="10.66" y1="19.61" x2="7.42" y2="16.19"/><line class="cls-2" x1="37.34" y1="10.2" x2="36.94" y2="14.91"/><line class="cls-2" x1="36.19" y1="10.22" x2="35.66" y2="14.9"/><line class="cls-2" x1="32.85" y1="7.8" x2="29.21" y2="11.19"/><line class="cls-2" x1="32.09" y1="6.88" x2="28.42" y2="10.07"/><line class="cls-2" x1="32.35" y1="4.4" x2="28.63" y2="1.4"/><line class="cls-2" x1="33.14" y1="3.36" x2="29.5" y2="0.3"/><line class="cls-2" x1="37.07" y1="-3.66" x2="36.84" y2="1.55"/><line class="cls-2" x1="35.7" y1="1.37" x2="35.86" y2="-3.57"/><line class="cls-2" x1="14.52" y1="3.87" x2="11.38" y2="0.09"/><line class="cls-2" x1="12.48" y1="-0.82" x2="15.41" y2="3.06"/><line class="cls-2" x1="22.18" y1="0.21" x2="18.94" y2="3.55"/><line class="cls-2" x1="20" y1="4.42" x2="23.26" y2="1.01"/><line class="cls-2" x1="27.21" y1="5.7" x2="22.49" y2="5.53"/><line class="cls-2" x1="22.56" y1="6.68" x2="27.26" y2="6.98"/><line class="cls-2" x1="21.92" y1="15.95" x2="17.21" y2="15.77"/><line class="cls-2" x1="21.98" y1="17.22" x2="17.28" y2="16.92"/><line class="cls-2" x1="20.06" y1="8.22" x2="23.62" y2="11.7"/><line class="cls-2" x1="19.17" y1="9.03" x2="22.54" y2="12.54"/><line class="cls-2" x1="17.07" y1="9.03" x2="14.25" y2="12.89"/><line class="cls-2" x1="15.99" y1="8.29" x2="13.11" y2="12.08"/><line class="cls-2" x1="14.3" y1="6.05" x2="9.09" y2="6.07"/><line class="cls-2" x1="9.24" y1="7.28" x2="14.19" y2="7.19"/><line class="cls-2" x1="6.2" y1="3.42" x2="2.05" y2="5.54"/><line class="cls-2" x1="6.96" y1="4.53" x2="2.77" y2="6.7"/><line class="cls-2" x1="8.69" y1="11.03" x2="4.28" y2="9.34"/><line class="cls-2" x1="3.98" y1="10.45" x2="8.33" y2="12.25"/><line class="cls-2" x1="1.76" y1="11.96" x2="4.01" y2="16.4"/><line class="cls-2" x1="2.72" y1="16.85" x2="0.66" y2="12.44"/><line class="cls-2" x1="49.26" y1="-0.19" x2="51" y2="4.41"/><line class="cls-2" x1="50.58" y1="-0.69" x2="52.1" y2="3.93"/><line class="cls-2" x1="47.07" y1="14.38" x2="51.56" y2="12.75"/><line class="cls-2" x1="51.08" y1="11.53" x2="46.58" y2="13.07"/><line class="cls-2" x1="50.09" y1="6.4" x2="45.15" y2="4.74"/><line class="cls-2" x1="49.61" y1="7.45" x2="44.9" y2="5.92"/><line class="cls-2" x1="24.88" y1="19.25" x2="25.03" y2="20.07"/><line class="cls-2" x1="26.43" y1="20.07" x2="26.27" y2="18.99"/><line class="cls-2" x1="41.81" y1="19.82" x2="39.61" y2="15.43"/><line class="cls-2" x1="40.87" y1="14.79" x2="42.86" y2="19.23"/><line class="cls-2" x1="50.1" y1="17.98" x2="46.85" y2="20.07"/><line class="cls-2" x1="50.97" y1="19" x2="49.34" y2="20.07"/><rect class="cls-1" x="-0.65" y="-34.18" width="54.25" height="54.25"/><line class="cls-2" x1="5.54" y1="26.39" x2="1.85" y2="23.14"/><line class="cls-2" x1="2.79" y1="22.07" x2="6.29" y2="25.45"/><line class="cls-2" x1="9.85" y1="25.39" x2="12.54" y2="21.57"/><line class="cls-2" x1="11.04" y1="26.07" x2="13.73" y2="22.2"/><line class="cls-2" x1="13.6" y1="27.7" x2="18.29" y2="27.14"/><line class="cls-2" x1="13.85" y1="28.82" x2="18.54" y2="28.39"/><line class="cls-2" x1="13.05" y1="32.03" x2="16.32" y2="35.78"/><line class="cls-2" x1="15.17" y1="36.53" x2="12.1" y2="32.76"/><line class="cls-2" x1="7.35" y1="35.14" x2="9.54" y2="30.89"/><line class="cls-2" x1="6.1" y1="34.51" x2="8.35" y2="30.32"/><line class="cls-2" x1="5.66" y1="28.57" x2="0.52" y2="29.41"/><line class="cls-2" x1="0.85" y1="30.57" x2="5.73" y2="29.72"/><line class="cls-2" x1="25.04" y1="20.07" x2="25.77" y2="23.95"/><line class="cls-2" x1="26.94" y1="23.67" x2="26.43" y2="20.07"/><line class="cls-2" x1="29.81" y1="25.81" x2="34.27" y2="24.46"/><line class="cls-2" x1="30.32" y1="27.09" x2="34.82" y2="25.68"/><line class="cls-2" x1="31.34" y1="29.94" x2="35.39" y2="32.38"/><line class="cls-2" x1="30.85" y1="30.98" x2="34.82" y2="33.52"/><line class="cls-2" x1="29.84" y1="36.85" x2="28.4" y2="32.09"/><line class="cls-2" x1="28.49" y1="37.07" x2="27.24" y2="32.37"/><line class="cls-2" x1="25.06" y1="30.94" x2="20.94" y2="33.36"/><line class="cls-2" x1="20.22" y1="32.17" x2="24.36" y2="29.83"/><line class="cls-2" x1="19.97" y1="23.25" x2="24.54" y2="25.76"/><line class="cls-2" x1="23.89" y1="26.7" x2="19.52" y2="24.38"/><line class="cls-2" x1="13.09" y1="41.34" x2="17.2" y2="44.04"/><line class="cls-2" x1="13.87" y1="40.16" x2="17.81" y2="43.01"/><line class="cls-2" x1="20.95" y1="42.45" x2="22.04" y2="37.91"/><line class="cls-2" x1="22.31" y1="42.65" x2="23.38" y2="38.06"/><line class="cls-2" x1="29.44" y1="40.97" x2="25.29" y2="43.22"/><line class="cls-2" x1="30.13" y1="42.04" x2="25.93" y2="44.17"/><line class="cls-2" x1="30.48" y1="48.02" x2="25.65" y2="46.84"/><line class="cls-2" x1="25.29" y1="47.99" x2="29.98" y2="49.29"/><line class="cls-2" x1="22.34" y1="48.35" x2="21.88" y2="53.1"/><line class="cls-2" x1="21.03" y1="48.26" x2="20.48" y2="52.98"/><line class="cls-2" x1="18.23" y1="46.95" x2="13.75" y2="49.62"/><line class="cls-2" x1="14.49" y1="50.58" x2="18.71" y2="48"/><line class="cls-2" x1="38" y1="32.86" x2="40.28" y2="37.21"/><line class="cls-2" x1="39.25" y1="32.21" x2="41.32" y2="36.61"/><line class="cls-2" x1="44.67" y1="37.82" x2="48.54" y2="35.21"/><line class="cls-2" x1="49.43" y1="36.22" x2="45.53" y2="38.88"/><line class="cls-2" x1="48.16" y1="41.31" x2="52.74" y2="42.46"/><line class="cls-2" x1="47.99" y1="42.46" x2="52.53" y2="43.72"/><line class="cls-2" x1="45.17" y1="44.23" x2="47.94" y2="48.36"/><line class="cls-2" x1="46.7" y1="48.96" x2="44.13" y2="44.84"/><line class="cls-2" x1="37.1" y1="47.07" x2="40.66" y2="43.88"/><line class="cls-2" x1="36.16" y1="46.04" x2="39.75" y2="42.93"/><line class="cls-2" x1="39.62" y1="39.3" x2="34.52" y2="38.25"/><line class="cls-2" x1="39.27" y1="40.4" x2="34.41" y2="39.46"/><line class="cls-2" x1="0.84" y1="38.86" x2="-0.17" y2="34.05"/><line class="cls-2" x1="2.01" y1="38.56" x2="1.22" y2="33.76"/><line class="cls-2" x1="4.23" y1="41.31" x2="8.66" y2="39.86"/><line class="cls-2" x1="9.24" y1="41.07" x2="4.77" y2="42.57"/><line class="cls-2" x1="9.94" y1="47.76" x2="5.85" y2="45.41"/><line class="cls-2" x1="5.38" y1="46.46" x2="9.4" y2="48.91"/><line class="cls-2" x1="2.96" y1="47.62" x2="4.49" y2="52.35"/><line class="cls-2" x1="3.14" y1="52.59" x2="1.79" y2="47.92"/><line class="cls-2" x1="46.39" y1="20.38" x2="46.86" y2="20.07"/><line class="cls-2" x1="49.35" y1="20.07" x2="47.23" y2="21.46"/><line class="cls-2" x1="48.8" y1="23.93" x2="53.35" y2="25.16"/><line class="cls-2" x1="53.12" y1="26.41" x2="48.61" y2="25.06"/><line class="cls-2" x1="49.25" y1="30.99" x2="46.56" y2="26.8"/><line class="cls-2" x1="45.51" y1="27.39" x2="48.01" y2="31.56"/><line class="cls-2" x1="39.51" y1="28.74" x2="43.13" y2="25.62"/><line class="cls-2" x1="38.58" y1="27.69" x2="42.24" y2="24.65"/><line class="cls-2" x1="36.02" y1="20.62" x2="41.11" y2="21.77"/><line class="cls-2" x1="40.74" y1="22.86" x2="35.9" y2="21.82"/><line class="cls-2" x1="40.19" y1="55.18" x2="44.13" y2="52.24"/><line class="cls-2" x1="40.96" y1="56.11" x2="44.98" y2="53.37"/><line class="cls-2" x1="33.14" y1="57.61" x2="29.5" y2="54.55"/><line class="cls-2" x1="37.07" y1="50.59" x2="36.84" y2="55.8"/><line class="cls-2" x1="35.7" y1="55.62" x2="35.86" y2="50.68"/><line class="cls-2" x1="14.52" y1="58.12" x2="11.38" y2="54.34"/><line class="cls-2" x1="12.48" y1="53.43" x2="15.41" y2="57.31"/><line class="cls-2" x1="22.18" y1="54.46" x2="18.94" y2="57.8"/><line class="cls-2" x1="49.26" y1="54.06" x2="51" y2="58.66"/><line class="cls-2" x1="50.58" y1="53.56" x2="52.1" y2="58.18"/><rect class="cls-1" x="-0.65" y="20.07" width="54.25" height="54.25"/><rect class="cls-1" width="54.25" height="54.25"/></svg>