<!-- Generator: Adobe Illustrator 22.1.0, SVG Export Plug-In  -->
<svg version="1.1"
     xmlns="http://www.w3.org/2000/svg" xmlns:xlink="http://www.w3.org/1999/xlink" xmlns:a="http://ns.adobe.com/AdobeSVGViewerExtensions/3.0/"
     x="0px" y="0px" width="54.2px" height="54.5px" viewBox="0 0 54.2 54.5" style="enable-background:new 0 0 54.2 54.5;"
     xml:space="preserve">
<style type="text/css">
    .st0{clip-path:url(#SVGID_2_);fill:none;stroke:#000000;stroke-width:0.3;}
    .st1{clip-path:url(#SVGID_4_);fill:none;stroke:#000000;stroke-width:0.3;}
</style>
<defs>
</defs>
<g>
    <defs>
        <rect id="SVGID_1_" y="0.1" width="54.2" height="54.2"/>
    </defs>
    <clipPath id="SVGID_2_">
        <use xlink:href="#SVGID_1_"  style="overflow:visible;"/>
    </clipPath>
    <line class="st0" x1="6.2" y1="6.4" x2="2.5" y2="3.2"/>
    <line class="st0" x1="3.4" y1="2.1" x2="6.9" y2="5.5"/>
    <line class="st0" x1="10.5" y1="5.4" x2="13.2" y2="1.6"/>
    <line class="st0" x1="11.7" y1="6.1" x2="14.4" y2="2.3"/>
    <line class="st0" x1="14.2" y1="7.8" x2="18.9" y2="7.2"/>
    <line class="st0" x1="14.5" y1="8.9" x2="19.2" y2="8.4"/>
    <line class="st0" x1="13.7" y1="12.1" x2="17" y2="15.8"/>
    <line class="st0" x1="15.8" y1="16.6" x2="12.8" y2="12.8"/>
    <line class="st0" x1="8" y1="15.2" x2="10.2" y2="10.9"/>
    <line class="st0" x1="6.8" y1="14.6" x2="9" y2="10.4"/>
    <line class="st0" x1="6.3" y1="8.6" x2="1.2" y2="9.5"/>
    <line class="st0" x1="1.5" y1="10.6" x2="6.4" y2="9.8"/>
    <line class="st0" x1="25.7" y1="0.1" x2="26.4" y2="4"/>
    <line class="st0" x1="27.6" y1="3.7" x2="27.1" y2="0.1"/>
    <line class="st0" x1="30.5" y1="5.9" x2="34.9" y2="4.5"/>
    <line class="st0" x1="31" y1="7.1" x2="35.5" y2="5.7"/>
    <line class="st0" x1="32" y1="10" x2="36" y2="12.4"/>
    <line class="st0" x1="31.5" y1="11" x2="35.5" y2="13.6"/>
    <line class="st0" x1="30.5" y1="16.9" x2="29.1" y2="12.1"/>
    <line class="st0" x1="29.1" y1="17.1" x2="27.9" y2="12.4"/>
    <line class="st0" x1="25.7" y1="11" x2="21.6" y2="13.4"/>
    <line class="st0" x1="20.9" y1="12.2" x2="25" y2="9.9"/>
    <line class="st0" x1="20.6" y1="3.3" x2="25.2" y2="5.8"/>
    <line class="st0" x1="24.5" y1="6.8" x2="20.2" y2="4.4"/>
    <line class="st0" x1="13.7" y1="21.4" x2="17.8" y2="24.1"/>
    <line class="st0" x1="14.5" y1="20.2" x2="18.5" y2="23.1"/>
    <line class="st0" x1="21.6" y1="22.5" x2="22.7" y2="18"/>
    <line class="st0" x1="23" y1="22.7" x2="24" y2="18.1"/>
    <line class="st0" x1="30.1" y1="21" x2="25.9" y2="23.3"/>
    <line class="st0" x1="30.8" y1="22.1" x2="26.6" y2="24.2"/>
    <line class="st0" x1="31.1" y1="28.1" x2="26.3" y2="26.9"/>
    <line class="st0" x1="25.9" y1="28" x2="30.6" y2="29.3"/>
    <line class="st0" x1="30.1" y1="49" x2="34.5" y2="51.2"/>
    <line class="st0" x1="33.8" y1="52.4" x2="29.5" y2="50.1"/>
    <line class="st0" x1="23" y1="28.4" x2="22.5" y2="33.2"/>
    <line class="st0" x1="21.7" y1="28.3" x2="21.1" y2="33"/>
    <line class="st0" x1="18.9" y1="27" x2="14.4" y2="29.7"/>
    <line class="st0" x1="15.1" y1="30.6" x2="19.4" y2="28"/>
    <line class="st0" x1="38.6" y1="12.9" x2="40.9" y2="17.3"/>
    <line class="st0" x1="39.9" y1="12.3" x2="42" y2="16.7"/>
    <line class="st0" x1="45.3" y1="17.9" x2="49.2" y2="15.3"/>
    <line class="st0" x1="50.1" y1="16.3" x2="46.2" y2="18.9"/>
    <line class="st0" x1="48.8" y1="21.4" x2="53.4" y2="22.5"/>
    <line class="st0" x1="48.6" y1="22.5" x2="53.2" y2="23.8"/>
    <line class="st0" x1="45.8" y1="24.3" x2="48.6" y2="28.4"/>
    <line class="st0" x1="47.4" y1="29" x2="44.8" y2="24.9"/>
    <line class="st0" x1="37.8" y1="27.1" x2="41.3" y2="23.9"/>
    <line class="st0" x1="36.8" y1="26.1" x2="40.4" y2="23"/>
    <line class="st0" x1="40.3" y1="19.4" x2="35.2" y2="18.3"/>
    <line class="st0" x1="39.9" y1="20.4" x2="35.1" y2="19.5"/>
    <line class="st0" x1="1.5" y1="18.9" x2="0.5" y2="14.1"/>
    <line class="st0" x1="2.7" y1="18.6" x2="1.9" y2="13.8"/>
    <line class="st0" x1="4.9" y1="21.4" x2="9.3" y2="19.9"/>
    <line class="st0" x1="9.9" y1="21.1" x2="5.4" y2="22.6"/>
    <line class="st0" x1="10.6" y1="27.8" x2="6.5" y2="25.5"/>
    <line class="st0" x1="6" y1="26.5" x2="10" y2="29"/>
    <line class="st0" x1="3.6" y1="27.7" x2="5.1" y2="32.4"/>
    <line class="st0" x1="3.8" y1="32.6" x2="2.4" y2="28"/>
    <line class="st0" x1="47" y1="0.4" x2="47.5" y2="0.1"/>
    <line class="st0" x1="50" y1="0.1" x2="47.9" y2="1.5"/>
    <line class="st0" x1="49.4" y1="4" x2="54" y2="5.2"/>
    <line class="st0" x1="53.8" y1="6.5" x2="49.3" y2="5.1"/>
    <line class="st0" x1="49.9" y1="11" x2="47.2" y2="6.9"/>
    <line class="st0" x1="46.2" y1="7.4" x2="48.7" y2="11.6"/>
    <line class="st0" x1="40.2" y1="8.8" x2="43.8" y2="5.7"/>
    <line class="st0" x1="39.2" y1="7.7" x2="42.9" y2="4.7"/>
    <line class="st0" x1="36.7" y1="0.7" x2="41.8" y2="1.8"/>
    <line class="st0" x1="41.4" y1="2.9" x2="36.5" y2="1.9"/>
    <line class="st0" x1="40.8" y1="35.2" x2="44.8" y2="32.3"/>
    <line class="st0" x1="41.6" y1="36.2" x2="45.6" y2="33.4"/>
    <line class="st0" x1="40.6" y1="40.1" x2="43.8" y2="43.5"/>
    <line class="st0" x1="42.9" y1="44.5" x2="39.7" y2="41.1"/>
    <line class="st0" x1="9" y1="49.5" x2="12.2" y2="52.9"/>
    <line class="st0" x1="11.3" y1="53.9" x2="8.1" y2="50.5"/>
    <line class="st0" x1="38" y1="44.5" x2="37.6" y2="49.2"/>
    <line class="st0" x1="36.8" y1="44.5" x2="36.3" y2="49.2"/>
    <line class="st0" x1="33.5" y1="42.1" x2="29.9" y2="45.5"/>
    <line class="st0" x1="32.7" y1="41.2" x2="29.1" y2="44.4"/>
    <line class="st0" x1="33" y1="38.7" x2="29.3" y2="35.7"/>
    <line class="st0" x1="33.8" y1="37.7" x2="30.1" y2="34.6"/>
    <line class="st0" x1="37.7" y1="30.6" x2="37.5" y2="35.9"/>
    <line class="st0" x1="36.4" y1="35.7" x2="36.5" y2="30.7"/>
    <line class="st0" x1="15.2" y1="38.2" x2="12" y2="34.4"/>
    <line class="st0" x1="13.1" y1="33.5" x2="16.1" y2="37.4"/>
    <line class="st0" x1="22.8" y1="34.5" x2="19.6" y2="37.9"/>
    <line class="st0" x1="20.7" y1="38.7" x2="23.9" y2="35.3"/>
    <line class="st0" x1="27.9" y1="40" x2="23.1" y2="39.8"/>
    <line class="st0" x1="23.2" y1="41" x2="27.9" y2="41.3"/>
    <line class="st0" x1="22.6" y1="50.2" x2="17.9" y2="50.1"/>
    <line class="st0" x1="22.6" y1="51.5" x2="17.9" y2="51.2"/>
    <line class="st0" x1="20.7" y1="42.5" x2="24.3" y2="46"/>
    <line class="st0" x1="19.8" y1="43.3" x2="23.2" y2="46.8"/>
    <line class="st0" x1="17.7" y1="43.3" x2="14.9" y2="47.2"/>
    <line class="st0" x1="16.6" y1="42.6" x2="13.8" y2="46.4"/>
    <line class="st0" x1="15" y1="40.4" x2="9.7" y2="40.4"/>
    <line class="st0" x1="9.9" y1="41.6" x2="14.8" y2="41.5"/>
    <line class="st0" x1="6.9" y1="37.7" x2="2.7" y2="39.8"/>
    <line class="st0" x1="7.6" y1="38.8" x2="3.4" y2="41"/>
    <line class="st0" x1="9.3" y1="45.3" x2="4.9" y2="43.6"/>
    <line class="st0" x1="4.6" y1="44.8" x2="9" y2="46.6"/>
    <line class="st0" x1="2.4" y1="46.3" x2="4.7" y2="50.7"/>
    <line class="st0" x1="3.4" y1="51.2" x2="1.3" y2="46.7"/>
    <line class="st0" x1="49.9" y1="34.1" x2="51.6" y2="38.7"/>
    <line class="st0" x1="51.2" y1="33.6" x2="52.8" y2="38.2"/>
    <line class="st0" x1="47.7" y1="48.7" x2="52.2" y2="47.1"/>
    <line class="st0" x1="51.7" y1="45.8" x2="47.2" y2="47.4"/>
    <line class="st0" x1="50.7" y1="40.7" x2="45.8" y2="39"/>
    <line class="st0" x1="50.3" y1="41.7" x2="45.5" y2="40.2"/>
    <line class="st0" x1="25.5" y1="53.6" x2="25.7" y2="54.4"/>
    <line class="st0" x1="27.1" y1="54.4" x2="26.9" y2="53.3"/>
    <line class="st0" x1="42.5" y1="54.1" x2="40.3" y2="49.7"/>
    <line class="st0" x1="41.5" y1="49.1" x2="43.5" y2="53.5"/>
    <line class="st0" x1="50.8" y1="52.3" x2="47.5" y2="54.4"/>
    <line class="st0" x1="51.6" y1="53.3" x2="50" y2="54.4"/>
</g>
</svg>
