<svg id="Layer_1" data-name="Layer 1" xmlns="http://www.w3.org/2000/svg" width="54" height="54" viewBox="0 0 54 54"><defs><style>.cls-1,.cls-2{fill:none;}.cls-2{stroke:#000;stroke-width:0.3px;}</style></defs><title>Artboard 137</title><rect class="cls-1" x="46.39" width="54" height="54"/><polygon class="cls-2" points="57.21 40.81 56.62 39.71 51.9 42.25 52.49 43.35 57.21 40.81"/><polygon class="cls-2" points="58.65 22.55 57.81 21.62 53.82 25.21 54.66 26.14 58.65 22.55"/><polygon class="cls-2" points="48.3 23.64 49.55 23.61 49.43 18.25 48.18 18.28 48.3 23.64"/><polygon class="cls-2" points="47.8 39.4 49.05 39.36 48.93 34 47.68 34.03 47.8 39.4"/><polygon class="cls-2" points="55.66 34.44 56.33 33.38 51.8 30.5 51.13 31.56 55.66 34.44"/><polygon class="cls-2" points="51.53 50.15 52.2 49.09 47.68 46.21 47.01 47.27 51.53 50.15"/><polygon class="cls-2" points="56.59 17.22 57.5 16.36 53.84 12.45 52.92 13.3 56.59 17.22"/><polygon class="cls-2" points="53.09 8.92 52.37 7.89 47.96 10.95 48.68 11.98 53.09 8.92"/><polygon class="cls-2" points="55.45 4.37 55.84 3.18 50.4 1.27 50.02 2.46 55.45 4.37"/><rect class="cls-1" x="-7.61" width="54" height="54"/><polygon class="cls-2" points="21.11 2.29 20.06 1.62 17.17 6.14 18.22 6.81 21.11 2.29"/><polygon class="cls-2" points="23.89 17.5 24.47 16.4 19.73 13.89 19.15 15 23.89 17.5"/><polygon class="cls-2" points="35.95 26.23 37.19 26.43 38.03 21.13 36.8 20.94 35.95 26.23"/><polygon class="cls-2" points="22.57 50.82 23.81 51.01 24.66 45.72 23.42 45.52 22.57 50.82"/><polygon class="cls-2" points="6.14 32.3 7.39 32.29 7.36 26.93 6.11 26.94 6.14 32.3"/><polygon class="cls-2" points="22.09 32.34 23.17 32.99 25.93 28.39 24.86 27.75 22.09 32.34"/><polygon class="cls-2" points="28.67 36.77 28.95 37.99 34.18 36.83 33.91 35.61 28.67 36.77"/><polygon class="cls-2" points="35.97 45.98 37.18 46.28 38.48 41.08 37.26 40.78 35.97 45.98"/><polygon class="cls-2" points="34.35 32.96 35.18 32.03 31.2 28.44 30.36 29.38 34.35 32.96"/><polygon class="cls-2" points="14.19 43.6 15.4 43.9 16.68 38.69 15.46 38.39 14.19 43.6"/><polygon class="cls-2" points="14.61 10.29 13.68 9.46 10.09 13.44 11.02 14.27 14.61 10.29"/><polygon class="cls-2" points="44.8 49.26 44.21 48.15 39.47 50.64 40.05 51.75 44.8 49.26"/><polygon class="cls-2" points="3.21 40.81 2.62 39.71 -2.1 42.25 -1.51 43.35 3.21 40.81"/><polygon class="cls-2" points="12.05 6.67 12.92 5.77 8.9 1.65 8.03 2.54 12.05 6.67"/><polygon class="cls-2" points="40.61 4.04 39.56 3.37 36.67 7.89 37.72 8.56 40.61 4.04"/><polygon class="cls-2" points="42.86 19.25 43.71 18.34 39.82 14.65 38.96 15.56 42.86 19.25"/><polygon class="cls-2" points="34.67 14.04 33.86 13.09 29.77 16.56 30.58 17.51 34.67 14.04"/><polygon class="cls-2" points="31.12 7.26 32.09 6.48 28.63 1.88 27.65 2.66 31.12 7.26"/><polygon class="cls-2" points="4.65 22.55 3.81 21.62 -0.18 25.21 0.66 26.14 4.65 22.55"/><polygon class="cls-2" points="5.22 10.37 6.47 10.35 6.43 4.99 5.18 5 5.22 10.37"/><polygon class="cls-2" points="20.16 25.72 21.38 25.43 20.15 20.21 18.93 20.5 20.16 25.72"/><polygon class="cls-2" points="2.39 52.14 3.61 51.85 2.38 46.63 1.16 46.92 2.39 52.14"/><polygon class="cls-2" points="44.27 11.96 45.48 11.64 44.14 6.45 42.93 6.76 44.27 11.96"/><polygon class="cls-2" points="27.74 10.6 27.85 9.35 22.51 8.88 22.4 10.12 27.74 10.6"/><polygon class="cls-2" points="32.12 22.86 31.94 21.63 26.63 22.38 26.81 23.62 32.12 22.86"/><polygon class="cls-2" points="12.89 22.79 13.68 21.81 9.51 18.44 8.72 19.41 12.89 22.79"/><polygon class="cls-2" points="44.56 44.52 45.58 43.8 42.45 39.43 41.44 40.16 44.56 44.52"/><polygon class="cls-2" points="1.66 34.44 2.33 33.38 -2.2 30.5 -2.87 31.56 1.66 34.44"/><polygon class="cls-2" points="18.64 52.69 19.31 51.63 14.79 48.75 14.12 49.8 18.64 52.69"/><polygon class="cls-2" points="9.76 43.15 10.71 42.34 7.24 38.25 6.29 39.06 9.76 43.15"/><polygon class="cls-2" points="23.55 41.67 24.5 40.86 21.03 36.77 20.08 37.58 23.55 41.67"/><polygon class="cls-2" points="17.45 32.61 17.34 31.36 11.99 31.83 12.11 33.08 17.45 32.61"/><polygon class="cls-2" points="2.59 17.22 3.5 16.36 -0.16 12.45 -1.07 13.3 2.59 17.22"/><polygon class="cls-2" points="33.5 52.94 34.02 51.8 29.15 49.55 28.63 50.69 33.5 52.94"/><polygon class="cls-2" points="45.36 31.48 44.43 30.64 40.84 34.62 41.77 35.46 45.36 31.48"/><polygon class="cls-2" points="12.38 49.06 11.45 48.23 7.86 52.21 8.79 53.04 12.38 49.06"/><polygon class="cls-2" points="32.9 42.48 31.97 41.65 28.38 45.62 29.31 46.46 32.9 42.48"/><polygon class="cls-2" points="44.63 27.48 45.54 26.63 41.87 22.71 40.96 23.56 44.63 27.48"/><polygon class="cls-2" points="1.45 4.37 1.83 3.18 -3.6 1.27 -3.98 2.46 1.45 4.37"/><rect class="cls-1" x="-1.03" y="50.96" width="54" height="54"/></svg>