<!-- Generator: Adobe Illustrator 22.1.0, SVG Export Plug-In  -->
<svg version="1.1"
     xmlns="http://www.w3.org/2000/svg" xmlns:xlink="http://www.w3.org/1999/xlink" xmlns:a="http://ns.adobe.com/AdobeSVGViewerExtensions/3.0/"
     x="0px" y="0px" width="53px" height="52.2px" viewBox="0 0 53 52.2" style="enable-background:new 0 0 53 52.2;"
     xml:space="preserve">
<style type="text/css">
    .st0{fill:none;stroke:#000000;stroke-width:0.3;}
</style>
<defs>
</defs>
<polygon class="st0" points="28.3,1.2 27.3,0.5 24.4,5.1 25.4,5.7 "/>
<polygon class="st0" points="31.1,16.4 31.7,15.3 26.9,12.8 26.3,13.9 "/>
<polygon class="st0" points="43.1,25.2 44.4,25.3 45.2,20.1 44,19.9 "/>
<polygon class="st0" points="29.8,49.7 31,49.9 31.9,44.6 30.6,44.4 "/>
<polygon class="st0" points="13.3,31.2 14.6,31.2 14.6,25.8 13.3,25.9 "/>
<polygon class="st0" points="29.3,31.3 30.4,31.9 33.1,27.3 32.1,26.7 "/>
<polygon class="st0" points="35.9,35.7 36.1,36.9 41.4,35.7 41.1,34.5 "/>
<polygon class="st0" points="43.2,44.9 44.4,45.2 45.7,40 44.5,39.7 "/>
<polygon class="st0" points="41.5,31.9 42.4,31 38.4,27.4 37.6,28.3 "/>
<polygon class="st0" points="21.4,42.5 22.6,42.8 23.9,37.6 22.7,37.3 "/>
<polygon class="st0" points="21.8,9.2 20.9,8.4 17.3,12.4 18.2,13.2 "/>
<polygon class="st0" points="52,48.2 51.4,47.1 46.7,49.6 47.2,50.7 "/>
<polygon class="st0" points="10.4,39.7 9.8,38.6 5.1,41.2 5.7,42.3 "/>
<polygon class="st0" points="19.2,5.6 20.1,4.7 16.1,0.6 15.2,1.5 "/>
<polygon class="st0" points="47.8,3 46.8,2.3 43.9,6.8 44.9,7.5 "/>
<polygon class="st0" points="50.1,18.2 50.9,17.3 47,13.6 46.2,14.5 "/>
<polygon class="st0" points="41.9,13 41.1,12 37,15.5 37.8,16.4 "/>
<polygon class="st0" points="38.3,6.2 39.3,5.4 35.8,0.8 34.8,1.6 "/>
<polygon class="st0" points="11.8,21.5 11,20.5 7,24.1 7.9,25.1 "/>
<polygon class="st0" points="12.4,9.3 13.7,9.3 13.6,3.9 12.4,3.9 "/>
<polygon class="st0" points="27.4,24.6 28.6,24.4 27.3,19.1 26.1,19.4 "/>
<polygon class="st0" points="9.6,51.1 10.8,50.8 9.6,45.5 8.4,45.8 "/>
<polygon class="st0" points="51.5,10.9 52.7,10.6 51.3,5.4 50.1,5.7 "/>
<polygon class="st0" points="34.9,9.5 35,8.3 29.7,7.8 29.6,9 "/>
<polygon class="st0" points="39.3,21.8 39.1,20.5 33.8,21.3 34,22.5 "/>
<polygon class="st0" points="20.1,21.7 20.9,20.7 16.7,17.4 15.9,18.3 "/>
<polygon class="st0" points="51.8,43.4 52.8,42.7 49.7,38.4 48.6,39.1 "/>
<polygon class="st0" points="1.5,22.6 2.7,22.5 2.6,17.2 1.4,17.2 "/>
<polygon class="st0" points="1,38.3 2.2,38.3 2.1,32.9 0.9,33 "/>
<polygon class="st0" points="8.9,33.4 9.5,32.3 5,29.4 4.3,30.5 "/>
<polygon class="st0" points="4.7,49.1 5.4,48 0.9,45.1 0.2,46.2 "/>
<polygon class="st0" points="25.8,51.6 26.5,50.6 22,47.7 21.3,48.7 "/>
<polygon class="st0" points="17,42.1 17.9,41.3 14.4,37.2 13.5,38 "/>
<polygon class="st0" points="30.8,40.6 31.7,39.8 28.2,35.7 27.3,36.5 "/>
<polygon class="st0" points="24.6,31.5 24.5,30.3 19.2,30.8 19.3,32 "/>
<polygon class="st0" points="9.8,16.1 10.7,15.3 7,11.4 6.1,12.2 "/>
<polygon class="st0" points="40.7,51.9 41.2,50.7 36.4,48.5 35.8,49.6 "/>
<polygon class="st0" points="52.6,30.4 51.6,29.6 48,33.5 49,34.4 "/>
<polygon class="st0" points="19.6,48 18.6,47.1 15.1,51.1 16,52 "/>
<polygon class="st0" points="40.1,41.4 39.2,40.6 35.6,44.5 36.5,45.4 "/>
<polygon class="st0" points="51.8,26.4 52.7,25.5 49.1,21.6 48.2,22.5 "/>
<polygon class="st0" points="6.3,7.8 5.6,6.8 1.2,9.9 1.9,10.9 "/>
<polygon class="st0" points="8.6,3.3 9,2.1 3.6,0.2 3.2,1.4 "/>
</svg>
