<svg id="Layer_1" data-name="Layer 1" xmlns="http://www.w3.org/2000/svg" width="43.64" height="43.33" viewBox="0 0 43.64 43.33"><defs><style>.cls-1,.cls-2{fill:none;}.cls-1{stroke:#000;stroke-linecap:round;stroke-linejoin:round;stroke-width:0.3px;}</style></defs><title>Artboard 37</title><line class="cls-1" x1="2.48" y1="4.01" x2="3.54" y2="1.02"/><polyline class="cls-1" points="4.51 8.25 5.57 11.24 6.63 8.25"/><line class="cls-1" x1="2.48" y1="18.47" x2="3.54" y2="15.48"/><polyline class="cls-1" points="4.51 22.71 5.57 25.7 6.63 22.71"/><line class="cls-1" x1="2.48" y1="32.93" x2="3.54" y2="29.95"/><polyline class="cls-1" points="38.61 0.94 39.67 3.93 40.73 0.94"/><polyline class="cls-1" points="32.41 0.94 33.47 3.93 34.53 0.94"/><polyline class="cls-1" points="26.21 0.94 27.27 3.93 28.34 0.94"/><polyline class="cls-1" points="20.01 0.94 21.07 3.93 22.14 0.94"/><polyline class="cls-1" points="13.81 0.94 14.88 3.93 15.94 0.94"/><polyline class="cls-1" points="7.62 0.94 8.68 3.93 9.74 0.94"/><polyline class="cls-1" points="41.69 8.18 42.76 11.17 43.82 8.18"/><polyline class="cls-1" points="35.5 8.18 36.56 11.17 37.62 8.18"/><polyline class="cls-1" points="29.3 8.18 30.36 11.17 31.42 8.18"/><polyline class="cls-1" points="23.1 8.18 24.16 11.17 25.23 8.18"/><polyline class="cls-1" points="16.9 8.18 17.96 11.17 19.03 8.18"/><polyline class="cls-1" points="10.7 8.18 11.77 11.17 12.83 8.18"/><polyline class="cls-1" points="38.61 15.42 39.67 18.41 40.73 15.42"/><polyline class="cls-1" points="32.41 15.42 33.47 18.41 34.53 15.42"/><polyline class="cls-1" points="26.21 15.42 27.27 18.41 28.34 15.42"/><polyline class="cls-1" points="20.01 15.42 21.07 18.41 22.14 15.42"/><polyline class="cls-1" points="13.81 15.42 14.88 18.41 15.94 15.42"/><polyline class="cls-1" points="7.62 15.42 8.68 18.41 9.74 15.42"/><polyline class="cls-1" points="41.69 22.66 42.76 25.64 43.82 22.66"/><polyline class="cls-1" points="35.5 22.66 36.56 25.64 37.62 22.66"/><polyline class="cls-1" points="29.3 22.66 30.36 25.64 31.42 22.66"/><polyline class="cls-1" points="23.1 22.66 24.16 25.64 25.23 22.66"/><polyline class="cls-1" points="16.9 22.66 17.96 25.64 19.03 22.66"/><polyline class="cls-1" points="10.7 22.66 11.77 25.64 12.83 22.66"/><polyline class="cls-1" points="38.61 29.9 39.67 32.88 40.73 29.9"/><polyline class="cls-1" points="32.41 29.9 33.47 32.88 34.53 29.9"/><polyline class="cls-1" points="26.21 29.9 27.27 32.88 28.34 29.9"/><polyline class="cls-1" points="20.01 29.9 21.07 32.88 22.14 29.9"/><polyline class="cls-1" points="13.81 29.9 14.88 32.88 15.94 29.9"/><polyline class="cls-1" points="7.62 29.9 8.68 32.88 9.74 29.9"/><rect class="cls-2" x="2.48" y="-8.84" width="43.33" height="43.33"/><polyline class="cls-1" points="41.69 37.08 42.76 40.06 43.82 37.08"/><polyline class="cls-1" points="35.5 37.08 36.56 40.06 37.62 37.08"/><polyline class="cls-1" points="29.3 37.08 30.36 40.06 31.42 37.08"/><polyline class="cls-1" points="23.1 37.08 24.16 40.06 25.23 37.08"/><polyline class="cls-1" points="16.9 37.08 17.96 40.06 19.03 37.08"/><polyline class="cls-1" points="10.7 37.08 11.77 40.06 12.83 37.08"/><polyline class="cls-1" points="4.51 37.08 5.57 40.06 6.63 37.08"/><rect class="cls-2" x="2.48" y="34.5" width="43.33" height="43.33"/><line class="cls-1" x1="1.42" y1="1.02" x2="2.48" y2="4.01"/><polyline class="cls-1" points="-1.64 8.18 -0.58 11.17 0.49 8.18"/><line class="cls-1" x1="1.42" y1="15.48" x2="2.49" y2="18.47"/><polyline class="cls-1" points="-1.64 22.66 -0.58 25.64 0.49 22.66"/><line class="cls-1" x1="1.43" y1="29.95" x2="2.49" y2="32.94"/><rect class="cls-2" x="-40.85" y="-8.84" width="43.33" height="43.33"/><polyline class="cls-1" points="-1.64 37.08 -0.58 40.06 0.49 37.08"/><rect class="cls-2" x="-40.85" y="34.5" width="43.33" height="43.33"/><rect class="cls-2" width="43.64" height="43.33"/></svg>