<svg id="Layer_1" data-name="Layer 1" xmlns="http://www.w3.org/2000/svg" width="53.67" height="53.67" viewBox="0 0 53.67 53.67"><defs><style>.cls-1,.cls-2{fill:none;}.cls-2{stroke:#000;stroke-width:0.3px;}</style></defs><title>Artboard 37</title><rect class="cls-1" x="46.14" y="-44.76" width="53.67" height="53.67"/><path class="cls-2" d="M56.68,2.56c-.32-.95-.44-1.59-1-1.59A1.8,1.8,0,0,1,54-.19,2.12,2.12,0,0,0,53-1.57"/><path class="cls-2" d="M47.08,1.68c1,.5,1.18.5,1.31,1.13s.19.81,1.19,1,1.75.93,1.62,1.68-.19,1.19.94,1.25,1.44-.06,1.56.5"/><rect class="cls-1" x="46.14" y="8.91" width="53.67" height="53.67"/><path class="cls-2" d="M48.64,12.48a2,2,0,0,0,2.5-.37c.87-.75,1.12-.75,2.25-.5s1.25.12,2.37-.63S57,9.73,57.51,10"/><path class="cls-2" d="M48,17.52a2.07,2.07,0,0,1,2.38-.13c.75.63,2.19,1.77,2.56.64s1.69-.48,2.56,0"/><path class="cls-2" d="M58,20.35c-.81.25-1.37.43-1.25,1.06s.13,1.19-.87,1.37-.94.25-.94,1.19-.06,1.25-.63,1.63-.43.5-.5.75"/><path class="cls-2" d="M48,22.41a5.45,5.45,0,0,0,.56,1.31.86.86,0,0,1-.12,1.13c-.31.31-.75.56-.25,1.37s.56,1.44.19,1.88a1,1,0,0,0-.19,1.43"/><path class="cls-2" d="M50.89,36.85c.69.37.69-.07,1.19.75s.56.62,1.18.93.44.63.5,1.38.13,1.19,1.07,1.19a1.65,1.65,0,0,1,1.62,1.06"/><path class="cls-2" d="M53.58,31c-.75,0-1.5.06-1.63.63a1.08,1.08,0,0,1-1.37.87c-.75-.19-1.19-.25-1.5.13a1.37,1.37,0,0,1-1.19.43"/><path class="cls-2" d="M47.76,39.41c.07.69-.12.87.63,1.37a1.35,1.35,0,0,1,.5,1.88c-.31.81-.44.81.12,1.44s.44,1.18,0,1.93"/><path class="cls-2" d="M47.45,52.35c.19-.63.19-.94.81-.94a1.29,1.29,0,0,0,1.32-1.06c.12-.69.56-1.5,1.56-1.19s1.94.37,2.56-.69"/><path class="cls-2" d="M56.68,56.23c-.32-1-.44-1.59-1-1.59A1.82,1.82,0,0,1,54,53.48,2.12,2.12,0,0,0,53,52.1"/><rect class="cls-1" x="-7.53" y="-44.76" width="53.67" height="53.67"/><path class="cls-2" d="M3,2.56C2.69,1.61,2.57,1,2,1A1.82,1.82,0,0,1,.36-.19,2.12,2.12,0,0,0-.72-1.57"/><path class="cls-2" d="M38.58.21c1,.84,1.56,1.16,1.26,1.86s-.45.68,0,1.21.7,1-.3,1.6-1,.62-1.06,1"/><path class="cls-2" d="M-6.59,1.68c1,.5,1.19.5,1.31,1.13s.19.81,1.19,1,1.75.93,1.62,1.68-.18,1.19.94,1.25,1.44-.06,1.56.5"/><path class="cls-2" d="M35.53,1.49c-.62-.31-.87-.5-1.31-.37A1.63,1.63,0,0,1,32.66.87c-.5-.44-.75-.5-1.44.12s-.81.69-1.56.63-.88.06-.94.5"/><path class="cls-2" d="M7.86,7.25a1.51,1.51,0,0,0-.35-1.64c-.54-.47-.85-1.7-.23-2.12a2.36,2.36,0,0,0,1-1.91C8.48.57,8.77.22,9.27,0"/><path class="cls-2" d="M26.28,7.62c.63.25,1,.44,1.69-.13s1-.62,1.56-.43a1.27,1.27,0,0,0,1.57-.88,1.74,1.74,0,0,1,1.12-1.25"/><path class="cls-2" d="M45.35,2.93c-.5.44-.63.56-.44,1.44s.37,1.37-.44,1.62-1.87.5-2.19,1.07a1.29,1.29,0,0,1-1.37.62"/><path class="cls-2" d="M18.6,1.59c.37.19.31-.12.68.75s.25.38.94.69a1.43,1.43,0,0,1,.5,2.06c-.5.69-.62,1.31-.12,1.75A1.17,1.17,0,0,1,21,8.09"/><path class="cls-2" d="M16.78,5.68c-1.06-.44-1.31-.69-1.56-.19s-1.31,1.44-1.69.94-.37-.75-.93-.69-.94-.43-1.19-.93"/><rect class="cls-1" x="-7.53" y="8.91" width="53.67" height="53.67"/><path class="cls-2" d="M-5,12.48a2,2,0,0,0,2.5-.37,1.91,1.91,0,0,1,2.25-.5C.85,11.86,1,11.73,2.1,11s1.25-1.25,1.75-1"/><path class="cls-2" d="M10.47,10.53c-1.25.88-1.5.5-1.12,1.63s.37.87-.38,1.5-1.25.75-1,1.75S7.85,16.53,7.35,17"/><path class="cls-2" d="M-5.65,17.52a2.06,2.06,0,0,1,2.37-.13c.75.63,2.19,1.77,2.56.64s1.69-.48,2.57,0"/><path class="cls-2" d="M13.6,11.16c-.13,1.25.12,2,1,2.12s.87-.25,1,.63S15.72,15,16.72,15s1.5,0,1.63.88A1.45,1.45,0,0,0,20,17.28"/><path class="cls-2" d="M5.06,25.05C5.2,26.3,5.6,27,6.49,26.91s.8-.43,1.11.4.36,1.07,1.34.86,1.46-.32,1.77.51"/><path class="cls-2" d="M10.85,16.91c0,1.37.25,1.75.75,2.25s.87.62.25,1.37-.5.75.37,1.63.5,1.5-.37,2.62-1,1.25-.75,1.75"/><path class="cls-2" d="M4.28,20.35c-.81.25-1.37.43-1.25,1.06s.13,1.19-.87,1.37S1.22,23,1.22,24,1.16,25.22.6,25.6s-.44.5-.5.75"/><path class="cls-2" d="M2.66,31.47c.5-.19.69-.56,1.44.06s.62.32,1.56.19.87-.12,1.44.31,1.5.69,2.87-.62"/><path class="cls-2" d="M3.85,35c1.25.19,1.93.13,2.06.88s0,.81.69,1,1.12.44.62,1.5-.5,1.06-.37,1.37"/><path class="cls-2" d="M-2.78,36.85c.69.37.69-.07,1.19.75s.56.62,1.19.93.43.63.5,1.38S.22,41.1,1.16,41.1a1.63,1.63,0,0,1,1.62,1.06"/><path class="cls-2" d="M10,36.35a11.11,11.11,0,0,0,1.13-1.19c.43-.63.93-.75,1.87-.5s.88.12,1.38-.5a1.63,1.63,0,0,1,1.43-.75"/><path class="cls-2" d="M15.72,18.28c.5.82.44.75.81,1a1.09,1.09,0,0,1,.32,1.13c-.07.37-.32.62.43,1s1.07,1.06.44,1.62-.81.82-.81,1.19"/><path class="cls-2" d="M20.35,25c.31-.56.56-1,.93-1.12a1.13,1.13,0,0,0,.88-.94c.19-.69-.19-1.13.5-1.06s.62.18.87-.57.82-1.31,1.5-.93"/><path class="cls-2" d="M23,28.16a1.31,1.31,0,0,0-1.06.31,1.25,1.25,0,0,1-1.63-.12c-.5-.44-.56-.63-1-.19s-.81.87-1.62.12-1.38-.68-1.69-.5"/><path class="cls-2" d="M16.72,31c1,.5,1.19.5,1.31,1.13s.19.81,1.19,1,1.75.94,1.63,1.69-.19,1.18.93,1.25,1.44-.07,1.57.5"/><path class="cls-2" d="M15,37.91c-1.06-.25-1.93-.38-2.06.5a2,2,0,0,1-1.25,1.75c-.69.25-.75.12-.94.87A2.29,2.29,0,0,1,9.1,42.72"/><path class="cls-2" d="M-6.22,52.35c.19-.63.19-.94.82-.94a1.29,1.29,0,0,0,1.31-1.06c.12-.69.56-1.5,1.56-1.19s1.94.37,2.56-.69"/><path class="cls-2" d="M2.1,45.53c.81.19,1.31.75,2.12.38s1-.56,1.5,0,1.94,1.12,2.5.62a1.75,1.75,0,0,1,1.63-.43"/><path class="cls-2" d="M7,49.16c.82,0,.75-.25,1.07.25s.37.69,1.12.69.81-.25,1.25.43.69,1,1.56,1,1,.07,1.25.5.57.5,1.07.44"/><path class="cls-2" d="M19.28,43.16c-.62-.31-.87-.5-1.31-.38a1.6,1.6,0,0,1-1.56-.25c-.5-.43-.75-.5-1.44.13s-.81.69-1.56.62-.88.07-.94.5"/><path class="cls-2" d="M16.53,49.41c.44-.44.82-.88.63-1.56s.25-1.88,1-1.88a2.4,2.4,0,0,0,1.94-1c.68-.75,1.12-.87,1.68-.81"/><path class="cls-2" d="M3,56.23c-.32-1-.44-1.59-1-1.59A1.84,1.84,0,0,1,.36,53.48,2.12,2.12,0,0,0-.72,52.1"/><path class="cls-2" d="M20,53.22c.63.25,1,.44,1.69-.12s1-.63,1.56-.44a1.25,1.25,0,0,0,1.56-.88,1.78,1.78,0,0,1,1.13-1.25"/><path class="cls-2" d="M24.85,39.85c.56.93.68.93,1.37,1s.88.06,1.19.68.69.82,1.81.57,1.38.12,1.5.56"/><path class="cls-2" d="M27.35,44.85c.68.37.87.62.56,1.18a1.88,1.88,0,0,0,.31,1.88,1.2,1.2,0,0,1,.31,1.44,2,2,0,0,0,.75,2"/><path class="cls-2" d="M36.47,40.22c-.5.44-.62.56-.44,1.44s.38,1.37-.43,1.62-1.88.5-2.19,1.07A1.3,1.3,0,0,1,32,45"/><path class="cls-2" d="M24.28,30.1c.38.18.32-.13.69.75s.25.37.94.68a1.45,1.45,0,0,1,.5,2.07c-.5.68-.63,1.31-.13,1.75a1.19,1.19,0,0,1,.44,1.25"/><path class="cls-2" d="M31,38.72c.38-.44.19-.75.75-.81a2.1,2.1,0,0,0,1.38-.5c.37-.38.43-.63,1.06-.44s.5.25,1.19-.06a1.14,1.14,0,0,1,1.25-.06c.56.18.56.18,1.37,0s1.06-.19,1.38-.07"/><path class="cls-2" d="M38.72,45.6c-.56.37-.44.31-.75.93s-.31.69-.87.88-.94.31-.88,1,.25,1.37-.87,1.75-1.38.5-1.57,1-.56.87-.68,1.25"/><path class="cls-2" d="M41.84,42.9c.78.5,1,.43.79,1.21s.14,1.45.9,1.37,2,.16,2.22.74"/><path class="cls-2" d="M38.83,49.19c.66-.13.48-.11,1.14.16s.41.4,1.12.08a1.49,1.49,0,0,1,2.07.5c.51.87,1.37,1.29,1.8,1.15"/><path class="cls-2" d="M45.63,36.85c-.33.29-.42.29-1.08.29s-1.85.46-1.86,1.39.21,1.56-.86,1.76-1.53.26-1.74.78"/><path class="cls-2" d="M35.35,32.78c-1.07-.43-1.32-.68-1.57-.18s-1.31,1.43-1.68.93-.38-.75-.94-.68-.94-.44-1.19-.94"/><path class="cls-2" d="M45.41,32.77c-.85-.55-.7-.43-1.46,0S41.62,33,41.62,32s.17-1.65-.49-1.55-.6.23-1.26-.25"/><path class="cls-2" d="M28.91,19c-.38.5-.63.81-.25,1.31a1.68,1.68,0,0,1-.25,2.19c-.75.75-1.19.75-1,1.44s.31,1.56-.25,2"/><path class="cls-2" d="M30.91,24.1c.31,1,.25,1.18.62,1.5a1.35,1.35,0,0,1,.38,1.31A1,1,0,0,0,33.16,28c.81-.12.75-.5,1.19-.12s.31.37,1,.43.75.19.93.57"/><path class="cls-2" d="M40.16,22c-1,.19-1.25-.12-1.5.25s-.63.32-.94.5-.31-.06-.56.69-1.44,1.31-1.88.88-.87-.88-1.25-.69"/><path class="cls-2" d="M45.34,23.8c-.79.29-.83.34-1.08.79s-.33.63-1.39.5a1.33,1.33,0,0,0-1.73,1.21c-.18.94-.52,1.31-1.13,1.51"/><path class="cls-2" d="M41.53,16c1,.63.94.38,1.19,1.19s.31,1.44,1,1.94.81.62.88,1.37"/><path class="cls-2" d="M39.1,17.35c-.38.81-1.63,1.43-2.19,1s-1-1-1.81-.38a2,2,0,0,1-2.07.44c-.75-.19-.93-.25-1.18-.06"/><path class="cls-2" d="M36,10.6c.75.68,1.75,2.12,1,2.43s-1.06.19-1.12.82a2.53,2.53,0,0,1-1.06,1.68c-.63.5-.75.63-.82.94"/><path class="cls-2" d="M39.72,9.91c1.13,1.19.69.75,1.5.87s1-.37,1.31.57-.18,1.43.82,1.68,1.5.44,1.68,1"/><path class="cls-2" d="M32,12.66c-.93-.31-2.31-1-2.75-.13s-1.06,1.88-1.81,1.94-1.19-.12-1.62.44a3.38,3.38,0,0,1-1.75,1"/><path class="cls-2" d="M18.47,11.22c.75-.75.56-1.37,1.75-.81s1.13.5,2,.19.94-.75,1.75-.07.81.44,1.13.5a1,1,0,0,1,.87.82"/><path class="cls-2" d="M7.86,60.92a1.53,1.53,0,0,0-.35-1.65c-.54-.46-.85-1.69-.23-2.11a2.38,2.38,0,0,0,1-1.91c.15-1,.44-1.36.94-1.62"/><rect class="cls-1" width="53.67" height="53.67"/></svg>