<!-- Generator: Adobe Illustrator 22.1.0, SVG Export Plug-In  -->
<svg version="1.1"
     xmlns="http://www.w3.org/2000/svg" xmlns:xlink="http://www.w3.org/1999/xlink" xmlns:a="http://ns.adobe.com/AdobeSVGViewerExtensions/3.0/"
     x="0px" y="0px" width="52.5px" height="52px" viewBox="0 0 52.5 52" style="enable-background:new 0 0 52.5 52;"
     xml:space="preserve">
<style type="text/css">
    .st0{fill:none;stroke:#000000;stroke-width:0.3;}
</style>
<defs>
</defs>
<path class="st0" d="M1.6,2.7c0.9,0.5,1.6,0.4,2.5-0.4s1.1-0.8,2.2-0.5S7.6,2,8.8,1.2s1.2-1.2,1.8-1"/>
<path class="st0" d="M17.1,0.8c-1.2,0.9-1.5,0.5-1.1,1.6c0.4,1.1,0.4,0.9-0.4,1.5c-0.8,0.6-1.2,0.8-1,1.8S14.5,6.8,14,7.3"/>
<path class="st0" d="M1,7.8C1.6,7.4,2.6,7,3.4,7.6s2.2,1.8,2.6,0.6s1.7-0.5,2.6,0"/>
<path class="st0" d="M20.3,1.4c-0.1,1.2,0.1,2,1,2.1s0.9-0.2,1,0.6s0.1,1.1,1.1,1.1s1.5,0,1.6,0.9s0.6,1.4,1.6,1.4"/>
<path class="st0" d="M11.7,15.3c0.1,1.2,0.5,1.9,1.4,1.9c0.9-0.1,0.8-0.4,1.1,0.4c0.3,0.8,0.4,1.1,1.3,0.9c1-0.2,1.5-0.3,1.8,0.5"/>
<path class="st0" d="M17.5,7.1c0,1.4,0.2,1.8,0.8,2.2s0.9,0.6,0.2,1.4s-0.5,0.8,0.4,1.6s0.5,1.5-0.4,2.6s-1,1.2-0.8,1.8"/>
<path class="st0" d="M10.9,10.6c-0.8,0.2-1.4,0.4-1.2,1.1s0.1,1.2-0.9,1.4s-0.9,0.2-0.9,1.2s-0.1,1.2-0.6,1.6s-0.4,0.5-0.5,0.8"/>
<path class="st0" d="M0.9,12.6c0.2,0.8,0.3,0.9,0.6,1.3s0.2,0.8-0.1,1.1s-0.8,0.6-0.2,1.4s0.6,1.4,0.2,1.9s-0.6,0.8-0.2,1.4"/>
<path class="st0" d="M9.3,21.7c0.5-0.2,0.7-0.6,1.4,0.1s0.6,0.3,1.6,0.2s0.9-0.1,1.4,0.3s1.5,0.7,2.9-0.6"/>
<path class="st0" d="M10.5,25.3c1.2,0.2,1.9,0.1,2.1,0.9s0,0.8,0.7,1s1.1,0.4,0.6,1.5s-0.5,1.1-0.4,1.4"/>
<path class="st0" d="M3.9,27.1c0.7,0.4,0.7-0.1,1.2,0.8s0.6,0.6,1.2,0.9s0.4,0.6,0.5,1.4s0.1,1.2,1.1,1.2s1.4,0.6,1.6,1.1"/>
<path class="st0" d="M16.6,26.6c0.4-0.4,0.7-0.6,1.1-1.2s0.9-0.8,1.9-0.5s0.9,0.1,1.4-0.5s1.1-0.8,1.4-0.8"/>
<path class="st0" d="M6.6,21.2c-0.8,0-1.5,0.1-1.6,0.6s-0.6,1.1-1.4,0.9s-1.2-0.2-1.5,0.1s-0.9,0.5-1.2,0.4"/>
<path class="st0" d="M22.4,8.5c0.5,0.8,0.4,0.8,0.8,1s0.4,0.8,0.3,1.1s-0.3,0.6,0.4,1s1.1,1.1,0.4,1.6s-0.8,0.8-0.8,1.2"/>
<path class="st0" d="M27,15.2c0.3-0.6,0.6-1,0.9-1.1s0.7-0.2,0.9-0.9s-0.2-1.1,0.5-1.1s0.6,0.2,0.9-0.6s0.8-1.3,1.5-0.9"/>
<path class="st0" d="M29.6,18.4c-0.4,0-0.6-0.1-1.1,0.3s-1.1,0.3-1.6-0.1s-0.6-0.6-1-0.2s-0.8,0.9-1.6,0.1s-1.4-0.7-1.7-0.5"/>
<path class="st0" d="M23.4,21.3c1,0.5,1.2,0.5,1.3,1.1s0.2,0.8,1.2,1s1.8,0.9,1.6,1.7s-0.2,1.2,0.9,1.2s1.4-0.1,1.6,0.5"/>
<path class="st0" d="M21.7,28.1c-1.1-0.2-1.9-0.4-2.1,0.5s-0.6,1.5-1.2,1.8s-0.8,0.1-0.9,0.9c-0.2,0.7-0.9,1.6-1.7,1.7"/>
<path class="st0" d="M0.8,29.6c0.1,0.7-0.1,0.9,0.6,1.4s0.8,1.1,0.5,1.9S1.4,33.7,2,34.3s0.4,1.2,0,1.9"/>
<path class="st0" d="M0.4,42.6c0.2-0.6,0.2-0.9,0.8-0.9s1.2-0.4,1.3-1.1s0.6-1.5,1.6-1.2s1.9,0.4,2.6-0.7"/>
<path class="st0" d="M8.8,35.8c0.8,0.2,1.3,0.8,2.1,0.4s1-0.6,1.5,0s1.9,1.1,2.5,0.6s1.2-0.6,1.6-0.4"/>
<path class="st0" d="M13.7,39.4c0.8,0,0.8-0.2,1.1,0.2s0.4,0.7,1.1,0.7c0.7,0,0.8-0.2,1.2,0.4s0.7,1,1.6,1s1,0.1,1.2,0.5
    s0.6,0.5,1.1,0.4"/>
<path class="st0" d="M25.9,33.4c-0.6-0.3-0.9-0.5-1.3-0.4s-1.1,0.2-1.6-0.2s-0.8-0.5-1.4,0.1s-0.8,0.7-1.6,0.6s-0.9,0.1-0.9,0.5"/>
<path class="st0" d="M23.2,39.6c0.4-0.4,0.8-0.9,0.6-1.6s0.2-1.9,1-1.9s1.2-0.2,1.9-1s1.1-0.9,1.7-0.8"/>
<path class="st0" d="M9.7,46.5c-0.3-1-0.4-1.6-1-1.6c-0.6,0-1.4-0.4-1.6-1.2c-0.2-0.7-0.6-1.1-1.1-1.4"/>
<path class="st0" d="M26.6,43.5c0.6,0.2,1,0.4,1.7-0.1s1-0.6,1.6-0.4s1.4-0.1,1.6-0.9s0.8-1.2,1.1-1.2"/>
<path class="st0" d="M31.5,30.1c0.6,0.9,0.7,0.9,1.4,1s0.9,0.1,1.2,0.7c0.3,0.6,0.7,0.8,1.8,0.6s1.4,0.1,1.5,0.6"/>
<path class="st0" d="M34,35.1c0.7,0.4,0.9,0.6,0.6,1.2s-0.1,1.4,0.3,1.9s0.6,0.8,0.3,1.4s0.2,1.7,0.8,2"/>
<path class="st0" d="M43.1,30.5c-0.5,0.4-0.6,0.6-0.4,1.4c0.2,0.9,0.4,1.4-0.4,1.6s-1.9,0.5-2.2,1.1s-0.9,0.7-1.4,0.6"/>
<path class="st0" d="M30.9,20.3c0.4,0.2,0.3-0.1,0.7,0.8s0.2,0.4,0.9,0.7s1,1.4,0.5,2.1s-0.6,1.3-0.1,1.8s0.5,0.8,0.4,1.2"/>
<path class="st0" d="M37.6,29c0.4-0.4,0.2-0.8,0.8-0.8s1-0.1,1.4-0.5s0.4-0.6,1.1-0.4s0.5,0.2,1.2-0.1s0.7-0.2,1.2-0.1
    s0.6,0.2,1.4,0s1.1-0.2,1.4-0.1"/>
<path class="st0" d="M45.4,35.8c-0.6,0.4-0.4,0.3-0.8,0.9s-0.3,0.7-0.9,0.9s-0.9,0.3-0.9,1s0.2,1.4-0.9,1.8s-1.4,0.5-1.6,1
    s-0.6,0.9-0.7,1.2"/>
<path class="st0" d="M48.5,33.1c0.8,0.5,1,0.4,0.8,1.2c-0.2,0.8,0.1,1.5,0.9,1.4c0.8-0.1,2,0.2,2.2,0.7"/>
<path class="st0" d="M45.5,39.4c0.7-0.1,0.5-0.1,1.1,0.2c0.7,0.3,0.4,0.4,1.1,0.1c0.7-0.3,1.6-0.4,2.1,0.5c0.5,0.9,1.4,1.3,1.8,1.2"
    />
<path class="st0" d="M52.3,27.1c-0.3,0.3-0.4,0.3-1.1,0.3c-0.7,0-1.8,0.5-1.9,1.4c0,0.9,0.2,1.6-0.9,1.8c-1.1,0.2-1.5,0.3-1.7,0.8"
    />
<path class="st0" d="M42,23c-1.1-0.4-1.3-0.7-1.6-0.2s-1.3,1.4-1.7,0.9s-0.4-0.8-0.9-0.7s-0.9-0.4-1.2-0.9"/>
<path class="st0" d="M52.1,23c-0.8-0.5-0.7-0.4-1.5,0c-0.8,0.4-2.3,0.2-2.3-0.7c0-1,0.2-1.7-0.5-1.6c-0.7,0.1-0.6,0.2-1.3-0.2"/>
<path class="st0" d="M35.6,9.2c-0.4,0.5-0.6,0.8-0.2,1.3s0.5,1.4-0.2,2.2s-1.2,0.8-1,1.4s0.3,1.6-0.2,2"/>
<path class="st0" d="M37.6,14.3c0.3,1,0.2,1.2,0.6,1.5s0.4,0.8,0.4,1.3s0.4,1.2,1.2,1.1s0.8-0.5,1.2-0.1s0.3,0.4,1,0.4
    s0.8,0.2,0.9,0.6"/>
<path class="st0" d="M46.8,12.3c-1,0.2-1.2-0.1-1.5,0.2s-0.6,0.3-0.9,0.5s-0.3-0.1-0.6,0.7s-1.4,1.3-1.9,0.9s-0.9-0.9-1.2-0.7"/>
<path class="st0" d="M52,14c-0.8,0.3-0.8,0.3-1.1,0.8c-0.2,0.5-0.3,0.6-1.4,0.5c-1.1-0.1-1.5,0.3-1.7,1.2s-0.5,1.3-1.1,1.5"/>
<path class="st0" d="M48.2,6.3c1,0.6,0.9,0.4,1.2,1.2s0.3,1.4,1,1.9s0.8,0.6,0.9,1.4"/>
<path class="st0" d="M45.8,7.6c-0.4,0.8-1.6,1.4-2.2,1s-1-1-1.8-0.4s-1.3,0.6-2.1,0.4s-0.9-0.2-1.2-0.1"/>
<path class="st0" d="M42.7,0.8c0.8,0.7,1.8,2.1,1,2.4s-1.1,0.2-1.1,0.8s-0.4,1.2-1.1,1.7s-0.8,0.6-0.8,0.9"/>
<path class="st0" d="M46.4,0.1c1.1,1.2,0.7,0.8,1.5,0.9s1-0.4,1.3,0.6S49,3,50,3.3s1.5,0.4,1.7,1"/>
<path class="st0" d="M38.7,2.9c-0.9-0.3-2.3-1-2.8-0.1s-1.1,1.9-1.8,1.9s-1.2-0.1-1.6,0.4s-1.1,0.8-1.8,1"/>
<path class="st0" d="M25.1,1.5c0.8-0.8,0.6-1.4,1.8-0.8s1.1,0.5,2,0.2s0.9-0.8,1.8-0.1s0.8,0.4,1.1,0.5s0.8,0.2,0.9,0.8"/>
<path class="st0" d="M45.2,44.1c0.9,0.8,1.6,1.2,1.3,1.9c-0.3,0.7-0.4,0.7,0,1.2c0.5,0.5,0.7,1-0.3,1.6c-1,0.6-1,0.6-1.1,0.9"/>
<path class="st0" d="M0.1,45.6c1,0.5,1.2,0.5,1.3,1.1s0.2,0.8,1.2,1s1.8,0.9,1.6,1.7S4,50.6,5.1,50.6s1.4-0.1,1.6,0.5"/>
<path class="st0" d="M42.2,45.4c-0.6-0.3-0.9-0.5-1.3-0.4s-1.1,0.2-1.6-0.2s-0.8-0.5-1.4,0.1s-0.8,0.7-1.6,0.6s-0.9,0.1-0.9,0.5"/>
<path class="st0" d="M14.5,51.2c0.1-0.6,0.2-1.2-0.4-1.6c-0.5-0.5-0.8-1.7-0.2-2.1c0.6-0.4,0.9-0.9,1-1.9c0.1-1,0.4-1.4,0.9-1.6"/>
<path class="st0" d="M32.9,51.5c0.6,0.2,1,0.4,1.7-0.1s1-0.6,1.6-0.4s1.4-0.1,1.6-0.9s0.8-1.2,1.1-1.2"/>
<path class="st0" d="M52,46.8c-0.5,0.4-0.6,0.6-0.4,1.4s0.4,1.4-0.4,1.6s-1.9,0.5-2.2,1.1s-0.9,0.7-1.4,0.6"/>
<path class="st0" d="M25.3,45.5c0.4,0.2,0.3-0.1,0.7,0.8s0.2,0.4,0.9,0.7s1,1.4,0.5,2.1s-0.6,1.3-0.1,1.8s0.5,0.8,0.4,1.2"/>
<path class="st0" d="M23.4,49.6c-1.1-0.4-1.3-0.7-1.6-0.2s-1.3,1.4-1.7,0.9s-0.4-0.8-0.9-0.7s-0.9-0.4-1.2-0.9"/>
</svg>
