<!-- Generator: Adobe Illustrator 22.1.0, SVG Export Plug-In  -->
<svg version="1.1"
     xmlns="http://www.w3.org/2000/svg" xmlns:xlink="http://www.w3.org/1999/xlink" xmlns:a="http://ns.adobe.com/AdobeSVGViewerExtensions/3.0/"
     x="0px" y="0px" width="54.5px" height="54.9px" viewBox="0 0 54.5 54.9" style="enable-background:new 0 0 54.5 54.9;"
     xml:space="preserve">
<style type="text/css">
    .st0{clip-path:url(#SVGID_2_);fill:none;stroke:#000000;stroke-width:0.3;stroke-linecap:square;}
    .st1{clip-path:url(#SVGID_2_);}
    .st2{clip-path:url(#SVGID_4_);fill:none;stroke:#000000;stroke-width:0.3;stroke-linecap:square;}
    .st3{clip-path:url(#SVGID_4_);}
</style>
<defs>
</defs>
<g>
    <defs>
        <rect id="SVGID_1_" y="0.2" width="54.5" height="54.5"/>
    </defs>
    <clipPath id="SVGID_2_">
        <use xlink:href="#SVGID_1_"  style="overflow:visible;"/>
    </clipPath>
    <path class="st0" d="M51.3,54.7c0-0.1,0.1-0.3,0.2-0.4c0.6-1.4,1.3-4.2,1.8-6c0.6-2-1.1-2.8-2.9-3.7s-2.2-0.9-4.4-1.5
        c-3.2-1-3.8-4.1-6.8-4.6s-6.1-3-6.2-4.8s3.1-2.9,5-3.2s3.4-0.8,1.9-0.9s-2.5-0.4-4.7-1.2c-2.3-0.8-0.3-1.9-6.3-2.5
        s-7.2-5.8-6.6-7.2c0.7-1.7,3.2-2.2,6.1-2.5c2.8-0.2,2.9-0.9,6.1-1.5s2.9-1.4,0.7-1.2s-3.1,0.5-10.8-2.8c-2.2-0.9-3.1-1.2-5-1.9
        c-3.1-1.2-6.9-2-7.2-3.7c-0.2-1,1.5-2.2,7.5-1.3c6,0.8,8.5-1,13.2-1.3C37.6,2,45.3,2.1,47.2,2.1c0.9,0,3.2-0.1,4-1.9"/>
    <path class="st1" d="M35.4,13.3c-3.4,0.1,14.4-2.8,14.8-2.2s-0.2,1.2-1.7,1.6s-11.9,1.6-13.5,1.8S38.2,13.3,35.4,13.3z"/>
    <path class="st1" d="M48.9,7.3C46.7,8.9,45,7.9,39.6,8c-5.4,0.1-12-0.4-7.2-1.4s7.1-1.2,10-0.8S50.2,6.3,48.9,7.3z"/>
    <path class="st1" d="M39.1,29.3c-2.7-0.4,6,0.4,8.3,0.2s3.2-0.4,3.2,0.1s-1.8,0.9-4,0.8s-5.9-0.7-6.8-0.5S39.6,29.4,39.1,29.3z"/>
    <path class="st1" d="M36.9,21.3c2.3,1.6,4.1,1.1,6.6,0.1s1.9-1,3.7-0.8s3.1-0.2,4.6-0.9s2.4-1.6,1.2-1.4s-4.6,1.3-6.1,1.2
        s-2.9,0.2-4.3,0.8S35.9,20.6,36.9,21.3z"/>
    <path class="st0" d="M2.1,54.7c-3.7-5.4,5.8-7.9,6.1-8.1c4.8-2.4,4.2-7.7-2.5-8c-6.2-0.2-3.4-3.2,3.5-4s6.3-3.5,5.9-6.3
        s3.7-3.4-6.4-5.6c-1.1-0.2-3.1-0.4-4.1-1.8s-2-3.6,0.5-4.1s7.7-3.2,3.9-5.5c-9.8-5.7,2.2-8.1-6.9-11.1"/>
    <line class="st0" x1="28.9" y1="25.8" x2="11.2" y2="43.6"/>
    <line class="st0" x1="26.8" y1="25.3" x2="11" y2="41.1"/>
    <line class="st0" x1="49.3" y1="0.2" x2="47.4" y2="2.1"/>
    <line class="st0" x1="25.1" y1="24.5" x2="9.8" y2="39.8"/>
    <line class="st0" x1="46.7" y1="0.2" x2="44.8" y2="2.1"/>
    <line class="st0" x1="33.5" y1="13.5" x2="31.5" y2="15.4"/>
    <line class="st0" x1="23.7" y1="23.2" x2="14.9" y2="32.1"/>
    <line class="st0" x1="14.9" y1="32.1" x2="13.5" y2="33.5"/>
    <line class="st0" x1="13.5" y1="33.5" x2="8" y2="39"/>
    <line class="st0" x1="44.1" y1="0.2" x2="42.3" y2="2.1"/>
    <line class="st0" x1="31.3" y1="13" x2="28.3" y2="16.1"/>
    <line class="st0" x1="22.7" y1="21.7" x2="15.2" y2="29.2"/>
    <line class="st0" x1="9.8" y1="34.5" x2="5.7" y2="38.7"/>
    <line class="st0" x1="41.5" y1="0.2" x2="39.7" y2="2.1"/>
    <line class="st0" x1="29.3" y1="12.5" x2="25.1" y2="16.7"/>
    <line class="st0" x1="22.2" y1="19.6" x2="15.5" y2="26.3"/>
    <line class="st0" x1="6.8" y1="35" x2="3.4" y2="38.3"/>
    <line class="st0" x1="38.9" y1="0.2" x2="37.1" y2="2.1"/>
    <line class="st0" x1="27.4" y1="11.7" x2="14.7" y2="24.5"/>
    <line class="st0" x1="36.3" y1="0.2" x2="34.3" y2="2.2"/>
    <line class="st0" x1="25.5" y1="11" x2="12.8" y2="23.8"/>
    <line class="st0" x1="33.7" y1="0.2" x2="31.5" y2="2.5"/>
    <line class="st0" x1="23.7" y1="10.3" x2="10.7" y2="23.3"/>
    <line class="st0" x1="31.2" y1="0.2" x2="28.3" y2="3.1"/>
    <line class="st0" x1="21.9" y1="9.5" x2="8.7" y2="22.7"/>
    <line class="st0" x1="28.6" y1="0.2" x2="25" y2="3.7"/>
    <line class="st0" x1="19.9" y1="8.9" x2="6.6" y2="22.2"/>
    <line class="st0" x1="26" y1="0.2" x2="22.4" y2="3.8"/>
    <line class="st0" x1="18" y1="8.2" x2="4.9" y2="21.3"/>
    <line class="st0" x1="23.4" y1="0.2" x2="19.9" y2="3.6"/>
    <line class="st0" x1="16.1" y1="7.5" x2="10.4" y2="13.2"/>
    <line class="st0" x1="7.9" y1="15.7" x2="3.8" y2="19.7"/>
    <line class="st0" x1="20.8" y1="0.2" x2="17.5" y2="3.5"/>
    <line class="st0" x1="14.2" y1="6.8" x2="9.4" y2="11.6"/>
    <line class="st0" x1="18.2" y1="0.2" x2="14.9" y2="3.5"/>
    <line class="st0" x1="12.7" y1="5.7" x2="7.8" y2="10.6"/>
    <line class="st0" x1="15.6" y1="0.2" x2="6.3" y2="9.5"/>
    <line class="st0" x1="13" y1="0.2" x2="5.2" y2="8"/>
    <line class="st0" x1="10.4" y1="0.2" x2="5" y2="5.6"/>
    <line class="st0" x1="7.8" y1="0.2" x2="5.6" y2="2.4"/>
    <line class="st0" x1="5.2" y1="0.2" x2="4.3" y2="1.2"/>
    <line class="st0" x1="38.5" y1="29.2" x2="37.1" y2="30.7"/>
    <line class="st0" x1="5.2" y1="0.2" x2="22.8" y2="17.8"/>
    <line class="st0" x1="31" y1="26" x2="35.9" y2="30.9"/>
    <line class="st0" x1="48.9" y1="43.9" x2="53.2" y2="48.3"/>
    <line class="st0" x1="7.8" y1="0.2" x2="12.2" y2="4.6"/>
    <line class="st0" x1="14.3" y1="6.7" x2="24.4" y2="16.8"/>
    <line class="st0" x1="36.1" y1="28.5" x2="38" y2="30.4"/>
    <line class="st0" x1="10.4" y1="0.2" x2="13.8" y2="3.6"/>
    <line class="st0" x1="18.5" y1="8.3" x2="26.5" y2="16.3"/>
    <line class="st0" x1="13.1" y1="0.2" x2="16.2" y2="3.3"/>
    <line class="st0" x1="22.6" y1="9.7" x2="28.9" y2="16"/>
    <line class="st0" x1="15.6" y1="0.2" x2="18.9" y2="3.5"/>
    <line class="st0" x1="27" y1="11.6" x2="30.9" y2="15.5"/>
    <line class="st0" x1="18.2" y1="0.2" x2="21.8" y2="3.7"/>
    <line class="st0" x1="31" y1="13" x2="32.9" y2="14.9"/>
    <line class="st0" x1="20.8" y1="0.2" x2="24.2" y2="3.7"/>
    <line class="st0" x1="34" y1="13.5" x2="35.1" y2="14.5"/>
    <line class="st0" x1="23.4" y1="0.2" x2="26.6" y2="3.4"/>
    <line class="st0" x1="26" y1="0.2" x2="28.8" y2="3"/>
    <line class="st0" x1="28.6" y1="0.2" x2="30.9" y2="2.5"/>
    <line class="st0" x1="31.1" y1="0.2" x2="33.2" y2="2.3"/>
    <line class="st0" x1="33.8" y1="0.2" x2="35.7" y2="2.1"/>
    <line class="st0" x1="36.4" y1="0.2" x2="38.2" y2="2.1"/>
    <line class="st0" x1="39" y1="0.2" x2="40.8" y2="2"/>
    <line class="st0" x1="41.5" y1="0.2" x2="43.3" y2="2"/>
    <line class="st0" x1="44.1" y1="0.2" x2="46" y2="2.1"/>
    <line class="st0" x1="46.8" y1="0.2" x2="48.5" y2="2"/>
    <line class="st0" x1="49.4" y1="0.2" x2="50.4" y2="1.3"/>
    <line class="st0" x1="5.7" y1="3.3" x2="22.3" y2="19.9"/>
    <line class="st0" x1="28" y1="25.6" x2="34.2" y2="31.8"/>
    <line class="st0" x1="45.1" y1="42.7" x2="52.7" y2="50.3"/>
    <line class="st0" x1="5.1" y1="5.3" x2="33.1" y2="33.2"/>
    <line class="st0" x1="37.9" y1="38.1" x2="52.1" y2="52.3"/>
    <line class="st0" x1="5.2" y1="7.9" x2="7.8" y2="10.6"/>
    <line class="st0" x1="7.8" y1="10.6" x2="10.5" y2="13.2"/>
    <line class="st0" x1="10.5" y1="13.2" x2="51.5" y2="54.2"/>
    <line class="st0" x1="6" y1="16.5" x2="13.4" y2="23.9"/>
    <line class="st0" x1="4.1" y1="17.3" x2="9.8" y2="22.9"/>
    <line class="st0" x1="3.9" y1="19.6" x2="6.4" y2="22.1"/>
    <line class="st0" x1="4.4" y1="35.7" x2="7.4" y2="38.8"/>
    <line class="st0" x1="2.7" y1="36.7" x2="4.4" y2="38.4"/>
    <line class="st0" x1="1.5" y1="53.6" x2="2.7" y2="54.7"/>
    <line class="st0" x1="1.4" y1="53.3" x2="8.2" y2="46.6"/>
    <line class="st0" x1="49.3" y1="54.7" x2="52.2" y2="51.9"/>
    <line class="st0" x1="53.3" y1="48.2" x2="46.7" y2="54.7"/>
    <line class="st0" x1="52.8" y1="46.1" x2="44.1" y2="54.7"/>
    <line class="st0" x1="51.2" y1="45.1" x2="41.5" y2="54.7"/>
    <line class="st0" x1="49.5" y1="44.2" x2="38.9" y2="54.7"/>
    <line class="st0" x1="47.6" y1="43.5" x2="36.3" y2="54.7"/>
    <line class="st0" x1="45.6" y1="42.9" x2="33.7" y2="54.7"/>
    <line class="st0" x1="43.9" y1="42" x2="31.1" y2="54.7"/>
    <line class="st0" x1="42.6" y1="40.7" x2="28.5" y2="54.7"/>
    <line class="st0" x1="41.3" y1="39.5" x2="25.9" y2="54.7"/>
    <line class="st0" x1="39.5" y1="38.6" x2="23.3" y2="54.7"/>
    <line class="st0" x1="37.6" y1="38" x2="20.8" y2="54.7"/>
    <line class="st0" x1="35.8" y1="37.1" x2="18.2" y2="54.7"/>
    <line class="st0" x1="34.4" y1="36" x2="15.6" y2="54.7"/>
    <line class="st0" x1="33.2" y1="34.5" x2="13" y2="54.7"/>
    <line class="st0" x1="36.5" y1="28.6" x2="10.4" y2="54.7"/>
    <line class="st0" x1="34.6" y1="28" x2="7.8" y2="54.7"/>
    <line class="st0" x1="33.2" y1="26.8" x2="5.2" y2="54.7"/>
    <line class="st0" x1="2.7" y1="54.7" x2="31.2" y2="26.2"/>
    <line class="st0" x1="49.4" y1="54.7" x2="9.4" y2="14.8"/>
    <line class="st0" x1="7.8" y1="15.7" x2="46.8" y2="54.7"/>
    <line class="st0" x1="15.6" y1="26.1" x2="44.1" y2="54.7"/>
    <line class="st0" x1="15.1" y1="28.3" x2="41.5" y2="54.7"/>
    <line class="st0" x1="15.3" y1="31" x2="39" y2="54.7"/>
    <line class="st0" x1="14.5" y1="32.8" x2="36.4" y2="54.7"/>
    <line class="st0" x1="33.8" y1="54.7" x2="12.8" y2="33.8"/>
    <line class="st0" x1="10.7" y1="34.3" x2="31.1" y2="54.7"/>
    <line class="st0" x1="8.6" y1="34.7" x2="28.6" y2="54.7"/>
    <line class="st0" x1="6.3" y1="35.1" x2="26" y2="54.7"/>
    <line class="st0" x1="11.4" y1="42.7" x2="23.4" y2="54.7"/>
    <line class="st0" x1="20.8" y1="54.7" x2="10.6" y2="44.6"/>
    <line class="st0" x1="9.4" y1="45.8" x2="18.3" y2="54.7"/>
    <line class="st0" x1="7.6" y1="46.8" x2="15.6" y2="54.7"/>
    <line class="st0" x1="13.1" y1="54.7" x2="5.8" y2="47.5"/>
    <line class="st0" x1="4.1" y1="48.4" x2="10.4" y2="54.7"/>
    <line class="st0" x1="7.8" y1="54.7" x2="2.6" y2="49.5"/>
    <line class="st0" x1="1.6" y1="51" x2="5.2" y2="54.7"/>
</g>
</svg>
