<svg id="Layer_1" data-name="Layer 1" xmlns="http://www.w3.org/2000/svg" width="54.5" height="54.92" viewBox="0 0 54.5 54.92"><defs><style>.cls-1,.cls-2{fill:none;}.cls-1{stroke:#000;stroke-linecap:square;stroke-width:0.3px;}</style></defs><title>Artboard 37</title><path class="cls-1" d="M66.73,50a3,3,0,0,0,.15-.36c.6-1.4,1.26-4.2,1.84-6s-1.06-2.75-2.87-3.69a18.65,18.65,0,0,0-4.38-1.5c-3.24-1-3.81-4.08-6.75-4.64s-6.12-3-6.25-4.81,3.13-2.94,5-3.25,3.44-.75,1.94-.94a20.66,20.66,0,0,1-4.69-1.19c-2.28-.78-.33-1.85-6.33-2.48s-7.17-5.83-6.56-7.25c.74-1.75,3.25-2.25,6.06-2.5s2.89-.89,6.08-1.46,2.88-1.37.69-1.25S47.6,9.1,39.91,5.8c-2.19-.94-3.1-1.15-5-1.89C31.83,2.72,28,1.92,27.72.24c-.17-1,1.5-2.17,7.5-1.33s8.5-1,13.17-1.34,12.33-.21,14.33-.16c.94,0,3.19-.09,4-1.92"/><path d="M50.91,8.61c-3.44.08,14.37-2.75,14.81-2.25S65.53,7.61,64,7.93,52.16,9.49,50.53,9.74,53.66,8.55,50.91,8.61Z"/><path d="M64.32,2.53c-2.17,1.65-3.81.63-9.25.75s-12-.44-7.18-1.44,7.12-1.18,10-.75S65.64,1.53,64.32,2.53Z"/><path d="M54.6,24.61c-2.67-.38,6,.44,8.31.25s3.19-.43,3.19.07-1.82.93-4,.81-5.94-.69-6.82-.5S55,24.68,54.6,24.61Z"/><path d="M52.41,16.61c2.34,1.62,4.12,1.13,6.62.13s1.94-1,3.69-.81A7.92,7.92,0,0,0,67.35,15c1.5-.75,2.37-1.63,1.18-1.44s-4.62,1.31-6.12,1.25a10.24,10.24,0,0,0-4.31.81C56.72,16.18,51.41,15.93,52.41,16.61Z"/><path class="cls-1" d="M17.57,50c-3.66-5.36,5.78-7.94,6.15-8.13,4.84-2.41,4.22-7.69-2.5-8-6.25-.25-3.37-3.25,3.5-4s6.25-3.55,5.88-6.3,3.74-3.37-6.38-5.62c-1.12-.25-3.12-.38-4.12-1.75s-2-3.63.5-4.13,7.74-3.23,3.87-5.5c-9.75-5.7,2.19-8.06-6.9-11.12"/><line class="cls-1" x1="44.4" y1="21.1" x2="26.66" y2="38.86"/><line class="cls-1" x1="42.29" y1="20.62" x2="26.52" y2="36.41"/><line class="cls-1" x1="40.55" y1="19.76" x2="25.28" y2="35.05"/><line class="cls-1" x1="48.94" y1="8.77" x2="47" y2="10.7"/><line class="cls-1" x1="39.19" y1="18.52" x2="30.38" y2="27.34"/><line class="cls-1" x1="30.38" y1="27.34" x2="28.95" y2="28.78"/><line class="cls-1" x1="28.95" y1="28.78" x2="23.45" y2="34.28"/><line class="cls-1" x1="46.79" y1="8.31" x2="43.73" y2="11.38"/><line class="cls-1" x1="38.17" y1="16.94" x2="30.65" y2="24.48"/><line class="cls-1" x1="25.31" y1="29.82" x2="21.18" y2="33.95"/><line class="cls-1" x1="44.78" y1="7.73" x2="40.53" y2="11.98"/><line class="cls-1" x1="37.66" y1="14.86" x2="30.97" y2="21.55"/><line class="cls-1" x1="22.29" y1="30.24" x2="18.92" y2="33.62"/><line class="cls-1" x1="42.92" y1="7" x2="30.14" y2="19.78"/><line class="cls-1" x1="40.99" y1="6.32" x2="28.25" y2="19.08"/><line class="cls-1" x1="39.16" y1="5.56" x2="26.17" y2="18.56"/><line class="cls-1" x1="37.33" y1="4.79" x2="24.15" y2="17.98"/><line class="cls-1" x1="35.38" y1="4.15" x2="22.04" y2="17.5"/><line class="cls-1" x1="33.49" y1="3.44" x2="20.37" y2="16.57"/><line class="cls-1" x1="31.59" y1="2.74" x2="25.91" y2="8.43"/><line class="cls-1" x1="23.35" y1="10.99" x2="19.32" y2="15.03"/><line class="cls-1" x1="29.7" y1="2.03" x2="24.86" y2="6.88"/><line class="cls-1" x1="28.19" y1="0.95" x2="23.25" y2="5.89"/><line class="cls-1" x1="31.05" y1="-4.51" x2="21.8" y2="4.75"/><line class="cls-1" x1="28.45" y1="-4.51" x2="20.68" y2="3.26"/><line class="cls-1" x1="25.85" y1="-4.51" x2="20.45" y2="0.9"/><line class="cls-1" x1="53.98" y1="24.49" x2="52.54" y2="25.93"/><line class="cls-1" x1="20.66" y1="-4.51" x2="38.28" y2="13.11"/><line class="cls-1" x1="46.44" y1="21.27" x2="51.38" y2="26.21"/><line class="cls-1" x1="23.28" y1="-4.51" x2="27.72" y2="-0.07"/><line class="cls-1" x1="29.75" y1="1.96" x2="39.91" y2="12.11"/><line class="cls-1" x1="51.6" y1="23.8" x2="53.47" y2="25.68"/><line class="cls-1" x1="34" y1="3.58" x2="41.97" y2="11.55"/><line class="cls-1" x1="38.06" y1="5.02" x2="44.35" y2="11.3"/><line class="cls-1" x1="42.44" y1="6.83" x2="46.41" y2="10.8"/><line class="cls-1" x1="46.5" y1="8.27" x2="48.38" y2="10.14"/><line class="cls-1" x1="49.5" y1="8.77" x2="50.53" y2="9.8"/><line class="cls-1" x1="21.21" y1="-1.38" x2="37.81" y2="15.22"/><line class="cls-1" x1="43.46" y1="20.87" x2="49.65" y2="27.06"/><line class="cls-1" x1="20.56" y1="0.53" x2="48.53" y2="28.5"/><line class="cls-1" x1="53.37" y1="33.34" x2="67.62" y2="47.59"/><line class="cls-1" x1="20.65" y1="3.18" x2="23.31" y2="5.84"/><line class="cls-1" x1="23.31" y1="5.84" x2="25.93" y2="8.47"/><line class="cls-1" x1="25.93" y1="8.47" x2="66.96" y2="49.5"/><line class="cls-1" x1="21.46" y1="11.81" x2="28.84" y2="19.18"/><line class="cls-1" x1="19.56" y1="12.53" x2="25.24" y2="18.22"/><line class="cls-1" x1="19.37" y1="14.9" x2="21.87" y2="17.4"/><line class="cls-1" x1="19.84" y1="31" x2="22.9" y2="34.06"/><line class="cls-1" x1="18.18" y1="31.97" x2="19.9" y2="33.68"/><line class="cls-1" x1="16.98" y1="48.86" x2="18.13" y2="49.97"/><line class="cls-1" x1="16.92" y1="48.62" x2="23.63" y2="41.9"/><line class="cls-1" x1="65" y1="39.45" x2="54.4" y2="49.99"/><line class="cls-1" x1="63.04" y1="38.81" x2="51.81" y2="49.99"/><line class="cls-1" x1="61.06" y1="38.2" x2="49.21" y2="49.99"/><line class="cls-1" x1="59.35" y1="37.31" x2="46.6" y2="49.99"/><line class="cls-1" x1="58.08" y1="35.98" x2="44.01" y2="49.99"/><line class="cls-1" x1="56.72" y1="34.74" x2="41.41" y2="49.99"/><line class="cls-1" x1="55.02" y1="33.85" x2="38.82" y2="49.99"/><line class="cls-1" x1="53.03" y1="33.24" x2="36.23" y2="49.99"/><line class="cls-1" x1="51.3" y1="32.38" x2="33.63" y2="49.99"/><line class="cls-1" x1="49.84" y1="31.23" x2="31.04" y2="49.99"/><line class="cls-1" x1="48.67" y1="29.81" x2="28.43" y2="49.99"/><line class="cls-1" x1="51.96" y1="23.92" x2="25.84" y2="49.99"/><line class="cls-1" x1="50.04" y1="23.24" x2="23.24" y2="49.99"/><line class="cls-1" x1="48.65" y1="22.04" x2="20.65" y2="49.99"/><line class="cls-1" x1="18.12" y1="49.98" x2="46.63" y2="21.46"/><line class="cls-1" x1="64.85" y1="49.99" x2="24.87" y2="10.03"/><line class="cls-1" x1="23.28" y1="11" x2="62.23" y2="49.99"/><line class="cls-1" x1="31.03" y1="21.37" x2="59.6" y2="49.99"/><line class="cls-1" x1="30.62" y1="23.59" x2="56.98" y2="49.99"/><line class="cls-1" x1="30.74" y1="26.28" x2="54.48" y2="49.99"/><line class="cls-1" x1="29.99" y1="28.09" x2="51.85" y2="49.99"/><line class="cls-1" x1="49.23" y1="49.99" x2="28.24" y2="29.03"/><line class="cls-1" x1="26.21" y1="29.56" x2="46.6" y2="49.99"/><line class="cls-1" x1="24.03" y1="29.93" x2="44.1" y2="49.99"/><line class="cls-1" x1="21.81" y1="30.34" x2="41.48" y2="49.99"/><line class="cls-1" x1="26.84" y1="38" x2="38.85" y2="49.99"/><line class="cls-1" x1="36.23" y1="49.99" x2="26.12" y2="39.9"/><line class="cls-1" x1="24.84" y1="41.12" x2="33.73" y2="49.99"/><line class="cls-1" x1="23.12" y1="42.03" x2="31.1" y2="49.99"/><line class="cls-1" x1="28.54" y1="49.99" x2="21.31" y2="42.78"/><line class="cls-1" x1="19.56" y1="43.65" x2="25.91" y2="49.99"/><line class="cls-1" x1="23.29" y1="49.99" x2="18.12" y2="44.78"/><line class="cls-1" x1="17.03" y1="46.31" x2="20.67" y2="49.99"/><rect class="cls-2" x="15.47" y="-4.51" width="54.5" height="54.5"/><path class="cls-1" d="M66.73,104.48a3,3,0,0,0,.15-.36c.6-1.4,1.26-4.2,1.84-6.05s-1.06-2.75-2.87-3.69a18.65,18.65,0,0,0-4.38-1.5c-3.24-.95-3.81-4.08-6.75-4.64s-6.12-3-6.25-4.81,3.13-2.94,5-3.25,3.44-.75,1.94-.94a20.66,20.66,0,0,1-4.69-1.19c-2.28-.78-.33-1.85-6.33-2.48s-7.17-5.83-6.56-7.25c.74-1.75,3.25-2.25,6.06-2.5s2.89-.89,6.08-1.46,2.88-1.37.69-1.25-3.06.49-10.75-2.81c-2.19-.94-3.1-1.15-5-1.89-3.06-1.19-6.89-2-7.17-3.67-.17-1,1.5-2.17,7.5-1.33s8.5-1,13.17-1.34,12.33-.21,14.33-.16c.94,0,3.19-.09,4-1.92"/><path class="cls-1" d="M17.57,104.49c-3.66-5.36,5.78-7.94,6.15-8.13,4.84-2.41,4.22-7.69-2.5-8-6.25-.25-3.37-3.25,3.5-4s6.25-3.55,5.88-6.3,3.74-3.37-6.38-5.62c-1.12-.25-3.12-.38-4.12-1.75s-2-3.63.5-4.13,7.74-3.23,3.87-5.5c-9.75-5.7,2.19-8.06-6.9-11.12"/><line class="cls-1" x1="54.41" y1="49.99" x2="52.54" y2="51.87"/><line class="cls-1" x1="51.81" y1="49.99" x2="49.8" y2="52.01"/><line class="cls-1" x1="49.22" y1="49.99" x2="46.97" y2="52.24"/><line class="cls-1" x1="46.62" y1="49.99" x2="43.74" y2="52.88"/><line class="cls-1" x1="44.03" y1="49.99" x2="40.5" y2="53.52"/><line class="cls-1" x1="41.43" y1="49.99" x2="37.83" y2="53.6"/><line class="cls-1" x1="38.83" y1="49.99" x2="35.41" y2="53.42"/><line class="cls-1" x1="36.24" y1="49.99" x2="32.98" y2="53.25"/><line class="cls-1" x1="33.64" y1="49.99" x2="30.37" y2="53.26"/><line class="cls-1" x1="31.05" y1="49.99" x2="21.8" y2="59.25"/><line class="cls-1" x1="28.45" y1="49.99" x2="20.68" y2="57.76"/><line class="cls-1" x1="25.85" y1="49.99" x2="20.45" y2="55.4"/><line class="cls-1" x1="23.26" y1="49.99" x2="21.08" y2="52.17"/><line class="cls-1" x1="20.66" y1="49.99" x2="19.72" y2="50.93"/><line class="cls-1" x1="20.66" y1="49.99" x2="38.28" y2="67.61"/><line class="cls-1" x1="23.28" y1="49.99" x2="27.72" y2="54.43"/><line class="cls-1" x1="25.91" y1="49.99" x2="29.25" y2="53.33"/><line class="cls-1" x1="28.53" y1="49.99" x2="31.66" y2="53.11"/><line class="cls-1" x1="31.1" y1="49.99" x2="34.38" y2="53.27"/><line class="cls-1" x1="33.72" y1="49.99" x2="37.25" y2="53.52"/><line class="cls-1" x1="36.22" y1="49.99" x2="39.72" y2="53.49"/><line class="cls-1" x1="38.85" y1="49.99" x2="42.03" y2="53.18"/><line class="cls-1" x1="41.47" y1="49.99" x2="44.28" y2="52.8"/><line class="cls-1" x1="44.1" y1="49.99" x2="46.38" y2="52.27"/><line class="cls-1" x1="46.6" y1="49.99" x2="48.66" y2="52.05"/><line class="cls-1" x1="49.22" y1="49.99" x2="51.16" y2="51.93"/><line class="cls-1" x1="51.85" y1="49.99" x2="53.72" y2="51.86"/><line class="cls-1" x1="54.47" y1="49.99" x2="56.28" y2="51.8"/><line class="cls-1" x1="21.21" y1="53.12" x2="37.81" y2="69.72"/><line class="cls-1" x1="20.56" y1="55.03" x2="48.53" y2="83"/><rect class="cls-2" x="15.47" y="49.99" width="54.5" height="54.5"/><path class="cls-1" d="M12.23,50a3,3,0,0,0,.15-.36c.6-1.4,1.26-4.2,1.84-6s-1.06-2.75-2.87-3.69A18.65,18.65,0,0,0,7,38.38c-3.24-1-3.81-4.08-6.75-4.64s-6.12-3-6.25-4.81S-2.9,26-1,25.68s3.44-.75,1.94-.94a20.66,20.66,0,0,1-4.69-1.19c-2.28-.78-.33-1.85-6.33-2.48s-7.17-5.83-6.56-7.25c.74-1.75,3.25-2.25,6.06-2.5s2.89-.89,6.08-1.46,2.88-1.37.69-1.25S-6.9,9.1-14.59,5.8c-2.19-.94-3.1-1.15-5-1.89-3.06-1.19-6.89-2-7.17-3.67-.17-1,1.5-2.17,7.5-1.33s8.5-1,13.17-1.34S6.22-2.64,8.22-2.59c.94,0,3.19-.09,4-1.92"/><path d="M-3.59,8.61C-7,8.69,10.78,5.86,11.22,6.36S11,7.61,9.53,7.93-2.34,9.49-4,9.74-.84,8.55-3.59,8.61Z"/><path d="M9.82,2.53C7.65,4.18,6,3.16.57,3.28s-12-.44-7.18-1.44S.51.66,3.39,1.09,11.14,1.53,9.82,2.53Z"/><path d="M.1,24.61c-2.67-.38,6,.44,8.31.25s3.19-.43,3.19.07-1.82.93-4,.81-5.94-.69-6.82-.5S.53,24.68.1,24.61Z"/><path d="M-2.09,16.61c2.34,1.62,4.12,1.13,6.62.13s1.94-1,3.69-.81A7.92,7.92,0,0,0,12.85,15c1.5-.75,2.37-1.63,1.18-1.44S9.41,14.86,7.91,14.8a10.24,10.24,0,0,0-4.31.81C2.22,16.18-3.09,15.93-2.09,16.61Z"/><line class="cls-1" x1="9.88" y1="39.21" x2="14.22" y2="43.55"/><line class="cls-1" x1="6.09" y1="38" x2="13.68" y2="45.59"/><line class="cls-1" x1="-1.13" y1="33.34" x2="13.12" y2="47.59"/><line class="cls-1" x1="-28.57" y1="8.47" x2="12.46" y2="49.5"/><line class="cls-1" x1="10.28" y1="49.99" x2="13.19" y2="47.15"/><line class="cls-1" x1="14.27" y1="43.47" x2="7.68" y2="49.99"/><line class="cls-1" x1="13.75" y1="41.39" x2="5.09" y2="49.99"/><line class="cls-1" x1="12.2" y1="40.34" x2="2.49" y2="49.99"/><line class="cls-1" x1="10.5" y1="39.45" x2="-0.1" y2="49.99"/><line class="cls-1" x1="8.54" y1="38.81" x2="-2.69" y2="49.99"/><line class="cls-1" x1="6.56" y1="38.2" x2="-5.29" y2="49.99"/><line class="cls-1" x1="4.85" y1="37.31" x2="-7.9" y2="49.99"/><line class="cls-1" x1="3.58" y1="35.98" x2="-10.49" y2="49.99"/><line class="cls-1" x1="2.22" y1="34.74" x2="-13.09" y2="49.99"/><line class="cls-1" x1="0.52" y1="33.85" x2="-15.68" y2="49.99"/><line class="cls-1" x1="10.35" y1="49.99" x2="-29.63" y2="10.03"/><line class="cls-1" x1="-31.22" y1="11" x2="7.73" y2="49.99"/><line class="cls-1" x1="-23.47" y1="21.37" x2="5.1" y2="49.99"/><line class="cls-1" x1="-23.88" y1="23.59" x2="2.48" y2="49.99"/><line class="cls-1" x1="-23.76" y1="26.28" x2="-0.02" y2="49.99"/><rect class="cls-2" x="-39.03" y="-4.51" width="54.5" height="54.5"/><path class="cls-1" d="M12.23,104.48a3,3,0,0,0,.15-.36c.6-1.4,1.26-4.2,1.84-6.05s-1.06-2.75-2.87-3.69A18.65,18.65,0,0,0,7,92.88C3.73,91.93,3.16,88.8.22,88.24s-6.12-3-6.25-4.81,3.13-2.94,5-3.25,3.44-.75,1.94-.94a20.66,20.66,0,0,1-4.69-1.19c-2.28-.78-.33-1.85-6.33-2.48s-7.17-5.83-6.56-7.25c.74-1.75,3.25-2.25,6.06-2.5s2.89-.89,6.08-1.46,2.88-1.37.69-1.25-3.06.49-10.75-2.81c-2.19-.94-3.1-1.15-5-1.89-3.06-1.19-6.89-2-7.17-3.67-.17-1,1.5-2.17,7.5-1.33s8.5-1,13.17-1.34,12.33-.21,14.33-.16c.94,0,3.19-.09,4-1.92"/><line class="cls-1" x1="10.29" y1="49.99" x2="8.41" y2="51.87"/><line class="cls-1" x1="7.7" y1="49.99" x2="5.77" y2="51.92"/><line class="cls-1" x1="5.1" y1="49.99" x2="3.26" y2="51.84"/><line class="cls-1" x1="2.51" y1="49.99" x2="0.65" y2="51.85"/><line class="cls-1" x1="-0.09" y1="49.99" x2="-1.96" y2="51.87"/><line class="cls-1" x1="-0.03" y1="49.99" x2="1.78" y2="51.8"/><line class="cls-1" x1="2.47" y1="49.99" x2="4.28" y2="51.8"/><line class="cls-1" x1="5.1" y1="49.99" x2="6.97" y2="51.86"/><line class="cls-1" x1="7.72" y1="49.99" x2="9.5" y2="51.77"/><line class="cls-1" x1="10.35" y1="49.99" x2="11.41" y2="51.05"/><rect class="cls-2" x="-39.03" y="49.99" width="54.5" height="54.5"/><rect class="cls-2" width="54.5" height="54.92"/></svg>