<svg xmlns="http://www.w3.org/2000/svg" width="56" height="50"><g fill="none" fill-rule="evenodd" stroke="#000" stroke-width=".3"><path d="M54.19 4.18H34.82 54.2zm-.35 4.2H27.56h26.28zm0 0h.35-.35zm-12.7 29.68h13.11-13.1zm0 0h-14 14zm10.14 3.78h2.9-2.9zm-12.45 0h8.28-8.28zm0 0H32.5h6.33zm12.45 0h-4.17 4.17zM32.66 12.41h21.53-21.53zm9.24 3.29h12.07H41.9zm0 0H28.07 41.9zm12.07 0h.22-.22zm-4.37 3.43h2.17-2.17zm-14.95 0H49.6 34.65zm17.12 0h2.42-2.42zm2.34 4.06h.08-.08zm-13.2 0H27.52h13.4zm0 0h13.2-13.2zM0 26.99h54.19H0zm0 4.22h54.19H0zm54.25 0h-.06.06zm-2.37 3.23h2.3-2.3zm0 0H0h51.88zM0 46.26h54.19H0zm47.11-4.42l-2.63 4.4 2.63-4.4zm3.34 7.8l2.05-3.35-2.05 3.36zm-13.4 0l2.06-3.35-2.05 3.36zm14.23-7.8l-.04.07.04-.07zm2.46-3.78l.02-.02-.02.02zm-2.46 3.78l2.46-3.78-2.46 3.78zm-3.92-3.82l2.13-3.57-2.13 3.57zm.07-10.96l-2.57 4.07 2.57-4.07zm4.45 7.38l2.04-3.2-2.04 3.2zm0 0l-.01.01v-.01zm2.24-11.26zm-2.25 3.75l2.24-3.74-2.24 3.74zm-2.25-7.83l-.02.03-2.42 4.05 2.44-4.08zm2.12.07l.03-.04-.03.04zm2.23-3.47l-2.2 3.43 2.2-3.43zm.01-.02l-.01.02.01-.02zM47.3 12.4zm0 0l-2 3.25 2-3.25zm6.54-4.03l-2.42 4.02 2.42-4.02zm0 0l.03-.05-.03.05zm-7.6-.05l2.66-4.12-2.66 4.12zm5.1-4.2L53.97.02l-2.61 4.11zm-10.2 33.93l.03-.04-.02.04zm-2.3 3.78l2.3-3.78-2.3 3.78zm0 0l-.05.07.04-.07zm1.2-7.45l1.94-3.13-1.94 3.13zm.87-11.2l-2.24 3.74 2.24-3.74zm0 0l.01-.01zm.99-7.5l-1.98 3.41 1.98-3.4zm0 0l.02-.03-.02.04zm-.88-7.3L38.6 12.4l2.42-4.02zm0 0l.03-.06-.03.05zM42.06 0l-2.52 4.13L42.06 0zm-.2 6.39a.96.96 0 1 0-1.9 0 .96.96 0 0 0 1.9 0zm5.26 4.16a.96.96 0 1 0-1.91 0 .96.96 0 0 0 1.91 0zm7 3.6a.96.96 0 1 0-1.9 0 .96.96 0 0 0 1.9 0zm-14.38 0a.96.96 0 1 0-1.92 0 .96.96 0 0 0 1.92 0zm6.34 3.29a.96.96 0 1 0 1.92 0 .96.96 0 0 0-1.92 0zm-5.42 4.69a.96.96 0 1 0 0-1.91.96.96 0 0 0 0 1.9zm4.42 2.98a.96.96 0 1 0 1.92 0 .96.96 0 0 0-1.92 0zm6.51 4.08a.96.96 0 1 0 1.91 0 .96.96 0 0 0-1.9 0zm-13.76 0a.96.96 0 1 0 1.9 0 .96.96 0 0 0-1.9 0zm10.3 3.63a.96.96 0 1 0-1.92 0 .96.96 0 0 0 1.91 0zm-6.14 3.41a.96.96 0 1 0-1.91 0 .96.96 0 0 0 1.91 0zm5.76 3.76a.96.96 0 1 0-1.92 0 .96.96 0 0 0 1.92 0zm3.34 4.1a.96.96 0 1 0 1.91 0 .96.96 0 0 0-1.9 0zm-13.51 0a.96.96 0 1 0 1.9 0 .96.96 0 0 0-1.9 0zM43.7 48a.96.96 0 1 0 1.91 0 .96.96 0 0 0-1.91 0zM54.19 5.43a.96.96 0 0 0 0 1.9v-1.9zm0 14.81a.96.96 0 1 0 0 1.84v-1.84zm0 15.05a.96.96 0 1 0 0 1.86V35.3zM8.98 4.18H1h7.98zm46.2 0H8.99h46.2zm-13.16 4.2H28.56h13.46zm-28.29 0h14.83-14.83zm0 0H1h12.73zm14.4 29.68H1h27.13zm14.02 0H28.13h14.02zm-16.33 3.78h7.68-7.68zm-14.52 0h8.18-8.18zm0 0H6.47h4.83zm28.53 0H33.5h6.33zm-14.01 0h-6.34 6.34zm-19.35 0H1h5.47zm1.16-29.43H1h6.63zm26.03 0H20.33h13.33zm0 0H48.3 33.66zm-13.33 0H7.63h12.7zm-6.28 3.29H1h13.05zm15.02 0H14.05h15.02zm13.83 0H29.07 42.9zM8.5 19.13H1h7.5zm27.15 0H50.6 35.65zm-13.7 0h13.7-13.7zm0 0H8.49h13.46zm6.57 4.06H13.51h15.01zm13.4 0h-13.4 13.4zm-28.41 0H1h12.5zM1 26.99h54.19H1zm0 4.22h54.19H1zm51.88 3.23H1h51.88zM1 46.26h54.19H1zm5.47-4.42l-2.6 4.4 2.6-4.4zm.04-.06l-.04.06.04-.06zm13.01 0l-.04.06-2.6 4.4 2.64-4.46zm13.98.06l-2.6 4.4 2.6-4.4zm.04-.06l-.04.06.04-.06zm4.52 7.87l2.05-3.36-2.05 3.36zm-13.7 0l2.04-3.36-2.05 3.36zm-14.33 0l2.04-3.36-2.04 3.36zm15.79-7.8l2.31-3.8.03-.03-2.34 3.82zm0 0l-.04.06.04-.07zm-12.2-3.8l.02-.03-.02.04zm-2.32 3.8l-.04.06.04-.07zm2.32-3.8l-2.32 3.8 2.32-3.8zm19.85-.03l2.13-3.57-2.13 3.57zm-13.7 0l2.13-3.57-2.13 3.57zm-13.26 0l2.12-3.57-2.12 3.57zm20.27-3.63l1.94-3.13-1.94 3.13zm-15.08 0l1.94-3.13-1.94 3.13zm22.4-7.33l-2.57 4.07 2.57-4.07zm-13.64 0l-2.57 4.07 2.57-4.07zm-13.02 0l-2.56 4.07 2.56-4.07zm21.09-3.88l-2.25 3.75 2.25-3.75zm-15.02 0l-2.25 3.75 2.25-3.74zm0 0zm22.14-4.05l-2.43 4.05 2.43-4.05zm0 0l.01-.03-.01.03zm-13.7 0l.01-.03-.01.03zm0 0l-2.43 4.05 2.43-4.05zm-13.46 0l.02-.03-.02.03zm0 0l-2.42 4.05 2.42-4.05zm20.58-3.43l-1.98 3.4 1.98-3.4zm.02-.04l-.02.04.02-.04zm-15.04.04l.03-.04-.03.04zm0 0l-1.98 3.4 1.98-3.4zm19.6-3.3l-2 3.26 2-3.25zm0 0h.01zm-13.32 0zm0 0l-2 3.26 2-3.25zm-12.7 0zm0 0l-2 3.26 2-3.25zm20.93-4.02l.03-.05-.03.05zm-2.4 4.02l2.4-4.02-2.4 4.02zm-12.4-4.07l-.03.05-2.4 4.02 2.43-4.07zm22.06-4.15L33.3 8.33l2.53-4.15zm0 0l.03-.05-.03.05zM19.65 8.33l2.5-4.13-2.5 4.13zM8.98 4.18L6.44 8.33l2.54-4.15zm0 0L9 4.13l-.03.05zM29.38 0l-2.54 4.13L29.38 0zm-14.9.04l-2.53 4.1 2.52-4.1zm.23 6.35a.96.96 0 1 0-1.92 0 .96.96 0 0 0 1.92 0zM1 7.34h.11A.96.96 0 1 0 1 5.45v1.9zm27.55-.95a.96.96 0 1 0-1.91 0 .96.96 0 0 0 1.91 0zm6.3 4.16a.96.96 0 1 0-1.9 0 .96.96 0 0 0 1.9 0zm-14.26 0a.96.96 0 1 0-1.91 0 .96.96 0 0 0 1.91 0zm-16.3 0a.96.96 0 1 0 1.91 0 .96.96 0 0 0-1.91 0zm22.43 3.6a.96.96 0 1 0-1.91 0 .96.96 0 0 0 1.91 0zm-14.8 0a.96.96 0 1 0 1.91 0 .96.96 0 0 0-1.9 0zm-7 3.29a.96.96 0 1 0 1.9 0 .96.96 0 0 0-1.9 0zm14.51 0a.96.96 0 1 0 1.91 0 .96.96 0 0 0-1.91 0zm14.27 0a.96.96 0 1 0 1.9 0 .96.96 0 0 0-1.9 0zm-19.82 4.69a.96.96 0 1 0 0-1.91.96.96 0 0 0 0 1.9zm12.56-.96a.96.96 0 1 0 1.9 0 .96.96 0 0 0-1.9 0zM1 22.1a.96.96 0 0 0 0-1.84v1.84zm3.41 3.02a.96.96 0 1 0 1.91 0 .96.96 0 0 0-1.9 0zm14.4 0a.96.96 0 1 0 1.9 0 .96.96 0 0 0-1.9 0zm14.01 0a.96.96 0 1 0 1.91 0 .96.96 0 0 0-1.91 0zm-8.38 4.08a.96.96 0 1 0 1.9 0 .96.96 0 0 0-1.9 0zm-13.02 0a.96.96 0 1 0 1.91 0 .96.96 0 0 0-1.91 0zm-5.1 3.63a.96.96 0 1 0-1.9 0 .96.96 0 0 0 1.9 0zm14.27 0a.96.96 0 1 0-1.91 0 .96.96 0 0 0 1.91 0zm15.02 0a.96.96 0 1 0-1.92 0 .96.96 0 0 0 1.92 0zM1 37.16a.96.96 0 0 0 0-1.86v1.86zm27.6-.93a.96.96 0 1 0-1.91 0 .96.96 0 0 0 1.9 0zm-13.52 0a.96.96 0 1 0-1.9 0 .96.96 0 0 0 1.9 0zm-8.76 3.76a.96.96 0 1 0-1.9 0 .96.96 0 0 0 1.9 0zm14.14 0a.96.96 0 1 0-1.9 0 .96.96 0 0 0 1.9 0zm13.31.96a.96.96 0 1 0 0-1.92.96.96 0 0 0 0 1.92zm-9.71 3.15a.96.96 0 1 0 1.91 0 .96.96 0 0 0-1.91 0zm-13.77 0a.96.96 0 1 0 1.92 0 .96.96 0 0 0-1.92 0zm-7.13 3.88a.96.96 0 1 0 1.91 0 .96.96 0 0 0-1.9 0zm13.77 0a.96.96 0 1 0 1.91 0 .96.96 0 0 0-1.91 0zm14.01 0a.96.96 0 1 0 1.92 0 .96.96 0 0 0-1.92 0z"/></g></svg>