
<svg width="147px" height="79px" viewBox="0 0 147 79" version="1.1" xmlns="http://www.w3.org/2000/svg" xmlns:xlink="http://www.w3.org/1999/xlink">
    <!-- Generator: Sketch 51 (57462) - http://www.bohemiancoding.com/sketch -->
    <desc>Created with Sketch.</desc>
    <defs></defs>
    <g id="Page-1" stroke="none" stroke-width="1" fill="none" fill-rule="evenodd">
        <g id="logo" fill="#21409A" fill-rule="nonzero">
            <g id="Group" transform="translate(0.000000, 48.000000)">
                <path d="M11.6,11.4 L9.3,11.4 L8.4,8.9 L4.1,8.9 L3.2,11.4 L0.9,11.4 L5.1,0.3 L7.4,0.3 L11.6,11.4 Z M7.7,7 L6.2,2.9 L4.8,7 L7.7,7 Z" id="Shape"></path>
                <path d="M19.7,11.4 L17.8,11.4 L17.8,10.2 C17.5,10.7 17.1,11 16.7,11.2 C16.3,11.4 15.8,11.5 15.4,11.5 C14.5,11.5 13.8,11.1 13.1,10.4 C12.5,9.7 12.2,8.6 12.2,7.3 C12.2,5.9 12.5,4.9 13.1,4.2 C13.7,3.5 14.5,3.1 15.4,3.1 C16.3,3.1 17,3.5 17.6,4.2 L17.6,0.2 L19.6,0.2 L19.6,11.4 L19.7,11.4 Z M14.2,7.2 C14.2,8.1 14.3,8.7 14.5,9.1 C14.8,9.7 15.3,9.9 15.9,9.9 C16.4,9.9 16.8,9.7 17.1,9.3 C17.4,8.9 17.6,8.3 17.6,7.4 C17.6,6.5 17.4,5.8 17.1,5.4 C16.8,5 16.4,4.8 15.9,4.8 C15.4,4.8 15,5 14.7,5.4 C14.4,5.8 14.2,6.4 14.2,7.2 Z" id="Shape"></path>
                <path d="M23.7,11.4 L20.6,3.4 L22.7,3.4 L24.2,7.5 L24.6,8.9 C24.7,8.6 24.8,8.3 24.8,8.2 C24.9,8 24.9,7.7 25,7.5 L26.5,3.4 L28.6,3.4 L25.5,11.4 L23.7,11.4 Z" id="Shape"></path>
                <path d="M29.7,2.3 L29.7,0.3 L31.7,0.3 L31.7,2.3 L29.7,2.3 Z M29.7,11.4 L29.7,3.4 L31.7,3.4 L31.7,11.4 L29.7,11.4 Z" id="Shape"></path>
                <path d="M33,9.1 L35,8.8 C35.1,9.2 35.3,9.5 35.5,9.7 C35.8,9.9 36.1,10 36.6,10 C37.1,10 37.5,9.9 37.8,9.7 C38,9.6 38.1,9.4 38.1,9.1 C38.1,8.9 38.1,8.8 38,8.7 C37.9,8.6 37.7,8.5 37.3,8.4 C35.7,8 34.6,7.7 34.2,7.4 C33.6,7 33.3,6.4 33.3,5.6 C33.3,4.9 33.6,4.3 34.1,3.8 C34.6,3.3 35.4,3.1 36.6,3.1 C37.7,3.1 38.4,3.3 39,3.6 C39.6,3.9 39.9,4.5 40.1,5.2 L38,5.7 C37.9,5.4 37.8,5.1 37.5,5 C37.3,4.8 36.9,4.7 36.5,4.7 C36,4.7 35.6,4.8 35.3,4.9 C35.1,5 35.1,5.2 35.1,5.3 C35.1,5.5 35.2,5.6 35.3,5.7 C35.5,5.8 36.1,6 37.2,6.3 C38.3,6.6 39,6.9 39.5,7.2 C39.9,7.6 40.1,8.1 40.1,8.8 C40.1,9.5 39.8,10.2 39.2,10.7 C38.6,11.2 37.7,11.5 36.6,11.5 C35.5,11.5 34.7,11.3 34.1,10.8 C33.6,10.5 33.2,9.9 33,9.1 Z" id="Shape"></path>
                <path d="M41.3,7.3 C41.3,6.6 41.5,5.9 41.8,5.2 C42.1,4.5 42.6,4 43.2,3.7 C43.8,3.4 44.5,3.2 45.3,3.2 C46.5,3.2 47.4,3.6 48.2,4.4 C48.9,5.2 49.3,6.2 49.3,7.4 C49.3,8.6 48.9,9.6 48.2,10.4 C47.4,11.2 46.5,11.6 45.4,11.6 C44.7,11.6 44,11.4 43.4,11.1 C42.8,10.8 42.3,10.3 41.9,9.6 C41.5,9 41.3,8.2 41.3,7.3 Z M43.4,7.4 C43.4,8.2 43.6,8.8 43.9,9.2 C44.3,9.6 44.7,9.8 45.2,9.8 C45.7,9.8 46.2,9.6 46.5,9.2 C46.9,8.8 47,8.2 47,7.4 C47,6.6 46.8,6 46.5,5.6 C46.1,5.2 45.7,5 45.2,5 C44.7,5 44.2,5.2 43.9,5.6 C43.6,6 43.4,6.6 43.4,7.4 Z" id="Shape"></path>
                <path d="M52.7,11.4 L50.7,11.4 L50.7,3.4 L52.6,3.4 L52.6,4.5 C52.9,4 53.2,3.6 53.5,3.4 C53.8,3.2 54.1,3.1 54.4,3.1 C54.9,3.1 55.3,3.2 55.7,3.5 L55,5.4 C54.7,5.2 54.3,5.1 54,5.1 C53.7,5.1 53.5,5.2 53.3,5.3 C53.1,5.4 52.9,5.8 52.8,6.2 C52.7,6.6 52.6,7.5 52.6,8.9 L52.6,11.4 L52.7,11.4 Z" id="Shape"></path>
                <path d="M55.4,3.4 L57.6,3.4 L59.4,9.1 L61.2,3.4 L63.3,3.4 L60.6,11.1 L60.1,12.5 C59.9,13 59.7,13.3 59.6,13.6 C59.4,13.8 59.3,14 59,14.2 C58.8,14.4 58.5,14.5 58.2,14.6 C57.9,14.7 57.5,14.7 57.2,14.7 C56.8,14.7 56.4,14.7 56,14.6 L55.8,12.9 C56.1,13 56.4,13 56.7,13 C57.2,13 57.5,12.9 57.8,12.6 C58,12.3 58.2,11.9 58.3,11.5 L55.4,3.4 Z" id="Shape"></path>
                <path d="M75.4,7.3 L77.5,8 C77.2,9.2 76.6,10.1 75.9,10.7 C75.2,11.3 74.2,11.6 73.1,11.6 C71.7,11.6 70.5,11.1 69.6,10.1 C68.7,9.1 68.2,7.7 68.2,6 C68.2,4.2 68.7,2.7 69.6,1.7 C70.5,0.7 71.7,0.2 73.2,0.2 C74.5,0.2 75.6,0.6 76.4,1.4 C76.9,1.9 77.2,2.6 77.5,3.4 L75.4,3.9 C75.3,3.3 75,2.9 74.6,2.5 C74.1,2.2 73.6,2 73,2 C72.2,2 71.6,2.3 71.1,2.9 C70.6,3.5 70.4,4.4 70.4,5.8 C70.4,7.2 70.6,8.2 71.1,8.8 C71.6,9.4 72.2,9.7 73,9.7 C73.6,9.7 74.1,9.5 74.5,9.1 C74.9,8.7 75.2,8.1 75.4,7.3 Z" id="Shape"></path>
                <path d="M78.7,7.3 C78.7,6.6 78.9,5.9 79.2,5.2 C79.5,4.5 80,4 80.6,3.7 C81.2,3.4 81.9,3.2 82.7,3.2 C83.9,3.2 84.8,3.6 85.6,4.4 C86.3,5.2 86.7,6.2 86.7,7.4 C86.7,8.6 86.3,9.6 85.6,10.4 C84.9,11.2 83.9,11.6 82.8,11.6 C82.1,11.6 81.4,11.4 80.8,11.1 C80.2,10.8 79.7,10.3 79.3,9.6 C78.8,9 78.7,8.2 78.7,7.3 Z M80.8,7.4 C80.8,8.2 81,8.8 81.3,9.2 C81.7,9.6 82.1,9.8 82.6,9.8 C83.1,9.8 83.6,9.6 83.9,9.2 C84.3,8.8 84.4,8.2 84.4,7.4 C84.4,6.6 84.2,6 83.9,5.6 C83.5,5.2 83.1,5 82.6,5 C82.1,5 81.6,5.2 81.3,5.6 C80.9,6 80.8,6.6 80.8,7.4 Z" id="Shape"></path>
                <path d="M87.9,3.4 L89.8,3.4 L89.8,4.5 C90.5,3.6 91.3,3.2 92.2,3.2 C92.7,3.2 93.1,3.3 93.5,3.5 C93.9,3.7 94.2,4 94.4,4.5 C94.7,4.1 95.1,3.7 95.5,3.5 C95.9,3.3 96.3,3.2 96.8,3.2 C97.4,3.2 97.8,3.3 98.2,3.6 C98.6,3.9 98.9,4.2 99.1,4.7 C99.2,5 99.3,5.6 99.3,6.4 L99.3,11.5 L97.3,11.5 L97.3,6.9 C97.3,6.1 97.2,5.6 97.1,5.4 C96.9,5.1 96.6,4.9 96.2,4.9 C95.9,4.9 95.6,5 95.4,5.2 C95.1,5.4 95,5.6 94.9,6 C94.8,6.4 94.7,6.9 94.7,7.7 L94.7,11.6 L92.7,11.6 L92.7,7 C92.7,6.2 92.7,5.7 92.6,5.5 C92.5,5.3 92.4,5.1 92.3,5 C92.1,4.9 91.9,4.8 91.7,4.8 C91.4,4.8 91.1,4.9 90.8,5.1 C90.5,5.3 90.4,5.5 90.3,5.9 C90,6.2 90,6.7 90,7.5 L90,11.4 L88,11.4 L88,3.4 L87.9,3.4 Z" id="Shape"></path>
                <path d="M101,3.4 L102.9,3.4 L102.9,4.5 C103.6,3.6 104.4,3.2 105.3,3.2 C105.8,3.2 106.2,3.3 106.6,3.5 C107,3.7 107.3,4 107.5,4.5 C107.8,4.1 108.2,3.7 108.6,3.5 C109,3.3 109.4,3.2 109.9,3.2 C110.5,3.2 110.9,3.3 111.3,3.6 C111.7,3.9 112,4.2 112.2,4.7 C112.3,5 112.4,5.6 112.4,6.4 L112.4,11.5 L110.4,11.5 L110.4,6.9 C110.4,6.1 110.3,5.6 110.2,5.4 C110,5.1 109.7,4.9 109.3,4.9 C109,4.9 108.7,5 108.5,5.2 C108.2,5.4 108.1,5.6 108,6 C107.9,6.4 107.8,6.9 107.8,7.7 L107.8,11.6 L105.8,11.6 L105.8,7 C105.8,6.2 105.8,5.7 105.7,5.5 C105.6,5.3 105.5,5.1 105.4,5 C105.2,4.9 105,4.8 104.8,4.8 C104.5,4.8 104.2,4.9 103.9,5.1 C103.6,5.3 103.5,5.5 103.4,5.9 C103.3,6.2 103.2,6.8 103.2,7.6 L103.2,11.5 L101.2,11.5 L101.2,3.4 L101,3.4 Z" id="Shape"></path>
                <path d="M114.3,2.3 L114.3,0.3 L116.3,0.3 L116.3,2.3 L114.3,2.3 Z M114.3,11.4 L114.3,3.4 L116.3,3.4 L116.3,11.4 L114.3,11.4 Z" id="Shape"></path>
                <path d="M121.8,3.4 L121.8,5.1 L120.4,5.1 L120.4,8.3 C120.4,9 120.4,9.3 120.4,9.4 C120.4,9.5 120.5,9.6 120.6,9.7 C120.7,9.8 120.8,9.8 120.9,9.8 C121.1,9.8 121.4,9.7 121.7,9.6 L121.9,11.3 C121.4,11.5 120.9,11.6 120.3,11.6 C119.9,11.6 119.6,11.5 119.3,11.4 C119,11.3 118.8,11.1 118.6,10.9 C118.5,10.7 118.4,10.4 118.3,10.1 C118.3,9.9 118.2,9.4 118.2,8.6 L118.2,5.1 L117.3,5.1 L117.3,3.4 L118.2,3.4 L118.2,1.8 L120.3,0.6 L120.3,3.4 L121.8,3.4 Z" id="Shape"></path>
                <path d="M126.6,3.4 L126.6,5.1 L125.2,5.1 L125.2,8.3 C125.2,9 125.2,9.3 125.2,9.4 C125.2,9.5 125.3,9.6 125.4,9.7 C125.5,9.8 125.6,9.8 125.7,9.8 C125.9,9.8 126.2,9.7 126.5,9.6 L126.7,11.3 C126.2,11.5 125.7,11.6 125.1,11.6 C124.7,11.6 124.4,11.5 124.1,11.4 C123.8,11.3 123.6,11.1 123.4,10.9 C123.3,10.7 123.2,10.4 123.1,10.1 C123.1,9.9 123,9.4 123,8.6 L123,5.1 L122.1,5.1 L122.1,3.4 L123,3.4 L123,1.8 L125.1,0.6 L125.1,3.4 L126.6,3.4 Z" id="Shape"></path>
                <path d="M132.3,8.8 L134.3,9.2 C134,10 133.6,10.6 133.1,11 C132.6,11.4 131.8,11.6 131,11.6 C129.7,11.6 128.7,11.1 128,10.2 C127.5,9.5 127.2,8.5 127.2,7.4 C127.2,6.1 127.5,5 128.2,4.3 C128.9,3.5 129.7,3.2 130.7,3.2 C131.8,3.2 132.8,3.6 133.4,4.4 C134,5.2 134.4,6.4 134.4,8 L129.3,8 C129.3,8.6 129.5,9.1 129.8,9.5 C130.1,9.9 130.5,10 131,10 C131.3,10 131.6,9.9 131.8,9.7 C132.1,9.5 132.2,9.3 132.3,8.8 Z M132.5,6.7 C132.5,6.1 132.3,5.6 132,5.3 C131.7,5 131.4,4.8 130.9,4.8 C130.5,4.8 130.1,5 129.8,5.3 C129.5,5.6 129.4,6.1 129.4,6.7 L132.5,6.7 Z" id="Shape"></path>
                <path d="M140.5,8.8 L142.5,9.2 C142.2,10 141.8,10.6 141.3,11 C140.8,11.4 140,11.6 139.2,11.6 C137.9,11.6 136.9,11.1 136.2,10.2 C135.7,9.5 135.4,8.5 135.4,7.4 C135.4,6.1 135.7,5 136.4,4.3 C137.1,3.5 137.9,3.2 138.9,3.2 C140,3.2 141,3.6 141.6,4.4 C142.2,5.2 142.6,6.4 142.6,8 L137.5,8 C137.5,8.6 137.7,9.1 138,9.5 C138.3,9.9 138.7,10 139.2,10 C139.5,10 139.8,9.9 140,9.7 C140.2,9.5 140.4,9.3 140.5,8.8 Z M140.6,6.7 C140.6,6.1 140.4,5.6 140.1,5.3 C139.8,5 139.5,4.8 139,4.8 C138.6,4.8 138.2,5 137.9,5.3 C137.6,5.6 137.5,6.1 137.5,6.7 L140.6,6.7 Z" id="Shape"></path>
                <path d="M1.5,25.9 C1.5,25.2 1.7,24.5 2,23.8 C2.3,23.1 2.8,22.6 3.4,22.3 C4,22 4.7,21.8 5.5,21.8 C6.7,21.8 7.6,22.2 8.4,23 C9.1,23.8 9.5,24.8 9.5,26 C9.5,27.2 9.1,28.2 8.4,29 C7.6,29.8 6.7,30.2 5.6,30.2 C4.9,30.2 4.2,30 3.6,29.7 C3,29.4 2.5,28.9 2.1,28.2 C1.7,27.6 1.5,26.8 1.5,25.9 Z M3.6,26 C3.6,26.8 3.8,27.4 4.1,27.8 C4.5,28.2 4.9,28.4 5.4,28.4 C5.9,28.4 6.4,28.2 6.7,27.8 C7.1,27.4 7.2,26.8 7.2,26 C7.2,25.2 7,24.6 6.7,24.2 C6.3,23.8 5.9,23.6 5.4,23.6 C4.9,23.6 4.4,23.8 4.1,24.2 C3.8,24.6 3.6,25.2 3.6,26 Z" id="Shape"></path>
                <path d="M18,30 L16,30 L16,25.9 C16,25 16,24.5 15.9,24.2 C15.8,23.9 15.7,23.7 15.5,23.6 C15.3,23.5 15.1,23.4 14.8,23.4 C14.4,23.4 14.1,23.5 13.8,23.7 C13.5,23.9 13.3,24.2 13.2,24.5 C13,24.9 13,25.5 13,26.4 L13,30 L11,30 L11,22 L12.9,22 L12.9,23.2 C13.6,22.3 14.4,21.8 15.4,21.8 C15.9,21.8 16.3,21.9 16.6,22.1 C17,22.3 17.3,22.5 17.4,22.7 C17.6,23 17.7,23.3 17.8,23.6 C17.9,23.9 17.9,24.4 17.9,25 L17.9,30 L18,30 Z" id="Shape"></path>
                <polygon id="Shape" points="25.4 30 22.9 18.9 25.1 18.9 26.7 26.5 28.6 18.9 31.2 18.9 33.1 26.7 34.7 18.9 36.9 18.9 34.3 30 32 30 29.9 21.7 27.8 30"></polygon>
                <path d="M38.8,24.4 L36.9,24.1 C37.1,23.3 37.5,22.7 38,22.4 C38.5,22 39.3,21.8 40.3,21.8 C41.2,21.8 41.9,21.9 42.3,22.1 C42.7,22.3 43.1,22.6 43.2,23 C43.4,23.3 43.5,24 43.5,24.9 L43.5,27.4 C43.5,28.1 43.5,28.6 43.6,29 C43.7,29.4 43.8,29.7 44,30.1 L42,30.1 C41.9,30 41.9,29.7 41.8,29.5 C41.8,29.4 41.7,29.3 41.7,29.2 C41.4,29.6 41,29.8 40.6,30 C40.2,30.2 39.8,30.3 39.3,30.3 C38.5,30.3 37.9,30.1 37.4,29.6 C36.9,29.1 36.7,28.6 36.7,27.9 C36.7,27.4 36.8,27 37,26.7 C37.2,26.4 37.5,26.1 37.9,25.9 C38.3,25.7 38.8,25.5 39.5,25.4 C40.5,25.2 41.1,25 41.5,24.9 L41.5,24.7 C41.5,24.3 41.4,24 41.2,23.8 C41,23.6 40.6,23.5 40.1,23.5 C39.7,23.5 39.5,23.6 39.2,23.7 C38.9,23.8 38.9,24.1 38.8,24.4 Z M41.5,26.2 C41.2,26.3 40.8,26.4 40.3,26.5 C39.7,26.6 39.4,26.8 39.2,26.9 C38.9,27.1 38.8,27.3 38.8,27.6 C38.8,27.9 38.9,28.2 39.1,28.4 C39.3,28.6 39.6,28.7 39.9,28.7 C40.3,28.7 40.6,28.6 41,28.3 C41.2,28.1 41.4,27.9 41.5,27.6 C41.6,27.4 41.6,27.1 41.6,26.6 L41.6,26.2 L41.5,26.2 Z" id="Shape"></path>
                <path d="M48.9,22 L48.9,23.7 L47.5,23.7 L47.5,26.9 C47.5,27.6 47.5,27.9 47.5,28 C47.5,28.1 47.6,28.2 47.7,28.3 C47.8,28.4 47.9,28.4 48,28.4 C48.2,28.4 48.5,28.3 48.8,28.2 L49,29.9 C48.5,30.1 48,30.2 47.4,30.2 C47,30.2 46.7,30.1 46.4,30 C46.1,29.9 45.9,29.7 45.7,29.5 C45.6,29.3 45.5,29 45.4,28.7 C45.4,28.5 45.3,28 45.3,27.2 L45.3,23.7 L44.4,23.7 L44.4,22 L45.3,22 L45.3,20.4 L47.4,19.2 L47.4,22 L48.9,22 Z" id="Shape"></path>
                <path d="M54.7,27.5 L56.7,27.9 C56.4,28.7 56,29.3 55.5,29.7 C55,30.1 54.2,30.3 53.4,30.3 C52.1,30.3 51.1,29.8 50.4,28.9 C49.9,28.2 49.6,27.2 49.6,26.1 C49.6,24.8 49.9,23.7 50.6,23 C51.3,22.2 52.1,21.9 53.1,21.9 C54.2,21.9 55.2,22.3 55.8,23.1 C56.4,23.9 56.8,25.1 56.8,26.7 L51.7,26.7 C51.7,27.3 51.9,27.8 52.2,28.2 C52.5,28.6 52.9,28.7 53.4,28.7 C53.7,28.7 54,28.6 54.2,28.4 C54.4,28.2 54.5,27.9 54.7,27.5 Z M54.8,25.3 C54.8,24.7 54.6,24.2 54.3,23.9 C54,23.6 53.7,23.4 53.2,23.4 C52.8,23.4 52.4,23.6 52.1,23.9 C51.8,24.2 51.7,24.7 51.7,25.3 L54.8,25.3 Z" id="Shape"></path>
                <path d="M60.3,30 L58.3,30 L58.3,22 L60.2,22 L60.2,23.1 C60.5,22.6 60.8,22.2 61.1,22 C61.4,21.8 61.7,21.7 62,21.7 C62.5,21.7 62.9,21.8 63.3,22.1 L62.7,24 C62.4,23.8 62,23.7 61.7,23.7 C61.4,23.7 61.2,23.8 61,23.9 C60.8,24 60.6,24.4 60.5,24.8 C60.4,25.2 60.3,26.1 60.3,27.5 L60.3,30 Z" id="Shape"></path>
                <polygon id="Shape" points="67.9 30 67.9 18.9 70.1 18.9 70.1 30"></polygon>
                <path d="M79,30 L77,30 L77,25.9 C77,25 77,24.5 76.9,24.2 C76.8,23.9 76.7,23.7 76.5,23.6 C76.3,23.5 76.1,23.4 75.8,23.4 C75.4,23.4 75.1,23.5 74.8,23.7 C74.5,23.9 74.3,24.2 74.2,24.5 C74,24.9 74,25.5 74,26.4 L74,30 L72,30 L72,22 L73.9,22 L73.9,23.2 C74.6,22.3 75.4,21.8 76.4,21.8 C76.9,21.8 77.3,21.9 77.6,22.1 C78,22.3 78.3,22.5 78.4,22.7 C78.6,23 78.7,23.3 78.8,23.6 C78.9,23.9 78.9,24.4 78.9,25 L78.9,30 L79,30 Z" id="Shape"></path>
                <path d="M80,22 L81.1,22 L81.1,21.4 C81.1,20.7 81.2,20.2 81.3,19.9 C81.4,19.6 81.7,19.3 82.1,19.1 C82.5,18.9 82.9,18.8 83.5,18.8 C84.1,18.8 84.7,18.9 85.2,19.1 L84.9,20.6 C84.6,20.5 84.3,20.5 84,20.5 C83.7,20.5 83.5,20.6 83.4,20.7 C83.3,20.8 83.2,21.1 83.2,21.5 L83.2,22 L84.7,22 L84.7,23.7 L83.2,23.7 L83.2,30 L81.2,30 L81.2,23.6 L80,23.6 L80,22 Z" id="Shape"></path>
                <path d="M85.2,25.9 C85.2,25.2 85.4,24.5 85.7,23.8 C86,23.1 86.5,22.6 87.1,22.3 C87.7,22 88.4,21.8 89.2,21.8 C90.4,21.8 91.3,22.2 92.1,23 C92.8,23.8 93.2,24.8 93.2,26 C93.2,27.2 92.8,28.2 92.1,29 C91.4,29.8 90.4,30.2 89.3,30.2 C88.6,30.2 87.9,30 87.3,29.7 C86.7,29.4 86.2,28.9 85.8,28.2 C85.4,27.6 85.2,26.8 85.2,25.9 Z M87.3,26 C87.3,26.8 87.5,27.4 87.8,27.8 C88.2,28.2 88.6,28.4 89.1,28.4 C89.6,28.4 90.1,28.2 90.4,27.8 C90.8,27.4 90.9,26.8 90.9,26 C90.9,25.2 90.7,24.6 90.4,24.2 C90,23.8 89.6,23.6 89.1,23.6 C88.6,23.6 88.1,23.8 87.8,24.2 C87.5,24.6 87.3,25.2 87.3,26 Z" id="Shape"></path>
                <path d="M96.6,30 L94.6,30 L94.6,22 L96.5,22 L96.5,23.1 C96.8,22.6 97.1,22.2 97.4,22 C97.7,21.8 98,21.7 98.3,21.7 C98.8,21.7 99.2,21.8 99.6,22.1 L99,24 C98.7,23.8 98.3,23.7 98,23.7 C97.7,23.7 97.5,23.8 97.3,23.9 C97.1,24.1 96.9,24.4 96.8,24.8 C96.7,25.2 96.6,26.1 96.6,27.5 L96.6,30 Z" id="Shape"></path>
                <path d="M100.1,22 L102,22 L102,23.1 C102.7,22.2 103.5,21.8 104.4,21.8 C104.9,21.8 105.3,21.9 105.7,22.1 C106.1,22.3 106.4,22.6 106.6,23.1 C106.9,22.7 107.3,22.3 107.7,22.1 C108.1,21.9 108.5,21.8 109,21.8 C109.6,21.8 110,21.9 110.4,22.2 C110.8,22.5 111.1,22.8 111.3,23.3 C111.4,23.6 111.5,24.2 111.5,25 L111.5,30 L109.5,30 L109.5,25.4 C109.5,24.6 109.4,24.1 109.3,23.9 C109.1,23.6 108.8,23.4 108.4,23.4 C108.1,23.4 107.8,23.5 107.6,23.7 C107.3,23.9 107.2,24.1 107.1,24.5 C107,24.9 106.9,25.4 106.9,26.2 L106.9,30 L104.9,30 L104.9,25.6 C104.9,24.8 104.9,24.3 104.8,24.1 C104.7,23.9 104.6,23.7 104.5,23.6 C104.3,23.5 104.1,23.4 103.9,23.4 C103.6,23.4 103.3,23.5 103,23.7 C102.7,23.9 102.6,24.1 102.5,24.5 C102.4,24.8 102.3,25.4 102.3,26.2 L102.3,30 L100.3,30 L100.3,22 L100.1,22 Z" id="Shape"></path>
                <path d="M114.9,24.4 L113,24.1 C113.2,23.3 113.6,22.7 114.1,22.4 C114.6,22 115.4,21.8 116.4,21.8 C117.3,21.8 118,21.9 118.4,22.1 C118.8,22.3 119.2,22.6 119.3,23 C119.5,23.3 119.6,24 119.6,24.9 L119.6,27.4 C119.6,28.1 119.6,28.6 119.7,29 C119.8,29.4 119.9,29.7 120.1,30.1 L118.1,30.1 C118,30 118,29.7 117.9,29.5 C117.9,29.4 117.8,29.3 117.8,29.2 C117.5,29.6 117.1,29.8 116.7,30 C116.3,30.2 115.9,30.3 115.4,30.3 C114.6,30.3 114,30.1 113.5,29.6 C113,29.1 112.8,28.6 112.8,27.9 C112.8,27.4 112.9,27 113.1,26.7 C113.3,26.3 113.6,26.1 114,25.9 C114.4,25.7 114.9,25.5 115.6,25.4 C116.6,25.2 117.2,25 117.6,24.9 L117.6,24.7 C117.6,24.3 117.5,24 117.3,23.8 C117.1,23.6 116.7,23.5 116.2,23.5 C115.8,23.5 115.6,23.6 115.3,23.7 C115,23.8 115,24.1 114.9,24.4 Z M117.6,26.2 C117.3,26.3 116.9,26.4 116.4,26.5 C115.8,26.6 115.5,26.8 115.3,26.9 C115,27.1 114.9,27.3 114.9,27.6 C114.9,27.9 115,28.2 115.2,28.4 C115.4,28.6 115.7,28.7 116,28.7 C116.4,28.7 116.7,28.6 117.1,28.3 C117.3,28.1 117.5,27.9 117.6,27.6 C117.7,27.4 117.7,27.1 117.7,26.6 L117.7,26.2 L117.6,26.2 Z" id="Shape"></path>
                <path d="M125,22 L125,23.7 L123.6,23.7 L123.6,26.9 C123.6,27.6 123.6,27.9 123.6,28 C123.6,28.1 123.7,28.2 123.8,28.3 C123.9,28.4 124,28.4 124.1,28.4 C124.3,28.4 124.6,28.3 124.9,28.2 L125.1,29.9 C124.6,30.1 124.1,30.2 123.5,30.2 C123.1,30.2 122.8,30.1 122.5,30 C122.2,29.9 122,29.7 121.8,29.5 C121.7,29.3 121.6,29 121.5,28.7 C121.5,28.5 121.4,28 121.4,27.2 L121.4,23.7 L120.5,23.7 L120.5,22 L121.4,22 L121.4,20.4 L123.5,19.2 L123.5,22 L125,22 Z" id="Shape"></path>
                <path d="M126.3,20.9 L126.3,18.9 L128.3,18.9 L128.3,20.9 L126.3,20.9 Z M126.3,30 L126.3,22 L128.3,22 L128.3,30 L126.3,30 Z" id="Shape"></path>
                <path d="M129.8,25.9 C129.8,25.2 130,24.5 130.3,23.8 C130.6,23.1 131.1,22.6 131.7,22.3 C132.3,22 133,21.8 133.8,21.8 C135,21.8 135.9,22.2 136.7,23 C137.4,23.8 137.8,24.8 137.8,26 C137.8,27.2 137.4,28.2 136.7,29 C136,29.8 135,30.2 133.9,30.2 C133.2,30.2 132.5,30 131.9,29.7 C131.3,29.4 130.8,28.9 130.4,28.2 C130,27.6 129.8,26.8 129.8,25.9 Z M131.9,26 C131.9,26.8 132.1,27.4 132.4,27.8 C132.8,28.2 133.2,28.4 133.7,28.4 C134.2,28.4 134.7,28.2 135,27.8 C135.4,27.4 135.5,26.8 135.5,26 C135.5,25.2 135.3,24.6 135,24.2 C134.6,23.8 134.2,23.6 133.7,23.6 C133.2,23.6 132.7,23.8 132.4,24.2 C132.1,24.6 131.9,25.2 131.9,26 Z" id="Shape"></path>
                <path d="M146.3,30 L144.3,30 L144.3,25.9 C144.3,25 144.3,24.5 144.2,24.2 C144.1,23.9 144,23.7 143.8,23.6 C143.6,23.5 143.4,23.4 143.1,23.4 C142.7,23.4 142.4,23.5 142.1,23.7 C141.8,23.9 141.6,24.2 141.5,24.5 C141.4,24.8 141.3,25.4 141.3,26.3 L141.3,30 L139.3,30 L139.3,22 L141.2,22 L141.2,23.2 C141.9,22.3 142.7,21.8 143.7,21.8 C144.2,21.8 144.6,21.9 144.9,22.1 C145.3,22.3 145.6,22.5 145.7,22.7 C145.9,23 146,23.3 146.1,23.6 C146.2,23.9 146.2,24.4 146.2,25 L146.2,30 L146.3,30 Z" id="Shape"></path>
            </g>
            <g id="Group-2" transform="translate(1.000000, 0.000000)">
                <rect id="Rectangle-path" x="133" y="1" width="12" height="43"></rect>
                <path d="M64.6619318,23.2846968 C64.4176136,28.2309603 60.3863636,31.9708181 55.6221591,31.9708181 C50.6136364,31.9708181 46.4602273,27.6277574 46.4602273,22.4402128 C46.4602273,17.1320275 50.4914773,12.9096075 55.6221591,12.9096075 C59.4090909,12.9096075 62.7073864,15.4430595 64.0511364,18.9416361 L64.0511364,19.3035579 L76.7556818,19.3035579 L76.7556818,18.9416361 C75.0454545,8.2046251 66.25,0.00106610188 55.5,0.00106610188 C43.6505682,-0.119574472 34,10.0142337 34,22.4402128 C34,34.8661918 43.6505682,45 55.5,45 C67.1051136,45 76.6335227,35.2281136 77,23.0434156 L76.8778409,23.0434156 L64.6619318,23.0434156 L64.6619318,23.2846968 Z" id="Shape"></path>
                <path d="M94.1468927,30.8222222 C94.1468927,31.6777778 94.8757062,32.4111111 95.7259887,32.4111111 C96.5762712,32.4111111 97.3050847,31.6777778 97.3050847,30.8222222 L97.3050847,30.4555556 L97.3050847,1 L109.573446,1 L109.573446,29.9666667 L109.573446,30.8222222 C109.573446,31.6777778 110.30226,32.4111111 111.152542,32.4111111 C112.002825,32.4111111 112.731638,31.6777778 112.731638,30.8222222 L112.731638,1 L125,1 L125,31.4333333 L125,32.2888889 C125,39.3777778 119.655367,45 113.096045,45 C109.20904,45 105.686441,42.9222222 103.5,39.7444444 C101.313559,42.9222222 97.7909605,45 93.9039548,45 C87.3446328,45 82,39.2555556 82,32.2888889 L82,31.9222222 L82,1 L94.3898305,1 L94.3898305,30.7 L94.1468927,30.8222222 Z" id="Shape"></path>
                <path d="M12.5409836,20.3111111 L12.5409836,23.7333333 L15.4918033,23.7333333 L15.4918033,34.6111111 L12.5409836,34.6111111 L12.5409836,45 L0,45 L0,16.8888889 C0,8.08888889 6.76229508,1 15,1 C23.2377049,1 30,8.08888889 30,16.8888889 L30,45 L17.5819672,45 L17.5819672,20.5555556 L17.5819672,16.6444444 C17.5819672,15.1777778 16.4754098,13.9555556 15,13.9555556 C13.647541,13.9555556 12.4180328,15.1777778 12.4180328,16.6444444 L12.5409836,20.3111111 Z" id="Shape"></path>
            </g>
        </g>
    </g>
</svg>
